M48
;DRILL file {KiCad 4.0.6} date Mon Sep 18 11:29:55 2017
;FORMAT={-:-/ absolute / inch / decimal}
FMAT,2
INCH,TZ
T1C0.016
T2C0.028
T3C0.031
T4C0.032
T5C0.035
T6C0.040
T7C0.053
T8C0.079
%
G90
G05
M72
T1
X2.1142Y-3.2126
X2.1142Y-3.2677
X2.1142Y-3.3228
X2.1142Y-3.3937
X2.2894Y-4.5591
X2.58Y-4.075
X2.748Y-3.2559
X2.7835Y-4.4016
X2.811Y-3.252
X2.8622Y-3.252
X2.8898Y-4.3898
X2.9449Y-4.3701
X2.985Y-4.605
X3.085Y-4.605
X3.09Y-4.23
X3.1053Y-1.8671
X3.1654Y-3.0945
X3.18Y-4.22
X3.214Y-2.658
X3.24Y-2.83
X3.293Y-2.74
X3.3Y-2.98
X3.3Y-3.06
X3.3015Y-2.4265
X3.3091Y-3.5561
X3.3504Y-4.3287
X3.3642Y-4.2815
X3.3976Y-2.437
X3.415Y-2.855
X3.4291Y-4.3602
X3.53Y-2.785
X3.535Y-2.95
X3.545Y-3.415
X3.555Y-3.195
X3.5945Y-3.2756
X3.6093Y-2.4449
X3.6339Y-3.1929
X3.635Y-2.85
X3.64Y-2.95
X3.67Y-4.005
X3.6781Y-3.2756
X3.7087Y-2.9124
X3.7293Y-2.6211
X3.7352Y-2.9439
X3.75Y-2.8415
X3.775Y-3.115
X3.795Y-3.115
X3.8071Y-4.2874
X3.813Y-4.2205
X3.82Y-2.96
X3.8307Y-4.3465
X3.8337Y-3.06
X3.8425Y-2.4902
X3.86Y-2.985
X3.874Y-4.2874
X3.89Y-2.585
X3.89Y-3.87
X3.9094Y-2.5591
X3.91Y-2.78
X3.94Y-2.73
X3.95Y-2.78
X3.95Y-2.95
X3.9744Y-2.6339
X3.975Y-2.685
X3.975Y-2.725
X3.9813Y-2.5226
X4.0039Y-2.4094
X4.03Y-2.845
X4.0325Y-2.4724
X4.0433Y-2.811
X4.05Y-3.1
X4.0512Y-2.6378
X4.0581Y-2.4449
X4.065Y-2.91
X4.075Y-2.61
X4.0876Y-2.4045
X4.0945Y-2.6378
X4.0945Y-2.7992
X4.0974Y-2.3602
X4.1Y-3.1
X4.11Y-2.95
X4.1112Y-2.6112
X4.1358Y-2.5797
X4.1742Y-2.5669
X4.215Y-3.28
X4.22Y-2.82
X4.22Y-3.17
X4.23Y-2.915
X4.275Y-2.9
X4.3474Y-2.6299
X4.3504Y-2.373
X4.36Y-3.52
X4.37Y-2.44
X4.3878Y-4.0994
X4.3898Y-3.4941
X4.4Y-2.86
X4.4016Y-2.4665
X4.4331Y-2.6299
X4.4488Y-3.8228
X4.485Y-2.88
X4.4921Y-4.0039
X4.5Y-3.9685
X4.5079Y-3.9331
X4.555Y-2.5115
X4.57Y-2.835
X4.585Y-4.572
X4.601Y-4.534
X4.62Y-4.05
X4.702Y-4.65
X4.725Y-4.615
T2
X2.65Y-1.8
X2.65Y-2.4
X2.65Y-2.575
X2.65Y-3.175
X2.65Y-3.35
X2.65Y-3.95
X2.65Y-4.125
X2.65Y-4.725
X2.75Y-1.8
X2.75Y-2.4
X2.75Y-2.575
X2.75Y-3.175
X2.75Y-3.35
X2.75Y-3.95
X2.75Y-4.125
X2.75Y-4.725
X2.85Y-1.8
X2.85Y-2.4
X2.85Y-2.575
X2.85Y-3.175
X2.85Y-3.35
X2.85Y-3.95
X2.85Y-4.125
X2.85Y-4.725
X2.95Y-1.8
X2.95Y-2.4
X2.95Y-2.575
X2.95Y-3.175
X2.95Y-3.35
X2.95Y-3.95
X2.95Y-4.125
X2.95Y-4.725
X3.05Y-1.8
X3.05Y-2.4
X3.05Y-2.575
X3.05Y-3.175
X3.05Y-3.35
X3.05Y-3.95
X3.05Y-4.125
X3.05Y-4.725
X3.15Y-1.8
X3.15Y-2.4
X3.15Y-2.575
X3.15Y-3.175
X3.15Y-3.35
X3.15Y-3.95
X3.15Y-4.125
X3.15Y-4.725
X4.65Y-1.8
X4.65Y-2.4
X4.65Y-2.575
X4.65Y-3.175
X4.65Y-3.35
X4.65Y-3.95
X4.65Y-4.125
X4.65Y-4.725
X4.75Y-1.8
X4.75Y-2.4
X4.75Y-2.575
X4.75Y-3.175
X4.75Y-3.35
X4.75Y-3.95
X4.75Y-4.125
X4.75Y-4.725
X4.85Y-1.8
X4.85Y-2.4
X4.85Y-2.575
X4.85Y-3.175
X4.85Y-3.35
X4.85Y-3.95
X4.85Y-4.125
X4.85Y-4.725
X4.95Y-1.8
X4.95Y-2.4
X4.95Y-2.575
X4.95Y-3.175
X4.95Y-3.35
X4.95Y-3.95
X4.95Y-4.125
X4.95Y-4.725
X5.05Y-1.8
X5.05Y-2.4
X5.05Y-2.575
X5.05Y-3.175
X5.05Y-3.35
X5.05Y-3.95
X5.05Y-4.125
X5.05Y-4.725
X5.15Y-1.8
X5.15Y-2.4
X5.15Y-2.575
X5.15Y-3.175
X5.15Y-3.35
X5.15Y-3.95
X5.15Y-4.125
X5.15Y-4.725
T3
X1.9675Y-2.1082
X1.9675Y-2.2782
X1.97Y-2.1882
X1.97Y-3.99
X1.97Y-4.08
X1.97Y-4.19
X1.97Y-4.3
X2.0375Y-2.1882
X2.0825Y-2.1082
X2.185Y-3.9982
X2.185Y-3.35
X2.1949Y-2.1358
X2.195Y-2.58
X2.235Y-4.1232
X2.235Y-3.425
X2.2422Y-2.505
X2.285Y-3.475
X2.285Y-4.245
X2.29Y-2.65
X2.335Y-2.8932
X2.335Y-3.525
X2.335Y-4.3
X2.34Y-2.7
X2.385Y-2.7472
X2.385Y-3.575
X2.385Y-4.345
X2.435Y-3.1782
X2.435Y-2.33
X2.435Y-3.88
X2.435Y-4.645
X2.4803Y-1.9193
X2.4843Y-4.4016
X2.485Y-2.275
X2.485Y-3.05
X2.485Y-3.825
X2.485Y-4.605
X2.4925Y-4.7525
X2.5098Y-1.9685
X2.535Y-2.2278
X2.535Y-2.995
X2.535Y-3.77
X2.535Y-4.555
X2.5394Y-2.0177
X2.5825Y-3.9875
X2.5886Y-2.0472
X2.59Y-2.455
X2.6496Y-3.6614
X2.695Y-3.26
X2.8465Y-3.6614
X2.85Y-2.935
X2.9525Y-4.31
X2.992Y-3.641
X2.995Y-3.754
X2.996Y-3.698
X3.045Y-2.685
X3.217Y-3.635
X3.218Y-3.74
X3.219Y-3.686
X3.2618Y-4.3327
X3.2618Y-4.5295
X3.408Y-3.695
X3.5039Y-2.873
X3.585Y-3.688
X3.65Y-2.37
X3.66Y-2.49
X3.9Y-2.66
X4.3175Y-4.3382
X4.53Y-4.34
X4.539Y-4.5319
X4.645Y-3.865
X4.65Y-1.94
X4.693Y-3.687
X4.6945Y-3.619
X4.696Y-3.7495
X4.71Y-4.31
X4.74Y-4.55
X4.75Y-1.99
X4.75Y-2.21
X4.85Y-2.045
X4.85Y-2.265
X4.95Y-2.1
X5.05Y-2.155
X5.135Y-4.035
X5.28Y-3.1
X5.285Y-3.88
X5.285Y-4.655
X5.335Y-3.05
X5.335Y-3.83
X5.335Y-4.6
X5.385Y-2.645
X5.385Y-3.42
X5.385Y-4.195
X5.435Y-2.695
X5.435Y-3.47
X5.435Y-4.245
X5.485Y-2.745
X5.485Y-3.52
X5.485Y-4.295
X5.535Y-2.795
X5.535Y-3.57
X5.535Y-4.345
X5.585Y-2.845
X5.585Y-3.62
X5.59Y-4.4
X5.6395Y-3.6775
X5.642Y-3.739
X5.643Y-3.806
X5.643Y-3.8765
T4
X4.435Y-4.325
X4.435Y-4.625
T5
X2.0866Y-1.8898
X2.0866Y-4.6457
X5.7087Y-1.8898
X5.7087Y-4.6457
T6
X3.8407Y-1.8386
X3.9407Y-1.8386
X4.0407Y-1.8386
X4.1407Y-1.8386
X4.6535Y-2.7803
X4.6535Y-2.8803
X4.6535Y-2.9803
X4.7535Y-2.7803
X4.7535Y-2.8803
X4.7535Y-2.9803
T7
X3.4984Y-4.445
X3.5984Y-4.345
X3.5984Y-4.545
X3.6984Y-4.445
X4.1015Y-4.445
X4.2015Y-4.345
X4.2015Y-4.545
X4.3015Y-4.445
T8
X4.9016Y-3.7205
X4.9016Y-4.498
X5.0984Y-3.7205
X5.0984Y-4.498
T0
M30
