%TF.GenerationSoftware,KiCad,Pcbnew,5.99.0-unknown-9424d66d22~106~ubuntu18.04.1*%
%TF.CreationDate,2021-01-09T19:59:22+08:00*%
%TF.ProjectId,Flashpads,466c6173-6870-4616-9473-2e6b69636164,rev?*%
%TF.SameCoordinates,Original*%
%TF.FileFunction,Copper,L1,Top*%
%TF.FilePolarity,Positive*%
%FSLAX46Y46*%
G04 Gerber Fmt 4.6, Leading zero omitted, Abs format (unit mm)*
G04 Created by KiCad (PCBNEW 5.99.0-unknown-9424d66d22~106~ubuntu18.04.1) date 2021-01-09 19:59:22*
%MOMM*%
%LPD*%
G01*
G04 APERTURE LIST*
%TA.AperFunction,NonConductor*%
%ADD10C,0.200000*%
%TD*%
%TA.AperFunction,SMDPad,CuDef*%
%ADD11R,1.430000X2.500000*%
%TD*%
%TA.AperFunction,ComponentPad*%
%ADD12O,1.350000X1.700000*%
%TD*%
%TA.AperFunction,ComponentPad*%
%ADD13O,1.100000X1.500000*%
%TD*%
%TA.AperFunction,SMDPad,CuDef*%
%ADD14R,0.400000X1.650000*%
%TD*%
%TA.AperFunction,SMDPad,CuDef*%
%ADD15R,2.000000X1.500000*%
%TD*%
%TA.AperFunction,SMDPad,CuDef*%
%ADD16R,1.825000X0.700000*%
%TD*%
%TA.AperFunction,SMDPad,CuDef*%
%ADD17R,1.350000X2.000000*%
%TD*%
%TA.AperFunction,SMDPad,CuDef*%
%ADD18R,0.300000X0.700000*%
%TD*%
%TA.AperFunction,ComponentPad*%
%ADD19C,1.400000*%
%TD*%
%TA.AperFunction,ComponentPad*%
%ADD20O,1.100000X2.400000*%
%TD*%
%TA.AperFunction,ComponentPad*%
%ADD21C,1.100000*%
%TD*%
%TA.AperFunction,ComponentPad*%
%ADD22R,1.100000X1.100000*%
%TD*%
%TA.AperFunction,ComponentPad*%
%ADD23O,1.200000X2.100000*%
%TD*%
%TA.AperFunction,ComponentPad*%
%ADD24O,1.200000X2.400000*%
%TD*%
%TA.AperFunction,ComponentPad*%
%ADD25C,1.200000*%
%TD*%
%TA.AperFunction,SMDPad,CuDef*%
%ADD26R,0.600000X1.450000*%
%TD*%
%TA.AperFunction,SMDPad,CuDef*%
%ADD27R,0.300000X1.450000*%
%TD*%
%TA.AperFunction,ComponentPad*%
%ADD28O,1.000000X2.100000*%
%TD*%
%TA.AperFunction,ComponentPad*%
%ADD29O,1.000000X1.600000*%
%TD*%
%TA.AperFunction,SMDPad,CuDef*%
%ADD30R,1.200000X1.900000*%
%TD*%
%TA.AperFunction,ComponentPad*%
%ADD31O,1.200000X1.900000*%
%TD*%
%TA.AperFunction,SMDPad,CuDef*%
%ADD32R,1.500000X1.900000*%
%TD*%
%TA.AperFunction,ComponentPad*%
%ADD33C,1.450000*%
%TD*%
%TA.AperFunction,SMDPad,CuDef*%
%ADD34R,0.400000X1.350000*%
%TD*%
%TA.AperFunction,ComponentPad*%
%ADD35C,2.000000*%
%TD*%
%TA.AperFunction,ComponentPad*%
%ADD36R,1.800000X1.800000*%
%TD*%
%TA.AperFunction,ComponentPad*%
%ADD37O,1.500000X2.250000*%
%TD*%
%TA.AperFunction,ComponentPad*%
%ADD38O,2.000000X2.000000*%
%TD*%
%TA.AperFunction,ComponentPad*%
%ADD39O,2.250000X1.500000*%
%TD*%
%TA.AperFunction,Conductor*%
%ADD40C,0.200000*%
%TD*%
%TA.AperFunction,Conductor*%
%ADD41C,0.250000*%
%TD*%
G04 APERTURE END LIST*
D10*
X67568548Y-54596356D02*
G75*
G02*
X66294001Y-53720999I884452J2653356D01*
G01*
X66548000Y-55118000D02*
G75*
G03*
X67183001Y-55371999I1003257J1587402D01*
G01*
X65024000Y-54737000D02*
X66167000Y-55763807D01*
X64389000Y-55245000D02*
X65405000Y-56206502D01*
X63246000Y-56388000D02*
X64135000Y-57190412D01*
X62738000Y-56896000D02*
X63500000Y-57720851D01*
X63754000Y-55626000D02*
X64897000Y-56769000D01*
X66167000Y-55763808D02*
G75*
G03*
X67183001Y-56133999I1268434J1901936D01*
G01*
X65405000Y-56206502D02*
G75*
G03*
X67183001Y-56895999I2091144J2755213D01*
G01*
X64897000Y-56769001D02*
G75*
G03*
X67183001Y-57657999I2610387J3328789D01*
G01*
X64135000Y-57190412D02*
G75*
G03*
X67183001Y-58419999I3398672J4032298D01*
G01*
X63500000Y-57720852D02*
G75*
G03*
X67183001Y-59181999I4053969J4846225D01*
G01*
X62960110Y-58304327D02*
G75*
G03*
X67183001Y-59943999I4603890J5599327D01*
G01*
X72898143Y-59947962D02*
X67183000Y-59944000D01*
X72897991Y-59185962D02*
X67183000Y-59182000D01*
X72897837Y-58423962D02*
X67183000Y-58420000D01*
X72898104Y-57661962D02*
X67183000Y-57658000D01*
X67183000Y-56896000D02*
X72898251Y-56899961D01*
X72898151Y-56137961D02*
X67183000Y-56134000D01*
X72898402Y-55375960D02*
X67183000Y-55372000D01*
X72898144Y-59947963D02*
G75*
G03*
X80264000Y-52578000I-4108J7369963D01*
G01*
X72897991Y-59185963D02*
G75*
G03*
X79502000Y-52578000I-3955J6607963D01*
G01*
X72897837Y-58423963D02*
G75*
G03*
X78740000Y-52578000I-3801J5845963D01*
G01*
X72898105Y-57661962D02*
G75*
G03*
X77978000Y-52578000I-4069J5083962D01*
G01*
X72898252Y-56899962D02*
G75*
G03*
X77216000Y-52578000I-4216J4321962D01*
G01*
X72898151Y-56137962D02*
G75*
G03*
X76454000Y-52578000I-4115J3559962D01*
G01*
X72898403Y-55375961D02*
G75*
G03*
X75692000Y-52578000I-4367J2797961D01*
G01*
X80264000Y-47752000D02*
X80264000Y-52578000D01*
X79502000Y-48133000D02*
X79502000Y-52578000D01*
X78740000Y-48387000D02*
X78740000Y-52578000D01*
X77978000Y-48641000D02*
X77978000Y-52578000D01*
X75692000Y-52578000D02*
X75692000Y-49403000D01*
X76454000Y-49149000D02*
X76454000Y-52578000D01*
X77216000Y-48895000D02*
X77216000Y-52578000D01*
X74930000Y-52578000D02*
X74930000Y-49784000D01*
X74930000Y-52577999D02*
G75*
G02*
X72767037Y-54609999I-2035964J-1D01*
G01*
X72767037Y-54609999D02*
X67568548Y-54596357D01*
D11*
%TO.P,REF\u002A\u002A,6*%
%TO.N,N/C*%
X63419000Y-66917000D03*
X61499000Y-66917000D03*
D12*
X65189000Y-66647000D03*
X59729000Y-66647000D03*
D13*
X64879000Y-63647000D03*
X60039000Y-63647000D03*
D14*
%TO.P,REF\u002A\u002A,5*%
X63759000Y-63767000D03*
%TO.P,REF\u002A\u002A,4*%
X63109000Y-63767000D03*
%TO.P,REF\u002A\u002A,3*%
X62459000Y-63767000D03*
%TO.P,REF\u002A\u002A,2*%
X61809000Y-63767000D03*
%TO.P,REF\u002A\u002A,1*%
X61159000Y-63767000D03*
D15*
%TO.P,REF\u002A\u002A,6*%
X65359000Y-63647000D03*
X59609000Y-63667000D03*
D16*
X65459000Y-64967000D03*
X59509000Y-64967000D03*
D17*
X59729000Y-65717000D03*
X65209000Y-65717000D03*
%TD*%
D18*
%TO.P,REF\u002A\u002A,B12*%
%TO.N,N/C*%
X23670000Y-60053000D03*
%TO.P,REF\u002A\u002A,B11*%
X24170000Y-60053000D03*
%TO.P,REF\u002A\u002A,B10*%
X24670000Y-60053000D03*
%TO.P,REF\u002A\u002A,B9*%
X25170000Y-60053000D03*
%TO.P,REF\u002A\u002A,B8*%
X25670000Y-60053000D03*
%TO.P,REF\u002A\u002A,B7*%
X26170000Y-60053000D03*
%TO.P,REF\u002A\u002A,B6*%
X26670000Y-60053000D03*
%TO.P,REF\u002A\u002A,B5*%
X27170000Y-60053000D03*
%TO.P,REF\u002A\u002A,B4*%
X27670000Y-60053000D03*
%TO.P,REF\u002A\u002A,B3*%
X28170000Y-60053000D03*
%TO.P,REF\u002A\u002A,B2*%
X28670000Y-60053000D03*
D19*
%TO.P,REF\u002A\u002A,S1*%
X22180000Y-66213000D03*
X31160000Y-66213000D03*
X30800000Y-60263000D03*
D18*
%TO.P,REF\u002A\u002A,B1*%
X29170000Y-60053000D03*
%TO.P,REF\u002A\u002A,A11*%
X28920000Y-58353000D03*
%TO.P,REF\u002A\u002A,A8*%
X27420000Y-58353000D03*
%TO.P,REF\u002A\u002A,A9*%
X27920000Y-58353000D03*
%TO.P,REF\u002A\u002A,A10*%
X28420000Y-58353000D03*
%TO.P,REF\u002A\u002A,A12*%
X29420000Y-58353000D03*
%TO.P,REF\u002A\u002A,A7*%
X26920000Y-58353000D03*
%TO.P,REF\u002A\u002A,A6*%
X26420000Y-58353000D03*
%TO.P,REF\u002A\u002A,A5*%
X25920000Y-58353000D03*
%TO.P,REF\u002A\u002A,A4*%
X25420000Y-58353000D03*
%TO.P,REF\u002A\u002A,A3*%
X24920000Y-58353000D03*
%TO.P,REF\u002A\u002A,A2*%
X24420000Y-58353000D03*
%TO.P,REF\u002A\u002A,A1*%
X23920000Y-58353000D03*
D19*
%TO.P,REF\u002A\u002A,S1*%
X22540000Y-60263000D03*
%TD*%
D20*
%TO.P,REF\u002A\u002A,6*%
%TO.N,N/C*%
X78364000Y-66661000D03*
X71064000Y-66661000D03*
D21*
%TO.P,REF\u002A\u002A,5*%
X76314000Y-67536000D03*
%TO.P,REF\u002A\u002A,4*%
X75514000Y-65786000D03*
%TO.P,REF\u002A\u002A,3*%
X74714000Y-67536000D03*
%TO.P,REF\u002A\u002A,2*%
X73914000Y-65786000D03*
D22*
%TO.P,REF\u002A\u002A,1*%
X73114000Y-67536000D03*
%TD*%
D23*
%TO.P,REF\u002A\u002A,10*%
%TO.N,N/C*%
X83968000Y-64392000D03*
X96768000Y-64392000D03*
D24*
X83968000Y-55892000D03*
X96768000Y-55892000D03*
D25*
%TO.P,REF\u002A\u002A,9*%
X86368000Y-55142000D03*
%TO.P,REF\u002A\u002A,8*%
X88368000Y-55142000D03*
%TO.P,REF\u002A\u002A,7*%
X90368000Y-55142000D03*
%TO.P,REF\u002A\u002A,6*%
X92368000Y-55142000D03*
%TO.P,REF\u002A\u002A,5*%
X94368000Y-55142000D03*
%TO.P,REF\u002A\u002A,4*%
X93868000Y-56642000D03*
%TO.P,REF\u002A\u002A,3*%
X91368000Y-56642000D03*
%TO.P,REF\u002A\u002A,2*%
X89368000Y-56642000D03*
%TO.P,REF\u002A\u002A,1*%
X86868000Y-56642000D03*
%TD*%
%TO.P,IC3,1*%
%TO.N,N/C*%
%TA.AperFunction,SMDPad,CuDef*%
G36*
G01*
X55712989Y-54041990D02*
X55536212Y-53865213D01*
G75*
G02*
X55536212Y-53688437I88388J88388D01*
G01*
X56420095Y-52804554D01*
G75*
G02*
X56596871Y-52804554I88388J-88388D01*
G01*
X56773648Y-52981331D01*
G75*
G02*
X56773648Y-53158107I-88388J-88388D01*
G01*
X55889765Y-54041990D01*
G75*
G02*
X55712989Y-54041990I-88388J88388D01*
G01*
G37*
%TD.AperFunction*%
%TO.P,IC3,2*%
%TA.AperFunction,SMDPad,CuDef*%
G36*
G01*
X56278675Y-54607675D02*
X56101898Y-54430898D01*
G75*
G02*
X56101898Y-54254122I88388J88388D01*
G01*
X56985781Y-53370239D01*
G75*
G02*
X57162557Y-53370239I88388J-88388D01*
G01*
X57339334Y-53547016D01*
G75*
G02*
X57339334Y-53723792I-88388J-88388D01*
G01*
X56455451Y-54607675D01*
G75*
G02*
X56278675Y-54607675I-88388J88388D01*
G01*
G37*
%TD.AperFunction*%
%TO.P,IC3,3*%
%TA.AperFunction,SMDPad,CuDef*%
G36*
G01*
X56844360Y-55173361D02*
X56667583Y-54996584D01*
G75*
G02*
X56667583Y-54819808I88388J88388D01*
G01*
X57551466Y-53935925D01*
G75*
G02*
X57728242Y-53935925I88388J-88388D01*
G01*
X57905019Y-54112702D01*
G75*
G02*
X57905019Y-54289478I-88388J-88388D01*
G01*
X57021136Y-55173361D01*
G75*
G02*
X56844360Y-55173361I-88388J88388D01*
G01*
G37*
%TD.AperFunction*%
%TO.P,IC3,4*%
%TA.AperFunction,SMDPad,CuDef*%
G36*
G01*
X57410045Y-55739046D02*
X57233268Y-55562269D01*
G75*
G02*
X57233268Y-55385493I88388J88388D01*
G01*
X58117151Y-54501610D01*
G75*
G02*
X58293927Y-54501610I88388J-88388D01*
G01*
X58470704Y-54678387D01*
G75*
G02*
X58470704Y-54855163I-88388J-88388D01*
G01*
X57586821Y-55739046D01*
G75*
G02*
X57410045Y-55739046I-88388J88388D01*
G01*
G37*
%TD.AperFunction*%
%TO.P,IC3,5*%
%TA.AperFunction,SMDPad,CuDef*%
G36*
G01*
X57975731Y-56304732D02*
X57798954Y-56127955D01*
G75*
G02*
X57798954Y-55951179I88388J88388D01*
G01*
X58682837Y-55067296D01*
G75*
G02*
X58859613Y-55067296I88388J-88388D01*
G01*
X59036390Y-55244073D01*
G75*
G02*
X59036390Y-55420849I-88388J-88388D01*
G01*
X58152507Y-56304732D01*
G75*
G02*
X57975731Y-56304732I-88388J88388D01*
G01*
G37*
%TD.AperFunction*%
%TO.P,IC3,6*%
%TA.AperFunction,SMDPad,CuDef*%
G36*
G01*
X58541416Y-56870417D02*
X58364639Y-56693640D01*
G75*
G02*
X58364639Y-56516864I88388J88388D01*
G01*
X59248522Y-55632981D01*
G75*
G02*
X59425298Y-55632981I88388J-88388D01*
G01*
X59602075Y-55809758D01*
G75*
G02*
X59602075Y-55986534I-88388J-88388D01*
G01*
X58718192Y-56870417D01*
G75*
G02*
X58541416Y-56870417I-88388J88388D01*
G01*
G37*
%TD.AperFunction*%
%TO.P,IC3,7*%
%TA.AperFunction,SMDPad,CuDef*%
G36*
G01*
X59107102Y-57436102D02*
X58930325Y-57259325D01*
G75*
G02*
X58930325Y-57082549I88388J88388D01*
G01*
X59814208Y-56198666D01*
G75*
G02*
X59990984Y-56198666I88388J-88388D01*
G01*
X60167761Y-56375443D01*
G75*
G02*
X60167761Y-56552219I-88388J-88388D01*
G01*
X59283878Y-57436102D01*
G75*
G02*
X59107102Y-57436102I-88388J88388D01*
G01*
G37*
%TD.AperFunction*%
%TO.P,IC3,8*%
%TA.AperFunction,SMDPad,CuDef*%
G36*
G01*
X59672787Y-58001788D02*
X59496010Y-57825011D01*
G75*
G02*
X59496010Y-57648235I88388J88388D01*
G01*
X60379893Y-56764352D01*
G75*
G02*
X60556669Y-56764352I88388J-88388D01*
G01*
X60733446Y-56941129D01*
G75*
G02*
X60733446Y-57117905I-88388J-88388D01*
G01*
X59849563Y-58001788D01*
G75*
G02*
X59672787Y-58001788I-88388J88388D01*
G01*
G37*
%TD.AperFunction*%
%TO.P,IC3,9*%
%TA.AperFunction,SMDPad,CuDef*%
G36*
G01*
X62324437Y-58001788D02*
X61440554Y-57117905D01*
G75*
G02*
X61440554Y-56941129I88388J88388D01*
G01*
X61617331Y-56764352D01*
G75*
G02*
X61794107Y-56764352I88388J-88388D01*
G01*
X62677990Y-57648235D01*
G75*
G02*
X62677990Y-57825011I-88388J-88388D01*
G01*
X62501213Y-58001788D01*
G75*
G02*
X62324437Y-58001788I-88388J88388D01*
G01*
G37*
%TD.AperFunction*%
%TO.P,IC3,10*%
%TA.AperFunction,SMDPad,CuDef*%
G36*
G01*
X62890122Y-57436102D02*
X62006239Y-56552219D01*
G75*
G02*
X62006239Y-56375443I88388J88388D01*
G01*
X62183016Y-56198666D01*
G75*
G02*
X62359792Y-56198666I88388J-88388D01*
G01*
X63243675Y-57082549D01*
G75*
G02*
X63243675Y-57259325I-88388J-88388D01*
G01*
X63066898Y-57436102D01*
G75*
G02*
X62890122Y-57436102I-88388J88388D01*
G01*
G37*
%TD.AperFunction*%
%TO.P,IC3,11*%
%TA.AperFunction,SMDPad,CuDef*%
G36*
G01*
X63455808Y-56870417D02*
X62571925Y-55986534D01*
G75*
G02*
X62571925Y-55809758I88388J88388D01*
G01*
X62748702Y-55632981D01*
G75*
G02*
X62925478Y-55632981I88388J-88388D01*
G01*
X63809361Y-56516864D01*
G75*
G02*
X63809361Y-56693640I-88388J-88388D01*
G01*
X63632584Y-56870417D01*
G75*
G02*
X63455808Y-56870417I-88388J88388D01*
G01*
G37*
%TD.AperFunction*%
%TO.P,IC3,12*%
%TA.AperFunction,SMDPad,CuDef*%
G36*
G01*
X64021493Y-56304732D02*
X63137610Y-55420849D01*
G75*
G02*
X63137610Y-55244073I88388J88388D01*
G01*
X63314387Y-55067296D01*
G75*
G02*
X63491163Y-55067296I88388J-88388D01*
G01*
X64375046Y-55951179D01*
G75*
G02*
X64375046Y-56127955I-88388J-88388D01*
G01*
X64198269Y-56304732D01*
G75*
G02*
X64021493Y-56304732I-88388J88388D01*
G01*
G37*
%TD.AperFunction*%
%TO.P,IC3,13*%
%TA.AperFunction,SMDPad,CuDef*%
G36*
G01*
X64587179Y-55739046D02*
X63703296Y-54855163D01*
G75*
G02*
X63703296Y-54678387I88388J88388D01*
G01*
X63880073Y-54501610D01*
G75*
G02*
X64056849Y-54501610I88388J-88388D01*
G01*
X64940732Y-55385493D01*
G75*
G02*
X64940732Y-55562269I-88388J-88388D01*
G01*
X64763955Y-55739046D01*
G75*
G02*
X64587179Y-55739046I-88388J88388D01*
G01*
G37*
%TD.AperFunction*%
%TO.P,IC3,14*%
%TA.AperFunction,SMDPad,CuDef*%
G36*
G01*
X65152864Y-55173361D02*
X64268981Y-54289478D01*
G75*
G02*
X64268981Y-54112702I88388J88388D01*
G01*
X64445758Y-53935925D01*
G75*
G02*
X64622534Y-53935925I88388J-88388D01*
G01*
X65506417Y-54819808D01*
G75*
G02*
X65506417Y-54996584I-88388J-88388D01*
G01*
X65329640Y-55173361D01*
G75*
G02*
X65152864Y-55173361I-88388J88388D01*
G01*
G37*
%TD.AperFunction*%
%TO.P,IC3,15*%
%TA.AperFunction,SMDPad,CuDef*%
G36*
G01*
X65718549Y-54607675D02*
X64834666Y-53723792D01*
G75*
G02*
X64834666Y-53547016I88388J88388D01*
G01*
X65011443Y-53370239D01*
G75*
G02*
X65188219Y-53370239I88388J-88388D01*
G01*
X66072102Y-54254122D01*
G75*
G02*
X66072102Y-54430898I-88388J-88388D01*
G01*
X65895325Y-54607675D01*
G75*
G02*
X65718549Y-54607675I-88388J88388D01*
G01*
G37*
%TD.AperFunction*%
%TO.P,IC3,16*%
%TA.AperFunction,SMDPad,CuDef*%
G36*
G01*
X66284235Y-54041990D02*
X65400352Y-53158107D01*
G75*
G02*
X65400352Y-52981331I88388J88388D01*
G01*
X65577129Y-52804554D01*
G75*
G02*
X65753905Y-52804554I88388J-88388D01*
G01*
X66637788Y-53688437D01*
G75*
G02*
X66637788Y-53865213I-88388J-88388D01*
G01*
X66461011Y-54041990D01*
G75*
G02*
X66284235Y-54041990I-88388J88388D01*
G01*
G37*
%TD.AperFunction*%
%TO.P,IC3,17*%
%TA.AperFunction,SMDPad,CuDef*%
G36*
G01*
X65577129Y-52097446D02*
X65400352Y-51920669D01*
G75*
G02*
X65400352Y-51743893I88388J88388D01*
G01*
X66284235Y-50860010D01*
G75*
G02*
X66461011Y-50860010I88388J-88388D01*
G01*
X66637788Y-51036787D01*
G75*
G02*
X66637788Y-51213563I-88388J-88388D01*
G01*
X65753905Y-52097446D01*
G75*
G02*
X65577129Y-52097446I-88388J88388D01*
G01*
G37*
%TD.AperFunction*%
%TO.P,IC3,18*%
%TA.AperFunction,SMDPad,CuDef*%
G36*
G01*
X65011443Y-51531761D02*
X64834666Y-51354984D01*
G75*
G02*
X64834666Y-51178208I88388J88388D01*
G01*
X65718549Y-50294325D01*
G75*
G02*
X65895325Y-50294325I88388J-88388D01*
G01*
X66072102Y-50471102D01*
G75*
G02*
X66072102Y-50647878I-88388J-88388D01*
G01*
X65188219Y-51531761D01*
G75*
G02*
X65011443Y-51531761I-88388J88388D01*
G01*
G37*
%TD.AperFunction*%
%TO.P,IC3,19*%
%TA.AperFunction,SMDPad,CuDef*%
G36*
G01*
X64445758Y-50966075D02*
X64268981Y-50789298D01*
G75*
G02*
X64268981Y-50612522I88388J88388D01*
G01*
X65152864Y-49728639D01*
G75*
G02*
X65329640Y-49728639I88388J-88388D01*
G01*
X65506417Y-49905416D01*
G75*
G02*
X65506417Y-50082192I-88388J-88388D01*
G01*
X64622534Y-50966075D01*
G75*
G02*
X64445758Y-50966075I-88388J88388D01*
G01*
G37*
%TD.AperFunction*%
%TO.P,IC3,20*%
%TA.AperFunction,SMDPad,CuDef*%
G36*
G01*
X63880073Y-50400390D02*
X63703296Y-50223613D01*
G75*
G02*
X63703296Y-50046837I88388J88388D01*
G01*
X64587179Y-49162954D01*
G75*
G02*
X64763955Y-49162954I88388J-88388D01*
G01*
X64940732Y-49339731D01*
G75*
G02*
X64940732Y-49516507I-88388J-88388D01*
G01*
X64056849Y-50400390D01*
G75*
G02*
X63880073Y-50400390I-88388J88388D01*
G01*
G37*
%TD.AperFunction*%
%TO.P,IC3,21*%
%TA.AperFunction,SMDPad,CuDef*%
G36*
G01*
X63314387Y-49834704D02*
X63137610Y-49657927D01*
G75*
G02*
X63137610Y-49481151I88388J88388D01*
G01*
X64021493Y-48597268D01*
G75*
G02*
X64198269Y-48597268I88388J-88388D01*
G01*
X64375046Y-48774045D01*
G75*
G02*
X64375046Y-48950821I-88388J-88388D01*
G01*
X63491163Y-49834704D01*
G75*
G02*
X63314387Y-49834704I-88388J88388D01*
G01*
G37*
%TD.AperFunction*%
%TO.P,IC3,22*%
%TA.AperFunction,SMDPad,CuDef*%
G36*
G01*
X62748702Y-49269019D02*
X62571925Y-49092242D01*
G75*
G02*
X62571925Y-48915466I88388J88388D01*
G01*
X63455808Y-48031583D01*
G75*
G02*
X63632584Y-48031583I88388J-88388D01*
G01*
X63809361Y-48208360D01*
G75*
G02*
X63809361Y-48385136I-88388J-88388D01*
G01*
X62925478Y-49269019D01*
G75*
G02*
X62748702Y-49269019I-88388J88388D01*
G01*
G37*
%TD.AperFunction*%
%TO.P,IC3,23*%
%TA.AperFunction,SMDPad,CuDef*%
G36*
G01*
X62183016Y-48703334D02*
X62006239Y-48526557D01*
G75*
G02*
X62006239Y-48349781I88388J88388D01*
G01*
X62890122Y-47465898D01*
G75*
G02*
X63066898Y-47465898I88388J-88388D01*
G01*
X63243675Y-47642675D01*
G75*
G02*
X63243675Y-47819451I-88388J-88388D01*
G01*
X62359792Y-48703334D01*
G75*
G02*
X62183016Y-48703334I-88388J88388D01*
G01*
G37*
%TD.AperFunction*%
%TO.P,IC3,24*%
%TA.AperFunction,SMDPad,CuDef*%
G36*
G01*
X61617331Y-48137648D02*
X61440554Y-47960871D01*
G75*
G02*
X61440554Y-47784095I88388J88388D01*
G01*
X62324437Y-46900212D01*
G75*
G02*
X62501213Y-46900212I88388J-88388D01*
G01*
X62677990Y-47076989D01*
G75*
G02*
X62677990Y-47253765I-88388J-88388D01*
G01*
X61794107Y-48137648D01*
G75*
G02*
X61617331Y-48137648I-88388J88388D01*
G01*
G37*
%TD.AperFunction*%
%TO.P,IC3,25*%
%TA.AperFunction,SMDPad,CuDef*%
G36*
G01*
X60379893Y-48137648D02*
X59496010Y-47253765D01*
G75*
G02*
X59496010Y-47076989I88388J88388D01*
G01*
X59672787Y-46900212D01*
G75*
G02*
X59849563Y-46900212I88388J-88388D01*
G01*
X60733446Y-47784095D01*
G75*
G02*
X60733446Y-47960871I-88388J-88388D01*
G01*
X60556669Y-48137648D01*
G75*
G02*
X60379893Y-48137648I-88388J88388D01*
G01*
G37*
%TD.AperFunction*%
%TO.P,IC3,26*%
%TA.AperFunction,SMDPad,CuDef*%
G36*
G01*
X59814208Y-48703334D02*
X58930325Y-47819451D01*
G75*
G02*
X58930325Y-47642675I88388J88388D01*
G01*
X59107102Y-47465898D01*
G75*
G02*
X59283878Y-47465898I88388J-88388D01*
G01*
X60167761Y-48349781D01*
G75*
G02*
X60167761Y-48526557I-88388J-88388D01*
G01*
X59990984Y-48703334D01*
G75*
G02*
X59814208Y-48703334I-88388J88388D01*
G01*
G37*
%TD.AperFunction*%
%TO.P,IC3,27*%
%TA.AperFunction,SMDPad,CuDef*%
G36*
G01*
X59248522Y-49269019D02*
X58364639Y-48385136D01*
G75*
G02*
X58364639Y-48208360I88388J88388D01*
G01*
X58541416Y-48031583D01*
G75*
G02*
X58718192Y-48031583I88388J-88388D01*
G01*
X59602075Y-48915466D01*
G75*
G02*
X59602075Y-49092242I-88388J-88388D01*
G01*
X59425298Y-49269019D01*
G75*
G02*
X59248522Y-49269019I-88388J88388D01*
G01*
G37*
%TD.AperFunction*%
%TO.P,IC3,28*%
%TA.AperFunction,SMDPad,CuDef*%
G36*
G01*
X58682837Y-49834704D02*
X57798954Y-48950821D01*
G75*
G02*
X57798954Y-48774045I88388J88388D01*
G01*
X57975731Y-48597268D01*
G75*
G02*
X58152507Y-48597268I88388J-88388D01*
G01*
X59036390Y-49481151D01*
G75*
G02*
X59036390Y-49657927I-88388J-88388D01*
G01*
X58859613Y-49834704D01*
G75*
G02*
X58682837Y-49834704I-88388J88388D01*
G01*
G37*
%TD.AperFunction*%
%TO.P,IC3,29*%
%TA.AperFunction,SMDPad,CuDef*%
G36*
G01*
X58117151Y-50400390D02*
X57233268Y-49516507D01*
G75*
G02*
X57233268Y-49339731I88388J88388D01*
G01*
X57410045Y-49162954D01*
G75*
G02*
X57586821Y-49162954I88388J-88388D01*
G01*
X58470704Y-50046837D01*
G75*
G02*
X58470704Y-50223613I-88388J-88388D01*
G01*
X58293927Y-50400390D01*
G75*
G02*
X58117151Y-50400390I-88388J88388D01*
G01*
G37*
%TD.AperFunction*%
%TO.P,IC3,30*%
%TA.AperFunction,SMDPad,CuDef*%
G36*
G01*
X57551466Y-50966075D02*
X56667583Y-50082192D01*
G75*
G02*
X56667583Y-49905416I88388J88388D01*
G01*
X56844360Y-49728639D01*
G75*
G02*
X57021136Y-49728639I88388J-88388D01*
G01*
X57905019Y-50612522D01*
G75*
G02*
X57905019Y-50789298I-88388J-88388D01*
G01*
X57728242Y-50966075D01*
G75*
G02*
X57551466Y-50966075I-88388J88388D01*
G01*
G37*
%TD.AperFunction*%
%TO.P,IC3,31*%
%TA.AperFunction,SMDPad,CuDef*%
G36*
G01*
X56985781Y-51531761D02*
X56101898Y-50647878D01*
G75*
G02*
X56101898Y-50471102I88388J88388D01*
G01*
X56278675Y-50294325D01*
G75*
G02*
X56455451Y-50294325I88388J-88388D01*
G01*
X57339334Y-51178208D01*
G75*
G02*
X57339334Y-51354984I-88388J-88388D01*
G01*
X57162557Y-51531761D01*
G75*
G02*
X56985781Y-51531761I-88388J88388D01*
G01*
G37*
%TD.AperFunction*%
%TO.P,IC3,32*%
%TA.AperFunction,SMDPad,CuDef*%
G36*
G01*
X56420095Y-52097446D02*
X55536212Y-51213563D01*
G75*
G02*
X55536212Y-51036787I88388J88388D01*
G01*
X55712989Y-50860010D01*
G75*
G02*
X55889765Y-50860010I88388J-88388D01*
G01*
X56773648Y-51743893D01*
G75*
G02*
X56773648Y-51920669I-88388J-88388D01*
G01*
X56596871Y-52097446D01*
G75*
G02*
X56420095Y-52097446I-88388J88388D01*
G01*
G37*
%TD.AperFunction*%
%TD*%
%TO.P,IC2,1*%
%TO.N,N/C*%
%TA.AperFunction,SMDPad,CuDef*%
G36*
G01*
X69610215Y-42339338D02*
X69514544Y-42108368D01*
G75*
G02*
X69582194Y-41945048I115485J47835D01*
G01*
X70737043Y-41466694D01*
G75*
G02*
X70900363Y-41534344I47835J-115485D01*
G01*
X70996034Y-41765314D01*
G75*
G02*
X70928384Y-41928634I-115485J-47835D01*
G01*
X69773535Y-42406988D01*
G75*
G02*
X69610215Y-42339338I-47835J115485D01*
G01*
G37*
%TD.AperFunction*%
%TO.P,IC2,2*%
%TA.AperFunction,SMDPad,CuDef*%
G36*
G01*
X69916362Y-43078441D02*
X69820691Y-42847471D01*
G75*
G02*
X69888341Y-42684151I115485J47835D01*
G01*
X71043190Y-42205797D01*
G75*
G02*
X71206510Y-42273447I47835J-115485D01*
G01*
X71302181Y-42504417D01*
G75*
G02*
X71234531Y-42667737I-115485J-47835D01*
G01*
X70079682Y-43146091D01*
G75*
G02*
X69916362Y-43078441I-47835J115485D01*
G01*
G37*
%TD.AperFunction*%
%TO.P,IC2,3*%
%TA.AperFunction,SMDPad,CuDef*%
G36*
G01*
X70222509Y-43817545D02*
X70126838Y-43586575D01*
G75*
G02*
X70194488Y-43423255I115485J47835D01*
G01*
X71349337Y-42944901D01*
G75*
G02*
X71512657Y-43012551I47835J-115485D01*
G01*
X71608328Y-43243521D01*
G75*
G02*
X71540678Y-43406841I-115485J-47835D01*
G01*
X70385829Y-43885195D01*
G75*
G02*
X70222509Y-43817545I-47835J115485D01*
G01*
G37*
%TD.AperFunction*%
%TO.P,IC2,4*%
%TA.AperFunction,SMDPad,CuDef*%
G36*
G01*
X70528656Y-44556649D02*
X70432985Y-44325679D01*
G75*
G02*
X70500635Y-44162359I115485J47835D01*
G01*
X71655484Y-43684005D01*
G75*
G02*
X71818804Y-43751655I47835J-115485D01*
G01*
X71914475Y-43982625D01*
G75*
G02*
X71846825Y-44145945I-115485J-47835D01*
G01*
X70691976Y-44624299D01*
G75*
G02*
X70528656Y-44556649I-47835J115485D01*
G01*
G37*
%TD.AperFunction*%
%TO.P,IC2,5*%
%TA.AperFunction,SMDPad,CuDef*%
G36*
G01*
X70834802Y-45295752D02*
X70739131Y-45064782D01*
G75*
G02*
X70806781Y-44901462I115485J47835D01*
G01*
X71961630Y-44423108D01*
G75*
G02*
X72124950Y-44490758I47835J-115485D01*
G01*
X72220621Y-44721728D01*
G75*
G02*
X72152971Y-44885048I-115485J-47835D01*
G01*
X70998122Y-45363402D01*
G75*
G02*
X70834802Y-45295752I-47835J115485D01*
G01*
G37*
%TD.AperFunction*%
%TO.P,IC2,6*%
%TA.AperFunction,SMDPad,CuDef*%
G36*
G01*
X71140949Y-46034856D02*
X71045278Y-45803886D01*
G75*
G02*
X71112928Y-45640566I115485J47835D01*
G01*
X72267777Y-45162212D01*
G75*
G02*
X72431097Y-45229862I47835J-115485D01*
G01*
X72526768Y-45460832D01*
G75*
G02*
X72459118Y-45624152I-115485J-47835D01*
G01*
X71304269Y-46102506D01*
G75*
G02*
X71140949Y-46034856I-47835J115485D01*
G01*
G37*
%TD.AperFunction*%
%TO.P,IC2,7*%
%TA.AperFunction,SMDPad,CuDef*%
G36*
G01*
X71447096Y-46773959D02*
X71351425Y-46542989D01*
G75*
G02*
X71419075Y-46379669I115485J47835D01*
G01*
X72573924Y-45901315D01*
G75*
G02*
X72737244Y-45968965I47835J-115485D01*
G01*
X72832915Y-46199935D01*
G75*
G02*
X72765265Y-46363255I-115485J-47835D01*
G01*
X71610416Y-46841609D01*
G75*
G02*
X71447096Y-46773959I-47835J115485D01*
G01*
G37*
%TD.AperFunction*%
%TO.P,IC2,8*%
%TA.AperFunction,SMDPad,CuDef*%
G36*
G01*
X71753243Y-47513063D02*
X71657572Y-47282093D01*
G75*
G02*
X71725222Y-47118773I115485J47835D01*
G01*
X72880071Y-46640419D01*
G75*
G02*
X73043391Y-46708069I47835J-115485D01*
G01*
X73139062Y-46939039D01*
G75*
G02*
X73071412Y-47102359I-115485J-47835D01*
G01*
X71916563Y-47580713D01*
G75*
G02*
X71753243Y-47513063I-47835J115485D01*
G01*
G37*
%TD.AperFunction*%
%TO.P,IC2,9*%
%TA.AperFunction,SMDPad,CuDef*%
G36*
G01*
X74203048Y-48527806D02*
X73724694Y-47372957D01*
G75*
G02*
X73792344Y-47209637I115485J47835D01*
G01*
X74023314Y-47113966D01*
G75*
G02*
X74186634Y-47181616I47835J-115485D01*
G01*
X74664988Y-48336465D01*
G75*
G02*
X74597338Y-48499785I-115485J-47835D01*
G01*
X74366368Y-48595456D01*
G75*
G02*
X74203048Y-48527806I-47835J115485D01*
G01*
G37*
%TD.AperFunction*%
%TO.P,IC2,10*%
%TA.AperFunction,SMDPad,CuDef*%
G36*
G01*
X74942151Y-48221659D02*
X74463797Y-47066810D01*
G75*
G02*
X74531447Y-46903490I115485J47835D01*
G01*
X74762417Y-46807819D01*
G75*
G02*
X74925737Y-46875469I47835J-115485D01*
G01*
X75404091Y-48030318D01*
G75*
G02*
X75336441Y-48193638I-115485J-47835D01*
G01*
X75105471Y-48289309D01*
G75*
G02*
X74942151Y-48221659I-47835J115485D01*
G01*
G37*
%TD.AperFunction*%
%TO.P,IC2,11*%
%TA.AperFunction,SMDPad,CuDef*%
G36*
G01*
X75681255Y-47915512D02*
X75202901Y-46760663D01*
G75*
G02*
X75270551Y-46597343I115485J47835D01*
G01*
X75501521Y-46501672D01*
G75*
G02*
X75664841Y-46569322I47835J-115485D01*
G01*
X76143195Y-47724171D01*
G75*
G02*
X76075545Y-47887491I-115485J-47835D01*
G01*
X75844575Y-47983162D01*
G75*
G02*
X75681255Y-47915512I-47835J115485D01*
G01*
G37*
%TD.AperFunction*%
%TO.P,IC2,12*%
%TA.AperFunction,SMDPad,CuDef*%
G36*
G01*
X76420359Y-47609365D02*
X75942005Y-46454516D01*
G75*
G02*
X76009655Y-46291196I115485J47835D01*
G01*
X76240625Y-46195525D01*
G75*
G02*
X76403945Y-46263175I47835J-115485D01*
G01*
X76882299Y-47418024D01*
G75*
G02*
X76814649Y-47581344I-115485J-47835D01*
G01*
X76583679Y-47677015D01*
G75*
G02*
X76420359Y-47609365I-47835J115485D01*
G01*
G37*
%TD.AperFunction*%
%TO.P,IC2,13*%
%TA.AperFunction,SMDPad,CuDef*%
G36*
G01*
X77159462Y-47303219D02*
X76681108Y-46148370D01*
G75*
G02*
X76748758Y-45985050I115485J47835D01*
G01*
X76979728Y-45889379D01*
G75*
G02*
X77143048Y-45957029I47835J-115485D01*
G01*
X77621402Y-47111878D01*
G75*
G02*
X77553752Y-47275198I-115485J-47835D01*
G01*
X77322782Y-47370869D01*
G75*
G02*
X77159462Y-47303219I-47835J115485D01*
G01*
G37*
%TD.AperFunction*%
%TO.P,IC2,14*%
%TA.AperFunction,SMDPad,CuDef*%
G36*
G01*
X77898566Y-46997072D02*
X77420212Y-45842223D01*
G75*
G02*
X77487862Y-45678903I115485J47835D01*
G01*
X77718832Y-45583232D01*
G75*
G02*
X77882152Y-45650882I47835J-115485D01*
G01*
X78360506Y-46805731D01*
G75*
G02*
X78292856Y-46969051I-115485J-47835D01*
G01*
X78061886Y-47064722D01*
G75*
G02*
X77898566Y-46997072I-47835J115485D01*
G01*
G37*
%TD.AperFunction*%
%TO.P,IC2,15*%
%TA.AperFunction,SMDPad,CuDef*%
G36*
G01*
X78637669Y-46690925D02*
X78159315Y-45536076D01*
G75*
G02*
X78226965Y-45372756I115485J47835D01*
G01*
X78457935Y-45277085D01*
G75*
G02*
X78621255Y-45344735I47835J-115485D01*
G01*
X79099609Y-46499584D01*
G75*
G02*
X79031959Y-46662904I-115485J-47835D01*
G01*
X78800989Y-46758575D01*
G75*
G02*
X78637669Y-46690925I-47835J115485D01*
G01*
G37*
%TD.AperFunction*%
%TO.P,IC2,16*%
%TA.AperFunction,SMDPad,CuDef*%
G36*
G01*
X79376773Y-46384778D02*
X78898419Y-45229929D01*
G75*
G02*
X78966069Y-45066609I115485J47835D01*
G01*
X79197039Y-44970938D01*
G75*
G02*
X79360359Y-45038588I47835J-115485D01*
G01*
X79838713Y-46193437D01*
G75*
G02*
X79771063Y-46356757I-115485J-47835D01*
G01*
X79540093Y-46452428D01*
G75*
G02*
X79376773Y-46384778I-47835J115485D01*
G01*
G37*
%TD.AperFunction*%
%TO.P,IC2,17*%
%TA.AperFunction,SMDPad,CuDef*%
G36*
G01*
X79467637Y-44317656D02*
X79371966Y-44086686D01*
G75*
G02*
X79439616Y-43923366I115485J47835D01*
G01*
X80594465Y-43445012D01*
G75*
G02*
X80757785Y-43512662I47835J-115485D01*
G01*
X80853456Y-43743632D01*
G75*
G02*
X80785806Y-43906952I-115485J-47835D01*
G01*
X79630957Y-44385306D01*
G75*
G02*
X79467637Y-44317656I-47835J115485D01*
G01*
G37*
%TD.AperFunction*%
%TO.P,IC2,18*%
%TA.AperFunction,SMDPad,CuDef*%
G36*
G01*
X79161490Y-43578553D02*
X79065819Y-43347583D01*
G75*
G02*
X79133469Y-43184263I115485J47835D01*
G01*
X80288318Y-42705909D01*
G75*
G02*
X80451638Y-42773559I47835J-115485D01*
G01*
X80547309Y-43004529D01*
G75*
G02*
X80479659Y-43167849I-115485J-47835D01*
G01*
X79324810Y-43646203D01*
G75*
G02*
X79161490Y-43578553I-47835J115485D01*
G01*
G37*
%TD.AperFunction*%
%TO.P,IC2,19*%
%TA.AperFunction,SMDPad,CuDef*%
G36*
G01*
X78855343Y-42839449D02*
X78759672Y-42608479D01*
G75*
G02*
X78827322Y-42445159I115485J47835D01*
G01*
X79982171Y-41966805D01*
G75*
G02*
X80145491Y-42034455I47835J-115485D01*
G01*
X80241162Y-42265425D01*
G75*
G02*
X80173512Y-42428745I-115485J-47835D01*
G01*
X79018663Y-42907099D01*
G75*
G02*
X78855343Y-42839449I-47835J115485D01*
G01*
G37*
%TD.AperFunction*%
%TO.P,IC2,20*%
%TA.AperFunction,SMDPad,CuDef*%
G36*
G01*
X78549196Y-42100345D02*
X78453525Y-41869375D01*
G75*
G02*
X78521175Y-41706055I115485J47835D01*
G01*
X79676024Y-41227701D01*
G75*
G02*
X79839344Y-41295351I47835J-115485D01*
G01*
X79935015Y-41526321D01*
G75*
G02*
X79867365Y-41689641I-115485J-47835D01*
G01*
X78712516Y-42167995D01*
G75*
G02*
X78549196Y-42100345I-47835J115485D01*
G01*
G37*
%TD.AperFunction*%
%TO.P,IC2,21*%
%TA.AperFunction,SMDPad,CuDef*%
G36*
G01*
X78243050Y-41361242D02*
X78147379Y-41130272D01*
G75*
G02*
X78215029Y-40966952I115485J47835D01*
G01*
X79369878Y-40488598D01*
G75*
G02*
X79533198Y-40556248I47835J-115485D01*
G01*
X79628869Y-40787218D01*
G75*
G02*
X79561219Y-40950538I-115485J-47835D01*
G01*
X78406370Y-41428892D01*
G75*
G02*
X78243050Y-41361242I-47835J115485D01*
G01*
G37*
%TD.AperFunction*%
%TO.P,IC2,22*%
%TA.AperFunction,SMDPad,CuDef*%
G36*
G01*
X77936903Y-40622138D02*
X77841232Y-40391168D01*
G75*
G02*
X77908882Y-40227848I115485J47835D01*
G01*
X79063731Y-39749494D01*
G75*
G02*
X79227051Y-39817144I47835J-115485D01*
G01*
X79322722Y-40048114D01*
G75*
G02*
X79255072Y-40211434I-115485J-47835D01*
G01*
X78100223Y-40689788D01*
G75*
G02*
X77936903Y-40622138I-47835J115485D01*
G01*
G37*
%TD.AperFunction*%
%TO.P,IC2,23*%
%TA.AperFunction,SMDPad,CuDef*%
G36*
G01*
X77630756Y-39883035D02*
X77535085Y-39652065D01*
G75*
G02*
X77602735Y-39488745I115485J47835D01*
G01*
X78757584Y-39010391D01*
G75*
G02*
X78920904Y-39078041I47835J-115485D01*
G01*
X79016575Y-39309011D01*
G75*
G02*
X78948925Y-39472331I-115485J-47835D01*
G01*
X77794076Y-39950685D01*
G75*
G02*
X77630756Y-39883035I-47835J115485D01*
G01*
G37*
%TD.AperFunction*%
%TO.P,IC2,24*%
%TA.AperFunction,SMDPad,CuDef*%
G36*
G01*
X77324609Y-39143931D02*
X77228938Y-38912961D01*
G75*
G02*
X77296588Y-38749641I115485J47835D01*
G01*
X78451437Y-38271287D01*
G75*
G02*
X78614757Y-38338937I47835J-115485D01*
G01*
X78710428Y-38569907D01*
G75*
G02*
X78642778Y-38733227I-115485J-47835D01*
G01*
X77487929Y-39211581D01*
G75*
G02*
X77324609Y-39143931I-47835J115485D01*
G01*
G37*
%TD.AperFunction*%
%TO.P,IC2,25*%
%TA.AperFunction,SMDPad,CuDef*%
G36*
G01*
X76181366Y-38670384D02*
X75703012Y-37515535D01*
G75*
G02*
X75770662Y-37352215I115485J47835D01*
G01*
X76001632Y-37256544D01*
G75*
G02*
X76164952Y-37324194I47835J-115485D01*
G01*
X76643306Y-38479043D01*
G75*
G02*
X76575656Y-38642363I-115485J-47835D01*
G01*
X76344686Y-38738034D01*
G75*
G02*
X76181366Y-38670384I-47835J115485D01*
G01*
G37*
%TD.AperFunction*%
%TO.P,IC2,26*%
%TA.AperFunction,SMDPad,CuDef*%
G36*
G01*
X75442263Y-38976531D02*
X74963909Y-37821682D01*
G75*
G02*
X75031559Y-37658362I115485J47835D01*
G01*
X75262529Y-37562691D01*
G75*
G02*
X75425849Y-37630341I47835J-115485D01*
G01*
X75904203Y-38785190D01*
G75*
G02*
X75836553Y-38948510I-115485J-47835D01*
G01*
X75605583Y-39044181D01*
G75*
G02*
X75442263Y-38976531I-47835J115485D01*
G01*
G37*
%TD.AperFunction*%
%TO.P,IC2,27*%
%TA.AperFunction,SMDPad,CuDef*%
G36*
G01*
X74703159Y-39282678D02*
X74224805Y-38127829D01*
G75*
G02*
X74292455Y-37964509I115485J47835D01*
G01*
X74523425Y-37868838D01*
G75*
G02*
X74686745Y-37936488I47835J-115485D01*
G01*
X75165099Y-39091337D01*
G75*
G02*
X75097449Y-39254657I-115485J-47835D01*
G01*
X74866479Y-39350328D01*
G75*
G02*
X74703159Y-39282678I-47835J115485D01*
G01*
G37*
%TD.AperFunction*%
%TO.P,IC2,28*%
%TA.AperFunction,SMDPad,CuDef*%
G36*
G01*
X73964055Y-39588825D02*
X73485701Y-38433976D01*
G75*
G02*
X73553351Y-38270656I115485J47835D01*
G01*
X73784321Y-38174985D01*
G75*
G02*
X73947641Y-38242635I47835J-115485D01*
G01*
X74425995Y-39397484D01*
G75*
G02*
X74358345Y-39560804I-115485J-47835D01*
G01*
X74127375Y-39656475D01*
G75*
G02*
X73964055Y-39588825I-47835J115485D01*
G01*
G37*
%TD.AperFunction*%
%TO.P,IC2,29*%
%TA.AperFunction,SMDPad,CuDef*%
G36*
G01*
X73224952Y-39894971D02*
X72746598Y-38740122D01*
G75*
G02*
X72814248Y-38576802I115485J47835D01*
G01*
X73045218Y-38481131D01*
G75*
G02*
X73208538Y-38548781I47835J-115485D01*
G01*
X73686892Y-39703630D01*
G75*
G02*
X73619242Y-39866950I-115485J-47835D01*
G01*
X73388272Y-39962621D01*
G75*
G02*
X73224952Y-39894971I-47835J115485D01*
G01*
G37*
%TD.AperFunction*%
%TO.P,IC2,30*%
%TA.AperFunction,SMDPad,CuDef*%
G36*
G01*
X72485848Y-40201118D02*
X72007494Y-39046269D01*
G75*
G02*
X72075144Y-38882949I115485J47835D01*
G01*
X72306114Y-38787278D01*
G75*
G02*
X72469434Y-38854928I47835J-115485D01*
G01*
X72947788Y-40009777D01*
G75*
G02*
X72880138Y-40173097I-115485J-47835D01*
G01*
X72649168Y-40268768D01*
G75*
G02*
X72485848Y-40201118I-47835J115485D01*
G01*
G37*
%TD.AperFunction*%
%TO.P,IC2,31*%
%TA.AperFunction,SMDPad,CuDef*%
G36*
G01*
X71746745Y-40507265D02*
X71268391Y-39352416D01*
G75*
G02*
X71336041Y-39189096I115485J47835D01*
G01*
X71567011Y-39093425D01*
G75*
G02*
X71730331Y-39161075I47835J-115485D01*
G01*
X72208685Y-40315924D01*
G75*
G02*
X72141035Y-40479244I-115485J-47835D01*
G01*
X71910065Y-40574915D01*
G75*
G02*
X71746745Y-40507265I-47835J115485D01*
G01*
G37*
%TD.AperFunction*%
%TO.P,IC2,32*%
%TA.AperFunction,SMDPad,CuDef*%
G36*
G01*
X71007641Y-40813412D02*
X70529287Y-39658563D01*
G75*
G02*
X70596937Y-39495243I115485J47835D01*
G01*
X70827907Y-39399572D01*
G75*
G02*
X70991227Y-39467222I47835J-115485D01*
G01*
X71469581Y-40622071D01*
G75*
G02*
X71401931Y-40785391I-115485J-47835D01*
G01*
X71170961Y-40881062D01*
G75*
G02*
X71007641Y-40813412I-47835J115485D01*
G01*
G37*
%TD.AperFunction*%
%TD*%
%TO.P,IC1,32*%
%TO.N,N/C*%
%TA.AperFunction,SMDPad,CuDef*%
G36*
G01*
X58037000Y-29597000D02*
X58037000Y-28347000D01*
G75*
G02*
X58162000Y-28222000I125000J0D01*
G01*
X58412000Y-28222000D01*
G75*
G02*
X58537000Y-28347000I0J-125000D01*
G01*
X58537000Y-29597000D01*
G75*
G02*
X58412000Y-29722000I-125000J0D01*
G01*
X58162000Y-29722000D01*
G75*
G02*
X58037000Y-29597000I0J125000D01*
G01*
G37*
%TD.AperFunction*%
%TO.P,IC1,31*%
%TA.AperFunction,SMDPad,CuDef*%
G36*
G01*
X58837000Y-29597000D02*
X58837000Y-28347000D01*
G75*
G02*
X58962000Y-28222000I125000J0D01*
G01*
X59212000Y-28222000D01*
G75*
G02*
X59337000Y-28347000I0J-125000D01*
G01*
X59337000Y-29597000D01*
G75*
G02*
X59212000Y-29722000I-125000J0D01*
G01*
X58962000Y-29722000D01*
G75*
G02*
X58837000Y-29597000I0J125000D01*
G01*
G37*
%TD.AperFunction*%
%TO.P,IC1,30*%
%TA.AperFunction,SMDPad,CuDef*%
G36*
G01*
X59637000Y-29597000D02*
X59637000Y-28347000D01*
G75*
G02*
X59762000Y-28222000I125000J0D01*
G01*
X60012000Y-28222000D01*
G75*
G02*
X60137000Y-28347000I0J-125000D01*
G01*
X60137000Y-29597000D01*
G75*
G02*
X60012000Y-29722000I-125000J0D01*
G01*
X59762000Y-29722000D01*
G75*
G02*
X59637000Y-29597000I0J125000D01*
G01*
G37*
%TD.AperFunction*%
%TO.P,IC1,29*%
%TA.AperFunction,SMDPad,CuDef*%
G36*
G01*
X60437000Y-29597000D02*
X60437000Y-28347000D01*
G75*
G02*
X60562000Y-28222000I125000J0D01*
G01*
X60812000Y-28222000D01*
G75*
G02*
X60937000Y-28347000I0J-125000D01*
G01*
X60937000Y-29597000D01*
G75*
G02*
X60812000Y-29722000I-125000J0D01*
G01*
X60562000Y-29722000D01*
G75*
G02*
X60437000Y-29597000I0J125000D01*
G01*
G37*
%TD.AperFunction*%
%TO.P,IC1,28*%
%TA.AperFunction,SMDPad,CuDef*%
G36*
G01*
X61237000Y-29597000D02*
X61237000Y-28347000D01*
G75*
G02*
X61362000Y-28222000I125000J0D01*
G01*
X61612000Y-28222000D01*
G75*
G02*
X61737000Y-28347000I0J-125000D01*
G01*
X61737000Y-29597000D01*
G75*
G02*
X61612000Y-29722000I-125000J0D01*
G01*
X61362000Y-29722000D01*
G75*
G02*
X61237000Y-29597000I0J125000D01*
G01*
G37*
%TD.AperFunction*%
%TO.P,IC1,27*%
%TA.AperFunction,SMDPad,CuDef*%
G36*
G01*
X62037000Y-29597000D02*
X62037000Y-28347000D01*
G75*
G02*
X62162000Y-28222000I125000J0D01*
G01*
X62412000Y-28222000D01*
G75*
G02*
X62537000Y-28347000I0J-125000D01*
G01*
X62537000Y-29597000D01*
G75*
G02*
X62412000Y-29722000I-125000J0D01*
G01*
X62162000Y-29722000D01*
G75*
G02*
X62037000Y-29597000I0J125000D01*
G01*
G37*
%TD.AperFunction*%
%TO.P,IC1,26*%
%TA.AperFunction,SMDPad,CuDef*%
G36*
G01*
X62837000Y-29597000D02*
X62837000Y-28347000D01*
G75*
G02*
X62962000Y-28222000I125000J0D01*
G01*
X63212000Y-28222000D01*
G75*
G02*
X63337000Y-28347000I0J-125000D01*
G01*
X63337000Y-29597000D01*
G75*
G02*
X63212000Y-29722000I-125000J0D01*
G01*
X62962000Y-29722000D01*
G75*
G02*
X62837000Y-29597000I0J125000D01*
G01*
G37*
%TD.AperFunction*%
%TO.P,IC1,25*%
%TA.AperFunction,SMDPad,CuDef*%
G36*
G01*
X63637000Y-29597000D02*
X63637000Y-28347000D01*
G75*
G02*
X63762000Y-28222000I125000J0D01*
G01*
X64012000Y-28222000D01*
G75*
G02*
X64137000Y-28347000I0J-125000D01*
G01*
X64137000Y-29597000D01*
G75*
G02*
X64012000Y-29722000I-125000J0D01*
G01*
X63762000Y-29722000D01*
G75*
G02*
X63637000Y-29597000I0J125000D01*
G01*
G37*
%TD.AperFunction*%
%TO.P,IC1,24*%
%TA.AperFunction,SMDPad,CuDef*%
G36*
G01*
X64512000Y-30472000D02*
X64512000Y-30222000D01*
G75*
G02*
X64637000Y-30097000I125000J0D01*
G01*
X65887000Y-30097000D01*
G75*
G02*
X66012000Y-30222000I0J-125000D01*
G01*
X66012000Y-30472000D01*
G75*
G02*
X65887000Y-30597000I-125000J0D01*
G01*
X64637000Y-30597000D01*
G75*
G02*
X64512000Y-30472000I0J125000D01*
G01*
G37*
%TD.AperFunction*%
%TO.P,IC1,23*%
%TA.AperFunction,SMDPad,CuDef*%
G36*
G01*
X64512000Y-31272000D02*
X64512000Y-31022000D01*
G75*
G02*
X64637000Y-30897000I125000J0D01*
G01*
X65887000Y-30897000D01*
G75*
G02*
X66012000Y-31022000I0J-125000D01*
G01*
X66012000Y-31272000D01*
G75*
G02*
X65887000Y-31397000I-125000J0D01*
G01*
X64637000Y-31397000D01*
G75*
G02*
X64512000Y-31272000I0J125000D01*
G01*
G37*
%TD.AperFunction*%
%TO.P,IC1,22*%
%TA.AperFunction,SMDPad,CuDef*%
G36*
G01*
X64512000Y-32072000D02*
X64512000Y-31822000D01*
G75*
G02*
X64637000Y-31697000I125000J0D01*
G01*
X65887000Y-31697000D01*
G75*
G02*
X66012000Y-31822000I0J-125000D01*
G01*
X66012000Y-32072000D01*
G75*
G02*
X65887000Y-32197000I-125000J0D01*
G01*
X64637000Y-32197000D01*
G75*
G02*
X64512000Y-32072000I0J125000D01*
G01*
G37*
%TD.AperFunction*%
%TO.P,IC1,21*%
%TA.AperFunction,SMDPad,CuDef*%
G36*
G01*
X64512000Y-32872000D02*
X64512000Y-32622000D01*
G75*
G02*
X64637000Y-32497000I125000J0D01*
G01*
X65887000Y-32497000D01*
G75*
G02*
X66012000Y-32622000I0J-125000D01*
G01*
X66012000Y-32872000D01*
G75*
G02*
X65887000Y-32997000I-125000J0D01*
G01*
X64637000Y-32997000D01*
G75*
G02*
X64512000Y-32872000I0J125000D01*
G01*
G37*
%TD.AperFunction*%
%TO.P,IC1,20*%
%TA.AperFunction,SMDPad,CuDef*%
G36*
G01*
X64512000Y-33672000D02*
X64512000Y-33422000D01*
G75*
G02*
X64637000Y-33297000I125000J0D01*
G01*
X65887000Y-33297000D01*
G75*
G02*
X66012000Y-33422000I0J-125000D01*
G01*
X66012000Y-33672000D01*
G75*
G02*
X65887000Y-33797000I-125000J0D01*
G01*
X64637000Y-33797000D01*
G75*
G02*
X64512000Y-33672000I0J125000D01*
G01*
G37*
%TD.AperFunction*%
%TO.P,IC1,19*%
%TA.AperFunction,SMDPad,CuDef*%
G36*
G01*
X64512000Y-34472000D02*
X64512000Y-34222000D01*
G75*
G02*
X64637000Y-34097000I125000J0D01*
G01*
X65887000Y-34097000D01*
G75*
G02*
X66012000Y-34222000I0J-125000D01*
G01*
X66012000Y-34472000D01*
G75*
G02*
X65887000Y-34597000I-125000J0D01*
G01*
X64637000Y-34597000D01*
G75*
G02*
X64512000Y-34472000I0J125000D01*
G01*
G37*
%TD.AperFunction*%
%TO.P,IC1,18*%
%TA.AperFunction,SMDPad,CuDef*%
G36*
G01*
X64512000Y-35272000D02*
X64512000Y-35022000D01*
G75*
G02*
X64637000Y-34897000I125000J0D01*
G01*
X65887000Y-34897000D01*
G75*
G02*
X66012000Y-35022000I0J-125000D01*
G01*
X66012000Y-35272000D01*
G75*
G02*
X65887000Y-35397000I-125000J0D01*
G01*
X64637000Y-35397000D01*
G75*
G02*
X64512000Y-35272000I0J125000D01*
G01*
G37*
%TD.AperFunction*%
%TO.P,IC1,17*%
%TA.AperFunction,SMDPad,CuDef*%
G36*
G01*
X64512000Y-36072000D02*
X64512000Y-35822000D01*
G75*
G02*
X64637000Y-35697000I125000J0D01*
G01*
X65887000Y-35697000D01*
G75*
G02*
X66012000Y-35822000I0J-125000D01*
G01*
X66012000Y-36072000D01*
G75*
G02*
X65887000Y-36197000I-125000J0D01*
G01*
X64637000Y-36197000D01*
G75*
G02*
X64512000Y-36072000I0J125000D01*
G01*
G37*
%TD.AperFunction*%
%TO.P,IC1,16*%
%TA.AperFunction,SMDPad,CuDef*%
G36*
G01*
X63637000Y-37947000D02*
X63637000Y-36697000D01*
G75*
G02*
X63762000Y-36572000I125000J0D01*
G01*
X64012000Y-36572000D01*
G75*
G02*
X64137000Y-36697000I0J-125000D01*
G01*
X64137000Y-37947000D01*
G75*
G02*
X64012000Y-38072000I-125000J0D01*
G01*
X63762000Y-38072000D01*
G75*
G02*
X63637000Y-37947000I0J125000D01*
G01*
G37*
%TD.AperFunction*%
%TO.P,IC1,15*%
%TA.AperFunction,SMDPad,CuDef*%
G36*
G01*
X62837000Y-37947000D02*
X62837000Y-36697000D01*
G75*
G02*
X62962000Y-36572000I125000J0D01*
G01*
X63212000Y-36572000D01*
G75*
G02*
X63337000Y-36697000I0J-125000D01*
G01*
X63337000Y-37947000D01*
G75*
G02*
X63212000Y-38072000I-125000J0D01*
G01*
X62962000Y-38072000D01*
G75*
G02*
X62837000Y-37947000I0J125000D01*
G01*
G37*
%TD.AperFunction*%
%TO.P,IC1,14*%
%TA.AperFunction,SMDPad,CuDef*%
G36*
G01*
X62037000Y-37947000D02*
X62037000Y-36697000D01*
G75*
G02*
X62162000Y-36572000I125000J0D01*
G01*
X62412000Y-36572000D01*
G75*
G02*
X62537000Y-36697000I0J-125000D01*
G01*
X62537000Y-37947000D01*
G75*
G02*
X62412000Y-38072000I-125000J0D01*
G01*
X62162000Y-38072000D01*
G75*
G02*
X62037000Y-37947000I0J125000D01*
G01*
G37*
%TD.AperFunction*%
%TO.P,IC1,13*%
%TA.AperFunction,SMDPad,CuDef*%
G36*
G01*
X61237000Y-37947000D02*
X61237000Y-36697000D01*
G75*
G02*
X61362000Y-36572000I125000J0D01*
G01*
X61612000Y-36572000D01*
G75*
G02*
X61737000Y-36697000I0J-125000D01*
G01*
X61737000Y-37947000D01*
G75*
G02*
X61612000Y-38072000I-125000J0D01*
G01*
X61362000Y-38072000D01*
G75*
G02*
X61237000Y-37947000I0J125000D01*
G01*
G37*
%TD.AperFunction*%
%TO.P,IC1,12*%
%TA.AperFunction,SMDPad,CuDef*%
G36*
G01*
X60437000Y-37947000D02*
X60437000Y-36697000D01*
G75*
G02*
X60562000Y-36572000I125000J0D01*
G01*
X60812000Y-36572000D01*
G75*
G02*
X60937000Y-36697000I0J-125000D01*
G01*
X60937000Y-37947000D01*
G75*
G02*
X60812000Y-38072000I-125000J0D01*
G01*
X60562000Y-38072000D01*
G75*
G02*
X60437000Y-37947000I0J125000D01*
G01*
G37*
%TD.AperFunction*%
%TO.P,IC1,11*%
%TA.AperFunction,SMDPad,CuDef*%
G36*
G01*
X59637000Y-37947000D02*
X59637000Y-36697000D01*
G75*
G02*
X59762000Y-36572000I125000J0D01*
G01*
X60012000Y-36572000D01*
G75*
G02*
X60137000Y-36697000I0J-125000D01*
G01*
X60137000Y-37947000D01*
G75*
G02*
X60012000Y-38072000I-125000J0D01*
G01*
X59762000Y-38072000D01*
G75*
G02*
X59637000Y-37947000I0J125000D01*
G01*
G37*
%TD.AperFunction*%
%TO.P,IC1,10*%
%TA.AperFunction,SMDPad,CuDef*%
G36*
G01*
X58837000Y-37947000D02*
X58837000Y-36697000D01*
G75*
G02*
X58962000Y-36572000I125000J0D01*
G01*
X59212000Y-36572000D01*
G75*
G02*
X59337000Y-36697000I0J-125000D01*
G01*
X59337000Y-37947000D01*
G75*
G02*
X59212000Y-38072000I-125000J0D01*
G01*
X58962000Y-38072000D01*
G75*
G02*
X58837000Y-37947000I0J125000D01*
G01*
G37*
%TD.AperFunction*%
%TO.P,IC1,9*%
%TA.AperFunction,SMDPad,CuDef*%
G36*
G01*
X58037000Y-37947000D02*
X58037000Y-36697000D01*
G75*
G02*
X58162000Y-36572000I125000J0D01*
G01*
X58412000Y-36572000D01*
G75*
G02*
X58537000Y-36697000I0J-125000D01*
G01*
X58537000Y-37947000D01*
G75*
G02*
X58412000Y-38072000I-125000J0D01*
G01*
X58162000Y-38072000D01*
G75*
G02*
X58037000Y-37947000I0J125000D01*
G01*
G37*
%TD.AperFunction*%
%TO.P,IC1,8*%
%TA.AperFunction,SMDPad,CuDef*%
G36*
G01*
X56162000Y-36072000D02*
X56162000Y-35822000D01*
G75*
G02*
X56287000Y-35697000I125000J0D01*
G01*
X57537000Y-35697000D01*
G75*
G02*
X57662000Y-35822000I0J-125000D01*
G01*
X57662000Y-36072000D01*
G75*
G02*
X57537000Y-36197000I-125000J0D01*
G01*
X56287000Y-36197000D01*
G75*
G02*
X56162000Y-36072000I0J125000D01*
G01*
G37*
%TD.AperFunction*%
%TO.P,IC1,7*%
%TA.AperFunction,SMDPad,CuDef*%
G36*
G01*
X56162000Y-35272000D02*
X56162000Y-35022000D01*
G75*
G02*
X56287000Y-34897000I125000J0D01*
G01*
X57537000Y-34897000D01*
G75*
G02*
X57662000Y-35022000I0J-125000D01*
G01*
X57662000Y-35272000D01*
G75*
G02*
X57537000Y-35397000I-125000J0D01*
G01*
X56287000Y-35397000D01*
G75*
G02*
X56162000Y-35272000I0J125000D01*
G01*
G37*
%TD.AperFunction*%
%TO.P,IC1,6*%
%TA.AperFunction,SMDPad,CuDef*%
G36*
G01*
X56162000Y-34472000D02*
X56162000Y-34222000D01*
G75*
G02*
X56287000Y-34097000I125000J0D01*
G01*
X57537000Y-34097000D01*
G75*
G02*
X57662000Y-34222000I0J-125000D01*
G01*
X57662000Y-34472000D01*
G75*
G02*
X57537000Y-34597000I-125000J0D01*
G01*
X56287000Y-34597000D01*
G75*
G02*
X56162000Y-34472000I0J125000D01*
G01*
G37*
%TD.AperFunction*%
%TO.P,IC1,5*%
%TA.AperFunction,SMDPad,CuDef*%
G36*
G01*
X56162000Y-33672000D02*
X56162000Y-33422000D01*
G75*
G02*
X56287000Y-33297000I125000J0D01*
G01*
X57537000Y-33297000D01*
G75*
G02*
X57662000Y-33422000I0J-125000D01*
G01*
X57662000Y-33672000D01*
G75*
G02*
X57537000Y-33797000I-125000J0D01*
G01*
X56287000Y-33797000D01*
G75*
G02*
X56162000Y-33672000I0J125000D01*
G01*
G37*
%TD.AperFunction*%
%TO.P,IC1,4*%
%TA.AperFunction,SMDPad,CuDef*%
G36*
G01*
X56162000Y-32872000D02*
X56162000Y-32622000D01*
G75*
G02*
X56287000Y-32497000I125000J0D01*
G01*
X57537000Y-32497000D01*
G75*
G02*
X57662000Y-32622000I0J-125000D01*
G01*
X57662000Y-32872000D01*
G75*
G02*
X57537000Y-32997000I-125000J0D01*
G01*
X56287000Y-32997000D01*
G75*
G02*
X56162000Y-32872000I0J125000D01*
G01*
G37*
%TD.AperFunction*%
%TO.P,IC1,3*%
%TA.AperFunction,SMDPad,CuDef*%
G36*
G01*
X56162000Y-32072000D02*
X56162000Y-31822000D01*
G75*
G02*
X56287000Y-31697000I125000J0D01*
G01*
X57537000Y-31697000D01*
G75*
G02*
X57662000Y-31822000I0J-125000D01*
G01*
X57662000Y-32072000D01*
G75*
G02*
X57537000Y-32197000I-125000J0D01*
G01*
X56287000Y-32197000D01*
G75*
G02*
X56162000Y-32072000I0J125000D01*
G01*
G37*
%TD.AperFunction*%
%TO.P,IC1,2*%
%TA.AperFunction,SMDPad,CuDef*%
G36*
G01*
X56162000Y-31272000D02*
X56162000Y-31022000D01*
G75*
G02*
X56287000Y-30897000I125000J0D01*
G01*
X57537000Y-30897000D01*
G75*
G02*
X57662000Y-31022000I0J-125000D01*
G01*
X57662000Y-31272000D01*
G75*
G02*
X57537000Y-31397000I-125000J0D01*
G01*
X56287000Y-31397000D01*
G75*
G02*
X56162000Y-31272000I0J125000D01*
G01*
G37*
%TD.AperFunction*%
%TO.P,IC1,1*%
%TA.AperFunction,SMDPad,CuDef*%
G36*
G01*
X56162000Y-30472000D02*
X56162000Y-30222000D01*
G75*
G02*
X56287000Y-30097000I125000J0D01*
G01*
X57537000Y-30097000D01*
G75*
G02*
X57662000Y-30222000I0J-125000D01*
G01*
X57662000Y-30472000D01*
G75*
G02*
X57537000Y-30597000I-125000J0D01*
G01*
X56287000Y-30597000D01*
G75*
G02*
X56162000Y-30472000I0J125000D01*
G01*
G37*
%TD.AperFunction*%
%TD*%
D26*
%TO.P,REF\u002A\u002A,B1*%
%TO.N,N/C*%
X42239000Y-60979000D03*
%TO.P,REF\u002A\u002A,A9*%
X41439000Y-60979000D03*
%TO.P,REF\u002A\u002A,B9*%
X36539000Y-60979000D03*
%TO.P,REF\u002A\u002A,B12*%
X35739000Y-60979000D03*
%TO.P,REF\u002A\u002A,A1*%
X35739000Y-60979000D03*
%TO.P,REF\u002A\u002A,A4*%
X36539000Y-60979000D03*
%TO.P,REF\u002A\u002A,B4*%
X41439000Y-60979000D03*
%TO.P,REF\u002A\u002A,A12*%
X42239000Y-60979000D03*
D27*
%TO.P,REF\u002A\u002A,B8*%
X37239000Y-60979000D03*
%TO.P,REF\u002A\u002A,A5*%
X37739000Y-60979000D03*
%TO.P,REF\u002A\u002A,B7*%
X38239000Y-60979000D03*
%TO.P,REF\u002A\u002A,A7*%
X39239000Y-60979000D03*
%TO.P,REF\u002A\u002A,B6*%
X39739000Y-60979000D03*
%TO.P,REF\u002A\u002A,A8*%
X40239000Y-60979000D03*
%TO.P,REF\u002A\u002A,B5*%
X40739000Y-60979000D03*
%TO.P,REF\u002A\u002A,A6*%
X38739000Y-60979000D03*
D28*
%TO.P,REF\u002A\u002A,S1*%
X43309000Y-61894000D03*
X34669000Y-61894000D03*
D29*
X34669000Y-66074000D03*
X43309000Y-66074000D03*
%TD*%
D30*
%TO.P,REF\u002A\u002A,6*%
%TO.N,N/C*%
X48154000Y-66769500D03*
X53954000Y-66769500D03*
D31*
X54554000Y-66769500D03*
X47554000Y-66769500D03*
D32*
X50054000Y-66769500D03*
D33*
X53554000Y-64069500D03*
D34*
%TO.P,REF\u002A\u002A,3*%
X51054000Y-64069500D03*
%TO.P,REF\u002A\u002A,4*%
X51704000Y-64069500D03*
%TO.P,REF\u002A\u002A,5*%
X52354000Y-64069500D03*
%TO.P,REF\u002A\u002A,1*%
X49754000Y-64069500D03*
%TO.P,REF\u002A\u002A,2*%
X50404000Y-64069500D03*
D33*
%TO.P,REF\u002A\u002A,6*%
X48554000Y-64069500D03*
D32*
X52054000Y-66769500D03*
%TD*%
%TO.P,C3,1*%
%TO.N,N/C*%
%TA.AperFunction,SMDPad,CuDef*%
G36*
G01*
X62429571Y-25110180D02*
X61757820Y-24438429D01*
G75*
G02*
X61757820Y-24084875I176777J176777D01*
G01*
X62111373Y-23731322D01*
G75*
G02*
X62464927Y-23731322I176777J-176777D01*
G01*
X63136678Y-24403073D01*
G75*
G02*
X63136678Y-24756627I-176777J-176777D01*
G01*
X62783125Y-25110180D01*
G75*
G02*
X62429571Y-25110180I-176777J176777D01*
G01*
G37*
%TD.AperFunction*%
%TO.P,C3,2*%
%TA.AperFunction,SMDPad,CuDef*%
G36*
G01*
X63773073Y-23766678D02*
X63101322Y-23094927D01*
G75*
G02*
X63101322Y-22741373I176777J176777D01*
G01*
X63454875Y-22387820D01*
G75*
G02*
X63808429Y-22387820I176777J-176777D01*
G01*
X64480180Y-23059571D01*
G75*
G02*
X64480180Y-23413125I-176777J-176777D01*
G01*
X64126627Y-23766678D01*
G75*
G02*
X63773073Y-23766678I-176777J176777D01*
G01*
G37*
%TD.AperFunction*%
%TD*%
%TO.P,C2,1*%
%TO.N,N/C*%
%TA.AperFunction,SMDPad,CuDef*%
G36*
G01*
X56843000Y-24224000D02*
X56843000Y-23274000D01*
G75*
G02*
X57093000Y-23024000I250000J0D01*
G01*
X57593000Y-23024000D01*
G75*
G02*
X57843000Y-23274000I0J-250000D01*
G01*
X57843000Y-24224000D01*
G75*
G02*
X57593000Y-24474000I-250000J0D01*
G01*
X57093000Y-24474000D01*
G75*
G02*
X56843000Y-24224000I0J250000D01*
G01*
G37*
%TD.AperFunction*%
%TO.P,C2,2*%
%TA.AperFunction,SMDPad,CuDef*%
G36*
G01*
X58743000Y-24224000D02*
X58743000Y-23274000D01*
G75*
G02*
X58993000Y-23024000I250000J0D01*
G01*
X59493000Y-23024000D01*
G75*
G02*
X59743000Y-23274000I0J-250000D01*
G01*
X59743000Y-24224000D01*
G75*
G02*
X59493000Y-24474000I-250000J0D01*
G01*
X58993000Y-24474000D01*
G75*
G02*
X58743000Y-24224000I0J250000D01*
G01*
G37*
%TD.AperFunction*%
%TD*%
%TO.P,C1,2*%
%TO.N,N/C*%
%TA.AperFunction,SMDPad,CuDef*%
G36*
G01*
X54958000Y-23299000D02*
X54008000Y-23299000D01*
G75*
G02*
X53758000Y-23049000I0J250000D01*
G01*
X53758000Y-22549000D01*
G75*
G02*
X54008000Y-22299000I250000J0D01*
G01*
X54958000Y-22299000D01*
G75*
G02*
X55208000Y-22549000I0J-250000D01*
G01*
X55208000Y-23049000D01*
G75*
G02*
X54958000Y-23299000I-250000J0D01*
G01*
G37*
%TD.AperFunction*%
%TO.P,C1,1*%
%TA.AperFunction,SMDPad,CuDef*%
G36*
G01*
X54958000Y-25199000D02*
X54008000Y-25199000D01*
G75*
G02*
X53758000Y-24949000I0J250000D01*
G01*
X53758000Y-24449000D01*
G75*
G02*
X54008000Y-24199000I250000J0D01*
G01*
X54958000Y-24199000D01*
G75*
G02*
X55208000Y-24449000I0J-250000D01*
G01*
X55208000Y-24949000D01*
G75*
G02*
X54958000Y-25199000I-250000J0D01*
G01*
G37*
%TD.AperFunction*%
%TD*%
D35*
%TO.P,U2,1*%
%TO.N,N/C*%
X72390000Y-28956000D03*
%TO.P,U2,2*%
%TA.AperFunction,ComponentPad*%
G36*
G01*
X73478944Y-31459158D02*
X73478944Y-31459158D01*
G75*
G02*
X73478944Y-30044944I707107J707107D01*
G01*
X73478944Y-30044944D01*
G75*
G02*
X74893158Y-30044944I707107J-707107D01*
G01*
X74893158Y-30044944D01*
G75*
G02*
X74893158Y-31459158I-707107J-707107D01*
G01*
X74893158Y-31459158D01*
G75*
G02*
X73478944Y-31459158I-707107J707107D01*
G01*
G37*
%TD.AperFunction*%
%TO.P,U2,3*%
%TA.AperFunction,ComponentPad*%
G36*
G01*
X75186607Y-33343597D02*
X75186607Y-33343597D01*
G75*
G02*
X75186607Y-32282937I530330J530330D01*
G01*
X75716937Y-31752607D01*
G75*
G02*
X76777597Y-31752607I530330J-530330D01*
G01*
X76777597Y-31752607D01*
G75*
G02*
X76777597Y-32813267I-530330J-530330D01*
G01*
X76247267Y-33343597D01*
G75*
G02*
X75186607Y-33343597I-530330J530330D01*
G01*
G37*
%TD.AperFunction*%
%TA.AperFunction,ComponentPad*%
%TO.P,U2,4*%
G36*
X77778154Y-35616946D02*
G01*
X76505362Y-34344154D01*
X77778154Y-33071362D01*
X79050946Y-34344154D01*
X77778154Y-35616946D01*
G37*
%TD.AperFunction*%
%TA.AperFunction,ComponentPad*%
%TO.P,U2,5*%
G36*
X79468139Y-37377642D02*
G01*
X80811642Y-36034139D01*
X79468139Y-35114900D01*
X78548900Y-36034139D01*
X79468139Y-37377642D01*
G37*
%TD.AperFunction*%
%TO.P,U2,6*%
%TA.AperFunction,ComponentPad*%
G36*
G01*
X80988418Y-38827211D02*
X80479301Y-38318094D01*
G75*
G02*
X80479301Y-37554418I381838J381838D01*
G01*
X80988418Y-37045301D01*
G75*
G02*
X81752094Y-37045301I381838J-381838D01*
G01*
X82261211Y-37554418D01*
G75*
G02*
X82261211Y-38318094I-381838J-381838D01*
G01*
X81752094Y-38827211D01*
G75*
G02*
X80988418Y-38827211I-381838J381838D01*
G01*
G37*
%TD.AperFunction*%
%TA.AperFunction,ComponentPad*%
%TO.P,U2,7*%
G36*
X83929982Y-40241423D02*
G01*
X83166307Y-41005099D01*
X82402632Y-40241423D01*
X82402632Y-39223191D01*
X83166307Y-38459515D01*
X83929982Y-39223191D01*
X83929982Y-40241423D01*
G37*
%TD.AperFunction*%
%TA.AperFunction,ComponentPad*%
%TO.P,U2,8*%
G36*
X85726034Y-42037475D02*
G01*
X85344196Y-42419313D01*
X85256464Y-42490357D01*
X85123840Y-42552765D01*
X84979321Y-42577209D01*
X84833552Y-42561888D01*
X84697272Y-42507931D01*
X84580522Y-42419313D01*
X84198684Y-42037475D01*
X84198684Y-41019243D01*
X84580522Y-40637405D01*
X84668254Y-40566361D01*
X84800878Y-40503953D01*
X84945397Y-40479509D01*
X85091166Y-40494830D01*
X85227446Y-40548787D01*
X85344196Y-40637405D01*
X85726034Y-41019243D01*
X85726034Y-42037475D01*
G37*
%TD.AperFunction*%
%TA.AperFunction,ComponentPad*%
%TO.P,U2,9*%
G36*
X86375441Y-42340647D02*
G01*
X87141378Y-42340646D01*
X87141379Y-42340647D01*
X87183805Y-42358220D01*
X87724671Y-42899086D01*
X87737097Y-42929086D01*
X87742245Y-42941513D01*
X87742244Y-43707308D01*
X87724671Y-43749734D01*
X87183734Y-44290671D01*
X87183730Y-44290672D01*
X87183729Y-44290674D01*
X87165271Y-44298318D01*
X87141308Y-44308244D01*
X87141306Y-44308243D01*
X87141301Y-44308245D01*
X86375436Y-44308173D01*
X86357076Y-44300566D01*
X86333015Y-44290600D01*
X85792221Y-43749804D01*
X85792220Y-43749804D01*
X85774647Y-43707379D01*
X85774646Y-42941442D01*
X85781926Y-42923868D01*
X85792220Y-42899015D01*
X86333015Y-42358220D01*
X86375441Y-42340647D01*
G37*
%TD.AperFunction*%
%TA.AperFunction,ComponentPad*%
%TO.P,U2,10*%
G36*
X91416312Y-37173968D02*
G01*
X92123946Y-36880856D01*
X92123947Y-36880856D01*
X92169867Y-36880856D01*
X92876543Y-37173570D01*
X92899504Y-37196532D01*
X92909015Y-37206043D01*
X93202072Y-37913546D01*
X93202072Y-37959467D01*
X92909320Y-38666235D01*
X92909316Y-38666238D01*
X92909316Y-38666240D01*
X92895188Y-38680366D01*
X92876848Y-38698706D01*
X92876845Y-38698706D01*
X92876842Y-38698709D01*
X92169246Y-38991728D01*
X92149373Y-38991726D01*
X92123331Y-38991726D01*
X91416748Y-38699049D01*
X91416747Y-38699049D01*
X91384276Y-38666578D01*
X91091164Y-37958944D01*
X91091164Y-37939922D01*
X91091164Y-37913023D01*
X91383840Y-37206439D01*
X91416312Y-37173968D01*
G37*
%TD.AperFunction*%
%TA.AperFunction,ComponentPad*%
%TO.P,U2,11*%
G36*
X91250512Y-35960206D02*
G01*
X91250512Y-36500205D01*
X91238712Y-36612477D01*
X91189062Y-36750385D01*
X91104155Y-36869860D01*
X90990247Y-36962102D01*
X90855728Y-37020313D01*
X90710511Y-37040205D01*
X90170512Y-37040205D01*
X89450512Y-36320204D01*
X89450512Y-35780205D01*
X89462312Y-35667933D01*
X89511962Y-35530025D01*
X89596869Y-35410550D01*
X89710777Y-35318308D01*
X89845296Y-35260097D01*
X89990513Y-35240205D01*
X90530512Y-35240205D01*
X91250512Y-35960206D01*
G37*
%TD.AperFunction*%
%TA.AperFunction,ComponentPad*%
%TO.P,U2,12*%
G36*
X89454461Y-34164155D02*
G01*
X89454461Y-35244154D01*
X88374461Y-35244154D01*
X87654461Y-34524153D01*
X87654461Y-33444154D01*
X88734461Y-33444154D01*
X89454461Y-34164155D01*
G37*
%TD.AperFunction*%
%TO.P,U2,13*%
%TA.AperFunction,ComponentPad*%
G36*
G01*
X87118410Y-33448102D02*
X86398410Y-33448102D01*
G75*
G02*
X85858410Y-32908102I0J540000D01*
G01*
X85858410Y-32188102D01*
G75*
G02*
X86398410Y-31648102I540000J0D01*
G01*
X87118410Y-31648102D01*
G75*
G02*
X87658410Y-32188102I0J-540000D01*
G01*
X87658410Y-32908102D01*
G75*
G02*
X87118410Y-33448102I-540000J0D01*
G01*
G37*
%TD.AperFunction*%
%TA.AperFunction,ComponentPad*%
%TO.P,U2,14*%
G36*
X85762359Y-31702051D02*
G01*
X85762359Y-29802051D01*
X84162359Y-30102051D01*
X84162359Y-31402051D01*
X85762359Y-31702051D01*
G37*
%TD.AperFunction*%
D36*
%TO.P,U2,15*%
X83166307Y-28956000D03*
D37*
%TO.P,U2,16*%
X81370256Y-27159949D03*
D38*
%TO.P,U2,17*%
X79574205Y-25363898D03*
D35*
%TO.P,U2,18*%
X77778154Y-23567846D03*
%TA.AperFunction,ComponentPad*%
%TO.P,U2,19*%
G36*
X93178939Y-46916512D02*
G01*
X91764725Y-46916512D01*
X90350512Y-48330725D01*
X88936299Y-46916512D01*
X91057618Y-44795192D01*
X93178939Y-46916512D01*
G37*
%TD.AperFunction*%
%TA.AperFunction,ComponentPad*%
%TO.P,U2,20*%
G36*
X97738666Y-39528360D02*
G01*
X96738666Y-40528360D01*
X96738665Y-42528359D01*
X94738666Y-42528358D01*
X94738667Y-39528359D01*
X97738666Y-39528360D01*
G37*
%TD.AperFunction*%
%TD*%
%TA.AperFunction,ComponentPad*%
%TO.P,U1,20*%
%TO.N,N/C*%
G36*
X50707427Y-51689000D02*
G01*
X49293213Y-51689000D01*
X47879000Y-53103213D01*
X46464787Y-51689000D01*
X48586106Y-49567680D01*
X50707427Y-51689000D01*
G37*
%TD.AperFunction*%
%TA.AperFunction,ComponentPad*%
%TO.P,U1,19*%
G36*
X42259000Y-53689000D02*
G01*
X41259000Y-52689000D01*
X39259000Y-52689000D01*
X39259000Y-50689000D01*
X42259000Y-50689000D01*
X42259000Y-53689000D01*
G37*
%TD.AperFunction*%
%TO.P,U1,18*%
X47879000Y-26289000D03*
%TO.P,U1,17*%
%TA.AperFunction,ComponentPad*%
G36*
G01*
X47171893Y-29536107D02*
X47171893Y-29536107D01*
G75*
G02*
X47171893Y-28121893I707107J707107D01*
G01*
X47171893Y-28121893D01*
G75*
G02*
X48586107Y-28121893I707107J-707107D01*
G01*
X48586107Y-28121893D01*
G75*
G02*
X48586107Y-29536107I-707107J-707107D01*
G01*
X48586107Y-29536107D01*
G75*
G02*
X47171893Y-29536107I-707107J707107D01*
G01*
G37*
%TD.AperFunction*%
%TO.P,U1,16*%
%TA.AperFunction,ComponentPad*%
G36*
G01*
X47083505Y-32164495D02*
X47083505Y-32164495D01*
G75*
G02*
X47083505Y-31103835I530330J530330D01*
G01*
X47613835Y-30573505D01*
G75*
G02*
X48674495Y-30573505I530330J-530330D01*
G01*
X48674495Y-30573505D01*
G75*
G02*
X48674495Y-31634165I-530330J-530330D01*
G01*
X48144165Y-32164495D01*
G75*
G02*
X47083505Y-32164495I-530330J530330D01*
G01*
G37*
%TD.AperFunction*%
%TA.AperFunction,ComponentPad*%
%TO.P,U1,15*%
G36*
X47879000Y-35181792D02*
G01*
X46606208Y-33909000D01*
X47879000Y-32636208D01*
X49151792Y-33909000D01*
X47879000Y-35181792D01*
G37*
%TD.AperFunction*%
%TA.AperFunction,ComponentPad*%
%TO.P,U1,14*%
G36*
X47772934Y-37686437D02*
G01*
X49116437Y-36342934D01*
X47772934Y-35423695D01*
X46853695Y-36342934D01*
X47772934Y-37686437D01*
G37*
%TD.AperFunction*%
%TO.P,U1,13*%
%TA.AperFunction,ComponentPad*%
G36*
G01*
X47497162Y-39879955D02*
X46988045Y-39370838D01*
G75*
G02*
X46988045Y-38607162I381838J381838D01*
G01*
X47497162Y-38098045D01*
G75*
G02*
X48260838Y-38098045I381838J-381838D01*
G01*
X48769955Y-38607162D01*
G75*
G02*
X48769955Y-39370838I-381838J-381838D01*
G01*
X48260838Y-39879955D01*
G75*
G02*
X47497162Y-39879955I-381838J381838D01*
G01*
G37*
%TD.AperFunction*%
%TA.AperFunction,ComponentPad*%
%TO.P,U1,12*%
G36*
X48642675Y-42038116D02*
G01*
X47879000Y-42801792D01*
X47115325Y-42038116D01*
X47115325Y-41019884D01*
X47879000Y-40256208D01*
X48642675Y-41019884D01*
X48642675Y-42038116D01*
G37*
%TD.AperFunction*%
%TA.AperFunction,ComponentPad*%
%TO.P,U1,11*%
G36*
X48642675Y-44578116D02*
G01*
X48260837Y-44959954D01*
X48173105Y-45030998D01*
X48040481Y-45093406D01*
X47895962Y-45117850D01*
X47750193Y-45102529D01*
X47613913Y-45048572D01*
X47497163Y-44959954D01*
X47115325Y-44578116D01*
X47115325Y-43559884D01*
X47497163Y-43178046D01*
X47584895Y-43107002D01*
X47717519Y-43044594D01*
X47862038Y-43020150D01*
X48007807Y-43035471D01*
X48144087Y-43089428D01*
X48260837Y-43178046D01*
X48642675Y-43559884D01*
X48642675Y-44578116D01*
G37*
%TD.AperFunction*%
%TA.AperFunction,ComponentPad*%
%TO.P,U1,10*%
G36*
X47901652Y-45553615D02*
G01*
X48609286Y-45846726D01*
X48609287Y-45846727D01*
X48641759Y-45879198D01*
X48934473Y-46585874D01*
X48934473Y-46618345D01*
X48934473Y-46631796D01*
X48641415Y-47339299D01*
X48608944Y-47371771D01*
X47902176Y-47664523D01*
X47902172Y-47664523D01*
X47902170Y-47664525D01*
X47882192Y-47664523D01*
X47856255Y-47664523D01*
X47856254Y-47664521D01*
X47856249Y-47664521D01*
X47148708Y-47371371D01*
X47134657Y-47357317D01*
X47116241Y-47338902D01*
X46823566Y-46632318D01*
X46823565Y-46632317D01*
X46823565Y-46586398D01*
X47116676Y-45878764D01*
X47130127Y-45865313D01*
X47149148Y-45846291D01*
X47855732Y-45553615D01*
X47901652Y-45553615D01*
G37*
%TD.AperFunction*%
%TA.AperFunction,ComponentPad*%
%TO.P,U1,9*%
G36*
X40683826Y-45642574D02*
G01*
X41225426Y-46184173D01*
X41225426Y-46184174D01*
X41243000Y-46226600D01*
X41243000Y-46991500D01*
X41230573Y-47021500D01*
X41225426Y-47033927D01*
X40683926Y-47575426D01*
X40641500Y-47593000D01*
X39876500Y-47593000D01*
X39876496Y-47592998D01*
X39876494Y-47592999D01*
X39858037Y-47585352D01*
X39834074Y-47575426D01*
X39834073Y-47575424D01*
X39834069Y-47575422D01*
X39292570Y-47033822D01*
X39284967Y-47015461D01*
X39275000Y-46991400D01*
X39275001Y-46226600D01*
X39275001Y-46226599D01*
X39292574Y-46184174D01*
X39834173Y-45642574D01*
X39851747Y-45635295D01*
X39876600Y-45625000D01*
X40641400Y-45625000D01*
X40683826Y-45642574D01*
G37*
%TD.AperFunction*%
%TA.AperFunction,ComponentPad*%
%TO.P,U1,8*%
G36*
X40439000Y-44969000D02*
G01*
X39899000Y-44969000D01*
X39786728Y-44957200D01*
X39648820Y-44907550D01*
X39529345Y-44822643D01*
X39437103Y-44708735D01*
X39378892Y-44574217D01*
X39359000Y-44429000D01*
X39359000Y-43889000D01*
X40079000Y-43169000D01*
X40619000Y-43169000D01*
X40731272Y-43180800D01*
X40869180Y-43230450D01*
X40988655Y-43315357D01*
X41080897Y-43429265D01*
X41139108Y-43563783D01*
X41159000Y-43709000D01*
X41159000Y-44249000D01*
X40439000Y-44969000D01*
G37*
%TD.AperFunction*%
%TA.AperFunction,ComponentPad*%
%TO.P,U1,7*%
G36*
X40439000Y-42429000D02*
G01*
X39359000Y-42429000D01*
X39359000Y-41349000D01*
X40079000Y-40629000D01*
X41159000Y-40629000D01*
X41159000Y-41709000D01*
X40439000Y-42429000D01*
G37*
%TD.AperFunction*%
%TO.P,U1,6*%
%TA.AperFunction,ComponentPad*%
G36*
G01*
X39359000Y-39349000D02*
X39359000Y-38629000D01*
G75*
G02*
X39899000Y-38089000I540000J0D01*
G01*
X40619000Y-38089000D01*
G75*
G02*
X41159000Y-38629000I0J-540000D01*
G01*
X41159000Y-39349000D01*
G75*
G02*
X40619000Y-39889000I-540000J0D01*
G01*
X39899000Y-39889000D01*
G75*
G02*
X39359000Y-39349000I0J540000D01*
G01*
G37*
%TD.AperFunction*%
%TA.AperFunction,ComponentPad*%
%TO.P,U1,5*%
G36*
X39309000Y-37249000D02*
G01*
X41209000Y-37249000D01*
X40909000Y-35649000D01*
X39609000Y-35649000D01*
X39309000Y-37249000D01*
G37*
%TD.AperFunction*%
D36*
%TO.P,U1,4*%
X40259000Y-33909000D03*
D39*
%TO.P,U1,3*%
X40259000Y-31369000D03*
D38*
%TO.P,U1,2*%
X40259000Y-28829000D03*
D35*
%TO.P,U1,1*%
X40259000Y-26289000D03*
%TD*%
D40*
%TO.N,*%
X79368566Y-45711683D02*
X80264000Y-47752000D01*
D41*
X70098000Y-30347000D02*
X75057000Y-35306000D01*
X65262000Y-30347000D02*
X70098000Y-30347000D01*
X65262000Y-31147000D02*
X69882000Y-31147000D01*
X69882000Y-31147000D02*
X74295000Y-35560000D01*
X74295000Y-35560000D02*
X75434056Y-38303436D01*
X65262000Y-31947000D02*
X69666000Y-31947000D01*
X69666000Y-31947000D02*
X73533000Y-35814000D01*
X73533000Y-35814000D02*
X74693369Y-38608000D01*
D40*
X74693369Y-38608000D02*
X74694952Y-38609583D01*
D41*
X65262000Y-32747000D02*
X69323000Y-32747000D01*
X69323000Y-32747000D02*
X72771000Y-36195000D01*
D40*
X73914000Y-38873882D02*
X73955848Y-38915730D01*
D41*
X72771000Y-36195000D02*
X73914000Y-38873882D01*
X65262000Y-33547000D02*
X69107000Y-33547000D01*
X69107000Y-33547000D02*
X72009000Y-36449000D01*
X72009000Y-36449000D02*
X73216745Y-39221876D01*
X65262000Y-34347000D02*
X68891000Y-34347000D01*
X68891000Y-34347000D02*
X71247000Y-36703000D01*
X71247000Y-36703000D02*
X72477641Y-39528023D01*
X65262000Y-35147000D02*
X68548000Y-35147000D01*
X68548000Y-35147000D02*
X70485000Y-37084000D01*
X70485000Y-37084000D02*
X71738538Y-39834170D01*
X70999434Y-40140317D02*
X69723000Y-37338000D01*
X69723000Y-37338000D02*
X68332000Y-35947000D01*
X68332000Y-35947000D02*
X67570000Y-35947000D01*
X68332000Y-35947000D02*
X65262000Y-35947000D01*
D40*
X74933944Y-47548564D02*
X75692000Y-49403000D01*
X75692000Y-47261369D02*
X76454000Y-49149000D01*
X75673048Y-47242417D02*
X75692000Y-47261369D01*
X76412152Y-46936270D02*
X77216000Y-48895000D01*
X77151255Y-46630124D02*
X77978000Y-48641000D01*
X77890359Y-46323977D02*
X78740000Y-48387000D01*
X78629462Y-46017830D02*
X79502000Y-48133000D01*
X62059272Y-57383070D02*
X62969202Y-58293000D01*
X65453384Y-53988957D02*
X66582427Y-55118000D01*
X74194841Y-47854711D02*
X74930000Y-49784000D01*
X74933944Y-47548564D02*
X75010380Y-47625000D01*
D41*
X76173159Y-37997289D02*
X75057000Y-35306000D01*
D40*
X76173159Y-37997289D02*
X76200000Y-38024130D01*
D41*
X56912000Y-30347000D02*
X55759000Y-30347000D01*
X55759000Y-30347000D02*
X52324000Y-33782000D01*
X52324000Y-33782000D02*
X52324000Y-47647798D01*
X52324000Y-47647798D02*
X56154930Y-51478728D01*
X56912000Y-31147000D02*
X55848000Y-31147000D01*
X52832000Y-47024427D02*
X56720616Y-50913043D01*
X55848000Y-31147000D02*
X52832000Y-34163000D01*
X52832000Y-34163000D02*
X52832000Y-47024427D01*
X53340000Y-46401056D02*
X57286301Y-50347357D01*
X56912000Y-31947000D02*
X55810000Y-31947000D01*
X55810000Y-31947000D02*
X53340000Y-34417000D01*
X53340000Y-34417000D02*
X53340000Y-46401056D01*
X53848000Y-45777686D02*
X57851986Y-49781672D01*
X56912000Y-32747000D02*
X55772000Y-32747000D01*
X55772000Y-32747000D02*
X53848000Y-34671000D01*
X53848000Y-34671000D02*
X53848000Y-45777686D01*
X54356000Y-45154314D02*
X58417672Y-49215986D01*
X55734000Y-33547000D02*
X54356000Y-34925000D01*
X54356000Y-34925000D02*
X54356000Y-45154314D01*
X56912000Y-33547000D02*
X55734000Y-33547000D01*
X54864000Y-44530944D02*
X58983357Y-48650301D01*
X56912000Y-34347000D02*
X55950000Y-34347000D01*
X55950000Y-34347000D02*
X54864000Y-35433000D01*
X54864000Y-35433000D02*
X54864000Y-44530944D01*
X56912000Y-35147000D02*
X55912000Y-35147000D01*
X55912000Y-35147000D02*
X55372000Y-35687000D01*
X55372000Y-35687000D02*
X55372000Y-43907573D01*
X55372000Y-43907573D02*
X59549043Y-48084616D01*
X56912000Y-35947000D02*
X55874000Y-35947000D01*
X55874000Y-35947000D02*
X55874000Y-43278202D01*
X55874000Y-43278202D02*
X60114728Y-47518930D01*
X56912000Y-32747000D02*
X56912000Y-32750000D01*
%TD*%
M02*
