G04 EAGLE Gerber RS-274X export*
G75*
%MOMM*%
%FSLAX34Y34*%
%LPD*%
%INTop Copper*%
%IPPOS*%
%AMOC8*
5,1,8,0,0,1.08239X$1,22.5*%
G01*
G04 Define Apertures*
%ADD10R,1.100000X1.000000*%
%ADD11R,0.700000X0.900000*%
%ADD12C,1.879600*%
%ADD13R,0.600000X0.700000*%
%ADD14R,1.108000X1.108000*%
%ADD15C,1.108000*%
%ADD16R,0.800100X0.457200*%
%ADD17R,0.600000X1.550000*%
%ADD18R,1.200000X1.800000*%
%ADD19C,0.304800*%
%ADD20C,0.756400*%
%ADD21C,0.152400*%
G36*
X20225Y-154940D02*
X19927Y-155000D01*
X-100000Y-155000D01*
X-100149Y-154985D01*
X-105597Y-153902D01*
X-105872Y-153788D01*
X-110491Y-150701D01*
X-110701Y-150491D01*
X-113788Y-145872D01*
X-113902Y-145597D01*
X-114985Y-140149D01*
X-115000Y-140000D01*
X-115000Y140000D01*
X-114985Y140149D01*
X-113902Y145597D01*
X-113788Y145872D01*
X-110701Y150491D01*
X-110491Y150701D01*
X-105872Y153788D01*
X-105597Y153902D01*
X-100149Y154985D01*
X-100000Y155000D01*
X110000Y155000D01*
X110149Y154985D01*
X115597Y153902D01*
X115872Y153788D01*
X120491Y150701D01*
X120701Y150491D01*
X123788Y145872D01*
X123902Y145597D01*
X124985Y140149D01*
X125000Y140000D01*
X125000Y27928D01*
X124953Y27665D01*
X124794Y27407D01*
X124546Y27231D01*
X124250Y27166D01*
X123952Y27222D01*
X123699Y27389D01*
X119666Y31422D01*
X119506Y31658D01*
X119443Y31955D01*
X119501Y32253D01*
X120922Y35683D01*
X120922Y40028D01*
X119259Y44042D01*
X116187Y47115D01*
X112173Y48778D01*
X107827Y48778D01*
X103813Y47115D01*
X100741Y44042D01*
X99078Y40028D01*
X99078Y35683D01*
X100741Y31669D01*
X103813Y28596D01*
X107827Y26934D01*
X112173Y26934D01*
X115603Y28355D01*
X115882Y28412D01*
X116181Y28357D01*
X116433Y28189D01*
X119175Y25448D01*
X119338Y25206D01*
X119398Y24909D01*
X119398Y20343D01*
X119351Y20080D01*
X119192Y19822D01*
X118944Y19647D01*
X118648Y19581D01*
X118350Y19637D01*
X118097Y19805D01*
X116187Y21715D01*
X112173Y23378D01*
X107827Y23378D01*
X103813Y21715D01*
X100741Y18642D01*
X99078Y14628D01*
X99078Y10283D01*
X100741Y6269D01*
X103813Y3196D01*
X107827Y1534D01*
X112173Y1534D01*
X116187Y3196D01*
X118097Y5107D01*
X118317Y5260D01*
X118612Y5330D01*
X118911Y5279D01*
X119166Y5115D01*
X119338Y4865D01*
X119398Y4568D01*
X119398Y-5057D01*
X119351Y-5320D01*
X119192Y-5578D01*
X118944Y-5754D01*
X118648Y-5819D01*
X118350Y-5763D01*
X118097Y-5596D01*
X116187Y-3685D01*
X112173Y-2022D01*
X107827Y-2022D01*
X103813Y-3685D01*
X100741Y-6758D01*
X99078Y-10772D01*
X99078Y-15117D01*
X100741Y-19131D01*
X103813Y-22204D01*
X107827Y-23866D01*
X112173Y-23866D01*
X116187Y-22204D01*
X118097Y-20293D01*
X118317Y-20140D01*
X118612Y-20070D01*
X118911Y-20121D01*
X119166Y-20285D01*
X119338Y-20535D01*
X119398Y-20832D01*
X119398Y-30457D01*
X119351Y-30720D01*
X119192Y-30978D01*
X118944Y-31154D01*
X118648Y-31219D01*
X118350Y-31163D01*
X118097Y-30996D01*
X116187Y-29085D01*
X112173Y-27422D01*
X107827Y-27422D01*
X103813Y-29085D01*
X100741Y-32158D01*
X99078Y-36172D01*
X99078Y-40517D01*
X100741Y-44531D01*
X103813Y-47604D01*
X107827Y-49266D01*
X112173Y-49266D01*
X116187Y-47604D01*
X118097Y-45693D01*
X118317Y-45540D01*
X118612Y-45470D01*
X118911Y-45521D01*
X119166Y-45685D01*
X119338Y-45935D01*
X119398Y-46232D01*
X119398Y-54420D01*
X119351Y-54683D01*
X119192Y-54941D01*
X118944Y-55117D01*
X118648Y-55182D01*
X118350Y-55126D01*
X118097Y-54959D01*
X116762Y-53624D01*
X112375Y-51806D01*
X110762Y-51806D01*
X110762Y-75682D01*
X112375Y-75682D01*
X116762Y-73865D01*
X118097Y-72530D01*
X118317Y-72377D01*
X118612Y-72307D01*
X118911Y-72358D01*
X119166Y-72522D01*
X119338Y-72772D01*
X119398Y-73069D01*
X119398Y-81257D01*
X119351Y-81520D01*
X119192Y-81778D01*
X118944Y-81954D01*
X118648Y-82019D01*
X118350Y-81963D01*
X118097Y-81796D01*
X116187Y-79885D01*
X112173Y-78222D01*
X107827Y-78222D01*
X103813Y-79885D01*
X100741Y-82958D01*
X99078Y-86972D01*
X99078Y-91317D01*
X100741Y-95331D01*
X103813Y-98404D01*
X107827Y-100066D01*
X110529Y-100066D01*
X110792Y-100113D01*
X111051Y-100273D01*
X111226Y-100520D01*
X111291Y-100816D01*
X111235Y-101114D01*
X111068Y-101367D01*
X97206Y-115229D01*
X96965Y-115392D01*
X96668Y-115452D01*
X86903Y-115452D01*
X56825Y-145530D01*
X56605Y-145683D01*
X56310Y-145753D01*
X56011Y-145702D01*
X55756Y-145539D01*
X55584Y-145289D01*
X55524Y-144991D01*
X55524Y-129369D01*
X54631Y-128476D01*
X41369Y-128476D01*
X40476Y-129369D01*
X40476Y-148631D01*
X41544Y-149699D01*
X41697Y-149919D01*
X41767Y-150214D01*
X41716Y-150513D01*
X41552Y-150768D01*
X41302Y-150940D01*
X41005Y-151000D01*
X24549Y-151000D01*
X24263Y-150944D01*
X24010Y-150777D01*
X2529Y-129296D01*
X2366Y-129055D01*
X2306Y-128757D01*
X2306Y-124802D01*
X2357Y-124527D01*
X2521Y-124272D01*
X2771Y-124100D01*
X3068Y-124040D01*
X4238Y-124040D01*
X4238Y-103460D01*
X948Y-103460D01*
X-180Y-104588D01*
X-410Y-104746D01*
X-706Y-104811D01*
X-1004Y-104755D01*
X-1257Y-104588D01*
X-1369Y-104476D01*
X-8631Y-104476D01*
X-8743Y-104588D01*
X-8973Y-104746D01*
X-9269Y-104811D01*
X-9568Y-104755D01*
X-9820Y-104588D01*
X-10948Y-103460D01*
X-13620Y-103460D01*
X-13884Y-103413D01*
X-14142Y-103254D01*
X-14317Y-103006D01*
X-14382Y-102710D01*
X-14327Y-102412D01*
X-14159Y-102159D01*
X-6441Y-94441D01*
X-6200Y-94278D01*
X-5902Y-94218D01*
X43669Y-94218D01*
X43955Y-94274D01*
X43974Y-94286D01*
X47947Y-94286D01*
X53627Y-88606D01*
X53847Y-88453D01*
X54142Y-88383D01*
X54441Y-88434D01*
X54696Y-88597D01*
X54868Y-88847D01*
X54928Y-89145D01*
X54928Y-93194D01*
X58036Y-96302D01*
X62432Y-96302D01*
X65540Y-93194D01*
X65540Y-89239D01*
X65596Y-88953D01*
X65763Y-88700D01*
X69500Y-84963D01*
X69500Y-60907D01*
X57079Y-48486D01*
X56923Y-48261D01*
X56856Y-47965D01*
X56909Y-47667D01*
X57074Y-47413D01*
X57326Y-47243D01*
X57341Y-47237D01*
X59329Y-45249D01*
X60404Y-42653D01*
X60404Y-39843D01*
X59329Y-37247D01*
X57341Y-35259D01*
X54745Y-34184D01*
X51935Y-34184D01*
X49339Y-35259D01*
X49227Y-35371D01*
X49007Y-35524D01*
X48712Y-35594D01*
X48413Y-35543D01*
X48158Y-35380D01*
X47986Y-35130D01*
X47926Y-34832D01*
X47926Y-29864D01*
X47973Y-29600D01*
X48132Y-29342D01*
X48380Y-29167D01*
X48676Y-29102D01*
X48974Y-29157D01*
X49227Y-29325D01*
X49339Y-29437D01*
X51935Y-30512D01*
X54745Y-30512D01*
X57341Y-29437D01*
X59329Y-27449D01*
X59542Y-26934D01*
X59699Y-26695D01*
X59949Y-26524D01*
X60246Y-26463D01*
X60735Y-26463D01*
X61010Y-26514D01*
X61265Y-26678D01*
X61437Y-26928D01*
X61497Y-27225D01*
X61497Y-28308D01*
X62390Y-29201D01*
X69653Y-29201D01*
X70483Y-28371D01*
X70713Y-28213D01*
X71009Y-28148D01*
X71307Y-28204D01*
X71560Y-28371D01*
X72390Y-29201D01*
X72973Y-29201D01*
X73248Y-29252D01*
X73503Y-29416D01*
X73675Y-29666D01*
X73735Y-29963D01*
X73735Y-47387D01*
X77559Y-51210D01*
X77722Y-51452D01*
X77782Y-51749D01*
X77782Y-83243D01*
X77726Y-83529D01*
X77559Y-83782D01*
X53870Y-107471D01*
X53629Y-107634D01*
X53331Y-107694D01*
X49802Y-107694D01*
X46694Y-110802D01*
X46694Y-115198D01*
X49802Y-118306D01*
X54198Y-118306D01*
X57306Y-115198D01*
X57306Y-110817D01*
X57362Y-110531D01*
X57529Y-110278D01*
X82354Y-85453D01*
X82354Y-49540D01*
X78531Y-45716D01*
X78368Y-45475D01*
X78307Y-45177D01*
X78307Y-29963D01*
X78359Y-29689D01*
X78522Y-29433D01*
X78772Y-29262D01*
X79069Y-29201D01*
X79653Y-29201D01*
X80545Y-28308D01*
X80545Y-20046D01*
X80040Y-19541D01*
X79882Y-19311D01*
X79817Y-19014D01*
X79873Y-18716D01*
X80040Y-18463D01*
X83349Y-15155D01*
X83349Y-14754D01*
X83396Y-14491D01*
X83555Y-14233D01*
X83803Y-14057D01*
X84099Y-13992D01*
X84397Y-14048D01*
X84650Y-14215D01*
X84798Y-14364D01*
X84961Y-14605D01*
X85021Y-14902D01*
X85021Y-30166D01*
X84966Y-30452D01*
X84798Y-30705D01*
X82232Y-33271D01*
X82232Y-37667D01*
X85029Y-40463D01*
X85192Y-40705D01*
X85252Y-41002D01*
X85252Y-89199D01*
X85196Y-89485D01*
X85029Y-89738D01*
X54276Y-120491D01*
X54035Y-120654D01*
X53737Y-120714D01*
X45513Y-120714D01*
X45227Y-120658D01*
X44974Y-120491D01*
X39747Y-115264D01*
X39584Y-115023D01*
X39524Y-114725D01*
X39524Y-105369D01*
X38631Y-104476D01*
X31369Y-104476D01*
X31257Y-104588D01*
X31027Y-104746D01*
X30731Y-104811D01*
X30432Y-104755D01*
X30180Y-104588D01*
X29052Y-103460D01*
X25762Y-103460D01*
X25762Y-124040D01*
X29052Y-124040D01*
X30180Y-122913D01*
X30410Y-122755D01*
X30706Y-122689D01*
X31004Y-122745D01*
X31257Y-122913D01*
X31369Y-123024D01*
X38631Y-123024D01*
X39297Y-122358D01*
X39528Y-122200D01*
X39824Y-122135D01*
X40122Y-122190D01*
X40375Y-122358D01*
X43303Y-125286D01*
X55947Y-125286D01*
X89824Y-91409D01*
X89824Y-41002D01*
X89880Y-40716D01*
X90047Y-40463D01*
X92844Y-37667D01*
X92844Y-33271D01*
X89817Y-30243D01*
X89654Y-30002D01*
X89593Y-29705D01*
X89593Y-12693D01*
X81503Y-4603D01*
X61062Y-4603D01*
X60782Y-4550D01*
X60528Y-4384D01*
X60358Y-4133D01*
X59329Y-1647D01*
X57341Y341D01*
X54745Y1416D01*
X51935Y1416D01*
X49339Y341D01*
X49227Y229D01*
X49007Y76D01*
X48712Y6D01*
X48413Y57D01*
X48158Y220D01*
X47986Y470D01*
X47926Y768D01*
X47926Y5736D01*
X47973Y6000D01*
X48132Y6258D01*
X48380Y6433D01*
X48676Y6498D01*
X48974Y6443D01*
X49227Y6275D01*
X49339Y6163D01*
X51935Y5088D01*
X54745Y5088D01*
X57341Y6163D01*
X59329Y8151D01*
X60404Y10747D01*
X60404Y13557D01*
X59329Y16153D01*
X57341Y18141D01*
X54745Y19216D01*
X51935Y19216D01*
X49339Y18141D01*
X49227Y18029D01*
X49007Y17876D01*
X48712Y17806D01*
X48413Y17857D01*
X48158Y18020D01*
X47986Y18270D01*
X47926Y18568D01*
X47926Y23536D01*
X47973Y23800D01*
X48132Y24058D01*
X48380Y24233D01*
X48676Y24298D01*
X48974Y24243D01*
X49227Y24075D01*
X49339Y23963D01*
X51935Y22888D01*
X54745Y22888D01*
X57341Y23963D01*
X59329Y25951D01*
X59529Y26434D01*
X59685Y26672D01*
X59935Y26844D01*
X60233Y26904D01*
X63316Y26904D01*
X63580Y26857D01*
X63838Y26698D01*
X64013Y26450D01*
X64078Y26154D01*
X64023Y25856D01*
X63855Y25603D01*
X63154Y24902D01*
X63154Y20112D01*
X75234Y20112D01*
X75234Y20160D01*
X75281Y20423D01*
X75440Y20681D01*
X75688Y20857D01*
X75984Y20922D01*
X76282Y20866D01*
X76535Y20699D01*
X76947Y20287D01*
X77110Y20045D01*
X77170Y19748D01*
X77170Y14219D01*
X77173Y14216D01*
X77331Y13985D01*
X77396Y13689D01*
X77340Y13391D01*
X77173Y13138D01*
X76946Y12911D01*
X76946Y2649D01*
X77839Y1756D01*
X86101Y1756D01*
X86994Y2649D01*
X86994Y12911D01*
X86991Y12914D01*
X86833Y13145D01*
X86768Y13441D01*
X86824Y13739D01*
X86991Y13992D01*
X87218Y14219D01*
X87218Y24481D01*
X86325Y25374D01*
X84756Y25374D01*
X84481Y25425D01*
X84226Y25589D01*
X84054Y25839D01*
X83994Y26136D01*
X83994Y34477D01*
X83060Y35411D01*
X83005Y35421D01*
X82750Y35585D01*
X82578Y35835D01*
X82518Y36132D01*
X82518Y44699D01*
X82574Y44985D01*
X82741Y45237D01*
X85306Y47802D01*
X85306Y52198D01*
X82198Y55306D01*
X77802Y55306D01*
X74694Y52198D01*
X74694Y47802D01*
X76199Y46297D01*
X76362Y46056D01*
X76422Y45759D01*
X76422Y36132D01*
X76371Y35857D01*
X76207Y35602D01*
X75957Y35430D01*
X75884Y35416D01*
X75009Y34540D01*
X74778Y34382D01*
X74482Y34317D01*
X74184Y34373D01*
X73931Y34540D01*
X73101Y35370D01*
X65839Y35370D01*
X64946Y34477D01*
X64946Y33762D01*
X64895Y33487D01*
X64731Y33232D01*
X64481Y33060D01*
X64184Y33000D01*
X60233Y33000D01*
X59952Y33053D01*
X59698Y33219D01*
X59529Y33470D01*
X59329Y33953D01*
X57341Y35941D01*
X54745Y37016D01*
X51935Y37016D01*
X49339Y35941D01*
X49227Y35829D01*
X49007Y35676D01*
X48712Y35606D01*
X48413Y35657D01*
X48158Y35820D01*
X47986Y36070D01*
X47926Y36368D01*
X47926Y41336D01*
X47973Y41600D01*
X48132Y41858D01*
X48380Y42033D01*
X48676Y42098D01*
X48974Y42043D01*
X49227Y41875D01*
X49339Y41763D01*
X51935Y40688D01*
X54745Y40688D01*
X57341Y41763D01*
X59329Y43751D01*
X60404Y46347D01*
X60404Y49157D01*
X59329Y51753D01*
X57341Y53741D01*
X54745Y54816D01*
X51935Y54816D01*
X49339Y53741D01*
X49227Y53629D01*
X49007Y53476D01*
X48712Y53406D01*
X48413Y53457D01*
X48158Y53620D01*
X47986Y53870D01*
X47926Y54168D01*
X47926Y82203D01*
X45225Y86881D01*
X40547Y89582D01*
X-40801Y89582D01*
X-45479Y86881D01*
X-48180Y82203D01*
X-48180Y64468D01*
X-48231Y64193D01*
X-48395Y63938D01*
X-48645Y63766D01*
X-48942Y63706D01*
X-59765Y63706D01*
X-60658Y62813D01*
X-60658Y50471D01*
X-59765Y49578D01*
X-48942Y49578D01*
X-48667Y49527D01*
X-48412Y49363D01*
X-48240Y49113D01*
X-48180Y48816D01*
X-48180Y45258D01*
X-48227Y44994D01*
X-48386Y44736D01*
X-48634Y44561D01*
X-48930Y44496D01*
X-49228Y44551D01*
X-49481Y44719D01*
X-49593Y44831D01*
X-52189Y45906D01*
X-54999Y45906D01*
X-57595Y44831D01*
X-59583Y42843D01*
X-60658Y40247D01*
X-60658Y37437D01*
X-59583Y34841D01*
X-57595Y32853D01*
X-54999Y31778D01*
X-52189Y31778D01*
X-49593Y32853D01*
X-49481Y32965D01*
X-49261Y33118D01*
X-48966Y33188D01*
X-48667Y33137D01*
X-48412Y32974D01*
X-48240Y32724D01*
X-48180Y32426D01*
X-48180Y27458D01*
X-48227Y27194D01*
X-48386Y26936D01*
X-48634Y26761D01*
X-48930Y26696D01*
X-49228Y26751D01*
X-49481Y26919D01*
X-49593Y27031D01*
X-52189Y28106D01*
X-54999Y28106D01*
X-57595Y27031D01*
X-59583Y25043D01*
X-59783Y24560D01*
X-59939Y24322D01*
X-60189Y24150D01*
X-60487Y24090D01*
X-75699Y24090D01*
X-75985Y24146D01*
X-76238Y24313D01*
X-76999Y25074D01*
X-77320Y25074D01*
X-77595Y25125D01*
X-77850Y25289D01*
X-78022Y25539D01*
X-78082Y25836D01*
X-78082Y28274D01*
X-78031Y28549D01*
X-77867Y28804D01*
X-77617Y28976D01*
X-77320Y29036D01*
X-72999Y29036D01*
X-72106Y29929D01*
X-72106Y41191D01*
X-72999Y42084D01*
X-85261Y42084D01*
X-86154Y41191D01*
X-86154Y29929D01*
X-85261Y29036D01*
X-84940Y29036D01*
X-84665Y28985D01*
X-84410Y28821D01*
X-84238Y28571D01*
X-84178Y28274D01*
X-84178Y25836D01*
X-84229Y25561D01*
X-84393Y25306D01*
X-84643Y25134D01*
X-84940Y25074D01*
X-85261Y25074D01*
X-86154Y24181D01*
X-86154Y13919D01*
X-85474Y13239D01*
X-85316Y13008D01*
X-85251Y12712D01*
X-85307Y12414D01*
X-85474Y12161D01*
X-86154Y11481D01*
X-86154Y1219D01*
X-86109Y1174D01*
X-85951Y943D01*
X-85886Y647D01*
X-85942Y349D01*
X-86109Y96D01*
X-86154Y51D01*
X-86154Y-10211D01*
X-85474Y-10891D01*
X-85316Y-11122D01*
X-85251Y-11418D01*
X-85307Y-11716D01*
X-85474Y-11969D01*
X-86154Y-12649D01*
X-86154Y-22911D01*
X-86109Y-22956D01*
X-85951Y-23187D01*
X-85886Y-23483D01*
X-85942Y-23781D01*
X-86109Y-24034D01*
X-86154Y-24079D01*
X-86154Y-34341D01*
X-85792Y-34703D01*
X-85639Y-34923D01*
X-85569Y-35218D01*
X-85620Y-35517D01*
X-85784Y-35772D01*
X-86034Y-35944D01*
X-86331Y-36004D01*
X-87492Y-36004D01*
X-87756Y-35957D01*
X-88014Y-35798D01*
X-88189Y-35550D01*
X-88254Y-35254D01*
X-88199Y-34956D01*
X-88090Y-34792D01*
X-88090Y-29972D01*
X-93368Y-29972D01*
X-93368Y-36250D01*
X-89572Y-36250D01*
X-89297Y-36301D01*
X-89042Y-36465D01*
X-88870Y-36715D01*
X-88810Y-37012D01*
X-88810Y-45159D01*
X-87917Y-46052D01*
X-84144Y-46052D01*
X-83869Y-46103D01*
X-83614Y-46267D01*
X-83442Y-46517D01*
X-83382Y-46814D01*
X-83382Y-47053D01*
X-80438Y-49997D01*
X-80285Y-50216D01*
X-80216Y-50511D01*
X-80266Y-50810D01*
X-80430Y-51066D01*
X-80680Y-51237D01*
X-80977Y-51298D01*
X-81008Y-51298D01*
X-86868Y-57157D01*
X-86868Y-71113D01*
X-81587Y-76394D01*
X-80879Y-76394D01*
X-80593Y-76449D01*
X-80340Y-76617D01*
X-79801Y-77156D01*
X-75986Y-77156D01*
X-75700Y-77211D01*
X-75447Y-77379D01*
X-74541Y-78284D01*
X-74378Y-78526D01*
X-74318Y-78823D01*
X-74318Y-82132D01*
X-74369Y-82407D01*
X-74533Y-82662D01*
X-74783Y-82834D01*
X-75080Y-82894D01*
X-75401Y-82894D01*
X-76294Y-83787D01*
X-76294Y-94049D01*
X-75401Y-94942D01*
X-73660Y-94942D01*
X-73385Y-94993D01*
X-73130Y-95157D01*
X-72958Y-95407D01*
X-72898Y-95704D01*
X-72898Y-104263D01*
X-72005Y-105156D01*
X-68787Y-105156D01*
X-68501Y-105212D01*
X-68248Y-105379D01*
X-56829Y-116798D01*
X-40286Y-116798D01*
X-40011Y-116849D01*
X-39756Y-117013D01*
X-39584Y-117263D01*
X-39524Y-117560D01*
X-39524Y-122131D01*
X-38631Y-123024D01*
X-31369Y-123024D01*
X-30539Y-122194D01*
X-30308Y-122036D01*
X-30012Y-121971D01*
X-29714Y-122027D01*
X-29461Y-122194D01*
X-28631Y-123024D01*
X-21369Y-123024D01*
X-21257Y-122913D01*
X-21027Y-122755D01*
X-20731Y-122689D01*
X-20432Y-122745D01*
X-20180Y-122913D01*
X-19052Y-124040D01*
X-15762Y-124040D01*
X-15762Y-112988D01*
X-14238Y-112988D01*
X-14238Y-124040D01*
X-10948Y-124040D01*
X-9820Y-122913D01*
X-9590Y-122755D01*
X-9294Y-122689D01*
X-8996Y-122745D01*
X-8743Y-122913D01*
X-8631Y-123024D01*
X-8561Y-123024D01*
X-8298Y-123071D01*
X-8040Y-123230D01*
X-7865Y-123478D01*
X-7800Y-123774D01*
X-7855Y-124072D01*
X-8023Y-124325D01*
X-8306Y-124608D01*
X-8306Y-129004D01*
X-5198Y-132112D01*
X-1437Y-132112D01*
X-1151Y-132168D01*
X-898Y-132335D01*
X20466Y-153699D01*
X20619Y-153919D01*
X20689Y-154214D01*
X20638Y-154513D01*
X20475Y-154768D01*
X20225Y-154940D01*
G37*
%LPC*%
G36*
X-98282Y118500D02*
X-91718Y118500D01*
X-85654Y121012D01*
X-81012Y125654D01*
X-78500Y131718D01*
X-78500Y138282D01*
X-81012Y144347D01*
X-85654Y148988D01*
X-91718Y151500D01*
X-98282Y151500D01*
X-104347Y148988D01*
X-108988Y144347D01*
X-111500Y138282D01*
X-111500Y131718D01*
X-108988Y125654D01*
X-104347Y121012D01*
X-98282Y118500D01*
G37*
G36*
X91718Y118500D02*
X98282Y118500D01*
X104347Y121012D01*
X108988Y125654D01*
X111500Y131718D01*
X111500Y138282D01*
X108988Y144347D01*
X104347Y148988D01*
X98282Y151500D01*
X91718Y151500D01*
X85654Y148988D01*
X81012Y144347D01*
X78500Y138282D01*
X78500Y131718D01*
X81012Y125654D01*
X85654Y121012D01*
X91718Y118500D01*
G37*
G36*
X107827Y77734D02*
X112173Y77734D01*
X116187Y79396D01*
X119259Y82469D01*
X120922Y86483D01*
X120922Y90828D01*
X119259Y94842D01*
X116187Y97915D01*
X112173Y99578D01*
X107827Y99578D01*
X103813Y97915D01*
X100741Y94842D01*
X99078Y90828D01*
X99078Y86483D01*
X100741Y82469D01*
X103813Y79396D01*
X107827Y77734D01*
G37*
G36*
X107827Y52334D02*
X112173Y52334D01*
X116187Y53996D01*
X119259Y57069D01*
X120922Y61083D01*
X120922Y65428D01*
X119259Y69442D01*
X116187Y72515D01*
X112173Y74178D01*
X107827Y74178D01*
X103813Y72515D01*
X100741Y69442D01*
X99078Y65428D01*
X99078Y61083D01*
X100741Y57069D01*
X103813Y53996D01*
X107827Y52334D01*
G37*
G36*
X-95368Y36322D02*
X-88090Y36322D01*
X-88090Y41612D01*
X-89578Y43100D01*
X-95368Y43100D01*
X-95368Y36322D01*
G37*
G36*
X-104170Y36322D02*
X-96892Y36322D01*
X-96892Y43100D01*
X-102682Y43100D01*
X-104170Y41612D01*
X-104170Y36322D01*
G37*
G36*
X-102682Y28020D02*
X-96892Y28020D01*
X-96892Y34798D01*
X-104170Y34798D01*
X-104170Y29508D01*
X-102682Y28020D01*
G37*
G36*
X-95368Y28020D02*
X-89578Y28020D01*
X-88090Y29508D01*
X-88090Y34798D01*
X-95368Y34798D01*
X-95368Y28020D01*
G37*
G36*
X-93368Y19812D02*
X-88090Y19812D01*
X-88090Y24602D01*
X-89578Y26090D01*
X-93368Y26090D01*
X-93368Y19812D01*
G37*
G36*
X-100170Y19812D02*
X-94892Y19812D01*
X-94892Y26090D01*
X-98682Y26090D01*
X-100170Y24602D01*
X-100170Y19812D01*
G37*
G36*
X62930Y8542D02*
X75010Y8542D01*
X75010Y13258D01*
X75066Y13544D01*
X75233Y13797D01*
X75234Y13798D01*
X75234Y18588D01*
X63154Y18588D01*
X63154Y13872D01*
X63098Y13586D01*
X62931Y13333D01*
X62930Y13332D01*
X62930Y8542D01*
G37*
G36*
X-100170Y7112D02*
X-88090Y7112D01*
X-88090Y11902D01*
X-88349Y12161D01*
X-88507Y12392D01*
X-88572Y12688D01*
X-88517Y12986D01*
X-88349Y13239D01*
X-88090Y13498D01*
X-88090Y18288D01*
X-100170Y18288D01*
X-100170Y13498D01*
X-99911Y13239D01*
X-99753Y13008D01*
X-99688Y12712D01*
X-99743Y12414D01*
X-99911Y12161D01*
X-100170Y11902D01*
X-100170Y7112D01*
G37*
G36*
X64418Y740D02*
X68208Y740D01*
X68208Y7018D01*
X62930Y7018D01*
X62930Y2228D01*
X64418Y740D01*
G37*
G36*
X69732Y740D02*
X73522Y740D01*
X75010Y2228D01*
X75010Y7018D01*
X69732Y7018D01*
X69732Y740D01*
G37*
G36*
X-100170Y-4318D02*
X-88090Y-4318D01*
X-88090Y5588D01*
X-100170Y5588D01*
X-100170Y-4318D01*
G37*
G36*
X-100170Y-17018D02*
X-88090Y-17018D01*
X-88090Y-12228D01*
X-88349Y-11969D01*
X-88507Y-11738D01*
X-88572Y-11442D01*
X-88517Y-11144D01*
X-88349Y-10891D01*
X-88090Y-10632D01*
X-88090Y-5842D01*
X-100170Y-5842D01*
X-100170Y-10632D01*
X-99911Y-10891D01*
X-99753Y-11122D01*
X-99688Y-11418D01*
X-99743Y-11716D01*
X-99911Y-11969D01*
X-100170Y-12228D01*
X-100170Y-17018D01*
G37*
G36*
X-100170Y-28448D02*
X-88090Y-28448D01*
X-88090Y-18542D01*
X-100170Y-18542D01*
X-100170Y-28448D01*
G37*
G36*
X-94245Y-94842D02*
X-85983Y-94842D01*
X-85090Y-93949D01*
X-85090Y-83687D01*
X-85983Y-82794D01*
X-91512Y-82794D01*
X-91798Y-82738D01*
X-92051Y-82571D01*
X-96226Y-78395D01*
X-96384Y-78165D01*
X-96449Y-77869D01*
X-96394Y-77571D01*
X-96226Y-77318D01*
X-95171Y-76263D01*
X-95171Y-70428D01*
X-96064Y-69536D01*
X-96886Y-69536D01*
X-97160Y-69484D01*
X-97416Y-69321D01*
X-97587Y-69071D01*
X-97648Y-68774D01*
X-97648Y-63680D01*
X-101871Y-59456D01*
X-102024Y-59237D01*
X-102094Y-58942D01*
X-102043Y-58643D01*
X-101880Y-58387D01*
X-101630Y-58216D01*
X-101332Y-58156D01*
X-96064Y-58156D01*
X-95171Y-57263D01*
X-95171Y-51428D01*
X-96064Y-50536D01*
X-101618Y-50536D01*
X-101893Y-50484D01*
X-102148Y-50321D01*
X-102320Y-50071D01*
X-102380Y-49774D01*
X-102380Y-47483D01*
X-102329Y-47208D01*
X-102165Y-46952D01*
X-101915Y-46781D01*
X-101618Y-46721D01*
X-99558Y-46721D01*
X-96449Y-43612D01*
X-96449Y-39217D01*
X-98115Y-37551D01*
X-98268Y-37331D01*
X-98338Y-37036D01*
X-98287Y-36737D01*
X-98124Y-36482D01*
X-97874Y-36310D01*
X-97577Y-36250D01*
X-94892Y-36250D01*
X-94892Y-29972D01*
X-100170Y-29972D01*
X-100170Y-34762D01*
X-100124Y-34808D01*
X-99971Y-35027D01*
X-99902Y-35322D01*
X-99952Y-35621D01*
X-100116Y-35877D01*
X-100366Y-36048D01*
X-100663Y-36109D01*
X-103953Y-36109D01*
X-107061Y-39217D01*
X-107061Y-42094D01*
X-107117Y-42380D01*
X-107285Y-42633D01*
X-108476Y-43825D01*
X-108476Y-46903D01*
X-108532Y-47189D01*
X-108699Y-47442D01*
X-110792Y-49534D01*
X-110792Y-59157D01*
X-103967Y-65982D01*
X-103804Y-66223D01*
X-103744Y-66521D01*
X-103744Y-68774D01*
X-103795Y-69048D01*
X-103958Y-69304D01*
X-104208Y-69475D01*
X-104506Y-69536D01*
X-105327Y-69536D01*
X-106220Y-70428D01*
X-106220Y-76263D01*
X-105327Y-77156D01*
X-104506Y-77156D01*
X-104231Y-77207D01*
X-103975Y-77370D01*
X-103804Y-77620D01*
X-103744Y-77918D01*
X-103744Y-79499D01*
X-102765Y-80477D01*
X-102612Y-80697D01*
X-102543Y-80992D01*
X-102593Y-81291D01*
X-102661Y-81397D01*
X-102352Y-81397D01*
X-102352Y-88056D01*
X-97074Y-88056D01*
X-97074Y-88008D01*
X-97027Y-87745D01*
X-96868Y-87487D01*
X-96620Y-87311D01*
X-96324Y-87246D01*
X-96026Y-87302D01*
X-95773Y-87469D01*
X-95361Y-87881D01*
X-95198Y-88123D01*
X-95138Y-88420D01*
X-95138Y-93949D01*
X-94245Y-94842D01*
G37*
G36*
X98062Y-62982D02*
X109238Y-62982D01*
X109238Y-51806D01*
X107625Y-51806D01*
X103238Y-53624D01*
X99879Y-56982D01*
X98062Y-61370D01*
X98062Y-62982D01*
G37*
G36*
X107625Y-75682D02*
X109238Y-75682D01*
X109238Y-64506D01*
X98062Y-64506D01*
X98062Y-66119D01*
X99879Y-70507D01*
X103238Y-73865D01*
X107625Y-75682D01*
G37*
G36*
X-109154Y-88056D02*
X-103876Y-88056D01*
X-103876Y-81778D01*
X-107666Y-81778D01*
X-109154Y-83266D01*
X-109154Y-88056D01*
G37*
G36*
X-107666Y-95858D02*
X-103876Y-95858D01*
X-103876Y-89580D01*
X-109154Y-89580D01*
X-109154Y-94370D01*
X-107666Y-95858D01*
G37*
G36*
X-102352Y-95858D02*
X-98562Y-95858D01*
X-97074Y-94370D01*
X-97074Y-89580D01*
X-102352Y-89580D01*
X-102352Y-95858D01*
G37*
G36*
X12802Y-133306D02*
X17198Y-133306D01*
X20306Y-130198D01*
X20306Y-125802D01*
X18618Y-124115D01*
X18460Y-123884D01*
X18395Y-123588D01*
X18451Y-123290D01*
X18618Y-123037D01*
X18743Y-122913D01*
X18973Y-122755D01*
X19269Y-122689D01*
X19568Y-122745D01*
X19820Y-122913D01*
X20948Y-124040D01*
X24238Y-124040D01*
X24238Y-103460D01*
X20948Y-103460D01*
X19820Y-104588D01*
X19590Y-104746D01*
X19294Y-104811D01*
X18996Y-104755D01*
X18743Y-104588D01*
X18631Y-104476D01*
X11369Y-104476D01*
X11257Y-104588D01*
X11027Y-104746D01*
X10731Y-104811D01*
X10432Y-104755D01*
X10180Y-104588D01*
X9052Y-103460D01*
X5762Y-103460D01*
X5762Y-124040D01*
X9052Y-124040D01*
X10180Y-122913D01*
X10410Y-122755D01*
X10706Y-122689D01*
X11004Y-122745D01*
X11257Y-122913D01*
X11382Y-123037D01*
X11540Y-123267D01*
X11605Y-123564D01*
X11549Y-123862D01*
X11382Y-124115D01*
X9694Y-125802D01*
X9694Y-130198D01*
X12802Y-133306D01*
G37*
G36*
X-98282Y-151500D02*
X-91718Y-151500D01*
X-85654Y-148988D01*
X-81012Y-144347D01*
X-78500Y-138282D01*
X-78500Y-131718D01*
X-81012Y-125654D01*
X-85654Y-121012D01*
X-91718Y-118500D01*
X-98282Y-118500D01*
X-104347Y-121012D01*
X-108988Y-125654D01*
X-111500Y-131718D01*
X-111500Y-138282D01*
X-108988Y-144347D01*
X-104347Y-148988D01*
X-98282Y-151500D01*
G37*
G36*
X-54631Y-149524D02*
X-41369Y-149524D01*
X-40476Y-148631D01*
X-40476Y-129369D01*
X-41369Y-128476D01*
X-54631Y-128476D01*
X-55524Y-129369D01*
X-55524Y-148631D01*
X-54631Y-149524D01*
G37*
%LPD*%
G36*
X-39989Y-110642D02*
X-40286Y-110702D01*
X-53988Y-110702D01*
X-54274Y-110646D01*
X-54527Y-110479D01*
X-58549Y-106457D01*
X-58702Y-106237D01*
X-58772Y-105942D01*
X-58721Y-105643D01*
X-58558Y-105388D01*
X-58308Y-105216D01*
X-58010Y-105156D01*
X-54743Y-105156D01*
X-53686Y-104099D01*
X-53455Y-103941D01*
X-53159Y-103876D01*
X-52861Y-103932D01*
X-52608Y-104099D01*
X-51300Y-105408D01*
X-46904Y-105408D01*
X-43796Y-102300D01*
X-43796Y-97904D01*
X-46904Y-94796D01*
X-51468Y-94796D01*
X-51743Y-94745D01*
X-51998Y-94581D01*
X-52170Y-94331D01*
X-52230Y-94034D01*
X-52230Y-89680D01*
X-64310Y-89680D01*
X-64310Y-89728D01*
X-64357Y-89991D01*
X-64516Y-90249D01*
X-64764Y-90425D01*
X-65060Y-90490D01*
X-65358Y-90434D01*
X-65611Y-90267D01*
X-66023Y-89855D01*
X-66186Y-89613D01*
X-66246Y-89316D01*
X-66246Y-83787D01*
X-67139Y-82894D01*
X-67460Y-82894D01*
X-67735Y-82843D01*
X-67990Y-82679D01*
X-68162Y-82429D01*
X-68222Y-82132D01*
X-68222Y-75982D01*
X-69422Y-74783D01*
X-69585Y-74541D01*
X-69645Y-74244D01*
X-69645Y-70428D01*
X-70221Y-69853D01*
X-70379Y-69622D01*
X-70444Y-69326D01*
X-70388Y-69028D01*
X-70221Y-68775D01*
X-68629Y-67184D01*
X-68629Y-64608D01*
X-75932Y-64608D01*
X-75932Y-63084D01*
X-68629Y-63084D01*
X-68629Y-60507D01*
X-70221Y-58916D01*
X-70379Y-58685D01*
X-70444Y-58389D01*
X-70388Y-58091D01*
X-70221Y-57838D01*
X-69645Y-57263D01*
X-69645Y-51428D01*
X-70538Y-50536D01*
X-71360Y-50536D01*
X-71634Y-50484D01*
X-71890Y-50321D01*
X-72061Y-50071D01*
X-72122Y-49774D01*
X-72122Y-49692D01*
X-74461Y-47353D01*
X-74614Y-47133D01*
X-74684Y-46838D01*
X-74633Y-46539D01*
X-74470Y-46284D01*
X-74220Y-46112D01*
X-73922Y-46052D01*
X-70655Y-46052D01*
X-69762Y-45159D01*
X-69762Y-44076D01*
X-69711Y-43801D01*
X-69547Y-43546D01*
X-69297Y-43374D01*
X-69000Y-43314D01*
X-63987Y-43314D01*
X-63701Y-43370D01*
X-63448Y-43537D01*
X-60307Y-46677D01*
X-60147Y-46913D01*
X-60084Y-47210D01*
X-60142Y-47508D01*
X-60658Y-48753D01*
X-60658Y-51563D01*
X-59583Y-54159D01*
X-57595Y-56147D01*
X-54999Y-57222D01*
X-52189Y-57222D01*
X-49593Y-56147D01*
X-49481Y-56035D01*
X-49261Y-55882D01*
X-48966Y-55812D01*
X-48667Y-55863D01*
X-48412Y-56026D01*
X-48240Y-56276D01*
X-48180Y-56574D01*
X-48180Y-60314D01*
X-48229Y-60583D01*
X-48390Y-60840D01*
X-48639Y-61014D01*
X-48936Y-61076D01*
X-49234Y-61018D01*
X-51987Y-59878D01*
X-52832Y-59878D01*
X-52832Y-76038D01*
X-51987Y-76038D01*
X-49234Y-74898D01*
X-48966Y-74840D01*
X-48667Y-74891D01*
X-48412Y-75054D01*
X-48240Y-75304D01*
X-48180Y-75602D01*
X-48180Y-85759D01*
X-45479Y-90437D01*
X-40801Y-93138D01*
X-13443Y-93138D01*
X-13180Y-93185D01*
X-12922Y-93344D01*
X-12747Y-93592D01*
X-12682Y-93888D01*
X-12737Y-94186D01*
X-12905Y-94439D01*
X-22719Y-104253D01*
X-22960Y-104416D01*
X-23257Y-104476D01*
X-28631Y-104476D01*
X-29461Y-105306D01*
X-29692Y-105464D01*
X-29988Y-105529D01*
X-30286Y-105473D01*
X-30539Y-105306D01*
X-31369Y-104476D01*
X-38631Y-104476D01*
X-39524Y-105369D01*
X-39524Y-109940D01*
X-39575Y-110215D01*
X-39739Y-110470D01*
X-39989Y-110642D01*
G37*
%LPC*%
G36*
X-61674Y-67196D02*
X-54356Y-67196D01*
X-54356Y-59878D01*
X-55201Y-59878D01*
X-58171Y-61108D01*
X-60444Y-63381D01*
X-61674Y-66351D01*
X-61674Y-67196D01*
G37*
G36*
X-55201Y-76038D02*
X-54356Y-76038D01*
X-54356Y-68720D01*
X-61674Y-68720D01*
X-61674Y-69565D01*
X-60444Y-72535D01*
X-58171Y-74808D01*
X-55201Y-76038D01*
G37*
G36*
X-57508Y-88156D02*
X-52230Y-88156D01*
X-52230Y-83366D01*
X-53718Y-81878D01*
X-57508Y-81878D01*
X-57508Y-88156D01*
G37*
G36*
X-64310Y-88156D02*
X-59032Y-88156D01*
X-59032Y-81878D01*
X-62822Y-81878D01*
X-64310Y-83366D01*
X-64310Y-88156D01*
G37*
%LPD*%
G36*
X110149Y-154985D02*
X110000Y-155000D01*
X55660Y-155000D01*
X55397Y-154953D01*
X55139Y-154794D01*
X54964Y-154546D01*
X54898Y-154250D01*
X54954Y-153952D01*
X55122Y-153699D01*
X77199Y-131622D01*
X77419Y-131469D01*
X77714Y-131399D01*
X78013Y-131450D01*
X78268Y-131613D01*
X78440Y-131863D01*
X78500Y-132160D01*
X78500Y-138282D01*
X81012Y-144347D01*
X85654Y-148988D01*
X91718Y-151500D01*
X98282Y-151500D01*
X104347Y-148988D01*
X108988Y-144347D01*
X111500Y-138282D01*
X111500Y-131718D01*
X108988Y-125654D01*
X104347Y-121012D01*
X100834Y-119557D01*
X100604Y-119409D01*
X100429Y-119161D01*
X100364Y-118865D01*
X100419Y-118567D01*
X100587Y-118314D01*
X123699Y-95202D01*
X123919Y-95049D01*
X124214Y-94979D01*
X124513Y-95030D01*
X124768Y-95193D01*
X124940Y-95443D01*
X125000Y-95741D01*
X125000Y-140000D01*
X124985Y-140149D01*
X123902Y-145597D01*
X123788Y-145872D01*
X120701Y-150491D01*
X120491Y-150701D01*
X115872Y-153788D01*
X115597Y-153902D01*
X110149Y-154985D01*
G37*
D10*
X-79130Y35560D03*
X-96130Y35560D03*
D11*
X-81130Y19050D03*
X-94130Y19050D03*
X-81130Y-29210D03*
X-94130Y-29210D03*
X-81130Y-17780D03*
X-94130Y-17780D03*
X-71270Y-88918D03*
X-58270Y-88918D03*
X-90114Y-88818D03*
X-103114Y-88818D03*
X-81130Y-5080D03*
X-94130Y-5080D03*
X-81130Y6350D03*
X-94130Y6350D03*
D12*
X110000Y88656D03*
X110000Y63256D03*
X110000Y37856D03*
X110000Y12456D03*
X110000Y-12944D03*
X110000Y-38344D03*
X110000Y-63744D03*
X110000Y-89144D03*
D13*
X-84286Y-41028D03*
X-74286Y-41028D03*
D14*
X-53594Y56642D03*
D15*
X-53594Y38842D03*
X-53594Y21042D03*
X-53594Y3242D03*
X-53594Y-14558D03*
X-53594Y-32358D03*
X-53594Y-50158D03*
X-53594Y-67958D03*
X53340Y47752D03*
X53340Y29952D03*
X53340Y12152D03*
X53340Y-5648D03*
X53340Y-23448D03*
X53340Y-41248D03*
X53340Y-59048D03*
X53340Y-76848D03*
D16*
X-75170Y-73346D03*
X-75170Y-63846D03*
X-75170Y-54346D03*
X-100696Y-54346D03*
X-100696Y-73346D03*
D17*
X35000Y-113750D03*
X25000Y-113750D03*
X15000Y-113750D03*
X5000Y-113750D03*
X-5000Y-113750D03*
X-15000Y-113750D03*
X-25000Y-113750D03*
X-35000Y-113750D03*
D18*
X-48000Y-139000D03*
X48000Y-139000D03*
D13*
X69470Y30346D03*
X79470Y30346D03*
X-58374Y-100132D03*
X-68374Y-100132D03*
D11*
X81970Y7780D03*
X68970Y7780D03*
X82194Y19350D03*
X69194Y19350D03*
D13*
X66021Y-24177D03*
X76021Y-24177D03*
D19*
X-57707Y-63846D02*
X-75170Y-63846D01*
X-57707Y-63846D02*
X-53594Y-67958D01*
X-94130Y-29210D02*
X-94130Y-17780D01*
X-94130Y-5080D01*
X-94130Y6350D01*
X-94130Y19050D01*
X-94130Y33560D01*
X-96130Y35560D01*
X-53594Y-67958D02*
X-53594Y-84242D01*
X-58270Y-88918D01*
X-11048Y-104738D02*
X-9263Y-102952D01*
X-738Y-102952D01*
X1048Y-104738D01*
X-11048Y-109798D02*
X-15000Y-113750D01*
X-11048Y-109798D02*
X-11048Y-104738D01*
X1048Y-104738D02*
X1048Y-109798D01*
X5000Y-113750D01*
X8952Y-104738D02*
X10738Y-102952D01*
X19263Y-102952D01*
X21048Y-104738D01*
X21048Y-110000D01*
X8952Y-109798D02*
X8952Y-104738D01*
X8952Y-109798D02*
X5000Y-113750D01*
X21048Y-110000D02*
X24798Y-113750D01*
X25000Y-113750D01*
D20*
X5000Y-99000D03*
D19*
X5000Y-113750D01*
X-94000Y-29340D02*
X-94130Y-29210D01*
X-18952Y-122763D02*
X-20738Y-124548D01*
X-18952Y-122763D02*
X-18952Y-117702D01*
X-15000Y-113750D01*
X-67384Y-124548D02*
X-103114Y-88818D01*
X-67384Y-124548D02*
X-20738Y-124548D01*
X-110000Y-46587D02*
X-112316Y-48903D01*
X-110000Y-46587D02*
X-110000Y-40000D01*
X-112316Y-79616D02*
X-103114Y-88818D01*
X-112316Y-79616D02*
X-112316Y-48903D01*
X-110000Y-40000D02*
X-99340Y-29340D01*
X-94000Y-29340D01*
X68970Y19126D02*
X69194Y19350D01*
X68970Y19126D02*
X68970Y7780D01*
X110000Y-55946D02*
X110000Y-63744D01*
D20*
X50000Y-100000D03*
D19*
X79829Y-3079D02*
X68970Y7780D01*
X79829Y-3079D02*
X82135Y-3079D01*
X97554Y-18498D01*
X30738Y-102952D02*
X28952Y-104738D01*
X47048Y-102952D02*
X50000Y-100000D01*
X28952Y-104738D02*
X28952Y-109798D01*
X25000Y-113750D01*
X30738Y-102952D02*
X47048Y-102952D01*
D20*
X71000Y-50000D03*
X74000Y-72000D03*
D19*
X97554Y-43500D02*
X97554Y-18498D01*
X97554Y-43500D02*
X110000Y-55946D01*
D20*
X114000Y-116000D03*
D19*
X-81130Y19050D02*
X-81130Y33560D01*
X-79130Y35560D01*
X-79138Y21042D02*
X-81130Y19050D01*
X-79138Y21042D02*
X-53594Y21042D01*
X-100696Y-78237D02*
X-90114Y-88818D01*
X-100696Y-78237D02*
X-100696Y-73346D01*
X-81130Y-5080D02*
X-81130Y6350D01*
X-56702Y6350D01*
X-53594Y3242D01*
X-100696Y-64943D02*
X-100696Y-73346D01*
D20*
X-70000Y-10000D03*
D19*
X-74920Y-5080D01*
X-81130Y-5080D01*
X-107744Y-50797D02*
X-107744Y-57894D01*
X-100696Y-64943D01*
X-107744Y-50797D02*
X-105428Y-48481D01*
D20*
X-101755Y-41415D03*
D19*
X-105428Y-45087D02*
X-105428Y-48481D01*
X-105428Y-45087D02*
X-101755Y-41415D01*
D20*
X80000Y50000D03*
D19*
X79470Y49470D01*
X79470Y30346D01*
X79470Y22074D01*
X82194Y19350D01*
X82194Y8004D01*
X81970Y7780D01*
X-75170Y-54346D02*
X-79746Y-54346D01*
X-83820Y-58420D01*
X-83820Y-69850D01*
X-80325Y-73346D01*
X-75170Y-73346D01*
X-81130Y-17780D02*
X-56816Y-17780D01*
X-53594Y-14558D01*
X-81130Y-17780D02*
X-81130Y-29210D01*
X-81130Y-37872D01*
X-84286Y-41028D01*
X-80334Y-44980D01*
X-80334Y-45791D01*
X-75170Y-50955D02*
X-75170Y-54346D01*
X-75170Y-50955D02*
X-80334Y-45791D01*
X-75170Y-73346D02*
X-71270Y-77245D01*
X-71270Y-88918D01*
X-68374Y-91814D01*
X-68374Y-100132D01*
X-55567Y-113750D02*
X-35000Y-113750D01*
X-68374Y-100943D02*
X-68374Y-100132D01*
X-68374Y-100943D02*
X-55567Y-113750D01*
D21*
X-62724Y-41028D02*
X-74286Y-41028D01*
X-62724Y-41028D02*
X-53594Y-50158D01*
D20*
X15000Y-128000D03*
D21*
X15000Y-113750D01*
D20*
X52000Y-113000D03*
X-49102Y-100102D03*
D21*
X-58344Y-100102D02*
X-58374Y-100132D01*
X-58344Y-100102D02*
X-49102Y-100102D01*
D20*
X78043Y-12957D03*
D21*
X76021Y-14979D01*
X76021Y-24177D01*
X76021Y-46440D01*
X80068Y-50487D01*
X80068Y-84506D01*
X52000Y-112574D01*
X52000Y-113000D01*
D20*
X-3000Y-126806D03*
D21*
X-3000Y-123733D01*
X-5000Y-121733D01*
X-5000Y-113750D01*
X-3000Y-126806D02*
X-3000Y-127000D01*
X23286Y-153286D01*
X121684Y-93984D02*
X121684Y26172D01*
X110000Y37856D01*
D20*
X60234Y-90996D03*
D21*
X67214Y-84016D01*
X87850Y-117738D02*
X97930Y-117738D01*
X121684Y-93984D01*
X52302Y-153286D02*
X23286Y-153286D01*
X52302Y-153286D02*
X87850Y-117738D01*
X53340Y-47980D02*
X53340Y-41248D01*
X67214Y-61854D02*
X67214Y-84016D01*
X67214Y-61854D02*
X53340Y-47980D01*
X-20286Y-109036D02*
X-25000Y-113750D01*
X-20286Y-109036D02*
X-20286Y-105053D01*
X-7165Y-91932D01*
X44932Y-91932D01*
X53340Y-65780D02*
X53340Y-59048D01*
X61166Y-73606D02*
X61166Y-80090D01*
X61166Y-73606D02*
X53340Y-65780D01*
X44932Y-91932D02*
X45000Y-92000D01*
X47000Y-92000D01*
X54326Y-84674D01*
X56582Y-84674D01*
X61166Y-80090D01*
X87307Y-35238D02*
X87307Y-13640D01*
X35000Y-113750D02*
X44250Y-123000D01*
X55000Y-123000D01*
X54581Y-6889D02*
X53340Y-5648D01*
X54581Y-6889D02*
X80556Y-6889D01*
X87307Y-13640D01*
D20*
X87538Y-35469D03*
D21*
X87307Y-35238D01*
X87538Y-35469D02*
X87538Y-90462D01*
X55000Y-123000D01*
D19*
X69076Y29952D02*
X69470Y30346D01*
X69076Y29952D02*
X53340Y29952D01*
D21*
X54069Y-24177D02*
X66021Y-24177D01*
X54069Y-24177D02*
X53340Y-23448D01*
M02*
