G04 EAGLE Gerber RS-274X export*
G75*
%MOMM*%
%FSLAX34Y34*%
%LPD*%
%INSoldermask Bottom*%
%IPPOS*%
%AMOC8*
5,1,8,0,0,1.08239X$1,22.5*%
G01*
G04 Define Apertures*
%ADD10C,2.503200*%
%ADD11C,2.082800*%
%ADD12R,1.311200X1.311200*%
%ADD13C,1.311200*%
%ADD14R,0.863600X1.473200*%
%ADD15R,0.838200X1.473200*%
%ADD16C,0.959600*%
G36*
X-8840Y-139745D02*
X-3760Y-139745D01*
X-3760Y-143555D01*
X-8840Y-143555D01*
X-8840Y-139745D01*
G37*
D10*
X-95000Y-135000D03*
X95000Y-135000D03*
X95000Y135000D03*
X-95000Y135000D03*
D11*
X110000Y88656D03*
X110000Y63256D03*
X110000Y37856D03*
X110000Y12456D03*
X110000Y-12944D03*
X110000Y-38344D03*
X110000Y-63744D03*
X110000Y-89144D03*
D12*
X-53594Y56642D03*
D13*
X-53594Y38842D03*
X-53594Y21042D03*
X-53594Y3242D03*
X-53594Y-14558D03*
X-53594Y-32358D03*
X-53594Y-50158D03*
X-53594Y-67958D03*
X53340Y47752D03*
X53340Y29952D03*
X53340Y12152D03*
X53340Y-5648D03*
X53340Y-23448D03*
X53340Y-41248D03*
X53340Y-59048D03*
X53340Y-76848D03*
D14*
X-1093Y-141650D03*
X-11507Y-141650D03*
D15*
X63579Y-23650D03*
X71707Y-23650D03*
D16*
X5000Y-99000D03*
X50000Y-100000D03*
X71000Y-50000D03*
X74000Y-72000D03*
X114000Y-116000D03*
X-70000Y-10000D03*
X-101755Y-41415D03*
X80000Y50000D03*
X15000Y-128000D03*
X52000Y-113000D03*
X-49102Y-100102D03*
X78043Y-12957D03*
X-3000Y-126806D03*
X60234Y-90996D03*
X87538Y-35469D03*
M02*
