G04 ================== begin FILE IDENTIFICATION RECORD ==================*
G04 Layout Name:  C:/tmp/20_057494d/worklib/02_057494d_top/physical/08_057494d.brd*
G04 Film Name:    paste_sec*
G04 File Format:  Gerber RS274X*
G04 File Origin:  Cadence Allegro 17.2-060*
G04 Origin Date:  Sat Sep 12 02:02:56 2020*
G04 *
G04 Layer:  VIA CLASS/PASTEMASK_BOTTOM*
G04 Layer:  PIN/PASTEMASK_BOTTOM*
G04 Layer:  PACKAGE GEOMETRY/PASTEMASK_BOTTOM*
G04 Layer:  BOARD GEOMETRY/PASTEMASK_BOTTOM*
G04 Layer:  BOARD GEOMETRY/TOOLING_CORNERS*
G04 Layer:  BOARD GEOMETRY/ROOT_NUMBER*
G04 *
G04 Offset:    (0.00 0.00)*
G04 Mirror:    No*
G04 Mode:      Positive*
G04 Rotation:  0*
G04 FullContactRelief:  No*
G04 UndefLineWidth:     8.00*
G04 ================== end FILE IDENTIFICATION RECORD ====================*
%FSLAX25Y25*MOIN*%
%IR0*IPPOS*OFA0.00000B0.00000*MIA0B0*SFA1.00000B1.00000*%
%ADD10C,.04*%
%ADD11R,.039X.031*%
%ADD12C,.05*%
%ADD13C,.008*%
G75*
%LPD*%
G75*
G54D10*
X5000Y174500D03*
X349500Y1500D03*
Y174500D03*
G54D11*
X125000Y174654D03*
Y181346D03*
X145000Y174654D03*
Y181346D03*
X165000Y174654D03*
X175000D03*
X165000Y181346D03*
X175000D03*
G54D12*
G01X-13000Y-22500D02*
Y12500D01*
G01X-23000Y-12500D02*
X12000D01*
G01X-13000Y212500D02*
Y177500D01*
G01X-23000Y202500D02*
X12000D01*
G01X372500Y-12500D02*
X337500D01*
G01X372500Y202500D02*
X337500D01*
G01X362500Y-22500D02*
Y12500D01*
G01Y212500D02*
Y177500D01*
G54D13*
G01X72000Y284250D02*
Y294250D01*
X75000D01*
X76000Y293750D01*
X76750Y292583D01*
X77000Y291250D01*
X76750Y289917D01*
X76125Y288917D01*
X75000Y288416D01*
X72000D01*
G01X81375Y284250D02*
X84500Y294250D01*
X87625Y284250D01*
G01X86500Y287750D02*
X82500D01*
G01X91875Y285583D02*
X92875Y284750D01*
X94000Y284250D01*
X95000D01*
X96000Y284750D01*
X96750Y285583D01*
X97125Y286750D01*
X96875Y287916D01*
X96250Y288917D01*
X95125Y289583D01*
X93625Y289917D01*
X92750Y290583D01*
X92375Y291750D01*
X92625Y292917D01*
X93250Y293750D01*
X94125Y294250D01*
X95000D01*
X95875Y293917D01*
X96625Y293083D01*
G01X104500Y294250D02*
Y284250D01*
G01X101625Y294250D02*
X107375D01*
G01X117000Y284250D02*
X112000D01*
Y294250D01*
X117000D01*
G01X115000Y289417D02*
X112000D01*
G01X121250Y284250D02*
Y294250D01*
X124500Y285917D01*
X127750Y294250D01*
Y284250D01*
G01X131375D02*
X134500Y294250D01*
X137625Y284250D01*
G01X136500Y287750D02*
X132500D01*
G01X141875Y285583D02*
X142875Y284750D01*
X144000Y284250D01*
X145000D01*
X146000Y284750D01*
X146750Y285583D01*
X147125Y286750D01*
X146875Y287916D01*
X146250Y288917D01*
X145125Y289583D01*
X143625Y289917D01*
X142750Y290583D01*
X142375Y291750D01*
X142625Y292917D01*
X143250Y293750D01*
X144125Y294250D01*
X145000D01*
X145875Y293917D01*
X146625Y293083D01*
G01X151750Y284250D02*
Y294250D01*
G01X156500D02*
X151750Y288083D01*
G01X157250Y284250D02*
X153875Y290916D01*
G01X171875Y285583D02*
X172875Y284750D01*
X174000Y284250D01*
X175000D01*
X176000Y284750D01*
X176750Y285583D01*
X177125Y286750D01*
X176875Y287916D01*
X176250Y288917D01*
X175125Y289583D01*
X173625Y289917D01*
X172750Y290583D01*
X172375Y291750D01*
X172625Y292917D01*
X173250Y293750D01*
X174125Y294250D01*
X175000D01*
X175875Y293917D01*
X176625Y293083D01*
G01X187000Y284250D02*
X182000D01*
Y294250D01*
X187000D01*
G01X185000Y289417D02*
X182000D01*
G01X197250Y293417D02*
X196500Y293917D01*
X195625Y294250D01*
X194625D01*
X193500Y293750D01*
X192625Y292917D01*
X192000Y291917D01*
X191500Y290250D01*
X191375Y288750D01*
X191625Y287250D01*
X192000Y286250D01*
X192750Y285250D01*
X193625Y284583D01*
X194500Y284250D01*
X195375D01*
X196250Y284583D01*
X197000Y285083D01*
X197625Y285750D01*
G01X204500Y284250D02*
X203500Y284417D01*
X202625Y285083D01*
X201875Y286083D01*
X201375Y287250D01*
X201125Y288583D01*
Y289917D01*
X201375Y291250D01*
X201875Y292417D01*
X202625Y293417D01*
X203500Y294083D01*
X204500Y294250D01*
X205500Y294083D01*
X206375Y293417D01*
X207125Y292417D01*
X207625Y291250D01*
X207875Y289917D01*
Y288583D01*
X207625Y287250D01*
X207125Y286083D01*
X206375Y285083D01*
X205500Y284417D01*
X204500Y284250D01*
G01X211625D02*
Y294250D01*
X217375Y284250D01*
Y294250D01*
G01X221750Y284250D02*
Y294250D01*
X224250D01*
X225250Y293750D01*
X226000Y293083D01*
X226625Y292083D01*
X227125Y290916D01*
X227250Y289250D01*
X227125Y287583D01*
X226625Y286417D01*
X226000Y285416D01*
X225250Y284750D01*
X224250Y284250D01*
X221750D01*
G01X231375D02*
X234500Y294250D01*
X237625Y284250D01*
G01X236500Y287750D02*
X232500D01*
G01X242000Y284250D02*
Y294250D01*
X245125D01*
X246125Y293750D01*
X246750Y293083D01*
X247000Y291750D01*
X246750Y290417D01*
X246000Y289583D01*
X245125Y289083D01*
X242000D01*
G01X245125D02*
X247000Y284250D01*
G01X254500D02*
Y288750D01*
X252000Y294250D01*
G01X257000D02*
X254500Y288750D01*
G01X109500Y274250D02*
X108500Y273917D01*
X107750Y273083D01*
X107250Y272083D01*
X106875Y270750D01*
X106750Y269250D01*
X106875Y267750D01*
X107250Y266417D01*
X107750Y265416D01*
X108500Y264583D01*
X109500Y264250D01*
X110500Y264583D01*
X111250Y265416D01*
X111750Y266417D01*
X112125Y267750D01*
X112250Y269250D01*
X112125Y270750D01*
X111750Y272083D01*
X111250Y273083D01*
X110500Y273917D01*
X109500Y274250D01*
G01X119500Y264250D02*
X120375Y264417D01*
X121375Y264917D01*
X122000Y265750D01*
X122250Y266917D01*
X122000Y268083D01*
X121250Y269083D01*
X120125Y269583D01*
X118875D01*
X118125Y269917D01*
X117500Y270750D01*
X117250Y271917D01*
X117625Y273083D01*
X118500Y273917D01*
X119500Y274250D01*
X120500Y273917D01*
X121375Y273083D01*
X121750Y271917D01*
X121500Y270750D01*
X120875Y269917D01*
X120125Y269583D01*
X118875D01*
X117750Y269083D01*
X117000Y268083D01*
X116750Y266917D01*
X117000Y265750D01*
X117625Y264917D01*
X118625Y264417D01*
X119500Y264250D01*
G01X127875Y267583D02*
X131125D01*
G01X197875D02*
X201125D01*
G01X209500Y264250D02*
Y274250D01*
X208000Y272250D01*
G01Y264250D02*
X211000D01*
G01X219500Y274250D02*
X218500Y273917D01*
X217750Y273083D01*
X217250Y272083D01*
X216875Y270750D01*
X216750Y269250D01*
X216875Y267750D01*
X217250Y266417D01*
X217750Y265416D01*
X218500Y264583D01*
X219500Y264250D01*
X220500Y264583D01*
X221250Y265416D01*
X221750Y266417D01*
X222125Y267750D01*
X222250Y269250D01*
X222125Y270750D01*
X221750Y272083D01*
X221250Y273083D01*
X220500Y273917D01*
X219500Y274250D01*
G01X143000Y243750D02*
Y253750D01*
X146125D01*
X147125Y253250D01*
X147750Y252583D01*
X148000Y251250D01*
X147750Y249917D01*
X147000Y249083D01*
X146125Y248583D01*
X143000D01*
G01X146125D02*
X148000Y243750D01*
G01X158000D02*
X153000D01*
Y253750D01*
X158000D01*
G01X156000Y248917D02*
X153000D01*
G01X162375Y253750D02*
X165500Y243750D01*
X168625Y253750D01*
G01X182750Y243750D02*
Y253750D01*
X185250D01*
X186250Y253250D01*
X187000Y252583D01*
X187625Y251583D01*
X188125Y250416D01*
X188250Y248750D01*
X188125Y247083D01*
X187625Y245917D01*
X187000Y244916D01*
X186250Y244250D01*
X185250Y243750D01*
X182750D01*
G01X140500Y273750D02*
X139500Y273417D01*
X138750Y272583D01*
X138250Y271583D01*
X137875Y270250D01*
X137750Y268750D01*
X137875Y267250D01*
X138250Y265917D01*
X138750Y264916D01*
X139500Y264083D01*
X140500Y263750D01*
X141500Y264083D01*
X142250Y264916D01*
X142750Y265917D01*
X143125Y267250D01*
X143250Y268750D01*
X143125Y270250D01*
X142750Y271583D01*
X142250Y272583D01*
X141500Y273417D01*
X140500Y273750D01*
G01X147750Y265250D02*
X148500Y264417D01*
X149375Y263917D01*
X150500Y263750D01*
X151625Y264083D01*
X152500Y264750D01*
X153125Y265917D01*
X153250Y267250D01*
X153000Y268583D01*
X152375Y269417D01*
X151500Y270083D01*
X150625Y270250D01*
X149750Y270083D01*
X148625Y269417D01*
X149000Y273750D01*
X152375D01*
G01X160250Y263750D02*
X160500Y265917D01*
X160875Y267750D01*
X161375Y269417D01*
X162000Y271250D01*
X163000Y273750D01*
X158000D01*
G01X172000Y263750D02*
Y273750D01*
X167375Y266583D01*
X173625D01*
G01X178375Y264916D02*
X179250Y264083D01*
X180250Y263750D01*
X181250Y264083D01*
X182125Y265083D01*
X182750Y266583D01*
X183000Y268083D01*
Y269917D01*
X182750Y271417D01*
X182125Y272750D01*
X181375Y273417D01*
X180500Y273750D01*
X179500Y273417D01*
X178750Y272750D01*
X178250Y271750D01*
X178000Y270416D01*
X178250Y269250D01*
X178875Y268083D01*
X179625Y267416D01*
X180500Y267250D01*
X181500Y267583D01*
X182250Y268417D01*
X183000Y269917D01*
G01X192000Y263750D02*
Y273750D01*
X187375Y266583D01*
X193625D01*
M02*
