G04 ================== begin FILE IDENTIFICATION RECORD ==================*
G04 Layout Name:  C:/tmp/20_057494d/worklib/02_057494d_top/physical/08_057494d.brd*
G04 Film Name:    silk_prm*
G04 File Format:  Gerber RS274X*
G04 File Origin:  Cadence Allegro 17.2-060*
G04 Origin Date:  Sat Sep 12 02:02:56 2020*
G04 *
G04 Layer:  PACKAGE GEOMETRY/SILKSCREEN_TOP*
G04 Layer:  BOARD GEOMETRY/TOOLING_CORNERS*
G04 Layer:  BOARD GEOMETRY/SILKSCREEN_TOP*
G04 Layer:  BOARD GEOMETRY/ROOT_NUMBER*
G04 Layer:  REF DES/SILKSCREEN_TOP*
G04 Layer:  MANUFACTURING/SILK_DETAIL_TOP*
G04 *
G04 Offset:    (0.00 0.00)*
G04 Mirror:    No*
G04 Mode:      Positive*
G04 Rotation:  0*
G04 FullContactRelief:  No*
G04 UndefLineWidth:     8.00*
G04 ================== end FILE IDENTIFICATION RECORD ====================*
%FSLAX25Y25*MOIN*%
%IR0*IPPOS*OFA0.00000B0.00000*MIA0B0*SFA1.00000B1.00000*%
%ADD10C,.05*%
%ADD11C,.002*%
%ADD12C,.004*%
%ADD13C,.008*%
%ADD14C,.006*%
%ADD15C,.0054*%
G75*
%LPD*%
G75*
G36*
G01X-2500Y56050D02*
Y53050D01*
X3500D01*
Y56050D01*
X-2500D01*
G37*
G36*
G01X2300Y111500D02*
G03I-1500J0D01*
G37*
G36*
G01X16170Y153500D02*
X17470Y149450D01*
X16790D01*
X16500Y150410D01*
X15100D01*
X14790Y149450D01*
X14120D01*
X15500Y153500D01*
X16170D01*
G37*
G36*
G01X27874Y64693D02*
G02I-1500J0D01*
G37*
G36*
G01X33813Y55876D02*
G02I-1500J0D01*
G37*
G36*
G01X30780Y150020D02*
X30730Y149930D01*
X30660Y149810D01*
X30620Y149780D01*
X30520Y149700D01*
X30430Y149640D01*
X30320Y149580D01*
X30230Y149530D01*
X30090Y149490D01*
X29960Y149470D01*
X29800Y149450D01*
X28050D01*
Y153500D01*
X29780D01*
X29960Y153470D01*
X30110Y153440D01*
X30230Y153400D01*
X30350Y153350D01*
X30430Y153300D01*
X30540Y153230D01*
X30610Y153160D01*
X30670Y153090D01*
X30700Y153060D01*
X30780Y152910D01*
X30790Y152890D01*
X30820Y152820D01*
X30860Y152700D01*
X30880Y152610D01*
X30900Y152450D01*
X30920Y152320D01*
X30940Y152080D01*
X30960Y151770D01*
Y151280D01*
X30950Y151100D01*
Y150970D01*
X30940Y150850D01*
X30930Y150700D01*
X30910Y150560D01*
X30880Y150360D01*
X30860Y150230D01*
X30840Y150160D01*
X30810Y150080D01*
X30790Y150030D01*
X30780Y150020D01*
G37*
G36*
G01X36080Y150360D02*
X36120Y150560D01*
X36130Y150700D01*
X36150Y150850D01*
Y150970D01*
X36160Y151100D01*
Y151940D01*
X36150Y152090D01*
X36120Y152320D01*
X36110Y152440D01*
X36080Y152570D01*
Y152600D01*
X36050Y152760D01*
X35990Y152910D01*
X35970Y152920D01*
X35920Y153020D01*
X35880Y153080D01*
X35870Y153090D01*
X35840Y153130D01*
X35820Y153150D01*
Y153160D01*
X35730Y153230D01*
X35620Y153310D01*
X35530Y153370D01*
X35380Y153430D01*
X35360Y153440D01*
X35240Y153470D01*
X35100Y153500D01*
X34680Y153530D01*
X34560D01*
X34180Y153500D01*
X34020Y153470D01*
X33850Y153430D01*
X33730Y153380D01*
X33600Y153310D01*
X33520Y153250D01*
X33410Y153160D01*
X33350Y153080D01*
X33290Y152990D01*
X33240Y152900D01*
X33180Y152700D01*
X33150Y152580D01*
X33110Y152380D01*
X33090Y152240D01*
X33080Y152090D01*
X33070Y151974D01*
X33068Y151039D01*
X33080Y150850D01*
X33100Y150620D01*
X33120Y150490D01*
X33150Y150340D01*
X33180Y150230D01*
X33243Y150031D01*
X33260Y150010D01*
X33310Y149920D01*
X33410Y149780D01*
X33490Y149710D01*
X33600Y149620D01*
X33700Y149570D01*
X33850Y149510D01*
X33870Y149500D01*
X33970Y149470D01*
X34110Y149450D01*
X34170Y149440D01*
X34180D01*
X34250Y149430D01*
X34360Y149420D01*
X34510Y149410D01*
X34760D01*
X34960Y149430D01*
X35050Y149440D01*
X35080D01*
X35120Y149450D01*
X35270Y149470D01*
X35490Y149550D01*
X35620Y149620D01*
X35720Y149690D01*
X35820Y149780D01*
X35890Y149860D01*
X35940Y149940D01*
X35980Y150020D01*
X36030Y150140D01*
X36060Y150260D01*
X36080Y150360D01*
G37*
G36*
G01X37530Y149450D02*
Y151200D01*
X38880D01*
Y151730D01*
X37530D01*
Y152970D01*
X39360D01*
Y153500D01*
X36910D01*
Y149450D01*
X37530D01*
G37*
G36*
G01X45250Y153500D02*
X45910D01*
X44800Y149450D01*
X44140D01*
X43440Y151830D01*
X42720Y149450D01*
X42040D01*
X41000Y153500D01*
X41660D01*
X42390Y150300D01*
X43160Y152750D01*
X43760D01*
X44470Y150340D01*
X45250Y153500D01*
G37*
G36*
G01X26320D02*
X27620Y149450D01*
X26940D01*
X26650Y150410D01*
X25250D01*
X24940Y149450D01*
X24270D01*
X25650Y153500D01*
X26320D01*
G37*
G36*
G01X17890D02*
Y149450D01*
X18520D01*
Y151200D01*
X20170D01*
Y149450D01*
X20800D01*
Y153500D01*
X20170D01*
Y151730D01*
X18520D01*
Y153500D01*
X17890D01*
G37*
G36*
G01X24050D02*
X21590D01*
Y149450D01*
X24050D01*
Y149970D01*
X22210D01*
Y151200D01*
X23560D01*
Y151730D01*
X22210D01*
Y152970D01*
X24050D01*
Y153500D01*
G37*
G36*
G01X48410Y158840D02*
X48230Y158590D01*
X48040Y158370D01*
X47820Y158150D01*
X47570Y157960D01*
X47320Y157790D01*
X47040Y157640D01*
X46750Y157520D01*
X46430Y157410D01*
X46160Y157340D01*
X45600Y157260D01*
X45300Y157230D01*
X44980Y157220D01*
X41540D01*
Y166150D01*
X45000D01*
X45340Y166140D01*
X45670Y166100D01*
X45980Y166050D01*
X46280Y165960D01*
X46570Y165870D01*
X46840Y165750D01*
X47100Y165610D01*
X47370Y165430D01*
X47610Y165220D01*
X47850Y165000D01*
X48060Y164760D01*
X48250Y164510D01*
X48430Y164220D01*
X48590Y163930D01*
X48720Y163630D01*
X48840Y163300D01*
X48940Y162960D01*
X49010Y162630D01*
X49060Y162280D01*
X49100Y161910D01*
X49110Y161540D01*
X49100Y161140D01*
X49060Y160750D01*
X49000Y160390D01*
X48930Y160040D01*
X48820Y159700D01*
X48700Y159380D01*
X48560Y159100D01*
X48410Y158840D01*
G37*
G36*
G01X41670Y168180D02*
X43460D01*
X44050Y170170D01*
X47350D01*
X48030Y168180D01*
X49870D01*
X46490Y177130D01*
X44670D01*
X41670Y168180D01*
G37*
G36*
G01X18340Y157010D02*
X38280D01*
Y177050D01*
X18340D01*
Y157010D01*
G37*
G36*
G01X60930Y151500D02*
X60380D01*
Y150910D01*
X60630D01*
Y150710D01*
X60610Y150570D01*
X60590Y150520D01*
X60550Y150480D01*
X60490Y150450D01*
X60340Y150430D01*
X60429Y150182D01*
X60457Y150189D01*
X60475Y150194D01*
X60486Y150197D01*
X60506Y150203D01*
X60519Y150207D01*
X60550Y150217D01*
X60561Y150221D01*
X60575Y150226D01*
X60607Y150238D01*
X60632Y150248D01*
X60651Y150256D01*
X60658Y150259D01*
X60740Y150301D01*
X60762Y150316D01*
X60782Y150333D01*
X60792Y150343D01*
X60813Y150361D01*
X60829Y150377D01*
X60848Y150404D01*
X60871Y150450D01*
X60892Y150506D01*
X60901Y150533D01*
X60910Y150569D01*
X60915Y150596D01*
X60922Y150628D01*
X60925Y150650D01*
X60928Y150664D01*
X60932Y150698D01*
Y150716D01*
X60931Y150732D01*
X60930Y150739D01*
X60931Y150776D01*
X60930Y150840D01*
Y151500D01*
G37*
G36*
G01X64280Y153090D02*
X64270Y153100D01*
X64250Y153130D01*
X64240Y153150D01*
X64170Y153230D01*
X64120Y153260D01*
X64080Y153290D01*
X64030Y153330D01*
X63980Y153360D01*
X63940Y153380D01*
X63700Y153460D01*
X63440Y153500D01*
X61810D01*
Y149450D01*
X62440D01*
Y150880D01*
X63420D01*
X63530Y150890D01*
X63590Y150900D01*
X63710Y150930D01*
X63790Y150960D01*
X63840Y150980D01*
X63970Y151040D01*
X64050Y151090D01*
X64120Y151150D01*
X64140Y151170D01*
X64230Y151240D01*
X64270Y151300D01*
X64330Y151370D01*
X64350Y151400D01*
X64400Y151480D01*
X64460Y151610D01*
X64480Y151660D01*
X64510Y151760D01*
X64540Y151880D01*
X64550Y152030D01*
X64560Y152190D01*
Y152320D01*
X64550Y152440D01*
X64530Y152600D01*
X64480Y152730D01*
X64460Y152780D01*
X64400Y152920D01*
X64360Y152990D01*
X64350Y153000D01*
X64310Y153060D01*
X64280Y153090D01*
G37*
G36*
G01X68100Y150360D02*
X68140Y150560D01*
X68150Y150700D01*
X68170Y150850D01*
Y150970D01*
X68180Y151100D01*
Y151940D01*
X68170Y152090D01*
X68140Y152320D01*
X68130Y152440D01*
X68100Y152570D01*
Y152600D01*
X68070Y152760D01*
X68010Y152910D01*
X67990Y152920D01*
X67940Y153020D01*
X67900Y153080D01*
X67890Y153090D01*
X67860Y153130D01*
X67840Y153150D01*
Y153160D01*
X67750Y153230D01*
X67640Y153310D01*
X67550Y153370D01*
X67400Y153430D01*
X67380Y153440D01*
X67260Y153470D01*
X67120Y153500D01*
X66700Y153530D01*
X66580D01*
X66200Y153500D01*
X66040Y153470D01*
X65870Y153430D01*
X65750Y153380D01*
X65620Y153310D01*
X65540Y153250D01*
X65430Y153160D01*
X65370Y153080D01*
X65310Y152990D01*
X65260Y152900D01*
X65200Y152700D01*
X65170Y152580D01*
X65130Y152380D01*
X65110Y152240D01*
X65100Y152090D01*
X65090Y151974D01*
X65088Y151039D01*
X65100Y150850D01*
X65120Y150620D01*
X65140Y150490D01*
X65170Y150340D01*
X65200Y150230D01*
X65263Y150031D01*
X65280Y150010D01*
X65330Y149920D01*
X65430Y149780D01*
X65510Y149710D01*
X65620Y149620D01*
X65720Y149570D01*
X65870Y149510D01*
X65890Y149500D01*
X65990Y149470D01*
X66130Y149450D01*
X66190Y149440D01*
X66200D01*
X66270Y149430D01*
X66380Y149420D01*
X66530Y149410D01*
X66780D01*
X66980Y149430D01*
X67070Y149440D01*
X67100D01*
X67140Y149450D01*
X67290Y149470D01*
X67510Y149550D01*
X67640Y149620D01*
X67740Y149690D01*
X67840Y149780D01*
X67910Y149860D01*
X67960Y149940D01*
X68000Y150020D01*
X68050Y150140D01*
X68080Y150260D01*
X68100Y150360D01*
G37*
G36*
G01X69520Y150270D02*
X69580Y150200D01*
Y150180D01*
X69590Y150160D01*
X69650Y150100D01*
X69730Y150050D01*
X69820Y150000D01*
X69950Y149960D01*
X70210Y149940D01*
X70370D01*
X70530Y149970D01*
X70650Y150020D01*
X70810Y150120D01*
X70850Y150170D01*
X70900Y150240D01*
X70930Y150280D01*
X70970Y150360D01*
X71000Y150450D01*
X71020Y150630D01*
Y150790D01*
X71000Y150880D01*
X70990Y150940D01*
X70960Y151000D01*
X70940Y151030D01*
X70840Y151130D01*
X70810Y151150D01*
X70700Y151190D01*
X70570Y151240D01*
X70450Y151270D01*
X70220Y151320D01*
X69980Y151350D01*
X69730Y151390D01*
X69540Y151430D01*
X69460Y151450D01*
X69270Y151520D01*
X69170Y151580D01*
X69070Y151660D01*
X69030Y151700D01*
X68960Y151780D01*
X68900Y151880D01*
X68840Y151990D01*
X68800Y152200D01*
Y152470D01*
X68830Y152650D01*
X68860Y152760D01*
X68930Y152910D01*
X69000Y153030D01*
X69120Y153170D01*
X69250Y153280D01*
X69370Y153360D01*
X69540Y153420D01*
X69630Y153460D01*
X69770Y153490D01*
X69920Y153520D01*
X70060Y153530D01*
X70390D01*
X70680Y153510D01*
X70940Y153440D01*
X71080Y153380D01*
X71170Y153330D01*
X71280Y153230D01*
X71340Y153160D01*
X71430Y153050D01*
X71470Y152990D01*
X71490Y152930D01*
X71520Y152870D01*
X71540Y152820D01*
X71560Y152760D01*
X71580Y152650D01*
X71590Y152560D01*
Y152500D01*
X70980D01*
X70970Y152600D01*
X70950Y152670D01*
X70910Y152760D01*
X70850Y152830D01*
X70810Y152870D01*
X70740Y152910D01*
X70630Y152950D01*
X70540Y152970D01*
X70440Y152990D01*
X70340Y153000D01*
X70090D01*
X69960Y152980D01*
X69850Y152950D01*
X69730Y152910D01*
X69630Y152870D01*
X69560Y152810D01*
X69500Y152740D01*
X69460Y152660D01*
X69430Y152560D01*
X69420Y152430D01*
X69430Y152350D01*
X69440Y152280D01*
X69460Y152230D01*
X69560Y152100D01*
X69840Y151990D01*
X69980Y151970D01*
X70170Y151950D01*
X70330Y151930D01*
X70490Y151900D01*
X70630Y151880D01*
X70800Y151840D01*
X70930Y151820D01*
X71090Y151750D01*
X71220Y151690D01*
X71390Y151560D01*
X71470Y151470D01*
X71550Y151330D01*
X71610Y151190D01*
X71630Y151070D01*
X71650Y150930D01*
X71670Y150740D01*
X71660Y150560D01*
X71630Y150410D01*
X71610Y150280D01*
X71570Y150150D01*
X71500Y150030D01*
X71460Y149940D01*
X71350Y149810D01*
X71280Y149750D01*
X71160Y149660D01*
X71040Y149590D01*
X70820Y149490D01*
X70660Y149460D01*
X70490Y149430D01*
X70360Y149420D01*
X70210Y149410D01*
X69910Y149430D01*
X69640Y149480D01*
X69490Y149550D01*
X69380Y149610D01*
X69300Y149650D01*
X69160Y149770D01*
X69110Y149820D01*
X69040Y149900D01*
X68990Y149970D01*
X68850Y150290D01*
X68810Y150440D01*
X68770Y150690D01*
X69410D01*
X69430Y150550D01*
X69440Y150420D01*
X69450Y150410D01*
X69490Y150320D01*
X69520Y150270D01*
G37*
G36*
G01X57590D02*
X57650Y150200D01*
Y150180D01*
X57660Y150160D01*
X57720Y150100D01*
X57800Y150050D01*
X57890Y150000D01*
X58020Y149960D01*
X58280Y149940D01*
X58440D01*
X58600Y149970D01*
X58720Y150020D01*
X58880Y150120D01*
X58920Y150170D01*
X58970Y150240D01*
X59000Y150280D01*
X59040Y150360D01*
X59070Y150450D01*
X59090Y150630D01*
Y150790D01*
X59070Y150880D01*
X59060Y150940D01*
X59030Y151000D01*
X59010Y151030D01*
X58910Y151130D01*
X58880Y151150D01*
X58770Y151190D01*
X58640Y151240D01*
X58520Y151270D01*
X58290Y151320D01*
X58050Y151350D01*
X57800Y151390D01*
X57610Y151430D01*
X57530Y151450D01*
X57340Y151520D01*
X57240Y151580D01*
X57140Y151660D01*
X57100Y151700D01*
X57030Y151780D01*
X56970Y151880D01*
X56910Y151990D01*
X56870Y152200D01*
Y152470D01*
X56900Y152650D01*
X56930Y152760D01*
X57000Y152910D01*
X57070Y153030D01*
X57190Y153170D01*
X57320Y153280D01*
X57440Y153360D01*
X57610Y153420D01*
X57700Y153460D01*
X57840Y153490D01*
X57990Y153520D01*
X58130Y153530D01*
X58460D01*
X58750Y153510D01*
X59010Y153440D01*
X59150Y153380D01*
X59240Y153330D01*
X59350Y153230D01*
X59410Y153160D01*
X59500Y153050D01*
X59540Y152990D01*
X59560Y152930D01*
X59590Y152870D01*
X59610Y152820D01*
X59630Y152760D01*
X59650Y152650D01*
X59660Y152560D01*
Y152500D01*
X59050D01*
X59040Y152600D01*
X59020Y152670D01*
X58980Y152760D01*
X58920Y152830D01*
X58880Y152870D01*
X58810Y152910D01*
X58700Y152950D01*
X58610Y152970D01*
X58510Y152990D01*
X58410Y153000D01*
X58160D01*
X58030Y152980D01*
X57920Y152950D01*
X57800Y152910D01*
X57700Y152870D01*
X57630Y152810D01*
X57570Y152740D01*
X57530Y152660D01*
X57500Y152560D01*
X57490Y152430D01*
X57500Y152350D01*
X57510Y152280D01*
X57530Y152230D01*
X57630Y152100D01*
X57910Y151990D01*
X58050Y151970D01*
X58240Y151950D01*
X58400Y151930D01*
X58560Y151900D01*
X58700Y151880D01*
X58870Y151840D01*
X59000Y151820D01*
X59160Y151750D01*
X59290Y151690D01*
X59460Y151560D01*
X59540Y151470D01*
X59620Y151330D01*
X59680Y151190D01*
X59700Y151070D01*
X59720Y150930D01*
X59740Y150740D01*
X59730Y150560D01*
X59700Y150410D01*
X59680Y150280D01*
X59640Y150150D01*
X59570Y150030D01*
X59530Y149940D01*
X59420Y149810D01*
X59350Y149750D01*
X59230Y149660D01*
X59110Y149590D01*
X58890Y149490D01*
X58730Y149460D01*
X58560Y149430D01*
X58430Y149420D01*
X58280Y149410D01*
X57980Y149430D01*
X57710Y149480D01*
X57560Y149550D01*
X57450Y149610D01*
X57370Y149650D01*
X57230Y149770D01*
X57180Y149820D01*
X57110Y149900D01*
X57060Y149970D01*
X56920Y150290D01*
X56880Y150440D01*
X56840Y150690D01*
X57480D01*
X57500Y150550D01*
X57510Y150420D01*
X57520Y150410D01*
X57560Y150320D01*
X57590Y150270D01*
G37*
G36*
G01X54450Y149450D02*
Y152970D01*
X55480D01*
Y153500D01*
X52800D01*
Y152970D01*
X53830D01*
Y149450D01*
X54450D01*
G37*
G36*
G01X46370Y153500D02*
Y149450D01*
X46990D01*
Y151200D01*
X48640D01*
Y149450D01*
X49260D01*
Y153500D01*
X48640D01*
Y151730D01*
X46990D01*
Y153500D01*
X46370D01*
G37*
G36*
G01X51740D02*
X53040Y149450D01*
X52360D01*
X52070Y150410D01*
X50670D01*
X50360Y149450D01*
X49690D01*
X51070Y153500D01*
X51740D01*
G37*
G36*
G01X73750Y160020D02*
X73730Y159960D01*
X73710Y159880D01*
X73660Y159760D01*
X73600Y159630D01*
X73530Y159500D01*
X73440Y159340D01*
X73340Y159190D01*
X73230Y159050D01*
X73100Y158910D01*
X72940Y158780D01*
X72810Y158700D01*
X72680Y158610D01*
X72530Y158550D01*
X72380Y158500D01*
X72200Y158450D01*
X72020Y158430D01*
X71830Y158420D01*
X71620Y158430D01*
X71430Y158460D01*
X71240Y158500D01*
X71060Y158560D01*
X70900Y158650D01*
X70700Y158760D01*
X70510Y158910D01*
X70340Y159070D01*
X70190Y159260D01*
X70050Y159460D01*
X69910Y159700D01*
X69790Y159970D01*
X69680Y160240D01*
X69600Y160530D01*
X69540Y160820D01*
X69490Y161120D01*
X69470Y161430D01*
X69460Y161730D01*
X69470Y162100D01*
X69500Y162460D01*
X69570Y162800D01*
X69640Y163060D01*
X69720Y163300D01*
X69810Y163540D01*
X69920Y163760D01*
X70050Y163970D01*
X70170Y164140D01*
X70300Y164300D01*
X70450Y164440D01*
X70610Y164570D01*
X70790Y164670D01*
X70970Y164760D01*
X71170Y164830D01*
X71370Y164870D01*
X71590Y164900D01*
X71830Y164890D01*
X72000Y164870D01*
X72160Y164830D01*
X72310Y164760D01*
X72470Y164670D01*
X72620Y164580D01*
X72750Y164480D01*
X72890Y164360D01*
X73050Y164200D01*
X73200Y164020D01*
X73330Y163850D01*
X73450Y163670D01*
X73560Y163510D01*
X73650Y163350D01*
X73720Y163210D01*
X75500D01*
X75480Y163260D01*
X75460Y163340D01*
X75440Y163430D01*
X75400Y163540D01*
X75360Y163660D01*
X75300Y163830D01*
X75220Y164020D01*
X75130Y164210D01*
X75020Y164420D01*
X74890Y164640D01*
X74770Y164820D01*
X74640Y164990D01*
X74480Y165160D01*
X74310Y165330D01*
X74120Y165490D01*
X73910Y165640D01*
X73720Y165770D01*
X73520Y165880D01*
X73300Y165970D01*
X73070Y166060D01*
X72810Y166140D01*
X72540Y166200D01*
X72250Y166240D01*
X71940Y166270D01*
X71610Y166280D01*
X71300Y166270D01*
X71000Y166250D01*
X70720Y166210D01*
X70440Y166150D01*
X70190Y166080D01*
X69950Y165980D01*
X69690Y165870D01*
X69460Y165740D01*
X69230Y165590D01*
X69020Y165420D01*
X68830Y165240D01*
X68650Y165050D01*
X68490Y164840D01*
X68320Y164610D01*
X68180Y164360D01*
X68050Y164100D01*
X67930Y163830D01*
X67840Y163550D01*
X67740Y163180D01*
X67660Y162790D01*
X67610Y162410D01*
X67600Y162020D01*
X67610Y161630D01*
X67630Y161240D01*
X67690Y160860D01*
X67770Y160480D01*
X67860Y160120D01*
X67960Y159810D01*
X68080Y159500D01*
X68220Y159210D01*
X68370Y158940D01*
X68540Y158680D01*
X68720Y158420D01*
X68900Y158200D01*
X69100Y157990D01*
X69320Y157800D01*
X69540Y157630D01*
X69780Y157470D01*
X70010Y157350D01*
X70490Y157150D01*
X70750Y157090D01*
X71030Y157040D01*
X71300Y157010D01*
X71590D01*
X71940Y157020D01*
X72270Y157050D01*
X72580Y157100D01*
X72860Y157160D01*
X73130Y157240D01*
X73380Y157320D01*
X73630Y157440D01*
X73870Y157560D01*
X74070Y157690D01*
X74270Y157830D01*
X74440Y157980D01*
X74600Y158130D01*
X74740Y158290D01*
X74920Y158520D01*
X75060Y158740D01*
X75180Y158970D01*
X75280Y159190D01*
X75360Y159380D01*
X75420Y159560D01*
X75450Y159710D01*
X75500Y159950D01*
X75510Y160020D01*
X75520Y160080D01*
Y160110D01*
X73790D01*
X73770Y160080D01*
X73750Y160020D01*
G37*
G36*
G01X58030Y168180D02*
X59820D01*
X60410Y170170D01*
X63710D01*
X64390Y168180D01*
X66230D01*
X62850Y177130D01*
X61030D01*
X58030Y168180D01*
G37*
G36*
G01X72380D02*
Y169700D01*
X68390D01*
Y177130D01*
X66610D01*
Y168180D01*
X72380D01*
G37*
G36*
G01X57620D02*
Y177130D01*
X55840D01*
Y171170D01*
X52050Y177130D01*
X50220D01*
Y168180D01*
X52010D01*
Y174230D01*
X55940Y168180D01*
X57620D01*
G37*
G36*
G01X56320Y166150D02*
X49750D01*
Y157220D01*
X56470D01*
Y158740D01*
X51560D01*
Y161130D01*
X55770D01*
Y162760D01*
X51540D01*
Y164660D01*
X56320D01*
Y166150D01*
G37*
G36*
G01X61550Y157250D02*
X64410Y165660D01*
Y166130D01*
X62660D01*
X60700Y159620D01*
X58680Y166150D01*
X56890D01*
Y165680D01*
X59840Y157250D01*
X61550D01*
G37*
G36*
G01X89343Y7510D02*
G02I-1500J0D01*
G37*
G36*
G01X99358Y30061D02*
G02I-1500J0D01*
G37*
G36*
G01X78790Y153500D02*
X77140D01*
Y149450D01*
X78960D01*
X79150Y149470D01*
X79270Y149510D01*
X79340Y149540D01*
X79540Y149640D01*
X79590Y149680D01*
X79680Y149760D01*
X79750Y149840D01*
X79820Y149940D01*
X79890Y150060D01*
X79940Y150200D01*
X79970Y150310D01*
X80000Y150440D01*
X80010Y150540D01*
Y150630D01*
X80000Y150750D01*
X79980Y150880D01*
X79930Y151030D01*
X79870Y151160D01*
X79800Y151260D01*
X79720Y151350D01*
X79590Y151440D01*
X79510Y151490D01*
X79450Y151520D01*
X79500Y151550D01*
X79560Y151590D01*
X79600Y151630D01*
X79700Y151720D01*
X79770Y151820D01*
X79850Y151960D01*
X79900Y152060D01*
X79930Y152200D01*
X79940Y152300D01*
X79950Y152430D01*
X79940Y152570D01*
X79920Y152650D01*
X79890Y152780D01*
X79840Y152890D01*
X79760Y153040D01*
X79670Y153160D01*
X79600Y153230D01*
X79560Y153260D01*
X79380Y153380D01*
X79260Y153420D01*
X79150Y153450D01*
X79060Y153480D01*
X78930Y153490D01*
X78790Y153500D01*
G37*
G36*
G01X72900Y150270D02*
X72960Y150200D01*
Y150180D01*
X72970Y150160D01*
X73030Y150100D01*
X73110Y150050D01*
X73200Y150000D01*
X73330Y149960D01*
X73590Y149940D01*
X73750D01*
X73910Y149970D01*
X74030Y150020D01*
X74190Y150120D01*
X74230Y150170D01*
X74280Y150240D01*
X74310Y150280D01*
X74350Y150360D01*
X74380Y150450D01*
X74400Y150630D01*
Y150790D01*
X74380Y150880D01*
X74370Y150940D01*
X74340Y151000D01*
X74320Y151030D01*
X74220Y151130D01*
X74190Y151150D01*
X74080Y151190D01*
X73950Y151240D01*
X73830Y151270D01*
X73600Y151320D01*
X73360Y151350D01*
X73110Y151390D01*
X72920Y151430D01*
X72840Y151450D01*
X72650Y151520D01*
X72550Y151580D01*
X72450Y151660D01*
X72410Y151700D01*
X72340Y151780D01*
X72280Y151880D01*
X72220Y151990D01*
X72180Y152200D01*
Y152470D01*
X72210Y152650D01*
X72240Y152760D01*
X72310Y152910D01*
X72380Y153030D01*
X72500Y153170D01*
X72630Y153280D01*
X72750Y153360D01*
X72920Y153420D01*
X73010Y153460D01*
X73150Y153490D01*
X73300Y153520D01*
X73440Y153530D01*
X73770D01*
X74060Y153510D01*
X74320Y153440D01*
X74460Y153380D01*
X74550Y153330D01*
X74660Y153230D01*
X74720Y153160D01*
X74810Y153050D01*
X74850Y152990D01*
X74870Y152930D01*
X74900Y152870D01*
X74920Y152820D01*
X74940Y152760D01*
X74960Y152650D01*
X74970Y152560D01*
Y152500D01*
X74360D01*
X74350Y152600D01*
X74330Y152670D01*
X74290Y152760D01*
X74230Y152830D01*
X74190Y152870D01*
X74120Y152910D01*
X74010Y152950D01*
X73920Y152970D01*
X73820Y152990D01*
X73720Y153000D01*
X73470D01*
X73340Y152980D01*
X73230Y152950D01*
X73110Y152910D01*
X73010Y152870D01*
X72940Y152810D01*
X72880Y152740D01*
X72840Y152660D01*
X72810Y152560D01*
X72800Y152430D01*
X72810Y152350D01*
X72820Y152280D01*
X72840Y152230D01*
X72940Y152100D01*
X73220Y151990D01*
X73360Y151970D01*
X73550Y151950D01*
X73710Y151930D01*
X73870Y151900D01*
X74010Y151880D01*
X74180Y151840D01*
X74310Y151820D01*
X74470Y151750D01*
X74600Y151690D01*
X74770Y151560D01*
X74850Y151470D01*
X74930Y151330D01*
X74990Y151190D01*
X75010Y151070D01*
X75030Y150930D01*
X75050Y150740D01*
X75040Y150560D01*
X75010Y150410D01*
X74990Y150280D01*
X74950Y150150D01*
X74880Y150030D01*
X74840Y149940D01*
X74730Y149810D01*
X74660Y149750D01*
X74540Y149660D01*
X74420Y149590D01*
X74200Y149490D01*
X74040Y149460D01*
X73870Y149430D01*
X73740Y149420D01*
X73590Y149410D01*
X73290Y149430D01*
X73020Y149480D01*
X72870Y149550D01*
X72760Y149610D01*
X72680Y149650D01*
X72540Y149770D01*
X72490Y149820D01*
X72420Y149900D01*
X72370Y149970D01*
X72230Y150290D01*
X72190Y150440D01*
X72150Y150690D01*
X72790D01*
X72810Y150550D01*
X72820Y150420D01*
X72830Y150410D01*
X72870Y150320D01*
X72900Y150270D01*
G37*
G36*
G01X85810Y153500D02*
X83350D01*
Y149450D01*
X85810D01*
Y149970D01*
X83970D01*
Y151200D01*
X85320D01*
Y151730D01*
X83970D01*
Y152970D01*
X85810D01*
Y153500D01*
G37*
G36*
G01X81280Y149970D02*
Y153500D01*
X80660D01*
Y149450D01*
X82860D01*
Y149970D01*
X81280D01*
G37*
G36*
G01X82690Y158650D02*
X82620Y158870D01*
X82550Y159110D01*
X82510Y159360D01*
X82490Y159620D01*
Y159890D01*
X84200D01*
X84190Y159700D01*
X84200Y159520D01*
X84230Y159360D01*
X84280Y159200D01*
X84360Y159060D01*
X84440Y158930D01*
X84550Y158820D01*
X84690Y158720D01*
X84850Y158620D01*
X85020Y158550D01*
X85230Y158470D01*
X85460Y158420D01*
X85700Y158390D01*
X85960Y158360D01*
X86190D01*
X86330Y158370D01*
X86480Y158390D01*
X86640Y158420D01*
X86810Y158460D01*
X87150Y158560D01*
X87470Y158720D01*
X87610Y158830D01*
X87730Y158950D01*
X87820Y159050D01*
X87880Y159180D01*
X87940Y159300D01*
X87970Y159440D01*
X87980Y159600D01*
X87970Y159770D01*
X87930Y159930D01*
X87880Y160070D01*
X87810Y160190D01*
X87720Y160300D01*
X87500Y160490D01*
X87360Y160570D01*
X87220Y160620D01*
X87070Y160680D01*
X86810Y160750D01*
X86530Y160820D01*
X85960Y160930D01*
X85690Y160980D01*
X85440Y161050D01*
X85210Y161100D01*
X84970Y161170D01*
X84700Y161240D01*
X84440Y161340D01*
X84170Y161440D01*
X83910Y161560D01*
X83640Y161700D01*
X83470Y161820D01*
X83310Y161940D01*
X83160Y162070D01*
X83020Y162220D01*
X82900Y162390D01*
X82810Y162540D01*
X82730Y162700D01*
X82670Y162870D01*
X82630Y163060D01*
X82600Y163260D01*
X82590Y163460D01*
X82600Y163700D01*
X82680Y164160D01*
X82750Y164370D01*
X82840Y164590D01*
X82960Y164800D01*
X83080Y164980D01*
X83220Y165150D01*
X83380Y165310D01*
X83550Y165470D01*
X83950Y165750D01*
X84180Y165870D01*
X84420Y165970D01*
X84690Y166070D01*
X84970Y166140D01*
X85260Y166210D01*
X85560Y166240D01*
X85890Y166270D01*
X86230Y166280D01*
X86550Y166270D01*
X86860Y166240D01*
X87130Y166200D01*
X87390Y166140D01*
X87630Y166070D01*
X87840Y165990D01*
X88040Y165900D01*
X88220Y165790D01*
X88390Y165680D01*
X88560Y165550D01*
X88720Y165400D01*
X88850Y165250D01*
X89070Y164930D01*
X89150Y164780D01*
X89230Y164590D01*
X89290Y164410D01*
X89340Y164240D01*
X89380Y164080D01*
X89390Y163950D01*
X89400Y163830D01*
X89420Y163720D01*
Y163660D01*
X89430Y163630D01*
X87790D01*
X87760Y163730D01*
X87730Y163840D01*
X87690Y163960D01*
X87640Y164090D01*
X87570Y164230D01*
X87490Y164360D01*
X87370Y164490D01*
X87270Y164580D01*
X87140Y164670D01*
X87000Y164740D01*
X86830Y164810D01*
X86680Y164840D01*
X86520Y164880D01*
X86340Y164900D01*
X86140Y164910D01*
X85950D01*
X85770Y164890D01*
X85570Y164860D01*
X85360Y164830D01*
X85170Y164770D01*
X84990Y164690D01*
X84850Y164630D01*
X84740Y164550D01*
X84640Y164460D01*
X84540Y164360D01*
X84470Y164250D01*
X84410Y164130D01*
X84380Y164000D01*
X84370Y163850D01*
X84380Y163700D01*
X84400Y163560D01*
X84440Y163430D01*
X84500Y163320D01*
X84604Y163172D01*
X84810Y163000D01*
X84960Y162910D01*
X85120Y162830D01*
X85320Y162760D01*
X85550Y162690D01*
X85790Y162630D01*
X86030Y162590D01*
X86290Y162540D01*
X86560Y162500D01*
X86820Y162460D01*
X87170Y162390D01*
X87500Y162310D01*
X87810Y162220D01*
X88100Y162130D01*
X88360Y162020D01*
X88610Y161910D01*
X88820Y161780D01*
X89020Y161640D01*
X89200Y161480D01*
X89320Y161340D01*
X89420Y161190D01*
X89520Y161030D01*
X89590Y160850D01*
X89660Y160660D01*
X89700Y160450D01*
X89730Y160250D01*
X89750Y160010D01*
Y159770D01*
X89730Y159530D01*
X89700Y159300D01*
X89630Y159070D01*
X89550Y158850D01*
X89450Y158640D01*
X89340Y158430D01*
X89170Y158210D01*
X88980Y158000D01*
X88760Y157800D01*
X88530Y157620D01*
X88300Y157480D01*
X88050Y157360D01*
X87790Y157250D01*
X87510Y157150D01*
X86890Y157030D01*
X86570Y156990D01*
X85840D01*
X85470Y157020D01*
X85140Y157060D01*
X84810Y157120D01*
X84510Y157180D01*
X84220Y157280D01*
X83980Y157370D01*
X83750Y157480D01*
X83550Y157610D01*
X83360Y157750D01*
X83190Y157900D01*
X83030Y158070D01*
X82900Y158250D01*
X82790Y158440D01*
X82690Y158650D01*
G37*
G36*
G01X79820Y169700D02*
X79650Y169470D01*
X79440Y169230D01*
X79220Y169020D01*
X78980Y168820D01*
X78730Y168640D01*
X78440Y168480D01*
X78150Y168340D01*
X77640Y168170D01*
X77380Y168120D01*
X77100Y168070D01*
X76810Y168040D01*
X76510Y168030D01*
X76170Y168050D01*
X75840Y168080D01*
X75530Y168130D01*
X75240Y168200D01*
X74960Y168290D01*
X74690Y168410D01*
X74440Y168530D01*
X74180Y168690D01*
X73930Y168860D01*
X73710Y169060D01*
X73500Y169260D01*
X73300Y169480D01*
X73110Y169730D01*
X72940Y170000D01*
X72800Y170280D01*
X72670Y170560D01*
X72560Y170860D01*
X72470Y171160D01*
X72380Y171530D01*
X72320Y171900D01*
X72290Y172280D01*
X72280Y172660D01*
X72300Y172970D01*
X72310Y173050D01*
X72340Y173440D01*
X72420Y173820D01*
X72520Y174190D01*
X72640Y174550D01*
X72760Y174840D01*
X72900Y175100D01*
X73040Y175350D01*
X73210Y175610D01*
X73390Y175840D01*
X73600Y176080D01*
X73830Y176290D01*
X74070Y176490D01*
X74340Y176670D01*
X74620Y176830D01*
X74920Y176960D01*
X75160Y177050D01*
X75430Y177130D01*
X75690Y177190D01*
X75970Y177230D01*
X76260Y177250D01*
X76560Y177260D01*
X76880Y177250D01*
X77190Y177210D01*
X77480Y177160D01*
X77770Y177080D01*
X78030Y177000D01*
X78280Y176890D01*
X78530Y176750D01*
X78780Y176600D01*
X79020Y176420D01*
X79230Y176230D01*
X79440Y176020D01*
X79630Y175800D01*
X79820Y175550D01*
X79980Y175290D01*
X80130Y175010D01*
X80260Y174720D01*
X80370Y174430D01*
X80460Y174130D01*
X80550Y173760D01*
X80620Y173390D01*
X80640Y173142D01*
X80670Y172640D01*
X80660Y172240D01*
X80620Y171870D01*
X80560Y171480D01*
X80470Y171110D01*
X80350Y170750D01*
X80250Y170470D01*
X80120Y170210D01*
X79980Y169950D01*
X79820Y169700D01*
G37*
G36*
G01X88380Y175890D02*
X88250Y176030D01*
X88100Y176180D01*
X87920Y176330D01*
X87730Y176470D01*
X87520Y176610D01*
X87320Y176740D01*
X87090Y176870D01*
X86850Y176970D01*
X86600Y177060D01*
X86340Y177140D01*
X86070Y177200D01*
X85790Y177220D01*
X85490Y177240D01*
X84890Y177200D01*
X84600Y177150D01*
X84330Y177080D01*
X84060Y177000D01*
X83810Y176900D01*
X83510Y176770D01*
X83220Y176600D01*
X82960Y176420D01*
X82700Y176230D01*
X82480Y176010D01*
X82260Y175780D01*
X82080Y175540D01*
X81920Y175300D01*
X81770Y175040D01*
X81640Y174780D01*
X81520Y174510D01*
X81400Y174150D01*
X81300Y173780D01*
X81230Y173410D01*
X81180Y173030D01*
X81160Y172650D01*
X81170Y172270D01*
X81210Y171900D01*
X81260Y171530D01*
X81350Y171170D01*
X81440Y170870D01*
X81550Y170580D01*
X81680Y170300D01*
X81820Y170020D01*
X81990Y169760D01*
X82170Y169520D01*
X82350Y169290D01*
X82560Y169080D01*
X82780Y168900D01*
X83010Y168720D01*
X83270Y168560D01*
X83510Y168430D01*
X83760Y168320D01*
X84040Y168230D01*
X84320Y168150D01*
X84610Y168090D01*
X84920Y168050D01*
X85240Y168030D01*
X85490Y168040D01*
X85740Y168060D01*
X85970Y168100D01*
X86190Y168140D01*
X86400Y168210D01*
X86580Y168280D01*
X86760Y168370D01*
X86930Y168460D01*
X87150Y168600D01*
X87350Y168740D01*
X87570Y168930D01*
X87890Y169250D01*
Y168400D01*
X89300D01*
Y172930D01*
X85630D01*
Y171540D01*
X87760D01*
Y171060D01*
X87750Y171030D01*
X87710Y170970D01*
X87670Y170900D01*
X87610Y170790D01*
X87520Y170670D01*
X87420Y170530D01*
X87310Y170390D01*
X87170Y170240D01*
X87020Y170090D01*
X86840Y169950D01*
X86650Y169820D01*
X86480Y169710D01*
X86290Y169630D01*
X86090Y169550D01*
X85880Y169510D01*
X85650Y169470D01*
X85260D01*
X84970Y169510D01*
X84760Y169550D01*
X84380Y169690D01*
X84170Y169820D01*
X83960Y169960D01*
X83780Y170120D01*
X83610Y170300D01*
X83460Y170480D01*
X83330Y170690D01*
X83210Y170910D01*
X83120Y171130D01*
X83030Y171380D01*
X82950Y171690D01*
X82890Y172010D01*
X82860Y172340D01*
X82850Y172660D01*
X82870Y172970D01*
X82900Y173260D01*
X82960Y173540D01*
X83030Y173820D01*
X83120Y174090D01*
X83240Y174360D01*
X83380Y174600D01*
X83530Y174830D01*
X83680Y175010D01*
X83850Y175180D01*
X84030Y175330D01*
X84220Y175470D01*
X84390Y175560D01*
X84580Y175640D01*
X84780Y175710D01*
X84990Y175760D01*
X85200Y175790D01*
X85440D01*
X85660Y175780D01*
X85880Y175750D01*
X86080Y175700D01*
X86260Y175640D01*
X86420Y175550D01*
X86570Y175460D01*
X86730Y175350D01*
X86880Y175210D01*
X87040Y175060D01*
X87170Y174900D01*
X87390Y174580D01*
X87490Y174430D01*
X87570Y174290D01*
X89080D01*
Y174410D01*
X89060Y174500D01*
X89040Y174600D01*
X89010Y174720D01*
X88960Y174860D01*
X88910Y175010D01*
X88830Y175180D01*
X88740Y175360D01*
X88620Y175550D01*
X88490Y175750D01*
X88380Y175890D01*
G37*
G36*
G01X89660Y151550D02*
Y153500D01*
X89330D01*
X88790Y152360D01*
X88240Y153500D01*
X87910D01*
Y151550D01*
X88200D01*
Y152960D01*
X88660Y151990D01*
X88900D01*
X89380Y152980D01*
Y151550D01*
X89660D01*
G37*
G36*
G01X87690Y153500D02*
X86390D01*
Y153240D01*
X86890D01*
Y151550D01*
X87190D01*
Y153240D01*
X87690D01*
Y153500D01*
G37*
G36*
G01X81650Y161090D02*
Y162690D01*
X77550D01*
Y164530D01*
X82180D01*
Y166150D01*
X75840D01*
Y157220D01*
X82400D01*
Y158740D01*
X77570D01*
Y161090D01*
X81650D01*
G37*
G36*
G01X115050Y134525D02*
X114800Y134575D01*
G02Y134625I48J25D01*
G01X114450Y134875D01*
X114250Y135275D01*
G02X114200Y135325I7J57D01*
G01X114250Y135675D01*
G02Y135725I26J25D01*
G01X114350Y136025D01*
X114550Y136275D01*
G02Y136325I37J25D01*
G01X114800Y136425D01*
X115200Y136525D01*
G03Y136575I-37J25D01*
G01X114850Y137675D01*
G03X114800I-25J-43D01*
G01X114550Y137725D01*
X112950D01*
X111550Y137875D01*
G02Y137925I127J25D01*
G01X111400Y138015D01*
G02Y138075I50J30D01*
G01X111350Y139525D01*
X111300Y145825D01*
X111004Y149853D01*
X111000Y150025D01*
X110850Y152025D01*
X110750Y153175D01*
X110650Y154125D01*
X110600Y155225D01*
X110550Y155675D01*
Y155727D01*
X110500Y155725D01*
X109900Y155775D01*
X109150Y156075D01*
X108700Y156425D01*
G02X108650Y156475I0J50D01*
G01X108550Y156675D01*
X108250Y157025D01*
X108150Y157325D01*
Y158525D01*
X108500Y159065D01*
G02Y159125I40J30D01*
G01X108650Y159325D01*
X108800Y159475D01*
G02X108850I25J-33D01*
G01X109000Y159575D01*
X109200Y159675D01*
X109450Y159775D01*
Y159825D01*
X109350Y162075D01*
X109250Y163425D01*
X109200Y163675D01*
G03X109160Y163715I-40J0D01*
G01X108600Y163575D01*
G03X108550I-25J-127D01*
G01X108510Y163465D01*
G02X108460Y163415I-60J10D01*
G01X108100Y163475D01*
G02X108050Y163525I0J50D01*
G01Y163575D01*
G03X108000I-25J-33D01*
G01X107500Y164065D01*
X107480Y164092D01*
X107400Y164024D01*
X107350Y162425D01*
G02Y162375I-38J-25D01*
G01X107150Y160625D01*
X106650Y157825D01*
G03Y157775I42J-25D01*
G01X106800Y157625D01*
G03X106860I30J50D01*
G01X107150Y157375D01*
X107350Y156875D01*
X107200Y156275D01*
G02X107150Y156225I-41J-9D01*
G01X107000Y156025D01*
G03X106950Y155975I10J-60D01*
G01X107000Y155775D01*
X107350Y154575D01*
X107900Y153025D01*
X108350Y151475D01*
G02X108400I25J-42D01*
G01Y151075D01*
G02X108350Y151025I-40J-10D01*
G01X108250Y150925D01*
G02X108210Y150875I-51J0D01*
G03X108150I-30J-50D01*
G01X108050Y150775D01*
X104400D01*
G02Y150825I25J25D01*
G03X104350Y150875I-60J-10D01*
G01X104250D01*
G02Y150925I127J25D01*
G01Y151725D01*
X104400Y152925D01*
X104800Y154525D01*
X105200Y155625D01*
X105250D01*
G03X105300Y155675I-10J60D01*
G01Y155975D01*
G03X105260Y156025I-48J3D01*
G01X105100Y156175D01*
X105010Y156325D01*
G02X105000Y156375I130J52D01*
G01Y157075D01*
X105160Y157465D01*
G02X105200Y157475I43J-85D01*
G01X105350Y157675D01*
X105910Y157925D01*
G03X105950I20J40D01*
G01X106050Y158825D01*
X106350Y160325D01*
X106600Y162925D01*
G02X106650Y162975I60J-10D01*
G03X106700Y163025I0J50D01*
G01Y165075D01*
X106701Y165154D01*
X106100Y165975D01*
X105650Y166725D01*
G02Y166765I60J20D01*
G01X105660Y167425D01*
G02Y167465I50J20D01*
G01X105750Y167665D01*
G02Y167725I50J30D01*
G01X106050Y167975D01*
X107800Y169225D01*
X109700Y170475D01*
X110910Y171225D01*
G02Y171265I50J20D01*
G01X112250Y171925D01*
X114100Y172705D01*
G02X114140Y172765I7J38D01*
G01X116850Y173475D01*
X117400D01*
X117700Y173325D01*
G02X117750I25J-26D01*
G01X118050Y172875D01*
X118350Y172325D01*
X118800Y171375D01*
X119450Y169925D01*
Y169225D01*
X119250Y168925D01*
X118950Y168675D01*
X118500Y168375D01*
G02Y168325I-53J-25D01*
G01X117850Y168075D01*
X117550Y167875D01*
G03Y167825I43J-25D01*
G01X117600Y167725D01*
X117800Y167575D01*
G03X117850I25J53D01*
G01X118250Y167275D01*
X118850Y166925D01*
X119650Y166425D01*
X120100Y166225D01*
X120800Y166275D01*
G03X120850I25J26D01*
G01X121550Y166375D01*
X122500Y166575D01*
X123350Y166675D01*
X124050Y166825D01*
X124700D01*
G02X124750I25J-48D01*
G01X124950Y166675D01*
G02X125000I25J-53D01*
G01X125200Y166525D01*
X125350Y166175D01*
X125500Y165575D01*
G03Y165525I72J-25D01*
G01X125650Y165175D01*
X125750Y164475D01*
G03Y164425I37J-25D01*
G01X125850Y164375D01*
G03X125900I25J26D01*
G01X126300Y164425D01*
X127250Y164625D01*
X127700Y164775D01*
X128200Y164975D01*
X128750Y165125D01*
G02X128800I25J-53D01*
G01X129100Y165075D01*
G02X129150I25J-53D01*
G01X129400Y164925D01*
X129650Y164725D01*
X129950Y164425D01*
X129900Y163675D01*
X129850Y163525D01*
X129000D01*
X129100Y164225D01*
G03X129050Y164275I-60J-10D01*
G01X128900Y164375D01*
G03X128850Y164425I-60J-10D01*
G01X128600D01*
X126400Y163775D01*
X124000Y163125D01*
X122150Y162625D01*
X121900D01*
G02X121850I-25J43D01*
G01X121800Y162725D01*
Y163075D01*
G02X121850Y163125I60J-10D01*
G01X122200Y163225D01*
X123350Y163575D01*
X124400Y163825D01*
G03X124450I25J48D01*
G01X125050Y164025D01*
G03X125100I25J53D01*
G01X125150Y164225D01*
G03Y164275I-26J25D01*
G01X125000Y164725D01*
X124700Y165875D01*
X124650Y166075D01*
G03X124600Y166125I-50J0D01*
G01X124350Y166175D01*
X122600Y165825D01*
X121300Y165575D01*
X120450Y165425D01*
X120000Y165375D01*
X119550Y165725D01*
X117600Y166775D01*
X116500Y167525D01*
G02X116450I-25J26D01*
G01X116150Y167825D01*
G02X116200Y167925I39J43D01*
G01X117650Y168725D01*
X118300Y169125D01*
X118650Y169325D01*
G03Y169375I-37J25D01*
G01X118700Y169825D01*
X118200Y170825D01*
X117550Y172075D01*
X117350Y172675D01*
G03X117300Y172725I-50J0D01*
G01X117050D01*
G03X117000I-25J-43D01*
G01X114950Y172225D01*
X113100Y171475D01*
X111100Y170475D01*
G03X111060I-20J-60D01*
G01X109350Y169375D01*
X106450Y167375D01*
X106350Y167175D01*
G03Y167125I127J-25D01*
G01X106400Y166875D01*
X107300Y165575D01*
X107950Y164525D01*
G03Y164475I42J-25D01*
G01X108200Y164275D01*
G03X108250Y164225I60J10D01*
G01X108460D01*
G03X108500I20J60D01*
G01X109250Y164525D01*
X109750Y164775D01*
X109900D01*
G02X109950Y164725I0J-50D01*
G01X110000Y163925D01*
X110258Y159504D01*
X110306Y159433D01*
X110450Y159375D01*
X110850Y158925D01*
G02X110810Y158875I-40J-9D01*
G01X110700Y158725D01*
X110650D01*
G03X110600Y158675I10J-60D01*
G01Y158425D01*
G02Y158375I-224J-25D01*
G01X110700Y158325D01*
G03X110750Y158275I47J-3D01*
G01X110800D01*
G02X110850Y158225I0J-50D01*
G01Y158175D01*
X110750Y158075D01*
X110650D01*
G03X110600Y158025I10J-60D01*
G01Y157725D01*
G02Y157675I-1188J-25D01*
G01X110850Y157575D01*
Y157525D01*
G02Y157465I-40J-30D01*
G01X110750Y157425D01*
X110600D01*
G02X110550I-25J50D01*
G01X110400Y157525D01*
G03X110360I-20J-60D01*
G01X110100D01*
X109900Y157625D01*
X109800Y157775D01*
Y157975D01*
X109900Y158075D01*
X110400Y158275D01*
G03X110450Y158325I0J50D01*
G01Y158525D01*
X110300Y158675D01*
G03X110250Y158725I-60J-10D01*
G01X110000Y158775D01*
G03X109950Y158725I10J-60D01*
G01X109400Y158375D01*
G03Y158325I254J-25D01*
G01X109250Y158125D01*
G02Y158075I-224J-25D01*
G01Y157625D01*
G02Y157575I-224J-25D01*
G01X109500Y157225D01*
X109900Y156975D01*
X111300D01*
X111700Y157075D01*
G03X111750I25J42D01*
G01X111799Y157463D01*
G03X111800Y157525I-39J32D01*
G01X111400Y157625D01*
G02X111350I-25J127D01*
G01Y157675D01*
X111550D01*
G03Y157725I-50J25D01*
G01X111600D01*
G02X111650Y157775I50J0D01*
G01X112500D01*
G03X112550I25J50D01*
G01X113350Y158075D01*
X114350Y158325D01*
X115750Y159075D01*
X116900Y159875D01*
X116950Y159975D01*
G02X117000Y160025I50J0D01*
G01X117150D01*
G02X117200Y159975I10J-40D01*
G01X117250Y159925D01*
G03Y159875I26J-25D01*
G01X118300Y159175D01*
X118950Y158925D01*
X119850Y158825D01*
X120350Y158975D01*
X120800Y159375D01*
X121200Y159775D01*
X121400Y160225D01*
X121650Y160575D01*
G03Y160625I-48J25D01*
G01X121800Y161025D01*
G02X121850I25J-43D01*
G01X121900D01*
X122000Y160925D01*
X122250Y160575D01*
X122800Y160125D01*
X123300Y159775D01*
G03X123350I25J37D01*
G01X123950Y159575D01*
X124500Y159475D01*
G03X124550I25J37D01*
G01X125600D01*
X126150Y159575D01*
X126750Y159775D01*
X127250Y160125D01*
X127750Y160525D01*
G03X127800I25J48D01*
G01X128150Y160975D01*
X128500Y161625D01*
G03X128550I25J37D01*
G01X128800Y162325D01*
X128950Y163025D01*
X129000Y163475D01*
X129850D01*
X129550Y162275D01*
X128900Y160975D01*
X128650Y160575D01*
X128000Y159925D01*
G03X128050Y159825I40J-43D01*
G01X128300Y159925D01*
X128600Y160025D01*
G03X128650I25J53D01*
G01X128850Y160125D01*
X129150Y160175D01*
X129400Y160275D01*
X129750Y160375D01*
X130650D01*
G02X130700I25J-53D01*
G01X130850Y160325D01*
X131050Y160175D01*
X131200Y160025D01*
X131300Y159875D01*
X131500Y159625D01*
X131450Y158125D01*
X131050Y157025D01*
X130450Y156425D01*
X130300Y156325D01*
G02X130250Y156275I-60J10D01*
G01X130000Y156175D01*
X129700Y156025D01*
X129400D01*
X129500Y156075D01*
X129550Y156225D01*
G03Y156275I-26J25D01*
G01X129500Y156425D01*
G03X129450Y156475I-60J-10D01*
G01X129000Y156375D01*
X128750Y156325D01*
X128550Y156275D01*
X128200Y156175D01*
X127600Y156025D01*
X127050Y155925D01*
X126100Y155725D01*
X125500Y155675D01*
X125050D01*
X124650Y155725D01*
X124150Y155825D01*
X123450Y156025D01*
X122950Y156225D01*
X122600Y156575D01*
X122550Y156675D01*
X122900D01*
X123400Y156775D01*
X124000Y156825D01*
X125200Y156975D01*
X125450Y157025D01*
X125600Y157075D01*
X125850Y157325D01*
X125900Y157425D01*
Y157475D01*
X125600Y157625D01*
X125500D01*
X124150Y157425D01*
X122800Y157275D01*
X122000Y157125D01*
X121750Y157025D01*
G03X121700Y156975I10J-60D01*
G01Y156675D01*
G03X121750I25J43D01*
G01X121850Y156525D01*
G03Y156475I37J-25D01*
G01X122050Y156375D01*
X122200Y156175D01*
X122500Y156025D01*
X122700Y155825D01*
X122900Y155725D01*
X123150Y155625D01*
X123500Y155525D01*
X123800Y155425D01*
X124500Y155225D01*
X125100Y155125D01*
X126050D01*
X126500Y155175D01*
X126850Y155275D01*
X127250Y155325D01*
G03X127300I25J26D01*
G01X128500Y155625D01*
X128950Y155725D01*
X129250Y155875D01*
G03X129300I25J58D01*
G01X129400Y155975D01*
X129650D01*
Y155025D01*
X129550Y154475D01*
X129350Y153675D01*
X129150Y153325D01*
Y153295D01*
X123100D01*
Y153775D01*
G02X123150Y153825I50J0D01*
G01X123800Y153875D01*
G03X123850I25J53D01*
G01Y153975D01*
G03X123900I25J43D01*
G01X123950Y154175D01*
X124000Y154275D01*
X124050Y154725D01*
G03X124000Y154775I-60J-10D01*
G01X123900Y154875D01*
G03X123850I-25J-53D01*
G01X123750D01*
G03X123700I-25J-37D01*
G01X123650D01*
G03X123600I-25J-37D01*
G01Y154825D01*
G03X123550I-25J-26D01*
G01Y154775D01*
X123500Y154725D01*
X123450Y154625D01*
Y154525D01*
G02X123400Y154475I-38J-12D01*
G01X123000D01*
X122550Y154525D01*
X122100Y154675D01*
X121200Y155125D01*
X120900Y155375D01*
X120550Y155625D01*
X120300Y155825D01*
X120100Y155975D01*
X119950Y156125D01*
G02X119900I-25J37D01*
G01Y156175D01*
G03X119850Y156225I-60J-10D01*
G01X119700D01*
G03X119650Y156175I-12J-38D01*
G01X119600D01*
X119550Y156075D01*
X119450Y156025D01*
Y155675D01*
X119438D01*
X119400Y154725D01*
G03X119450Y154675I60J10D01*
G01X119600Y154425D01*
G02X119650I25J-53D01*
G01X119700Y154125D01*
X119850Y153925D01*
X119950Y153675D01*
X120100Y153475D01*
G03X120150I25J26D01*
G01X120350Y153275D01*
G03X120360Y153265I-20J-30D01*
G01X120400Y153275D01*
X120600Y153075D01*
X120850Y152925D01*
G02X120900I25J-58D01*
G01X121050Y152775D01*
G03X121100I25J43D01*
G01X121450Y152625D01*
X121700Y152475D01*
X122350Y152425D01*
X122750Y152375D01*
G03X122800I25J53D01*
G01X123000Y152575D01*
G03X123050Y152625I-10J60D01*
G01X123100Y153245D01*
X129140D01*
X128950Y152675D01*
X128650Y151975D01*
X127750Y150545D01*
X124780D01*
X124900Y150725D01*
X125000Y151275D01*
G03X124950Y151325I-60J-10D01*
G01X124900Y151375D01*
X124800Y151675D01*
X124750Y151725D01*
G02X124700Y151775I10J60D01*
G01X124650Y151925D01*
X124200Y152375D01*
G03Y152425I-53J25D01*
G01X124000D01*
G03X123950Y152375I10J-60D01*
G01X123900Y152325D01*
G03X123850Y152275I10J-60D01*
G01Y151975D01*
G03X123900Y151925I60J10D01*
G01X124050Y151825D01*
X124100Y151625D01*
G03X124150I25J53D01*
G01X124200Y151525D01*
X124450Y151225D01*
Y151025D01*
G02X124400Y150975I-50J0D01*
G01X124350D01*
G03X124300Y150925I10J-60D01*
G01Y150875D01*
G02X124250Y150825I-60J10D01*
G02X124200Y150875I10J60D01*
G01X124050Y151175D01*
X123950Y151275D01*
X123900Y151375D01*
G03X123850I-25J-48D01*
G01X123800Y151425D01*
X123550Y151525D01*
X123450Y151675D01*
G03X123400I-25J-53D01*
G01X123200Y151775D01*
X122900Y151875D01*
X122800D01*
X122600Y151825D01*
Y151725D01*
X122550D01*
X122500Y151475D01*
X122550Y151425D01*
X122650Y151125D01*
X122850Y150825D01*
X123050Y150625D01*
X123250Y150575D01*
X123350Y150475D01*
X123600Y150375D01*
X123650Y150175D01*
X123550Y150125D01*
Y150075D01*
X123450Y150025D01*
X123400Y149925D01*
G02X123350I-25J53D01*
G01X122750D01*
G02X122700I-25J37D01*
G01X122450Y150075D01*
X122100Y150425D01*
G03X122050Y150475I-50J0D01*
G01X121800D01*
G03X121760Y150415I9J-49D01*
G02X121700Y150375I-57J21D01*
G03X121650Y150325I10J-60D01*
G01Y150125D01*
G03X121700Y150075I50J0D01*
G01Y150025D01*
G02X121750I25J-34D01*
G01X121900Y149775D01*
G03X121950I25J37D01*
G01X122200Y149575D01*
X122600Y149375D01*
X123400Y149275D01*
G03Y149325I-43J25D01*
G01X123550Y149375D01*
X123750Y149525D01*
X124050Y149775D01*
Y149825D01*
X124150Y149975D01*
X124200Y150225D01*
G02X124250Y150275I50J0D01*
G01X124500Y150325D01*
G03X124550I25J53D01*
G01Y150375D01*
X124700Y150475D01*
X124750Y150495D01*
X127710D01*
X127600Y150325D01*
X127200Y149825D01*
G02Y149775I-53J-25D01*
G01X126900Y149425D01*
X126650Y149175D01*
G02Y149125I-26J-25D01*
G01X126350Y148775D01*
X125400Y147825D01*
X125150Y147675D01*
G03Y147625I26J-25D01*
G01X125000Y147525D01*
X124850Y147325D01*
X124600Y147225D01*
G03X124550Y147175I10J-60D01*
G01X124500Y146525D01*
X124450Y146425D01*
X124350Y146375D01*
X124100D01*
X123950Y146425D01*
X123900Y146525D01*
G02X123850Y146575I10J60D01*
G01Y146725D01*
G03X123800Y146775I-38J12D01*
G01X123200Y146625D01*
X122900Y146575D01*
X122350Y146475D01*
X121500Y146375D01*
X118700Y146325D01*
X117700Y146425D01*
X116350Y146625D01*
X115800Y146775D01*
X114250Y147025D01*
X113300Y147225D01*
X112830Y147305D01*
G03X112760Y147365I-26J41D01*
G01X112400Y147375D01*
G02X112350Y147425I10J60D01*
G01Y147475D01*
G03X112300Y147525I-50J0D01*
G01X112000Y147515D01*
X111900Y147475D01*
X111950Y145125D01*
G03X112000Y145065I60J-1D01*
G02X112050Y145025I11J-38D01*
G01Y140075D01*
G03Y140025I127J-25D01*
G01X112100D01*
G02Y139975I-18J-25D01*
G01Y138525D01*
G03X112150Y138475I60J10D01*
G01X114000D01*
G02Y138425I-50J-25D01*
G01X114050Y138375D01*
G03X114100I25J42D01*
G01X115150D01*
X115500Y137875D01*
X116250Y136375D01*
Y136175D01*
G02Y136125I-53J-25D01*
G01X116150Y135975D01*
X115950Y135875D01*
X115250D01*
X115150Y135775D01*
X114950Y135725D01*
G03X114900Y135675I10J-60D01*
G01Y135475D01*
G03Y135425I53J-25D01*
G01X115000Y135325D01*
X115050Y135225D01*
G03X115100Y135175I60J10D01*
G01X115500D01*
G03X115550I25J53D01*
G01X115650Y135275D01*
X116050Y135425D01*
G03X116100I25J48D01*
G01X116250Y135575D01*
X116400Y135625D01*
G02X116450Y135675I60J-10D01*
G01X116490D01*
G03X116500Y135725I-56J37D01*
G02X116550Y135775I60J-10D01*
G01X116700D01*
G03X116760Y135815I11J48D01*
G02X116800I20J-30D01*
G01X116850Y135875D01*
G03X116910I30J40D01*
G02X116960Y135915I41J0D01*
G02X117000I20J-40D01*
G01Y135875D01*
G03X117060I30J50D01*
G01X117150D01*
G02X117200Y135825I-10J-60D01*
G01Y135775D01*
G03X117250I25J38D01*
G01X117260Y135715D01*
G02X117300Y135675I0J-40D01*
G01Y135425D01*
G03Y135375I26J-25D01*
G01X117400Y135325D01*
Y135275D01*
G03X117500I50J50D01*
G02X117550Y135325I40J10D01*
G01X118900D01*
G03X118950Y135375I-10J60D01*
G01Y135925D01*
X119150Y136075D01*
G02Y136125I43J25D01*
G01X120250D01*
G03X120300Y136175I0J50D01*
G01Y136225D01*
X120350Y136275D01*
G03X120400I25J26D01*
G01Y136425D01*
X120450D01*
G03Y136475I-37J25D01*
G01X120400Y136625D01*
X120350Y136675D01*
G03X120300Y136725I-60J-10D01*
G01X120150D01*
G03X120100Y136675I10J-60D01*
G01X120000Y136575D01*
G02X119950I-25J26D01*
G01X119850Y136525D01*
G03X119800I-25J-48D01*
G01Y136475D01*
X119700D01*
G03Y136425I53J-25D01*
G01X119650D01*
G02Y136375I-26J-25D01*
G01X119450D01*
G02X119400Y136425I0J50D01*
G03X119360Y136475I-60J-7D01*
G02X119300I-30J40D01*
G01Y136525D01*
G03X119250I-25J-43D01*
G02X119200Y136575I10J60D01*
G01Y138425D01*
G02X119250Y138475I60J-10D01*
G01X119300D01*
X119400Y138525D01*
X120500D01*
G03X120550Y138575I-20J70D01*
G02X120600Y138625I40J10D01*
G01X123100D01*
G03X123150Y138675I0J50D01*
G01X123200Y138725D01*
X124050D01*
G03X124100Y138775I0J50D01*
G01Y139275D01*
G03Y139325I-43J25D01*
G01X124050D01*
G02Y139375I26J25D01*
G01X124000Y142525D01*
G03Y142575I-43J25D01*
G01X123950Y142625D01*
G02Y142675I37J25D01*
G01X124300Y143025D01*
X124450Y143125D01*
X124550D01*
G02X124600Y143075I10J-40D01*
G01Y141875D01*
G03X124650Y141825I60J10D01*
G01X124700D01*
G02X124750Y141775I0J-50D01*
G01X124700Y138775D01*
G03X124760Y138715I61J1D01*
G02X124800Y138675I0J-40D01*
G01Y138425D01*
G02X124750Y138375I-60J10D01*
G03X124700Y138325I10J-60D01*
G01Y138175D01*
X124650Y138075D01*
G02X124600I-25J53D01*
G01X122800D01*
X122650Y137975D01*
G02X122600I-25J48D01*
G01X119950Y137925D01*
G03X119900Y137875I0J-50D01*
G01X119950Y137375D01*
G03X120000Y137325I40J-10D01*
G01X120500Y137275D01*
X120900Y137175D01*
G02X120950I25J-48D01*
G01X121100Y136875D01*
Y136275D01*
X121050Y136025D01*
G02X121000I-25J53D01*
G01X120650Y135675D01*
X120450Y135575D01*
G03X120400I-25J-53D01*
G01Y135525D01*
G02X120350Y135475I-50J0D01*
G01X119700Y135425D01*
G03X119650Y135375I10J-60D01*
G01X119600Y135075D01*
G02Y135025I-26J-25D01*
G01X119400Y134825D01*
X118800Y134775D01*
G03X118750I-25J-53D01*
G01X118700Y134725D01*
G02X118650Y134675I-60J10D01*
G01X117300D01*
G03X117250I-25J-127D01*
G01Y134625D01*
G02X117200I-25J50D01*
G01X117100D01*
G02X117060I-20J40D01*
G01X116950Y134725D01*
X116800Y134775D01*
G02X116750Y134825I0J50D01*
G01Y134925D01*
G03X116710Y134975I-48J3D01*
G03X116650I-30J-40D01*
G01X116400Y134825D01*
G02X116350I-25J38D01*
G01X116000Y134625D01*
X115650Y134525D01*
X115050D01*
G37*
G36*
G01X119238Y144694D02*
X121150Y141675D01*
G02X121100Y141625I-50J0D01*
G01X120950Y141525D01*
X120750Y141325D01*
X120400Y140975D01*
X119850Y140675D01*
X119100Y140475D01*
X118500D01*
Y139675D01*
X118950D01*
G03X119000I25J58D01*
G01X119400Y139825D01*
X120150Y140075D01*
X120650Y140325D01*
X121750Y141275D01*
X121850Y141475D01*
X121900Y141575D01*
X121850Y141925D01*
X121800Y142025D01*
G02X121850Y142125I46J40D01*
G01X122650D01*
X123100Y142325D01*
G03X123150I25J53D01*
G01X123250Y142475D01*
X123350Y142775D01*
Y143025D01*
X123300Y143275D01*
X123100Y143425D01*
G02X123110Y143465I34J13D01*
G02X123100Y143575I14J57D01*
G01X123250D01*
X123600Y143825D01*
X133600Y151525D01*
X133750Y151775D01*
Y152075D01*
G03Y152125I-48J25D01*
G01X133600Y152325D01*
G03X133550I-25J-53D01*
G01X133450Y152375D01*
G03X133400Y152425I-50J0D01*
G01X133150D01*
G03X133100Y152375I0J-50D01*
G01X122000Y143925D01*
X121750D01*
X121350Y144025D01*
X120950Y144125D01*
X120500Y144225D01*
G02X120450I-25J53D01*
G01X120200Y144425D01*
X119900Y144925D01*
X119650Y145325D01*
X119400Y145475D01*
X119050Y145425D01*
G03X119000Y145375I10J-60D01*
G01X118600Y145125D01*
X117900Y144825D01*
X117500Y144575D01*
X117150Y144425D01*
G02X117100I-25J26D01*
G01X116900D01*
X116500Y144725D01*
X116250Y144875D01*
X115750Y145175D01*
G02X115700I-25J53D01*
G01X115450Y145375D01*
X115000Y145625D01*
X114700Y145825D01*
X114400Y146075D01*
X114250Y146125D01*
X113850D01*
X113751Y146074D01*
G03X113750Y146025I117J-27D01*
G01Y145525D01*
G02X113700Y145475I-60J10D01*
G01X113650D01*
Y144975D01*
X113700Y144825D01*
Y144815D01*
G02Y144775I-30J-20D01*
G01X113750Y144125D01*
X113800Y143725D01*
X114000Y143175D01*
X114200Y142725D01*
X114450Y142275D01*
G03Y142225I58J-25D01*
G01X114700Y141975D01*
X114850Y141725D01*
X115200Y141275D01*
X115550Y140875D01*
G03X115600I25J37D01*
G01X116300Y140325D01*
G03X116350I25J26D01*
G01X116550Y140175D01*
X116950Y140025D01*
X117500Y139825D01*
X117950Y139725D01*
G03X118000Y139675I60J10D01*
G01X118450D01*
Y140475D01*
X117900D01*
G02X117850I-25J43D01*
G01X117500Y140575D01*
X117200Y140675D01*
X116700Y140925D01*
X116050Y141375D01*
X115700Y141775D01*
G02X115650I-25J48D01*
G01X115400Y142175D01*
X115100Y142625D01*
X114850Y143175D01*
X114650Y143675D01*
X114500Y144125D01*
X114400Y144675D01*
G03Y144725I-53J25D01*
G01X114350D01*
G02X114300Y144775I10J60D01*
G01Y145175D01*
G02X114400Y145225I57J11D01*
G01X114500Y145125D01*
X116800Y143675D01*
G03X116850I25J26D01*
G01X117150Y143625D01*
X119238Y144694D01*
G37*
G36*
G01X127200Y160825D02*
X127600Y161175D01*
X127800Y161475D01*
X128200Y162275D01*
X128400Y162975D01*
X128450Y163375D01*
G03Y163425I-43J25D01*
G01Y163725D01*
G03X128400Y163775I-50J0D01*
G01X126700Y163275D01*
X124900Y162825D01*
X122100Y162025D01*
Y161845D01*
X124900D01*
G02X124910Y161795I530J80D01*
G01X122100D01*
G03Y161725I36J-35D01*
G01X122700Y160975D01*
X123100Y160525D01*
G03X123150I25J53D01*
G01X123800Y160225D01*
X124500Y160025D01*
X125550D01*
X126150Y160225D01*
X126630Y160369D01*
X127200Y160825D01*
G37*
G36*
G01X117650Y160625D02*
X117600Y160425D01*
X117750Y160225D01*
X118200Y159925D01*
X118700Y159625D01*
X119150Y159475D01*
X119950Y159425D01*
X120500Y159825D01*
G03X120550I25J43D01*
G01X120900Y160375D01*
X121040Y160695D01*
X120700D01*
G02Y160745I-510J25D01*
G01X121060D01*
X121300Y161275D01*
X121350Y161625D01*
Y161725D01*
G03X121300I-25J-53D01*
G01X121100D01*
G03X121050I-25J-48D01*
G01X119850Y161425D01*
X118550Y161025D01*
X117900Y160875D01*
X117650Y160625D01*
G37*
G36*
G01X112960Y160865D02*
X112950Y160875D01*
X113150Y161225D01*
X113250Y161625D01*
X113350Y162475D01*
X112950Y163475D01*
Y163525D01*
Y163625D01*
G02X113000Y163675I64J-14D01*
G01X113650Y163925D01*
X114250Y164225D01*
X115000Y164525D01*
X115600Y164775D01*
G03Y164825I-37J25D01*
G01X115750Y164875D01*
G02Y164925I43J25D01*
G01X115950D01*
X116100Y164775D01*
X116350Y164575D01*
X116600Y164525D01*
X116650Y164475D01*
G03X116680Y164435I58J13D01*
G01Y164125D01*
X116500D01*
G03X116460Y164075I10J-49D01*
G02X116400I-30J40D01*
G01X116200Y163975D01*
X116050Y163875D01*
X115600Y163725D01*
G03X115550Y163675I10J-60D01*
G01X115500Y163625D01*
X115300Y163575D01*
G03X115250Y163525I10J-60D01*
G01Y163225D01*
G03X115300Y163175I60J10D01*
G01X115400Y163125D01*
X115450Y163075D01*
G03X115500I25J53D01*
G01X115750D01*
G03X115800I25J53D01*
G01X115850Y163125D01*
G02Y163175I53J25D01*
G01X116050Y163225D01*
G03X116100Y163275I-10J60D01*
G01X116150Y163325D01*
G02X116200I25J-43D01*
G01X116400Y163425D01*
G03X116450I25J53D01*
G01X116800Y163675D01*
G03X116850Y163725I-10J60D01*
G01Y163975D01*
G03X116800Y164025I-60J-10D01*
G01X116750D01*
G02X116760Y164075I56J15D01*
G03X116730Y164115I-58J-13D01*
G01Y164425D01*
X117350D01*
G03X117400Y164475I-10J60D01*
G01X117450D01*
X117600Y164625D01*
X117750Y164675D01*
G03X117800I25J53D01*
G01X117900Y164775D01*
G03Y164825I-53J25D01*
G01X117950Y164975D01*
X118050Y165175D01*
X118200Y165425D01*
G03Y165475I-53J25D01*
G01X118250Y165625D01*
G02X118300Y165675I60J-10D01*
G01X118450D01*
G02X118500I25J-53D01*
G01X118600Y165575D01*
G03X118650Y165525I60J10D01*
G01X118850Y165475D01*
G02X118900Y165425I-10J-60D01*
G01X118950Y165325D01*
X119100Y165275D01*
X119250Y165175D01*
G02X119300I25J-43D01*
G01Y165075D01*
G02Y165025I-53J-25D01*
G01X119100Y164925D01*
X118900Y164725D01*
X118600Y164625D01*
X118250Y164225D01*
G03X118200Y164175I10J-60D01*
G01Y164075D01*
G02Y164025I-53J-25D01*
G01X118050Y163925D01*
X117850Y163575D01*
X117750Y163325D01*
X117550Y162925D01*
G03Y162875I53J-25D01*
G01X117450Y162425D01*
X117300Y162175D01*
X117250Y162025D01*
Y161975D01*
G03Y161925I26J-25D01*
G01X117350D01*
G03X117400I25J26D01*
G01Y161975D01*
G02X117450I25J-53D01*
G01X117800Y162125D01*
X118200Y162175D01*
X118500Y162325D01*
X118950Y162375D01*
G03X119000I25J53D01*
G01X119200Y162475D01*
X119700Y162575D01*
G03X119750I25J37D01*
G01X120750Y162875D01*
X121200Y162975D01*
G02X121250I25J-53D01*
G01X121350D01*
X121500Y162775D01*
X121550Y162525D01*
G02X121500Y162475I-60J10D01*
G01X121450Y162425D01*
G02X121400I-25J43D01*
G01X121250Y162325D01*
X117750Y161375D01*
X113650Y160275D01*
X112050Y159775D01*
X112000Y159825D01*
G02X111960I-20J30D01*
G01X111950Y159875D01*
X112000Y160025D01*
X112300Y160175D01*
X112700Y160425D01*
G03X112696Y160472I-50J19D01*
G01X112950Y160675D01*
Y160825D01*
X112960D01*
G02Y160865I50J20D01*
G37*
G36*
G01X111000Y164725D02*
X110610D01*
G02X110550I-30J50D01*
G01X110350Y164925D01*
G02Y165025I40J50D01*
G01X110450Y165175D01*
X110750Y165375D01*
X115200Y167675D01*
X115550Y167725D01*
G02X115600Y167675I-10J-60D01*
G01X115800Y167425D01*
G02Y167375I-43J-25D01*
G01X115650Y167125D01*
X115600D01*
X111035Y164717D01*
G02X111000Y164725I-5J58D01*
G37*
G36*
G01X108600Y164925D02*
G02X108560I-20J40D01*
G01X108260Y165075D01*
G02X108250Y165125I87J43D01*
G01Y165215D01*
G02Y165275I40J30D01*
G01X108450Y165475D01*
X110450Y166575D01*
X113850Y168325D01*
X117600Y170175D01*
X117850D01*
G02X117900I25J-53D01*
G01X118100Y170025D01*
G02Y169975I-48J-25D01*
G01Y169725D01*
G02X118050Y169675I-50J0D01*
G01X116450Y168825D01*
X108850Y164925D01*
X108600D01*
G37*
G36*
G01X112500Y168625D02*
X112400Y168925D01*
X112300Y169025D01*
X112150Y169215D01*
G03X112100Y169225I-43J-87D01*
G01X111850Y169325D01*
X111430D01*
Y168675D01*
X111650D01*
G02X111700Y168625I0J-50D01*
G01X111750D01*
G03X111760Y168575I66J-13D01*
G01X111810D01*
G02X111860Y168525I-10J-60D01*
G02X111800Y168475I-28J-28D01*
G01X111750D01*
G03X111710Y168465I3J-95D01*
G01X111600Y168325D01*
X111550Y168225D01*
G03X111510Y168215I-6J-61D01*
G01Y168175D01*
G02X111450I-30J40D01*
G01X111000D01*
G02X110950I-25J21D01*
G01Y168225D01*
G03X110900I-25J-33D01*
G02X110850Y168265I11J65D01*
G02X110900Y168325I28J28D01*
G01X110950Y168375D01*
X111000Y168475D01*
G02X111050Y168525I60J-10D01*
G01X111100Y168575D01*
X111200Y168625D01*
G02Y168675I33J25D01*
G01X111380D01*
Y169325D01*
X111200D01*
G03X111150I-25J-127D01*
G01X110850Y169225D01*
X110550Y169025D01*
G02Y168975I-38J-25D01*
G01X110350Y168875D01*
G03Y168825I254J-25D01*
G01X110250Y168675D01*
Y168025D01*
Y167975D01*
X110500Y167725D01*
X110810Y167525D01*
G03X110850I20J30D01*
G01X111500Y167475D01*
X111800Y167575D01*
G03X111850I25J42D01*
G01X111950Y167725D01*
X112300Y167975D01*
X112400Y168175D01*
X112500Y168625D01*
G37*
G36*
G01X172630Y60079D02*
X175630D01*
Y66079D01*
X172630D01*
Y60079D01*
G37*
G36*
G01X186007Y54874D02*
G02I-1500J0D01*
G37*
G36*
G01X242074Y-5575D02*
X242075Y575D01*
X245075D01*
Y-5575D01*
X242074D01*
G37*
G36*
G01X278050Y500D02*
X275050D01*
Y-5500D01*
X278050D01*
Y500D01*
G37*
G36*
G01X258574Y-5575D02*
X258575Y575D01*
X261575D01*
Y-5575D01*
X258574D01*
G37*
G36*
G01X294550Y500D02*
X291550D01*
Y-5500D01*
X294550D01*
Y500D01*
G37*
%LPC*%
G75*
G36*
G01X16350Y150940D02*
X15280D01*
X15840Y152670D01*
X16350Y150940D01*
G37*
G36*
G01X29770Y149969D02*
X28669D01*
Y152971D01*
X29670D01*
X29820Y152951D01*
X29910Y152941D01*
X29940Y152931D01*
X30000Y152901D01*
X30051Y152871D01*
X30091Y152841D01*
X30141Y152781D01*
X30171Y152751D01*
X30251Y152620D01*
X30291Y152340D01*
Y152290D01*
X30311Y152040D01*
Y150890D01*
X30301Y150800D01*
Y150720D01*
X30291Y150610D01*
X30261Y150390D01*
X30241Y150310D01*
X30211Y150249D01*
X30161Y150179D01*
X30131Y150129D01*
X30091Y150089D01*
X30010Y150039D01*
X29970Y150019D01*
X29860Y149979D01*
X29770Y149969D01*
G37*
G36*
G01X34850Y152990D02*
X35139Y152915D01*
X35162Y152909D01*
X35283Y152806D01*
X35290Y152800D01*
X35350Y152740D01*
X35390Y152690D01*
X35461Y152475D01*
X35490Y152330D01*
Y152249D01*
X35496Y152184D01*
X35500Y152139D01*
X35510Y152030D01*
Y151919D01*
X35517Y151842D01*
X35520Y151810D01*
Y151190D01*
X35510Y150968D01*
Y150958D01*
X35508Y150924D01*
X35500Y150820D01*
Y150730D01*
X35485Y150600D01*
X35470Y150480D01*
X35450Y150410D01*
X35430Y150352D01*
X35420Y150330D01*
X35398Y150264D01*
X35350Y150200D01*
X35310Y150140D01*
X35260Y150090D01*
X35090Y150000D01*
X34910Y149960D01*
X34770Y149940D01*
X34480D01*
X34370Y149950D01*
X34250Y149970D01*
X34150Y150000D01*
X34070Y150040D01*
X33940Y150130D01*
X33872Y150198D01*
X33861Y150221D01*
X33847Y150250D01*
X33800Y150330D01*
X33770Y150450D01*
X33740Y150620D01*
X33710Y150910D01*
Y152030D01*
X33750Y152390D01*
X33780Y152520D01*
X33870Y152740D01*
X33920Y152790D01*
X34043Y152894D01*
X34049Y152899D01*
X34133Y152925D01*
X34150Y152931D01*
X34220Y152960D01*
X34320Y152980D01*
X34404Y152992D01*
X34452Y152999D01*
X34460Y153000D01*
X34740D01*
X34850Y152990D01*
G37*
G36*
G01X26500Y150940D02*
X25430D01*
X25990Y152670D01*
X26500Y150940D01*
G37*
G36*
G01X44940Y158609D02*
X43419D01*
Y164641D01*
X44830D01*
X45060Y164631D01*
X45280Y164601D01*
X45480Y164551D01*
X45670Y164491D01*
X45840Y164401D01*
X46001Y164311D01*
X46181Y164181D01*
X46351Y164041D01*
X46491Y163881D01*
X46631Y163701D01*
X46741Y163520D01*
X46871Y163270D01*
X46971Y163030D01*
X47061Y162780D01*
X47171Y162290D01*
X47201Y162050D01*
X47221Y161830D01*
X47231Y161620D01*
Y161330D01*
X47211Y161040D01*
X47181Y160730D01*
X47141Y160500D01*
X47091Y160270D01*
X47021Y160050D01*
X46941Y159830D01*
X46841Y159630D01*
X46741Y159459D01*
X46621Y159299D01*
X46471Y159149D01*
X46321Y159019D01*
X46151Y158899D01*
X45990Y158819D01*
X45810Y158739D01*
X45610Y158689D01*
X45400Y158649D01*
X45180Y158619D01*
X44940Y158609D01*
G37*
G36*
G01X46714Y172007D02*
X46721Y171984D01*
X46724Y171974D01*
X46727Y171963D01*
X46732Y171943D01*
X46735Y171929D01*
X46737Y171919D01*
X46740Y171903D01*
X46743Y171884D01*
X46746Y171860D01*
X46747Y171849D01*
X46748Y171839D01*
X46749Y171823D01*
X46750Y171796D01*
Y171430D01*
X44520D01*
X44590Y171990D01*
X45600Y175250D01*
X46712Y172013D01*
X46714Y172007D01*
G37*
G36*
G01X34940Y166900D02*
X22450Y159550D01*
Y173930D01*
X34940Y166900D01*
G37*
G36*
G01X63920Y152360D02*
X63930Y152190D01*
Y152100D01*
X63890Y151910D01*
X63845Y151810D01*
X63830Y151780D01*
X63780Y151700D01*
X63750Y151660D01*
X63660Y151570D01*
X63580Y151510D01*
X63430Y151460D01*
X63421Y151458D01*
X63300Y151430D01*
X63160Y151410D01*
X62440D01*
Y152970D01*
X63310D01*
X63390Y152960D01*
X63440Y152950D01*
X63546Y152914D01*
X63558Y152910D01*
X63570Y152900D01*
X63670Y152820D01*
X63770Y152730D01*
X63780Y152710D01*
X63820Y152640D01*
X63860Y152560D01*
X63920Y152360D01*
G37*
G36*
G01X66870Y152990D02*
X67159Y152915D01*
X67182Y152909D01*
X67303Y152806D01*
X67310Y152800D01*
X67370Y152740D01*
X67410Y152690D01*
X67481Y152475D01*
X67510Y152330D01*
Y152249D01*
X67516Y152184D01*
X67520Y152139D01*
X67530Y152030D01*
Y151919D01*
X67537Y151842D01*
X67540Y151810D01*
Y151190D01*
X67530Y150968D01*
Y150958D01*
X67528Y150924D01*
X67520Y150820D01*
Y150730D01*
X67505Y150600D01*
X67490Y150480D01*
X67470Y150410D01*
X67450Y150352D01*
X67440Y150330D01*
X67418Y150264D01*
X67370Y150200D01*
X67330Y150140D01*
X67280Y150090D01*
X67110Y150000D01*
X66930Y149960D01*
X66790Y149940D01*
X66500D01*
X66390Y149950D01*
X66270Y149970D01*
X66170Y150000D01*
X66090Y150040D01*
X65960Y150130D01*
X65892Y150198D01*
X65881Y150221D01*
X65867Y150250D01*
X65820Y150330D01*
X65790Y150450D01*
X65760Y150620D01*
X65730Y150910D01*
Y152030D01*
X65770Y152390D01*
X65800Y152520D01*
X65890Y152740D01*
X65940Y152790D01*
X66063Y152894D01*
X66069Y152899D01*
X66153Y152925D01*
X66170Y152931D01*
X66240Y152960D01*
X66340Y152980D01*
X66424Y152992D01*
X66472Y152999D01*
X66480Y153000D01*
X66760D01*
X66870Y152990D01*
G37*
G36*
G01X51920Y150940D02*
X50850D01*
X51410Y152670D01*
X51920Y150940D01*
G37*
G36*
G01X63074Y172007D02*
X63081Y171984D01*
X63084Y171974D01*
X63087Y171963D01*
X63092Y171943D01*
X63095Y171929D01*
X63097Y171919D01*
X63100Y171903D01*
X63103Y171884D01*
X63106Y171860D01*
X63107Y171849D01*
X63108Y171839D01*
X63109Y171823D01*
X63110Y171796D01*
Y171430D01*
X60880D01*
X60950Y171990D01*
X61960Y175250D01*
X63072Y172013D01*
X63074Y172007D01*
G37*
G36*
G01X78810Y149970D02*
X77760D01*
Y151200D01*
X78810D01*
X78910Y151190D01*
X79030Y151160D01*
X79120Y151120D01*
X79210Y151040D01*
X79270Y150970D01*
X79320Y150850D01*
X79340Y150790D01*
X79360Y150710D01*
X79370Y150620D01*
Y150600D01*
X79360Y150510D01*
X79330Y150380D01*
X79280Y150280D01*
X79220Y150180D01*
X79170Y150120D01*
X79100Y150070D01*
X79050Y150040D01*
X78940Y149990D01*
X78810Y149970D01*
G37*
G36*
G01X78730Y151730D02*
X77760D01*
Y152970D01*
X78580D01*
X78730Y152960D01*
X78960Y152910D01*
X79040Y152870D01*
X79120Y152820D01*
X79190Y152750D01*
X79250Y152650D01*
X79280Y152560D01*
X79300Y152450D01*
Y152334D01*
X79294Y152265D01*
X79289Y152211D01*
X79280Y152140D01*
X79274Y152129D01*
X79230Y152050D01*
X79160Y151960D01*
X79040Y151840D01*
X78979Y151808D01*
X78950Y151790D01*
X78840Y151750D01*
X78730Y151730D01*
G37*
G36*
G01X77110Y175661D02*
X77290Y175601D01*
X77460Y175521D01*
X77661Y175411D01*
X77851Y175271D01*
X78031Y175121D01*
X78181Y174941D01*
X78331Y174751D01*
X78471Y174530D01*
X78591Y174280D01*
X78701Y174030D01*
X78781Y173760D01*
X78851Y173470D01*
X78891Y173190D01*
X78911Y172970D01*
X78921Y172900D01*
X78931Y172620D01*
X78921Y172330D01*
X78891Y172030D01*
X78841Y171750D01*
X78771Y171470D01*
X78691Y171210D01*
X78581Y170950D01*
X78451Y170709D01*
X78301Y170479D01*
X78161Y170309D01*
X78001Y170139D01*
X77821Y169989D01*
X77641Y169849D01*
X77470Y169759D01*
X77280Y169679D01*
X77090Y169609D01*
X76880Y169559D01*
X76670Y169529D01*
X76230D01*
X76030Y169559D01*
X75840Y169609D01*
X75650Y169669D01*
X75480Y169739D01*
X75279Y169849D01*
X75089Y169999D01*
X74919Y170149D01*
X74759Y170319D01*
X74619Y170509D01*
X74479Y170740D01*
X74349Y170980D01*
X74249Y171250D01*
X74179Y171510D01*
X74109Y171790D01*
X74059Y172070D01*
X74039Y172360D01*
Y172660D01*
X74049Y172970D01*
X74079Y173240D01*
X74139Y173520D01*
X74199Y173790D01*
X74289Y174070D01*
X74399Y174320D01*
X74529Y174560D01*
X74669Y174791D01*
X74819Y174971D01*
X74979Y175141D01*
X75139Y175291D01*
X75329Y175421D01*
X75500Y175521D01*
X75680Y175601D01*
X75870Y175661D01*
X76070Y175711D01*
X76280Y175741D01*
X76510Y175751D01*
X76710Y175741D01*
X77110Y175661D01*
G37*
G36*
G01X107040Y151225D02*
X106900D01*
X106750Y151275D01*
G02X106710I-20J40D01*
G01X106700Y151325D01*
X106650Y151315D01*
G02Y151375I50J30D01*
G01X106600Y151775D01*
G03Y151815I-30J20D01*
G01X106550D01*
G02Y151875I50J30D01*
G01X106500Y152725D01*
G03Y152765I-30J20D01*
G01X106450Y152825D01*
Y153825D01*
G02X106350I-50J0D01*
G01X106360Y154565D01*
G02X106400Y154575I43J-85D01*
G01X106450Y154625D01*
X106460Y154665D01*
G02X106500Y154675I34J-51D01*
G01X106750Y154725D01*
G02X106800Y154675I-10J-60D01*
G03X106850Y154625I50J0D01*
G01X106900D01*
G02X106950Y154575I-10J-60D01*
G01Y153925D01*
G03Y153865I50J-30D01*
G01X107000Y153825D01*
G02X107050Y153815I7J-97D01*
G01Y152875D01*
X107100Y152825D01*
X107150Y152075D01*
G03X107160Y152025I66J-13D01*
G01X107200D01*
G02Y151965I-50J-30D01*
G01Y151375D01*
X107050Y151275D01*
G02X107040Y151225I-66J-13D01*
G37*
G36*
G01X105400Y151275D02*
X105300Y151225D01*
G02X105260I-20J50D01*
G01X105110Y151275D01*
G02X105100Y151325I87J43D01*
G01X105000Y151425D01*
X105100Y152025D01*
X105250Y152775D01*
Y154175D01*
G02X105300Y154225I60J-10D01*
G01X105350Y154325D01*
G03Y154365I-30J20D01*
G01X105450Y154675D01*
G02X105500Y154725I60J-10D01*
G01X105810D01*
G02X105860Y154675I-10J-60D01*
G01X105900Y154625D01*
G02Y154575I-42J-25D01*
G01Y154275D01*
X105850Y154125D01*
X105750Y152725D01*
X105600Y151875D01*
X105550Y151425D01*
G02X105500I-25J50D01*
G01X105450Y151325D01*
X105400Y151275D01*
G37*
%LPD*%
G75*
G36*
G01X64960Y157250D02*
Y166130D01*
X66870D01*
Y157250D01*
X64960D01*
G37*
G36*
G01X75710Y149450D02*
Y153500D01*
X76330D01*
Y149450D01*
X75710D01*
G37*
G54D10*
G01X-13000Y-22500D02*
Y12500D01*
G01X-23000Y-12500D02*
X12000D01*
G01X-13000Y212500D02*
Y177500D01*
G01X-23000Y202500D02*
X12000D01*
G01X372500Y-12500D02*
X337500D01*
G01X372500Y202500D02*
X337500D01*
G01X362500Y-22500D02*
Y12500D01*
G01Y212500D02*
Y177500D01*
G54D11*
G01X243588Y148591D02*
Y155391D01*
G01X237188Y152191D02*
X243588Y148591D01*
G01Y155391D02*
X237188Y152191D01*
G54D12*
G01X243588Y148591D02*
X237188Y152191D01*
G01X243588Y155391D02*
Y148591D01*
G01X242388Y152191D02*
X238788D01*
G01X237188D02*
X243588Y155391D01*
G54D13*
G01X15189Y9890D02*
X40811D01*
G01X15189Y6650D02*
Y9890D01*
G01X12313Y6650D02*
X15189D01*
G01X12313Y-2650D02*
Y6650D01*
G01X15189Y-2650D02*
X12313D01*
G01X15189Y-5890D02*
Y-2650D01*
G01X40811Y-5890D02*
X15189D01*
G01X3500Y53050D02*
Y39950D01*
X-2500D01*
Y53050D01*
X3500D01*
G01X16060Y50801D02*
X15791D01*
Y59199D01*
X16060D01*
G01X7200Y84650D02*
X22800D01*
Y75350D01*
X7200D01*
Y84650D01*
G01Y94650D02*
X22800D01*
Y85350D01*
X7200D01*
Y94650D01*
G01X8010Y126000D02*
X2510Y120500D01*
Y102500D01*
X8010Y97000D01*
X14550D01*
Y98700D01*
X19450D01*
Y97000D01*
X25990D01*
X31490Y102500D01*
Y120500D01*
X25990Y126000D01*
X19450D01*
Y124300D01*
X14550D01*
Y126000D01*
X8010D01*
G01X15517Y140500D02*
X12983D01*
Y145500D01*
X15517D01*
G01X14503Y143083D02*
X12983D01*
G01X17767Y145500D02*
X19350Y140500D01*
X20933Y145500D01*
G01X22867Y140500D02*
X24450Y145500D01*
X26033Y140500D01*
G01X25463Y142250D02*
X23437D01*
G01X28283Y145500D02*
Y140500D01*
X30817D01*
G01X33827Y142167D02*
X35473D01*
G01X41143Y145083D02*
X40763Y145333D01*
X40320Y145500D01*
X39813D01*
X39243Y145250D01*
X38800Y144833D01*
X38483Y144333D01*
X38230Y143500D01*
X38167Y142750D01*
X38293Y142000D01*
X38483Y141500D01*
X38863Y141000D01*
X39307Y140667D01*
X39750Y140500D01*
X40193D01*
X40637Y140667D01*
X41017Y140917D01*
X41333Y141250D01*
G01X43393Y140500D02*
Y145500D01*
X46307Y140500D01*
Y145500D01*
G01X49950D02*
X49443Y145333D01*
X49063Y144917D01*
X48810Y144417D01*
X48620Y143750D01*
X48557Y143000D01*
X48620Y142250D01*
X48810Y141583D01*
X49063Y141083D01*
X49443Y140667D01*
X49950Y140500D01*
X50457Y140667D01*
X50837Y141083D01*
X51090Y141583D01*
X51280Y142250D01*
X51343Y143000D01*
X51280Y143750D01*
X51090Y144417D01*
X50837Y144917D01*
X50457Y145333D01*
X49950Y145500D01*
G01X53657Y141250D02*
X54037Y140833D01*
X54480Y140583D01*
X55050Y140500D01*
X55620Y140667D01*
X56063Y141000D01*
X56380Y141583D01*
X56443Y142250D01*
X56317Y142917D01*
X56000Y143333D01*
X55557Y143667D01*
X55113Y143750D01*
X54670Y143667D01*
X54100Y143333D01*
X54290Y145500D01*
X56000D01*
G01X58757Y141500D02*
X59137Y140917D01*
X59643Y140583D01*
X60213Y140500D01*
X60720Y140583D01*
X61227Y141000D01*
X61543Y141500D01*
X61607Y142000D01*
X61480Y142583D01*
X61037Y143000D01*
X60593Y143167D01*
X60023D01*
G01X60593D02*
X60973Y143417D01*
X61290Y143833D01*
X61417Y144333D01*
X61290Y144833D01*
X60973Y145250D01*
X60403Y145500D01*
X59833Y145417D01*
X59263Y145083D01*
G01X64047Y142583D02*
X64490Y143167D01*
X64870Y143500D01*
X65377Y143667D01*
X65820Y143500D01*
X66137Y143167D01*
X66390Y142667D01*
X66453Y142083D01*
X66390Y141583D01*
X66137Y141083D01*
X65757Y140667D01*
X65313Y140500D01*
X64807Y140667D01*
X64363Y141167D01*
X64110Y141917D01*
X64047Y142750D01*
X64173Y143833D01*
X64363Y144417D01*
X64680Y145000D01*
X65123Y145417D01*
X65567Y145500D01*
X66010Y145333D01*
X66327Y144917D01*
G01X69527Y142167D02*
X71173D01*
G01X73867Y140500D02*
X75450Y145500D01*
X77033Y140500D01*
G01X76463Y142250D02*
X74437D01*
G01X79283Y140500D02*
Y145500D01*
X80867D01*
X81373Y145250D01*
X81690Y144917D01*
X81817Y144250D01*
X81690Y143583D01*
X81310Y143167D01*
X80867Y142917D01*
X79283D01*
G01X80867D02*
X81817Y140500D01*
G01X84257D02*
Y145500D01*
X85523D01*
X86030Y145250D01*
X86410Y144917D01*
X86727Y144417D01*
X86980Y143833D01*
X87043Y143000D01*
X86980Y142167D01*
X86727Y141583D01*
X86410Y141083D01*
X86030Y140750D01*
X85523Y140500D01*
X84257D01*
G01X89547Y145500D02*
X91953D01*
X89547Y140500D01*
X91953D01*
G01X5417Y134000D02*
X2883D01*
Y139000D01*
X5417D01*
G01X4403Y136583D02*
X2883D01*
G01X7667Y139000D02*
X9250Y134000D01*
X10833Y139000D01*
G01X12767Y134000D02*
X14350Y139000D01*
X15933Y134000D01*
G01X15363Y135750D02*
X13337D01*
G01X18183Y139000D02*
Y134000D01*
X20717D01*
G01X23157Y139000D02*
Y135417D01*
X23410Y134667D01*
X23917Y134167D01*
X24550Y134000D01*
X25183Y134167D01*
X25690Y134667D01*
X25943Y135417D01*
Y139000D01*
G01X28067Y134000D02*
X29650Y139000D01*
X31233Y134000D01*
G01X30663Y135750D02*
X28637D01*
G01X34750Y139000D02*
Y134000D01*
G01X33293Y139000D02*
X36207D01*
G01X39090D02*
X40610D01*
G01X39850D02*
Y134000D01*
G01X39090D02*
X40610D01*
G01X44950D02*
X44443Y134083D01*
X44000Y134417D01*
X43620Y134917D01*
X43367Y135500D01*
X43240Y136167D01*
Y136833D01*
X43367Y137500D01*
X43620Y138083D01*
X44000Y138583D01*
X44443Y138917D01*
X44950Y139000D01*
X45457Y138917D01*
X45900Y138583D01*
X46280Y138083D01*
X46533Y137500D01*
X46660Y136833D01*
Y136167D01*
X46533Y135500D01*
X46280Y134917D01*
X45900Y134417D01*
X45457Y134083D01*
X44950Y134000D01*
G01X48593D02*
Y139000D01*
X51507Y134000D01*
Y139000D01*
G01X60757Y136667D02*
X61010Y136917D01*
X61200Y137333D01*
X61327Y137917D01*
X61200Y138417D01*
X60947Y138750D01*
X60503Y139000D01*
X58793D01*
Y134000D01*
X60883D01*
X61327Y134333D01*
X61580Y134833D01*
X61707Y135417D01*
X61580Y136000D01*
X61200Y136500D01*
X60757Y136667D01*
X58793D01*
G01X65350Y134000D02*
X64843Y134083D01*
X64400Y134417D01*
X64020Y134917D01*
X63767Y135500D01*
X63640Y136167D01*
Y136833D01*
X63767Y137500D01*
X64020Y138083D01*
X64400Y138583D01*
X64843Y138917D01*
X65350Y139000D01*
X65857Y138917D01*
X66300Y138583D01*
X66680Y138083D01*
X66933Y137500D01*
X67060Y136833D01*
Y136167D01*
X66933Y135500D01*
X66680Y134917D01*
X66300Y134417D01*
X65857Y134083D01*
X65350Y134000D01*
G01X68867D02*
X70450Y139000D01*
X72033Y134000D01*
G01X71463Y135750D02*
X69437D01*
G01X74283Y134000D02*
Y139000D01*
X75867D01*
X76373Y138750D01*
X76690Y138417D01*
X76817Y137750D01*
X76690Y137083D01*
X76310Y136667D01*
X75867Y136417D01*
X74283D01*
G01X75867D02*
X76817Y134000D01*
G01X79257D02*
Y139000D01*
X80523D01*
X81030Y138750D01*
X81410Y138417D01*
X81727Y137917D01*
X81980Y137333D01*
X82043Y136500D01*
X81980Y135667D01*
X81727Y135083D01*
X81410Y134583D01*
X81030Y134250D01*
X80523Y134000D01*
X79257D01*
G01X89647Y139000D02*
X92053D01*
X89647Y134000D01*
X92053D01*
G01X12000Y195750D02*
X116000D01*
Y184250D01*
X12000D01*
Y195750D01*
G01X21898Y12100D02*
Y12091D01*
X23039Y10949D01*
X35315D01*
Y12100D01*
G01X40811Y-2650D02*
Y-5890D01*
G01X43687Y-2650D02*
X40811D01*
G01Y6650D02*
X43687D01*
G01X40811Y9890D02*
Y6650D01*
G01X21898Y17900D02*
Y17909D01*
X23039Y19051D01*
X35315D01*
Y17900D01*
G01X36102Y27400D02*
Y27409D01*
X34961Y28551D01*
X22685D01*
Y27400D01*
G01X36102Y21600D02*
Y21591D01*
X34961Y20449D01*
X22685D01*
Y21600D01*
G01X28940Y59199D02*
X29209D01*
Y50801D01*
X28940D01*
G01X32313Y61289D02*
Y66211D01*
G01X40187D02*
Y61289D01*
G01X31240Y83200D02*
Y79260D01*
X38760D01*
Y79500D01*
G01X31240Y89300D02*
Y93240D01*
X38760D01*
Y93000D01*
G01Y85600D02*
Y86900D01*
G01X48000Y5750D02*
X132000D01*
Y-5750D01*
X48000D01*
Y5750D01*
G01X64343Y8010D02*
Y7260D01*
X71343D01*
X73343Y9260D01*
X75343Y7260D01*
X82343D01*
Y8010D01*
G01X43687Y6650D02*
Y-2650D01*
G01X64343Y28510D02*
Y29260D01*
X82343D01*
Y28510D01*
G01X48350Y52071D02*
Y47741D01*
G01X54650Y52071D02*
Y47741D01*
G01X62956Y105500D02*
X59456D01*
Y97500D01*
G01X64391Y84600D02*
X68721D01*
G01X64391Y90900D02*
X68721D01*
G01X52556Y90648D02*
X52565D01*
X53707Y91789D01*
Y104065D01*
X52556D01*
G01X46756Y90648D02*
X46747D01*
X45605Y91789D01*
Y104065D01*
X46756D01*
G01X69956Y105500D02*
X73456D01*
Y97500D01*
G01X54441Y110350D02*
X58771D01*
G01X54441Y116650D02*
X58771D01*
G01X82094Y31561D02*
Y30594D01*
X95906D01*
Y31561D01*
G01Y43439D02*
Y44406D01*
X82094D01*
Y43439D01*
G01X82656Y105500D02*
X79156D01*
Y97500D01*
G01X89656Y105500D02*
X93156D01*
Y97500D01*
G01X83991Y84600D02*
X88321D01*
G01X83991Y90900D02*
X88321D01*
G01X74241Y110350D02*
X78571D01*
G01X74241Y116650D02*
X78571D01*
G01X93991Y110350D02*
X98321D01*
G01X93991Y116650D02*
X98321D01*
G01X76375Y286083D02*
X77375Y285250D01*
X78500Y284750D01*
X79500D01*
X80500Y285250D01*
X81250Y286083D01*
X81625Y287250D01*
X81375Y288416D01*
X80750Y289417D01*
X79625Y290083D01*
X78125Y290417D01*
X77250Y291083D01*
X76875Y292250D01*
X77125Y293417D01*
X77750Y294250D01*
X78625Y294750D01*
X79500D01*
X80375Y294417D01*
X81125Y293583D01*
G01X87500Y294750D02*
X90500D01*
G01X89000D02*
Y284750D01*
G01X87500D02*
X90500D01*
G01X96500Y294750D02*
Y284750D01*
X101500D01*
G01X106250D02*
Y294750D01*
G01X111000D02*
X106250Y288583D01*
G01X111750Y284750D02*
X108375Y291416D01*
G01X116375Y286083D02*
X117375Y285250D01*
X118500Y284750D01*
X119500D01*
X120500Y285250D01*
X121250Y286083D01*
X121625Y287250D01*
X121375Y288416D01*
X120750Y289417D01*
X119625Y290083D01*
X118125Y290417D01*
X117250Y291083D01*
X116875Y292250D01*
X117125Y293417D01*
X117750Y294250D01*
X118625Y294750D01*
X119500D01*
X120375Y294417D01*
X121125Y293583D01*
G01X131750Y293917D02*
X131000Y294417D01*
X130125Y294750D01*
X129125D01*
X128000Y294250D01*
X127125Y293417D01*
X126500Y292417D01*
X126000Y290750D01*
X125875Y289250D01*
X126125Y287750D01*
X126500Y286750D01*
X127250Y285750D01*
X128125Y285083D01*
X129000Y284750D01*
X129875D01*
X130750Y285083D01*
X131500Y285583D01*
X132125Y286250D01*
G01X136500Y284750D02*
Y294750D01*
X139625D01*
X140625Y294250D01*
X141250Y293583D01*
X141500Y292250D01*
X141250Y290917D01*
X140500Y290083D01*
X139625Y289583D01*
X136500D01*
G01X139625D02*
X141500Y284750D01*
G01X151500D02*
X146500D01*
Y294750D01*
X151500D01*
G01X149500Y289917D02*
X146500D01*
G01X161500Y284750D02*
X156500D01*
Y294750D01*
X161500D01*
G01X159500Y289917D02*
X156500D01*
G01X166125Y284750D02*
Y294750D01*
X171875Y284750D01*
Y294750D01*
G01X186500Y284750D02*
Y294750D01*
X189500D01*
X190500Y294250D01*
X191250Y293083D01*
X191500Y291750D01*
X191250Y290417D01*
X190625Y289417D01*
X189500Y288916D01*
X186500D01*
G01X196500Y284750D02*
Y294750D01*
X199625D01*
X200625Y294250D01*
X201250Y293583D01*
X201500Y292250D01*
X201250Y290917D01*
X200500Y290083D01*
X199625Y289583D01*
X196500D01*
G01X199625D02*
X201500Y284750D01*
G01X207500Y294750D02*
X210500D01*
G01X209000D02*
Y284750D01*
G01X207500D02*
X210500D01*
G01X215750D02*
Y294750D01*
X219000Y286417D01*
X222250Y294750D01*
Y284750D01*
G01X225875D02*
X229000Y294750D01*
X232125Y284750D01*
G01X231000Y288250D02*
X227000D01*
G01X236500Y284750D02*
Y294750D01*
X239625D01*
X240625Y294250D01*
X241250Y293583D01*
X241500Y292250D01*
X241250Y290917D01*
X240500Y290083D01*
X239625Y289583D01*
X236500D01*
G01X239625D02*
X241500Y284750D01*
G01X249000D02*
Y289250D01*
X246500Y294750D01*
G01X251500D02*
X249000Y289250D01*
G01X122056Y105500D02*
X118556D01*
Y97500D01*
G01X102356Y105500D02*
X98856D01*
Y97500D01*
G01X109356Y105500D02*
X112856D01*
Y97500D01*
G01X123403Y84600D02*
X127733D01*
G01X123403Y90900D02*
X127733D01*
G01X103691Y84600D02*
X108021D01*
G01X103691Y90900D02*
X108021D01*
G01X113741Y110350D02*
X118071D01*
G01X113741Y116650D02*
X118071D01*
G01X118000Y195750D02*
X202000D01*
Y184250D01*
X118000D01*
Y195750D01*
G01X109000Y274750D02*
X108000Y274417D01*
X107250Y273583D01*
X106750Y272583D01*
X106375Y271250D01*
X106250Y269750D01*
X106375Y268250D01*
X106750Y266917D01*
X107250Y265916D01*
X108000Y265083D01*
X109000Y264750D01*
X110000Y265083D01*
X110750Y265916D01*
X111250Y266917D01*
X111625Y268250D01*
X111750Y269750D01*
X111625Y271250D01*
X111250Y272583D01*
X110750Y273583D01*
X110000Y274417D01*
X109000Y274750D01*
G01X119000Y264750D02*
X119875Y264917D01*
X120875Y265417D01*
X121500Y266250D01*
X121750Y267417D01*
X121500Y268583D01*
X120750Y269583D01*
X119625Y270083D01*
X118375D01*
X117625Y270417D01*
X117000Y271250D01*
X116750Y272417D01*
X117125Y273583D01*
X118000Y274417D01*
X119000Y274750D01*
X120000Y274417D01*
X120875Y273583D01*
X121250Y272417D01*
X121000Y271250D01*
X120375Y270417D01*
X119625Y270083D01*
X118375D01*
X117250Y269583D01*
X116500Y268583D01*
X116250Y267417D01*
X116500Y266250D01*
X117125Y265417D01*
X118125Y264917D01*
X119000Y264750D01*
G01X127375Y268083D02*
X130625D01*
G01X197375D02*
X200625D01*
G01X209000Y274750D02*
X208000Y274417D01*
X207250Y273583D01*
X206750Y272583D01*
X206375Y271250D01*
X206250Y269750D01*
X206375Y268250D01*
X206750Y266917D01*
X207250Y265916D01*
X208000Y265083D01*
X209000Y264750D01*
X210000Y265083D01*
X210750Y265916D01*
X211250Y266917D01*
X211625Y268250D01*
X211750Y269750D01*
X211625Y271250D01*
X211250Y272583D01*
X210750Y273583D01*
X210000Y274417D01*
X209000Y274750D01*
G01X216250Y266750D02*
X217000Y265583D01*
X218000Y264917D01*
X219125Y264750D01*
X220125Y264917D01*
X221125Y265750D01*
X221750Y266750D01*
X221875Y267750D01*
X221625Y268916D01*
X220750Y269750D01*
X219875Y270083D01*
X218750D01*
G01X219875D02*
X220625Y270583D01*
X221250Y271416D01*
X221500Y272417D01*
X221250Y273417D01*
X220625Y274250D01*
X219500Y274750D01*
X218375Y274583D01*
X217250Y273917D01*
G01X138000Y17200D02*
X141500D01*
Y25200D01*
G01X131000Y17200D02*
X127500D01*
Y25200D01*
G01X146500Y17200D02*
X143000D01*
Y25200D01*
G01X138000Y5750D02*
X202000D01*
Y-5750D01*
X138000D01*
Y5750D01*
G01X138075Y31008D02*
Y58992D01*
X167594D01*
Y31008D01*
X138075D01*
G01X141756Y105500D02*
X138256D01*
Y97500D01*
G01X129056Y105500D02*
X132556D01*
Y97500D01*
G01X143091Y84600D02*
X147421D01*
G01X143091Y90900D02*
X147421D01*
G01X148756Y105500D02*
X152256D01*
Y97500D01*
G01X133491Y110350D02*
X137821D01*
G01X133491Y116650D02*
X137821D01*
G01X143200Y157000D02*
X142693Y156833D01*
X142313Y156417D01*
X142060Y155917D01*
X141870Y155250D01*
X141807Y154500D01*
X141870Y153750D01*
X142060Y153083D01*
X142313Y152583D01*
X142693Y152167D01*
X143200Y152000D01*
X143707Y152167D01*
X144087Y152583D01*
X144340Y153083D01*
X144530Y153750D01*
X144593Y154500D01*
X144530Y155250D01*
X144340Y155917D01*
X144087Y156417D01*
X143707Y156833D01*
X143200Y157000D01*
G01X148300Y152000D02*
X148743Y152083D01*
X149250Y152333D01*
X149567Y152750D01*
X149693Y153333D01*
X149567Y153917D01*
X149187Y154417D01*
X148617Y154667D01*
X147983D01*
X147603Y154833D01*
X147287Y155250D01*
X147160Y155833D01*
X147350Y156417D01*
X147793Y156833D01*
X148300Y157000D01*
X148807Y156833D01*
X149250Y156417D01*
X149440Y155833D01*
X149313Y155250D01*
X148997Y154833D01*
X148617Y154667D01*
X147983D01*
X147413Y154417D01*
X147033Y153917D01*
X146907Y153333D01*
X147033Y152750D01*
X147350Y152333D01*
X147857Y152083D01*
X148300Y152000D01*
G01X152577Y153667D02*
X154223D01*
G01X158500Y157000D02*
X157993Y156833D01*
X157613Y156417D01*
X157360Y155917D01*
X157170Y155250D01*
X157107Y154500D01*
X157170Y153750D01*
X157360Y153083D01*
X157613Y152583D01*
X157993Y152167D01*
X158500Y152000D01*
X159007Y152167D01*
X159387Y152583D01*
X159640Y153083D01*
X159830Y153750D01*
X159893Y154500D01*
X159830Y155250D01*
X159640Y155917D01*
X159387Y156417D01*
X159007Y156833D01*
X158500Y157000D01*
G01X162207Y152750D02*
X162587Y152333D01*
X163030Y152083D01*
X163600Y152000D01*
X164170Y152167D01*
X164613Y152500D01*
X164930Y153083D01*
X164993Y153750D01*
X164867Y154417D01*
X164550Y154833D01*
X164107Y155167D01*
X163663Y155250D01*
X163220Y155167D01*
X162650Y154833D01*
X162840Y157000D01*
X164550D01*
G01X168573Y152000D02*
X168700Y153083D01*
X168890Y154000D01*
X169143Y154833D01*
X169460Y155750D01*
X169967Y157000D01*
X167433D01*
G01X174560Y152000D02*
Y157000D01*
X172217Y153417D01*
X175383D01*
G01X177823Y152583D02*
X178267Y152167D01*
X178773Y152000D01*
X179280Y152167D01*
X179723Y152667D01*
X180040Y153417D01*
X180167Y154167D01*
Y155083D01*
X180040Y155833D01*
X179723Y156500D01*
X179343Y156833D01*
X178900Y157000D01*
X178393Y156833D01*
X178013Y156500D01*
X177760Y156000D01*
X177633Y155333D01*
X177760Y154750D01*
X178077Y154167D01*
X178457Y153833D01*
X178900Y153750D01*
X179407Y153917D01*
X179787Y154333D01*
X180167Y155083D01*
G01X184760Y152000D02*
Y157000D01*
X182417Y153417D01*
X185583D01*
G01X192933Y152000D02*
Y157000D01*
X194517D01*
X195023Y156750D01*
X195340Y156417D01*
X195467Y155750D01*
X195340Y155083D01*
X194960Y154667D01*
X194517Y154417D01*
X192933D01*
G01X194517D02*
X195467Y152000D01*
G01X200567D02*
X198033D01*
Y157000D01*
X200567D01*
G01X199553Y154583D02*
X198033D01*
G01X202817Y157000D02*
X204400Y152000D01*
X205983Y157000D01*
G01X213207Y152000D02*
Y157000D01*
X214473D01*
X214980Y156750D01*
X215360Y156417D01*
X215677Y155917D01*
X215930Y155333D01*
X215993Y154500D01*
X215930Y153667D01*
X215677Y153083D01*
X215360Y152583D01*
X214980Y152250D01*
X214473Y152000D01*
X213207D01*
G01X223597Y157000D02*
X226003D01*
X223597Y152000D01*
X226003D01*
G01X143000Y243750D02*
Y253750D01*
X146125D01*
X147125Y253250D01*
X147750Y252583D01*
X148000Y251250D01*
X147750Y249917D01*
X147000Y249083D01*
X146125Y248583D01*
X143000D01*
G01X146125D02*
X148000Y243750D01*
G01X158000D02*
X153000D01*
Y253750D01*
X158000D01*
G01X156000Y248917D02*
X153000D01*
G01X162375Y253750D02*
X165500Y243750D01*
X168625Y253750D01*
G01X182750Y243750D02*
Y253750D01*
X185250D01*
X186250Y253250D01*
X187000Y252583D01*
X187625Y251583D01*
X188125Y250416D01*
X188250Y248750D01*
X188125Y247083D01*
X187625Y245917D01*
X187000Y244916D01*
X186250Y244250D01*
X185250Y243750D01*
X182750D01*
G01X140500Y273750D02*
X139500Y273417D01*
X138750Y272583D01*
X138250Y271583D01*
X137875Y270250D01*
X137750Y268750D01*
X137875Y267250D01*
X138250Y265917D01*
X138750Y264916D01*
X139500Y264083D01*
X140500Y263750D01*
X141500Y264083D01*
X142250Y264916D01*
X142750Y265917D01*
X143125Y267250D01*
X143250Y268750D01*
X143125Y270250D01*
X142750Y271583D01*
X142250Y272583D01*
X141500Y273417D01*
X140500Y273750D01*
G01X147750Y265250D02*
X148500Y264417D01*
X149375Y263917D01*
X150500Y263750D01*
X151625Y264083D01*
X152500Y264750D01*
X153125Y265917D01*
X153250Y267250D01*
X153000Y268583D01*
X152375Y269417D01*
X151500Y270083D01*
X150625Y270250D01*
X149750Y270083D01*
X148625Y269417D01*
X149000Y273750D01*
X152375D01*
G01X160250Y263750D02*
X160500Y265917D01*
X160875Y267750D01*
X161375Y269417D01*
X162000Y271250D01*
X163000Y273750D01*
X158000D01*
G01X172000Y263750D02*
Y273750D01*
X167375Y266583D01*
X173625D01*
G01X178375Y264916D02*
X179250Y264083D01*
X180250Y263750D01*
X181250Y264083D01*
X182125Y265083D01*
X182750Y266583D01*
X183000Y268083D01*
Y269917D01*
X182750Y271417D01*
X182125Y272750D01*
X181375Y273417D01*
X180500Y273750D01*
X179500Y273417D01*
X178750Y272750D01*
X178250Y271750D01*
X178000Y270416D01*
X178250Y269250D01*
X178875Y268083D01*
X179625Y267416D01*
X180500Y267250D01*
X181500Y267583D01*
X182250Y268417D01*
X183000Y269917D01*
G01X192000Y263750D02*
Y273750D01*
X187375Y266583D01*
X193625D01*
G01X177500Y17200D02*
X174000D01*
Y25200D01*
G01X169000Y17200D02*
X172500D01*
Y25200D01*
G01X162000Y17200D02*
X158500D01*
Y25200D01*
G01X153500Y17200D02*
X157000D01*
Y25200D01*
G01X175630Y66079D02*
X188730D01*
Y60079D01*
X175630D01*
Y66079D01*
G01X161456Y105500D02*
X157956D01*
Y97500D01*
G01X168456Y105500D02*
X171956D01*
Y97500D01*
G01X162791Y84600D02*
X167121D01*
G01X162791Y90900D02*
X167121D01*
G01X172991Y110350D02*
X177321D01*
G01X172991Y116650D02*
X177321D01*
G01X153241Y110350D02*
X157571D01*
G01X153241Y116650D02*
X157571D01*
G01X154183Y161000D02*
Y166000D01*
X155703D01*
X156210Y165750D01*
X156590Y165167D01*
X156717Y164500D01*
X156590Y163833D01*
X156273Y163333D01*
X155703Y163083D01*
X154183D01*
G01X159283Y161000D02*
Y166000D01*
X160867D01*
X161373Y165750D01*
X161690Y165417D01*
X161817Y164750D01*
X161690Y164083D01*
X161310Y163667D01*
X160867Y163417D01*
X159283D01*
G01X160867D02*
X161817Y161000D01*
G01X164890Y166000D02*
X166410D01*
G01X165650D02*
Y161000D01*
G01X164890D02*
X166410D01*
G01X169103D02*
Y166000D01*
X170750Y161833D01*
X172397Y166000D01*
Y161000D01*
G01X174267D02*
X175850Y166000D01*
X177433Y161000D01*
G01X176863Y162750D02*
X174837D01*
G01X179683Y161000D02*
Y166000D01*
X181267D01*
X181773Y165750D01*
X182090Y165417D01*
X182217Y164750D01*
X182090Y164083D01*
X181710Y163667D01*
X181267Y163417D01*
X179683D01*
G01X181267D02*
X182217Y161000D01*
G01X186050D02*
Y163250D01*
X184783Y166000D01*
G01X187317D02*
X186050Y163250D01*
G01X194920Y161667D02*
X195427Y161250D01*
X195997Y161000D01*
X196503D01*
X197010Y161250D01*
X197390Y161667D01*
X197580Y162250D01*
X197453Y162833D01*
X197137Y163333D01*
X196567Y163667D01*
X195807Y163833D01*
X195363Y164167D01*
X195173Y164750D01*
X195300Y165333D01*
X195617Y165750D01*
X196060Y166000D01*
X196503D01*
X196947Y165833D01*
X197327Y165417D01*
G01X200590Y166000D02*
X202110D01*
G01X201350D02*
Y161000D01*
G01X200590D02*
X202110D01*
G01X205057D02*
Y166000D01*
X206323D01*
X206830Y165750D01*
X207210Y165417D01*
X207527Y164917D01*
X207780Y164333D01*
X207843Y163500D01*
X207780Y162667D01*
X207527Y162083D01*
X207210Y161583D01*
X206830Y161250D01*
X206323Y161000D01*
X205057D01*
G01X212817D02*
X210283D01*
Y166000D01*
X212817D01*
G01X211803Y163583D02*
X210283D01*
G01X184500Y17200D02*
X188000D01*
Y25200D01*
G01X190001Y58940D02*
Y59209D01*
X198399D01*
Y58940D01*
G01Y46060D02*
Y45791D01*
X190001D01*
Y46060D01*
G01X181156Y105500D02*
X177656D01*
Y97500D01*
G01X188156Y105500D02*
X191656D01*
Y97500D01*
G01X200856Y105500D02*
X197356D01*
Y97500D01*
G01X202191Y84600D02*
X206521D01*
G01X202191Y90900D02*
X206521D01*
G01X182491Y84600D02*
X186821D01*
G01X182491Y90900D02*
X186821D01*
G01X192741Y110350D02*
X197071D01*
G01X192741Y116650D02*
X197071D01*
G01X230850Y-5575D02*
X228925D01*
Y575D01*
X242075D01*
Y-5575D01*
X230850D01*
G01X224716Y60971D02*
Y45471D01*
X232616D01*
Y60971D01*
X231116Y62471D01*
X226216D01*
X224716Y60971D01*
G01X207856Y105500D02*
X211356D01*
Y97500D01*
G01X248150Y82300D02*
X227850D01*
Y93200D01*
X248150D01*
Y82300D01*
G01X225000Y104000D02*
G03I-6500J0D01*
G01X230500Y184000D02*
X208500D01*
Y196000D01*
X230500D01*
Y184000D01*
G01X247350Y-5575D02*
X245425D01*
Y575D01*
X258575D01*
Y-5575D01*
X247350D01*
G01X284622Y46539D02*
G03I-24622J0D01*
G01X263533Y76243D02*
Y71563D01*
G01X266913Y74098D02*
X260153D01*
G01X284188Y97791D02*
X234188D01*
G01D02*
Y197791D01*
G01X248904Y120279D02*
Y124437D01*
G01D02*
X262274Y118627D01*
G01X264402Y116499D02*
X248904Y120279D01*
G01X257266Y118239D02*
Y120803D01*
G01X257201Y118255D02*
Y120831D01*
G01X257137Y118270D02*
Y120859D01*
G01X257073Y118286D02*
Y120887D01*
G01X257008Y118302D02*
Y120915D01*
G01X256944Y118317D02*
Y120943D01*
G01X256879Y118333D02*
Y120971D01*
G01X256815Y118349D02*
Y120999D01*
G01X256751Y118365D02*
Y121027D01*
G01X256686Y118380D02*
Y121055D01*
G01X256622Y118396D02*
Y121083D01*
G01X256557Y118412D02*
Y121111D01*
G01X256493Y118427D02*
Y121139D01*
G01X256429Y118443D02*
Y121167D01*
G01X256364Y118459D02*
Y121195D01*
G01X256300Y118475D02*
Y121223D01*
G01X256235Y118490D02*
Y121251D01*
G01X256171Y118506D02*
Y121279D01*
G01X256107Y118522D02*
Y121307D01*
G01X256042Y118537D02*
Y121335D01*
G01X255978Y118553D02*
Y121363D01*
G01X255913Y118569D02*
Y121391D01*
G01X255849Y118585D02*
Y121419D01*
G01X255785Y118600D02*
Y121447D01*
G01X255720Y118616D02*
Y121475D01*
G01X255656Y118632D02*
Y121503D01*
G01X255591Y118647D02*
Y121531D01*
G01X255527Y118663D02*
Y121559D01*
G01X255463Y118679D02*
Y121587D01*
G01X255398Y118695D02*
Y121615D01*
G01X255334Y118710D02*
Y121643D01*
G01X255269Y118726D02*
Y121671D01*
G01X255205Y118741D02*
Y121699D01*
G01X255141Y118757D02*
Y121727D01*
G01X255076Y118773D02*
Y121755D01*
G01X255012Y118789D02*
Y121783D01*
G01X254947Y118805D02*
Y121811D01*
G01X254883Y118820D02*
Y121839D01*
G01X254819Y118836D02*
Y121867D01*
G01X254754Y118851D02*
Y121895D01*
G01X254690Y118867D02*
Y121923D01*
G01X254625Y118883D02*
Y121951D01*
G01X254561Y118899D02*
Y121979D01*
G01X254497Y118914D02*
Y122007D01*
G01X254432Y118930D02*
Y122035D01*
G01X254368Y118946D02*
Y122063D01*
G01X254303Y118961D02*
Y122091D01*
G01X254239Y118977D02*
Y122119D01*
G01X254175Y118993D02*
Y122147D01*
G01X254110Y119009D02*
Y122175D01*
G01X254046Y119024D02*
Y122203D01*
G01X253981Y119040D02*
Y122231D01*
G01X253917Y119056D02*
Y122258D01*
G01X253853Y119071D02*
Y122286D01*
G01X253788Y119087D02*
Y122314D01*
G01X253724Y119103D02*
Y122342D01*
G01X253659Y119119D02*
Y122370D01*
G01X253595Y119134D02*
Y122398D01*
G01X253531Y119150D02*
Y122426D01*
G01X253466Y119166D02*
Y122454D01*
G01X253402Y119181D02*
Y122482D01*
G01X253337Y119197D02*
Y122510D01*
G01X253273Y119213D02*
Y122538D01*
G01X253209Y119229D02*
Y122566D01*
G01X253144Y119244D02*
Y122594D01*
G01X253080Y119260D02*
Y122622D01*
G01X253015Y119276D02*
Y122650D01*
G01X252951Y119291D02*
Y122678D01*
G01X252887Y119307D02*
Y122706D01*
G01X252822Y119323D02*
Y122734D01*
G01X252758Y119339D02*
Y122762D01*
G01X252693Y119354D02*
Y122790D01*
G01X252629Y119370D02*
Y122818D01*
G01X252565Y119385D02*
Y122846D01*
G01X252500Y119401D02*
Y122874D01*
G01X252436Y119417D02*
Y122902D01*
G01X252371Y119433D02*
Y122930D01*
G01X252307Y119449D02*
Y122958D01*
G01X252243Y119464D02*
Y122986D01*
G01X252178Y119480D02*
Y123014D01*
G01X252114Y119495D02*
Y123042D01*
G01X252049Y119511D02*
Y123070D01*
G01X251985Y119527D02*
Y123098D01*
G01X251921Y119543D02*
Y123126D01*
G01X251856Y119558D02*
Y123154D01*
G01X251792Y119574D02*
Y123182D01*
G01X251727Y119590D02*
Y123210D01*
G01X251663Y119605D02*
Y123238D01*
G01X251599Y119621D02*
Y123266D01*
G01X251534Y119637D02*
Y123294D01*
G01X251470Y119653D02*
Y123322D01*
G01X251405Y119668D02*
Y123350D01*
G01X251341Y119684D02*
Y123378D01*
G01X251277Y119700D02*
Y123406D01*
G01X251212Y119715D02*
Y123434D01*
G01X251148Y119731D02*
Y123462D01*
G01X251083Y119747D02*
Y123490D01*
G01X251019Y119763D02*
Y123518D01*
G01X250955Y119778D02*
Y123546D01*
G01X250890Y119794D02*
Y123574D01*
G01X250826Y119810D02*
Y123602D01*
G01X250761Y119825D02*
Y123630D01*
G01X250697Y119841D02*
Y123658D01*
G01X250633Y119857D02*
Y123686D01*
G01X250568Y119873D02*
Y123714D01*
G01X250504Y119888D02*
Y123742D01*
G01X250439Y119904D02*
Y123770D01*
G01X250375Y119920D02*
Y123798D01*
G01X250311Y119935D02*
Y123826D01*
G01X250246Y119951D02*
Y123854D01*
G01X250182Y119967D02*
Y123881D01*
G01X250117Y119983D02*
Y123909D01*
G01X250053Y119998D02*
Y123937D01*
G01X249989Y120014D02*
Y123965D01*
G01X249924Y120030D02*
Y123993D01*
G01X249860Y120045D02*
Y124021D01*
G01X249795Y120061D02*
Y124049D01*
G01X249731Y120077D02*
Y124077D01*
G01X249667Y120093D02*
Y124105D01*
G01X249602Y120108D02*
Y124133D01*
G01X249538Y120124D02*
Y124161D01*
G01X249473Y120139D02*
Y124189D01*
G01X249409Y120155D02*
Y124217D01*
G01X249345Y120171D02*
Y124245D01*
G01X249280Y120187D02*
Y124273D01*
G01X249216Y120202D02*
Y124301D01*
G01X249151Y120218D02*
Y124329D01*
G01X249087Y120234D02*
Y124357D01*
G01X249023Y120249D02*
Y124385D01*
G01X248958Y120265D02*
Y124413D01*
G01X234188Y145791D02*
X284188D01*
G01X246188D02*
Y197791D01*
G01X243188Y152191D02*
G03I-200J0D01*
G01X243162Y152092D02*
Y152289D01*
G01X243098Y152023D02*
Y152358D01*
G01X243033Y151996D02*
Y152385D01*
G01X242969Y151991D02*
Y152390D01*
G01X242905Y152009D02*
Y152372D01*
G01X242840Y152056D02*
Y152325D01*
G01X243588Y156975D02*
X237348D01*
G01D02*
Y158535D01*
G01D02*
X237660Y159159D01*
G01D02*
X238076Y159627D01*
G01D02*
X238700Y160017D01*
G01D02*
X239428Y160329D01*
G01D02*
X240468Y160407D01*
G01D02*
X241508Y160329D01*
G01D02*
X242236Y160017D01*
G01D02*
X242860Y159627D01*
G01D02*
X243276Y159159D01*
G01D02*
X243588Y158535D01*
G01D02*
Y156975D01*
G01Y163901D02*
X237348Y165851D01*
G01D02*
X243588Y167801D01*
G01X241404Y167099D02*
Y164603D01*
G01X243588Y171217D02*
X237348D01*
G01D02*
X243588Y174805D01*
G01D02*
X237348D01*
G01X240468Y180639D02*
Y182199D01*
G01D02*
X242340D01*
G01D02*
X242964Y181731D01*
G01D02*
X243380Y181185D01*
G01D02*
X243588Y180405D01*
G01D02*
X243380Y179625D01*
G01D02*
X242964Y179079D01*
G01D02*
X242340Y178611D01*
G01D02*
X241612Y178299D01*
G01D02*
X240780Y178143D01*
G01D02*
X240052D01*
G01D02*
X239428Y178299D01*
G01D02*
X238700Y178611D01*
G01D02*
X238076Y179079D01*
G01D02*
X237660Y179547D01*
G01D02*
X237348Y180171D01*
G01D02*
Y180717D01*
G01D02*
X237556Y181341D01*
G01D02*
X237972Y181809D01*
G01X243588Y188891D02*
Y185771D01*
G01D02*
X237348D01*
G01D02*
Y188891D01*
G01X240364Y187643D02*
Y185771D01*
G01X243588Y192931D02*
X237348D01*
G01D02*
Y194881D01*
G01D02*
X237660Y195505D01*
G01D02*
X238076Y195895D01*
G01D02*
X238908Y196051D01*
G01D02*
X239740Y195895D01*
G01D02*
X240260Y195427D01*
G01D02*
X240572Y194881D01*
G01D02*
Y192931D01*
G01Y194881D02*
X243588Y196051D01*
G01X234188Y197791D02*
X284188D01*
G01X275050Y-5500D02*
X261950D01*
Y500D01*
X275050D01*
Y-5500D01*
G01X291550D02*
X278450D01*
Y500D01*
X291550D01*
Y-5500D01*
G01X262274Y118627D02*
X257598Y127461D01*
G01D02*
X270450Y122547D01*
G01D02*
X269234Y124955D01*
G01D02*
X275364Y120657D01*
G01D02*
X268560Y119523D01*
G01D02*
X270450Y121035D01*
G01D02*
X260622Y124059D01*
G01D02*
X264402Y116499D01*
G01X275362Y120657D02*
Y120658D01*
G01X275298Y120646D02*
Y120703D01*
G01X275233Y120635D02*
Y120748D01*
G01X275169Y120624D02*
Y120793D01*
G01X275105Y120613D02*
Y120839D01*
G01X275040Y120603D02*
Y120884D01*
G01X274976Y120592D02*
Y120929D01*
G01X274911Y120581D02*
Y120974D01*
G01X274847Y120571D02*
Y121019D01*
G01X274783Y120560D02*
Y121064D01*
G01X274718Y120549D02*
Y121109D01*
G01X274654Y120539D02*
Y121155D01*
G01X274589Y120528D02*
Y121200D01*
G01X274525Y120517D02*
Y121245D01*
G01X274461Y120506D02*
Y121290D01*
G01X274396Y120495D02*
Y121335D01*
G01X274332Y120485D02*
Y121381D01*
G01X274267Y120474D02*
Y121425D01*
G01X274203Y120463D02*
Y121471D01*
G01X274139Y120453D02*
Y121516D01*
G01X274074Y120442D02*
Y121561D01*
G01X274010Y120431D02*
Y121606D01*
G01X273945Y120420D02*
Y121651D01*
G01X273881Y120410D02*
Y121697D01*
G01X273817Y120399D02*
Y121742D01*
G01X273752Y120388D02*
Y121787D01*
G01X273688Y120377D02*
Y121832D01*
G01X273623Y120367D02*
Y121877D01*
G01X273559Y120356D02*
Y121922D01*
G01X273495Y120345D02*
Y121967D01*
G01X273430Y120335D02*
Y122013D01*
G01X273366Y120324D02*
Y122058D01*
G01X273301Y120313D02*
Y122103D01*
G01X273237Y120302D02*
Y122148D01*
G01X273173Y120291D02*
Y122193D01*
G01X273108Y120281D02*
Y122238D01*
G01X273044Y120270D02*
Y122283D01*
G01X272979Y120259D02*
Y122329D01*
G01X272915Y120249D02*
Y122374D01*
G01X272851Y120238D02*
Y122419D01*
G01X272786Y120227D02*
Y122464D01*
G01X272722Y120217D02*
Y122509D01*
G01X272657Y120206D02*
Y122555D01*
G01X272593Y120195D02*
Y122600D01*
G01X272529Y120184D02*
Y122645D01*
G01X272464Y120173D02*
Y122690D01*
G01X272400Y120163D02*
Y122735D01*
G01X272335Y120152D02*
Y122780D01*
G01X272271Y120141D02*
Y122825D01*
G01X272207Y120131D02*
Y122871D01*
G01X272142Y120120D02*
Y122916D01*
G01X272078Y120109D02*
Y122961D01*
G01X272013Y120098D02*
Y123006D01*
G01X271949Y120088D02*
Y123051D01*
G01X271885Y120077D02*
Y123096D01*
G01X271820Y120066D02*
Y123141D01*
G01X271756Y120055D02*
Y123187D01*
G01X271691Y120045D02*
Y123232D01*
G01X271627Y120034D02*
Y123277D01*
G01X271563Y120023D02*
Y123322D01*
G01X271498Y120013D02*
Y123367D01*
G01X271434Y120002D02*
Y123413D01*
G01X271369Y119991D02*
Y123458D01*
G01X271305Y119980D02*
Y123503D01*
G01X271241Y119969D02*
Y123548D01*
G01X271176Y119959D02*
Y123593D01*
G01X271112Y119948D02*
Y123638D01*
G01X271047Y119937D02*
Y123683D01*
G01X270983Y119927D02*
Y123729D01*
G01X270919Y119916D02*
Y123774D01*
G01X270854Y119905D02*
Y123819D01*
G01X270790Y119895D02*
Y123864D01*
G01X270725Y119884D02*
Y123909D01*
G01X270661Y119873D02*
Y123954D01*
G01X270597Y119862D02*
Y123999D01*
G01X270532Y119851D02*
Y124045D01*
G01X270468Y119841D02*
Y124090D01*
G01X270403Y119830D02*
Y120997D01*
G01Y121049D02*
Y122565D01*
G01Y122638D02*
Y124135D01*
G01X270339Y119819D02*
Y120946D01*
G01Y121069D02*
Y122589D01*
G01Y122766D02*
Y124180D01*
G01X270275Y119809D02*
Y120894D01*
G01Y121088D02*
Y122614D01*
G01Y122893D02*
Y124225D01*
G01X270210Y119798D02*
Y120843D01*
G01Y121108D02*
Y122639D01*
G01Y123021D02*
Y124271D01*
G01X270146Y119787D02*
Y120791D01*
G01Y121128D02*
Y122663D01*
G01Y123149D02*
Y124315D01*
G01X270081Y119776D02*
Y120740D01*
G01Y121148D02*
Y122688D01*
G01Y123276D02*
Y124361D01*
G01X270017Y119766D02*
Y120688D01*
G01Y121167D02*
Y122712D01*
G01Y123404D02*
Y124406D01*
G01X269953Y119755D02*
Y120637D01*
G01Y121187D02*
Y122737D01*
G01Y123531D02*
Y124451D01*
G01X269888Y119744D02*
Y120585D01*
G01Y121207D02*
Y122761D01*
G01Y123659D02*
Y124496D01*
G01X269824Y119733D02*
Y120534D01*
G01Y121227D02*
Y122786D01*
G01Y123787D02*
Y124541D01*
G01X269759Y119723D02*
Y120482D01*
G01Y121247D02*
Y122811D01*
G01Y123914D02*
Y124587D01*
G01X269695Y119712D02*
Y120431D01*
G01Y121267D02*
Y122835D01*
G01Y124041D02*
Y124632D01*
G01X269631Y119701D02*
Y120379D01*
G01Y121287D02*
Y122860D01*
G01Y124169D02*
Y124677D01*
G01X269566Y119691D02*
Y120327D01*
G01Y121306D02*
Y122885D01*
G01X269502Y119680D02*
Y120276D01*
G01Y121326D02*
Y122909D01*
G01X269437Y119669D02*
Y120225D01*
G01Y121346D02*
Y122934D01*
G01X269373Y119658D02*
Y120173D01*
G01Y121366D02*
Y122959D01*
G01X269309Y119647D02*
Y120121D01*
G01Y121385D02*
Y122983D01*
G01X269244Y119637D02*
Y120070D01*
G01Y121405D02*
Y123008D01*
G01X269180Y119626D02*
Y120019D01*
G01Y121425D02*
Y123032D01*
G01X269115Y119615D02*
Y119967D01*
G01Y121445D02*
Y123057D01*
G01X269051Y119605D02*
Y119915D01*
G01Y121465D02*
Y123082D01*
G01X268987Y119594D02*
Y119864D01*
G01Y121485D02*
Y123106D01*
G01X268922Y119583D02*
Y119812D01*
G01Y121505D02*
Y123131D01*
G01X268858Y119573D02*
Y119761D01*
G01Y121524D02*
Y123155D01*
G01X268793Y119562D02*
Y119709D01*
G01Y121544D02*
Y123180D01*
G01X268729Y119551D02*
Y119658D01*
G01Y121564D02*
Y123205D01*
G01X268665Y119540D02*
Y119606D01*
G01Y121584D02*
Y123229D01*
G01X268600Y119529D02*
Y119555D01*
G01Y121603D02*
Y123254D01*
G01X268536Y121623D02*
Y123279D01*
G01X268471Y121643D02*
Y123303D01*
G01X268407Y121663D02*
Y123328D01*
G01X268343Y121683D02*
Y123353D01*
G01X268278Y121703D02*
Y123377D01*
G01X268214Y121723D02*
Y123402D01*
G01X268149Y121742D02*
Y123426D01*
G01X268085Y121762D02*
Y123451D01*
G01X268021Y121782D02*
Y123476D01*
G01X267956Y121802D02*
Y123500D01*
G01X267892Y121821D02*
Y123525D01*
G01X267827Y121841D02*
Y123549D01*
G01X267763Y121861D02*
Y123574D01*
G01X267699Y121881D02*
Y123599D01*
G01X267634Y121901D02*
Y123623D01*
G01X267570Y121921D02*
Y123648D01*
G01X267505Y121940D02*
Y123673D01*
G01X267441Y121960D02*
Y123697D01*
G01X267377Y121980D02*
Y123722D01*
G01X267312Y122000D02*
Y123747D01*
G01X267248Y122020D02*
Y123771D01*
G01X267183Y122039D02*
Y123796D01*
G01X267119Y122059D02*
Y123820D01*
G01X267055Y122079D02*
Y123845D01*
G01X266990Y122099D02*
Y123869D01*
G01X266926Y122119D02*
Y123894D01*
G01X266861Y122139D02*
Y123919D01*
G01X266797Y122158D02*
Y123943D01*
G01X266733Y122178D02*
Y123968D01*
G01X266668Y122198D02*
Y123993D01*
G01X266604Y122218D02*
Y124017D01*
G01X266539Y122238D02*
Y124042D01*
G01X266475Y122257D02*
Y124067D01*
G01X266411Y122277D02*
Y124091D01*
G01X266346Y122297D02*
Y124116D01*
G01X266282Y122317D02*
Y124141D01*
G01X266217Y122337D02*
Y124165D01*
G01X266153Y122357D02*
Y124190D01*
G01X266089Y122376D02*
Y124214D01*
G01X266024Y122396D02*
Y124239D01*
G01X265960Y122416D02*
Y124263D01*
G01X265895Y122436D02*
Y124288D01*
G01X265831Y122455D02*
Y124313D01*
G01X265767Y122475D02*
Y124337D01*
G01X265702Y122495D02*
Y124362D01*
G01X265638Y122515D02*
Y124387D01*
G01X265573Y122535D02*
Y124411D01*
G01X265509Y122555D02*
Y124436D01*
G01X265445Y122575D02*
Y124461D01*
G01X265380Y122594D02*
Y124485D01*
G01X265316Y122614D02*
Y124510D01*
G01X265251Y122634D02*
Y124535D01*
G01X265187Y122654D02*
Y124559D01*
G01X265123Y122673D02*
Y124584D01*
G01X265058Y122693D02*
Y124608D01*
G01X264994Y122713D02*
Y124633D01*
G01X264929Y122733D02*
Y124657D01*
G01X264865Y122753D02*
Y124682D01*
G01X264801Y122773D02*
Y124707D01*
G01X264736Y122793D02*
Y124731D01*
G01X264672Y122812D02*
Y124756D01*
G01X264607Y122832D02*
Y124781D01*
G01X264543Y122852D02*
Y124805D01*
G01X264479Y122872D02*
Y124830D01*
G01X264414Y122891D02*
Y124855D01*
G01X264350Y116511D02*
Y116603D01*
G01Y122911D02*
Y124879D01*
G01X264285Y116527D02*
Y116731D01*
G01Y122931D02*
Y124904D01*
G01X264221Y116543D02*
Y116860D01*
G01Y122951D02*
Y124928D01*
G01X264157Y116558D02*
Y116989D01*
G01Y122971D02*
Y124953D01*
G01X264092Y116574D02*
Y117118D01*
G01Y122991D02*
Y124978D01*
G01X264028Y116590D02*
Y117247D01*
G01Y123011D02*
Y125002D01*
G01X263963Y116605D02*
Y117375D01*
G01Y123030D02*
Y125027D01*
G01X263899Y116621D02*
Y117504D01*
G01Y123050D02*
Y125051D01*
G01X263835Y116637D02*
Y117633D01*
G01Y123070D02*
Y125076D01*
G01X263770Y116653D02*
Y117762D01*
G01Y123090D02*
Y125101D01*
G01X263706Y116668D02*
Y117891D01*
G01Y123109D02*
Y125125D01*
G01X263641Y116684D02*
Y118019D01*
G01Y123129D02*
Y125150D01*
G01X263577Y116699D02*
Y118148D01*
G01Y123149D02*
Y125175D01*
G01X263513Y116715D02*
Y118277D01*
G01Y123169D02*
Y125199D01*
G01X263448Y116731D02*
Y118406D01*
G01Y123189D02*
Y125224D01*
G01X263384Y116747D02*
Y118535D01*
G01Y123209D02*
Y125249D01*
G01X263319Y116763D02*
Y118663D01*
G01Y123228D02*
Y125273D01*
G01X263255Y116778D02*
Y118792D01*
G01Y123248D02*
Y125298D01*
G01X263191Y116794D02*
Y118921D01*
G01Y123268D02*
Y125322D01*
G01X263126Y116809D02*
Y119050D01*
G01Y123288D02*
Y125347D01*
G01X263062Y116825D02*
Y119179D01*
G01Y123308D02*
Y125372D01*
G01X262997Y116841D02*
Y119307D01*
G01Y123327D02*
Y125396D01*
G01X262933Y116857D02*
Y119436D01*
G01Y123347D02*
Y125421D01*
G01X262869Y116872D02*
Y119565D01*
G01Y123367D02*
Y125445D01*
G01X262804Y116888D02*
Y119694D01*
G01Y123387D02*
Y125470D01*
G01X262740Y116904D02*
Y119823D01*
G01Y123407D02*
Y125495D01*
G01X262675Y116919D02*
Y119951D01*
G01Y123427D02*
Y125519D01*
G01X262611Y116935D02*
Y120080D01*
G01Y123446D02*
Y125544D01*
G01X262547Y116951D02*
Y120209D01*
G01Y123466D02*
Y125569D01*
G01X262482Y116967D02*
Y120338D01*
G01Y123486D02*
Y125593D01*
G01X262418Y116982D02*
Y120467D01*
G01Y123506D02*
Y125618D01*
G01X262353Y116998D02*
Y120595D01*
G01Y123526D02*
Y125643D01*
G01X262289Y117014D02*
Y120724D01*
G01Y123545D02*
Y125667D01*
G01X262225Y117029D02*
Y118648D01*
G01Y118719D02*
Y120853D01*
G01Y123565D02*
Y125692D01*
G01X262160Y117045D02*
Y118676D01*
G01Y118841D02*
Y120982D01*
G01Y123585D02*
Y125716D01*
G01X262096Y117061D02*
Y118704D01*
G01Y118963D02*
Y121111D01*
G01Y123605D02*
Y125741D01*
G01X262031Y117077D02*
Y118732D01*
G01Y119084D02*
Y121239D01*
G01Y123625D02*
Y125765D01*
G01X261967Y117092D02*
Y118760D01*
G01Y119206D02*
Y121368D01*
G01Y123645D02*
Y125790D01*
G01X261903Y117108D02*
Y118788D01*
G01Y119328D02*
Y121497D01*
G01Y123664D02*
Y125815D01*
G01X261838Y117124D02*
Y118816D01*
G01Y119449D02*
Y121626D01*
G01Y123684D02*
Y125839D01*
G01X261774Y117139D02*
Y118844D01*
G01Y119571D02*
Y121755D01*
G01Y123704D02*
Y125864D01*
G01X261709Y117155D02*
Y118872D01*
G01Y119693D02*
Y121883D01*
G01Y123724D02*
Y125889D01*
G01X261645Y117171D02*
Y118900D01*
G01Y119814D02*
Y122012D01*
G01Y123743D02*
Y125913D01*
G01X261581Y117187D02*
Y118928D01*
G01Y119936D02*
Y122141D01*
G01Y123763D02*
Y125938D01*
G01X261516Y117202D02*
Y118956D01*
G01Y120058D02*
Y122270D01*
G01Y123783D02*
Y125963D01*
G01X261452Y117218D02*
Y118984D01*
G01Y120179D02*
Y122399D01*
G01Y123803D02*
Y125987D01*
G01X261387Y117234D02*
Y119012D01*
G01Y120301D02*
Y122527D01*
G01Y123823D02*
Y126012D01*
G01X261323Y117249D02*
Y119040D01*
G01Y120423D02*
Y122656D01*
G01Y123843D02*
Y126037D01*
G01X261259Y117265D02*
Y119068D01*
G01Y120544D02*
Y122785D01*
G01Y123863D02*
Y126061D01*
G01X261194Y117281D02*
Y119096D01*
G01Y120666D02*
Y122914D01*
G01Y123882D02*
Y126086D01*
G01X261130Y117297D02*
Y119124D01*
G01Y120788D02*
Y123043D01*
G01Y123902D02*
Y126110D01*
G01X261065Y117312D02*
Y119152D01*
G01Y120909D02*
Y123171D01*
G01Y123922D02*
Y126135D01*
G01X261001Y117328D02*
Y119180D01*
G01Y121031D02*
Y123300D01*
G01Y123942D02*
Y126159D01*
G01X260937Y117343D02*
Y119208D01*
G01Y121153D02*
Y123429D01*
G01Y123961D02*
Y126184D01*
G01X260872Y117359D02*
Y119236D01*
G01Y121274D02*
Y123558D01*
G01Y123981D02*
Y126209D01*
G01X260808Y117375D02*
Y119264D01*
G01Y121396D02*
Y123687D01*
G01Y124001D02*
Y126233D01*
G01X260743Y117391D02*
Y119292D01*
G01Y121518D02*
Y123815D01*
G01Y124021D02*
Y126258D01*
G01X260679Y117407D02*
Y119320D01*
G01Y121639D02*
Y123944D01*
G01Y124041D02*
Y126283D01*
G01X260615Y117422D02*
Y119348D01*
G01Y121761D02*
Y126307D01*
G01X260550Y117438D02*
Y119376D01*
G01Y121883D02*
Y126332D01*
G01X260486Y117453D02*
Y119404D01*
G01Y122004D02*
Y126357D01*
G01X260421Y117469D02*
Y119432D01*
G01Y122126D02*
Y126381D01*
G01X260357Y117485D02*
Y119460D01*
G01Y122248D02*
Y126406D01*
G01X260293Y117501D02*
Y119488D01*
G01Y122369D02*
Y126431D01*
G01X260228Y117516D02*
Y119516D01*
G01Y122491D02*
Y126455D01*
G01X260164Y117532D02*
Y119544D01*
G01Y122613D02*
Y126480D01*
G01X260099Y117548D02*
Y119572D01*
G01Y122734D02*
Y126504D01*
G01X260035Y117563D02*
Y119600D01*
G01Y122856D02*
Y126529D01*
G01X259971Y117579D02*
Y119628D01*
G01Y122978D02*
Y126553D01*
G01X259906Y117595D02*
Y119656D01*
G01Y123099D02*
Y126578D01*
G01X259842Y117611D02*
Y119684D01*
G01Y123221D02*
Y126603D01*
G01X259777Y117626D02*
Y119712D01*
G01Y123343D02*
Y126627D01*
G01X259713Y117642D02*
Y119740D01*
G01Y123464D02*
Y126652D01*
G01X259649Y117658D02*
Y119768D01*
G01Y123586D02*
Y126677D01*
G01X259584Y117673D02*
Y119796D01*
G01Y123708D02*
Y126701D01*
G01X259520Y117689D02*
Y119824D01*
G01Y123829D02*
Y126726D01*
G01X259455Y117705D02*
Y119851D01*
G01Y123951D02*
Y126751D01*
G01X259391Y117721D02*
Y119879D01*
G01Y124073D02*
Y126775D01*
G01X259327Y117736D02*
Y119907D01*
G01Y124194D02*
Y126800D01*
G01X259262Y117752D02*
Y119935D01*
G01X259198Y117768D02*
Y119963D01*
G01X259133Y117783D02*
Y119991D01*
G01X259069Y117799D02*
Y120019D01*
G01X259005Y117815D02*
Y120047D01*
G01X258940Y117831D02*
Y120075D01*
G01X258876Y117846D02*
Y120103D01*
G01X258811Y117862D02*
Y120131D01*
G01X258747Y117878D02*
Y120159D01*
G01X258683Y117893D02*
Y120187D01*
G01X258618Y117909D02*
Y120215D01*
G01X258554Y117925D02*
Y120243D01*
G01X258489Y117941D02*
Y120271D01*
G01X258425Y117956D02*
Y120299D01*
G01X258361Y117972D02*
Y120327D01*
G01X258296Y117988D02*
Y120355D01*
G01X258232Y118003D02*
Y120383D01*
G01X258167Y118019D02*
Y120411D01*
G01X258103Y118035D02*
Y120439D01*
G01X258039Y118051D02*
Y120467D01*
G01X257974Y118066D02*
Y120495D01*
G01X257910Y118082D02*
Y120523D01*
G01X257845Y118097D02*
Y120551D01*
G01X257781Y118113D02*
Y120579D01*
G01X257717Y118129D02*
Y120607D01*
G01X257652Y118145D02*
Y120635D01*
G01X257588Y118160D02*
Y120663D01*
G01X257523Y118176D02*
Y120691D01*
G01X257459Y118192D02*
Y120719D01*
G01X257395Y118207D02*
Y120747D01*
G01X257330Y118223D02*
Y120775D01*
G01X269566Y124297D02*
Y124722D01*
G01X269502Y124424D02*
Y124767D01*
G01X269437Y124552D02*
Y124812D01*
G01X269373Y124679D02*
Y124857D01*
G01X269309Y124807D02*
Y124903D01*
G01X269244Y124935D02*
Y124948D01*
G01X259262Y124316D02*
Y126825D01*
G01X259198Y124438D02*
Y126849D01*
G01X259133Y124559D02*
Y126874D01*
G01X259069Y124681D02*
Y126898D01*
G01X259005Y124803D02*
Y126923D01*
G01X258940Y124924D02*
Y126947D01*
G01X258876Y125046D02*
Y126972D01*
G01X258811Y125168D02*
Y126997D01*
G01X258747Y125289D02*
Y127021D01*
G01X258683Y125411D02*
Y127046D01*
G01X258618Y125533D02*
Y127071D01*
G01X258554Y125654D02*
Y127095D01*
G01X258489Y125776D02*
Y127120D01*
G01X258425Y125898D02*
Y127145D01*
G01X258361Y126019D02*
Y127169D01*
G01X258296Y126141D02*
Y127194D01*
G01X258232Y126263D02*
Y127218D01*
G01X258167Y126384D02*
Y127243D01*
G01X258103Y126506D02*
Y127268D01*
G01X258039Y126628D02*
Y127292D01*
G01X257974Y126749D02*
Y127317D01*
G01X257910Y126871D02*
Y127341D01*
G01X257845Y126993D02*
Y127366D01*
G01X257781Y127114D02*
Y127391D01*
G01X257717Y127236D02*
Y127415D01*
G01X257652Y127358D02*
Y127440D01*
G01X274138Y196365D02*
X274238D01*
G01X329055Y160722D02*
X337307D01*
G02X340276Y157754I1J-2968D01*
G01Y-58781D01*
G02X337307Y-61750I-2969J0D01*
G01X300693D01*
G02X297724Y-58781I0J2969D01*
G01Y157754D01*
G02X300693Y160722I2968J0D01*
G01X308945D01*
G01X284188Y197791D02*
Y97791D01*
G01X330024Y176061D02*
X335535D01*
G01X332780Y178817D02*
Y173305D01*
G01X138500Y68000D02*
X142500D01*
G01X140500Y65500D02*
Y70500D01*
G01X166000Y68000D02*
X170000D01*
G54D14*
G01X16343Y16342D02*
X16113Y16497D01*
X15845Y16600D01*
X15538D01*
X15193Y16445D01*
X14925Y16187D01*
X14733Y15877D01*
X14580Y15360D01*
X14542Y14895D01*
X14618Y14430D01*
X14733Y14120D01*
X14963Y13810D01*
X15232Y13603D01*
X15500Y13500D01*
X15768D01*
X16037Y13603D01*
X16267Y13758D01*
X16458Y13965D01*
G01X12557Y18500D02*
Y21600D01*
X13323D01*
X13630Y21445D01*
X13860Y21238D01*
X14052Y20928D01*
X14205Y20567D01*
X14243Y20050D01*
X14205Y19533D01*
X14052Y19172D01*
X13860Y18862D01*
X13630Y18655D01*
X13323Y18500D01*
X12557D01*
G01X16500D02*
Y21600D01*
X16040Y20980D01*
G01Y18500D02*
X16960D01*
G01X19600D02*
Y21600D01*
X19140Y20980D01*
G01Y18500D02*
X20060D01*
G01X9645Y8224D02*
X9952Y7966D01*
X10297Y7811D01*
X10603D01*
X10910Y7966D01*
X11140Y8224D01*
X11255Y8586D01*
X11178Y8948D01*
X10987Y9258D01*
X10642Y9464D01*
X10182Y9568D01*
X9913Y9774D01*
X9798Y10136D01*
X9875Y10498D01*
X10067Y10756D01*
X10335Y10911D01*
X10603D01*
X10872Y10808D01*
X11102Y10549D01*
G01X13550Y7811D02*
Y10911D01*
X13090Y10291D01*
G01Y7811D02*
X14010D01*
G01X15542Y23500D02*
X16500Y26600D01*
X17458Y23500D01*
G01X17113Y24585D02*
X15887D01*
G01X4042Y38500D02*
X5000Y41600D01*
X5958Y38500D01*
G01X5613Y39585D02*
X4387D01*
G01X7500Y44057D02*
X4400D01*
Y44823D01*
X4555Y45130D01*
X4762Y45360D01*
X5072Y45552D01*
X5433Y45705D01*
X5950Y45743D01*
X6467Y45705D01*
X6828Y45552D01*
X7138Y45360D01*
X7345Y45130D01*
X7500Y44823D01*
Y44057D01*
G01X7087Y47195D02*
X7345Y47502D01*
X7500Y47847D01*
Y48153D01*
X7345Y48460D01*
X7087Y48690D01*
X6725Y48805D01*
X6363Y48728D01*
X6053Y48537D01*
X5847Y48192D01*
X5743Y47732D01*
X5537Y47463D01*
X5175Y47348D01*
X4813Y47425D01*
X4555Y47617D01*
X4400Y47885D01*
Y48153D01*
X4503Y48422D01*
X4762Y48652D01*
G01X6208Y50372D02*
X5847Y50640D01*
X5640Y50870D01*
X5537Y51177D01*
X5640Y51445D01*
X5847Y51637D01*
X6157Y51790D01*
X6518Y51828D01*
X6828Y51790D01*
X7138Y51637D01*
X7397Y51407D01*
X7500Y51138D01*
X7397Y50832D01*
X7087Y50563D01*
X6622Y50410D01*
X6105Y50372D01*
X5433Y50448D01*
X5072Y50563D01*
X4710Y50755D01*
X4452Y51023D01*
X4400Y51292D01*
X4503Y51560D01*
X4762Y51752D01*
G01X14183Y35500D02*
Y38600D01*
X15142D01*
X15448Y38445D01*
X15640Y38238D01*
X15717Y37825D01*
X15640Y37412D01*
X15410Y37153D01*
X15142Y36998D01*
X14183D01*
G01X15142D02*
X15717Y35500D01*
G01X18050D02*
Y38600D01*
X17590Y37980D01*
G01Y35500D02*
X18510D01*
G01X7500Y28633D02*
X4400D01*
Y29592D01*
X4555Y29898D01*
X4762Y30090D01*
X5175Y30167D01*
X5588Y30090D01*
X5847Y29860D01*
X6002Y29592D01*
Y28633D01*
G01Y29592D02*
X7500Y30167D01*
G01Y32500D02*
X4400D01*
X5020Y32040D01*
G01X7500D02*
Y32960D01*
G01Y35523D02*
X6828Y35600D01*
X6260Y35715D01*
X5743Y35868D01*
X5175Y36060D01*
X4400Y36367D01*
Y34833D01*
G01X5843Y56842D02*
X5613Y56997D01*
X5345Y57100D01*
X5038D01*
X4693Y56945D01*
X4425Y56687D01*
X4233Y56377D01*
X4080Y55860D01*
X4042Y55395D01*
X4118Y54930D01*
X4233Y54620D01*
X4463Y54310D01*
X4732Y54103D01*
X5000Y54000D01*
X5268D01*
X5537Y54103D01*
X5767Y54258D01*
X5958Y54465D01*
G01X2793Y81342D02*
X2563Y81497D01*
X2295Y81600D01*
X1988D01*
X1643Y81445D01*
X1375Y81187D01*
X1183Y80877D01*
X1030Y80360D01*
X992Y79895D01*
X1068Y79430D01*
X1183Y79120D01*
X1413Y78810D01*
X1682Y78603D01*
X1950Y78500D01*
X2218D01*
X2487Y78603D01*
X2717Y78758D01*
X2908Y78965D01*
G01X4322Y81083D02*
X4552Y81393D01*
X4820Y81548D01*
X5127Y81600D01*
X5510Y81497D01*
X5778Y81238D01*
X5855Y80928D01*
X5817Y80618D01*
X5663Y80360D01*
X4897Y79843D01*
X4552Y79482D01*
X4322Y78965D01*
X4245Y78500D01*
X5855D01*
G01X2793Y91342D02*
X2563Y91497D01*
X2295Y91600D01*
X1988D01*
X1643Y91445D01*
X1375Y91187D01*
X1183Y90877D01*
X1030Y90360D01*
X992Y89895D01*
X1068Y89430D01*
X1183Y89120D01*
X1413Y88810D01*
X1682Y88603D01*
X1950Y88500D01*
X2218D01*
X2487Y88603D01*
X2717Y88758D01*
X2908Y88965D01*
G01X4207Y89120D02*
X4437Y88758D01*
X4743Y88552D01*
X5088Y88500D01*
X5395Y88552D01*
X5702Y88810D01*
X5893Y89120D01*
X5932Y89430D01*
X5855Y89792D01*
X5587Y90050D01*
X5318Y90153D01*
X4973D01*
G01X5318D02*
X5548Y90308D01*
X5740Y90567D01*
X5817Y90877D01*
X5740Y91187D01*
X5548Y91445D01*
X5203Y91600D01*
X4858Y91548D01*
X4513Y91342D01*
G01X14183Y131930D02*
Y128830D01*
X15717D01*
G01X18050D02*
Y131930D01*
X17590Y131310D01*
G01Y128830D02*
X18510D01*
G01X39542Y13500D02*
X40500Y16600D01*
X41458Y13500D01*
G01X41113Y14585D02*
X39887D01*
G01X42683Y-6550D02*
Y-3450D01*
X43603D01*
X43910Y-3605D01*
X44140Y-3967D01*
X44217Y-4380D01*
X44140Y-4793D01*
X43948Y-5103D01*
X43603Y-5258D01*
X42683D01*
G01X46550Y-6550D02*
Y-3450D01*
X46090Y-4070D01*
G01Y-6550D02*
X47010D01*
G01X42658Y8743D02*
X42503Y8513D01*
X42400Y8245D01*
Y7938D01*
X42555Y7593D01*
X42813Y7325D01*
X43123Y7133D01*
X43640Y6980D01*
X44105Y6942D01*
X44570Y7018D01*
X44880Y7133D01*
X45190Y7363D01*
X45397Y7632D01*
X45500Y7900D01*
Y8168D01*
X45397Y8437D01*
X45242Y8667D01*
X45035Y8858D01*
G01X42917Y10272D02*
X42607Y10502D01*
X42452Y10770D01*
X42400Y11077D01*
X42503Y11460D01*
X42762Y11728D01*
X43072Y11805D01*
X43382Y11767D01*
X43640Y11613D01*
X44157Y10847D01*
X44518Y10502D01*
X45035Y10272D01*
X45500Y10195D01*
Y11805D01*
G01X42917Y13372D02*
X42607Y13602D01*
X42452Y13870D01*
X42400Y14177D01*
X42503Y14560D01*
X42762Y14828D01*
X43072Y14905D01*
X43382Y14867D01*
X43640Y14713D01*
X44157Y13947D01*
X44518Y13602D01*
X45035Y13372D01*
X45500Y13295D01*
Y14905D01*
G01Y17133D02*
X42400D01*
Y18092D01*
X42555Y18398D01*
X42762Y18590D01*
X43175Y18667D01*
X43588Y18590D01*
X43847Y18360D01*
X44002Y18092D01*
Y17133D01*
G01Y18092D02*
X45500Y18667D01*
G01X42917Y20272D02*
X42607Y20502D01*
X42452Y20770D01*
X42400Y21077D01*
X42503Y21460D01*
X42762Y21728D01*
X43072Y21805D01*
X43382Y21767D01*
X43640Y21613D01*
X44157Y20847D01*
X44518Y20502D01*
X45035Y20272D01*
X45500Y20195D01*
Y21805D01*
G01Y24100D02*
X45448Y24368D01*
X45293Y24675D01*
X45035Y24867D01*
X44673Y24943D01*
X44312Y24867D01*
X44002Y24637D01*
X43847Y24292D01*
Y23908D01*
X43743Y23678D01*
X43485Y23487D01*
X43123Y23410D01*
X42762Y23525D01*
X42503Y23793D01*
X42400Y24100D01*
X42503Y24407D01*
X42762Y24675D01*
X43123Y24790D01*
X43485Y24713D01*
X43743Y24522D01*
X43847Y24292D01*
Y23908D01*
X44002Y23563D01*
X44312Y23333D01*
X44673Y23257D01*
X45035Y23333D01*
X45293Y23525D01*
X45448Y23832D01*
X45500Y24100D01*
G01X41343Y25842D02*
X41113Y25997D01*
X40845Y26100D01*
X40538D01*
X40193Y25945D01*
X39925Y25687D01*
X39733Y25377D01*
X39580Y24860D01*
X39542Y24395D01*
X39618Y23930D01*
X39733Y23620D01*
X39963Y23310D01*
X40232Y23103D01*
X40500Y23000D01*
X40768D01*
X41037Y23103D01*
X41267Y23258D01*
X41458Y23465D01*
G01X26557Y30000D02*
Y33100D01*
X27323D01*
X27630Y32945D01*
X27860Y32738D01*
X28052Y32428D01*
X28205Y32067D01*
X28243Y31550D01*
X28205Y31033D01*
X28052Y30672D01*
X27860Y30362D01*
X27630Y30155D01*
X27323Y30000D01*
X26557D01*
G01X30500D02*
Y33100D01*
X30040Y32480D01*
G01Y30000D02*
X30960D01*
G01X32872Y32583D02*
X33102Y32893D01*
X33370Y33048D01*
X33677Y33100D01*
X34060Y32997D01*
X34328Y32738D01*
X34405Y32428D01*
X34367Y32118D01*
X34213Y31860D01*
X33447Y31343D01*
X33102Y30982D01*
X32872Y30465D01*
X32795Y30000D01*
X34405D01*
G01X38183Y41500D02*
Y44600D01*
X39142D01*
X39448Y44445D01*
X39640Y44238D01*
X39717Y43825D01*
X39640Y43412D01*
X39410Y43153D01*
X39142Y42998D01*
X38183D01*
G01X39142D02*
X39717Y41500D01*
G01X41322Y44083D02*
X41552Y44393D01*
X41820Y44548D01*
X42127Y44600D01*
X42510Y44497D01*
X42778Y44238D01*
X42855Y43928D01*
X42817Y43618D01*
X42663Y43360D01*
X41897Y42843D01*
X41552Y42482D01*
X41322Y41965D01*
X41245Y41500D01*
X42855D01*
G01X29293Y38342D02*
X29063Y38497D01*
X28795Y38600D01*
X28488D01*
X28143Y38445D01*
X27875Y38187D01*
X27683Y37877D01*
X27530Y37360D01*
X27492Y36895D01*
X27568Y36430D01*
X27683Y36120D01*
X27913Y35810D01*
X28182Y35603D01*
X28450Y35500D01*
X28718D01*
X28987Y35603D01*
X29217Y35758D01*
X29408Y35965D01*
G01X31550Y35500D02*
Y38600D01*
X31090Y37980D01*
G01Y35500D02*
X32010D01*
G01X18107Y68956D02*
Y66734D01*
X18260Y66269D01*
X18567Y65959D01*
X18950Y65856D01*
X19333Y65959D01*
X19640Y66269D01*
X19793Y66734D01*
Y68956D01*
G01X21207Y66476D02*
X21437Y66114D01*
X21743Y65908D01*
X22088Y65856D01*
X22395Y65908D01*
X22702Y66166D01*
X22893Y66476D01*
X22932Y66786D01*
X22855Y67148D01*
X22587Y67406D01*
X22318Y67509D01*
X21973D01*
G01X22318D02*
X22548Y67664D01*
X22740Y67923D01*
X22817Y68233D01*
X22740Y68543D01*
X22548Y68801D01*
X22203Y68956D01*
X21858Y68904D01*
X21513Y68698D01*
G01X42107Y68100D02*
Y65878D01*
X42260Y65413D01*
X42567Y65103D01*
X42950Y65000D01*
X43333Y65103D01*
X43640Y65413D01*
X43793Y65878D01*
Y68100D01*
G01X46050Y65000D02*
Y68100D01*
X45590Y67480D01*
G01Y65000D02*
X46510D01*
G01X33450Y95000D02*
X33143Y95052D01*
X32875Y95258D01*
X32645Y95568D01*
X32492Y95930D01*
X32415Y96343D01*
Y96757D01*
X32492Y97170D01*
X32645Y97532D01*
X32875Y97842D01*
X33143Y98048D01*
X33450Y98100D01*
X33757Y98048D01*
X34025Y97842D01*
X34255Y97532D01*
X34408Y97170D01*
X34485Y96757D01*
Y96343D01*
X34408Y95930D01*
X34255Y95568D01*
X34025Y95258D01*
X33757Y95052D01*
X33450Y95000D01*
G01X33757Y95827D02*
X34217Y95000D01*
G01X35822Y97583D02*
X36052Y97893D01*
X36320Y98048D01*
X36627Y98100D01*
X37010Y97997D01*
X37278Y97738D01*
X37355Y97428D01*
X37317Y97118D01*
X37163Y96860D01*
X36397Y96343D01*
X36052Y95982D01*
X35822Y95465D01*
X35745Y95000D01*
X37355D01*
G01X42293Y75842D02*
X42063Y75997D01*
X41795Y76100D01*
X41488D01*
X41143Y75945D01*
X40875Y75687D01*
X40683Y75377D01*
X40530Y74860D01*
X40492Y74395D01*
X40568Y73930D01*
X40683Y73620D01*
X40913Y73310D01*
X41182Y73103D01*
X41450Y73000D01*
X41718D01*
X41987Y73103D01*
X42217Y73258D01*
X42408Y73465D01*
G01X45010Y73000D02*
Y76100D01*
X43592Y73878D01*
X45508D01*
G01X19500Y180330D02*
Y183430D01*
X19040Y182810D01*
G01Y180330D02*
X19960D01*
G01X45000Y-2170D02*
Y930D01*
X44540Y310D01*
G01Y-2170D02*
X45460D01*
G01X65243Y32842D02*
X65013Y32997D01*
X64745Y33100D01*
X64438D01*
X64093Y32945D01*
X63825Y32687D01*
X63633Y32377D01*
X63480Y31860D01*
X63442Y31395D01*
X63518Y30930D01*
X63633Y30620D01*
X63863Y30310D01*
X64132Y30103D01*
X64400Y30000D01*
X64668D01*
X64937Y30103D01*
X65167Y30258D01*
X65358Y30465D01*
G01X66772Y32583D02*
X67002Y32893D01*
X67270Y33048D01*
X67577Y33100D01*
X67960Y32997D01*
X68228Y32738D01*
X68305Y32428D01*
X68267Y32118D01*
X68113Y31860D01*
X67347Y31343D01*
X67002Y30982D01*
X66772Y30465D01*
X66695Y30000D01*
X68305D01*
G01X70600Y33100D02*
X70293Y32997D01*
X70063Y32738D01*
X69910Y32428D01*
X69795Y32015D01*
X69757Y31550D01*
X69795Y31085D01*
X69910Y30672D01*
X70063Y30362D01*
X70293Y30103D01*
X70600Y30000D01*
X70907Y30103D01*
X71137Y30362D01*
X71290Y30672D01*
X71405Y31085D01*
X71443Y31550D01*
X71405Y32015D01*
X71290Y32428D01*
X71137Y32738D01*
X70907Y32997D01*
X70600Y33100D01*
G01X62500Y43633D02*
X59400D01*
Y44592D01*
X59555Y44898D01*
X59762Y45090D01*
X60175Y45167D01*
X60588Y45090D01*
X60847Y44860D01*
X61002Y44592D01*
Y43633D01*
G01Y44592D02*
X62500Y45167D01*
G01Y47500D02*
X59400D01*
X60020Y47040D01*
G01X62500D02*
Y47960D01*
G01X61880Y49757D02*
X62242Y49987D01*
X62448Y50293D01*
X62500Y50638D01*
X62448Y50945D01*
X62190Y51252D01*
X61880Y51443D01*
X61570Y51482D01*
X61208Y51405D01*
X60950Y51137D01*
X60847Y50868D01*
Y50523D01*
G01Y50868D02*
X60692Y51098D01*
X60433Y51290D01*
X60123Y51367D01*
X59813Y51290D01*
X59555Y51098D01*
X59400Y50753D01*
X59452Y50408D01*
X59658Y50063D01*
G01X47133Y28000D02*
Y31100D01*
X48092D01*
X48398Y30945D01*
X48590Y30738D01*
X48667Y30325D01*
X48590Y29912D01*
X48360Y29653D01*
X48092Y29498D01*
X47133D01*
G01X48092D02*
X48667Y28000D01*
G01X50272Y30583D02*
X50502Y30893D01*
X50770Y31048D01*
X51077Y31100D01*
X51460Y30997D01*
X51728Y30738D01*
X51805Y30428D01*
X51767Y30118D01*
X51613Y29860D01*
X50847Y29343D01*
X50502Y28982D01*
X50272Y28465D01*
X50195Y28000D01*
X51805D01*
G01X54023D02*
X54100Y28672D01*
X54215Y29240D01*
X54368Y29757D01*
X54560Y30325D01*
X54867Y31100D01*
X53333D01*
G01X49658Y61293D02*
X49503Y61063D01*
X49400Y60795D01*
Y60488D01*
X49555Y60143D01*
X49813Y59875D01*
X50123Y59683D01*
X50640Y59530D01*
X51105Y59492D01*
X51570Y59568D01*
X51880Y59683D01*
X52190Y59913D01*
X52397Y60182D01*
X52500Y60450D01*
Y60718D01*
X52397Y60987D01*
X52242Y61217D01*
X52035Y61408D01*
G01Y62707D02*
X52293Y62937D01*
X52448Y63205D01*
X52500Y63550D01*
X52397Y63895D01*
X52190Y64163D01*
X51828Y64355D01*
X51415Y64393D01*
X51002Y64317D01*
X50743Y64125D01*
X50537Y63857D01*
X50485Y63588D01*
X50537Y63320D01*
X50743Y62975D01*
X49400Y63090D01*
Y64125D01*
G01X61183Y59450D02*
Y62550D01*
X62142D01*
X62448Y62395D01*
X62640Y62188D01*
X62717Y61775D01*
X62640Y61362D01*
X62410Y61103D01*
X62142Y60948D01*
X61183D01*
G01X62142D02*
X62717Y59450D01*
G01X64207Y60070D02*
X64437Y59708D01*
X64743Y59502D01*
X65088Y59450D01*
X65395Y59502D01*
X65702Y59760D01*
X65893Y60070D01*
X65932Y60380D01*
X65855Y60742D01*
X65587Y61000D01*
X65318Y61103D01*
X64973D01*
G01X65318D02*
X65548Y61258D01*
X65740Y61517D01*
X65817Y61827D01*
X65740Y62137D01*
X65548Y62395D01*
X65203Y62550D01*
X64858Y62498D01*
X64513Y62292D01*
G01X65349Y82799D02*
X65119Y82954D01*
X64851Y83057D01*
X64544D01*
X64199Y82902D01*
X63931Y82644D01*
X63739Y82334D01*
X63586Y81817D01*
X63548Y81352D01*
X63624Y80887D01*
X63739Y80577D01*
X63969Y80267D01*
X64238Y80060D01*
X64506Y79957D01*
X64774D01*
X65043Y80060D01*
X65273Y80215D01*
X65464Y80422D01*
G01X67529Y79957D02*
X67606Y80629D01*
X67721Y81197D01*
X67874Y81714D01*
X68066Y82282D01*
X68373Y83057D01*
X66839D01*
G01X70107Y105950D02*
Y109050D01*
X70873D01*
X71180Y108895D01*
X71410Y108688D01*
X71602Y108378D01*
X71755Y108017D01*
X71793Y107500D01*
X71755Y106983D01*
X71602Y106622D01*
X71410Y106312D01*
X71180Y106105D01*
X70873Y105950D01*
X70107D01*
G01X73322Y108533D02*
X73552Y108843D01*
X73820Y108998D01*
X74127Y109050D01*
X74510Y108947D01*
X74778Y108688D01*
X74855Y108378D01*
X74817Y108068D01*
X74663Y107810D01*
X73897Y107293D01*
X73552Y106932D01*
X73322Y106415D01*
X73245Y105950D01*
X74855D01*
G01X55899Y122549D02*
X55669Y122704D01*
X55401Y122807D01*
X55094D01*
X54749Y122652D01*
X54481Y122394D01*
X54289Y122084D01*
X54136Y121567D01*
X54098Y121102D01*
X54174Y120637D01*
X54289Y120327D01*
X54519Y120017D01*
X54788Y119810D01*
X55056Y119707D01*
X55324D01*
X55593Y119810D01*
X55823Y119965D01*
X56014Y120172D01*
G01X57428Y120999D02*
X57696Y121360D01*
X57926Y121567D01*
X58233Y121670D01*
X58501Y121567D01*
X58693Y121360D01*
X58846Y121050D01*
X58884Y120689D01*
X58846Y120379D01*
X58693Y120069D01*
X58463Y119810D01*
X58194Y119707D01*
X57888Y119810D01*
X57619Y120120D01*
X57466Y120585D01*
X57428Y121102D01*
X57504Y121774D01*
X57619Y122135D01*
X57811Y122497D01*
X58079Y122755D01*
X58348Y122807D01*
X58616Y122704D01*
X58808Y122445D01*
G01X52607Y105450D02*
Y108550D01*
X53373D01*
X53680Y108395D01*
X53910Y108188D01*
X54102Y107878D01*
X54255Y107517D01*
X54293Y107000D01*
X54255Y106483D01*
X54102Y106122D01*
X53910Y105812D01*
X53680Y105605D01*
X53373Y105450D01*
X52607D01*
G01X56550D02*
Y108550D01*
X56090Y107930D01*
G01Y105450D02*
X57010D01*
G01X59683Y179500D02*
Y182600D01*
X60603D01*
X60910Y182445D01*
X61140Y182083D01*
X61217Y181670D01*
X61140Y181257D01*
X60948Y180947D01*
X60603Y180792D01*
X59683D01*
G01X62707Y180120D02*
X62937Y179758D01*
X63243Y179552D01*
X63588Y179500D01*
X63895Y179552D01*
X64202Y179810D01*
X64393Y180120D01*
X64432Y180430D01*
X64355Y180792D01*
X64087Y181050D01*
X63818Y181153D01*
X63473D01*
G01X63818D02*
X64048Y181308D01*
X64240Y181567D01*
X64317Y181877D01*
X64240Y182187D01*
X64048Y182445D01*
X63703Y182600D01*
X63358Y182548D01*
X63013Y182342D01*
G01X88058Y14643D02*
X87903Y14413D01*
X87800Y14145D01*
Y13838D01*
X87955Y13493D01*
X88213Y13225D01*
X88523Y13033D01*
X89040Y12880D01*
X89505Y12842D01*
X89970Y12918D01*
X90280Y13033D01*
X90590Y13263D01*
X90797Y13532D01*
X90900Y13800D01*
Y14068D01*
X90797Y14337D01*
X90642Y14567D01*
X90435Y14758D01*
G01X90900Y16900D02*
X87800D01*
X88420Y16440D01*
G01X90900D02*
Y17360D01*
G01X90280Y19157D02*
X90642Y19387D01*
X90848Y19693D01*
X90900Y20038D01*
X90848Y20345D01*
X90590Y20652D01*
X90280Y20843D01*
X89970Y20882D01*
X89608Y20805D01*
X89350Y20537D01*
X89247Y20268D01*
Y19923D01*
G01Y20268D02*
X89092Y20498D01*
X88833Y20690D01*
X88523Y20767D01*
X88213Y20690D01*
X87955Y20498D01*
X87800Y20153D01*
X87852Y19808D01*
X88058Y19463D01*
G01X90607Y10100D02*
Y7878D01*
X90760Y7413D01*
X91067Y7103D01*
X91450Y7000D01*
X91833Y7103D01*
X92140Y7413D01*
X92293Y7878D01*
Y10100D01*
G01X93707Y7465D02*
X93937Y7207D01*
X94205Y7052D01*
X94550Y7000D01*
X94895Y7103D01*
X95163Y7310D01*
X95355Y7672D01*
X95393Y8085D01*
X95317Y8498D01*
X95125Y8757D01*
X94857Y8963D01*
X94588Y9015D01*
X94320Y8963D01*
X93975Y8757D01*
X94090Y10100D01*
X95125D01*
G01X78500Y43633D02*
X75400D01*
Y44592D01*
X75555Y44898D01*
X75762Y45090D01*
X76175Y45167D01*
X76588Y45090D01*
X76847Y44860D01*
X77002Y44592D01*
Y43633D01*
G01Y44592D02*
X78500Y45167D01*
G01Y47500D02*
X75400D01*
X76020Y47040D01*
G01X78500D02*
Y47960D01*
G01X75917Y49872D02*
X75607Y50102D01*
X75452Y50370D01*
X75400Y50677D01*
X75503Y51060D01*
X75762Y51328D01*
X76072Y51405D01*
X76382Y51367D01*
X76640Y51213D01*
X77157Y50447D01*
X77518Y50102D01*
X78035Y49872D01*
X78500Y49795D01*
Y51405D01*
G01X75943Y59793D02*
Y62893D01*
X76902D01*
X77208Y62738D01*
X77400Y62531D01*
X77477Y62118D01*
X77400Y61705D01*
X77170Y61446D01*
X76902Y61291D01*
X75943D01*
G01X76902D02*
X77477Y59793D01*
G01X80270D02*
Y62893D01*
X78852Y60671D01*
X80768D01*
G01X91443Y59793D02*
Y62893D01*
X92402D01*
X92708Y62738D01*
X92900Y62531D01*
X92977Y62118D01*
X92900Y61705D01*
X92670Y61446D01*
X92402Y61291D01*
X91443D01*
G01X92402D02*
X92977Y59793D01*
G01X94467Y60258D02*
X94697Y60000D01*
X94965Y59845D01*
X95310Y59793D01*
X95655Y59896D01*
X95923Y60103D01*
X96115Y60465D01*
X96153Y60878D01*
X96077Y61291D01*
X95885Y61550D01*
X95617Y61756D01*
X95348Y61808D01*
X95080Y61756D01*
X94735Y61550D01*
X94850Y62893D01*
X95885D01*
G01X87107Y48600D02*
Y46378D01*
X87260Y45913D01*
X87567Y45603D01*
X87950Y45500D01*
X88333Y45603D01*
X88640Y45913D01*
X88793Y46378D01*
Y48600D01*
G01X90322Y48083D02*
X90552Y48393D01*
X90820Y48548D01*
X91127Y48600D01*
X91510Y48497D01*
X91778Y48238D01*
X91855Y47928D01*
X91817Y47618D01*
X91663Y47360D01*
X90897Y46843D01*
X90552Y46482D01*
X90322Y45965D01*
X90245Y45500D01*
X91855D01*
G01X84399Y83299D02*
X84169Y83454D01*
X83901Y83557D01*
X83594D01*
X83249Y83402D01*
X82981Y83144D01*
X82789Y82834D01*
X82636Y82317D01*
X82598Y81852D01*
X82674Y81387D01*
X82789Y81077D01*
X83019Y80767D01*
X83288Y80560D01*
X83556Y80457D01*
X83824D01*
X84093Y80560D01*
X84323Y80715D01*
X84514Y80922D01*
G01X86656Y80457D02*
Y83557D01*
X86196Y82937D01*
G01Y80457D02*
X87116D01*
G01X89756Y83557D02*
X89449Y83454D01*
X89219Y83195D01*
X89066Y82885D01*
X88951Y82472D01*
X88913Y82007D01*
X88951Y81542D01*
X89066Y81129D01*
X89219Y80819D01*
X89449Y80560D01*
X89756Y80457D01*
X90063Y80560D01*
X90293Y80819D01*
X90446Y81129D01*
X90561Y81542D01*
X90599Y82007D01*
X90561Y82472D01*
X90446Y82885D01*
X90293Y83195D01*
X90063Y83454D01*
X89756Y83557D01*
G01X89607Y105950D02*
Y109050D01*
X90373D01*
X90680Y108895D01*
X90910Y108688D01*
X91102Y108378D01*
X91255Y108017D01*
X91293Y107500D01*
X91255Y106983D01*
X91102Y106622D01*
X90910Y106312D01*
X90680Y106105D01*
X90373Y105950D01*
X89607D01*
G01X92707Y106570D02*
X92937Y106208D01*
X93243Y106002D01*
X93588Y105950D01*
X93895Y106002D01*
X94202Y106260D01*
X94393Y106570D01*
X94432Y106880D01*
X94355Y107242D01*
X94087Y107500D01*
X93818Y107603D01*
X93473D01*
G01X93818D02*
X94048Y107758D01*
X94240Y108017D01*
X94317Y108327D01*
X94240Y108637D01*
X94048Y108895D01*
X93703Y109050D01*
X93358Y108998D01*
X93013Y108792D01*
G01X75699Y122549D02*
X75469Y122704D01*
X75201Y122807D01*
X74894D01*
X74549Y122652D01*
X74281Y122394D01*
X74089Y122084D01*
X73936Y121567D01*
X73898Y121102D01*
X73974Y120637D01*
X74089Y120327D01*
X74319Y120017D01*
X74588Y119810D01*
X74856Y119707D01*
X75124D01*
X75393Y119810D01*
X75623Y119965D01*
X75814Y120172D01*
G01X77956Y119707D02*
X78224Y119759D01*
X78531Y119914D01*
X78723Y120172D01*
X78799Y120534D01*
X78723Y120895D01*
X78493Y121205D01*
X78148Y121360D01*
X77764D01*
X77534Y121464D01*
X77343Y121722D01*
X77266Y122084D01*
X77381Y122445D01*
X77649Y122704D01*
X77956Y122807D01*
X78263Y122704D01*
X78531Y122445D01*
X78646Y122084D01*
X78569Y121722D01*
X78378Y121464D01*
X78148Y121360D01*
X77764D01*
X77419Y121205D01*
X77189Y120895D01*
X77113Y120534D01*
X77189Y120172D01*
X77381Y119914D01*
X77688Y119759D01*
X77956Y119707D01*
G01X93899Y122549D02*
X93669Y122704D01*
X93401Y122807D01*
X93094D01*
X92749Y122652D01*
X92481Y122394D01*
X92289Y122084D01*
X92136Y121567D01*
X92098Y121102D01*
X92174Y120637D01*
X92289Y120327D01*
X92519Y120017D01*
X92788Y119810D01*
X93056Y119707D01*
X93324D01*
X93593Y119810D01*
X93823Y119965D01*
X94014Y120172D01*
G01X96156Y119707D02*
Y122807D01*
X95696Y122187D01*
G01Y119707D02*
X96616D01*
G01X99256D02*
Y122807D01*
X98796Y122187D01*
G01Y119707D02*
X99716D01*
G01X122950Y24500D02*
X122643Y24552D01*
X122375Y24758D01*
X122145Y25068D01*
X121992Y25430D01*
X121915Y25843D01*
Y26257D01*
X121992Y26670D01*
X122145Y27032D01*
X122375Y27342D01*
X122643Y27548D01*
X122950Y27600D01*
X123257Y27548D01*
X123525Y27342D01*
X123755Y27032D01*
X123908Y26670D01*
X123985Y26257D01*
Y25843D01*
X123908Y25430D01*
X123755Y25068D01*
X123525Y24758D01*
X123257Y24552D01*
X122950Y24500D01*
G01X123257Y25327D02*
X123717Y24500D01*
G01X125207Y25120D02*
X125437Y24758D01*
X125743Y24552D01*
X126088Y24500D01*
X126395Y24552D01*
X126702Y24810D01*
X126893Y25120D01*
X126932Y25430D01*
X126855Y25792D01*
X126587Y26050D01*
X126318Y26153D01*
X125973D01*
G01X126318D02*
X126548Y26308D01*
X126740Y26567D01*
X126817Y26877D01*
X126740Y27187D01*
X126548Y27445D01*
X126203Y27600D01*
X125858Y27548D01*
X125513Y27342D01*
G01X105658Y31743D02*
X105503Y31513D01*
X105400Y31245D01*
Y30938D01*
X105555Y30593D01*
X105813Y30325D01*
X106123Y30133D01*
X106640Y29980D01*
X107105Y29942D01*
X107570Y30018D01*
X107880Y30133D01*
X108190Y30363D01*
X108397Y30632D01*
X108500Y30900D01*
Y31168D01*
X108397Y31437D01*
X108242Y31667D01*
X108035Y31858D01*
G01X108500Y34000D02*
X105400D01*
X106020Y33540D01*
G01X108500D02*
Y34460D01*
G01Y37100D02*
X108448Y37368D01*
X108293Y37675D01*
X108035Y37867D01*
X107673Y37943D01*
X107312Y37867D01*
X107002Y37637D01*
X106847Y37292D01*
Y36908D01*
X106743Y36678D01*
X106485Y36487D01*
X106123Y36410D01*
X105762Y36525D01*
X105503Y36793D01*
X105400Y37100D01*
X105503Y37407D01*
X105762Y37675D01*
X106123Y37790D01*
X106485Y37713D01*
X106743Y37522D01*
X106847Y37292D01*
Y36908D01*
X107002Y36563D01*
X107312Y36333D01*
X107673Y36257D01*
X108035Y36333D01*
X108293Y36525D01*
X108448Y36832D01*
X108500Y37100D01*
G01X111658Y44293D02*
X111503Y44063D01*
X111400Y43795D01*
Y43488D01*
X111555Y43143D01*
X111813Y42875D01*
X112123Y42683D01*
X112640Y42530D01*
X113105Y42492D01*
X113570Y42568D01*
X113880Y42683D01*
X114190Y42913D01*
X114397Y43182D01*
X114500Y43450D01*
Y43718D01*
X114397Y43987D01*
X114242Y44217D01*
X114035Y44408D01*
G01X114138Y45898D02*
X114397Y46167D01*
X114500Y46473D01*
X114397Y46780D01*
X114087Y47048D01*
X113622Y47240D01*
X113157Y47317D01*
X112588D01*
X112123Y47240D01*
X111710Y47048D01*
X111503Y46818D01*
X111400Y46550D01*
X111503Y46243D01*
X111710Y46013D01*
X112020Y45860D01*
X112433Y45783D01*
X112795Y45860D01*
X113157Y46052D01*
X113363Y46282D01*
X113415Y46550D01*
X113312Y46857D01*
X113053Y47087D01*
X112588Y47317D01*
G01X118683Y36000D02*
Y39100D01*
X119642D01*
X119948Y38945D01*
X120140Y38738D01*
X120217Y38325D01*
X120140Y37912D01*
X119910Y37653D01*
X119642Y37498D01*
X118683D01*
G01X119642D02*
X120217Y36000D01*
G01X122550D02*
X122818Y36052D01*
X123125Y36207D01*
X123317Y36465D01*
X123393Y36827D01*
X123317Y37188D01*
X123087Y37498D01*
X122742Y37653D01*
X122358D01*
X122128Y37757D01*
X121937Y38015D01*
X121860Y38377D01*
X121975Y38738D01*
X122243Y38997D01*
X122550Y39100D01*
X122857Y38997D01*
X123125Y38738D01*
X123240Y38377D01*
X123163Y38015D01*
X122972Y37757D01*
X122742Y37653D01*
X122358D01*
X122013Y37498D01*
X121783Y37188D01*
X121707Y36827D01*
X121783Y36465D01*
X121975Y36207D01*
X122282Y36052D01*
X122550Y36000D01*
G01X104500Y30133D02*
X101400D01*
Y31092D01*
X101555Y31398D01*
X101762Y31590D01*
X102175Y31667D01*
X102588Y31590D01*
X102847Y31360D01*
X103002Y31092D01*
Y30133D01*
G01Y31092D02*
X104500Y31667D01*
G01Y34000D02*
X101400D01*
X102020Y33540D01*
G01X104500D02*
Y34460D01*
G01X103208Y36372D02*
X102847Y36640D01*
X102640Y36870D01*
X102537Y37177D01*
X102640Y37445D01*
X102847Y37637D01*
X103157Y37790D01*
X103518Y37828D01*
X103828Y37790D01*
X104138Y37637D01*
X104397Y37407D01*
X104500Y37138D01*
X104397Y36832D01*
X104087Y36563D01*
X103622Y36410D01*
X103105Y36372D01*
X102433Y36448D01*
X102072Y36563D01*
X101710Y36755D01*
X101452Y37023D01*
X101400Y37292D01*
X101503Y37560D01*
X101762Y37752D01*
G01X103133Y61000D02*
Y64100D01*
X104092D01*
X104398Y63945D01*
X104590Y63738D01*
X104667Y63325D01*
X104590Y62912D01*
X104360Y62653D01*
X104092Y62498D01*
X103133D01*
G01X104092D02*
X104667Y61000D01*
G01X106272Y63583D02*
X106502Y63893D01*
X106770Y64048D01*
X107077Y64100D01*
X107460Y63997D01*
X107728Y63738D01*
X107805Y63428D01*
X107767Y63118D01*
X107613Y62860D01*
X106847Y62343D01*
X106502Y61982D01*
X106272Y61465D01*
X106195Y61000D01*
X107805D01*
G01X110100Y64100D02*
X109793Y63997D01*
X109563Y63738D01*
X109410Y63428D01*
X109295Y63015D01*
X109257Y62550D01*
X109295Y62085D01*
X109410Y61672D01*
X109563Y61362D01*
X109793Y61103D01*
X110100Y61000D01*
X110407Y61103D01*
X110637Y61362D01*
X110790Y61672D01*
X110905Y62085D01*
X110943Y62550D01*
X110905Y63015D01*
X110790Y63428D01*
X110637Y63738D01*
X110407Y63997D01*
X110100Y64100D01*
G01X119683Y61000D02*
Y64100D01*
X120642D01*
X120948Y63945D01*
X121140Y63738D01*
X121217Y63325D01*
X121140Y62912D01*
X120910Y62653D01*
X120642Y62498D01*
X119683D01*
G01X120642D02*
X121217Y61000D01*
G01X123473D02*
X123550Y61672D01*
X123665Y62240D01*
X123818Y62757D01*
X124010Y63325D01*
X124317Y64100D01*
X122783D01*
G01X123811Y82799D02*
X123581Y82954D01*
X123313Y83057D01*
X123006D01*
X122661Y82902D01*
X122393Y82644D01*
X122201Y82334D01*
X122048Y81817D01*
X122010Y81352D01*
X122086Y80887D01*
X122201Y80577D01*
X122431Y80267D01*
X122700Y80060D01*
X122968Y79957D01*
X123236D01*
X123505Y80060D01*
X123735Y80215D01*
X123926Y80422D01*
G01X126068Y79957D02*
Y83057D01*
X125608Y82437D01*
G01Y79957D02*
X126528D01*
G01X128325Y80422D02*
X128555Y80164D01*
X128823Y80009D01*
X129168Y79957D01*
X129513Y80060D01*
X129781Y80267D01*
X129973Y80629D01*
X130011Y81042D01*
X129935Y81455D01*
X129743Y81714D01*
X129475Y81920D01*
X129206Y81972D01*
X128938Y81920D01*
X128593Y81714D01*
X128708Y83057D01*
X129743D01*
G01X102599Y82799D02*
X102369Y82954D01*
X102101Y83057D01*
X101794D01*
X101449Y82902D01*
X101181Y82644D01*
X100989Y82334D01*
X100836Y81817D01*
X100798Y81352D01*
X100874Y80887D01*
X100989Y80577D01*
X101219Y80267D01*
X101488Y80060D01*
X101756Y79957D01*
X102024D01*
X102293Y80060D01*
X102523Y80215D01*
X102714Y80422D01*
G01X104856Y79957D02*
Y83057D01*
X104396Y82437D01*
G01Y79957D02*
X105316D01*
G01X107228Y82540D02*
X107458Y82850D01*
X107726Y83005D01*
X108033Y83057D01*
X108416Y82954D01*
X108684Y82695D01*
X108761Y82385D01*
X108723Y82075D01*
X108569Y81817D01*
X107803Y81300D01*
X107458Y80939D01*
X107228Y80422D01*
X107151Y79957D01*
X108761D01*
G01X109107Y105950D02*
Y109050D01*
X109873D01*
X110180Y108895D01*
X110410Y108688D01*
X110602Y108378D01*
X110755Y108017D01*
X110793Y107500D01*
X110755Y106983D01*
X110602Y106622D01*
X110410Y106312D01*
X110180Y106105D01*
X109873Y105950D01*
X109107D01*
G01X113510D02*
Y109050D01*
X112092Y106828D01*
X114008D01*
G01X113649Y122549D02*
X113419Y122704D01*
X113151Y122807D01*
X112844D01*
X112499Y122652D01*
X112231Y122394D01*
X112039Y122084D01*
X111886Y121567D01*
X111848Y121102D01*
X111924Y120637D01*
X112039Y120327D01*
X112269Y120017D01*
X112538Y119810D01*
X112806Y119707D01*
X113074D01*
X113343Y119810D01*
X113573Y119965D01*
X113764Y120172D01*
G01X115906Y119707D02*
Y122807D01*
X115446Y122187D01*
G01Y119707D02*
X116366D01*
G01X119466D02*
Y122807D01*
X118048Y120585D01*
X119964D01*
G01X107450Y178330D02*
Y181430D01*
X106990Y180810D01*
G01Y178330D02*
X107910D01*
G01X110550Y181430D02*
X110243Y181327D01*
X110013Y181068D01*
X109860Y180758D01*
X109745Y180345D01*
X109707Y179880D01*
X109745Y179415D01*
X109860Y179002D01*
X110013Y178692D01*
X110243Y178433D01*
X110550Y178330D01*
X110857Y178433D01*
X111087Y178692D01*
X111240Y179002D01*
X111355Y179415D01*
X111393Y179880D01*
X111355Y180345D01*
X111240Y180758D01*
X111087Y181068D01*
X110857Y181327D01*
X110550Y181430D01*
G01X118000Y179830D02*
Y182930D01*
X117540Y182310D01*
G01Y179830D02*
X118460D01*
G01X143450Y13000D02*
X143143Y13052D01*
X142875Y13258D01*
X142645Y13568D01*
X142492Y13930D01*
X142415Y14343D01*
Y14757D01*
X142492Y15170D01*
X142645Y15532D01*
X142875Y15842D01*
X143143Y16048D01*
X143450Y16100D01*
X143757Y16048D01*
X144025Y15842D01*
X144255Y15532D01*
X144408Y15170D01*
X144485Y14757D01*
Y14343D01*
X144408Y13930D01*
X144255Y13568D01*
X144025Y13258D01*
X143757Y13052D01*
X143450Y13000D01*
G01X143757Y13827D02*
X144217Y13000D01*
G01X146550D02*
Y16100D01*
X146090Y15480D01*
G01Y13000D02*
X147010D01*
G01X134000Y-5500D02*
X134268Y-5448D01*
X134575Y-5293D01*
X134767Y-5035D01*
X134843Y-4673D01*
X134767Y-4312D01*
X134537Y-4002D01*
X134192Y-3847D01*
X133808D01*
X133578Y-3743D01*
X133387Y-3485D01*
X133310Y-3123D01*
X133425Y-2762D01*
X133693Y-2503D01*
X134000Y-2400D01*
X134307Y-2503D01*
X134575Y-2762D01*
X134690Y-3123D01*
X134613Y-3485D01*
X134422Y-3743D01*
X134192Y-3847D01*
X133808D01*
X133463Y-4002D01*
X133233Y-4312D01*
X133157Y-4673D01*
X133233Y-5035D01*
X133425Y-5293D01*
X133732Y-5448D01*
X134000Y-5500D01*
G01X136000Y-1367D02*
X132900D01*
Y-408D01*
X133055Y-102D01*
X133262Y90D01*
X133675Y167D01*
X134088Y90D01*
X134347Y-140D01*
X134502Y-408D01*
Y-1367D01*
G01Y-408D02*
X136000Y167D01*
G01X133417Y1772D02*
X133107Y2002D01*
X132952Y2270D01*
X132900Y2577D01*
X133003Y2960D01*
X133262Y3228D01*
X133572Y3305D01*
X133882Y3267D01*
X134140Y3113D01*
X134657Y2347D01*
X135018Y2002D01*
X135535Y1772D01*
X136000Y1695D01*
Y3305D01*
G01X135638Y4948D02*
X135897Y5217D01*
X136000Y5523D01*
X135897Y5830D01*
X135587Y6098D01*
X135122Y6290D01*
X134657Y6367D01*
X134088D01*
X133623Y6290D01*
X133210Y6098D01*
X133003Y5868D01*
X132900Y5600D01*
X133003Y5293D01*
X133210Y5063D01*
X133520Y4910D01*
X133933Y4833D01*
X134295Y4910D01*
X134657Y5102D01*
X134863Y5332D01*
X134915Y5600D01*
X134812Y5907D01*
X134553Y6137D01*
X134088Y6367D01*
G01X137000Y32133D02*
X133900D01*
Y33092D01*
X134055Y33398D01*
X134262Y33590D01*
X134675Y33667D01*
X135088Y33590D01*
X135347Y33360D01*
X135502Y33092D01*
Y32133D01*
G01Y33092D02*
X137000Y33667D01*
G01Y36000D02*
X133900D01*
X134520Y35540D01*
G01X137000D02*
Y36460D01*
G01Y39100D02*
X133900D01*
X134520Y38640D01*
G01X137000D02*
Y39560D01*
G01X127500Y43633D02*
X124400D01*
Y44592D01*
X124555Y44898D01*
X124762Y45090D01*
X125175Y45167D01*
X125588Y45090D01*
X125847Y44860D01*
X126002Y44592D01*
Y43633D01*
G01Y44592D02*
X127500Y45167D01*
G01Y47500D02*
X124400D01*
X125020Y47040D01*
G01X127500D02*
Y47960D01*
G01X124400Y50600D02*
X124503Y50293D01*
X124762Y50063D01*
X125072Y49910D01*
X125485Y49795D01*
X125950Y49757D01*
X126415Y49795D01*
X126828Y49910D01*
X127138Y50063D01*
X127397Y50293D01*
X127500Y50600D01*
X127397Y50907D01*
X127138Y51137D01*
X126828Y51290D01*
X126415Y51405D01*
X125950Y51443D01*
X125485Y51405D01*
X125072Y51290D01*
X124762Y51137D01*
X124503Y50907D01*
X124400Y50600D01*
G01X143895Y66500D02*
Y69600D01*
G01X145505D02*
Y66500D01*
G01Y68050D02*
X143895D01*
G01X146842Y69600D02*
X147800Y66500D01*
X148758Y69600D01*
G01X153042D02*
X154000Y66500D01*
X154958Y69600D01*
G01X157100Y66500D02*
X156793Y66552D01*
X156525Y66758D01*
X156295Y67068D01*
X156142Y67430D01*
X156065Y67843D01*
Y68257D01*
X156142Y68670D01*
X156295Y69032D01*
X156525Y69342D01*
X156793Y69548D01*
X157100Y69600D01*
X157407Y69548D01*
X157675Y69342D01*
X157905Y69032D01*
X158058Y68670D01*
X158135Y68257D01*
Y67843D01*
X158058Y67430D01*
X157905Y67068D01*
X157675Y66758D01*
X157407Y66552D01*
X157100Y66500D01*
G01X159357Y69600D02*
Y67378D01*
X159510Y66913D01*
X159817Y66603D01*
X160200Y66500D01*
X160583Y66603D01*
X160890Y66913D01*
X161043Y67378D01*
Y69600D01*
G01X163300D02*
Y66500D01*
G01X162418Y69600D02*
X164182D01*
G01X144292Y61000D02*
X145250Y64100D01*
X146208Y61000D01*
G01X145863Y62085D02*
X144637D01*
G01X147507Y61000D02*
Y64100D01*
X148273D01*
X148580Y63945D01*
X148810Y63738D01*
X149002Y63428D01*
X149155Y63067D01*
X149193Y62550D01*
X149155Y62033D01*
X149002Y61672D01*
X148810Y61362D01*
X148580Y61155D01*
X148273Y61000D01*
X147507D01*
G01X150683Y61620D02*
X150875Y61310D01*
X151105Y61103D01*
X151373Y61000D01*
X151680Y61103D01*
X151910Y61310D01*
X152140Y61620D01*
X152217Y62033D01*
Y64100D01*
G01X153707D02*
Y61878D01*
X153860Y61413D01*
X154167Y61103D01*
X154550Y61000D01*
X154933Y61103D01*
X155240Y61413D01*
X155393Y61878D01*
Y64100D01*
G01X156845Y61413D02*
X157152Y61155D01*
X157497Y61000D01*
X157803D01*
X158110Y61155D01*
X158340Y61413D01*
X158455Y61775D01*
X158378Y62137D01*
X158187Y62447D01*
X157842Y62653D01*
X157382Y62757D01*
X157113Y62963D01*
X156998Y63325D01*
X157075Y63687D01*
X157267Y63945D01*
X157535Y64100D01*
X157803D01*
X158072Y63997D01*
X158302Y63738D01*
G01X160750Y64100D02*
Y61000D01*
G01X159868Y64100D02*
X161632D01*
G01X131683Y55000D02*
Y58100D01*
X132642D01*
X132948Y57945D01*
X133140Y57738D01*
X133217Y57325D01*
X133140Y56912D01*
X132910Y56653D01*
X132642Y56498D01*
X131683D01*
G01X132642D02*
X133217Y55000D01*
G01X134898Y55362D02*
X135167Y55103D01*
X135473Y55000D01*
X135780Y55103D01*
X136048Y55413D01*
X136240Y55878D01*
X136317Y56343D01*
Y56912D01*
X136240Y57377D01*
X136048Y57790D01*
X135818Y57997D01*
X135550Y58100D01*
X135243Y57997D01*
X135013Y57790D01*
X134860Y57480D01*
X134783Y57067D01*
X134860Y56705D01*
X135052Y56343D01*
X135282Y56137D01*
X135550Y56085D01*
X135857Y56188D01*
X136087Y56447D01*
X136317Y56912D01*
G01X142499Y82799D02*
X142269Y82954D01*
X142001Y83057D01*
X141694D01*
X141349Y82902D01*
X141081Y82644D01*
X140889Y82334D01*
X140736Y81817D01*
X140698Y81352D01*
X140774Y80887D01*
X140889Y80577D01*
X141119Y80267D01*
X141388Y80060D01*
X141656Y79957D01*
X141924D01*
X142193Y80060D01*
X142423Y80215D01*
X142614Y80422D01*
G01X144756Y79957D02*
Y83057D01*
X144296Y82437D01*
G01Y79957D02*
X145216D01*
G01X147779D02*
X147856Y80629D01*
X147971Y81197D01*
X148124Y81714D01*
X148316Y82282D01*
X148623Y83057D01*
X147089D01*
G01X148107Y105950D02*
Y109050D01*
X148873D01*
X149180Y108895D01*
X149410Y108688D01*
X149602Y108378D01*
X149755Y108017D01*
X149793Y107500D01*
X149755Y106983D01*
X149602Y106622D01*
X149410Y106312D01*
X149180Y106105D01*
X148873Y105950D01*
X148107D01*
G01X151322Y107242D02*
X151590Y107603D01*
X151820Y107810D01*
X152127Y107913D01*
X152395Y107810D01*
X152587Y107603D01*
X152740Y107293D01*
X152778Y106932D01*
X152740Y106622D01*
X152587Y106312D01*
X152357Y106053D01*
X152088Y105950D01*
X151782Y106053D01*
X151513Y106363D01*
X151360Y106828D01*
X151322Y107345D01*
X151398Y108017D01*
X151513Y108378D01*
X151705Y108740D01*
X151973Y108998D01*
X152242Y109050D01*
X152510Y108947D01*
X152702Y108688D01*
G01X128607Y105950D02*
Y109050D01*
X129373D01*
X129680Y108895D01*
X129910Y108688D01*
X130102Y108378D01*
X130255Y108017D01*
X130293Y107500D01*
X130255Y106983D01*
X130102Y106622D01*
X129910Y106312D01*
X129680Y106105D01*
X129373Y105950D01*
X128607D01*
G01X131707Y106415D02*
X131937Y106157D01*
X132205Y106002D01*
X132550Y105950D01*
X132895Y106053D01*
X133163Y106260D01*
X133355Y106622D01*
X133393Y107035D01*
X133317Y107448D01*
X133125Y107707D01*
X132857Y107913D01*
X132588Y107965D01*
X132320Y107913D01*
X131975Y107707D01*
X132090Y109050D01*
X133125D01*
G01X133399Y122549D02*
X133169Y122704D01*
X132901Y122807D01*
X132594D01*
X132249Y122652D01*
X131981Y122394D01*
X131789Y122084D01*
X131636Y121567D01*
X131598Y121102D01*
X131674Y120637D01*
X131789Y120327D01*
X132019Y120017D01*
X132288Y119810D01*
X132556Y119707D01*
X132824D01*
X133093Y119810D01*
X133323Y119965D01*
X133514Y120172D01*
G01X135656Y119707D02*
Y122807D01*
X135196Y122187D01*
G01Y119707D02*
X136116D01*
G01X138028Y120999D02*
X138296Y121360D01*
X138526Y121567D01*
X138833Y121670D01*
X139101Y121567D01*
X139293Y121360D01*
X139446Y121050D01*
X139484Y120689D01*
X139446Y120379D01*
X139293Y120069D01*
X139063Y119810D01*
X138794Y119707D01*
X138488Y119810D01*
X138219Y120120D01*
X138066Y120585D01*
X138028Y121102D01*
X138104Y121774D01*
X138219Y122135D01*
X138411Y122497D01*
X138679Y122755D01*
X138948Y122807D01*
X139216Y122704D01*
X139408Y122445D01*
G01X168633Y13500D02*
Y16600D01*
X169592D01*
X169898Y16445D01*
X170090Y16238D01*
X170167Y15825D01*
X170090Y15412D01*
X169860Y15153D01*
X169592Y14998D01*
X168633D01*
G01X169592D02*
X170167Y13500D01*
G01X171657Y14120D02*
X171887Y13758D01*
X172193Y13552D01*
X172538Y13500D01*
X172845Y13552D01*
X173152Y13810D01*
X173343Y14120D01*
X173382Y14430D01*
X173305Y14792D01*
X173037Y15050D01*
X172768Y15153D01*
X172423D01*
G01X172768D02*
X172998Y15308D01*
X173190Y15567D01*
X173267Y15877D01*
X173190Y16187D01*
X172998Y16445D01*
X172653Y16600D01*
X172308Y16548D01*
X171963Y16342D01*
G01X175600Y13500D02*
Y16600D01*
X175140Y15980D01*
G01Y13500D02*
X176060D01*
G01X153133Y13000D02*
Y16100D01*
X154092D01*
X154398Y15945D01*
X154590Y15738D01*
X154667Y15325D01*
X154590Y14912D01*
X154360Y14653D01*
X154092Y14498D01*
X153133D01*
G01X154092D02*
X154667Y13000D01*
G01X156157Y13620D02*
X156387Y13258D01*
X156693Y13052D01*
X157038Y13000D01*
X157345Y13052D01*
X157652Y13310D01*
X157843Y13620D01*
X157882Y13930D01*
X157805Y14292D01*
X157537Y14550D01*
X157268Y14653D01*
X156923D01*
G01X157268D02*
X157498Y14808D01*
X157690Y15067D01*
X157767Y15377D01*
X157690Y15687D01*
X157498Y15945D01*
X157153Y16100D01*
X156808Y16048D01*
X156463Y15842D01*
G01X160100Y16100D02*
X159793Y15997D01*
X159563Y15738D01*
X159410Y15428D01*
X159295Y15015D01*
X159257Y14550D01*
X159295Y14085D01*
X159410Y13672D01*
X159563Y13362D01*
X159793Y13103D01*
X160100Y13000D01*
X160407Y13103D01*
X160637Y13362D01*
X160790Y13672D01*
X160905Y14085D01*
X160943Y14550D01*
X160905Y15015D01*
X160790Y15428D01*
X160637Y15738D01*
X160407Y15997D01*
X160100Y16100D01*
G01X178450Y35000D02*
X178143Y35052D01*
X177875Y35258D01*
X177645Y35568D01*
X177492Y35930D01*
X177415Y36343D01*
Y36757D01*
X177492Y37170D01*
X177645Y37532D01*
X177875Y37842D01*
X178143Y38048D01*
X178450Y38100D01*
X178757Y38048D01*
X179025Y37842D01*
X179255Y37532D01*
X179408Y37170D01*
X179485Y36757D01*
Y36343D01*
X179408Y35930D01*
X179255Y35568D01*
X179025Y35258D01*
X178757Y35052D01*
X178450Y35000D01*
G01X178757Y35827D02*
X179217Y35000D01*
G01X180707Y35465D02*
X180937Y35207D01*
X181205Y35052D01*
X181550Y35000D01*
X181895Y35103D01*
X182163Y35310D01*
X182355Y35672D01*
X182393Y36085D01*
X182317Y36498D01*
X182125Y36757D01*
X181857Y36963D01*
X181588Y37015D01*
X181320Y36963D01*
X180975Y36757D01*
X181090Y38100D01*
X182125D01*
G01X170450Y30500D02*
X170143Y30552D01*
X169875Y30758D01*
X169645Y31068D01*
X169492Y31430D01*
X169415Y31843D01*
Y32257D01*
X169492Y32670D01*
X169645Y33032D01*
X169875Y33342D01*
X170143Y33548D01*
X170450Y33600D01*
X170757Y33548D01*
X171025Y33342D01*
X171255Y33032D01*
X171408Y32670D01*
X171485Y32257D01*
Y31843D01*
X171408Y31430D01*
X171255Y31068D01*
X171025Y30758D01*
X170757Y30552D01*
X170450Y30500D01*
G01X170757Y31327D02*
X171217Y30500D01*
G01X174010D02*
Y33600D01*
X172592Y31378D01*
X174508D01*
G01X154803Y29252D02*
X151703D01*
X152323Y28792D01*
G01X154803D02*
Y29712D01*
G01X176683Y42000D02*
Y45100D01*
X177642D01*
X177948Y44945D01*
X178140Y44738D01*
X178217Y44325D01*
X178140Y43912D01*
X177910Y43653D01*
X177642Y43498D01*
X176683D01*
G01X177642D02*
X178217Y42000D01*
G01X179822Y43292D02*
X180090Y43653D01*
X180320Y43860D01*
X180627Y43963D01*
X180895Y43860D01*
X181087Y43653D01*
X181240Y43343D01*
X181278Y42982D01*
X181240Y42672D01*
X181087Y42362D01*
X180857Y42103D01*
X180588Y42000D01*
X180282Y42103D01*
X180013Y42413D01*
X179860Y42878D01*
X179822Y43395D01*
X179898Y44067D01*
X180013Y44428D01*
X180205Y44790D01*
X180473Y45048D01*
X180742Y45100D01*
X181010Y44997D01*
X181202Y44738D01*
G01X176133Y29500D02*
Y32600D01*
X177092D01*
X177398Y32445D01*
X177590Y32238D01*
X177667Y31825D01*
X177590Y31412D01*
X177360Y31153D01*
X177092Y30998D01*
X176133D01*
G01X177092D02*
X177667Y29500D01*
G01X179157Y30120D02*
X179387Y29758D01*
X179693Y29552D01*
X180038Y29500D01*
X180345Y29552D01*
X180652Y29810D01*
X180843Y30120D01*
X180882Y30430D01*
X180805Y30792D01*
X180537Y31050D01*
X180268Y31153D01*
X179923D01*
G01X180268D02*
X180498Y31308D01*
X180690Y31567D01*
X180767Y31877D01*
X180690Y32187D01*
X180498Y32445D01*
X180153Y32600D01*
X179808Y32548D01*
X179463Y32342D01*
G01X182372Y32083D02*
X182602Y32393D01*
X182870Y32548D01*
X183177Y32600D01*
X183560Y32497D01*
X183828Y32238D01*
X183905Y31928D01*
X183867Y31618D01*
X183713Y31360D01*
X182947Y30843D01*
X182602Y30482D01*
X182372Y29965D01*
X182295Y29500D01*
X183905D01*
G01X170343Y63342D02*
X170113Y63497D01*
X169845Y63600D01*
X169538D01*
X169193Y63445D01*
X168925Y63187D01*
X168733Y62877D01*
X168580Y62360D01*
X168542Y61895D01*
X168618Y61430D01*
X168733Y61120D01*
X168963Y60810D01*
X169232Y60603D01*
X169500Y60500D01*
X169768D01*
X170037Y60603D01*
X170267Y60758D01*
X170458Y60965D01*
G01X174057Y56000D02*
Y59100D01*
X174823D01*
X175130Y58945D01*
X175360Y58738D01*
X175552Y58428D01*
X175705Y58067D01*
X175743Y57550D01*
X175705Y57033D01*
X175552Y56672D01*
X175360Y56362D01*
X175130Y56155D01*
X174823Y56000D01*
X174057D01*
G01X177195Y56413D02*
X177502Y56155D01*
X177847Y56000D01*
X178153D01*
X178460Y56155D01*
X178690Y56413D01*
X178805Y56775D01*
X178728Y57137D01*
X178537Y57447D01*
X178192Y57653D01*
X177732Y57757D01*
X177463Y57963D01*
X177348Y58325D01*
X177425Y58687D01*
X177617Y58945D01*
X177885Y59100D01*
X178153D01*
X178422Y58997D01*
X178652Y58738D01*
G01X181100Y56000D02*
Y59100D01*
X180640Y58480D01*
G01Y56000D02*
X181560D01*
G01X162699Y82799D02*
X162469Y82954D01*
X162201Y83057D01*
X161894D01*
X161549Y82902D01*
X161281Y82644D01*
X161089Y82334D01*
X160936Y81817D01*
X160898Y81352D01*
X160974Y80887D01*
X161089Y80577D01*
X161319Y80267D01*
X161588Y80060D01*
X161856Y79957D01*
X162124D01*
X162393Y80060D01*
X162623Y80215D01*
X162814Y80422D01*
G01X164228Y82540D02*
X164458Y82850D01*
X164726Y83005D01*
X165033Y83057D01*
X165416Y82954D01*
X165684Y82695D01*
X165761Y82385D01*
X165723Y82075D01*
X165569Y81817D01*
X164803Y81300D01*
X164458Y80939D01*
X164228Y80422D01*
X164151Y79957D01*
X165761D01*
G01X168056D02*
Y83057D01*
X167596Y82437D01*
G01Y79957D02*
X168516D01*
G01X168107Y105950D02*
Y109050D01*
X168873D01*
X169180Y108895D01*
X169410Y108688D01*
X169602Y108378D01*
X169755Y108017D01*
X169793Y107500D01*
X169755Y106983D01*
X169602Y106622D01*
X169410Y106312D01*
X169180Y106105D01*
X168873Y105950D01*
X168107D01*
G01X171973D02*
X172050Y106622D01*
X172165Y107190D01*
X172318Y107707D01*
X172510Y108275D01*
X172817Y109050D01*
X171283D01*
G01X172899Y122549D02*
X172669Y122704D01*
X172401Y122807D01*
X172094D01*
X171749Y122652D01*
X171481Y122394D01*
X171289Y122084D01*
X171136Y121567D01*
X171098Y121102D01*
X171174Y120637D01*
X171289Y120327D01*
X171519Y120017D01*
X171788Y119810D01*
X172056Y119707D01*
X172324D01*
X172593Y119810D01*
X172823Y119965D01*
X173014Y120172D01*
G01X174428Y122290D02*
X174658Y122600D01*
X174926Y122755D01*
X175233Y122807D01*
X175616Y122704D01*
X175884Y122445D01*
X175961Y122135D01*
X175923Y121825D01*
X175769Y121567D01*
X175003Y121050D01*
X174658Y120689D01*
X174428Y120172D01*
X174351Y119707D01*
X175961D01*
G01X177413Y120327D02*
X177643Y119965D01*
X177949Y119759D01*
X178294Y119707D01*
X178601Y119759D01*
X178908Y120017D01*
X179099Y120327D01*
X179138Y120637D01*
X179061Y120999D01*
X178793Y121257D01*
X178524Y121360D01*
X178179D01*
G01X178524D02*
X178754Y121515D01*
X178946Y121774D01*
X179023Y122084D01*
X178946Y122394D01*
X178754Y122652D01*
X178409Y122807D01*
X178064Y122755D01*
X177719Y122549D01*
G01X153149D02*
X152919Y122704D01*
X152651Y122807D01*
X152344D01*
X151999Y122652D01*
X151731Y122394D01*
X151539Y122084D01*
X151386Y121567D01*
X151348Y121102D01*
X151424Y120637D01*
X151539Y120327D01*
X151769Y120017D01*
X152038Y119810D01*
X152306Y119707D01*
X152574D01*
X152843Y119810D01*
X153073Y119965D01*
X153264Y120172D01*
G01X155406Y119707D02*
Y122807D01*
X154946Y122187D01*
G01Y119707D02*
X155866D01*
G01X157854Y120069D02*
X158123Y119810D01*
X158429Y119707D01*
X158736Y119810D01*
X159004Y120120D01*
X159196Y120585D01*
X159273Y121050D01*
Y121619D01*
X159196Y122084D01*
X159004Y122497D01*
X158774Y122704D01*
X158506Y122807D01*
X158199Y122704D01*
X157969Y122497D01*
X157816Y122187D01*
X157739Y121774D01*
X157816Y121412D01*
X158008Y121050D01*
X158238Y120844D01*
X158506Y120792D01*
X158813Y120895D01*
X159043Y121154D01*
X159273Y121619D01*
G01X203272Y-2708D02*
X203540Y-2347D01*
X203770Y-2140D01*
X204077Y-2037D01*
X204345Y-2140D01*
X204537Y-2347D01*
X204690Y-2657D01*
X204728Y-3018D01*
X204690Y-3328D01*
X204537Y-3638D01*
X204307Y-3897D01*
X204038Y-4000D01*
X203732Y-3897D01*
X203463Y-3587D01*
X203310Y-3122D01*
X203272Y-2605D01*
X203348Y-1933D01*
X203463Y-1572D01*
X203655Y-1210D01*
X203923Y-952D01*
X204192Y-900D01*
X204460Y-1003D01*
X204652Y-1262D01*
G01X194183Y6950D02*
Y10050D01*
X195103D01*
X195410Y9895D01*
X195640Y9533D01*
X195717Y9120D01*
X195640Y8707D01*
X195448Y8397D01*
X195103Y8242D01*
X194183D01*
G01X197322Y9533D02*
X197552Y9843D01*
X197820Y9998D01*
X198127Y10050D01*
X198510Y9947D01*
X198778Y9688D01*
X198855Y9378D01*
X198817Y9068D01*
X198663Y8810D01*
X197897Y8293D01*
X197552Y7932D01*
X197322Y7415D01*
X197245Y6950D01*
X198855D01*
G01X191607Y43600D02*
Y41378D01*
X191760Y40913D01*
X192067Y40603D01*
X192450Y40500D01*
X192833Y40603D01*
X193140Y40913D01*
X193293Y41378D01*
Y43600D01*
G01X196010Y40500D02*
Y43600D01*
X194592Y41378D01*
X196508D01*
G01X184042Y56500D02*
X185000Y59600D01*
X185958Y56500D01*
G01X185613Y57585D02*
X184387D01*
G01X201633Y62500D02*
Y65600D01*
X202592D01*
X202898Y65445D01*
X203090Y65238D01*
X203167Y64825D01*
X203090Y64412D01*
X202860Y64153D01*
X202592Y63998D01*
X201633D01*
G01X202592D02*
X203167Y62500D01*
G01X204772Y65083D02*
X205002Y65393D01*
X205270Y65548D01*
X205577Y65600D01*
X205960Y65497D01*
X206228Y65238D01*
X206305Y64928D01*
X206267Y64618D01*
X206113Y64360D01*
X205347Y63843D01*
X205002Y63482D01*
X204772Y62965D01*
X204695Y62500D01*
X206305D01*
G01X207872Y65083D02*
X208102Y65393D01*
X208370Y65548D01*
X208677Y65600D01*
X209060Y65497D01*
X209328Y65238D01*
X209405Y64928D01*
X209367Y64618D01*
X209213Y64360D01*
X208447Y63843D01*
X208102Y63482D01*
X207872Y62965D01*
X207795Y62500D01*
X209405D01*
G01X201599Y82799D02*
X201369Y82954D01*
X201101Y83057D01*
X200794D01*
X200449Y82902D01*
X200181Y82644D01*
X199989Y82334D01*
X199836Y81817D01*
X199798Y81352D01*
X199874Y80887D01*
X199989Y80577D01*
X200219Y80267D01*
X200488Y80060D01*
X200756Y79957D01*
X201024D01*
X201293Y80060D01*
X201523Y80215D01*
X201714Y80422D01*
G01X203128Y82540D02*
X203358Y82850D01*
X203626Y83005D01*
X203933Y83057D01*
X204316Y82954D01*
X204584Y82695D01*
X204661Y82385D01*
X204623Y82075D01*
X204469Y81817D01*
X203703Y81300D01*
X203358Y80939D01*
X203128Y80422D01*
X203051Y79957D01*
X204661D01*
G01X206879D02*
X206956Y80629D01*
X207071Y81197D01*
X207224Y81714D01*
X207416Y82282D01*
X207723Y83057D01*
X206189D01*
G01X182399Y82799D02*
X182169Y82954D01*
X181901Y83057D01*
X181594D01*
X181249Y82902D01*
X180981Y82644D01*
X180789Y82334D01*
X180636Y81817D01*
X180598Y81352D01*
X180674Y80887D01*
X180789Y80577D01*
X181019Y80267D01*
X181288Y80060D01*
X181556Y79957D01*
X181824D01*
X182093Y80060D01*
X182323Y80215D01*
X182514Y80422D01*
G01X183928Y82540D02*
X184158Y82850D01*
X184426Y83005D01*
X184733Y83057D01*
X185116Y82954D01*
X185384Y82695D01*
X185461Y82385D01*
X185423Y82075D01*
X185269Y81817D01*
X184503Y81300D01*
X184158Y80939D01*
X183928Y80422D01*
X183851Y79957D01*
X185461D01*
G01X188216D02*
Y83057D01*
X186798Y80835D01*
X188714D01*
G01X187607Y105950D02*
Y109050D01*
X188373D01*
X188680Y108895D01*
X188910Y108688D01*
X189102Y108378D01*
X189255Y108017D01*
X189293Y107500D01*
X189255Y106983D01*
X189102Y106622D01*
X188910Y106312D01*
X188680Y106105D01*
X188373Y105950D01*
X187607D01*
G01X191550D02*
X191818Y106002D01*
X192125Y106157D01*
X192317Y106415D01*
X192393Y106777D01*
X192317Y107138D01*
X192087Y107448D01*
X191742Y107603D01*
X191358D01*
X191128Y107707D01*
X190937Y107965D01*
X190860Y108327D01*
X190975Y108688D01*
X191243Y108947D01*
X191550Y109050D01*
X191857Y108947D01*
X192125Y108688D01*
X192240Y108327D01*
X192163Y107965D01*
X191972Y107707D01*
X191742Y107603D01*
X191358D01*
X191013Y107448D01*
X190783Y107138D01*
X190707Y106777D01*
X190783Y106415D01*
X190975Y106157D01*
X191282Y106002D01*
X191550Y105950D01*
G01X192649Y122549D02*
X192419Y122704D01*
X192151Y122807D01*
X191844D01*
X191499Y122652D01*
X191231Y122394D01*
X191039Y122084D01*
X190886Y121567D01*
X190848Y121102D01*
X190924Y120637D01*
X191039Y120327D01*
X191269Y120017D01*
X191538Y119810D01*
X191806Y119707D01*
X192074D01*
X192343Y119810D01*
X192573Y119965D01*
X192764Y120172D01*
G01X194178Y122290D02*
X194408Y122600D01*
X194676Y122755D01*
X194983Y122807D01*
X195366Y122704D01*
X195634Y122445D01*
X195711Y122135D01*
X195673Y121825D01*
X195519Y121567D01*
X194753Y121050D01*
X194408Y120689D01*
X194178Y120172D01*
X194101Y119707D01*
X195711D01*
G01X197163Y120172D02*
X197393Y119914D01*
X197661Y119759D01*
X198006Y119707D01*
X198351Y119810D01*
X198619Y120017D01*
X198811Y120379D01*
X198849Y120792D01*
X198773Y121205D01*
X198581Y121464D01*
X198313Y121670D01*
X198044Y121722D01*
X197776Y121670D01*
X197431Y121464D01*
X197546Y122807D01*
X198581D01*
G01X195460Y180600D02*
X195728Y180652D01*
X196035Y180807D01*
X196227Y181065D01*
X196303Y181427D01*
X196227Y181788D01*
X195997Y182098D01*
X195652Y182253D01*
X195268D01*
X195038Y182357D01*
X194847Y182615D01*
X194770Y182977D01*
X194885Y183338D01*
X195153Y183597D01*
X195460Y183700D01*
X195767Y183597D01*
X196035Y183338D01*
X196150Y182977D01*
X196073Y182615D01*
X195882Y182357D01*
X195652Y182253D01*
X195268D01*
X194923Y182098D01*
X194693Y181788D01*
X194617Y181427D01*
X194693Y181065D01*
X194885Y180807D01*
X195192Y180652D01*
X195460Y180600D01*
G01X178183Y179500D02*
Y182600D01*
X179103D01*
X179410Y182445D01*
X179640Y182083D01*
X179717Y181670D01*
X179640Y181257D01*
X179448Y180947D01*
X179103Y180792D01*
X178183D01*
G01X182510Y179500D02*
Y182600D01*
X181092Y180378D01*
X183008D01*
G01X228542Y-9000D02*
X229500Y-5900D01*
X230458Y-9000D01*
G01X230113Y-7915D02*
X228887D01*
G01X231133Y9000D02*
Y12100D01*
X232092D01*
X232398Y11945D01*
X232590Y11738D01*
X232667Y11325D01*
X232590Y10912D01*
X232360Y10653D01*
X232092Y10498D01*
X231133D01*
G01X232092D02*
X232667Y9000D01*
G01X234272Y11583D02*
X234502Y11893D01*
X234770Y12048D01*
X235077Y12100D01*
X235460Y11997D01*
X235728Y11738D01*
X235805Y11428D01*
X235767Y11118D01*
X235613Y10860D01*
X234847Y10343D01*
X234502Y9982D01*
X234272Y9465D01*
X234195Y9000D01*
X235805D01*
G01X237257Y9620D02*
X237487Y9258D01*
X237793Y9052D01*
X238138Y9000D01*
X238445Y9052D01*
X238752Y9310D01*
X238943Y9620D01*
X238982Y9930D01*
X238905Y10292D01*
X238637Y10550D01*
X238368Y10653D01*
X238023D01*
G01X238368D02*
X238598Y10808D01*
X238790Y11067D01*
X238867Y11377D01*
X238790Y11687D01*
X238598Y11945D01*
X238253Y12100D01*
X237908Y12048D01*
X237563Y11842D01*
G01X228042Y41500D02*
X229000Y44600D01*
X229958Y41500D01*
G01X229613Y42585D02*
X228387D01*
G01X204658Y42243D02*
X204503Y42013D01*
X204400Y41745D01*
Y41438D01*
X204555Y41093D01*
X204813Y40825D01*
X205123Y40633D01*
X205640Y40480D01*
X206105Y40442D01*
X206570Y40518D01*
X206880Y40633D01*
X207190Y40863D01*
X207397Y41132D01*
X207500Y41400D01*
Y41668D01*
X207397Y41937D01*
X207242Y42167D01*
X207035Y42358D01*
G01X204917Y43772D02*
X204607Y44002D01*
X204452Y44270D01*
X204400Y44577D01*
X204503Y44960D01*
X204762Y45228D01*
X205072Y45305D01*
X205382Y45267D01*
X205640Y45113D01*
X206157Y44347D01*
X206518Y44002D01*
X207035Y43772D01*
X207500Y43695D01*
Y45305D01*
G01X207138Y46948D02*
X207397Y47217D01*
X207500Y47523D01*
X207397Y47830D01*
X207087Y48098D01*
X206622Y48290D01*
X206157Y48367D01*
X205588D01*
X205123Y48290D01*
X204710Y48098D01*
X204503Y47868D01*
X204400Y47600D01*
X204503Y47293D01*
X204710Y47063D01*
X205020Y46910D01*
X205433Y46833D01*
X205795Y46910D01*
X206157Y47102D01*
X206363Y47332D01*
X206415Y47600D01*
X206312Y47907D01*
X206053Y48137D01*
X205588Y48367D01*
G01X211133Y42000D02*
Y45100D01*
X212092D01*
X212398Y44945D01*
X212590Y44738D01*
X212667Y44325D01*
X212590Y43912D01*
X212360Y43653D01*
X212092Y43498D01*
X211133D01*
G01X212092D02*
X212667Y42000D01*
G01X215000D02*
Y45100D01*
X214540Y44480D01*
G01Y42000D02*
X215460D01*
G01X217257Y42465D02*
X217487Y42207D01*
X217755Y42052D01*
X218100Y42000D01*
X218445Y42103D01*
X218713Y42310D01*
X218905Y42672D01*
X218943Y43085D01*
X218867Y43498D01*
X218675Y43757D01*
X218407Y43963D01*
X218138Y44015D01*
X217870Y43963D01*
X217525Y43757D01*
X217640Y45100D01*
X218675D01*
G01X211133Y37500D02*
Y40600D01*
X212092D01*
X212398Y40445D01*
X212590Y40238D01*
X212667Y39825D01*
X212590Y39412D01*
X212360Y39153D01*
X212092Y38998D01*
X211133D01*
G01X212092D02*
X212667Y37500D01*
G01X215000D02*
Y40600D01*
X214540Y39980D01*
G01Y37500D02*
X215460D01*
G01X218560D02*
Y40600D01*
X217142Y38378D01*
X219058D01*
G01X228343Y66792D02*
X228113Y66947D01*
X227845Y67050D01*
X227538D01*
X227193Y66895D01*
X226925Y66637D01*
X226733Y66327D01*
X226580Y65810D01*
X226542Y65345D01*
X226618Y64880D01*
X226733Y64570D01*
X226963Y64260D01*
X227232Y64053D01*
X227500Y63950D01*
X227768D01*
X228037Y64053D01*
X228267Y64208D01*
X228458Y64415D01*
G01X217133Y66500D02*
Y69600D01*
X218092D01*
X218398Y69445D01*
X218590Y69238D01*
X218667Y68825D01*
X218590Y68412D01*
X218360Y68153D01*
X218092Y67998D01*
X217133D01*
G01X218092D02*
X218667Y66500D01*
G01X221000D02*
Y69600D01*
X220540Y68980D01*
G01Y66500D02*
X221460D01*
G01X224100D02*
X224368Y66552D01*
X224675Y66707D01*
X224867Y66965D01*
X224943Y67327D01*
X224867Y67688D01*
X224637Y67998D01*
X224292Y68153D01*
X223908D01*
X223678Y68257D01*
X223487Y68515D01*
X223410Y68877D01*
X223525Y69238D01*
X223793Y69497D01*
X224100Y69600D01*
X224407Y69497D01*
X224675Y69238D01*
X224790Y68877D01*
X224713Y68515D01*
X224522Y68257D01*
X224292Y68153D01*
X223908D01*
X223563Y67998D01*
X223333Y67688D01*
X223257Y67327D01*
X223333Y66965D01*
X223525Y66707D01*
X223832Y66552D01*
X224100Y66500D01*
G01X217133Y79793D02*
Y82893D01*
X218092D01*
X218398Y82738D01*
X218590Y82531D01*
X218667Y82118D01*
X218590Y81705D01*
X218360Y81446D01*
X218092Y81291D01*
X217133D01*
G01X218092D02*
X218667Y79793D01*
G01X221000D02*
Y82893D01*
X220540Y82273D01*
G01Y79793D02*
X221460D01*
G01X223448Y80155D02*
X223717Y79896D01*
X224023Y79793D01*
X224330Y79896D01*
X224598Y80206D01*
X224790Y80671D01*
X224867Y81136D01*
Y81705D01*
X224790Y82170D01*
X224598Y82583D01*
X224368Y82790D01*
X224100Y82893D01*
X223793Y82790D01*
X223563Y82583D01*
X223410Y82273D01*
X223333Y81860D01*
X223410Y81498D01*
X223602Y81136D01*
X223832Y80930D01*
X224100Y80878D01*
X224407Y80981D01*
X224637Y81240D01*
X224867Y81705D01*
G01X215400Y96100D02*
Y93000D01*
G01X214518Y96100D02*
X216282D01*
G01X217733Y93000D02*
Y96100D01*
X218653D01*
X218960Y95945D01*
X219190Y95583D01*
X219267Y95170D01*
X219190Y94757D01*
X218998Y94447D01*
X218653Y94292D01*
X217733D01*
G01X221600Y93000D02*
Y96100D01*
X221140Y95480D01*
G01Y93000D02*
X222060D01*
G01X207607Y105950D02*
Y109050D01*
X208373D01*
X208680Y108895D01*
X208910Y108688D01*
X209102Y108378D01*
X209255Y108017D01*
X209293Y107500D01*
X209255Y106983D01*
X209102Y106622D01*
X208910Y106312D01*
X208680Y106105D01*
X208373Y105950D01*
X207607D01*
G01X210898Y106312D02*
X211167Y106053D01*
X211473Y105950D01*
X211780Y106053D01*
X212048Y106363D01*
X212240Y106828D01*
X212317Y107293D01*
Y107862D01*
X212240Y108327D01*
X212048Y108740D01*
X211818Y108947D01*
X211550Y109050D01*
X211243Y108947D01*
X211013Y108740D01*
X210860Y108430D01*
X210783Y108017D01*
X210860Y107655D01*
X211052Y107293D01*
X211282Y107087D01*
X211550Y107035D01*
X211857Y107138D01*
X212087Y107397D01*
X212317Y107862D01*
G01X219683Y178000D02*
Y181100D01*
X220603D01*
X220910Y180945D01*
X221140Y180583D01*
X221217Y180170D01*
X221140Y179757D01*
X220948Y179447D01*
X220603Y179292D01*
X219683D01*
G01X222707Y178465D02*
X222937Y178207D01*
X223205Y178052D01*
X223550Y178000D01*
X223895Y178103D01*
X224163Y178310D01*
X224355Y178672D01*
X224393Y179085D01*
X224317Y179498D01*
X224125Y179757D01*
X223857Y179963D01*
X223588Y180015D01*
X223320Y179963D01*
X222975Y179757D01*
X223090Y181100D01*
X224125D01*
G01X243843Y-6158D02*
X243613Y-6003D01*
X243345Y-5900D01*
X243038D01*
X242693Y-6055D01*
X242425Y-6313D01*
X242233Y-6623D01*
X242080Y-7140D01*
X242042Y-7605D01*
X242118Y-8070D01*
X242233Y-8380D01*
X242463Y-8690D01*
X242732Y-8897D01*
X243000Y-9000D01*
X243268D01*
X243537Y-8897D01*
X243767Y-8742D01*
X243958Y-8535D01*
G01X246042Y-9500D02*
X247000Y-6400D01*
X247958Y-9500D01*
G01X247613Y-8415D02*
X246387D01*
G01X232557Y-9000D02*
Y-5900D01*
X233323D01*
X233630Y-6055D01*
X233860Y-6262D01*
X234052Y-6572D01*
X234205Y-6933D01*
X234243Y-7450D01*
X234205Y-7967D01*
X234052Y-8328D01*
X233860Y-8638D01*
X233630Y-8845D01*
X233323Y-9000D01*
X232557D01*
G01X235695Y-8587D02*
X236002Y-8845D01*
X236347Y-9000D01*
X236653D01*
X236960Y-8845D01*
X237190Y-8587D01*
X237305Y-8225D01*
X237228Y-7863D01*
X237037Y-7553D01*
X236692Y-7347D01*
X236232Y-7243D01*
X235963Y-7037D01*
X235848Y-6675D01*
X235925Y-6313D01*
X236117Y-6055D01*
X236385Y-5900D01*
X236653D01*
X236922Y-6003D01*
X237152Y-6262D01*
G01X238872Y-6417D02*
X239102Y-6107D01*
X239370Y-5952D01*
X239677Y-5900D01*
X240060Y-6003D01*
X240328Y-6262D01*
X240405Y-6572D01*
X240367Y-6882D01*
X240213Y-7140D01*
X239447Y-7657D01*
X239102Y-8018D01*
X238872Y-8535D01*
X238795Y-9000D01*
X240405D01*
G01X250557D02*
Y-5900D01*
X251323D01*
X251630Y-6055D01*
X251860Y-6262D01*
X252052Y-6572D01*
X252205Y-6933D01*
X252243Y-7450D01*
X252205Y-7967D01*
X252052Y-8328D01*
X251860Y-8638D01*
X251630Y-8845D01*
X251323Y-9000D01*
X250557D01*
G01X253695Y-8587D02*
X254002Y-8845D01*
X254347Y-9000D01*
X254653D01*
X254960Y-8845D01*
X255190Y-8587D01*
X255305Y-8225D01*
X255228Y-7863D01*
X255037Y-7553D01*
X254692Y-7347D01*
X254232Y-7243D01*
X253963Y-7037D01*
X253848Y-6675D01*
X253925Y-6313D01*
X254117Y-6055D01*
X254385Y-5900D01*
X254653D01*
X254922Y-6003D01*
X255152Y-6262D01*
G01X256757Y-8380D02*
X256987Y-8742D01*
X257293Y-8948D01*
X257638Y-9000D01*
X257945Y-8948D01*
X258252Y-8690D01*
X258443Y-8380D01*
X258482Y-8070D01*
X258405Y-7708D01*
X258137Y-7450D01*
X257868Y-7347D01*
X257523D01*
G01X257868D02*
X258098Y-7192D01*
X258290Y-6933D01*
X258367Y-6623D01*
X258290Y-6313D01*
X258098Y-6055D01*
X257753Y-5900D01*
X257408Y-5952D01*
X257063Y-6158D01*
G01X248133Y8000D02*
Y11100D01*
X249092D01*
X249398Y10945D01*
X249590Y10738D01*
X249667Y10325D01*
X249590Y9912D01*
X249360Y9653D01*
X249092Y9498D01*
X248133D01*
G01X249092D02*
X249667Y8000D01*
G01X251272Y10583D02*
X251502Y10893D01*
X251770Y11048D01*
X252077Y11100D01*
X252460Y10997D01*
X252728Y10738D01*
X252805Y10428D01*
X252767Y10118D01*
X252613Y9860D01*
X251847Y9343D01*
X251502Y8982D01*
X251272Y8465D01*
X251195Y8000D01*
X252805D01*
G01X255560D02*
Y11100D01*
X254142Y8878D01*
X256058D01*
G01X237000Y57557D02*
X233900D01*
Y58323D01*
X234055Y58630D01*
X234262Y58860D01*
X234572Y59052D01*
X234933Y59205D01*
X235450Y59243D01*
X235967Y59205D01*
X236328Y59052D01*
X236638Y58860D01*
X236845Y58630D01*
X237000Y58323D01*
Y57557D01*
G01Y61500D02*
X233900D01*
X234520Y61040D01*
G01X237000D02*
Y61960D01*
G01X233900Y64600D02*
X234003Y64293D01*
X234262Y64063D01*
X234572Y63910D01*
X234985Y63795D01*
X235450Y63757D01*
X235915Y63795D01*
X236328Y63910D01*
X236638Y64063D01*
X236897Y64293D01*
X237000Y64600D01*
X236897Y64907D01*
X236638Y65137D01*
X236328Y65290D01*
X235915Y65405D01*
X235450Y65443D01*
X234985Y65405D01*
X234572Y65290D01*
X234262Y65137D01*
X234003Y64907D01*
X233900Y64600D01*
G01X243953Y69500D02*
Y72600D01*
X244950Y70017D01*
X245947Y72600D01*
Y69500D01*
G01X248050D02*
Y72600D01*
X247590Y71980D01*
G01Y69500D02*
X248510D01*
G01X249158Y90743D02*
X249003Y90513D01*
X248900Y90245D01*
Y89938D01*
X249055Y89593D01*
X249313Y89325D01*
X249623Y89133D01*
X250140Y88980D01*
X250605Y88942D01*
X251070Y89018D01*
X251380Y89133D01*
X251690Y89363D01*
X251897Y89632D01*
X252000Y89900D01*
Y90168D01*
X251897Y90437D01*
X251742Y90667D01*
X251535Y90858D01*
G01X249417Y92272D02*
X249107Y92502D01*
X248952Y92770D01*
X248900Y93077D01*
X249003Y93460D01*
X249262Y93728D01*
X249572Y93805D01*
X249882Y93767D01*
X250140Y93613D01*
X250657Y92847D01*
X251018Y92502D01*
X251535Y92272D01*
X252000Y92195D01*
Y93805D01*
G01Y96100D02*
X251948Y96368D01*
X251793Y96675D01*
X251535Y96867D01*
X251173Y96943D01*
X250812Y96867D01*
X250502Y96637D01*
X250347Y96292D01*
Y95908D01*
X250243Y95678D01*
X249985Y95487D01*
X249623Y95410D01*
X249262Y95525D01*
X249003Y95793D01*
X248900Y96100D01*
X249003Y96407D01*
X249262Y96675D01*
X249623Y96790D01*
X249985Y96713D01*
X250243Y96522D01*
X250347Y96292D01*
Y95908D01*
X250502Y95563D01*
X250812Y95333D01*
X251173Y95257D01*
X251535Y95333D01*
X251793Y95525D01*
X251948Y95832D01*
X252000Y96100D01*
G01X259000Y89133D02*
X255900D01*
Y90092D01*
X256055Y90398D01*
X256262Y90590D01*
X256675Y90667D01*
X257088Y90590D01*
X257347Y90360D01*
X257502Y90092D01*
Y89133D01*
G01Y90092D02*
X259000Y90667D01*
G01X256417Y92272D02*
X256107Y92502D01*
X255952Y92770D01*
X255900Y93077D01*
X256003Y93460D01*
X256262Y93728D01*
X256572Y93805D01*
X256882Y93767D01*
X257140Y93613D01*
X257657Y92847D01*
X258018Y92502D01*
X258535Y92272D01*
X259000Y92195D01*
Y93805D01*
G01Y96100D02*
X255900D01*
X256520Y95640D01*
G01X259000D02*
Y96560D01*
G01X234243Y81342D02*
X234013Y81497D01*
X233745Y81600D01*
X233438D01*
X233093Y81445D01*
X232825Y81187D01*
X232633Y80877D01*
X232480Y80360D01*
X232442Y79895D01*
X232518Y79430D01*
X232633Y79120D01*
X232863Y78810D01*
X233132Y78603D01*
X233400Y78500D01*
X233668D01*
X233937Y78603D01*
X234167Y78758D01*
X234358Y78965D01*
G01X235772Y81083D02*
X236002Y81393D01*
X236270Y81548D01*
X236577Y81600D01*
X236960Y81497D01*
X237228Y81238D01*
X237305Y80928D01*
X237267Y80618D01*
X237113Y80360D01*
X236347Y79843D01*
X236002Y79482D01*
X235772Y78965D01*
X235695Y78500D01*
X237305D01*
G01X238872Y79792D02*
X239140Y80153D01*
X239370Y80360D01*
X239677Y80463D01*
X239945Y80360D01*
X240137Y80153D01*
X240290Y79843D01*
X240328Y79482D01*
X240290Y79172D01*
X240137Y78862D01*
X239907Y78603D01*
X239638Y78500D01*
X239332Y78603D01*
X239063Y78913D01*
X238910Y79378D01*
X238872Y79895D01*
X238948Y80567D01*
X239063Y80928D01*
X239255Y81290D01*
X239523Y81548D01*
X239792Y81600D01*
X240060Y81497D01*
X240252Y81238D01*
G01X253500Y153645D02*
X250400D01*
G01Y155255D02*
X253500D01*
G01X251950D02*
Y153645D01*
G01X250400Y157090D02*
Y158010D01*
G01Y157550D02*
X253500D01*
G01Y157090D02*
Y158010D01*
G01X251950Y160880D02*
Y161647D01*
X252880D01*
X253190Y161417D01*
X253397Y161148D01*
X253500Y160765D01*
X253397Y160382D01*
X253190Y160113D01*
X252880Y159883D01*
X252518Y159730D01*
X252105Y159653D01*
X251743D01*
X251433Y159730D01*
X251072Y159883D01*
X250762Y160113D01*
X250555Y160343D01*
X250400Y160650D01*
Y160918D01*
X250503Y161225D01*
X250710Y161455D01*
G01X253500Y162945D02*
X250400D01*
G01Y164555D02*
X253500D01*
G01X251950D02*
Y162945D01*
G01X250400Y168992D02*
X253500Y169950D01*
X250400Y170908D01*
G01X253500Y173050D02*
X253448Y172743D01*
X253242Y172475D01*
X252932Y172245D01*
X252570Y172092D01*
X252157Y172015D01*
X251743D01*
X251330Y172092D01*
X250968Y172245D01*
X250658Y172475D01*
X250452Y172743D01*
X250400Y173050D01*
X250452Y173357D01*
X250658Y173625D01*
X250968Y173855D01*
X251330Y174008D01*
X251743Y174085D01*
X252157D01*
X252570Y174008D01*
X252932Y173855D01*
X253242Y173625D01*
X253448Y173357D01*
X253500Y173050D01*
G01X250400Y175383D02*
X253500D01*
Y176917D01*
G01X250400Y179250D02*
X253500D01*
G01X250400Y178368D02*
Y180132D01*
G01X253500Y181392D02*
X250400Y182350D01*
X253500Y183308D01*
G01X252415Y182963D02*
Y181737D01*
G01X251950Y185680D02*
Y186447D01*
X252880D01*
X253190Y186217D01*
X253397Y185948D01*
X253500Y185565D01*
X253397Y185182D01*
X253190Y184913D01*
X252880Y184683D01*
X252518Y184530D01*
X252105Y184453D01*
X251743D01*
X251433Y184530D01*
X251072Y184683D01*
X250762Y184913D01*
X250555Y185143D01*
X250400Y185450D01*
Y185718D01*
X250503Y186025D01*
X250710Y186255D01*
G01X253500Y189317D02*
Y187783D01*
X250400D01*
Y189317D01*
G01X251898Y188703D02*
Y187783D01*
G01X261343Y-6658D02*
X261113Y-6503D01*
X260845Y-6400D01*
X260538D01*
X260193Y-6555D01*
X259925Y-6813D01*
X259733Y-7123D01*
X259580Y-7640D01*
X259542Y-8105D01*
X259618Y-8570D01*
X259733Y-8880D01*
X259963Y-9190D01*
X260232Y-9397D01*
X260500Y-9500D01*
X260768D01*
X261037Y-9397D01*
X261267Y-9242D01*
X261458Y-9035D01*
G01X262542Y-9500D02*
X263500Y-6400D01*
X264458Y-9500D01*
G01X264113Y-8415D02*
X262887D01*
G01X277843Y-6658D02*
X277613Y-6503D01*
X277345Y-6400D01*
X277038D01*
X276693Y-6555D01*
X276425Y-6813D01*
X276233Y-7123D01*
X276080Y-7640D01*
X276042Y-8105D01*
X276118Y-8570D01*
X276233Y-8880D01*
X276463Y-9190D01*
X276732Y-9397D01*
X277000Y-9500D01*
X277268D01*
X277537Y-9397D01*
X277767Y-9242D01*
X277958Y-9035D01*
G01X279542Y-9500D02*
X280500Y-6400D01*
X281458Y-9500D01*
G01X281113Y-8415D02*
X279887D01*
G01X266557Y-9000D02*
Y-5900D01*
X267323D01*
X267630Y-6055D01*
X267860Y-6262D01*
X268052Y-6572D01*
X268205Y-6933D01*
X268243Y-7450D01*
X268205Y-7967D01*
X268052Y-8328D01*
X267860Y-8638D01*
X267630Y-8845D01*
X267323Y-9000D01*
X266557D01*
G01X269695Y-8587D02*
X270002Y-8845D01*
X270347Y-9000D01*
X270653D01*
X270960Y-8845D01*
X271190Y-8587D01*
X271305Y-8225D01*
X271228Y-7863D01*
X271037Y-7553D01*
X270692Y-7347D01*
X270232Y-7243D01*
X269963Y-7037D01*
X269848Y-6675D01*
X269925Y-6313D01*
X270117Y-6055D01*
X270385Y-5900D01*
X270653D01*
X270922Y-6003D01*
X271152Y-6262D01*
G01X274060Y-9000D02*
Y-5900D01*
X272642Y-8122D01*
X274558D01*
G01X282557Y-9000D02*
Y-5900D01*
X283323D01*
X283630Y-6055D01*
X283860Y-6262D01*
X284052Y-6572D01*
X284205Y-6933D01*
X284243Y-7450D01*
X284205Y-7967D01*
X284052Y-8328D01*
X283860Y-8638D01*
X283630Y-8845D01*
X283323Y-9000D01*
X282557D01*
G01X285695Y-8587D02*
X286002Y-8845D01*
X286347Y-9000D01*
X286653D01*
X286960Y-8845D01*
X287190Y-8587D01*
X287305Y-8225D01*
X287228Y-7863D01*
X287037Y-7553D01*
X286692Y-7347D01*
X286232Y-7243D01*
X285963Y-7037D01*
X285848Y-6675D01*
X285925Y-6313D01*
X286117Y-6055D01*
X286385Y-5900D01*
X286653D01*
X286922Y-6003D01*
X287152Y-6262D01*
G01X288757Y-8535D02*
X288987Y-8793D01*
X289255Y-8948D01*
X289600Y-9000D01*
X289945Y-8897D01*
X290213Y-8690D01*
X290405Y-8328D01*
X290443Y-7915D01*
X290367Y-7502D01*
X290175Y-7243D01*
X289907Y-7037D01*
X289638Y-6985D01*
X289370Y-7037D01*
X289025Y-7243D01*
X289140Y-5900D01*
X290175D01*
G01X264633Y8500D02*
Y11600D01*
X265592D01*
X265898Y11445D01*
X266090Y11238D01*
X266167Y10825D01*
X266090Y10412D01*
X265860Y10153D01*
X265592Y9998D01*
X264633D01*
G01X265592D02*
X266167Y8500D01*
G01X267772Y11083D02*
X268002Y11393D01*
X268270Y11548D01*
X268577Y11600D01*
X268960Y11497D01*
X269228Y11238D01*
X269305Y10928D01*
X269267Y10618D01*
X269113Y10360D01*
X268347Y9843D01*
X268002Y9482D01*
X267772Y8965D01*
X267695Y8500D01*
X269305D01*
G01X270757Y8965D02*
X270987Y8707D01*
X271255Y8552D01*
X271600Y8500D01*
X271945Y8603D01*
X272213Y8810D01*
X272405Y9172D01*
X272443Y9585D01*
X272367Y9998D01*
X272175Y10257D01*
X271907Y10463D01*
X271638Y10515D01*
X271370Y10463D01*
X271025Y10257D01*
X271140Y11600D01*
X272175D01*
G01X280633Y8500D02*
Y11600D01*
X281592D01*
X281898Y11445D01*
X282090Y11238D01*
X282167Y10825D01*
X282090Y10412D01*
X281860Y10153D01*
X281592Y9998D01*
X280633D01*
G01X281592D02*
X282167Y8500D01*
G01X283772Y11083D02*
X284002Y11393D01*
X284270Y11548D01*
X284577Y11600D01*
X284960Y11497D01*
X285228Y11238D01*
X285305Y10928D01*
X285267Y10618D01*
X285113Y10360D01*
X284347Y9843D01*
X284002Y9482D01*
X283772Y8965D01*
X283695Y8500D01*
X285305D01*
G01X286872Y9792D02*
X287140Y10153D01*
X287370Y10360D01*
X287677Y10463D01*
X287945Y10360D01*
X288137Y10153D01*
X288290Y9843D01*
X288328Y9482D01*
X288290Y9172D01*
X288137Y8862D01*
X287907Y8603D01*
X287638Y8500D01*
X287332Y8603D01*
X287063Y8913D01*
X286910Y9378D01*
X286872Y9895D01*
X286948Y10567D01*
X287063Y10928D01*
X287255Y11290D01*
X287523Y11548D01*
X287792Y11600D01*
X288060Y11497D01*
X288252Y11238D01*
G01X274847Y149057D02*
X274692Y149210D01*
X274433Y149325D01*
X274072Y149402D01*
X273762Y149325D01*
X273555Y149172D01*
X273400Y148903D01*
Y147868D01*
X276500D01*
Y149133D01*
X276293Y149402D01*
X275983Y149555D01*
X275622Y149632D01*
X275260Y149555D01*
X274950Y149325D01*
X274847Y149057D01*
Y147868D01*
G01X276500Y152617D02*
Y151083D01*
X273400D01*
Y152617D01*
G01X274898Y152003D02*
Y151083D01*
G01X276500Y154222D02*
X273400D01*
Y155678D01*
G01X274898Y155142D02*
Y154222D01*
G01X276500Y158050D02*
X276448Y157743D01*
X276242Y157475D01*
X275932Y157245D01*
X275570Y157092D01*
X275157Y157015D01*
X274743D01*
X274330Y157092D01*
X273968Y157245D01*
X273658Y157475D01*
X273452Y157743D01*
X273400Y158050D01*
X273452Y158357D01*
X273658Y158625D01*
X273968Y158855D01*
X274330Y159008D01*
X274743Y159085D01*
X275157D01*
X275570Y159008D01*
X275932Y158855D01*
X276242Y158625D01*
X276448Y158357D01*
X276500Y158050D01*
G01Y160383D02*
X273400D01*
Y161342D01*
X273555Y161648D01*
X273762Y161840D01*
X274175Y161917D01*
X274588Y161840D01*
X274847Y161610D01*
X275002Y161342D01*
Y160383D01*
G01Y161342D02*
X276500Y161917D01*
G01Y165017D02*
Y163483D01*
X273400D01*
Y165017D01*
G01X274898Y164403D02*
Y163483D01*
G01X276087Y169645D02*
X276345Y169952D01*
X276500Y170297D01*
Y170603D01*
X276345Y170910D01*
X276087Y171140D01*
X275725Y171255D01*
X275363Y171178D01*
X275053Y170987D01*
X274847Y170642D01*
X274743Y170182D01*
X274537Y169913D01*
X274175Y169798D01*
X273813Y169875D01*
X273555Y170067D01*
X273400Y170335D01*
Y170603D01*
X273503Y170872D01*
X273762Y171102D01*
G01X276500Y174317D02*
Y172783D01*
X273400D01*
Y174317D01*
G01X274898Y173703D02*
Y172783D01*
G01X276500Y175883D02*
X273400D01*
Y176842D01*
X273555Y177148D01*
X273762Y177340D01*
X274175Y177417D01*
X274588Y177340D01*
X274847Y177110D01*
X275002Y176842D01*
Y175883D01*
G01Y176842D02*
X276500Y177417D01*
G01X273400Y178792D02*
X276500Y179750D01*
X273400Y180708D01*
G01Y182390D02*
Y183310D01*
G01Y182850D02*
X276500D01*
G01Y182390D02*
Y183310D01*
G01X273658Y186793D02*
X273503Y186563D01*
X273400Y186295D01*
Y185988D01*
X273555Y185643D01*
X273813Y185375D01*
X274123Y185183D01*
X274640Y185030D01*
X275105Y184992D01*
X275570Y185068D01*
X275880Y185183D01*
X276190Y185413D01*
X276397Y185682D01*
X276500Y185950D01*
Y186218D01*
X276397Y186487D01*
X276242Y186717D01*
X276035Y186908D01*
G01X273400Y188590D02*
Y189510D01*
G01Y189050D02*
X276500D01*
G01Y188590D02*
Y189510D01*
G01Y191268D02*
X273400D01*
X276500Y193032D01*
X273400D01*
G01X274950Y195480D02*
Y196247D01*
X275880D01*
X276190Y196017D01*
X276397Y195748D01*
X276500Y195365D01*
X276397Y194982D01*
X276190Y194713D01*
X275880Y194483D01*
X275518Y194330D01*
X275105Y194253D01*
X274743D01*
X274433Y194330D01*
X274072Y194483D01*
X273762Y194713D01*
X273555Y194943D01*
X273400Y195250D01*
Y195518D01*
X273503Y195825D01*
X273710Y196055D01*
G01X269000Y153683D02*
X265900D01*
Y154642D01*
X266055Y154948D01*
X266262Y155140D01*
X266675Y155217D01*
X267088Y155140D01*
X267347Y154910D01*
X267502Y154642D01*
Y153683D01*
G01Y154642D02*
X269000Y155217D01*
G01Y158317D02*
Y156783D01*
X265900D01*
Y158317D01*
G01X267398Y157703D02*
Y156783D01*
G01X269000Y159653D02*
X265900D01*
X268483Y160650D01*
X265900Y161647D01*
X269000D01*
G01Y163750D02*
X268948Y163443D01*
X268742Y163175D01*
X268432Y162945D01*
X268070Y162792D01*
X267657Y162715D01*
X267243D01*
X266830Y162792D01*
X266468Y162945D01*
X266158Y163175D01*
X265952Y163443D01*
X265900Y163750D01*
X265952Y164057D01*
X266158Y164325D01*
X266468Y164555D01*
X266830Y164708D01*
X267243Y164785D01*
X267657D01*
X268070Y164708D01*
X268432Y164555D01*
X268742Y164325D01*
X268948Y164057D01*
X269000Y163750D01*
G01X265900Y165892D02*
X269000Y166850D01*
X265900Y167808D01*
G01X269000Y170717D02*
Y169183D01*
X265900D01*
Y170717D01*
G01X267398Y170103D02*
Y169183D01*
G01X269000Y175383D02*
X265900D01*
Y176303D01*
X266055Y176610D01*
X266417Y176840D01*
X266830Y176917D01*
X267243Y176840D01*
X267553Y176648D01*
X267708Y176303D01*
Y175383D01*
G01X269000Y179250D02*
X268948Y178943D01*
X268742Y178675D01*
X268432Y178445D01*
X268070Y178292D01*
X267657Y178215D01*
X267243D01*
X266830Y178292D01*
X266468Y178445D01*
X266158Y178675D01*
X265952Y178943D01*
X265900Y179250D01*
X265952Y179557D01*
X266158Y179825D01*
X266468Y180055D01*
X266830Y180208D01*
X267243Y180285D01*
X267657D01*
X268070Y180208D01*
X268432Y180055D01*
X268742Y179825D01*
X268948Y179557D01*
X269000Y179250D01*
G01X265900Y181200D02*
X269000Y181737D01*
X265900Y182350D01*
X269000Y182963D01*
X265900Y183500D01*
G01X269000Y186217D02*
Y184683D01*
X265900D01*
Y186217D01*
G01X267398Y185603D02*
Y184683D01*
G01X269000Y187783D02*
X265900D01*
Y188742D01*
X266055Y189048D01*
X266262Y189240D01*
X266675Y189317D01*
X267088Y189240D01*
X267347Y189010D01*
X267502Y188742D01*
Y187783D01*
G01Y188742D02*
X269000Y189317D01*
G01X294843Y-6658D02*
X294613Y-6503D01*
X294345Y-6400D01*
X294038D01*
X293693Y-6555D01*
X293425Y-6813D01*
X293233Y-7123D01*
X293080Y-7640D01*
X293042Y-8105D01*
X293118Y-8570D01*
X293233Y-8880D01*
X293463Y-9190D01*
X293732Y-9397D01*
X294000Y-9500D01*
X294268D01*
X294537Y-9397D01*
X294767Y-9242D01*
X294958Y-9035D01*
G01X307902Y176533D02*
X308898D01*
G01X310695Y175500D02*
Y178600D01*
G01X312305D02*
Y175500D01*
G01Y177050D02*
X310695D01*
G01X313642Y178600D02*
X314600Y175500D01*
X315558Y178600D01*
G01X320478Y176533D02*
X321398D01*
G01X320900Y177205D02*
Y175862D01*
G01X323195Y175500D02*
Y178600D01*
G01X324805D02*
Y175500D01*
G01Y177050D02*
X323195D01*
G01X326142Y178600D02*
X327100Y175500D01*
X328058Y178600D01*
G01X338953Y184000D02*
Y187100D01*
X339950Y184517D01*
X340947Y187100D01*
Y184000D01*
G01X342322Y186583D02*
X342552Y186893D01*
X342820Y187048D01*
X343127Y187100D01*
X343510Y186997D01*
X343778Y186738D01*
X343855Y186428D01*
X343817Y186118D01*
X343663Y185860D01*
X342897Y185343D01*
X342552Y184982D01*
X342322Y184465D01*
X342245Y184000D01*
X343855D01*
G54D15*
G01X238860Y121791D02*
X279359Y101541D01*
G01Y142041D02*
X238860Y121791D01*
G01X279359Y101541D02*
Y142041D01*
M02*
