G04 From https://github.com/tracespace/tracespace/issues/365*
G04 Generated by Cuprum (2.1.4) at 2021-06-09T12:46:32+02:00*
%FSLAX66Y66*%
%MOMM*%
%TF.FileFunction,FabricationDrawing*%
%TF.SameCoordinates,1C0E9664-7553-46ED-9293-C2E7D2B0B53A*%
%TF.CreationDate,2021-06-09T12:46:32+02:00*%
%TF.GenerationSoftware,Wortum,Cuprum,2.1.4*%
%ADD10C,0.1*%
%ADD11C,0.254*%
G75*
D10*
X28008000Y22481000D02*
G03X26989000Y23500000I-1019000D01*
X24451000Y36745000D02*
X23451000Y37745000I-1000000D01*
X26989000Y0D02*
X28008000Y1019000J1019000D01*
X8000Y1034000D02*
X1042000Y0I1034000D01*
Y23500000D02*
X8000Y22466000J-1034000D01*
X17090000Y37745000D02*
X16090000Y36745000J-1000000D01*
X16078000Y36618000D02*
G01Y36830000D01*
X21133000Y0D02*
X27089000D01*
X20650000Y483000D02*
X21133000Y0D01*
X10719000Y483000D02*
X20650000D01*
X10236000Y0D02*
X10719000Y483000D01*
X1100000Y0D02*
X10236000D01*
X24451000Y23500000D02*
X26949000D01*
X28008000Y1019000D02*
Y22481000D01*
X1042000Y23500000D02*
X16078000D01*
X16951000Y37745000D02*
X23451000D01*
X24451000Y23500000D02*
Y36745000D01*
X8000Y1034000D02*
Y22466000D01*
X16078000Y23500000D02*
Y36618000D01*
D11*
X21519000Y18517000D02*
G03I-945000D01*
%TF.MD5,38bc3e94eca97f5a5e19c326598e4232*%
M02*
