G04 file manually fixed for GerberTools #86 / #143*
%MOIN*%
%OFA0B0*%
%FSLAX23Y23*%
%IPPOS*%
%LPD*%
%ADD10C,0.078*%
%ADD11C,0.075*%
%ADD12C,0.07*%
%ADD13C,0.075433*%
%ADD14C,0.062992*%
%ADD15R,0.075X0.075*%
%ADD16R,0.062992X0.062992*%
%ADD17C,0.024000000000000004*%
%ADD18C,0.048000000000000008*%
%ADD19C,0.032*%
%ADD30C,0.078*%
%ADD31C,0.075*%
%ADD32C,0.07*%
%ADD33C,0.075433*%
%ADD34C,0.062992*%
%ADD35R,0.075X0.075*%
%ADD36R,0.062992X0.062992*%
%ADD37C,0.024000000000000004*%
%ADD38C,0.048000000000000008*%
%ADD39C,0.032*%
%ADD40C,0.078*%
%ADD41C,0.075*%
%ADD42C,0.07*%
%ADD43C,0.075433*%
%ADD44C,0.062992*%
%ADD45R,0.075X0.075*%
%ADD46R,0.062992X0.062992*%
%ADD47C,0.024000000000000004*%
%ADD48C,0.048000000000000008*%
%ADD49C,0.032*%
%ADD50C,0.078*%
%ADD51C,0.075*%
%ADD52C,0.07*%
%ADD53C,0.075433*%
%ADD54C,0.062992*%
%ADD55R,0.075X0.075*%
%ADD56R,0.062992X0.062992*%
%ADD57C,0.024000000000000004*%
%ADD58C,0.048000000000000008*%
%ADD59C,0.032*%
G90*
G54D10*
X00039Y00039D02*
X00452Y01768D03*
X00552Y01768D03*
X00652Y01768D03*
X00752Y01768D03*
G54D11*
X00252Y01418D03*
X00252Y01118D03*
G54D12*
X00352Y00918D03*
X00352Y01018D03*
X00152Y01518D03*
X00152Y01418D03*
G54D11*
X00452Y01618D03*
X00752Y01618D03*
X00452Y01518D03*
X00752Y01518D03*
X00452Y01418D03*
X00752Y01418D03*
X00452Y01317D03*
X00752Y01317D03*
X00452Y01218D03*
X00752Y01218D03*
X00452Y01118D03*
X00752Y01118D03*
X00452Y01018D03*
X00752Y01018D03*
X00452Y00918D03*
X00752Y00918D03*
X00452Y00818D03*
X00752Y00818D03*
X00452Y00718D03*
X00752Y00718D03*
X00452Y00618D03*
X00752Y00618D03*
X00452Y00518D03*
X00752Y00518D03*
X00452Y00418D03*
X00752Y00418D03*
X00452Y00318D03*
X00752Y00318D03*
X00252Y00818D03*
X00252Y00718D03*
X00252Y00618D03*
X00502Y02318D03*
X00602Y02318D03*
X00701Y02318D03*
X00802Y02318D03*
G54D10*
X00327Y02268D03*
X00227Y02268D03*
X00127Y02268D03*
G54D11*
X01052Y01268D03*
X01052Y00968D03*
X01152Y01268D03*
X01152Y00968D03*
X00974Y01368D03*
X00974Y01624D03*
X01152Y01368D03*
X01152Y01624D03*
X00327Y02068D03*
X00327Y01768D03*
X00227Y02068D03*
X00227Y01768D03*
X00127Y02068D03*
X00127Y01768D03*
X00952Y01268D03*
X00952Y00968D03*
G54D10*
X00152Y00818D03*
X00152Y00918D03*
X00152Y01018D03*
X00152Y01118D03*
X00152Y01218D03*
X00152Y01317D03*
G54D13*
X00852Y01218D03*
X00852Y00318D03*
X00152Y00618D03*
X00852Y01518D03*
X00852Y00418D03*
X00852Y01118D03*
X00852Y01018D03*
X00252Y00518D03*
X00252Y00418D03*
X00352Y01118D03*
X00352Y01218D03*
X00352Y00418D03*
X00352Y01317D03*
X00352Y00318D03*
X00852Y00918D03*
G54D14*
X00953Y00818D03*
X01052Y00818D03*
X00953Y00618D03*
X01052Y00618D03*
X00953Y00418D03*
X01052Y00418D03*
G54D15*
X00452Y01618D03*
X00252Y00718D03*
X00327Y02068D03*
G54D16*
X00953Y00818D03*
X00953Y00618D03*
X00953Y00418D03*
G54D17*
X00302Y01843D02*
X00239Y01780D01*
D02*
X00577Y01844D02*
X00302Y01843D01*
D02*
X00637Y01781D02*
X00577Y01844D01*
D02*
X00139Y01780D02*
X00252Y01893D01*
D02*
X00252Y01893D02*
X00626Y01893D01*
D02*
X00626Y01893D02*
X00737Y01781D01*
D02*
X00377Y00619D02*
X00276Y00518D01*
D02*
X00276Y00518D02*
X00269Y00518D01*
D02*
X00434Y00618D02*
X00377Y00619D01*
D02*
X00434Y00518D02*
X00352Y00517D01*
D02*
X00352Y00517D02*
X00264Y00430D01*
D02*
X00434Y00418D02*
X00368Y00418D01*
D02*
X00434Y00318D02*
X00368Y00318D01*
D02*
X00834Y00318D02*
X00769Y00318D01*
D02*
X00834Y00418D02*
X00769Y00418D01*
D02*
X00942Y00429D02*
X00851Y00518D01*
D02*
X00851Y00518D02*
X00769Y00518D01*
D02*
X00876Y00619D02*
X00937Y00618D01*
D02*
X00769Y00618D02*
X00876Y00619D01*
D02*
X00851Y00718D02*
X00942Y00807D01*
D02*
X00769Y00718D02*
X00851Y00718D01*
D02*
X00839Y01230D02*
X00764Y01305D01*
D02*
X00839Y01130D02*
X00764Y01205D01*
D02*
X00839Y01030D02*
X00764Y01105D01*
D02*
X00434Y01317D02*
X00368Y01317D01*
D02*
X00434Y01218D02*
X00368Y01218D01*
D02*
X00434Y01118D02*
X00368Y01118D01*
D02*
X00166Y01518D02*
X00352Y01518D01*
D02*
X00352Y01518D02*
X00439Y01605D01*
D02*
X00251Y01435D02*
X00251Y01518D01*
D02*
X00251Y01518D02*
X00166Y01518D01*
D02*
X00839Y01681D02*
X00765Y01754D01*
D02*
X00651Y01718D02*
X00651Y01749D01*
D02*
X00403Y00718D02*
X00301Y00619D01*
D02*
X00739Y01630D02*
X00651Y01718D01*
D02*
X00763Y01530D02*
X00839Y01617D01*
D02*
X00839Y01617D02*
X00839Y01681D01*
D02*
X00434Y00718D02*
X00403Y00718D01*
D02*
X00301Y00619D02*
X00269Y00618D01*
G54D18*
D02*
X00251Y01018D02*
X00251Y01100D01*
D02*
X00336Y01018D02*
X00251Y01018D01*
D02*
X00652Y00918D02*
X00734Y00918D01*
D02*
X00552Y01018D02*
X00652Y00918D01*
D02*
X00469Y01018D02*
X00552Y01018D01*
D02*
X00552Y01642D02*
X00463Y01753D01*
D02*
X00552Y01018D02*
X00552Y01642D01*
D02*
X00552Y02168D02*
X00602Y02217D01*
D02*
X00602Y02217D02*
X00602Y02300D01*
D02*
X00227Y02168D02*
X00552Y02168D01*
D02*
X00433Y01768D02*
X00344Y01768D01*
D02*
X00227Y02168D02*
X00139Y02080D01*
D02*
X00227Y02249D02*
X00227Y02168D01*
G54D17*
D02*
X00251Y01218D02*
X00165Y01131D01*
D02*
X00251Y01317D02*
X00251Y01218D01*
D02*
X00439Y01506D02*
X00251Y01317D01*
G54D18*
D02*
X00352Y01018D02*
X00434Y01018D01*
D02*
X00361Y01006D02*
X00352Y01018D01*
D02*
X00171Y01018D02*
X00336Y01018D01*
G54D19*
D02*
X00752Y00900D02*
X00752Y00835D01*
G54D17*
D02*
X00152Y01336D02*
X00152Y01402D01*
D02*
X00269Y00818D02*
X00434Y00818D01*
D02*
X00951Y00918D02*
X00952Y00950D01*
D02*
X01040Y00829D02*
X00951Y00918D01*
D02*
X01114Y00680D02*
X01063Y00629D01*
D02*
X01114Y00856D02*
X01114Y00680D01*
D02*
X01052Y00918D02*
X01114Y00856D01*
D02*
X01052Y00950D02*
X01052Y00918D01*
D02*
X01063Y00429D02*
X01152Y00518D01*
D02*
X01152Y00518D02*
X01152Y00950D01*
D02*
X00769Y00918D02*
X00834Y00918D01*
D02*
X00764Y01406D02*
X00802Y01369D01*
D02*
X00802Y01369D02*
X00957Y01368D01*
D02*
X00902Y01566D02*
X00864Y01530D01*
D02*
X00902Y02118D02*
X00902Y01566D01*
D02*
X00713Y02306D02*
X00902Y02118D01*
D02*
X01051Y01592D02*
X00902Y01443D01*
D02*
X00826Y01443D02*
X00764Y01505D01*
D02*
X00815Y02306D02*
X01051Y02092D01*
D02*
X01051Y02092D02*
X01051Y01592D01*
D02*
X00902Y01443D02*
X00826Y01443D01*
G04 next file*
G04 MADE WITH FRITZING*
G04 WWW.FRITZING.ORG*
G04 DOUBLE SIDED*
G04 HOLES PLATED*
G04 CONTOUR ON CENTER OF CONTOUR VECTOR*
G90*
G04 skipping 70*
D30*
X01338Y00039D02*
X01751Y01768D03*
X01851Y01768D03*
X01951Y01768D03*
X02051Y01768D03*
D31*
X01551Y01418D03*
X01551Y01118D03*
D32*
X01651Y00918D03*
X01651Y01018D03*
X01451Y01518D03*
X01451Y01418D03*
D31*
X01751Y01618D03*
X02051Y01618D03*
X01751Y01518D03*
X02051Y01518D03*
X01751Y01418D03*
X02051Y01418D03*
X01751Y01317D03*
X02051Y01317D03*
X01751Y01218D03*
X02051Y01218D03*
X01751Y01118D03*
X02051Y01118D03*
X01751Y01018D03*
X02051Y01018D03*
X01751Y00918D03*
X02051Y00918D03*
X01751Y00818D03*
X02051Y00818D03*
X01751Y00718D03*
X02051Y00718D03*
X01751Y00618D03*
X02051Y00618D03*
X01751Y00518D03*
X02051Y00518D03*
X01751Y00418D03*
X02051Y00418D03*
X01751Y00318D03*
X02051Y00318D03*
X01551Y00818D03*
X01551Y00718D03*
X01551Y00618D03*
X01801Y02318D03*
X01901Y02318D03*
X02001Y02318D03*
X02101Y02318D03*
D30*
X01626Y02268D03*
X01526Y02268D03*
X01426Y02268D03*
D31*
X02351Y01268D03*
X02351Y00968D03*
X02451Y01268D03*
X02451Y00968D03*
X02273Y01368D03*
X02273Y01624D03*
X02451Y01368D03*
X02451Y01624D03*
X01626Y02068D03*
X01626Y01768D03*
X01526Y02068D03*
X01526Y01768D03*
X01426Y02068D03*
X01426Y01768D03*
X02251Y01268D03*
X02251Y00968D03*
D30*
X01451Y00818D03*
X01451Y00918D03*
X01451Y01018D03*
X01451Y01118D03*
X01451Y01218D03*
X01451Y01317D03*
D33*
X02151Y01218D03*
X02151Y00318D03*
X01451Y00618D03*
X02151Y01518D03*
X02151Y00418D03*
X02151Y01118D03*
X02151Y01018D03*
X01551Y00518D03*
X01551Y00418D03*
X01651Y01118D03*
X01651Y01218D03*
X01651Y00418D03*
X01651Y01317D03*
X01651Y00318D03*
X02151Y00918D03*
D34*
X02252Y00818D03*
X02351Y00818D03*
X02252Y00618D03*
X02351Y00618D03*
X02252Y00418D03*
X02351Y00418D03*
D35*
X01751Y01618D03*
X01551Y00718D03*
X01626Y02068D03*
D36*
X02252Y00818D03*
X02252Y00618D03*
X02252Y00418D03*
D37*
X01601Y01843D02*
X01538Y01780D01*
D02*
X01876Y01844D02*
X01601Y01843D01*
D02*
X01937Y01781D02*
X01876Y01844D01*
D02*
X01438Y01780D02*
X01551Y01893D01*
D02*
X01551Y01893D02*
X01925Y01893D01*
D02*
X01925Y01893D02*
X02037Y01781D01*
D02*
X01676Y00619D02*
X01575Y00518D01*
D02*
X01575Y00518D02*
X01568Y00518D01*
D02*
X01733Y00618D02*
X01676Y00619D01*
D02*
X01733Y00518D02*
X01651Y00517D01*
D02*
X01651Y00517D02*
X01563Y00430D01*
D02*
X01733Y00418D02*
X01668Y00418D01*
D02*
X01733Y00318D02*
X01668Y00318D01*
D02*
X02133Y00318D02*
X02068Y00318D01*
D02*
X02133Y00418D02*
X02068Y00418D01*
D02*
X02241Y00429D02*
X02150Y00518D01*
D02*
X02150Y00518D02*
X02068Y00518D01*
D02*
X02175Y00619D02*
X02236Y00618D01*
D02*
X02068Y00618D02*
X02175Y00619D01*
D02*
X02150Y00718D02*
X02241Y00807D01*
D02*
X02068Y00718D02*
X02150Y00718D01*
D02*
X02138Y01230D02*
X02063Y01305D01*
D02*
X02138Y01130D02*
X02063Y01205D01*
D02*
X02138Y01030D02*
X02063Y01105D01*
D02*
X01733Y01317D02*
X01668Y01317D01*
D02*
X01733Y01218D02*
X01668Y01218D01*
D02*
X01733Y01118D02*
X01668Y01118D01*
D02*
X01466Y01518D02*
X01651Y01518D01*
D02*
X01651Y01518D02*
X01738Y01605D01*
D02*
X01550Y01435D02*
X01550Y01518D01*
D02*
X01550Y01518D02*
X01466Y01518D01*
D02*
X02138Y01681D02*
X02064Y01754D01*
D02*
X01950Y01718D02*
X01950Y01749D01*
D02*
X01702Y00718D02*
X01600Y00619D01*
D02*
X02037Y01630D02*
X01950Y01718D01*
D02*
X02062Y01530D02*
X02138Y01617D01*
D02*
X02138Y01617D02*
X02138Y01681D01*
D02*
X01733Y00718D02*
X01702Y00718D01*
D02*
X01600Y00619D02*
X01568Y00618D01*
D38*
D02*
X01550Y01018D02*
X01550Y01100D01*
D02*
X01636Y01018D02*
X01550Y01018D01*
D02*
X01951Y00918D02*
X02033Y00918D01*
D02*
X01851Y01018D02*
X01951Y00918D01*
D02*
X01768Y01018D02*
X01851Y01018D01*
D02*
X01851Y01642D02*
X01762Y01753D01*
D02*
X01851Y01018D02*
X01851Y01642D01*
D02*
X01851Y02168D02*
X01901Y02217D01*
D02*
X01901Y02217D02*
X01901Y02300D01*
D02*
X01526Y02168D02*
X01851Y02168D01*
D02*
X01732Y01768D02*
X01643Y01768D01*
D02*
X01526Y02168D02*
X01438Y02080D01*
D02*
X01526Y02249D02*
X01526Y02168D01*
D37*
D02*
X01550Y01218D02*
X01463Y01131D01*
D02*
X01550Y01317D02*
X01550Y01218D01*
D02*
X01738Y01506D02*
X01550Y01317D01*
D38*
D02*
X01651Y01018D02*
X01733Y01018D01*
D02*
X01660Y01006D02*
X01651Y01018D01*
D02*
X01469Y01018D02*
X01636Y01018D01*
D39*
D02*
X02051Y00900D02*
X02051Y00835D01*
D37*
D02*
X01451Y01336D02*
X01451Y01402D01*
D02*
X01568Y00818D02*
X01733Y00818D01*
D02*
X02250Y00918D02*
X02251Y00950D01*
D02*
X02339Y00829D02*
X02250Y00918D01*
D02*
X02413Y00680D02*
X02362Y00629D01*
D02*
X02413Y00856D02*
X02413Y00680D01*
D02*
X02351Y00918D02*
X02413Y00856D01*
D02*
X02351Y00950D02*
X02351Y00918D01*
D02*
X02362Y00429D02*
X02451Y00518D01*
D02*
X02451Y00518D02*
X02451Y00950D01*
D02*
X02068Y00918D02*
X02133Y00918D01*
D02*
X02063Y01406D02*
X02101Y01369D01*
D02*
X02101Y01369D02*
X02256Y01368D01*
D02*
X02201Y01566D02*
X02163Y01530D01*
D02*
X02201Y02118D02*
X02201Y01566D01*
D02*
X02013Y02306D02*
X02201Y02118D01*
D02*
X02350Y01592D02*
X02201Y01443D01*
D02*
X02125Y01443D02*
X02063Y01505D01*
D02*
X02114Y02306D02*
X02350Y02092D01*
D02*
X02350Y02092D02*
X02350Y01592D01*
D02*
X02201Y01443D02*
X02125Y01443D01*
G04 End of Copper1*
G04 next file*
G04 MADE WITH FRITZING*
G04 WWW.FRITZING.ORG*
G04 DOUBLE SIDED*
G04 HOLES PLATED*
G04 CONTOUR ON CENTER OF CONTOUR VECTOR*
G90*
G04 skipping 70*
D40*
X02637Y00039D02*
X03049Y01768D03*
X03150Y01768D03*
X03250Y01768D03*
X03350Y01768D03*
D41*
X02850Y01418D03*
X02850Y01118D03*
D42*
X02950Y00918D03*
X02950Y01018D03*
X02750Y01518D03*
X02750Y01418D03*
D41*
X03049Y01618D03*
X03350Y01618D03*
X03049Y01518D03*
X03350Y01518D03*
X03049Y01418D03*
X03350Y01418D03*
X03049Y01317D03*
X03350Y01317D03*
X03049Y01218D03*
X03350Y01218D03*
X03049Y01118D03*
X03350Y01118D03*
X03049Y01018D03*
X03350Y01018D03*
X03049Y00918D03*
X03350Y00918D03*
X03049Y00818D03*
X03350Y00818D03*
X03049Y00718D03*
X03350Y00718D03*
X03049Y00618D03*
X03350Y00618D03*
X03049Y00518D03*
X03350Y00518D03*
X03049Y00418D03*
X03350Y00418D03*
X03049Y00318D03*
X03350Y00318D03*
X02850Y00818D03*
X02850Y00718D03*
X02850Y00618D03*
X03100Y02318D03*
X03200Y02318D03*
X03300Y02318D03*
X03400Y02318D03*
D40*
X02925Y02268D03*
X02825Y02268D03*
X02725Y02268D03*
D41*
X03650Y01268D03*
X03650Y00968D03*
X03750Y01268D03*
X03750Y00968D03*
X03572Y01368D03*
X03572Y01624D03*
X03750Y01368D03*
X03750Y01624D03*
X02925Y02068D03*
X02925Y01768D03*
X02825Y02068D03*
X02825Y01768D03*
X02725Y02068D03*
X02725Y01768D03*
X03550Y01268D03*
X03550Y00968D03*
D40*
X02750Y00818D03*
X02750Y00918D03*
X02750Y01018D03*
X02750Y01118D03*
X02750Y01218D03*
X02750Y01317D03*
D43*
X03450Y01218D03*
X03450Y00318D03*
X02750Y00618D03*
X03450Y01518D03*
X03450Y00418D03*
X03450Y01118D03*
X03450Y01018D03*
X02850Y00518D03*
X02850Y00418D03*
X02950Y01118D03*
X02950Y01218D03*
X02950Y00418D03*
X02950Y01317D03*
X02950Y00318D03*
X03450Y00918D03*
D44*
X03550Y00818D03*
X03650Y00818D03*
X03550Y00618D03*
X03650Y00618D03*
X03550Y00418D03*
X03650Y00418D03*
D45*
X03049Y01618D03*
X02850Y00718D03*
X02925Y02068D03*
D46*
X03550Y00818D03*
X03550Y00618D03*
X03550Y00418D03*
D47*
X02900Y01843D02*
X02837Y01780D01*
D02*
X03175Y01844D02*
X02900Y01843D01*
D02*
X03236Y01781D02*
X03175Y01844D01*
D02*
X02737Y01780D02*
X02850Y01893D01*
D02*
X02850Y01893D02*
X03224Y01893D01*
D02*
X03224Y01893D02*
X03336Y01781D01*
D02*
X02975Y00619D02*
X02874Y00518D01*
D02*
X02874Y00518D02*
X02867Y00518D01*
D02*
X03032Y00618D02*
X02975Y00619D01*
D02*
X03032Y00518D02*
X02950Y00517D01*
D02*
X02950Y00517D02*
X02862Y00430D01*
D02*
X03032Y00418D02*
X02967Y00418D01*
D02*
X03032Y00318D02*
X02967Y00318D01*
D02*
X03432Y00318D02*
X03367Y00318D01*
D02*
X03432Y00418D02*
X03367Y00418D01*
D02*
X03540Y00429D02*
X03449Y00518D01*
D02*
X03449Y00518D02*
X03367Y00518D01*
D02*
X03474Y00619D02*
X03535Y00618D01*
D02*
X03367Y00618D02*
X03474Y00619D01*
D02*
X03449Y00718D02*
X03540Y00807D01*
D02*
X03367Y00718D02*
X03449Y00718D01*
D02*
X03437Y01230D02*
X03362Y01305D01*
D02*
X03437Y01130D02*
X03362Y01205D01*
D02*
X03437Y01030D02*
X03362Y01105D01*
D02*
X03032Y01317D02*
X02967Y01317D01*
D02*
X03032Y01218D02*
X02967Y01218D01*
D02*
X03032Y01118D02*
X02967Y01118D01*
D02*
X02765Y01518D02*
X02950Y01518D01*
D02*
X02950Y01518D02*
X03037Y01605D01*
D02*
X02849Y01435D02*
X02849Y01518D01*
D02*
X02849Y01518D02*
X02765Y01518D01*
D02*
X03437Y01681D02*
X03363Y01754D01*
D02*
X03248Y01718D02*
X03248Y01749D01*
D02*
X03001Y00718D02*
X02899Y00619D01*
D02*
X03337Y01630D02*
X03248Y01718D01*
D02*
X03361Y01530D02*
X03437Y01617D01*
D02*
X03437Y01617D02*
X03437Y01681D01*
D02*
X03032Y00718D02*
X03001Y00718D01*
D02*
X02899Y00619D02*
X02867Y00618D01*
D48*
D02*
X02849Y01018D02*
X02849Y01100D01*
D02*
X02935Y01018D02*
X02849Y01018D01*
D02*
X03250Y00918D02*
X03332Y00918D01*
D02*
X03150Y01018D02*
X03250Y00918D01*
D02*
X03067Y01018D02*
X03150Y01018D01*
D02*
X03150Y01642D02*
X03061Y01753D01*
D02*
X03150Y01018D02*
X03150Y01642D01*
D02*
X03150Y02168D02*
X03200Y02217D01*
D02*
X03200Y02217D02*
X03200Y02300D01*
D02*
X02825Y02168D02*
X03150Y02168D01*
D02*
X03031Y01768D02*
X02942Y01768D01*
D02*
X02825Y02168D02*
X02737Y02080D01*
D02*
X02825Y02249D02*
X02825Y02168D01*
D47*
D02*
X02849Y01218D02*
X02763Y01131D01*
D02*
X02849Y01317D02*
X02849Y01218D01*
D02*
X03037Y01506D02*
X02849Y01317D01*
D48*
D02*
X02950Y01018D02*
X03032Y01018D01*
D02*
X02959Y01006D02*
X02950Y01018D01*
D02*
X02769Y01018D02*
X02935Y01018D01*
D49*
D02*
X03350Y00900D02*
X03350Y00835D01*
D47*
D02*
X02750Y01336D02*
X02750Y01402D01*
D02*
X02867Y00818D02*
X03032Y00818D01*
D02*
X03549Y00918D02*
X03550Y00950D01*
D02*
X03638Y00829D02*
X03549Y00918D01*
D02*
X03712Y00680D02*
X03660Y00629D01*
D02*
X03712Y00856D02*
X03712Y00680D01*
D02*
X03650Y00918D02*
X03712Y00856D01*
D02*
X03650Y00950D02*
X03650Y00918D01*
D02*
X03660Y00429D02*
X03750Y00518D01*
D02*
X03750Y00518D02*
X03750Y00950D01*
D02*
X03367Y00918D02*
X03432Y00918D01*
D02*
X03362Y01406D02*
X03400Y01369D01*
D02*
X03400Y01369D02*
X03555Y01368D01*
D02*
X03500Y01566D02*
X03462Y01530D01*
D02*
X03500Y02118D02*
X03500Y01566D01*
D02*
X03312Y02306D02*
X03500Y02118D01*
D02*
X03648Y01592D02*
X03500Y01443D01*
D02*
X03424Y01443D02*
X03362Y01505D01*
D02*
X03413Y02306D02*
X03648Y02092D01*
D02*
X03648Y02092D02*
X03648Y01592D01*
D02*
X03500Y01443D02*
X03424Y01443D01*
G04 End of Copper1*
G04 next file*
G04 MADE WITH FRITZING*
G04 WWW.FRITZING.ORG*
G04 DOUBLE SIDED*
G04 HOLES PLATED*
G04 CONTOUR ON CENTER OF CONTOUR VECTOR*
G90*
G04 skipping 70*
D50*
X02598Y02677D02*
X00869Y03090D03*
X00869Y03190D03*
X00869Y03290D03*
X00869Y03390D03*
D51*
X01219Y02890D03*
X01518Y02890D03*
D52*
X01719Y02990D03*
X01619Y02990D03*
X01119Y02790D03*
X01219Y02790D03*
D51*
X01018Y03090D03*
X01018Y03390D03*
X01119Y03090D03*
X01119Y03390D03*
X01219Y03090D03*
X01219Y03390D03*
X01318Y03090D03*
X01318Y03390D03*
X01419Y03090D03*
X01419Y03390D03*
X01518Y03090D03*
X01518Y03390D03*
X01619Y03090D03*
X01619Y03390D03*
X01719Y03090D03*
X01719Y03390D03*
X01819Y03090D03*
X01819Y03390D03*
X01919Y03090D03*
X01919Y03390D03*
X02019Y03090D03*
X02019Y03390D03*
X02119Y03090D03*
X02119Y03390D03*
X02219Y03090D03*
X02219Y03390D03*
X02319Y03090D03*
X02319Y03390D03*
X01819Y02890D03*
X01919Y02890D03*
X02019Y02890D03*
X00318Y03140D03*
X00318Y03240D03*
X00318Y03340D03*
X00318Y03440D03*
D50*
X00368Y02965D03*
X00368Y02865D03*
X00368Y02765D03*
D51*
X01369Y03690D03*
X01669Y03690D03*
X01369Y03790D03*
X01669Y03790D03*
X01269Y03612D03*
X01012Y03612D03*
X01269Y03790D03*
X01012Y03790D03*
X00569Y02965D03*
X00869Y02965D03*
X00569Y02865D03*
X00869Y02865D03*
X00569Y02765D03*
X00869Y02765D03*
X01369Y03590D03*
X01669Y03590D03*
D50*
X01819Y02790D03*
X01719Y02790D03*
X01619Y02790D03*
X01518Y02790D03*
X01419Y02790D03*
X01318Y02790D03*
D53*
X01419Y03490D03*
X02319Y03490D03*
X02019Y02790D03*
X01119Y03490D03*
X02219Y03490D03*
X01518Y03490D03*
X01619Y03490D03*
X02119Y02890D03*
X02219Y02890D03*
X01518Y02990D03*
X01419Y02990D03*
X02219Y02990D03*
X01318Y02990D03*
X02319Y02990D03*
X01719Y03490D03*
D54*
X01819Y03591D03*
X01819Y03690D03*
X02019Y03591D03*
X02019Y03690D03*
X02219Y03591D03*
X02219Y03690D03*
D55*
X01018Y03090D03*
X01919Y02890D03*
X00569Y02965D03*
D56*
X01819Y03591D03*
X02019Y03591D03*
X02219Y03591D03*
D57*
X00794Y02939D02*
X00857Y02877D01*
D02*
X00793Y03215D02*
X00794Y02939D01*
D02*
X00856Y03276D02*
X00793Y03215D01*
D02*
X00857Y02777D02*
X00743Y02890D01*
D02*
X00743Y02890D02*
X00743Y03264D01*
D02*
X00743Y03264D02*
X00856Y03376D01*
D02*
X02017Y03015D02*
X02119Y02914D01*
D02*
X02119Y02914D02*
X02119Y02907D01*
D02*
X02019Y03072D02*
X02017Y03015D01*
D02*
X02119Y03072D02*
X02120Y02990D01*
D02*
X02120Y02990D02*
X02207Y02902D01*
D02*
X02219Y03072D02*
X02219Y03007D01*
D02*
X02319Y03072D02*
X02319Y03007D01*
D02*
X02319Y03472D02*
X02319Y03406D01*
D02*
X02219Y03472D02*
X02219Y03406D01*
D02*
X02208Y03580D02*
X02119Y03489D01*
D02*
X02119Y03489D02*
X02119Y03406D01*
D02*
X02017Y03514D02*
X02019Y03574D01*
D02*
X02019Y03406D02*
X02017Y03514D01*
D02*
X01919Y03489D02*
X01830Y03580D01*
D02*
X01919Y03406D02*
X01919Y03489D01*
D02*
X01407Y03477D02*
X01332Y03402D01*
D02*
X01506Y03477D02*
X01432Y03402D01*
D02*
X01607Y03477D02*
X01532Y03402D01*
D02*
X01318Y03072D02*
X01318Y03007D01*
D02*
X01419Y03072D02*
X01419Y03007D01*
D02*
X01518Y03072D02*
X01518Y03007D01*
D02*
X01119Y02805D02*
X01119Y02990D01*
D02*
X01119Y02990D02*
X01032Y03077D01*
D02*
X01202Y02889D02*
X01119Y02889D01*
D02*
X01119Y02889D02*
X01119Y02805D01*
D02*
X00956Y03477D02*
X00883Y03403D01*
D02*
X00919Y03289D02*
X00888Y03289D01*
D02*
X01919Y03041D02*
X02017Y02939D01*
D02*
X01006Y03377D02*
X00919Y03289D01*
D02*
X01106Y03401D02*
X01020Y03477D01*
D02*
X01020Y03477D02*
X00956Y03477D01*
D02*
X01919Y03072D02*
X01919Y03041D01*
D02*
X02017Y02939D02*
X02019Y02907D01*
D58*
D02*
X01619Y02889D02*
X01536Y02889D01*
D02*
X01619Y02975D02*
X01619Y02889D01*
D02*
X01719Y03290D02*
X01719Y03372D01*
D02*
X01619Y03190D02*
X01719Y03290D01*
D02*
X01619Y03107D02*
X01619Y03190D01*
D02*
X00995Y03190D02*
X00884Y03101D01*
D02*
X01619Y03190D02*
X00995Y03190D01*
D02*
X00469Y03190D02*
X00420Y03240D01*
D02*
X00420Y03240D02*
X00336Y03240D01*
D02*
X00469Y02865D02*
X00469Y03190D01*
D02*
X00869Y03071D02*
X00869Y02982D01*
D02*
X00469Y02865D02*
X00557Y02777D01*
D02*
X00388Y02865D02*
X00469Y02865D01*
D57*
D02*
X01419Y02889D02*
X01506Y02803D01*
D02*
X01320Y02889D02*
X01419Y02889D01*
D02*
X01131Y03077D02*
X01320Y02889D01*
D58*
D02*
X01619Y02990D02*
X01619Y03072D01*
D02*
X01631Y02999D02*
X01619Y02990D01*
D02*
X01619Y02809D02*
X01619Y02975D01*
D59*
D02*
X01737Y03390D02*
X01802Y03390D01*
D57*
D02*
X01299Y02790D02*
X01234Y02790D01*
D02*
X01819Y02907D02*
X01819Y03072D01*
D02*
X01719Y03588D02*
X01687Y03590D01*
D02*
X01808Y03678D02*
X01719Y03588D01*
D02*
X01957Y03752D02*
X02008Y03701D01*
D02*
X01781Y03752D02*
X01957Y03752D01*
D02*
X01719Y03690D02*
X01781Y03752D01*
D02*
X01687Y03690D02*
X01719Y03690D01*
D02*
X02208Y03701D02*
X02119Y03790D01*
D02*
X02119Y03790D02*
X01687Y03790D01*
D02*
X01719Y03406D02*
X01719Y03472D01*
D02*
X01231Y03402D02*
X01268Y03440D01*
D02*
X01268Y03440D02*
X01269Y03595D01*
D02*
X01070Y03540D02*
X01107Y03502D01*
D02*
X00519Y03540D02*
X01070Y03540D01*
D02*
X00330Y03352D02*
X00519Y03540D01*
D02*
X01045Y03689D02*
X01194Y03540D01*
D02*
X01194Y03464D02*
X01132Y03402D01*
D02*
X00330Y03453D02*
X00545Y03689D01*
D02*
X00545Y03689D02*
X01045Y03689D01*
D02*
X01194Y03540D02*
X01194Y03464D01*
G04 End of Copper1*
M02*
