%MOIN*%
%OFA0B0*%
%FSLAX44Y44*%
%IPPOS*%
%LPD*%
%ADD10C,0*%
D10*
X00007412Y00026771D02*
X00007412Y00026771D01*
X00018571Y00026771D01*
X00018595Y00026770D01*
X00018619Y00026768D01*
X00018643Y00026764D01*
X00018667Y00026759D01*
X00018690Y00026753D01*
X00018713Y00026745D01*
X00018735Y00026735D01*
X00018757Y00026724D01*
X00018778Y00026712D01*
X00018798Y00026699D01*
X00018818Y00026684D01*
X00018836Y00026669D01*
X00018853Y00026652D01*
X00018870Y00026634D01*
X00018885Y00026615D01*
X00018899Y00026595D01*
X00018912Y00026575D01*
X00018923Y00026553D01*
X00018933Y00026531D01*
X00018942Y00026509D01*
X00018942Y00026508D01*
X00018953Y00026472D01*
X00018961Y00026435D01*
X00018964Y00026398D01*
X00018965Y00026360D01*
X00018961Y00026323D01*
X00018954Y00026286D01*
X00018944Y00026250D01*
X00018930Y00026215D01*
X00018913Y00026181D01*
X00018893Y00026150D01*
X00018870Y00026120D01*
X00018844Y00026093D01*
X00018815Y00026068D01*
X00018785Y00026046D01*
X00018752Y00026027D01*
X00018718Y00026012D01*
X00018682Y00025999D01*
X00018646Y00025990D01*
X00018609Y00025985D01*
X00018571Y00025983D01*
X00014435Y00025983D01*
X00014425Y00025973D01*
X00014355Y00025973D01*
X00014345Y00025963D01*
X00014305Y00025963D01*
X00014295Y00025953D01*
X00014255Y00025953D01*
X00014245Y00025943D01*
X00014225Y00025943D01*
X00014215Y00025933D01*
X00014185Y00025933D01*
X00014175Y00025923D01*
X00014155Y00025923D01*
X00014145Y00025913D01*
X00014135Y00025913D01*
X00014125Y00025903D01*
X00014105Y00025903D01*
X00014095Y00025893D01*
X00014085Y00025893D01*
X00014075Y00025883D01*
X00014065Y00025883D01*
X00014055Y00025873D01*
X00014035Y00025873D01*
X00014025Y00025863D01*
X00014015Y00025863D01*
X00014005Y00025853D01*
X00013995Y00025853D01*
X00013985Y00025843D01*
X00013975Y00025833D01*
X00013965Y00025833D01*
X00013955Y00025823D01*
X00013945Y00025823D01*
X00013935Y00025813D01*
X00013925Y00025813D01*
X00013915Y00025803D01*
X00013905Y00025793D01*
X00013895Y00025793D01*
X00013875Y00025773D01*
X00013865Y00025773D01*
X00013855Y00025763D01*
X00013845Y00025753D01*
X00013835Y00025743D01*
X00013825Y00025743D01*
X00013815Y00025733D01*
X00013805Y00025723D01*
X00013795Y00025713D01*
X00013785Y00025703D01*
X00013755Y00025673D01*
X00013745Y00025673D01*
X00013725Y00025653D01*
X00013715Y00025643D01*
X00013705Y00025633D01*
X00013685Y00025613D01*
X00013685Y00025603D01*
X00013675Y00025593D01*
X00013665Y00025583D01*
X00013655Y00025573D01*
X00013645Y00025563D01*
X00013625Y00025543D01*
X00013625Y00025533D01*
X00013615Y00025523D01*
X00013605Y00025513D01*
X00013595Y00025503D01*
X00013595Y00025493D01*
X00013585Y00025483D01*
X00013575Y00025473D01*
X00013575Y00025463D01*
X00013565Y00025453D01*
X00013555Y00025443D01*
X00013555Y00025433D01*
X00013545Y00025423D01*
X00013545Y00025413D01*
X00013535Y00025403D01*
X00013525Y00025393D01*
X00013525Y00025383D01*
X00013515Y00025373D01*
X00013515Y00025363D01*
X00013505Y00025353D01*
X00013505Y00025343D01*
X00013495Y00025333D01*
X00013495Y00025323D01*
X00013485Y00025313D01*
X00013485Y00025303D01*
X00013475Y00025293D01*
X00013475Y00025273D01*
X00013465Y00025263D01*
X00013465Y00025253D01*
X00013455Y00025243D01*
X00013455Y00025223D01*
X00013445Y00025213D01*
X00013445Y00025193D01*
X00013435Y00025183D01*
X00013435Y00025163D01*
X00013425Y00025153D01*
X00013425Y00025123D01*
X00013415Y00025113D01*
X00013415Y00025083D01*
X00013405Y00025073D01*
X00013405Y00025023D01*
X00013395Y00025013D01*
X00013395Y00024943D01*
X00013385Y00024933D01*
X00013385Y00021192D01*
X00013385Y00021168D01*
X00013382Y00021144D01*
X00013379Y00021120D01*
X00013374Y00021096D01*
X00013367Y00021073D01*
X00013359Y00021050D01*
X00013350Y00021028D01*
X00013339Y00021007D01*
X00013327Y00020986D01*
X00013314Y00020966D01*
X00013299Y00020946D01*
X00013284Y00020928D01*
X00013267Y00020911D01*
X00013249Y00020894D01*
X00013231Y00020879D01*
X00013211Y00020865D01*
X00013191Y00020852D01*
X00013170Y00020841D01*
X00013148Y00020830D01*
X00013125Y00020821D01*
X00013111Y00020816D01*
X00013075Y00020805D01*
X00013038Y00020797D01*
X00013000Y00020793D01*
X00012962Y00020793D01*
X00012925Y00020796D01*
X00012888Y00020803D01*
X00012851Y00020813D01*
X00012816Y00020827D01*
X00012783Y00020844D01*
X00012751Y00020864D01*
X00012721Y00020887D01*
X00012693Y00020913D01*
X00012669Y00020942D01*
X00012647Y00020972D01*
X00012628Y00021005D01*
X00012612Y00021039D01*
X00012599Y00021075D01*
X00012590Y00021111D01*
X00012585Y00021149D01*
X00012583Y00021186D01*
X00012583Y00024933D01*
X00012573Y00024943D01*
X00012573Y00025013D01*
X00012563Y00025023D01*
X00012563Y00025073D01*
X00012553Y00025083D01*
X00012553Y00025113D01*
X00012543Y00025123D01*
X00012543Y00025153D01*
X00012533Y00025163D01*
X00012533Y00025183D01*
X00012523Y00025193D01*
X00012523Y00025213D01*
X00012513Y00025223D01*
X00012513Y00025243D01*
X00012503Y00025253D01*
X00012503Y00025263D01*
X00012493Y00025273D01*
X00012493Y00025293D01*
X00012483Y00025303D01*
X00012483Y00025313D01*
X00012473Y00025323D01*
X00012473Y00025333D01*
X00012463Y00025343D01*
X00012463Y00025353D01*
X00012453Y00025363D01*
X00012453Y00025373D01*
X00012443Y00025383D01*
X00012443Y00025393D01*
X00012433Y00025403D01*
X00012423Y00025413D01*
X00012423Y00025423D01*
X00012413Y00025433D01*
X00012413Y00025443D01*
X00012403Y00025453D01*
X00012393Y00025463D01*
X00012393Y00025473D01*
X00012373Y00025493D01*
X00012373Y00025503D01*
X00012363Y00025513D01*
X00012353Y00025523D01*
X00012343Y00025533D01*
X00012343Y00025543D01*
X00012333Y00025553D01*
X00012323Y00025563D01*
X00012313Y00025573D01*
X00012303Y00025583D01*
X00012293Y00025593D01*
X00012283Y00025603D01*
X00012273Y00025613D01*
X00012273Y00025623D01*
X00012263Y00025633D01*
X00012253Y00025643D01*
X00012243Y00025653D01*
X00012233Y00025663D01*
X00012223Y00025673D01*
X00012213Y00025673D01*
X00012203Y00025683D01*
X00012193Y00025693D01*
X00012183Y00025703D01*
X00012173Y00025713D01*
X00012163Y00025723D01*
X00012153Y00025733D01*
X00012143Y00025743D01*
X00012133Y00025743D01*
X00012123Y00025753D01*
X00012113Y00025763D01*
X00012103Y00025763D01*
X00012093Y00025773D01*
X00012083Y00025783D01*
X00012073Y00025793D01*
X00012063Y00025793D01*
X00012053Y00025803D01*
X00012043Y00025813D01*
X00012033Y00025813D01*
X00012023Y00025823D01*
X00012013Y00025823D01*
X00012003Y00025833D01*
X00011993Y00025833D01*
X00011983Y00025843D01*
X00011973Y00025853D01*
X00011963Y00025853D01*
X00011953Y00025863D01*
X00011943Y00025863D01*
X00011933Y00025873D01*
X00011913Y00025873D01*
X00011903Y00025883D01*
X00011893Y00025883D01*
X00011883Y00025893D01*
X00011873Y00025893D01*
X00011863Y00025903D01*
X00011843Y00025903D01*
X00011833Y00025913D01*
X00011823Y00025913D01*
X00011813Y00025923D01*
X00011793Y00025923D01*
X00011783Y00025933D01*
X00011753Y00025933D01*
X00011743Y00025943D01*
X00011723Y00025943D01*
X00011713Y00025953D01*
X00011673Y00025953D01*
X00011663Y00025963D01*
X00011623Y00025963D01*
X00011613Y00025973D01*
X00011543Y00025973D01*
X00011533Y00025983D01*
X00007412Y00025983D01*
X00007375Y00025985D01*
X00007337Y00025990D01*
X00007301Y00025999D01*
X00007265Y00026012D01*
X00007231Y00026027D01*
X00007199Y00026046D01*
X00007168Y00026068D01*
X00007140Y00026093D01*
X00007114Y00026120D01*
X00007091Y00026150D01*
X00007070Y00026181D01*
X00007053Y00026215D01*
X00007039Y00026250D01*
X00007029Y00026286D01*
X00007022Y00026323D01*
X00007019Y00026360D01*
X00007019Y00026398D01*
X00007023Y00026435D01*
X00007030Y00026472D01*
X00007041Y00026508D01*
X00007041Y00026509D01*
X00007050Y00026531D01*
X00007060Y00026553D01*
X00007072Y00026575D01*
X00007084Y00026595D01*
X00007098Y00026615D01*
X00007114Y00026634D01*
X00007130Y00026652D01*
X00007147Y00026669D01*
X00007166Y00026684D01*
X00007185Y00026699D01*
X00007205Y00026712D01*
X00007226Y00026724D01*
X00007248Y00026735D01*
X00007270Y00026745D01*
X00007293Y00026753D01*
X00007316Y00026759D01*
X00007340Y00026764D01*
X00007364Y00026768D01*
X00007388Y00026770D01*
X00007412Y00026771D01*
X00005185Y00025983D02*
X00005185Y00025983D01*
X00001443Y00025983D01*
X00001433Y00025973D01*
X00001363Y00025973D01*
X00001353Y00025963D01*
X00001313Y00025963D01*
X00001303Y00025953D01*
X00001263Y00025953D01*
X00001253Y00025943D01*
X00001233Y00025943D01*
X00001223Y00025933D01*
X00001193Y00025933D01*
X00001183Y00025923D01*
X00001163Y00025923D01*
X00001153Y00025913D01*
X00001143Y00025913D01*
X00001133Y00025903D01*
X00001113Y00025903D01*
X00001103Y00025893D01*
X00001093Y00025893D01*
X00001083Y00025883D01*
X00001073Y00025883D01*
X00001063Y00025873D01*
X00001043Y00025873D01*
X00001033Y00025863D01*
X00001023Y00025863D01*
X00001013Y00025853D01*
X00001003Y00025853D01*
X00000993Y00025843D01*
X00000983Y00025833D01*
X00000973Y00025833D01*
X00000963Y00025823D01*
X00000953Y00025823D01*
X00000943Y00025813D01*
X00000933Y00025813D01*
X00000923Y00025803D01*
X00000913Y00025793D01*
X00000903Y00025793D01*
X00000883Y00025773D01*
X00000873Y00025773D01*
X00000863Y00025763D01*
X00000853Y00025753D01*
X00000843Y00025743D01*
X00000833Y00025743D01*
X00000823Y00025733D01*
X00000813Y00025723D01*
X00000803Y00025713D01*
X00000793Y00025703D01*
X00000763Y00025673D01*
X00000753Y00025673D01*
X00000733Y00025653D01*
X00000723Y00025643D01*
X00000713Y00025633D01*
X00000693Y00025613D01*
X00000693Y00025603D01*
X00000683Y00025593D01*
X00000673Y00025583D01*
X00000663Y00025573D01*
X00000653Y00025563D01*
X00000633Y00025543D01*
X00000633Y00025533D01*
X00000623Y00025523D01*
X00000613Y00025513D01*
X00000603Y00025503D01*
X00000603Y00025493D01*
X00000593Y00025483D01*
X00000583Y00025473D01*
X00000583Y00025463D01*
X00000573Y00025453D01*
X00000563Y00025443D01*
X00000563Y00025433D01*
X00000553Y00025423D01*
X00000553Y00025413D01*
X00000543Y00025403D01*
X00000533Y00025393D01*
X00000533Y00025383D01*
X00000523Y00025373D01*
X00000523Y00025363D01*
X00000513Y00025353D01*
X00000513Y00025343D01*
X00000503Y00025333D01*
X00000503Y00025323D01*
X00000493Y00025313D01*
X00000493Y00025303D01*
X00000483Y00025293D01*
X00000483Y00025273D01*
X00000473Y00025263D01*
X00000473Y00025253D01*
X00000463Y00025243D01*
X00000463Y00025223D01*
X00000453Y00025213D01*
X00000453Y00025193D01*
X00000443Y00025183D01*
X00000443Y00025163D01*
X00000433Y00025153D01*
X00000433Y00025123D01*
X00000423Y00025113D01*
X00000423Y00025083D01*
X00000413Y00025073D01*
X00000413Y00025023D01*
X00000403Y00025013D01*
X00000403Y00024943D01*
X00000393Y00024933D01*
X00000393Y00001453D01*
X00000403Y00001443D01*
X00000403Y00001373D01*
X00000413Y00001363D01*
X00000413Y00001313D01*
X00000423Y00001303D01*
X00000423Y00001273D01*
X00000433Y00001263D01*
X00000433Y00001233D01*
X00000443Y00001223D01*
X00000443Y00001203D01*
X00000453Y00001193D01*
X00000453Y00001173D01*
X00000463Y00001163D01*
X00000463Y00001143D01*
X00000473Y00001133D01*
X00000473Y00001123D01*
X00000483Y00001113D01*
X00000483Y00001093D01*
X00000493Y00001083D01*
X00000493Y00001073D01*
X00000503Y00001063D01*
X00000503Y00001053D01*
X00000513Y00001043D01*
X00000513Y00001033D01*
X00000523Y00001023D01*
X00000523Y00001013D01*
X00000533Y00001003D01*
X00000533Y00000993D01*
X00000543Y00000983D01*
X00000553Y00000973D01*
X00000553Y00000963D01*
X00000563Y00000953D01*
X00000563Y00000943D01*
X00000573Y00000933D01*
X00000583Y00000923D01*
X00000583Y00000913D01*
X00000593Y00000903D01*
X00000603Y00000893D01*
X00000603Y00000883D01*
X00000613Y00000873D01*
X00000633Y00000853D01*
X00000633Y00000843D01*
X00000653Y00000823D01*
X00000663Y00000813D01*
X00000673Y00000803D01*
X00000683Y00000793D01*
X00000693Y00000783D01*
X00000693Y00000773D01*
X00000713Y00000753D01*
X00000723Y00000743D01*
X00000743Y00000723D01*
X00000753Y00000713D01*
X00000763Y00000713D01*
X00000773Y00000703D01*
X00000783Y00000693D01*
X00000793Y00000683D01*
X00000803Y00000673D01*
X00000813Y00000663D01*
X00000823Y00000653D01*
X00000833Y00000643D01*
X00000843Y00000643D01*
X00000863Y00000623D01*
X00000873Y00000623D01*
X00000883Y00000613D01*
X00000893Y00000603D01*
X00000903Y00000593D01*
X00000913Y00000593D01*
X00000923Y00000583D01*
X00000933Y00000573D01*
X00000943Y00000573D01*
X00000953Y00000563D01*
X00000963Y00000563D01*
X00000973Y00000553D01*
X00000983Y00000553D01*
X00000993Y00000543D01*
X00001003Y00000533D01*
X00001013Y00000533D01*
X00001023Y00000523D01*
X00001033Y00000523D01*
X00001043Y00000513D01*
X00001063Y00000513D01*
X00001073Y00000503D01*
X00001083Y00000503D01*
X00001093Y00000493D01*
X00001103Y00000493D01*
X00001113Y00000483D01*
X00001133Y00000483D01*
X00001143Y00000473D01*
X00001153Y00000473D01*
X00001163Y00000463D01*
X00001183Y00000463D01*
X00001193Y00000453D01*
X00001223Y00000453D01*
X00001233Y00000443D01*
X00001253Y00000443D01*
X00001263Y00000433D01*
X00001303Y00000433D01*
X00001313Y00000423D01*
X00001353Y00000423D01*
X00001363Y00000413D01*
X00001433Y00000413D01*
X00001443Y00000403D01*
X00011533Y00000403D01*
X00011543Y00000413D01*
X00011613Y00000413D01*
X00011623Y00000423D01*
X00011663Y00000423D01*
X00011673Y00000433D01*
X00011713Y00000433D01*
X00011723Y00000443D01*
X00011743Y00000443D01*
X00011753Y00000453D01*
X00011783Y00000453D01*
X00011793Y00000463D01*
X00011813Y00000463D01*
X00011823Y00000473D01*
X00011833Y00000473D01*
X00011843Y00000483D01*
X00011863Y00000483D01*
X00011873Y00000493D01*
X00011883Y00000493D01*
X00011893Y00000503D01*
X00011903Y00000503D01*
X00011913Y00000513D01*
X00011933Y00000513D01*
X00011943Y00000523D01*
X00011953Y00000523D01*
X00011963Y00000533D01*
X00011973Y00000533D01*
X00011983Y00000543D01*
X00011993Y00000553D01*
X00012003Y00000553D01*
X00012013Y00000563D01*
X00012023Y00000563D01*
X00012033Y00000573D01*
X00012043Y00000573D01*
X00012053Y00000583D01*
X00012063Y00000593D01*
X00012073Y00000593D01*
X00012083Y00000603D01*
X00012103Y00000623D01*
X00012113Y00000623D01*
X00012123Y00000633D01*
X00012133Y00000643D01*
X00012143Y00000643D01*
X00012153Y00000653D01*
X00012163Y00000663D01*
X00012173Y00000673D01*
X00012183Y00000683D01*
X00012193Y00000693D01*
X00012203Y00000703D01*
X00012213Y00000713D01*
X00012223Y00000713D01*
X00012233Y00000723D01*
X00012243Y00000733D01*
X00012253Y00000743D01*
X00012263Y00000753D01*
X00012273Y00000763D01*
X00012273Y00000773D01*
X00012283Y00000783D01*
X00012293Y00000793D01*
X00012303Y00000803D01*
X00012313Y00000813D01*
X00012323Y00000823D01*
X00012333Y00000833D01*
X00012343Y00000843D01*
X00012343Y00000853D01*
X00012353Y00000863D01*
X00012363Y00000873D01*
X00012373Y00000883D01*
X00012373Y00000893D01*
X00012383Y00000903D01*
X00012393Y00000913D01*
X00012393Y00000923D01*
X00012403Y00000933D01*
X00012413Y00000943D01*
X00012413Y00000953D01*
X00012423Y00000963D01*
X00012423Y00000973D01*
X00012433Y00000983D01*
X00012443Y00000993D01*
X00012443Y00001003D01*
X00012453Y00001013D01*
X00012453Y00001023D01*
X00012463Y00001033D01*
X00012463Y00001043D01*
X00012473Y00001053D01*
X00012473Y00001063D01*
X00012483Y00001073D01*
X00012483Y00001083D01*
X00012493Y00001093D01*
X00012493Y00001113D01*
X00012503Y00001123D01*
X00012503Y00001133D01*
X00012513Y00001143D01*
X00012513Y00001163D01*
X00012523Y00001173D01*
X00012523Y00001193D01*
X00012533Y00001203D01*
X00012533Y00001223D01*
X00012543Y00001233D01*
X00012543Y00001263D01*
X00012553Y00001273D01*
X00012553Y00001303D01*
X00012563Y00001313D01*
X00012563Y00001363D01*
X00012573Y00001373D01*
X00012573Y00001443D01*
X00012583Y00001453D01*
X00012583Y00004797D01*
X00012585Y00004834D01*
X00012590Y00004872D01*
X00012599Y00004908D01*
X00012612Y00004944D01*
X00012628Y00004978D01*
X00012647Y00005011D01*
X00012669Y00005042D01*
X00012693Y00005070D01*
X00012721Y00005096D01*
X00012751Y00005119D01*
X00012783Y00005139D01*
X00012816Y00005156D01*
X00012851Y00005170D01*
X00012888Y00005180D01*
X00012925Y00005187D01*
X00012962Y00005190D01*
X00013000Y00005190D01*
X00013038Y00005186D01*
X00013075Y00005178D01*
X00013111Y00005167D01*
X00013125Y00005162D01*
X00013148Y00005153D01*
X00013170Y00005143D01*
X00013191Y00005131D01*
X00013211Y00005118D01*
X00013231Y00005104D01*
X00013249Y00005089D01*
X00013267Y00005073D01*
X00013284Y00005055D01*
X00013299Y00005037D01*
X00013314Y00005018D01*
X00013327Y00004998D01*
X00013339Y00004977D01*
X00013350Y00004955D01*
X00013359Y00004933D01*
X00013367Y00004910D01*
X00013374Y00004887D01*
X00013379Y00004863D01*
X00013382Y00004840D01*
X00013385Y00004816D01*
X00013385Y00004791D01*
X00013385Y00001453D01*
X00013395Y00001443D01*
X00013395Y00001373D01*
X00013405Y00001363D01*
X00013405Y00001313D01*
X00013415Y00001303D01*
X00013415Y00001273D01*
X00013425Y00001263D01*
X00013425Y00001233D01*
X00013435Y00001223D01*
X00013435Y00001203D01*
X00013445Y00001193D01*
X00013445Y00001173D01*
X00013455Y00001163D01*
X00013455Y00001143D01*
X00013465Y00001133D01*
X00013465Y00001123D01*
X00013475Y00001113D01*
X00013475Y00001093D01*
X00013485Y00001083D01*
X00013485Y00001073D01*
X00013495Y00001063D01*
X00013495Y00001053D01*
X00013505Y00001043D01*
X00013505Y00001033D01*
X00013515Y00001023D01*
X00013515Y00001013D01*
X00013525Y00001003D01*
X00013525Y00000993D01*
X00013535Y00000983D01*
X00013545Y00000973D01*
X00013545Y00000963D01*
X00013555Y00000953D01*
X00013555Y00000943D01*
X00013565Y00000933D01*
X00013575Y00000923D01*
X00013575Y00000913D01*
X00013585Y00000903D01*
X00013595Y00000893D01*
X00013595Y00000883D01*
X00013605Y00000873D01*
X00013625Y00000853D01*
X00013625Y00000843D01*
X00013645Y00000823D01*
X00013655Y00000813D01*
X00013665Y00000803D01*
X00013675Y00000793D01*
X00013685Y00000783D01*
X00013685Y00000773D01*
X00013705Y00000753D01*
X00013715Y00000743D01*
X00013735Y00000723D01*
X00013745Y00000713D01*
X00013755Y00000713D01*
X00013765Y00000703D01*
X00013775Y00000693D01*
X00013785Y00000683D01*
X00013795Y00000673D01*
X00013805Y00000663D01*
X00013815Y00000653D01*
X00013825Y00000643D01*
X00013835Y00000643D01*
X00013855Y00000623D01*
X00013865Y00000623D01*
X00013875Y00000613D01*
X00013885Y00000603D01*
X00013895Y00000593D01*
X00013905Y00000593D01*
X00013915Y00000583D01*
X00013925Y00000573D01*
X00013935Y00000573D01*
X00013945Y00000563D01*
X00013955Y00000563D01*
X00013965Y00000553D01*
X00013975Y00000553D01*
X00013985Y00000543D01*
X00013995Y00000533D01*
X00014005Y00000533D01*
X00014015Y00000523D01*
X00014025Y00000523D01*
X00014035Y00000513D01*
X00014055Y00000513D01*
X00014065Y00000503D01*
X00014075Y00000503D01*
X00014085Y00000493D01*
X00014095Y00000493D01*
X00014105Y00000483D01*
X00014125Y00000483D01*
X00014135Y00000473D01*
X00014145Y00000473D01*
X00014155Y00000463D01*
X00014175Y00000463D01*
X00014185Y00000453D01*
X00014215Y00000453D01*
X00014225Y00000443D01*
X00014245Y00000443D01*
X00014255Y00000433D01*
X00014295Y00000433D01*
X00014305Y00000423D01*
X00014345Y00000423D01*
X00014355Y00000413D01*
X00014425Y00000413D01*
X00014435Y00000403D01*
X00024525Y00000403D01*
X00024535Y00000413D01*
X00024605Y00000413D01*
X00024615Y00000423D01*
X00024655Y00000423D01*
X00024665Y00000433D01*
X00024705Y00000433D01*
X00024715Y00000443D01*
X00024735Y00000443D01*
X00024745Y00000453D01*
X00024775Y00000453D01*
X00024785Y00000463D01*
X00024805Y00000463D01*
X00024815Y00000473D01*
X00024825Y00000473D01*
X00024835Y00000483D01*
X00024855Y00000483D01*
X00024865Y00000493D01*
X00024875Y00000493D01*
X00024885Y00000503D01*
X00024895Y00000503D01*
X00024905Y00000513D01*
X00024925Y00000513D01*
X00024935Y00000523D01*
X00024945Y00000523D01*
X00024955Y00000533D01*
X00024965Y00000533D01*
X00024975Y00000543D01*
X00024985Y00000553D01*
X00024995Y00000553D01*
X00025005Y00000563D01*
X00025015Y00000563D01*
X00025025Y00000573D01*
X00025035Y00000573D01*
X00025045Y00000583D01*
X00025055Y00000593D01*
X00025065Y00000593D01*
X00025075Y00000603D01*
X00025095Y00000623D01*
X00025105Y00000623D01*
X00025115Y00000633D01*
X00025125Y00000643D01*
X00025135Y00000643D01*
X00025145Y00000653D01*
X00025155Y00000663D01*
X00025165Y00000673D01*
X00025175Y00000683D01*
X00025185Y00000693D01*
X00025195Y00000703D01*
X00025205Y00000713D01*
X00025215Y00000713D01*
X00025225Y00000723D01*
X00025235Y00000733D01*
X00025245Y00000743D01*
X00025255Y00000753D01*
X00025265Y00000763D01*
X00025265Y00000773D01*
X00025275Y00000783D01*
X00025285Y00000793D01*
X00025295Y00000803D01*
X00025305Y00000813D01*
X00025315Y00000823D01*
X00025325Y00000833D01*
X00025335Y00000843D01*
X00025335Y00000853D01*
X00025345Y00000863D01*
X00025355Y00000873D01*
X00025365Y00000883D01*
X00025365Y00000893D01*
X00025375Y00000903D01*
X00025385Y00000913D01*
X00025385Y00000923D01*
X00025395Y00000933D01*
X00025405Y00000943D01*
X00025405Y00000953D01*
X00025415Y00000963D01*
X00025415Y00000973D01*
X00025425Y00000983D01*
X00025435Y00000993D01*
X00025435Y00001003D01*
X00025445Y00001013D01*
X00025445Y00001023D01*
X00025455Y00001033D01*
X00025455Y00001043D01*
X00025465Y00001053D01*
X00025465Y00001063D01*
X00025475Y00001073D01*
X00025475Y00001083D01*
X00025485Y00001093D01*
X00025485Y00001113D01*
X00025495Y00001123D01*
X00025495Y00001133D01*
X00025505Y00001143D01*
X00025505Y00001163D01*
X00025515Y00001173D01*
X00025515Y00001193D01*
X00025525Y00001203D01*
X00025525Y00001223D01*
X00025535Y00001233D01*
X00025535Y00001263D01*
X00025545Y00001273D01*
X00025545Y00001303D01*
X00025555Y00001313D01*
X00025555Y00001363D01*
X00025565Y00001373D01*
X00025565Y00001443D01*
X00025575Y00001453D01*
X00025575Y00004797D01*
X00025577Y00004834D01*
X00025583Y00004872D01*
X00025591Y00004908D01*
X00025604Y00004944D01*
X00025620Y00004978D01*
X00025639Y00005011D01*
X00025661Y00005042D01*
X00025686Y00005070D01*
X00025713Y00005096D01*
X00025743Y00005119D01*
X00025775Y00005139D01*
X00025808Y00005156D01*
X00025843Y00005170D01*
X00025880Y00005180D01*
X00025917Y00005187D01*
X00025954Y00005190D01*
X00025992Y00005190D01*
X00026030Y00005186D01*
X00026067Y00005178D01*
X00026103Y00005167D01*
X00026117Y00005162D01*
X00026140Y00005153D01*
X00026162Y00005143D01*
X00026183Y00005131D01*
X00026203Y00005118D01*
X00026223Y00005104D01*
X00026242Y00005089D01*
X00026259Y00005073D01*
X00026276Y00005055D01*
X00026292Y00005037D01*
X00026306Y00005018D01*
X00026319Y00004998D01*
X00026331Y00004977D01*
X00026342Y00004955D01*
X00026351Y00004933D01*
X00026359Y00004910D01*
X00026366Y00004887D01*
X00026371Y00004863D01*
X00026375Y00004840D01*
X00026377Y00004816D01*
X00026377Y00004791D01*
X00026377Y00001453D01*
X00026387Y00001443D01*
X00026387Y00001373D01*
X00026397Y00001363D01*
X00026397Y00001313D01*
X00026407Y00001303D01*
X00026407Y00001273D01*
X00026417Y00001263D01*
X00026417Y00001233D01*
X00026427Y00001223D01*
X00026427Y00001203D01*
X00026437Y00001193D01*
X00026437Y00001173D01*
X00026447Y00001163D01*
X00026447Y00001143D01*
X00026457Y00001133D01*
X00026457Y00001123D01*
X00026467Y00001113D01*
X00026467Y00001093D01*
X00026477Y00001083D01*
X00026477Y00001073D01*
X00026487Y00001063D01*
X00026487Y00001053D01*
X00026497Y00001043D01*
X00026497Y00001033D01*
X00026507Y00001023D01*
X00026507Y00001013D01*
X00026517Y00001003D01*
X00026517Y00000993D01*
X00026527Y00000983D01*
X00026537Y00000973D01*
X00026537Y00000963D01*
X00026547Y00000953D01*
X00026547Y00000943D01*
X00026557Y00000933D01*
X00026567Y00000923D01*
X00026567Y00000913D01*
X00026577Y00000903D01*
X00026587Y00000893D01*
X00026587Y00000883D01*
X00026597Y00000873D01*
X00026617Y00000853D01*
X00026617Y00000843D01*
X00026637Y00000823D01*
X00026647Y00000813D01*
X00026657Y00000803D01*
X00026667Y00000793D01*
X00026677Y00000783D01*
X00026677Y00000773D01*
X00026697Y00000753D01*
X00026707Y00000743D01*
X00026727Y00000723D01*
X00026737Y00000713D01*
X00026747Y00000713D01*
X00026757Y00000703D01*
X00026767Y00000693D01*
X00026777Y00000683D01*
X00026787Y00000673D01*
X00026797Y00000663D01*
X00026807Y00000653D01*
X00026817Y00000643D01*
X00026827Y00000643D01*
X00026847Y00000623D01*
X00026857Y00000623D01*
X00026867Y00000613D01*
X00026877Y00000603D01*
X00026887Y00000593D01*
X00026897Y00000593D01*
X00026907Y00000583D01*
X00026917Y00000573D01*
X00026927Y00000573D01*
X00026937Y00000563D01*
X00026947Y00000563D01*
X00026957Y00000553D01*
X00026967Y00000553D01*
X00026977Y00000543D01*
X00026987Y00000533D01*
X00026997Y00000533D01*
X00027007Y00000523D01*
X00027017Y00000523D01*
X00027027Y00000513D01*
X00027047Y00000513D01*
X00027057Y00000503D01*
X00027067Y00000503D01*
X00027077Y00000493D01*
X00027087Y00000493D01*
X00027097Y00000483D01*
X00027117Y00000483D01*
X00027127Y00000473D01*
X00027137Y00000473D01*
X00027147Y00000463D01*
X00027167Y00000463D01*
X00027177Y00000453D01*
X00027207Y00000453D01*
X00027217Y00000443D01*
X00027237Y00000443D01*
X00027247Y00000433D01*
X00027287Y00000433D01*
X00027297Y00000423D01*
X00027337Y00000423D01*
X00027347Y00000413D01*
X00027417Y00000413D01*
X00027427Y00000403D01*
X00037517Y00000403D01*
X00037527Y00000413D01*
X00037597Y00000413D01*
X00037607Y00000423D01*
X00037647Y00000423D01*
X00037657Y00000433D01*
X00037697Y00000433D01*
X00037707Y00000443D01*
X00037727Y00000443D01*
X00037737Y00000453D01*
X00037767Y00000453D01*
X00037777Y00000463D01*
X00037797Y00000463D01*
X00037807Y00000473D01*
X00037817Y00000473D01*
X00037827Y00000483D01*
X00037847Y00000483D01*
X00037857Y00000493D01*
X00037867Y00000493D01*
X00037877Y00000503D01*
X00037887Y00000503D01*
X00037897Y00000513D01*
X00037917Y00000513D01*
X00037927Y00000523D01*
X00037937Y00000523D01*
X00037947Y00000533D01*
X00037957Y00000533D01*
X00037967Y00000543D01*
X00037977Y00000553D01*
X00037987Y00000553D01*
X00037997Y00000563D01*
X00038007Y00000563D01*
X00038017Y00000573D01*
X00038027Y00000573D01*
X00038037Y00000583D01*
X00038047Y00000593D01*
X00038057Y00000593D01*
X00038067Y00000603D01*
X00038087Y00000623D01*
X00038097Y00000623D01*
X00038107Y00000633D01*
X00038117Y00000643D01*
X00038127Y00000643D01*
X00038137Y00000653D01*
X00038147Y00000663D01*
X00038157Y00000673D01*
X00038167Y00000683D01*
X00038177Y00000693D01*
X00038187Y00000703D01*
X00038197Y00000713D01*
X00038207Y00000713D01*
X00038217Y00000723D01*
X00038227Y00000733D01*
X00038237Y00000743D01*
X00038247Y00000753D01*
X00038257Y00000763D01*
X00038257Y00000773D01*
X00038267Y00000783D01*
X00038277Y00000793D01*
X00038287Y00000803D01*
X00038297Y00000813D01*
X00038307Y00000823D01*
X00038317Y00000833D01*
X00038327Y00000843D01*
X00038327Y00000853D01*
X00038337Y00000863D01*
X00038347Y00000873D01*
X00038357Y00000883D01*
X00038357Y00000893D01*
X00038367Y00000903D01*
X00038377Y00000913D01*
X00038377Y00000923D01*
X00038387Y00000933D01*
X00038397Y00000943D01*
X00038397Y00000953D01*
X00038407Y00000963D01*
X00038407Y00000973D01*
X00038417Y00000983D01*
X00038427Y00000993D01*
X00038427Y00001003D01*
X00038437Y00001013D01*
X00038437Y00001023D01*
X00038447Y00001033D01*
X00038447Y00001043D01*
X00038457Y00001053D01*
X00038457Y00001063D01*
X00038467Y00001073D01*
X00038467Y00001083D01*
X00038477Y00001093D01*
X00038477Y00001113D01*
X00038487Y00001123D01*
X00038487Y00001133D01*
X00038497Y00001143D01*
X00038497Y00001163D01*
X00038507Y00001173D01*
X00038507Y00001193D01*
X00038517Y00001203D01*
X00038517Y00001223D01*
X00038527Y00001233D01*
X00038527Y00001263D01*
X00038537Y00001273D01*
X00038537Y00001303D01*
X00038547Y00001313D01*
X00038547Y00001363D01*
X00038557Y00001373D01*
X00038557Y00001443D01*
X00038567Y00001453D01*
X00038567Y00024933D01*
X00038557Y00024943D01*
X00038557Y00025013D01*
X00038547Y00025023D01*
X00038547Y00025073D01*
X00038537Y00025083D01*
X00038537Y00025113D01*
X00038527Y00025123D01*
X00038527Y00025153D01*
X00038517Y00025163D01*
X00038517Y00025183D01*
X00038507Y00025193D01*
X00038507Y00025213D01*
X00038497Y00025223D01*
X00038497Y00025243D01*
X00038487Y00025253D01*
X00038487Y00025263D01*
X00038477Y00025273D01*
X00038477Y00025293D01*
X00038467Y00025303D01*
X00038467Y00025313D01*
X00038457Y00025323D01*
X00038457Y00025333D01*
X00038447Y00025343D01*
X00038447Y00025353D01*
X00038437Y00025363D01*
X00038437Y00025373D01*
X00038427Y00025383D01*
X00038427Y00025393D01*
X00038417Y00025403D01*
X00038407Y00025413D01*
X00038407Y00025423D01*
X00038397Y00025433D01*
X00038397Y00025443D01*
X00038387Y00025453D01*
X00038377Y00025463D01*
X00038377Y00025473D01*
X00038357Y00025493D01*
X00038357Y00025503D01*
X00038347Y00025513D01*
X00038337Y00025523D01*
X00038327Y00025533D01*
X00038327Y00025543D01*
X00038317Y00025553D01*
X00038307Y00025563D01*
X00038297Y00025573D01*
X00038287Y00025583D01*
X00038277Y00025593D01*
X00038267Y00025603D01*
X00038257Y00025613D01*
X00038257Y00025623D01*
X00038247Y00025633D01*
X00038237Y00025643D01*
X00038227Y00025653D01*
X00038217Y00025663D01*
X00038207Y00025673D01*
X00038197Y00025673D01*
X00038187Y00025683D01*
X00038177Y00025693D01*
X00038167Y00025703D01*
X00038157Y00025713D01*
X00038147Y00025723D01*
X00038137Y00025733D01*
X00038127Y00025743D01*
X00038117Y00025743D01*
X00038107Y00025753D01*
X00038097Y00025763D01*
X00038087Y00025763D01*
X00038077Y00025773D01*
X00038067Y00025783D01*
X00038057Y00025793D01*
X00038047Y00025793D01*
X00038037Y00025803D01*
X00038027Y00025813D01*
X00038017Y00025813D01*
X00038007Y00025823D01*
X00037997Y00025823D01*
X00037987Y00025833D01*
X00037977Y00025833D01*
X00037967Y00025843D01*
X00037957Y00025853D01*
X00037947Y00025853D01*
X00037937Y00025863D01*
X00037927Y00025863D01*
X00037917Y00025873D01*
X00037897Y00025873D01*
X00037887Y00025883D01*
X00037877Y00025883D01*
X00037867Y00025893D01*
X00037857Y00025893D01*
X00037847Y00025903D01*
X00037827Y00025903D01*
X00037817Y00025913D01*
X00037807Y00025913D01*
X00037797Y00025923D01*
X00037777Y00025923D01*
X00037767Y00025933D01*
X00037737Y00025933D01*
X00037727Y00025943D01*
X00037707Y00025943D01*
X00037697Y00025953D01*
X00037657Y00025953D01*
X00037647Y00025963D01*
X00037607Y00025963D01*
X00037597Y00025973D01*
X00037527Y00025973D01*
X00037517Y00025983D01*
X00027427Y00025983D01*
X00027417Y00025973D01*
X00027347Y00025973D01*
X00027337Y00025963D01*
X00027297Y00025963D01*
X00027287Y00025953D01*
X00027247Y00025953D01*
X00027237Y00025943D01*
X00027217Y00025943D01*
X00027207Y00025933D01*
X00027177Y00025933D01*
X00027167Y00025923D01*
X00027147Y00025923D01*
X00027137Y00025913D01*
X00027127Y00025913D01*
X00027117Y00025903D01*
X00027097Y00025903D01*
X00027087Y00025893D01*
X00027077Y00025893D01*
X00027067Y00025883D01*
X00027057Y00025883D01*
X00027047Y00025873D01*
X00027027Y00025873D01*
X00027017Y00025863D01*
X00027007Y00025863D01*
X00026997Y00025853D01*
X00026987Y00025853D01*
X00026977Y00025843D01*
X00026967Y00025833D01*
X00026957Y00025833D01*
X00026947Y00025823D01*
X00026937Y00025823D01*
X00026927Y00025813D01*
X00026917Y00025813D01*
X00026907Y00025803D01*
X00026897Y00025793D01*
X00026887Y00025793D01*
X00026867Y00025773D01*
X00026857Y00025773D01*
X00026847Y00025763D01*
X00026837Y00025753D01*
X00026827Y00025743D01*
X00026817Y00025743D01*
X00026807Y00025733D01*
X00026797Y00025723D01*
X00026787Y00025713D01*
X00026777Y00025703D01*
X00026747Y00025673D01*
X00026737Y00025673D01*
X00026717Y00025653D01*
X00026707Y00025643D01*
X00026697Y00025633D01*
X00026677Y00025613D01*
X00026677Y00025603D01*
X00026667Y00025593D01*
X00026657Y00025583D01*
X00026647Y00025573D01*
X00026637Y00025563D01*
X00026617Y00025543D01*
X00026617Y00025533D01*
X00026607Y00025523D01*
X00026597Y00025513D01*
X00026587Y00025503D01*
X00026587Y00025493D01*
X00026577Y00025483D01*
X00026567Y00025473D01*
X00026567Y00025463D01*
X00026557Y00025453D01*
X00026547Y00025443D01*
X00026547Y00025433D01*
X00026537Y00025423D01*
X00026537Y00025413D01*
X00026527Y00025403D01*
X00026517Y00025393D01*
X00026517Y00025383D01*
X00026507Y00025373D01*
X00026507Y00025363D01*
X00026497Y00025353D01*
X00026497Y00025343D01*
X00026487Y00025333D01*
X00026487Y00025323D01*
X00026477Y00025313D01*
X00026477Y00025303D01*
X00026467Y00025293D01*
X00026467Y00025273D01*
X00026457Y00025263D01*
X00026457Y00025253D01*
X00026447Y00025243D01*
X00026447Y00025223D01*
X00026437Y00025213D01*
X00026437Y00025193D01*
X00026427Y00025183D01*
X00026427Y00025163D01*
X00026417Y00025153D01*
X00026417Y00025123D01*
X00026407Y00025113D01*
X00026407Y00025083D01*
X00026397Y00025073D01*
X00026397Y00025023D01*
X00026387Y00025013D01*
X00026387Y00024943D01*
X00026377Y00024933D01*
X00026377Y00021192D01*
X00026377Y00021168D01*
X00026375Y00021144D01*
X00026371Y00021120D01*
X00026366Y00021096D01*
X00026359Y00021073D01*
X00026351Y00021050D01*
X00026342Y00021028D01*
X00026331Y00021007D01*
X00026319Y00020986D01*
X00026306Y00020966D01*
X00026292Y00020946D01*
X00026276Y00020928D01*
X00026259Y00020911D01*
X00026242Y00020894D01*
X00026223Y00020879D01*
X00026203Y00020865D01*
X00026183Y00020852D01*
X00026162Y00020841D01*
X00026140Y00020830D01*
X00026117Y00020821D01*
X00026103Y00020816D01*
X00026067Y00020805D01*
X00026030Y00020797D01*
X00025992Y00020793D01*
X00025954Y00020793D01*
X00025917Y00020796D01*
X00025880Y00020803D01*
X00025843Y00020813D01*
X00025808Y00020827D01*
X00025775Y00020844D01*
X00025743Y00020864D01*
X00025713Y00020887D01*
X00025686Y00020913D01*
X00025661Y00020942D01*
X00025639Y00020972D01*
X00025620Y00021005D01*
X00025604Y00021039D01*
X00025591Y00021075D01*
X00025583Y00021111D01*
X00025577Y00021149D01*
X00025575Y00021186D01*
X00025575Y00024933D01*
X00025565Y00024943D01*
X00025565Y00025013D01*
X00025555Y00025023D01*
X00025555Y00025073D01*
X00025545Y00025083D01*
X00025545Y00025113D01*
X00025535Y00025123D01*
X00025535Y00025153D01*
X00025525Y00025163D01*
X00025525Y00025183D01*
X00025515Y00025193D01*
X00025515Y00025213D01*
X00025505Y00025223D01*
X00025505Y00025243D01*
X00025495Y00025253D01*
X00025495Y00025263D01*
X00025485Y00025273D01*
X00025485Y00025293D01*
X00025475Y00025303D01*
X00025475Y00025313D01*
X00025465Y00025323D01*
X00025465Y00025333D01*
X00025455Y00025343D01*
X00025455Y00025353D01*
X00025445Y00025363D01*
X00025445Y00025373D01*
X00025435Y00025383D01*
X00025435Y00025393D01*
X00025425Y00025403D01*
X00025415Y00025413D01*
X00025415Y00025423D01*
X00025405Y00025433D01*
X00025405Y00025443D01*
X00025395Y00025453D01*
X00025385Y00025463D01*
X00025385Y00025473D01*
X00025365Y00025493D01*
X00025365Y00025503D01*
X00025355Y00025513D01*
X00025345Y00025523D01*
X00025335Y00025533D01*
X00025335Y00025543D01*
X00025325Y00025553D01*
X00025315Y00025563D01*
X00025305Y00025573D01*
X00025295Y00025583D01*
X00025285Y00025593D01*
X00025275Y00025603D01*
X00025265Y00025613D01*
X00025265Y00025623D01*
X00025255Y00025633D01*
X00025245Y00025643D01*
X00025235Y00025653D01*
X00025225Y00025663D01*
X00025215Y00025673D01*
X00025205Y00025673D01*
X00025195Y00025683D01*
X00025185Y00025693D01*
X00025175Y00025703D01*
X00025165Y00025713D01*
X00025155Y00025723D01*
X00025145Y00025733D01*
X00025135Y00025743D01*
X00025125Y00025743D01*
X00025115Y00025753D01*
X00025105Y00025763D01*
X00025095Y00025763D01*
X00025085Y00025773D01*
X00025075Y00025783D01*
X00025065Y00025793D01*
X00025055Y00025793D01*
X00025045Y00025803D01*
X00025035Y00025813D01*
X00025025Y00025813D01*
X00025015Y00025823D01*
X00025005Y00025823D01*
X00024995Y00025833D01*
X00024985Y00025833D01*
X00024975Y00025843D01*
X00024965Y00025853D01*
X00024955Y00025853D01*
X00024945Y00025863D01*
X00024935Y00025863D01*
X00024925Y00025873D01*
X00024905Y00025873D01*
X00024895Y00025883D01*
X00024885Y00025883D01*
X00024875Y00025893D01*
X00024865Y00025893D01*
X00024855Y00025903D01*
X00024835Y00025903D01*
X00024825Y00025913D01*
X00024815Y00025913D01*
X00024805Y00025923D01*
X00024785Y00025923D01*
X00024775Y00025933D01*
X00024745Y00025933D01*
X00024735Y00025943D01*
X00024715Y00025943D01*
X00024705Y00025953D01*
X00024665Y00025953D01*
X00024655Y00025963D01*
X00024615Y00025963D01*
X00024605Y00025973D01*
X00024535Y00025973D01*
X00024525Y00025983D01*
X00020798Y00025983D01*
X00020760Y00025985D01*
X00020723Y00025990D01*
X00020687Y00025999D01*
X00020651Y00026012D01*
X00020617Y00026027D01*
X00020584Y00026046D01*
X00020554Y00026068D01*
X00020525Y00026093D01*
X00020500Y00026120D01*
X00020476Y00026150D01*
X00020456Y00026181D01*
X00020439Y00026215D01*
X00020425Y00026250D01*
X00020415Y00026286D01*
X00020408Y00026323D01*
X00020405Y00026360D01*
X00020405Y00026398D01*
X00020409Y00026435D01*
X00020416Y00026472D01*
X00020427Y00026508D01*
X00020427Y00026509D01*
X00020436Y00026531D01*
X00020446Y00026553D01*
X00020457Y00026575D01*
X00020470Y00026595D01*
X00020484Y00026615D01*
X00020499Y00026634D01*
X00020516Y00026652D01*
X00020533Y00026669D01*
X00020551Y00026684D01*
X00020571Y00026699D01*
X00020591Y00026712D01*
X00020612Y00026724D01*
X00020634Y00026735D01*
X00020656Y00026745D01*
X00020679Y00026753D01*
X00020702Y00026759D01*
X00020726Y00026764D01*
X00020750Y00026768D01*
X00020774Y00026770D01*
X00020798Y00026771D01*
X00024924Y00026771D01*
X00024934Y00026781D01*
X00025004Y00026781D01*
X00025014Y00026791D01*
X00025064Y00026791D01*
X00025074Y00026801D01*
X00025104Y00026801D01*
X00025114Y00026811D01*
X00025144Y00026811D01*
X00025154Y00026821D01*
X00025174Y00026821D01*
X00025184Y00026831D01*
X00025204Y00026831D01*
X00025214Y00026841D01*
X00025234Y00026841D01*
X00025244Y00026851D01*
X00025254Y00026851D01*
X00025264Y00026861D01*
X00025284Y00026861D01*
X00025294Y00026871D01*
X00025304Y00026871D01*
X00025314Y00026881D01*
X00025324Y00026881D01*
X00025334Y00026891D01*
X00025344Y00026891D01*
X00025354Y00026901D01*
X00025364Y00026901D01*
X00025374Y00026911D01*
X00025384Y00026911D01*
X00025394Y00026921D01*
X00025404Y00026931D01*
X00025414Y00026931D01*
X00025424Y00026941D01*
X00025434Y00026941D01*
X00025444Y00026951D01*
X00025454Y00026961D01*
X00025464Y00026961D01*
X00025474Y00026971D01*
X00025484Y00026981D01*
X00025494Y00026981D01*
X00025504Y00026991D01*
X00025524Y00027011D01*
X00025534Y00027011D01*
X00025554Y00027031D01*
X00025564Y00027041D01*
X00025574Y00027051D01*
X00025584Y00027061D01*
X00025594Y00027071D01*
X00025604Y00027071D01*
X00025624Y00027091D01*
X00025634Y00027101D01*
X00025654Y00027121D01*
X00025664Y00027131D01*
X00025664Y00027141D01*
X00025674Y00027151D01*
X00025684Y00027161D01*
X00025694Y00027171D01*
X00025704Y00027181D01*
X00025714Y00027191D01*
X00025724Y00027201D01*
X00025734Y00027211D01*
X00025734Y00027221D01*
X00025754Y00027241D01*
X00025754Y00027251D01*
X00025764Y00027261D01*
X00025774Y00027271D01*
X00025784Y00027281D01*
X00025784Y00027291D01*
X00025794Y00027301D01*
X00025804Y00027311D01*
X00025804Y00027321D01*
X00025814Y00027331D01*
X00025814Y00027341D01*
X00025824Y00027351D01*
X00025824Y00027361D01*
X00025834Y00027371D01*
X00025844Y00027381D01*
X00025844Y00027391D01*
X00025854Y00027401D01*
X00025854Y00027411D01*
X00025864Y00027421D01*
X00025864Y00027441D01*
X00025874Y00027451D01*
X00025874Y00027461D01*
X00025884Y00027471D01*
X00025884Y00027481D01*
X00025894Y00027491D01*
X00025894Y00027511D01*
X00025904Y00027521D01*
X00025904Y00027531D01*
X00025914Y00027541D01*
X00025914Y00027561D01*
X00025924Y00027571D01*
X00025924Y00027601D01*
X00025934Y00027611D01*
X00025934Y00027631D01*
X00025944Y00027641D01*
X00025944Y00027681D01*
X00025954Y00027691D01*
X00025954Y00027731D01*
X00025964Y00027741D01*
X00025964Y00027811D01*
X00025974Y00027821D01*
X00025974Y00037911D01*
X00025964Y00037921D01*
X00025964Y00037991D01*
X00025954Y00038001D01*
X00025954Y00038041D01*
X00025944Y00038051D01*
X00025944Y00038091D01*
X00025934Y00038101D01*
X00025934Y00038121D01*
X00025924Y00038131D01*
X00025924Y00038161D01*
X00025914Y00038171D01*
X00025914Y00038191D01*
X00025904Y00038201D01*
X00025904Y00038211D01*
X00025894Y00038221D01*
X00025894Y00038241D01*
X00025884Y00038251D01*
X00025884Y00038261D01*
X00025874Y00038271D01*
X00025874Y00038281D01*
X00025864Y00038291D01*
X00025864Y00038311D01*
X00025854Y00038321D01*
X00025854Y00038331D01*
X00025844Y00038341D01*
X00025844Y00038351D01*
X00025834Y00038361D01*
X00025824Y00038371D01*
X00025824Y00038381D01*
X00025814Y00038391D01*
X00025814Y00038401D01*
X00025804Y00038411D01*
X00025804Y00038421D01*
X00025794Y00038431D01*
X00025784Y00038441D01*
X00025784Y00038451D01*
X00025774Y00038461D01*
X00025754Y00038481D01*
X00025754Y00038491D01*
X00025744Y00038501D01*
X00025734Y00038511D01*
X00025734Y00038521D01*
X00025724Y00038531D01*
X00025714Y00038541D01*
X00025704Y00038551D01*
X00025694Y00038561D01*
X00025684Y00038571D01*
X00025674Y00038581D01*
X00025664Y00038591D01*
X00025664Y00038601D01*
X00025654Y00038611D01*
X00025644Y00038621D01*
X00025634Y00038631D01*
X00025624Y00038641D01*
X00025614Y00038651D01*
X00025604Y00038651D01*
X00025594Y00038661D01*
X00025584Y00038671D01*
X00025574Y00038681D01*
X00025564Y00038691D01*
X00025554Y00038701D01*
X00025544Y00038711D01*
X00025534Y00038721D01*
X00025524Y00038721D01*
X00025514Y00038731D01*
X00025504Y00038741D01*
X00025494Y00038751D01*
X00025484Y00038751D01*
X00025474Y00038761D01*
X00025464Y00038771D01*
X00025454Y00038771D01*
X00025444Y00038781D01*
X00025434Y00038791D01*
X00025424Y00038791D01*
X00025414Y00038801D01*
X00025404Y00038801D01*
X00025394Y00038811D01*
X00025384Y00038821D01*
X00025374Y00038821D01*
X00025364Y00038831D01*
X00025354Y00038831D01*
X00025344Y00038841D01*
X00025334Y00038841D01*
X00025324Y00038851D01*
X00025314Y00038851D01*
X00025304Y00038861D01*
X00025294Y00038861D01*
X00025284Y00038871D01*
X00025264Y00038871D01*
X00025254Y00038881D01*
X00025244Y00038881D01*
X00025234Y00038891D01*
X00025214Y00038891D01*
X00025204Y00038901D01*
X00025184Y00038901D01*
X00025174Y00038911D01*
X00025154Y00038911D01*
X00025144Y00038921D01*
X00025114Y00038921D01*
X00025104Y00038931D01*
X00025074Y00038931D01*
X00025064Y00038941D01*
X00025014Y00038941D01*
X00025004Y00038951D01*
X00024934Y00038951D01*
X00024924Y00038961D01*
X00001444Y00038961D01*
X00001434Y00038951D01*
X00001364Y00038951D01*
X00001354Y00038941D01*
X00001304Y00038941D01*
X00001294Y00038931D01*
X00001264Y00038931D01*
X00001254Y00038921D01*
X00001224Y00038921D01*
X00001214Y00038911D01*
X00001194Y00038911D01*
X00001184Y00038901D01*
X00001164Y00038901D01*
X00001154Y00038891D01*
X00001134Y00038891D01*
X00001124Y00038881D01*
X00001114Y00038881D01*
X00001104Y00038871D01*
X00001084Y00038871D01*
X00001074Y00038861D01*
X00001064Y00038861D01*
X00001054Y00038851D01*
X00001044Y00038851D01*
X00001034Y00038841D01*
X00001024Y00038841D01*
X00001014Y00038831D01*
X00001004Y00038831D01*
X00000994Y00038821D01*
X00000984Y00038821D01*
X00000974Y00038811D01*
X00000964Y00038801D01*
X00000954Y00038801D01*
X00000944Y00038791D01*
X00000934Y00038791D01*
X00000924Y00038781D01*
X00000914Y00038771D01*
X00000904Y00038771D01*
X00000884Y00038751D01*
X00000874Y00038751D01*
X00000864Y00038741D01*
X00000854Y00038731D01*
X00000844Y00038721D01*
X00000834Y00038721D01*
X00000824Y00038711D01*
X00000814Y00038701D01*
X00000804Y00038691D01*
X00000794Y00038681D01*
X00000784Y00038671D01*
X00000774Y00038661D01*
X00000764Y00038651D01*
X00000754Y00038651D01*
X00000744Y00038641D01*
X00000734Y00038631D01*
X00000724Y00038621D01*
X00000714Y00038611D01*
X00000704Y00038601D01*
X00000704Y00038591D01*
X00000694Y00038581D01*
X00000684Y00038571D01*
X00000674Y00038561D01*
X00000664Y00038551D01*
X00000654Y00038541D01*
X00000644Y00038531D01*
X00000634Y00038521D01*
X00000634Y00038511D01*
X00000624Y00038501D01*
X00000614Y00038491D01*
X00000614Y00038481D01*
X00000604Y00038471D01*
X00000594Y00038461D01*
X00000584Y00038451D01*
X00000584Y00038441D01*
X00000574Y00038431D01*
X00000564Y00038421D01*
X00000564Y00038411D01*
X00000554Y00038401D01*
X00000554Y00038391D01*
X00000544Y00038381D01*
X00000544Y00038371D01*
X00000534Y00038361D01*
X00000524Y00038351D01*
X00000524Y00038341D01*
X00000514Y00038331D01*
X00000514Y00038321D01*
X00000504Y00038311D01*
X00000504Y00038291D01*
X00000494Y00038281D01*
X00000494Y00038271D01*
X00000484Y00038261D01*
X00000484Y00038251D01*
X00000474Y00038241D01*
X00000474Y00038221D01*
X00000464Y00038211D01*
X00000464Y00038201D01*
X00000454Y00038191D01*
X00000454Y00038171D01*
X00000444Y00038161D01*
X00000444Y00038131D01*
X00000434Y00038121D01*
X00000434Y00038101D01*
X00000424Y00038091D01*
X00000424Y00038051D01*
X00000414Y00038041D01*
X00000414Y00038001D01*
X00000404Y00037991D01*
X00000404Y00037921D01*
X00000394Y00037911D01*
X00000394Y00027821D01*
X00000404Y00027811D01*
X00000404Y00027741D01*
X00000414Y00027731D01*
X00000414Y00027691D01*
X00000424Y00027681D01*
X00000424Y00027641D01*
X00000434Y00027631D01*
X00000434Y00027611D01*
X00000444Y00027601D01*
X00000444Y00027571D01*
X00000454Y00027561D01*
X00000454Y00027541D01*
X00000464Y00027531D01*
X00000464Y00027521D01*
X00000474Y00027511D01*
X00000474Y00027491D01*
X00000484Y00027481D01*
X00000484Y00027471D01*
X00000494Y00027461D01*
X00000494Y00027451D01*
X00000504Y00027441D01*
X00000504Y00027421D01*
X00000514Y00027411D01*
X00000514Y00027401D01*
X00000524Y00027391D01*
X00000524Y00027381D01*
X00000534Y00027371D01*
X00000544Y00027361D01*
X00000544Y00027351D01*
X00000554Y00027341D01*
X00000554Y00027331D01*
X00000564Y00027321D01*
X00000564Y00027311D01*
X00000574Y00027301D01*
X00000584Y00027291D01*
X00000584Y00027281D01*
X00000604Y00027261D01*
X00000604Y00027251D01*
X00000614Y00027241D01*
X00000624Y00027231D01*
X00000634Y00027221D01*
X00000634Y00027211D01*
X00000644Y00027201D01*
X00000654Y00027191D01*
X00000664Y00027181D01*
X00000674Y00027171D01*
X00000704Y00027141D01*
X00000704Y00027131D01*
X00000724Y00027111D01*
X00000734Y00027101D01*
X00000744Y00027091D01*
X00000764Y00027071D01*
X00000774Y00027071D01*
X00000784Y00027061D01*
X00000794Y00027051D01*
X00000804Y00027041D01*
X00000814Y00027031D01*
X00000834Y00027011D01*
X00000844Y00027011D01*
X00000854Y00027001D01*
X00000864Y00026991D01*
X00000874Y00026981D01*
X00000884Y00026981D01*
X00000894Y00026971D01*
X00000904Y00026961D01*
X00000914Y00026961D01*
X00000924Y00026951D01*
X00000934Y00026941D01*
X00000944Y00026941D01*
X00000954Y00026931D01*
X00000964Y00026931D01*
X00000974Y00026921D01*
X00000984Y00026911D01*
X00000994Y00026911D01*
X00001004Y00026901D01*
X00001014Y00026901D01*
X00001024Y00026891D01*
X00001034Y00026891D01*
X00001044Y00026881D01*
X00001054Y00026881D01*
X00001064Y00026871D01*
X00001074Y00026871D01*
X00001084Y00026861D01*
X00001104Y00026861D01*
X00001114Y00026851D01*
X00001124Y00026851D01*
X00001134Y00026841D01*
X00001154Y00026841D01*
X00001164Y00026831D01*
X00001184Y00026831D01*
X00001194Y00026821D01*
X00001214Y00026821D01*
X00001224Y00026811D01*
X00001254Y00026811D01*
X00001264Y00026801D01*
X00001294Y00026801D01*
X00001304Y00026791D01*
X00001354Y00026791D01*
X00001364Y00026781D01*
X00001434Y00026781D01*
X00001444Y00026771D01*
X00005185Y00026771D01*
X00005209Y00026770D01*
X00005233Y00026768D01*
X00005257Y00026764D01*
X00005281Y00026759D01*
X00005304Y00026753D01*
X00005327Y00026745D01*
X00005350Y00026735D01*
X00005371Y00026724D01*
X00005392Y00026712D01*
X00005412Y00026699D01*
X00005432Y00026684D01*
X00005450Y00026669D01*
X00005468Y00026652D01*
X00005484Y00026634D01*
X00005499Y00026615D01*
X00005513Y00026595D01*
X00005526Y00026575D01*
X00005537Y00026553D01*
X00005548Y00026531D01*
X00005556Y00026509D01*
X00005557Y00026508D01*
X00005567Y00026472D01*
X00005575Y00026435D01*
X00005578Y00026398D01*
X00005579Y00026360D01*
X00005575Y00026323D01*
X00005568Y00026286D01*
X00005558Y00026250D01*
X00005544Y00026215D01*
X00005527Y00026181D01*
X00005507Y00026150D01*
X00005484Y00026120D01*
X00005458Y00026093D01*
X00005429Y00026068D01*
X00005399Y00026046D01*
X00005366Y00026027D01*
X00005332Y00026012D01*
X00005297Y00025999D01*
X00005260Y00025990D01*
X00005223Y00025985D01*
X00005185Y00025983D01*
X00025575Y00018970D02*
X00025575Y00018970D01*
X00025577Y00019008D01*
X00025583Y00019045D01*
X00025591Y00019082D01*
X00025604Y00019117D01*
X00025620Y00019152D01*
X00025639Y00019184D01*
X00025661Y00019215D01*
X00025686Y00019243D01*
X00025713Y00019269D01*
X00025743Y00019292D01*
X00025775Y00019312D01*
X00025808Y00019329D01*
X00025843Y00019343D01*
X00025880Y00019353D01*
X00025917Y00019360D01*
X00025954Y00019363D01*
X00025992Y00019363D01*
X00026030Y00019359D01*
X00026067Y00019351D01*
X00026103Y00019340D01*
X00026117Y00019335D01*
X00026140Y00019326D01*
X00026162Y00019316D01*
X00026183Y00019304D01*
X00026203Y00019292D01*
X00026223Y00019277D01*
X00026242Y00019262D01*
X00026259Y00019246D01*
X00026276Y00019229D01*
X00026292Y00019210D01*
X00026306Y00019191D01*
X00026319Y00019171D01*
X00026331Y00019150D01*
X00026342Y00019128D01*
X00026351Y00019106D01*
X00026359Y00019083D01*
X00026366Y00019060D01*
X00026371Y00019037D01*
X00026375Y00019013D01*
X00026377Y00018989D01*
X00026377Y00018965D01*
X00026377Y00007019D01*
X00026377Y00006994D01*
X00026375Y00006970D01*
X00026371Y00006947D01*
X00026366Y00006923D01*
X00026359Y00006900D01*
X00026351Y00006877D01*
X00026342Y00006855D01*
X00026331Y00006833D01*
X00026319Y00006812D01*
X00026306Y00006792D01*
X00026292Y00006773D01*
X00026276Y00006755D01*
X00026259Y00006737D01*
X00026242Y00006721D01*
X00026223Y00006706D01*
X00026203Y00006692D01*
X00026183Y00006679D01*
X00026162Y00006667D01*
X00026140Y00006657D01*
X00026117Y00006648D01*
X00026103Y00006643D01*
X00026067Y00006632D01*
X00026030Y00006624D01*
X00025992Y00006620D01*
X00025954Y00006620D01*
X00025917Y00006623D01*
X00025880Y00006630D01*
X00025843Y00006640D01*
X00025808Y00006654D01*
X00025775Y00006671D01*
X00025743Y00006691D01*
X00025713Y00006714D01*
X00025686Y00006740D01*
X00025661Y00006768D01*
X00025639Y00006799D01*
X00025620Y00006832D01*
X00025604Y00006866D01*
X00025591Y00006902D01*
X00025583Y00006938D01*
X00025577Y00006976D01*
X00025575Y00007013D01*
X00025575Y00018970D01*
X00012583Y00018970D02*
X00012583Y00018970D01*
X00012585Y00019008D01*
X00012590Y00019045D01*
X00012599Y00019082D01*
X00012612Y00019117D01*
X00012628Y00019152D01*
X00012647Y00019184D01*
X00012669Y00019215D01*
X00012693Y00019243D01*
X00012721Y00019269D01*
X00012751Y00019292D01*
X00012783Y00019312D01*
X00012816Y00019329D01*
X00012851Y00019343D01*
X00012888Y00019353D01*
X00012925Y00019360D01*
X00012962Y00019363D01*
X00013000Y00019363D01*
X00013038Y00019359D01*
X00013075Y00019351D01*
X00013111Y00019340D01*
X00013125Y00019335D01*
X00013148Y00019326D01*
X00013170Y00019316D01*
X00013191Y00019304D01*
X00013211Y00019292D01*
X00013231Y00019277D01*
X00013249Y00019262D01*
X00013267Y00019246D01*
X00013284Y00019229D01*
X00013299Y00019210D01*
X00013314Y00019191D01*
X00013327Y00019171D01*
X00013339Y00019150D01*
X00013350Y00019128D01*
X00013359Y00019106D01*
X00013367Y00019083D01*
X00013374Y00019060D01*
X00013379Y00019037D01*
X00013382Y00019013D01*
X00013385Y00018989D01*
X00013385Y00018965D01*
X00013385Y00007019D01*
X00013385Y00006994D01*
X00013382Y00006970D01*
X00013379Y00006947D01*
X00013374Y00006923D01*
X00013367Y00006900D01*
X00013359Y00006877D01*
X00013350Y00006855D01*
X00013339Y00006833D01*
X00013327Y00006812D01*
X00013314Y00006792D01*
X00013299Y00006773D01*
X00013284Y00006755D01*
X00013267Y00006737D01*
X00013249Y00006721D01*
X00013231Y00006706D01*
X00013211Y00006692D01*
X00013191Y00006679D01*
X00013170Y00006667D01*
X00013148Y00006657D01*
X00013125Y00006648D01*
X00013111Y00006643D01*
X00013075Y00006632D01*
X00013038Y00006624D01*
X00013000Y00006620D01*
X00012962Y00006620D01*
X00012925Y00006623D01*
X00012888Y00006630D01*
X00012851Y00006640D01*
X00012816Y00006654D01*
X00012783Y00006671D01*
X00012751Y00006691D01*
X00012721Y00006714D01*
X00012693Y00006740D01*
X00012669Y00006768D01*
X00012647Y00006799D01*
X00012628Y00006832D01*
X00012612Y00006866D01*
X00012599Y00006902D01*
X00012590Y00006938D01*
X00012585Y00006976D01*
X00012583Y00007013D01*
X00012583Y00018970D01*
M02*