G04 start of page 2 for group 0 layer_idx 9 *
G04 Title: (unknown), top_paste *
G04 Creator: pcb-rnd 2.3.2 *
G04 CreationDate: 2021-07-14 03:04:30 UTC *
G04 For:  *
G04 Format: Gerber/RS-274X *
G04 PCB-Dimensions: 1000000 1000000 *
G04 PCB-Coordinate-Origin: lower left *
%MOIN*%
%FSLAX25Y25*%
%LNTOP_PASTE_NONE_0*%
%ADD101C,0.0001*%
G54D101*G36*
X133000Y890800D02*Y898800D01*
X98000D01*
Y890800D01*
X133000D01*
G37*
G36*
Y875200D02*Y883200D01*
X98000D01*
Y875200D01*
X133000D01*
G37*
G36*
Y859600D02*Y867600D01*
X98000D01*
Y859600D01*
X133000D01*
G37*
G36*
Y844000D02*Y852000D01*
X98000D01*
Y844000D01*
X133000D01*
G37*
G36*
X309500Y832500D02*X318000D01*
Y830500D01*
X309500D01*
Y832500D01*
G37*
G36*
X338500Y830500D02*X330000D01*
Y832500D01*
X338500D01*
Y830500D01*
G37*
G36*
X309500Y827500D02*X318000D01*
Y825500D01*
X309500D01*
Y827500D01*
G37*
G36*
X338500Y825500D02*X330000D01*
Y827500D01*
X338500D01*
Y825500D01*
G37*
G36*
X320500Y768500D02*X312000D01*
Y770500D01*
X320500D01*
Y768500D01*
G37*
G36*
X291500Y770500D02*X300000D01*
Y768500D01*
X291500D01*
Y770500D01*
G37*
G36*
Y765500D02*X300000D01*
Y763500D01*
X291500D01*
Y765500D01*
G37*
G36*
Y760500D02*X300000D01*
Y758500D01*
X291500D01*
Y760500D01*
G37*
G36*
Y755500D02*X300000D01*
Y753500D01*
X291500D01*
Y755500D01*
G37*
G36*
X320500Y763500D02*X312000D01*
Y765500D01*
X320500D01*
Y763500D01*
G37*
G36*
Y758500D02*X312000D01*
Y760500D01*
X320500D01*
Y758500D01*
G37*
G36*
Y753500D02*X312000D01*
Y755500D01*
X320500D01*
Y753500D01*
G37*
G36*
X281559Y724952D02*X276441D01*
Y719048D01*
X281559D01*
Y724952D01*
G37*
G36*
X288645D02*X283527D01*
Y719048D01*
X288645D01*
Y724952D01*
G37*
G36*
X281559Y739952D02*X276441D01*
Y734048D01*
X281559D01*
Y739952D01*
G37*
G36*
X288645D02*X283527D01*
Y734048D01*
X288645D01*
Y739952D01*
G37*
G36*
X283017Y854589D02*X277899D01*
Y848685D01*
X283017D01*
Y854589D01*
G37*
G36*
X290103D02*X284985D01*
Y848685D01*
X290103D01*
Y854589D01*
G37*
G36*
X285049Y836653D02*Y831535D01*
X290953D01*
Y836653D01*
X285049D01*
G37*
G36*
Y843739D02*Y838621D01*
X290953D01*
Y843739D01*
X285049D01*
G37*
G36*
X309500Y822500D02*X318000D01*
Y820500D01*
X309500D01*
Y822500D01*
G37*
G36*
X299049Y829196D02*Y824078D01*
X304953D01*
Y829196D01*
X299049D01*
G37*
G36*
Y836282D02*Y831164D01*
X304953D01*
Y836282D01*
X299049D01*
G37*
G36*
X303260Y848654D02*Y843536D01*
X310740D01*
Y848654D01*
X303260D01*
G37*
G36*
Y860464D02*Y855346D01*
X310740D01*
Y860464D01*
X303260D01*
G37*
G36*
X321260Y848654D02*Y843536D01*
X328740D01*
Y848654D01*
X321260D01*
G37*
G36*
Y860464D02*Y855346D01*
X328740D01*
Y860464D01*
X321260D01*
G37*
G36*
X338500Y820500D02*X330000D01*
Y822500D01*
X338500D01*
Y820500D01*
G37*
G36*
X339260Y848654D02*Y843536D01*
X346740D01*
Y848654D01*
X339260D01*
G37*
G36*
Y860464D02*Y855346D01*
X346740D01*
Y860464D01*
X339260D01*
G37*
G36*
X309500Y817500D02*X318000D01*
Y815500D01*
X309500D01*
Y817500D01*
G37*
G36*
X283016Y819952D02*X277898D01*
Y814048D01*
X283016D01*
Y819952D01*
G37*
G36*
X290102D02*X284984D01*
Y814048D01*
X290102D01*
Y819952D01*
G37*
G36*
X236654Y788740D02*X231536D01*
Y781260D01*
X236654D01*
Y788740D01*
G37*
G36*
X248464D02*X243346D01*
Y781260D01*
X248464D01*
Y788740D01*
G37*
G36*
X338500Y815500D02*X330000D01*
Y817500D01*
X338500D01*
Y815500D01*
G37*
G36*
X330048Y771102D02*Y765984D01*
X335952D01*
Y771102D01*
X330048D01*
G37*
G36*
X346048D02*Y765984D01*
X351952D01*
Y771102D01*
X346048D01*
G37*
G36*
X330048Y764016D02*Y758898D01*
X335952D01*
Y764016D01*
X330048D01*
G37*
G36*
X346048D02*Y758898D01*
X351952D01*
Y764016D01*
X346048D01*
G37*
G36*
Y739473D02*Y734355D01*
X351952D01*
Y739473D01*
X346048D01*
G37*
G36*
Y746559D02*Y741441D01*
X351952D01*
Y746559D01*
X346048D01*
G37*
G36*
X133000Y828400D02*Y836400D01*
X98000D01*
Y828400D01*
X133000D01*
G37*
G36*
Y812800D02*Y820800D01*
X98000D01*
Y812800D01*
X133000D01*
G37*
G36*
Y797200D02*Y805200D01*
X98000D01*
Y797200D01*
X133000D01*
G37*
G36*
Y781600D02*Y789600D01*
X98000D01*
Y781600D01*
X133000D01*
G37*
G36*
Y766000D02*Y774000D01*
X98000D01*
Y766000D01*
X133000D01*
G37*
G36*
Y750400D02*Y758400D01*
X98000D01*
Y750400D01*
X133000D01*
G37*
G36*
Y734800D02*Y742800D01*
X98000D01*
Y734800D01*
X133000D01*
G37*
G36*
Y719200D02*Y727200D01*
X98000D01*
Y719200D01*
X133000D01*
G37*
G36*
Y703600D02*Y711600D01*
X98000D01*
Y703600D01*
X133000D01*
G37*
G36*
Y688000D02*Y696000D01*
X98000D01*
Y688000D01*
X133000D01*
G37*
G36*
Y672400D02*Y680400D01*
X98000D01*
Y672400D01*
X133000D01*
G37*
G36*
Y656800D02*Y664800D01*
X98000D01*
Y656800D01*
X133000D01*
G37*
G36*
Y641200D02*Y649200D01*
X98000D01*
Y641200D01*
X133000D01*
G37*
G36*
Y625600D02*Y633600D01*
X98000D01*
Y625600D01*
X133000D01*
G37*
G36*
Y610000D02*Y618000D01*
X98000D01*
Y610000D01*
X133000D01*
G37*
G36*
Y594400D02*Y602400D01*
X98000D01*
Y594400D01*
X133000D01*
G37*
G36*
Y578800D02*Y586800D01*
X98000D01*
Y578800D01*
X133000D01*
G37*
G36*
Y563200D02*Y571200D01*
X98000D01*
Y563200D01*
X133000D01*
G37*
M02*
