G04 start of page 2 for group 2 layer_idx 10 *
G04 Title: (unknown), top_mask *
G04 Creator: pcb-rnd 2.3.2 *
G04 CreationDate: 2021-07-14 03:04:30 UTC *
G04 For:  *
G04 Format: Gerber/RS-274X *
G04 PCB-Dimensions: 1000000 1000000 *
G04 PCB-Coordinate-Origin: lower left *
%MOIN*%
%FSLAX25Y25*%
%LNTOP_MASK_NONE_2*%
%ADD94C,0.0660*%
%ADD93C,0.0630*%
%ADD92C,0.1090*%
%ADD91C,0.0860*%
%ADD90C,0.0760*%
%ADD89C,0.0001*%
G54D89*G36*
X133500Y890300D02*Y899300D01*
X97500D01*
Y890300D01*
X133500D01*
G37*
G36*
Y874700D02*Y883700D01*
X97500D01*
Y874700D01*
X133500D01*
G37*
G36*
Y859100D02*Y868100D01*
X97500D01*
Y859100D01*
X133500D01*
G37*
G36*
Y843500D02*Y852500D01*
X97500D01*
Y843500D01*
X133500D01*
G37*
G36*
X162300Y884300D02*Y877700D01*
X155700D01*
Y884300D01*
X162300D01*
G37*
G54D90*X159000Y871000D03*
Y861000D03*
Y851000D03*
Y841000D03*
G54D91*X365000Y894000D03*
G54D92*X345024Y890000D03*
G54D89*G36*
X309000Y833000D02*X318500D01*
Y830000D01*
X309000D01*
Y833000D01*
G37*
G36*
X339000Y830000D02*X329500D01*
Y833000D01*
X339000D01*
Y830000D01*
G37*
G36*
X309000Y828000D02*X318500D01*
Y825000D01*
X309000D01*
Y828000D01*
G37*
G36*
X339000Y825000D02*X329500D01*
Y828000D01*
X339000D01*
Y825000D01*
G37*
G36*
X283469Y777846D02*Y784154D01*
X277161D01*
Y777846D01*
X283469D01*
G37*
G36*
X321000Y768000D02*X311500D01*
Y771000D01*
X321000D01*
Y768000D01*
G37*
G54D93*X300000Y781000D03*
G54D89*G36*
X291000Y771000D02*X300500D01*
Y768000D01*
X291000D01*
Y771000D01*
G37*
G36*
Y766000D02*X300500D01*
Y763000D01*
X291000D01*
Y766000D01*
G37*
G36*
Y761000D02*X300500D01*
Y758000D01*
X291000D01*
Y761000D01*
G37*
G36*
Y756000D02*X300500D01*
Y753000D01*
X291000D01*
Y756000D01*
G37*
G36*
X321000Y763000D02*X311500D01*
Y766000D01*
X321000D01*
Y763000D01*
G37*
G36*
X254000Y764300D02*X262600D01*
Y755700D01*
X254000D01*
Y764300D01*
G37*
G54D91*X278000Y760000D03*
G54D89*G36*
X321000Y758000D02*X311500D01*
Y761000D01*
X321000D01*
Y758000D01*
G37*
G36*
Y753000D02*X311500D01*
Y756000D01*
X321000D01*
Y753000D01*
G37*
G36*
X326154Y723312D02*X319846D01*
Y717003D01*
X326154D01*
Y723312D01*
G37*
G54D93*X323000Y739843D03*
G54D89*G36*
X281859Y725252D02*X276141D01*
Y718748D01*
X281859D01*
Y725252D01*
G37*
G36*
X288945D02*X283227D01*
Y718748D01*
X288945D01*
Y725252D01*
G37*
G36*
X281859Y740252D02*X276141D01*
Y733748D01*
X281859D01*
Y740252D01*
G37*
G36*
X288945D02*X283227D01*
Y733748D01*
X288945D01*
Y740252D01*
G37*
G36*
X306154Y723312D02*X299846D01*
Y717003D01*
X306154D01*
Y723312D01*
G37*
G54D93*X303000Y739843D03*
G54D89*G36*
X283317Y854889D02*X277599D01*
Y848385D01*
X283317D01*
Y854889D01*
G37*
G36*
X290403D02*X284685D01*
Y848385D01*
X290403D01*
Y854889D01*
G37*
G36*
X284749Y836953D02*Y831235D01*
X291253D01*
Y836953D01*
X284749D01*
G37*
G36*
Y844039D02*Y838321D01*
X291253D01*
Y844039D01*
X284749D01*
G37*
G36*
X309000Y823000D02*X318500D01*
Y820000D01*
X309000D01*
Y823000D01*
G37*
G36*
X298749Y829496D02*Y823778D01*
X305253D01*
Y829496D01*
X298749D01*
G37*
G36*
Y836582D02*Y830864D01*
X305253D01*
Y836582D01*
X298749D01*
G37*
G36*
X302960Y848954D02*Y843236D01*
X311040D01*
Y848954D01*
X302960D01*
G37*
G36*
Y860764D02*Y855046D01*
X311040D01*
Y860764D01*
X302960D01*
G37*
G36*
X320960Y848954D02*Y843236D01*
X329040D01*
Y848954D01*
X320960D01*
G37*
G36*
Y860764D02*Y855046D01*
X329040D01*
Y860764D01*
X320960D01*
G37*
G36*
X339000Y820000D02*X329500D01*
Y823000D01*
X339000D01*
Y820000D01*
G37*
G36*
X338960Y848954D02*Y843236D01*
X347040D01*
Y848954D01*
X338960D01*
G37*
G36*
Y860764D02*Y855046D01*
X347040D01*
Y860764D01*
X338960D01*
G37*
G36*
X309000Y818000D02*X318500D01*
Y815000D01*
X309000D01*
Y818000D01*
G37*
G36*
X283316Y820252D02*X277598D01*
Y813748D01*
X283316D01*
Y820252D01*
G37*
G36*
X290402D02*X284684D01*
Y813748D01*
X290402D01*
Y820252D01*
G37*
G36*
X236954Y789040D02*X231236D01*
Y780960D01*
X236954D01*
Y789040D01*
G37*
G36*
X248764D02*X243046D01*
Y780960D01*
X248764D01*
Y789040D01*
G37*
G36*
X339000Y815000D02*X329500D01*
Y818000D01*
X339000D01*
Y815000D01*
G37*
G36*
X329748Y771402D02*Y765684D01*
X336252D01*
Y771402D01*
X329748D01*
G37*
G36*
X345748D02*Y765684D01*
X352252D01*
Y771402D01*
X345748D01*
G37*
G36*
X329748Y764316D02*Y758598D01*
X336252D01*
Y764316D01*
X329748D01*
G37*
G36*
X345748D02*Y758598D01*
X352252D01*
Y764316D01*
X345748D01*
G37*
G36*
Y739773D02*Y734055D01*
X352252D01*
Y739773D01*
X345748D01*
G37*
G36*
Y746859D02*Y741141D01*
X352252D01*
Y746859D01*
X345748D01*
G37*
G36*
X363221Y916763D02*Y925237D01*
X354747D01*
Y916763D01*
X363221D01*
G37*
G36*
X360700Y849700D02*Y858300D01*
X369300D01*
Y849700D01*
X360700D01*
G37*
G54D92*X365000Y837512D03*
G54D89*G36*
X359500Y770988D02*X370500D01*
Y781988D01*
X359500D01*
Y770988D01*
G37*
G54D91*X394000Y652990D03*
G54D89*G36*
X379700Y657290D02*X388300D01*
Y648690D01*
X379700D01*
Y657290D01*
G37*
G36*
X389700Y752290D02*X398300D01*
Y743690D01*
X389700D01*
Y752290D01*
G37*
G54D91*X384000Y642990D03*
X394000D03*
X404000Y652990D03*
Y642990D03*
X414000Y652990D03*
Y747990D03*
Y642990D03*
G54D89*G36*
X411300Y607300D02*Y600700D01*
X404700D01*
Y607300D01*
X411300D01*
G37*
G54D94*X408000Y594000D03*
Y584000D03*
Y574000D03*
Y564000D03*
Y554000D03*
G54D91*X424000Y652990D03*
Y642990D03*
G54D89*G36*
X323221Y916763D02*Y925237D01*
X314747D01*
Y916763D01*
X323221D01*
G37*
G36*
X243221D02*Y925237D01*
X234747D01*
Y916763D01*
X243221D01*
G37*
G36*
X283221D02*Y925237D01*
X274747D01*
Y916763D01*
X283221D01*
G37*
G36*
X278500Y895500D02*Y884500D01*
X289500D01*
Y895500D01*
X278500D01*
G37*
G36*
X133500Y827900D02*Y836900D01*
X97500D01*
Y827900D01*
X133500D01*
G37*
G54D91*X159000Y831000D03*
G54D89*G36*
X133500Y812300D02*Y821300D01*
X97500D01*
Y812300D01*
X133500D01*
G37*
G36*
Y796700D02*Y805700D01*
X97500D01*
Y796700D01*
X133500D01*
G37*
G36*
X175300Y734300D02*Y727700D01*
X168700D01*
Y734300D01*
X175300D01*
G37*
G36*
X162300Y798800D02*Y792200D01*
X155700D01*
Y798800D01*
X162300D01*
G37*
G54D90*X159000Y785500D03*
Y775500D03*
G54D94*X182000Y731000D03*
X172000Y721000D03*
G54D89*G36*
X186700Y757300D02*X195300D01*
Y748700D01*
X186700D01*
Y757300D01*
G37*
G54D91*X200843Y753000D03*
G54D94*X182000Y721000D03*
X172000Y711000D03*
X182000D03*
X172000Y701000D03*
X182000D03*
X172000Y691000D03*
Y681000D03*
Y671000D03*
Y661000D03*
Y651000D03*
Y641000D03*
Y631000D03*
Y621000D03*
Y611000D03*
Y601000D03*
Y591000D03*
X182000Y691000D03*
Y681000D03*
Y671000D03*
Y661000D03*
Y651000D03*
Y641000D03*
Y631000D03*
Y621000D03*
Y611000D03*
Y601000D03*
Y591000D03*
G54D89*G36*
X133500Y781100D02*Y790100D01*
X97500D01*
Y781100D01*
X133500D01*
G37*
G36*
Y765500D02*Y774500D01*
X97500D01*
Y765500D01*
X133500D01*
G37*
G36*
Y749900D02*Y758900D01*
X97500D01*
Y749900D01*
X133500D01*
G37*
G36*
Y734300D02*Y743300D01*
X97500D01*
Y734300D01*
X133500D01*
G37*
G36*
Y718700D02*Y727700D01*
X97500D01*
Y718700D01*
X133500D01*
G37*
G36*
Y703100D02*Y712100D01*
X97500D01*
Y703100D01*
X133500D01*
G37*
G36*
Y687500D02*Y696500D01*
X97500D01*
Y687500D01*
X133500D01*
G37*
G36*
Y671900D02*Y680900D01*
X97500D01*
Y671900D01*
X133500D01*
G37*
G36*
Y656300D02*Y665300D01*
X97500D01*
Y656300D01*
X133500D01*
G37*
G36*
Y640700D02*Y649700D01*
X97500D01*
Y640700D01*
X133500D01*
G37*
G36*
Y625100D02*Y634100D01*
X97500D01*
Y625100D01*
X133500D01*
G37*
G36*
Y609500D02*Y618500D01*
X97500D01*
Y609500D01*
X133500D01*
G37*
G36*
Y593900D02*Y602900D01*
X97500D01*
Y593900D01*
X133500D01*
G37*
G36*
Y578300D02*Y587300D01*
X97500D01*
Y578300D01*
X133500D01*
G37*
G36*
Y562700D02*Y571700D01*
X97500D01*
Y562700D01*
X133500D01*
G37*
M02*
