G04 start of page 2 for group 9 layer_idx 6 *
G04 Title: (unknown), global_outline *
G04 Creator: pcb-rnd 2.3.2 *
G04 CreationDate: 2021-07-14 03:04:31 UTC *
G04 For:  *
G04 Format: Gerber/RS-274X *
G04 PCB-Dimensions: 1000000 1000000 *
G04 PCB-Coordinate-Origin: lower left *
%MOIN*%
%FSLAX25Y25*%
%LNGLOBAL_BOUNDARY_UROUTE_9*%
%ADD106C,0.4291*%
%ADD105C,0.0787*%
%ADD104C,0.0800*%
%ADD103C,0.0100*%
G54D103*X238900Y956000D02*Y946000D01*
X208900D01*
Y956000D01*
X135400D01*
Y910000D01*
X238900Y956000D02*X454000D01*
G54D104*X336000Y701000D02*X230000D01*
G54D105*X366215Y726591D02*X351648Y712024D01*
X351254Y712417D02*X351648Y712024D01*
Y689976D01*
X441805Y675409D02*X456372Y689976D01*
X351254Y689583D02*X351648Y689976D01*
X441805Y726591D02*X456372Y712024D01*
Y689976D01*
X456766Y712417D02*X456372Y712024D01*
G54D103*X463000Y515000D02*Y947000D01*
X239000Y506000D02*X454000D01*
G54D105*X366215Y675409D02*X351648Y689976D01*
X456766Y689583D02*X456372Y689976D01*
G54D106*X404000Y700990D02*Y701000D01*
G54D103*X102500Y910000D02*X135400D01*
X98000Y905500D02*Y556500D01*
X208900Y516000D02*Y506000D01*
X135400D01*
Y552000D01*
X102500D01*
X208900Y516000D02*X238900D01*
G54D104*X211000Y534000D02*Y608000D01*
Y628000D02*Y701000D01*
G54D103*X238900Y516000D02*Y506000D01*
X454000D02*G75*G03X463000Y515000I0J9000D01*G01*
Y947000D02*G75*G03X454000Y956000I-9000J0D01*G01*
X98000Y556500D02*G75*G03X102500Y552000I4500J0D01*G01*
Y910000D02*G75*G03X98000Y905500I0J-4500D01*G01*
G54D105*X378235Y738701D02*G75*G03X378168Y663345I25775J-37701D01*G01*
X429785Y663299D02*G75*G03X429851Y738655I-25775J37701D01*G01*
M02*
