M48
;FILE_FORMAT=3:3
METRIC,TZ,000.000
;TYPE=PLATED
T01C0.500
T03C0.900
T04C0.965
T06C1.000
T07C1.100
T08C1.600
T09C2.500
T11C3.500
;TYPE=NON_PLATED
T02C0.600
T05C1.000
T10C3.200
%
T01
X+26000Y+438400
X+32700Y+428300
X+34700Y+429300
X+35800Y+443000
X+36800Y+448500
X+43700Y+448200
X+47800Y+407200
X+48100Y+423600
X+48000Y+428200
X+55200Y+406500
X+57000Y+416100
X+59000Y+414100
X+57400Y+418100
X+59400Y+416400
X+57000Y+422200
X+58800Y+424900
Y+423100
X+62000Y+408300
X+63000Y+414800
X+66000Y+414100
X+67000
X+65000
X+67700Y+418200
X+65100Y+415800
X+63800
X+64700Y+425200
X+66800
X+63500Y+425600
X+64000Y+443900
X+64600Y+446500
X+66200
Y+445200
X+63600Y+445100
X+64000Y+450300
X+66100Y+451500
X+63800Y+453900
X+70000Y+415500
X+74800Y+423500
X+70000Y+420500
Y+425500
X+73400Y+448400
X+77200Y+423500
X+77600Y+422300
X+78800Y+422700
X+79200Y+421500
X+81200Y+420700
X+80400Y+421600
X+81700Y+423900
X+82600Y+423000
X+77600Y+433600
X+78400Y+432400
X+79800Y+433400
X+81700Y+432300
X+78500Y+443300
X+79800Y+445100
X+85800Y+416700
Y+414400
X+84900Y+423600
Y+422400
X+86300Y+422600
X+86500Y+423800
X+85600Y+425300
X+90300Y+423400
X+88300Y+420200
X+87100
X+88400Y+425700
X+85700Y+433500
X+87700Y+433100
X+85600Y+430700
X+86800
X+88900Y+433100
X+88800Y+430300
X+87200Y+427900
X+89200Y+428700
X+90400Y+429900
X+85500Y+436300
X+86100Y+437500
X+89500Y+438700
X+87900
X+88700Y+439700
X+86800Y+441200
X+90200Y+440700
X+89800Y+444200
X+86681Y+450578
X+94100Y+410400
X+96100Y+423100
Y+426000
X+92800Y+423400
X+96100Y+431600
Y+428600
X+92800Y+428000
X+93100Y+431900
X+92700Y+440800
X+92900Y+438000
X+94100Y+440800
X+93700Y+446600
X+94400Y+451200
Y+452900
Y+454900
X+99900Y+421700
X+102400
X+104900
X+102400Y+429700
X+104900
X+99900
X+103200Y+431700
X+100800Y+435300
X+103800Y+438300
X+104700Y+435600
X+108900Y+412200
X+109400Y+418000
X+109800Y+415200
X+108300Y+420600
Y+424600
X+111300Y+424900
X+107800Y+431300
Y+430300
X+108300Y+429100
X+112200Y+433300
Y+429200
X+112800Y+435300
Y+439400
X+108800
X+110800Y+437400
X+111000Y+435600
X+109700Y+443700
Y+445900
X+119000Y+418000
X+118900Y+415300
X+115300Y+425200
X+118800Y+433400
X+116800Y+431400
X+118800Y+429400
X+120800Y+431400
X+116800Y+439400
X+120800
X+118800Y+437400
X+116800Y+435400
X+120800
X+121000Y+448100
X+118200
X+126700Y+413600
Y+415700
X+128400Y+425100
X+122800Y+429400
X+125800
X+122800Y+437400
X+126800
X+124800Y+435400
Y+439400
X+128800
X+124800Y+443400
X+128800
X+126800Y+445400
X+122800Y+445100
X+135700Y+408500
X+132500Y+425200
X+133200Y+430000
X+136100
X+132600Y+427800
X+37000Y+427000
X+40600Y+427200
X+43700Y+449800
X+58100Y+427100
X+65100
X+62500
X+66100Y+449100
X+74000Y+433800
Y+434700
X+80900Y+434600
X+82100Y+434700
X+78300Y+441600
X+79200Y+434500
X+77400Y+449300
X+85800Y+419000
X+85200Y+427100
X+88100Y+427000
X+89600Y+441500
X+97200Y+419500
X+92700Y+426300
X+93200Y+450000
X+102900Y+412100
X+100200Y+419500
X+102900
X+103400Y+449000
X+111000Y+434600
X+119600Y+449400
X+126800Y+441400
X+122800
X+23100Y+439600
X+22300Y+440700
X+45500Y+407200
X+61400Y+414200
X+61200Y+416400
X+45700Y+416600
X+52800Y+418000
X+45700Y+423600
X+38400Y+424600
X+53400Y+428600
X+60700Y+452400
X+68000Y+414100
X+67900Y+415800
X+76000Y+423100
X+68300Y+424600
X+92000Y+421300
X+91500Y+423400
X+83700Y+422400
X+83300Y+424000
X+90800Y+425400
X+83300Y+431900
X+76000Y+433100
X+76800Y+432100
X+83900Y+435900
X+91100Y+439200
X+83500Y+440900
X+91700Y+436700
X+75600Y+446200
X+106800Y+416400
X+99300Y+414500
X+114800Y+433400
Y+437400
X+106300Y+435200
X+106900Y+440800
Y+438800
X+107100Y+443700
Y+445900
X+60500Y+410900
X+38300Y+427200
X+83900Y+410900
X+91700Y+419700
X+90800Y+427000
X+83700Y+434300
X+76500Y+434200
X+91800Y+441600
T02
X+59650Y+403050
X+58650
X+57650
X+56650
T03
X+34600Y+452700
Y+450160
X+42700Y+417020
Y+422100
X+41800Y+452700
Y+450160
X+32900Y+423760
Y+421220
X+35440Y+417410
Y+419950
Y+422490
Y+425030
X+32900Y+426300
Y+418680
T04
X+32700Y+442640
Y+440100
Y+435020
Y+437560
Y+445180
X+68393Y+407657
X+65853
X+73473
X+76013
X+81093
X+83633
X+88713
X+91253
X+96333
X+98873
X+103953
X+106493
X+111573
X+114113
X+119193
X+121733
X+126813
X+129353
X+134433
X+136973
X+65853Y+405117
X+68393
X+73473
X+76013
X+81093
X+83633
X+88713
X+91253
X+96333
X+98873
X+103953
X+106493
X+111573
X+114113
X+119193
X+121733
X+126813
X+129353
X+134433
X+136973
X+70933Y+407657
X+78553
X+86173
X+93793
X+101413
X+109033
X+116653
X+124273
X+131893
X+139513
X+70933Y+405117
X+78553
X+86173
X+93793
X+101413
X+109033
X+116653
X+124273
X+131893
X+139513
T05
X+21700Y+442600
Y+438200
T06
X+78010Y+416201
X+75470
X+28700Y+436900
Y+443900
Y+441400
Y+439400
X+53900Y+448130
Y+450670
X+78010Y+413661
X+75470
X+78010Y+418741
X+75470
X+125400Y+417500
Y+420040
X+135560
Y+417500
X+133020
Y+420040
X+130480Y+417500
Y+420040
X+127940Y+417500
Y+420040
T07
X+23170Y+415530
X+21650Y+428180
X+23170Y+425640
X+21650Y+418070
T08
X+29600Y+413980
Y+429730
T09
X+25990Y+433830
Y+446970
T10
X+26550Y+416140
Y+427570
T11
X+19600Y+407500
Y+452200
T00
M30
