G04 ================== begin FILE IDENTIFICATION RECORD ==================*
G04 Layout Name:  C:/tmp/20_057494d/worklib/02_057494d_top/physical/08_057494d.brd*
G04 Film Name:    l2_gnd*
G04 File Format:  Gerber RS274X*
G04 File Origin:  Cadence Allegro 17.2-060*
G04 Origin Date:  Sat Sep 12 02:02:56 2020*
G04 *
G04 Layer:  VIA CLASS/L2_GND*
G04 Layer:  PIN/L2_GND*
G04 Layer:  ETCH/L2_GND*
G04 Layer:  BOARD GEOMETRY/LYR_2.5*
G04 Layer:  BOARD GEOMETRY/TOOLING_CORNERS*
G04 Layer:  BOARD GEOMETRY/ROOT_NUMBER*
G04 *
G04 Offset:    (0.00 0.00)*
G04 Mirror:    No*
G04 Mode:      Positive*
G04 Rotation:  0*
G04 FullContactRelief:  No*
G04 UndefLineWidth:     8.00*
G04 ================== end FILE IDENTIFICATION RECORD ====================*
%FSLAX25Y25*MOIN*%
%IR0*IPPOS*OFA0.00000B0.00000*MIA0B0*SFA1.00000B1.00000*%
%ADD10C,.024*%
%ADD12C,.055*%
%ADD11C,.065*%
%ADD13C,.05*%
%ADD14C,.025*%
%ADD15C,.008*%
%ADD16C,.04004*%
%ADD21C,.07104*%
%ADD17C,.08104*%
%ADD18C,.06604*%
%ADD22O,.12004X.36004*%
%ADD20C,.11604*%
%ADD19C,.19104*%
G75*
%LPD*%
G75*
G36*
G01X-5851Y7550D02*
G02X-6496Y7866I-245J316D01*
G01Y195996D01*
X-3229D01*
G02X-2899Y195371I-1J-400D01*
G03X-4552Y190000I7899J-5371D01*
G03X5000Y180448I9552J0D01*
G03X14434Y188505I0J9552D01*
G02X15204Y188582I395J-62D01*
G03X19000Y185948I3796J1418D01*
G03Y194052I0J4052D01*
G03X15204Y191418I0J-4052D01*
G02X14434Y191495I-375J139D01*
G03X12899Y195371I-9434J-1494D01*
G02X13229Y195996I331J225D01*
G01X355996D01*
Y-5996D01*
X8229D01*
G02X7899Y-5371I1J400D01*
G03X9552Y0I-7899J5371D01*
G03X0Y9552I-9552J0D01*
G03X-5851Y7550I0J-9551D01*
G37*
%LPC*%
G75*
G54D16*
X6250Y82500D03*
X1250Y93750D03*
Y88750D03*
Y82500D03*
Y77500D03*
X6250Y88750D03*
Y77500D03*
Y93750D03*
X44500Y2000D03*
X125000Y170000D03*
X145000D03*
X72333Y32000D03*
X238825Y1175D03*
X288150D03*
X271650D03*
X271846Y10654D03*
X238846D03*
X288346D03*
X249000Y91000D03*
X222499Y56001D03*
X255325Y1175D03*
X103500Y41500D03*
X184000Y56240D03*
X17671Y15000D03*
X206300Y50500D03*
X54560Y8050D03*
X76260Y10760D03*
X78260Y20760D03*
X68760Y25760D03*
X257879Y75621D03*
X43836Y24500D03*
X161600Y16800D03*
X177100D03*
X61587Y41587D03*
X130600Y16800D03*
X146100D03*
X68760Y10760D03*
X98739Y20261D03*
X255346Y10654D03*
X251379Y75817D03*
G54D21*
X260000Y61500D03*
Y31579D03*
G54D17*
X109000Y190000D03*
X29000D03*
X39000D03*
X49000D03*
X59000D03*
X69000D03*
X79000D03*
X89000D03*
X99000D03*
X145000Y0D03*
X155000D03*
X165000D03*
X175000D03*
X185000D03*
X195000D03*
X55000D03*
X65000D03*
X75000D03*
X85000D03*
X95000D03*
X105000D03*
X115000D03*
X125000D03*
Y190000D03*
X135000D03*
X145000D03*
X155000D03*
X165000D03*
X175000D03*
X185000D03*
X195000D03*
X314000Y186500D03*
X324000D03*
X224500Y190000D03*
X214500D03*
G54D18*
X152500Y35000D03*
X142500Y45000D03*
X152500Y55000D03*
G54D22*
X291000Y52000D03*
X347500D03*
X291000Y124000D03*
X347500D03*
G54D20*
X218500Y104000D03*
G54D19*
X205000Y130000D03*
Y20000D03*
%LPD*%
G75*
G54D10*
X10832Y18741D03*
X832D03*
X10832Y8741D03*
Y-1259D03*
Y38741D03*
Y28741D03*
X18760Y64990D03*
X10832Y58741D03*
X832D03*
X10832Y48741D03*
X500Y53550D03*
X18750Y75000D03*
X22913Y2000D03*
X44096Y18500D03*
X44202Y11202D03*
X24500Y32500D03*
X21000Y38000D03*
X41500Y33000D03*
X26500Y38000D03*
X22500Y64990D03*
X40000Y56500D03*
X41663Y62676D03*
X23750Y80000D03*
Y90000D03*
X43700Y89950D03*
X36400Y77900D03*
X57050Y44000D03*
X61550Y35950D03*
X90000Y10000D03*
X93000D03*
X96000D03*
X121000Y9500D03*
X125000D03*
X103500Y35000D03*
Y31500D03*
X111500Y22500D03*
X119000Y29000D03*
X115500D03*
X130500Y20850D03*
X146000Y21000D03*
X161500D03*
X177000D03*
X171740Y48740D03*
X175333Y63079D03*
X178044Y147094D03*
X168044D03*
X178044Y167094D03*
X168044D03*
X158044D03*
X178044Y157094D03*
X168044D03*
X158044D03*
X202385Y59619D03*
X193443Y52500D03*
X198044Y147094D03*
X188044D03*
X198044Y177094D03*
X188044D03*
X198044Y167094D03*
X188044D03*
X198044Y157094D03*
X188044D03*
X230767Y17269D03*
Y37269D03*
X220767D03*
X230767Y27269D03*
X220767D03*
X228044Y147094D03*
X218044D03*
X208044D03*
X228044Y177094D03*
X218044D03*
X208044D03*
X228044Y167094D03*
X218044D03*
X208044D03*
X228044Y157094D03*
X218044D03*
X208044D03*
Y194594D03*
X218044D03*
X231000Y194500D03*
X208044Y184594D03*
X218044D03*
X228044D03*
X250767Y17269D03*
X240767D03*
X250767Y37269D03*
X240767D03*
X250767Y27269D03*
X240767D03*
X234971Y49471D03*
X238044Y177094D03*
Y167094D03*
X249044D03*
X259044D03*
X249044Y177094D03*
X259044D03*
X238044Y194594D03*
Y184594D03*
X249544Y194594D03*
Y184594D03*
X280767Y17269D03*
X270767D03*
X260767D03*
X280767Y37269D03*
X270767D03*
X260767D03*
X280767Y27269D03*
X270767D03*
X260767D03*
X284250Y70753D03*
X274250D03*
X284250Y90753D03*
X274250D03*
X284250Y80753D03*
X274250D03*
X284250Y100753D03*
X274250D03*
X279044Y167094D03*
X269044D03*
X279044Y177094D03*
X269044D03*
X259544Y194594D03*
Y184594D03*
X279544Y194594D03*
Y184594D03*
X269544Y194594D03*
Y184594D03*
X292418Y18329D03*
Y8329D03*
Y-1671D03*
X305345Y18197D03*
Y8197D03*
Y-1803D03*
X292418Y28329D03*
X305345Y38197D03*
Y28197D03*
Y68197D03*
Y58197D03*
Y48197D03*
X294250Y70753D03*
X305345Y98197D03*
Y88197D03*
Y78197D03*
X294250Y90753D03*
Y80753D03*
X305345Y118197D03*
Y108197D03*
X294250Y100753D03*
X305345Y148197D03*
Y138197D03*
Y128197D03*
X335345Y18197D03*
X325345D03*
X315345D03*
X335345Y8197D03*
X325345D03*
X315345D03*
X335345Y-1803D03*
X325345D03*
X315345D03*
X335345Y38197D03*
X325345D03*
X315345D03*
X335345Y28197D03*
X325345D03*
X315345D03*
X335345Y68197D03*
X325345D03*
X315345D03*
X335345Y58197D03*
X325345D03*
X315345D03*
X335345Y48197D03*
X325345D03*
X315345D03*
X335345Y98197D03*
X325345D03*
X315345D03*
X335345Y88197D03*
X325345D03*
X315345D03*
X335345Y78197D03*
X325345D03*
X315345D03*
X335345Y118197D03*
X325345D03*
X315345D03*
X335345Y108197D03*
X325345D03*
X315345D03*
X335345Y148197D03*
X325345D03*
X315345D03*
X335345Y138197D03*
X325345D03*
X315345D03*
X335345Y128197D03*
X325345D03*
X315345D03*
G54D11*
X49000Y190000D03*
X115000Y0D03*
X105000D03*
X214500Y190000D03*
G54D12*
X260000Y31579D03*
G54D13*
G01X-13000Y-22500D02*
Y12500D01*
G01X-23000Y-12500D02*
X12000D01*
G01X-13000Y212500D02*
Y177500D01*
G01X-23000Y202500D02*
X12000D01*
G01X372500Y-12500D02*
X337500D01*
G01X372500Y202500D02*
X337500D01*
G01X362500Y-22500D02*
Y12500D01*
G01Y212500D02*
Y177500D01*
G54D14*
G01X49000Y185748D02*
Y190000D01*
G01D02*
Y194252D01*
G01X44748Y190000D02*
X49000D01*
G01D02*
X53252D01*
G01X105000Y-4252D02*
Y0D01*
G01D02*
Y4252D01*
G01X100748Y0D02*
X105000D01*
G01D02*
X109252D01*
G01X115000Y-4252D02*
Y0D01*
G01D02*
Y4252D01*
G01X110748Y0D02*
X115000D01*
G01D02*
X119252D01*
G01X214500Y185748D02*
Y190000D01*
G01D02*
Y194252D01*
G01X210248Y190000D02*
X214500D01*
G01D02*
X218752D01*
G01X256248Y31579D02*
X260000D01*
G01Y27827D02*
Y31579D01*
G01D02*
Y35331D01*
G01Y31579D02*
X263752D01*
G54D15*
G01X108500Y273750D02*
X107500Y273417D01*
X106750Y272583D01*
X106250Y271583D01*
X105875Y270250D01*
X105750Y268750D01*
X105875Y267250D01*
X106250Y265917D01*
X106750Y264916D01*
X107500Y264083D01*
X108500Y263750D01*
X109500Y264083D01*
X110250Y264916D01*
X110750Y265917D01*
X111125Y267250D01*
X111250Y268750D01*
X111125Y270250D01*
X110750Y271583D01*
X110250Y272583D01*
X109500Y273417D01*
X108500Y273750D01*
G01X118500Y263750D02*
X119375Y263917D01*
X120375Y264417D01*
X121000Y265250D01*
X121250Y266417D01*
X121000Y267583D01*
X120250Y268583D01*
X119125Y269083D01*
X117875D01*
X117125Y269417D01*
X116500Y270250D01*
X116250Y271417D01*
X116625Y272583D01*
X117500Y273417D01*
X118500Y273750D01*
X119500Y273417D01*
X120375Y272583D01*
X120750Y271417D01*
X120500Y270250D01*
X119875Y269417D01*
X119125Y269083D01*
X117875D01*
X116750Y268583D01*
X116000Y267583D01*
X115750Y266417D01*
X116000Y265250D01*
X116625Y264417D01*
X117625Y263917D01*
X118500Y263750D01*
G01X126875Y267083D02*
X130125D01*
G01X196875D02*
X200125D01*
G01X208500Y273750D02*
X207500Y273417D01*
X206750Y272583D01*
X206250Y271583D01*
X205875Y270250D01*
X205750Y268750D01*
X205875Y267250D01*
X206250Y265917D01*
X206750Y264916D01*
X207500Y264083D01*
X208500Y263750D01*
X209500Y264083D01*
X210250Y264916D01*
X210750Y265917D01*
X211125Y267250D01*
X211250Y268750D01*
X211125Y270250D01*
X210750Y271583D01*
X210250Y272583D01*
X209500Y273417D01*
X208500Y273750D01*
G01X218250Y263750D02*
X218500Y265917D01*
X218875Y267750D01*
X219375Y269417D01*
X220000Y271250D01*
X221000Y273750D01*
X216000D01*
G01X143000Y243750D02*
Y253750D01*
X146125D01*
X147125Y253250D01*
X147750Y252583D01*
X148000Y251250D01*
X147750Y249917D01*
X147000Y249083D01*
X146125Y248583D01*
X143000D01*
G01X146125D02*
X148000Y243750D01*
G01X158000D02*
X153000D01*
Y253750D01*
X158000D01*
G01X156000Y248917D02*
X153000D01*
G01X162375Y253750D02*
X165500Y243750D01*
X168625Y253750D01*
G01X182750Y243750D02*
Y253750D01*
X185250D01*
X186250Y253250D01*
X187000Y252583D01*
X187625Y251583D01*
X188125Y250416D01*
X188250Y248750D01*
X188125Y247083D01*
X187625Y245917D01*
X187000Y244916D01*
X186250Y244250D01*
X185250Y243750D01*
X182750D01*
G01X136500Y295250D02*
Y285250D01*
X141500D01*
G01X146625Y293583D02*
X147375Y294583D01*
X148250Y295083D01*
X149250Y295250D01*
X150500Y294917D01*
X151375Y294083D01*
X151625Y293083D01*
X151500Y292083D01*
X151000Y291250D01*
X148500Y289583D01*
X147375Y288417D01*
X146625Y286750D01*
X146375Y285250D01*
X151625D01*
G01X169750Y290250D02*
X172250D01*
Y287250D01*
X171500Y286250D01*
X170625Y285583D01*
X169375Y285250D01*
X168125Y285583D01*
X167250Y286250D01*
X166500Y287250D01*
X166000Y288417D01*
X165750Y289750D01*
Y290917D01*
X166000Y291916D01*
X166500Y293083D01*
X167250Y294083D01*
X168000Y294750D01*
X169000Y295250D01*
X169875D01*
X170875Y294917D01*
X171625Y294250D01*
G01X176125Y285250D02*
Y295250D01*
X181875Y285250D01*
Y295250D01*
G01X186250Y285250D02*
Y295250D01*
X188750D01*
X189750Y294750D01*
X190500Y294083D01*
X191125Y293083D01*
X191625Y291916D01*
X191750Y290250D01*
X191625Y288583D01*
X191125Y287417D01*
X190500Y286416D01*
X189750Y285750D01*
X188750Y285250D01*
X186250D01*
G01X140500Y273750D02*
X139500Y273417D01*
X138750Y272583D01*
X138250Y271583D01*
X137875Y270250D01*
X137750Y268750D01*
X137875Y267250D01*
X138250Y265917D01*
X138750Y264916D01*
X139500Y264083D01*
X140500Y263750D01*
X141500Y264083D01*
X142250Y264916D01*
X142750Y265917D01*
X143125Y267250D01*
X143250Y268750D01*
X143125Y270250D01*
X142750Y271583D01*
X142250Y272583D01*
X141500Y273417D01*
X140500Y273750D01*
G01X147750Y265250D02*
X148500Y264417D01*
X149375Y263917D01*
X150500Y263750D01*
X151625Y264083D01*
X152500Y264750D01*
X153125Y265917D01*
X153250Y267250D01*
X153000Y268583D01*
X152375Y269417D01*
X151500Y270083D01*
X150625Y270250D01*
X149750Y270083D01*
X148625Y269417D01*
X149000Y273750D01*
X152375D01*
G01X160250Y263750D02*
X160500Y265917D01*
X160875Y267750D01*
X161375Y269417D01*
X162000Y271250D01*
X163000Y273750D01*
X158000D01*
G01X172000Y263750D02*
Y273750D01*
X167375Y266583D01*
X173625D01*
G01X178375Y264916D02*
X179250Y264083D01*
X180250Y263750D01*
X181250Y264083D01*
X182125Y265083D01*
X182750Y266583D01*
X183000Y268083D01*
Y269917D01*
X182750Y271417D01*
X182125Y272750D01*
X181375Y273417D01*
X180500Y273750D01*
X179500Y273417D01*
X178750Y272750D01*
X178250Y271750D01*
X178000Y270416D01*
X178250Y269250D01*
X178875Y268083D01*
X179625Y267416D01*
X180500Y267250D01*
X181500Y267583D01*
X182250Y268417D01*
X183000Y269917D01*
G01X192000Y263750D02*
Y273750D01*
X187375Y266583D01*
X193625D01*
M02*
