G04 ================== begin FILE IDENTIFICATION RECORD ==================*
G04 Layout Name:  C:/tmp/20_057494d/worklib/02_057494d_top/physical/08_057494d.brd*
G04 Film Name:    l4_secondary*
G04 File Format:  Gerber RS274X*
G04 File Origin:  Cadence Allegro 17.2-060*
G04 Origin Date:  Sat Sep 12 02:02:56 2020*
G04 *
G04 Layer:  VIA CLASS/BOTTOM*
G04 Layer:  PIN/BOTTOM*
G04 Layer:  ETCH/BOTTOM*
G04 Layer:  PACKAGE GEOMETRY/ETCH_BOTTOM*
G04 Layer:  BOARD GEOMETRY/LYR_BOTTOM*
G04 Layer:  BOARD GEOMETRY/TOOLING_CORNERS*
G04 Layer:  BOARD GEOMETRY/ROOT_NUMBER*
G04 *
G04 Offset:    (0.00 0.00)*
G04 Mirror:    No*
G04 Mode:      Positive*
G04 Rotation:  0*
G04 FullContactRelief:  No*
G04 UndefLineWidth:     8.00*
G04 ================== end FILE IDENTIFICATION RECORD ====================*
%FSLAX25Y25*MOIN*%
%IR0*IPPOS*OFA0.00000B0.00000*MIA0B0*SFA1.00000B1.00000*%
%ADD12C,.04*%
%ADD16C,.05*%
%ADD11C,.024*%
%ADD19C,.055*%
%ADD14C,.065*%
%ADD17R,.05X.05*%
%ADD20R,.055X.055*%
%ADD13R,.065X.065*%
%AMMACRO21*
4,1,36,0.0,-.02,
.003473,-.019696,
.00684,-.018794,
.01,-.017321,
.012856,-.015321,
.015321,-.012856,
.017321,-.01,
.018794,-.00684,
.019696,-.003473,
.02,0.0,
.019696,.003473,
.018794,.00684,
.017321,.01,
.015321,.012856,
.012856,.015321,
.01,.017321,
.00684,.018794,
.003473,.019696,
0.0,.02,
-.003473,.019696,
-.00684,.018794,
-.01,.017321,
-.012856,.015321,
-.015321,.012856,
-.017321,.01,
-.018794,.00684,
-.019696,.003473,
-.02,0.0,
-.019696,-.003473,
-.018794,-.00684,
-.017321,-.01,
-.015321,-.012856,
-.012856,-.015321,
-.01,-.017321,
-.00684,-.018794,
-.003473,-.019696,
0.0,-.02,
90.*
%
%ADD21MACRO21*%
%AMMACRO10*
4,1,36,0.0,-.02,
.003473,-.019696,
.00684,-.018794,
.01,-.017321,
.012856,-.015321,
.015321,-.012856,
.017321,-.01,
.018794,-.00684,
.019696,-.003473,
.02,0.0,
.019696,.003473,
.018794,.00684,
.017321,.01,
.015321,.012856,
.012856,.015321,
.01,.017321,
.00684,.018794,
.003473,.019696,
0.0,.02,
-.003473,.019696,
-.00684,.018794,
-.01,.017321,
-.012856,.015321,
-.015321,.012856,
-.017321,.01,
-.018794,.00684,
-.019696,.003473,
-.02,0.0,
-.019696,-.003473,
-.018794,-.00684,
-.017321,-.01,
-.015321,-.012856,
-.012856,-.015321,
-.01,-.017321,
-.00684,-.018794,
-.003473,-.019696,
0.0,-.02,
0.0*
%
%ADD10MACRO10*%
%ADD18C,.1*%
%ADD15R,.039X.031*%
%ADD22C,.02*%
%ADD23C,.025*%
%ADD24C,.008*%
%ADD25C,.04004*%
%ADD31C,.07104*%
%ADD29C,.08004*%
%ADD26C,.08104*%
%ADD27C,.06604*%
%ADD32O,.12004X.36004*%
%ADD30C,.11604*%
%ADD28C,.19104*%
G75*
%LPD*%
G75*
G36*
G01X-5000Y97500D02*
X38000D01*
X40500Y95000D01*
Y64306D01*
G03Y61046I1164J-1630D01*
G01Y58899D01*
G02X40083Y58500I-400J1D01*
G03X40000Y58502I-90J-2000D01*
G03Y54498I0J-2002D01*
G03X40083Y54500I-7J2002D01*
G02X40500Y54101I17J-400D01*
G01Y34734D01*
G03X39498Y33000I999J-1734D01*
G03X40500Y31266I2001J0D01*
G01Y18750D01*
X47000Y12250D01*
X64157D01*
X68472Y7934D01*
G02X68189Y7252I-283J-282D01*
G01X56928D01*
G02X56534Y7718I0J400D01*
G03X56562Y8050I-1974J334D01*
G03X52558I-2002J0D01*
G03X52586Y7718I2002J2D01*
G02X52192Y7252I-394J-66D01*
G01X47550D01*
G03X45993Y6607I0J-2202D01*
G01X42943Y3557D01*
G03X42298Y2000I1557J-1557D01*
G03X44500Y-202I2202J0D01*
G03X46057Y443I0J2202D01*
G01X48462Y2848D01*
X50948D01*
Y-3250D01*
G03X51750Y-4052I802J0D01*
G01X58250D01*
G03X59052Y-3250I0J802D01*
G01Y2848D01*
X61282D01*
G02X61616Y2229I0J-400D01*
G03X60948Y0I3385J-2229D01*
G03X69052I4052J0D01*
G03X68384Y2229I-4053J0D01*
G02X68718Y2848I334J219D01*
G01X69038D01*
X71037Y850D01*
X71017Y746D01*
G03X70948Y3I3983J-745D01*
G01Y0D01*
G03X75000Y4052I4052J0D01*
G01X74997D01*
G03X74254Y3983I2J-4052D01*
G01X74150Y3963D01*
X73238Y4876D01*
G02X73521Y5558I283J282D01*
G01X77503D01*
G03X79060Y6203I0J2202D01*
G01X83655Y10798D01*
X87632D01*
G02X88026Y10332I0J-400D01*
G03X87998Y10000I1974J-334D01*
G03X90000Y7998I2002J0D01*
G01X90001D01*
G03X91338Y8510I0J2002D01*
G01X91365Y8534D01*
X91500Y8588D01*
X91635Y8534D01*
X91662Y8510D01*
G03X92999Y7998I1337J1490D01*
G01X93001D01*
G03X94338Y8510I0J2002D01*
G01X94365Y8534D01*
X94500Y8588D01*
X94635Y8534D01*
X94662Y8510D01*
G03X95999Y7998I1337J1490D01*
G01X96000D01*
G03X98002Y10000I0J2002D01*
G03X97974Y10332I-2002J-2D01*
G02X98368Y10798I394J66D01*
G01X101250D01*
Y1535D01*
G03X100948Y0I3750J-1535D01*
G03X101236Y-1498I4052J2D01*
G01Y-1499D01*
X101250Y-1535D01*
Y-3750D01*
X100000Y-5000D01*
X8825D01*
G02X8470Y-4415I0J400D01*
G03X9044Y-3075I-8468J4420D01*
G02X9657Y-2880I378J-129D01*
G03X10832Y-3261I1175J1621D01*
G03Y743I0J2002D01*
G03X10060Y588I0J-2002D01*
G02X9508Y919I-154J369D01*
G03X0Y9552I-9508J-919D01*
G03X-5615Y7727I0J-9552D01*
G02X-6250Y8051I-235J324D01*
G01Y96250D01*
X-5000Y97500D01*
G37*
G36*
G01X139500Y195500D02*
X351500D01*
X355500Y191500D01*
Y-3000D01*
X353500Y-5000D01*
X105000D01*
X104735Y-4735D01*
G02X105016Y-4052I283J283D01*
G03X109052Y0I-16J4052D01*
G03X105000Y4052I-4052J0D01*
G03X103999Y3926I2J-4052D01*
G02X103500Y4313I-99J388D01*
G01Y10798D01*
X115000D01*
G03X116557Y11443I0J2202D01*
G01X131912Y26798D01*
X156760D01*
G03X158317Y27443I0J2202D01*
G01X185557Y54683D01*
G03X186202Y56240I-1557J1557D01*
G03X184000Y58442I-2202J0D01*
G03X182443Y57797I0J-2202D01*
G01X155848Y31202D01*
X131000D01*
G03X129443Y30557I0J-2202D01*
G01X114088Y15202D01*
X103500D01*
Y21500D01*
X118000Y36000D01*
Y58500D01*
X116884Y59616D01*
G02X117167Y60298I283J282D01*
G01X167000D01*
G03X168557Y60943I0J2202D01*
G01X196412Y88798D01*
X249000D01*
G03Y93202I0J2202D01*
G01X195500D01*
G03X193943Y92557I0J-2202D01*
G01X166088Y64702D01*
X83500D01*
G03X81943Y64057I0J-2202D01*
G01X80387Y62500D01*
X58000D01*
X55500Y65000D01*
Y132500D01*
X61000Y138000D01*
X129000D01*
X137000Y146000D01*
Y149080D01*
G03X137202Y150000I-2000J921D01*
G01Y186598D01*
G03X139052Y190000I-2203J3402D01*
G03X137661Y193056I-4052J0D01*
G02X137641Y193641I262J302D01*
G01X139500Y195500D01*
G37*
G36*
G01X84000Y58500D02*
X111500D01*
X112500Y57500D01*
Y37500D01*
X106185Y31185D01*
G02X105502Y31473I-283J282D01*
G01Y31500D01*
G03X104871Y32959I-2002J0D01*
G02Y33541I274J291D01*
G03X105502Y35000I-1371J1459D01*
G03X101498I-2002J0D01*
G03X102129Y33541I2002J0D01*
G02Y32959I-274J-291D01*
G03X101498Y31500I1371J-1459D01*
G03X103500Y29498I2002J0D01*
G01X103527D01*
G02X103815Y28815I6J-400D01*
G01X94961Y19962D01*
X73152D01*
X71500Y21613D01*
Y29637D01*
G02X71972Y30031I400J0D01*
G03X72333Y29998I362J1969D01*
G03Y34002I0J2002D01*
G03X71972Y33969I1J-2002D01*
G02X71500Y34363I-72J394D01*
G01Y46000D01*
X84000Y58500D01*
G37*
%LPC*%
G75*
G36*
G01X20941Y63734D02*
G03X20319I-311J-251D01*
G02X18760Y62988I-1559J1256D01*
G02Y66992I0J2002D01*
G02X20319Y66246I0J-2002D01*
G03X20941I311J251D01*
G02X22500Y66992I1559J-1256D01*
G02Y62988I0J-2002D01*
G02X20941Y63734I0J2002D01*
G37*
G36*
G01X172798Y183667D02*
Y186598D01*
G02X170948Y190000I2203J3402D01*
G02X179052I4052J0D01*
G02X177202Y186598I-4053J0D01*
G01Y183667D01*
X177311Y183611D01*
G02X177752Y182896I-360J-716D01*
G01Y179796D01*
G02X176950Y178994I-802J0D01*
G01X173050D01*
G02X172248Y179796I0J802D01*
G01Y182896D01*
G02X172689Y183611I801J-1D01*
G01X172798Y183667D01*
G37*
G36*
G01X162798D02*
Y186598D01*
G02X160948Y190000I2203J3402D01*
G02X169052I4052J0D01*
G02X167202Y186598I-4053J0D01*
G01Y183667D01*
X167311Y183611D01*
G02X167752Y182896I-360J-716D01*
G01Y179796D01*
G02X166950Y178994I-802J0D01*
G01X163050D01*
G02X162248Y179796I0J802D01*
G01Y182896D01*
G02X162689Y183611I801J-1D01*
G01X162798Y183667D01*
G37*
G36*
G01X142798D02*
Y186598D01*
G02X140948Y190000I2203J3402D01*
G02X149052I4052J0D01*
G02X147202Y186598I-4053J0D01*
G01Y183667D01*
X147311Y183611D01*
G02X147752Y182896I-360J-716D01*
G01Y179796D01*
G02X146950Y178994I-802J0D01*
G01X143050D01*
G02X142248Y179796I0J802D01*
G01Y182896D01*
G02X142689Y183611I801J-1D01*
G01X142798Y183667D01*
G37*
G36*
G01X167420Y176856D02*
X172580D01*
X172628Y176885D01*
G02X173050Y177006I423J-681D01*
G01X176950D01*
G02X177752Y176204I0J-802D01*
G01Y173104D01*
G02X176950Y172302I-802J0D01*
G01X173050D01*
G02X172628Y172423I1J802D01*
G01X172580Y172452D01*
X167420D01*
X167372Y172423D01*
G02X166950Y172302I-423J681D01*
G01X163050D01*
G02X162628Y172423I1J802D01*
G01X162580Y172452D01*
X147420D01*
X147372Y172423D01*
G02X147311Y172389I-420J682D01*
G01X147202Y172333D01*
Y170000D01*
G02X142798I-2202J0D01*
G01Y172333D01*
X142689Y172389D01*
G02X142248Y173104I360J716D01*
G01Y176204D01*
G02X143050Y177006I802J0D01*
G01X146950D01*
G02X147372Y176885I-1J-802D01*
G01X147420Y176856D01*
X162580D01*
X162628Y176885D01*
G02X163050Y177006I423J-681D01*
G01X166950D01*
G02X167372Y176885I-1J-802D01*
G01X167420Y176856D01*
G37*
G36*
G01X174774Y15802D02*
G03X175161Y16301I0J400D01*
G02X175098Y16800I1939J498D01*
G02X177100Y18802I2002J0D01*
G02X178301Y18402I0J-2003D01*
G01X191699D01*
G02X192831Y17932I-1J-1601D01*
G01X201662Y9102D01*
X236739D01*
G03X237090Y9693I0J400D01*
G02X236844Y10654I1756J961D01*
G02X240848I2002J0D01*
G02X240602Y9693I-2002J0D01*
G03X240953Y9102I351J-191D01*
G01X253239D01*
G03X253590Y9693I0J400D01*
G02X253344Y10654I1756J961D01*
G02X257348I2002J0D01*
G02X257102Y9693I-2002J0D01*
G03X257453Y9102I351J-191D01*
G01X269739D01*
G03X270090Y9693I0J400D01*
G02X269844Y10654I1756J961D01*
G02X273848I2002J0D01*
G02X273602Y9693I-2002J0D01*
G03X273953Y9102I351J-191D01*
G01X281825D01*
G02X282957Y8632I-1J-1601D01*
G01X288432Y3158D01*
X288494Y3147D01*
G02X290152Y1175I-344J-1972D01*
G02X288150Y-827I-2002J0D01*
G02X286178Y831I0J2002D01*
G01X286167Y893D01*
X281162Y5898D01*
X270157D01*
G03X269874Y5216I0J-400D01*
G01X271932Y3158D01*
X271994Y3147D01*
G02X273652Y1175I-344J-1972D01*
G02X271650Y-827I-2002J0D01*
G02X269678Y831I0J2002D01*
G01X269667Y893D01*
X266662Y3898D01*
X255832D01*
G03X255549Y3216I0J-400D01*
G01X255607Y3158D01*
X255669Y3147D01*
G02X257327Y1175I-344J-1972D01*
G02X255325Y-827I-2002J0D01*
G02X253353Y831I0J2002D01*
G01X253342Y893D01*
X252262Y1974D01*
X241194D01*
G03X240799Y1507I0J-400D01*
G02X240827Y1175I-1974J-334D01*
G02X238825Y-827I-2002J0D01*
G02X237624Y-426I1J2002D01*
G01X200325D01*
G02X199593Y-250I-2J1602D01*
G03X199014Y-551I-183J-356D01*
G02X195000Y-4052I-4014J551D01*
G02X190948Y0I0J4052D01*
G02X194342Y3998I4052J0D01*
G03X194560Y4676I-65J395D01*
G01X189837Y9398D01*
X136400D01*
G02X135268Y9868I1J1601D01*
G01X130318Y14817D01*
X130256Y14828D01*
G02X128598Y16800I344J1972D01*
G02X130600Y18802I2002J0D01*
G02X132572Y17144I0J-2002D01*
G01X132583Y17082D01*
X137063Y12602D01*
X147068D01*
G03X147351Y13284I0J400D01*
G01X145818Y14817D01*
X145756Y14828D01*
G02X144098Y16800I344J1972D01*
G02X146100Y18802I2002J0D01*
G02X148072Y17144I0J-2002D01*
G01X148083Y17082D01*
X150963Y14202D01*
X161451D01*
G03X161592Y14543I0J200D01*
G01X161318Y14817D01*
X161256Y14828D01*
G02X159598Y16800I344J1972D01*
G02X161600Y18802I2002J0D01*
G02X163572Y17144I0J-2002D01*
G01X163583Y17082D01*
X164863Y15802D01*
X174774D01*
G37*
G36*
G01X319948Y183250D02*
Y189750D01*
G02X320750Y190552I802J0D01*
G01X327250D01*
G02X328052Y189750I0J-802D01*
G01Y183250D01*
G02X327250Y182448I-802J0D01*
G01X320750D01*
G02X319948Y183250I0J802D01*
G37*
G36*
G01X256448Y58750D02*
Y64250D01*
G02X257250Y65052I802J0D01*
G01X262750D01*
G02X263552Y64250I0J-802D01*
G01Y58750D01*
G02X262750Y57948I-802J0D01*
G01X257250D01*
G02X256448Y58750I0J802D01*
G37*
G36*
G01X149198Y32500D02*
Y37500D01*
G02X150000Y38302I802J0D01*
G01X155000D01*
G02X155802Y37500I0J-802D01*
G01Y32500D01*
G02X155000Y31698I-802J0D01*
G01X150000D01*
G02X149198Y32500I0J802D01*
G37*
G36*
G01X140948Y-3250D02*
Y3250D01*
G02X141750Y4052I802J0D01*
G01X148250D01*
G02X149052Y3250I0J-802D01*
G01Y-3250D01*
G02X148250Y-4052I-802J0D01*
G01X141750D01*
G02X140948Y-3250I0J802D01*
G37*
G36*
G01X220448Y186750D02*
Y193250D01*
G02X221250Y194052I802J0D01*
G01X227750D01*
G02X228552Y193250I0J-802D01*
G01Y192452D01*
X297000D01*
G02X297812Y192313I-2J-2451D01*
G02X298733Y191733I-813J-2312D01*
G01X301515Y188952D01*
X310774D01*
G02X314000Y190552I3226J-2452D01*
G02Y182448I0J-4052D01*
G02X310774Y184048I0J4052D01*
G01X300548D01*
X300500D01*
G02X299688Y184187I2J2451D01*
G02X298767Y184767I813J2312D01*
G01X296139Y187394D01*
X295985Y187548D01*
X228552D01*
Y186750D01*
G02X227750Y185948I-802J0D01*
G01X221250D01*
G02X220448Y186750I0J802D01*
G37*
G54D25*
X22913Y2000D03*
X18750Y75000D03*
X23750Y80000D03*
Y90000D03*
X24500Y32500D03*
X21000Y38000D03*
X10832Y8741D03*
X832Y18741D03*
X10832D03*
Y28741D03*
Y38741D03*
Y48741D03*
Y58741D03*
X26500Y38000D03*
X44202Y11202D03*
X36400Y77900D03*
X17671Y15000D03*
X500Y53550D03*
X832Y58741D03*
X288346Y10654D03*
X222499Y56001D03*
X206300Y50500D03*
X257879Y75621D03*
X251379Y75817D03*
G54D31*
X260000Y31579D03*
G54D29*
X349500Y1500D03*
Y174500D03*
G54D26*
X95000Y0D03*
X85000D03*
X155000D03*
X165000D03*
X175000D03*
X185000D03*
X115000D03*
X125000D03*
X155000Y190000D03*
X185000D03*
X195000D03*
X214500D03*
G54D27*
X142500Y45000D03*
X152500Y55000D03*
G54D32*
X291000Y52000D03*
X347500D03*
X291000Y124000D03*
X347500D03*
G54D30*
X218500Y104000D03*
G54D28*
X205000Y130000D03*
Y20000D03*
%LPD*%
G75*
G54D10*
X0Y0D03*
X5000Y190000D03*
X205000Y20000D03*
Y130000D03*
G54D20*
X260000Y61500D03*
G54D11*
X10832Y18741D03*
X832D03*
X10832Y8741D03*
Y-1259D03*
X17671Y15000D03*
X10832Y38741D03*
Y28741D03*
X18760Y64990D03*
X10832Y58741D03*
X832D03*
X10832Y48741D03*
X500Y53550D03*
X18750Y75000D03*
X6250Y93750D03*
Y88750D03*
Y82500D03*
Y77500D03*
X1250D03*
Y82500D03*
Y88750D03*
Y93750D03*
X22913Y2000D03*
X44096Y18500D03*
X44202Y11202D03*
X44500Y2000D03*
X24500Y32500D03*
X21000Y38000D03*
X41500Y33000D03*
X26500Y38000D03*
X43836Y24500D03*
X22500Y64990D03*
X40000Y56500D03*
X41663Y62676D03*
X23750Y80000D03*
Y90000D03*
X43700Y89950D03*
X36400Y77900D03*
X54560Y8050D03*
X68760Y10760D03*
X57050Y44000D03*
X61550Y35950D03*
X72333Y32000D03*
X68760Y25760D03*
X61587Y41587D03*
X90000Y10000D03*
X93000D03*
X96000D03*
X76260Y10760D03*
X78260Y20760D03*
X98739Y20261D03*
X121000Y9500D03*
X125000D03*
X103500Y35000D03*
Y31500D03*
X111500Y22500D03*
X119000Y29000D03*
X115500D03*
X103500Y41500D03*
X125000Y170000D03*
X130600Y16800D03*
X146100D03*
X130500Y20850D03*
X146000Y21000D03*
X145000Y170000D03*
X161600Y16800D03*
X177100D03*
X161500Y21000D03*
X177000D03*
X171740Y48740D03*
X175333Y63079D03*
X178044Y147094D03*
X168044D03*
X178044Y167094D03*
X168044D03*
X158044D03*
X178044Y157094D03*
X168044D03*
X158044D03*
X202385Y59619D03*
X193443Y52500D03*
X184000Y56240D03*
X198044Y147094D03*
X188044D03*
X198044Y177094D03*
X188044D03*
X198044Y167094D03*
X188044D03*
X198044Y157094D03*
X188044D03*
X230767Y17269D03*
Y37269D03*
X220767D03*
X230767Y27269D03*
X220767D03*
X222499Y56001D03*
X206300Y50500D03*
X228044Y147094D03*
X218044D03*
X208044D03*
X228044Y177094D03*
X218044D03*
X208044D03*
X228044Y167094D03*
X218044D03*
X208044D03*
X228044Y157094D03*
X218044D03*
X208044D03*
Y194594D03*
X218044D03*
X231000Y194500D03*
X208044Y184594D03*
X218044D03*
X228044D03*
X250767Y17269D03*
X240767D03*
X255346Y10654D03*
X238846D03*
X238825Y1175D03*
X255325D03*
X250767Y37269D03*
X240767D03*
X250767Y27269D03*
X240767D03*
X234971Y49471D03*
X257879Y75621D03*
X251379Y75817D03*
X249000Y91000D03*
X238044Y177094D03*
Y167094D03*
X249044D03*
X259044D03*
X249044Y177094D03*
X259044D03*
X238044Y194594D03*
Y184594D03*
X249544Y194594D03*
Y184594D03*
X280767Y17269D03*
X270767D03*
X260767D03*
X271846Y10654D03*
X271650Y1175D03*
X280767Y37269D03*
X270767D03*
X260767D03*
X280767Y27269D03*
X270767D03*
X260767D03*
X284250Y70753D03*
X274250D03*
X284250Y90753D03*
X274250D03*
X284250Y80753D03*
X274250D03*
X284250Y100753D03*
X274250D03*
X279044Y167094D03*
X269044D03*
X279044Y177094D03*
X269044D03*
X259544Y194594D03*
Y184594D03*
X279544Y194594D03*
Y184594D03*
X269544Y194594D03*
Y184594D03*
X292418Y18329D03*
Y8329D03*
Y-1671D03*
X305345Y18197D03*
Y8197D03*
Y-1803D03*
X288346Y10654D03*
X288150Y1175D03*
X292418Y28329D03*
X305345Y38197D03*
Y28197D03*
Y68197D03*
Y58197D03*
Y48197D03*
X294250Y70753D03*
X305345Y98197D03*
Y88197D03*
Y78197D03*
X294250Y90753D03*
Y80753D03*
X305345Y118197D03*
Y108197D03*
X294250Y100753D03*
X305345Y148197D03*
Y138197D03*
Y128197D03*
X335345Y18197D03*
X325345D03*
X315345D03*
X335345Y8197D03*
X325345D03*
X315345D03*
X335345Y-1803D03*
X325345D03*
X315345D03*
X335345Y38197D03*
X325345D03*
X315345D03*
X335345Y28197D03*
X325345D03*
X315345D03*
X335345Y68197D03*
X325345D03*
X315345D03*
X335345Y58197D03*
X325345D03*
X315345D03*
X335345Y48197D03*
X325345D03*
X315345D03*
X335345Y98197D03*
X325345D03*
X315345D03*
X335345Y88197D03*
X325345D03*
X315345D03*
X335345Y78197D03*
X325345D03*
X315345D03*
X335345Y118197D03*
X325345D03*
X315345D03*
X335345Y108197D03*
X325345D03*
X315345D03*
X335345Y148197D03*
X325345D03*
X315345D03*
X335345Y138197D03*
X325345D03*
X315345D03*
X335345Y128197D03*
X325345D03*
X315345D03*
G54D21*
X291000Y52000D03*
Y124000D03*
X347500Y52000D03*
Y124000D03*
G54D12*
X5000Y174500D03*
X349500Y1500D03*
Y174500D03*
G54D22*
G01X75000Y0D02*
X69950Y5050D01*
X47550D01*
X44500Y2000D01*
G01X76260Y10760D02*
X74240D01*
X52500Y32500D01*
Y134000D01*
X60000Y141500D01*
X126500D01*
X135000Y150000D01*
Y190000D01*
G01X125000Y170000D02*
Y156500D01*
X115500Y147000D01*
X58000D01*
X47096Y136096D01*
Y32424D01*
X68760Y10760D01*
G01D02*
X71760Y7760D01*
X77503D01*
X82743Y13000D01*
X115000D01*
X131000Y29000D01*
X156760D01*
X184000Y56240D01*
G01X68760Y25760D02*
Y47760D01*
X83500Y62500D01*
X167000D01*
X195500Y91000D01*
X249000D01*
G01X61587Y41587D02*
X65000Y38174D01*
Y25000D01*
X72240Y17760D01*
X96238D01*
X98739Y20261D01*
G01X165000Y174654D02*
X145000D01*
G01D02*
Y170000D01*
G01X125000D02*
Y174654D01*
G01Y181346D02*
Y190000D01*
G01X145000Y181346D02*
Y190000D01*
G01X175000Y174654D02*
X165000D01*
G01Y181346D02*
Y190000D01*
G01X175000Y181346D02*
Y190000D01*
G54D13*
X19000D03*
X55000Y0D03*
X125000Y190000D03*
X145000Y0D03*
X224500Y190000D03*
X324000Y186500D03*
G54D23*
G01X91793Y-3207D02*
X95000Y0D01*
G01D02*
X98207Y3207D01*
G01X91793D02*
X95000Y0D01*
G01D02*
X98207Y-3207D01*
G01X105000Y-4252D02*
Y0D01*
G01D02*
Y4252D01*
G01Y0D02*
X109252D01*
G01X115000D02*
Y4252D01*
G01X110748Y0D02*
X115000D01*
G01D02*
X119252D01*
G01X214500Y185748D02*
Y190000D01*
G01X210248D02*
X214500D01*
G01D02*
X218752D01*
G01X314000Y186500D02*
X300500D01*
X297000Y190000D01*
X224500D01*
G01X256248Y31579D02*
X260000D01*
G01Y27827D02*
Y31579D01*
G01D02*
Y35331D01*
G01Y31579D02*
X263752D01*
G54D14*
X39000Y190000D03*
X29000D03*
X65000Y0D03*
X69000Y190000D03*
X59000D03*
X49000D03*
X95000Y0D03*
X85000D03*
X75000D03*
X99000Y190000D03*
X89000D03*
X79000D03*
X125000Y0D03*
X115000D03*
X105000D03*
X109000Y190000D03*
X145000D03*
X135000D03*
X175000Y0D03*
X165000D03*
X155000D03*
X175000Y190000D03*
X165000D03*
X155000D03*
X195000Y0D03*
X185000D03*
X195000Y190000D03*
X185000D03*
X214500D03*
X314000Y186500D03*
G54D24*
G01X110500Y274750D02*
X109500Y274417D01*
X108750Y273583D01*
X108250Y272583D01*
X107875Y271250D01*
X107750Y269750D01*
X107875Y268250D01*
X108250Y266917D01*
X108750Y265916D01*
X109500Y265083D01*
X110500Y264750D01*
X111500Y265083D01*
X112250Y265916D01*
X112750Y266917D01*
X113125Y268250D01*
X113250Y269750D01*
X113125Y271250D01*
X112750Y272583D01*
X112250Y273583D01*
X111500Y274417D01*
X110500Y274750D01*
G01X120500Y264750D02*
X121375Y264917D01*
X122375Y265417D01*
X123000Y266250D01*
X123250Y267417D01*
X123000Y268583D01*
X122250Y269583D01*
X121125Y270083D01*
X119875D01*
X119125Y270417D01*
X118500Y271250D01*
X118250Y272417D01*
X118625Y273583D01*
X119500Y274417D01*
X120500Y274750D01*
X121500Y274417D01*
X122375Y273583D01*
X122750Y272417D01*
X122500Y271250D01*
X121875Y270417D01*
X121125Y270083D01*
X119875D01*
X118750Y269583D01*
X118000Y268583D01*
X117750Y267417D01*
X118000Y266250D01*
X118625Y265417D01*
X119625Y264917D01*
X120500Y264750D01*
G01X128875Y268083D02*
X132125D01*
G01X198875D02*
X202125D01*
G01X210500Y274750D02*
X209500Y274417D01*
X208750Y273583D01*
X208250Y272583D01*
X207875Y271250D01*
X207750Y269750D01*
X207875Y268250D01*
X208250Y266917D01*
X208750Y265916D01*
X209500Y265083D01*
X210500Y264750D01*
X211500Y265083D01*
X212250Y265916D01*
X212750Y266917D01*
X213125Y268250D01*
X213250Y269750D01*
X213125Y271250D01*
X212750Y272583D01*
X212250Y273583D01*
X211500Y274417D01*
X210500Y274750D01*
G01X218125Y273083D02*
X218875Y274083D01*
X219750Y274583D01*
X220750Y274750D01*
X222000Y274417D01*
X222875Y273583D01*
X223125Y272583D01*
X223000Y271583D01*
X222500Y270750D01*
X220000Y269083D01*
X218875Y267917D01*
X218125Y266250D01*
X217875Y264750D01*
X223125D01*
G01X108000Y294750D02*
Y284750D01*
X113000D01*
G01X122000D02*
Y294750D01*
X117375Y287583D01*
X123625D01*
G01X137875Y286083D02*
X138875Y285250D01*
X140000Y284750D01*
X141000D01*
X142000Y285250D01*
X142750Y286083D01*
X143125Y287250D01*
X142875Y288416D01*
X142250Y289417D01*
X141125Y290083D01*
X139625Y290417D01*
X138750Y291083D01*
X138375Y292250D01*
X138625Y293417D01*
X139250Y294250D01*
X140125Y294750D01*
X141000D01*
X141875Y294417D01*
X142625Y293583D01*
G01X153000Y284750D02*
X148000D01*
Y294750D01*
X153000D01*
G01X151000Y289917D02*
X148000D01*
G01X163250Y293917D02*
X162500Y294417D01*
X161625Y294750D01*
X160625D01*
X159500Y294250D01*
X158625Y293417D01*
X158000Y292417D01*
X157500Y290750D01*
X157375Y289250D01*
X157625Y287750D01*
X158000Y286750D01*
X158750Y285750D01*
X159625Y285083D01*
X160500Y284750D01*
X161375D01*
X162250Y285083D01*
X163000Y285583D01*
X163625Y286250D01*
G01X170500Y284750D02*
X169500Y284917D01*
X168625Y285583D01*
X167875Y286583D01*
X167375Y287750D01*
X167125Y289083D01*
Y290417D01*
X167375Y291750D01*
X167875Y292917D01*
X168625Y293917D01*
X169500Y294583D01*
X170500Y294750D01*
X171500Y294583D01*
X172375Y293917D01*
X173125Y292917D01*
X173625Y291750D01*
X173875Y290417D01*
Y289083D01*
X173625Y287750D01*
X173125Y286583D01*
X172375Y285583D01*
X171500Y284917D01*
X170500Y284750D01*
G01X177625D02*
Y294750D01*
X183375Y284750D01*
Y294750D01*
G01X187750Y284750D02*
Y294750D01*
X190250D01*
X191250Y294250D01*
X192000Y293583D01*
X192625Y292583D01*
X193125Y291416D01*
X193250Y289750D01*
X193125Y288083D01*
X192625Y286917D01*
X192000Y285916D01*
X191250Y285250D01*
X190250Y284750D01*
X187750D01*
G01X197375D02*
X200500Y294750D01*
X203625Y284750D01*
G01X202500Y288250D02*
X198500D01*
G01X208000Y284750D02*
Y294750D01*
X211125D01*
X212125Y294250D01*
X212750Y293583D01*
X213000Y292250D01*
X212750Y290917D01*
X212000Y290083D01*
X211125Y289583D01*
X208000D01*
G01X211125D02*
X213000Y284750D01*
G01X220500D02*
Y289250D01*
X218000Y294750D01*
G01X223000D02*
X220500Y289250D01*
G01X143000Y243750D02*
Y253750D01*
X146125D01*
X147125Y253250D01*
X147750Y252583D01*
X148000Y251250D01*
X147750Y249917D01*
X147000Y249083D01*
X146125Y248583D01*
X143000D01*
G01X146125D02*
X148000Y243750D01*
G01X158000D02*
X153000D01*
Y253750D01*
X158000D01*
G01X156000Y248917D02*
X153000D01*
G01X162375Y253750D02*
X165500Y243750D01*
X168625Y253750D01*
G01X182750Y243750D02*
Y253750D01*
X185250D01*
X186250Y253250D01*
X187000Y252583D01*
X187625Y251583D01*
X188125Y250416D01*
X188250Y248750D01*
X188125Y247083D01*
X187625Y245917D01*
X187000Y244916D01*
X186250Y244250D01*
X185250Y243750D01*
X182750D01*
G01X140500Y273750D02*
X139500Y273417D01*
X138750Y272583D01*
X138250Y271583D01*
X137875Y270250D01*
X137750Y268750D01*
X137875Y267250D01*
X138250Y265917D01*
X138750Y264916D01*
X139500Y264083D01*
X140500Y263750D01*
X141500Y264083D01*
X142250Y264916D01*
X142750Y265917D01*
X143125Y267250D01*
X143250Y268750D01*
X143125Y270250D01*
X142750Y271583D01*
X142250Y272583D01*
X141500Y273417D01*
X140500Y273750D01*
G01X147750Y265250D02*
X148500Y264417D01*
X149375Y263917D01*
X150500Y263750D01*
X151625Y264083D01*
X152500Y264750D01*
X153125Y265917D01*
X153250Y267250D01*
X153000Y268583D01*
X152375Y269417D01*
X151500Y270083D01*
X150625Y270250D01*
X149750Y270083D01*
X148625Y269417D01*
X149000Y273750D01*
X152375D01*
G01X160250Y263750D02*
X160500Y265917D01*
X160875Y267750D01*
X161375Y269417D01*
X162000Y271250D01*
X163000Y273750D01*
X158000D01*
G01X172000Y263750D02*
Y273750D01*
X167375Y266583D01*
X173625D01*
G01X178375Y264916D02*
X179250Y264083D01*
X180250Y263750D01*
X181250Y264083D01*
X182125Y265083D01*
X182750Y266583D01*
X183000Y268083D01*
Y269917D01*
X182750Y271417D01*
X182125Y272750D01*
X181375Y273417D01*
X180500Y273750D01*
X179500Y273417D01*
X178750Y272750D01*
X178250Y271750D01*
X178000Y270416D01*
X178250Y269250D01*
X178875Y268083D01*
X179625Y267416D01*
X180500Y267250D01*
X181500Y267583D01*
X182250Y268417D01*
X183000Y269917D01*
G01X192000Y263750D02*
Y273750D01*
X187375Y266583D01*
X193625D01*
G01X238825Y1175D02*
X200325D01*
X190500Y11000D01*
X136400D01*
X130600Y16800D01*
G01X146100D02*
X150300Y12600D01*
X191163D01*
X191263Y12500D01*
X191473D01*
X200398Y3575D01*
X252925D01*
X255325Y1175D01*
G01X161600Y16800D02*
X164200Y14200D01*
X191826D01*
X191926Y14100D01*
X192136D01*
X200736Y5500D01*
X267325D01*
X271650Y1175D01*
G01X177100Y16800D02*
X191699D01*
X200999Y7500D01*
X281825D01*
X288150Y1175D01*
G54D15*
X125000Y174654D03*
Y181346D03*
X145000Y174654D03*
Y181346D03*
X165000Y174654D03*
X175000D03*
X165000Y181346D03*
X175000D03*
G54D16*
G01X-13000Y-22500D02*
Y12500D01*
G01X-23000Y-12500D02*
X12000D01*
G01X-13000Y212500D02*
Y177500D01*
G01X-23000Y202500D02*
X12000D01*
G01X372500Y-12500D02*
X337500D01*
G01X372500Y202500D02*
X337500D01*
G01X362500Y-22500D02*
Y12500D01*
G01Y212500D02*
Y177500D01*
X142500Y45000D03*
X152500Y55000D03*
G54D17*
Y35000D03*
G54D18*
X218500Y104000D03*
G54D19*
X260000Y31579D03*
M02*
