G04 EAGLE Gerber X2 export*
G04 #@! %TF.Part,Single*
G04 #@! %TF.FileFunction,Legend,Top,1*
G04 #@! %TF.FilePolarity,Positive*
G04 #@! %TF.GenerationSoftware,Autodesk,EAGLE,9.0.0*
G04 #@! %TF.CreationDate,2019-08-08T19:20:39Z*
G75*
%MOMM*%
%FSLAX34Y34*%
%LPD*%
%AMOC8*
5,1,8,0,0,1.08239X$1,22.5*%
G01*
%ADD10C,0.127000*%
%ADD11C,0.152400*%
%ADD12R,2.286000X0.635000*%
%ADD13R,0.609600X0.863600*%
%ADD14R,2.032000X0.508000*%
%ADD15R,0.508000X1.905000*%
%ADD16C,0.050800*%
%ADD17C,0.660400*%
%ADD18R,0.762000X0.660400*%
%ADD19R,0.660400X0.660400*%
%ADD20C,0.203200*%


D10*
X294639Y24251D02*
X295272Y24319D01*
X295902Y24402D01*
X296530Y24501D01*
X297156Y24614D01*
X297778Y24742D01*
X298398Y24884D01*
X299014Y25042D01*
X299626Y25214D01*
X300234Y25401D01*
X300837Y25602D01*
X301435Y25817D01*
X302028Y26047D01*
X302615Y26290D01*
X303196Y26548D01*
X303771Y26819D01*
X304340Y27104D01*
X304901Y27403D01*
X305455Y27715D01*
X306002Y28040D01*
X306540Y28377D01*
X307070Y28728D01*
X307592Y29091D01*
X308105Y29467D01*
X308609Y29854D01*
X294640Y24251D02*
X293991Y24197D01*
X293342Y24159D01*
X292691Y24137D01*
X292040Y24130D01*
X291389Y24139D01*
X290739Y24165D01*
X290089Y24206D01*
X289441Y24263D01*
X288794Y24336D01*
X288149Y24424D01*
X287506Y24529D01*
X286866Y24649D01*
X286230Y24784D01*
X285596Y24935D01*
X284967Y25102D01*
X284342Y25283D01*
X283721Y25480D01*
X283106Y25692D01*
X282496Y25919D01*
X281891Y26161D01*
X281293Y26418D01*
X280701Y26689D01*
X280116Y26974D01*
X279538Y27274D01*
X278968Y27587D01*
X278405Y27915D01*
X277851Y28256D01*
X277305Y28610D01*
X276768Y28978D01*
X276239Y29359D01*
X275721Y29752D01*
X275212Y30158D01*
X274713Y30576D01*
X274225Y31007D01*
X273747Y31449D01*
X273280Y31903D01*
X272825Y32368D01*
X272381Y32844D01*
X271948Y33330D01*
X271528Y33827D01*
X271120Y34334D01*
X270724Y34851D01*
X270341Y35378D01*
X269971Y35914D01*
X269614Y36458D01*
X269271Y37011D01*
X268941Y37572D01*
X268625Y38142D01*
X268323Y38718D01*
X268036Y39302D01*
X267762Y39893D01*
X267503Y40490D01*
X267259Y41094D01*
X267029Y41703D01*
X266815Y42317D01*
X266615Y42937D01*
X266615Y58663D02*
X266814Y59278D01*
X267026Y59889D01*
X267254Y60494D01*
X267496Y61093D01*
X267753Y61686D01*
X268024Y62273D01*
X268309Y62853D01*
X268608Y63426D01*
X268921Y63992D01*
X269248Y64550D01*
X269588Y65100D01*
X269941Y65641D01*
X270307Y66174D01*
X270686Y66697D01*
X271078Y67212D01*
X271481Y67716D01*
X271898Y68211D01*
X272325Y68696D01*
X272765Y69170D01*
X273216Y69633D01*
X273678Y70085D01*
X274151Y70526D01*
X274634Y70955D01*
X275128Y71372D01*
X275631Y71778D01*
X276144Y72171D01*
X276667Y72551D01*
X277199Y72919D01*
X277739Y73273D01*
X278288Y73615D01*
X278845Y73943D01*
X279410Y74257D01*
X279982Y74558D01*
X280561Y74845D01*
X281148Y75117D01*
X281740Y75376D01*
X282339Y75619D01*
X282943Y75849D01*
X283553Y76063D01*
X284168Y76263D01*
X284787Y76448D01*
X285411Y76618D01*
X286039Y76772D01*
X286670Y76911D01*
X287304Y77035D01*
X287942Y77144D01*
X288581Y77237D01*
X289223Y77314D01*
X289866Y77376D01*
X290511Y77423D01*
X291157Y77453D01*
X291803Y77468D01*
X292449Y77468D01*
X293096Y77451D01*
X293741Y77419D01*
X294386Y77372D01*
X295029Y77309D01*
X295671Y77230D01*
X296310Y77136D01*
X296947Y77026D01*
X297582Y76901D01*
X298213Y76760D01*
X298840Y76604D01*
X299463Y76433D01*
X300082Y76247D01*
X300697Y76046D01*
X301306Y75831D01*
X301910Y75600D01*
X302508Y75355D01*
X303100Y75096D01*
X303686Y74822D01*
X304265Y74534D01*
X304836Y74232D01*
X305401Y73917D01*
X305957Y73588D01*
X306505Y73245D01*
X307045Y72889D01*
X307576Y72521D01*
X308098Y72139D01*
X308610Y71745D01*
X308610Y29855D01*
X294640Y28263D02*
X294640Y24251D01*
X294640Y47937D02*
X294640Y53663D01*
X294640Y73337D02*
X294640Y77349D01*
X260985Y18425D02*
X260985Y6985D01*
X260985Y18425D02*
X266705Y18425D01*
X268612Y16518D01*
X268612Y14612D01*
X266705Y12705D01*
X268612Y10798D01*
X268612Y8892D01*
X266705Y6985D01*
X260985Y6985D01*
X260985Y12705D02*
X266705Y12705D01*
X278399Y18425D02*
X280305Y16518D01*
X278399Y18425D02*
X274586Y18425D01*
X272679Y16518D01*
X272679Y8892D01*
X274586Y6985D01*
X278399Y6985D01*
X280305Y8892D01*
X284373Y18425D02*
X291999Y18425D01*
X284373Y18425D02*
X284373Y12705D01*
X288186Y14612D01*
X290093Y14612D01*
X291999Y12705D01*
X291999Y8892D01*
X290093Y6985D01*
X286280Y6985D01*
X284373Y8892D01*
X301787Y6985D02*
X301787Y18425D01*
X296067Y12705D01*
X303693Y12705D01*
X307761Y18425D02*
X315387Y18425D01*
X315387Y16518D01*
X307761Y8892D01*
X307761Y6985D01*
D11*
X355515Y42937D02*
X355713Y42322D01*
X355926Y41711D01*
X356154Y41106D01*
X356396Y40507D01*
X356653Y39914D01*
X356924Y39327D01*
X357209Y38747D01*
X357508Y38174D01*
X357821Y37608D01*
X358148Y37050D01*
X358487Y36501D01*
X358841Y35959D01*
X359207Y35426D01*
X359586Y34903D01*
X359977Y34388D01*
X360381Y33884D01*
X360797Y33389D01*
X361225Y32905D01*
X361665Y32431D01*
X362116Y31967D01*
X362578Y31515D01*
X363050Y31074D01*
X363534Y30645D01*
X364027Y30228D01*
X364531Y29822D01*
X365044Y29429D01*
X365567Y29049D01*
X366098Y28681D01*
X366639Y28327D01*
X367188Y27985D01*
X367745Y27657D01*
X368310Y27343D01*
X368882Y27042D01*
X369461Y26755D01*
X370047Y26483D01*
X370640Y26225D01*
X371238Y25981D01*
X371843Y25751D01*
X372453Y25537D01*
X373067Y25337D01*
X373687Y25152D01*
X374311Y24983D01*
X374938Y24828D01*
X375569Y24689D01*
X376204Y24565D01*
X376841Y24456D01*
X377481Y24363D01*
X378123Y24286D01*
X378766Y24224D01*
X379411Y24177D01*
X380056Y24147D01*
X380703Y24132D01*
X381349Y24132D01*
X381995Y24149D01*
X382641Y24181D01*
X383286Y24228D01*
X383929Y24291D01*
X384570Y24370D01*
X385210Y24464D01*
X385847Y24574D01*
X386481Y24699D01*
X387112Y24840D01*
X387739Y24996D01*
X388363Y25166D01*
X388982Y25352D01*
X389596Y25553D01*
X390206Y25769D01*
X390810Y26000D01*
X391408Y26245D01*
X392000Y26504D01*
X392585Y26778D01*
X393164Y27066D01*
X393736Y27367D01*
X394300Y27683D01*
X394856Y28012D01*
X395405Y28355D01*
X395944Y28710D01*
X396475Y29079D01*
X396997Y29460D01*
X397510Y29854D01*
X397510Y71750D02*
X396998Y72144D01*
X396476Y72526D01*
X395945Y72894D01*
X395405Y73250D01*
X394857Y73593D01*
X394301Y73922D01*
X393736Y74237D01*
X393165Y74539D01*
X392586Y74827D01*
X392000Y75101D01*
X391408Y75360D01*
X390810Y75605D01*
X390206Y75836D01*
X389597Y76051D01*
X388982Y76252D01*
X388363Y76438D01*
X387740Y76609D01*
X387113Y76765D01*
X386482Y76906D01*
X385847Y77031D01*
X385210Y77141D01*
X384571Y77235D01*
X383929Y77314D01*
X383286Y77377D01*
X382641Y77424D01*
X381996Y77456D01*
X381349Y77473D01*
X380703Y77473D01*
X380057Y77458D01*
X379411Y77428D01*
X378766Y77381D01*
X378123Y77319D01*
X377481Y77242D01*
X376842Y77149D01*
X376204Y77040D01*
X375570Y76916D01*
X374939Y76777D01*
X374311Y76623D01*
X373687Y76453D01*
X373068Y76268D01*
X372453Y76068D01*
X371843Y75854D01*
X371239Y75624D01*
X370640Y75381D01*
X370048Y75122D01*
X369461Y74850D01*
X368882Y74563D01*
X368310Y74262D01*
X367745Y73948D01*
X367188Y73620D01*
X366639Y73278D01*
X366099Y72924D01*
X365567Y72556D01*
X365044Y72176D01*
X364531Y71783D01*
X364028Y71377D01*
X363534Y70960D01*
X363051Y70531D01*
X362578Y70090D01*
X362116Y69638D01*
X361665Y69175D01*
X361225Y68701D01*
X360798Y68216D01*
X360381Y67721D01*
X359978Y67217D01*
X359586Y66702D01*
X359207Y66179D01*
X358841Y65646D01*
X358488Y65105D01*
X358148Y64555D01*
X357821Y63997D01*
X357508Y63431D01*
X357209Y62858D01*
X356924Y62278D01*
X356653Y61691D01*
X356396Y61098D01*
X356154Y60499D01*
X355926Y59894D01*
X355714Y59283D01*
X355515Y58668D01*
X397510Y71750D02*
X397510Y29850D01*
X383540Y28260D02*
X383540Y24250D01*
X383540Y47940D02*
X383540Y53660D01*
X383540Y73340D02*
X383540Y77350D01*
D10*
X381625Y83185D02*
X393065Y83185D01*
X381625Y83185D02*
X381625Y88905D01*
X383532Y90812D01*
X385439Y90812D01*
X387345Y88905D01*
X389252Y90812D01*
X391158Y90812D01*
X393065Y88905D01*
X393065Y83185D01*
X387345Y83185D02*
X387345Y88905D01*
X381625Y100599D02*
X383532Y102505D01*
X381625Y100599D02*
X381625Y96786D01*
X383532Y94879D01*
X391158Y94879D01*
X393065Y96786D01*
X393065Y100599D01*
X391158Y102505D01*
X381625Y106573D02*
X381625Y114199D01*
X381625Y106573D02*
X387345Y106573D01*
X385439Y110386D01*
X385439Y112293D01*
X387345Y114199D01*
X391158Y114199D01*
X393065Y112293D01*
X393065Y108480D01*
X391158Y106573D01*
X381625Y118267D02*
X381625Y125893D01*
X381625Y118267D02*
X387345Y118267D01*
X385439Y122080D01*
X385439Y123987D01*
X387345Y125893D01*
X391158Y125893D01*
X393065Y123987D01*
X393065Y120174D01*
X391158Y118267D01*
X381625Y129961D02*
X381625Y137587D01*
X383532Y137587D01*
X391158Y129961D01*
X393065Y129961D01*
D11*
X165100Y62230D02*
X165100Y59690D01*
X153670Y59690D01*
X153670Y53340D01*
X176530Y53340D01*
X176530Y59690D01*
X165100Y59690D01*
X165100Y44450D02*
X165100Y39370D01*
X177800Y83820D02*
X185420Y83820D01*
X181610Y87630D02*
X181610Y80010D01*
X120650Y50800D02*
X120663Y51891D01*
X120704Y52981D01*
X120770Y54070D01*
X120864Y55157D01*
X120984Y56241D01*
X121131Y57322D01*
X121304Y58399D01*
X121504Y59472D01*
X121730Y60539D01*
X121982Y61600D01*
X122260Y62655D01*
X122564Y63703D01*
X122893Y64743D01*
X123248Y65775D01*
X123628Y66797D01*
X124034Y67810D01*
X124463Y68813D01*
X124918Y69805D01*
X125396Y70785D01*
X125899Y71754D01*
X126425Y72709D01*
X126974Y73652D01*
X127546Y74581D01*
X128141Y75495D01*
X128758Y76395D01*
X129397Y77279D01*
X130058Y78147D01*
X130740Y78999D01*
X131442Y79834D01*
X132165Y80651D01*
X132907Y81450D01*
X133669Y82231D01*
X134450Y82993D01*
X135249Y83735D01*
X136066Y84458D01*
X136901Y85160D01*
X137753Y85842D01*
X138621Y86503D01*
X139505Y87142D01*
X140405Y87759D01*
X141319Y88354D01*
X142248Y88926D01*
X143191Y89475D01*
X144146Y90001D01*
X145115Y90504D01*
X146095Y90982D01*
X147087Y91437D01*
X148090Y91866D01*
X149103Y92272D01*
X150125Y92652D01*
X151157Y93007D01*
X152197Y93336D01*
X153245Y93640D01*
X154300Y93918D01*
X155361Y94170D01*
X156428Y94396D01*
X157501Y94596D01*
X158578Y94769D01*
X159659Y94916D01*
X160743Y95036D01*
X161830Y95130D01*
X162919Y95196D01*
X164009Y95237D01*
X165100Y95250D01*
X166191Y95237D01*
X167281Y95196D01*
X168370Y95130D01*
X169457Y95036D01*
X170541Y94916D01*
X171622Y94769D01*
X172699Y94596D01*
X173772Y94396D01*
X174839Y94170D01*
X175900Y93918D01*
X176955Y93640D01*
X178003Y93336D01*
X179043Y93007D01*
X180075Y92652D01*
X181097Y92272D01*
X182110Y91866D01*
X183113Y91437D01*
X184105Y90982D01*
X185085Y90504D01*
X186054Y90001D01*
X187009Y89475D01*
X187952Y88926D01*
X188881Y88354D01*
X189795Y87759D01*
X190695Y87142D01*
X191579Y86503D01*
X192447Y85842D01*
X193299Y85160D01*
X194134Y84458D01*
X194951Y83735D01*
X195750Y82993D01*
X196531Y82231D01*
X197293Y81450D01*
X198035Y80651D01*
X198758Y79834D01*
X199460Y78999D01*
X200142Y78147D01*
X200803Y77279D01*
X201442Y76395D01*
X202059Y75495D01*
X202654Y74581D01*
X203226Y73652D01*
X203775Y72709D01*
X204301Y71754D01*
X204804Y70785D01*
X205282Y69805D01*
X205737Y68813D01*
X206166Y67810D01*
X206572Y66797D01*
X206952Y65775D01*
X207307Y64743D01*
X207636Y63703D01*
X207940Y62655D01*
X208218Y61600D01*
X208470Y60539D01*
X208696Y59472D01*
X208896Y58399D01*
X209069Y57322D01*
X209216Y56241D01*
X209336Y55157D01*
X209430Y54070D01*
X209496Y52981D01*
X209537Y51891D01*
X209550Y50800D01*
X209537Y49709D01*
X209496Y48619D01*
X209430Y47530D01*
X209336Y46443D01*
X209216Y45359D01*
X209069Y44278D01*
X208896Y43201D01*
X208696Y42128D01*
X208470Y41061D01*
X208218Y40000D01*
X207940Y38945D01*
X207636Y37897D01*
X207307Y36857D01*
X206952Y35825D01*
X206572Y34803D01*
X206166Y33790D01*
X205737Y32787D01*
X205282Y31795D01*
X204804Y30815D01*
X204301Y29846D01*
X203775Y28891D01*
X203226Y27948D01*
X202654Y27019D01*
X202059Y26105D01*
X201442Y25205D01*
X200803Y24321D01*
X200142Y23453D01*
X199460Y22601D01*
X198758Y21766D01*
X198035Y20949D01*
X197293Y20150D01*
X196531Y19369D01*
X195750Y18607D01*
X194951Y17865D01*
X194134Y17142D01*
X193299Y16440D01*
X192447Y15758D01*
X191579Y15097D01*
X190695Y14458D01*
X189795Y13841D01*
X188881Y13246D01*
X187952Y12674D01*
X187009Y12125D01*
X186054Y11599D01*
X185085Y11096D01*
X184105Y10618D01*
X183113Y10163D01*
X182110Y9734D01*
X181097Y9328D01*
X180075Y8948D01*
X179043Y8593D01*
X178003Y8264D01*
X176955Y7960D01*
X175900Y7682D01*
X174839Y7430D01*
X173772Y7204D01*
X172699Y7004D01*
X171622Y6831D01*
X170541Y6684D01*
X169457Y6564D01*
X168370Y6470D01*
X167281Y6404D01*
X166191Y6363D01*
X165100Y6350D01*
X164009Y6363D01*
X162919Y6404D01*
X161830Y6470D01*
X160743Y6564D01*
X159659Y6684D01*
X158578Y6831D01*
X157501Y7004D01*
X156428Y7204D01*
X155361Y7430D01*
X154300Y7682D01*
X153245Y7960D01*
X152197Y8264D01*
X151157Y8593D01*
X150125Y8948D01*
X149103Y9328D01*
X148090Y9734D01*
X147087Y10163D01*
X146095Y10618D01*
X145115Y11096D01*
X144146Y11599D01*
X143191Y12125D01*
X142248Y12674D01*
X141319Y13246D01*
X140405Y13841D01*
X139505Y14458D01*
X138621Y15097D01*
X137753Y15758D01*
X136901Y16440D01*
X136066Y17142D01*
X135249Y17865D01*
X134450Y18607D01*
X133669Y19369D01*
X132907Y20150D01*
X132165Y20949D01*
X131442Y21766D01*
X130740Y22601D01*
X130058Y23453D01*
X129397Y24321D01*
X128758Y25205D01*
X128141Y26105D01*
X127546Y27019D01*
X126974Y27948D01*
X126425Y28891D01*
X125899Y29846D01*
X125396Y30815D01*
X124918Y31795D01*
X124463Y32787D01*
X124034Y33790D01*
X123628Y34803D01*
X123248Y35825D01*
X122893Y36857D01*
X122564Y37897D01*
X122260Y38945D01*
X121982Y40000D01*
X121730Y41061D01*
X121504Y42128D01*
X121304Y43201D01*
X121131Y44278D01*
X120984Y45359D01*
X120864Y46443D01*
X120770Y47530D01*
X120704Y48619D01*
X120663Y49709D01*
X120650Y50800D01*
D10*
X135499Y47219D02*
X146939Y47219D01*
X141219Y41499D02*
X135499Y47219D01*
X141219Y49126D02*
X141219Y41499D01*
X135499Y53193D02*
X135499Y60820D01*
X137406Y60820D01*
X145032Y53193D01*
X146939Y53193D01*
X145032Y64887D02*
X139313Y64887D01*
X145032Y64887D02*
X146939Y66794D01*
X146939Y72513D01*
X139313Y72513D01*
D12*
X165100Y45085D03*
D11*
X243840Y142240D02*
X243838Y142340D01*
X243832Y142439D01*
X243822Y142539D01*
X243809Y142637D01*
X243791Y142736D01*
X243770Y142833D01*
X243745Y142929D01*
X243716Y143025D01*
X243683Y143119D01*
X243647Y143212D01*
X243607Y143303D01*
X243563Y143393D01*
X243516Y143481D01*
X243466Y143567D01*
X243412Y143651D01*
X243355Y143733D01*
X243295Y143812D01*
X243231Y143890D01*
X243165Y143964D01*
X243096Y144036D01*
X243024Y144105D01*
X242950Y144171D01*
X242872Y144235D01*
X242793Y144295D01*
X242711Y144352D01*
X242627Y144406D01*
X242541Y144456D01*
X242453Y144503D01*
X242363Y144547D01*
X242272Y144587D01*
X242179Y144623D01*
X242085Y144656D01*
X241989Y144685D01*
X241893Y144710D01*
X241796Y144731D01*
X241697Y144749D01*
X241599Y144762D01*
X241499Y144772D01*
X241400Y144778D01*
X241300Y144780D01*
X215900Y144780D02*
X215800Y144778D01*
X215701Y144772D01*
X215601Y144762D01*
X215503Y144749D01*
X215404Y144731D01*
X215307Y144710D01*
X215211Y144685D01*
X215115Y144656D01*
X215021Y144623D01*
X214928Y144587D01*
X214837Y144547D01*
X214747Y144503D01*
X214659Y144456D01*
X214573Y144406D01*
X214489Y144352D01*
X214407Y144295D01*
X214328Y144235D01*
X214250Y144171D01*
X214176Y144105D01*
X214104Y144036D01*
X214035Y143964D01*
X213969Y143890D01*
X213905Y143812D01*
X213845Y143733D01*
X213788Y143651D01*
X213734Y143567D01*
X213684Y143481D01*
X213637Y143393D01*
X213593Y143303D01*
X213553Y143212D01*
X213517Y143119D01*
X213484Y143025D01*
X213455Y142929D01*
X213430Y142833D01*
X213409Y142736D01*
X213391Y142637D01*
X213378Y142539D01*
X213368Y142439D01*
X213362Y142340D01*
X213360Y142240D01*
X213360Y60960D02*
X213362Y60860D01*
X213368Y60761D01*
X213378Y60661D01*
X213391Y60563D01*
X213409Y60464D01*
X213430Y60367D01*
X213455Y60271D01*
X213484Y60175D01*
X213517Y60081D01*
X213553Y59988D01*
X213593Y59897D01*
X213637Y59807D01*
X213684Y59719D01*
X213734Y59633D01*
X213788Y59549D01*
X213845Y59467D01*
X213905Y59388D01*
X213969Y59310D01*
X214035Y59236D01*
X214104Y59164D01*
X214176Y59095D01*
X214250Y59029D01*
X214328Y58965D01*
X214407Y58905D01*
X214489Y58848D01*
X214573Y58794D01*
X214659Y58744D01*
X214747Y58697D01*
X214837Y58653D01*
X214928Y58613D01*
X215021Y58577D01*
X215115Y58544D01*
X215211Y58515D01*
X215307Y58490D01*
X215404Y58469D01*
X215503Y58451D01*
X215601Y58438D01*
X215701Y58428D01*
X215800Y58422D01*
X215900Y58420D01*
X241300Y58420D02*
X241400Y58422D01*
X241499Y58428D01*
X241599Y58438D01*
X241697Y58451D01*
X241796Y58469D01*
X241893Y58490D01*
X241989Y58515D01*
X242085Y58544D01*
X242179Y58577D01*
X242272Y58613D01*
X242363Y58653D01*
X242453Y58697D01*
X242541Y58744D01*
X242627Y58794D01*
X242711Y58848D01*
X242793Y58905D01*
X242872Y58965D01*
X242950Y59029D01*
X243024Y59095D01*
X243096Y59164D01*
X243165Y59236D01*
X243231Y59310D01*
X243295Y59388D01*
X243355Y59467D01*
X243412Y59549D01*
X243466Y59633D01*
X243516Y59719D01*
X243563Y59807D01*
X243607Y59897D01*
X243647Y59988D01*
X243683Y60081D01*
X243716Y60175D01*
X243745Y60271D01*
X243770Y60367D01*
X243791Y60464D01*
X243809Y60563D01*
X243822Y60661D01*
X243832Y60761D01*
X243838Y60860D01*
X243840Y60960D01*
X241300Y144780D02*
X215900Y144780D01*
X243840Y142240D02*
X243840Y135890D01*
X242570Y134620D01*
X213360Y135890D02*
X213360Y142240D01*
X213360Y135890D02*
X214630Y134620D01*
X242570Y68580D02*
X243840Y67310D01*
X242570Y68580D02*
X242570Y134620D01*
X214630Y68580D02*
X213360Y67310D01*
X214630Y68580D02*
X214630Y134620D01*
X243840Y67310D02*
X243840Y60960D01*
X213360Y60960D02*
X213360Y67310D01*
X215900Y58420D02*
X241300Y58420D01*
D10*
X226181Y89158D02*
X222367Y92971D01*
X233807Y92971D01*
X233807Y89158D02*
X233807Y96785D01*
X231900Y100852D02*
X224274Y100852D01*
X222367Y102759D01*
X222367Y106572D01*
X224274Y108479D01*
X231900Y108479D01*
X233807Y106572D01*
X233807Y102759D01*
X231900Y100852D01*
X224274Y108479D01*
X224274Y112546D02*
X231900Y112546D01*
X224274Y112546D02*
X222367Y114453D01*
X222367Y118266D01*
X224274Y120172D01*
X231900Y120172D01*
X233807Y118266D01*
X233807Y114453D01*
X231900Y112546D01*
X224274Y120172D01*
X222367Y124240D02*
X233807Y124240D01*
X229994Y124240D02*
X233807Y129960D01*
X229994Y124240D02*
X226181Y129960D01*
D13*
X228600Y54102D03*
X228600Y149098D03*
D11*
X314960Y60960D02*
X314962Y60860D01*
X314968Y60761D01*
X314978Y60661D01*
X314991Y60563D01*
X315009Y60464D01*
X315030Y60367D01*
X315055Y60271D01*
X315084Y60175D01*
X315117Y60081D01*
X315153Y59988D01*
X315193Y59897D01*
X315237Y59807D01*
X315284Y59719D01*
X315334Y59633D01*
X315388Y59549D01*
X315445Y59467D01*
X315505Y59388D01*
X315569Y59310D01*
X315635Y59236D01*
X315704Y59164D01*
X315776Y59095D01*
X315850Y59029D01*
X315928Y58965D01*
X316007Y58905D01*
X316089Y58848D01*
X316173Y58794D01*
X316259Y58744D01*
X316347Y58697D01*
X316437Y58653D01*
X316528Y58613D01*
X316621Y58577D01*
X316715Y58544D01*
X316811Y58515D01*
X316907Y58490D01*
X317004Y58469D01*
X317103Y58451D01*
X317201Y58438D01*
X317301Y58428D01*
X317400Y58422D01*
X317500Y58420D01*
X342900Y58420D02*
X343000Y58422D01*
X343099Y58428D01*
X343199Y58438D01*
X343297Y58451D01*
X343396Y58469D01*
X343493Y58490D01*
X343589Y58515D01*
X343685Y58544D01*
X343779Y58577D01*
X343872Y58613D01*
X343963Y58653D01*
X344053Y58697D01*
X344141Y58744D01*
X344227Y58794D01*
X344311Y58848D01*
X344393Y58905D01*
X344472Y58965D01*
X344550Y59029D01*
X344624Y59095D01*
X344696Y59164D01*
X344765Y59236D01*
X344831Y59310D01*
X344895Y59388D01*
X344955Y59467D01*
X345012Y59549D01*
X345066Y59633D01*
X345116Y59719D01*
X345163Y59807D01*
X345207Y59897D01*
X345247Y59988D01*
X345283Y60081D01*
X345316Y60175D01*
X345345Y60271D01*
X345370Y60367D01*
X345391Y60464D01*
X345409Y60563D01*
X345422Y60661D01*
X345432Y60761D01*
X345438Y60860D01*
X345440Y60960D01*
X345440Y142240D02*
X345438Y142340D01*
X345432Y142439D01*
X345422Y142539D01*
X345409Y142637D01*
X345391Y142736D01*
X345370Y142833D01*
X345345Y142929D01*
X345316Y143025D01*
X345283Y143119D01*
X345247Y143212D01*
X345207Y143303D01*
X345163Y143393D01*
X345116Y143481D01*
X345066Y143567D01*
X345012Y143651D01*
X344955Y143733D01*
X344895Y143812D01*
X344831Y143890D01*
X344765Y143964D01*
X344696Y144036D01*
X344624Y144105D01*
X344550Y144171D01*
X344472Y144235D01*
X344393Y144295D01*
X344311Y144352D01*
X344227Y144406D01*
X344141Y144456D01*
X344053Y144503D01*
X343963Y144547D01*
X343872Y144587D01*
X343779Y144623D01*
X343685Y144656D01*
X343589Y144685D01*
X343493Y144710D01*
X343396Y144731D01*
X343297Y144749D01*
X343199Y144762D01*
X343099Y144772D01*
X343000Y144778D01*
X342900Y144780D01*
X317500Y144780D02*
X317400Y144778D01*
X317301Y144772D01*
X317201Y144762D01*
X317103Y144749D01*
X317004Y144731D01*
X316907Y144710D01*
X316811Y144685D01*
X316715Y144656D01*
X316621Y144623D01*
X316528Y144587D01*
X316437Y144547D01*
X316347Y144503D01*
X316259Y144456D01*
X316173Y144406D01*
X316089Y144352D01*
X316007Y144295D01*
X315928Y144235D01*
X315850Y144171D01*
X315776Y144105D01*
X315704Y144036D01*
X315635Y143964D01*
X315569Y143890D01*
X315505Y143812D01*
X315445Y143733D01*
X315388Y143651D01*
X315334Y143567D01*
X315284Y143481D01*
X315237Y143393D01*
X315193Y143303D01*
X315153Y143212D01*
X315117Y143119D01*
X315084Y143025D01*
X315055Y142929D01*
X315030Y142833D01*
X315009Y142736D01*
X314991Y142637D01*
X314978Y142539D01*
X314968Y142439D01*
X314962Y142340D01*
X314960Y142240D01*
X317500Y58420D02*
X342900Y58420D01*
X314960Y60960D02*
X314960Y67310D01*
X316230Y68580D01*
X345440Y67310D02*
X345440Y60960D01*
X345440Y67310D02*
X344170Y68580D01*
X316230Y134620D02*
X314960Y135890D01*
X316230Y134620D02*
X316230Y68580D01*
X344170Y134620D02*
X345440Y135890D01*
X344170Y134620D02*
X344170Y68580D01*
X314960Y135890D02*
X314960Y142240D01*
X345440Y142240D02*
X345440Y135890D01*
X342900Y144780D02*
X317500Y144780D01*
D10*
X324983Y74298D02*
X328797Y70485D01*
X324983Y74298D02*
X336423Y74298D01*
X336423Y70485D02*
X336423Y78112D01*
X334516Y82179D02*
X326890Y82179D01*
X324983Y84086D01*
X324983Y87899D01*
X326890Y89805D01*
X334516Y89805D01*
X336423Y87899D01*
X336423Y84086D01*
X334516Y82179D01*
X326890Y89805D01*
X324983Y93873D02*
X336423Y93873D01*
X332610Y93873D02*
X336423Y99593D01*
X332610Y93873D02*
X328797Y99593D01*
D13*
X330200Y149098D03*
X330200Y54102D03*
D11*
X457200Y101600D02*
X457200Y107950D01*
X463550Y91440D02*
X450850Y91440D01*
X457200Y101600D01*
X457200Y86360D01*
X463550Y91440D02*
X457200Y101600D01*
X450850Y101600D01*
X463550Y101600D02*
X463550Y99060D01*
X463550Y101600D02*
X457200Y101600D01*
X467360Y81280D02*
X467358Y81180D01*
X467352Y81081D01*
X467342Y80981D01*
X467329Y80883D01*
X467311Y80784D01*
X467290Y80687D01*
X467265Y80591D01*
X467236Y80495D01*
X467203Y80401D01*
X467167Y80308D01*
X467127Y80217D01*
X467083Y80127D01*
X467036Y80039D01*
X466986Y79953D01*
X466932Y79869D01*
X466875Y79787D01*
X466815Y79708D01*
X466751Y79630D01*
X466685Y79556D01*
X466616Y79484D01*
X466544Y79415D01*
X466470Y79349D01*
X466392Y79285D01*
X466313Y79225D01*
X466231Y79168D01*
X466147Y79114D01*
X466061Y79064D01*
X465973Y79017D01*
X465883Y78973D01*
X465792Y78933D01*
X465699Y78897D01*
X465605Y78864D01*
X465509Y78835D01*
X465413Y78810D01*
X465316Y78789D01*
X465217Y78771D01*
X465119Y78758D01*
X465019Y78748D01*
X464920Y78742D01*
X464820Y78740D01*
X467360Y121920D02*
X467358Y122020D01*
X467352Y122119D01*
X467342Y122219D01*
X467329Y122317D01*
X467311Y122416D01*
X467290Y122513D01*
X467265Y122609D01*
X467236Y122705D01*
X467203Y122799D01*
X467167Y122892D01*
X467127Y122983D01*
X467083Y123073D01*
X467036Y123161D01*
X466986Y123247D01*
X466932Y123331D01*
X466875Y123413D01*
X466815Y123492D01*
X466751Y123570D01*
X466685Y123644D01*
X466616Y123716D01*
X466544Y123785D01*
X466470Y123851D01*
X466392Y123915D01*
X466313Y123975D01*
X466231Y124032D01*
X466147Y124086D01*
X466061Y124136D01*
X465973Y124183D01*
X465883Y124227D01*
X465792Y124267D01*
X465699Y124303D01*
X465605Y124336D01*
X465509Y124365D01*
X465413Y124390D01*
X465316Y124411D01*
X465217Y124429D01*
X465119Y124442D01*
X465019Y124452D01*
X464920Y124458D01*
X464820Y124460D01*
X449580Y124460D02*
X449480Y124458D01*
X449381Y124452D01*
X449281Y124442D01*
X449183Y124429D01*
X449084Y124411D01*
X448987Y124390D01*
X448891Y124365D01*
X448795Y124336D01*
X448701Y124303D01*
X448608Y124267D01*
X448517Y124227D01*
X448427Y124183D01*
X448339Y124136D01*
X448253Y124086D01*
X448169Y124032D01*
X448087Y123975D01*
X448008Y123915D01*
X447930Y123851D01*
X447856Y123785D01*
X447784Y123716D01*
X447715Y123644D01*
X447649Y123570D01*
X447585Y123492D01*
X447525Y123413D01*
X447468Y123331D01*
X447414Y123247D01*
X447364Y123161D01*
X447317Y123073D01*
X447273Y122983D01*
X447233Y122892D01*
X447197Y122799D01*
X447164Y122705D01*
X447135Y122609D01*
X447110Y122513D01*
X447089Y122416D01*
X447071Y122317D01*
X447058Y122219D01*
X447048Y122119D01*
X447042Y122020D01*
X447040Y121920D01*
X447040Y81280D02*
X447042Y81180D01*
X447048Y81081D01*
X447058Y80981D01*
X447071Y80883D01*
X447089Y80784D01*
X447110Y80687D01*
X447135Y80591D01*
X447164Y80495D01*
X447197Y80401D01*
X447233Y80308D01*
X447273Y80217D01*
X447317Y80127D01*
X447364Y80039D01*
X447414Y79953D01*
X447468Y79869D01*
X447525Y79787D01*
X447585Y79708D01*
X447649Y79630D01*
X447715Y79556D01*
X447784Y79484D01*
X447856Y79415D01*
X447930Y79349D01*
X448008Y79285D01*
X448087Y79225D01*
X448169Y79168D01*
X448253Y79114D01*
X448339Y79064D01*
X448427Y79017D01*
X448517Y78973D01*
X448608Y78933D01*
X448701Y78897D01*
X448795Y78864D01*
X448891Y78835D01*
X448987Y78810D01*
X449084Y78789D01*
X449183Y78771D01*
X449281Y78758D01*
X449381Y78748D01*
X449480Y78742D01*
X449580Y78740D01*
X464820Y78740D01*
X464820Y124460D02*
X449580Y124460D01*
X467360Y121920D02*
X467360Y81280D01*
X447040Y81280D02*
X447040Y121920D01*
D14*
X457200Y118110D03*
D15*
X457200Y69215D03*
X457200Y133985D03*
D10*
X470525Y117256D02*
X470525Y109629D01*
X470525Y117256D02*
X472432Y117256D01*
X480058Y109629D01*
X481965Y109629D01*
X481965Y117256D01*
X481965Y121323D02*
X470525Y121323D01*
X470525Y127043D01*
X472432Y128950D01*
X476245Y128950D01*
X478152Y127043D01*
X478152Y121323D01*
X481965Y133017D02*
X470525Y133017D01*
X481965Y133017D02*
X481965Y138737D01*
X480058Y140643D01*
X472432Y140643D01*
X470525Y138737D01*
X470525Y133017D01*
X472432Y144711D02*
X470525Y146618D01*
X470525Y150431D01*
X472432Y152337D01*
X474339Y152337D01*
X476245Y150431D01*
X476245Y148524D01*
X476245Y150431D02*
X478152Y152337D01*
X480058Y152337D01*
X481965Y150431D01*
X481965Y146618D01*
X480058Y144711D01*
X485778Y156405D02*
X481965Y160218D01*
X480058Y160218D01*
X480058Y158312D01*
X481965Y158312D01*
X481965Y160218D01*
X472432Y164201D02*
X470525Y166108D01*
X470525Y169921D01*
X472432Y171827D01*
X474339Y171827D01*
X476245Y169921D01*
X476245Y168014D01*
X476245Y169921D02*
X478152Y171827D01*
X480058Y171827D01*
X481965Y169921D01*
X481965Y166108D01*
X480058Y164201D01*
D11*
X403860Y60960D02*
X403862Y60860D01*
X403868Y60761D01*
X403878Y60661D01*
X403891Y60563D01*
X403909Y60464D01*
X403930Y60367D01*
X403955Y60271D01*
X403984Y60175D01*
X404017Y60081D01*
X404053Y59988D01*
X404093Y59897D01*
X404137Y59807D01*
X404184Y59719D01*
X404234Y59633D01*
X404288Y59549D01*
X404345Y59467D01*
X404405Y59388D01*
X404469Y59310D01*
X404535Y59236D01*
X404604Y59164D01*
X404676Y59095D01*
X404750Y59029D01*
X404828Y58965D01*
X404907Y58905D01*
X404989Y58848D01*
X405073Y58794D01*
X405159Y58744D01*
X405247Y58697D01*
X405337Y58653D01*
X405428Y58613D01*
X405521Y58577D01*
X405615Y58544D01*
X405711Y58515D01*
X405807Y58490D01*
X405904Y58469D01*
X406003Y58451D01*
X406101Y58438D01*
X406201Y58428D01*
X406300Y58422D01*
X406400Y58420D01*
X431800Y58420D02*
X431900Y58422D01*
X431999Y58428D01*
X432099Y58438D01*
X432197Y58451D01*
X432296Y58469D01*
X432393Y58490D01*
X432489Y58515D01*
X432585Y58544D01*
X432679Y58577D01*
X432772Y58613D01*
X432863Y58653D01*
X432953Y58697D01*
X433041Y58744D01*
X433127Y58794D01*
X433211Y58848D01*
X433293Y58905D01*
X433372Y58965D01*
X433450Y59029D01*
X433524Y59095D01*
X433596Y59164D01*
X433665Y59236D01*
X433731Y59310D01*
X433795Y59388D01*
X433855Y59467D01*
X433912Y59549D01*
X433966Y59633D01*
X434016Y59719D01*
X434063Y59807D01*
X434107Y59897D01*
X434147Y59988D01*
X434183Y60081D01*
X434216Y60175D01*
X434245Y60271D01*
X434270Y60367D01*
X434291Y60464D01*
X434309Y60563D01*
X434322Y60661D01*
X434332Y60761D01*
X434338Y60860D01*
X434340Y60960D01*
X434340Y142240D02*
X434338Y142340D01*
X434332Y142439D01*
X434322Y142539D01*
X434309Y142637D01*
X434291Y142736D01*
X434270Y142833D01*
X434245Y142929D01*
X434216Y143025D01*
X434183Y143119D01*
X434147Y143212D01*
X434107Y143303D01*
X434063Y143393D01*
X434016Y143481D01*
X433966Y143567D01*
X433912Y143651D01*
X433855Y143733D01*
X433795Y143812D01*
X433731Y143890D01*
X433665Y143964D01*
X433596Y144036D01*
X433524Y144105D01*
X433450Y144171D01*
X433372Y144235D01*
X433293Y144295D01*
X433211Y144352D01*
X433127Y144406D01*
X433041Y144456D01*
X432953Y144503D01*
X432863Y144547D01*
X432772Y144587D01*
X432679Y144623D01*
X432585Y144656D01*
X432489Y144685D01*
X432393Y144710D01*
X432296Y144731D01*
X432197Y144749D01*
X432099Y144762D01*
X431999Y144772D01*
X431900Y144778D01*
X431800Y144780D01*
X406400Y144780D02*
X406300Y144778D01*
X406201Y144772D01*
X406101Y144762D01*
X406003Y144749D01*
X405904Y144731D01*
X405807Y144710D01*
X405711Y144685D01*
X405615Y144656D01*
X405521Y144623D01*
X405428Y144587D01*
X405337Y144547D01*
X405247Y144503D01*
X405159Y144456D01*
X405073Y144406D01*
X404989Y144352D01*
X404907Y144295D01*
X404828Y144235D01*
X404750Y144171D01*
X404676Y144105D01*
X404604Y144036D01*
X404535Y143964D01*
X404469Y143890D01*
X404405Y143812D01*
X404345Y143733D01*
X404288Y143651D01*
X404234Y143567D01*
X404184Y143481D01*
X404137Y143393D01*
X404093Y143303D01*
X404053Y143212D01*
X404017Y143119D01*
X403984Y143025D01*
X403955Y142929D01*
X403930Y142833D01*
X403909Y142736D01*
X403891Y142637D01*
X403878Y142539D01*
X403868Y142439D01*
X403862Y142340D01*
X403860Y142240D01*
X406400Y58420D02*
X431800Y58420D01*
X403860Y60960D02*
X403860Y67310D01*
X405130Y68580D01*
X434340Y67310D02*
X434340Y60960D01*
X434340Y67310D02*
X433070Y68580D01*
X405130Y134620D02*
X403860Y135890D01*
X405130Y134620D02*
X405130Y68580D01*
X433070Y134620D02*
X434340Y135890D01*
X433070Y134620D02*
X433070Y68580D01*
X403860Y135890D02*
X403860Y142240D01*
X434340Y142240D02*
X434340Y135890D01*
X431800Y144780D02*
X406400Y144780D01*
D10*
X413883Y74298D02*
X417697Y70485D01*
X413883Y74298D02*
X425323Y74298D01*
X425323Y70485D02*
X425323Y78112D01*
X423416Y82179D02*
X415790Y82179D01*
X413883Y84086D01*
X413883Y87899D01*
X415790Y89805D01*
X423416Y89805D01*
X425323Y87899D01*
X425323Y84086D01*
X423416Y82179D01*
X415790Y89805D01*
X413883Y93873D02*
X425323Y93873D01*
X421510Y93873D02*
X425323Y99593D01*
X421510Y93873D02*
X417697Y99593D01*
D13*
X419100Y149098D03*
X419100Y54102D03*
D10*
X524510Y67950D02*
X524510Y109850D01*
X496641Y113030D02*
X496057Y112747D01*
X495481Y112449D01*
X494912Y112138D01*
X494351Y111813D01*
X493798Y111474D01*
X493253Y111122D01*
X492717Y110757D01*
X492190Y110379D01*
X491673Y109988D01*
X491165Y109585D01*
X490667Y109169D01*
X490179Y108742D01*
X489702Y108303D01*
X489235Y107852D01*
X488780Y107390D01*
X488336Y106917D01*
X487904Y106434D01*
X487483Y105940D01*
X487075Y105436D01*
X486679Y104922D01*
X486296Y104399D01*
X485925Y103867D01*
X485568Y103325D01*
X485224Y102776D01*
X484893Y102218D01*
X484576Y101652D01*
X484273Y101079D01*
X483984Y100498D01*
X483709Y99911D01*
X483448Y99317D01*
X483202Y98717D01*
X482971Y98111D01*
X482754Y97499D01*
X482553Y96883D01*
X482366Y96262D01*
X482195Y95636D01*
X482039Y95007D01*
X481898Y94374D01*
X481772Y93737D01*
X481663Y93098D01*
X481568Y92457D01*
X481490Y91813D01*
X481427Y91167D01*
X481379Y90520D01*
X481348Y89873D01*
X481332Y89224D01*
X481332Y88576D01*
X481348Y87927D01*
X481379Y87280D01*
X481427Y86633D01*
X481490Y85987D01*
X481568Y85343D01*
X481663Y84702D01*
X481772Y84063D01*
X481898Y83426D01*
X482039Y82793D01*
X482195Y82164D01*
X482366Y81538D01*
X482553Y80917D01*
X482754Y80301D01*
X482971Y79689D01*
X483202Y79083D01*
X483448Y78483D01*
X483709Y77889D01*
X483984Y77302D01*
X484273Y76721D01*
X484576Y76148D01*
X484893Y75582D01*
X485224Y75024D01*
X485568Y74475D01*
X485925Y73933D01*
X486296Y73401D01*
X486679Y72878D01*
X487075Y72364D01*
X487483Y71860D01*
X487904Y71366D01*
X488336Y70883D01*
X488780Y70410D01*
X489235Y69948D01*
X489702Y69497D01*
X490179Y69058D01*
X490667Y68631D01*
X491165Y68215D01*
X491673Y67812D01*
X492190Y67421D01*
X492717Y67043D01*
X493253Y66678D01*
X493798Y66326D01*
X494351Y65987D01*
X494912Y65662D01*
X495481Y65351D01*
X496057Y65053D01*
X496641Y64770D01*
X519359Y64765D02*
X519905Y65030D01*
X520445Y65307D01*
X520978Y65596D01*
X521505Y65898D01*
X522025Y66211D01*
X522538Y66536D01*
X523043Y66873D01*
X523540Y67221D01*
X524029Y67580D01*
X524510Y67950D01*
X509270Y74860D02*
X509270Y77540D01*
X509270Y100260D02*
X509270Y102940D01*
X519118Y113147D02*
X519691Y112876D01*
X520257Y112591D01*
X520816Y112294D01*
X521368Y111983D01*
X521912Y111658D01*
X522448Y111322D01*
X522977Y110972D01*
X523497Y110610D01*
X524008Y110236D01*
X524510Y109850D01*
X528945Y64135D02*
X538478Y64135D01*
X540385Y66042D01*
X540385Y69855D01*
X538478Y71762D01*
X528945Y71762D01*
X528945Y75829D02*
X540385Y75829D01*
X532759Y79642D02*
X528945Y75829D01*
X532759Y79642D02*
X528945Y83455D01*
X540385Y83455D01*
X534665Y87523D02*
X534665Y95149D01*
X530852Y103030D02*
X528945Y106843D01*
X530852Y103030D02*
X534665Y99217D01*
X538478Y99217D01*
X540385Y101124D01*
X540385Y104937D01*
X538478Y106843D01*
X536572Y106843D01*
X534665Y104937D01*
X534665Y99217D01*
X530852Y114724D02*
X528945Y118537D01*
X530852Y114724D02*
X534665Y110911D01*
X538478Y110911D01*
X540385Y112818D01*
X540385Y116631D01*
X538478Y118537D01*
X536572Y118537D01*
X534665Y116631D01*
X534665Y110911D01*
X540385Y126418D02*
X528945Y126418D01*
X528945Y122605D02*
X528945Y130231D01*
D11*
X78740Y0D02*
X73660Y0D01*
X0Y0D01*
X0Y21590D01*
X0Y25400D01*
X0Y29210D01*
X0Y46990D01*
X0Y50800D01*
X0Y54610D01*
X0Y72390D01*
X0Y76200D01*
X0Y80010D01*
X0Y97790D01*
X0Y101600D01*
X0Y105410D01*
X0Y123190D01*
X0Y127000D02*
X73660Y127000D01*
X73660Y21590D02*
X73660Y0D01*
X73660Y21590D02*
X73660Y25400D01*
X73660Y29210D01*
X73660Y46990D01*
X73660Y50800D01*
X73660Y54610D01*
X73660Y72390D01*
X73660Y76200D01*
X73660Y80010D01*
X73660Y97790D01*
X73660Y101600D01*
X73660Y105410D01*
X73660Y123190D01*
X73660Y127000D01*
X73660Y101600D02*
X0Y101600D01*
X0Y76200D02*
X73660Y76200D01*
X73660Y50800D02*
X0Y50800D01*
X0Y25400D02*
X73660Y25400D01*
D16*
X73660Y21590D02*
X0Y21590D01*
X0Y29210D02*
X73660Y29210D01*
X73660Y46990D02*
X0Y46990D01*
X0Y54610D02*
X73660Y54610D01*
X73660Y72390D02*
X0Y72390D01*
X0Y80010D02*
X73660Y80010D01*
X73660Y97790D02*
X0Y97790D01*
X0Y105410D02*
X73660Y105410D01*
D11*
X73660Y123190D02*
X0Y123190D01*
X0Y127000D01*
X0Y130810D01*
D16*
X73660Y130810D01*
D11*
X78740Y203200D02*
X78740Y0D01*
X0Y130810D02*
X0Y148590D01*
X0Y152400D02*
X73660Y152400D01*
X73660Y130810D02*
X73660Y127000D01*
X73660Y130810D02*
X73660Y148590D01*
X73660Y152400D01*
D16*
X73660Y148590D02*
X0Y148590D01*
D11*
X0Y152400D01*
X0Y156210D01*
X0Y173990D01*
X0Y177800D01*
X73660Y177800D01*
D16*
X73660Y156210D02*
X0Y156210D01*
D11*
X73660Y156210D02*
X73660Y152400D01*
X73660Y156210D02*
X73660Y173990D01*
X73660Y177800D01*
X0Y177800D02*
X0Y181610D01*
X0Y203200D01*
X73660Y203200D01*
X78740Y203200D01*
X73660Y181610D02*
X73660Y177800D01*
X73660Y181610D02*
X73660Y203200D01*
D16*
X73660Y181610D02*
X0Y181610D01*
X0Y173990D02*
X73660Y173990D01*
D10*
X59062Y159385D02*
X51435Y159385D01*
X59062Y167012D01*
X59062Y168918D01*
X57155Y170825D01*
X53342Y170825D01*
X51435Y168918D01*
X53342Y18425D02*
X51435Y16518D01*
X53342Y18425D02*
X57155Y18425D01*
X59062Y16518D01*
X59062Y14612D01*
X57155Y12705D01*
X59062Y10798D01*
X59062Y8892D01*
X57155Y6985D01*
X53342Y6985D01*
X51435Y8892D01*
X51435Y10798D01*
X53342Y12705D01*
X51435Y14612D01*
X51435Y16518D01*
X53342Y12705D02*
X57155Y12705D01*
X51435Y143518D02*
X53342Y145425D01*
X57155Y145425D01*
X59062Y143518D01*
X59062Y141612D01*
X57155Y139705D01*
X55248Y139705D01*
X57155Y139705D02*
X59062Y137798D01*
X59062Y135892D01*
X57155Y133985D01*
X53342Y133985D01*
X51435Y135892D01*
X57155Y120025D02*
X57155Y108585D01*
X51435Y114305D02*
X57155Y120025D01*
X59062Y114305D02*
X51435Y114305D01*
X51435Y94625D02*
X59062Y94625D01*
X51435Y94625D02*
X51435Y88905D01*
X55248Y90812D01*
X57155Y90812D01*
X59062Y88905D01*
X59062Y85092D01*
X57155Y83185D01*
X53342Y83185D01*
X51435Y85092D01*
X59062Y69225D02*
X55248Y67318D01*
X51435Y63505D01*
X51435Y59692D01*
X53342Y57785D01*
X57155Y57785D01*
X59062Y59692D01*
X59062Y61598D01*
X57155Y63505D01*
X51435Y63505D01*
X51435Y43825D02*
X59062Y43825D01*
X59062Y41918D01*
X51435Y34292D01*
X51435Y32385D01*
X51435Y192412D02*
X55248Y196225D01*
X55248Y184785D01*
X51435Y184785D02*
X59062Y184785D01*
D11*
X599440Y0D02*
X627380Y0D01*
X599440Y0D02*
X599440Y25400D01*
X627380Y25400D02*
X627380Y0D01*
X627380Y50800D02*
X599440Y50800D01*
X627380Y50800D02*
X627380Y76200D01*
X627380Y25400D02*
X599440Y25400D01*
X599440Y50800D01*
X627380Y50800D02*
X627380Y25400D01*
D17*
X635000Y63500D02*
X681990Y63500D01*
X681990Y38100D02*
X635000Y38100D01*
X635000Y12700D02*
X681990Y12700D01*
D11*
X599440Y50800D02*
X599440Y76200D01*
X599440Y101600D01*
X627380Y101600D01*
X599440Y101600D02*
X599440Y127000D01*
X627380Y127000D01*
X627380Y101600D01*
X627380Y76200D02*
X599440Y76200D01*
X627380Y76200D02*
X627380Y101600D01*
X599440Y127000D02*
X599440Y152400D01*
X627380Y152400D02*
X627380Y127000D01*
X627380Y177800D02*
X599440Y177800D01*
X599440Y203200D01*
X627380Y203200D01*
X627380Y177800D01*
X627380Y152400D02*
X599440Y152400D01*
X599440Y177800D01*
X627380Y177800D02*
X627380Y152400D01*
D17*
X635000Y190500D02*
X681990Y190500D01*
X681990Y165100D02*
X635000Y165100D01*
X635000Y139700D02*
X681990Y139700D01*
X681990Y114300D02*
X635000Y114300D01*
X635000Y88900D02*
X681990Y88900D01*
D10*
X605155Y192412D02*
X608968Y196225D01*
X608968Y184785D01*
X605155Y184785D02*
X612782Y184785D01*
X612782Y159385D02*
X605155Y159385D01*
X612782Y167012D01*
X612782Y168918D01*
X610875Y170825D01*
X607062Y170825D01*
X605155Y168918D01*
X607062Y145425D02*
X605155Y143518D01*
X607062Y145425D02*
X610875Y145425D01*
X612782Y143518D01*
X612782Y141612D01*
X610875Y139705D01*
X608968Y139705D01*
X610875Y139705D02*
X612782Y137798D01*
X612782Y135892D01*
X610875Y133985D01*
X607062Y133985D01*
X605155Y135892D01*
X610875Y120025D02*
X610875Y108585D01*
X605155Y114305D02*
X610875Y120025D01*
X612782Y114305D02*
X605155Y114305D01*
X605155Y94625D02*
X612782Y94625D01*
X605155Y94625D02*
X605155Y88905D01*
X608968Y90812D01*
X610875Y90812D01*
X612782Y88905D01*
X612782Y85092D01*
X610875Y83185D01*
X607062Y83185D01*
X605155Y85092D01*
X612782Y69225D02*
X608968Y67318D01*
X605155Y63505D01*
X605155Y59692D01*
X607062Y57785D01*
X610875Y57785D01*
X612782Y59692D01*
X612782Y61598D01*
X610875Y63505D01*
X605155Y63505D01*
X605155Y43825D02*
X612782Y43825D01*
X612782Y41918D01*
X605155Y34292D01*
X605155Y32385D01*
X607062Y18425D02*
X605155Y16518D01*
X607062Y18425D02*
X610875Y18425D01*
X612782Y16518D01*
X612782Y14612D01*
X610875Y12705D01*
X612782Y10798D01*
X612782Y8892D01*
X610875Y6985D01*
X607062Y6985D01*
X605155Y8892D01*
X605155Y10798D01*
X607062Y12705D01*
X605155Y14612D01*
X605155Y16518D01*
X607062Y12705D02*
X610875Y12705D01*
D18*
X631190Y63500D03*
X631190Y38100D03*
X631190Y12700D03*
X631190Y190500D03*
X631190Y165100D03*
X631190Y139700D03*
X631190Y114300D03*
X631190Y88900D03*
D19*
X596138Y12700D03*
X596138Y38100D03*
X596138Y63500D03*
X596138Y88900D03*
X596138Y114300D03*
X596138Y139700D03*
X596138Y165100D03*
X596138Y190500D03*
D20*
X309880Y148590D02*
X309880Y105410D01*
X248920Y105410D02*
X248920Y148590D01*
X269240Y96520D02*
X289380Y96520D01*
X289680Y157480D02*
X269240Y157480D01*
X261620Y127000D02*
X261625Y127436D01*
X261641Y127872D01*
X261668Y128308D01*
X261706Y128743D01*
X261754Y129176D01*
X261812Y129609D01*
X261882Y130040D01*
X261962Y130469D01*
X262052Y130896D01*
X262153Y131320D01*
X262264Y131742D01*
X262386Y132161D01*
X262517Y132577D01*
X262659Y132990D01*
X262811Y133399D01*
X262973Y133804D01*
X263145Y134205D01*
X263327Y134602D01*
X263518Y134994D01*
X263719Y135381D01*
X263930Y135764D01*
X264150Y136141D01*
X264379Y136512D01*
X264616Y136878D01*
X264863Y137238D01*
X265119Y137592D01*
X265383Y137939D01*
X265656Y138280D01*
X265937Y138613D01*
X266226Y138940D01*
X266523Y139260D01*
X266828Y139572D01*
X267140Y139877D01*
X267460Y140174D01*
X267787Y140463D01*
X268120Y140744D01*
X268461Y141017D01*
X268808Y141281D01*
X269162Y141537D01*
X269522Y141784D01*
X269888Y142021D01*
X270259Y142250D01*
X270636Y142470D01*
X271019Y142681D01*
X271406Y142882D01*
X271798Y143073D01*
X272195Y143255D01*
X272596Y143427D01*
X273001Y143589D01*
X273410Y143741D01*
X273823Y143883D01*
X274239Y144014D01*
X274658Y144136D01*
X275080Y144247D01*
X275504Y144348D01*
X275931Y144438D01*
X276360Y144518D01*
X276791Y144588D01*
X277224Y144646D01*
X277657Y144694D01*
X278092Y144732D01*
X278528Y144759D01*
X278964Y144775D01*
X279400Y144780D01*
X279836Y144775D01*
X280272Y144759D01*
X280708Y144732D01*
X281143Y144694D01*
X281576Y144646D01*
X282009Y144588D01*
X282440Y144518D01*
X282869Y144438D01*
X283296Y144348D01*
X283720Y144247D01*
X284142Y144136D01*
X284561Y144014D01*
X284977Y143883D01*
X285390Y143741D01*
X285799Y143589D01*
X286204Y143427D01*
X286605Y143255D01*
X287002Y143073D01*
X287394Y142882D01*
X287781Y142681D01*
X288164Y142470D01*
X288541Y142250D01*
X288912Y142021D01*
X289278Y141784D01*
X289638Y141537D01*
X289992Y141281D01*
X290339Y141017D01*
X290680Y140744D01*
X291013Y140463D01*
X291340Y140174D01*
X291660Y139877D01*
X291972Y139572D01*
X292277Y139260D01*
X292574Y138940D01*
X292863Y138613D01*
X293144Y138280D01*
X293417Y137939D01*
X293681Y137592D01*
X293937Y137238D01*
X294184Y136878D01*
X294421Y136512D01*
X294650Y136141D01*
X294870Y135764D01*
X295081Y135381D01*
X295282Y134994D01*
X295473Y134602D01*
X295655Y134205D01*
X295827Y133804D01*
X295989Y133399D01*
X296141Y132990D01*
X296283Y132577D01*
X296414Y132161D01*
X296536Y131742D01*
X296647Y131320D01*
X296748Y130896D01*
X296838Y130469D01*
X296918Y130040D01*
X296988Y129609D01*
X297046Y129176D01*
X297094Y128743D01*
X297132Y128308D01*
X297159Y127872D01*
X297175Y127436D01*
X297180Y127000D01*
X297175Y126564D01*
X297159Y126128D01*
X297132Y125692D01*
X297094Y125257D01*
X297046Y124824D01*
X296988Y124391D01*
X296918Y123960D01*
X296838Y123531D01*
X296748Y123104D01*
X296647Y122680D01*
X296536Y122258D01*
X296414Y121839D01*
X296283Y121423D01*
X296141Y121010D01*
X295989Y120601D01*
X295827Y120196D01*
X295655Y119795D01*
X295473Y119398D01*
X295282Y119006D01*
X295081Y118619D01*
X294870Y118236D01*
X294650Y117859D01*
X294421Y117488D01*
X294184Y117122D01*
X293937Y116762D01*
X293681Y116408D01*
X293417Y116061D01*
X293144Y115720D01*
X292863Y115387D01*
X292574Y115060D01*
X292277Y114740D01*
X291972Y114428D01*
X291660Y114123D01*
X291340Y113826D01*
X291013Y113537D01*
X290680Y113256D01*
X290339Y112983D01*
X289992Y112719D01*
X289638Y112463D01*
X289278Y112216D01*
X288912Y111979D01*
X288541Y111750D01*
X288164Y111530D01*
X287781Y111319D01*
X287394Y111118D01*
X287002Y110927D01*
X286605Y110745D01*
X286204Y110573D01*
X285799Y110411D01*
X285390Y110259D01*
X284977Y110117D01*
X284561Y109986D01*
X284142Y109864D01*
X283720Y109753D01*
X283296Y109652D01*
X282869Y109562D01*
X282440Y109482D01*
X282009Y109412D01*
X281576Y109354D01*
X281143Y109306D01*
X280708Y109268D01*
X280272Y109241D01*
X279836Y109225D01*
X279400Y109220D01*
X278964Y109225D01*
X278528Y109241D01*
X278092Y109268D01*
X277657Y109306D01*
X277224Y109354D01*
X276791Y109412D01*
X276360Y109482D01*
X275931Y109562D01*
X275504Y109652D01*
X275080Y109753D01*
X274658Y109864D01*
X274239Y109986D01*
X273823Y110117D01*
X273410Y110259D01*
X273001Y110411D01*
X272596Y110573D01*
X272195Y110745D01*
X271798Y110927D01*
X271406Y111118D01*
X271019Y111319D01*
X270636Y111530D01*
X270259Y111750D01*
X269888Y111979D01*
X269522Y112216D01*
X269162Y112463D01*
X268808Y112719D01*
X268461Y112983D01*
X268120Y113256D01*
X267787Y113537D01*
X267460Y113826D01*
X267140Y114123D01*
X266828Y114428D01*
X266523Y114740D01*
X266226Y115060D01*
X265937Y115387D01*
X265656Y115720D01*
X265383Y116061D01*
X265119Y116408D01*
X264863Y116762D01*
X264616Y117122D01*
X264379Y117488D01*
X264150Y117859D01*
X263930Y118236D01*
X263719Y118619D01*
X263518Y119006D01*
X263327Y119398D01*
X263145Y119795D01*
X262973Y120196D01*
X262811Y120601D01*
X262659Y121010D01*
X262517Y121423D01*
X262386Y121839D01*
X262264Y122258D01*
X262153Y122680D01*
X262052Y123104D01*
X261962Y123531D01*
X261882Y123960D01*
X261812Y124391D01*
X261754Y124824D01*
X261706Y125257D01*
X261668Y125692D01*
X261641Y126128D01*
X261625Y126564D01*
X261620Y127000D01*
M02*
