G04 EAGLE Gerber X2 export*
G04 #@! %TF.Part,Single*
G04 #@! %TF.FileFunction,Soldermask,Bot,1*
G04 #@! %TF.FilePolarity,Negative*
G04 #@! %TF.GenerationSoftware,Autodesk,EAGLE,9.0.0*
G04 #@! %TF.CreationDate,2019-08-08T19:20:38Z*
G75*
%MOMM*%
%FSLAX34Y34*%
%LPD*%
%AMOC8*
5,1,8,0,0,1.08239X$1,22.5*%
G01*
%ADD10P,2.034460X8X112.500000*%
%ADD11C,2.743200*%
%ADD12P,2.969212X8X292.500000*%
%ADD13P,2.034460X8X292.500000*%
%ADD14C,1.879600*%
%ADD15C,2.082800*%
%ADD16C,2.082800*%


D10*
X292100Y63500D03*
X273050Y50800D03*
X292100Y38100D03*
X381000Y63500D03*
X361950Y50800D03*
X381000Y38100D03*
D11*
X165100Y76200D03*
D12*
X165100Y25400D03*
D13*
X228600Y165100D03*
X228600Y38100D03*
D10*
X330200Y38100D03*
X330200Y165100D03*
D14*
X457200Y160782D02*
X457200Y144018D01*
X457200Y59182D02*
X457200Y42418D01*
D10*
X419100Y38100D03*
X419100Y165100D03*
D14*
X499618Y88900D02*
X516382Y88900D01*
X516382Y114300D02*
X499618Y114300D01*
X499618Y63500D02*
X516382Y63500D01*
X97282Y190500D02*
X80518Y190500D01*
X80518Y165100D02*
X97282Y165100D01*
X97282Y139700D02*
X80518Y139700D01*
X80518Y114300D02*
X97282Y114300D01*
X97282Y88900D02*
X80518Y88900D01*
X80518Y63500D02*
X97282Y63500D01*
X97282Y38100D02*
X80518Y38100D01*
X80518Y12700D02*
X97282Y12700D01*
D15*
X574802Y12700D02*
X593598Y12700D01*
X593598Y38100D02*
X574802Y38100D01*
X574802Y63500D02*
X593598Y63500D01*
X593598Y88900D02*
X574802Y88900D01*
X574802Y114300D02*
X593598Y114300D01*
X593598Y139700D02*
X574802Y139700D01*
X574802Y165100D02*
X593598Y165100D01*
X593598Y190500D02*
X574802Y190500D01*
D16*
X302006Y159512D03*
X302006Y94488D03*
X256794Y159512D03*
X256794Y94488D03*
M02*
