*
*
G04 PADS 9.2 Build Number: 406656 generated Gerber (RS-274-X) file*
G04 PC Version=2.1*
*
%IN "2.4GHzAmp.pcb"*%
*
%MOIN*%
*
%FSLAX35Y35*%
*
*
*
*
G04 PC Standard Apertures*
*
*
G04 Thermal Relief Aperture macro.*
%AMTER*
1,1,$1,0,0*
1,0,$1-$2,0,0*
21,0,$3,$4,0,0,45*
21,0,$3,$4,0,0,135*
%
*
*
G04 Annular Aperture macro.*
%AMANN*
1,1,$1,0,0*
1,0,$2,0,0*
%
*
*
G04 Odd Aperture macro.*
%AMODD*
1,1,$1,0,0*
1,0,$1-0.005,0,0*
%
*
*
G04 PC Custom Aperture Macros*
*
*
*
*
*
*
G04 PC Aperture Table*
*
%ADD010C,0.001*%
%ADD013C,0.00787*%
%ADD015C,0.01*%
%ADD053C,0.00787*%
%ADD056C,0.00492*%
*
*
*
*
G04 PC Circuitry*
G04 Layer Name 2.4GHzAmp.pcb - circuitry*
%LPD*%
*
*
G04 PC Custom Flashes*
G04 Layer Name 2.4GHzAmp.pcb - flashes*
%LPD*%
*
*
G04 PC Circuitry*
G04 Layer Name 2.4GHzAmp.pcb - circuitry*
%LPD*%
*
G54D10*
G54D13*
G01X236472Y207382D02*
X240434D01*
Y208022*
X241566*
Y207382*
X245528*
Y217618*
X236472*
Y207382*
G54D15*
X229295Y206594D02*
G75*
G03X229295I-500J0D01*
G01X252800Y194800D02*
X246800D01*
G54D53*
X185539Y297504D02*
Y300535D01*
Y291981D02*
Y295013D01*
Y286445D02*
Y289476D01*
X185461Y311496D02*
Y308465D01*
X170461Y300496D02*
Y297465D01*
Y289496D02*
Y286465D01*
X170539Y314004D02*
Y317035D01*
Y308504D02*
Y311535D01*
X170461Y322496D02*
Y319465D01*
Y305996D02*
Y302965D01*
X185573Y306047D02*
Y303016D01*
X170539Y292004D02*
Y295035D01*
X185461Y322496D02*
Y319465D01*
Y316996D02*
Y313965D01*
X235161Y203296D02*
Y200265D01*
X262039Y209704D02*
Y212735D01*
G54D56*
X239124Y209744D02*
G03X239124I-880J0D01*
G74*
G01X0Y0D02*
M02*
