%
T1C.015F095S3
X01095Y01056
X01095Y0127
X01309Y01056
X01309Y0127
X01523Y01056
X01737Y01056
X01737Y0127
X01844Y01163
X01951Y01056
X01951Y0127
X02165Y01056
X02379Y01056
X02379Y0127
X02486Y01163
X02593Y01056
X02807Y01056
X02914Y01163
X03021Y01056
X03235Y01056
X03235Y0127
X03342Y01163
X03449Y01056
X03449Y0127
X03663Y01056
X03556Y01377
X03435Y0153
X03342Y01377
X03128Y01377
X03105Y0153
X03021Y01484
X02914Y01377
X02775Y01534
X027Y01377
X02486Y01377
X02444Y01534
X02379Y01484
X02235Y0154
X02235Y0149
X02235Y01445
X02085Y01545
X02085Y01445
X02085Y01495
X01951Y01484
X01844Y01377
X01737Y01484
X0158Y01495
X0158Y01545
X0158Y01445
X0143Y01445
X0143Y01495
X0143Y01545
X01309Y01484
X01202Y01377
X01095Y01484
X01202Y01805
X01309Y01698
X0143Y01595
X0143Y01745
X0143Y01695
X0143Y01645
X0143Y01795
X0158Y01695
X0158Y01645
X0158Y01795
X0158Y01745
X0158Y01595
X0163Y01805
X0163Y01591
X01737Y01698
X01844Y01591
X01844Y01805
X01951Y01698
X02085Y01595
X02085Y01745
X02085Y01695
X02085Y01645
X02085Y01795
X02235Y0159
X02235Y0179
X02235Y0174
X02235Y0169
X02235Y0164
X02379Y01698
X0267Y0158
X02807Y01698
X03021Y01698
X03235Y01698
X03449Y01698
X03556Y01805
X0366Y0158
X03425Y01995
X03385Y01995
X0324Y01975
X0324Y02015
X0324Y02055
X032Y02055
X03195Y0188
X03195Y0193
X03195Y0183
X02976Y0189
X02807Y01912
X02555Y02015
X02545Y0182
X025Y0194
X025Y0182
X02368Y01978
X02235Y0199
X02235Y0194
X02235Y0189
X02235Y0184
X02235Y0204
X02085Y01995
X02085Y01945
X02085Y02045
X02085Y01895
X02085Y01845
X01951Y01912
X01844Y02019
X01737Y01912
X0163Y02019
X0158Y02045
X0158Y01895
X0158Y01845
X0158Y01945
X0158Y01995
X0143Y02045
X0143Y01995
X0143Y01895
X0143Y01945
X0143Y01845
X01309Y01912
X01202Y02019
X012Y02225
X01255Y02175
X01255Y02275
X01309Y02126
X01315Y0217
X0143Y02245
X0143Y02195
X0143Y02145
X0143Y02095
X0158Y02145
X0158Y02245
X0158Y02095
X0158Y02195
X01695Y0218
X01755Y02275
X01755Y02175
X0181Y02225
X0193Y02302
X02085Y02245
X02085Y02195
X02085Y02095
X02085Y02295
X02235Y0229
X02235Y0224
X02235Y0219
X02235Y0209
X02373Y02138
X0242Y02137
X02486Y02233
X0257Y0206
X0267Y0224
X02705Y0211
X0287Y02244
X0294Y021
X0294Y0206
X0298Y0206
X0298Y021
X03046Y0217
X03185Y0217
X0335Y0219
X0336Y02255
X03385Y0217
X03395Y02225
X03449Y02126
X03475Y0221
X03449Y02554
X0334Y0241
X03265Y0245
X03205Y02485
X03165Y02485
X0308Y0235
X03021Y02554
X0298Y0235
X02872Y02514
X0267Y0246
X02486Y02447
X02379Y0234
X02235Y0239
X02235Y0244
X02235Y0234
X0221Y02545
X02085Y02345
X02045Y02375
X02005Y02525
X01995Y02375
X01955Y02525
X01945Y02375
X01905Y02525
X01895Y02375
X01855Y02525
X01845Y02375
X01805Y02525
X01795Y02375
X01755Y02525
X01745Y02375
X01655Y02525
X01645Y02375
X01605Y02525
X01595Y02375
X01555Y02525
X01405Y02475
X01405Y02425
X01405Y02525
X01405Y02375
X01309Y0234
X01309Y02554
X01202Y02447
X01202Y02661
X01309Y02768
X01405Y02675
X01405Y02775
X01405Y02625
X01405Y02575
X01405Y02725
X01555Y0279
X01555Y0274
X01555Y0269
X01555Y0264
X01555Y0259
X0165Y0259
X0165Y02665
X0165Y02745
X0173Y0259
X0173Y02745
X0173Y02665
X0181Y02745
X0189Y02665
X0189Y0259
X01911Y02752
X0197Y0259
X02055Y02725
X02055Y02775
X02055Y02625
X02055Y02675
X0221Y02645
X0221Y02695
X0221Y02595
X0221Y02745
X0221Y02795
X02272Y02661
X02385Y0276
X02385Y02651
X02593Y02768
X027Y02661
X02807Y02768
X03021Y02768
X031Y02565
X03128Y02661
X03449Y02768
X03128Y02875
X0291Y0304
X02807Y02982
X027Y02875
X025Y02872
X0246Y02955
X02415Y0291
X02372Y03034
X02265Y02975
X0221Y02845
X02179Y03006
X021772Y030492
X021358Y030059
X021358Y030492
X020925Y030059
X020925Y030492
X02055Y02875
X02055Y02825
X020512Y030059
X020512Y030492
X0196Y03035
X0194Y02935
X0194Y0299
X0194Y0288
X0178Y02845
X01705Y02845
X0163Y0299
X0163Y02935
X01555Y0284
X01555Y0304
X01555Y0299
X01555Y0289
X01555Y0294
X01405Y02875
X01405Y02925
X01405Y03025
X01405Y02975
X01405Y02825
X01309Y02982
X01202Y02875
X01202Y03089
X01202Y03303
X01309Y03196
X01405Y03125
X01405Y03075
X01405Y03175
X01405Y03225
X01405Y03275
X01555Y0319
X01555Y0314
X01555Y0309
X01555Y0324
X01555Y0329
X01625Y0326
X0163Y031
X01705Y0326
X0178Y03105
X0178Y0315
X01785Y0326
X01865Y0326
X01945Y0326
X01965Y03165
X01965Y03125
X01965Y03085
X02005Y03205
X020512Y030925
X020512Y031339
X020925Y030925
X020925Y031339
X021358Y030925
X021358Y031339
X021772Y031339
X021772Y030925
X0221Y0327
X0227Y03076
X0227Y03116
X02272Y03303
X0243Y0328
X02593Y03196
X027Y03089
X027Y03303
X02807Y03196
X0287Y03245
X03342Y03303
X03556Y03303
X03021Y0341
X02807Y0341
X027Y03517
X02593Y0341
X0257Y03345
X02395Y03415
X02245Y03545
X02245Y03495
X0221Y0347
X0221Y0332
X0221Y0337
X0221Y0342
X0206Y0332
X0206Y0337
X0206Y0342
X0206Y0347
X0206Y0352
X01945Y035
X01945Y0342
X01945Y0334
X01865Y0342
X01865Y0334
X01785Y0334
X01705Y0334
X01705Y0342
X01625Y0334
X01625Y0342
X01625Y035
X01555Y0349
X01555Y0344
X01555Y0339
X01555Y0334
X01555Y0354
X01405Y03375
X01405Y03475
X01405Y03325
X01405Y03425
X01405Y03525
X01309Y0341
X01202Y03517
X01202Y03731
X01309Y03624
X01405Y03575
X01405Y03625
X0141Y0369
X0142Y0374
X01435Y0379
X01555Y0359
X01555Y03655
X0156Y03705
X01577Y03754
X01605Y03795
X01625Y0366
X01625Y0358
X01705Y0358
X01705Y0374
X01705Y0366
X01785Y0374
X01785Y0366
X01865Y0374
X01865Y0366
X01865Y0358
X01945Y0358
X01945Y0374
X01945Y0366
X0206Y0357
X0206Y0362
X0206Y03735
X0206Y03685
X0206Y03785
X0221Y0357
X0221Y03665
X0221Y03805
X0221Y03755
X0221Y0362
X0221Y0371
X02272Y03731
X0234Y0373
X0234Y03625
X02593Y03624
X027Y03731
X02941Y03565
X03449Y03838
X03235Y03838
X03021Y03838
X02807Y03838
X02807Y04052
X027Y03945
X02593Y03838
X0234Y0394
X0234Y03835
X0234Y04045
X022Y03855
X0218Y03905
X0216Y0395
X0213Y03985
X0209Y04025
X0205Y03835
X02045Y04055
X02025Y0388
X01985Y0392
X01945Y0382
X0194Y03945
X01865Y0382
X01865Y03945
X01815Y0394
X01785Y0382
X01765Y03925
X01715Y03905
X01675Y03875
X0166Y0404
X01635Y03835
X01615Y04015
X01575Y03985
X01535Y03955
X01523Y04052
X01505Y0392
X0148Y03885
X01455Y03839
X01416Y03945
X01309Y04052
X01309Y03838
X01202Y03945
X01202Y04159
X01309Y04266
X01416Y04159
X0157Y04285
X01625Y04235
X0163Y04159
X01705Y04065
X01755Y0408
X0181Y0409
X01835Y0426
X01835Y0421
X01985Y0421
X01985Y0426
X01995Y0408
X02195Y04235
X0225Y04285
X02379Y04266
X02486Y04159
X0267Y0422
X0291Y0408
X03663Y0448
X03449Y0448
X03235Y0448
X03Y0433
X03Y0455
X02807Y0448
X02593Y0448
X02379Y0448
X02195Y04335
X02165Y0448
X02134Y04327
X01985Y0451
X01985Y0446
X01985Y0431
X01985Y0436
X01985Y0441
X01835Y0431
X01835Y0451
X01835Y0436
X01835Y0446
X01835Y0441
X01737Y0448
X01625Y04335
X01523Y0448
X01309Y0448
X01095Y0448
X01095Y04694
X01202Y04801
X01202Y04587
X01309Y04694
X01416Y04587
X01416Y04801
X0163Y04587
X01835Y0461
X01835Y0456
X01985Y0461
X01985Y0456
X02058Y04587
X02058Y04801
X02165Y04694
X02272Y04587
X02272Y04801
X02379Y04694
X02486Y04587
X0256Y0477
X027Y04587
X0278Y0477
X0289Y0466
X03Y0477
X03342Y04801
X03342Y04587
X03449Y04694
X03556Y04801
X03556Y04587
X03663Y04694
X03449Y04908
X0322Y0499
X03Y0499
X0289Y0488
X0278Y0499
X0267Y0488
X0256Y0499
X02379Y04908
X02165Y04908
X019Y0499
X01737Y04908
X0157Y0488
X0146Y0499
X01309Y04908
T2C.018F095S3
X02385Y02815
X0316Y0293
X0316Y03455
X02855Y03065
X02814Y03726
X02463Y03127
X0236Y0308
X0199Y03245
X01686Y04327
X02812Y0424
X0316Y0397
T3C.0315F197S55
X02545Y0117
X026237Y0117
X027025Y0117
X027812Y0117
X0305Y0117
X031287Y0117
T4C.037F197S55
X02495Y02335
X03035Y0185
X035Y02445
X0353Y0276
X0326Y0276
X02905Y0276
X0265Y0276
T5C.04331F139S55
X02635Y032967
X02635Y04281
T6C.065F089S55
X01505Y0127
X0216Y0127
X0191Y0478
T7C.07F081S55
X01405Y0117
X01405Y0137
X01605Y0117
X01605Y0137
X0206Y0137
X0206Y0117
X0226Y0117
X0226Y0137
X0201Y0468
X0181Y0468
X0181Y0488
X0201Y0488
T8C.071F081S55
X03165Y046735
X03165Y0489
T9C.116F069S658
X0115Y0115
X0362Y0115
X0362Y049
X01785Y035
X0115Y049
M30
