*
*
G04 PADS 9.2 Build Number: 406656 generated Gerber (RS-274-X) file*
G04 PC Version=2.1*
*
%IN "2.4GHzAmp.pcb"*%
*
%MOIN*%
*
%FSLAX35Y35*%
*
*
*
*
G04 PC Standard Apertures*
*
*
G04 Thermal Relief Aperture macro.*
%AMTER*
1,1,$1,0,0*
1,0,$1-$2,0,0*
21,0,$3,$4,0,0,45*
21,0,$3,$4,0,0,135*
%
*
*
G04 Annular Aperture macro.*
%AMANN*
1,1,$1,0,0*
1,0,$2,0,0*
%
*
*
G04 Odd Aperture macro.*
%AMODD*
1,1,$1,0,0*
1,0,$1-0.005,0,0*
%
*
*
G04 PC Custom Aperture Macros*
*
*
*
*
*
*
G04 PC Aperture Table*
*
%ADD010C,0.001*%
%ADD014C,0.06*%
%ADD015C,0.01*%
%ADD018C,0.095*%
%ADD019C,0.1*%
%ADD024C,0.05906*%
%ADD027C,0.15*%
%ADD032C,0.03*%
%ADD033C,0.02*%
%ADD043C,0.07087*%
%ADD047R,0.02165X0.02165*%
*
*
*
*
G04 PC Circuitry*
G04 Layer Name 2.4GHzAmp.pcb - circuitry*
%LPD*%
*
*
G04 PC Custom Flashes*
G04 Layer Name 2.4GHzAmp.pcb - flashes*
%LPD*%
*
*
G04 PC Circuitry*
G04 Layer Name 2.4GHzAmp.pcb - circuitry*
%LPD*%
*
G54D10*
G54D14*
G01X249500Y233500D03*
X353000Y276000D03*
X265000D03*
G54D15*
X343500Y153000D02*
Y164000D01*
X319500Y188000*
X237300Y213800D02*
X231000Y220100D01*
Y313450*
X230982Y313468*
Y392918*
X206100Y417800*
X176800*
X168600Y426000*
Y432700*
X257000Y206000D02*
Y268000D01*
X265000Y276000*
X308000Y235000D02*
X307600D01*
X291200Y251400*
X287200*
X304600Y217000D02*
X297200Y224400D01*
X287000*
X338500Y217000D02*
X336662Y215162D01*
X328979*
X327141Y217000*
X318500*
X347500Y221000D02*
Y227500D01*
X334000Y241000*
X335000Y219000D02*
X326500Y227500D01*
Y245000*
X235800Y272700D02*
Y290400D01*
X240000Y294600*
X238500Y265100D02*
Y270000D01*
X235800Y272700*
X353000Y276000D02*
X325000Y304000D01*
X291000*
X240000Y294600D02*
Y310218D01*
X236750Y313468*
Y410068*
X218288Y428531*
X217587*
X291000Y304000D02*
Y328700D01*
X294100Y331800*
Y356500*
Y380700*
X291000Y383800*
Y408000*
X217587Y428531D02*
X217569D01*
X213400Y432700*
X218305Y428513D02*
X217587D01*
Y428531*
X353700Y244500D02*
G75*
G03X353700I-3700J0D01*
G01X318750Y345500D02*
G03X318750I-2750J0D01*
G01Y397000D02*
G03X318750I-2750J0D01*
G01X322950Y467346D02*
G03X322950I-6450J0D01*
G01X321900Y489000D02*
G03X321900I-5400J0D01*
G01X280100Y153400D02*
G03X280100I-2600J0D01*
G01X284150Y372600D02*
G03X284150I-2750J0D01*
G01X273100Y211000D02*
G03X273100I-2600J0D01*
G01X268743Y329675D02*
G03X268743I-5243J0D01*
G01X247000Y153400D02*
G03X247000I-2600J0D01*
G01X254200Y233500D02*
G03X254200I-4700J0D01*
G01X267515Y428100D02*
G03X267515I-4015J0D01*
G01X207700Y468000D02*
G03X207700I-6700J0D01*
G01X187700D02*
G03X187700I-6700J0D01*
G01X196100Y478000D02*
G03X196100I-5100J0D01*
G01X207700Y488000D02*
G03X207700I-6700J0D01*
G01X187700D02*
G03X187700I-6700J0D01*
G01X147200Y137000D02*
G03X147200I-6700J0D01*
G01X134100Y217000D02*
G03X134100I-2600J0D01*
G01X165600Y310000D02*
G03X165600I-2600J0D01*
G01X212700Y137000D02*
G03X212700I-6700J0D01*
G01X195600Y230200D02*
G03X195600I-2600J0D01*
G01X193700Y275200D02*
G03X193700I-2600J0D01*
G01X196600Y288000D02*
G03X196600I-2600J0D01*
G01Y293500D02*
G03X196600I-2600J0D01*
G01X201750Y324500D02*
G03X201750I-2750J0D01*
G01X167200Y117000D02*
G03X167200I-6700J0D01*
G01X147200D02*
G03X147200I-6700J0D01*
G01X155600Y127000D02*
G03X155600I-5100J0D01*
G01X167200Y137000D02*
G03X167200I-6700J0D01*
G01X172100Y218000D02*
G03X172100I-2600J0D01*
G01X229100Y297500D02*
G03X229100I-2600J0D01*
G01X232700Y117000D02*
G03X232700I-6700J0D01*
G01X212700D02*
G03X212700I-6700J0D01*
G01X221100Y127000D02*
G03X221100I-5100J0D01*
G01X232700Y137000D02*
G03X232700I-6700J0D01*
G01X300200Y189000D02*
G03X300200I-2600J0D01*
G01X300600Y235000D02*
G03X300600I-2600J0D01*
G01X338600Y225500D02*
G03X338600I-2600J0D01*
G01X329700Y276000D02*
G03X329700I-3700J0D01*
G01X318750Y293000D02*
G03X318750I-2750J0D01*
G01X313100Y153000D02*
G03X313100I-2600J0D01*
G01X307200Y185000D02*
G03X307200I-3700J0D01*
G01X312600Y256500D02*
G03X312600I-2600J0D01*
G01X294200Y276000D02*
G03X294200I-3700J0D01*
G01X373000Y104000D02*
Y501000D01*
X104000*
Y104000*
X373000*
X341800Y155711D02*
G03X345200I1700J-2711D01*
G01X341800D02*
Y163296D01*
X322100Y182996*
X318041Y185152D02*
G03X322100Y182996I1459J-2152D01*
G01X318041Y190848D02*
G03Y185152I1459J-2848D01*
G01X320959Y190848D02*
G03X318041I-1459J2152D01*
G01X322619Y187285D02*
G03X320959Y190848I-3119J715D01*
G01X322619Y187285D02*
X344702Y165202D01*
X345200Y164000D02*
G03X344702Y165202I-1700J0D01*
G01X345200Y164000D02*
Y155711D01*
X345800Y223711D02*
G03X349200I1700J-2711D01*
G01X345800D02*
Y226796D01*
X334715Y237881*
X337119Y240285D02*
G03X334715Y237881I-3119J715D01*
G01X337119Y240285D02*
X348702Y228702D01*
X349200Y227500D02*
G03X348702Y228702I-1700J0D01*
G01X349200Y227500D02*
Y223711D01*
X353700Y244500D02*
G03X353700I-3700J0D01*
G01X348700Y277896D02*
G03X351104Y280300I4300J-1896D01*
G01X348700Y277896D02*
X324296Y302300D01*
X293711*
X289300Y306711D02*
G03X293711Y302300I1700J-2711D01*
G01X289300Y306711D02*
Y323287D01*
Y325713D02*
G03Y323287I-2300J-1213D01*
G01Y325713D02*
Y328700D01*
X289798Y329902D02*
G03X289300Y328700I1202J-1202D01*
G01X289798Y329902D02*
X292400Y332504D01*
Y353789*
Y359211D02*
G03Y353789I1700J-2711D01*
G01Y359211D02*
Y379996D01*
X289798Y382598*
X289300Y383800D02*
G03X289798Y382598I1700J0D01*
G01X289300Y383800D02*
Y405289D01*
X292700D02*
G03X289300I-1700J2711D01*
G01X292700D02*
Y384504D01*
X295302Y381902*
X295800Y380700D02*
G03X295302Y381902I-1700J0D01*
G01X295800Y380700D02*
Y359211D01*
Y353789D02*
G03Y359211I-1700J2711D01*
G01Y353789D02*
Y331800D01*
X295302Y330598D02*
G03X295800Y331800I-1202J1202D01*
G01X295302Y330598D02*
X292700Y327996D01*
Y306711*
X293711Y305700D02*
G03X292700Y306711I-2711J-1700D01*
G01X293711Y305700D02*
X325000D01*
X326202Y305202D02*
G03X325000Y305700I-1202J-1202D01*
G01X326202Y305202D02*
X351104Y280300D01*
X318750Y345500D02*
G03X318750I-2750J0D01*
G01Y397000D02*
G03X318750I-2750J0D01*
G01X322950Y467346D02*
G03X322950I-6450J0D01*
G01X321900Y489000D02*
G03X321900I-5400J0D01*
G01X273555Y116110D02*
G03Y117890I4567J890D01*
G01X266941Y116110D02*
G03X273555I3307J890D01*
G01X257807D02*
G03X266941I4567J890D01*
G01X257807Y117890D02*
G03Y116110I-3307J-890D01*
G01X266941Y117890D02*
G03X257807I-4567J-890D01*
G01X273555D02*
G03X266941I-3307J-890D01*
G01X280100Y153400D02*
G03X280100I-2600J0D01*
G01X284150Y372600D02*
G03X284150I-2750J0D01*
G01X273100Y211000D02*
G03X273100I-2600J0D01*
G01X263104Y271700D02*
G03X260700Y274104I1896J4300D01*
G01X263104Y271700D02*
X258700Y267296D01*
Y208711*
X257705Y202878D02*
G03X258700Y208711I-705J3122D01*
G01X254563Y203925D02*
G03X257705Y202878I937J-2425D01*
G01X255300Y208711D02*
G03X254563Y203926I1700J-2711D01*
G01X255300Y208711D02*
Y268000D01*
X255798Y269202D02*
G03X255300Y268000I1202J-1202D01*
G01X255798Y269202D02*
X260700Y274104D01*
X268743Y329675D02*
G03X268743I-5243J0D01*
G01X247000Y153400D02*
G03X247000I-2600J0D01*
G01X254200Y233500D02*
G03X254200I-4700J0D01*
G01X239984Y212058D02*
G03X240056Y215426I2016J1642D01*
G01X234181Y214515D02*
G03X239984Y212058I3119J-715D01*
G01X234181Y214515D02*
X229798Y218898D01*
X229300Y220100D02*
G03X229798Y218898I1700J0D01*
G01X229300Y220100D02*
Y306387D01*
X225339Y309600D02*
G03X229300Y306387I1661J-2000D01*
G01Y312813D02*
G03X225339Y309600I-2300J-1213D01*
G01X229300Y312813D02*
Y313219D01*
X229282Y313468D02*
G03X229300Y313219I1700J0D01*
G01X229282Y313468D02*
Y392214D01*
X205396Y416100*
X176800*
X175598Y416598D02*
G03X176800Y416100I1202J1202D01*
G01X175598Y416598D02*
X167398Y424798D01*
X166900Y426000D02*
G03X167398Y424798I1700J0D01*
G01X166900Y426000D02*
Y429989D01*
X170300D02*
G03X166900I-1700J2711D01*
G01X170300D02*
Y426704D01*
X177504Y419500*
X206100*
X207302Y419002D02*
G03X206100Y419500I-1202J-1202D01*
G01X207302Y419002D02*
X232184Y394120D01*
X232682Y392918D02*
G03X232184Y394120I-1700J0D01*
G01X232682Y392918D02*
Y313699D01*
X232700Y313450D02*
G03X232682Y313699I-1700J0D01*
G01X232700Y313450D02*
Y220804D01*
X236585Y216919*
X240056Y215426D02*
G03X236585Y216919I-2756J-1626D01*
G01X281895Y420876D02*
G03X278076Y424695I-695J3124D01*
G01X281895Y420876D02*
X253100Y392082D01*
Y312700*
Y293400*
X252309Y291491D02*
G03X253100Y293400I-1909J1909D01*
G01X252309Y291491D02*
X250558Y289739D01*
X247461Y286642D02*
G03X250558Y289739I2539J558D01*
G01X247461Y286642D02*
X241624Y280805D01*
X239415Y278434D02*
G03X241624Y280805I-915J3066D01*
G01X237500Y273600D02*
G03X239415Y278434I1000J2400D01*
G01X237500Y273600D02*
Y273404D01*
X239702Y271202*
X240200Y270000D02*
G03X239702Y271202I-1700J0D01*
G01X240200Y270000D02*
Y267811D01*
X236800D02*
G03X240200I1700J-2711D01*
G01X236800D02*
Y269296D01*
X234598Y271498*
X234100Y272700D02*
G03X234598Y271498I1700J0D01*
G01X234100Y272700D02*
Y290400D01*
X234598Y291602D02*
G03X234100Y290400I1202J-1202D01*
G01X234598Y291602D02*
X238300Y295304D01*
Y301044*
X235435Y305309D02*
G03X238300Y301044I1765J-1909D01*
G01X237527Y310287D02*
G03X235435Y305309I-1527J-2287D01*
G01X237527Y310287D02*
X235548Y312266D01*
X235050Y313468D02*
G03X235548Y312266I1700J0D01*
G01X235050Y313468D02*
Y409364D01*
X217601Y426813*
X217587*
X216376Y427320D02*
G03X217587Y426813I1211J1193D01*
G01X216367Y427329D02*
G03X216376Y427320I1202J1202D01*
G01X216367Y427329D02*
X214115Y429581D01*
X216519Y431985D02*
G03X214115Y429581I-3119J715D01*
G01X216519Y431985D02*
X218273Y430231D01*
X218288*
X219490Y429733D02*
G03X218288Y430231I-1202J-1202D01*
G01X219490Y429733D02*
X237952Y411270D01*
X238450Y410068D02*
G03X237952Y411270I-1700J0D01*
G01X238450Y410068D02*
Y343879D01*
Y339121D02*
G03Y343879I1050J2379D01*
G01Y339121D02*
Y314173D01*
X241202Y311420*
X241700Y310218D02*
G03X241202Y311420I-1700J0D01*
G01X241700Y310218D02*
Y294600D01*
X241202Y293398D02*
G03X241700Y294600I-1202J1202D01*
G01X241202Y293398D02*
X237500Y289696D01*
Y284540*
X237805Y284624D02*
G03X237500Y284540I695J-3124D01*
G01X237805Y284624D02*
X247700Y294518D01*
Y309822*
Y315578D02*
G03Y309822I-1400J-2878D01*
G01Y315578D02*
Y393200D01*
X248491Y395109D02*
G03X247700Y393200I1909J-1909D01*
G01X248491Y395109D02*
X278076Y424695D01*
X267515Y428100D02*
G03X267515I-4015J0D01*
G01X207700Y468000D02*
G03X207700I-6700J0D01*
G01X187700D02*
G03X187700I-6700J0D01*
G01X196100Y478000D02*
G03X196100I-5100J0D01*
G01X207700Y488000D02*
G03X207700I-6700J0D01*
G01X187700D02*
G03X187700I-6700J0D01*
G01X147200Y137000D02*
G03X147200I-6700J0D01*
G01X134100Y217000D02*
G03X134100I-2600J0D01*
G01X165600Y310000D02*
G03X165600I-2600J0D01*
G01X212700Y137000D02*
G03X212700I-6700J0D01*
G01X195600Y230200D02*
G03X195600I-2600J0D01*
G01X193700Y275200D02*
G03X193700I-2600J0D01*
G01X196600Y288000D02*
G03X196600I-2600J0D01*
G01Y293500D02*
G03X196600I-2600J0D01*
G01X195763Y300911D02*
G03X194237Y301589I237J2589D01*
X195763Y300911I-237J-2589*
G01X201750Y324500D02*
G03X201750I-2750J0D01*
G01X167200Y117000D02*
G03X167200I-6700J0D01*
G01X147200D02*
G03X147200I-6700J0D01*
G01X155600Y127000D02*
G03X155600I-5100J0D01*
G01X167200Y137000D02*
G03X167200I-6700J0D01*
G01X172100Y218000D02*
G03X172100I-2600J0D01*
G01X229100Y297500D02*
G03X229100I-2600J0D01*
G01X232700Y117000D02*
G03X232700I-6700J0D01*
G01X212700D02*
G03X212700I-6700J0D01*
G01X221100Y127000D02*
G03X221100I-5100J0D01*
G01X232700Y137000D02*
G03X232700I-6700J0D01*
G01X300200Y189000D02*
G03X300200I-2600J0D01*
G01X300600Y235000D02*
G03X300600I-2600J0D01*
G01X308307Y116110D02*
G03Y117890I4567J890D01*
Y116110I-3307J-890*
G01X337781Y213882D02*
G03X337983Y220158I719J3118D01*
G01X336662Y213462D02*
G03X337781Y213882I-0J1700D01*
G01X336662Y213462D02*
X328979D01*
X327777Y213959D02*
G03X328979Y213462I1202J1203D01*
G01X327777Y213959D02*
X326437Y215300D01*
X321211*
Y218700D02*
G03Y215300I-2711J-1700D01*
G01Y218700D02*
X327141D01*
X328343Y218202D02*
G03X327141Y218700I-1202J-1202D01*
G01X328343Y218202D02*
X329683Y216862D01*
X332619*
X331881Y219715D02*
G03X332619Y216862I3119J-715D01*
G01X331881Y219715D02*
X325298Y226298D01*
X324800Y227500D02*
G03X325298Y226298I1700J0D01*
G01X324800Y227500D02*
Y242289D01*
X328200D02*
G03X324800I-1700J2711D01*
G01X328200D02*
Y228204D01*
X334285Y222119*
X337983Y220158D02*
G03X334285Y222119I-2983J-1158D01*
G01X338600Y225500D02*
G03X338600I-2600J0D01*
G01X329700Y276000D02*
G03X329700I-3700J0D01*
G01X318750Y293000D02*
G03X318750I-2750J0D01*
G01X313100Y153000D02*
G03X313100I-2600J0D01*
G01X307200Y185000D02*
G03X307200I-3700J0D01*
G01X301481Y217715D02*
G03X303885Y220119I3119J-715D01*
G01X301481Y217715D02*
X296496Y222700D01*
X289711*
Y226100D02*
G03Y222700I-2711J-1700D01*
G01Y226100D02*
X297200D01*
X298402Y225602D02*
G03X297200Y226100I-1202J-1202D01*
G01X298402Y225602D02*
X303885Y220119D01*
X304822Y235374D02*
G03X306973Y238031I3178J-374D01*
G01X304822Y235374D02*
X290496Y249700D01*
X289911*
Y253100D02*
G03Y249700I-2711J-1700D01*
G01Y253100D02*
X291200D01*
X292402Y252602D02*
G03X291200Y253100I-1202J-1202D01*
G01X292402Y252602D02*
X306973Y238031D01*
X312600Y256500D02*
G03X312600I-2600J0D01*
G01X294200Y276000D02*
G03X294200I-3700J0D01*
G01X104000Y500899D02*
X373000D01*
X104000Y499999D02*
X373000D01*
X104000Y499099D02*
X373000D01*
X104000Y498199D02*
X373000D01*
X104000Y497299D02*
X373000D01*
X104000Y496399D02*
X373000D01*
X104000Y495499D02*
X373000D01*
X202161Y494599D02*
X373000D01*
X319161Y493699D02*
X373000D01*
X320338Y492799D02*
X373000D01*
X321056Y491899D02*
X373000D01*
X321517Y490999D02*
X373000D01*
X321787Y490099D02*
X373000D01*
X321896Y489199D02*
X373000D01*
X321854Y488299D02*
X373000D01*
X321657Y487399D02*
X373000D01*
X321286Y486499D02*
X373000D01*
X320694Y485599D02*
X373000D01*
X319765Y484699D02*
X373000D01*
X317951Y483799D02*
X373000D01*
X205344Y482899D02*
X373000D01*
X203979Y481999D02*
X373000D01*
X195051Y481099D02*
X373000D01*
X195602Y480199D02*
X373000D01*
X195932Y479299D02*
X373000D01*
X196084Y478399D02*
X373000D01*
X196075Y477499D02*
X373000D01*
X195904Y476599D02*
X373000D01*
X195551Y475699D02*
X373000D01*
X194970Y474799D02*
X373000D01*
X204177Y473899D02*
X373000D01*
X319607Y472999D02*
X373000D01*
X320861Y472099D02*
X373000D01*
X321673Y471199D02*
X373000D01*
X322235Y470299D02*
X373000D01*
X322615Y469399D02*
X373000D01*
X322846Y468499D02*
X373000D01*
X322945Y467599D02*
X373000D01*
X322917Y466699D02*
X373000D01*
X322762Y465799D02*
X373000D01*
X322468Y464899D02*
X373000D01*
X322013Y463999D02*
X373000D01*
X321354Y463099D02*
X373000D01*
X320386Y462199D02*
X373000D01*
X318742Y461299D02*
X373000D01*
X104000Y460399D02*
X373000D01*
X104000Y459499D02*
X373000D01*
X104000Y458599D02*
X373000D01*
X104000Y457699D02*
X373000D01*
X104000Y456799D02*
X373000D01*
X104000Y455899D02*
X373000D01*
X104000Y454999D02*
X373000D01*
X104000Y454099D02*
X373000D01*
X104000Y453199D02*
X373000D01*
X104000Y452299D02*
X373000D01*
X104000Y451399D02*
X373000D01*
X104000Y450499D02*
X373000D01*
X104000Y449599D02*
X373000D01*
X104000Y448699D02*
X373000D01*
X104000Y447799D02*
X373000D01*
X104000Y446899D02*
X373000D01*
X104000Y445999D02*
X373000D01*
X104000Y445099D02*
X373000D01*
X104000Y444199D02*
X373000D01*
X104000Y443299D02*
X373000D01*
X104000Y442399D02*
X373000D01*
X104000Y441499D02*
X373000D01*
X104000Y440599D02*
X373000D01*
X104000Y439699D02*
X373000D01*
X104000Y438799D02*
X373000D01*
X104000Y437899D02*
X373000D01*
X104000Y436999D02*
X373000D01*
X104000Y436099D02*
X373000D01*
X215399Y435199D02*
X373000D01*
X216172Y434299D02*
X373000D01*
X216523Y433399D02*
X373000D01*
X216594Y432499D02*
X373000D01*
X265470Y431599D02*
X373000D01*
X266561Y430699D02*
X373000D01*
X267138Y429799D02*
X373000D01*
X267435Y428899D02*
X373000D01*
X267514Y427999D02*
X373000D01*
X281999Y427099D02*
X373000D01*
X283525Y426199D02*
X373000D01*
X284125Y425299D02*
X373000D01*
X284375Y424399D02*
X373000D01*
X284361Y423499D02*
X373000D01*
X284077Y422599D02*
X373000D01*
X283424Y421699D02*
X373000D01*
X281817Y420799D02*
X373000D01*
X280917Y419899D02*
X373000D01*
X280017Y418999D02*
X373000D01*
X279117Y418099D02*
X373000D01*
X278217Y417199D02*
X373000D01*
X277317Y416299D02*
X373000D01*
X276417Y415399D02*
X373000D01*
X275517Y414499D02*
X373000D01*
X274617Y413599D02*
X373000D01*
X273717Y412699D02*
X373000D01*
X272817Y411799D02*
X373000D01*
X292356Y410899D02*
X373000D01*
X293499Y409999D02*
X373000D01*
X294005Y409099D02*
X373000D01*
X294194Y408199D02*
X373000D01*
X294122Y407299D02*
X373000D01*
X293771Y406399D02*
X373000D01*
X292996Y405499D02*
X373000D01*
X292700Y404599D02*
X373000D01*
X292700Y403699D02*
X373000D01*
X292700Y402799D02*
X373000D01*
X292700Y401899D02*
X373000D01*
X292700Y400999D02*
X373000D01*
X292700Y400099D02*
X373000D01*
X317652Y399199D02*
X373000D01*
X318424Y398299D02*
X373000D01*
X318721Y397399D02*
X373000D01*
X318704Y396499D02*
X373000D01*
X318366Y395599D02*
X373000D01*
X317506Y394699D02*
X373000D01*
X292700Y393799D02*
X373000D01*
X292700Y392899D02*
X373000D01*
X292700Y391999D02*
X373000D01*
X292700Y391099D02*
X373000D01*
X292700Y390199D02*
X373000D01*
X292700Y389299D02*
X373000D01*
X292700Y388399D02*
X373000D01*
X292700Y387499D02*
X373000D01*
X292700Y386599D02*
X373000D01*
X292700Y385699D02*
X373000D01*
X292700Y384799D02*
X373000D01*
X293306Y383899D02*
X373000D01*
X294206Y382999D02*
X373000D01*
X295106Y382099D02*
X373000D01*
X295725Y381199D02*
X373000D01*
X295800Y380299D02*
X373000D01*
X295800Y379399D02*
X373000D01*
X295800Y378499D02*
X373000D01*
X295800Y377599D02*
X373000D01*
X295800Y376699D02*
X373000D01*
X295800Y375799D02*
X373000D01*
X295800Y374899D02*
X373000D01*
X295800Y373999D02*
X373000D01*
X295800Y373099D02*
X373000D01*
X295800Y372199D02*
X373000D01*
X295800Y371299D02*
X373000D01*
X295800Y370399D02*
X373000D01*
X295800Y369499D02*
X373000D01*
X295800Y368599D02*
X373000D01*
X295800Y367699D02*
X373000D01*
X295800Y366799D02*
X373000D01*
X295800Y365899D02*
X373000D01*
X295800Y364999D02*
X373000D01*
X295800Y364099D02*
X373000D01*
X295800Y363199D02*
X373000D01*
X295800Y362299D02*
X373000D01*
X295800Y361399D02*
X373000D01*
X295800Y360499D02*
X373000D01*
X295800Y359599D02*
X373000D01*
X296425Y358699D02*
X373000D01*
X297025Y357799D02*
X373000D01*
X297275Y356899D02*
X373000D01*
X297261Y355999D02*
X373000D01*
X296977Y355099D02*
X373000D01*
X296324Y354199D02*
X373000D01*
X295800Y353299D02*
X373000D01*
X295800Y352399D02*
X373000D01*
X295800Y351499D02*
X373000D01*
X295800Y350599D02*
X373000D01*
X295800Y349699D02*
X373000D01*
X295800Y348799D02*
X373000D01*
X317345Y347899D02*
X373000D01*
X318306Y346999D02*
X373000D01*
X318684Y346099D02*
X373000D01*
X318733Y345199D02*
X373000D01*
X318474Y344299D02*
X373000D01*
X317774Y343399D02*
X373000D01*
X295800Y342499D02*
X373000D01*
X295800Y341599D02*
X373000D01*
X295800Y340699D02*
X373000D01*
X295800Y339799D02*
X373000D01*
X295800Y338899D02*
X373000D01*
X295800Y337999D02*
X373000D01*
X295800Y337099D02*
X373000D01*
X295800Y336199D02*
X373000D01*
X295800Y335299D02*
X373000D01*
X295800Y334399D02*
X373000D01*
X295800Y333499D02*
X373000D01*
X295800Y332599D02*
X373000D01*
X295797Y331699D02*
X373000D01*
X295474Y330799D02*
X373000D01*
X294603Y329899D02*
X373000D01*
X293703Y328999D02*
X373000D01*
X292803Y328099D02*
X373000D01*
X292700Y327199D02*
X373000D01*
X292700Y326299D02*
X373000D01*
X292700Y325399D02*
X373000D01*
X292700Y324499D02*
X373000D01*
X292700Y323599D02*
X373000D01*
X292700Y322699D02*
X373000D01*
X292700Y321799D02*
X373000D01*
X292700Y320899D02*
X373000D01*
X292700Y319999D02*
X373000D01*
X292700Y319099D02*
X373000D01*
X292700Y318199D02*
X373000D01*
X292700Y317299D02*
X373000D01*
X292700Y316399D02*
X373000D01*
X292700Y315499D02*
X373000D01*
X292700Y314599D02*
X373000D01*
X292700Y313699D02*
X373000D01*
X292700Y312799D02*
X373000D01*
X292700Y311899D02*
X373000D01*
X292700Y310999D02*
X373000D01*
X292700Y310099D02*
X373000D01*
X292700Y309199D02*
X373000D01*
X292700Y308299D02*
X373000D01*
X292700Y307399D02*
X373000D01*
X292999Y306499D02*
X373000D01*
X325578Y305599D02*
X373000D01*
X326706Y304699D02*
X373000D01*
X327606Y303799D02*
X373000D01*
X328506Y302899D02*
X373000D01*
X329406Y301999D02*
X373000D01*
X330306Y301099D02*
X373000D01*
X331206Y300199D02*
X373000D01*
X332106Y299299D02*
X373000D01*
X333006Y298399D02*
X373000D01*
X333906Y297499D02*
X373000D01*
X334806Y296599D02*
X373000D01*
X335706Y295699D02*
X373000D01*
X336606Y294799D02*
X373000D01*
X337506Y293899D02*
X373000D01*
X338406Y292999D02*
X373000D01*
X339306Y292099D02*
X373000D01*
X340206Y291199D02*
X373000D01*
X341106Y290299D02*
X373000D01*
X342006Y289399D02*
X373000D01*
X342906Y288499D02*
X373000D01*
X343806Y287599D02*
X373000D01*
X344706Y286699D02*
X373000D01*
X345606Y285799D02*
X373000D01*
X346506Y284899D02*
X373000D01*
X347406Y283999D02*
X373000D01*
X348306Y283099D02*
X373000D01*
X349206Y282199D02*
X373000D01*
X350106Y281299D02*
X373000D01*
X354656Y280399D02*
X373000D01*
X356138Y279499D02*
X373000D01*
X356916Y278599D02*
X373000D01*
X357382Y277699D02*
X373000D01*
X357632Y276799D02*
X373000D01*
X357699Y275899D02*
X373000D01*
X357592Y274999D02*
X373000D01*
X357298Y274099D02*
X373000D01*
X356774Y273199D02*
X373000D01*
X355897Y272299D02*
X373000D01*
X353958Y271399D02*
X373000D01*
X261903Y270499D02*
X373000D01*
X261003Y269599D02*
X373000D01*
X260103Y268699D02*
X373000D01*
X259203Y267799D02*
X373000D01*
X258700Y266899D02*
X373000D01*
X258700Y265999D02*
X373000D01*
X258700Y265099D02*
X373000D01*
X258700Y264199D02*
X373000D01*
X258700Y263299D02*
X373000D01*
X258700Y262399D02*
X373000D01*
X258700Y261499D02*
X373000D01*
X258700Y260599D02*
X373000D01*
X258700Y259699D02*
X373000D01*
X311215Y258799D02*
X373000D01*
X312192Y257899D02*
X373000D01*
X312552Y256999D02*
X373000D01*
X312569Y256099D02*
X373000D01*
X312251Y255199D02*
X373000D01*
X311384Y254299D02*
X373000D01*
X289699Y253399D02*
X373000D01*
X292506Y252499D02*
X373000D01*
X293406Y251599D02*
X373000D01*
X294306Y250699D02*
X373000D01*
X295206Y249799D02*
X373000D01*
X296106Y248899D02*
X373000D01*
X351204Y247999D02*
X373000D01*
X352634Y247099D02*
X373000D01*
X353287Y246199D02*
X373000D01*
X353613Y245299D02*
X373000D01*
X353699Y244399D02*
X373000D01*
X353562Y243499D02*
X373000D01*
X353174Y242599D02*
X373000D01*
X352417Y241699D02*
X373000D01*
X337194Y240799D02*
X373000D01*
X337506Y239899D02*
X373000D01*
X338406Y238999D02*
X373000D01*
X339306Y238099D02*
X373000D01*
X340206Y237199D02*
X373000D01*
X341106Y236299D02*
X373000D01*
X342006Y235399D02*
X373000D01*
X342906Y234499D02*
X373000D01*
X343806Y233599D02*
X373000D01*
X344706Y232699D02*
X373000D01*
X345606Y231799D02*
X373000D01*
X346506Y230899D02*
X373000D01*
X347406Y229999D02*
X373000D01*
X348306Y229099D02*
X373000D01*
X349050Y228199D02*
X373000D01*
X349200Y227299D02*
X373000D01*
X349200Y226399D02*
X373000D01*
X349200Y225499D02*
X373000D01*
X349200Y224599D02*
X373000D01*
X349220Y223699D02*
X373000D01*
X350147Y222799D02*
X373000D01*
X350571Y221899D02*
X373000D01*
X350700Y220999D02*
X373000D01*
X350570Y220099D02*
X373000D01*
X350145Y219199D02*
X373000D01*
X349216Y218299D02*
X373000D01*
X341675Y217399D02*
X373000D01*
X341661Y216499D02*
X373000D01*
X341377Y215599D02*
X373000D01*
X340724Y214699D02*
X373000D01*
X337678Y213799D02*
X373000D01*
X272276Y212899D02*
X373000D01*
X272901Y211999D02*
X373000D01*
X273098Y211099D02*
X373000D01*
X272973Y210199D02*
X373000D01*
X272466Y209299D02*
X373000D01*
X259118Y208399D02*
X373000D01*
X259827Y207499D02*
X373000D01*
X260144Y206599D02*
X373000D01*
X260186Y205699D02*
X373000D01*
X259966Y204799D02*
X373000D01*
X259413Y203899D02*
X373000D01*
X258110Y202999D02*
X373000D01*
X258030Y202099D02*
X373000D01*
X258083Y201199D02*
X373000D01*
X257806Y200299D02*
X373000D01*
X257031Y199399D02*
X373000D01*
X104000Y198499D02*
X373000D01*
X104000Y197599D02*
X373000D01*
X104000Y196699D02*
X373000D01*
X104000Y195799D02*
X373000D01*
X321276Y194899D02*
X373000D01*
X321901Y193999D02*
X373000D01*
X322098Y193099D02*
X373000D01*
X321973Y192199D02*
X373000D01*
X321466Y191299D02*
X373000D01*
X321618Y190399D02*
X373000D01*
X322327Y189499D02*
X373000D01*
X322644Y188599D02*
X373000D01*
X322686Y187699D02*
X373000D01*
X323106Y186799D02*
X373000D01*
X324006Y185899D02*
X373000D01*
X324906Y184999D02*
X373000D01*
X325806Y184099D02*
X373000D01*
X326706Y183199D02*
X373000D01*
X327606Y182299D02*
X373000D01*
X328506Y181399D02*
X373000D01*
X329406Y180499D02*
X373000D01*
X330306Y179599D02*
X373000D01*
X331206Y178699D02*
X373000D01*
X332106Y177799D02*
X373000D01*
X333006Y176899D02*
X373000D01*
X333906Y175999D02*
X373000D01*
X334806Y175099D02*
X373000D01*
X335706Y174199D02*
X373000D01*
X336606Y173299D02*
X373000D01*
X337506Y172399D02*
X373000D01*
X338406Y171499D02*
X373000D01*
X339306Y170599D02*
X373000D01*
X340206Y169699D02*
X373000D01*
X341106Y168799D02*
X373000D01*
X342006Y167899D02*
X373000D01*
X342906Y166999D02*
X373000D01*
X343806Y166099D02*
X373000D01*
X344705Y165199D02*
X373000D01*
X345174Y164299D02*
X373000D01*
X345200Y163399D02*
X373000D01*
X345200Y162499D02*
X373000D01*
X345200Y161599D02*
X373000D01*
X345200Y160699D02*
X373000D01*
X345200Y159799D02*
X373000D01*
X345200Y158899D02*
X373000D01*
X345200Y157999D02*
X373000D01*
X345200Y157099D02*
X373000D01*
X345200Y156199D02*
X373000D01*
X345726Y155299D02*
X373000D01*
X346378Y154399D02*
X373000D01*
X346661Y153499D02*
X373000D01*
X346675Y152599D02*
X373000D01*
X346423Y151699D02*
X373000D01*
X345823Y150799D02*
X373000D01*
X344289Y149899D02*
X373000D01*
X104000Y148999D02*
X373000D01*
X104000Y148099D02*
X373000D01*
X104000Y147199D02*
X373000D01*
X104000Y146299D02*
X373000D01*
X104000Y145399D02*
X373000D01*
X104000Y144499D02*
X373000D01*
X227161Y143599D02*
X373000D01*
X229524Y142699D02*
X373000D01*
X230676Y141799D02*
X373000D01*
X231449Y140899D02*
X373000D01*
X231992Y139999D02*
X373000D01*
X232363Y139099D02*
X373000D01*
X232592Y138199D02*
X373000D01*
X232693Y137299D02*
X373000D01*
X232673Y136399D02*
X373000D01*
X232530Y135499D02*
X373000D01*
X232255Y134599D02*
X373000D01*
X231830Y133699D02*
X373000D01*
X231219Y132799D02*
X373000D01*
X230344Y131899D02*
X373000D01*
X228979Y130999D02*
X373000D01*
X220051Y130099D02*
X373000D01*
X220602Y129199D02*
X373000D01*
X220932Y128299D02*
X373000D01*
X221084Y127399D02*
X373000D01*
X221075Y126499D02*
X373000D01*
X220904Y125599D02*
X373000D01*
X220551Y124699D02*
X373000D01*
X219970Y123799D02*
X373000D01*
X229177Y122899D02*
X373000D01*
X230461Y121999D02*
X373000D01*
X315076Y121099D02*
X373000D01*
X316253Y120199D02*
X373000D01*
X316919Y119299D02*
X373000D01*
X317312Y118399D02*
X373000D01*
X317500Y117499D02*
X373000D01*
X317509Y116599D02*
X373000D01*
X317341Y115699D02*
X373000D01*
X316973Y114799D02*
X373000D01*
X316342Y113899D02*
X373000D01*
X315248Y112999D02*
X373000D01*
X230568Y112099D02*
X373000D01*
X229352Y111199D02*
X373000D01*
X104000Y110299D02*
X373000D01*
X104000Y109399D02*
X373000D01*
X104000Y108499D02*
X373000D01*
X104000Y107599D02*
X373000D01*
X104000Y106699D02*
X373000D01*
X104000Y105799D02*
X373000D01*
X104000Y104899D02*
X373000D01*
X265958Y271399D02*
X352042D01*
X351006Y280399D02*
X351344D01*
X267897Y272299D02*
X350103D01*
X328417Y273199D02*
X349226D01*
X327617Y247999D02*
X348796D01*
X329174Y274099D02*
X348702D01*
X329287Y277699D02*
X348618D01*
X329562Y274999D02*
X348408D01*
X329613Y276799D02*
X348368D01*
X329699Y275899D02*
X348301D01*
X328634Y278599D02*
X347997D01*
X337123Y241699D02*
X347583D01*
X328916Y247099D02*
X347366D01*
X327204Y279499D02*
X347097D01*
X336772Y242599D02*
X346826D01*
X329467Y246199D02*
X346713D01*
X335999Y243499D02*
X346438D01*
X329686Y245299D02*
X346387D01*
X329643Y244399D02*
X346301D01*
X266656Y280399D02*
X346197D01*
X338440Y226399D02*
X345800D01*
X338600Y225499D02*
X345800D01*
X338439Y224599D02*
X345800D01*
X341425Y218299D02*
X345784D01*
X337875Y223699D02*
X345780D01*
X242117Y281299D02*
X345297D01*
X337877Y227299D02*
X345297D01*
X340825Y219199D02*
X344855D01*
X333606Y222799D02*
X344853D01*
X339299Y220099D02*
X344430D01*
X336356Y221899D02*
X344429D01*
X243017Y282199D02*
X344397D01*
X328206Y228199D02*
X344397D01*
X337499Y220999D02*
X344300D01*
X243917Y283099D02*
X343497D01*
X328200Y229099D02*
X343497D01*
X104000Y149899D02*
X342711D01*
X244817Y283999D02*
X342597D01*
X328200Y229999D02*
X342597D01*
X104000Y162499D02*
X341800D01*
X104000Y161599D02*
X341800D01*
X104000Y160699D02*
X341800D01*
X104000Y159799D02*
X341800D01*
X104000Y158899D02*
X341800D01*
X104000Y157999D02*
X341800D01*
X104000Y157099D02*
X341800D01*
X104000Y156199D02*
X341800D01*
X251210Y284899D02*
X341697D01*
X328200Y230899D02*
X341697D01*
X104000Y163399D02*
X341697D01*
X311715Y155299D02*
X341274D01*
X311884Y150799D02*
X341177D01*
X252190Y285799D02*
X340797D01*
X328200Y231799D02*
X340797D01*
X104000Y164299D02*
X340797D01*
X312692Y154399D02*
X340622D01*
X312751Y151699D02*
X340577D01*
X313052Y153499D02*
X340339D01*
X313069Y152599D02*
X340325D01*
X252551Y286699D02*
X339897D01*
X328200Y232699D02*
X339897D01*
X104000Y165199D02*
X339897D01*
X252569Y287599D02*
X338997D01*
X328200Y233599D02*
X338997D01*
X104000Y166099D02*
X338997D01*
X252252Y288499D02*
X338097D01*
X328200Y234499D02*
X338097D01*
X104000Y166999D02*
X338097D01*
X251388Y289399D02*
X337197D01*
X328200Y235399D02*
X337197D01*
X104000Y167899D02*
X337197D01*
X316515Y290299D02*
X336297D01*
X328200Y236299D02*
X336297D01*
X104000Y168799D02*
X336297D01*
X318078Y291199D02*
X335397D01*
X328200Y237199D02*
X335397D01*
X104000Y169699D02*
X335397D01*
X318598Y292099D02*
X334497D01*
X104000Y170599D02*
X334497D01*
X332706Y223699D02*
X334125D01*
X329106Y227299D02*
X334123D01*
X318750Y292999D02*
X333597D01*
X104000Y171499D02*
X333597D01*
X331806Y224599D02*
X333561D01*
X330006Y226399D02*
X333560D01*
X330906Y225499D02*
X333400D01*
X318599Y293899D02*
X332697D01*
X104000Y172399D02*
X332697D01*
X328200Y238099D02*
X332650D01*
X329146Y217399D02*
X332229D01*
X329326Y243499D02*
X332001D01*
X328238Y218299D02*
X331878D01*
X320825Y219199D02*
X331806D01*
X318080Y294799D02*
X331797D01*
X104000Y173299D02*
X331797D01*
X328200Y238999D02*
X331503D01*
X319299Y220099D02*
X331497D01*
X328615Y242599D02*
X331228D01*
X328200Y239899D02*
X330995D01*
X316529Y295699D02*
X330897D01*
X104000Y174199D02*
X330897D01*
X328200Y241699D02*
X330877D01*
X328200Y240799D02*
X330806D01*
X303006Y220999D02*
X330597D01*
X253100Y296599D02*
X329997D01*
X104000Y175099D02*
X329997D01*
X302106Y221899D02*
X329697D01*
X253100Y297499D02*
X329097D01*
X104000Y175999D02*
X329097D01*
X301206Y222799D02*
X328797D01*
X253100Y298399D02*
X328197D01*
X104000Y176899D02*
X328197D01*
X258700Y213799D02*
X327963D01*
X300306Y223699D02*
X327897D01*
X253100Y299299D02*
X327297D01*
X104000Y177799D02*
X327297D01*
X320724Y214699D02*
X327038D01*
X299406Y224599D02*
X326997D01*
X253100Y300199D02*
X326397D01*
X104000Y178699D02*
X326397D01*
X298506Y225499D02*
X326097D01*
X292350Y301099D02*
X325497D01*
X104000Y179599D02*
X325497D01*
X297006Y247999D02*
X325383D01*
X289499Y226399D02*
X325205D01*
X288356Y227299D02*
X324812D01*
X303306Y241699D02*
X324800D01*
X304206Y240799D02*
X324800D01*
X305106Y239899D02*
X324800D01*
X306006Y238999D02*
X324800D01*
X308799Y238099D02*
X324800D01*
X310325Y237199D02*
X324800D01*
X310925Y236299D02*
X324800D01*
X311175Y235399D02*
X324800D01*
X311161Y234499D02*
X324800D01*
X310877Y233599D02*
X324800D01*
X310224Y232699D02*
X324800D01*
X258700Y231799D02*
X324800D01*
X258700Y230899D02*
X324800D01*
X258700Y229999D02*
X324800D01*
X258700Y229099D02*
X324800D01*
X258700Y228199D02*
X324800D01*
X291704Y279499D02*
X324796D01*
X293497Y301999D02*
X324597D01*
X320210Y180499D02*
X324597D01*
X302406Y242599D02*
X324385D01*
X297906Y247099D02*
X324084D01*
X321548Y181399D02*
X323697D01*
X301506Y243499D02*
X323674D01*
X292917Y273199D02*
X323583D01*
X298806Y246199D02*
X323533D01*
X293134Y278599D02*
X323366D01*
X300606Y244399D02*
X323357D01*
X299706Y245299D02*
X323314D01*
X293674Y274099D02*
X322826D01*
X322004Y182299D02*
X322797D01*
X293787Y277699D02*
X322713D01*
X294062Y274999D02*
X322438D01*
X294113Y276799D02*
X322387D01*
X294199Y275899D02*
X322301D01*
X104000Y180499D02*
X318790D01*
X307200Y184999D02*
X317837D01*
X104000Y194899D02*
X317724D01*
X305399Y220099D02*
X317701D01*
X298815Y191299D02*
X317534D01*
X304349Y181399D02*
X317452D01*
X299792Y190399D02*
X317382D01*
X307089Y184099D02*
X317144D01*
X104000Y193999D02*
X317099D01*
X307089Y185899D02*
X317087D01*
X104000Y192199D02*
X317027D01*
X306028Y182299D02*
X316996D01*
X306732Y183199D02*
X316908D01*
X104000Y193099D02*
X316902D01*
X300152Y189499D02*
X316673D01*
X306733Y186799D02*
X316534D01*
X304360Y188599D02*
X316356D01*
X306031Y187699D02*
X316314D01*
X306824Y214699D02*
X316276D01*
X306925Y219199D02*
X316175D01*
X307477Y215599D02*
X315623D01*
X307525Y218299D02*
X315575D01*
X251117Y290299D02*
X315485D01*
X253100Y295699D02*
X315471D01*
X307761Y216499D02*
X315339D01*
X307775Y217399D02*
X315325D01*
X206219Y483799D02*
X315049D01*
X295800Y347899D02*
X314655D01*
X292700Y394699D02*
X314494D01*
X292700Y399199D02*
X314348D01*
X104000Y461299D02*
X314258D01*
X295800Y343399D02*
X314226D01*
X252017Y291199D02*
X313922D01*
X253100Y294799D02*
X313920D01*
X204524Y493699D02*
X313839D01*
X295800Y346999D02*
X313694D01*
X292700Y395599D02*
X313634D01*
X292700Y398299D02*
X313576D01*
X295800Y344299D02*
X313526D01*
X252766Y292099D02*
X313402D01*
X253100Y293899D02*
X313401D01*
X205461Y472999D02*
X313393D01*
X295800Y346099D02*
X313316D01*
X292700Y396499D02*
X313296D01*
X292700Y397399D02*
X313279D01*
X295800Y345199D02*
X313267D01*
X253070Y292999D02*
X313250D01*
X206830Y484699D02*
X313235D01*
X205676Y492799D02*
X312662D01*
X204352Y462199D02*
X312614D01*
X207255Y485599D02*
X312306D01*
X206300Y472099D02*
X312139D01*
X206449Y491899D02*
X311944D01*
X207530Y486499D02*
X311714D01*
X205568Y463099D02*
X311646D01*
X206992Y490999D02*
X311483D01*
X207673Y487399D02*
X311343D01*
X206887Y471199D02*
X311327D01*
X207363Y490099D02*
X311213D01*
X207693Y488299D02*
X311146D01*
X207592Y489199D02*
X311104D01*
X206374Y463999D02*
X310987D01*
X207293Y470299D02*
X310765D01*
X280324Y121099D02*
X310672D01*
X206939Y464899D02*
X310532D01*
X280496Y112999D02*
X310500D01*
X207552Y469399D02*
X310385D01*
X207328Y465799D02*
X310238D01*
X207681Y468499D02*
X310154D01*
X207572Y466699D02*
X310083D01*
X207688Y467599D02*
X310055D01*
X306224Y120199D02*
X309495D01*
X306453Y113899D02*
X309406D01*
X279276Y155299D02*
X309285D01*
X104000Y150799D02*
X309116D01*
X307539Y119299D02*
X308829D01*
X258700Y258799D02*
X308785D01*
X307624Y114799D02*
X308775D01*
X288556Y254299D02*
X308616D01*
X308126Y118399D02*
X308436D01*
X308168Y115699D02*
X308407D01*
X279901Y154399D02*
X308308D01*
X279466Y151699D02*
X308249D01*
X280098Y153499D02*
X307948D01*
X279973Y152599D02*
X307931D01*
X258700Y257899D02*
X307808D01*
X258700Y255199D02*
X307749D01*
X258700Y256999D02*
X307448D01*
X258700Y256099D02*
X307431D01*
X306906Y238099D02*
X307201D01*
X299210Y232699D02*
X305776D01*
X300190Y233599D02*
X305123D01*
X300551Y234499D02*
X304839D01*
X300569Y235399D02*
X304797D01*
X300252Y236299D02*
X303897D01*
X281501Y120199D02*
X303776D01*
X281591Y113899D02*
X303547D01*
X299388Y237199D02*
X302997D01*
X104000Y181399D02*
X302651D01*
X300169Y188599D02*
X302640D01*
X282167Y119299D02*
X302461D01*
X258700Y214699D02*
X302376D01*
X282221Y114799D02*
X302376D01*
X258700Y238099D02*
X302097D01*
X282560Y118399D02*
X301874D01*
X282589Y115699D02*
X301832D01*
X258700Y215599D02*
X301723D01*
X282748Y117499D02*
X301612D01*
X282757Y116599D02*
X301599D01*
X258700Y216499D02*
X301439D01*
X258700Y217399D02*
X301425D01*
X258700Y238999D02*
X301197D01*
X104000Y182299D02*
X300972D01*
X299851Y187699D02*
X300969D01*
X258700Y218299D02*
X300897D01*
X258700Y239899D02*
X300297D01*
X104000Y183199D02*
X300268D01*
X298984Y186799D02*
X300267D01*
X258700Y219199D02*
X299997D01*
X104000Y184099D02*
X299911D01*
X104000Y185899D02*
X299911D01*
X104000Y184999D02*
X299800D01*
X258700Y240799D02*
X299397D01*
X258700Y220099D02*
X299097D01*
X258700Y241699D02*
X298497D01*
X258700Y220999D02*
X298197D01*
X258700Y242599D02*
X297597D01*
X288996Y221899D02*
X297297D01*
X258700Y232699D02*
X296790D01*
X258700Y243499D02*
X296697D01*
X258700Y237199D02*
X296612D01*
X104000Y191299D02*
X296385D01*
X104000Y186799D02*
X296216D01*
X258700Y233599D02*
X295810D01*
X258700Y244399D02*
X295797D01*
X258700Y236299D02*
X295748D01*
X258700Y234499D02*
X295449D01*
X258700Y235399D02*
X295431D01*
X104000Y190399D02*
X295408D01*
X104000Y187699D02*
X295349D01*
X104000Y189499D02*
X295048D01*
X104000Y188599D02*
X295031D01*
X258700Y245299D02*
X294897D01*
X258700Y246199D02*
X293997D01*
X258700Y247099D02*
X293097D01*
X253100Y379399D02*
X292400D01*
X253100Y378499D02*
X292400D01*
X253100Y377599D02*
X292400D01*
X253100Y376699D02*
X292400D01*
X253100Y375799D02*
X292400D01*
X282910Y374899D02*
X292400D01*
X283768Y373999D02*
X292400D01*
X284104Y373099D02*
X292400D01*
X284121Y372199D02*
X292400D01*
X283823Y371299D02*
X292400D01*
X283048Y370399D02*
X292400D01*
X253100Y369499D02*
X292400D01*
X253100Y368599D02*
X292400D01*
X253100Y367699D02*
X292400D01*
X253100Y366799D02*
X292400D01*
X253100Y365899D02*
X292400D01*
X253100Y364999D02*
X292400D01*
X253100Y364099D02*
X292400D01*
X253100Y363199D02*
X292400D01*
X253100Y362299D02*
X292400D01*
X253100Y361399D02*
X292400D01*
X253100Y360499D02*
X292400D01*
X253100Y359599D02*
X292400D01*
X253100Y353299D02*
X292400D01*
X253100Y352399D02*
X292400D01*
X253100Y351499D02*
X292400D01*
X253100Y350599D02*
X292400D01*
X253100Y349699D02*
X292400D01*
X253100Y348799D02*
X292400D01*
X253100Y347899D02*
X292400D01*
X253100Y346999D02*
X292400D01*
X253100Y346099D02*
X292400D01*
X253100Y345199D02*
X292400D01*
X253100Y344299D02*
X292400D01*
X253100Y343399D02*
X292400D01*
X253100Y342499D02*
X292400D01*
X253100Y341599D02*
X292400D01*
X253100Y340699D02*
X292400D01*
X253100Y339799D02*
X292400D01*
X253100Y338899D02*
X292400D01*
X253100Y337999D02*
X292400D01*
X253100Y337099D02*
X292400D01*
X253100Y336199D02*
X292400D01*
X253100Y335299D02*
X292400D01*
X265775Y334399D02*
X292400D01*
X267088Y333499D02*
X292400D01*
X267852Y332599D02*
X292400D01*
X258700Y247999D02*
X292197D01*
X253100Y380299D02*
X292097D01*
X253100Y354199D02*
X291876D01*
X253100Y358699D02*
X291775D01*
X268337Y331699D02*
X291594D01*
X289196Y248899D02*
X291297D01*
X253100Y355099D02*
X291223D01*
X253100Y381199D02*
X291197D01*
X253100Y357799D02*
X291175D01*
X253100Y355999D02*
X290939D01*
X253100Y356899D02*
X290925D01*
X268621Y330799D02*
X290694D01*
X253100Y382099D02*
X290297D01*
X268739Y329899D02*
X289795D01*
X253100Y301099D02*
X289650D01*
X271917Y410899D02*
X289644D01*
X253100Y382999D02*
X289501D01*
X268700Y328999D02*
X289326D01*
X265617Y404599D02*
X289300D01*
X264717Y403699D02*
X289300D01*
X263817Y402799D02*
X289300D01*
X262917Y401899D02*
X289300D01*
X262017Y400999D02*
X289300D01*
X261117Y400099D02*
X289300D01*
X260217Y399199D02*
X289300D01*
X259317Y398299D02*
X289300D01*
X258417Y397399D02*
X289300D01*
X257517Y396499D02*
X289300D01*
X256617Y395599D02*
X289300D01*
X255717Y394699D02*
X289300D01*
X254817Y393799D02*
X289300D01*
X253917Y392899D02*
X289300D01*
X253100Y391999D02*
X289300D01*
X253100Y391099D02*
X289300D01*
X253100Y390199D02*
X289300D01*
X253100Y389299D02*
X289300D01*
X253100Y388399D02*
X289300D01*
X253100Y387499D02*
X289300D01*
X253100Y386599D02*
X289300D01*
X253100Y385699D02*
X289300D01*
X253100Y384799D02*
X289300D01*
X253100Y383899D02*
X289300D01*
X268501Y328099D02*
X289300D01*
X268122Y327199D02*
X289300D01*
X288877Y326299D02*
X289300D01*
X288875Y322699D02*
X289300D01*
X253100Y321799D02*
X289300D01*
X253100Y320899D02*
X289300D01*
X253100Y319999D02*
X289300D01*
X253100Y319099D02*
X289300D01*
X253100Y318199D02*
X289300D01*
X253100Y317299D02*
X289300D01*
X253100Y316399D02*
X289300D01*
X253100Y315499D02*
X289300D01*
X253100Y314599D02*
X289300D01*
X253100Y313699D02*
X289300D01*
X253100Y312799D02*
X289300D01*
X253100Y311899D02*
X289300D01*
X253100Y310999D02*
X289300D01*
X253100Y310099D02*
X289300D01*
X253100Y309199D02*
X289300D01*
X253100Y308299D02*
X289300D01*
X253100Y307399D02*
X289300D01*
X268138Y279499D02*
X289296D01*
X266517Y405499D02*
X289004D01*
X253100Y306499D02*
X289001D01*
X253100Y301999D02*
X288503D01*
X271017Y409999D02*
X288501D01*
X267417Y406399D02*
X288229D01*
X253100Y305599D02*
X288228D01*
X268774Y273199D02*
X288083D01*
X253100Y302899D02*
X287995D01*
X270117Y409099D02*
X287995D01*
X268317Y407299D02*
X287878D01*
X253100Y304699D02*
X287877D01*
X268916Y278599D02*
X287866D01*
X253100Y303799D02*
X287806D01*
X269217Y408199D02*
X287806D01*
X269298Y274099D02*
X287326D01*
X269382Y277699D02*
X287213D01*
X269592Y274999D02*
X286938D01*
X269632Y276799D02*
X286887D01*
X269699Y275899D02*
X286801D01*
X258700Y254299D02*
X285844D01*
X258700Y227299D02*
X285644D01*
X258700Y248899D02*
X285204D01*
X253100Y322699D02*
X285125D01*
X267512Y326299D02*
X285123D01*
X258700Y221899D02*
X285004D01*
X258700Y253399D02*
X284701D01*
X253100Y323599D02*
X284561D01*
X266534Y325399D02*
X284560D01*
X258700Y226399D02*
X284501D01*
X258700Y249799D02*
X284429D01*
X264337Y324499D02*
X284400D01*
X258700Y222799D02*
X284229D01*
X258700Y252499D02*
X284195D01*
X258700Y250699D02*
X284078D01*
X258700Y251599D02*
X284006D01*
X258700Y225499D02*
X283995D01*
X258700Y223699D02*
X283878D01*
X258700Y224599D02*
X283806D01*
X267389Y427099D02*
X280401D01*
X253100Y374899D02*
X279890D01*
X253100Y370399D02*
X279752D01*
X253100Y373999D02*
X279032D01*
X253100Y371299D02*
X278977D01*
X267037Y426199D02*
X278875D01*
X253100Y373099D02*
X278696D01*
X253100Y372199D02*
X278679D01*
X266377Y425299D02*
X278275D01*
X265057Y424399D02*
X277780D01*
X225724Y423499D02*
X276880D01*
X226624Y422599D02*
X275980D01*
X264576Y121099D02*
X275920D01*
X264748Y112999D02*
X275748D01*
X246176Y155299D02*
X275724D01*
X246366Y151699D02*
X275534D01*
X246801Y154399D02*
X275099D01*
X227524Y421699D02*
X275080D01*
X246873Y152599D02*
X275027D01*
X246998Y153499D02*
X274902D01*
X271472Y120199D02*
X274743D01*
X271701Y113899D02*
X274654D01*
X228424Y420799D02*
X274180D01*
X272787Y119299D02*
X274077D01*
X272872Y114799D02*
X274023D01*
X273374Y118399D02*
X273684D01*
X273416Y115699D02*
X273655D01*
X229324Y419899D02*
X273280D01*
X230224Y418999D02*
X272380D01*
X231124Y418099D02*
X271480D01*
X232024Y417199D02*
X270580D01*
X232924Y416299D02*
X269680D01*
X265753Y120199D02*
X269024D01*
X265842Y113899D02*
X268795D01*
X233824Y415399D02*
X268780D01*
X258700Y212899D02*
X268724D01*
X258700Y209299D02*
X268534D01*
X258700Y211999D02*
X268099D01*
X258700Y210199D02*
X268027D01*
X258700Y211099D02*
X267902D01*
X234724Y414499D02*
X267880D01*
X266419Y119299D02*
X267709D01*
X266473Y114799D02*
X267624D01*
X266812Y118399D02*
X267122D01*
X266841Y115699D02*
X267080D01*
X235624Y413599D02*
X266980D01*
X236524Y412699D02*
X266080D01*
X237424Y411799D02*
X265180D01*
X238233Y410899D02*
X264280D01*
X262803Y271399D02*
X264042D01*
X238450Y409999D02*
X263380D01*
X241505Y280399D02*
X263344D01*
X253100Y324499D02*
X262663D01*
X238450Y409099D02*
X262480D01*
X224824Y424399D02*
X261943D01*
X240997Y279499D02*
X261862D01*
X238450Y408199D02*
X261580D01*
X216906Y431599D02*
X261530D01*
X253100Y334399D02*
X261225D01*
X239850Y278599D02*
X261084D01*
X240273Y274099D02*
X260694D01*
X238450Y407299D02*
X260680D01*
X223924Y425299D02*
X260623D01*
X240468Y277699D02*
X260618D01*
X253100Y325399D02*
X260466D01*
X217806Y430699D02*
X260439D01*
X240899Y274999D02*
X260408D01*
X240974Y276799D02*
X260368D01*
X241098Y275899D02*
X260301D01*
X231300Y121099D02*
X260172D01*
X231374Y112999D02*
X260000D01*
X223024Y426199D02*
X259963D01*
X253100Y333499D02*
X259912D01*
X219420Y429799D02*
X259862D01*
X237706Y273199D02*
X259794D01*
X238450Y406399D02*
X259780D01*
X222124Y427099D02*
X259611D01*
X220324Y428899D02*
X259565D01*
X253100Y326299D02*
X259488D01*
X221224Y427999D02*
X259486D01*
X253100Y332599D02*
X259148D01*
X255724Y120199D02*
X258995D01*
X255953Y113899D02*
X258906D01*
X238606Y272299D02*
X258894D01*
X238450Y405499D02*
X258880D01*
X253100Y327199D02*
X258878D01*
X253100Y331699D02*
X258663D01*
X253100Y328099D02*
X258499D01*
X253100Y330799D02*
X258379D01*
X257039Y119299D02*
X258329D01*
X253100Y328999D02*
X258300D01*
X257124Y114799D02*
X258275D01*
X253100Y329899D02*
X258261D01*
X239506Y271399D02*
X257994D01*
X238450Y404599D02*
X257980D01*
X257626Y118399D02*
X257936D01*
X257668Y115699D02*
X257907D01*
X240125Y270499D02*
X257094D01*
X238450Y403699D02*
X257080D01*
X240200Y269599D02*
X256194D01*
X238450Y402799D02*
X256180D01*
X240200Y268699D02*
X255450D01*
X240220Y267799D02*
X255300D01*
X241147Y266899D02*
X255300D01*
X241571Y265999D02*
X255300D01*
X241700Y265099D02*
X255300D01*
X241570Y264199D02*
X255300D01*
X241145Y263299D02*
X255300D01*
X240216Y262399D02*
X255300D01*
X232700Y261499D02*
X255300D01*
X232700Y260599D02*
X255300D01*
X232700Y259699D02*
X255300D01*
X232700Y258799D02*
X255300D01*
X232700Y257899D02*
X255300D01*
X232700Y256999D02*
X255300D01*
X232700Y256099D02*
X255300D01*
X232700Y255199D02*
X255300D01*
X232700Y254299D02*
X255300D01*
X232700Y253399D02*
X255300D01*
X232700Y252499D02*
X255300D01*
X232700Y251599D02*
X255300D01*
X232700Y250699D02*
X255300D01*
X232700Y249799D02*
X255300D01*
X232700Y248899D02*
X255300D01*
X232700Y247999D02*
X255300D01*
X232700Y247099D02*
X255300D01*
X232700Y246199D02*
X255300D01*
X232700Y245299D02*
X255300D01*
X232700Y244399D02*
X255300D01*
X232700Y243499D02*
X255300D01*
X232700Y242599D02*
X255300D01*
X232700Y241699D02*
X255300D01*
X232700Y240799D02*
X255300D01*
X232700Y239899D02*
X255300D01*
X232700Y238999D02*
X255300D01*
X250471Y238099D02*
X255300D01*
X252400Y237199D02*
X255300D01*
X253276Y236299D02*
X255300D01*
X253799Y235399D02*
X255300D01*
X254093Y234499D02*
X255300D01*
X254199Y233599D02*
X255300D01*
X254131Y232699D02*
X255300D01*
X253881Y231799D02*
X255300D01*
X253415Y230899D02*
X255300D01*
X252635Y229999D02*
X255300D01*
X251149Y229099D02*
X255300D01*
X232700Y228199D02*
X255300D01*
X232700Y227299D02*
X255300D01*
X232700Y226399D02*
X255300D01*
X232700Y225499D02*
X255300D01*
X232700Y224599D02*
X255300D01*
X232700Y223699D02*
X255300D01*
X232700Y222799D02*
X255300D01*
X232700Y221899D02*
X255300D01*
X232700Y220999D02*
X255300D01*
X233406Y220099D02*
X255300D01*
X234306Y219199D02*
X255300D01*
X235206Y218299D02*
X255300D01*
X236106Y217399D02*
X255300D01*
X239020Y216499D02*
X255300D01*
X243776Y215599D02*
X255300D01*
X244401Y214699D02*
X255300D01*
X244598Y213799D02*
X255300D01*
X244473Y212899D02*
X255300D01*
X243966Y211999D02*
X255300D01*
X239016Y211099D02*
X255300D01*
X104000Y210199D02*
X255300D01*
X104000Y209299D02*
X255300D01*
X238450Y401899D02*
X255280D01*
X104000Y208399D02*
X254882D01*
X104000Y203899D02*
X254497D01*
X238450Y400999D02*
X254380D01*
X104000Y207499D02*
X254173D01*
X104000Y204799D02*
X254034D01*
X104000Y199399D02*
X253969D01*
X104000Y206599D02*
X253856D01*
X104000Y205699D02*
X253814D01*
X238450Y400099D02*
X253480D01*
X104000Y202999D02*
X253375D01*
X231887Y120199D02*
X253276D01*
X104000Y200299D02*
X253194D01*
X231939Y113899D02*
X253047D01*
X104000Y202099D02*
X252970D01*
X104000Y201199D02*
X252917D01*
X238450Y399199D02*
X252580D01*
X232293Y119299D02*
X251961D01*
X232328Y114799D02*
X251876D01*
X238450Y398299D02*
X251680D01*
X232552Y118399D02*
X251374D01*
X232572Y115699D02*
X251332D01*
X232681Y117499D02*
X251112D01*
X232688Y116599D02*
X251099D01*
X238450Y397399D02*
X250780D01*
X238450Y396499D02*
X249880D01*
X238450Y395599D02*
X248980D01*
X245717Y284899D02*
X248790D01*
X232700Y238099D02*
X248529D01*
X238450Y394699D02*
X248154D01*
X232700Y229099D02*
X247851D01*
X246617Y285799D02*
X247810D01*
X238450Y393799D02*
X247767D01*
X238450Y392899D02*
X247700D01*
X238450Y391999D02*
X247700D01*
X238450Y391099D02*
X247700D01*
X238450Y390199D02*
X247700D01*
X238450Y389299D02*
X247700D01*
X238450Y388399D02*
X247700D01*
X238450Y387499D02*
X247700D01*
X238450Y386599D02*
X247700D01*
X238450Y385699D02*
X247700D01*
X238450Y384799D02*
X247700D01*
X238450Y383899D02*
X247700D01*
X238450Y382999D02*
X247700D01*
X238450Y382099D02*
X247700D01*
X238450Y381199D02*
X247700D01*
X238450Y380299D02*
X247700D01*
X238450Y379399D02*
X247700D01*
X238450Y378499D02*
X247700D01*
X238450Y377599D02*
X247700D01*
X238450Y376699D02*
X247700D01*
X238450Y375799D02*
X247700D01*
X238450Y374899D02*
X247700D01*
X238450Y373999D02*
X247700D01*
X238450Y373099D02*
X247700D01*
X238450Y372199D02*
X247700D01*
X238450Y371299D02*
X247700D01*
X238450Y370399D02*
X247700D01*
X238450Y369499D02*
X247700D01*
X238450Y368599D02*
X247700D01*
X238450Y367699D02*
X247700D01*
X238450Y366799D02*
X247700D01*
X238450Y365899D02*
X247700D01*
X238450Y364999D02*
X247700D01*
X238450Y364099D02*
X247700D01*
X238450Y363199D02*
X247700D01*
X238450Y362299D02*
X247700D01*
X238450Y361399D02*
X247700D01*
X238450Y360499D02*
X247700D01*
X238450Y359599D02*
X247700D01*
X238450Y358699D02*
X247700D01*
X238450Y357799D02*
X247700D01*
X238450Y356899D02*
X247700D01*
X238450Y355999D02*
X247700D01*
X238450Y355099D02*
X247700D01*
X238450Y354199D02*
X247700D01*
X238450Y353299D02*
X247700D01*
X238450Y352399D02*
X247700D01*
X238450Y351499D02*
X247700D01*
X238450Y350599D02*
X247700D01*
X238450Y349699D02*
X247700D01*
X238450Y348799D02*
X247700D01*
X238450Y347899D02*
X247700D01*
X238450Y346999D02*
X247700D01*
X238450Y346099D02*
X247700D01*
X238450Y345199D02*
X247700D01*
X238450Y344299D02*
X247700D01*
X241276Y343399D02*
X247700D01*
X241901Y342499D02*
X247700D01*
X242098Y341599D02*
X247700D01*
X241973Y340699D02*
X247700D01*
X241466Y339799D02*
X247700D01*
X238450Y338899D02*
X247700D01*
X238450Y337999D02*
X247700D01*
X238450Y337099D02*
X247700D01*
X238450Y336199D02*
X247700D01*
X238450Y335299D02*
X247700D01*
X238450Y334399D02*
X247700D01*
X238450Y333499D02*
X247700D01*
X238450Y332599D02*
X247700D01*
X238450Y331699D02*
X247700D01*
X238450Y330799D02*
X247700D01*
X238450Y329899D02*
X247700D01*
X238450Y328999D02*
X247700D01*
X238450Y328099D02*
X247700D01*
X238450Y327199D02*
X247700D01*
X238450Y326299D02*
X247700D01*
X238450Y325399D02*
X247700D01*
X238450Y324499D02*
X247700D01*
X238450Y323599D02*
X247700D01*
X238450Y322699D02*
X247700D01*
X238450Y321799D02*
X247700D01*
X238450Y320899D02*
X247700D01*
X238450Y319999D02*
X247700D01*
X238450Y319099D02*
X247700D01*
X238450Y318199D02*
X247700D01*
X238450Y317299D02*
X247700D01*
X238450Y316399D02*
X247700D01*
X241700Y309199D02*
X247700D01*
X241700Y308299D02*
X247700D01*
X241700Y307399D02*
X247700D01*
X241700Y306499D02*
X247700D01*
X241700Y305599D02*
X247700D01*
X241700Y304699D02*
X247700D01*
X241700Y303799D02*
X247700D01*
X241700Y302899D02*
X247700D01*
X241700Y301999D02*
X247700D01*
X241700Y301099D02*
X247700D01*
X241700Y300199D02*
X247700D01*
X241700Y299299D02*
X247700D01*
X241700Y298399D02*
X247700D01*
X241700Y297499D02*
X247700D01*
X241700Y296599D02*
X247700D01*
X241700Y295699D02*
X247700D01*
X241700Y294799D02*
X247700D01*
X241549Y293899D02*
X247080D01*
X232700Y237199D02*
X246600D01*
X232700Y229999D02*
X246365D01*
X240803Y292999D02*
X246180D01*
X232700Y236299D02*
X245724D01*
X232700Y230899D02*
X245585D01*
X239903Y292099D02*
X245280D01*
X232700Y235399D02*
X245201D01*
X232700Y231799D02*
X245119D01*
X232700Y234499D02*
X244907D01*
X232700Y232699D02*
X244869D01*
X232700Y233599D02*
X244801D01*
X238450Y315499D02*
X244748D01*
X241700Y310099D02*
X244436D01*
X239003Y291199D02*
X244380D01*
X238450Y314599D02*
X243724D01*
X241510Y310999D02*
X243590D01*
X238103Y290299D02*
X243480D01*
X238924Y313699D02*
X243260D01*
X240724Y311899D02*
X243202D01*
X239824Y312799D02*
X243102D01*
X104000Y155299D02*
X242624D01*
X237500Y289399D02*
X242580D01*
X104000Y151699D02*
X242434D01*
X104000Y154399D02*
X241999D01*
X104000Y152599D02*
X241927D01*
X104000Y153499D02*
X241802D01*
X237500Y288499D02*
X241680D01*
X237500Y287599D02*
X240780D01*
X239947Y215599D02*
X240224D01*
X239945Y211999D02*
X240034D01*
X237500Y286699D02*
X239880D01*
X237500Y285799D02*
X238980D01*
X232700Y300199D02*
X238300D01*
X232700Y299299D02*
X238300D01*
X232700Y298399D02*
X238300D01*
X232700Y297499D02*
X238300D01*
X232700Y296599D02*
X238300D01*
X232700Y295699D02*
X238300D01*
X237500Y284899D02*
X238080D01*
X232700Y294799D02*
X237794D01*
X232700Y293899D02*
X236894D01*
X232700Y310999D02*
X236815D01*
X232700Y268699D02*
X236800D01*
X232700Y262399D02*
X236784D01*
X232700Y267799D02*
X236780D01*
X232700Y269599D02*
X236497D01*
X232700Y292999D02*
X235994D01*
X232700Y301099D02*
X235990D01*
X232700Y311899D02*
X235915D01*
X232700Y263299D02*
X235855D01*
X232700Y266899D02*
X235853D01*
X232700Y270499D02*
X235597D01*
X104000Y211099D02*
X235584D01*
X232700Y264199D02*
X235430D01*
X232700Y265999D02*
X235429D01*
X232700Y265099D02*
X235300D01*
X232700Y312799D02*
X235187D01*
X232700Y292099D02*
X235094D01*
X217206Y409099D02*
X235050D01*
X218106Y408199D02*
X235050D01*
X219006Y407299D02*
X235050D01*
X219906Y406399D02*
X235050D01*
X220806Y405499D02*
X235050D01*
X221706Y404599D02*
X235050D01*
X222606Y403699D02*
X235050D01*
X223506Y402799D02*
X235050D01*
X224406Y401899D02*
X235050D01*
X225306Y400999D02*
X235050D01*
X226206Y400099D02*
X235050D01*
X227106Y399199D02*
X235050D01*
X228006Y398299D02*
X235050D01*
X228906Y397399D02*
X235050D01*
X229806Y396499D02*
X235050D01*
X230706Y395599D02*
X235050D01*
X231606Y394699D02*
X235050D01*
X232436Y393799D02*
X235050D01*
X232682Y392899D02*
X235050D01*
X232682Y391999D02*
X235050D01*
X232682Y391099D02*
X235050D01*
X232682Y390199D02*
X235050D01*
X232682Y389299D02*
X235050D01*
X232682Y388399D02*
X235050D01*
X232682Y387499D02*
X235050D01*
X232682Y386599D02*
X235050D01*
X232682Y385699D02*
X235050D01*
X232682Y384799D02*
X235050D01*
X232682Y383899D02*
X235050D01*
X232682Y382999D02*
X235050D01*
X232682Y382099D02*
X235050D01*
X232682Y381199D02*
X235050D01*
X232682Y380299D02*
X235050D01*
X232682Y379399D02*
X235050D01*
X232682Y378499D02*
X235050D01*
X232682Y377599D02*
X235050D01*
X232682Y376699D02*
X235050D01*
X232682Y375799D02*
X235050D01*
X232682Y374899D02*
X235050D01*
X232682Y373999D02*
X235050D01*
X232682Y373099D02*
X235050D01*
X232682Y372199D02*
X235050D01*
X232682Y371299D02*
X235050D01*
X232682Y370399D02*
X235050D01*
X232682Y369499D02*
X235050D01*
X232682Y368599D02*
X235050D01*
X232682Y367699D02*
X235050D01*
X232682Y366799D02*
X235050D01*
X232682Y365899D02*
X235050D01*
X232682Y364999D02*
X235050D01*
X232682Y364099D02*
X235050D01*
X232682Y363199D02*
X235050D01*
X232682Y362299D02*
X235050D01*
X232682Y361399D02*
X235050D01*
X232682Y360499D02*
X235050D01*
X232682Y359599D02*
X235050D01*
X232682Y358699D02*
X235050D01*
X232682Y357799D02*
X235050D01*
X232682Y356899D02*
X235050D01*
X232682Y355999D02*
X235050D01*
X232682Y355099D02*
X235050D01*
X232682Y354199D02*
X235050D01*
X232682Y353299D02*
X235050D01*
X232682Y352399D02*
X235050D01*
X232682Y351499D02*
X235050D01*
X232682Y350599D02*
X235050D01*
X232682Y349699D02*
X235050D01*
X232682Y348799D02*
X235050D01*
X232682Y347899D02*
X235050D01*
X232682Y346999D02*
X235050D01*
X232682Y346099D02*
X235050D01*
X232682Y345199D02*
X235050D01*
X232682Y344299D02*
X235050D01*
X232682Y343399D02*
X235050D01*
X232682Y342499D02*
X235050D01*
X232682Y341599D02*
X235050D01*
X232682Y340699D02*
X235050D01*
X232682Y339799D02*
X235050D01*
X232682Y338899D02*
X235050D01*
X232682Y337999D02*
X235050D01*
X232682Y337099D02*
X235050D01*
X232682Y336199D02*
X235050D01*
X232682Y335299D02*
X235050D01*
X232682Y334399D02*
X235050D01*
X232682Y333499D02*
X235050D01*
X232682Y332599D02*
X235050D01*
X232682Y331699D02*
X235050D01*
X232682Y330799D02*
X235050D01*
X232682Y329899D02*
X235050D01*
X232682Y328999D02*
X235050D01*
X232682Y328099D02*
X235050D01*
X232682Y327199D02*
X235050D01*
X232682Y326299D02*
X235050D01*
X232682Y325399D02*
X235050D01*
X232682Y324499D02*
X235050D01*
X232682Y323599D02*
X235050D01*
X232682Y322699D02*
X235050D01*
X232682Y321799D02*
X235050D01*
X232682Y320899D02*
X235050D01*
X232682Y319999D02*
X235050D01*
X232682Y319099D02*
X235050D01*
X232682Y318199D02*
X235050D01*
X232682Y317299D02*
X235050D01*
X232682Y316399D02*
X235050D01*
X232682Y315499D02*
X235050D01*
X232682Y314599D02*
X235050D01*
X232682Y313699D02*
X235050D01*
X232700Y301999D02*
X235010D01*
X232700Y304699D02*
X234948D01*
X232700Y271399D02*
X234697D01*
X232700Y305599D02*
X234660D01*
X104000Y211999D02*
X234655D01*
X232700Y302899D02*
X234649D01*
X232700Y303799D02*
X234631D01*
X216306Y409999D02*
X234415D01*
X232700Y291199D02*
X234299D01*
X104000Y212899D02*
X234230D01*
X232700Y310099D02*
X234223D01*
X232700Y272299D02*
X234148D01*
X232700Y290299D02*
X234100D01*
X232700Y289399D02*
X234100D01*
X232700Y288499D02*
X234100D01*
X232700Y287599D02*
X234100D01*
X232700Y286699D02*
X234100D01*
X232700Y285799D02*
X234100D01*
X232700Y284899D02*
X234100D01*
X232700Y283999D02*
X234100D01*
X232700Y283099D02*
X234100D01*
X232700Y282199D02*
X234100D01*
X232700Y281299D02*
X234100D01*
X232700Y280399D02*
X234100D01*
X232700Y279499D02*
X234100D01*
X232700Y278599D02*
X234100D01*
X232700Y277699D02*
X234100D01*
X232700Y276799D02*
X234100D01*
X232700Y275899D02*
X234100D01*
X232700Y274999D02*
X234100D01*
X232700Y274099D02*
X234100D01*
X232700Y273199D02*
X234100D01*
X104000Y213799D02*
X234100D01*
X132710Y214699D02*
X233997D01*
X232700Y306499D02*
X233696D01*
X232700Y309199D02*
X233525D01*
X215406Y410899D02*
X233515D01*
X232700Y307399D02*
X233317D01*
X232700Y308299D02*
X233266D01*
X170497Y215599D02*
X233097D01*
X214506Y411799D02*
X232615D01*
X171623Y216499D02*
X232197D01*
X213606Y412699D02*
X231715D01*
X172030Y217399D02*
X231297D01*
X212706Y413599D02*
X230815D01*
X172083Y218299D02*
X230397D01*
X211806Y414499D02*
X229915D01*
X171807Y219199D02*
X229559D01*
X228660Y305599D02*
X229300D01*
X198307Y304699D02*
X229300D01*
X198583Y303799D02*
X229300D01*
X198530Y302899D02*
X229300D01*
X198123Y301999D02*
X229300D01*
X196997Y301099D02*
X229300D01*
X196307Y300199D02*
X229300D01*
X228377Y299299D02*
X229300D01*
X228940Y298399D02*
X229300D01*
X229100Y297499D02*
X229300D01*
X228939Y296599D02*
X229300D01*
X228375Y295699D02*
X229300D01*
X196252Y294799D02*
X229300D01*
X196569Y293899D02*
X229300D01*
X196551Y292999D02*
X229300D01*
X196190Y292099D02*
X229300D01*
X195210Y291199D02*
X229300D01*
X195215Y290299D02*
X229300D01*
X196192Y289399D02*
X229300D01*
X196552Y288499D02*
X229300D01*
X196569Y287599D02*
X229300D01*
X196251Y286699D02*
X229300D01*
X195384Y285799D02*
X229300D01*
X104000Y284899D02*
X229300D01*
X104000Y283999D02*
X229300D01*
X104000Y283099D02*
X229300D01*
X104000Y282199D02*
X229300D01*
X104000Y281299D02*
X229300D01*
X104000Y280399D02*
X229300D01*
X104000Y279499D02*
X229300D01*
X104000Y278599D02*
X229300D01*
X191819Y277699D02*
X229300D01*
X193150Y276799D02*
X229300D01*
X193604Y275899D02*
X229300D01*
X193692Y274999D02*
X229300D01*
X193455Y274099D02*
X229300D01*
X192760Y273199D02*
X229300D01*
X104000Y272299D02*
X229300D01*
X104000Y271399D02*
X229300D01*
X104000Y270499D02*
X229300D01*
X104000Y269599D02*
X229300D01*
X104000Y268699D02*
X229300D01*
X104000Y267799D02*
X229300D01*
X104000Y266899D02*
X229300D01*
X104000Y265999D02*
X229300D01*
X104000Y265099D02*
X229300D01*
X104000Y264199D02*
X229300D01*
X104000Y263299D02*
X229300D01*
X104000Y262399D02*
X229300D01*
X104000Y261499D02*
X229300D01*
X104000Y260599D02*
X229300D01*
X104000Y259699D02*
X229300D01*
X104000Y258799D02*
X229300D01*
X104000Y257899D02*
X229300D01*
X104000Y256999D02*
X229300D01*
X104000Y256099D02*
X229300D01*
X104000Y255199D02*
X229300D01*
X104000Y254299D02*
X229300D01*
X104000Y253399D02*
X229300D01*
X104000Y252499D02*
X229300D01*
X104000Y251599D02*
X229300D01*
X104000Y250699D02*
X229300D01*
X104000Y249799D02*
X229300D01*
X104000Y248899D02*
X229300D01*
X104000Y247999D02*
X229300D01*
X104000Y247099D02*
X229300D01*
X104000Y246199D02*
X229300D01*
X104000Y245299D02*
X229300D01*
X104000Y244399D02*
X229300D01*
X104000Y243499D02*
X229300D01*
X104000Y242599D02*
X229300D01*
X104000Y241699D02*
X229300D01*
X104000Y240799D02*
X229300D01*
X104000Y239899D02*
X229300D01*
X104000Y238999D02*
X229300D01*
X104000Y238099D02*
X229300D01*
X104000Y237199D02*
X229300D01*
X104000Y236299D02*
X229300D01*
X104000Y235399D02*
X229300D01*
X104000Y234499D02*
X229300D01*
X104000Y233599D02*
X229300D01*
X193719Y232699D02*
X229300D01*
X195050Y231799D02*
X229300D01*
X195504Y230899D02*
X229300D01*
X195592Y229999D02*
X229300D01*
X195355Y229099D02*
X229300D01*
X194660Y228199D02*
X229300D01*
X104000Y227299D02*
X229300D01*
X104000Y226399D02*
X229300D01*
X104000Y225499D02*
X229300D01*
X104000Y224599D02*
X229300D01*
X104000Y223699D02*
X229300D01*
X104000Y222799D02*
X229300D01*
X104000Y221899D02*
X229300D01*
X104000Y220999D02*
X229300D01*
X171035Y220099D02*
X229300D01*
X104000Y391999D02*
X229282D01*
X104000Y391099D02*
X229282D01*
X104000Y390199D02*
X229282D01*
X104000Y389299D02*
X229282D01*
X104000Y388399D02*
X229282D01*
X104000Y387499D02*
X229282D01*
X104000Y386599D02*
X229282D01*
X104000Y385699D02*
X229282D01*
X104000Y384799D02*
X229282D01*
X104000Y383899D02*
X229282D01*
X104000Y382999D02*
X229282D01*
X104000Y382099D02*
X229282D01*
X104000Y381199D02*
X229282D01*
X104000Y380299D02*
X229282D01*
X104000Y379399D02*
X229282D01*
X104000Y378499D02*
X229282D01*
X104000Y377599D02*
X229282D01*
X104000Y376699D02*
X229282D01*
X104000Y375799D02*
X229282D01*
X104000Y374899D02*
X229282D01*
X104000Y373999D02*
X229282D01*
X104000Y373099D02*
X229282D01*
X104000Y372199D02*
X229282D01*
X104000Y371299D02*
X229282D01*
X104000Y370399D02*
X229282D01*
X104000Y369499D02*
X229282D01*
X104000Y368599D02*
X229282D01*
X104000Y367699D02*
X229282D01*
X104000Y366799D02*
X229282D01*
X104000Y365899D02*
X229282D01*
X104000Y364999D02*
X229282D01*
X104000Y364099D02*
X229282D01*
X104000Y363199D02*
X229282D01*
X104000Y362299D02*
X229282D01*
X104000Y361399D02*
X229282D01*
X104000Y360499D02*
X229282D01*
X104000Y359599D02*
X229282D01*
X104000Y358699D02*
X229282D01*
X104000Y357799D02*
X229282D01*
X104000Y356899D02*
X229282D01*
X104000Y355999D02*
X229282D01*
X104000Y355099D02*
X229282D01*
X104000Y354199D02*
X229282D01*
X104000Y353299D02*
X229282D01*
X104000Y352399D02*
X229282D01*
X104000Y351499D02*
X229282D01*
X104000Y350599D02*
X229282D01*
X104000Y349699D02*
X229282D01*
X104000Y348799D02*
X229282D01*
X104000Y347899D02*
X229282D01*
X104000Y346999D02*
X229282D01*
X104000Y346099D02*
X229282D01*
X104000Y345199D02*
X229282D01*
X104000Y344299D02*
X229282D01*
X104000Y343399D02*
X229282D01*
X104000Y342499D02*
X229282D01*
X104000Y341599D02*
X229282D01*
X104000Y340699D02*
X229282D01*
X104000Y339799D02*
X229282D01*
X104000Y338899D02*
X229282D01*
X104000Y337999D02*
X229282D01*
X104000Y337099D02*
X229282D01*
X104000Y336199D02*
X229282D01*
X104000Y335299D02*
X229282D01*
X104000Y334399D02*
X229282D01*
X104000Y333499D02*
X229282D01*
X104000Y332599D02*
X229282D01*
X104000Y331699D02*
X229282D01*
X104000Y330799D02*
X229282D01*
X104000Y329899D02*
X229282D01*
X104000Y328999D02*
X229282D01*
X104000Y328099D02*
X229282D01*
X199529Y327199D02*
X229282D01*
X201080Y326299D02*
X229282D01*
X201599Y325399D02*
X229282D01*
X201750Y324499D02*
X229282D01*
X201598Y323599D02*
X229282D01*
X201078Y322699D02*
X229282D01*
X199515Y321799D02*
X229282D01*
X104000Y320899D02*
X229282D01*
X104000Y319999D02*
X229282D01*
X104000Y319099D02*
X229282D01*
X104000Y318199D02*
X229282D01*
X104000Y317299D02*
X229282D01*
X104000Y316399D02*
X229282D01*
X104000Y315499D02*
X229282D01*
X104000Y314599D02*
X229282D01*
X228535Y313699D02*
X229282D01*
X210906Y415399D02*
X229015D01*
X104000Y392899D02*
X228597D01*
X210006Y416299D02*
X228115D01*
X104000Y393799D02*
X227697D01*
X209106Y417199D02*
X227215D01*
X104000Y394699D02*
X226797D01*
X208206Y418099D02*
X226315D01*
X104000Y395599D02*
X225897D01*
X104000Y313699D02*
X225465D01*
X207306Y418999D02*
X225415D01*
X197535Y305599D02*
X225340D01*
X104000Y396499D02*
X224997D01*
X165473Y309199D02*
X224950D01*
X165598Y310099D02*
X224877D01*
X207161Y143599D02*
X224839D01*
X104000Y312799D02*
X224693D01*
X104000Y306499D02*
X224645D01*
X195388Y295699D02*
X224625D01*
X196583Y299299D02*
X224623D01*
X177106Y419899D02*
X224515D01*
X164966Y308299D02*
X224496D01*
X165401Y310999D02*
X224470D01*
X164776Y311899D02*
X224417D01*
X104000Y307399D02*
X224408D01*
X104000Y397399D02*
X224097D01*
X194997Y296599D02*
X224061D01*
X196530Y298399D02*
X224060D01*
X196123Y297499D02*
X223900D01*
X176206Y420799D02*
X223615D01*
X104000Y398299D02*
X223197D01*
X219166Y130999D02*
X223021D01*
X219031Y122899D02*
X222823D01*
X175306Y421699D02*
X222715D01*
X209352Y111199D02*
X222648D01*
X209524Y142699D02*
X222476D01*
X104000Y399199D02*
X222297D01*
X174406Y422599D02*
X221815D01*
X217419Y131899D02*
X221656D01*
X216999Y121999D02*
X221539D01*
X210568Y112099D02*
X221432D01*
X104000Y400099D02*
X221397D01*
X210676Y141799D02*
X221324D01*
X173506Y423499D02*
X220915D01*
X211219Y132799D02*
X220781D01*
X211300Y121099D02*
X220700D01*
X211374Y112999D02*
X220626D01*
X211449Y140899D02*
X220551D01*
X104000Y400999D02*
X220497D01*
X211830Y133699D02*
X220170D01*
X211887Y120199D02*
X220113D01*
X211939Y113899D02*
X220061D01*
X172606Y424399D02*
X220015D01*
X211992Y139999D02*
X220008D01*
X212255Y134599D02*
X219745D01*
X212293Y119299D02*
X219707D01*
X212328Y114799D02*
X219672D01*
X212363Y139099D02*
X219637D01*
X104000Y401899D02*
X219597D01*
X212530Y135499D02*
X219470D01*
X212552Y118399D02*
X219448D01*
X212572Y115699D02*
X219428D01*
X212592Y138199D02*
X219408D01*
X212673Y136399D02*
X219327D01*
X212681Y117499D02*
X219319D01*
X212688Y116599D02*
X219312D01*
X212693Y137299D02*
X219307D01*
X171706Y425299D02*
X219115D01*
X104000Y402799D02*
X218697D01*
X170806Y426199D02*
X218215D01*
X104000Y403699D02*
X217797D01*
X104000Y404599D02*
X216897D01*
X170300Y427099D02*
X216644D01*
X104000Y405499D02*
X215997D01*
X170300Y427999D02*
X215697D01*
X104000Y406399D02*
X215097D01*
X210461Y121999D02*
X215001D01*
X170300Y428899D02*
X214797D01*
X210344Y131899D02*
X214581D01*
X104000Y407299D02*
X214197D01*
X104000Y408199D02*
X213297D01*
X209177Y122899D02*
X212969D01*
X208979Y130999D02*
X212834D01*
X104000Y409099D02*
X212397D01*
X170300Y429799D02*
X212050D01*
X154470Y123799D02*
X212030D01*
X154551Y130099D02*
X211949D01*
X104000Y409999D02*
X211497D01*
X155051Y124699D02*
X211449D01*
X170599Y435199D02*
X211401D01*
X155102Y129199D02*
X211398D01*
X155404Y125599D02*
X211096D01*
X155432Y128299D02*
X211068D01*
X155575Y126499D02*
X210925D01*
X155584Y127399D02*
X210916D01*
X171097Y430699D02*
X210903D01*
X171372Y434299D02*
X210628D01*
X104000Y410899D02*
X210597D01*
X171605Y431599D02*
X210395D01*
X171723Y433399D02*
X210277D01*
X171794Y432499D02*
X210206D01*
X104000Y411799D02*
X209697D01*
X104000Y412699D02*
X208797D01*
X104000Y413599D02*
X207897D01*
X104000Y414499D02*
X206997D01*
X104000Y415399D02*
X206097D01*
X161661Y143599D02*
X204839D01*
X163479Y130999D02*
X203021D01*
X163677Y122899D02*
X202823D01*
X163852Y111199D02*
X202648D01*
X164024Y142699D02*
X202476D01*
X164844Y131899D02*
X201656D01*
X164961Y121999D02*
X201539D01*
X165068Y112099D02*
X201432D01*
X165176Y141799D02*
X201324D01*
X165719Y132799D02*
X200781D01*
X165800Y121099D02*
X200700D01*
X165874Y112999D02*
X200626D01*
X165949Y140899D02*
X200551D01*
X166330Y133699D02*
X200170D01*
X166387Y120199D02*
X200113D01*
X166439Y113899D02*
X200061D01*
X166492Y139999D02*
X200008D01*
X182161Y494599D02*
X199839D01*
X166755Y134599D02*
X199745D01*
X166793Y119299D02*
X199707D01*
X166828Y114799D02*
X199672D01*
X166863Y139099D02*
X199637D01*
X167030Y135499D02*
X199470D01*
X167052Y118399D02*
X199448D01*
X167072Y115699D02*
X199428D01*
X167092Y138199D02*
X199408D01*
X167173Y136399D02*
X199327D01*
X167181Y117499D02*
X199319D01*
X167188Y116599D02*
X199312D01*
X167193Y137299D02*
X199307D01*
X104000Y321799D02*
X198485D01*
X104000Y327199D02*
X198471D01*
X194166Y481999D02*
X198021D01*
X194031Y473899D02*
X197823D01*
X184352Y462199D02*
X197648D01*
X184524Y493699D02*
X197476D01*
X104000Y322699D02*
X196922D01*
X104000Y326299D02*
X196920D01*
X192419Y482899D02*
X196656D01*
X191999Y472999D02*
X196539D01*
X185568Y463099D02*
X196432D01*
X104000Y323599D02*
X196402D01*
X104000Y325399D02*
X196401D01*
X185676Y492799D02*
X196324D01*
X104000Y324499D02*
X196250D01*
X186219Y483799D02*
X195781D01*
X186300Y472099D02*
X195700D01*
X186374Y463999D02*
X195626D01*
X186449Y491899D02*
X195551D01*
X186830Y484699D02*
X195170D01*
X186887Y471199D02*
X195113D01*
X186939Y464899D02*
X195061D01*
X186992Y490999D02*
X195008D01*
X187255Y485599D02*
X194745D01*
X187293Y470299D02*
X194707D01*
X187328Y465799D02*
X194672D01*
X187363Y490099D02*
X194637D01*
X187530Y486499D02*
X194470D01*
X104000Y305599D02*
X194465D01*
X187552Y469399D02*
X194448D01*
X187572Y466699D02*
X194428D01*
X187592Y489199D02*
X194408D01*
X187673Y487399D02*
X194327D01*
X187681Y468499D02*
X194319D01*
X187688Y467599D02*
X194312D01*
X187693Y488299D02*
X194307D01*
X104000Y301999D02*
X193877D01*
X104000Y304699D02*
X193693D01*
X104000Y302899D02*
X193470D01*
X104000Y303799D02*
X193417D01*
X104000Y296599D02*
X193003D01*
X104000Y291199D02*
X192790D01*
X104000Y290299D02*
X192785D01*
X104000Y285799D02*
X192616D01*
X104000Y295699D02*
X192612D01*
X104000Y301099D02*
X192465D01*
X104000Y232699D02*
X192281D01*
X104000Y297499D02*
X191877D01*
X104000Y292099D02*
X191810D01*
X104000Y289399D02*
X191808D01*
X104000Y286699D02*
X191749D01*
X104000Y294799D02*
X191748D01*
X104000Y300199D02*
X191693D01*
X104000Y298399D02*
X191470D01*
X104000Y292999D02*
X191449D01*
X104000Y288499D02*
X191448D01*
X104000Y287599D02*
X191431D01*
X104000Y293899D02*
X191431D01*
X104000Y299299D02*
X191417D01*
X104000Y228199D02*
X191340D01*
X104000Y231799D02*
X190950D01*
X104000Y229099D02*
X190645D01*
X104000Y230899D02*
X190496D01*
X104000Y229999D02*
X190408D01*
X104000Y277699D02*
X190381D01*
X185461Y472999D02*
X190001D01*
X185344Y482899D02*
X189581D01*
X104000Y273199D02*
X189440D01*
X104000Y276799D02*
X189050D01*
X104000Y274099D02*
X188745D01*
X104000Y275899D02*
X188596D01*
X104000Y274999D02*
X188508D01*
X184177Y473899D02*
X187969D01*
X183979Y481999D02*
X187834D01*
X104000Y474799D02*
X187030D01*
X104000Y481099D02*
X186949D01*
X104000Y475699D02*
X186449D01*
X104000Y480199D02*
X186398D01*
X104000Y476599D02*
X186096D01*
X104000Y479299D02*
X186068D01*
X104000Y477499D02*
X185925D01*
X104000Y478399D02*
X185916D01*
X104000Y494599D02*
X179839D01*
X104000Y481999D02*
X178021D01*
X104000Y473899D02*
X177823D01*
X104000Y462199D02*
X177648D01*
X104000Y493699D02*
X177476D01*
X104000Y482899D02*
X176656D01*
X104000Y472999D02*
X176539D01*
X104000Y463099D02*
X176432D01*
X104000Y492799D02*
X176324D01*
X104000Y416299D02*
X176002D01*
X104000Y483799D02*
X175781D01*
X104000Y472099D02*
X175700D01*
X104000Y463999D02*
X175626D01*
X104000Y491899D02*
X175551D01*
X104000Y484699D02*
X175170D01*
X104000Y471199D02*
X175113D01*
X104000Y464899D02*
X175061D01*
X104000Y490999D02*
X175008D01*
X104000Y417199D02*
X174997D01*
X104000Y485599D02*
X174745D01*
X104000Y470299D02*
X174707D01*
X104000Y465799D02*
X174672D01*
X104000Y490099D02*
X174637D01*
X104000Y486499D02*
X174470D01*
X104000Y469399D02*
X174448D01*
X104000Y466699D02*
X174428D01*
X104000Y489199D02*
X174408D01*
X104000Y487399D02*
X174327D01*
X104000Y468499D02*
X174319D01*
X104000Y467599D02*
X174312D01*
X104000Y488299D02*
X174307D01*
X104000Y418099D02*
X174097D01*
X104000Y418999D02*
X173197D01*
X104000Y419899D02*
X172297D01*
X104000Y420799D02*
X171397D01*
X104000Y421699D02*
X170497D01*
X104000Y422599D02*
X169597D01*
X104000Y423499D02*
X168697D01*
X133690Y215599D02*
X168503D01*
X104000Y220099D02*
X167965D01*
X104000Y424399D02*
X167797D01*
X134051Y216499D02*
X167377D01*
X132888Y219199D02*
X167193D01*
X104000Y425299D02*
X167051D01*
X134069Y217399D02*
X166970D01*
X133752Y218299D02*
X166917D01*
X104000Y429799D02*
X166900D01*
X104000Y428899D02*
X166900D01*
X104000Y427999D02*
X166900D01*
X104000Y427099D02*
X166900D01*
X104000Y426199D02*
X166900D01*
X104000Y435199D02*
X166601D01*
X104000Y430699D02*
X166103D01*
X104000Y434299D02*
X165828D01*
X104000Y431599D02*
X165595D01*
X104000Y433399D02*
X165477D01*
X104000Y432499D02*
X165406D01*
X104000Y311899D02*
X161224D01*
X104000Y308299D02*
X161034D01*
X104000Y310999D02*
X160599D01*
X104000Y309199D02*
X160527D01*
X104000Y310099D02*
X160402D01*
X141661Y143599D02*
X159339D01*
X153666Y130999D02*
X157521D01*
X153531Y122899D02*
X157323D01*
X143852Y111199D02*
X157148D01*
X144024Y142699D02*
X156976D01*
X151919Y131899D02*
X156156D01*
X151499Y121999D02*
X156039D01*
X145068Y112099D02*
X155932D01*
X145176Y141799D02*
X155824D01*
X145719Y132799D02*
X155281D01*
X145800Y121099D02*
X155200D01*
X145874Y112999D02*
X155126D01*
X145949Y140899D02*
X155051D01*
X146330Y133699D02*
X154670D01*
X146387Y120199D02*
X154613D01*
X146439Y113899D02*
X154561D01*
X146492Y139999D02*
X154508D01*
X146755Y134599D02*
X154245D01*
X146793Y119299D02*
X154207D01*
X146828Y114799D02*
X154172D01*
X146863Y139099D02*
X154137D01*
X147030Y135499D02*
X153970D01*
X147052Y118399D02*
X153948D01*
X147072Y115699D02*
X153928D01*
X147092Y138199D02*
X153908D01*
X147173Y136399D02*
X153827D01*
X147181Y117499D02*
X153819D01*
X147188Y116599D02*
X153812D01*
X147193Y137299D02*
X153807D01*
X144961Y121999D02*
X149501D01*
X144844Y131899D02*
X149081D01*
X143677Y122899D02*
X147469D01*
X143479Y130999D02*
X147334D01*
X104000Y123799D02*
X146530D01*
X104000Y130099D02*
X146449D01*
X104000Y124699D02*
X145949D01*
X104000Y129199D02*
X145898D01*
X104000Y125599D02*
X145596D01*
X104000Y128299D02*
X145568D01*
X104000Y126499D02*
X145425D01*
X104000Y127399D02*
X145416D01*
X104000Y143599D02*
X139339D01*
X104000Y130999D02*
X137521D01*
X104000Y122899D02*
X137323D01*
X104000Y111199D02*
X137148D01*
X104000Y142699D02*
X136976D01*
X104000Y131899D02*
X136156D01*
X104000Y121999D02*
X136039D01*
X104000Y112099D02*
X135932D01*
X104000Y141799D02*
X135824D01*
X104000Y132799D02*
X135281D01*
X104000Y121099D02*
X135200D01*
X104000Y112999D02*
X135126D01*
X104000Y140899D02*
X135051D01*
X104000Y133699D02*
X134670D01*
X104000Y120199D02*
X134613D01*
X104000Y113899D02*
X134561D01*
X104000Y139999D02*
X134508D01*
X104000Y134599D02*
X134245D01*
X104000Y119299D02*
X134207D01*
X104000Y114799D02*
X134172D01*
X104000Y139099D02*
X134137D01*
X104000Y135499D02*
X133970D01*
X104000Y118399D02*
X133948D01*
X104000Y115699D02*
X133928D01*
X104000Y138199D02*
X133908D01*
X104000Y136399D02*
X133827D01*
X104000Y117499D02*
X133819D01*
X104000Y116599D02*
X133812D01*
X104000Y137299D02*
X133807D01*
X104000Y214699D02*
X130290D01*
X104000Y219199D02*
X130112D01*
X104000Y215599D02*
X129310D01*
X104000Y218299D02*
X129248D01*
X104000Y216499D02*
X128949D01*
X104000Y217399D02*
X128931D01*
G54D18*
X316500Y467346D03*
G54D19*
X160500Y117000D03*
X140500D03*
Y137000D03*
X160500D03*
X201000Y468000D03*
X181000D03*
Y488000D03*
X201000D03*
X206000Y137000D03*
X226000D03*
Y117000D03*
X206000D03*
G54D24*
X262374D03*
X278122D03*
X312874D03*
G54D27*
X115000Y115000D03*
Y490000D03*
X362000D03*
Y115000D03*
X178500Y350000D03*
G54D32*
X238500Y281500D02*
X250400Y293400D01*
Y312700*
X246300D02*
X250400D01*
Y393200*
X281200Y424000*
X109500Y105600D03*
X152300D03*
X130900D03*
X195100D03*
X184400Y116300D03*
X173700Y105600D03*
X237900D03*
X216500D03*
X280700D03*
X259300D03*
X248600Y116300D03*
X323500Y105600D03*
X302100D03*
X291400Y116300D03*
X366300Y105600D03*
X344900D03*
X334200Y116300D03*
X120200Y137700D03*
X109500Y148400D03*
Y127000D03*
X163000Y159100D03*
X130900Y148400D03*
Y127000D03*
X158000Y144500D03*
Y159500D03*
Y154500D03*
Y149500D03*
X143000Y159500D03*
Y154500D03*
Y149500D03*
Y144500D03*
X195100Y148400D03*
Y127000D03*
X184400Y159100D03*
Y137700D03*
X173700Y148400D03*
Y127000D03*
X223500Y144500D03*
X237900Y148400D03*
Y127000D03*
X208500Y144500D03*
Y149500D03*
Y159500D03*
Y154500D03*
X223500Y159000D03*
Y154000D03*
Y149000D03*
X267000Y158000D03*
X270000Y137700D03*
X248600D03*
X323500Y127000D03*
X312800Y137700D03*
X302100Y148400D03*
X291400Y137700D03*
X366000Y158000D03*
X343500Y153000D03*
X355600Y137700D03*
X344900Y127000D03*
X334200Y137700D03*
X120200Y180500D03*
X163000D03*
X130900Y191200D03*
Y169800D03*
X158000Y169500D03*
Y164500D03*
Y189500D03*
Y184500D03*
Y179500D03*
Y174500D03*
Y199500D03*
Y194500D03*
X143000Y174500D03*
Y169500D03*
Y164500D03*
Y199500D03*
Y194500D03*
Y189500D03*
Y184500D03*
Y179500D03*
X195100Y191200D03*
Y169800D03*
X184400Y180500D03*
X173700Y191200D03*
Y169800D03*
X237900D03*
X236800Y197800D03*
X208500Y174500D03*
Y169500D03*
Y164500D03*
Y199500D03*
Y194500D03*
Y189500D03*
Y184500D03*
Y179500D03*
X223500Y189000D03*
Y184000D03*
Y179000D03*
Y174000D03*
Y169000D03*
Y164000D03*
Y199000D03*
Y194000D03*
X280700Y191200D03*
Y169800D03*
X250000Y194000D03*
Y182000D03*
X254500D03*
X319500Y188000D03*
X324000Y197500D03*
X323500Y169800D03*
X302100D03*
X324000Y201500D03*
X342500Y199500D03*
X355600Y180500D03*
X344900Y169800D03*
X338500Y199500D03*
X120200Y201900D03*
X125500Y227500D03*
X120000Y222500D03*
X125500Y217500D03*
X140500Y237500D03*
X163000Y201900D03*
X130900Y234000D03*
Y212600D03*
X164500Y237500D03*
X159500D03*
X158000Y219500D03*
Y214500D03*
Y209500D03*
Y204500D03*
Y224500D03*
X143000Y204500D03*
Y224500D03*
Y219500D03*
Y214500D03*
Y209500D03*
X184400Y201900D03*
X189500Y237500D03*
X184500D03*
X179500D03*
X174500D03*
X175500Y217500D03*
X181000Y222500D03*
X175500Y227500D03*
X204500Y237500D03*
X199500D03*
X194500D03*
X237300Y213800D03*
X237900Y234000D03*
X208500Y204500D03*
Y224500D03*
Y219500D03*
Y209500D03*
Y234500D03*
Y229500D03*
X223500Y204000D03*
Y234000D03*
Y229000D03*
Y224000D03*
Y219000D03*
Y209000D03*
Y239000D03*
X267000Y224000D03*
X257000Y206000D03*
X248600Y223300D03*
X308000Y235000D03*
X318500Y217000D03*
X304600D03*
X287000Y224400D03*
X294000Y210000D03*
X298000Y206000D03*
X294000D03*
X324000Y205500D03*
X320000D03*
X298000Y210000D03*
X338500Y217000D03*
X347500Y221000D03*
X334000Y241000D03*
X335000Y219000D03*
X339500Y222500D03*
X344900Y212600D03*
X120200Y266100D03*
Y244700D03*
X140500Y272500D03*
Y267500D03*
Y262500D03*
Y257500D03*
Y252500D03*
Y247500D03*
Y242500D03*
Y277500D03*
X130900Y276800D03*
Y255400D03*
X160500Y252500D03*
X155500D03*
X165500D03*
X155500Y279000D03*
Y274000D03*
Y269000D03*
Y264000D03*
Y259000D03*
X165000D03*
Y266500D03*
Y274500D03*
X189000Y266500D03*
X181000Y274500D03*
X200500Y252500D03*
X195500D03*
X190500D03*
X185500D03*
X180500D03*
X175500D03*
X173000Y259000D03*
Y274500D03*
Y266500D03*
X197000Y259000D03*
X189000D03*
X205500Y262500D03*
Y267500D03*
Y272500D03*
Y277500D03*
X238500Y265100D03*
X227200Y266100D03*
X221000Y254500D03*
X223500Y244000D03*
X221000Y259500D03*
Y264500D03*
Y269500D03*
Y274500D03*
Y279500D03*
X238500Y281500D03*
X267000Y246000D03*
X280700Y276800D03*
X270000Y266100D03*
X259300Y276800D03*
X248600Y244700D03*
X287200Y251400D03*
X326500Y245000D03*
X316500Y248500D03*
X320500D03*
X312800Y266100D03*
X302100Y276800D03*
Y255400D03*
X344900Y276800D03*
Y255400D03*
X120200Y308900D03*
Y287500D03*
X140500Y282500D03*
Y312500D03*
Y307500D03*
Y302500D03*
Y297500D03*
Y292500D03*
Y287500D03*
Y317500D03*
X163000Y293500D03*
Y299000D03*
X130900Y319600D03*
Y298200D03*
X155500Y294000D03*
Y289000D03*
Y284000D03*
Y319000D03*
Y314000D03*
Y309000D03*
Y304000D03*
Y299000D03*
X205118Y309252D03*
X178000Y315000D03*
X170500Y284500D03*
X178000Y310500D03*
Y284500D03*
X205118Y313386D03*
Y300591D03*
Y304921D03*
X196500Y308500D03*
Y312500D03*
Y316500D03*
X200500Y320500D03*
X205500Y287500D03*
Y282500D03*
X209252Y309252D03*
X213583D03*
X217717Y304921D03*
X209252Y300591D03*
X241500Y291000D03*
X246000Y295500D03*
X213583Y300591D03*
Y304921D03*
X217900Y300600D03*
X217717Y313386D03*
X209252D03*
X213583D03*
X217717Y309252D03*
X209252Y304921D03*
X221000Y284500D03*
X246300Y312700D03*
X285500Y306500D03*
X280700Y319600D03*
Y298200D03*
X270000Y308900D03*
Y287500D03*
X259300Y319600D03*
X312800Y287500D03*
X291000Y304000D03*
X120200Y351700D03*
Y330300D03*
X140500Y322500D03*
Y357500D03*
Y352500D03*
Y347500D03*
Y342500D03*
Y337500D03*
Y332500D03*
Y327500D03*
X130900Y341000D03*
X162500Y326000D03*
Y334000D03*
Y342000D03*
Y350000D03*
Y358000D03*
X155500Y324000D03*
Y359000D03*
Y354000D03*
Y349000D03*
Y344000D03*
Y339000D03*
Y334000D03*
Y329000D03*
X194500Y358000D03*
Y350000D03*
Y342000D03*
Y334000D03*
Y326000D03*
X186500Y358000D03*
Y342000D03*
Y334000D03*
Y326000D03*
X178500Y334000D03*
Y326000D03*
X170500Y358000D03*
Y342000D03*
X206000Y332000D03*
Y337000D03*
Y342000D03*
Y347000D03*
Y352000D03*
Y357000D03*
X170500Y326000D03*
Y334000D03*
X243000Y328000D03*
X224500Y354500D03*
X227200Y330300D03*
X224500Y349500D03*
X221000Y347000D03*
Y327000D03*
Y332000D03*
Y337000D03*
Y357000D03*
Y342000D03*
X280700Y341000D03*
X270000Y351700D03*
Y330300D03*
X259300Y341000D03*
X257000Y334500D03*
X302100Y341000D03*
X294100Y356500D03*
X355600Y330300D03*
X334200D03*
X120200Y394500D03*
Y373100D03*
X140500Y362500D03*
X141600Y394500D03*
X130900Y383800D03*
Y362400D03*
X157700Y375400D03*
X161500Y401500D03*
X157500Y398500D03*
X153500Y395500D03*
X150500Y392000D03*
X162500Y366000D03*
X156000Y370500D03*
X142000Y374000D03*
X141000Y369000D03*
X160500Y379500D03*
X163500Y383500D03*
X148000Y388500D03*
X145500Y383900D03*
X143500Y379000D03*
X155500Y365500D03*
X194500Y382000D03*
Y374000D03*
Y366000D03*
X186500Y382000D03*
Y374000D03*
Y366000D03*
X178500Y382000D03*
Y374000D03*
Y366000D03*
X170500Y374000D03*
Y366000D03*
X206000Y362000D03*
Y373500D03*
X181500Y394000D03*
X198500Y392000D03*
X202500Y388000D03*
X186500Y394500D03*
X206000Y368500D03*
X171500Y390500D03*
X176500Y392500D03*
X194000Y394500D03*
X167500Y387500D03*
X206000Y378500D03*
X205000Y383500D03*
X234000Y394000D03*
Y362500D03*
Y373000D03*
Y383500D03*
X227200Y373100D03*
X221000Y366500D03*
Y380500D03*
Y375500D03*
X216000Y395000D03*
X221000Y362000D03*
X213000Y398500D03*
X221000Y371000D03*
X220000Y385500D03*
X218000Y390500D03*
X280700Y383800D03*
X270000Y394500D03*
Y373100D03*
X259300Y383800D03*
Y362400D03*
X323500Y383800D03*
X302100D03*
X344900D03*
X120200Y415900D03*
X163000D03*
X152300Y405200D03*
X141600Y415900D03*
X130900Y426600D03*
Y405200D03*
X166000Y404000D03*
X162500Y423500D03*
Y433500D03*
X157000Y428500D03*
X183500Y441000D03*
Y436000D03*
Y431000D03*
Y426000D03*
Y421000D03*
X198500Y436000D03*
Y431000D03*
Y426000D03*
Y421000D03*
Y441000D03*
X168600Y432700D03*
X170500Y406500D03*
X181000Y409000D03*
X175500Y408000D03*
X204500Y405500D03*
X199500Y408000D03*
X213400Y432700D03*
X237900Y426600D03*
X234000Y404500D03*
X219500Y423500D03*
Y433500D03*
X209000Y402500D03*
X225000Y428500D03*
X267000Y422000D03*
X280700Y405200D03*
X248600Y415900D03*
X281200Y424000D03*
X300000Y433000D03*
X291000Y408000D03*
X120200Y480100D03*
Y458700D03*
X109500Y469400D03*
Y448000D03*
X163000Y458700D03*
X152300Y448000D03*
X141600Y480100D03*
Y458700D03*
X130900Y469400D03*
Y448000D03*
X183500Y461000D03*
Y456000D03*
Y451000D03*
Y446000D03*
X198500Y456000D03*
Y451000D03*
Y446000D03*
Y461000D03*
X205800Y480100D03*
Y458700D03*
X173700Y448000D03*
X237900Y469400D03*
Y448000D03*
X227200Y480100D03*
Y458700D03*
X216500Y469400D03*
Y448000D03*
X278000Y477000D03*
X256000D03*
X280700Y448000D03*
X270000Y458700D03*
X259300Y448000D03*
X248600Y458700D03*
X300000Y477000D03*
Y455000D03*
X289000Y466000D03*
X323500Y448000D03*
X366300Y469400D03*
Y448000D03*
X355600Y480100D03*
Y458700D03*
X344900Y469400D03*
Y448000D03*
X334200Y480100D03*
Y458700D03*
X157000Y488000D03*
X146000Y499000D03*
X130900Y490800D03*
X190000Y499000D03*
X173700Y490800D03*
X237900D03*
X216500D03*
X278000Y499000D03*
X267000Y488000D03*
X256000Y499000D03*
X322000D03*
X300000D03*
X289000Y488000D03*
X344900Y490800D03*
G54D33*
X155762Y112262D02*
X156964Y113464D01*
X165238Y112262D02*
X164036Y113464D01*
X165238Y121738D02*
X164036Y120536D01*
X155762Y121738D02*
X156964Y120536D01*
X135762Y112262D02*
X136964Y113464D01*
X145238Y112262D02*
X144036Y113464D01*
X145238Y121738D02*
X144036Y120536D01*
X135762Y121738D02*
X136964Y120536D01*
X135762Y132262D02*
X136964Y133464D01*
X145238Y132262D02*
X144036Y133464D01*
X145238Y141738D02*
X144036Y140536D01*
X135762Y141738D02*
X136964Y140536D01*
X155762Y132262D02*
X156964Y133464D01*
X165238Y132262D02*
X164036Y133464D01*
X165238Y141738D02*
X164036Y140536D01*
X155762Y141738D02*
X156964Y140536D01*
X210738Y141738D02*
X209536Y140536D01*
X201262Y141738D02*
X202464Y140536D01*
X201262Y132262D02*
X202464Y133464D01*
X210738Y132262D02*
X209536Y133464D01*
X230738Y141738D02*
X229536Y140536D01*
X221262Y141738D02*
X222464Y140536D01*
X221262Y132262D02*
X222464Y133464D01*
X230738Y132262D02*
X229536Y133464D01*
X230738Y121738D02*
X229536Y120536D01*
X221262Y121738D02*
X222464Y120536D01*
X221262Y112262D02*
X222464Y113464D01*
X230738Y112262D02*
X229536Y113464D01*
X210738Y121738D02*
X209536Y120536D01*
X201262Y121738D02*
X202464Y120536D01*
X201262Y112262D02*
X202464Y113464D01*
X210738Y112262D02*
X209536Y113464D01*
X265664Y120290D02*
X264462Y119088D01*
X259084Y120290D02*
X260286Y119088D01*
X259084Y113710D02*
X260286Y114912D01*
X265664Y113710D02*
X264462Y114912D01*
X281412Y120290D02*
X280210Y119088D01*
X274832Y120290D02*
X276034Y119088D01*
X274832Y113710D02*
X276034Y114912D01*
X281412Y113710D02*
X280210Y114912D01*
X316164Y120290D02*
X314962Y119088D01*
X309584Y120290D02*
X310786Y119088D01*
X309584Y113710D02*
X310786Y114912D01*
X316164Y113710D02*
X314962Y114912D01*
X252823Y236823D02*
X251621Y235621D01*
X246177Y236823D02*
X247379Y235621D01*
X246177Y230177D02*
X247379Y231379D01*
X252823Y230177D02*
X251621Y231379D01*
X267208Y325967D02*
X266005Y327169D01*
X267208Y333382D02*
X266005Y332180D01*
X259792Y333382D02*
X260995Y332180D01*
X259792Y325967D02*
X260995Y327169D01*
X311939Y462786D02*
X313141Y463988D01*
X321061Y462786D02*
X319859Y463988D01*
X321061Y471907D02*
X319859Y470705D01*
X311939Y471907D02*
X313141Y470705D01*
X196262Y483262D02*
X197464Y484464D01*
X205738Y483262D02*
X204536Y484464D01*
X205738Y492738D02*
X204536Y491536D01*
X196262Y492738D02*
X197464Y491536D01*
X176262Y483262D02*
X177464Y484464D01*
X185738Y483262D02*
X184536Y484464D01*
X185738Y492738D02*
X184536Y491536D01*
X176262Y492738D02*
X177464Y491536D01*
X176262Y463262D02*
X177464Y464464D01*
X185738Y463262D02*
X184536Y464464D01*
X185738Y472738D02*
X184536Y471536D01*
X176262Y472738D02*
X177464Y471536D01*
X196262Y463262D02*
X197464Y464464D01*
X205738Y463262D02*
X204536Y464464D01*
X205738Y472738D02*
X204536Y471536D01*
X196262Y472738D02*
X197464Y471536D01*
G54D43*
X263500Y329675D03*
G54D47*
X200673Y316843D03*
Y312906D03*
Y308969D03*
G74*
X0Y0D02*
M02*
