G04 start of page 7 for group -4063 idx -4063 *
G04 Title: driver, componentmask *
G04 Creator: pcb 20140316 *
G04 CreationDate: Sat 06 Feb 2016 05:28:38 PM GMT UTC *
G04 For: rxdtxd *
G04 Format: Gerber/RS-274X *
G04 PCB-Dimensions (mil): 1800.00 3000.00 *
G04 PCB-Coordinate-Origin: lower left *
%MOIN*%
%FSLAX25Y25*%
%LNTOPMASK*%
%ADD46C,0.1280*%
%ADD45C,0.0750*%
%ADD44C,0.0847*%
%ADD43C,0.0810*%
%ADD42C,0.0001*%
G54D42*G36*
X115950Y204050D02*Y195950D01*
X124050D01*
Y204050D01*
X115950D01*
G37*
G54D43*X100000Y200000D03*
G54D42*G36*
X95950Y134050D02*Y125950D01*
X104050D01*
Y134050D01*
X95950D01*
G37*
G54D43*X120000Y130000D03*
G54D44*X110000Y160000D03*
G54D42*G36*
X115763Y164237D02*Y155763D01*
X124237D01*
Y164237D01*
X115763D01*
G37*
G36*
X155950Y194050D02*Y185950D01*
X164050D01*
Y194050D01*
X155950D01*
G37*
G54D43*X150000Y180000D03*
X160000Y170000D03*
G54D44*X127500Y40000D03*
Y50000D03*
G54D43*X137500D03*
G54D44*X127500Y60000D03*
Y70000D03*
Y80000D03*
Y90000D03*
Y100000D03*
Y110000D03*
G54D42*G36*
X133450Y94050D02*Y85950D01*
X141550D01*
Y94050D01*
X133450D01*
G37*
G54D45*X95000Y240000D03*
X90000Y250000D03*
X85000Y240000D03*
X80000Y250000D03*
G54D42*G36*
X106250Y253750D02*Y246250D01*
X113750D01*
Y253750D01*
X106250D01*
G37*
G54D45*X105000Y240000D03*
X100000Y250000D03*
G54D46*X112500Y292500D03*
X72500Y257500D03*
G54D45*X75000Y240000D03*
G54D43*X70000Y200000D03*
G54D42*G36*
X25950Y214050D02*Y205950D01*
X34050D01*
Y214050D01*
X25950D01*
G37*
G54D43*X30000Y200000D03*
Y190000D03*
X60000Y200000D03*
Y210000D03*
G54D42*G36*
X15950Y224050D02*Y215950D01*
X24050D01*
Y224050D01*
X15950D01*
G37*
G36*
X65950Y184050D02*Y175950D01*
X74050D01*
Y184050D01*
X65950D01*
G37*
G54D43*X60000Y180000D03*
Y190000D03*
X30000Y180000D03*
G54D42*G36*
X25950Y164050D02*Y155950D01*
X34050D01*
Y164050D01*
X25950D01*
G37*
G54D43*X30000Y150000D03*
Y140000D03*
Y130000D03*
G54D42*G36*
X15950Y174050D02*Y165950D01*
X24050D01*
Y174050D01*
X15950D01*
G37*
G54D43*X20000Y180000D03*
X60000Y130000D03*
Y140000D03*
Y150000D03*
Y160000D03*
X70000Y150000D03*
X20000Y130000D03*
G54D42*G36*
X65950Y134050D02*Y125950D01*
X74050D01*
Y134050D01*
X65950D01*
G37*
G36*
X73263Y114237D02*Y105763D01*
X81737D01*
Y114237D01*
X73263D01*
G37*
G36*
X35950Y94050D02*Y85950D01*
X44050D01*
Y94050D01*
X35950D01*
G37*
G54D43*X40000Y80000D03*
Y70000D03*
Y60000D03*
G54D44*X77500Y100000D03*
Y90000D03*
Y80000D03*
Y70000D03*
Y60000D03*
Y50000D03*
Y40000D03*
G54D42*G36*
X55763Y44237D02*Y35763D01*
X64237D01*
Y44237D01*
X55763D01*
G37*
G54D44*X60000Y50000D03*
M02*
