M48
INCH
T17C0.028
T16C0.038
T15C0.026
T14C0.031
T13C0.064
T12C0.039
T11C0.042
%
T15
G05
X028031Y078100
X030000Y078100
X032300Y072016
X032300Y073984
X030300Y072016
X030300Y073984
T17
X019100Y075300
X020084Y075300
T14
X031400Y080900
X028600Y074800
T16
X017200Y073100
X018200Y073100
X017200Y072100
X018200Y072100
X017200Y071100
X018200Y071100
X017200Y070100
X018200Y070100
X017200Y069100
X017200Y068100
X017200Y067100
X017200Y066100
X017200Y065100
X017200Y064100
X017200Y063100
X017200Y062100
X017200Y061100
X017200Y060100
X017200Y059100
X018200Y069100
X018200Y068100
X018200Y067100
X018200Y066100
X018200Y065100
X018200Y064100
X018200Y063100
X018200Y062100
X018200Y061100
X018200Y060100
X018200Y059100
T12
X032800Y092100
X033702Y092100
X036800Y092100
X037702Y092100
X036500Y089400
X030000Y080900
X025830Y076000
X027800Y076000
X035898Y092100
X036500Y085400
X039400Y065299
X038400Y065299
X039400Y074799
X038400Y064299
X039400Y064299
X040400Y065299
X040400Y064299
X041400Y065299
X041400Y074799
X041400Y064299
X042400Y065299
X042400Y064299
X031898Y092100
X024800Y092100
X025702Y092100
X023898Y092100
X028800Y092100
X027898Y092100
X029702Y092100
T11
X015900Y088100
X015900Y087100
X015900Y086100
X015900Y085100
X015900Y084100
X040800Y060400
X040800Y059400
X040800Y058400
X040800Y057400
X040800Y056400
X040800Y055400
X015900Y083100
X015900Y079550
X015900Y078550
X015900Y077550
T13
X034502Y089000
X036500Y083751
X036500Y077649
X028400Y089000
M30
