*
G04 Job   : Z:\LASMO\PCB\PCB\PCB.pcb*
G04 User  : DESKTOP-D6MOGOB:alexis*
G04 Layer : EtchLayerBottom.gdo*
G04 Date  : Fri Jan 11 01:49:51 2019*
G04 Mentor Graphics Example Gerber Output Definition*
%ICAS*%
%MOIN*%
%FSLAX24Y24*%
%OFA0.0000B0.0000*%
G90*
G74*
%AMVB_RECTANGLE*
21,1,$1,$2,0,0,$3*
%
%ADD10C,0.00000*%
%ADD12C,0.00591*%
%ADD16C,0.00591*%
%ADD15C,0.01000*%
%ADD14C,0.01575*%
%ADD13C,0.01969*%
%ADD11C,0.02362*%
%ADD70C,0.05512*%
%ADD23C,0.05906*%
%ADD71C,0.07874*%
%ADD26O,0.11811X0.19685*%
%ADD25O,0.15748X0.09843*%
%ADD27O,0.19685X0.11811*%
%ADD21VB_RECTANGLE,0.05512X0.05512X0.00000*%
%ADD24VB_RECTANGLE,0.05906X0.05906X90.00000*%
%ADD29VB_RECTANGLE,0.02756X0.01575X0.00000*%
%ADD17VB_RECTANGLE,0.03937X0.02362X180.00000*%
%ADD20VB_RECTANGLE,0.03937X0.02362X270.00000*%
%ADD18VB_RECTANGLE,0.03937X0.03150X90.00000*%
%ADD19VB_RECTANGLE,0.03937X0.06299X180.00000*%
%ADD22VB_RECTANGLE,0.04528X0.12598X180.00000*%
%ADD28VB_RECTANGLE,0.04528X0.12598X90.00000*%
G01*
G36*
X118Y27411D02*
G02X148Y27441I30D01*
G01X750*
Y13796*
G03X789Y13624I394*
G01Y8520*
G03X868Y8442I79*
G01X1419*
G03X1498Y8520J78*
G01Y9072*
G03X1419Y9150I79*
G01X868*
G03X789Y9072J78*
G01Y9796*
G03X1144Y9442I355*
X1498Y9796J354*
X1144Y10150I354*
X789Y9796J354*
G01Y10796*
G03X1144Y10442I355*
X1498Y10796J354*
X1144Y11150I354*
X789Y10796J354*
G01Y11796*
G03X1144Y11442I355*
X1498Y11796J354*
X1144Y12150I354*
X789Y11796J354*
G01Y12796*
G03X1144Y12442I355*
X1498Y12796J354*
X1144Y13150I354*
X789Y12796J354*
G01Y13624*
G03X1144Y13402I355J172*
X1537Y13796J394*
X1144Y14190I393*
X750Y13796J394*
G01Y27441*
X789*
Y14796*
G03X1144Y14442I355*
X1498Y14796J354*
X1144Y15150I354*
X789Y14796J354*
G01Y15796*
G03X1144Y15442I355*
X1498Y15796J354*
X1144Y16150I354*
X789Y15796J354*
G01Y16796*
G03X1144Y16442I355*
X1498Y16796J354*
X1144Y17150I354*
X789Y16796J354*
G01Y17796*
G03X1144Y17442I355*
X1498Y17796J354*
X1144Y18150I354*
X789Y17796J354*
G01Y18796*
G03X1144Y18442I355*
X1498Y18796J354*
X1144Y19150I354*
X789Y18796J354*
G01Y19796*
G03X1144Y19442I355*
X1498Y19796J354*
X1144Y20150I354*
X789Y19796J354*
G01Y20796*
G03X1144Y20442I355*
X1498Y20796J354*
X1144Y21150I354*
X789Y20796J354*
G01Y21796*
G03X1144Y21442I355*
X1498Y21796J354*
X1144Y22150I354*
X789Y21796J354*
G01Y22796*
G03X1144Y22442I355*
X1498Y22796J354*
X1144Y23150I354*
X789Y22796J354*
G01Y23796*
G03X1144Y23442I355*
X1498Y23796J354*
X1144Y24150I354*
X789Y23796J354*
G01Y24796*
G03X1144Y24442I355*
X1498Y24796J354*
X1144Y25150I354*
X789Y24796J354*
G01Y25796*
G03X1144Y25442I355*
X1498Y25796J354*
X1144Y26150I354*
X789Y25796J354*
G01Y26796*
G03X1144Y26442I355*
X1453Y26623J354*
G02X1479Y26638I26J14*
G01X2313*
Y4661*
G03X2372Y4602I59*
G01X2809*
Y1617*
G03X3163Y1263I354*
X3518Y1617J354*
X3163Y1972I355*
X2809Y1617J355*
G01Y4602*
X2825*
G03X2884Y4661J59*
G01Y5921*
G03X2825Y5980I59*
G01X2372*
G03X2313Y5921J59*
G01Y26638*
X3356*
Y4661*
G03X3435Y4582I79*
G01X3524*
G02X3553Y4554J29*
G03X3585Y4485I108J7*
G01X3754Y4316*
Y1617*
G03X4148Y1223I394*
X4541Y1617J394*
X4148Y2011I393*
X3754Y1617J394*
G01Y4316*
X3780Y4290*
G02X3788Y4269I21J21*
G01Y4267*
G03Y4257I177J10*
X3965Y4080I177*
X3975Y4081J177*
G01X3977*
G02X3998Y4072J30*
G01X4510Y3559*
G03X4587Y3527I77J77*
G01X4778*
Y1342*
G03X4856Y1263I78*
G01X5408*
G03X5486Y1342J79*
G01Y1893*
G03X5408Y1972I78*
G01X4856*
G03X4778Y1893J79*
G01Y3527*
X6364*
G03X6440Y3559J109*
G01X8520Y5639*
G02X8541Y5647I21J21*
G01X26355*
Y1684*
G03X26434Y1606I79*
G01X26985*
G03X27064Y1684J78*
G01Y2235*
G03X26985Y2314I79*
G01X26434*
G03X26355Y2235J79*
G01Y5647*
X27300*
Y1960*
G03X27694Y1566I394*
X28087Y1960J394*
X27694Y2354I393*
X27300Y1960J394*
G01Y5647*
X28225*
Y5395*
G03X28324Y5236I177*
G01Y1960*
G03X28678Y1606I354*
X29032Y1960J354*
X28678Y2314I354*
X28324Y1960J354*
G01Y5236*
G03X28402Y5217I78J159*
X28412Y5218J178*
G01X28414*
G02X28435Y5209J30*
G01X28920Y4724*
G02X28929Y4703I21J21*
G01Y3614*
G02X28919Y3592I30*
G03X28860Y3460I118J132*
X29037Y3283I177*
X29214Y3460J177*
X29155Y3592I177*
G02X29145Y3614I20J22*
G01Y4760*
G03X29114Y4836I108*
G01X28588Y5362*
G02X28579Y5383I21J21*
G01Y5385*
G03Y5395I177J10*
X28402Y5572I177*
X28225Y5395J177*
G01Y5647*
X29489*
G02X29510Y5639J29*
G01X29699Y5450*
G02X29708Y5429I21J21*
G01X29707Y5427*
G03Y5417I177J10*
X29884Y5240I177*
X30062Y5417J177*
X29884Y5595I178*
X29875Y5594J178*
G01X29873*
G02X29852Y5603J30*
G01X29623Y5832*
G03X29569Y5861I77J76*
G02X29546Y5890I6J29*
X29575Y5920I29*
G01X29735*
G02X29757Y5910J30*
G03X29889Y5851I132J118*
X30066Y6028J177*
X29889Y6205I177*
X29757Y6146J177*
G02X29735Y6136I22J20*
G01X26740*
G02X26719Y6145J30*
G01X26474Y6391*
G03X26469Y6395I77J77*
G02X26460Y6417I20J22*
X26489Y6446I29*
G01X30741*
Y1684*
G03X30819Y1606I78*
G01X31371*
G03X31449Y1684J78*
G01Y2235*
G03X31371Y2314I78*
G01X30819*
G03X30741Y2235J79*
G01Y6446*
X31686*
Y1960*
G03X32079Y1566I393*
X32473Y1960J394*
X32079Y2354I394*
X31686Y1960J394*
G01Y6446*
X32709*
Y1960*
G03X33064Y1606I355*
X33418Y1960J354*
X33064Y2314I354*
X32709Y1960J354*
G01Y6446*
X33188*
G02X33201Y6443J29*
G03X33276Y6427I75J161*
X33453Y6604J177*
X33276Y6781I177*
X33201Y6764J177*
G02X33188Y6761I13J27*
G01X26212*
G02X26191Y6770J30*
G01X25709Y7252*
G03X25598Y7298I111J111*
G01X24551*
G02X24522Y7328J30*
G01Y7338*
G03X24464Y7413I79*
G02X24443Y7442I8J29*
G01Y8313*
G03X24397Y8425I158*
G01X23515Y9306*
G02X23507Y9327I21J21*
G01Y10156*
G02X23536Y10186I29*
G01X23790*
G02X23813Y10175J30*
G03X23874Y10146I61J50*
G01X24267*
G03X24346Y10225J79*
G01Y10461*
G03X24267Y10540I79*
G01X23874*
G03X23813Y10511J79*
G02X23790Y10501I23J19*
G01X23437*
G02X23425Y10504J29*
G03X23349Y10520I76J161*
X23172Y10343J177*
X23189Y10268I177*
G02X23192Y10255I27J13*
G01Y9249*
G03X23238Y9138I157*
G01X24119Y8257*
G02X24128Y8236I21J21*
G01Y7442*
G02X24106Y7413I30*
G03X24049Y7338I22J75*
G01Y7328*
G02X24020Y7298I29*
G01X22924*
G02X22894Y7328J30*
X22913Y7355I30*
G03X23023Y7519I67J164*
X22846Y7697I177*
X22714Y7638J178*
G02X22692Y7628I22J19*
G01X22640*
G03X22624Y7627J109*
G02X22620Y7626I4J29*
G01X21562*
G02X21541Y7635J30*
G01X20025Y9151*
G02X20016Y9172I21J21*
G01Y9174*
G03Y9184I177J10*
X19839Y9361I177*
X19662Y9184J177*
X19839Y9007I177*
X19849J177*
G01X19851*
G02X19872Y8998J30*
G01X21428Y7442*
G03X21505Y7410I77J76*
G01X22638*
G03X22653Y7411J108*
G02X22658I5J29*
G01X22692*
G02X22714Y7401J29*
G03X22780Y7355I132J118*
G02X22798Y7328I11J27*
X22769Y7298I29*
G01X21821*
G03X21710Y7252J157*
G01X21602Y7145*
G02X21592Y7138I20J21*
G03X21474Y6971I60J167*
X21652Y6794I178*
X21818Y6912J177*
G02X21825Y6922I28J10*
G01X21877Y6975*
G02X21898Y6983I21J21*
G01X24020*
G02X24049Y6954J29*
G01Y6944*
G03X24128Y6865I79*
G01X24443*
G03X24522Y6944J79*
G01Y6954*
G02X24551Y6983I29*
G01X25520*
G02X25541Y6975J29*
G01X26024Y6492*
G03X26043Y6476I111J112*
G02X26055Y6452I17J24*
X26026Y6422I29*
G01X24551*
G02X24522Y6452J30*
G01Y6511*
G03X24443Y6590I79*
G01X24128*
G03X24049Y6511J79*
G01Y6452*
G02X24020Y6422I29*
G01X20404*
G02X20383Y6431J30*
G01X20266Y6548*
G03X20233Y6571I77J76*
G02X20224Y6577I12J27*
G01X18622Y8179*
G03X18546Y8210I76J77*
G01X16253*
G02X16233Y8219J30*
G01X15658Y8793*
G02X15649Y8814I21J21*
G01Y9423*
G02X15659Y9445I30*
G03X15718Y9578I118J133*
X15541Y9755I177*
X15364Y9578J177*
X15423Y9445I177*
G02X15433Y9423I20J22*
G01Y8814*
G02X15424Y8793I30*
G01X14936Y8305*
G02X14915Y8296I21J21*
G01X6113*
G03X6036Y8265J108*
G01X4503Y6732*
G03X4471Y6655I77J77*
G01Y6020*
G02X4442Y5991I29*
G01X4353*
G03X4275Y5912J79*
G01Y4652*
G03X4353Y4573I78*
G01X4442*
G02X4471Y4544J29*
G01Y4485*
G02X4463Y4464I29*
G01X4462Y4463*
G02X4441Y4455I21J21*
G01X4440*
G03X4430I10J177*
X4253Y4278J177*
X4274Y4194I177*
G02X4277Y4180I26J14*
X4269Y4159I29*
G01X4264Y4154*
G02X4243Y4145I21J21*
X4222Y4154J30*
G01X4151Y4225*
G02X4142Y4246I21J21*
G01Y4248*
G03Y4257I177J9*
X3965Y4435I177*
X3955Y4434J178*
G01X3954*
G02X3933Y4443J30*
G01X3844Y4532*
G02X3835Y4553I21J21*
X3865Y4582I30*
G01X3888*
G03X3966Y4661J79*
G01Y5921*
G03X3888Y5999I78*
G01X3435*
G03X3356Y5921J78*
G01Y26638*
X5323*
G02X5344Y26630J29*
G01X6735Y25239*
G03X6846Y25193I111J111*
G01X10750*
Y20796*
G03X10789Y20624I394*
G01Y8520*
G03X10868Y8442I79*
G01X11419*
G03X11498Y8520J78*
G01Y9072*
G03X11419Y9150I79*
G01X10868*
G03X10789Y9072J78*
G01Y9796*
G03X11144Y9442I355*
X11498Y9796J354*
X11144Y10150I354*
X10789Y9796J354*
G01Y10796*
G03X11144Y10442I355*
X11498Y10796J354*
X11144Y11150I354*
X10789Y10796J354*
G01Y11796*
G03X11144Y11442I355*
X11498Y11796J354*
X11144Y12150I354*
X10789Y11796J354*
G01Y12796*
G03X11144Y12442I355*
X11498Y12796J354*
X11144Y13150I354*
X10789Y12796J354*
G01Y13796*
G03X11144Y13442I355*
X11498Y13796J354*
X11144Y14150I354*
X10789Y13796J354*
G01Y14796*
G03X11144Y14442I355*
X11498Y14796J354*
X11144Y15150I354*
X10789Y14796J354*
G01Y15796*
G03X11144Y15442I355*
X11498Y15796J354*
X11144Y16150I354*
X10789Y15796J354*
G01Y16796*
G03X11144Y16442I355*
X11498Y16796J354*
X11144Y17150I354*
X10789Y16796J354*
G01Y17796*
G03X11144Y17442I355*
X11498Y17796J354*
X11144Y18150I354*
X10789Y17796J354*
G01Y18796*
G03X11144Y18442I355*
X11498Y18796J354*
X11144Y19150I354*
X10789Y18796J354*
G01Y19796*
G03X11144Y19442I355*
X11498Y19796J354*
X11144Y20150I354*
X10789Y19796J354*
G01Y20624*
G03X11144Y20402I355J172*
X11537Y20796J394*
X11144Y21190I393*
X10750Y20796J394*
G01Y25193*
X11032*
G02X11062Y25163J30*
X11041Y25135I30*
G03X10789Y24796I103J339*
G01Y21796*
G03X11144Y21442I355*
X11498Y21796J354*
X11144Y22150I354*
X10789Y21796J354*
G01Y22796*
G03X11144Y22442I355*
X11498Y22796J354*
X11144Y23150I354*
X10789Y22796J354*
G01Y23796*
G03X11144Y23442I355*
X11498Y23796J354*
X11144Y24150I354*
X10789Y23796J354*
G01Y24796*
G03X11144Y24442I355*
X11498Y24796J354*
X11246Y25135I354*
G02X11226Y25163I9J28*
X11255Y25193I29*
G01X11833*
G02X11854Y25184J30*
G01X15540Y21498*
G03X15624Y21454I111J111*
G01Y17149*
G03X15683Y17090I59*
G01X16084*
Y12178*
G03X16497Y11764I413*
X16911Y12178J414*
X16497Y12591I414*
X16084Y12178J413*
G01Y17090*
X16135*
G03X16194Y17149J59*
G01Y18409*
G03X16135Y18468I59*
G01X15683*
G03X15624Y18409J59*
G01Y21454*
G03X15651Y21452I27J155*
G01X16785*
G02X16815Y21422J30*
G01Y18517*
G02X16785Y18487I30*
G01X16746*
G03X16667Y18409J78*
G01Y17150*
G02X16637Y17121I30*
X16624Y17124J29*
G03X16546Y17142I78J159*
X16369Y16965J177*
X16428Y16833I177*
G02X16438Y16811I20J22*
G01Y16478*
G02X16429Y16457I30*
G01X16417Y16446*
G02X16407Y16439I21J20*
G03X16338Y16353I38J101*
G02X16309Y16328I29J4*
G01X16248*
G03X16170Y16249J79*
G01Y15462*
G03X16248Y15383I78*
G01X16642*
G03X16703Y15411J79*
G02X16725Y15422I22J18*
G01X16882*
G03X16885J158*
G01X16886*
X16887*
G02X16910Y15411J29*
G03X16946Y15387I61J51*
G02X16967Y15359I9J28*
X16966Y15353I30*
G03X16964Y15324I155J29*
G01Y15202*
G02X16961Y15190I30*
G03X16944Y15114I160J76*
X17121Y14937I177*
G01X17123*
Y12178*
G03X17497Y11803I374*
X17871Y12178J375*
X17497Y12552I374*
X17123Y12178J374*
G01Y14937*
G03X17298Y15114I2J177*
X17281Y15190I177*
G02X17279Y15202I27J12*
G01Y15247*
G02X17286Y15266I29*
G03X17309Y15301I118J104*
G01Y14901*
G03X17368Y14769I177*
G02X17378Y14747I20J22*
G01Y13595*
G02X17368Y13573I30*
G03X17309Y13441I118J132*
X17486Y13264I177*
X17663Y13441J177*
X17604Y13573I177*
G02X17594Y13595I20J22*
G01Y14747*
G02X17604Y14769I30*
G03X17663Y14901I118J132*
X17486Y15078I177*
X17309Y14901J177*
G01Y15301*
G03X17324Y15356I141J69*
G02X17354Y15383I30J3*
G01X17364*
G03X17425Y15411J79*
G02X17448Y15422I23J18*
G01X17562*
G03X17614Y15431J158*
G02X17624Y15433I10J28*
X17640Y15428J30*
G03X17683Y15416I43J66*
G01X17693*
G02X17722Y15386J30*
G01Y14292*
G03X17769Y14181I158*
G01X18331Y13618*
G02X18340Y13597I21J21*
G01Y12581*
G02X18310Y12552I30*
G01X18202*
G03X18123Y12473J79*
G01Y11882*
G03X18202Y11803I79*
G01X18310*
G02X18340Y11774J29*
G01Y11057*
G03X18386Y10946I157*
G01X19226Y10106*
G02X19234Y10085I21J21*
G01Y8128*
G03X19281Y8016I158*
G01X19728Y7569*
G02X19734Y7558I21J21*
G03X19901Y7441I167J60*
X19977Y7458J177*
G02X19989Y7461I12J27*
G01X20465*
Y7146*
G03X20524Y7087I59*
G01X20799*
G03X20858Y7146J59*
G01Y7303*
G03X20799Y7362I59*
G01X20524*
G03X20465Y7303J59*
G01Y7461*
X20799*
G03X20878Y7540J79*
G01Y7697*
G03X20799Y7776I79*
G01X19989*
G02X19977Y7779J29*
G03X19961Y7785I76J161*
G02X19950Y7792I10J28*
G01X19558Y8184*
G02X19549Y8205I21J21*
G01Y10163*
G03X19503Y10274I157*
G01X18663Y11114*
G02X18655Y11135I21J21*
G01Y11774*
G02X18684Y11803I29*
G01X18792*
G03X18871Y11882J79*
G01Y12473*
G03X18792Y12552I79*
G01X18684*
G02X18655Y12581J29*
G01Y13675*
G03X18608Y13786I158*
G01X18046Y14349*
G02X18037Y14370I21J21*
G01Y15386*
G02X18067Y15416I30*
G01X18077*
G03X18155Y15494J78*
G01Y15730*
G03X18077Y15809I78*
G01X17683*
G03X17622Y15781J79*
G02X17599Y15770I23J18*
G01X17594*
G03X17505Y15742J158*
G02X17489Y15737I16J25*
G01X17448*
G02X17425Y15748J30*
G03X17364Y15777I61J50*
G01X16971*
G03X16910Y15748J79*
G02X16887Y15737I23J19*
G01X16882*
G03X16879J157*
G01X16878*
X16725*
G02X16703Y15748J30*
G03X16642Y15777I61J50*
G01X16248*
G03X16170Y15698J79*
G01Y16013*
G03X16248Y15934I78*
G01X16642*
G03X16721Y16013J79*
G01Y16249*
G03X16660Y16326I79*
G02X16637Y16354I6J28*
X16641Y16369I29*
G03X16654Y16421I95J52*
G01Y16811*
G02X16664Y16833I30*
G03X16723Y16965I118J132*
X16711Y17030I177*
G02X16709Y17041I27J11*
X16738Y17070I29*
X16740J29*
G03X16746I6J79*
G01X16785*
G02X16815Y17040J30*
G01Y16891*
G03X16829Y16826I157*
G02X16831Y16820I27J12*
G03X17003Y16683I172J40*
X17026Y16684J177*
G02X17030Y16685I4J29*
X17059Y16655J30*
G01Y16357*
G02X17030Y16328I29*
G01X16971*
G03X16892Y16249J79*
G01Y16013*
G03X16971Y15934I79*
G01X17364*
G03X17443Y16013J79*
G01Y16249*
G03X17364Y16328I79*
G01X17305*
G02X17276Y16357J29*
G01Y16605*
G02X17284Y16626I29*
G01X17404Y16746*
G02X17425Y16754I21J21*
G01X17427*
G03X17436I9J177*
X17604Y16874J177*
G01Y16045*
G03X17683Y15967I79*
G01X18077*
G03X18155Y16045J78*
G01Y16282*
G03X18077Y16360I78*
G01X18018*
G02X17988Y16390J30*
G01Y16606*
G03X17984Y16636I108*
G02X17983Y16644I28J8*
G01Y16899*
G02X17993Y16921I29*
G03X18007Y16935I119J132*
G02X18029Y16945I22J20*
G01X18609*
G02X18630Y16936J30*
G01X18769Y16798*
G02X18777Y16777I21J21*
G01Y15996*
G02X18768Y15974I29*
G03X18709Y15842I118J132*
X18886Y15664I177*
X19063Y15842J178*
X19004Y15974I177*
G02X18994Y15996I19J22*
G01Y16834*
G03X18962Y16910I108*
G01X18743Y17130*
G03X18666Y17161I77J77*
G01X18029*
G02X18007Y17171J30*
G03X17874Y17230I133J118*
X17697Y17053J177*
X17756Y16921I177*
G02X17766Y16899I19J22*
G01Y16611*
G03X17770Y16581I108*
G02X17772Y16573I28J8*
G01Y16390*
G02X17742Y16360I30*
G01X17683*
G03X17604Y16282J78*
G01Y16874*
G03X17614Y16931I168J57*
X17436Y17108I178*
X17259Y16931J177*
X17260Y16921I177*
G01Y16920*
G02X17251Y16899I30*
G01X17228Y16876*
G02X17207Y16867I21J20*
X17178Y16891J29*
G03X17137Y16977I175J31*
G02X17130Y16996I22J19*
G01Y17040*
G02X17159Y17070I29*
G01X17198*
G03X17277Y17149J79*
G01Y18409*
G03X17198Y18487I79*
G01X17159*
G02X17130Y18517J30*
G01Y21532*
G02X17138Y21552I29*
G01X19456Y23871*
Y22275*
G03X19634Y22098I178*
X19643J177*
G01X19645*
G02X19666Y22089J30*
G01X20880Y20875*
G02X20888Y20855I21J20*
G01Y17165*
G02X20879Y17143I29*
G03X20820Y17011I118J132*
X20997Y16834I177*
X21174Y17011J177*
X21115Y17143I177*
G02X21105Y17165I20J22*
G01Y20912*
G03X21073Y20988I108*
G01X19819Y22242*
G02X19810Y22263I21J21*
G01Y22265*
G03X19811Y22275I176J10*
X19634Y22452I177*
X19456Y22275J177*
G01Y23871*
X20858Y25272*
G03X20904Y25384I111J112*
G01Y26147*
G02X20907Y26160I30*
G03X20924Y26235I160J75*
X20747Y26412I177*
X20570Y26235J177*
X20586Y26160I177*
G02X20589Y26147I26J13*
G01Y25461*
G02X20581Y25440I29*
G01X16915Y21775*
G02X16895Y21767I20J21*
G01X15729*
G02X15708Y21775J29*
G01X12022Y25462*
G03X11910Y25508I112J112*
G01X11427*
G02X11398Y25537J29*
X11405Y25557I29*
G03X11498Y25796I261J239*
X11144Y26150I354*
X10789Y25796J354*
X10882Y25557I355*
G02X10889Y25537I22J20*
X10860Y25508I29*
G01X6924*
G02X6903Y25516J29*
G01X5512Y26907*
G03X5401Y26953I111J111*
G01X1479*
G02X1453Y26969J30*
G03X1144Y27150I309J173*
X789Y26796J354*
G01Y27441*
X10750*
Y26796*
G03X11144Y26402I394*
X11537Y26796J394*
X11144Y27190I393*
X10750Y26796J394*
G01Y27441*
X22210*
Y15063*
G03X22269Y14931I177*
G02X22279Y14909I20J22*
G01Y8570*
G02X22269Y8548I30*
G03X22210Y8416I118J132*
X22387Y8239I177*
X22564Y8416J177*
X22505Y8548I177*
G02X22495Y8570I20J22*
G01Y14909*
G02X22505Y14931I30*
G03X22564Y15063I118J132*
X22387Y15240I177*
X22210Y15063J177*
G01Y27441*
X22445*
Y25410*
G03X22579Y25087I456*
G01Y12980*
G03X22690Y12816I177*
G01Y8160*
G03X22867Y7983I177*
X23044Y8160J177*
X22985Y8292I177*
G02X22975Y8314I20J22*
G01Y11860*
G02X22984Y11881I30*
G01X23480Y12377*
G02X23501Y12385I21J21*
G01X23814*
Y10776*
G03X23874Y10717I60*
G01X24267*
G03X24326Y10776J59*
G01Y11013*
G03X24267Y11072I59*
G01X23874*
G03X23814Y11013J59*
G01Y12385*
X24840*
G02X24862Y12376J29*
G03X24994Y12317I132J118*
X25171Y12494J177*
X24994Y12671I177*
X24862Y12612J177*
G02X24840Y12602I22J19*
G01X23443*
G03X23367Y12570J108*
G01X22790Y11994*
G03X22759Y11917I77J77*
G01Y8314*
G02X22749Y8292I30*
G03X22690Y8160I118J132*
G01Y12816*
G03X22756Y12802I66J164*
X22889Y12862J178*
G02X22911Y12871I22J20*
G01X24960*
G02X24981Y12863J29*
G01X25235Y12610*
G02X25243Y12589I21J21*
G01Y11663*
G02X25233Y11641I29*
G03X25174Y11509I119J132*
X25352Y11332I178*
X25529Y11509J177*
X25470Y11641I177*
G02X25460Y11663I19J22*
G01Y12646*
G03X25428Y12722I108*
G01X25094Y13056*
G03X25018Y13088I76J76*
G01X22911*
G02X22889Y13098J29*
G03X22756Y13157I133J118*
X22579Y12980J177*
G01Y25087*
G03X22901Y24954I322J323*
X23170Y25042J456*
G01Y15455*
G03X23229Y15396I59*
G01X23466*
G03X23525Y15455J59*
G01Y15848*
G03X23466Y15907I59*
G01X23229*
G03X23170Y15848J59*
G01Y25042*
G03X23357Y25410I269J368*
X22901Y25866I456*
X22445Y25410J456*
G01Y27441*
X23511*
Y21709*
G03X23702Y21283I571*
G01Y15455*
G03X23781Y15376I79*
G01X24017*
G03X24095Y15455J79*
G01Y15457*
G02X24125Y15486I30*
X24128J29*
G03X24141I13J157*
G01X24260*
G02X24272Y15483J30*
G03X24348Y15466I76J160*
X24525Y15643J177*
X24348Y15820I177*
X24272Y15804J177*
G02X24260Y15801I12J26*
G01X24188*
G02X24179Y15802J29*
G03X24133Y15809I46J150*
G01X24125*
G02X24095Y15839J30*
G01Y15848*
G03X24017Y15927I78*
G01X23781*
G03X23702Y15848J79*
G01Y21283*
G03X23931Y21158I380J426*
G01Y16850*
G03X23990Y16718I178*
G02X24000Y16696I19J22*
G01Y16378*
G02X23990Y16356I29*
G03X23931Y16223I119J133*
X24109Y16046I178*
X24286Y16223J177*
X24227Y16356I177*
G02X24217Y16378I19J22*
G01Y16696*
G02X24227Y16718I29*
G03X24286Y16850I118J132*
X24109Y17027I177*
X23931Y16850J177*
G01Y21158*
G03X24082Y21138I151J551*
G01X24673*
G03X24761Y21145J571*
G01Y13545*
G03X24938Y13368I177*
X25071Y13427J177*
G02X25093Y13437I22J19*
G01X25658*
Y11968*
G03X25835Y11790I177*
X25911Y11807J178*
G02X25923Y11810I12J26*
G01X26099*
Y7598*
G03X26178Y7519I79*
G01X26197*
G02X26226Y7490J29*
X26222Y7475I29*
G03X26198Y7385I153J90*
X26375Y7207I177*
X26552Y7385J178*
X26527Y7475I177*
G02X26523Y7490I26J15*
X26553Y7519I30*
G01X26572*
G03X26650Y7598J79*
G01Y7834*
G03X26572Y7913I78*
G01X26178*
G03X26099Y7834J79*
G01Y11810*
X26119*
Y8149*
G03X26178Y8090I59*
G01X26572*
G03X26631Y8149J59*
G01Y8385*
G03X26572Y8445I59*
G01X26178*
G03X26119Y8385J60*
G01Y11810*
X26166*
G02X26174Y11809J29*
G01Y10930*
G03X26233Y10871I59*
G01X26469*
G03X26528Y10930J59*
G01Y11324*
G03X26469Y11383I59*
G01X26233*
G03X26174Y11324J59*
G01Y11809*
G02X26195Y11781I8J28*
G01Y11741*
G03X26274Y11662I79*
G01X26717*
G02X26746Y11633J29*
G01Y11557*
G02Y11553I29*
G03X26745Y11532I156J21*
G01Y11407*
G02X26734Y11384I30*
G03X26705Y11324I50J60*
G01Y10930*
G03X26711Y10900I79*
G02X26713Y10889I27J11*
X26684Y10860I29*
G01X26666*
G03X26555Y10813J158*
G01X26471Y10730*
G02X26460Y10723I21J20*
G03X26343Y10556I60J167*
X26520Y10379I177*
X26687Y10496J177*
G02X26694Y10507I27J10*
G01X26723Y10536*
G02X26744Y10545I21J21*
G01X26763*
G03X26808Y10551J157*
G01Y8149*
G03X26827Y8097I79*
G01Y7598*
G03X26887Y7539I60*
G01X27280*
G03X27339Y7598J59*
G01Y7834*
G03X27280Y7893I59*
G01X26887*
G03X26827Y7834J59*
G01Y8097*
G03X26887Y8070I60J52*
G01X27280*
G03X27359Y8149J79*
G01Y8385*
G03X27280Y8464I79*
G01X27265*
G02X27236Y8494J30*
X27239Y8507I29*
G03X27250Y8554I98J47*
G01Y8628*
G02X27260Y8650I29*
G03X27319Y8782I119J132*
X27141Y8959I178*
X26964Y8782J177*
X27023Y8650I177*
G02X27033Y8628I19J22*
G01Y8611*
G02X27024Y8590I29*
G01X27007Y8572*
G03X26975Y8496I76J76*
G01Y8494*
G02X26946Y8464I29*
G01X26887*
G03X26808Y8385J79*
G01Y10551*
G03X26874Y10591I45J151*
G01X27013Y10730*
G03X27060Y10841I111J111*
G01Y10846*
G02X27070Y10869I29*
G03X27099Y10930I50J61*
G01Y11324*
G03X27070Y11384I79*
G02X27060Y11407I19J23*
G01Y11508*
G02Y11512I29*
G03X27061Y11533I156J21*
G01Y11633*
G02X27091Y11662I30*
G01X27462*
Y11025*
G03X27639Y10848I177*
X27816Y11025J177*
Y11035I177*
G01Y11037*
G02X27825Y11058I30*
G01X27826Y11059*
Y10361*
G03X27833Y10333I59*
G01Y9649*
G03X27892Y9590I59*
G01X28128*
G03X28187Y9649J59*
G01Y10043*
G03X28128Y10102I59*
G01X27892*
G03X27833Y10043J59*
G01Y10333*
G03X27885Y10302I52J28*
G01X28121*
G03X28180Y10361J59*
G01Y10754*
G03X28121Y10814I59*
G01X27885*
G03X27826Y10754J60*
G01Y11059*
X27944Y11176*
G02X27964Y11185I20J20*
G01X28381*
G02X28410Y11156J29*
X28406Y11139I29*
G03X28376Y11041I147J98*
X28394Y10964I177*
G02X28397Y10951I27J13*
G01Y10838*
G02X28386Y10815I30*
G03X28357Y10754I50J61*
G01Y10361*
G03X28386Y10300I79*
G02X28397Y10277I19J23*
G01Y10205*
G03X28403Y10163I157*
G02X28404Y10155I29J8*
G01Y10127*
G02X28393Y10104I30*
G03X28364Y10043I50J61*
G01Y9649*
G03X28443Y9571I79*
G01X28679*
G03X28758Y9649J78*
G01Y10043*
G03X28729Y10104I79*
G02X28719Y10127I19J23*
G01Y10198*
G03X28713Y10241I158*
G02X28712Y10249I28J8*
G01Y10277*
G02X28723Y10300I29*
G03X28751Y10361I51J61*
G01Y10754*
G03X28723Y10815I79*
G02X28712Y10838I18J23*
G01Y10956*
G02X28714Y10968I29*
G03X28726Y11003I161J73*
G02X28753Y11026I29J6*
G01X28764Y11027*
G02X28766I2J29*
X28794Y11008J29*
G03X28959Y10894I166J63*
G02X28989Y10864J30*
G01Y9672*
G02X28980Y9651I30*
G01X28848Y9519*
G02X28827Y9510I21J21*
G01X28247*
G03X28170Y9478J108*
G01X27928Y9237*
G02X27907Y9228I21J20*
G01X27906*
G03X27896I10J177*
X27719Y9051J177*
X27896Y8874I177*
X28073Y9051J177*
Y9061I177*
G01Y9063*
G02X28081Y9083I29*
G01X28283Y9285*
G02X28304Y9294I21J21*
G01X28444*
Y9050*
G03X28522Y8903I177*
G02X28535Y8878I16J25*
X28518Y8851I29*
G03X28471Y8780I32J71*
G01Y8543*
G03X28491Y8491I79*
G01Y7992*
G03X28550Y7933I59*
G01X28944*
G03X29003Y7992J59*
G01Y8228*
G03X28944Y8287I59*
G01X28550*
G03X28491Y8228J59*
G01Y8491*
G03X28550Y8465I59J52*
G01X28944*
G03X29021Y8529J78*
G02X29050Y8553I29J5*
G01X29152*
G02X29157J29*
G03X29159Y8552I17J107*
G02X29185Y8528I3J29*
G03X29203Y8489I77J14*
G01Y7990*
G03X29262Y7931I59*
G01X29656*
G03X29715Y7990J59*
G01Y8227*
G03X29656Y8286I59*
G01X29262*
G03X29203Y8227J59*
G01Y8489*
G03X29262Y8463I59J53*
G01X29656*
G03X29733Y8527J79*
G02X29762Y8551I29J5*
G01X29780*
G03X29837Y8568J109*
G02X29853Y8572I16J25*
X29882Y8543J29*
G01Y8152*
G03X29961Y8073I79*
G01X30355*
G03X30434Y8152J79*
G01Y8781*
G03X30355Y8860I79*
G01X29873*
G03X29796Y8829J108*
G01X29773Y8806*
G02X29753Y8797I20J21*
X29726Y8813J30*
G03X29656Y8857I70J35*
G01X29262*
G03X29185Y8793J79*
G02X29156Y8770I29J6*
G01X29050*
G02X29021Y8794J29*
G03X28944Y8858I77J14*
G01X28885*
G02X28855Y8888J30*
G01Y8924*
G03X28823Y9001I108*
G01X28807Y9017*
G02X28798Y9038I20J21*
G01Y9040*
G03Y9050I177J10*
X28621Y9227I177*
X28444Y9050J177*
G01Y9294*
X28884*
G03X28961Y9325J108*
G01X29174Y9538*
G03X29205Y9614I77J76*
G01Y9820*
G02X29235Y9850I30*
X29263Y9827J30*
G03X29292Y9776I106J26*
G01X29936Y9132*
G03X30012Y9101I76J77*
G01X30245*
G02X30267Y9091J30*
G03X30399Y9032I132J118*
X30576Y9209J177*
X30399Y9386I177*
X30267Y9327J177*
G02X30245Y9317I22J20*
G01X30070*
G02X30049Y9326J30*
G01X29486Y9889*
G02X29477Y9910I20J21*
G01Y10574*
G02X29487Y10596I29*
G03X29546Y10728I118J132*
X29369Y10905I177*
X29254Y10863J177*
G02X29235Y10856I19J22*
X29205Y10885J29*
G01Y10933*
G03X29174Y11010I108*
G01X29145Y11038*
G02X29137Y11059I21J21*
G01Y11061*
G03Y11071I177J10*
X29121Y11143I177*
G02X29119Y11156I27J13*
X29148Y11185I29*
G01X30271*
G02X30292Y11176J29*
G01X30491Y10977*
G02X30500Y10956I20J21*
G01Y10357*
G03X30532Y10280I108*
G01X30615Y10196*
G03X30689Y10165I77J77*
G01Y8152*
G03X30768Y8073I79*
G01X31162*
G03X31241Y8152J79*
G01Y8781*
G03X31162Y8860I79*
G01X31152*
G02X31123Y8890J30*
G01Y9027*
G02X31129Y9045I29*
G03X31162Y9141I125J96*
G01Y9492*
G02X31165Y9505I29*
G03X31182Y9580I161J75*
X31004Y9757I178*
X30827Y9580J177*
X30844Y9505I177*
G02X30847Y9492I27J13*
G01Y9217*
G02X30841Y9199I30*
G03X30808Y9102I124J97*
G01Y8890*
G02X30778Y8860I30*
G01X30768*
G03X30689Y8781J79*
G01Y10165*
G03X30692I3J108*
G01X31277*
G03X31354Y10196J108*
G01X31565Y10408*
G03X31597Y10485I76J77*
G01Y11000*
G02X31606Y11021I29*
G01X31799Y11214*
G02X31820Y11223I21J21*
X31849Y11193J30*
X31848Y11186I29*
G03X31843Y11145I172J41*
X31902Y11013I177*
G02X31912Y10991I19J22*
G01Y10817*
G02Y10814I29*
G03Y10804I108J10*
G01Y10618*
G02X31902Y10596I30*
G03X31843Y10464I118J132*
X32020Y10286I177*
X32197Y10464J178*
X32138Y10596I177*
G02X32128Y10618I20J22*
G01Y10791*
G02Y10794I30*
G03X32129Y10805I108J11*
G01Y10991*
G02X32139Y11013I29*
G03X32198Y11145I119J132*
X32020Y11322I178*
X31979Y11317J177*
G02X31972Y11316I7J29*
X31942Y11346J30*
X31951Y11367I30*
G01X32226Y11642*
G02X32247Y11651I21J21*
G01X32585*
G02X32615Y11621J30*
X32608Y11603I30*
G03X32570Y11492I139J111*
X32629Y11360I177*
G02X32639Y11338I20J22*
G01Y11251*
G02X32638Y11245I30*
G03X32636Y11225I106J20*
G01Y10601*
G02X32626Y10579I29*
G03X32567Y10447I118J132*
X32744Y10270I177*
X32922Y10447J177*
X32862Y10579I178*
G02X32853Y10601I20J22*
G01Y11202*
G02Y11207I29*
G03X32855Y11227I106J20*
G01Y11338*
G02X32865Y11360I30*
G03X32924Y11492I118J132*
X32893Y11592I177*
G02X32888Y11608I25J16*
X32918Y11638I30*
X32939Y11629J30*
G01X33444Y11124*
G03X33520Y11092I76J77*
G01X33714*
G02X33736Y11083J29*
G03X33868Y11024I132J118*
X34038Y11150J177*
G02X34066Y11171I28J8*
G01X34070*
G02X34100Y11142J29*
G01Y11012*
G02X34091Y10991I30*
G01X33789Y10689*
G03X33743Y10578I111J111*
G01Y9666*
G02X33740Y9653I30*
G03X33723Y9577I160J76*
X33900Y9400I177*
X34077Y9577J177*
X34061Y9653I177*
G02X34058Y9666I26J13*
G01Y10500*
G02X34066Y10521I29*
G01X34368Y10823*
G03X34415Y10935I111J112*
G01Y11369*
G03X34368Y11481I158*
G01X34081Y11768*
G02X34072Y11789I21J21*
G01Y11806*
G02X34083Y11828I30*
G03X34099Y11847I50J61*
G02X34124Y11861I25J16*
X34145Y11852J30*
G01X34460Y11537*
G03X34536Y11506I76J77*
G01X34750*
G02X34780Y11476J30*
X34771Y11455I30*
G03X34718Y11328I124J127*
X34777Y11196I177*
G02X34787Y11174I20J22*
G01Y10916*
G02X34777Y10894I30*
G03X34718Y10762I118J132*
X34895Y10585I177*
X35072Y10762J177*
X35013Y10894I177*
G02X35003Y10916I20J22*
G01Y11174*
G02X35013Y11196I30*
G03X35072Y11328I118J132*
X35019Y11455I177*
G02X35010Y11476I21J21*
X35040Y11506I30*
G01X35210*
G02X35231Y11497J30*
G01X35424Y11304*
G02X35432Y11283I21J21*
X35428Y11268I29*
G03X35402Y11176I152J92*
X35580Y10999I178*
X35750Y11129J177*
G02X35779Y11151I29J8*
X35804Y11137J30*
G03X35953Y11056I149J96*
X36130Y11233J177*
X35953Y11410I177*
X35943J177*
G01X35941*
G02X35920Y11418J29*
G01X35892Y11447*
G02X35890Y11449I20J21*
G03X35883Y11456I83J69*
G01X35492Y11848*
G03X35416Y11879I76J77*
G01X34686*
G02X34665Y11888J30*
G01X34496Y12057*
G02X34487Y12078I20J21*
G01Y13785*
G03X34455Y13861I108*
G01X34254Y14063*
G03X34177Y14094I77J77*
G01X33670*
G02X33648Y14104J30*
G03X33516Y14163I132J118*
X33339Y13986J177*
X33516Y13809I177*
X33573Y13818J177*
G02X33583Y13820I10J28*
X33612Y13790J30*
Y13788I29*
G03Y13776I177J12*
X33789Y13599I177*
X33921Y13658J177*
G02X33943Y13668I22J20*
G01X34026*
G02X34047Y13659J30*
G01X34100Y13606*
G02X34109Y13585I21J21*
G01Y13488*
G02X34079Y13459I30*
X34071Y13460J29*
G03X34051Y13463I20J76*
G01X33815*
G03X33736Y13384J79*
G01Y12990*
G03X33764Y12929I79*
G02X33775Y12907I18J22*
G01Y12764*
G02X33767Y12743I29*
G01X33707Y12684*
G02X33696Y12677I21J21*
G03X33681Y12671I60J167*
G02X33668Y12668I13J26*
G01X33342*
G02X33321Y12676J29*
G01X32871Y13126*
G02X32863Y13147I21J21*
G01Y13522*
G02X32865Y13535I29*
G03X32882Y13610I160J75*
X32705Y13788I177*
X32528Y13610J178*
X32545Y13535I177*
G02X32548Y13522I27J13*
G01Y13070*
G03X32594Y12958I157*
G01X33153Y12399*
G03X33194Y12370I111J111*
G02X33210Y12343I13J27*
X33202Y12323I29*
G03X33187Y12283I44J40*
G01Y11889*
G03X33246Y11830I59*
G01X33482*
G03X33541Y11889J59*
G01Y12283*
G03X33534Y12310I59*
G02X33531Y12323I27J13*
X33561Y12353I30*
G01X33668*
G02X33681Y12350J30*
G03X33696Y12344I75J160*
G02X33707Y12337I10J28*
G01X33713Y12331*
G02X33722Y12310I21J21*
X33721Y12303I30*
G03X33718Y12283I76J20*
G01Y11889*
G03X33747Y11828I79*
G02X33757Y11806I19J22*
G01Y11712*
G03X33804Y11600I158*
G01X34091Y11313*
G02X34100Y11292I21J21*
G01Y11260*
G02X34070Y11230I30*
G01X34066*
G02X34038Y11251J30*
G03X33868Y11378I170J50*
X33736Y11319J177*
G02X33714Y11309I22J20*
G01X33577*
G02X33556Y11318J30*
G01X33038Y11835*
G03X32962Y11867I76J76*
G01X32190*
G03X32114Y11835J108*
G01X31412Y11134*
G03X31380Y11057I77J77*
G01Y10542*
G02X31372Y10521I29*
G01X31241Y10390*
G02X31220Y10381I21J21*
G01X31096*
G02X31066Y10411J30*
X31076Y10432I30*
G03X31133Y10562I121J130*
X31074Y10694I178*
G02X31064Y10716I19J22*
G01Y13776*
G02X31072Y13797I29*
G01X31106Y13831*
G02X31127Y13840I21J21*
G01X31128*
G03X31138Y13839I10J176*
X31308Y13966J177*
G01Y12507*
G03X31367Y12375I177*
G02X31377Y12353I20J22*
G01Y11714*
G02X31367Y11692I30*
G03X31308Y11560I118J132*
X31485Y11383I177*
X31662Y11560J177*
X31603Y11692I177*
G02X31594Y11714I20J22*
G01Y12353*
G02X31603Y12375I29*
G03X31662Y12507I118J132*
X31485Y12684I177*
X31308Y12507J177*
G01Y13966*
G03X31316Y14016I170J50*
X31138Y14194I178*
X30961Y14016J178*
Y14007I177*
G01X30962Y14005*
G02X30953Y13984I30*
G01X30879Y13910*
G03X30847Y13833I76J77*
G01Y12419*
G02X30818Y12389I29*
X30794Y12401J30*
G03X30769Y12429I143J104*
G02X30759Y12451I19J22*
G01Y14547*
G02X30768Y14568I29*
G01X32414Y16214*
G02X32435Y16223I21J21*
G01X33053*
G03X33130Y16255J108*
G01X33204Y16329*
Y12990*
G03X33263Y12931I59*
G01X33500*
G03X33559Y12990J59*
G01Y13384*
G03X33500Y13443I59*
G01X33263*
G03X33204Y13384J59*
G01Y16329*
X33621Y16746*
G03X33653Y16823I76J77*
G01Y17487*
G03X33621Y17563I108*
G01X33174Y18011*
G02X33165Y18032I21J21*
X33168Y18044I30*
G03X33203Y18202I339J158*
X32829Y18576I374*
X32455Y18202J374*
X32829Y17828I374*
X32987Y17863J374*
G02X33000Y17866I13J26*
X33021Y17858J29*
G01X33428Y17451*
G02X33436Y17430I21J21*
G01Y16880*
G02X33428Y16859I29*
G01X33017Y16448*
G02X32996Y16439I21J21*
G01X32378*
G03X32301Y16408J108*
G01X30574Y14681*
G03X30542Y14604I77J77*
G01Y12451*
G02X30533Y12429I29*
G03X30473Y12297I118J132*
X30651Y12120I178*
X30794Y12192J177*
G02X30818Y12204I24J17*
X30847Y12175J29*
G01Y10716*
G02X30837Y10694I29*
G03X30778Y10562I118J132*
X30835Y10432I177*
G02X30844Y10411I20J21*
X30815Y10381I29*
G01X30749*
G02X30728Y10390J30*
G01X30725Y10393*
G02X30717Y10414I21J21*
G01Y11013*
G03X30685Y11090I109*
G01X30405Y11370*
G03X30328Y11402I77J77*
G01X27907*
G03X27831Y11370J109*
G01X27672Y11211*
G02X27651Y11202I21J21*
G01X27649*
G03X27639I10J177*
X27462Y11025J177*
G01Y11662*
X27534*
G03X27612Y11741J79*
G01Y11781*
G02X27642Y11810I30*
G01X27816*
G03X27836Y11811J158*
G02X27840Y11812I4J29*
G03X28014Y11989I3J177*
X27837Y12166I177*
X27731Y12131J177*
G02X27714Y12125I17J24*
G01X27642*
G02X27612Y12155J30*
G01Y12194*
G03X27534Y12273I78*
G01X26274*
G03X26195Y12194J79*
G01Y12155*
G02X26166Y12125I29*
G01X25923*
G02X25911Y12128J30*
G03X25835Y12145I76J160*
X25658Y11968J177*
G01Y13437*
X25671*
G03X25748Y13469J108*
G01X25962Y13683*
G02X25983Y13691I21J21*
G01X26215*
Y12804*
G03X26274Y12745I59*
G01X27534*
G03X27593Y12804J59*
G01Y13257*
G03X27534Y13316I59*
G01X26274*
G03X26215Y13257J59*
G01Y13691*
X26583*
G03X26660Y13723J108*
G01X27306Y14369*
G02X27327Y14377I21J21*
G01X28183*
G02X28205Y14368J29*
G03X28337Y14308I132J118*
X28515Y14486J178*
X28337Y14663I178*
X28205Y14604J177*
G02X28183Y14594I22J19*
G01X27269*
G03X27193Y14562J108*
G01X26547Y13916*
G02X26526Y13908I21J21*
G01X26070*
G02X26040Y13937J29*
X26055Y13963I30*
G03X26143Y14116I89J153*
X26084Y14248I177*
G02X26074Y14270I20J22*
G01Y16960*
G02X26084Y16982I30*
G03X26143Y17114I118J132*
X25966Y17292I177*
X25789Y17114J178*
X25848Y16982I177*
G02X25858Y16960I20J22*
G01Y14270*
G02X25848Y14248I30*
G03X25789Y14116I118J132*
X25891Y13956I177*
G02X25908Y13929I13J27*
X25888Y13901I30*
G03X25849Y13876I37J102*
G01X25635Y13662*
G02X25614Y13654I21J21*
G01X25093*
G02X25071Y13663J29*
G03X24938Y13722I133J118*
X24761Y13545J177*
G01Y21145*
G03X24805Y21154I88J564*
G01Y14954*
G03X24910Y14792I177*
G01Y14544*
G03X25088Y14367I178*
X25265Y14544J177*
Y14554I177*
G01X25264Y14556*
G02X25273Y14577I30*
G01X25361Y14664*
G03X25385Y14703I77J77*
G02X25392Y14713I28J11*
G01X25608Y14929*
G03X25640Y15006I76J77*
G01Y17386*
G02X25650Y17408I29*
G03X25709Y17540I118J132*
X25532Y17718I177*
X25354Y17540J178*
X25414Y17408I178*
G02X25423Y17386I20J22*
G01Y15063*
G02X25415Y15042I29*
G01X25208Y14835*
G03X25183Y14796I76J77*
G02X25176Y14786I28J11*
G01X25120Y14730*
G02X25099Y14721I21J21*
G01X25097*
G03X25088Y14722I9J177*
X24910Y14544J178*
G01Y14792*
G03X24982Y14777I72J162*
X25159Y14954J177*
Y14964I177*
G01Y14965*
G02X25166Y14985I29*
G03X25194Y15057I80J72*
G01Y15379*
G02X25223Y15409I29*
G01X25282*
G03X25361Y15488J79*
G01Y15724*
G03X25282Y15803I79*
G01X24889*
G03X24810Y15724J79*
G01Y15488*
G03X24889Y15409I79*
G01X24948*
G02X24977Y15379J30*
G01Y15158*
G02X24953Y15128I29*
G03X24805Y14954I29J174*
G01Y21154*
G03X24830Y21160I132J555*
G01Y16039*
G03X24889Y15980I59*
G01X25282*
G03X25341Y16039J59*
G01Y16275*
G03X25282Y16334I59*
G01X24889*
G03X24830Y16275J59*
G01Y21160*
G03X25243Y21709I157J549*
X24673Y22280I570*
G01X24082*
G03X23511Y21709J571*
G01Y27441*
X23882*
Y22851*
G03X24377Y22356I495*
X24873Y22851J495*
X24377Y23346I496*
X23882Y22851J495*
G01Y27441*
X25398*
Y25410*
G03X25854Y24954I456*
X26165Y25077J456*
G01Y14734*
G03X26342Y14557I177*
X26403Y14567J177*
G02X26413Y14569I10J27*
X26443Y14540J29*
X26440Y14528I30*
G03X26426Y14458I163J70*
X26603Y14280I177*
X26780Y14458J178*
Y14467I177*
G01Y14469*
G02X26788Y14490I29*
G01X28343Y16045*
G03X28375Y16121I77J76*
G01Y17295*
G02X28385Y17317I29*
G03X28444Y17449I119J132*
X28266Y17626I178*
X28089Y17449J177*
X28148Y17317I177*
G02X28158Y17295I19J22*
G01Y16178*
G02X28149Y16157I29*
G01X26635Y14643*
G02X26614Y14634I21J21*
G01X26613*
G03X26603Y14635I10J176*
X26542Y14624J177*
G02X26532Y14622I10J28*
X26502Y14652J30*
X26505Y14663I30*
G03X26519Y14734I163J71*
Y14744I177*
G01Y14745*
G02X26528Y14766I30*
G01X26545Y14784*
G02X26550Y14788I21J21*
G03X26570Y14804I56J92*
G01X27892Y16126*
G03X27924Y16202I76J76*
G01Y17511*
G02X27933Y17532I30*
G01X28108Y17707*
G02X28128Y17716I20J21*
G01X28130Y17715*
G03X28140I10J177*
X28317Y17892J177*
X28140Y18070I177*
X27963Y17892J178*
Y17883I177*
G01Y17881*
G02X27954Y17860I29*
G01X27739Y17645*
G03X27707Y17568I77J77*
G01Y16259*
G02X27699Y16238I29*
G01X26437Y14977*
G02X26432Y14972I21J20*
G03X26412Y14957I56J92*
G01X26375Y14919*
G02X26354Y14911I21J21*
G01X26352*
G03X26342I10J177*
X26165Y14734J177*
G01Y25077*
G03X26310Y25410I311J333*
X25854Y25866I456*
X25398Y25410J456*
G01Y27441*
X26740*
Y20097*
G03X26917Y19920I177*
X26927J177*
G01X26928*
G02X26949Y19911J30*
G01X28694Y18167*
G02X28702Y18146I21J21*
G01Y12057*
G02X28692Y12035I29*
G03X28633Y11903I119J132*
X28811Y11726I178*
X28988Y11903J177*
X28929Y12035I177*
G02X28919Y12057I19J22*
G01Y12138*
G02X28948Y12168I29*
X28973Y12155J30*
G03X29118Y12080I145J102*
X29295Y12257J177*
X29236Y12389I177*
G02X29226Y12411I19J22*
G01Y14294*
G02X29255Y14324I29*
X29267Y14322J30*
G03X29334Y14308I67J164*
X29511Y14486J178*
X29452Y14618I177*
G02X29442Y14640I20J22*
G01Y16749*
G02X29451Y16770I30*
G01X29726Y17045*
Y15944*
G03X29804Y15865I78*
G01X29814*
G02X29844Y15836J29*
G01Y15798*
G03Y15790I157*
G01Y15789*
Y15622*
G02X29841Y15609I30*
G03X29824Y15533I160J76*
X30001Y15356I177*
X30179Y15533J177*
X30162Y15609I178*
G02X30159Y15622I26J13*
G01Y15798*
G03Y15806I158*
G01Y15807*
Y15836*
G02X30188Y15865I29*
G01X30198*
G03X30259Y15894J79*
G02X30282Y15905I23J19*
G01X30825*
G03X30936Y15951J157*
G01X32022Y17036*
G02X32043Y17045I21J21*
G01X32425*
G02X32455Y17015J30*
G01Y16907*
G03X32534Y16828I79*
G01X33124*
G03X33203Y16907J79*
G01Y17498*
G03X33124Y17576I79*
G01X32534*
G03X32455Y17498J78*
G01Y17389*
G02X32425Y17360I30*
G01X31965*
G03X31854Y17314J158*
G01X30768Y16228*
G02X30748Y16220I20J21*
G01X30282*
G02X30259Y16230J29*
G03X30198Y16259I61J50*
G01X29804*
G03X29726Y16180J79*
G01Y17045*
X29745Y17064*
Y16495*
G03X29804Y16436I59*
G01X30198*
G03X30257Y16495J59*
G01Y16732*
G03X30198Y16791I59*
G01X29804*
G03X29745Y16732J59*
G01Y17064*
X32416Y19735*
Y19202*
G03X32829Y18789I413*
X33242Y19202J413*
X32829Y19616I413*
X32416Y19202J414*
G01Y19735*
X34101Y21420*
G02X34122Y21429I21J21*
G01X34912*
Y13329*
G03X34971Y13270I59*
G01X35207*
G03X35266Y13329J59*
G01Y13723*
G03X35207Y13782I59*
G01X34971*
G03X34912Y13723J59*
G01Y21429*
X35264*
Y14007*
G03X35441Y13830I177*
G02X35470Y13809J30*
G01X35471Y13805*
G02X35472Y13796I29J9*
X35464Y13776I30*
G03X35443Y13723I58J53*
G01Y13329*
G03X35522Y13251I79*
G01X35758*
G03X35836Y13315J78*
G02X35865Y13339I29J6*
X35891Y13322J30*
G03X35988Y13262I97J49*
G01X36041*
G02X36063Y13252J29*
G03X36077Y13238I132J119*
G02X36087Y13216I20J22*
G01Y13124*
G03X36090Y13097I108*
G02X36091Y13090I29J7*
G01Y12574*
G03X36123Y12498I108*
G01X36561Y12060*
G03X36567Y12054I76J76*
G02X36569Y12052I19J22*
G01X36598Y12023*
G02X36607Y12002I21J21*
G01Y12000*
G03Y11990I177J10*
X36784Y11813I177*
X36961Y11990J177*
X36784Y12167I177*
X36774J177*
G01X36772*
G02X36751Y12176J30*
G01X36714Y12213*
G03X36708Y12219I76J77*
G02X36706Y12220I19J22*
G01X36316Y12610*
G02X36308Y12631I21J21*
G01Y13120*
G03X36304Y13147I109*
G02X36303Y13154I29J7*
G01Y13216*
G02X36313Y13238I30*
G03X36359Y13303I118J133*
G02X36386Y13321I27J12*
X36407Y13312J30*
G01X38664Y11054*
G03X38741Y11023I77J77*
G01X41104*
Y5854*
G03X41281Y5677I177*
X41447Y5794J177*
G02X41454Y5805I28J10*
G01X41549Y5900*
G02X41570Y5908I21J21*
G01X44590*
Y4984*
G03X45259Y4315I669*
G01X46047*
G03X46716Y4984J669*
X46047Y5654I669*
G01X45259*
G03X44590Y4984J670*
G01Y5908*
X46665*
G02X46677Y5906J29*
G03X46753Y5889I76J160*
X46930Y6066J177*
X46753Y6243I177*
X46677Y6226J177*
G02X46665Y6223I12J27*
G01X41570*
G02X41549Y6232J30*
G01X41454Y6327*
G02X41446Y6348I21J21*
G01Y10246*
G02X41449Y10258I29*
G03X41466Y10334I161J76*
X41288Y10511I178*
X41111Y10334J177*
X41128Y10258I177*
G02X41131Y10246I27J12*
G01Y6270*
G03X41177Y6159I157*
G01X41249Y6087*
G02X41258Y6066I21J21*
X41249Y6045I30*
G01X41232Y6028*
G02X41221Y6021I21J21*
G03X41104Y5854I60J167*
G01Y11023*
X44137*
Y9504*
G03X44204Y9365I177*
G02X44215Y9342I19J23*
G01Y7307*
G02X44205Y7285I30*
G03X44146Y7153I118J132*
X44323Y6976I177*
X44500Y7153J177*
X44441Y7285I177*
G02X44432Y7307I20J22*
G01Y9359*
G02X44440Y9380I29*
G03X44491Y9504I126J124*
X44314Y9681I177*
X44137Y9504J177*
G01Y11023*
X45358*
G02X45380Y11013J30*
G03X45512Y10954I132J118*
X45689Y11131J177*
X45512Y11308I177*
X45380Y11249J177*
G02X45358Y11239I22J20*
G01X39045*
G02X39015Y11269J30*
X39025Y11291I30*
G03X39082Y11421I120J130*
X38965Y11588I177*
G02X38954Y11595I10J28*
G01X38671Y11878*
G02X38662Y11899I21J21*
X38671Y11920I30*
G01X38674Y11924*
G02X38695Y11932I21J21*
X38709Y11929J29*
G03X38793Y11908I84J156*
X38971Y12085J177*
X38911Y12217I178*
G02X38902Y12239I20J22*
G01Y12379*
G03X38870Y12456I109*
G02X38861Y12477I20J21*
G01Y12488*
G02X38890Y12517I29*
G01X38949*
G03X39028Y12596J79*
G01Y12832*
G03X38949Y12911I79*
G01X38556*
G03X38477Y12832J79*
G01Y12596*
G03X38556Y12517I79*
G01X38615*
G02X38644Y12488J29*
G01Y12420*
G03X38676Y12343I109*
G02X38685Y12322I20J21*
G01Y12239*
G02X38675Y12217I29*
G03X38616Y12085I118J132*
X38638Y12000I177*
G02X38641Y11986I26J14*
X38632Y11965I29*
G01X38629Y11962*
G02X38608Y11953I21J21*
X38587Y11962J30*
G01X38109Y12440*
G02X38100Y12461I21J21*
G01Y13564*
G02X38103Y13576I30*
G03X38120Y13652I160J76*
X38006Y13818I177*
G02X37986Y13845I10J27*
X38016Y13875I30*
G01X38158*
G03X38236Y13939J79*
G02X38265Y13963I29J5*
G01X38335*
G02X38364Y13934J29*
G01Y13924*
G03X38396Y13847I108*
G01X38636Y13607*
G02X38644Y13586I21J21*
G01Y13492*
G02X38615Y13462I29*
G01X38556*
G03X38477Y13383J79*
G01Y13147*
G03X38556Y13068I79*
G01X38949*
G03X39027Y13133J79*
G02X39056Y13157I29J6*
G01X39130*
G02X39140Y13155J30*
G03X39162Y13150I36J102*
G02X39186Y13130I4J29*
G01Y12588*
G03X39264Y12509I78*
G01X39324*
G02X39353Y12481J29*
G01Y12479*
Y12423*
G02X39343Y12401I29*
G03X39284Y12268I119J133*
X39462Y12091I178*
X39471Y12092J177*
G01X39473*
G02X39494Y12083J30*
G01X39551Y12026*
G02X39557Y12016I21J21*
G03X39582Y11978I101J39*
G01X39665Y11895*
G03X39742Y11863I77J76*
G01X41091*
G03X41168Y11895J108*
G01X41766Y12493*
G03X41798Y12570I76J77*
G01Y13077*
G02X41817Y13104I29*
G03X42044Y13435I127J331*
X41690Y13790I354*
X41335Y13435J355*
X41562Y13104I355*
G02X41581Y13077I10J27*
G01Y12627*
G02X41573Y12606I29*
G01X41055Y12088*
G02X41034Y12080I21J21*
G01X39799*
G02X39778Y12088J29*
G01X39766Y12100*
G02X39759Y12111I21J21*
G03X39735Y12148I101J39*
G01X39647Y12236*
G02X39638Y12257I21J21*
G01Y12259*
G03X39639Y12268I176J9*
X39580Y12401I177*
G02X39570Y12423I19J22*
G01Y12480*
G02X39599Y12509I29*
G01X39658*
G03X39737Y12588J79*
G01Y12824*
G03X39658Y12903I79*
G01X39264*
G03X39186Y12824J79*
G01Y13130*
G02X39187Y13126I28J9*
G03X39264Y13060I77J13*
G01X39658*
G03X39737Y13139J79*
G01Y13375*
G03X39658Y13454I79*
G01X39264*
G03X39188Y13395J79*
G02X39160Y13373I28J8*
G01X39056*
G02X39027Y13398J30*
G03X38949Y13462I78J15*
G01X38890*
G02X38861Y13492J30*
G01Y13643*
G03X38829Y13720I108*
G01X38589Y13960*
G02X38581Y13981I21J21*
G01Y14015*
G02X38589Y14035I29*
G01X38872Y14318*
G02X38893Y14327I21J21*
G01X40563*
G02X40592Y14297J30*
X40572Y14270I29*
G03X40335Y13935I118J335*
X40690Y13581I355*
X41044Y13935J354*
X40807Y14270I354*
G02X40787Y14297I10J27*
X40817Y14327I30*
G01X41331*
G02X41359Y14308J30*
G03X41690Y14081I331J127*
X42044Y14435J354*
X41690Y14790I354*
X41359Y14562J355*
G02X41331Y14543I28J11*
G01X40817*
G02X40787Y14573J30*
X40807Y14601I30*
G03X41044Y14935I117J334*
X40690Y15290I354*
X40335Y14935J355*
X40572Y14601I355*
G02X40592Y14573I9J28*
X40563Y14543I29*
G01X38972*
G02X38943Y14569J30*
G03X38936Y14595I107J16*
G02X38933Y14607I27J12*
G01Y15144*
G02X38958Y15173I30*
G03X39022Y15250I15J77*
G01Y15644*
G03X38958Y15721I79*
G02X38933Y15750I5J29*
G01Y15759*
G02X38935Y15769I30*
G03X38942Y15805I102J36*
G01Y15852*
G02X38966Y15881I29*
G03X39030Y15959I15J78*
G01Y16353*
G03X38951Y16431I79*
G01X38715*
G03X38636Y16353J78*
G01Y15959*
G03X38701Y15881I79*
G02X38725Y15852I6J29*
G01Y15844*
G02X38723Y15834I30*
G03X38717Y15797I102J37*
G01Y15750*
G02X38693Y15721I30*
G03X38628Y15644I14J77*
G01Y15250*
G03X38693Y15173I79*
G02X38717Y15144I6J29*
G01Y14564*
G03X38725Y14522I108*
G02X38728Y14511I27J11*
G01Y14492*
G02X38719Y14471I30*
G01X38436Y14189*
G02X38415Y14180I21J20*
G01X38265*
G02X38236Y14204J29*
G03X38158Y14268I78J14*
G01X37765*
G03X37687Y14203J78*
G02X37662Y14179I29J5*
G03X37638Y14173I14J107*
G02X37628Y14171I10J28*
G01X37556*
G02X37527Y14195J30*
G03X37450Y14260I77J14*
G01X37056*
G03X36978Y14195J79*
G02X36949Y14171I29J6*
G01X36896*
G02X36874Y14181J30*
G03X36742Y14240I132J118*
X36565Y14063J177*
X36742Y13886I177*
X36874Y13945J177*
G02X36896Y13955I22J20*
G01X36949*
G02X36978Y13931J30*
G03X37056Y13866I78J14*
G01X37450*
G03X37527Y13931J79*
G02X37556Y13955I29J6*
G01X37660*
G02X37689Y13933J30*
G03X37765Y13875I76J21*
G01X37870*
G02X37899Y13845J30*
X37880Y13818I29*
G03X37766Y13652I63J166*
X37783Y13576I177*
G02X37786Y13564I27J12*
G01Y12383*
G03X37812Y12295I157*
G02X37818Y12279I24J16*
X37788Y12249I30*
X37767Y12258J30*
G01X36290Y13735*
G02X36283Y13745I21J21*
G03X36182Y13815I101J38*
G01X36129*
G02X36107Y13825J30*
G03X36082Y13848I132J118*
G02X36071Y13872I18J24*
X36095Y13901I29*
G03X36152Y13931I20J106*
G01X36716Y14494*
G03X36747Y14571I77J77*
G01Y16601*
G02X36756Y16621I30*
G01X36997Y16862*
Y14496*
G03X37056Y14437I59*
G01X37450*
G03X37509Y14496J59*
G01Y14732*
G03X37450Y14791I59*
G01X37056*
G03X36997Y14732J59*
G01Y16862*
X37705Y17571*
Y14505*
G03X37765Y14446I60*
G01X38158*
G03X38217Y14505J59*
G01Y14741*
G03X38158Y14800I59*
G01X37765*
G03X37705Y14741J59*
G01Y17571*
X39142Y19007*
G02X39163Y19016I21J21*
G01X39179*
Y15250*
G03X39258Y15171I79*
G01X39494*
G03X39573Y15250J79*
G01Y15309*
G02X39603Y15339I30*
G01X39919*
G03X39942Y15341J108*
G02X39949Y15342I7J29*
G01X39975*
G02X39997Y15332J30*
G03X40129Y15273I132J118*
X40306Y15450J177*
X40129Y15627I177*
X39997Y15568J177*
G02X39975Y15558I22J20*
G01X39922*
G03X39899Y15556J108*
G02X39893Y15555I6J29*
G01X39603*
G02X39573Y15585J30*
G01Y15644*
G03X39494Y15723I79*
G01X39258*
G03X39179Y15644J79*
G01Y19016*
X39188*
Y15959*
G03X39266Y15880I78*
G01X39503*
G03X39581Y15959J79*
G01Y16018*
G02X39611Y16047I30*
G01X39680*
G03X39722Y16056J109*
G02X39734Y16058I12J27*
G01X39743*
G02X39765Y16049J29*
G03X39897Y15990I132J118*
X40075Y16167J177*
X40074Y16177I178*
G01Y16178*
G02X40083Y16199I30*
G01X40202Y16318*
G02X40223Y16327I21J21*
G01X40563*
G02X40592Y16297J30*
X40572Y16270I29*
G03X40335Y15935I118J335*
X40690Y15581I355*
X41044Y15935J354*
X40807Y16270I354*
G02X40787Y16297I10J27*
X40817Y16327I30*
G01X41331*
G02X41335J30*
G01Y15435*
G03X41690Y15081I355*
X42044Y15435J354*
X41690Y15790I354*
X41335Y15435J355*
G01Y16327*
G02X41359Y16308I4J30*
G03X41690Y16081I331J127*
X42044Y16435J354*
X41690Y16790I354*
X41359Y16562J355*
G02X41331Y16543I28J11*
G01X40817*
G02X40787Y16573J30*
X40807Y16601I30*
G03X41044Y16935I117J334*
X40690Y17290I354*
X40335Y16935J355*
X40572Y16601I355*
G02X40592Y16573I9J28*
X40563Y16543I29*
G01X40166*
G03X40089Y16512J108*
G01X39930Y16352*
G02X39909Y16344I21J21*
G01X39907*
G03X39897I10J177*
X39765Y16285J177*
G02X39743Y16275I22J19*
G01X39691*
G03X39648Y16266J108*
G02X39637Y16264I11J27*
G01X39611*
G02X39581Y16293J29*
G01Y16353*
G03X39503Y16431I78*
G01X39266*
G03X39188Y16353J78*
G01Y19016*
X42438*
Y12124*
G03X42989Y11573I551*
X43540Y12124J551*
X43508Y12308I551*
G02X43507Y12318I28J10*
X43536Y12347I29*
X43558Y12338J29*
G03X44190Y12066I632J597*
X45059Y12935J869*
X44190Y13804I869*
X43320Y12935J869*
X43400Y12572I870*
G02X43403Y12560I27J12*
X43373Y12530I30*
X43354Y12537J30*
G03X42989Y12675I365J413*
X42438Y12124J551*
G01Y18246*
G03X42989Y17695I551*
X43354Y17833J551*
G02X43373Y17840I19J22*
X43403Y17811J29*
X43400Y17798I30*
G03X43320Y17435I790J363*
X44190Y16566I870*
X45059Y17435J869*
X44190Y18304I869*
X43558Y18032J869*
G02X43536Y18023I22J20*
X43507Y18052J29*
X43508Y18062I29*
G03X43540Y18246I519J184*
X42989Y18797I551*
X42438Y18246J551*
G01Y19016*
X44869*
G02X44890Y19007J30*
G01X45403Y18494*
G02X45412Y18473I20J21*
G01Y18034*
G02X45393Y18006I29*
G03X45166Y17675I127J331*
G01Y13695*
G03X45520Y13341I354*
X45764Y13438J354*
G01Y12695*
G03X46119Y12341I355*
X46473Y12695J354*
X46119Y13049I354*
X45764Y12695J354*
G01Y13438*
G03X45875Y13695I244J257*
X45520Y14049I355*
X45166Y13695J354*
G01Y17675*
G03X45520Y17321I354*
X45764Y17418J354*
G01Y16675*
G03X46119Y16321I355*
X46473Y16675J354*
X46119Y17030I354*
X45764Y16675J355*
G01Y17418*
G03X45875Y17675I244J257*
X45648Y18006I355*
G02X45629Y18034I10J28*
G01Y18530*
G03X45597Y18607I109*
G01X45003Y19201*
G03X44927Y19233I76J77*
G01X39106*
G03X39029Y19201J109*
G01X36562Y16734*
G03X36531Y16658I77J76*
G01Y15244*
G02X36501Y15214I30*
G01X36495*
G02X36467Y15236J30*
G03X36297Y15362I170J51*
X36287J177*
G01X36285*
G02X36265Y15370J29*
G01X36264Y15371*
G02X36256Y15385I21J21*
G03X36227Y15436I105J26*
G01X36115Y15548*
G03X36053Y15579I76J77*
G02X36028Y15603I4J29*
G03X35950Y15668I78J14*
G01X35556*
G03X35478Y15589J79*
G01Y15353*
G03X35497Y15301I78*
G01Y14802*
G03X35556Y14743I59*
G01X35950*
G03X36009Y14802J59*
G01Y15038*
G03X35950Y15097I59*
G01X35556*
G03X35497Y15038J59*
G01Y15301*
G03X35556Y15274I59J52*
G01X35950*
G03X36005Y15296J79*
G02X36025Y15304I20J21*
X36052Y15287J29*
G03X36074Y15255I99J44*
G01X36111Y15217*
G02X36120Y15196I20J21*
G01Y15195*
G03Y15185I177J10*
X36297Y15008I177*
X36467Y15134J177*
G02X36495Y15155I28J8*
G01X36501*
G02X36531Y15126J29*
G01Y14628*
G02X36522Y14607I30*
G01X36039Y14124*
G02X36018Y14115I21J21*
G01X35596*
G02X35574Y14125J30*
G03X35441Y14184I133J118*
X35264Y14007J177*
G01Y21429*
X35395*
Y18967*
G03X35415Y18915I79*
G01Y18416*
G03X35474Y18357I59*
G01X35868*
G03X35927Y18416J59*
G01Y18652*
G03X35868Y18711I59*
G01X35474*
G03X35415Y18652J59*
G01Y18915*
G03X35474Y18888I59J52*
G01X35868*
G03X35945Y18953J79*
G02X35974Y18977I29J6*
G01X36257*
G02X36279Y18967J30*
G03X36411Y18908I132J118*
X36588Y19085J177*
X36411Y19262I177*
X36279Y19203J177*
G02X36257Y19193I22J20*
G01X35974*
G02X35945Y19217J30*
G03X35868Y19282I77J14*
G01X35474*
G03X35395Y19203J79*
G01Y21429*
X41480*
G03X41557Y21461J108*
G01X42039Y21943*
G03X42071Y22019I76J76*
G01Y24346*
G02X42079Y24367I29*
G01X43215Y25502*
G03X43247Y25579I77J77*
G01Y26183*
G02X43256Y26205I29*
G03X43315Y26338I118J133*
X43138Y26515I177*
X42961Y26338J177*
X43020Y26205I177*
G02X43030Y26183I19J22*
G01Y25636*
G02X43021Y25615I29*
G01X41886Y24479*
G03X41854Y24403I77J76*
G01Y22076*
G02X41846Y22056I29*
G01X41444Y21654*
G02X41423Y21646I21J21*
G01X34086*
G02X34057Y21675J29*
X34065Y21696I29*
G01X34205Y21835*
G02X34225Y21844I20J21*
G01X40823*
G02X40845Y21834J30*
G03X40977Y21775I132J118*
X41154Y21952J177*
X40977Y22129I177*
X40845Y22070J177*
G02X40823Y22060I22J20*
G01X34168*
G03X34092Y22029J108*
G01X29698Y17635*
G02X29677Y17626I21J21*
G01X29675*
G03X29666I9J177*
X29488Y17449J177*
X29601Y17284I178*
G02X29619Y17257I11J27*
X29611Y17236I29*
G01X29276Y16902*
G02X29255Y16893I21J20*
X29226Y16922J29*
G01Y17833*
G02X29255Y17863I29*
G01X29260*
G02X29288Y17842J30*
G03X29458Y17715I170J50*
X29635Y17892J177*
Y17902I177*
G01Y17904*
G02X29644Y17925I29*
G01X35700Y23981*
G02X35721Y23990I21J20*
G01X39901*
G03X39977Y24022J108*
G01X40558Y24602*
G03X40590Y24679I77J77*
G01Y25284*
G02X40600Y25306I29*
G03X40659Y25438I119J132*
X40481Y25615I178*
X40304Y25438J177*
X40363Y25306I177*
G02X40373Y25284I19J22*
G01Y24736*
G02X40365Y24715I29*
G01X39865Y24215*
G02X39844Y24207I21J21*
G01X35664*
G03X35588Y24175J109*
G01X29490Y18078*
G02X29470Y18069I20J21*
G01X29468*
G03X29458Y18070I10J177*
X29288Y17943J178*
G02X29260Y17922I28J8*
G01X29255*
G02X29226Y17951J29*
G01Y20562*
G02X29236Y20584I29*
G03X29295Y20716I118J132*
X29118Y20893I177*
X28940Y20716J177*
X29000Y20584I178*
G02X29009Y20562I20J22*
G01Y12411*
G02X29000Y12389I29*
G03X28973Y12358I118J132*
G02X28948Y12346I25J17*
X28919Y12375J29*
G01Y18203*
G03X28887Y18280I108*
G01X27102Y20064*
G02X27094Y20085I21J21*
G01Y20087*
G03Y20097I177J10*
X26917Y20274I177*
X26740Y20097J177*
G01Y27441*
X27822*
Y25421*
G03X28278Y24965I456*
X28734Y25421J456*
X28278Y25877I456*
X27822Y25421J456*
G01Y27441*
X28888*
Y21720*
G03X29459Y21149I571*
G01X30050*
G03X30620Y21720J571*
X30050Y22291I570*
G01X29459*
G03X28888Y21720J571*
G01Y27441*
X29259*
Y22862*
G03X29754Y22366I495*
X30250Y22862J496*
X29754Y23357I496*
X29259Y22862J495*
G01Y27441*
X30775*
Y25421*
G03X31231Y24965I456*
X31687Y25421J456*
X31231Y25877I456*
X30775Y25421J456*
G01Y27441*
X38433*
Y25428*
G03X38929Y24933I496*
X39424Y25428J495*
X38929Y25923I495*
X38433Y25428J495*
G01Y27441*
X38539*
Y26366*
G03X38717Y26189I178*
X38883Y26306J177*
G02X38890Y26317I28J10*
G01X39194Y26621*
G02X39215Y26630I21J21*
G01X43891*
G02X43904Y26627J30*
G03X43979Y26610I75J160*
X44156Y26787J177*
X43979Y26964I177*
X43904Y26947J177*
G02X43891Y26945I13J27*
G01X39138*
G03X39026Y26899J158*
G01X38667Y26540*
G02X38657Y26533I20J21*
G03X38539Y26366I60J167*
G01Y27441*
X46486*
Y18992*
G03X46565Y18913I79*
G01X48049*
G03X48128Y18992J79*
G01Y25503*
G03X48049Y25582I79*
G01X46565*
G03X46486Y25503J79*
G01Y27441*
X48278*
G02X48307Y27411J30*
G01Y148*
G02X48278Y118I29*
G01X148*
G02X118Y148J30*
G01Y27411*
X4306Y4112D02*
X4311Y4117D01*
G02X4331Y4126I20J21*
X4345Y4122J30*
G03X4430Y4101I85J156*
X4607Y4278J177*
Y4288I177*
G01Y4289*
G02X4615Y4310I29*
G01X4656Y4351*
G03X4688Y4428I76J77*
G01Y4544*
G02X4718Y4573I30*
G01X4806*
G03X4885Y4652J79*
G01Y5912*
G03X4806Y5991I79*
G01X4718*
G02X4688Y6020J29*
G01Y6598*
G02X4697Y6619I30*
G01X5357Y7280*
Y4652*
G03X5416Y4593I59*
G01X5869*
G03X5928Y4652J59*
G01Y5912*
G03X5869Y5971I59*
G01X5416*
G03X5357Y5912J59*
G01Y7280*
X6149Y8071*
G02X6170Y8080I21J21*
G01X14972*
G03X15048Y8112J108*
G01X15520Y8583*
G02X15541Y8592I21J21*
X15562Y8583J30*
G01X16120Y8025*
G03X16196Y7994I76J77*
G01X18489*
G02X18510Y7985J30*
G01X20100Y6395*
G03X20132Y6373I76J77*
G02X20141Y6367I12J27*
G01X20270Y6237*
G03X20347Y6206I77J77*
G01X24020*
G02X24049Y6176J30*
G01Y6117*
G03X24128Y6038I79*
G01X24443*
G03X24522Y6117J79*
G01Y6176*
G02X24551Y6206I29*
G01X26340*
G02X26361Y6197J30*
G01X26607Y5952*
G03X26660Y5922I76J76*
G02X26684Y5893I6J29*
X26654Y5864I30*
G01X8484*
G03X8407Y5832J108*
G01X6328Y3752*
G02X6307Y3744I21J21*
G01X4644*
G02X4623Y3752J29*
G01X4306Y4070*
G02X4297Y4091I20J21*
X4306Y4112I29*
G37*
G54D10*
G01X0Y0D02*
X48425D01*
Y27559*
X0*
Y0*
G54D11*
X692Y2884D03*
X806Y5038D03*
Y7371D03*
X1785Y4728D03*
X1818Y5707D03*
X2180Y22920D03*
X2222Y26115D03*
X2229Y24633D03*
X2278Y20815D03*
X2352Y18833D03*
X2401Y13645D03*
X2425Y16068D03*
X2517Y10500D03*
X3965Y4257D03*
X4430Y4278D03*
X5848Y6637D03*
X6230Y5282D03*
X6941Y5283D03*
X7806Y1497D03*
X9424Y3086D03*
X9535Y6784D03*
X9621Y21513D03*
X9676Y16061D03*
X9786Y19145D03*
Y24101D03*
X9896Y10169D03*
Y26469D03*
X9951Y13033D03*
X10782Y1654D03*
X12250Y3416D03*
X12799Y6686D03*
X14246Y26469D03*
X14479Y7681D03*
X14962Y19696D03*
X15306Y17779D03*
X15541Y9578D03*
X15591Y1838D03*
X15670Y7436D03*
X16005Y9495D03*
X16173Y23936D03*
X16494Y9517D03*
X16546Y16965D03*
X16834Y26249D03*
X17003Y16860D03*
X17096Y3783D03*
X17121Y15114D03*
X17436Y16931D03*
X17486Y13441D03*
Y14901D03*
X17800Y8842D03*
X17810Y9386D03*
X17874Y17053D03*
X18376Y19200D03*
X18506Y9918D03*
X18540Y6341D03*
X18886Y15842D03*
X19634Y22275D03*
X19839Y9184D03*
X19901Y7618D03*
X20070Y1728D03*
X20148Y12017D03*
X20596Y4954D03*
X20634Y15731D03*
X20692Y9885D03*
X20747Y26235D03*
X20997Y17011D03*
X21347Y3763D03*
X21410Y10668D03*
X21652Y6971D03*
X22387Y8416D03*
Y15063D03*
X22756Y12980D03*
X22781Y19861D03*
X22846Y7519D03*
X22867Y8160D03*
X23349Y10343D03*
X23403Y6733D03*
X23662Y23881D03*
X24109Y16223D03*
Y16850D03*
X24158Y26744D03*
X24348Y15643D03*
X24641Y16350D03*
X24938Y13545D03*
X24982Y14954D03*
X24994Y12494D03*
X25088Y14544D03*
X25116Y6765D03*
X25352Y11509D03*
X25478Y10962D03*
X25532Y17540D03*
X25540Y7565D03*
X25810Y23605D03*
X25835Y11968D03*
X25966Y14116D03*
Y17114D03*
X26342Y14734D03*
X26375Y7385D03*
X26520Y10556D03*
X26603Y14458D03*
X26917Y20097D03*
X27119Y13634D03*
X27123Y7043D03*
X27141Y8782D03*
X27371Y13975D03*
X27639Y11025D03*
X27641Y11444D03*
X27837Y11989D03*
X27896Y9051D03*
X28140Y17892D03*
X28241Y13203D03*
X28266Y17449D03*
X28323Y12249D03*
X28337Y14486D03*
X28402Y5395D03*
X28553Y11041D03*
X28621Y9050D03*
X28811Y11903D03*
X28960Y11071D03*
X29037Y3460D03*
X29118Y12257D03*
Y20716D03*
X29334Y14486D03*
X29369Y10728D03*
X29444Y26524D03*
X29458Y17892D03*
X29666Y17449D03*
X29884Y5417D03*
X29889Y6028D03*
X30001Y15533D03*
X30399Y9209D03*
X30651Y12297D03*
X30680Y5737D03*
X30955Y10562D03*
X31004Y9580D03*
X31115Y17034D03*
X31138Y14016D03*
X31485Y11560D03*
Y12507D03*
X31647Y22890D03*
X31726Y17573D03*
X32020Y10464D03*
Y11145D03*
X32328Y8511D03*
X32361Y7320D03*
X32458Y12100D03*
X32705Y13610D03*
X32744Y10447D03*
X32747Y11492D03*
X32858Y25863D03*
X32991Y13390D03*
X33276Y6604D03*
X33516Y13986D03*
X33756Y12510D03*
X33789Y13776D03*
X33868Y11201D03*
X33900Y9577D03*
X34174Y18038D03*
X34573Y17086D03*
X34895Y10762D03*
Y11328D03*
X34898Y12262D03*
X34911Y12803D03*
X35428Y12259D03*
X35441Y14007D03*
X35456Y12819D03*
X35580Y11176D03*
X35889Y16716D03*
X35936Y10553D03*
X35953Y11233D03*
X35975Y13707D03*
X36195Y13371D03*
X36297Y15185D03*
X36401Y17401D03*
X36411Y19085D03*
X36621Y22883D03*
X36713Y24872D03*
X36742Y14063D03*
X36784Y11990D03*
X37075Y15595D03*
X37162Y16433D03*
X37527Y20167D03*
X37714Y11353D03*
X37943Y13652D03*
X38054Y16498D03*
X38059Y3563D03*
X38108Y15595D03*
X38515Y14623D03*
X38717Y26366D03*
X38793Y12085D03*
X38905Y11421D03*
X39307Y2902D03*
X39462Y12268D03*
X39558Y23006D03*
X39897Y16167D03*
X40129Y15450D03*
X40481Y25438D03*
X40808Y9331D03*
X40841Y8532D03*
X40977Y21952D03*
X41281Y5854D03*
X41288Y10334D03*
X41547Y3049D03*
X42989Y12124D02*
X42878Y11554D01*
X42989Y12124D02*
X43559Y12014D01*
X42989Y12124D02*
X42419Y12235D01*
X42989Y12124D02*
X43099Y12694D01*
X42989Y18246D02*
X42878Y18816D01*
X42989Y18246D02*
X43099Y17676D01*
X42989Y18246D02*
X42419Y18136D01*
X42989Y18246D02*
X43559Y18357D01*
X43109Y6655D03*
X43138Y26338D03*
X43211Y22614D03*
X43979Y26787D03*
X44235Y11534D03*
X44314Y9504D03*
X44323Y7153D03*
X44973Y24597D03*
X45512Y11131D03*
X45548Y1177D03*
X45671Y8613D03*
X46715Y8760D03*
X46753Y6066D03*
X47417Y11485D03*
G54D12*
X2401Y5291D02*
X2283D01*
X2598Y4690D02*
Y4572D01*
Y5891D02*
Y6009D01*
X2795Y5291D02*
X2913D01*
X5446Y5282D02*
X5328D01*
X5643Y4682D02*
Y4564D01*
Y5883D02*
Y6001D01*
X5840Y5282D02*
X5958D01*
X15712Y17779D02*
X15594D01*
X15909Y17178D02*
Y17060D01*
Y18379D02*
Y18497D01*
X16106Y17779D02*
X16224D01*
X20553Y7225D02*
X20435D01*
X20661Y7175D02*
Y7057D01*
Y7274D02*
Y7392D01*
X20770Y7225D02*
X20888D01*
X23259Y15652D02*
X23141D01*
X23347Y15484D02*
Y15366D01*
Y15819D02*
Y15937D01*
X23436Y15652D02*
X23554D01*
X23903Y10894D02*
X23785D01*
X24070Y10806D02*
Y10688D01*
Y10983D02*
Y11101D01*
X24238Y10894D02*
X24356D01*
X24918Y16157D02*
X24800D01*
X25086Y16068D02*
Y15950D01*
Y16246D02*
Y16364D01*
X25253Y16157D02*
X25371D01*
X26207Y8267D02*
X26089D01*
X26262Y11127D02*
X26144D01*
X26303Y13031D02*
X26185D01*
X26351Y10959D02*
Y10841D01*
Y11294D02*
Y11412D01*
X26375Y8179D02*
Y8061D01*
Y8356D02*
Y8474D01*
X26439Y11127D02*
X26558D01*
X26542Y8267D02*
X26660D01*
X26904Y12834D02*
Y12716D01*
Y13227D02*
Y13346D01*
X26916Y7716D02*
X26798D01*
X27083Y7628D02*
Y7509D01*
Y7805D02*
Y7923D01*
X27251Y7716D02*
X27369D01*
X27504Y13031D02*
X27622D01*
X27915Y10558D02*
X27796D01*
X27921Y9846D02*
X27803D01*
X28003Y10390D02*
Y10272D01*
Y10725D02*
Y10843D01*
X28010Y9679D02*
Y9561D01*
Y10013D02*
Y10132D01*
X28092Y10558D02*
X28210D01*
X28099Y9846D02*
X28217D01*
X28579Y8110D02*
X28461D01*
X28747Y8022D02*
Y7904D01*
Y8199D02*
Y8317D01*
X28914Y8110D02*
X29032D01*
X29292Y8108D02*
X29174D01*
X29459Y8020D02*
Y7902D01*
Y8197D02*
Y8315D01*
X29626Y8108D02*
X29745D01*
X29834Y16613D02*
X29716D01*
X30001Y16525D02*
Y16407D01*
Y16702D02*
Y16820D01*
X30169Y16613D02*
X30287D01*
X33275Y11919D02*
X33183Y11826D01*
X33275Y12253D02*
X33161Y12308D01*
X33293Y13187D02*
X33175D01*
X33381Y13020D02*
Y12902D01*
Y13354D02*
Y13472D01*
X33452Y11919D02*
X33544Y11826D01*
X33452Y12253D02*
X33570Y12291D01*
X33470Y13187D02*
X33588D01*
X35000Y13526D02*
X34882D01*
X35089Y13359D02*
Y13241D01*
Y13693D02*
Y13812D01*
X35178Y13526D02*
X35296D01*
X35503Y18534D02*
X35385D01*
X35586Y14920D02*
X35468D01*
X35671Y18445D02*
Y18327D01*
Y18622D02*
Y18741D01*
X35753Y14831D02*
Y14713D01*
Y15009D02*
Y15127D01*
X35838Y18534D02*
X35956D01*
X35921Y14920D02*
X36039D01*
X37085Y14614D02*
X36967D01*
X37253Y14526D02*
Y14407D01*
Y14703D02*
Y14821D01*
X37420Y14614D02*
X37538D01*
X37794Y14623D02*
X37676D01*
X37961Y14534D02*
Y14416D01*
Y14711D02*
Y14830D01*
X38129Y14623D02*
X38247D01*
G54D13*
X16497Y12178D02*
X16184Y11864D01*
X16497Y12178D02*
X16810Y12491D01*
X16497Y12178D02*
X16184Y12491D01*
X16497Y12178D02*
X16810Y11864D01*
X32829Y19202D02*
X32516Y18889D01*
X32829Y19202D02*
X32516Y19516D01*
X32829Y19202D02*
X33142Y19516D01*
X32829Y19202D02*
X33142Y18889D01*
G54D14*
X1144Y13796D02*
X1443Y13497D01*
X1144Y13796D02*
X1443Y14095D01*
X1144Y13796D02*
X844Y13497D01*
X1144Y13796D02*
X844Y14095D01*
X1144Y26796D02*
X5401D01*
X6846Y25350*
X11910*
X15651Y21609*
X16972*
X4148Y1617D02*
X4447Y1318D01*
X4148Y1617D02*
X3848Y1916D01*
X4148Y1617D02*
X4447Y1916D01*
X4148Y1617D02*
X3848Y1318D01*
X11144Y20796D02*
X11443Y20497D01*
X11144Y20796D02*
X10844Y21095D01*
X11144Y20796D02*
X11443Y21095D01*
X11144Y20796D02*
X10844Y20497D01*
X11144Y26796D02*
X11443Y26497D01*
X11144Y26796D02*
X10844Y27095D01*
X11144Y26796D02*
X11443Y27095D01*
X11144Y26796D02*
X10844Y26497D01*
X16972Y17779D02*
Y16891D01*
X17003Y16860*
X16972Y21609D02*
Y17779D01*
X17168Y15580D02*
X16882D01*
X16445*
X17168D02*
Y15370D01*
X17121Y15324*
Y15114*
X17880Y15612D02*
X17594D01*
X17562Y15580*
X17168*
X18497Y12178D02*
Y13675D01*
X17880Y14292*
Y15612*
X19901Y7618D02*
X19392Y8128D01*
Y10163*
X18497Y11057*
Y12178*
X20661Y7618D02*
X19901D01*
X20747Y26235D02*
Y25384D01*
X16972Y21609*
X23899Y15652D02*
X24133D01*
X24141Y15643*
X24348*
X24070Y10343D02*
X23349D01*
X24285Y7141D02*
X21821D01*
X21652Y6971*
X24285Y7141D02*
Y8313D01*
X23349Y9249*
Y10343*
X25835Y11968D02*
X26904D01*
X26520Y10556D02*
X26666Y10702D01*
X26763*
X26902Y10841*
Y11127*
Y11532*
X26904Y11533*
Y11968*
X27816*
X27837Y11989*
X27694Y1960D02*
X27394Y2259D01*
X27694Y1960D02*
X27993Y2259D01*
X27694Y1960D02*
X27993Y1661D01*
X27694Y1960D02*
X27394Y1661D01*
X28554Y10558D02*
Y11040D01*
X28553Y11041*
X28554Y10558D02*
Y10205D01*
X28561Y10198*
Y9846*
X30001Y16062D02*
Y15798D01*
Y15533*
Y16062D02*
X30825D01*
X31965Y17202*
X32829*
X30965Y8467D02*
Y9102D01*
X31004Y9141*
Y9580*
X32079Y1960D02*
X31780Y1661D01*
X32079Y1960D02*
X32379Y2259D01*
X32079Y1960D02*
X31780Y2259D01*
X32079Y1960D02*
X32379Y1661D01*
X32705Y13610D02*
Y13070D01*
X33264Y12510*
X33756*
X33276Y6604D02*
X26135D01*
X25598Y7141*
X24285*
X33900Y9577D02*
Y10578D01*
X34257Y10935*
Y11369*
X33915Y11712*
Y12086*
Y12371*
X33859Y12427*
X33840*
X33756Y12510*
X33933Y13187D02*
Y12687D01*
X33756Y12510*
X37943Y13652D02*
Y12383D01*
X38905Y11421*
X38717Y26366D02*
X39138Y26787D01*
X43979*
X41493Y6066D02*
X41288Y6270D01*
Y10334*
X41493Y6066D02*
X41281Y5854D01*
X46753Y6066D02*
X41493D01*
G54D15*
X47185Y19359D02*
X47164Y19360D01*
X47144Y19362*
X47125Y19365*
X47108Y19370*
X47091Y19376*
X47076Y19384*
X47061Y19394*
X47048Y19404*
X47036Y19416*
X47026Y19428*
X47017Y19442*
X47010Y19456*
X47004Y19469*
X47000Y19484*
X46998Y19500*
X46997Y19516*
X46998Y19532*
X47000Y19548*
X47005Y19564*
X47011Y19579*
X47019Y19593*
X47028Y19607*
X47039Y19620*
X47052Y19632*
X47066Y19644*
X47081Y19654*
X47097Y19663*
X47115Y19669*
X47133Y19675*
X47152Y19679*
X47172Y19681*
X47193Y19682*
X47212Y19681*
X47231Y19679*
X47248Y19676*
X47264Y19670*
X47280Y19664*
X47294Y19656*
X47308Y19646*
X47320Y19635*
X47332Y19623*
X47342Y19610*
X47350Y19596*
X47357Y19582*
X47363Y19568*
X47366Y19552*
X47368Y19536*
X47369Y19519*
X47368Y19501*
X47366Y19485*
X47363Y19469*
X47357Y19455*
X47350Y19441*
X47342Y19428*
X47332Y19416*
X47320Y19404*
X47308Y19393*
X47294Y19384*
X47279Y19376*
X47262Y19370*
X47244Y19365*
X47226Y19361*
X47206Y19360*
X47185Y19359*
X47279Y25100D02*
Y24868D01*
Y24849*
X47278Y24832*
X47276Y24816*
X47275Y24801*
X47273Y24787*
X47270Y24774*
X47267Y24762*
X47264Y24752*
X47255Y24732*
X47244Y24715*
X47230Y24700*
X47214Y24688*
X47197Y24678*
X47179Y24672*
X47160Y24668*
X47140Y24666*
X47127Y24667*
X47113Y24668*
X47100Y24672*
X47088Y24676*
X47076Y24683*
X47065Y24690*
X47055Y24698*
X47045Y24708*
X47036Y24720*
X47028Y24732*
X47022Y24747*
X47017Y24762*
X47013Y24780*
X47010Y24799*
X47008Y24819*
Y24841*
Y25100*
X47279*
X47332Y21057D02*
X47296Y21056D01*
X47263*
X47231Y21053*
X47201Y21050*
X47172Y21045*
X47146Y21040*
X47121Y21034*
X47098Y21028*
X47076Y21020*
X47056Y21011*
X47037Y21000*
X47020Y20990*
X47004Y20979*
X46988Y20966*
X46975Y20952*
X46962Y20938*
X46951Y20923*
X46941Y20907*
X46932Y20890*
X46926Y20872*
X46920Y20852*
X46917Y20832*
X46915Y20812*
X46914Y20790*
X46915Y20774*
X46916Y20758*
X46918Y20743*
X46920Y20728*
X46924Y20714*
X46929Y20700*
X46934Y20687*
X46940Y20674*
X46956Y20650*
X46973Y20628*
X46993Y20609*
X47017Y20592*
X47044Y20576*
X47072Y20563*
X47104Y20552*
X47139Y20541*
X47157Y20537*
X47177Y20533*
X47200Y20530*
X47223Y20528*
X47248Y20525*
X47274Y20524*
X47302Y20523*
X47332*
X47367Y20524*
X47400*
X47432Y20527*
X47462Y20530*
X47490Y20534*
X47516Y20540*
X47541Y20545*
X47564Y20552*
X47586Y20560*
X47606Y20569*
X47625Y20579*
X47643Y20589*
X47660Y20601*
X47675Y20613*
X47688Y20627*
X47701Y20641*
X47712Y20656*
X47722Y20672*
X47731Y20689*
X47737Y20708*
X47743Y20727*
X47746Y20747*
X47748Y20768*
X47749Y20790*
X47748Y20819*
X47744Y20846*
X47737Y20872*
X47728Y20896*
X47716Y20918*
X47702Y20939*
X47684Y20959*
X47665Y20976*
X47652Y20986*
X47637Y20995*
X47622Y21004*
X47606Y21012*
X47588Y21019*
X47570Y21025*
X47551Y21032*
X47530Y21037*
X47509Y21042*
X47487Y21046*
X47464Y21049*
X47439Y21052*
X47414Y21054*
X47388Y21056*
X47360Y21057*
X47332*
Y20954D02*
X47356D01*
X47380Y20953*
X47403Y20952*
X47424Y20951*
X47445Y20949*
X47464Y20948*
X47483Y20945*
X47500Y20942*
X47516Y20939*
X47532Y20936*
X47546Y20932*
X47559Y20928*
X47571Y20923*
X47582Y20918*
X47592Y20912*
X47600Y20907*
X47616Y20895*
X47629Y20882*
X47641Y20868*
X47650Y20854*
X47657Y20839*
X47663Y20824*
X47666Y20807*
X47667Y20790*
X47666Y20773*
X47663Y20756*
X47657Y20741*
X47650Y20726*
X47640Y20712*
X47629Y20698*
X47616Y20685*
X47600Y20673*
X47592Y20668*
X47581Y20662*
X47570Y20657*
X47558Y20652*
X47545Y20648*
X47531Y20644*
X47516Y20641*
X47500Y20638*
X47483Y20635*
X47464Y20632*
X47444Y20631*
X47424Y20629*
X47403Y20628*
X47380Y20627*
X47356Y20626*
X47332*
X47308*
X47284Y20627*
X47261Y20628*
X47240Y20629*
X47219Y20631*
X47200Y20632*
X47181Y20635*
X47164Y20638*
X47148Y20641*
X47132Y20644*
X47119Y20648*
X47105Y20652*
X47093Y20657*
X47083Y20662*
X47072Y20668*
X47064Y20673*
X47048Y20685*
X47035Y20698*
X47024Y20712*
X47014Y20726*
X47007Y20741*
X47001Y20757*
X46998Y20774*
X46997Y20791*
X46998Y20808*
X47001Y20824*
X47005Y20840*
X47012Y20853*
X47020Y20867*
X47030Y20880*
X47042Y20892*
X47056Y20902*
X47066Y20908*
X47076Y20914*
X47088Y20920*
X47101Y20925*
X47115Y20929*
X47130Y20934*
X47145Y20937*
X47162Y20941*
X47180Y20944*
X47199Y20947*
X47219Y20949*
X47240Y20951*
X47261Y20952*
X47284Y20953*
X47308Y20954*
X47332*
X47337Y24417D02*
X47312Y24416D01*
X47288*
X47264Y24413*
X47240Y24410*
X47218Y24407*
X47196Y24402*
X47176Y24396*
X47156Y24390*
X47136Y24383*
X47117Y24375*
X47099Y24365*
X47081Y24356*
X47064Y24345*
X47048Y24333*
X47033Y24321*
X47018Y24308*
X47004Y24294*
X46991Y24280*
X46979Y24264*
X46968Y24249*
X46957Y24233*
X46948Y24216*
X46940Y24200*
X46932Y24182*
X46925Y24164*
X46919Y24146*
X46914Y24127*
X46910Y24108*
X46907Y24088*
X46904Y24068*
Y24046*
X46903Y24025*
X46904Y23997*
X46906Y23970*
X46911Y23943*
X46916Y23917*
X46924Y23892*
X46933Y23868*
X46944Y23844*
X46957Y23820*
X46971Y23799*
X46987Y23778*
X47004Y23758*
X47022Y23740*
X47041Y23724*
X47062Y23708*
X47084Y23694*
X47108Y23682*
X47132Y23671*
X47158Y23661*
X47184Y23652*
X47212Y23646*
X47239Y23640*
X47268Y23637*
X47297Y23635*
X47328Y23634*
X47358Y23635*
X47388Y23637*
X47417Y23641*
X47445Y23647*
X47472Y23654*
X47500Y23662*
X47525Y23672*
X47550Y23684*
X47574Y23697*
X47596Y23712*
X47617Y23728*
X47636Y23745*
X47654Y23764*
X47671Y23784*
X47685Y23804*
X47699Y23827*
X47711Y23850*
X47721Y23874*
X47729Y23898*
X47736Y23923*
X47742Y23948*
X47746Y23973*
X47748Y23999*
X47749Y24025*
X47748Y24054*
X47746Y24082*
X47741Y24109*
X47736Y24135*
X47728Y24160*
X47718Y24185*
X47707Y24209*
X47693Y24232*
X47679Y24254*
X47663Y24275*
X47646Y24294*
X47628Y24312*
X47608Y24329*
X47587Y24344*
X47564Y24358*
X47541Y24370*
X47517Y24381*
X47492Y24391*
X47467Y24399*
X47442Y24405*
X47416Y24411*
X47390Y24414*
X47364Y24416*
X47337Y24417*
X47339Y24305D02*
X47375Y24304D01*
X47408Y24300*
X47440Y24294*
X47471Y24285*
X47499Y24274*
X47525Y24260*
X47549Y24244*
X47572Y24226*
X47592Y24205*
X47608Y24184*
X47624Y24160*
X47636Y24136*
X47644Y24111*
X47651Y24084*
X47655Y24056*
X47656Y24026*
X47655Y23996*
X47651Y23968*
X47644Y23940*
X47635Y23915*
X47623Y23890*
X47608Y23867*
X47591Y23845*
X47571Y23825*
X47548Y23807*
X47524Y23790*
X47496Y23777*
X47467Y23766*
X47436Y23757*
X47401Y23751*
X47365Y23748*
X47327Y23746*
X47303Y23747*
X47279Y23748*
X47256Y23751*
X47233Y23755*
X47212Y23759*
X47192Y23765*
X47172Y23772*
X47152Y23780*
X47135Y23788*
X47118Y23799*
X47102Y23809*
X47087Y23821*
X47073Y23834*
X47060Y23848*
X47048Y23863*
X47037Y23879*
X47028Y23895*
X47020Y23912*
X47012Y23929*
X47007Y23948*
X47002Y23966*
X46999Y23985*
X46997Y24004*
X46996Y24024*
X46998Y24052*
X47001Y24080*
X47008Y24106*
X47016Y24132*
X47028Y24156*
X47041Y24179*
X47057Y24201*
X47076Y24222*
X47086Y24232*
X47096Y24242*
X47108Y24251*
X47121Y24259*
X47135Y24266*
X47149Y24272*
X47164Y24279*
X47180Y24284*
X47197Y24289*
X47215Y24293*
X47234Y24297*
X47253Y24300*
X47273Y24302*
X47294Y24304*
X47316Y24305*
X47339*
X47472Y23531D02*
X47464Y23428D01*
X47493Y23424*
X47520Y23416*
X47544Y23407*
X47564Y23395*
X47574Y23388*
X47584Y23380*
X47592Y23371*
X47600Y23361*
X47608Y23350*
X47615Y23339*
X47622Y23326*
X47628Y23312*
X47639Y23284*
X47646Y23253*
X47651Y23221*
X47652Y23187*
Y23157*
X47648Y23129*
X47642Y23103*
X47634Y23078*
X47624Y23056*
X47612Y23036*
X47599Y23020*
X47584Y23008*
X47567Y22997*
X47550Y22990*
X47532Y22986*
X47513Y22984*
X47495Y22986*
X47477Y22990*
X47461Y22997*
X47446Y23007*
X47439Y23013*
X47432Y23020*
X47426Y23028*
X47420Y23037*
X47413Y23047*
X47408Y23057*
X47403Y23068*
X47397Y23081*
X47394Y23091*
X47390Y23103*
X47386Y23117*
X47381Y23134*
X47376Y23153*
X47370Y23176*
X47364Y23200*
X47358Y23227*
X47351Y23254*
X47344Y23279*
X47338Y23302*
X47332Y23323*
X47325Y23341*
X47319Y23358*
X47312Y23372*
X47307Y23384*
X47299Y23399*
X47290Y23412*
X47281Y23424*
X47272Y23436*
X47262Y23446*
X47252Y23456*
X47241Y23464*
X47230Y23472*
X47219Y23478*
X47207Y23484*
X47195Y23489*
X47182Y23493*
X47169Y23496*
X47156Y23499*
X47142Y23500*
X47128*
X47113*
X47098Y23498*
X47083Y23496*
X47068Y23492*
X47054Y23487*
X47040Y23480*
X47026Y23473*
X47012Y23465*
X47000Y23456*
X46988Y23446*
X46976Y23434*
X46965Y23422*
X46956Y23408*
X46946Y23394*
X46938Y23379*
X46931Y23363*
X46924Y23345*
X46919Y23328*
X46914Y23310*
X46910Y23292*
X46907Y23272*
X46904Y23253*
Y23233*
X46903Y23212*
X46904Y23190*
Y23168*
X46907Y23148*
X46910Y23127*
X46914Y23108*
X46920Y23088*
X46925Y23070*
X46932Y23052*
X46940Y23036*
X46948Y23020*
X46958Y23004*
X46968Y22991*
X46980Y22978*
X46992Y22966*
X47004Y22955*
X47019Y22945*
X47033Y22936*
X47048Y22928*
X47064Y22922*
X47080Y22916*
X47096Y22912*
X47112Y22908*
X47130Y22906*
X47148Y22905*
X47156Y23009*
X47136Y23012*
X47119Y23016*
X47103Y23021*
X47088Y23028*
X47073Y23035*
X47060Y23044*
X47048Y23054*
X47038Y23066*
X47028Y23079*
X47020Y23092*
X47014Y23108*
X47008Y23125*
X47004Y23144*
X47000Y23164*
X46999Y23185*
X46998Y23208*
X46999Y23232*
X47000Y23254*
X47003Y23275*
X47007Y23293*
X47012Y23310*
X47018Y23326*
X47026Y23340*
X47034Y23352*
X47044Y23362*
X47053Y23371*
X47063Y23379*
X47074Y23385*
X47085Y23390*
X47096Y23393*
X47108Y23396*
X47121*
X47132*
X47142Y23394*
X47152Y23392*
X47161Y23388*
X47170Y23384*
X47178Y23379*
X47186Y23372*
X47193Y23364*
X47200Y23355*
X47208Y23343*
X47216Y23327*
X47223Y23308*
X47230Y23286*
X47237Y23261*
X47244Y23232*
X47252Y23201*
X47260Y23170*
X47267Y23140*
X47273Y23114*
X47280Y23090*
X47287Y23068*
X47292Y23050*
X47299Y23034*
X47304Y23020*
X47312Y23003*
X47322Y22987*
X47332Y22972*
X47342Y22958*
X47352Y22945*
X47364Y22934*
X47376Y22924*
X47388Y22915*
X47400Y22907*
X47414Y22900*
X47428Y22894*
X47442Y22889*
X47457Y22885*
X47472Y22883*
X47488Y22881*
X47504Y22880*
X47520Y22881*
X47536Y22883*
X47552Y22886*
X47568Y22890*
X47583Y22895*
X47598Y22901*
X47612Y22909*
X47628Y22918*
X47641Y22928*
X47655Y22938*
X47667Y22950*
X47679Y22963*
X47689Y22977*
X47700Y22992*
X47708Y23008*
X47717Y23025*
X47724Y23043*
X47731Y23061*
X47736Y23080*
X47741Y23100*
X47744Y23120*
X47748Y23140*
Y23161*
X47749Y23183*
X47748Y23209*
Y23236*
X47744Y23260*
X47741Y23284*
X47736Y23307*
X47731Y23328*
X47724Y23349*
X47717Y23368*
X47708Y23387*
X47699Y23404*
X47688Y23420*
X47676Y23435*
X47664Y23449*
X47650Y23463*
X47636Y23475*
X47620Y23486*
X47603Y23496*
X47586Y23504*
X47568Y23512*
X47550Y23519*
X47532Y23524*
X47512Y23527*
X47492Y23529*
X47472Y23531*
X47546Y19770D02*
X47537Y19673D01*
X47554Y19670*
X47569Y19666*
X47583Y19661*
X47596Y19656*
X47608Y19649*
X47619Y19642*
X47628Y19635*
X47636Y19626*
X47644Y19617*
X47649Y19608*
X47655Y19598*
X47659Y19587*
X47663Y19576*
X47665Y19564*
X47666Y19551*
X47667Y19538*
X47665Y19516*
X47661Y19494*
X47655Y19475*
X47646Y19456*
X47634Y19440*
X47621Y19424*
X47606Y19411*
X47589Y19400*
X47570Y19388*
X47548Y19379*
X47522Y19370*
X47493Y19362*
X47463Y19356*
X47432Y19351*
X47401Y19348*
X47370Y19347*
X47367*
X47362*
X47356Y19348*
X47350*
X47373Y19364*
X47394Y19383*
X47412Y19405*
X47428Y19430*
X47435Y19443*
X47441Y19456*
X47447Y19470*
X47451Y19484*
X47454Y19499*
X47456Y19513*
X47457Y19528*
X47458Y19543*
X47457Y19568*
X47453Y19592*
X47448Y19615*
X47440Y19636*
X47429Y19658*
X47416Y19678*
X47402Y19696*
X47384Y19715*
X47365Y19732*
X47344Y19746*
X47323Y19758*
X47299Y19768*
X47274Y19776*
X47248Y19780*
X47220Y19784*
X47190Y19785*
X47160Y19784*
X47131Y19780*
X47104Y19775*
X47078Y19767*
X47054Y19756*
X47031Y19744*
X47010Y19729*
X46990Y19712*
X46972Y19692*
X46956Y19672*
X46944Y19652*
X46933Y19629*
X46924Y19605*
X46919Y19580*
X46916Y19555*
X46914Y19528*
X46915Y19508*
X46916Y19488*
X46920Y19470*
X46925Y19452*
X46931Y19433*
X46938Y19416*
X46947Y19398*
X46957Y19382*
X46968Y19365*
X46980Y19351*
X46994Y19336*
X47009Y19324*
X47025Y19312*
X47042Y19300*
X47060Y19290*
X47080Y19281*
X47100Y19273*
X47124Y19266*
X47149Y19260*
X47176Y19256*
X47207Y19252*
X47239Y19249*
X47273Y19248*
X47309Y19247*
X47348Y19248*
X47384Y19249*
X47418Y19252*
X47451Y19256*
X47480Y19260*
X47509Y19266*
X47535Y19273*
X47560Y19281*
X47582Y19290*
X47603Y19300*
X47623Y19311*
X47641Y19323*
X47658Y19336*
X47674Y19351*
X47688Y19366*
X47700Y19382*
X47712Y19400*
X47722Y19417*
X47730Y19436*
X47737Y19456*
X47743Y19476*
X47746Y19496*
X47748Y19518*
X47749Y19540*
X47748Y19564*
X47746Y19586*
X47742Y19607*
X47736Y19627*
X47728Y19646*
X47720Y19664*
X47708Y19681*
X47696Y19696*
X47682Y19712*
X47667Y19724*
X47650Y19736*
X47632Y19745*
X47612Y19754*
X47592Y19760*
X47569Y19766*
X47546Y19770*
X47639Y21164D02*
X47736D01*
Y21706*
X47718*
X47700Y21704*
X47683Y21700*
X47666Y21694*
X47638Y21682*
X47611Y21668*
X47584Y21649*
X47557Y21628*
X47544Y21616*
X47529Y21603*
X47515Y21588*
X47500Y21572*
X47484Y21556*
X47468Y21537*
X47451Y21517*
X47433Y21496*
X47407Y21464*
X47381Y21436*
X47357Y21408*
X47335Y21384*
X47314Y21364*
X47294Y21345*
X47276Y21329*
X47260Y21316*
X47244Y21304*
X47228Y21295*
X47212Y21287*
X47197Y21280*
X47183Y21275*
X47168Y21272*
X47153Y21269*
X47139Y21268*
X47124Y21269*
X47110Y21271*
X47096Y21274*
X47084Y21279*
X47072Y21285*
X47060Y21292*
X47048Y21301*
X47038Y21311*
X47028Y21322*
X47020Y21334*
X47013Y21347*
X47008Y21360*
X47003Y21375*
X47000Y21390*
X46998Y21406*
X46997Y21423*
X46998Y21440*
X47000Y21457*
X47004Y21473*
X47008Y21488*
X47014Y21503*
X47022Y21516*
X47031Y21528*
X47040Y21540*
X47052Y21549*
X47064Y21559*
X47078Y21566*
X47092Y21572*
X47108Y21577*
X47125Y21580*
X47143Y21583*
X47161Y21584*
X47151Y21687*
X47123Y21683*
X47096Y21678*
X47072Y21671*
X47049Y21661*
X47028Y21651*
X47008Y21638*
X46991Y21623*
X46975Y21607*
X46960Y21588*
X46948Y21569*
X46938Y21548*
X46929Y21525*
X46923Y21501*
X46918Y21476*
X46915Y21449*
X46914Y21420*
X46915Y21392*
X46918Y21364*
X46924Y21339*
X46930Y21315*
X46940Y21292*
X46951Y21272*
X46964Y21252*
X46980Y21234*
X46996Y21218*
X47014Y21204*
X47032Y21192*
X47052Y21182*
X47073Y21175*
X47095Y21169*
X47117Y21166*
X47141Y21165*
X47166Y21167*
X47190Y21170*
X47214Y21176*
X47238Y21185*
X47250Y21191*
X47262Y21197*
X47274Y21204*
X47286Y21212*
X47299Y21221*
X47312Y21231*
X47324Y21241*
X47337Y21252*
X47352Y21265*
X47366Y21280*
X47383Y21296*
X47400Y21315*
X47418Y21335*
X47438Y21357*
X47460Y21381*
X47481Y21408*
X47500Y21429*
X47516Y21448*
X47532Y21466*
X47545Y21481*
X47557Y21495*
X47568Y21507*
X47577Y21516*
X47584Y21524*
X47598Y21536*
X47612Y21547*
X47625Y21557*
X47639Y21566*
Y21164*
X47736Y20042D02*
Y20143D01*
X47096*
X47112Y20162*
X47130Y20184*
X47148Y20210*
X47164Y20238*
X47181Y20267*
X47195Y20294*
X47207Y20320*
X47216Y20344*
X47120*
X47099Y20303*
X47076Y20264*
X47051Y20229*
X47024Y20196*
X47009Y20181*
X46996Y20167*
X46982Y20154*
X46968Y20142*
X46954Y20132*
X46940Y20122*
X46928Y20114*
X46914Y20107*
Y20042*
X47736*
Y22730D02*
X46917D01*
Y22139*
X47014*
Y22622*
X47264*
Y22169*
X47360*
Y22622*
X47639*
Y22120*
X47736*
Y22730*
Y25208D02*
X46917D01*
Y24845*
Y24819*
X46919Y24794*
X46920Y24771*
X46923Y24749*
X46926Y24729*
X46930Y24711*
X46934Y24694*
X46940Y24679*
X46945Y24665*
X46952Y24652*
X46960Y24640*
X46970Y24628*
X46980Y24616*
X46992Y24607*
X47004Y24597*
X47017Y24588*
X47032Y24580*
X47046Y24573*
X47061Y24568*
X47076Y24563*
X47092Y24559*
X47108Y24556*
X47124Y24555*
X47140Y24554*
X47162Y24555*
X47183Y24557*
X47202Y24562*
X47221Y24568*
X47239Y24576*
X47256Y24586*
X47272Y24597*
X47288Y24610*
X47302Y24625*
X47315Y24643*
X47327Y24661*
X47336Y24682*
X47345Y24705*
X47353Y24729*
X47359Y24756*
X47364Y24784*
X47374Y24764*
X47384Y24747*
X47394Y24732*
X47404Y24720*
X47428Y24696*
X47453Y24673*
X47482Y24651*
X47513Y24630*
X47736Y24488*
Y24624*
X47565Y24732*
X47548Y24744*
X47531Y24754*
X47515Y24765*
X47500Y24775*
X47487Y24784*
X47475Y24793*
X47463Y24802*
X47453Y24810*
X47435Y24824*
X47420Y24839*
X47408Y24852*
X47398Y24865*
X47391Y24877*
X47385Y24889*
X47380Y24902*
X47376Y24914*
X47375Y24925*
X47373Y24939*
X47372Y24955*
Y24975*
Y25100*
X47736*
Y25208*
G54D16*
X3661Y5291D02*
Y4561D01*
X3965Y4257*
X4587Y3636*
X6364*
X8484Y5756*
X29546*
X29884Y5417*
X4580Y5282D02*
Y4428D01*
X4430Y4278*
X4580Y5282D02*
Y6655D01*
X6113Y8188*
X14972*
X15541Y8757*
X6230Y5282D02*
X5643D01*
X15541Y8757D02*
Y9578D01*
X15909Y17779D02*
X15306D01*
X16546Y16965D02*
Y16421D01*
X16462Y16338*
X16445*
Y16131*
X17168D02*
Y16662D01*
X17436Y16931*
X17486Y14901D02*
Y13441D01*
X17874Y17053D02*
Y16611D01*
X17880Y16606*
Y16164*
X17874Y17053D02*
X18590D01*
X18666*
X18886Y16834*
Y15842*
X20997Y17011D02*
Y20912D01*
X19634Y22275*
X22387Y15063D02*
Y8416D01*
X22846Y7519D02*
X22640D01*
X22638Y7518*
X21505*
X19839Y9184*
X24109Y16850D02*
Y16223D01*
X24285Y6314D02*
X20347D01*
X20189Y6472*
X20176*
X18546Y8102*
X16196*
X15541Y8757*
X24938Y13545D02*
X25671D01*
X25925Y13799*
X26583*
X27269Y14486*
X28337*
X24982Y14954D02*
X25086Y15057D01*
Y15606*
X24994Y12494D02*
X23443D01*
X22867Y11917*
Y8160*
X25086Y16157D02*
X24892Y16350D01*
X24641*
X25088Y14544D02*
X25284Y14741D01*
Y14758*
X25532Y15006*
Y17540*
X25352Y11509D02*
Y12646D01*
X25018Y12980*
X22756*
X25966Y14116D02*
Y17114D01*
X26342Y14734D02*
X26488Y14880D01*
X26494*
X27816Y16202*
Y17568*
X28140Y17892*
X26375Y7385D02*
Y7716D01*
X26917Y20097D02*
X28811Y18203D01*
Y11903*
X27083Y8267D02*
Y8496D01*
X27141Y8554*
Y8782*
X27639Y11025D02*
X27907Y11293D01*
X30328*
X30608Y11013*
Y10357*
X30692Y10273*
X31277*
X31489Y10485*
Y11057*
X32190Y11759*
X32962*
X33520Y11201*
X33868*
X27896Y9051D02*
X28247Y9402D01*
X28884*
X29097Y9614*
Y10933*
X28960Y11071*
X28266Y17449D02*
Y16121D01*
X26603Y14458*
X28402Y5395D02*
X29037Y4760D01*
Y3460*
X28747Y8661D02*
X29172D01*
X29174Y8660*
X29459*
X28747Y8661D02*
Y8924D01*
X28621Y9050*
X29118Y20716D02*
Y12257D01*
X29334Y14486D02*
Y16806D01*
X34065Y21537*
X41480*
X41963Y22019*
Y24403*
X43138Y25579*
Y26338*
X29458Y17892D02*
X35664Y24098D01*
X39901*
X40481Y24679*
Y25438*
X29459Y8660D02*
X29780D01*
X29873Y8752*
X30158*
Y8467*
X29666Y17449D02*
X34168Y21952D01*
X40977*
X29889Y6028D02*
X26683D01*
X26397Y6314*
X24285*
X30399Y9209D02*
X30012D01*
X29369Y9853*
Y10728*
X30651Y12297D02*
Y14604D01*
X32378Y16331*
X33053*
X33545Y16823*
Y17487*
X32829Y18202*
X31138Y14016D02*
X30955Y13833D01*
Y10562*
X31485Y11560D02*
Y12507D01*
X32020Y11145D02*
Y10805D01*
Y10804*
Y10464*
X32747Y11492D02*
Y11227D01*
X32744Y11225*
Y10447*
X32991Y13390D02*
Y13371D01*
X33175Y13187*
X33381*
X33364Y12086D02*
X33157D01*
X33143Y12100*
X32458*
X34895Y10762D02*
Y11328D01*
X35580Y11176D02*
Y11301D01*
X35267Y11614*
X34536*
X34217Y11933*
Y13643*
X34083Y13776*
X33789*
X35753Y15471D02*
X36039D01*
X36151Y15359*
Y15331*
X36297Y15185*
X35953Y11233D02*
X35807Y11379D01*
Y11380*
X35416Y11771*
X34629*
X34379Y12021*
Y13785*
X34177Y13986*
X33516*
X35975Y13707D02*
X36182D01*
Y13690*
X38741Y11131*
X45512*
X36195Y13371D02*
X35988D01*
Y13385*
X35847Y13526*
X35640*
X36411Y19085D02*
X35671D01*
X36742Y14063D02*
X37253D01*
X36784Y11990D02*
X36638Y12136D01*
X36637*
X36199Y12574*
Y13120*
X36195Y13124*
Y13371*
X37253Y14063D02*
X37667D01*
X37676Y14072*
X37961*
X38472*
X37961Y14623D02*
X37676D01*
X37667Y14614*
X37253*
X38472Y14072D02*
Y13924D01*
X38753Y13643*
Y13265*
X38472Y14072D02*
X38836Y14435D01*
X38515Y14623D02*
X37961D01*
X38753Y12714D02*
Y12420D01*
X38793Y12379*
Y12085*
X38753Y13265D02*
X39168D01*
X39176Y13257*
X39461*
X38833Y16156D02*
Y15805D01*
X38825Y15797*
Y15447*
X38836Y14435D02*
Y14553D01*
X38825Y14564*
Y15447*
X38836Y14435D02*
X41690D01*
X39376Y15447D02*
X39919D01*
X39922Y15450*
X40129*
X39384Y16156D02*
X39680D01*
X39691Y16167*
X39897*
X39461Y12706D02*
Y12487D01*
X39462*
Y12268*
X41690Y13435D02*
Y12570D01*
X41091Y11971*
X39742*
X39658Y12055*
Y12072*
X39462Y12268*
X41690Y16435D02*
X40166D01*
X39897Y16167*
X44314Y9504D02*
X44323Y9495D01*
Y7153*
X45520Y17675D02*
Y18530D01*
X44927Y19124*
X39106*
X36639Y16658*
Y14571*
X36075Y14007*
X35441*
G54D17*
X16445Y15580D03*
Y16131D03*
X17168Y15580D03*
Y16131D03*
X17880Y15612D03*
Y16164D03*
X24070Y10343D03*
Y10894D03*
X25086Y15606D03*
Y16157D03*
X26375Y7716D03*
Y8267D03*
X27083Y7716D03*
Y8267D03*
X28747Y8110D03*
Y8661D03*
X29459Y8108D03*
Y8660D03*
X30001Y16062D03*
Y16613D03*
X35671Y18534D03*
Y19085D03*
X35753Y14920D03*
Y15471D03*
X37253Y14063D03*
Y14614D03*
X37961Y14072D03*
Y14623D03*
X38753Y12714D03*
Y13265D03*
X39461Y12706D03*
Y13257D03*
G54D18*
X24285Y6314D03*
Y7141D03*
G54D19*
X30158Y8467D03*
X30965D03*
G54D20*
X23347Y15652D03*
X23899D03*
X26351Y11127D03*
X26902D03*
X28003Y10558D03*
X28010Y9846D03*
X28554Y10558D03*
X28561Y9846D03*
X33364Y12086D03*
X33381Y13187D03*
X33915Y12086D03*
X33933Y13187D03*
X35089Y13526D03*
X35640D03*
X38825Y15447D03*
X38833Y16156D03*
X39376Y15447D03*
X39384Y16156D03*
G54D21*
X1144Y8796D03*
X5132Y1617D03*
X11144Y8796D03*
X26709Y1960D03*
X31095D03*
G54D22*
X2598Y5291D03*
X3661D03*
X4580Y5282D03*
X5643D03*
X15909Y17779D03*
X16972D03*
G54D23*
X16497Y12178D03*
X17497D03*
X32829Y18202D03*
Y19202D03*
G54D24*
X18497Y12178D03*
X32829Y17202D03*
G54D25*
X24377Y21709D03*
Y25331D03*
X29754Y21720D03*
Y25342D03*
G54D26*
X22310Y22260D03*
X27687Y22271D03*
X47543Y3764D03*
G54D27*
X45653Y2583D03*
Y4984D03*
G54D28*
X26904Y11968D03*
Y13031D03*
G54D29*
X20661Y7225D03*
Y7618D03*
G54D70*
X1144Y9796D03*
Y10796D03*
Y11796D03*
Y12796D03*
Y13796D03*
Y14796D03*
Y15796D03*
Y16796D03*
Y17796D03*
Y18796D03*
Y19796D03*
Y20796D03*
Y21796D03*
Y22796D03*
Y23796D03*
Y24796D03*
Y25796D03*
Y26796D03*
X3163Y1617D03*
X4148D03*
X11144Y9796D03*
Y10796D03*
Y11796D03*
Y12796D03*
Y13796D03*
Y14796D03*
Y15796D03*
Y16796D03*
Y17796D03*
Y18796D03*
Y19796D03*
Y20796D03*
Y21796D03*
Y22796D03*
Y23796D03*
Y24796D03*
Y25796D03*
Y26796D03*
X27694Y1960D03*
X28678D03*
X32079D03*
X33064D03*
X40690Y13935D03*
Y14935D03*
Y15935D03*
Y16935D03*
X41690Y13435D03*
Y14435D03*
Y15435D03*
Y16435D03*
X45520Y13695D03*
Y17675D03*
X46119Y12695D03*
Y16675D03*
G54D71*
X42989Y12124D03*
Y18246D03*
M02*
