G04 start of page 2 for group 13 layer_idx 12 *
G04 Title: (unknown), bottom_paste *
G04 Creator: pcb-rnd 2.3.2 *
G04 CreationDate: 2021-07-14 03:04:30 UTC *
G04 For:  *
G04 Format: Gerber/RS-274X *
G04 PCB-Dimensions: 1000000 1000000 *
G04 PCB-Coordinate-Origin: lower left *
%MOIN*%
%FSLAX25Y25*%
%LNBOTTOM_PASTE_NONE_13*%
%ADD102C,0.0001*%
G54D102*G36*
X133000Y890800D02*Y898800D01*
X98000D01*
Y890800D01*
X133000D01*
G37*
G36*
Y875200D02*Y883200D01*
X98000D01*
Y875200D01*
X133000D01*
G37*
G36*
Y859600D02*Y867600D01*
X98000D01*
Y859600D01*
X133000D01*
G37*
G36*
Y844000D02*Y852000D01*
X98000D01*
Y844000D01*
X133000D01*
G37*
G36*
X315654Y883740D02*X310536D01*
Y876260D01*
X315654D01*
Y883740D01*
G37*
G36*
Y901740D02*X310536D01*
Y894260D01*
X315654D01*
Y901740D01*
G37*
G36*
X327464D02*X322346D01*
Y894260D01*
X327464D01*
Y901740D01*
G37*
G36*
Y883740D02*X322346D01*
Y876260D01*
X327464D01*
Y883740D01*
G37*
G36*
X235654Y901740D02*X230536D01*
Y894260D01*
X235654D01*
Y901740D01*
G37*
G36*
X247464D02*X242346D01*
Y894260D01*
X247464D01*
Y901740D01*
G37*
G36*
X235654Y883740D02*X230536D01*
Y876260D01*
X235654D01*
Y883740D01*
G37*
G36*
X247464D02*X242346D01*
Y876260D01*
X247464D01*
Y883740D01*
G37*
G36*
X133000Y828400D02*Y836400D01*
X98000D01*
Y828400D01*
X133000D01*
G37*
G36*
Y812800D02*Y820800D01*
X98000D01*
Y812800D01*
X133000D01*
G37*
G36*
Y797200D02*Y805200D01*
X98000D01*
Y797200D01*
X133000D01*
G37*
G36*
Y781600D02*Y789600D01*
X98000D01*
Y781600D01*
X133000D01*
G37*
G36*
Y766000D02*Y774000D01*
X98000D01*
Y766000D01*
X133000D01*
G37*
G36*
Y750400D02*Y758400D01*
X98000D01*
Y750400D01*
X133000D01*
G37*
G36*
Y734800D02*Y742800D01*
X98000D01*
Y734800D01*
X133000D01*
G37*
G36*
Y719200D02*Y727200D01*
X98000D01*
Y719200D01*
X133000D01*
G37*
G36*
Y703600D02*Y711600D01*
X98000D01*
Y703600D01*
X133000D01*
G37*
G36*
Y688000D02*Y696000D01*
X98000D01*
Y688000D01*
X133000D01*
G37*
G36*
Y672400D02*Y680400D01*
X98000D01*
Y672400D01*
X133000D01*
G37*
G36*
Y656800D02*Y664800D01*
X98000D01*
Y656800D01*
X133000D01*
G37*
G36*
Y641200D02*Y649200D01*
X98000D01*
Y641200D01*
X133000D01*
G37*
G36*
Y625600D02*Y633600D01*
X98000D01*
Y625600D01*
X133000D01*
G37*
G36*
Y610000D02*Y618000D01*
X98000D01*
Y610000D01*
X133000D01*
G37*
G36*
Y594400D02*Y602400D01*
X98000D01*
Y594400D01*
X133000D01*
G37*
G36*
Y578800D02*Y586800D01*
X98000D01*
Y578800D01*
X133000D01*
G37*
G36*
Y563200D02*Y571200D01*
X98000D01*
Y563200D01*
X133000D01*
G37*
M02*
