G04 start of page 2 for group 11 layer_idx 11 *
G04 Title: (unknown), bottom_mask *
G04 Creator: pcb-rnd 2.3.2 *
G04 CreationDate: 2021-07-14 03:04:30 UTC *
G04 For:  *
G04 Format: Gerber/RS-274X *
G04 PCB-Dimensions: 1000000 1000000 *
G04 PCB-Coordinate-Origin: lower left *
%MOIN*%
%FSLAX25Y25*%
%LNBOTTOM_MASK_NONE_11*%
%ADD100C,0.0660*%
%ADD99C,0.0630*%
%ADD98C,0.1090*%
%ADD97C,0.0860*%
%ADD96C,0.0760*%
%ADD95C,0.0001*%
G54D95*G36*
X133500Y890300D02*Y899300D01*
X97500D01*
Y890300D01*
X133500D01*
G37*
G36*
Y874700D02*Y883700D01*
X97500D01*
Y874700D01*
X133500D01*
G37*
G36*
Y859100D02*Y868100D01*
X97500D01*
Y859100D01*
X133500D01*
G37*
G36*
Y843500D02*Y852500D01*
X97500D01*
Y843500D01*
X133500D01*
G37*
G36*
X162300Y884300D02*Y877700D01*
X155700D01*
Y884300D01*
X162300D01*
G37*
G54D96*X159000Y871000D03*
Y861000D03*
Y851000D03*
Y841000D03*
G54D95*G36*
X315954Y884040D02*X310236D01*
Y875960D01*
X315954D01*
Y884040D01*
G37*
G36*
Y902040D02*X310236D01*
Y893960D01*
X315954D01*
Y902040D01*
G37*
G36*
X327764D02*X322046D01*
Y893960D01*
X327764D01*
Y902040D01*
G37*
G36*
Y884040D02*X322046D01*
Y875960D01*
X327764D01*
Y884040D01*
G37*
G54D97*X365000Y894000D03*
G54D98*X345024Y890000D03*
G54D95*G36*
X283469Y777846D02*Y784154D01*
X277161D01*
Y777846D01*
X283469D01*
G37*
G54D99*X300000Y781000D03*
G54D95*G36*
X254000Y764300D02*X262600D01*
Y755700D01*
X254000D01*
Y764300D01*
G37*
G54D97*X278000Y760000D03*
G54D95*G36*
X326154Y723312D02*X319846D01*
Y717003D01*
X326154D01*
Y723312D01*
G37*
G54D99*X323000Y739843D03*
G54D95*G36*
X306154Y723312D02*X299846D01*
Y717003D01*
X306154D01*
Y723312D01*
G37*
G54D99*X303000Y739843D03*
G54D95*G36*
X363221Y916763D02*Y925237D01*
X354747D01*
Y916763D01*
X363221D01*
G37*
G36*
X360700Y849700D02*Y858300D01*
X369300D01*
Y849700D01*
X360700D01*
G37*
G54D98*X365000Y837512D03*
G54D95*G36*
X359500Y770988D02*X370500D01*
Y781988D01*
X359500D01*
Y770988D01*
G37*
G54D97*X394000Y652990D03*
G54D95*G36*
X379700Y657290D02*X388300D01*
Y648690D01*
X379700D01*
Y657290D01*
G37*
G36*
X389700Y752290D02*X398300D01*
Y743690D01*
X389700D01*
Y752290D01*
G37*
G54D97*X384000Y642990D03*
X394000D03*
X404000Y652990D03*
Y642990D03*
X414000Y652990D03*
Y747990D03*
Y642990D03*
G54D95*G36*
X411300Y607300D02*Y600700D01*
X404700D01*
Y607300D01*
X411300D01*
G37*
G54D100*X408000Y594000D03*
Y584000D03*
Y574000D03*
Y564000D03*
Y554000D03*
G54D97*X424000Y652990D03*
Y642990D03*
G54D95*G36*
X323221Y916763D02*Y925237D01*
X314747D01*
Y916763D01*
X323221D01*
G37*
G36*
X243221D02*Y925237D01*
X234747D01*
Y916763D01*
X243221D01*
G37*
G36*
X235954Y902040D02*X230236D01*
Y893960D01*
X235954D01*
Y902040D01*
G37*
G36*
X247764D02*X242046D01*
Y893960D01*
X247764D01*
Y902040D01*
G37*
G36*
X283221Y916763D02*Y925237D01*
X274747D01*
Y916763D01*
X283221D01*
G37*
G36*
X235954Y884040D02*X230236D01*
Y875960D01*
X235954D01*
Y884040D01*
G37*
G36*
X247764D02*X242046D01*
Y875960D01*
X247764D01*
Y884040D01*
G37*
G36*
X278500Y895500D02*Y884500D01*
X289500D01*
Y895500D01*
X278500D01*
G37*
G36*
X133500Y827900D02*Y836900D01*
X97500D01*
Y827900D01*
X133500D01*
G37*
G54D97*X159000Y831000D03*
G54D95*G36*
X133500Y812300D02*Y821300D01*
X97500D01*
Y812300D01*
X133500D01*
G37*
G36*
Y796700D02*Y805700D01*
X97500D01*
Y796700D01*
X133500D01*
G37*
G36*
X175300Y734300D02*Y727700D01*
X168700D01*
Y734300D01*
X175300D01*
G37*
G36*
X162300Y798800D02*Y792200D01*
X155700D01*
Y798800D01*
X162300D01*
G37*
G54D96*X159000Y785500D03*
Y775500D03*
G54D100*X182000Y731000D03*
X172000Y721000D03*
G54D95*G36*
X186700Y757300D02*X195300D01*
Y748700D01*
X186700D01*
Y757300D01*
G37*
G54D97*X200843Y753000D03*
G54D100*X182000Y721000D03*
X172000Y711000D03*
X182000D03*
X172000Y701000D03*
X182000D03*
X172000Y691000D03*
Y681000D03*
Y671000D03*
Y661000D03*
Y651000D03*
Y641000D03*
Y631000D03*
Y621000D03*
Y611000D03*
Y601000D03*
Y591000D03*
X182000Y691000D03*
Y681000D03*
Y671000D03*
Y661000D03*
Y651000D03*
Y641000D03*
Y631000D03*
Y621000D03*
Y611000D03*
Y601000D03*
Y591000D03*
G54D95*G36*
X133500Y781100D02*Y790100D01*
X97500D01*
Y781100D01*
X133500D01*
G37*
G36*
Y765500D02*Y774500D01*
X97500D01*
Y765500D01*
X133500D01*
G37*
G36*
Y749900D02*Y758900D01*
X97500D01*
Y749900D01*
X133500D01*
G37*
G36*
Y734300D02*Y743300D01*
X97500D01*
Y734300D01*
X133500D01*
G37*
G36*
Y718700D02*Y727700D01*
X97500D01*
Y718700D01*
X133500D01*
G37*
G36*
Y703100D02*Y712100D01*
X97500D01*
Y703100D01*
X133500D01*
G37*
G36*
Y687500D02*Y696500D01*
X97500D01*
Y687500D01*
X133500D01*
G37*
G36*
Y671900D02*Y680900D01*
X97500D01*
Y671900D01*
X133500D01*
G37*
G36*
Y656300D02*Y665300D01*
X97500D01*
Y656300D01*
X133500D01*
G37*
G36*
Y640700D02*Y649700D01*
X97500D01*
Y640700D01*
X133500D01*
G37*
G36*
Y625100D02*Y634100D01*
X97500D01*
Y625100D01*
X133500D01*
G37*
G36*
Y609500D02*Y618500D01*
X97500D01*
Y609500D01*
X133500D01*
G37*
G36*
Y593900D02*Y602900D01*
X97500D01*
Y593900D01*
X133500D01*
G37*
G36*
Y578300D02*Y587300D01*
X97500D01*
Y578300D01*
X133500D01*
G37*
G36*
Y562700D02*Y571700D01*
X97500D01*
Y562700D01*
X133500D01*
G37*
M02*
