G04 start of page 2 for group 1 layer_idx 8 *
G04 Title: (unknown), top_silk *
G04 Creator: pcb-rnd 2.3.2 *
G04 CreationDate: 2021-07-14 03:04:30 UTC *
G04 For:  *
G04 Format: Gerber/RS-274X *
G04 PCB-Dimensions: 1000000 1000000 *
G04 PCB-Coordinate-Origin: lower left *
%MOIN*%
%FSLAX25Y25*%
%LNTOP_SILK_NONE_1*%
%ADD84C,0.0070*%
%ADD83C,0.0200*%
%ADD82C,0.0080*%
%ADD81C,0.0150*%
%ADD80C,0.0400*%
%ADD79C,0.0100*%
G54D79*X167000Y736000D02*Y586000D01*
X187000Y736000D02*X167000D01*
X177000Y726000D02*X167000D01*
X177000Y736000D02*Y726000D01*
X379000Y657990D02*Y637990D01*
Y657990D02*X429000D01*
Y637990D02*X379000D01*
X429000D02*Y657990D01*
X431000Y604000D02*X450700D01*
X431000Y609000D02*Y604000D01*
G54D80*X435400D02*X433200D01*
G54D81*X452400Y605250D02*X431300D01*
G54D79*X431000Y567500D02*Y570500D01*
Y577500D02*Y580500D01*
G54D80*X444400Y584000D02*X442200D01*
X435400D02*X433200D01*
X435400Y574000D02*X433200D01*
X444400D02*X442200D01*
X435400Y564000D02*X433200D01*
G54D79*X450700Y587500D02*Y554000D01*
X431000D01*
Y557500D02*Y560500D01*
G54D80*X444400Y564000D02*X442200D01*
G54D79*X431000Y587500D02*X450700D01*
G54D80*X435400Y554000D02*X433200D01*
G54D79*X450700Y590500D02*X431000D01*
Y587500D02*Y590500D01*
Y597500D02*Y600500D01*
G54D80*X444400Y594000D02*X442200D01*
X435400D02*X433200D01*
X452200D02*X455400D01*
X444400Y554000D02*X442200D01*
X452200D02*X455400D01*
G54D81*X452700Y552750D02*X431300D01*
G54D80*X444400Y604000D02*X442200D01*
G54D79*X450700Y590500D02*Y604000D01*
G54D80*X452200D02*X455400D01*
X452200Y584000D02*X455400D01*
X452200Y574000D02*X455400D01*
X452200Y564000D02*X455400D01*
G54D79*X418500Y609000D02*X431000D01*
G54D80*X426400Y604000D02*X424200D01*
X416500D02*X408000D01*
X416500Y594000D02*X408000D01*
X416500Y584000D02*X408000D01*
X416500Y574000D02*X408000D01*
X416500Y564000D02*X408000D01*
G54D79*X431000Y549000D02*X418500D01*
G54D80*X416500Y554000D02*X408000D01*
G54D79*X418500Y609000D02*Y549000D01*
X431000D02*Y554000D01*
G54D80*X426400Y584000D02*X424200D01*
X426400Y574000D02*X424200D01*
X426400Y554000D02*X424200D01*
X426400Y594000D02*X424200D01*
X426400Y564000D02*X424200D01*
G54D79*X379000Y652990D02*X374000Y655490D01*
X379000Y652990D02*X374000Y650490D01*
Y655490D02*Y650490D01*
X389000Y747990D02*X384000Y750490D01*
X389000Y747990D02*X384000Y745490D01*
X389000Y752990D02*Y742990D01*
X384000Y750490D02*Y745490D01*
X419000Y742990D02*X389000D01*
Y752990D02*X419000D01*
Y742990D02*Y752990D01*
X322000Y752000D02*X290000D01*
G54D82*X346245Y740064D02*Y740850D01*
X351755Y740064D02*Y740850D01*
X282150Y724755D02*X282936D01*
X282150Y719245D02*X282936D01*
X282150Y739755D02*X282936D01*
X282150Y734245D02*X282936D01*
G54D79*X182000Y795500D02*X201700D01*
X182000Y789000D02*Y792000D01*
G54D80*X186400Y785500D02*X184200D01*
X177400D02*X175200D01*
G54D79*X182000Y770500D02*X169500D01*
X182000Y779000D02*Y782000D01*
G54D80*X177400Y775500D02*X175200D01*
X195400Y785500D02*X193200D01*
G54D79*X182000Y770500D02*Y775500D01*
G54D80*X195400D02*X193200D01*
X186400D02*X184200D01*
G54D79*X187000Y586000D02*X167000D01*
X187000Y736000D02*Y586000D01*
X201700Y775500D02*X182000D01*
X169500Y800500D02*Y770500D01*
X201700Y795500D02*Y775500D01*
X169500Y886000D02*X182000D01*
Y881000D01*
G54D80*X177400D02*X175200D01*
G54D79*X182000Y854500D02*Y857500D01*
G54D80*X177400Y861000D02*X175200D01*
X177400Y871000D02*X175200D01*
G54D79*X182000Y864500D02*Y867500D01*
X169500Y886000D02*Y826000D01*
X182000Y874500D02*Y877500D01*
G54D80*X177400Y851000D02*X175200D01*
G54D79*X182000Y834500D02*Y837500D01*
Y844500D02*Y847500D01*
G54D80*X177400Y831000D02*X175200D01*
X177400Y841000D02*X175200D01*
X167500Y881000D02*X159000D01*
X167500Y871000D02*X159000D01*
X167500Y861000D02*X159000D01*
X167500Y851000D02*X159000D01*
X167500Y841000D02*X159000D01*
X167500Y831000D02*X159000D01*
G54D79*X169500Y800500D02*X182000D01*
Y826000D02*X169500D01*
X182000D02*Y831000D01*
Y881000D02*X201700D01*
G54D80*X186400Y871000D02*X184200D01*
X186400Y861000D02*X184200D01*
G54D79*X201700Y867500D02*Y881000D01*
G54D80*X195400Y871000D02*X193200D01*
X195400Y861000D02*X193200D01*
G54D79*X201700Y867500D02*X182000D01*
Y864500D02*X201700D01*
Y831000D01*
G54D80*X195400Y851000D02*X193200D01*
X195400Y841000D02*X193200D01*
X186400Y831000D02*X184200D01*
X186400Y881000D02*X184200D01*
G54D81*X203400Y882250D02*X182300D01*
G54D80*X186400Y841000D02*X184200D01*
X186400Y851000D02*X184200D01*
G54D79*X182000Y800500D02*Y795500D01*
G54D81*X203400Y796750D02*X182300D01*
G54D79*X201700Y831000D02*X182000D01*
G54D81*X203700Y829750D02*X182300D01*
G54D80*X195400Y831000D02*X193200D01*
X203200D02*X206400D01*
G54D82*X283607Y819755D02*X284393D01*
G54D79*X308000Y834000D02*Y814000D01*
G54D82*X299246Y829787D02*Y830573D01*
X304756Y829787D02*Y830573D01*
X283607Y814245D02*X284393D01*
G54D79*X340000Y814000D02*X308000D01*
Y834000D02*X321500D01*
X326500D02*X340000D01*
Y814000D02*Y834000D01*
X355157Y825701D02*X374843D01*
X361063Y796173D02*Y817827D01*
X367953Y818811D02*Y823732D01*
G54D83*X365000Y826291D02*Y829638D01*
G54D79*X355157Y788299D02*Y825701D01*
X374843D02*Y788299D01*
X355157D01*
X361063Y817827D02*X364016Y820780D01*
X358110Y793220D02*X361063Y796173D01*
X367953Y795189D02*Y790268D01*
G54D80*X195400Y881000D02*X193200D01*
X203200Y871000D02*X206400D01*
X203200Y881000D02*X206400D01*
G54D79*X295811Y899843D02*X333213D01*
X295811Y880157D02*Y899843D01*
X303685Y893937D02*X325339D01*
X302701Y887047D02*X297780D01*
X326323D02*X331244D01*
X333213Y899843D02*Y880157D01*
X295811D01*
X325339Y893937D02*X328291Y890984D01*
X300732Y896890D02*X303685Y893937D01*
G54D83*X295220Y890000D02*X291874D01*
X333803D02*X337150D01*
G54D80*X203200Y861000D02*X206400D01*
X203200Y851000D02*X206400D01*
X203200Y841000D02*X206400D01*
G54D82*X283608Y854392D02*X284394D01*
X283608Y848882D02*X284394D01*
X285246Y837244D02*Y838030D01*
X290756Y837244D02*Y838030D01*
X303260Y849638D02*Y854362D01*
X310740Y849638D02*Y854362D01*
X321260Y849638D02*Y854362D01*
X328740Y849638D02*Y854362D01*
X339260Y849638D02*Y854362D01*
X346740Y849638D02*Y854362D01*
G54D80*X195400Y795500D02*X193200D01*
X203200D02*X206400D01*
G54D81*X203700Y774250D02*X182300D01*
G54D80*X203200Y785500D02*X206400D01*
X203200Y775500D02*X206400D01*
G54D82*X237638Y788740D02*X242362D01*
X237638Y781260D02*X242362D01*
G54D79*X290000Y772000D02*Y752000D01*
X322000D02*Y772000D01*
G54D82*X330245Y764607D02*Y765393D01*
X335755Y764607D02*Y765393D01*
X346245Y764607D02*Y765393D01*
X351755Y764607D02*Y765393D01*
G54D79*X290000Y772000D02*X303500D01*
X308500D02*X322000D01*
G54D83*X365000Y787709D02*Y784362D01*
G54D80*X186400Y795500D02*X184200D01*
X177400D02*X175200D01*
X167500D02*X159000D01*
X167500Y785500D02*X159000D01*
X167500Y775500D02*X159000D01*
G54D79*X302701Y887047D02*G75*G02X306638Y890984I3937J0D01*G01*
G75*G02X310575Y887047I0J-3937D01*G01*
G75*G02X314512Y890984I3937J0D01*G01*
G75*G02X318449Y887047I0J-3937D01*G01*
G75*G02X322386Y890984I3937J0D01*G01*
G75*G02X326323Y887047I0J-3937D01*G01*
X321500Y834000D02*G75*G03X326500Y834000I2500J0D01*G01*
X303500Y772000D02*G75*G03X308500Y772000I2500J0D01*G01*
X367953Y795189D02*G75*G02X364016Y799126I0J3937D01*G01*
G75*G02X367953Y803063I3937J0D01*G01*
G75*G02X364016Y807000I0J3937D01*G01*
G75*G02X367953Y810937I3937J0D01*G01*
G75*G02X364016Y814874I0J3937D01*G01*
G75*G02X367953Y818811I3937J0D01*G01*
G54D84*X153000Y917000D02*Y913000D01*
X154300Y917000D02*X155000Y916300D01*
Y913700D01*
X154300Y913000D02*X155000Y913700D01*
X152500Y913000D02*X154300D01*
X152500Y917000D02*X154300D01*
X156200Y915200D02*X157700D01*
X156200Y913000D02*X158200D01*
X156200Y917000D02*Y913000D01*
Y917000D02*X158200D01*
X161400D02*X161900Y916500D01*
X159900Y917000D02*X161400D01*
X159400Y916500D02*X159900Y917000D01*
X159400Y916500D02*Y915500D01*
X159900Y915000D01*
X161400D01*
X161900Y914500D01*
Y913500D01*
X161400Y913000D02*X161900Y913500D01*
X159900Y913000D02*X161400D01*
X159400Y913500D02*X159900Y913000D01*
X163100Y917000D02*X164100D01*
X163600D02*Y913000D01*
X163100D02*X164100D01*
X167300Y917000D02*X167800Y916500D01*
X165800Y917000D02*X167300D01*
X165300Y916500D02*X165800Y917000D01*
X165300Y916500D02*Y913500D01*
X165800Y913000D01*
X167300D01*
X167800Y913500D01*
Y914500D02*Y913500D01*
X167300Y915000D02*X167800Y914500D01*
X166300Y915000D02*X167300D01*
X169000Y917000D02*Y913000D01*
Y917000D02*X171500Y913000D01*
Y917000D02*Y913000D01*
X172700Y915200D02*X174200D01*
X172700Y913000D02*X174700D01*
X172700Y917000D02*Y913000D01*
Y917000D02*X174700D01*
X176400D02*Y913000D01*
X177700Y917000D02*X178400Y916300D01*
Y913700D01*
X177700Y913000D02*X178400Y913700D01*
X175900Y913000D02*X177700D01*
X175900Y917000D02*X177700D01*
X181400Y913000D02*X183400D01*
X183900Y913500D01*
Y914700D02*Y913500D01*
X183400Y915200D02*X183900Y914700D01*
X181900Y915200D02*X183400D01*
X181900Y917000D02*Y913000D01*
X181400Y917000D02*X183400D01*
X183900Y916500D01*
Y915700D01*
X183400Y915200D02*X183900Y915700D01*
X185100Y917000D02*X186100Y915000D01*
X187100Y917000D01*
X186100Y915000D02*Y913000D01*
X190100Y915200D02*X191600D01*
X190100Y913000D02*X192100D01*
X190100Y917000D02*Y913000D01*
Y917000D02*X192100D01*
X193300D02*X194300Y913000D01*
X195300Y917000D01*
X196500Y916000D02*Y913000D01*
Y916000D02*X197200Y917000D01*
X198300D01*
X199000Y916000D01*
Y913000D01*
X196500Y915000D02*X199000D01*
X200200Y917000D02*Y913000D01*
Y917000D02*X202700Y913000D01*
Y917000D02*Y913000D01*
X205700Y917000D02*Y913000D01*
Y917000D02*X207700D01*
X205700Y915200D02*X207200D01*
X208900Y916500D02*Y913500D01*
Y916500D02*X209400Y917000D01*
X210400D01*
X210900Y916500D01*
Y913500D01*
X210400Y913000D02*X210900Y913500D01*
X209400Y913000D02*X210400D01*
X208900Y913500D02*X209400Y913000D01*
X214100Y917000D02*X214600Y916500D01*
X212600Y917000D02*X214100D01*
X212100Y916500D02*X212600Y917000D01*
X212100Y916500D02*Y915500D01*
X212600Y915000D01*
X214100D01*
X214600Y914500D01*
Y913500D01*
X214100Y913000D02*X214600Y913500D01*
X212600Y913000D02*X214100D01*
X212100Y913500D02*X212600Y913000D01*
X217800Y917000D02*X218300Y916500D01*
X216300Y917000D02*X217800D01*
X215800Y916500D02*X216300Y917000D01*
X215800Y916500D02*Y915500D01*
X216300Y915000D01*
X217800D01*
X218300Y914500D01*
Y913500D01*
X217800Y913000D02*X218300Y913500D01*
X216300Y913000D02*X217800D01*
X215800Y913500D02*X216300Y913000D01*
X154500Y923500D02*X155000Y923000D01*
X153000Y923500D02*X154500D01*
X152500Y923000D02*X153000Y923500D01*
X152500Y923000D02*Y922000D01*
X153000Y921500D01*
X154500D01*
X155000Y921000D01*
Y920000D01*
X154500Y919500D02*X155000Y920000D01*
X153000Y919500D02*X154500D01*
X152500Y920000D02*X153000Y919500D01*
X156200Y923500D02*Y920000D01*
X156700Y919500D01*
X157700D01*
X158200Y920000D01*
Y923500D02*Y920000D01*
X159400Y919500D02*X161400D01*
X161900Y920000D01*
Y921200D02*Y920000D01*
X161400Y921700D02*X161900Y921200D01*
X159900Y921700D02*X161400D01*
X159900Y923500D02*Y919500D01*
X159400Y923500D02*X161400D01*
X161900Y923000D01*
Y922200D01*
X161400Y921700D02*X161900Y922200D01*
X163100Y923500D02*X165100D01*
X165600Y923000D01*
Y922000D01*
X165100Y921500D02*X165600Y922000D01*
X163600Y921500D02*X165100D01*
X163600Y923500D02*Y919500D01*
X164400Y921500D02*X165600Y919500D01*
X166800Y922500D02*Y919500D01*
Y922500D02*X167500Y923500D01*
X168600D01*
X169300Y922500D01*
Y919500D01*
X166800Y921500D02*X169300D01*
X171200Y919500D02*X172500D01*
X170500Y920200D02*X171200Y919500D01*
X170500Y922800D02*Y920200D01*
Y922800D02*X171200Y923500D01*
X172500D01*
X173700D02*Y919500D01*
Y921500D02*X175700Y923500D01*
X173700Y921500D02*X175700Y919500D01*
X178700Y921700D02*X180200D01*
X178700Y919500D02*X180700D01*
X178700Y923500D02*Y919500D01*
Y923500D02*X180700D01*
X182400D02*Y919500D01*
X183700Y923500D02*X184400Y922800D01*
Y920200D01*
X183700Y919500D02*X184400Y920200D01*
X181900Y919500D02*X183700D01*
X181900Y923500D02*X183700D01*
X187600D02*X188100Y923000D01*
X186100Y923500D02*X187600D01*
X185600Y923000D02*X186100Y923500D01*
X185600Y923000D02*Y920000D01*
X186100Y919500D01*
X187600D01*
X188100Y920000D01*
Y921000D02*Y920000D01*
X187600Y921500D02*X188100Y921000D01*
X186600Y921500D02*X187600D01*
X189300Y921700D02*X190800D01*
X189300Y919500D02*X191300D01*
X189300Y923500D02*Y919500D01*
Y923500D02*X191300D01*
X193200Y919500D02*X194500D01*
X192500Y920200D02*X193200Y919500D01*
X192500Y922800D02*Y920200D01*
Y922800D02*X193200Y923500D01*
X194500D01*
X195700Y922500D02*Y919500D01*
Y922500D02*X196400Y923500D01*
X197500D01*
X198200Y922500D01*
Y919500D01*
X195700Y921500D02*X198200D01*
X199400Y923500D02*X201400D01*
X201900Y923000D01*
Y922000D01*
X201400Y921500D02*X201900Y922000D01*
X199900Y921500D02*X201400D01*
X199900Y923500D02*Y919500D01*
X200700Y921500D02*X201900Y919500D01*
X203600Y923500D02*Y919500D01*
X204900Y923500D02*X205600Y922800D01*
Y920200D01*
X204900Y919500D02*X205600Y920200D01*
X203100Y919500D02*X204900D01*
X203100Y923500D02*X204900D01*
X152500Y903500D02*X153000Y904000D01*
X154500D01*
X155000Y903500D01*
Y902500D01*
X152500Y900000D02*X155000Y902500D01*
X152500Y900000D02*X155000D01*
X156200Y900500D02*X156700Y900000D01*
X156200Y903500D02*Y900500D01*
Y903500D02*X156700Y904000D01*
X157700D01*
X158200Y903500D01*
Y900500D01*
X157700Y900000D02*X158200Y900500D01*
X156700Y900000D02*X157700D01*
X156200Y901000D02*X158200Y903000D01*
X159400Y903500D02*X159900Y904000D01*
X161400D01*
X161900Y903500D01*
Y902500D01*
X159400Y900000D02*X161900Y902500D01*
X159400Y900000D02*X161900D01*
X163100Y903200D02*X163900Y904000D01*
Y900000D01*
X163100D02*X164600D01*
X165800D02*X166300D01*
X167500Y900500D02*X168000Y900000D01*
X167500Y903500D02*Y900500D01*
Y903500D02*X168000Y904000D01*
X169000D01*
X169500Y903500D01*
Y900500D01*
X169000Y900000D02*X169500Y900500D01*
X168000Y900000D02*X169000D01*
X167500Y901000D02*X169500Y903000D01*
X171200Y900000D02*X173200Y904000D01*
X170700D02*X173200D01*
X174400Y900000D02*X174900D01*
X176100Y903200D02*X176900Y904000D01*
Y900000D01*
X176100D02*X177600D01*
X178800Y903500D02*X179300Y904000D01*
X180300D01*
X180800Y903500D01*
X180300Y900000D02*X180800Y900500D01*
X179300Y900000D02*X180300D01*
X178800Y900500D02*X179300Y900000D01*
Y902200D02*X180300D01*
X180800Y903500D02*Y902700D01*
Y901700D02*Y900500D01*
Y901700D02*X180300Y902200D01*
X180800Y902700D02*X180300Y902200D01*
X152500Y908700D02*X154000D01*
X152500Y906500D02*X154500D01*
X152500Y910500D02*Y906500D01*
Y910500D02*X154500D01*
X155700Y909500D02*Y906500D01*
Y909500D02*X156400Y910500D01*
X157500D01*
X158200Y909500D01*
Y906500D01*
X155700Y908500D02*X158200D01*
X159400Y910500D02*X161400D01*
X160400D02*Y906500D01*
X162600Y910000D02*Y907000D01*
Y910000D02*X163100Y910500D01*
X164100D01*
X164600Y910000D01*
Y907000D01*
X164100Y906500D02*X164600Y907000D01*
X163100Y906500D02*X164100D01*
X162600Y907000D02*X163100Y906500D01*
X165800Y910500D02*Y906500D01*
Y910500D02*X168300Y906500D01*
Y910500D02*Y906500D01*
X171800Y910500D02*Y906500D01*
X171300Y910500D02*X173300D01*
X173800Y910000D01*
Y909000D01*
X173300Y908500D02*X173800Y909000D01*
X171800Y908500D02*X173300D01*
X175000Y908700D02*X176500D01*
X175000Y906500D02*X177000D01*
X175000Y910500D02*Y906500D01*
Y910500D02*X177000D01*
X178200Y909500D02*Y906500D01*
Y909500D02*X178900Y910500D01*
X180000D01*
X180700Y909500D01*
Y906500D01*
X178200Y908500D02*X180700D01*
X181900Y906500D02*X183900D01*
X184400Y907000D01*
Y908200D02*Y907000D01*
X183900Y908700D02*X184400Y908200D01*
X182400Y908700D02*X183900D01*
X182400Y910500D02*Y906500D01*
X181900Y910500D02*X183900D01*
X184400Y910000D01*
Y909200D01*
X183900Y908700D02*X184400Y909200D01*
X185600Y910000D02*Y907000D01*
Y910000D02*X186100Y910500D01*
X187100D01*
X187600Y910000D01*
Y907000D01*
X187100Y906500D02*X187600Y907000D01*
X186100Y906500D02*X187100D01*
X185600Y907000D02*X186100Y906500D01*
X189300Y910500D02*Y906500D01*
X190600Y910500D02*X191300Y909800D01*
Y907200D01*
X190600Y906500D02*X191300Y907200D01*
X188800Y906500D02*X190600D01*
X188800Y910500D02*X190600D01*
X192500D02*X193500Y908500D01*
X194500Y910500D01*
X193500Y908500D02*Y906500D01*
X197500Y910500D02*Y906500D01*
X199500D01*
X200700Y909500D02*Y906500D01*
Y909500D02*X201400Y910500D01*
X202500D01*
X203200Y909500D01*
Y906500D01*
X200700Y908500D02*X203200D01*
X204400Y906500D02*X206400D01*
X206900Y907000D01*
Y908200D02*Y907000D01*
X206400Y908700D02*X206900Y908200D01*
X204900Y908700D02*X206400D01*
X204900Y910500D02*Y906500D01*
X204400Y910500D02*X206400D01*
X206900Y910000D01*
Y909200D01*
X206400Y908700D02*X206900Y909200D01*
X146000Y733000D02*X146500Y732500D01*
X144500Y733000D02*X146000D01*
X144000Y732500D02*X144500Y733000D01*
X144000Y732500D02*Y729500D01*
X144500Y729000D01*
X146000D01*
X146500Y729500D01*
Y730500D02*Y729500D01*
X146000Y731000D02*X146500Y730500D01*
X145000Y731000D02*X146000D01*
X147700Y733000D02*Y729000D01*
Y733000D02*X150200Y729000D01*
Y733000D02*Y729000D01*
X151900Y733000D02*Y729000D01*
X153200Y733000D02*X153900Y732300D01*
Y729700D01*
X153200Y729000D02*X153900Y729700D01*
X151400Y729000D02*X153200D01*
X151400Y733000D02*X153200D01*
X155600D02*Y729000D01*
X156900Y733000D02*X157600Y732300D01*
Y729700D01*
X156900Y729000D02*X157600Y729700D01*
X155100Y729000D02*X156900D01*
X155100Y733000D02*X156900D01*
X138000Y709500D02*X141000Y712500D01*
X142200Y713000D02*X144200D01*
X144700Y712500D01*
Y711500D01*
X144200Y711000D02*X144700Y711500D01*
X142700Y711000D02*X144200D01*
X142700Y713000D02*Y709000D01*
X143500Y711000D02*X144700Y709000D01*
X145900Y711200D02*X147400D01*
X145900Y709000D02*X147900D01*
X145900Y713000D02*Y709000D01*
Y713000D02*X147900D01*
X151100D02*X151600Y712500D01*
X149600Y713000D02*X151100D01*
X149100Y712500D02*X149600Y713000D01*
X149100Y712500D02*Y711500D01*
X149600Y711000D01*
X151100D01*
X151600Y710500D01*
Y709500D01*
X151100Y709000D02*X151600Y709500D01*
X149600Y709000D02*X151100D01*
X149100Y709500D02*X149600Y709000D01*
X152800Y711200D02*X154300D01*
X152800Y709000D02*X154800D01*
X152800Y713000D02*Y709000D01*
Y713000D02*X154800D01*
X156000D02*X158000D01*
X157000D02*Y709000D01*
X147000Y723000D02*X149000D01*
X149500Y722500D01*
Y721500D01*
X149000Y721000D02*X149500Y721500D01*
X147500Y721000D02*X149000D01*
X147500Y723000D02*Y719000D01*
X148300Y721000D02*X149500Y719000D01*
X150700Y719500D02*X153700Y722500D01*
X154900Y723000D02*Y721000D01*
X155400Y719000D01*
X156400Y721000D01*
X157400Y719000D01*
X157900Y721000D01*
Y723000D01*
X162000Y735300D02*Y734000D01*
X162700Y736000D02*X162000Y735300D01*
X165300Y736000D02*X162700D01*
X165300D02*X166000Y735300D01*
Y734000D01*
X165500Y732800D02*X162500D01*
X165500D02*X166000Y732300D01*
Y731300D01*
X165500Y730800D01*
X162500D01*
X162000Y731300D02*X162500Y730800D01*
X162000Y732300D02*Y731300D01*
X162500Y732800D02*X162000Y732300D01*
X166000Y729600D02*X162000D01*
X166000D02*X162000Y727100D01*
X166000D02*X162000D01*
X166000Y725900D02*X162000D01*
X166000D02*X162000Y723400D01*
X166000D02*X162000D01*
X165500Y722200D02*X166000Y721700D01*
Y720700D01*
X165500Y720200D01*
X162000Y720700D02*X162500Y720200D01*
X162000Y721700D02*Y720700D01*
X162500Y722200D02*X162000Y721700D01*
X164200D02*Y720700D01*
X165500Y720200D02*X164700D01*
X163700D02*X162500D01*
X163700D02*X164200Y720700D01*
X164700Y720200D02*X164200Y720700D01*
X150500Y792800D02*Y791500D01*
X151200Y793500D02*X150500Y792800D01*
X153800Y793500D02*X151200D01*
X153800D02*X154500Y792800D01*
Y791500D01*
X154000Y790300D02*X151000D01*
X154000D02*X154500Y789800D01*
Y788800D01*
X154000Y788300D01*
X151000D01*
X150500Y788800D02*X151000Y788300D01*
X150500Y789800D02*Y788800D01*
X151000Y790300D02*X150500Y789800D01*
X154500Y787100D02*X150500D01*
X154500D02*X150500Y784600D01*
X154500D02*X150500D01*
X154500Y783400D02*X150500D01*
X154500D02*X150500Y780900D01*
X154500D02*X150500D01*
X152000Y779700D02*X154500Y777700D01*
X152000Y779700D02*Y777200D01*
X154500Y777700D02*X150500D01*
X234550Y791150D02*X235850D01*
X233850Y791850D02*X234550Y791150D01*
X233850Y794450D02*Y791850D01*
Y794450D02*X234550Y795150D01*
X235850D01*
X237050Y794650D02*X237550Y795150D01*
X239050D01*
X239550Y794650D01*
Y793650D01*
X237050Y791150D02*X239550Y793650D01*
X237050Y791150D02*X239550D01*
X240750Y791650D02*X241250Y791150D01*
X240750Y794650D02*Y791650D01*
Y794650D02*X241250Y795150D01*
X242250D01*
X242750Y794650D01*
Y791650D01*
X242250Y791150D02*X242750Y791650D01*
X241250Y791150D02*X242250D01*
X240750Y792150D02*X242750Y794150D01*
X245450Y795150D02*X245950Y794650D01*
X244450Y795150D02*X245450D01*
X243950Y794650D02*X244450Y795150D01*
X243950Y794650D02*Y791650D01*
X244450Y791150D01*
X245450Y793350D02*X245950Y792850D01*
X243950Y793350D02*X245450D01*
X244450Y791150D02*X245450D01*
X245950Y791650D01*
Y792850D02*Y791650D01*
X300000Y778000D02*Y774500D01*
X300500Y774000D01*
X301500D01*
X302000Y774500D01*
Y778000D02*Y774500D01*
X303200Y777500D02*X303700Y778000D01*
X305200D01*
X305700Y777500D01*
Y776500D01*
X303200Y774000D02*X305700Y776500D01*
X303200Y774000D02*X305700D01*
X306900Y774500D02*X307400Y774000D01*
X306900Y777500D02*Y774500D01*
Y777500D02*X307400Y778000D01*
X308400D01*
X308900Y777500D01*
Y774500D01*
X308400Y774000D02*X308900Y774500D01*
X307400Y774000D02*X308400D01*
X306900Y775000D02*X308900Y777000D01*
X310100Y777200D02*X310900Y778000D01*
Y774000D01*
X310100D02*X311600D01*
X323850Y758700D02*Y760700D01*
X324350Y761200D01*
X325350D01*
X325850Y760700D02*X325350Y761200D01*
X325850Y759200D02*Y760700D01*
X323850Y759200D02*X327850D01*
X325850Y760000D02*X327850Y761200D01*
X324350Y762400D02*X323850Y762900D01*
Y764400D01*
X324350Y764900D01*
X325350D01*
X327850Y762400D02*X325350Y764900D01*
X327850Y762400D02*Y764900D01*
X327350Y766100D02*X327850Y766600D01*
X324350Y766100D02*X327350D01*
X324350D02*X323850Y766600D01*
Y767600D01*
X324350Y768100D01*
X327350D01*
X327850Y767600D02*X327350Y768100D01*
X327850Y766600D02*Y767600D01*
X326850Y766100D02*X324850Y768100D01*
X324650Y769300D02*X323850Y770100D01*
X327850D01*
Y769300D02*Y770800D01*
X339850Y758264D02*Y760264D01*
X340350Y760764D01*
X341350D01*
X341850Y760264D02*X341350Y760764D01*
X341850Y758764D02*Y760264D01*
X339850Y758764D02*X343850D01*
X341850Y759564D02*X343850Y760764D01*
X340350Y761964D02*X339850Y762464D01*
Y763964D01*
X340350Y764464D01*
X341350D01*
X343850Y761964D02*X341350Y764464D01*
X343850Y761964D02*Y764464D01*
X343350Y765664D02*X343850Y766164D01*
X340350Y765664D02*X343350D01*
X340350D02*X339850Y766164D01*
Y767164D01*
X340350Y767664D01*
X343350D01*
X343850Y767164D02*X343350Y767664D01*
X343850Y766164D02*Y767164D01*
X342850Y765664D02*X340850Y767664D01*
X340350Y768864D02*X339850Y769364D01*
Y770364D01*
X340350Y770864D01*
X343850Y770364D02*X343350Y770864D01*
X343850Y769364D02*Y770364D01*
X343350Y768864D02*X343850Y769364D01*
X341650D02*Y770364D01*
X340350Y770864D02*X341150D01*
X342150D02*X343350D01*
X342150D02*X341650Y770364D01*
X341150Y770864D02*X341650Y770364D01*
X339969Y733470D02*Y735470D01*
X340469Y735970D01*
X341469D01*
X341969Y735470D02*X341469Y735970D01*
X341969Y733970D02*Y735470D01*
X339969Y733970D02*X343969D01*
X341969Y734770D02*X343969Y735970D01*
X340469Y737170D02*X339969Y737670D01*
Y739170D01*
X340469Y739670D01*
X341469D01*
X343969Y737170D02*X341469Y739670D01*
X343969Y737170D02*Y739670D01*
X343469Y740870D02*X343969Y741370D01*
X340469Y740870D02*X343469D01*
X340469D02*X339969Y741370D01*
Y742370D01*
X340469Y742870D01*
X343469D01*
X343969Y742370D02*X343469Y742870D01*
X343969Y741370D02*Y742370D01*
X342969Y740870D02*X340969Y742870D01*
X342469Y744070D02*X339969Y746070D01*
X342469Y744070D02*Y746570D01*
X339969Y746070D02*X343969D01*
X276321Y731031D02*X278321D01*
X278821Y730531D01*
Y729531D01*
X278321Y729031D02*X278821Y729531D01*
X276821Y729031D02*X278321D01*
X276821Y731031D02*Y727031D01*
X277621Y729031D02*X278821Y727031D01*
X280021Y730531D02*X280521Y731031D01*
X282021D01*
X282521Y730531D01*
Y729531D01*
X280021Y727031D02*X282521Y729531D01*
X280021Y727031D02*X282521D01*
X283721Y727531D02*X284221Y727031D01*
X283721Y730531D02*Y727531D01*
Y730531D02*X284221Y731031D01*
X285221D01*
X285721Y730531D01*
Y727531D01*
X285221Y727031D02*X285721Y727531D01*
X284221Y727031D02*X285221D01*
X283721Y728031D02*X285721Y730031D01*
X286921Y731031D02*X288921D01*
X286921D02*Y729031D01*
X287421Y729531D01*
X288421D01*
X288921Y729031D01*
Y727531D01*
X288421Y727031D02*X288921Y727531D01*
X287421Y727031D02*X288421D01*
X286921Y727531D02*X287421Y727031D01*
X276008Y746150D02*X278008D01*
X278508Y745650D01*
Y744650D01*
X278008Y744150D02*X278508Y744650D01*
X276508Y744150D02*X278008D01*
X276508Y746150D02*Y742150D01*
X277308Y744150D02*X278508Y742150D01*
X279708Y745650D02*X280208Y746150D01*
X281708D01*
X282208Y745650D01*
Y744650D01*
X279708Y742150D02*X282208Y744650D01*
X279708Y742150D02*X282208D01*
X283408Y742650D02*X283908Y742150D01*
X283408Y745650D02*Y742650D01*
Y745650D02*X283908Y746150D01*
X284908D01*
X285408Y745650D01*
Y742650D01*
X284908Y742150D02*X285408Y742650D01*
X283908Y742150D02*X284908D01*
X283408Y743150D02*X285408Y745150D01*
X286608Y745650D02*X287108Y746150D01*
X288608D01*
X289108Y745650D01*
Y744650D01*
X286608Y742150D02*X289108Y744650D01*
X286608Y742150D02*X289108D01*
X150500Y863300D02*Y862000D01*
X151200Y864000D02*X150500Y863300D01*
X153800Y864000D02*X151200D01*
X153800D02*X154500Y863300D01*
Y862000D01*
X154000Y860800D02*X151000D01*
X154000D02*X154500Y860300D01*
Y859300D01*
X154000Y858800D01*
X151000D01*
X150500Y859300D02*X151000Y858800D01*
X150500Y860300D02*Y859300D01*
X151000Y860800D02*X150500Y860300D01*
X154500Y857600D02*X150500D01*
X154500D02*X150500Y855100D01*
X154500D02*X150500D01*
X154500Y853900D02*X150500D01*
X154500D02*X150500Y851400D01*
X154500D02*X150500D01*
X154000Y850200D02*X154500Y849700D01*
Y848200D01*
X154000Y847700D01*
X153000D01*
X150500Y850200D02*X153000Y847700D01*
X150500Y850200D02*Y847700D01*
X311559Y905732D02*Y901732D01*
X313559D01*
X314759Y904932D02*X315559Y905732D01*
Y901732D01*
X314759D02*X316259D01*
X317459Y902232D02*X317959Y901732D01*
X317459Y905232D02*Y902232D01*
Y905232D02*X317959Y905732D01*
X318959D01*
X319459Y905232D01*
Y902232D01*
X318959Y901732D02*X319459Y902232D01*
X317959Y901732D02*X318959D01*
X317459Y902732D02*X319459Y904732D01*
X320659Y905232D02*X321159Y905732D01*
X322659D01*
X323159Y905232D01*
Y904232D01*
X320659Y901732D02*X323159Y904232D01*
X320659Y901732D02*X323159D01*
X277557Y860168D02*X279557D01*
X280057Y859668D01*
Y858668D01*
X279557Y858168D02*X280057Y858668D01*
X278057Y858168D02*X279557D01*
X278057Y860168D02*Y856168D01*
X278857Y858168D02*X280057Y856168D01*
X281257Y859368D02*X282057Y860168D01*
Y856168D01*
X281257D02*X282757D01*
X283957Y856668D02*X284457Y856168D01*
X283957Y859668D02*Y856668D01*
Y859668D02*X284457Y860168D01*
X285457D01*
X285957Y859668D01*
Y856668D01*
X285457Y856168D02*X285957Y856668D01*
X284457Y856168D02*X285457D01*
X283957Y857168D02*X285957Y859168D01*
X287157Y857668D02*X289157Y860168D01*
X287157Y857668D02*X289657D01*
X289157Y860168D02*Y856168D01*
X297741Y845488D02*Y847488D01*
X298241Y847988D01*
X299241D01*
X299741Y847488D02*X299241Y847988D01*
X299741Y845988D02*Y847488D01*
X297741Y845988D02*X301741D01*
X299741Y846788D02*X301741Y847988D01*
X298541Y849188D02*X297741Y849988D01*
X301741D01*
Y849188D02*Y850688D01*
X301241Y851888D02*X301741Y852388D01*
X298241Y851888D02*X301241D01*
X298241D02*X297741Y852388D01*
Y853388D01*
X298241Y853888D01*
X301241D01*
X301741Y853388D02*X301241Y853888D01*
X301741Y852388D02*Y853388D01*
X300741Y851888D02*X298741Y853888D01*
X298241Y855088D02*X297741Y855588D01*
Y857088D01*
X298241Y857588D01*
X299241D01*
X301741Y855088D02*X299241Y857588D01*
X301741Y855088D02*Y857588D01*
X313878Y847629D02*Y849629D01*
X314378Y850129D01*
X315378D01*
X315878Y849629D02*X315378Y850129D01*
X315878Y848129D02*Y849629D01*
X313878Y848129D02*X317878D01*
X315878Y848929D02*X317878Y850129D01*
X314678Y851329D02*X313878Y852129D01*
X317878D01*
Y851329D02*Y852829D01*
X317378Y854029D02*X317878Y854529D01*
X314378Y854029D02*X317378D01*
X314378D02*X313878Y854529D01*
Y855529D01*
X314378Y856029D01*
X317378D01*
X317878Y855529D02*X317378Y856029D01*
X317878Y854529D02*Y855529D01*
X316878Y854029D02*X314878Y856029D01*
X314678Y857229D02*X313878Y858029D01*
X317878D01*
Y857229D02*Y858729D01*
X316500Y840500D02*Y837000D01*
X317000Y836500D01*
X318000D01*
X318500Y837000D01*
Y840500D02*Y837000D01*
X319700Y839700D02*X320500Y840500D01*
Y836500D01*
X319700D02*X321200D01*
X322400Y837000D02*X322900Y836500D01*
X322400Y840000D02*Y837000D01*
Y840000D02*X322900Y840500D01*
X323900D01*
X324400Y840000D01*
Y837000D01*
X323900Y836500D02*X324400Y837000D01*
X322900Y836500D02*X323900D01*
X322400Y837500D02*X324400Y839500D01*
X325600Y839700D02*X326400Y840500D01*
Y836500D01*
X325600D02*X327100D01*
X292726Y823813D02*Y825813D01*
X293226Y826313D01*
X294226D01*
X294726Y825813D02*X294226Y826313D01*
X294726Y824313D02*Y825813D01*
X292726Y824313D02*X296726D01*
X294726Y825113D02*X296726Y826313D01*
X293526Y827513D02*X292726Y828313D01*
X296726D01*
Y827513D02*Y829013D01*
X296226Y830213D02*X296726Y830713D01*
X293226Y830213D02*X296226D01*
X293226D02*X292726Y830713D01*
Y831713D01*
X293226Y832213D01*
X296226D01*
X296726Y831713D02*X296226Y832213D01*
X296726Y830713D02*Y831713D01*
X295726Y830213D02*X293726Y832213D01*
X292726Y834913D02*X293226Y835413D01*
X292726Y833913D02*Y834913D01*
X293226Y833413D02*X292726Y833913D01*
X293226Y833413D02*X296226D01*
X296726Y833913D01*
X294526Y834913D02*X295026Y835413D01*
X294526Y833413D02*Y834913D01*
X296726Y833913D02*Y834913D01*
X296226Y835413D01*
X295026D02*X296226D01*
X280226Y832535D02*Y834535D01*
X280726Y835035D01*
X281726D01*
X282226Y834535D02*X281726Y835035D01*
X282226Y833035D02*Y834535D01*
X280226Y833035D02*X284226D01*
X282226Y833835D02*X284226Y835035D01*
X281026Y836235D02*X280226Y837035D01*
X284226D01*
Y836235D02*Y837735D01*
X283726Y838935D02*X284226Y839435D01*
X280726Y838935D02*X283726D01*
X280726D02*X280226Y839435D01*
Y840435D01*
X280726Y840935D01*
X283726D01*
X284226Y840435D02*X283726Y840935D01*
X284226Y839435D02*Y840435D01*
X283226Y838935D02*X281226Y840935D01*
X280226Y842135D02*Y844135D01*
Y842135D02*X282226D01*
X281726Y842635D01*
Y843635D01*
X282226Y844135D01*
X283726D01*
X284226Y843635D02*X283726Y844135D01*
X284226Y842635D02*Y843635D01*
X283726Y842135D02*X284226Y842635D01*
X277820Y825531D02*X279820D01*
X280320Y825031D01*
Y824031D01*
X279820Y823531D02*X280320Y824031D01*
X278320Y823531D02*X279820D01*
X278320Y825531D02*Y821531D01*
X279120Y823531D02*X280320Y821531D01*
X281520Y824731D02*X282320Y825531D01*
Y821531D01*
X281520D02*X283020D01*
X284220Y822031D02*X284720Y821531D01*
X284220Y825031D02*Y822031D01*
Y825031D02*X284720Y825531D01*
X285720D01*
X286220Y825031D01*
Y822031D01*
X285720Y821531D02*X286220Y822031D01*
X284720Y821531D02*X285720D01*
X284220Y822531D02*X286220Y824531D01*
X287420Y825031D02*X287920Y825531D01*
X288920D01*
X289420Y825031D01*
X288920Y821531D02*X289420Y822031D01*
X287920Y821531D02*X288920D01*
X287420Y822031D02*X287920Y821531D01*
Y823731D02*X288920D01*
X289420Y825031D02*Y824231D01*
Y823231D02*Y822031D01*
Y823231D02*X288920Y823731D01*
X289420Y824231D02*X288920Y823731D01*
X337021Y847938D02*Y849238D01*
X336321Y847238D02*X337021Y847938D01*
X333721Y847238D02*X336321D01*
X333721D02*X333021Y847938D01*
Y849238D01*
X333821Y850438D02*X333021Y851238D01*
X337021D01*
Y850438D02*Y851938D01*
X336521Y853138D02*X337021Y853638D01*
X333521Y853138D02*X336521D01*
X333521D02*X333021Y853638D01*
Y854638D01*
X333521Y855138D01*
X336521D01*
X337021Y854638D02*X336521Y855138D01*
X337021Y853638D02*Y854638D01*
X336021Y853138D02*X334021Y855138D01*
X333021Y856338D02*Y858338D01*
Y856338D02*X335021D01*
X334521Y856838D01*
Y857838D01*
X335021Y858338D01*
X336521D01*
X337021Y857838D02*X336521Y858338D01*
X337021Y856838D02*Y857838D01*
X336521Y856338D02*X337021Y856838D01*
X349268Y804047D02*X353268D01*
Y806047D01*
X350068Y807247D02*X349268Y808047D01*
X353268D01*
Y807247D02*Y808747D01*
X352768Y809947D02*X353268Y810447D01*
X349768Y809947D02*X352768D01*
X349768D02*X349268Y810447D01*
Y811447D01*
X349768Y811947D01*
X352768D01*
X353268Y811447D02*X352768Y811947D01*
X353268Y810447D02*Y811447D01*
X352268Y809947D02*X350268Y811947D01*
X350068Y813147D02*X349268Y813947D01*
X353268D01*
Y813147D02*Y814647D01*
X152000Y703000D02*X154000D01*
X154500Y702500D01*
Y701500D01*
X154000Y701000D02*X154500Y701500D01*
X152500Y701000D02*X154000D01*
X152500Y703000D02*Y699000D01*
X153300Y701000D02*X154500Y699000D01*
X155700D02*X158200Y703000D01*
X155700D02*X158200Y699000D01*
X153000Y693000D02*Y689000D01*
X154300Y693000D02*X155000Y692300D01*
Y689700D01*
X154300Y689000D02*X155000Y689700D01*
X152500Y689000D02*X154300D01*
X152500Y693000D02*X154300D01*
X156200Y692200D02*X157000Y693000D01*
Y689000D01*
X156200D02*X157700D01*
X152500Y683000D02*Y679000D01*
X153800Y683000D02*X154500Y682300D01*
Y679700D01*
X153800Y679000D02*X154500Y679700D01*
X152000Y679000D02*X153800D01*
X152000Y683000D02*X153800D01*
X155700Y682500D02*X156200Y683000D01*
X157200D01*
X157700Y682500D01*
X157200Y679000D02*X157700Y679500D01*
X156200Y679000D02*X157200D01*
X155700Y679500D02*X156200Y679000D01*
Y681200D02*X157200D01*
X157700Y682500D02*Y681700D01*
Y680700D02*Y679500D01*
Y680700D02*X157200Y681200D01*
X157700Y681700D02*X157200Y681200D01*
X152500Y673000D02*Y669000D01*
X153800Y673000D02*X154500Y672300D01*
Y669700D01*
X153800Y669000D02*X154500Y669700D01*
X152000Y669000D02*X153800D01*
X152000Y673000D02*X153800D01*
X155700D02*X157700D01*
X155700D02*Y671000D01*
X156200Y671500D01*
X157200D01*
X157700Y671000D01*
Y669500D01*
X157200Y669000D02*X157700Y669500D01*
X156200Y669000D02*X157200D01*
X155700Y669500D02*X156200Y669000D01*
X152000Y663000D02*Y659000D01*
X153300Y663000D02*X154000Y662300D01*
Y659700D01*
X153300Y659000D02*X154000Y659700D01*
X151500Y659000D02*X153300D01*
X151500Y663000D02*X153300D01*
X155700Y659000D02*X157700Y663000D01*
X155200D02*X157700D01*
X147000Y653000D02*X148000D01*
X147500D02*Y649000D01*
X147000D02*X148000D01*
X149200Y653000D02*Y649000D01*
Y653000D02*X151700Y649000D01*
Y653000D02*Y649000D01*
X152900Y653000D02*X154900D01*
X153900D02*Y649000D01*
X156100Y652200D02*X156900Y653000D01*
Y649000D01*
X156100D02*X157600D01*
X146000Y593000D02*X146500Y592500D01*
X144500Y593000D02*X146000D01*
X144000Y592500D02*X144500Y593000D01*
X144000Y592500D02*Y589500D01*
X144500Y589000D01*
X146000D01*
X146500Y589500D01*
Y590500D02*Y589500D01*
X146000Y591000D02*X146500Y590500D01*
X145000Y591000D02*X146000D01*
X147700Y593000D02*Y589000D01*
Y593000D02*X150200Y589000D01*
Y593000D02*Y589000D01*
X151900Y593000D02*Y589000D01*
X153200Y593000D02*X153900Y592300D01*
Y589700D01*
X153200Y589000D02*X153900Y589700D01*
X151400Y589000D02*X153200D01*
X151400Y593000D02*X153200D01*
X155600D02*Y589000D01*
X156900Y593000D02*X157600Y592300D01*
Y589700D01*
X156900Y589000D02*X157600Y589700D01*
X155100Y589000D02*X156900D01*
X155100Y593000D02*X156900D01*
X152500Y612000D02*Y609000D01*
Y612000D02*X153200Y613000D01*
X154300D01*
X155000Y612000D01*
Y609000D01*
X152500Y611000D02*X155000D01*
X156200Y612200D02*X157000Y613000D01*
Y609000D01*
X156200D02*X157700D01*
X152000Y622000D02*Y619000D01*
Y622000D02*X152700Y623000D01*
X153800D01*
X154500Y622000D01*
Y619000D01*
X152000Y621000D02*X154500D01*
X155700Y622500D02*X156200Y623000D01*
X157200D01*
X157700Y622500D01*
X157200Y619000D02*X157700Y619500D01*
X156200Y619000D02*X157200D01*
X155700Y619500D02*X156200Y619000D01*
Y621200D02*X157200D01*
X157700Y622500D02*Y621700D01*
Y620700D02*Y619500D01*
Y620700D02*X157200Y621200D01*
X157700Y621700D02*X157200Y621200D01*
X151500Y632500D02*Y629500D01*
Y632500D02*X152200Y633500D01*
X153300D01*
X154000Y632500D01*
Y629500D01*
X151500Y631500D02*X154000D01*
X155200Y631000D02*X157200Y633500D01*
X155200Y631000D02*X157700D01*
X157200Y633500D02*Y629500D01*
X146500Y643000D02*X147500D01*
X147000D02*Y639000D01*
X146500D02*X147500D01*
X148700Y643000D02*Y639000D01*
Y643000D02*X151200Y639000D01*
Y643000D02*Y639000D01*
X152400Y643000D02*X154400D01*
X153400D02*Y639000D01*
X155600Y642500D02*X156100Y643000D01*
X157100D01*
X157600Y642500D01*
X157100Y639000D02*X157600Y639500D01*
X156100Y639000D02*X157100D01*
X155600Y639500D02*X156100Y639000D01*
Y641200D02*X157100D01*
X157600Y642500D02*Y641700D01*
Y640700D02*Y639500D01*
Y640700D02*X157100Y641200D01*
X157600Y641700D02*X157100Y641200D01*
X90500Y738300D02*Y737000D01*
X91200Y739000D02*X90500Y738300D01*
X93800Y739000D02*X91200D01*
X93800D02*X94500Y738300D01*
Y737000D01*
X94000Y735800D02*X91000D01*
X94000D02*X94500Y735300D01*
Y734300D01*
X94000Y733800D01*
X91000D01*
X90500Y734300D02*X91000Y733800D01*
X90500Y735300D02*Y734300D01*
X91000Y735800D02*X90500Y735300D01*
X94500Y732600D02*X90500D01*
X94500D02*X90500Y730100D01*
X94500D02*X90500D01*
X94500Y728900D02*X90500D01*
X94500D02*X90500Y726400D01*
X94500D02*X90500D01*
X93700Y725200D02*X94500Y724400D01*
X90500D01*
Y725200D02*Y723700D01*
X143500Y603000D02*X144000Y602500D01*
X142000Y603000D02*X143500D01*
X141500Y602500D02*X142000Y603000D01*
X141500Y602500D02*Y601500D01*
X142000Y601000D01*
X143500D01*
X144000Y600500D01*
Y599500D01*
X143500Y599000D02*X144000Y599500D01*
X142000Y599000D02*X143500D01*
X141500Y599500D02*X142000Y599000D01*
X145200Y603000D02*X146200Y601000D01*
X147200Y603000D01*
X146200Y601000D02*Y599000D01*
X148400Y603000D02*Y599000D01*
Y603000D02*X150900Y599000D01*
Y603000D02*Y599000D01*
X152800D02*X154100D01*
X152100Y599700D02*X152800Y599000D01*
X152100Y602300D02*Y599700D01*
Y602300D02*X152800Y603000D01*
X154100D01*
X155300D02*Y599000D01*
Y603000D02*X157800Y599000D01*
Y603000D02*Y599000D01*
X398000Y586300D02*Y585000D01*
X398700Y587000D02*X398000Y586300D01*
X401300Y587000D02*X398700D01*
X401300D02*X402000Y586300D01*
Y585000D01*
X401500Y583800D02*X398500D01*
X401500D02*X402000Y583300D01*
Y582300D01*
X401500Y581800D01*
X398500D01*
X398000Y582300D02*X398500Y581800D01*
X398000Y583300D02*Y582300D01*
X398500Y583800D02*X398000Y583300D01*
X402000Y580600D02*X398000D01*
X402000D02*X398000Y578100D01*
X402000D02*X398000D01*
X402000Y576900D02*X398000D01*
X402000D02*X398000Y574400D01*
X402000D02*X398000D01*
X402000Y573200D02*Y571200D01*
Y573200D02*X400000D01*
X400500Y572700D01*
Y571700D01*
X400000Y571200D01*
X398500D01*
X398000Y571700D02*X398500Y571200D01*
X398000Y572700D02*Y571700D01*
X398500Y573200D02*X398000Y572700D01*
X190500Y683000D02*Y679000D01*
X191800Y683000D02*X192500Y682300D01*
Y679700D01*
X191800Y679000D02*X192500Y679700D01*
X190000Y679000D02*X191800D01*
X190000Y683000D02*X191800D01*
X193700Y682500D02*X194200Y683000D01*
X195700D01*
X196200Y682500D01*
Y681500D01*
X193700Y679000D02*X196200Y681500D01*
X193700Y679000D02*X196200D01*
X190500Y693000D02*Y689000D01*
X191800Y693000D02*X192500Y692300D01*
Y689700D01*
X191800Y689000D02*X192500Y689700D01*
X190000Y689000D02*X191800D01*
X190000Y693000D02*X191800D01*
X193700Y689500D02*X194200Y689000D01*
X193700Y692500D02*Y689500D01*
Y692500D02*X194200Y693000D01*
X195200D01*
X195700Y692500D01*
Y689500D01*
X195200Y689000D02*X195700Y689500D01*
X194200Y689000D02*X195200D01*
X193700Y690000D02*X195700Y692000D01*
X190000Y703000D02*X192000D01*
X191000D02*Y699000D01*
X193200D02*X195700Y703000D01*
X193200D02*X195700Y699000D01*
X192000Y733000D02*X192500Y732500D01*
X190500Y733000D02*X192000D01*
X190000Y732500D02*X190500Y733000D01*
X190000Y732500D02*Y729500D01*
X190500Y729000D01*
X192000D01*
X192500Y729500D01*
Y730500D02*Y729500D01*
X192000Y731000D02*X192500Y730500D01*
X191000Y731000D02*X192000D01*
X193700Y733000D02*Y729000D01*
Y733000D02*X196200Y729000D01*
Y733000D02*Y729000D01*
X197900Y733000D02*Y729000D01*
X199200Y733000D02*X199900Y732300D01*
Y729700D01*
X199200Y729000D02*X199900Y729700D01*
X197400Y729000D02*X199200D01*
X197400Y733000D02*X199200D01*
X201600D02*Y729000D01*
X202900Y733000D02*X203600Y732300D01*
Y729700D01*
X202900Y729000D02*X203600Y729700D01*
X201100Y729000D02*X202900D01*
X201100Y733000D02*X202900D01*
X190000Y653000D02*X191000D01*
X190500D02*Y649000D01*
X190000D02*X191000D01*
X192200Y653000D02*Y649000D01*
Y653000D02*X194700Y649000D01*
Y653000D02*Y649000D01*
X195900Y653000D02*X197900D01*
X196900D02*Y649000D01*
X199100Y649500D02*X199600Y649000D01*
X199100Y652500D02*Y649500D01*
Y652500D02*X199600Y653000D01*
X200600D01*
X201100Y652500D01*
Y649500D01*
X200600Y649000D02*X201100Y649500D01*
X199600Y649000D02*X200600D01*
X199100Y650000D02*X201100Y652000D01*
X190500Y663000D02*Y659000D01*
X191800Y663000D02*X192500Y662300D01*
Y659700D01*
X191800Y659000D02*X192500Y659700D01*
X190000Y659000D02*X191800D01*
X190000Y663000D02*X191800D01*
X195200D02*X195700Y662500D01*
X194200Y663000D02*X195200D01*
X193700Y662500D02*X194200Y663000D01*
X193700Y662500D02*Y659500D01*
X194200Y659000D01*
X195200Y661200D02*X195700Y660700D01*
X193700Y661200D02*X195200D01*
X194200Y659000D02*X195200D01*
X195700Y659500D01*
Y660700D02*Y659500D01*
X190500Y673000D02*Y669000D01*
X191800Y673000D02*X192500Y672300D01*
Y669700D01*
X191800Y669000D02*X192500Y669700D01*
X190000Y669000D02*X191800D01*
X190000Y673000D02*X191800D01*
X193700Y670500D02*X195700Y673000D01*
X193700Y670500D02*X196200D01*
X195700Y673000D02*Y669000D01*
X190000Y713000D02*Y709000D01*
Y713000D02*X192000D01*
X190000Y711200D02*X191500D01*
X193200Y712000D02*Y709000D01*
Y712000D02*X193900Y713000D01*
X195000D01*
X195700Y712000D01*
Y709000D01*
X193200Y711000D02*X195700D01*
X196900Y713000D02*Y709500D01*
X197400Y709000D01*
X198400D01*
X198900Y709500D01*
Y713000D02*Y709500D01*
X200100Y713000D02*Y709000D01*
X202100D01*
X203300Y713000D02*X205300D01*
X204300D02*Y709000D01*
X190700Y719000D02*X192000D01*
X190000Y719700D02*X190700Y719000D01*
X190000Y722300D02*Y719700D01*
Y722300D02*X190700Y723000D01*
X192000D01*
X193200D02*Y719000D01*
X195200D01*
X196400Y722500D02*Y719500D01*
Y722500D02*X196900Y723000D01*
X197900D01*
X198400Y722500D01*
Y719500D01*
X197900Y719000D02*X198400Y719500D01*
X196900Y719000D02*X197900D01*
X196400Y719500D02*X196900Y719000D01*
X200300D02*X201600D01*
X199600Y719700D02*X200300Y719000D01*
X199600Y722300D02*Y719700D01*
Y722300D02*X200300Y723000D01*
X201600D01*
X202800D02*Y719000D01*
Y721000D02*X204800Y723000D01*
X202800Y721000D02*X204800Y719000D01*
X190000Y633000D02*X191000D01*
X190500D02*Y629000D01*
X190000D02*X191000D01*
X192200Y633000D02*Y629000D01*
Y633000D02*X194700Y629000D01*
Y633000D02*Y629000D01*
X195900Y633000D02*X197900D01*
X196900D02*Y629000D01*
X199100Y630500D02*X201100Y633000D01*
X199100Y630500D02*X201600D01*
X201100Y633000D02*Y629000D01*
X192000Y593000D02*X192500Y592500D01*
X190500Y593000D02*X192000D01*
X190000Y592500D02*X190500Y593000D01*
X190000Y592500D02*Y589500D01*
X190500Y589000D01*
X192000D01*
X192500Y589500D01*
Y590500D02*Y589500D01*
X192000Y591000D02*X192500Y590500D01*
X191000Y591000D02*X192000D01*
X193700Y593000D02*Y589000D01*
Y593000D02*X196200Y589000D01*
Y593000D02*Y589000D01*
X197900Y593000D02*Y589000D01*
X199200Y593000D02*X199900Y592300D01*
Y589700D01*
X199200Y589000D02*X199900Y589700D01*
X197400Y589000D02*X199200D01*
X197400Y593000D02*X199200D01*
X201600D02*Y589000D01*
X202900Y593000D02*X203600Y592300D01*
Y589700D01*
X202900Y589000D02*X203600Y589700D01*
X201100Y589000D02*X202900D01*
X201100Y593000D02*X202900D01*
X192000Y603000D02*X192500Y602500D01*
X190500Y603000D02*X192000D01*
X190000Y602500D02*X190500Y603000D01*
X190000Y602500D02*Y601500D01*
X190500Y601000D01*
X192000D01*
X192500Y600500D01*
Y599500D01*
X192000Y599000D02*X192500Y599500D01*
X190500Y599000D02*X192000D01*
X190000Y599500D02*X190500Y599000D01*
X193700Y603000D02*X194700Y601000D01*
X195700Y603000D01*
X194700Y601000D02*Y599000D01*
X196900Y603000D02*Y599000D01*
Y603000D02*X199400Y599000D01*
Y603000D02*Y599000D01*
X201300D02*X202600D01*
X200600Y599700D02*X201300Y599000D01*
X200600Y602300D02*Y599700D01*
Y602300D02*X201300Y603000D01*
X202600D01*
X204300D02*Y599000D01*
X203800Y603000D02*X205800D01*
X206300Y602500D01*
Y601500D01*
X205800Y601000D02*X206300Y601500D01*
X204300Y601000D02*X205800D01*
X190000Y612500D02*Y609500D01*
Y612500D02*X190700Y613500D01*
X191800D01*
X192500Y612500D01*
Y609500D01*
X190000Y611500D02*X192500D01*
X193700Y610000D02*X194200Y609500D01*
X193700Y613000D02*Y610000D01*
Y613000D02*X194200Y613500D01*
X195200D01*
X195700Y613000D01*
Y610000D01*
X195200Y609500D02*X195700Y610000D01*
X194200Y609500D02*X195200D01*
X193700Y610500D02*X195700Y612500D01*
X190000Y622500D02*Y619500D01*
Y622500D02*X190700Y623500D01*
X191800D01*
X192500Y622500D01*
Y619500D01*
X190000Y621500D02*X192500D01*
X193700Y623000D02*X194200Y623500D01*
X195700D01*
X196200Y623000D01*
Y622000D01*
X193700Y619500D02*X196200Y622000D01*
X193700Y619500D02*X196200D01*
X190000Y643000D02*X191000D01*
X190500D02*Y639000D01*
X190000D02*X191000D01*
X192200Y643000D02*Y639000D01*
Y643000D02*X194700Y639000D01*
Y643000D02*Y639000D01*
X195900Y643000D02*X197900D01*
X196900D02*Y639000D01*
X199100Y642500D02*X199600Y643000D01*
X201100D01*
X201600Y642500D01*
Y641500D01*
X199100Y639000D02*X201600Y641500D01*
X199100Y639000D02*X201600D01*
X385000Y634990D02*X385500Y634490D01*
X383500Y634990D02*X385000D01*
X383000Y634490D02*X383500Y634990D01*
X383000Y634490D02*Y633490D01*
X383500Y632990D01*
X385000D01*
X385500Y632490D01*
Y631490D01*
X385000Y630990D02*X385500Y631490D01*
X383500Y630990D02*X385000D01*
X383000Y631490D02*X383500Y630990D01*
X393000Y634990D02*X395000D01*
X395500Y634490D01*
Y633490D01*
X395000Y632990D02*X395500Y633490D01*
X393500Y632990D02*X395000D01*
X393500Y634990D02*Y630990D01*
X394300Y632990D02*X395500Y630990D01*
X412500Y634990D02*Y632990D01*
X413000Y630990D01*
X414000Y632990D01*
X415000Y630990D01*
X415500Y632990D01*
Y634990D01*
X423000D02*X424000Y632990D01*
X425000Y634990D01*
X424000Y632990D02*Y630990D01*
X403000Y634990D02*Y630990D01*
Y632990D02*X405000Y634990D01*
X403000Y632990D02*X405000Y630990D01*
X431843Y710700D02*X433843D01*
X432843D02*Y706700D01*
X435043Y709900D02*X435843Y710700D01*
Y706700D01*
X435043D02*X436543D01*
M02*
