M48
;GenerationSoftware,Autodesk,EAGLE,9.0.0*%
;CreationDate,2019-08-08T19:20:38Z*%
FMAT,2
ICI,OFF
METRIC,TZ,000.000
T2C0.813
T1C1.016
%
G90
M71
T1
X25679Y9449
X16510Y2540
X16510Y7620
X58420Y1270
X58420Y3810
X58420Y6350
X58420Y8890
X58420Y11430
X58420Y13970
X58420Y16510
X58420Y19050
X30201Y15951
X30201Y9449
X25679Y15951
T2
X41910Y3810
X41910Y16510
X50800Y8890
X50800Y11430
X50800Y6350
X29210Y6350
X8890Y16510
X8890Y13970
X8890Y11430
X8890Y8890
X8890Y6350
X8890Y3810
X8890Y1270
X27305Y5080
X29210Y3810
X38100Y6350
X36195Y5080
X38100Y3810
X22860Y16510
X22860Y3810
X33020Y3810
X33020Y16510
X45720Y15240
X45720Y5080
X8890Y19050
M30