G04 EAGLE Gerber X2 export*
G04 #@! %TF.Part,Single*
G04 #@! %TF.FileFunction,Soldermask,Top,1*
G04 #@! %TF.FilePolarity,Negative*
G04 #@! %TF.GenerationSoftware,Autodesk,EAGLE,9.0.0*
G04 #@! %TF.CreationDate,2019-08-08T19:20:38Z*
G75*
%MOMM*%
%FSLAX34Y34*%
%LPD*%
%AMOC8*
5,1,8,0,0,1.08239X$1,22.5*%
G01*
%ADD10P,1.649562X8X112.500000*%
%ADD11C,2.743200*%
%ADD12P,2.969212X8X292.500000*%
%ADD13P,1.649562X8X292.500000*%
%ADD14C,1.524000*%
%ADD15C,1.727200*%
%ADD16C,2.082800*%


D10*
X292100Y63500D03*
X273050Y50800D03*
X292100Y38100D03*
X381000Y63500D03*
X361950Y50800D03*
X381000Y38100D03*
D11*
X165100Y76200D03*
D12*
X165100Y25400D03*
D13*
X228600Y165100D03*
X228600Y38100D03*
D10*
X330200Y38100D03*
X330200Y165100D03*
D14*
X457200Y159004D02*
X457200Y145796D01*
X457200Y57404D02*
X457200Y44196D01*
D10*
X419100Y38100D03*
X419100Y165100D03*
D14*
X501396Y88900D02*
X514604Y88900D01*
X514604Y114300D02*
X501396Y114300D01*
X501396Y63500D02*
X514604Y63500D01*
X95504Y190500D02*
X82296Y190500D01*
X82296Y165100D02*
X95504Y165100D01*
X95504Y139700D02*
X82296Y139700D01*
X82296Y114300D02*
X95504Y114300D01*
X95504Y88900D02*
X82296Y88900D01*
X82296Y63500D02*
X95504Y63500D01*
X95504Y38100D02*
X82296Y38100D01*
X82296Y12700D02*
X95504Y12700D01*
D15*
X576580Y12700D02*
X591820Y12700D01*
X591820Y38100D02*
X576580Y38100D01*
X576580Y63500D02*
X591820Y63500D01*
X591820Y88900D02*
X576580Y88900D01*
X576580Y114300D02*
X591820Y114300D01*
X591820Y139700D02*
X576580Y139700D01*
X576580Y165100D02*
X591820Y165100D01*
X591820Y190500D02*
X576580Y190500D01*
D16*
X302006Y159512D03*
X302006Y94488D03*
X256794Y159512D03*
X256794Y94488D03*
M02*
