G04 DipTrace 2.4.0.2*
%INmainboard_TopSilk.gbr*%
%MOIN*%
%ADD10C,0.0098*%
%ADD29C,0.0236*%
%ADD41C,0.0154*%
%ADD45C,0.0213*%
%ADD57C,0.0079*%
%ADD66C,0.0158*%
%ADD146C,0.0062*%
%ADD147C,0.0124*%
%FSLAX44Y44*%
G04*
G70*
G90*
G75*
G01*
%LNTopSilk*%
%LPD*%
X10795Y16813D2*
D10*
G02X10795Y16813I-1240J0D01*
G01*
X8570Y16695D2*
Y16931D1*
X8452Y16813D2*
X8689D1*
X7133Y12873D2*
Y13503D1*
X7058Y12873D2*
Y13503D1*
Y12873D2*
X7294D1*
X7058Y13503D2*
X7294D1*
X11431Y12101D2*
X11943D1*
X8502Y9508D2*
X7873D1*
X8502Y9433D2*
X7873D1*
X8502D2*
Y9669D1*
X7873Y9433D2*
Y9669D1*
X15065Y13383D2*
X14436D1*
X15065Y13309D2*
X14436D1*
X15065D2*
Y13544D1*
X14436Y13309D2*
Y13544D1*
X15649Y12555D2*
Y13067D1*
X30008Y12524D2*
X29497D1*
X29166Y15569D2*
Y15057D1*
X26429Y23002D2*
Y22372D1*
X26504Y23002D2*
Y22372D1*
Y23002D2*
X26268D1*
X26504Y22372D2*
X26268D1*
X5926Y18042D2*
X4823D1*
Y18063D2*
Y19914D1*
X5926Y18341D2*
X4823D1*
X5926Y19914D2*
X4823D1*
X5926Y18063D2*
Y19914D1*
D41*
X12541Y10246D3*
X13042Y10154D2*
D10*
Y8973D1*
X13239D1*
Y10154D1*
X13042D1*
X19323Y16633D2*
Y16869D1*
X19952Y16633D2*
Y16869D1*
Y16707D2*
X19323D1*
X19952Y16633D2*
X19323D1*
X23084Y20232D2*
Y19051D1*
X23320D1*
Y20232D1*
X23084D1*
D41*
X22622Y20324D3*
X8894Y10951D2*
D10*
X9894D1*
X8894Y12919D2*
X9894D1*
D45*
X10287Y10793D3*
D41*
X17334Y12036D3*
X17344Y11144D2*
D10*
X14746D1*
X17344Y10041D2*
X14746D1*
Y11144D2*
Y10041D1*
X17344Y11144D2*
Y10041D1*
X7165Y21681D2*
Y24831D1*
X10709D1*
Y19161D1*
X10020D1*
X7854D2*
X7165D1*
Y19555D1*
X20118Y24921D2*
X11850D1*
X20118D2*
Y18622D1*
X11850D1*
Y24921D1*
X19921Y24331D2*
Y20000D1*
X12047D1*
Y24331D1*
X20118D2*
X11850D1*
X24573Y23129D2*
Y22442D1*
X21541Y23129D2*
Y22442D1*
X24573Y24459D2*
Y24955D1*
X21541D1*
Y24459D1*
D29*
X23687Y20739D3*
X34113Y19961D2*
D57*
X28208D1*
X34113Y24941D2*
X28208D1*
X34113Y24094D2*
Y24941D1*
X28208Y24094D2*
Y24941D1*
X34113Y24547D2*
X28208D1*
Y19961D2*
Y23012D1*
X34113Y19961D2*
Y23012D1*
X20230Y4597D2*
D10*
X26923D1*
Y6565D1*
X20230D1*
Y4597D1*
X22789D2*
Y4833D1*
X24363D1*
Y4597D2*
Y4833D1*
X28127Y4625D2*
X30127D1*
Y5625D1*
X28127D1*
Y4625D1*
X34409Y13771D2*
X36377D1*
Y7078D1*
X34409D1*
Y13771D1*
Y11212D2*
X34645D1*
Y9638D1*
X34409D2*
X34645D1*
X6912Y11594D2*
X7542D1*
Y8760D2*
X6912D1*
X7542Y11594D2*
Y8760D1*
X5337Y11594D2*
X4707D1*
X5337Y8760D2*
X4707D1*
Y11594D2*
Y8760D1*
X26504Y23939D2*
X26268D1*
X26504Y23310D2*
X26268D1*
X6687Y18437D2*
X7687D1*
Y16437D1*
X6687D1*
Y18437D1*
D41*
X15959Y14629D3*
X15458Y14721D2*
D10*
Y15902D1*
X15261D1*
Y14721D1*
X15458D1*
D41*
X14915Y17745D3*
X15416Y17653D2*
D10*
Y16472D1*
X15613D1*
Y17653D1*
X15416D1*
D41*
X20630Y17884D3*
X20722Y18386D2*
D10*
X21904D1*
Y18583D1*
X20722D1*
Y18386D1*
X24590Y12651D2*
X22227D1*
Y15013D1*
X24590D1*
Y12651D1*
G36*
D2*
Y12966D1*
X24275Y12651D1*
X24590D1*
G37*
D66*
X25062Y12474D3*
X28992Y13313D2*
D10*
Y13938D1*
X27732D2*
Y13313D1*
X10401Y18481D2*
D146*
X10382Y18519D1*
X10344Y18558D1*
X10306Y18577D1*
X10229D1*
X10191Y18558D1*
X10153Y18519D1*
X10133Y18481D1*
X10114Y18424D1*
Y18328D1*
X10133Y18271D1*
X10153Y18232D1*
X10191Y18194D1*
X10229Y18175D1*
X10306D1*
X10344Y18194D1*
X10382Y18232D1*
X10401Y18271D1*
X10525Y18500D2*
X10563Y18519D1*
X10620Y18576D1*
Y18175D1*
X7436Y14095D2*
X7417Y14133D1*
X7379Y14172D1*
X7341Y14191D1*
X7264D1*
X7226Y14172D1*
X7188Y14133D1*
X7168Y14095D1*
X7149Y14038D1*
Y13942D1*
X7168Y13885D1*
X7188Y13846D1*
X7226Y13808D1*
X7264Y13789D1*
X7341D1*
X7379Y13808D1*
X7417Y13846D1*
X7436Y13885D1*
X7579Y14095D2*
Y14114D1*
X7598Y14152D1*
X7617Y14171D1*
X7656Y14190D1*
X7732D1*
X7770Y14171D1*
X7789Y14152D1*
X7809Y14114D1*
Y14076D1*
X7789Y14037D1*
X7751Y13980D1*
X7560Y13789D1*
X7828D1*
X11589Y12715D2*
X11551Y12696D1*
X11513Y12657D1*
X11494Y12619D1*
Y12543D1*
X11513Y12504D1*
X11551Y12466D1*
X11589Y12447D1*
X11647Y12428D1*
X11742D1*
X11799Y12447D1*
X11838Y12466D1*
X11876Y12504D1*
X11895Y12543D1*
Y12619D1*
X11876Y12657D1*
X11838Y12696D1*
X11799Y12715D1*
X11494Y12877D2*
Y13087D1*
X11647Y12972D1*
Y13030D1*
X11666Y13068D1*
X11685Y13087D1*
X11742Y13106D1*
X11780D1*
X11838Y13087D1*
X11876Y13049D1*
X11895Y12991D1*
Y12934D1*
X11876Y12877D1*
X11857Y12858D1*
X11819Y12838D1*
X8146Y8416D2*
X8127Y8454D1*
X8089Y8493D1*
X8051Y8512D1*
X7974D1*
X7936Y8493D1*
X7898Y8454D1*
X7878Y8416D1*
X7859Y8359D1*
Y8263D1*
X7878Y8206D1*
X7898Y8167D1*
X7936Y8129D1*
X7974Y8110D1*
X8051D1*
X8089Y8129D1*
X8127Y8167D1*
X8146Y8206D1*
X8461Y8110D2*
Y8511D1*
X8270Y8244D1*
X8557D1*
X13906Y13374D2*
X13868Y13355D1*
X13830Y13317D1*
X13811Y13279D1*
Y13202D1*
X13830Y13164D1*
X13868Y13126D1*
X13906Y13106D1*
X13964Y13087D1*
X14059D1*
X14116Y13106D1*
X14155Y13126D1*
X14193Y13164D1*
X14212Y13202D1*
Y13279D1*
X14193Y13317D1*
X14155Y13355D1*
X14117Y13374D1*
X13811Y13727D2*
Y13536D1*
X13983Y13517D1*
X13964Y13536D1*
X13945Y13594D1*
Y13651D1*
X13964Y13708D1*
X14002Y13747D1*
X14059Y13766D1*
X14097D1*
X14155Y13747D1*
X14193Y13708D1*
X14212Y13651D1*
Y13594D1*
X14193Y13536D1*
X14174Y13517D1*
X14136Y13498D1*
X17566Y12972D2*
X17547Y13010D1*
X17508Y13048D1*
X17470Y13067D1*
X17394D1*
X17355Y13048D1*
X17317Y13010D1*
X17298Y12972D1*
X17279Y12914D1*
Y12818D1*
X17298Y12761D1*
X17317Y12723D1*
X17355Y12685D1*
X17394Y12665D1*
X17470D1*
X17508Y12685D1*
X17547Y12723D1*
X17566Y12761D1*
X17919Y13010D2*
X17900Y13048D1*
X17842Y13067D1*
X17804D1*
X17747Y13048D1*
X17708Y12990D1*
X17689Y12895D1*
Y12799D1*
X17708Y12723D1*
X17747Y12684D1*
X17804Y12665D1*
X17823D1*
X17880Y12684D1*
X17919Y12723D1*
X17938Y12780D1*
Y12799D1*
X17919Y12857D1*
X17880Y12895D1*
X17823Y12914D1*
X17804D1*
X17747Y12895D1*
X17708Y12857D1*
X17689Y12799D1*
X29717Y14744D2*
X29679Y14725D1*
X29640Y14686D1*
X29621Y14648D1*
Y14572D1*
X29640Y14533D1*
X29679Y14495D1*
X29717Y14476D1*
X29774Y14457D1*
X29870D1*
X29927Y14476D1*
X29966Y14495D1*
X30004Y14533D1*
X30023Y14572D1*
Y14648D1*
X30004Y14686D1*
X29966Y14725D1*
X29927Y14744D1*
X29622Y14963D2*
X29641Y14906D1*
X29679Y14886D1*
X29717D1*
X29755Y14906D1*
X29775Y14944D1*
X29794Y15020D1*
X29813Y15078D1*
X29851Y15116D1*
X29889Y15135D1*
X29947D1*
X29985Y15116D1*
X30004Y15097D1*
X30023Y15039D1*
Y14963D1*
X30004Y14906D1*
X29985Y14886D1*
X29947Y14867D1*
X29889D1*
X29851Y14886D1*
X29813Y14925D1*
X29794Y14982D1*
X29775Y15058D1*
X29755Y15097D1*
X29717Y15116D1*
X29679D1*
X29641Y15097D1*
X29622Y15039D1*
Y14963D1*
X28431Y16140D2*
X28412Y16178D1*
X28374Y16217D1*
X28336Y16236D1*
X28259D1*
X28221Y16217D1*
X28183Y16178D1*
X28164Y16140D1*
X28144Y16083D1*
Y15987D1*
X28164Y15930D1*
X28183Y15891D1*
X28221Y15853D1*
X28259Y15834D1*
X28336D1*
X28374Y15853D1*
X28412Y15891D1*
X28431Y15930D1*
X28804Y16102D2*
X28784Y16044D1*
X28746Y16006D1*
X28689Y15987D1*
X28670D1*
X28612Y16006D1*
X28574Y16044D1*
X28555Y16102D1*
Y16121D1*
X28574Y16178D1*
X28612Y16216D1*
X28670Y16235D1*
X28689D1*
X28746Y16216D1*
X28784Y16178D1*
X28804Y16102D1*
Y16006D1*
X28784Y15910D1*
X28746Y15853D1*
X28689Y15834D1*
X28651D1*
X28593Y15853D1*
X28574Y15891D1*
X25849Y21969D2*
X25830Y22007D1*
X25791Y22045D1*
X25753Y22064D1*
X25677D1*
X25638Y22045D1*
X25600Y22007D1*
X25581Y21969D1*
X25562Y21911D1*
Y21816D1*
X25581Y21758D1*
X25600Y21720D1*
X25638Y21682D1*
X25677Y21663D1*
X25753D1*
X25791Y21682D1*
X25830Y21720D1*
X25849Y21758D1*
X25972Y21988D2*
X26011Y22007D1*
X26068Y22064D1*
Y21663D1*
X26307Y22064D2*
X26249Y22045D1*
X26211Y21988D1*
X26192Y21892D1*
Y21835D1*
X26211Y21739D1*
X26249Y21682D1*
X26307Y21663D1*
X26345D1*
X26402Y21682D1*
X26440Y21739D1*
X26460Y21835D1*
Y21892D1*
X26440Y21988D1*
X26402Y22045D1*
X26345Y22064D1*
X26307D1*
X26440Y21988D2*
X26211Y21739D1*
X23948Y10250D2*
X23929Y10288D1*
X23890Y10326D1*
X23852Y10345D1*
X23776D1*
X23737Y10326D1*
X23699Y10288D1*
X23680Y10250D1*
X23661Y10192D1*
Y10096D1*
X23680Y10039D1*
X23699Y10001D1*
X23737Y9963D1*
X23776Y9943D1*
X23852D1*
X23890Y9963D1*
X23929Y10001D1*
X23948Y10039D1*
X24071Y10268D2*
X24110Y10288D1*
X24167Y10345D1*
Y9943D1*
X24291Y10268D2*
X24329Y10288D1*
X24387Y10345D1*
Y9943D1*
X25112Y11562D2*
X25093Y11600D1*
X25054Y11639D1*
X25016Y11658D1*
X24940D1*
X24901Y11639D1*
X24863Y11600D1*
X24844Y11562D1*
X24825Y11505D1*
Y11409D1*
X24844Y11352D1*
X24863Y11313D1*
X24901Y11275D1*
X24940Y11256D1*
X25016D1*
X25054Y11275D1*
X25093Y11313D1*
X25112Y11352D1*
X25235Y11581D2*
X25274Y11600D1*
X25331Y11657D1*
Y11256D1*
X25474Y11562D2*
Y11581D1*
X25493Y11619D1*
X25512Y11638D1*
X25551Y11657D1*
X25627D1*
X25665Y11638D1*
X25684Y11619D1*
X25704Y11581D1*
Y11543D1*
X25684Y11504D1*
X25646Y11447D1*
X25455Y11256D1*
X25723D1*
X26940Y15798D2*
X26902Y15779D1*
X26863Y15741D1*
X26844Y15703D1*
Y15626D1*
X26863Y15588D1*
X26902Y15550D1*
X26940Y15530D1*
X26997Y15511D1*
X27093D1*
X27150Y15530D1*
X27189Y15550D1*
X27227Y15588D1*
X27246Y15626D1*
Y15703D1*
X27227Y15741D1*
X27189Y15779D1*
X27150Y15798D1*
X26921Y15922D2*
X26902Y15960D1*
X26845Y16018D1*
X27246D1*
X26845Y16180D2*
Y16390D1*
X26998Y16275D1*
Y16333D1*
X27017Y16371D1*
X27036Y16390D1*
X27093Y16409D1*
X27131D1*
X27189Y16390D1*
X27227Y16352D1*
X27246Y16294D1*
Y16237D1*
X27227Y16180D1*
X27208Y16161D1*
X27170Y16141D1*
X26312Y15788D2*
X26274Y15769D1*
X26236Y15730D1*
X26217Y15692D1*
Y15616D1*
X26236Y15577D1*
X26274Y15539D1*
X26312Y15520D1*
X26370Y15501D1*
X26466D1*
X26523Y15520D1*
X26561Y15539D1*
X26599Y15577D1*
X26619Y15616D1*
Y15692D1*
X26599Y15730D1*
X26561Y15769D1*
X26523Y15788D1*
X26294Y15911D2*
X26274Y15950D1*
X26217Y16007D1*
X26619D1*
Y16322D2*
X26217D1*
X26485Y16131D1*
Y16418D1*
X4175Y18870D2*
X4577D1*
Y19004D1*
X4558Y19061D1*
X4520Y19100D1*
X4481Y19119D1*
X4424Y19138D1*
X4328D1*
X4271Y19119D1*
X4233Y19100D1*
X4194Y19061D1*
X4175Y19004D1*
Y18870D1*
X4252Y19261D2*
X4233Y19300D1*
X4176Y19357D1*
X4577D1*
X12677Y8659D2*
Y8257D1*
X12811D1*
X12869Y8276D1*
X12907Y8314D1*
X12926Y8353D1*
X12945Y8410D1*
Y8506D1*
X12926Y8563D1*
X12907Y8601D1*
X12869Y8640D1*
X12811Y8659D1*
X12677D1*
X13088Y8563D2*
Y8582D1*
X13107Y8620D1*
X13126Y8639D1*
X13165Y8658D1*
X13241D1*
X13279Y8639D1*
X13298Y8620D1*
X13318Y8582D1*
Y8544D1*
X13298Y8505D1*
X13260Y8448D1*
X13069Y8257D1*
X13337D1*
X18697Y16412D2*
X19099D1*
Y16546D1*
X19080Y16603D1*
X19042Y16642D1*
X19003Y16661D1*
X18946Y16680D1*
X18850D1*
X18793Y16661D1*
X18755Y16642D1*
X18716Y16603D1*
X18697Y16546D1*
Y16412D1*
X19099Y16995D2*
X18698D1*
X18965Y16803D1*
Y17090D1*
X9079Y14005D2*
Y13603D1*
X9489Y13910D2*
X9470Y13948D1*
X9432Y13986D1*
X9394Y14005D1*
X9317D1*
X9279Y13986D1*
X9241Y13948D1*
X9221Y13910D1*
X9202Y13852D1*
Y13756D1*
X9221Y13699D1*
X9241Y13661D1*
X9279Y13623D1*
X9317Y13603D1*
X9394D1*
X9432Y13623D1*
X9470Y13661D1*
X9489Y13699D1*
X9613Y13928D2*
X9651Y13948D1*
X9709Y14005D1*
Y13603D1*
X17365Y9618D2*
Y9216D1*
X17776Y9522D2*
X17757Y9560D1*
X17718Y9599D1*
X17680Y9618D1*
X17604D1*
X17565Y9599D1*
X17527Y9560D1*
X17508Y9522D1*
X17489Y9465D1*
Y9369D1*
X17508Y9312D1*
X17527Y9273D1*
X17565Y9235D1*
X17604Y9216D1*
X17680D1*
X17718Y9235D1*
X17757Y9273D1*
X17776Y9312D1*
X17919Y9522D2*
Y9541D1*
X17938Y9579D1*
X17957Y9598D1*
X17995Y9617D1*
X18072D1*
X18110Y9598D1*
X18129Y9579D1*
X18148Y9541D1*
Y9503D1*
X18129Y9465D1*
X18091Y9407D1*
X17899Y9216D1*
X18167D1*
X7812Y22979D2*
Y22673D1*
X7793Y22615D1*
X7773Y22596D1*
X7735Y22577D1*
X7697D1*
X7659Y22596D1*
X7640Y22615D1*
X7620Y22673D1*
Y22711D1*
X7935Y22902D2*
X7974Y22921D1*
X8031Y22978D1*
Y22577D1*
X15884Y22131D2*
Y21825D1*
X15865Y21768D1*
X15846Y21749D1*
X15808Y21729D1*
X15769D1*
X15731Y21749D1*
X15712Y21768D1*
X15693Y21825D1*
Y21863D1*
X16027Y22035D2*
Y22054D1*
X16046Y22093D1*
X16065Y22112D1*
X16104Y22131D1*
X16180D1*
X16218Y22112D1*
X16237Y22093D1*
X16257Y22054D1*
Y22016D1*
X16237Y21978D1*
X16199Y21921D1*
X16008Y21729D1*
X16276D1*
X22895Y23916D2*
Y23610D1*
X22876Y23552D1*
X22856Y23533D1*
X22818Y23514D1*
X22780D1*
X22742Y23533D1*
X22723Y23552D1*
X22703Y23610D1*
Y23648D1*
X23057Y23915D2*
X23267D1*
X23152Y23762D1*
X23210D1*
X23248Y23743D1*
X23267Y23724D1*
X23286Y23667D1*
Y23629D1*
X23267Y23571D1*
X23229Y23533D1*
X23171Y23514D1*
X23114D1*
X23057Y23533D1*
X23038Y23552D1*
X23018Y23590D1*
X34614Y24652D2*
Y24346D1*
X34595Y24288D1*
X34575Y24269D1*
X34537Y24250D1*
X34499D1*
X34461Y24269D1*
X34442Y24288D1*
X34422Y24346D1*
Y24384D1*
X34929Y24250D2*
Y24651D1*
X34737Y24384D1*
X35024D1*
X22164Y4463D2*
Y4157D1*
X22145Y4100D1*
X22125Y4081D1*
X22087Y4061D1*
X22049D1*
X22011Y4081D1*
X21992Y4100D1*
X21972Y4157D1*
Y4195D1*
X22517Y4463D2*
X22326D1*
X22307Y4291D1*
X22326Y4310D1*
X22383Y4329D1*
X22440D1*
X22498Y4310D1*
X22536Y4272D1*
X22555Y4214D1*
Y4176D1*
X22536Y4119D1*
X22498Y4080D1*
X22440Y4061D1*
X22383D1*
X22326Y4080D1*
X22307Y4100D1*
X22287Y4138D1*
X23494Y4431D2*
Y4125D1*
X23475Y4067D1*
X23455Y4048D1*
X23417Y4029D1*
X23379D1*
X23341Y4048D1*
X23322Y4067D1*
X23302Y4125D1*
Y4163D1*
X23751Y4431D2*
Y4029D1*
X23617Y4431D2*
X23885D1*
X24315Y4029D2*
X24162Y4431D1*
X24009Y4029D1*
X24066Y4163D2*
X24257D1*
X24725Y4335D2*
X24706Y4373D1*
X24668Y4412D1*
X24630Y4431D1*
X24553D1*
X24515Y4412D1*
X24477Y4373D1*
X24457Y4335D1*
X24438Y4278D1*
Y4182D1*
X24457Y4125D1*
X24477Y4086D1*
X24515Y4048D1*
X24553Y4029D1*
X24630D1*
X24668Y4048D1*
X24706Y4086D1*
X24725Y4125D1*
Y4182D1*
X24630D1*
X28474Y4460D2*
Y4154D1*
X28455Y4097D1*
X28436Y4078D1*
X28398Y4058D1*
X28359D1*
X28321Y4078D1*
X28302Y4097D1*
X28283Y4154D1*
Y4192D1*
X28827Y4403D2*
X28808Y4441D1*
X28751Y4460D1*
X28713D1*
X28655Y4441D1*
X28617Y4383D1*
X28598Y4288D1*
Y4192D1*
X28617Y4116D1*
X28655Y4077D1*
X28713Y4058D1*
X28732D1*
X28789Y4077D1*
X28827Y4116D1*
X28846Y4173D1*
Y4192D1*
X28827Y4250D1*
X28789Y4288D1*
X28732Y4307D1*
X28713D1*
X28655Y4288D1*
X28617Y4250D1*
X28598Y4192D1*
X29236Y4475D2*
Y4073D1*
X29627Y4417D2*
X29589Y4456D1*
X29532Y4475D1*
X29455D1*
X29398Y4456D1*
X29359Y4417D1*
Y4379D1*
X29379Y4341D1*
X29398Y4322D1*
X29436Y4303D1*
X29551Y4264D1*
X29589Y4245D1*
X29608Y4226D1*
X29627Y4188D1*
Y4130D1*
X29589Y4092D1*
X29532Y4073D1*
X29455D1*
X29398Y4092D1*
X29359Y4130D1*
X29751Y4264D2*
X29923D1*
X29980Y4283D1*
X30000Y4303D1*
X30019Y4341D1*
Y4398D1*
X30000Y4436D1*
X29980Y4456D1*
X29923Y4475D1*
X29751D1*
Y4073D1*
X36683Y8608D2*
X36989D1*
X37046Y8589D1*
X37065Y8570D1*
X37085Y8532D1*
Y8493D1*
X37065Y8455D1*
X37046Y8436D1*
X36989Y8417D1*
X36951D1*
X37085Y8808D2*
X36683Y9000D1*
Y8732D1*
X36879Y9584D2*
Y9756D1*
X36860Y9813D1*
X36840Y9833D1*
X36802Y9852D1*
X36745D1*
X36707Y9833D1*
X36687Y9813D1*
X36668Y9756D1*
Y9584D1*
X37070D1*
X36802Y10205D2*
X37070D1*
X36860D2*
X36821Y10167D1*
X36802Y10128D1*
Y10071D1*
X36821Y10033D1*
X36860Y9995D1*
X36917Y9975D1*
X36955D1*
X37013Y9995D1*
X37051Y10033D1*
X37070Y10071D1*
Y10128D1*
X37051Y10167D1*
X37013Y10205D1*
X36802Y10328D2*
X37070D1*
X36879D2*
X36821Y10386D1*
X36802Y10424D1*
Y10481D1*
X36821Y10520D1*
X36879Y10539D1*
X37070D1*
X36917Y10662D2*
Y10892D1*
X36879D1*
X36840Y10873D1*
X36821Y10854D1*
X36802Y10815D1*
Y10758D1*
X36821Y10720D1*
X36860Y10681D1*
X36917Y10662D1*
X36955D1*
X37013Y10681D1*
X37051Y10720D1*
X37070Y10758D1*
Y10815D1*
X37051Y10854D1*
X37013Y10892D1*
X36668Y11015D2*
X37070D1*
X5900Y12338D2*
Y11936D1*
X6130D1*
X6253Y12261D2*
X6291Y12280D1*
X6349Y12337D1*
Y11936D1*
X9274Y8331D2*
X9446D1*
X9503Y8350D1*
X9523Y8369D1*
X9542Y8407D1*
Y8446D1*
X9523Y8484D1*
X9503Y8503D1*
X9446Y8522D1*
X9274D1*
Y8120D1*
X9408Y8331D2*
X9542Y8120D1*
X9665Y8445D2*
X9704Y8465D1*
X9761Y8522D1*
Y8120D1*
X10731Y9189D2*
X10903D1*
X10961Y9208D1*
X10980Y9227D1*
X10999Y9265D1*
Y9304D1*
X10980Y9342D1*
X10961Y9361D1*
X10903Y9380D1*
X10731D1*
Y8978D1*
X10865Y9189D2*
X10999Y8978D1*
X11142Y9284D2*
Y9303D1*
X11161Y9342D1*
X11180Y9361D1*
X11219Y9380D1*
X11295D1*
X11333Y9361D1*
X11352Y9342D1*
X11372Y9303D1*
Y9265D1*
X11352Y9227D1*
X11314Y9170D1*
X11123Y8978D1*
X11391D1*
X18938Y14671D2*
Y14843D1*
X18918Y14900D1*
X18899Y14920D1*
X18861Y14939D1*
X18823D1*
X18785Y14920D1*
X18765Y14900D1*
X18746Y14843D1*
Y14671D1*
X19148D1*
X18938Y14805D2*
X19148Y14939D1*
X18747Y15101D2*
Y15311D1*
X18900Y15196D1*
Y15254D1*
X18919Y15292D1*
X18938Y15311D1*
X18995Y15330D1*
X19033D1*
X19091Y15311D1*
X19129Y15273D1*
X19148Y15215D1*
Y15158D1*
X19129Y15101D1*
X19110Y15082D1*
X19072Y15062D1*
X17936Y13785D2*
Y13957D1*
X17917Y14015D1*
X17898Y14034D1*
X17860Y14053D1*
X17821D1*
X17783Y14034D1*
X17764Y14015D1*
X17745Y13957D1*
Y13785D1*
X18147D1*
X17936Y13919D2*
X18147Y14053D1*
Y14368D2*
X17745D1*
X18013Y14177D1*
Y14464D1*
X16874Y13795D2*
Y13967D1*
X16854Y14024D1*
X16835Y14044D1*
X16797Y14063D1*
X16759D1*
X16721Y14044D1*
X16701Y14024D1*
X16682Y13967D1*
Y13795D1*
X17084D1*
X16874Y13929D2*
X17084Y14063D1*
X16683Y14416D2*
Y14225D1*
X16855Y14206D1*
X16836Y14225D1*
X16816Y14282D1*
Y14339D1*
X16836Y14397D1*
X16874Y14435D1*
X16931Y14454D1*
X16969D1*
X17027Y14435D1*
X17065Y14397D1*
X17084Y14339D1*
Y14282D1*
X17065Y14225D1*
X17046Y14206D1*
X17008Y14186D1*
X11868Y15939D2*
X12040D1*
X12097Y15958D1*
X12117Y15978D1*
X12136Y16016D1*
Y16054D1*
X12117Y16092D1*
X12097Y16111D1*
X12040Y16130D1*
X11868D1*
Y15729D1*
X12002Y15939D2*
X12136Y15729D1*
X12489Y16073D2*
X12470Y16111D1*
X12412Y16130D1*
X12374D1*
X12317Y16111D1*
X12278Y16054D1*
X12259Y15958D1*
Y15863D1*
X12278Y15786D1*
X12317Y15748D1*
X12374Y15729D1*
X12393D1*
X12450Y15748D1*
X12489Y15786D1*
X12508Y15844D1*
Y15863D1*
X12489Y15920D1*
X12450Y15958D1*
X12393Y15977D1*
X12374D1*
X12317Y15958D1*
X12278Y15920D1*
X12259Y15863D1*
X11919Y17127D2*
X12091D1*
X12148Y17146D1*
X12168Y17165D1*
X12187Y17203D1*
Y17242D1*
X12168Y17280D1*
X12148Y17299D1*
X12091Y17318D1*
X11919D1*
Y16916D1*
X12053Y17127D2*
X12187Y16916D1*
X12387D2*
X12578Y17318D1*
X12310D1*
X16982Y17752D2*
X17154D1*
X17211Y17771D1*
X17230Y17790D1*
X17249Y17828D1*
Y17867D1*
X17230Y17905D1*
X17211Y17924D1*
X17154Y17943D1*
X16982D1*
Y17541D1*
X17116Y17752D2*
X17249Y17541D1*
X17469Y17943D2*
X17411Y17924D1*
X17392Y17886D1*
Y17847D1*
X17411Y17809D1*
X17449Y17790D1*
X17526Y17771D1*
X17583Y17752D1*
X17621Y17713D1*
X17641Y17675D1*
Y17618D1*
X17621Y17580D1*
X17602Y17560D1*
X17545Y17541D1*
X17469D1*
X17411Y17560D1*
X17392Y17580D1*
X17373Y17618D1*
Y17675D1*
X17392Y17713D1*
X17430Y17752D1*
X17488Y17771D1*
X17564Y17790D1*
X17602Y17809D1*
X17621Y17847D1*
Y17886D1*
X17602Y17924D1*
X17545Y17943D1*
X17469D1*
X19936Y7064D2*
X20108D1*
X20165Y7084D1*
X20185Y7103D1*
X20204Y7141D1*
Y7179D1*
X20185Y7217D1*
X20165Y7237D1*
X20108Y7256D1*
X19936D1*
Y6854D1*
X20070Y7064D2*
X20204Y6854D1*
X20327Y7179D2*
X20366Y7198D1*
X20423Y7255D1*
Y6854D1*
X20662Y7255D2*
X20604Y7236D1*
X20566Y7179D1*
X20547Y7083D1*
Y7026D1*
X20566Y6930D1*
X20604Y6873D1*
X20662Y6854D1*
X20700D1*
X20757Y6873D1*
X20795Y6930D1*
X20815Y7026D1*
Y7083D1*
X20795Y7179D1*
X20757Y7236D1*
X20700Y7255D1*
X20662D1*
X20795Y7179D2*
X20566Y6930D1*
X22351Y17080D2*
X22523D1*
X22580Y17100D1*
X22600Y17119D1*
X22619Y17157D1*
Y17195D1*
X22600Y17233D1*
X22580Y17253D1*
X22523Y17272D1*
X22351D1*
Y16870D1*
X22485Y17080D2*
X22619Y16870D1*
X22742Y17195D2*
X22781Y17214D1*
X22838Y17271D1*
Y16870D1*
X22962Y17195D2*
X23000Y17214D1*
X23058Y17271D1*
Y16870D1*
X23452Y17080D2*
X23624D1*
X23682Y17100D1*
X23701Y17119D1*
X23720Y17157D1*
Y17195D1*
X23701Y17233D1*
X23682Y17253D1*
X23624Y17272D1*
X23452D1*
Y16870D1*
X23586Y17080D2*
X23720Y16870D1*
X23844Y17195D2*
X23882Y17214D1*
X23940Y17271D1*
Y16870D1*
X24083Y17176D2*
Y17195D1*
X24102Y17233D1*
X24121Y17252D1*
X24159Y17271D1*
X24236D1*
X24274Y17252D1*
X24293Y17233D1*
X24312Y17195D1*
Y17157D1*
X24293Y17118D1*
X24255Y17061D1*
X24063Y16870D1*
X24331D1*
X20998Y20503D2*
X21170D1*
X21227Y20522D1*
X21247Y20541D1*
X21266Y20579D1*
Y20618D1*
X21247Y20656D1*
X21227Y20675D1*
X21170Y20694D1*
X20998D1*
Y20292D1*
X21132Y20503D2*
X21266Y20292D1*
X21389Y20617D2*
X21428Y20637D1*
X21485Y20694D1*
Y20292D1*
X21647Y20694D2*
X21857D1*
X21742Y20541D1*
X21800D1*
X21838Y20522D1*
X21857Y20503D1*
X21876Y20445D1*
Y20407D1*
X21857Y20350D1*
X21819Y20311D1*
X21761Y20292D1*
X21704D1*
X21647Y20311D1*
X21628Y20331D1*
X21608Y20369D1*
X20987Y16564D2*
X21159D1*
X21217Y16583D1*
X21236Y16602D1*
X21255Y16640D1*
Y16679D1*
X21236Y16717D1*
X21217Y16736D1*
X21159Y16755D1*
X20987D1*
Y16354D1*
X21121Y16564D2*
X21255Y16354D1*
X21379Y16678D2*
X21417Y16698D1*
X21474Y16755D1*
Y16354D1*
X21789D2*
Y16755D1*
X21598Y16487D1*
X21885D1*
X25946Y24436D2*
X26118D1*
X26176Y24455D1*
X26195Y24474D1*
X26214Y24512D1*
Y24551D1*
X26195Y24589D1*
X26176Y24608D1*
X26118Y24627D1*
X25946D1*
Y24225D1*
X26080Y24436D2*
X26214Y24225D1*
X26338Y24550D2*
X26376Y24570D1*
X26434Y24627D1*
Y24225D1*
X26787Y24627D2*
X26596D1*
X26577Y24455D1*
X26596Y24474D1*
X26653Y24493D1*
X26710D1*
X26768Y24474D1*
X26806Y24436D1*
X26825Y24378D1*
Y24340D1*
X26806Y24283D1*
X26768Y24244D1*
X26710Y24225D1*
X26653D1*
X26596Y24244D1*
X26577Y24264D1*
X26557Y24302D1*
X25310Y19133D2*
Y19305D1*
X25291Y19363D1*
X25272Y19382D1*
X25234Y19401D1*
X25195D1*
X25157Y19382D1*
X25138Y19363D1*
X25119Y19305D1*
Y19133D1*
X25521D1*
X25310Y19267D2*
X25521Y19401D1*
X25196Y19525D2*
X25176Y19563D1*
X25119Y19621D1*
X25521D1*
X25176Y19974D2*
X25138Y19955D1*
X25119Y19897D1*
Y19859D1*
X25138Y19802D1*
X25196Y19763D1*
X25291Y19744D1*
X25387D1*
X25463Y19763D1*
X25502Y19802D1*
X25521Y19859D1*
Y19878D1*
X25502Y19935D1*
X25463Y19974D1*
X25406Y19993D1*
X25387D1*
X25329Y19974D1*
X25291Y19935D1*
X25272Y19878D1*
Y19859D1*
X25291Y19802D1*
X25329Y19763D1*
X25387Y19744D1*
X24498Y17813D2*
X24670D1*
X24727Y17832D1*
X24747Y17851D1*
X24766Y17889D1*
Y17928D1*
X24747Y17966D1*
X24727Y17985D1*
X24670Y18004D1*
X24498D1*
Y17603D1*
X24632Y17813D2*
X24766Y17603D1*
X24889Y17927D2*
X24928Y17947D1*
X24985Y18004D1*
Y17603D1*
X25185D2*
X25376Y18004D1*
X25108D1*
X29001Y6939D2*
X29173D1*
X29231Y6959D1*
X29250Y6978D1*
X29269Y7016D1*
Y7054D1*
X29250Y7092D1*
X29231Y7112D1*
X29173Y7131D1*
X29001D1*
Y6729D1*
X29135Y6939D2*
X29269Y6729D1*
X29393Y7054D2*
X29431Y7073D1*
X29489Y7130D1*
Y6729D1*
X29708Y7130D2*
X29651Y7111D1*
X29631Y7073D1*
Y7035D1*
X29651Y6997D1*
X29689Y6977D1*
X29765Y6958D1*
X29823Y6939D1*
X29861Y6901D1*
X29880Y6863D1*
Y6805D1*
X29861Y6767D1*
X29842Y6748D1*
X29784Y6729D1*
X29708D1*
X29651Y6748D1*
X29631Y6767D1*
X29612Y6805D1*
Y6863D1*
X29631Y6901D1*
X29670Y6939D1*
X29727Y6958D1*
X29803Y6977D1*
X29842Y6997D1*
X29861Y7035D1*
Y7073D1*
X29842Y7111D1*
X29784Y7130D1*
X29708D1*
X27215Y6957D2*
X27387D1*
X27445Y6976D1*
X27464Y6995D1*
X27483Y7033D1*
Y7072D1*
X27464Y7110D1*
X27445Y7129D1*
X27387Y7148D1*
X27215D1*
Y6746D1*
X27349Y6957D2*
X27483Y6746D1*
X27607Y7071D2*
X27645Y7091D1*
X27703Y7148D1*
Y6746D1*
X28075Y7014D2*
X28056Y6957D1*
X28018Y6918D1*
X27960Y6899D1*
X27941D1*
X27884Y6918D1*
X27846Y6957D1*
X27826Y7014D1*
Y7033D1*
X27846Y7091D1*
X27884Y7129D1*
X27941Y7148D1*
X27960D1*
X28018Y7129D1*
X28056Y7091D1*
X28075Y7014D1*
Y6918D1*
X28056Y6823D1*
X28018Y6765D1*
X27960Y6746D1*
X27922D1*
X27865Y6765D1*
X27846Y6804D1*
X30375Y16789D2*
Y16961D1*
X30356Y17018D1*
X30337Y17038D1*
X30299Y17057D1*
X30260D1*
X30222Y17038D1*
X30203Y17018D1*
X30184Y16961D1*
Y16789D1*
X30586D1*
X30375Y16923D2*
X30586Y17057D1*
X30280Y17200D2*
X30261D1*
X30222Y17219D1*
X30203Y17238D1*
X30184Y17276D1*
Y17353D1*
X30203Y17391D1*
X30222Y17410D1*
X30261Y17429D1*
X30299D1*
X30337Y17410D1*
X30394Y17372D1*
X30586Y17180D1*
Y17448D1*
X30184Y17687D2*
X30203Y17629D1*
X30261Y17591D1*
X30356Y17572D1*
X30414D1*
X30509Y17591D1*
X30567Y17629D1*
X30586Y17687D1*
Y17725D1*
X30567Y17782D1*
X30509Y17820D1*
X30414Y17840D1*
X30356D1*
X30261Y17820D1*
X30203Y17782D1*
X30184Y17725D1*
Y17687D1*
X30261Y17820D2*
X30509Y17591D1*
X31125Y16812D2*
Y16984D1*
X31106Y17042D1*
X31087Y17061D1*
X31049Y17080D1*
X31010D1*
X30972Y17061D1*
X30953Y17042D1*
X30934Y16984D1*
Y16812D1*
X31336D1*
X31125Y16946D2*
X31336Y17080D1*
X31030Y17223D2*
X31011D1*
X30972Y17242D1*
X30953Y17261D1*
X30934Y17300D1*
Y17376D1*
X30953Y17414D1*
X30972Y17433D1*
X31011Y17453D1*
X31049D1*
X31087Y17433D1*
X31144Y17395D1*
X31336Y17204D1*
Y17472D1*
X31011Y17595D2*
X30991Y17634D1*
X30934Y17691D1*
X31336D1*
X36438Y18164D2*
Y18336D1*
X36419Y18394D1*
X36400Y18413D1*
X36362Y18432D1*
X36323D1*
X36285Y18413D1*
X36266Y18394D1*
X36247Y18336D1*
Y18164D1*
X36649D1*
X36438Y18298D2*
X36649Y18432D1*
X36343Y18575D2*
X36324D1*
X36285Y18594D1*
X36266Y18613D1*
X36247Y18652D1*
Y18728D1*
X36266Y18766D1*
X36285Y18785D1*
X36324Y18805D1*
X36362D1*
X36400Y18785D1*
X36457Y18747D1*
X36649Y18556D1*
Y18824D1*
X36343Y18967D2*
X36324D1*
X36285Y18986D1*
X36266Y19005D1*
X36247Y19043D1*
Y19120D1*
X36266Y19158D1*
X36285Y19177D1*
X36324Y19196D1*
X36362D1*
X36400Y19177D1*
X36457Y19139D1*
X36649Y18947D1*
Y19215D1*
X34938Y16789D2*
Y16961D1*
X34919Y17018D1*
X34900Y17038D1*
X34862Y17057D1*
X34823D1*
X34785Y17038D1*
X34766Y17018D1*
X34747Y16961D1*
Y16789D1*
X35149D1*
X34938Y16923D2*
X35149Y17057D1*
X34843Y17200D2*
X34824D1*
X34785Y17219D1*
X34766Y17238D1*
X34747Y17276D1*
Y17353D1*
X34766Y17391D1*
X34785Y17410D1*
X34824Y17429D1*
X34862D1*
X34900Y17410D1*
X34957Y17372D1*
X35149Y17180D1*
Y17448D1*
X34747Y17610D2*
Y17820D1*
X34900Y17706D1*
Y17763D1*
X34919Y17801D1*
X34938Y17820D1*
X34996Y17840D1*
X35034D1*
X35091Y17820D1*
X35130Y17782D1*
X35149Y17725D1*
Y17667D1*
X35130Y17610D1*
X35110Y17591D1*
X35072Y17572D1*
X28750Y16842D2*
Y17014D1*
X28731Y17071D1*
X28712Y17091D1*
X28674Y17110D1*
X28635D1*
X28597Y17091D1*
X28578Y17071D1*
X28559Y17014D1*
Y16842D1*
X28961D1*
X28750Y16976D2*
X28961Y17110D1*
X28655Y17253D2*
X28636D1*
X28597Y17272D1*
X28578Y17291D1*
X28559Y17329D1*
Y17406D1*
X28578Y17444D1*
X28597Y17463D1*
X28636Y17482D1*
X28674D1*
X28712Y17463D1*
X28769Y17425D1*
X28961Y17233D1*
Y17501D1*
Y17816D2*
X28559D1*
X28827Y17625D1*
Y17912D1*
X29563Y16789D2*
Y16961D1*
X29543Y17018D1*
X29524Y17038D1*
X29486Y17057D1*
X29448D1*
X29410Y17038D1*
X29390Y17018D1*
X29371Y16961D1*
Y16789D1*
X29773D1*
X29563Y16923D2*
X29773Y17057D1*
X29467Y17200D2*
X29448D1*
X29410Y17219D1*
X29391Y17238D1*
X29372Y17276D1*
Y17353D1*
X29391Y17391D1*
X29410Y17410D1*
X29448Y17429D1*
X29486D1*
X29525Y17410D1*
X29582Y17372D1*
X29773Y17180D1*
Y17448D1*
X29372Y17801D2*
Y17610D1*
X29544Y17591D1*
X29525Y17610D1*
X29505Y17668D1*
Y17725D1*
X29525Y17782D1*
X29563Y17821D1*
X29620Y17840D1*
X29658D1*
X29716Y17821D1*
X29754Y17782D1*
X29773Y17725D1*
Y17668D1*
X29754Y17610D1*
X29735Y17591D1*
X29697Y17572D1*
X34126Y16799D2*
Y16971D1*
X34106Y17028D1*
X34087Y17048D1*
X34049Y17067D1*
X34011D1*
X33973Y17048D1*
X33953Y17028D1*
X33934Y16971D1*
Y16799D1*
X34336D1*
X34126Y16933D2*
X34336Y17067D1*
X34030Y17210D2*
X34011D1*
X33973Y17229D1*
X33954Y17248D1*
X33935Y17286D1*
Y17363D1*
X33954Y17401D1*
X33973Y17420D1*
X34011Y17439D1*
X34049D1*
X34088Y17420D1*
X34145Y17382D1*
X34336Y17190D1*
Y17458D1*
X33992Y17811D2*
X33954Y17792D1*
X33935Y17735D1*
Y17697D1*
X33954Y17639D1*
X34011Y17601D1*
X34107Y17582D1*
X34202D1*
X34279Y17601D1*
X34317Y17639D1*
X34336Y17697D1*
Y17716D1*
X34317Y17773D1*
X34279Y17811D1*
X34221Y17830D1*
X34202D1*
X34145Y17811D1*
X34107Y17773D1*
X34088Y17716D1*
Y17697D1*
X34107Y17639D1*
X34145Y17601D1*
X34202Y17582D1*
X33313Y16789D2*
Y16961D1*
X33294Y17018D1*
X33275Y17038D1*
X33237Y17057D1*
X33198D1*
X33160Y17038D1*
X33141Y17018D1*
X33122Y16961D1*
Y16789D1*
X33524D1*
X33313Y16923D2*
X33524Y17057D1*
X33218Y17200D2*
X33199D1*
X33160Y17219D1*
X33141Y17238D1*
X33122Y17276D1*
Y17353D1*
X33141Y17391D1*
X33160Y17410D1*
X33199Y17429D1*
X33237D1*
X33275Y17410D1*
X33332Y17372D1*
X33524Y17180D1*
Y17448D1*
Y17648D2*
X33122Y17840D1*
Y17572D1*
X31938Y16727D2*
Y16899D1*
X31918Y16956D1*
X31899Y16976D1*
X31861Y16995D1*
X31823D1*
X31785Y16976D1*
X31765Y16956D1*
X31746Y16899D1*
Y16727D1*
X32148D1*
X31938Y16861D2*
X32148Y16995D1*
X31842Y17138D2*
X31823D1*
X31785Y17157D1*
X31766Y17176D1*
X31747Y17214D1*
Y17291D1*
X31766Y17329D1*
X31785Y17348D1*
X31823Y17367D1*
X31861D1*
X31900Y17348D1*
X31957Y17310D1*
X32148Y17118D1*
Y17386D1*
X31747Y17605D2*
X31766Y17548D1*
X31804Y17529D1*
X31842D1*
X31880Y17548D1*
X31900Y17586D1*
X31919Y17663D1*
X31938Y17720D1*
X31976Y17758D1*
X32014Y17777D1*
X32072D1*
X32110Y17758D1*
X32129Y17739D1*
X32148Y17682D1*
Y17605D1*
X32129Y17548D1*
X32110Y17529D1*
X32072Y17510D1*
X32014D1*
X31976Y17529D1*
X31938Y17567D1*
X31919Y17624D1*
X31900Y17701D1*
X31880Y17739D1*
X31842Y17758D1*
X31804D1*
X31766Y17739D1*
X31747Y17682D1*
Y17605D1*
X6896Y16028D2*
X6858Y16066D1*
X6800Y16085D1*
X6724D1*
X6666Y16066D1*
X6628Y16028D1*
Y15990D1*
X6647Y15951D1*
X6666Y15932D1*
X6704Y15913D1*
X6819Y15875D1*
X6858Y15856D1*
X6877Y15836D1*
X6896Y15798D1*
Y15741D1*
X6858Y15703D1*
X6800Y15683D1*
X6724D1*
X6666Y15703D1*
X6628Y15741D1*
X7019Y16085D2*
X7115Y15683D1*
X7211Y16085D1*
X7306Y15683D1*
X7402Y16085D1*
X7526Y16008D2*
X7564Y16028D1*
X7621Y16085D1*
Y15683D1*
X14446Y14737D2*
Y14335D1*
X14312Y14737D2*
X14580D1*
X14703Y14660D2*
X14742Y14680D1*
X14799Y14737D1*
Y14335D1*
X15935Y18158D2*
Y17756D1*
X15801Y18158D2*
X16069D1*
X16212Y18062D2*
Y18081D1*
X16231Y18120D1*
X16250Y18139D1*
X16289Y18158D1*
X16365D1*
X16403Y18139D1*
X16422Y18120D1*
X16442Y18081D1*
Y18043D1*
X16422Y18005D1*
X16384Y17948D1*
X16193Y17756D1*
X16461D1*
X20470Y19354D2*
Y18953D1*
X20336Y19354D2*
X20604D1*
X20766D2*
X20976D1*
X20862Y19201D1*
X20919D1*
X20957Y19182D1*
X20976Y19163D1*
X20996Y19106D1*
Y19067D1*
X20976Y19010D1*
X20938Y18972D1*
X20881Y18953D1*
X20823D1*
X20766Y18972D1*
X20747Y18991D1*
X20728Y19029D1*
X23165Y16386D2*
Y16100D1*
X23184Y16042D1*
X23222Y16004D1*
X23280Y15985D1*
X23318D1*
X23375Y16004D1*
X23414Y16042D1*
X23433Y16100D1*
Y16386D1*
X23556Y16310D2*
X23595Y16329D1*
X23652Y16386D1*
Y15985D1*
X28118Y15272D2*
X28386Y14870D1*
Y15272D2*
X28118Y14870D1*
X28510Y15195D2*
X28548Y15215D1*
X28606Y15272D1*
Y14870D1*
X8183Y5115D2*
D147*
X8145Y5191D1*
X8068Y5267D1*
X7992Y5306D1*
X7839D1*
X7762Y5267D1*
X7686Y5191D1*
X7647Y5115D1*
X7609Y5000D1*
Y4808D1*
X7647Y4694D1*
X7686Y4617D1*
X7762Y4541D1*
X7839Y4502D1*
X7992D1*
X8068Y4541D1*
X8145Y4617D1*
X8183Y4694D1*
X8621Y5038D2*
X8545Y5000D1*
X8468Y4923D1*
X8430Y4808D1*
Y4732D1*
X8468Y4617D1*
X8545Y4541D1*
X8621Y4502D1*
X8736D1*
X8813Y4541D1*
X8889Y4617D1*
X8928Y4732D1*
Y4808D1*
X8889Y4923D1*
X8813Y5000D1*
X8736Y5038D1*
X8621D1*
X9634Y5306D2*
Y4502D1*
Y4923D2*
X9558Y5000D1*
X9481Y5038D1*
X9366D1*
X9290Y5000D1*
X9213Y4923D1*
X9175Y4808D1*
Y4732D1*
X9213Y4617D1*
X9290Y4541D1*
X9366Y4502D1*
X9481D1*
X9558Y4541D1*
X9634Y4617D1*
X9881Y4808D2*
X10340D1*
Y4885D1*
X10302Y4962D1*
X10264Y5000D1*
X10187Y5038D1*
X10072D1*
X9996Y5000D1*
X9919Y4923D1*
X9881Y4808D1*
Y4732D1*
X9919Y4617D1*
X9996Y4541D1*
X10072Y4502D1*
X10187D1*
X10264Y4541D1*
X10340Y4617D1*
X11365Y4885D2*
X11710D1*
X11824Y4923D1*
X11863Y4962D1*
X11901Y5038D1*
Y5153D1*
X11863Y5229D1*
X11824Y5267D1*
X11710Y5306D1*
X11365D1*
Y4502D1*
X12607Y5038D2*
Y4502D1*
Y4923D2*
X12531Y5000D1*
X12454Y5038D1*
X12340D1*
X12263Y5000D1*
X12187Y4923D1*
X12148Y4808D1*
Y4732D1*
X12187Y4617D1*
X12263Y4541D1*
X12340Y4502D1*
X12454D1*
X12531Y4541D1*
X12607Y4617D1*
X12854Y5306D2*
X12892Y5267D1*
X12931Y5306D1*
X12892Y5344D1*
X12854Y5306D1*
X12892Y5038D2*
Y4502D1*
X13178Y5038D2*
Y4502D1*
Y4885D2*
X13293Y5000D1*
X13370Y5038D1*
X13484D1*
X13561Y5000D1*
X13599Y4885D1*
Y4502D1*
X13961Y5306D2*
Y4655D1*
X13999Y4541D1*
X14076Y4502D1*
X14152D1*
X13846Y5038D2*
X14114D1*
X14399Y4808D2*
X14858D1*
Y4885D1*
X14820Y4962D1*
X14782Y5000D1*
X14705Y5038D1*
X14590D1*
X14514Y5000D1*
X14437Y4923D1*
X14399Y4808D1*
Y4732D1*
X14437Y4617D1*
X14514Y4541D1*
X14590Y4502D1*
X14705D1*
X14782Y4541D1*
X14858Y4617D1*
X15105Y5038D2*
Y4502D1*
Y4808D2*
X15144Y4923D1*
X15220Y5000D1*
X15297Y5038D1*
X15412D1*
X16080Y4923D2*
X16042Y5000D1*
X15927Y5038D1*
X15812D1*
X15697Y5000D1*
X15659Y4923D1*
X15697Y4847D1*
X15774Y4808D1*
X15965Y4770D1*
X16042Y4732D1*
X16080Y4655D1*
Y4617D1*
X16042Y4541D1*
X15927Y4502D1*
X15812D1*
X15697Y4541D1*
X15659Y4617D1*
X7545Y6931D2*
X7047D1*
Y6127D1*
Y6548D2*
X7353D1*
X7792Y6931D2*
Y6127D1*
X8060D1*
X8175Y6166D1*
X8252Y6242D1*
X8290Y6319D1*
X8328Y6433D1*
Y6625D1*
X8290Y6740D1*
X8252Y6816D1*
X8175Y6893D1*
X8060Y6931D1*
X7792D1*
X8575Y6528D2*
X9017D1*
X9264Y6777D2*
X9341Y6816D1*
X9456Y6930D1*
Y6127D1*
X10480Y6663D2*
Y6127D1*
Y6510D2*
X10595Y6625D1*
X10672Y6663D1*
X10786D1*
X10863Y6625D1*
X10901Y6510D1*
Y6127D1*
Y6510D2*
X11016Y6625D1*
X11093Y6663D1*
X11207D1*
X11284Y6625D1*
X11323Y6510D1*
Y6127D1*
X11570Y6931D2*
Y6127D1*
Y6548D2*
X11647Y6625D1*
X11723Y6663D1*
X11838D1*
X11914Y6625D1*
X11991Y6548D1*
X12029Y6433D1*
Y6357D1*
X11991Y6242D1*
X11914Y6166D1*
X11838Y6127D1*
X11723D1*
X11647Y6166D1*
X11570Y6242D1*
X12467Y6663D2*
X12391Y6625D1*
X12314Y6548D1*
X12276Y6433D1*
Y6357D1*
X12314Y6242D1*
X12391Y6166D1*
X12467Y6127D1*
X12582D1*
X12659Y6166D1*
X12735Y6242D1*
X12774Y6357D1*
Y6433D1*
X12735Y6548D1*
X12659Y6625D1*
X12582Y6663D1*
X12467D1*
X13480D2*
Y6127D1*
Y6548D2*
X13404Y6625D1*
X13327Y6663D1*
X13213D1*
X13136Y6625D1*
X13060Y6548D1*
X13021Y6433D1*
Y6357D1*
X13060Y6242D1*
X13136Y6166D1*
X13213Y6127D1*
X13327D1*
X13404Y6166D1*
X13480Y6242D1*
X13727Y6663D2*
Y6127D1*
Y6433D2*
X13766Y6548D1*
X13842Y6625D1*
X13919Y6663D1*
X14034D1*
X14740Y6931D2*
Y6127D1*
Y6548D2*
X14664Y6625D1*
X14587Y6663D1*
X14472D1*
X14396Y6625D1*
X14319Y6548D1*
X14281Y6433D1*
Y6357D1*
X14319Y6242D1*
X14396Y6166D1*
X14472Y6127D1*
X14587D1*
X14664Y6166D1*
X14740Y6242D1*
X15765Y6663D2*
X15994Y6127D1*
X16224Y6663D1*
X16471Y6777D2*
X16547Y6816D1*
X16662Y6930D1*
Y6127D1*
X16948Y6204D2*
X16909Y6165D1*
X16948Y6127D1*
X16986Y6165D1*
X16948Y6204D1*
X17463Y6930D2*
X17348Y6892D1*
X17271Y6777D1*
X17233Y6586D1*
Y6471D1*
X17271Y6280D1*
X17348Y6165D1*
X17463Y6127D1*
X17539D1*
X17654Y6165D1*
X17730Y6280D1*
X17769Y6471D1*
Y6586D1*
X17730Y6777D1*
X17654Y6892D1*
X17539Y6930D1*
X17463D1*
X17730Y6777D2*
X17271Y6280D1*
M02*
