M48
METRIC,0000.00
T01C0.6
T02C0.7
T03C0.8
T04C0.9
T05C1.2
T06C2.6
T07C3.2
%
T01
X+004398Y+003842
X+004207Y+003858
X+004398Y+003604
X+004430Y+003001
X+004303Y+002874
X+004207Y+002748
X+003953Y+003001
X+003699Y+002874
X+003366Y+002748
X+003636Y+003858
T02
X+001763Y+004080
X+002017Y+004080
X+002017Y+003318
X+001763Y+003318
X+001763Y+002556
X+002017Y+002556
X+002207Y+002238
X+002715Y+002683
X+003032Y+002683
X+003000Y+002238
X+002921Y+001778
X+003159Y+001778
X+002921Y+001460
X+003159Y+001111
X+005191Y+001365
X+005191Y+001867
X+005636Y+001858
X+006112Y+002270
X+006350Y+002667
X+005858Y+002667
X+005636Y+002874
X+006843Y+002270
T03
X+005858Y+001381
X+006108Y+001381
T04
X+003239Y+004080
X+003493Y+004080
X+003747Y+004080
X+004001Y+004080
X+004255Y+004080
X+004509Y+004080
X+004763Y+004080
X+005017Y+004080
X+005271Y+004080
X+005271Y+002556
X+005017Y+002556
X+004763Y+002556
X+004509Y+002556
X+004255Y+002556
X+004001Y+002556
X+003747Y+002556
X+003493Y+002556
X+003239Y+002556
X+003763Y+001867
X+003763Y+001667
X+003963Y+001667
X+003963Y+001867
X+004163Y+001867
X+004163Y+001667
X+004363Y+001667
X+004363Y+001867
X+004563Y+001867
X+004563Y+001667
T05
X+006604Y+002556
X+006854Y+002556
X+007104Y+002556
X+007104Y+004006
X+006604Y+004006
T06
X+006404Y+003306
X+007304Y+003306
T07
X+001286Y+004239
X+001286Y+001350
X+007563Y+001350
X+007563Y+004239
T00
M30
