G04 ================== begin FILE IDENTIFICATION RECORD ==================*
G04 Layout Name:  C:/Cadwork/CircuitCo_MinnowMAX_RevA1/MinnowMax_RevA1.brd*
G04 Film Name:    MinnowMax_spc*
G04 File Format:  Gerber RS274X*
G04 File Origin:  Cadence Allegro 16.6-S026*
G04 Origin Date:  Fri May 02 14:12:16 2014*
G04 *
G04 Layer:  PACKAGE GEOMETRY/PASTEMASK_TOP*
G04 Layer:  BOARD GEOMETRY/TOOLING_CORNERS*
G04 Layer:  USER PART NUMBER/DISPLAY_TOP*
G04 Layer:  PIN/PASTEMASK_TOP*
G04 Layer:  DRAWING FORMAT/TITLE_BLOCK*
G04 *
G04 Offset:    (0.0000 0.0000)*
G04 Mirror:    No*
G04 Mode:      Positive*
G04 Rotation:  0*
G04 FullContactRelief:  No*
G04 UndefLineWidth:     5.0000*
G04 ================== end FILE IDENTIFICATION RECORD ====================*
%FSLAX45Y45*MOIN*%
%IR0*IPPOS*OFA0.00000B0.00000*MIA0B0*SFA1.00000B1.00000*%
%ADD24O,.032X.008*%
%ADD44C,.01*%
%ADD40C,.011*%
%ADD39C,.012*%
%ADD29C,.03*%
%ADD43C,.013*%
%ADD15C,.04*%
%ADD37C,.014*%
%ADD38C,.016*%
%ADD12R,.04X.04*%
%ADD14R,.03346X.00906*%
%ADD13R,.03937X.00906*%
%ADD20R,.09843X.1378*%
%ADD25R,.00787X.02657*%
%ADD47R,.02X.012*%
%ADD23O,.01X.051*%
%ADD41O,.0135X.01*%
%ADD42O,.01X.0135*%
%ADD28R,.04X.04*%
%ADD27R,.03X.04*%
%ADD48R,.035X.02*%
%ADD10R,.025X.04*%
%ADD45R,.025X.05*%
%ADD33R,.032X.035*%
%ADD54R,.06X.044*%
%ADD31R,.05X.045*%
%ADD22R,.035X.032*%
%ADD18R,.07X.016*%
%ADD11R,.05X.08*%
%ADD26R,.045X.05*%
%ADD34R,.08X.025*%
%ADD53R,.018X.036*%
%ADD49R,.043X.047*%
%ADD16R,.056X.036*%
%ADD19R,.065X.055*%
%ADD51R,.11417X.10039*%
%ADD35R,.10039X.11417*%
%ADD50R,.079X.035*%
%ADD32C,.009*%
%ADD30R,.016535X.023622*%
%ADD52R,.05906X.03937*%
%ADD46R,.05315X.027559*%
%ADD21R,.01772X.01969*%
%ADD17R,.01969X.01772*%
%ADD36R,.035433X.07874*%
%ADD55C,.02*%
%ADD56C,.008*%
%ADD57C,.005*%
G75*
%LPD*%
G75*
G36*
G01X-5000Y-55000D02*
Y-45000D01*
X-15000D01*
Y-40000D01*
X0D01*
Y-55000D01*
X-5000D01*
G37*
G36*
G01X-15000Y335000D02*
X-5000D01*
Y345000D01*
X0D01*
Y330000D01*
X-15000D01*
Y335000D01*
G37*
G36*
G01X820000Y-45000D02*
X810000D01*
Y-55000D01*
X805000D01*
Y-40000D01*
X820000D01*
Y-45000D01*
G37*
G36*
G01X810000Y345000D02*
Y335000D01*
X820000D01*
Y330000D01*
X805000D01*
Y345000D01*
X810000D01*
G37*
G54D10*
X14500Y73898D03*
X9500D03*
Y96102D03*
X14500D03*
X24500Y73898D03*
X19500D03*
Y96102D03*
X24500D03*
X42500Y73898D03*
X37500D03*
X32500D03*
Y96102D03*
X37500D03*
X42500D03*
X47500Y73898D03*
Y96102D03*
G54D11*
X6000Y220000D03*
X24000D03*
G54D20*
X57795Y75000D03*
X82205D03*
G54D21*
X59870Y92500D03*
X56130D03*
X54130Y122500D03*
X57870D03*
X54130Y132500D03*
X57870D03*
Y127500D03*
X54130D03*
X71370Y27500D03*
X67630D03*
X71370Y32500D03*
X67630D03*
X70130Y110000D03*
X73870D03*
X82130Y93500D03*
X85870D03*
Y97500D03*
X82130D03*
X85870Y109000D03*
X82130D03*
X88370Y180000D03*
X84630D03*
X88370Y183500D03*
X84630D03*
X89370Y196500D03*
X85630D03*
X75630Y185000D03*
X79370D03*
Y209500D03*
X75630D03*
X89370D03*
X85630D03*
X89370Y200500D03*
X85630D03*
X79370Y213500D03*
X75630D03*
X79370Y217500D03*
X75630D03*
X79370Y237500D03*
X75630D03*
X79370Y227500D03*
X75630D03*
X79370Y242500D03*
X75630D03*
X79370Y252500D03*
X75630D03*
X98870Y61000D03*
X95130D03*
X99370Y209500D03*
X95630D03*
X99370Y213500D03*
X95630D03*
X99370Y217500D03*
X95630D03*
Y222500D03*
X99370D03*
X95630Y238500D03*
X99370D03*
X95630Y234500D03*
X99370D03*
X95630Y252500D03*
X99370D03*
Y242500D03*
X95630D03*
X116630Y172000D03*
Y168000D03*
X110870Y188500D03*
X107130D03*
X111370Y204000D03*
X107630D03*
Y208000D03*
X111370D03*
X124370Y50000D03*
X120630D03*
X124370Y55000D03*
X120630D03*
X124370Y60000D03*
X120630D03*
X125870Y78500D03*
X122130D03*
X125870Y82500D03*
X122130D03*
X124130Y164000D03*
X127870D03*
Y168000D03*
X124130D03*
X127870Y172000D03*
X124130D03*
X120370D03*
Y168000D03*
X124130Y188500D03*
X127870D03*
X124130Y192500D03*
X127870D03*
X134630Y60000D03*
X138370D03*
X145630Y195500D03*
X139370D03*
X135630D03*
X139370Y188500D03*
X135630D03*
X145630Y199500D03*
Y203500D03*
Y207500D03*
Y215000D03*
X151130Y49000D03*
X154870D03*
X151130Y45000D03*
X154870D03*
X151130Y53000D03*
X154870D03*
X149370Y195500D03*
X154630Y207500D03*
X158370D03*
X149370Y199500D03*
Y203500D03*
Y207500D03*
Y215000D03*
X170630Y65500D03*
X174370D03*
X170630Y61500D03*
X174370D03*
X170630Y73500D03*
X174370D03*
X170630Y69500D03*
X174370D03*
X165630Y187500D03*
X169370D03*
X165630Y195500D03*
X169370D03*
X165630Y191500D03*
X169370D03*
Y199500D03*
X165630D03*
X169370Y203500D03*
X165630D03*
X183130Y33500D03*
X186870D03*
X183130Y39500D03*
X186870D03*
X183130Y43500D03*
X186870D03*
Y47500D03*
X183130D03*
X233130Y33500D03*
Y37500D03*
X225630Y222000D03*
X229370D03*
Y230000D03*
X225630D03*
X234630Y233500D03*
X225630Y226000D03*
X229370D03*
X236870Y33500D03*
Y37500D03*
X247370Y218000D03*
X243630D03*
Y222000D03*
X247370D03*
X243630Y230000D03*
X247370D03*
X243630Y226000D03*
X247370D03*
X238370Y233500D03*
X261630Y222000D03*
Y218000D03*
Y230000D03*
Y226000D03*
X274370Y33500D03*
X270630D03*
X274370Y43500D03*
X270630D03*
X271630Y218000D03*
X275370D03*
Y222000D03*
X271630D03*
X265370D03*
Y218000D03*
X271630Y226000D03*
X275370D03*
X265370Y230000D03*
X271630D03*
X275370D03*
X265370Y226000D03*
X291630Y148500D03*
Y152500D03*
Y164500D03*
Y160500D03*
Y156500D03*
Y176500D03*
Y168500D03*
Y172500D03*
Y180500D03*
Y184500D03*
Y207500D03*
Y203500D03*
Y199500D03*
Y222000D03*
Y218000D03*
Y211500D03*
X283870Y233500D03*
X280130D03*
X291630Y226000D03*
X283870Y237500D03*
X280130D03*
X291630Y248500D03*
X295370Y148500D03*
Y152500D03*
X299130Y156500D03*
X302870D03*
X295370Y164500D03*
Y160500D03*
Y156500D03*
X302870Y164500D03*
X299130D03*
X302870Y168500D03*
X299130D03*
X295370Y176500D03*
Y168500D03*
Y172500D03*
Y180500D03*
Y184500D03*
X302870Y194500D03*
X299130D03*
X302870Y189500D03*
X299130D03*
X295370Y207500D03*
Y203500D03*
Y199500D03*
Y222000D03*
Y218000D03*
Y211500D03*
Y226000D03*
Y248500D03*
X320630Y33500D03*
Y37500D03*
Y108500D03*
Y112500D03*
Y120500D03*
Y116500D03*
X313130Y165000D03*
X316870D03*
X324370Y33500D03*
Y37500D03*
X330630Y95000D03*
X334370D03*
X330630Y90000D03*
X334370D03*
X324370Y108500D03*
Y112500D03*
Y120500D03*
Y116500D03*
X344630Y75000D03*
X348370D03*
X344370Y95000D03*
X340630D03*
X344370Y100000D03*
X340630D03*
X344370Y108500D03*
X340630D03*
Y112500D03*
X344370D03*
Y116500D03*
X340630D03*
X378370Y112500D03*
X374630D03*
X378370Y120500D03*
X374630D03*
X378370Y116500D03*
X374630D03*
G54D30*
X80059Y191760D03*
X77500D03*
X74941D03*
X77500Y199240D03*
X74941D03*
X80059D03*
X122500Y66260D03*
X125059D03*
X119941D03*
Y73740D03*
X122500D03*
X125059D03*
G54D12*
X27000Y123500D03*
Y131500D03*
X18000Y127500D03*
X61000Y36500D03*
Y28500D03*
X52000Y32500D03*
X78000Y46000D03*
X87000Y50000D03*
X78000Y54000D03*
X133500Y50000D03*
X142500Y46000D03*
Y54000D03*
X138500Y174500D03*
X134500Y183500D03*
X142500D03*
X293500Y234000D03*
X289500Y243000D03*
X297500D03*
G54D22*
X53000Y97000D03*
X59000D03*
X72500Y37500D03*
X66500D03*
X69000Y130000D03*
X75000D03*
X74500Y222500D03*
Y247500D03*
X80500Y222500D03*
Y247500D03*
X100000Y66000D03*
X94000D03*
X100000Y72000D03*
X94000D03*
X102500Y177000D03*
X96500D03*
X94500Y247500D03*
X100500D03*
X125500Y45000D03*
X119500D03*
X155500Y58000D03*
X149500D03*
G54D31*
X87500Y219000D03*
Y226000D03*
Y244000D03*
Y251000D03*
X162500Y46500D03*
Y53500D03*
X172500Y46500D03*
Y53500D03*
X341500Y17000D03*
X349000D03*
X341500Y24000D03*
X349000D03*
X341500Y44000D03*
Y51000D03*
X349000Y44000D03*
Y51000D03*
X356500Y17000D03*
Y24000D03*
Y44000D03*
Y51000D03*
G54D13*
X20677Y239350D03*
Y237776D03*
Y236201D03*
Y244075D03*
Y245650D03*
Y247224D03*
Y248799D03*
Y242500D03*
Y240925D03*
G54D40*
X186582Y120756D03*
X185004Y122479D03*
X187756Y137783D03*
X186415Y135870D03*
X187756Y133957D03*
X186415Y132044D03*
X187756Y130131D03*
X186415Y128218D03*
X187756Y126305D03*
X186415Y124392D03*
X185004Y137783D03*
Y133957D03*
Y130131D03*
Y126305D03*
X186415Y151174D03*
X187756Y149261D03*
X186415Y147348D03*
X187756Y145435D03*
X186415Y143522D03*
X187756Y141609D03*
X186415Y139696D03*
X185004Y149261D03*
Y145435D03*
Y141609D03*
X189189Y155000D03*
X186415Y166478D03*
X187756Y164565D03*
X186415Y162652D03*
X187756Y160739D03*
X186415Y158826D03*
X187814Y156889D03*
X186415Y155000D03*
X187814Y153111D03*
X185004Y164565D03*
Y160739D03*
Y156913D03*
Y153087D03*
X187756Y179869D03*
X186415Y177956D03*
X187756Y176043D03*
X186415Y174130D03*
X187756Y172217D03*
X186415Y170304D03*
X187756Y168391D03*
X185004Y179869D03*
Y176043D03*
Y172217D03*
Y168391D03*
X186582Y189244D03*
X186415Y185608D03*
X187756Y183695D03*
X186415Y181782D03*
X185004Y187521D03*
Y183695D03*
X205131Y108819D03*
Y106067D03*
X203218Y107478D03*
X201305Y108819D03*
Y106067D03*
X199392Y107478D03*
X197123Y108036D03*
X205131Y203933D03*
Y201181D03*
X203218Y202522D03*
X201305Y203933D03*
Y201181D03*
X199392Y202522D03*
X197123Y201964D03*
X218522Y107478D03*
X216609Y108819D03*
Y106067D03*
X214696Y107478D03*
X212783Y108819D03*
Y106067D03*
X210870Y107478D03*
X208957Y108819D03*
Y106067D03*
X207044Y107478D03*
X218522Y202522D03*
X216609Y203933D03*
Y201181D03*
X214696Y202522D03*
X212783Y203933D03*
Y201181D03*
X210870Y202522D03*
X208957Y203933D03*
Y201181D03*
X207044Y202522D03*
X233826Y107478D03*
X231889Y108877D03*
X231913Y106067D03*
X230000Y107478D03*
X228111Y108877D03*
X228087Y106067D03*
X226174Y107478D03*
X224261Y108819D03*
Y106067D03*
X222348Y107478D03*
X220435Y108819D03*
Y106067D03*
X230000Y110252D03*
X233826Y202522D03*
X231913Y203933D03*
X231889Y201123D03*
X230000Y202522D03*
Y199748D03*
X228087Y203933D03*
X228111Y201123D03*
X226174Y202522D03*
X224261Y203933D03*
Y201181D03*
X222348Y202522D03*
X220435Y203933D03*
Y201181D03*
X247217Y108819D03*
Y106067D03*
X245304Y107478D03*
X243391Y108819D03*
Y106067D03*
X241478Y107478D03*
X239565Y108819D03*
Y106067D03*
X237652Y107478D03*
X235739Y108819D03*
Y106067D03*
X247217Y203933D03*
Y201181D03*
X245304Y202522D03*
X243391Y203933D03*
Y201181D03*
X241478Y202522D03*
X239565Y203933D03*
Y201181D03*
X237652Y202522D03*
X235739Y203933D03*
Y201181D03*
X262877Y108036D03*
X260608Y107478D03*
X258695Y108819D03*
Y106067D03*
X256782Y107478D03*
X254869Y108819D03*
Y106067D03*
X252956Y107478D03*
X251043Y108819D03*
Y106067D03*
X249130Y107478D03*
X262877Y201964D03*
X260608Y202522D03*
X258695Y203933D03*
Y201181D03*
X256782Y202522D03*
X254869Y203933D03*
Y201181D03*
X252956Y202522D03*
X251043Y203933D03*
Y201181D03*
X249130Y202522D03*
X274996Y122479D03*
X273418Y120756D03*
X274996Y137783D03*
Y133957D03*
Y130131D03*
Y126305D03*
X272244Y137783D03*
X273585Y135870D03*
X272244Y133957D03*
X273585Y132044D03*
X272244Y130131D03*
X273585Y128218D03*
X272244Y126305D03*
X273585Y124392D03*
X274996Y149261D03*
Y145435D03*
Y141609D03*
X273585Y151174D03*
X272244Y149261D03*
X273585Y147348D03*
X272244Y145435D03*
X273585Y143522D03*
X272244Y141609D03*
X273585Y139696D03*
X274996Y164565D03*
Y160739D03*
Y156913D03*
Y153087D03*
X273585Y166478D03*
X272244Y164565D03*
X273585Y162652D03*
X272244Y160739D03*
X273585Y158826D03*
X272186Y156889D03*
X273585Y155000D03*
X272186Y153111D03*
X270811Y155000D03*
X274996Y179869D03*
Y176043D03*
Y172217D03*
Y168391D03*
X272244Y179869D03*
X273585Y177956D03*
X272244Y176043D03*
X273585Y174130D03*
X272244Y172217D03*
X273585Y170304D03*
X272244Y168391D03*
X274996Y187521D03*
Y183695D03*
X273418Y189244D03*
X273585Y185608D03*
X272244Y183695D03*
X273585Y181782D03*
G54D32*
X100453Y34468D03*
Y32500D03*
Y30532D03*
X94547Y34468D03*
X96516D03*
X98484D03*
Y32500D03*
Y30532D03*
X96516Y32500D03*
Y30532D03*
X94547Y32500D03*
Y30532D03*
X115453Y34468D03*
Y32500D03*
Y30532D03*
X109547Y34468D03*
X111516D03*
X113484D03*
Y32500D03*
Y30532D03*
X111516Y32500D03*
Y30532D03*
X109547Y32500D03*
Y30532D03*
X130453Y34468D03*
Y32500D03*
Y30532D03*
X124547Y34468D03*
X126516D03*
X128484D03*
Y32500D03*
Y30532D03*
X126516Y32500D03*
Y30532D03*
X124547Y32500D03*
Y30532D03*
X145453Y34468D03*
Y32500D03*
Y30532D03*
X139547Y34468D03*
X141516D03*
X143484D03*
Y32500D03*
Y30532D03*
X141516Y32500D03*
Y30532D03*
X139547Y32500D03*
Y30532D03*
X141063Y221063D03*
X143032D03*
X145000D03*
X146968D03*
Y223032D03*
X145000D03*
X143032D03*
X141063D03*
X146968Y225000D03*
X145000D03*
X143032D03*
X141063D03*
X146968Y226968D03*
X145000D03*
X141063D03*
X146968Y228937D03*
X145000D03*
X143032D03*
X141063D03*
X160453Y34468D03*
Y32500D03*
Y30532D03*
X154547Y34468D03*
X156516D03*
X158484D03*
Y32500D03*
Y30532D03*
X156516Y32500D03*
Y30532D03*
X154547Y32500D03*
Y30532D03*
X148937Y221063D03*
Y223032D03*
Y225000D03*
Y226968D03*
Y228937D03*
X175453Y34468D03*
Y32500D03*
Y30532D03*
X169547Y34468D03*
X171516D03*
X173484D03*
Y32500D03*
Y30532D03*
X171516Y32500D03*
Y30532D03*
X169547Y32500D03*
Y30532D03*
X285468Y221047D03*
X283500D03*
X281532D03*
X285468Y224984D03*
Y223016D03*
X283500D03*
X281532D03*
X283500Y224984D03*
X281532D03*
X285468Y226953D03*
X283500D03*
X281532D03*
X334468Y109547D03*
X332500D03*
X330532D03*
X334468Y115453D03*
Y113484D03*
Y111516D03*
X332500D03*
X330532D03*
X332500Y113484D03*
X330532D03*
X332500Y115453D03*
X330532D03*
G54D50*
X341182Y198957D03*
X346300Y256043D03*
G54D41*
X183488Y120566D03*
Y135870D03*
Y132044D03*
Y128218D03*
Y124392D03*
Y151174D03*
Y147348D03*
Y143522D03*
Y139696D03*
Y166478D03*
Y162652D03*
Y158826D03*
Y155000D03*
Y177956D03*
Y174130D03*
Y170304D03*
Y189434D03*
Y185608D03*
Y181782D03*
X276512Y120566D03*
Y135870D03*
Y132044D03*
Y128218D03*
Y124392D03*
Y151174D03*
Y147348D03*
Y143522D03*
Y139696D03*
Y166478D03*
Y162652D03*
Y158826D03*
Y155000D03*
Y177956D03*
Y174130D03*
Y170304D03*
Y185608D03*
Y181782D03*
G54D23*
X69433Y93882D03*
X72189D03*
X73567Y104118D03*
X70811D03*
G54D14*
X25500Y238563D03*
Y236988D03*
Y235413D03*
Y243287D03*
Y244862D03*
Y246437D03*
Y248012D03*
Y249587D03*
Y241713D03*
Y240138D03*
G54D51*
X375500Y38697D03*
Y63303D03*
G54D33*
X106500Y165000D03*
X112000D03*
X106500Y171000D03*
X112000D03*
X130500Y206500D03*
Y200500D03*
X124500Y206500D03*
Y200500D03*
X185000Y22000D03*
Y28000D03*
Y59500D03*
Y65500D03*
X186500Y221500D03*
Y215500D03*
X226000Y6500D03*
X232000D03*
X235000Y22000D03*
X226000Y12500D03*
X232000D03*
X235000Y28000D03*
Y44500D03*
Y50500D03*
Y59500D03*
Y65500D03*
X238000Y6500D03*
Y12500D03*
X269500Y6500D03*
X275500D03*
X272500Y22000D03*
X269500Y12500D03*
X275500D03*
X272500Y28000D03*
Y59500D03*
Y65500D03*
X281500Y6500D03*
Y12500D03*
X322500Y22000D03*
Y28000D03*
Y44500D03*
Y50500D03*
Y59500D03*
Y65500D03*
X354500Y63000D03*
X360500D03*
X354500Y69000D03*
X360500D03*
G54D42*
X203218Y104551D03*
X199392D03*
X203218Y205449D03*
X199392D03*
X218522Y104551D03*
X214696D03*
X210870D03*
X207044D03*
X218522Y205449D03*
X214696D03*
X210870D03*
X207044D03*
X233826Y104551D03*
X230000D03*
X226174D03*
X222348D03*
X233826Y205449D03*
X230000D03*
X226174D03*
X222348D03*
X245304Y104551D03*
X241478D03*
X237652D03*
X245304Y205449D03*
X241478D03*
X237652D03*
X260608Y104551D03*
X256782D03*
X252956D03*
X249130D03*
X256782Y205449D03*
X252956D03*
X249130D03*
G54D15*
X50000Y-20000D03*
X37500Y15000D03*
X50000Y310000D03*
X192500Y12500D03*
Y77500D03*
X180000Y97500D03*
X230000Y272500D03*
X280000Y212500D03*
X315000Y12500D03*
Y77500D03*
X755000Y-20000D03*
G54D24*
X65988Y102150D03*
Y100575D03*
Y99000D03*
Y97425D03*
Y95850D03*
X77012D03*
Y97425D03*
Y99000D03*
Y100575D03*
Y102150D03*
G54D52*
X376500Y106331D03*
Y97669D03*
G54D16*
X47634Y123760D03*
X39366Y127500D03*
X47634Y131240D03*
G54D34*
X111750Y242500D03*
Y247500D03*
Y252500D03*
Y257500D03*
X138250Y252500D03*
Y247500D03*
Y242500D03*
Y257500D03*
G54D25*
X69787Y99000D03*
X72543D03*
G54D43*
X219192Y137090D03*
Y134105D03*
X216104Y137090D03*
Y134105D03*
X213016Y137090D03*
Y134105D03*
X219192Y152015D03*
Y149030D03*
Y146045D03*
Y143060D03*
Y140075D03*
X216104Y152015D03*
Y149030D03*
Y146045D03*
Y143060D03*
Y140075D03*
X213016Y152015D03*
Y149030D03*
Y146045D03*
Y143060D03*
Y140075D03*
X219192Y166940D03*
Y163955D03*
Y160970D03*
Y157985D03*
Y155000D03*
X216104Y166940D03*
Y163955D03*
Y160970D03*
Y157985D03*
Y155000D03*
X213016Y166940D03*
Y163955D03*
Y160970D03*
Y157985D03*
Y155000D03*
X219192Y175895D03*
Y172910D03*
Y169925D03*
X216104Y175895D03*
Y172910D03*
Y169925D03*
X213016Y175895D03*
Y172910D03*
Y169925D03*
X231544Y137090D03*
Y134105D03*
X228456Y137090D03*
Y134105D03*
X225368Y137090D03*
Y134105D03*
X222280Y137090D03*
Y134105D03*
X231544Y152015D03*
Y149030D03*
Y146045D03*
Y143060D03*
Y140075D03*
X228456Y152015D03*
Y149030D03*
Y146045D03*
Y143060D03*
Y140075D03*
X225368Y152015D03*
Y149030D03*
Y146045D03*
Y143060D03*
Y140075D03*
X222280Y152015D03*
Y149030D03*
Y146045D03*
Y143060D03*
Y140075D03*
X231544Y166940D03*
Y163955D03*
Y160970D03*
Y157985D03*
Y155000D03*
X228456Y166940D03*
Y163955D03*
Y160970D03*
Y157985D03*
Y155000D03*
X225368Y166940D03*
Y163955D03*
Y160970D03*
Y157985D03*
Y155000D03*
X222280Y166940D03*
Y163955D03*
Y160970D03*
Y157985D03*
Y155000D03*
X231544Y175895D03*
Y172910D03*
Y169925D03*
X228456Y175895D03*
Y172910D03*
Y169925D03*
X225368Y175895D03*
Y172910D03*
Y169925D03*
X222280Y175895D03*
Y172910D03*
Y169925D03*
X246984Y137090D03*
Y134105D03*
X243896Y137090D03*
Y134105D03*
X240808Y137090D03*
Y134105D03*
X237720Y137090D03*
Y134105D03*
X234632Y137090D03*
Y134105D03*
X246984Y152015D03*
Y149030D03*
Y146045D03*
Y143060D03*
Y140075D03*
X243896Y152015D03*
Y149030D03*
Y146045D03*
Y143060D03*
Y140075D03*
X240808Y152015D03*
Y149030D03*
Y146045D03*
Y143060D03*
Y140075D03*
X237720Y152015D03*
Y149030D03*
Y146045D03*
Y143060D03*
Y140075D03*
X234632Y152015D03*
Y149030D03*
Y146045D03*
Y143060D03*
Y140075D03*
X246984Y166940D03*
Y163955D03*
Y160970D03*
Y157985D03*
Y155000D03*
X243896Y166940D03*
Y163955D03*
Y160970D03*
Y157985D03*
Y155000D03*
X240808Y166940D03*
Y163955D03*
Y160970D03*
Y157985D03*
Y155000D03*
X237720Y166940D03*
Y163955D03*
Y160970D03*
Y157985D03*
Y155000D03*
X234632Y166940D03*
Y163955D03*
Y160970D03*
Y157985D03*
Y155000D03*
X246984Y175895D03*
Y172910D03*
Y169925D03*
X243896Y175895D03*
Y172910D03*
Y169925D03*
X240808Y175895D03*
Y172910D03*
Y169925D03*
X237720Y175895D03*
Y172910D03*
Y169925D03*
X234632Y175895D03*
Y172910D03*
Y169925D03*
G54D17*
X44500Y215130D03*
Y218870D03*
X56500D03*
Y215130D03*
X70000Y48130D03*
Y51870D03*
X75000Y140630D03*
Y144370D03*
Y151870D03*
Y148130D03*
X73000Y161870D03*
Y158130D03*
Y171870D03*
Y168130D03*
X65500Y218870D03*
Y215130D03*
X61000Y218870D03*
Y215130D03*
X86000Y104870D03*
Y101130D03*
X82000D03*
Y104870D03*
X83000Y144370D03*
Y140630D03*
X87000Y144370D03*
Y140630D03*
X79000Y144370D03*
Y140630D03*
X88000Y161870D03*
Y158130D03*
X82500D03*
Y161870D03*
X78500Y158130D03*
Y161870D03*
X88000Y168130D03*
Y171870D03*
X82500D03*
Y168130D03*
X78500Y171870D03*
Y168130D03*
X101500Y159870D03*
Y156130D03*
X93500D03*
Y159870D03*
X97500D03*
Y156130D03*
Y168130D03*
Y171870D03*
X101500Y168130D03*
Y171870D03*
X112500Y48130D03*
Y51870D03*
X116000Y68130D03*
Y71870D03*
X116500Y164370D03*
Y160630D03*
X105500Y156130D03*
Y159870D03*
X117500Y180870D03*
Y177130D03*
X109500D03*
Y180870D03*
X113500D03*
Y177130D03*
X115500Y194130D03*
Y197870D03*
Y204130D03*
Y207870D03*
X129000Y71870D03*
Y68130D03*
X120500Y160630D03*
Y164370D03*
X132000Y164630D03*
X121500Y180870D03*
Y177130D03*
X125500Y180870D03*
Y177130D03*
X132000Y168370D03*
X119500Y194130D03*
Y197870D03*
X136000Y164630D03*
X140000D03*
X144000D03*
X136000Y168370D03*
X140000D03*
X144000D03*
X139500Y203370D03*
Y199630D03*
X135500Y203370D03*
Y199630D03*
X172500Y239370D03*
Y235630D03*
X181500Y219370D03*
Y215630D03*
X177500Y219370D03*
Y215630D03*
X187500Y239370D03*
Y235630D03*
X177500Y239370D03*
Y235630D03*
X191500Y215630D03*
Y219370D03*
X195500Y215630D03*
Y219370D03*
X199400Y215730D03*
Y219470D03*
X192500Y239370D03*
Y235630D03*
X217500Y217870D03*
Y214130D03*
X229500D03*
Y217870D03*
X225500Y214130D03*
Y217870D03*
X221500D03*
Y214130D03*
X247000Y261370D03*
Y257630D03*
X255000D03*
Y261370D03*
X259000Y257630D03*
Y261370D03*
X251000D03*
Y257630D03*
X258500Y274130D03*
Y277870D03*
X254500Y274130D03*
Y277870D03*
X276000Y257130D03*
Y260870D03*
X276500Y274130D03*
Y277870D03*
X287500Y193870D03*
Y190130D03*
X292500Y256630D03*
Y260370D03*
X288500Y256630D03*
Y260370D03*
X292500Y274130D03*
Y277870D03*
X284500Y274130D03*
Y277870D03*
X280500D03*
Y274130D03*
X288500D03*
Y277870D03*
X300500Y256630D03*
Y260370D03*
X305500Y256630D03*
Y260370D03*
X296500Y256630D03*
Y260370D03*
X305500Y277870D03*
Y274130D03*
X296500Y277870D03*
Y274130D03*
X300500D03*
Y277870D03*
X311500Y138130D03*
Y141870D03*
Y150630D03*
Y154370D03*
X309500Y256630D03*
Y260370D03*
X313500Y256630D03*
Y260370D03*
X309500Y277870D03*
Y274130D03*
X313500Y277870D03*
Y274130D03*
X338500Y35370D03*
Y31630D03*
X342500Y35370D03*
Y31630D03*
X348000Y35370D03*
Y31630D03*
X337500Y65870D03*
Y62130D03*
X349500Y65870D03*
Y62130D03*
X345500Y65870D03*
Y62130D03*
X341500Y65870D03*
Y62130D03*
G54D35*
X124197Y107500D03*
Y127500D03*
Y145500D03*
X148803Y107500D03*
Y127500D03*
Y145500D03*
G54D53*
X371241Y198928D03*
X373997D03*
X376753D03*
X379509D03*
X373997Y256072D03*
X371241D03*
X379509D03*
X376753D03*
G54D26*
X68500Y123000D03*
X75500D03*
X68500Y115500D03*
X75500D03*
X93500Y79500D03*
X100500D03*
X93500Y87000D03*
X100500D03*
X93500Y120000D03*
X100500D03*
X93500Y127500D03*
X100500D03*
X171000Y85000D03*
X164000D03*
X171000Y92500D03*
X164000D03*
X171000Y107500D03*
X164000D03*
X171000Y100000D03*
X164000D03*
X171000Y122500D03*
X164000D03*
X171000Y115000D03*
X164000D03*
X171000Y130000D03*
X164000D03*
X171000Y137500D03*
X164000D03*
X171000Y152500D03*
X164000D03*
X171000Y145000D03*
X164000D03*
X171000Y167500D03*
X164000D03*
X171000Y160000D03*
X164000D03*
X355500Y98500D03*
X362500D03*
X355500Y106000D03*
X362500D03*
X355500Y121500D03*
X362500D03*
X355500Y114000D03*
X362500D03*
G54D44*
X237484Y221047D03*
X235516D03*
X237484Y223016D03*
X235516D03*
X237484Y224984D03*
X235516D03*
X237484Y226953D03*
X235516D03*
X255484Y221047D03*
X253516D03*
X255484Y223016D03*
X253516D03*
X255484Y224984D03*
X253516D03*
X255484Y226953D03*
X253516D03*
G54D36*
X167500Y247500D03*
X172500D03*
X187500D03*
X182500D03*
X177500D03*
X197500D03*
X192500D03*
G54D18*
X38900Y225920D03*
Y228480D03*
Y231040D03*
Y233600D03*
Y236160D03*
Y238720D03*
Y241280D03*
Y243840D03*
Y246400D03*
Y248960D03*
Y251520D03*
Y254080D03*
X61100Y238720D03*
Y236160D03*
Y233600D03*
Y231040D03*
Y228480D03*
Y225920D03*
Y254080D03*
Y251520D03*
Y248960D03*
Y246400D03*
Y243840D03*
Y241280D03*
G54D54*
X384489Y199168D03*
Y255832D03*
G54D45*
X263760Y266579D03*
Y276421D03*
X271240Y266579D03*
Y276421D03*
X267500D03*
X318740Y180421D03*
X315000D03*
X311260D03*
Y170579D03*
X318740D03*
G54D27*
X74250Y277000D03*
X80750D03*
X134250D03*
X140750D03*
G54D55*
G01X-510Y442210D02*
Y359710D01*
X306990D01*
Y442210D01*
X-510D01*
G01X89490D02*
Y359710D01*
G01Y387210D02*
X306990D01*
G01X89490Y414710D02*
X306990D01*
G01X166990D02*
Y387210D01*
G54D46*
X293500Y195000D03*
Y189000D03*
G54D19*
X60000Y44500D03*
Y55500D03*
G54D28*
X78150Y28500D03*
Y36500D03*
X86850Y32500D03*
X104350Y50000D03*
X95650Y46000D03*
Y54000D03*
G54D37*
X190479Y106880D03*
X188093Y109156D03*
X188143Y106820D03*
X185810Y118550D03*
X185824Y113878D03*
X185817Y111542D03*
X185757Y109206D03*
X183488Y117124D03*
Y114474D03*
X185824Y196122D03*
X185810Y191450D03*
X183488Y195526D03*
Y192876D03*
X190479Y203120D03*
X188143Y203180D03*
X188093Y200844D03*
X185757Y200794D03*
X185817Y198458D03*
X197402Y21378D03*
X200551D03*
X203701D03*
X197402Y33976D03*
X200551D03*
X203701D03*
X197402Y30827D03*
X200551D03*
X203701D03*
X197402Y27677D03*
X200551D03*
X203701D03*
X197402Y24528D03*
X200551D03*
X203701D03*
X197402Y49724D03*
X200551D03*
X203701D03*
X197402Y46575D03*
X200551D03*
X203701D03*
X197402Y43425D03*
X200551D03*
X203701D03*
X197402Y40276D03*
X200551D03*
X203701D03*
X197402Y37126D03*
X200551D03*
X203701D03*
X197402Y65472D03*
X200551D03*
X203701D03*
X197402Y62323D03*
X200551D03*
X203701D03*
X197402Y59173D03*
X200551D03*
X203701D03*
X197402Y56024D03*
X200551D03*
X203701D03*
X197402Y52874D03*
X200551D03*
X203701D03*
X197402Y68622D03*
X200551D03*
X203701D03*
X195149Y106786D03*
X196061Y104551D03*
X192815Y106887D03*
X193411Y104551D03*
X196061Y205449D03*
X195149Y203214D03*
X193411Y205449D03*
X192815Y203113D03*
X216299Y21378D03*
X219449D03*
X216299Y33976D03*
X219449D03*
X216299Y30827D03*
X219449D03*
X216299Y27677D03*
X219449D03*
X216299Y24528D03*
X219449D03*
X216299Y49724D03*
X219449D03*
X216299Y46575D03*
X219449D03*
X216299Y43425D03*
X219449D03*
X216299Y40276D03*
X219449D03*
X216299Y37126D03*
X219449D03*
X216299Y65472D03*
X219449D03*
X216299Y62323D03*
X219449D03*
X216299Y59173D03*
X219449D03*
X216299Y56024D03*
X219449D03*
X216299Y52874D03*
X219449D03*
X216299Y68622D03*
X219449D03*
X222598Y21378D03*
Y33976D03*
Y30827D03*
Y27677D03*
Y24528D03*
Y49724D03*
Y46575D03*
Y43425D03*
Y40276D03*
Y37126D03*
Y65472D03*
Y62323D03*
Y59173D03*
Y56024D03*
Y52874D03*
Y68622D03*
X260770Y205449D03*
X271907Y109156D03*
X271857Y106820D03*
X269521Y106880D03*
X267185Y106887D03*
X266589Y104551D03*
X264851Y106786D03*
X263939Y104551D03*
X276512Y117124D03*
Y114474D03*
X274190Y118550D03*
X274176Y113878D03*
X274183Y111542D03*
X274243Y109206D03*
X276512Y193378D03*
Y189787D03*
X274176Y196122D03*
X274190Y191450D03*
X274243Y200794D03*
X274183Y198458D03*
X271857Y203180D03*
X271907Y200844D03*
X269521Y203120D03*
X267185Y203113D03*
X264170Y205449D03*
X264851Y203214D03*
X284902Y21378D03*
X288051D03*
X291201D03*
X284902Y33976D03*
X288051D03*
X291201D03*
X284902Y30827D03*
X288051D03*
X291201D03*
X284902Y27677D03*
X288051D03*
X291201D03*
X284902Y24528D03*
X288051D03*
X291201D03*
X284902Y49724D03*
X288051D03*
X291201D03*
X284902Y46575D03*
X288051D03*
X291201D03*
X284902Y43425D03*
X288051D03*
X291201D03*
X284902Y40276D03*
X288051D03*
X291201D03*
X284902Y37126D03*
X288051D03*
X291201D03*
X284902Y65472D03*
X288051D03*
X291201D03*
X284902Y62323D03*
X288051D03*
X291201D03*
X284902Y59173D03*
X288051D03*
X291201D03*
X284902Y56024D03*
X288051D03*
X291201D03*
X284902Y52874D03*
X288051D03*
X291201D03*
X284902Y68622D03*
X288051D03*
X291201D03*
X303799Y21378D03*
X306949D03*
X303799Y33976D03*
X306949D03*
X303799Y30827D03*
X306949D03*
X303799Y27677D03*
X306949D03*
X303799Y24528D03*
X306949D03*
X303799Y49724D03*
X306949D03*
X303799Y46575D03*
X306949D03*
X303799Y43425D03*
X306949D03*
X303799Y40276D03*
X306949D03*
X303799Y37126D03*
X306949D03*
X303799Y65472D03*
X306949D03*
X303799Y62323D03*
X306949D03*
X303799Y59173D03*
X306949D03*
X303799Y56024D03*
X306949D03*
X303799Y52874D03*
X306949D03*
X303799Y68622D03*
X306949D03*
X310098Y21378D03*
Y33976D03*
Y30827D03*
Y27677D03*
Y24528D03*
Y49724D03*
Y46575D03*
Y43425D03*
Y40276D03*
Y37126D03*
Y65472D03*
Y62323D03*
Y59173D03*
Y56024D03*
Y52874D03*
Y68622D03*
G54D56*
G01X103833Y367000D02*
Y377000D01*
X107167D01*
X108500Y376500D01*
X109500Y375833D01*
X110333Y374833D01*
X111000Y373666D01*
X111167Y372000D01*
X111000Y370333D01*
X110333Y369167D01*
X109500Y368166D01*
X108500Y367500D01*
X107167Y367000D01*
X103833D01*
G01X114333D02*
X118500Y377000D01*
X122667Y367000D01*
G01X121167Y370500D02*
X115833D01*
G01X129500Y377000D02*
Y367000D01*
G01X125667Y377000D02*
X133333D01*
G01X143833Y367000D02*
X137167D01*
Y377000D01*
X143833D01*
G01X141167Y372167D02*
X137167D01*
G01X151500Y366667D02*
X151167Y366833D01*
Y367167D01*
X151500Y367333D01*
X151833Y367167D01*
Y366833D01*
X151500Y366667D01*
G01Y371166D02*
X151167Y371333D01*
Y371667D01*
X151500Y371833D01*
X151833Y371667D01*
Y371333D01*
X151500Y371166D01*
G01X100975Y399816D02*
X101842Y399150D01*
X102817Y398750D01*
X103683D01*
X104550Y399150D01*
X105200Y399816D01*
X105525Y400750D01*
X105308Y401683D01*
X104767Y402483D01*
X103792Y403017D01*
X102492Y403283D01*
X101733Y403817D01*
X101408Y404750D01*
X101625Y405683D01*
X102167Y406350D01*
X102925Y406750D01*
X103683D01*
X104442Y406483D01*
X105092Y405817D01*
G01X108583Y398750D02*
Y406750D01*
X111183D01*
X112050Y406350D01*
X112700Y405417D01*
X112917Y404350D01*
X112700Y403283D01*
X112158Y402483D01*
X111183Y402083D01*
X108583D01*
G01X120633Y406083D02*
X119983Y406483D01*
X119225Y406750D01*
X118358D01*
X117383Y406350D01*
X116625Y405683D01*
X116083Y404883D01*
X115650Y403550D01*
X115542Y402350D01*
X115758Y401150D01*
X116083Y400350D01*
X116733Y399550D01*
X117492Y399017D01*
X118250Y398750D01*
X119008D01*
X119767Y399017D01*
X120417Y399417D01*
X120958Y399950D01*
G01X108157Y431377D02*
X107157Y431877D01*
X105990Y432210D01*
X104657D01*
X103156Y431710D01*
X101990Y430877D01*
X101157Y429877D01*
X100490Y428210D01*
X100323Y426710D01*
X100657Y425210D01*
X101157Y424210D01*
X102157Y423210D01*
X103323Y422543D01*
X104490Y422210D01*
X105657D01*
X106823Y422543D01*
X107823Y423043D01*
X108657Y423710D01*
G01X115490Y428876D02*
Y422210D01*
G01Y431543D02*
X115157Y431710D01*
Y432043D01*
X115490Y432210D01*
X115823Y432043D01*
Y431710D01*
X115490Y431543D01*
G01X124157Y422210D02*
Y428876D01*
G01Y427543D02*
X124990Y428210D01*
X125823Y428710D01*
X126990Y428876D01*
X127823Y428710D01*
X128823Y428210D01*
G01X140157Y428043D02*
X138990Y428710D01*
X137990Y428876D01*
X136657Y428543D01*
X135657Y427877D01*
X134990Y426710D01*
X134823Y425543D01*
X134990Y424377D01*
X135657Y423376D01*
X136657Y422543D01*
X137990Y422210D01*
X139157Y422543D01*
X140157Y423210D01*
G01X145657Y428876D02*
Y424210D01*
X146323Y423043D01*
X147323Y422377D01*
X148490Y422210D01*
X149657Y422377D01*
X150657Y423043D01*
X151323Y424210D01*
G01Y422210D02*
Y428876D01*
G01X159490D02*
Y422210D01*
G01Y431543D02*
X159157Y431710D01*
Y432043D01*
X159490Y432210D01*
X159823Y432043D01*
Y431710D01*
X159490Y431543D01*
G01X170490Y432210D02*
Y422210D01*
G01X168157Y428876D02*
X172823D01*
G01X196157Y431377D02*
X195157Y431877D01*
X193990Y432210D01*
X192657D01*
X191156Y431710D01*
X189990Y430877D01*
X189157Y429877D01*
X188490Y428210D01*
X188323Y426710D01*
X188657Y425210D01*
X189157Y424210D01*
X190157Y423210D01*
X191323Y422543D01*
X192490Y422210D01*
X193657D01*
X194823Y422543D01*
X195823Y423043D01*
X196657Y423710D01*
G01X203490Y422210D02*
X202490Y422377D01*
X201490Y423043D01*
X200823Y424210D01*
X200490Y425543D01*
X200823Y426877D01*
X201490Y428043D01*
X202490Y428710D01*
X203490Y428876D01*
X204490Y428710D01*
X205490Y428043D01*
X206157Y426877D01*
X206323Y425543D01*
X206157Y424210D01*
X205490Y423043D01*
X204490Y422377D01*
X203490Y422210D01*
G01X214490Y421877D02*
X214157Y422043D01*
Y422377D01*
X214490Y422543D01*
X214823Y422377D01*
Y422043D01*
X214490Y421877D01*
G01X168750Y375000D02*
X167750Y374750D01*
X167000Y374125D01*
X166500Y373375D01*
X166125Y372375D01*
X166000Y371250D01*
X166125Y370125D01*
X166500Y369125D01*
X167000Y368375D01*
X167750Y367750D01*
X168750Y367500D01*
X169750Y367750D01*
X170500Y368375D01*
X171000Y369125D01*
X171375Y370125D01*
X171500Y371250D01*
X171375Y372375D01*
X171000Y373375D01*
X170500Y374125D01*
X169750Y374750D01*
X168750Y375000D01*
G01X174500Y368625D02*
X175250Y368000D01*
X176125Y367625D01*
X177250Y367500D01*
X178375Y367750D01*
X179250Y368250D01*
X179875Y369125D01*
X180000Y370125D01*
X179750Y371125D01*
X179125Y371750D01*
X178250Y372250D01*
X177375Y372375D01*
X176500Y372250D01*
X175375Y371750D01*
X175750Y375000D01*
X179125D01*
G01X183500Y367250D02*
X188000Y375000D01*
G01X194250D02*
X193250Y374750D01*
X192500Y374125D01*
X192000Y373375D01*
X191625Y372375D01*
X191500Y371250D01*
X191625Y370125D01*
X192000Y369125D01*
X192500Y368375D01*
X193250Y367750D01*
X194250Y367500D01*
X195250Y367750D01*
X196000Y368375D01*
X196500Y369125D01*
X196875Y370125D01*
X197000Y371250D01*
X196875Y372375D01*
X196500Y373375D01*
X196000Y374125D01*
X195250Y374750D01*
X194250Y375000D01*
G01X200375Y373750D02*
X201125Y374500D01*
X202000Y374875D01*
X203000Y375000D01*
X204250Y374750D01*
X205125Y374125D01*
X205375Y373375D01*
X205250Y372625D01*
X204750Y372000D01*
X202250Y370750D01*
X201125Y369875D01*
X200375Y368625D01*
X200125Y367500D01*
X205375D01*
G01X209000Y367250D02*
X213500Y375000D01*
G01X217375Y373750D02*
X218125Y374500D01*
X219000Y374875D01*
X220000Y375000D01*
X221250Y374750D01*
X222125Y374125D01*
X222375Y373375D01*
X222250Y372625D01*
X221750Y372000D01*
X219250Y370750D01*
X218125Y369875D01*
X217375Y368625D01*
X217125Y367500D01*
X222375D01*
G01X228250Y375000D02*
X227250Y374750D01*
X226500Y374125D01*
X226000Y373375D01*
X225625Y372375D01*
X225500Y371250D01*
X225625Y370125D01*
X226000Y369125D01*
X226500Y368375D01*
X227250Y367750D01*
X228250Y367500D01*
X229250Y367750D01*
X230000Y368375D01*
X230500Y369125D01*
X230875Y370125D01*
X231000Y371250D01*
X230875Y372375D01*
X230500Y373375D01*
X230000Y374125D01*
X229250Y374750D01*
X228250Y375000D01*
G01X236750Y367500D02*
Y375000D01*
X235250Y373500D01*
G01Y367500D02*
X238250D01*
G01X246750D02*
Y375000D01*
X242125Y369625D01*
X248375D01*
G01X175500Y397500D02*
Y405000D01*
X178750Y398750D01*
X182000Y405000D01*
Y397500D01*
G01X187250Y402500D02*
Y397500D01*
G01Y404500D02*
X187000Y404625D01*
Y404875D01*
X187250Y405000D01*
X187500Y404875D01*
Y404625D01*
X187250Y404500D01*
G01X193625Y397500D02*
Y402500D01*
G01Y401250D02*
X194125Y401875D01*
X194875Y402375D01*
X195875Y402500D01*
X196750Y402375D01*
X197500Y401875D01*
X197875Y401000D01*
Y397500D01*
G01X202125D02*
Y402500D01*
G01Y401250D02*
X202625Y401875D01*
X203375Y402375D01*
X204375Y402500D01*
X205250Y402375D01*
X206000Y401875D01*
X206375Y401000D01*
Y397500D01*
G01X212750D02*
X212000Y397625D01*
X211250Y398125D01*
X210750Y399000D01*
X210500Y400000D01*
X210750Y401000D01*
X211250Y401875D01*
X212000Y402375D01*
X212750Y402500D01*
X213500Y402375D01*
X214250Y401875D01*
X214750Y401000D01*
X214875Y400000D01*
X214750Y399000D01*
X214250Y398125D01*
X213500Y397625D01*
X212750Y397500D01*
G01X218125Y402500D02*
X219625Y397500D01*
X221250Y402500D01*
X222875Y397500D01*
X224375Y402500D01*
G01X226500Y397500D02*
Y405000D01*
X229750Y398750D01*
X233000Y405000D01*
Y397500D01*
G01X240500D02*
Y402500D01*
G01Y401625D02*
X240000Y402125D01*
X239250Y402375D01*
X238375Y402500D01*
X237500Y402250D01*
X236750Y401750D01*
X236250Y401000D01*
X236000Y400000D01*
X236250Y399000D01*
X236750Y398250D01*
X237500Y397750D01*
X238375Y397500D01*
X239250Y397625D01*
X240000Y398000D01*
X240500Y398500D01*
G01X244875Y402500D02*
X248625Y397500D01*
G01Y402500D02*
X244875Y397500D01*
G01X261250D02*
Y405000D01*
X264375D01*
X265375Y404625D01*
X266000Y404125D01*
X266250Y403125D01*
X266000Y402125D01*
X265250Y401500D01*
X264375Y401125D01*
X261250D01*
G01X264375D02*
X266250Y397500D01*
G01X270375Y400875D02*
X274375D01*
X274000Y401750D01*
X273375Y402250D01*
X272500Y402500D01*
X271625Y402375D01*
X270875Y402000D01*
X270375Y401125D01*
X270125Y400375D01*
Y399625D01*
X270375Y398875D01*
X271000Y398125D01*
X271750Y397625D01*
X272625Y397500D01*
X273500Y397750D01*
X274375Y398500D01*
G01X278500Y402500D02*
X280750Y397500D01*
X283000Y402500D01*
G01X286125Y397500D02*
X289250Y405000D01*
X292375Y397500D01*
G01X291250Y400125D02*
X287250D01*
G01X297750Y397500D02*
Y405000D01*
X296250Y403500D01*
G01Y397500D02*
X299250D01*
G54D47*
X315772Y150532D03*
X319228D03*
X315772Y138032D03*
Y140000D03*
Y141968D03*
X319228D03*
Y140000D03*
Y138032D03*
X315772Y152500D03*
Y154468D03*
X319228D03*
Y152500D03*
G54D38*
X190661Y104551D03*
X187586D03*
X185807Y106870D03*
X185186Y104551D03*
X183488Y108649D03*
Y106249D03*
Y111724D03*
X190661Y205449D03*
X187586D03*
X185186D03*
X185807Y203130D03*
X183488Y203751D03*
Y201351D03*
Y198276D03*
X276512Y108649D03*
Y106249D03*
X274193Y106870D03*
X274814Y104551D03*
X272414D03*
X269339D03*
X276512Y111724D03*
Y196128D03*
Y202053D03*
Y198978D03*
X274814Y203751D03*
X273116Y205449D03*
X270041D03*
X267191D03*
G54D29*
G01X22500Y402500D02*
Y397500D01*
G01D02*
X26250Y393750D01*
X31250D01*
G01X27500D02*
X36250D01*
G01X31250Y406250D02*
X26250D01*
G01D02*
X22500Y402500D01*
G01X36250Y397500D02*
X48750D01*
G01X36250Y400000D02*
X42500Y406250D01*
G01X36250Y393750D02*
Y400000D01*
G01X42500Y406250D02*
X48750Y400000D01*
G01D02*
Y393750D01*
G01D02*
X56250D01*
G01X53750Y406250D02*
Y393750D01*
G01X58750D02*
X62500Y397500D01*
G01X53750Y393750D02*
X58750D01*
G01X55000Y406250D02*
X51250D01*
G01X58750D02*
X53750D01*
G01X62500Y402500D02*
X58750Y406250D01*
G01X62500Y397500D02*
Y402500D01*
X88750Y176000D03*
X83750D03*
X170000Y175000D03*
X165000D03*
X244500Y236000D03*
X236000Y253000D03*
X241000D03*
X246000D03*
X252500Y236000D03*
X260500D03*
X250000Y253000D03*
X268500Y236000D03*
G54D57*
G01X34370Y393130D02*
X27500Y400000D01*
G01X17500D02*
X42500Y375000D01*
X67500Y400000D01*
G01X17500D02*
X67500D01*
G01X42500Y425000D02*
X17500Y400000D01*
G01X27500D02*
X36450Y408950D01*
G01X34680Y383580D02*
G03X34990Y382820I1087J0D01*
G01X34700Y394380D02*
Y383580D01*
G01Y383750D02*
Y394380D01*
G01X35000Y382830D02*
X37450Y380350D01*
G01X37440Y380340D02*
G03X39050Y379680I1610J1634D01*
G01Y379700D02*
X46250D01*
G01D02*
X39000D01*
G01X46250Y382830D02*
X39370D01*
X37820Y384380D01*
Y396580D01*
X36870D01*
X34700Y394380D01*
G01X42500Y382830D02*
Y405630D01*
G01Y375000D02*
Y379700D01*
G01X34700Y394380D02*
X36870Y396580D01*
X37820D01*
Y384380D01*
X39370Y382830D01*
X46250D01*
G01X50000Y400000D02*
X42500Y392500D01*
G01D02*
X35000Y400000D01*
G01X42500Y385000D02*
X37820Y389700D01*
G01X42500Y385000D02*
X57500Y400000D01*
G01X35000D02*
X42500Y407500D01*
G01D02*
X50000Y400000D01*
G01X34680Y411080D02*
G03X34990Y410320I1087J0D01*
G01X34680Y411080D02*
G03X34990Y410320I1087J0D01*
G01X38710Y406590D02*
G03X40320Y405930I1610J1634D01*
G01X38710Y406590D02*
G03X40320Y405930I1610J1634D01*
G01X35000Y410330D02*
X38720Y406600D01*
G01X40320Y405950D02*
X45300D01*
G01X40320D02*
X45300D01*
G01D02*
X43750D01*
G01X45300Y409080D02*
X40620D01*
G01X45300D02*
X40620D01*
G01X43450D02*
X45300D01*
G01X35000Y410330D02*
X38720Y406600D01*
G01X40620Y409080D02*
X37820Y411880D01*
Y415630D01*
X40620Y418450D01*
X45300D01*
G01X34700Y415950D02*
Y411080D01*
G01X40620Y409080D02*
X37820Y411880D01*
Y415630D01*
X40620Y418450D01*
X45300D01*
G01X34700Y415950D02*
Y411080D01*
G01X38650Y411150D02*
X42500Y415000D01*
G01Y409080D02*
Y418450D01*
G01X57500Y400000D02*
X42500Y415000D01*
G01X45300Y421580D02*
X40250D01*
G01Y421550D02*
G03X38760Y420940I0J-2125D01*
G01X45300Y421580D02*
X40250D01*
G01Y421550D02*
G03X38760Y420940I0J-2125D01*
G01X42500Y421580D02*
Y425000D01*
G01X38750Y420950D02*
X35350Y417550D01*
G01X35340Y417560D02*
G03X34680Y415950I1634J-1610D01*
G01X38750Y420950D02*
X35350Y417550D01*
G01X35340Y417560D02*
G03X34680Y415950I1634J-1610D01*
G01X67500Y400000D02*
X42500Y425000D01*
G01X46250Y379680D02*
G03X47820Y381250I0J1570D01*
G01D02*
G03X46250Y382820I-1570J0D01*
G01X45300Y405930D02*
G03X46870Y407500I0J1570D01*
G01X45300Y405930D02*
G03X46870Y407500I0J1570D01*
G01D02*
G03X45300Y409070I-1570J0D01*
G01X46870Y407500D02*
G03X45300Y409070I-1570J0D01*
G01X46870Y420000D02*
G03X45300Y421570I-1570J0D01*
G01Y418430D02*
G03X46870Y420000I0J1570D01*
G54D48*
X331913Y203976D03*
Y242362D03*
G54D39*
X189967Y122294D03*
X189691Y115186D03*
X189989Y111052D03*
X187838Y117389D03*
X188099Y113347D03*
X185789Y116214D03*
X190092Y137723D03*
Y133994D03*
Y130094D03*
X190090Y126194D03*
X190092Y149298D03*
Y145398D03*
Y141669D03*
X190651Y156822D03*
Y153178D03*
X190092Y164602D03*
Y160702D03*
Y179906D03*
Y176006D03*
Y172277D03*
Y168331D03*
X189691Y194814D03*
X189967Y187706D03*
X190090Y183806D03*
X187838Y192611D03*
X185789Y193786D03*
X189989Y198948D03*
X188099Y196653D03*
X205094Y122206D03*
Y119406D03*
Y116606D03*
Y113806D03*
Y111155D03*
X201194Y122206D03*
Y119406D03*
Y116606D03*
Y113806D03*
Y111153D03*
X197833Y122294D03*
X197294Y119078D03*
Y116278D03*
Y113478D03*
Y110678D03*
X195497Y122294D03*
X192767D03*
X193379Y116763D03*
Y113405D03*
X192284Y109162D03*
X191626Y118307D03*
X203943Y137826D03*
Y133994D03*
X204622Y130094D03*
X205094Y127806D03*
Y125006D03*
X202776Y128423D03*
X201143Y137826D03*
Y133994D03*
Y130094D03*
X201104Y126194D03*
X198343Y137826D03*
Y133994D03*
Y130094D03*
Y126194D03*
X195543Y137826D03*
Y133994D03*
Y130094D03*
Y126194D03*
X192743Y137826D03*
Y133994D03*
Y130094D03*
Y126194D03*
X203943Y149298D03*
Y145398D03*
Y141566D03*
X202543Y139696D03*
X201143Y149298D03*
Y145398D03*
Y141566D03*
X198343Y149298D03*
Y145398D03*
Y141566D03*
X199743Y139696D03*
X196943D03*
X195543Y149298D03*
Y145398D03*
Y141566D03*
X194143Y139696D03*
X192743Y149298D03*
Y145398D03*
Y141566D03*
X191343Y139696D03*
X203943Y164602D03*
Y160702D03*
Y156870D03*
Y153130D03*
X202543Y155000D03*
X201143Y164602D03*
Y160702D03*
Y156870D03*
Y153130D03*
X198343Y164602D03*
Y160702D03*
Y156870D03*
X199743Y155000D03*
X198343Y153130D03*
X196943Y155000D03*
X195543Y164602D03*
Y160702D03*
Y156870D03*
X194143Y155000D03*
X195543Y153130D03*
X192743Y164602D03*
Y160702D03*
X192975Y157067D03*
Y152933D03*
X204622Y179906D03*
X203943Y176006D03*
Y172174D03*
Y168434D03*
X202776Y181577D03*
X202543Y170304D03*
X201143Y179906D03*
Y176006D03*
Y172174D03*
Y168434D03*
X198343Y179906D03*
Y176006D03*
Y172174D03*
X199743Y170304D03*
X198343Y168434D03*
X196943Y170304D03*
X195543Y179906D03*
Y176006D03*
Y172174D03*
X194143Y170304D03*
X195543Y168434D03*
X192743Y179906D03*
Y176006D03*
Y172174D03*
Y168434D03*
X191343Y170304D03*
X205094Y196194D03*
Y193394D03*
Y190594D03*
Y187794D03*
Y184994D03*
Y182194D03*
X201194Y196194D03*
Y193394D03*
Y190594D03*
Y187794D03*
X201104Y183806D03*
X198343D03*
X197294Y193722D03*
Y190922D03*
X197833Y187706D03*
X195497D03*
X195543Y183806D03*
X193379Y193237D03*
X192767Y187706D03*
X192743Y183806D03*
X191626Y191693D03*
X205094Y198845D03*
X201194Y198847D03*
X197294Y199322D03*
Y196522D03*
X192284Y200838D03*
X193379Y196595D03*
X216566Y122206D03*
Y119406D03*
Y116606D03*
Y113806D03*
X216669Y111155D03*
X214696Y123606D03*
Y120806D03*
Y118006D03*
Y115206D03*
Y112406D03*
X212826Y122206D03*
Y119406D03*
Y116606D03*
Y113806D03*
X212723Y111155D03*
X208994Y122206D03*
Y119406D03*
Y116606D03*
Y113806D03*
Y111155D03*
X216566Y130606D03*
Y127806D03*
Y125006D03*
X214696Y129206D03*
Y126406D03*
X212826Y130606D03*
Y127806D03*
Y125006D03*
X209543Y137826D03*
Y133994D03*
X208994Y130178D03*
Y127806D03*
Y125006D03*
X206743Y137826D03*
Y133994D03*
X209543Y149298D03*
Y145398D03*
Y141566D03*
X208143Y139696D03*
X206743Y149298D03*
Y145398D03*
Y141566D03*
X205343Y139696D03*
X209543Y164602D03*
Y160702D03*
Y156870D03*
X208143Y155000D03*
X209543Y153130D03*
X206743Y164602D03*
Y160702D03*
Y156870D03*
Y153130D03*
X205343Y155000D03*
X216566Y179394D03*
X214696Y180794D03*
X212826Y179394D03*
X208994Y179822D03*
X209543Y176006D03*
Y172174D03*
X208143Y170304D03*
X209543Y168434D03*
X206743Y176006D03*
Y172174D03*
Y168434D03*
X205343Y170304D03*
X216566Y196194D03*
Y193394D03*
Y190594D03*
Y187794D03*
Y184994D03*
Y182194D03*
X214696Y194794D03*
Y191994D03*
Y189194D03*
Y186394D03*
Y183594D03*
X212826Y196194D03*
Y193394D03*
Y190594D03*
Y187794D03*
Y184994D03*
Y182194D03*
X208994Y196194D03*
Y193394D03*
Y190594D03*
Y187794D03*
Y184994D03*
Y182194D03*
X216669Y198845D03*
X214696Y197594D03*
X212723Y198845D03*
X208994D03*
X231870Y122206D03*
Y119406D03*
Y116606D03*
X232067Y114038D03*
X231822Y111714D03*
X230000Y123606D03*
Y120806D03*
Y118006D03*
Y115206D03*
X228130Y122206D03*
Y119406D03*
Y116606D03*
X227933Y114038D03*
X228178Y111714D03*
X224298Y122206D03*
Y119406D03*
Y116606D03*
Y113806D03*
Y111155D03*
X220398Y122206D03*
Y119406D03*
Y116606D03*
Y113806D03*
Y111155D03*
X231870Y130606D03*
Y127806D03*
Y125006D03*
X230000Y129206D03*
Y126406D03*
X228130Y130606D03*
Y127806D03*
Y125006D03*
X224298Y130606D03*
Y127806D03*
Y125006D03*
X220398Y130606D03*
Y127806D03*
Y125006D03*
X231870Y179394D03*
X230000Y180794D03*
X228130Y179394D03*
X224298D03*
X220398D03*
X232067Y195962D03*
X231870Y193394D03*
Y190594D03*
Y187794D03*
Y184994D03*
Y182194D03*
X230000Y194794D03*
Y191994D03*
Y189194D03*
Y186394D03*
Y183594D03*
X227933Y195962D03*
X228130Y193394D03*
Y190594D03*
Y187794D03*
Y184994D03*
Y182194D03*
X224298Y196194D03*
Y193394D03*
Y190594D03*
Y187794D03*
Y184994D03*
Y182194D03*
X220398Y196194D03*
Y193394D03*
Y190594D03*
Y187794D03*
Y184994D03*
Y182194D03*
X231822Y198286D03*
X228178D03*
X224298Y198845D03*
X220398D03*
X247174Y122206D03*
Y119406D03*
Y116606D03*
Y113806D03*
X247277Y111155D03*
X245304Y123606D03*
Y120806D03*
Y118006D03*
Y115206D03*
Y112406D03*
X243434Y122206D03*
Y119406D03*
Y116606D03*
Y113806D03*
X243331Y111155D03*
X239602Y122206D03*
Y119406D03*
Y116606D03*
Y113806D03*
Y111155D03*
X235702Y122206D03*
Y119406D03*
Y116606D03*
Y113806D03*
Y111155D03*
X247174Y130606D03*
Y127806D03*
Y125006D03*
X245304Y129206D03*
Y126406D03*
X243434Y130606D03*
Y127806D03*
Y125006D03*
X239602Y130606D03*
Y127806D03*
Y125006D03*
X235702Y130606D03*
Y127806D03*
Y125006D03*
X247174Y179394D03*
X245304Y180794D03*
X243434Y179394D03*
X239602D03*
X235702D03*
X247174Y196194D03*
Y193394D03*
Y190594D03*
Y187794D03*
Y184994D03*
Y182194D03*
X245304Y194794D03*
Y191994D03*
Y189194D03*
Y186394D03*
Y183594D03*
X243434Y196194D03*
Y193394D03*
Y190594D03*
Y187794D03*
Y184994D03*
Y182194D03*
X239602Y196194D03*
Y193394D03*
Y190594D03*
Y187794D03*
Y184994D03*
Y182194D03*
X235702Y196194D03*
Y193394D03*
Y190594D03*
Y187794D03*
Y184994D03*
Y182194D03*
X247277Y198845D03*
X245304Y197594D03*
X243331Y198845D03*
X239602D03*
X235702D03*
X262167Y122294D03*
X262706Y119078D03*
Y116278D03*
Y113478D03*
Y110678D03*
X258806Y122206D03*
Y119406D03*
Y116606D03*
Y113806D03*
Y111153D03*
X254906Y122206D03*
Y119406D03*
Y116606D03*
Y113806D03*
Y111155D03*
X251006Y122206D03*
Y119406D03*
Y116606D03*
Y113806D03*
Y111155D03*
X261657Y137826D03*
Y133994D03*
Y130094D03*
Y126194D03*
X258857Y137826D03*
Y133994D03*
Y130094D03*
X258896Y126194D03*
X257224Y128423D03*
X256057Y137826D03*
Y133994D03*
X255378Y130094D03*
X254906Y127806D03*
Y125006D03*
X253257Y137826D03*
Y133994D03*
X250457Y137826D03*
Y133994D03*
X251006Y130178D03*
Y127806D03*
Y125006D03*
X263057Y139696D03*
X261657Y149298D03*
Y145398D03*
Y141566D03*
X260257Y139696D03*
X258857Y149298D03*
Y145398D03*
Y141566D03*
X257457Y139696D03*
X256057Y149298D03*
Y145398D03*
Y141566D03*
X254657Y139696D03*
X253257Y149298D03*
Y145398D03*
Y141566D03*
X250457Y149298D03*
Y145398D03*
Y141566D03*
X251857Y139696D03*
X263057Y155000D03*
X261657Y164602D03*
Y160702D03*
Y156870D03*
X260257Y155000D03*
X261657Y153130D03*
X258857Y164602D03*
Y160702D03*
Y156870D03*
Y153130D03*
X257457Y155000D03*
X256057Y164602D03*
Y160702D03*
Y156870D03*
X254657Y155000D03*
X256057Y153130D03*
X253257Y164602D03*
Y160702D03*
Y156870D03*
Y153130D03*
X250457Y164602D03*
Y160702D03*
Y156870D03*
X251857Y155000D03*
X250457Y153130D03*
X263057Y170304D03*
X261657Y179906D03*
Y176006D03*
Y172174D03*
X260257Y170304D03*
X261657Y168434D03*
X258857Y179906D03*
Y176006D03*
Y172174D03*
Y168434D03*
X257224Y181577D03*
X257457Y170304D03*
X255378Y179906D03*
X256057Y176006D03*
Y172174D03*
X254657Y170304D03*
X256057Y168434D03*
X253257Y176006D03*
Y172174D03*
Y168434D03*
X251006Y179822D03*
X250457Y176006D03*
Y172174D03*
X251857Y170304D03*
X250457Y168434D03*
X262706Y193722D03*
Y190922D03*
X262167Y187706D03*
X261657Y183806D03*
X258806Y196194D03*
Y193394D03*
Y190594D03*
Y187794D03*
X258896Y183806D03*
X254906Y196194D03*
Y193394D03*
Y190594D03*
Y187794D03*
Y184994D03*
Y182194D03*
X251006Y196194D03*
Y193394D03*
Y190594D03*
Y187794D03*
Y184994D03*
Y182194D03*
X262706Y199322D03*
Y196522D03*
X258806Y198847D03*
X254906Y198845D03*
X251006D03*
X274211Y116214D03*
X272162Y117389D03*
X271901Y113347D03*
X270033Y122294D03*
X270309Y115186D03*
X270011Y111052D03*
X268374Y118307D03*
X267233Y122294D03*
X266621Y116763D03*
Y113405D03*
X267716Y109162D03*
X264503Y122294D03*
X269908Y137723D03*
Y133994D03*
Y130094D03*
X269910Y126194D03*
X267257Y137826D03*
Y133994D03*
Y130094D03*
Y126194D03*
X264457Y137826D03*
Y133994D03*
Y130094D03*
Y126194D03*
X269908Y149298D03*
Y145398D03*
Y141669D03*
X268657Y139696D03*
X267257Y149298D03*
Y145398D03*
Y141566D03*
X264457Y149298D03*
Y145398D03*
Y141566D03*
X265857Y139696D03*
X269908Y164602D03*
Y160702D03*
X269349Y156822D03*
Y153178D03*
X267257Y164602D03*
Y160702D03*
X267025Y157067D03*
Y152933D03*
X264457Y164602D03*
Y160702D03*
Y156870D03*
X265857Y155000D03*
X264457Y153130D03*
X269908Y179906D03*
Y176006D03*
Y172277D03*
Y168331D03*
X268657Y170304D03*
X267257Y179906D03*
Y176006D03*
Y172174D03*
Y168434D03*
X264457Y179906D03*
Y176006D03*
Y172174D03*
X265857Y170304D03*
X264457Y168434D03*
X274211Y193786D03*
X272162Y192611D03*
X270309Y194814D03*
X270033Y187706D03*
X269910Y183806D03*
X268374Y191693D03*
X266621Y193237D03*
X267233Y187706D03*
X267257Y183806D03*
X264503Y187706D03*
X264457Y183806D03*
X271901Y196653D03*
X270011Y198948D03*
X267716Y200838D03*
X266621Y196595D03*
G54D49*
X329950Y214016D03*
Y237637D03*
M02*
