G04 ================== begin FILE IDENTIFICATION RECORD ==================*
G04 Layout Name:  C:/Cadwork/CircuitCo_MinnowMAX_RevA1/MinnowMax_RevA1.brd*
G04 Film Name:    MinnowMax_lyr7*
G04 File Format:  Gerber RS274X*
G04 File Origin:  Cadence Allegro 16.6-S026*
G04 Origin Date:  Fri May 02 14:12:17 2014*
G04 *
G04 Layer:  VIA CLASS/INT7(H)*
G04 Layer:  PIN/INT7(H)*
G04 Layer:  ETCH/INT7(H)*
G04 Layer:  DRAWING FORMAT/TITLE_BLOCK*
G04 Layer:  BOARD GEOMETRY/PLATING_BAR*
G04 Layer:  BOARD GEOMETRY/TOOLING_CORNERS*
G04 *
G04 Offset:    (0.0000 0.0000)*
G04 Mirror:    No*
G04 Mode:      Positive*
G04 Rotation:  0*
G04 FullContactRelief:  No*
G04 UndefLineWidth:     5.0000*
G04 ================== end FILE IDENTIFICATION RECORD ====================*
%FSLAX45Y45*MOIN*%
%IR0*IPPOS*OFA0.00000B0.00000*MIA0B0*SFA1.00000B1.00000*%
%ADD13O,.07X.18*%
%AMMACRO16*
4,1,36,-.005,0.0,
-.004924,-.000868,
-.004698,-.00171,
-.00433,-.0025,
-.00383,-.003214,
-.003214,-.00383,
-.0025,-.00433,
-.00171,-.004698,
-.000868,-.004924,
0.0,-.005,
.000868,-.004924,
.00171,-.004698,
.0025,-.00433,
.003214,-.00383,
.00383,-.003214,
.00433,-.0025,
.004698,-.00171,
.004924,-.000868,
.005,0.0,
.004924,.000868,
.004698,.00171,
.00433,.0025,
.00383,.003214,
.003214,.00383,
.0025,.00433,
.00171,.004698,
.000868,.004924,
0.0,.005,
-.000868,.004924,
-.00171,.004698,
-.0025,.00433,
-.003214,.00383,
-.00383,.003214,
-.00433,.0025,
-.004698,.00171,
-.004924,.000868,
-.005,0.0,
0.0*
%
%ADD16MACRO16*%
%AMMACRO17*
4,1,36,0.0,-.015,
-.002605,-.014772,
-.00513,-.014095,
-.0075,-.01299,
-.009642,-.011491,
-.011491,-.009642,
-.01299,-.0075,
-.014095,-.00513,
-.014772,-.002605,
-.015,0.0,
-.014772,.002605,
-.014095,.00513,
-.01299,.0075,
-.011491,.009642,
-.009642,.011491,
-.0075,.01299,
-.00513,.014095,
-.002605,.014772,
0.0,.015,
.002605,.014772,
.00513,.014095,
.0075,.01299,
.009642,.011491,
.011491,.009642,
.01299,.0075,
.014095,.00513,
.014772,.002605,
.015,0.0,
.014772,-.002605,
.014095,-.00513,
.01299,-.0075,
.011491,-.009642,
.009642,-.011491,
.0075,-.01299,
.00513,-.014095,
.002605,-.014772,
0.0,-.015,
0.0*
%
%ADD17MACRO17*%
%ADD18C,.05*%
%ADD11C,.06*%
%ADD10C,.016*%
%ADD14R,.058X.058*%
%AMMACRO15*
4,1,36,0.0,-.015,
.002605,-.014772,
.00513,-.014095,
.0075,-.01299,
.009642,-.011491,
.011491,-.009642,
.01299,-.0075,
.014095,-.00513,
.014772,-.002605,
.015,0.0,
.014772,.002605,
.014095,.00513,
.01299,.0075,
.011491,.009642,
.009642,.011491,
.0075,.01299,
.00513,.014095,
.002605,.014772,
0.0,.015,
-.002605,.014772,
-.00513,.014095,
-.0075,.01299,
-.009642,.011491,
-.011491,.009642,
-.01299,.0075,
-.014095,.00513,
-.014772,.002605,
-.015,0.0,
-.014772,-.002605,
-.014095,-.00513,
-.01299,-.0075,
-.011491,-.009642,
-.009642,-.011491,
-.0075,-.01299,
-.00513,-.014095,
-.002605,-.014772,
0.0,-.015,
135.*
%
%ADD15MACRO15*%
%ADD12C,.14*%
%ADD19C,.01*%
%ADD20C,.02*%
%ADD21C,.03*%
%ADD22C,.025*%
%ADD23C,.004*%
%ADD24C,.006*%
%ADD25C,.0062*%
%ADD26C,.008*%
%ADD27C,.0045*%
%ADD28C,.005*%
%ADD29C,.0039*%
%ADD30C,.02*%
%ADD31C,.022*%
G75*
%LPD*%
G75*
G36*
G01X-5000Y-55000D02*
Y-45000D01*
X-15000D01*
Y-40000D01*
X0D01*
Y-55000D01*
X-5000D01*
G37*
G36*
G01X-15000Y335000D02*
X-5000D01*
Y345000D01*
X0D01*
Y330000D01*
X-15000D01*
Y335000D01*
G37*
G36*
G01X15177Y116566D02*
X13621Y118121D01*
X11300Y116000D01*
X13621Y113879D01*
X15177Y115434D01*
G03Y116566I-566J566D01*
G37*
G36*
G01X19500Y70500D02*
X24379D01*
X26439Y68439D01*
G03X28747Y68667I1061J1061D01*
G02X29343Y68746I333J-222D01*
G03X30866Y69000I657J754D01*
G01X35000D01*
X36000Y68000D01*
Y60506D01*
G03Y60494I1000J-6D01*
G01Y49000D01*
X35000Y48000D01*
X28500D01*
X27500Y49000D01*
Y55500D01*
X25500Y57500D01*
X20000D01*
X19000Y58500D01*
Y70000D01*
X19500Y70500D01*
G37*
G36*
G01X29490Y74141D02*
X29066Y74566D01*
X28450Y74000D01*
X29066Y73434D01*
X29490Y73859D01*
G03Y74141I-141J141D01*
G37*
G36*
G01X39500Y45500D02*
Y58000D01*
X40500Y59000D01*
X54000D01*
X55000Y58000D01*
Y42000D01*
X54000Y41000D01*
X44000D01*
X39500Y45500D01*
G37*
G36*
G01X39800Y100400D02*
Y101000D01*
X38965Y101035D01*
X39000Y100200D01*
X39600D01*
G03X39800Y100400I0J200D01*
G37*
G36*
G01X36800D02*
Y101000D01*
X35965Y101035D01*
X36000Y100200D01*
X36600D01*
G03X36800Y100400I0J200D01*
G37*
G36*
G01X32700Y226600D02*
Y226000D01*
X33535Y225965D01*
X33500Y226800D01*
X32900D01*
G03X32700Y226600I0J-200D01*
G37*
G36*
G01X45473Y228618D02*
X45046Y229046D01*
X44431Y228480D01*
X45046Y227914D01*
X45473Y228342D01*
G03Y228618I-138J138D01*
G37*
G36*
G01X32895Y235360D02*
X33500D01*
X33534Y236194D01*
X32700Y236160D01*
Y235555D01*
G03X32895Y235360I195J0D01*
G37*
G36*
G01X34493Y233738D02*
X34066Y234166D01*
X33451Y233600D01*
X34066Y233034D01*
X34493Y233462D01*
G03Y233738I-138J138D01*
G37*
G36*
G01X45260Y230365D02*
Y231040D01*
X44427Y231076D01*
X44438Y230241D01*
X45043Y230171D01*
G03X45260Y230365I22J194D01*
G37*
G36*
G01X45978Y243493D02*
X45066Y244406D01*
X44454Y243857D01*
X44985Y243355D01*
X45841D01*
X45978Y243493D01*
G37*
G36*
G01X34841Y246885D02*
X33985D01*
X33454Y246383D01*
X34066Y245834D01*
X34978Y246747D01*
X34841Y246885D01*
G37*
G36*
G01X45841Y241765D02*
X44985D01*
X44454Y241263D01*
X45066Y240714D01*
X45978Y241627D01*
X45841Y241765D01*
G37*
G36*
G01X34978Y248613D02*
X34066Y249526D01*
X33454Y248977D01*
X33985Y248475D01*
X34841D01*
X34978Y248613D01*
G37*
G36*
G01X56100Y40800D02*
X55500D01*
X55465Y39965D01*
X56300Y40000D01*
Y40600D01*
G03X56100Y40800I-200J0D01*
G37*
G36*
G01X47823Y115434D02*
X49379Y113879D01*
X51700Y116000D01*
X49379Y118121D01*
X47823Y116566D01*
G03Y115434I566J-566D01*
G37*
G36*
G01X52800Y226900D02*
Y227500D01*
X51965Y227535D01*
X52000Y226700D01*
X52600D01*
G03X52800Y226900I0J200D01*
G37*
G36*
G01X54510Y248819D02*
X54934Y248394D01*
X55550Y248960D01*
X54934Y249526D01*
X54510Y249101D01*
G03Y248819I141J-141D01*
G37*
G36*
G01X63800Y100400D02*
Y101000D01*
X62965Y101035D01*
X63000Y100200D01*
X63600D01*
G03X63800Y100400I0J200D01*
G37*
G36*
G01X71600Y188300D02*
X71000D01*
X70965Y187465D01*
X71800Y187500D01*
Y188100D01*
G03X71600Y188300I-200J0D01*
G37*
G36*
G01Y197300D02*
X71000D01*
X70965Y196465D01*
X71800Y196500D01*
Y197100D01*
G03X71600Y197300I-200J0D01*
G37*
G36*
G01X82141Y35510D02*
X82566Y35934D01*
X82000Y36550D01*
X81434Y35934D01*
X81859Y35510D01*
G03X82141I141J141D01*
G37*
G36*
G01X87510Y97359D02*
X87934Y96934D01*
X88550Y97500D01*
X87934Y98066D01*
X87510Y97641D01*
G03Y97359I141J-141D01*
G37*
G36*
G01X86895Y174700D02*
X87500D01*
X87534Y175534D01*
X86700Y175500D01*
Y174895D01*
G03X86895Y174700I195J0D01*
G37*
G36*
G01X85138Y174507D02*
X85566Y174934D01*
X85000Y175549D01*
X84434Y174934D01*
X84862Y174507D01*
G03X85138I138J138D01*
G37*
G36*
G01X83862Y188493D02*
X83434Y188066D01*
X84000Y187451D01*
X84566Y188066D01*
X84138Y188493D01*
G03X83862I-138J-138D01*
G37*
G36*
G01X81800Y186895D02*
Y187500D01*
X80966Y187534D01*
X81000Y186700D01*
X81605D01*
G03X81800Y186895I0J195D01*
G37*
G36*
G01X81859Y194990D02*
X81434Y194566D01*
X82000Y193950D01*
X82566Y194566D01*
X82141Y194990D01*
G03X81859I-141J-141D01*
G37*
G36*
G01X86100Y203800D02*
X85500D01*
X85465Y202965D01*
X86300Y203000D01*
Y203600D01*
G03X86100Y203800I-200J0D01*
G37*
G36*
G01X91000Y29000D02*
X90000Y30000D01*
Y38000D01*
X91000Y39000D01*
X93494D01*
G03X93506I6J1000D01*
G01X97494D01*
G03X97506I6J1000D01*
G01X101494D01*
G03X101506I6J1000D01*
G01X103994D01*
G03X104006I6J1000D01*
G01X108494D01*
G03X108506I6J1000D01*
G01X112494D01*
G03X112506I6J1000D01*
G01X116494D01*
G03X116506I6J1000D01*
G01X118994D01*
G03X119006I6J1000D01*
G01X123494D01*
G03X123506I6J1000D01*
G01X127494D01*
G03X127506I6J1000D01*
G01X131494D01*
G03X131506I6J1000D01*
G01X133994D01*
G03X134006I6J1000D01*
G01X138494D01*
G03X138506I6J1000D01*
G01X140894D01*
G03X140907I6J1000D01*
G01X143494D01*
G03X143506I6J1000D01*
G01X153494D01*
G03X153506I6J1000D01*
G01X157494D01*
G03X157506I6J1000D01*
G01X163000D01*
X164000Y38000D01*
Y30000D01*
X163000Y29000D01*
X161506D01*
G03X161494I-6J-1000D01*
G01X149506D01*
G03X149494I-6J-1000D01*
G01X146506D01*
G03X146494I-6J-1000D01*
G01X131506D01*
G03X131494I-6J-1000D01*
G01X116506D01*
G03X116494I-6J-1000D01*
G01X101506D01*
G03X101494I-6J-1000D01*
G01X91000D01*
G37*
G36*
G01X91010Y42859D02*
X91434Y42434D01*
X92050Y43000D01*
X91434Y43566D01*
X91010Y43141D01*
G03Y42859I141J-141D01*
G37*
G36*
G01X90400Y103800D02*
X90000D01*
X89929Y102929D01*
X90800Y103000D01*
Y103400D01*
G03X90400Y103800I-400J0D01*
G37*
G36*
G01X101800Y146100D02*
Y146500D01*
X100929Y146571D01*
X101000Y145700D01*
X101400D01*
G03X101800Y146100I0J400D01*
G37*
G36*
G01X91849Y157783D02*
X91566Y158066D01*
X90900Y157500D01*
X91566Y156934D01*
X91849Y157217D01*
G03Y157783I-283J283D01*
G37*
G36*
G01X91028Y187586D02*
X91434Y187180D01*
X92047Y187487D01*
X91514Y188037D01*
X91108Y187910D01*
G03X91028Y187586I58J-186D01*
G37*
G36*
G01X89367Y186387D02*
X89609Y187001D01*
X88991Y187548D01*
X88434Y186934D01*
X89048Y186321D01*
G03X89367Y186387I138J138D01*
G37*
G36*
G01X107151Y157217D02*
X107434Y156934D01*
X108100Y157500D01*
X107434Y158066D01*
X107151Y157783D01*
G03Y157217I283J-283D01*
G37*
G36*
G01X112616Y223737D02*
X113483Y224600D01*
X112500Y227550D01*
X111517Y224600D01*
X112384Y223737D01*
G03X112616I116J163D01*
G37*
G36*
G01X126300Y158100D02*
Y158500D01*
X125429Y158571D01*
X125500Y157700D01*
X125900D01*
G03X126300Y158100I0J400D01*
G37*
G36*
G01X126494Y160817D02*
X126236Y161217D01*
X125415Y161052D01*
X125500Y160200D01*
X126158D01*
G03X126494Y160817I0J400D01*
G37*
G36*
G01X154000Y218000D02*
X150000Y222000D01*
X138960D01*
X138923Y222015D01*
G03X138077I-423J-1015D01*
G01X138040Y222000D01*
X122000D01*
X121000Y223000D01*
Y230000D01*
X122000Y231000D01*
X151000D01*
X160000Y222000D01*
X196486D01*
X196514Y221833D01*
G03X198486I986J167D01*
G01X198514Y222000D01*
X221000D01*
X227000Y228000D01*
X251000D01*
X254500Y224500D01*
X268492D01*
G03X268508I8J1500D01*
G01X269500D01*
X270000Y224000D01*
Y221000D01*
X269500Y220500D01*
X238500D01*
X236000Y218000D01*
X154000D01*
G37*
G36*
G01X136850Y115000D02*
X137250Y115400D01*
X137287Y116093D01*
X136450Y116000D01*
Y115000D01*
X136850D01*
G37*
G36*
G01X141700Y116900D02*
Y116000D01*
X142541Y115909D01*
X142500Y116500D01*
X142100Y116900D01*
X141700D01*
G37*
G36*
G01X144200Y116663D02*
Y116000D01*
X145052Y115914D01*
X145220Y116734D01*
X144820Y116997D01*
G03X144200Y116663I-220J-334D01*
G37*
G36*
G01X139619Y114941D02*
X140019Y115304D01*
X139796Y116089D01*
X138950Y116000D01*
Y115237D01*
G03X139619Y114941I400J0D01*
G37*
G36*
G01X142100Y171200D02*
X143000D01*
X143091Y172041D01*
X142500Y172000D01*
X142100Y171600D01*
Y171200D01*
G37*
G36*
G01X142600Y173700D02*
X143000D01*
X143071Y174571D01*
X142200Y174500D01*
Y174100D01*
G03X142600Y173700I400J0D01*
G37*
G36*
G01X133100Y211300D02*
X132500D01*
X132465Y210465D01*
X133300Y210500D01*
Y211100D01*
G03X133100Y211300I-200J0D01*
G37*
G36*
G01X213000Y150000D02*
X212016Y150984D01*
X212030Y151084D01*
G03X210140Y152000I-1088J163D01*
G01X208945D01*
G03X207340I-802J-753D01*
G01X206145D01*
G03X204540I-802J-753D01*
G01X203345D01*
G03X201740I-802J-753D01*
G01X200546D01*
G03X198940I-803J-752D01*
G01X197746D01*
G03X196140I-803J-752D01*
G01X194946D01*
G03X193340I-803J-752D01*
G01X192145D01*
G03X190540I-803J-752D01*
G01X189345D01*
G03X187739I-803J-752D01*
G01X179960D01*
X179923Y152015D01*
G03X179077I-423J-1015D01*
G01X179040Y152000D01*
X175661D01*
G03X174389Y152042I-661J-750D01*
G01X174335Y152000D01*
X174000D01*
X173000Y153000D01*
Y163000D01*
X174000Y164000D01*
X178480D01*
G02X178752Y163307I0J-400D01*
G03X179506Y163600I748J-807D01*
G01X179307Y163601D01*
Y164000D01*
X180000D01*
X180167Y164167D01*
X180206Y164182D01*
G03X181000Y167246I-706J1818D01*
G01Y170000D01*
X182000Y171000D01*
X216622D01*
X216679Y170895D01*
G03X218616I969J521D01*
G01X218673Y171000D01*
X222798D01*
X222855Y170895D01*
G03X224792I968J522D01*
G01X224848Y171000D01*
X225465D01*
X225514Y170873D01*
G03X227973Y170357I1398J545D01*
G01X228616Y171000D01*
X228975D01*
X229032Y170895D01*
G03X230968I968J522D01*
G01X231025Y171000D01*
X232063D01*
X232120Y170895D01*
G03X234056I968J522D01*
G01X234113Y171000D01*
X235151D01*
X235208Y170895D01*
G03X237144I968J522D01*
G01X237201Y171000D01*
X240000D01*
X241000Y170000D01*
Y151000D01*
X240896Y150896D01*
G02X240253Y151004I-283J283D01*
G03X238168Y150433I-989J-481D01*
G02X237769Y150000I-399J-33D01*
G01X237671D01*
G02X237272Y150433I0J400D01*
G03X235080I-1096J90D01*
G02X234681Y150000I-399J-33D01*
G01X234583D01*
G02X234184Y150433I0J400D01*
G03X231992I-1096J90D01*
G02X231593Y150000I-399J-33D01*
G01X231495D01*
G02X231096Y150433I0J400D01*
G03X228904I-1096J90D01*
G02X228505Y150000I-399J-33D01*
G01X228407D01*
G02X228008Y150433I0J400D01*
G03X225816I-1096J90D01*
G02X225417Y150000I-399J-33D01*
G01X225319D01*
G02X224920Y150433I0J400D01*
G03X222728I-1096J90D01*
G02X222329Y150000I-399J-33D01*
G01X222231D01*
G02X221832Y150433I0J400D01*
G03X219640I-1096J90D01*
G02X219241Y150000I-399J-33D01*
G01X219143D01*
G02X218744Y150433I0J400D01*
G03X216552I-1096J90D01*
G02X216153Y150000I-399J-33D01*
G01X213000D01*
G37*
G36*
G01X175990Y205141D02*
X175566Y205566D01*
X174950Y205000D01*
X175566Y204434D01*
X175990Y204859D01*
G03Y205141I-141J141D01*
G37*
G36*
G01X174859Y205990D02*
X174434Y205566D01*
X175000Y204950D01*
X175566Y205566D01*
X175141Y205990D01*
G03X174859I-141J-141D01*
G37*
G36*
G01X171200Y205600D02*
Y205000D01*
X172035Y204965D01*
X172000Y205800D01*
X171400D01*
G03X171200Y205600I0J-200D01*
G37*
G36*
G01X186990Y76141D02*
X186566Y76566D01*
X185950Y76000D01*
X186566Y75434D01*
X186990Y75859D01*
G03Y76141I-141J141D01*
G37*
G36*
G01X181500Y83000D02*
X180500Y84000D01*
Y113420D01*
G03Y115380I-500J980D01*
G01Y116120D01*
G03Y118080I-500J980D01*
G01Y123940D01*
X180515Y123977D01*
G03Y124823I-1015J423D01*
G01X180500Y124860D01*
Y125000D01*
X182750Y127250D01*
Y133750D01*
X185000Y136000D01*
X198630D01*
X198650Y135822D01*
G03X200836I1093J121D01*
G01X200856Y136000D01*
X215748D01*
G02X216148Y135599I0J-400D01*
G03X217648Y134096I1500J-3D01*
G01X227637D01*
X228518Y134977D01*
G02X229121Y134935I283J-283D01*
G03X230898Y134961I879J661D01*
G02X231508Y135013I327J-231D01*
G01X231521Y135000D01*
X237803D01*
X239885Y137082D01*
X241316D01*
G02X241592Y136392I0J-400D01*
G03X242520Y136684I760J-795D01*
G01X242351Y136710D01*
Y137082D01*
X242973D01*
X243391Y137500D01*
X245239D01*
X245256Y137497D01*
G03X245624I184J1085D01*
G01X245640Y137500D01*
X247000D01*
X247246Y137746D01*
G02X247795Y137761I283J-283D01*
G03X249348Y139314I733J820D01*
G02X249364Y139864I298J266D01*
G01X255000Y145500D01*
Y146303D01*
X255200Y146503D01*
Y152997D01*
X255000Y153197D01*
Y154500D01*
X252500Y157000D01*
Y157860D01*
G03Y159644I-643J892D01*
G01Y165659D01*
G03X251126Y167374I-643J892D01*
G01X248000Y170500D01*
Y189000D01*
X250000Y191000D01*
X252483D01*
X252521Y190984D01*
G03X253392I436J1010D01*
G01X253430Y191000D01*
X256383D01*
X256421Y190984D01*
G03X257291I435J1010D01*
G01X257329Y191000D01*
X264643D01*
G02X264954Y190348I0J-400D01*
G03X266663I855J-692D01*
G02X266974Y191000I311J252D01*
G01X267443D01*
G02X267754Y190348I0J-400D01*
G03X269464I855J-692D01*
G02X269774Y191000I311J252D01*
G01X270243D01*
G02X270554Y190348I0J-400D01*
G03X272264I855J-692D01*
G02X272575Y191000I311J252D01*
G01X288000D01*
X297261Y181739D01*
G02X297270Y181183I-283J-283D01*
G03X298683Y179770I730J-683D01*
G02X299239Y179761I273J-292D01*
G01X299500Y179500D01*
Y176000D01*
X299000Y175500D01*
X297000D01*
X291000Y181500D01*
X289006D01*
G03X288994I-6J-1000D01*
G01X286006D01*
G03X285994I-6J-1000D01*
G01X285001D01*
X285000Y181500D01*
X284500D01*
X282000Y184000D01*
X257885D01*
X257829Y184107D01*
G03X255781Y183826I-973J-513D01*
G01X255768Y183768D01*
X255500Y183500D01*
Y179389D01*
G02X254982Y179006I-400J0D01*
G03Y176905I-325J-1051D01*
G02X255500Y176522I118J-382D01*
G01Y175489D01*
G02X254982Y175107I-400J0D01*
G03X255436Y173280I-326J-1051D01*
G02X255719Y173281I142J-141D01*
G01X256000Y173000D01*
X257146D01*
X257172Y172993D01*
G03X257741I284J1063D01*
G01X257766Y173000D01*
X259947D01*
X259972Y172993D01*
G03X260541I284J1063D01*
G01X260566Y173000D01*
X262747D01*
X262772Y172993D01*
G03X263341I284J1063D01*
G01X263366Y173000D01*
X265547D01*
X265572Y172993D01*
G03X266141I284J1063D01*
G01X266166Y173000D01*
X266500D01*
X267500Y172000D01*
Y155980D01*
G03Y154020I500J-980D01*
G01Y123000D01*
X266500Y122000D01*
X203000D01*
X196000Y115000D01*
Y113497D01*
G02X195573Y113098I-400J0D01*
G03Y110902I-73J-1098D01*
G02X196000Y110503I27J-399D01*
G01Y84000D01*
X195000Y83000D01*
X181500D01*
G37*
G36*
G01X196315Y39502D02*
X195825Y39502D01*
X195770Y38647D01*
X196625Y38702D01*
X196625Y39192D01*
G03X196315Y39502I-310J0D01*
G37*
G36*
G01X195700Y230856D02*
Y230000D01*
X196528Y229960D01*
X196575Y230785D01*
X195970Y231036D01*
G03X195700Y230856I-75J-180D01*
G37*
G36*
G01X200200Y233605D02*
Y233000D01*
X201034Y232966D01*
X201000Y233800D01*
X200395D01*
G03X200200Y233605I0J-195D01*
G37*
G36*
G01X202510Y233544D02*
X202710Y232939D01*
X203539Y232971D01*
X203500Y233800D01*
X202695D01*
G03X202510Y233544I0J-195D01*
G37*
G36*
G01X198862Y230993D02*
X198434Y230566D01*
X199000Y229951D01*
X199566Y230566D01*
X199138Y230993D01*
G03X198862I-138J-138D01*
G37*
G36*
G01X203362Y238993D02*
X202934Y238566D01*
X203500Y237951D01*
X204066Y238566D01*
X203638Y238993D01*
G03X203362I-138J-138D01*
G37*
G36*
G01X212375Y19311D02*
Y19801D01*
X211520Y19856D01*
X211575Y19001D01*
X212065D01*
G03X212375Y19311I0J310D01*
G37*
G36*
G01Y16161D02*
Y16651D01*
X211520Y16706D01*
X211575Y15851D01*
X212065D01*
G03X212375Y16161I0J310D01*
G37*
G36*
G01Y13011D02*
Y13501D01*
X211520Y13556D01*
X211575Y12701D01*
X212065D01*
G03X212375Y13011I0J310D01*
G37*
G36*
G01Y28761D02*
Y29251D01*
X211520Y29306D01*
X211575Y28451D01*
X212065D01*
G03X212375Y28761I0J310D01*
G37*
G36*
G01Y25611D02*
Y26101D01*
X211520Y26156D01*
X211575Y25301D01*
X212065D01*
G03X212375Y25611I0J310D01*
G37*
G36*
G01Y22461D02*
Y22951D01*
X211520Y23006D01*
X211575Y22151D01*
X212065D01*
G03X212375Y22461I0J310D01*
G37*
G36*
G01Y31911D02*
Y32401D01*
X211520Y32456D01*
X211575Y31601D01*
X212065D01*
G03X212375Y31911I0J310D01*
G37*
G36*
G01Y38211D02*
Y38701D01*
X211520Y38756D01*
X211575Y37901D01*
X212065D01*
G03X212375Y38211I0J310D01*
G37*
G36*
G01X207513Y47932D02*
X207859Y47585D01*
X208503Y48151D01*
X207859Y48717D01*
X207513Y48370D01*
G03Y47932I219J-219D01*
G37*
G36*
G01X212680Y45631D02*
X211982Y45632D01*
X211522Y44982D01*
X212141Y44549D01*
X212839Y45247D01*
G03X212680Y45631I-159J159D01*
G37*
G36*
G01X209397Y45160D02*
X208991Y45567D01*
X208369Y45001D01*
X208991Y44435D01*
X209397Y44842D01*
G03Y45160I-159J159D01*
G37*
G36*
G01X212065Y42651D02*
X211575D01*
X211520Y41796D01*
X212375Y41851D01*
Y42341D01*
G03X212065Y42651I-310J0D01*
G37*
G36*
G01X206050Y194656D02*
X206478Y194228D01*
X207093Y194794D01*
X206478Y195360D01*
X206050Y194932D01*
G03Y194656I138J-138D01*
G37*
G36*
G01X210338Y188394D02*
X210943D01*
X210978Y189229D01*
X210143Y189194D01*
Y188589D01*
G03X210338Y188394I195J0D01*
G37*
G36*
G01X210143Y186999D02*
Y186394D01*
X210978Y186360D01*
X210943Y187194D01*
X210338D01*
G03X210143Y186999I0J-195D01*
G37*
G36*
G01X207182Y196636D02*
X207574Y197028D01*
X207044Y197643D01*
X206514Y197028D01*
X206906Y196636D01*
G03X207182I138J138D01*
G37*
G36*
G01X205200Y238605D02*
Y238000D01*
X206034Y237966D01*
X206000Y238800D01*
X205395D01*
G03X205200Y238605I0J-195D01*
G37*
G36*
G01X208862Y238993D02*
X208434Y238566D01*
X209000Y237951D01*
X209566Y238566D01*
X209138Y238993D01*
G03X208862I-138J-138D01*
G37*
G36*
G01X210700Y238605D02*
Y238000D01*
X211534Y237966D01*
X211500Y238800D01*
X210895D01*
G03X210700Y238605I0J-195D01*
G37*
G36*
G01X216403Y250728D02*
X215566Y251566D01*
X214954Y251015D01*
X215432Y250377D01*
X216270Y250395D01*
G03X216403Y250728I-4J195D01*
G37*
G36*
G01X213993Y249138D02*
X213566Y249566D01*
X212951Y249000D01*
X213566Y248434D01*
X213993Y248862D01*
G03Y249138I-138J138D01*
G37*
G36*
G01X226500Y140000D02*
X226000Y140500D01*
Y143142D01*
G02X226536Y143518I400J0D01*
G03X227935Y144954I375J1034D01*
G02X228308Y145500I372J146D01*
G01X228603D01*
G02X228976Y144954I0J-400D01*
G03X231024I1024J-401D01*
G02X231397Y145500I372J146D01*
G01X231692D01*
G02X232064Y144954I0J-400D01*
G03X234112I1024J-402D01*
G02X234484Y145500I372J146D01*
G01X237867D01*
G02X238240Y144954I0J-400D01*
G03X240288I1024J-401D01*
G02X240661Y145500I372J146D01*
G01X246000D01*
X247000Y144500D01*
Y142000D01*
X246511Y141511D01*
X228814D01*
X227303Y140000D01*
X226500D01*
G37*
G36*
G01X222485Y193800D02*
X222913Y194228D01*
X222347Y194843D01*
X221781Y194228D01*
X222209Y193800D01*
G03X222485I138J138D01*
G37*
G36*
G01X221755Y196754D02*
X222360Y196794D01*
X222381Y197629D01*
X221548Y197593D01*
Y196949D01*
G03X221755Y196754I195J0D01*
G37*
G36*
G01X228610Y253469D02*
X227950D01*
X227435Y252981D01*
X228046Y252630D01*
X228748Y253332D01*
X228610Y253469D01*
G37*
G36*
G01X230768Y252007D02*
X231196Y252434D01*
X230630Y253049D01*
X230064Y252434D01*
X230492Y252007D01*
G03X230768I138J138D01*
G37*
G36*
G01X246925Y54200D02*
X247500D01*
X247540Y55040D01*
X246700Y55000D01*
Y54425D01*
G03X246925Y54200I225J0D01*
G37*
G36*
G01X248472Y55159D02*
X248066Y55566D01*
X247444Y55000D01*
X248066Y54434D01*
X248472Y54841D01*
G03Y55159I-159J159D01*
G37*
G36*
G01X245472D02*
X245066Y55566D01*
X244444Y55000D01*
X245066Y54434D01*
X245472Y54841D01*
G03Y55159I-159J159D01*
G37*
G36*
G01X243925Y54200D02*
X244500D01*
X244540Y55040D01*
X243700Y55000D01*
Y54425D01*
G03X243925Y54200I225J0D01*
G37*
G36*
G01X247958Y150448D02*
X249057D01*
X249150Y151282D01*
X248358Y151248D01*
X247958Y150848D01*
Y150448D01*
G37*
G36*
G01X257490Y20800D02*
X257000D01*
X256945Y19945D01*
X257800Y20000D01*
Y20490D01*
G03X257490Y20800I-310J0D01*
G37*
G36*
G01X256088Y19781D02*
X256434Y19434D01*
X257078Y20000D01*
X256434Y20566D01*
X256088Y20219D01*
G03Y19781I219J-219D01*
G37*
G36*
G01X257490Y16800D02*
X257000D01*
X256945Y15945D01*
X257800Y16000D01*
Y16490D01*
G03X257490Y16800I-310J0D01*
G37*
G36*
G01X256088Y15781D02*
X256434Y15434D01*
X257078Y16000D01*
X256434Y16566D01*
X256088Y16219D01*
G03Y15781I219J-219D01*
G37*
G36*
G01X257490Y12800D02*
X257000D01*
X256945Y11945D01*
X257800Y12000D01*
Y12490D01*
G03X257490Y12800I-310J0D01*
G37*
G36*
G01X256088Y11781D02*
X256434Y11434D01*
X257078Y12000D01*
X256434Y12566D01*
X256088Y12219D01*
G03Y11781I219J-219D01*
G37*
G36*
G01X257800Y31510D02*
Y32000D01*
X256945Y32055D01*
X257000Y31200D01*
X257490D01*
G03X257800Y31510I0J310D01*
G37*
G36*
G01X256510Y31200D02*
X257000D01*
X257055Y32055D01*
X256200Y32000D01*
Y31510D01*
G03X256510Y31200I310J0D01*
G37*
G36*
G01X257800Y27510D02*
Y28000D01*
X256945Y28055D01*
X257000Y27200D01*
X257490D01*
G03X257800Y27510I0J310D01*
G37*
G36*
G01X256510Y27200D02*
X257000D01*
X257055Y28055D01*
X256200Y28000D01*
Y27510D01*
G03X256510Y27200I310J0D01*
G37*
G36*
G01X257912Y24219D02*
X257566Y24566D01*
X256922Y24000D01*
X257566Y23434D01*
X257912Y23781D01*
G03Y24219I-219J219D01*
G37*
G36*
G01X256510Y23200D02*
X257000D01*
X257055Y24055D01*
X256200Y24000D01*
Y23510D01*
G03X256510Y23200I310J0D01*
G37*
G36*
G01X257800Y35510D02*
Y36000D01*
X256945Y36055D01*
X257000Y35200D01*
X257490D01*
G03X257800Y35510I0J310D01*
G37*
G36*
G01X256510Y35200D02*
X257000D01*
X257055Y36055D01*
X256200Y36000D01*
Y35510D01*
G03X256510Y35200I310J0D01*
G37*
G36*
G01X257800Y43510D02*
Y44000D01*
X256945Y44055D01*
X257000Y43200D01*
X257490D01*
G03X257800Y43510I0J310D01*
G37*
G36*
G01X256510Y43200D02*
X257000D01*
X257055Y44055D01*
X256200Y44000D01*
Y43510D01*
G03X256510Y43200I310J0D01*
G37*
G36*
G01X251300Y47510D02*
Y48000D01*
X250445Y48055D01*
X250500Y47200D01*
X250990D01*
G03X251300Y47510I0J310D01*
G37*
G36*
G01X250010Y47200D02*
X250500D01*
X250555Y48055D01*
X249700Y48000D01*
Y47510D01*
G03X250010Y47200I310J0D01*
G37*
G36*
G01X251457Y150448D02*
X251857D01*
X251927Y151319D01*
X251057Y151248D01*
Y150848D01*
G03X251457Y150448I400J0D01*
G37*
G36*
G01X257159Y176526D02*
X258023Y177390D01*
X257476Y178008D01*
X257000Y177499D01*
Y176685D01*
X257159Y176526D01*
G37*
G36*
G01X261056Y177381D02*
Y177956D01*
X260217Y177996D01*
X260256Y177156D01*
X260831D01*
G03X261056Y177381I0J225D01*
G37*
G36*
G01X262659Y180326D02*
X263622Y181290D01*
X263078Y181907D01*
X262500Y181299D01*
Y180486D01*
X262659Y180326D01*
G37*
G36*
G01X257828Y194953D02*
X257421Y195360D01*
X256799Y194794D01*
X257421Y194228D01*
X257828Y194635D01*
G03Y194953I-159J159D01*
G37*
G36*
G01X257015Y196622D02*
X257421Y197028D01*
X256856Y197650D01*
X256290Y197028D01*
X256697Y196622D01*
G03X257015I159J159D01*
G37*
G36*
G01X256792Y264455D02*
X256619Y265055D01*
X255787Y265031D01*
X255827Y264200D01*
X256600D01*
G03X256792Y264455I0J200D01*
G37*
G36*
G01X266657Y181280D02*
Y181855D01*
X265817Y181895D01*
X265857Y181055D01*
X266432D01*
G03X266657Y181280I0J225D01*
G37*
G36*
G01X268677Y198219D02*
Y198794D01*
X267837Y198834D01*
X267877Y197994D01*
X268452D01*
G03X268677Y198219I0J225D01*
G37*
G36*
G01X271113Y201523D02*
X270300D01*
X269708Y200962D01*
X270326Y200417D01*
X271273Y201364D01*
X271113Y201523D01*
G37*
G36*
G01X277400Y217200D02*
X278000D01*
X278035Y218035D01*
X277200Y218000D01*
Y217400D01*
G03X277400Y217200I200J0D01*
G37*
G36*
G01X286700Y253600D02*
Y253000D01*
X287535Y252965D01*
X287500Y253800D01*
X286900D01*
G03X286700Y253600I0J-200D01*
G37*
G36*
G01X298585Y19001D02*
X299075D01*
X299130Y19856D01*
X298275Y19801D01*
Y19311D01*
G03X298585Y19001I310J0D01*
G37*
G36*
G01Y15851D02*
X299075D01*
X299130Y16706D01*
X298275Y16651D01*
Y16161D01*
G03X298585Y15851I310J0D01*
G37*
G36*
G01Y12701D02*
X299075D01*
X299130Y13556D01*
X298275Y13501D01*
Y13011D01*
G03X298585Y12701I310J0D01*
G37*
G36*
G01Y28451D02*
X299075D01*
X299130Y29306D01*
X298275Y29251D01*
Y28761D01*
G03X298585Y28451I310J0D01*
G37*
G36*
G01Y25301D02*
X299075D01*
X299130Y26156D01*
X298275Y26101D01*
Y25611D01*
G03X298585Y25301I310J0D01*
G37*
G36*
G01Y22151D02*
X299075D01*
X299130Y23006D01*
X298275Y22951D01*
Y22461D01*
G03X298585Y22151I310J0D01*
G37*
G36*
G01Y31601D02*
X299075D01*
X299130Y32456D01*
X298275Y32401D01*
Y31911D01*
G03X298585Y31601I310J0D01*
G37*
G36*
G01Y37901D02*
X299075D01*
X299130Y38756D01*
X298275Y38701D01*
Y38211D01*
G03X298585Y37901I310J0D01*
G37*
G36*
G01X296725Y47661D02*
Y48151D01*
X295870Y48206D01*
X295925Y47351D01*
X296415D01*
G03X296725Y47661I0J310D01*
G37*
G36*
G01X298500Y44201D02*
X299075D01*
X299115Y45041D01*
X298275Y45001D01*
Y44426D01*
G03X298500Y44201I225J0D01*
G37*
G36*
G01X294953Y44842D02*
X295359Y44435D01*
X295981Y45001D01*
X295359Y45567D01*
X294953Y45160D01*
G03Y44842I159J-159D01*
G37*
G36*
G01X298585Y41051D02*
X299075D01*
X299130Y41906D01*
X298275Y41851D01*
Y41361D01*
G03X298585Y41051I310J0D01*
G37*
G36*
G01X297200Y208100D02*
Y207500D01*
X298035Y207465D01*
X298000Y208300D01*
X297400D01*
G03X297200Y208100I0J-200D01*
G37*
G36*
G01X297400Y232700D02*
X298000D01*
X298035Y233535D01*
X297200Y233500D01*
Y232900D01*
G03X297400Y232700I200J0D01*
G37*
G36*
G01Y235200D02*
X298000D01*
X298035Y236035D01*
X297200Y236000D01*
Y235400D01*
G03X297400Y235200I200J0D01*
G37*
G36*
G01X310873Y39191D02*
Y38701D01*
X311728Y38646D01*
X311673Y39501D01*
X311183D01*
G03X310873Y39191I0J-310D01*
G37*
G36*
G01X316400Y89200D02*
X317000D01*
X317035Y90035D01*
X316200Y90000D01*
Y89400D01*
G03X316400Y89200I200J0D01*
G37*
G36*
G01Y84200D02*
X317000D01*
X317035Y85035D01*
X316200Y85000D01*
Y84400D01*
G03X316400Y84200I200J0D01*
G37*
G36*
G01X307891Y142522D02*
X307434Y142066D01*
X307997Y141444D01*
X308584Y142045D01*
X308227Y142502D01*
G03X307891Y142522I-177J-138D01*
G37*
G36*
G01X308575Y139300D02*
X308000D01*
X307960Y138460D01*
X308800Y138500D01*
Y139075D01*
G03X308575Y139300I-225J0D01*
G37*
G36*
G01Y151800D02*
X308000D01*
X307960Y150960D01*
X308800Y151000D01*
Y151575D01*
G03X308575Y151800I-225J0D01*
G37*
G36*
G01X307916Y155047D02*
X307434Y154566D01*
X307995Y153944D01*
X308592Y154534D01*
X308260Y155016D01*
G03X307916Y155047I-185J-128D01*
G37*
G36*
G01X309200Y192575D02*
Y192000D01*
X310040Y191960D01*
X310000Y192800D01*
X309425D01*
G03X309200Y192575I0J-225D01*
G37*
G36*
G01X312425Y191200D02*
X313000D01*
X313040Y192040D01*
X312200Y192000D01*
Y191425D01*
G03X312425Y191200I225J0D01*
G37*
G36*
G01X316200Y185575D02*
Y184500D01*
X317027Y184450D01*
X317148Y185245D01*
X316573Y185745D01*
G03X316200Y185575I-148J-170D01*
G37*
G36*
G01X319200Y185075D02*
Y184500D01*
X320040Y184460D01*
X320000Y185300D01*
X319425D01*
G03X319200Y185075I0J-225D01*
G37*
G36*
G01X353000Y63000D02*
X354000Y64000D01*
X361000D01*
X362000Y63000D01*
Y50500D01*
X360500Y49000D01*
X330000D01*
X329000Y50000D01*
Y57000D01*
X330000Y58000D01*
X352000D01*
X353000Y59000D01*
Y63000D01*
G37*
G36*
G01X345900Y60300D02*
X345500D01*
X345429Y59429D01*
X346300Y59500D01*
Y59900D01*
G03X345900Y60300I-400J0D01*
G37*
G36*
G01X344900Y77200D02*
X345500D01*
X345535Y78035D01*
X344700Y78000D01*
Y77400D01*
G03X344900Y77200I200J0D01*
G37*
G36*
G01X347400D02*
X348000D01*
X348035Y78035D01*
X347200Y78000D01*
Y77400D01*
G03X347400Y77200I200J0D01*
G37*
G36*
G01X347337Y143251D02*
X348539Y144453D01*
X346772Y146420D01*
X345004Y144453D01*
X346206Y143251D01*
G03X347337I566J566D01*
G37*
G36*
G01X350200Y59900D02*
Y59500D01*
X351071Y59429D01*
X351000Y60300D01*
X350600D01*
G03X350200Y59900I0J-400D01*
G37*
G36*
G01X350400Y77200D02*
X351000D01*
X351035Y78035D01*
X350200Y78000D01*
Y77400D01*
G03X350400Y77200I200J0D01*
G37*
G36*
G01X820000Y-45000D02*
X810000D01*
Y-55000D01*
X805000D01*
Y-40000D01*
X820000D01*
Y-45000D01*
G37*
G36*
G01X810000Y345000D02*
Y335000D01*
X820000D01*
Y330000D01*
X805000D01*
Y345000D01*
X810000D01*
G37*
%LPC*%
G75*
G36*
G01X201352Y163153D02*
G02X201256Y161911I856J-691D01*
G03X200599Y161962I-346J-201D01*
G02X200695Y163204I-856J691D01*
G03X201352Y163153I346J201D01*
G37*
G36*
G01X180108Y155917D02*
G02X178892I-608J-917D01*
G03Y156583I-221J333D01*
G02X180108I608J917D01*
G03Y155917I221J-333D01*
G37*
G36*
G01X258737Y131385D02*
G02Y132704I-880J660D01*
G03X259377I320J240D01*
G02Y131385I880J-660D01*
G03X258737I-320J-240D01*
G37*
G36*
G01X258641Y162072D02*
G02Y163231I-935J579D01*
G03X259321I340J211D01*
G02Y162072I935J-579D01*
G03X258641I-340J-211D01*
G37*
G36*
G01X193506Y99900D02*
G03X193494I-13J-200D01*
G02X193506I6J1100D01*
G37*
G36*
G01X190506D02*
G03X190494I-13J-200D01*
G02X190506I6J1100D01*
G37*
G36*
G01X193506Y99500D02*
G02X193494I-6J-1000D01*
G03X193506Y99500I-1J200D01*
G37*
G36*
G01X190506Y99500D02*
G02X190494I-6J-1000D01*
G03X190506Y99500I-1J200D01*
G37*
G54D30*
X30000Y64500D03*
Y67000D03*
X93500Y37000D03*
X101500D03*
X108500D03*
X116500D03*
X123500D03*
X131500D03*
X146500D03*
X138500D03*
X153500D03*
X161500D03*
X131630Y227000D03*
X138500Y224000D03*
X152000Y224006D03*
X241000Y222000D03*
Y226000D03*
X250000D03*
X175000Y153750D03*
X190500Y91000D03*
Y93500D03*
Y96000D03*
X193500Y91000D03*
Y93500D03*
Y96000D03*
X286000Y183000D03*
X289000Y184500D03*
G54D31*
X138500Y227000D03*
X188542Y158752D03*
X188543Y166552D03*
X194143Y158752D03*
X191342D03*
X194143Y166551D03*
X199743Y158752D03*
X196943Y166551D03*
X199742Y166552D03*
X196943Y158752D03*
X191493Y166551D03*
X202830Y166552D03*
X202543Y158752D03*
X214560Y153508D03*
Y159478D03*
X211472Y162462D03*
X214560Y156492D03*
Y162462D03*
X211472Y156492D03*
Y165448D03*
X217648Y162462D03*
X211472Y159478D03*
Y168432D03*
X214560D03*
X217648D03*
X226912Y153508D03*
X223824Y162462D03*
X226912Y159478D03*
X220736D03*
X223824D03*
X233088D03*
X230000D03*
X223824Y153508D03*
X226912Y162462D03*
X230000D03*
X220736Y153508D03*
X230000D03*
X233088Y162462D03*
X220736D03*
X233088Y153508D03*
X220736Y156492D03*
X223824D03*
X230000Y168432D03*
X233088D03*
X223823D03*
X236176Y159478D03*
Y153508D03*
X239264Y165447D03*
X239264Y153508D03*
X236176Y162462D03*
Y168432D03*
X182806Y103868D03*
X190143Y113185D03*
X187953Y111302D03*
X188542Y124244D03*
X188543Y132044D03*
X199500Y120800D03*
X191500Y120500D03*
X203500Y126500D03*
X196943Y124244D03*
X205343Y132044D03*
X202543D03*
X199743D03*
X210943Y123606D03*
X214018Y132021D03*
X208143Y132044D03*
X210943Y132006D03*
X233752Y123606D03*
X226248D03*
X233752Y129391D03*
X222348Y129206D03*
X233752Y126406D03*
X222350Y126500D03*
X237652Y123606D03*
X249057D03*
X241551D03*
X237652Y129205D03*
X237652Y126406D03*
X249057Y129206D03*
X241552Y129205D03*
Y126405D03*
X249056Y132006D03*
X245440Y132612D03*
X241552Y132006D03*
X249057Y126405D03*
X256856Y123606D03*
X252756Y129206D03*
X252956Y126406D03*
X251857Y132044D03*
Y135944D03*
X263057Y128144D03*
X260257D03*
X263057Y124244D03*
X260257Y124244D03*
X256856Y126406D03*
X263057Y132044D03*
X260257Y135951D03*
X263057Y135944D03*
X254658Y135951D03*
X255057Y132044D03*
X257557Y135951D03*
X263057Y147348D03*
X260257Y147348D03*
X257457Y151248D03*
X263057Y158751D03*
X260257Y158752D03*
X254657D03*
X257457D03*
X263057Y162652D03*
X260256Y166552D03*
X263057D03*
X257456D03*
X252956Y180794D03*
Y183594D03*
X263057Y185756D03*
X260256D03*
X252956Y186394D03*
X265857Y128144D03*
Y124244D03*
X265856Y135951D03*
X265857Y132044D03*
Y143448D03*
Y151247D03*
Y158751D03*
Y166552D03*
Y162652D03*
Y185756D03*
X268657D03*
X271457D03*
X283000Y186000D03*
X286000Y186250D03*
X280000Y186000D03*
%LPD*%
G75*
G54D10*
G01X68500Y24500D02*
X66500Y26500D01*
X27000D01*
X14500Y39000D01*
Y48000D01*
G01X9500Y69500D02*
X12000Y72000D01*
X25000D01*
X27500Y69500D01*
G01X51500Y116000D02*
X11500D01*
G01X142000Y272000D02*
X139000Y275000D01*
X44000D01*
X26500Y257500D01*
Y224500D01*
X20870Y218870D01*
X16000D01*
G01X59000Y272500D02*
X75500D01*
X78000Y270000D01*
X85000D01*
X91000Y264000D01*
X122500D01*
X126000Y260500D01*
G01X70000Y43000D02*
Y26000D01*
X68500Y24500D01*
G01X104000Y46000D02*
X101500Y48500D01*
X84500D01*
X82000Y46000D01*
G01X112500Y55000D02*
X115000Y52500D01*
X132000D01*
X134500Y50000D01*
X151500D01*
X154500Y47000D01*
X174000D01*
X176500Y44500D01*
Y42500D01*
G01X126000Y260500D02*
X143500D01*
X163000Y280000D01*
X252500D01*
X254500Y282000D01*
G01X181000Y224000D02*
X183500D01*
G01D02*
X218000D01*
G01X217648Y135596D02*
X227016D01*
X230031Y138611D01*
G01X218000Y211000D02*
Y209000D01*
X229000Y198000D01*
Y173506D01*
X226912Y171418D01*
G01X230031Y138611D02*
X232143Y136500D01*
X237182D01*
X239264Y138582D01*
G01D02*
X242351D01*
X242352Y138582D01*
G01X256500Y230000D02*
Y229500D01*
X258000Y228000D01*
X266500D01*
X268500Y226000D01*
G01X276500Y282000D02*
X274500Y280000D01*
X256500D01*
X254500Y282000D01*
G01X309500D02*
X307500Y280000D01*
X278500D01*
X276500Y282000D01*
G01X346772Y146220D02*
Y142420D01*
X344851Y140500D01*
X328500D01*
X323500Y135500D01*
X311500D01*
X14500Y48000D03*
X9500Y69500D03*
X16000Y218870D03*
X30500Y49500D03*
X20000Y62000D03*
X27500Y60000D03*
X29000Y58500D03*
X30500Y57000D03*
X22250Y62000D03*
Y64500D03*
X30500Y54500D03*
Y52000D03*
X28500Y74000D03*
X27500Y69500D03*
X22250Y67000D03*
Y69500D03*
X17500Y132000D03*
X40500Y46000D03*
X43700Y43000D03*
Y46000D03*
Y49000D03*
X40500Y58000D03*
X43700D03*
Y52000D03*
X40500D03*
X43700Y55000D03*
X32750Y52000D03*
X35000D03*
X39000Y101000D03*
X36000D03*
X33500Y226000D03*
X44480Y228480D03*
X33500Y236160D03*
Y233600D03*
X44460Y231040D03*
X44500Y243840D03*
X33500Y246400D03*
X44500Y241280D03*
X33500Y248960D03*
X55500Y40000D03*
X54000Y43000D03*
Y46000D03*
Y49000D03*
Y52000D03*
Y55000D03*
X52000Y227500D03*
X55500Y248960D03*
X59000Y272500D03*
X68500Y24500D03*
X70000Y43000D03*
X63000Y101000D03*
X71000Y196500D03*
Y187500D03*
X82000Y36500D03*
Y46000D03*
X88500Y97500D03*
X87500Y175500D03*
X85000D03*
X84000Y187500D03*
X81000D03*
X89000D03*
X82000Y194000D03*
X85500Y203000D03*
X97500Y37000D03*
X92000Y43000D03*
X104000Y46000D03*
X90000Y103000D03*
X90000Y106000D03*
X101000Y146500D03*
X103500D03*
X91000Y157500D03*
X93000Y196500D03*
X92000Y187500D03*
X112500Y37000D03*
Y55000D03*
X108000Y157500D03*
X127500Y37000D03*
X125500Y158500D03*
Y161000D03*
X132500Y210500D03*
X126000Y260500D03*
X142500Y37000D03*
X137250Y116000D03*
X142500D03*
X145000D03*
X139750D03*
X141500Y161500D03*
X143000Y172000D03*
Y174500D03*
X142000Y272000D03*
X157500Y37000D03*
X149500Y165500D03*
Y168000D03*
X161000Y201500D03*
Y224000D03*
Y227000D03*
X176500Y42500D03*
X175000Y161250D03*
Y158750D03*
Y205000D03*
X172000D03*
X186000Y76000D03*
X183000Y89000D03*
Y86500D03*
X179500Y166000D03*
X181000Y224000D03*
X183500D03*
X195825Y38702D03*
Y41851D03*
X196500Y230000D03*
X201000Y233000D03*
X203500D03*
X199000Y230000D03*
X203500Y238000D03*
X211575Y19801D03*
Y16651D03*
Y13501D03*
Y10351D03*
Y29251D03*
Y26101D03*
Y22951D03*
Y32401D03*
Y35551D03*
Y38701D03*
X208425Y48151D03*
X211575Y45001D03*
X208425D03*
X211575Y41851D03*
Y48151D03*
X217648Y135596D03*
X214588Y150500D03*
X207044Y194794D03*
X210943Y189194D03*
Y186394D03*
X207044Y197594D03*
X218000Y211000D03*
Y224000D03*
X206000Y238000D03*
X209000D03*
X211500D03*
X215000Y251000D03*
X213000Y249000D03*
X230031Y138611D03*
X226911Y141566D03*
X226912Y168432D03*
Y171418D03*
X222347Y194794D03*
X222348Y197593D03*
X223000Y230000D03*
X232000Y226000D03*
X227480Y253000D03*
X230630D03*
X247500Y55000D03*
X244500D03*
X239264Y138582D03*
X242352Y138582D03*
X242351Y144552D03*
X245500Y144500D03*
X236176Y144552D03*
X249057Y151248D03*
Y166551D03*
X239264Y162462D03*
X257000Y20000D03*
Y16000D03*
Y12000D03*
X250500Y8000D03*
X257000Y32000D03*
Y28000D03*
Y24000D03*
Y36000D03*
Y44000D03*
Y40000D03*
X250500Y48000D03*
X257000Y55000D03*
X251857Y151248D03*
X254657Y166551D03*
X257457Y177956D03*
X260256Y177956D03*
X263057Y181855D03*
X251856Y174056D03*
X256856Y194794D03*
Y197594D03*
X250000Y222000D03*
Y230000D03*
X256500D03*
X255827Y265000D03*
X261000Y270000D03*
X254500Y282000D03*
X265857Y181855D03*
X267877Y198794D03*
X269761Y200983D03*
X268500Y222000D03*
X278000Y218000D03*
X268500Y226000D03*
X276500Y282000D03*
X287500Y253000D03*
X299075Y19801D03*
Y16651D03*
Y13501D03*
Y10351D03*
Y29251D03*
Y26101D03*
Y22951D03*
Y32401D03*
Y35551D03*
Y38701D03*
X295925Y48151D03*
X299075Y45001D03*
X295925D03*
X299075Y41851D03*
Y48151D03*
X298000Y176500D03*
Y207500D03*
Y233500D03*
Y236000D03*
X296500Y270000D03*
X311673Y38701D03*
Y41850D03*
X317000Y90000D03*
Y85000D03*
X308000Y138500D03*
X311500Y135500D03*
X308000Y141500D03*
Y151000D03*
Y154000D03*
X310000Y192000D03*
X313000D03*
X317000Y184500D03*
X320000D03*
X309500Y282000D03*
X330000Y55500D03*
X332500D03*
X335000D03*
X330000Y53000D03*
X335000D03*
X332500D03*
X337500Y50500D03*
X351000Y59500D03*
X345500D03*
X337500Y55500D03*
Y53000D03*
X345500Y78000D03*
X348000D03*
X351000D03*
X361000Y56500D03*
Y59500D03*
X355000Y56500D03*
Y59500D03*
X374500Y247500D03*
G54D20*
G01X-510Y442210D02*
Y359710D01*
X306990D01*
Y442210D01*
X-510D01*
G01X93000Y196500D02*
X95000Y198500D01*
X105944D01*
X106444Y199000D01*
X109500D01*
X110000Y198500D01*
X123500D01*
X127000Y202000D01*
X148500D01*
X150000Y200500D01*
X158000D01*
X159000Y201500D01*
X161000D01*
G01X89490Y442210D02*
Y359710D01*
G01Y387210D02*
X306990D01*
G01X89490Y414710D02*
X306990D01*
G01X166990D02*
Y387210D01*
G54D11*
X11500Y116000D03*
X51500D03*
G54D21*
G01X22500Y402500D02*
Y397500D01*
G01D02*
X26250Y393750D01*
X31250D01*
G01X27500D02*
X36250D01*
G01X31250Y406250D02*
X26250D01*
G01D02*
X22500Y402500D01*
G01X36250Y397500D02*
X48750D01*
G01X36250Y400000D02*
X42500Y406250D01*
G01X36250Y393750D02*
Y400000D01*
G01X42500Y406250D02*
X48750Y400000D01*
G01D02*
Y393750D01*
G01D02*
X56250D01*
G01X53750Y406250D02*
Y393750D01*
G01X58750D02*
X62500Y397500D01*
G01X53750Y393750D02*
X58750D01*
G01X55000Y406250D02*
X51250D01*
G01X58750D02*
X53750D01*
G01X62500Y402500D02*
X58750Y406250D01*
G01X62500Y397500D02*
Y402500D01*
G54D12*
X27500Y150000D03*
Y195000D03*
G54D22*
G01X149500Y165500D02*
X145500D01*
X141500Y161500D01*
G01X149500Y165500D02*
Y168000D01*
G01X179500Y166000D02*
X177050D01*
X172050Y171000D01*
X154950D01*
X151950Y168000D01*
X149500D01*
G01X161000Y227000D02*
Y224000D01*
G01X223000Y230000D02*
X221268Y231732D01*
X214232D01*
X209500Y227000D01*
X161000D01*
G01X250000Y230000D02*
X245500D01*
X243000Y232500D01*
X225500D01*
X223000Y230000D01*
G01X250000D02*
X252450D01*
X255450Y233000D01*
X278000D01*
X290000Y245000D01*
X303000D01*
X306000Y248000D01*
X318000D01*
X321000Y245000D01*
X372000D01*
X374500Y247500D01*
G54D13*
X48500Y50000D03*
G54D23*
G01X28500Y74000D02*
X32500D01*
X41500Y65000D01*
X138500D01*
X141000Y62500D01*
X156000D01*
X164500Y71000D01*
X326000D01*
X329500Y74500D01*
X344500D01*
X348000Y78000D01*
G01X55500Y248960D02*
X46960D01*
X41000Y243000D01*
X34000D01*
X29500Y238500D01*
Y230000D01*
X33500Y226000D01*
G01X39000Y101000D02*
X42000Y98000D01*
X61000D01*
X64000Y95000D01*
X144500D01*
X158000Y81500D01*
X308500D01*
X317000Y90000D01*
G01Y85000D02*
X312000Y80000D01*
X157000D01*
X143500Y93500D01*
X93500D01*
X92000Y92000D01*
X63000D01*
X60000Y95000D01*
X42000D01*
X36000Y101000D01*
G01X55500Y40000D02*
X60500Y45000D01*
X77500D01*
X79500Y43000D01*
X92000D01*
G01X112500Y227500D02*
Y223900D01*
X108600Y220000D01*
X100000D01*
X98000Y218000D01*
X75000D01*
X73000Y220000D01*
X59500D01*
X52000Y227500D01*
G01X88500Y97500D02*
X66500D01*
X63000Y101000D01*
G01X172000Y205000D02*
X170000Y207000D01*
X163000D01*
X161000Y205000D01*
X98500D01*
X96000Y202500D01*
X90000D01*
X84500Y197000D01*
Y193887D01*
X83008Y192395D01*
X75895D01*
X71000Y187500D01*
G01X298000Y233500D02*
X296500Y232000D01*
Y226500D01*
X290500Y220500D01*
X277500D01*
X272500Y215500D01*
X156500D01*
X151500Y210500D01*
X141000D01*
X139500Y209000D01*
X96000D01*
X94000Y207000D01*
X81500D01*
X71000Y196500D01*
G01X82000Y36500D02*
Y29000D01*
X85000Y26000D01*
X168000D01*
X178500Y36500D01*
Y52500D01*
X195000Y69000D01*
X327000D01*
X331000Y73000D01*
X346000D01*
X351000Y78000D01*
G01X175000Y205000D02*
Y207500D01*
X173000Y209500D01*
X156500D01*
X153150Y206150D01*
X97650D01*
X95500Y204000D01*
X89500D01*
X82000Y196500D01*
Y194000D01*
G01X278000Y218000D02*
X274000Y214000D01*
X157000D01*
X152000Y209000D01*
X142000D01*
X140500Y207500D01*
X97000D01*
X95000Y205500D01*
X88000D01*
X85500Y203000D01*
G01X132500Y210500D02*
X134500Y212500D01*
X151500D01*
X156000Y217000D01*
X237000D01*
X239500Y219500D01*
X274000D01*
X276500Y222000D01*
X289500D01*
X293500Y226000D01*
Y231500D01*
X298000Y236000D01*
G01Y207500D02*
X293000Y212500D01*
X185500D01*
X178000Y205000D01*
X175000D01*
G01X186000Y76000D02*
X343500D01*
X345500Y78000D01*
G01X287500Y253000D02*
X278500Y262000D01*
X259000D01*
X256000Y265000D01*
X255827D01*
G54D14*
X112500Y227500D03*
X125000D03*
G54D24*
G01X100825Y394483D02*
X101558Y394025D01*
X102383Y393750D01*
X103117D01*
X103850Y394025D01*
X104400Y394483D01*
X104675Y395125D01*
X104492Y395767D01*
X104033Y396317D01*
X103208Y396683D01*
X102108Y396867D01*
X101467Y397233D01*
X101192Y397875D01*
X101375Y398517D01*
X101833Y398975D01*
X102475Y399250D01*
X103117D01*
X103758Y399067D01*
X104308Y398608D01*
G01X107950Y399250D02*
X110150D01*
G01X109050D02*
Y393750D01*
G01X107950D02*
X110150D01*
G01X115900Y396500D02*
X117733D01*
Y394850D01*
X117183Y394300D01*
X116542Y393933D01*
X115625Y393750D01*
X114708Y393933D01*
X114067Y394300D01*
X113517Y394850D01*
X113150Y395492D01*
X112967Y396225D01*
Y396867D01*
X113150Y397417D01*
X113517Y398058D01*
X114067Y398608D01*
X114617Y398975D01*
X115350Y399250D01*
X115992D01*
X116725Y399067D01*
X117275Y398700D01*
G01X119542Y393750D02*
Y399250D01*
X123758Y393750D01*
Y399250D01*
G01X125658Y393750D02*
X127950Y399250D01*
X130242Y393750D01*
G01X129417Y395675D02*
X126483D01*
G01X132417Y399250D02*
Y393750D01*
X136083D01*
G01X100917Y409250D02*
Y403750D01*
X104583D01*
G01X106758D02*
X109050Y409250D01*
X111342Y403750D01*
G01X110517Y405675D02*
X107583D01*
G01X115350Y403750D02*
Y406225D01*
X113517Y409250D01*
G01X117183D02*
X115350Y406225D01*
G01X123483Y403750D02*
X119817D01*
Y409250D01*
X123483D01*
G01X122017Y406592D02*
X119817D01*
G01X126117Y403750D02*
Y409250D01*
X128408D01*
X129142Y408975D01*
X129600Y408608D01*
X129783Y407875D01*
X129600Y407142D01*
X129050Y406683D01*
X128408Y406408D01*
X126117D01*
G01X128408D02*
X129783Y403750D01*
G01X140367D02*
X140550Y404942D01*
X140825Y405950D01*
X141192Y406867D01*
X141650Y407875D01*
X142383Y409250D01*
X138717D01*
G54D15*
X147850Y72850D03*
X312150Y237150D03*
G54D25*
G01X195825Y38702D02*
X197500Y40376D01*
X204876D01*
X206000Y41500D01*
Y43500D01*
X205000Y44500D01*
Y46500D01*
X206651Y48151D01*
X208425D01*
G01X195825Y41851D02*
X203701Y49726D01*
X210000D01*
X211575Y48151D01*
G01X257000Y20000D02*
X254000D01*
X251525Y17525D01*
X213851D01*
X211575Y19801D01*
G01X257000Y16000D02*
X254000D01*
X252000Y14000D01*
X214226D01*
X211575Y16651D01*
G01X257000Y12000D02*
X254000D01*
X252000Y10000D01*
X249500D01*
X247500Y12000D01*
X213076D01*
X211575Y13501D01*
G01Y10351D02*
Y8925D01*
X212500Y8000D01*
X217000D01*
X219000Y10000D01*
X224730D01*
X225491Y9238D01*
Y8762D01*
X226253Y8000D01*
X227330D01*
X228091Y8762D01*
Y9238D01*
X228853Y10000D01*
X229930D01*
X230691Y9238D01*
Y8762D01*
X231453Y8000D01*
X232530D01*
X233291Y8762D01*
Y9238D01*
X234053Y10000D01*
X235130D01*
X235891Y9238D01*
Y8762D01*
X236653Y8000D01*
X237730D01*
X238491Y8762D01*
Y9238D01*
X239253Y10000D01*
X240330D01*
X241091Y9238D01*
Y8762D01*
X241853Y8000D01*
X242930D01*
X243691Y8762D01*
Y9238D01*
X244453Y10000D01*
X246000D01*
X247975Y8025D01*
X250475D01*
X250500Y8000D01*
G01X257000Y24000D02*
X255475Y22475D01*
X245975D01*
X243500Y20000D01*
X228372D01*
X227000Y21372D01*
X213154D01*
X211575Y22951D01*
G01Y29251D02*
X213155Y27671D01*
X227000D01*
X228196Y26475D01*
X242475D01*
X246000Y30000D01*
X255000D01*
X257000Y32000D01*
G01X211575Y26101D02*
X213154Y24522D01*
X227000D01*
X227522Y24000D01*
X244000D01*
X246000Y26000D01*
X255000D01*
X257000Y28000D01*
G01Y36000D02*
X255000Y34000D01*
X246000D01*
X242821Y30821D01*
X213155D01*
X211575Y32401D01*
G01X257000Y40000D02*
X255000Y38000D01*
X246000D01*
X243025Y35025D01*
X212101D01*
X211575Y35551D01*
G01X257000Y44000D02*
X255000Y42000D01*
X246000D01*
X241000Y37000D01*
X213276D01*
X211575Y38701D01*
G01Y41851D02*
X212724Y43000D01*
X217500D01*
X220220Y40280D01*
X226695D01*
X227466Y41051D01*
Y41929D01*
X228037Y42500D01*
X228845D01*
X229416Y41929D01*
Y41051D01*
X229987Y40480D01*
X230795D01*
X231366Y41051D01*
Y41929D01*
X231937Y42500D01*
X232745D01*
X233316Y41929D01*
Y41051D01*
X233887Y40480D01*
X234695D01*
X235266Y41051D01*
Y41929D01*
X235837Y42500D01*
X236645D01*
X237216Y41929D01*
Y41051D01*
X237987Y40280D01*
X240280D01*
X246000Y46000D01*
X248500D01*
X250500Y48000D01*
G01X257000Y55000D02*
X253500Y58500D01*
X240657D01*
X239157Y57000D01*
X232500D01*
X225231Y49731D01*
X213155D01*
X211575Y48151D01*
G01X299075Y19801D02*
X297500Y18226D01*
X294500D01*
X291726Y21000D01*
X287000D01*
X284226Y18226D01*
X281774D01*
X280000Y20000D01*
X267000D01*
X265000Y22000D01*
X259000D01*
X257000Y20000D01*
G01X299075Y16651D02*
X297495Y15071D01*
X294000D01*
X291571Y17500D01*
X287000D01*
X283500Y14000D01*
X280500D01*
X276500Y18000D01*
X259000D01*
X257000Y16000D01*
G01Y12000D02*
X259000Y14000D01*
X261000D01*
X263069Y11931D01*
X264931D01*
X267000Y14000D01*
X269000D01*
X271069Y11931D01*
X272931D01*
X275000Y14000D01*
X277000D01*
X279069Y11931D01*
X297505D01*
X299075Y13501D01*
G01X250500Y8000D02*
X253000D01*
X255000Y10000D01*
X258500D01*
X260000Y8500D01*
X297224D01*
X299075Y10351D01*
G01Y29251D02*
X297495Y27671D01*
X294829D01*
X291500Y31000D01*
X287829D01*
X284500Y27671D01*
X281000D01*
X279146Y29525D01*
X266475D01*
X264500Y31500D01*
X263000D01*
X261025Y29525D01*
X259475D01*
X257000Y32000D01*
G01Y28000D02*
X259000Y26000D01*
X270000D01*
X271000Y25000D01*
X273000D01*
X274000Y26000D01*
X279522D01*
X281000Y24522D01*
X284022D01*
X287500Y28000D01*
X291500D01*
X294978Y24522D01*
X297496D01*
X299075Y26101D01*
G01X257000Y24000D02*
X268500D01*
X270000Y22500D01*
X274000D01*
X275500Y24000D01*
X278500D01*
X281124Y21376D01*
X282672D01*
X282673Y21377D01*
X283977D01*
X288100Y25500D01*
X291000D01*
X295124Y21376D01*
X297500D01*
X299075Y22951D01*
G01X257000Y36000D02*
X259500Y33500D01*
X265500D01*
X267500Y31500D01*
X278000D01*
X280000Y33500D01*
X281500D01*
X283500Y31500D01*
X285000D01*
X286956Y33456D01*
X292044D01*
X294669Y30831D01*
X297505D01*
X299075Y32401D01*
G01Y35551D02*
X297500Y33976D01*
X294524D01*
X293000Y35500D01*
X279500D01*
X278500Y36500D01*
X276975D01*
X275975Y35500D01*
X274000D01*
X273000Y36500D01*
X270475D01*
X269475Y35500D01*
X267500D01*
X266500Y36500D01*
X264500D01*
X263500Y35500D01*
X261500D01*
X257000Y40000D01*
G01Y44000D02*
X262500Y38500D01*
X264000D01*
X265500Y40000D01*
X266500D01*
X268000Y38500D01*
X269500D01*
X271000Y40000D01*
X272500D01*
X274000Y38500D01*
X275500D01*
X277000Y40000D01*
X278500D01*
X281379Y37121D01*
X297495D01*
X299075Y38701D01*
G01X250500Y48000D02*
X252025Y46475D01*
X259025D01*
X263525Y41975D01*
X280525D01*
X282219Y40281D01*
X297505D01*
X299075Y41851D01*
G01X257000Y55000D02*
X260500D01*
X263000Y52500D01*
X268500D01*
X269525Y51475D01*
Y50479D01*
X270004Y50000D01*
X270812D01*
X271383Y50571D01*
Y51929D01*
X271954Y52500D01*
X272762D01*
X273333Y51929D01*
Y50571D01*
X273904Y50000D01*
X274712D01*
X275283Y50571D01*
Y51283D01*
X276500Y52500D01*
X278500D01*
X281274Y49726D01*
X297500D01*
X299075Y48151D01*
G01X311673Y38701D02*
X310098Y40276D01*
X305154D01*
X303000Y42430D01*
Y44500D01*
X300974Y46526D01*
X297550D01*
X295925Y48151D01*
G01X299075D02*
X302349D01*
X304000Y46500D01*
X312262D01*
X313350Y45412D01*
Y43527D01*
X311673Y41850D01*
G54D16*
X214488Y267500D03*
G54D26*
G01X90000Y106000D02*
X91000D01*
X92000Y107000D01*
Y132500D01*
X80500Y144000D01*
Y156500D01*
X83000Y159000D01*
X86500D01*
X88950Y161450D01*
X93950D01*
X98000Y165500D01*
X134000D01*
X143000Y174500D01*
G01Y172000D02*
X142500D01*
X134500Y164000D01*
X98500D01*
X94500Y160000D01*
X89500D01*
X87000Y157500D01*
X83500D01*
X81950Y155950D01*
Y144550D01*
X93500Y133000D01*
Y106500D01*
X90000Y103000D01*
G01X108000Y157500D02*
X99400D01*
X98600Y156700D01*
Y139900D01*
X101500Y137000D01*
X106000D01*
X128400Y114600D01*
X136450D01*
X137250Y115400D01*
Y116000D01*
G01X91000Y157500D02*
X96200D01*
X97000Y156700D01*
Y139237D01*
X100837Y135400D01*
X105337D01*
X127737Y113000D01*
X137113D01*
X139750Y115637D01*
Y116000D01*
G01X101000Y146500D02*
X101900Y145600D01*
Y144837D01*
X129837Y116900D01*
X135163D01*
X136663Y118400D01*
X140600D01*
X142500Y116500D01*
Y116000D01*
G01X103833Y367000D02*
Y377000D01*
X107167D01*
X108500Y376500D01*
X109500Y375833D01*
X110333Y374833D01*
X111000Y373666D01*
X111167Y372000D01*
X111000Y370333D01*
X110333Y369167D01*
X109500Y368166D01*
X108500Y367500D01*
X107167Y367000D01*
X103833D01*
G01X114333D02*
X118500Y377000D01*
X122667Y367000D01*
G01X121167Y370500D02*
X115833D01*
G01X129500Y377000D02*
Y367000D01*
G01X125667Y377000D02*
X133333D01*
G01X143833Y367000D02*
X137167D01*
Y377000D01*
X143833D01*
G01X141167Y372167D02*
X137167D01*
G01X151500Y366667D02*
X151167Y366833D01*
Y367167D01*
X151500Y367333D01*
X151833Y367167D01*
Y366833D01*
X151500Y366667D01*
G01Y371166D02*
X151167Y371333D01*
Y371667D01*
X151500Y371833D01*
X151833Y371667D01*
Y371333D01*
X151500Y371166D01*
G01X108157Y431377D02*
X107157Y431877D01*
X105990Y432210D01*
X104657D01*
X103156Y431710D01*
X101990Y430877D01*
X101157Y429877D01*
X100490Y428210D01*
X100323Y426710D01*
X100657Y425210D01*
X101157Y424210D01*
X102157Y423210D01*
X103323Y422543D01*
X104490Y422210D01*
X105657D01*
X106823Y422543D01*
X107823Y423043D01*
X108657Y423710D01*
G01X115490Y428876D02*
Y422210D01*
G01Y431543D02*
X115157Y431710D01*
Y432043D01*
X115490Y432210D01*
X115823Y432043D01*
Y431710D01*
X115490Y431543D01*
G01X124157Y422210D02*
Y428876D01*
G01Y427543D02*
X124990Y428210D01*
X125823Y428710D01*
X126990Y428876D01*
X127823Y428710D01*
X128823Y428210D01*
G01X140157Y428043D02*
X138990Y428710D01*
X137990Y428876D01*
X136657Y428543D01*
X135657Y427877D01*
X134990Y426710D01*
X134823Y425543D01*
X134990Y424377D01*
X135657Y423376D01*
X136657Y422543D01*
X137990Y422210D01*
X139157Y422543D01*
X140157Y423210D01*
G01X145657Y428876D02*
Y424210D01*
X146323Y423043D01*
X147323Y422377D01*
X148490Y422210D01*
X149657Y422377D01*
X150657Y423043D01*
X151323Y424210D01*
G01Y422210D02*
Y428876D01*
G01X159490D02*
Y422210D01*
G01Y431543D02*
X159157Y431710D01*
Y432043D01*
X159490Y432210D01*
X159823Y432043D01*
Y431710D01*
X159490Y431543D01*
G01X170490Y432210D02*
Y422210D01*
G01X168157Y428876D02*
X172823D01*
G01X196157Y431377D02*
X195157Y431877D01*
X193990Y432210D01*
X192657D01*
X191156Y431710D01*
X189990Y430877D01*
X189157Y429877D01*
X188490Y428210D01*
X188323Y426710D01*
X188657Y425210D01*
X189157Y424210D01*
X190157Y423210D01*
X191323Y422543D01*
X192490Y422210D01*
X193657D01*
X194823Y422543D01*
X195823Y423043D01*
X196657Y423710D01*
G01X203490Y422210D02*
X202490Y422377D01*
X201490Y423043D01*
X200823Y424210D01*
X200490Y425543D01*
X200823Y426877D01*
X201490Y428043D01*
X202490Y428710D01*
X203490Y428876D01*
X204490Y428710D01*
X205490Y428043D01*
X206157Y426877D01*
X206323Y425543D01*
X206157Y424210D01*
X205490Y423043D01*
X204490Y422377D01*
X203490Y422210D01*
G01X214490Y421877D02*
X214157Y422043D01*
Y422377D01*
X214490Y422543D01*
X214823Y422377D01*
Y422043D01*
X214490Y421877D01*
G01X103500Y146500D02*
Y145500D01*
X130500Y118500D01*
X134500D01*
X136000Y120000D01*
X141263D01*
X145000Y116263D01*
Y116000D01*
G01X125500Y158500D02*
X126500Y157500D01*
X130500D01*
X130800Y157800D01*
X147200D01*
X149500Y155500D01*
X162000D01*
X169500Y148000D01*
X175442D01*
X178442Y145000D01*
X181737D01*
X186837Y139900D01*
X217178D01*
X224256Y147000D01*
X246372D01*
X248872Y149500D01*
X250109D01*
X251857Y151248D01*
G01X125500Y161000D02*
X125758D01*
X127658Y159100D01*
X129837D01*
X130137Y159400D01*
X147863D01*
X150163Y157100D01*
X162663D01*
X170163Y149600D01*
X176105D01*
X179105Y146600D01*
X182400D01*
X187500Y141500D01*
X216514D01*
X223592Y148600D01*
X245710D01*
X248358Y151248D01*
X249057D01*
G01X168750Y375000D02*
X167750Y374750D01*
X167000Y374125D01*
X166500Y373375D01*
X166125Y372375D01*
X166000Y371250D01*
X166125Y370125D01*
X166500Y369125D01*
X167000Y368375D01*
X167750Y367750D01*
X168750Y367500D01*
X169750Y367750D01*
X170500Y368375D01*
X171000Y369125D01*
X171375Y370125D01*
X171500Y371250D01*
X171375Y372375D01*
X171000Y373375D01*
X170500Y374125D01*
X169750Y374750D01*
X168750Y375000D01*
G01X174500Y368625D02*
X175250Y368000D01*
X176125Y367625D01*
X177250Y367500D01*
X178375Y367750D01*
X179250Y368250D01*
X179875Y369125D01*
X180000Y370125D01*
X179750Y371125D01*
X179125Y371750D01*
X178250Y372250D01*
X177375Y372375D01*
X176500Y372250D01*
X175375Y371750D01*
X175750Y375000D01*
X179125D01*
G01X183500Y367250D02*
X188000Y375000D01*
G01X194250D02*
X193250Y374750D01*
X192500Y374125D01*
X192000Y373375D01*
X191625Y372375D01*
X191500Y371250D01*
X191625Y370125D01*
X192000Y369125D01*
X192500Y368375D01*
X193250Y367750D01*
X194250Y367500D01*
X195250Y367750D01*
X196000Y368375D01*
X196500Y369125D01*
X196875Y370125D01*
X197000Y371250D01*
X196875Y372375D01*
X196500Y373375D01*
X196000Y374125D01*
X195250Y374750D01*
X194250Y375000D01*
G01X200375Y373750D02*
X201125Y374500D01*
X202000Y374875D01*
X203000Y375000D01*
X204250Y374750D01*
X205125Y374125D01*
X205375Y373375D01*
X205250Y372625D01*
X204750Y372000D01*
X202250Y370750D01*
X201125Y369875D01*
X200375Y368625D01*
X200125Y367500D01*
X205375D01*
G01X209000Y367250D02*
X213500Y375000D01*
G01X217375Y373750D02*
X218125Y374500D01*
X219000Y374875D01*
X220000Y375000D01*
X221250Y374750D01*
X222125Y374125D01*
X222375Y373375D01*
X222250Y372625D01*
X221750Y372000D01*
X219250Y370750D01*
X218125Y369875D01*
X217375Y368625D01*
X217125Y367500D01*
X222375D01*
G01X228250Y375000D02*
X227250Y374750D01*
X226500Y374125D01*
X226000Y373375D01*
X225625Y372375D01*
X225500Y371250D01*
X225625Y370125D01*
X226000Y369125D01*
X226500Y368375D01*
X227250Y367750D01*
X228250Y367500D01*
X229250Y367750D01*
X230000Y368375D01*
X230500Y369125D01*
X230875Y370125D01*
X231000Y371250D01*
X230875Y372375D01*
X230500Y373375D01*
X230000Y374125D01*
X229250Y374750D01*
X228250Y375000D01*
G01X236750Y367500D02*
Y375000D01*
X235250Y373500D01*
G01Y367500D02*
X238250D01*
G01X246750D02*
Y375000D01*
X242125Y369625D01*
X248375D01*
G01X175500Y397500D02*
Y405000D01*
X178750Y398750D01*
X182000Y405000D01*
Y397500D01*
G01X187250Y402500D02*
Y397500D01*
G01Y404500D02*
X187000Y404625D01*
Y404875D01*
X187250Y405000D01*
X187500Y404875D01*
Y404625D01*
X187250Y404500D01*
G01X193625Y397500D02*
Y402500D01*
G01Y401250D02*
X194125Y401875D01*
X194875Y402375D01*
X195875Y402500D01*
X196750Y402375D01*
X197500Y401875D01*
X197875Y401000D01*
Y397500D01*
G01X202125D02*
Y402500D01*
G01Y401250D02*
X202625Y401875D01*
X203375Y402375D01*
X204375Y402500D01*
X205250Y402375D01*
X206000Y401875D01*
X206375Y401000D01*
Y397500D01*
G01X212750D02*
X212000Y397625D01*
X211250Y398125D01*
X210750Y399000D01*
X210500Y400000D01*
X210750Y401000D01*
X211250Y401875D01*
X212000Y402375D01*
X212750Y402500D01*
X213500Y402375D01*
X214250Y401875D01*
X214750Y401000D01*
X214875Y400000D01*
X214750Y399000D01*
X214250Y398125D01*
X213500Y397625D01*
X212750Y397500D01*
G01X218125Y402500D02*
X219625Y397500D01*
X221250Y402500D01*
X222875Y397500D01*
X224375Y402500D01*
G01X226500Y397500D02*
Y405000D01*
X229750Y398750D01*
X233000Y405000D01*
Y397500D01*
G01X240500D02*
Y402500D01*
G01Y401625D02*
X240000Y402125D01*
X239250Y402375D01*
X238375Y402500D01*
X237500Y402250D01*
X236750Y401750D01*
X236250Y401000D01*
X236000Y400000D01*
X236250Y399000D01*
X236750Y398250D01*
X237500Y397750D01*
X238375Y397500D01*
X239250Y397625D01*
X240000Y398000D01*
X240500Y398500D01*
G01X244875Y402500D02*
X248625Y397500D01*
G01Y402500D02*
X244875Y397500D01*
G01X261250D02*
Y405000D01*
X264375D01*
X265375Y404625D01*
X266000Y404125D01*
X266250Y403125D01*
X266000Y402125D01*
X265250Y401500D01*
X264375Y401125D01*
X261250D01*
G01X264375D02*
X266250Y397500D01*
G01X270375Y400875D02*
X274375D01*
X274000Y401750D01*
X273375Y402250D01*
X272500Y402500D01*
X271625Y402375D01*
X270875Y402000D01*
X270375Y401125D01*
X270125Y400375D01*
Y399625D01*
X270375Y398875D01*
X271000Y398125D01*
X271750Y397625D01*
X272625Y397500D01*
X273500Y397750D01*
X274375Y398500D01*
G01X278500Y402500D02*
X280750Y397500D01*
X283000Y402500D01*
G01X286125Y397500D02*
X289250Y405000D01*
X292375Y397500D01*
G01X291250Y400125D02*
X287250D01*
G01X297750Y397500D02*
Y405000D01*
X296250Y403500D01*
G01Y397500D02*
X299250D01*
G01X351000Y59500D02*
X349450Y61050D01*
X347050D01*
X345500Y59500D01*
G54D17*
X325512Y267500D03*
G54D27*
G01X247500Y55000D02*
X246500Y54000D01*
X245657D01*
X245132Y53475D01*
X236475D01*
X235500Y52500D01*
Y50000D01*
X236425Y49075D01*
X241431D01*
X242478Y48028D01*
Y46237D01*
X241442Y45201D01*
X212885D01*
X212680Y45406D01*
X211980D01*
X211575Y45001D01*
G01X208425D02*
X209760D01*
X210170Y45411D01*
Y45996D01*
X210674Y46500D01*
X213000D01*
X213349Y46151D01*
X241028D01*
X241478Y46601D01*
Y47614D01*
X240967Y48125D01*
X236031D01*
X234550Y49607D01*
Y50393D01*
X234550Y50394D01*
Y52893D01*
X236082Y54425D01*
X236868D01*
X236869Y54425D01*
X243925D01*
X244500Y55000D01*
G01X247500D02*
X250500D01*
X254500Y51000D01*
X259500D01*
X265000Y45500D01*
X293000D01*
X294924Y43576D01*
X297650D01*
X299075Y45001D01*
G01X295925D02*
X294843D01*
X293394Y46450D01*
X265394D01*
X259893Y51950D01*
X259107D01*
X259106Y51950D01*
X254894D01*
X250894Y55950D01*
X249050D01*
X248475Y56525D01*
X246525D01*
X245995Y55995D01*
Y55410D01*
X245585Y55000D01*
X244500D01*
G01X308000Y141500D02*
X308050Y141550D01*
Y142950D01*
X303500Y147500D01*
Y152500D01*
X301450Y154550D01*
X298399D01*
X290550Y162399D01*
Y169450D01*
X288300Y171700D01*
X276300D01*
X272500Y175500D01*
X261000D01*
X260419Y176081D01*
X259081D01*
X258500Y175500D01*
X257500D01*
X257000Y176000D01*
Y177499D01*
X257457Y177956D01*
G01X308000Y138500D02*
X309500Y140000D01*
Y140843D01*
X309525Y140868D01*
Y142132D01*
X309500Y142157D01*
Y143551D01*
X304950Y148101D01*
Y153101D01*
X302051Y156000D01*
X299000D01*
X292000Y163000D01*
Y170051D01*
X289351Y172700D01*
X284600D01*
X284150Y173150D01*
X276901D01*
X273551Y176500D01*
X261713D01*
X260256Y177956D01*
G01X308000Y154000D02*
X308075Y154075D01*
Y157500D01*
X306775Y158800D01*
Y165629D01*
X305854Y166550D01*
X298950D01*
X293500Y172000D01*
Y174500D01*
X290225Y177775D01*
X283674D01*
X281449Y180000D01*
X276696D01*
X276027Y179331D01*
X266669D01*
X265919Y180081D01*
X264749D01*
X264000Y179331D01*
X262950D01*
X262500Y179781D01*
Y181299D01*
X263057Y181855D01*
G01X313000Y192000D02*
X311475Y190475D01*
X309025D01*
X308000Y191500D01*
X296000D01*
X284825Y202675D01*
X274825D01*
X273950Y203550D01*
X267550D01*
X263950Y199950D01*
Y196899D01*
X261844Y194794D01*
X256856D01*
G01X310000Y192000D02*
X309000Y193000D01*
X296551D01*
X285426Y204125D01*
X275426D01*
X274551Y205000D01*
X266949D01*
X262500Y200551D01*
Y197500D01*
X261244Y196244D01*
X260256D01*
X260000Y196500D01*
Y197000D01*
X259500Y197500D01*
X259000D01*
X258500Y197000D01*
Y196544D01*
X258200Y196244D01*
X257306D01*
X256856Y196694D01*
Y197594D01*
G01X308000Y151000D02*
X309525Y152525D01*
Y158101D01*
X308225Y159401D01*
Y166229D01*
X306454Y168000D01*
X299551D01*
X294950Y172601D01*
Y175101D01*
X290826Y179225D01*
X284275D01*
X282050Y181450D01*
X275969D01*
X275000Y180481D01*
X269527D01*
X269226D01*
X267231D01*
X265857Y181855D01*
G01X317000Y184500D02*
Y185000D01*
X315950Y186050D01*
X294950D01*
X282450Y198550D01*
X274138D01*
X272616Y200073D01*
X271476D01*
X270500Y199096D01*
Y198500D01*
X270189Y198189D01*
X268482D01*
X267877Y198794D01*
G01X320000Y184500D02*
X317000Y187500D01*
X295551D01*
X283051Y200000D01*
X274739D01*
X273216Y201523D01*
X270300D01*
X269761Y200983D01*
G54D18*
X346772Y146220D03*
G54D28*
G01X34370Y393130D02*
X27500Y400000D01*
G01X17500D02*
X42500Y375000D01*
X67500Y400000D01*
G01X17500D02*
X67500D01*
G01X42500Y425000D02*
X17500Y400000D01*
G01X27500D02*
X36450Y408950D01*
G01X34680Y383580D02*
G03X34990Y382820I1087J0D01*
G01X34700Y394380D02*
Y383580D01*
G01Y383750D02*
Y394380D01*
G01X35000Y382830D02*
X37450Y380350D01*
G01X37440Y380340D02*
G03X39050Y379680I1610J1634D01*
G01Y379700D02*
X46250D01*
G01D02*
X39000D01*
G01X46250Y382830D02*
X39370D01*
X37820Y384380D01*
Y396580D01*
X36870D01*
X34700Y394380D01*
G01X42500Y382830D02*
Y405630D01*
G01Y375000D02*
Y379700D01*
G01X34700Y394380D02*
X36870Y396580D01*
X37820D01*
Y384380D01*
X39370Y382830D01*
X46250D01*
G01X50000Y400000D02*
X42500Y392500D01*
G01D02*
X35000Y400000D01*
G01X42500Y385000D02*
X37820Y389700D01*
G01X42500Y385000D02*
X57500Y400000D01*
G01X35000D02*
X42500Y407500D01*
G01D02*
X50000Y400000D01*
G01X34680Y411080D02*
G03X34990Y410320I1087J0D01*
G01X34680Y411080D02*
G03X34990Y410320I1087J0D01*
G01X38710Y406590D02*
G03X40320Y405930I1610J1634D01*
G01X38710Y406590D02*
G03X40320Y405930I1610J1634D01*
G01X35000Y410330D02*
X38720Y406600D01*
G01X40320Y405950D02*
X45300D01*
G01X40320D02*
X45300D01*
G01D02*
X43750D01*
G01X45300Y409080D02*
X40620D01*
G01X45300D02*
X40620D01*
G01X43450D02*
X45300D01*
G01X35000Y410330D02*
X38720Y406600D01*
G01X40620Y409080D02*
X37820Y411880D01*
Y415630D01*
X40620Y418450D01*
X45300D01*
G01X34700Y415950D02*
Y411080D01*
G01X40620Y409080D02*
X37820Y411880D01*
Y415630D01*
X40620Y418450D01*
X45300D01*
G01X34700Y415950D02*
Y411080D01*
G01X38650Y411150D02*
X42500Y415000D01*
G01Y409080D02*
Y418450D01*
G01X57500Y400000D02*
X42500Y415000D01*
G01X45300Y421580D02*
X40250D01*
G01Y421550D02*
G03X38760Y420940I0J-2125D01*
G01X45300Y421580D02*
X40250D01*
G01Y421550D02*
G03X38760Y420940I0J-2125D01*
G01X42500Y421580D02*
Y425000D01*
G01X38750Y420950D02*
X35350Y417550D01*
G01X35340Y417560D02*
G03X34680Y415950I1634J-1610D01*
G01X38750Y420950D02*
X35350Y417550D01*
G01X35340Y417560D02*
G03X34680Y415950I1634J-1610D01*
G01X67500Y400000D02*
X42500Y425000D01*
G01X46250Y379680D02*
G03X47820Y381250I0J1570D01*
G01D02*
G03X46250Y382820I-1570J0D01*
G01X45300Y405930D02*
G03X46870Y407500I0J1570D01*
G01X45300Y405930D02*
G03X46870Y407500I0J1570D01*
G01D02*
G03X45300Y409070I-1570J0D01*
G01X46870Y407500D02*
G03X45300Y409070I-1570J0D01*
G01X46870Y420000D02*
G03X45300Y421570I-1570J0D01*
G01Y418430D02*
G03X46870Y420000I0J1570D01*
G54D19*
G01X17500Y132000D02*
X24000Y125500D01*
X62000D01*
X78500Y109000D01*
X80500D01*
X88500Y101000D01*
X156000D01*
X159000Y104000D01*
X175500D01*
X177500Y106000D01*
Y125000D01*
X179000Y126500D01*
X180000D01*
X181500Y128000D01*
Y134500D01*
X184593Y137593D01*
X226593D01*
X229311Y140311D01*
X247311D01*
X254000Y147000D01*
Y152500D01*
X251000Y155500D01*
X248500D01*
X246500Y157500D01*
Y163995D01*
X249057Y166551D01*
G01X261000Y270000D02*
X263000Y272000D01*
X294500D01*
X296500Y270000D01*
G54D29*
G01X196500Y230000D02*
Y230251D01*
X195000Y231751D01*
Y232751D01*
X192751Y235000D01*
X172561D01*
X171061Y233500D01*
X168922D01*
X167422Y235000D01*
X166601D01*
X165101Y233500D01*
X162962D01*
X161462Y235000D01*
X160641D01*
X159141Y233500D01*
X157002D01*
X155502Y235000D01*
X154681D01*
X153181Y233500D01*
X151042D01*
X149542Y235000D01*
X148721D01*
X147221Y233500D01*
X145082D01*
X143582Y235000D01*
X142761D01*
X141261Y233500D01*
X139122D01*
X137622Y235000D01*
X136801D01*
X135301Y233500D01*
X133162D01*
X131662Y235000D01*
X130841D01*
X129341Y233500D01*
X127202D01*
X125702Y235000D01*
X124881D01*
X123381Y233500D01*
X121242D01*
X119742Y235000D01*
X118921D01*
X117421Y233500D01*
X115282D01*
X113782Y235000D01*
X112395D01*
X110895Y233500D01*
X108757D01*
X107256Y235000D01*
X106070D01*
X105500Y234430D01*
Y230751D01*
X104149Y229400D01*
X101942D01*
X100432Y230910D01*
X99620D01*
X98110Y229400D01*
X95583D01*
X94073Y230910D01*
X93261D01*
X91751Y229400D01*
X89623D01*
X88113Y230910D01*
X87301D01*
X85791Y229400D01*
X83663D01*
X82153Y230910D01*
X81341D01*
X80500Y230069D01*
Y224321D01*
X79179Y223000D01*
X75944D01*
X74622Y224321D01*
Y228378D01*
X73530Y229470D01*
X51149D01*
X50159Y228480D01*
X44480D01*
G01X33500Y236160D02*
X31910Y234570D01*
Y232942D01*
X32842Y232010D01*
X41037D01*
X43937Y234910D01*
X48409D01*
X50341Y232977D01*
X72977D01*
X76500Y236500D01*
X95500D01*
X98000Y239000D01*
X195000D01*
X201000Y233000D01*
G01X203500D02*
X203300D01*
X202150Y234150D01*
X202099D01*
X195659Y240590D01*
X97341D01*
X94841Y238090D01*
X75841D01*
X72319Y234567D01*
X51000D01*
X49067Y236500D01*
X43279D01*
X40379Y233600D01*
X39600D01*
X39200Y234000D01*
Y235100D01*
X38800Y235500D01*
X38200D01*
X37800Y235100D01*
Y234000D01*
X37400Y233600D01*
X37000Y233600D01*
X36890D01*
X36500Y233990D01*
Y234910D01*
X36110Y235300D01*
X35390D01*
X35000Y234910D01*
Y233990D01*
X34610Y233600D01*
X33500D01*
G01X199000Y230000D02*
Y231000D01*
X198500Y231500D01*
X197500D01*
X196590Y232410D01*
Y233410D01*
X193410Y236590D01*
X171902D01*
X170402Y235090D01*
X169581D01*
X168081Y236590D01*
X165942D01*
X164442Y235090D01*
X163621D01*
X162121Y236590D01*
X159982D01*
X158482Y235090D01*
X157661D01*
X156161Y236590D01*
X154022D01*
X152522Y235090D01*
X151701D01*
X150201Y236590D01*
X148062D01*
X146562Y235090D01*
X145741D01*
X144241Y236590D01*
X142102D01*
X140602Y235090D01*
X139781D01*
X138281Y236590D01*
X136142D01*
X134642Y235090D01*
X133821D01*
X132321Y236590D01*
X130182D01*
X128682Y235090D01*
X127861D01*
X126361Y236590D01*
X124222D01*
X122722Y235090D01*
X121901D01*
X120401Y236590D01*
X118262D01*
X116762Y235090D01*
X115941D01*
X114441Y236590D01*
X111737D01*
X110236Y235090D01*
X109415D01*
X107915Y236590D01*
X105412D01*
X103910Y235089D01*
Y231410D01*
X103490Y230990D01*
X102600D01*
X101090Y232500D01*
X98962D01*
X97452Y230990D01*
X96241D01*
X94731Y232500D01*
X92603D01*
X91093Y230990D01*
X90281D01*
X88771Y232500D01*
X86643D01*
X85133Y230990D01*
X84321D01*
X82811Y232500D01*
X80683D01*
X78910Y230727D01*
Y224980D01*
X78520Y224590D01*
X76602D01*
X76212Y224980D01*
Y229036D01*
X74189Y231060D01*
X50490D01*
X49500Y230070D01*
X45360D01*
X44460Y230970D01*
Y231040D01*
G01X206000Y238000D02*
X205090Y238910D01*
Y241410D01*
X200410Y246090D01*
X197841D01*
X196841Y245090D01*
X195659D01*
X194659Y246090D01*
X192600D01*
X191600Y245090D01*
X190587D01*
X189587Y246090D01*
X187640D01*
X186640Y245090D01*
X185627D01*
X184627Y246090D01*
X182680D01*
X181680Y245090D01*
X180667D01*
X179667Y246090D01*
X177720D01*
X176720Y245090D01*
X175707D01*
X174707Y246090D01*
X172760D01*
X171760Y245090D01*
X170747D01*
X169747Y246090D01*
X167800D01*
X166800Y245090D01*
X165787D01*
X164787Y246090D01*
X162840D01*
X161840Y245090D01*
X160827D01*
X159827Y246090D01*
X157880D01*
X156880Y245090D01*
X155867D01*
X154867Y246090D01*
X152920D01*
X151920Y245090D01*
X150907D01*
X149907Y246090D01*
X147960D01*
X146960Y245090D01*
X145947D01*
X144947Y246090D01*
X141965D01*
X140965Y245090D01*
X139951D01*
X138951Y246090D01*
X137005D01*
X136005Y245090D01*
X134991D01*
X133991Y246090D01*
X132045D01*
X131045Y245090D01*
X130031D01*
X129031Y246090D01*
X127085D01*
X126085Y245090D01*
X125071D01*
X124071Y246090D01*
X122125D01*
X121125Y245090D01*
X120111D01*
X119111Y246090D01*
X99910D01*
X98500Y247500D01*
Y250500D01*
X95500Y253500D01*
X77500D01*
X75250Y251250D01*
Y247750D01*
X73500Y246000D01*
X61751D01*
X59106Y243355D01*
X44985D01*
X44500Y243840D01*
G01X209000Y238000D02*
Y240751D01*
X200841Y248910D01*
X199125D01*
X199124Y248910D01*
X123090D01*
X122159Y249841D01*
X115090Y256910D01*
X61659D01*
X58249Y253500D01*
X48249D01*
X41634Y246885D01*
X33985D01*
X33500Y246400D01*
G01X203500Y238000D02*
Y240751D01*
X199751Y244500D01*
X198500D01*
X197500Y243500D01*
X195000D01*
X194000Y244500D01*
X193259D01*
X192259Y243500D01*
X189928D01*
X188928Y244500D01*
X188299D01*
X187299Y243500D01*
X184968D01*
X183968Y244500D01*
X183339D01*
X182339Y243500D01*
X180008D01*
X179008Y244500D01*
X178379D01*
X177379Y243500D01*
X175048D01*
X174048Y244500D01*
X173419D01*
X172419Y243500D01*
X170088D01*
X169088Y244500D01*
X168459D01*
X167459Y243500D01*
X165128D01*
X164128Y244500D01*
X163499D01*
X162499Y243500D01*
X160168D01*
X159168Y244500D01*
X158539D01*
X157539Y243500D01*
X155208D01*
X154208Y244500D01*
X153579D01*
X152579Y243500D01*
X150248D01*
X149248Y244500D01*
X148619D01*
X147619Y243500D01*
X145288D01*
X144288Y244500D01*
X142623D01*
X141623Y243500D01*
X139293D01*
X138293Y244500D01*
X137663D01*
X136663Y243500D01*
X134333D01*
X133333Y244500D01*
X132703D01*
X131703Y243500D01*
X129373D01*
X128373Y244500D01*
X127743D01*
X126743Y243500D01*
X124413D01*
X123413Y244500D01*
X122783D01*
X121783Y243500D01*
X119453D01*
X118453Y244500D01*
X99251D01*
X96910Y246841D01*
Y249841D01*
X94841Y251910D01*
X78159D01*
X76840Y250591D01*
Y247091D01*
X74159Y244410D01*
X62410D01*
X59765Y241765D01*
X44985D01*
X44500Y241280D01*
G01X211500Y238000D02*
X210590Y238910D01*
Y241410D01*
X201500Y250500D01*
X198466D01*
X123749Y250500D01*
X115749Y258500D01*
X61000D01*
X57590Y255090D01*
X47590D01*
X40975Y248475D01*
X33985D01*
X33500Y248960D01*
G01X87500Y175500D02*
X86590Y174590D01*
Y173410D01*
X88925Y171075D01*
X113575D01*
X115910Y173410D01*
Y175910D01*
X118000Y178000D01*
X124071D01*
X129057Y182985D01*
X152622D01*
X152623Y182986D01*
X153939D01*
X156425Y180500D01*
X170500D01*
X171000Y181000D01*
X172317D01*
X182251Y181000D01*
X185662Y184411D01*
X212411D01*
X213522Y185521D01*
Y185522D01*
X215000Y187000D01*
Y188000D01*
X220500Y193500D01*
Y195706D01*
X222348Y197554D01*
Y197593D01*
G01X85000Y175500D02*
Y172751D01*
X88266Y169485D01*
X114234D01*
X117500Y172751D01*
Y175251D01*
X118659Y176410D01*
X124730D01*
X129715Y181395D01*
X153281D01*
X155766Y178910D01*
X171159D01*
X171659Y179410D01*
X182910D01*
X186752Y183252D01*
X200748D01*
X201179Y182821D01*
X213070D01*
X215111Y184862D01*
Y184863D01*
X216590Y186341D01*
Y187341D01*
X222347Y193098D01*
Y194794D01*
G01X84000Y187500D02*
Y190000D01*
X84500Y190500D01*
X85052D01*
X85552Y190000D01*
X86000D01*
X88500Y192500D01*
X99500D01*
X101905Y194905D01*
X126905D01*
X130505Y198505D01*
X146244D01*
X147749Y197000D01*
X165000D01*
X170485Y202485D01*
X199015D01*
X205116Y196384D01*
X206654D01*
X207044Y196774D01*
Y197594D01*
G01Y194794D02*
X204458D01*
X198356Y200895D01*
X171144D01*
X165659Y195410D01*
X147090D01*
X145585Y196915D01*
X131164D01*
X127564Y193315D01*
X102815D01*
X101341Y191841D01*
X100410Y190910D01*
X89159D01*
X86000Y187751D01*
Y187251D01*
X84659Y185910D01*
X82590D01*
X81000Y187500D01*
G01X92000D02*
X91776Y187724D01*
X91166D01*
X90776Y187334D01*
Y185224D01*
X92000Y184000D01*
X99000D01*
X102410Y180590D01*
X105090D01*
X106500Y182000D01*
X122000D01*
X128000Y188000D01*
X138000D01*
X139000Y187000D01*
X167000D01*
X168691Y188691D01*
X186809D01*
X187190Y188310D01*
X210059D01*
X210943Y189194D01*
G01X89000Y187500D02*
X89186Y187314D01*
Y184566D01*
X91341Y182410D01*
X98341D01*
X101751Y179000D01*
X105749D01*
X107159Y180410D01*
X122659D01*
X128659Y186410D01*
X137341D01*
X138341Y185410D01*
X167659D01*
X169350Y187101D01*
X210236D01*
X210943Y186394D01*
G01X215000Y251000D02*
X215410Y250590D01*
X227590D01*
X229000Y252000D01*
Y253079D01*
X228610Y253469D01*
X227950D01*
X227480Y253000D01*
G01X213000Y249000D02*
X228249D01*
X230630Y251381D01*
Y253000D01*
M02*
