G04 ================== begin FILE IDENTIFICATION RECORD ==================*
G04 Layout Name:  C:/Cadwork/CircuitCo_MinnowMAX_RevA1/MinnowMax_RevA1.brd*
G04 Film Name:    MinnowMax_lyr5*
G04 File Format:  Gerber RS274X*
G04 File Origin:  Cadence Allegro 16.6-S026*
G04 Origin Date:  Fri May 02 14:12:17 2014*
G04 *
G04 Layer:  VIA CLASS/PWR5*
G04 Layer:  PIN/PWR5*
G04 Layer:  ETCH/PWR5*
G04 Layer:  DRAWING FORMAT/TITLE_BLOCK*
G04 Layer:  BOARD GEOMETRY/PLATING_BAR*
G04 Layer:  BOARD GEOMETRY/TOOLING_CORNERS*
G04 *
G04 Offset:    (0.0000 0.0000)*
G04 Mirror:    No*
G04 Mode:      Positive*
G04 Rotation:  0*
G04 FullContactRelief:  No*
G04 UndefLineWidth:     5.0000*
G04 ================== end FILE IDENTIFICATION RECORD ====================*
%FSLAX45Y45*MOIN*%
%IR0*IPPOS*OFA0.00000B0.00000*MIA0B0*SFA1.00000B1.00000*%
%ADD14O,.07X.18*%
%AMMACRO17*
4,1,36,-.005,0.0,
-.004924,-.000868,
-.004698,-.00171,
-.00433,-.0025,
-.00383,-.003214,
-.003214,-.00383,
-.0025,-.00433,
-.00171,-.004698,
-.000868,-.004924,
0.0,-.005,
.000868,-.004924,
.00171,-.004698,
.0025,-.00433,
.003214,-.00383,
.00383,-.003214,
.00433,-.0025,
.004698,-.00171,
.004924,-.000868,
.005,0.0,
.004924,.000868,
.004698,.00171,
.00433,.0025,
.00383,.003214,
.003214,.00383,
.0025,.00433,
.00171,.004698,
.000868,.004924,
0.0,.005,
-.000868,.004924,
-.00171,.004698,
-.0025,.00433,
-.003214,.00383,
-.00383,.003214,
-.00433,.0025,
-.004698,.00171,
-.004924,.000868,
-.005,0.0,
0.0*
%
%ADD17MACRO17*%
%AMMACRO18*
4,1,36,0.0,-.015,
-.002605,-.014772,
-.00513,-.014095,
-.0075,-.01299,
-.009642,-.011491,
-.011491,-.009642,
-.01299,-.0075,
-.014095,-.00513,
-.014772,-.002605,
-.015,0.0,
-.014772,.002605,
-.014095,.00513,
-.01299,.0075,
-.011491,.009642,
-.009642,.011491,
-.0075,.01299,
-.00513,.014095,
-.002605,.014772,
0.0,.015,
.002605,.014772,
.00513,.014095,
.0075,.01299,
.009642,.011491,
.011491,.009642,
.01299,.0075,
.014095,.00513,
.014772,.002605,
.015,0.0,
.014772,-.002605,
.014095,-.00513,
.01299,-.0075,
.011491,-.009642,
.009642,-.011491,
.0075,-.01299,
.00513,-.014095,
.002605,-.014772,
0.0,-.015,
0.0*
%
%ADD18MACRO18*%
%ADD12C,.016*%
%ADD19R,.06X.06*%
%ADD15C,.058*%
%AMMACRO16*
4,1,36,0.0,-.015,
.002605,-.014772,
.00513,-.014095,
.0075,-.01299,
.009642,-.011491,
.011491,-.009642,
.01299,-.0075,
.014095,-.00513,
.014772,-.002605,
.015,0.0,
.014772,.002605,
.014095,.00513,
.01299,.0075,
.011491,.009642,
.009642,.011491,
.0075,.01299,
.00513,.014095,
.002605,.014772,
0.0,.015,
-.002605,.014772,
-.00513,.014095,
-.0075,.01299,
-.009642,.011491,
-.011491,.009642,
-.01299,.0075,
-.014095,.00513,
-.014772,.002605,
-.015,0.0,
-.014772,-.002605,
-.014095,-.00513,
-.01299,-.0075,
-.011491,-.009642,
-.009642,-.011491,
-.0075,-.01299,
-.00513,-.014095,
-.002605,-.014772,
0.0,-.015,
135.*
%
%ADD16MACRO16*%
%ADD13C,.14*%
%ADD10C,.25*%
%ADD11O,.1X.065*%
%ADD20C,.02*%
%ADD21C,.03*%
%ADD22C,.006*%
%ADD23C,.008*%
%ADD24C,.005*%
%ADD27O,.132X.052*%
%ADD26O,.052X.132*%
%ADD28C,.02*%
%ADD43C,.021*%
%ADD31C,.022*%
%ADD30C,.05*%
%ADD40C,.052*%
%ADD32C,.043*%
%ADD38C,.054*%
%ADD42C,.074*%
%ADD35C,.048*%
%ADD36C,.049*%
%ADD37C,.059*%
%ADD29C,.068*%
%ADD44C,.028284*%
%ADD25O,.043X.071*%
%ADD34C,.103*%
%ADD39R,.07X.07*%
%ADD41C,.152*%
%ADD33C,.192*%
G75*
%LPD*%
G75*
G36*
G01X-5000Y-55000D02*
Y-45000D01*
X-15000D01*
Y-40000D01*
X0D01*
Y-55000D01*
X-5000D01*
G37*
G36*
G01X-15000Y335000D02*
X-5000D01*
Y345000D01*
X0D01*
Y330000D01*
X-15000D01*
Y335000D01*
G37*
G36*
G01X3000Y2000D02*
X2000Y3000D01*
Y287000D01*
X3000Y288000D01*
X387000D01*
X388000Y287000D01*
Y229387D01*
G03Y225613I2000J-1887D01*
G01Y214387D01*
G03Y210613I2000J-1887D01*
G01Y84387D01*
G03Y80613I2000J-1887D01*
G01Y69387D01*
G03Y65613I2000J-1887D01*
G01Y3000D01*
X387000Y2000D01*
X363000D01*
X362000Y3000D01*
Y21000D01*
X369000Y28000D01*
X382000D01*
X384000Y30000D01*
Y260000D01*
X382000Y262000D01*
X364000D01*
X362000Y264000D01*
Y283000D01*
X360000Y285000D01*
X30000D01*
X28000Y283000D01*
Y265000D01*
X25000Y262000D01*
Y254000D01*
X23000Y252000D01*
X8000D01*
Y233000D01*
X23000D01*
X24000Y232000D01*
Y228500D01*
X23000Y227500D01*
X8000D01*
Y215000D01*
X6000Y213000D01*
Y30000D01*
X8000Y28000D01*
X21000D01*
X28000Y21000D01*
Y3000D01*
X27000Y2000D01*
X3000D01*
G37*
G36*
G01X31000D02*
X30000Y3000D01*
Y22000D01*
X22000Y30000D01*
X9000D01*
X8000Y31000D01*
Y77000D01*
X9000Y78000D01*
X34000D01*
X35000Y77000D01*
Y68000D01*
X37000Y66000D01*
X54634D01*
G03X56366I866J500D01*
G01X57134D01*
G03X58866I866J500D01*
G01X59634D01*
G03X61366I866J500D01*
G01X62134D01*
G03X63866I866J500D01*
G01X64634D01*
G03X66366I866J500D01*
G01X67134D01*
G03X68866I866J500D01*
G01X69500D01*
X71500Y68000D01*
Y146604D01*
G02X71929Y147003I400J0D01*
G03Y148997I71J997D01*
G02X71500Y149396I-29J399D01*
G01Y153073D01*
G02X71938Y153471I400J0D01*
G03Y155462I95J995D01*
G02X71500Y155860I-38J398D01*
G01Y173494D01*
G03Y173506I-1000J6D01*
G01Y186634D01*
G03Y188366I-500J866D01*
G01Y189634D01*
G03Y191366I-500J866D01*
G01Y195634D01*
G03Y197366I-500J866D01*
G01Y204104D01*
G02X71929Y204503I400J0D01*
G03Y206497I71J997D01*
G02X71500Y206896I-29J399D01*
G01Y211486D01*
X71667Y211514D01*
G03Y213486I-167J986D01*
G01X71500Y213514D01*
Y216486D01*
X71667Y216514D01*
G03X72454Y217801I-167J986D01*
G01X72417Y217917D01*
X73500Y219000D01*
X80500D01*
X81582Y220082D01*
G02X82260Y219856I283J-283D01*
G03X83000Y220968I990J144D01*
G02X82500Y221356I-100J387D01*
G01Y223644D01*
G02X83000Y224032I400J0D01*
G03Y225968I250J968D01*
G02X82500Y226356I-100J387D01*
G01Y238644D01*
G02X83000Y239032I400J0D01*
G03Y240968I250J968D01*
G02X82500Y241356I-100J387D01*
G01Y243644D01*
G02X83000Y244032I400J0D01*
G03Y245968I250J968D01*
G02X82500Y246356I-100J387D01*
G01Y248644D01*
G02X83000Y249032I400J0D01*
G03Y250968I250J968D01*
G02X82500Y251356I-100J387D01*
G01Y253000D01*
X83500Y254000D01*
X94500D01*
X96500Y256000D01*
Y282000D01*
X97500Y283000D01*
X131735D01*
G02X132096Y282429I0J-400D01*
G03X133904I904J-429D01*
G02X134265Y283000I361J171D01*
G01X140735D01*
G02X141096Y282429I0J-400D01*
G03X142904I904J-429D01*
G02X143265Y283000I361J171D01*
G01X223066D01*
G02X223427Y282429I0J-400D01*
G03X225234I904J-429D01*
G02X225596Y283000I361J171D01*
G01X253235D01*
G02X253596Y282429I0J-400D01*
G03X255404I904J-429D01*
G02X255765Y283000I361J171D01*
G01X260861D01*
G02X261222Y282429I0J-400D01*
G03X263030I904J-429D01*
G02X263391Y283000I361J171D01*
G01X275235D01*
G02X275596Y282429I0J-400D01*
G03X277404I904J-429D01*
G02X277765Y283000I361J171D01*
G01X279735D01*
G02X280096Y282429I0J-400D01*
G03X281904I904J-429D01*
G02X282265Y283000I361J171D01*
G01X283235D01*
G02X283596Y282429I0J-400D01*
G03X285404I904J-429D01*
G02X285765Y283000I361J171D01*
G01X287235D01*
G02X287596Y282429I0J-400D01*
G03X289404I904J-429D01*
G02X289765Y283000I361J171D01*
G01X291235D01*
G02X291596Y282429I0J-400D01*
G03X293404I904J-429D01*
G02X293765Y283000I361J171D01*
G01X295235D01*
G02X295596Y282429I0J-400D01*
G03X297404I904J-429D01*
G02X297765Y283000I361J171D01*
G01X304235D01*
G02X304596Y282429I0J-400D01*
G03X306404I904J-429D01*
G02X306765Y283000I361J171D01*
G01X308235D01*
G02X308596Y282429I0J-400D01*
G03X310404I904J-429D01*
G02X310765Y283000I361J171D01*
G01X314404D01*
G02X314766Y282429I0J-400D01*
G03X316573I904J-429D01*
G02X316934Y283000I361J171D01*
G01X359000D01*
X360000Y282000D01*
Y276265D01*
G02X359429Y275904I-400J0D01*
G03Y274096I-429J-904D01*
G02X360000Y273735I171J-361D01*
G01Y263000D01*
X363000Y260000D01*
X381000D01*
X382000Y259000D01*
Y121765D01*
G02X381429Y121404I-400J0D01*
G03Y119596I-429J-904D01*
G02X382000Y119235I171J-361D01*
G01Y83000D01*
X381000Y82000D01*
X317000D01*
X316000Y83000D01*
Y83735D01*
G02X316571Y84096I400J0D01*
G03Y85904I429J904D01*
G02X316000Y86265I-171J361D01*
G01Y88735D01*
G02X316571Y89096I400J0D01*
G03Y90904I429J904D01*
G02X316000Y91265I-171J361D01*
G01Y161994D01*
G03Y162006I-1000J6D01*
G01Y183125D01*
G02X316560Y183492I400J0D01*
G03Y185508I440J1008D01*
G02X316000Y185875I-160J367D01*
G01Y190986D01*
X316167Y191014D01*
G03Y192986I-167J986D01*
G01X316000Y193014D01*
Y197317D01*
G02X316552Y197687I400J0D01*
G03Y202313I948J2313D01*
G02X316000Y202683I-152J370D01*
G01Y207317D01*
G02X316552Y207687I400J0D01*
G03X315376Y211319I948J2313D01*
G02X314753Y211247I-340J211D01*
G01X314000Y212000D01*
X302866D01*
G03X301134I-866J-500D01*
G01X298866D01*
G03X297134I-866J-500D01*
G01X218460D01*
X218423Y212015D01*
G03X217577I-423J-1015D01*
G01X217540Y212000D01*
X187460D01*
X187423Y212015D01*
G03X186577I-423J-1015D01*
G01X186540Y212000D01*
X176014D01*
X175986Y212167D01*
G03X174014I-986J-167D01*
G01X173986Y212000D01*
X173014D01*
X172986Y212167D01*
G03X171014I-986J-167D01*
G01X170986Y212000D01*
X167000D01*
X162623Y207623D01*
G02X161957Y207790I-283J283D01*
G03X161014Y206500I-957J-290D01*
G01X161099Y206501D01*
X161300Y206300D01*
X144310Y189310D01*
G02X143753Y189302I-283J283D01*
G03X142198Y187747I-753J-802D01*
G02X142190Y187190I-291J-274D01*
G01X135239Y180239D01*
G02X134683Y180230I-283J283D01*
G03X133270Y178817I-683J-730D01*
G02X133261Y178261I-292J-273D01*
G01X132000Y177000D01*
Y162514D01*
X131833Y162486D01*
G03Y160514I167J-986D01*
G01X132000Y160486D01*
Y150765D01*
G02X131429Y150404I-400J0D01*
G03Y148596I-429J-904D01*
G02X132000Y148235I171J-361D01*
G01Y147765D01*
G02X131429Y147404I-400J0D01*
G03Y145596I-429J-904D01*
G02X132000Y145235I171J-361D01*
G01Y144765D01*
G02X131429Y144404I-400J0D01*
G03Y142596I-429J-904D01*
G02X132000Y142235I171J-361D01*
G01Y126765D01*
G02X131429Y126404I-400J0D01*
G03Y124596I-429J-904D01*
G02X132000Y124235I171J-361D01*
G01Y123894D01*
G02X131667Y123745I-200J0D01*
G03X131429Y122096I-667J-745D01*
G02X132000Y121735I171J-361D01*
G01Y121394D01*
G02X131667Y121245I-200J0D01*
G03X131429Y119596I-667J-745D01*
G02X132000Y119235I171J-361D01*
G01Y111265D01*
G02X131429Y110904I-400J0D01*
G03Y109096I-429J-904D01*
G02X132000Y108735I171J-361D01*
G01Y108394D01*
G02X131667Y108245I-200J0D01*
G03X131429Y106596I-667J-745D01*
G02X132000Y106235I171J-361D01*
G01Y105894D01*
G02X131667Y105745I-200J0D01*
G03X131429Y104096I-667J-745D01*
G02X132000Y103735I171J-361D01*
G01Y61000D01*
X131000Y60000D01*
X119014D01*
X118986Y60167D01*
G03X117003Y60072I-986J-167D01*
G01X116997Y59997D01*
X115000Y58000D01*
Y22000D01*
G02X114310Y21724I-400J0D01*
G03Y18276I-1810J-1724D01*
G02X115000Y18000I290J-276D01*
G01Y12000D01*
G02X114310Y11724I-400J0D01*
G03Y8276I-1810J-1724D01*
G02X115000Y8000I290J-276D01*
G01Y2000D01*
X31000D01*
G37*
G36*
G01X38000Y68000D02*
X37000Y69000D01*
Y78000D01*
X35000Y80000D01*
X31396D01*
G02X30997Y80429I0J400D01*
G03X29003I-997J71D01*
G02X28604Y80000I-399J-29D01*
G01X28396D01*
G02X27997Y80429I0J400D01*
G03X26003I-997J71D01*
G02X25604Y80000I-399J-29D01*
G01X9000D01*
X8000Y81000D01*
Y143009D01*
G02X8547Y143381I400J0D01*
G03Y148219I953J2419D01*
G02X8000Y148591I-147J372D01*
G01Y196409D01*
G02X8547Y196781I400J0D01*
G03Y201619I953J2419D01*
G02X8000Y201991I-147J372D01*
G01Y212000D01*
X10000Y214000D01*
Y225500D01*
X24000D01*
X27000Y228500D01*
Y232000D01*
X24000Y235000D01*
X10000D01*
Y250000D01*
X13281D01*
G02X13653Y249452I0J-400D01*
G03X15511I929J-370D01*
G02X15883Y250000I372J148D01*
G01X24000D01*
X27000Y253000D01*
Y261000D01*
X30000Y264000D01*
Y282000D01*
X31000Y283000D01*
X42235D01*
G02X42596Y282429I0J-400D01*
G03X44404I904J-429D01*
G02X44765Y283000I361J171D01*
G01X71735D01*
G02X72096Y282429I0J-400D01*
G03X73904I904J-429D01*
G02X74265Y283000I361J171D01*
G01X80735D01*
G02X81096Y282429I0J-400D01*
G03X82904I904J-429D01*
G02X83265Y283000I361J171D01*
G01X93500D01*
X94205Y282295D01*
X93951Y282042D01*
X93817Y282125D01*
G03X93879Y277915I-1317J-2125D01*
G02X94500Y277581I221J-334D01*
G01Y272419D01*
G02X93879Y272085I-400J0D01*
G03Y267915I-1379J-2085D01*
G02X94500Y267581I221J-334D01*
G01Y257000D01*
X93500Y256000D01*
X69500D01*
X67996Y254496D01*
G02X67367Y254579I-283J283D01*
G03X66929Y253176I-867J-499D01*
G02X67500Y252815I171J-361D01*
G01Y252765D01*
G02X66929Y252404I-400J0D01*
G03Y250596I-429J-904D01*
G02X67500Y250235I171J-361D01*
G01Y248765D01*
G02X66929Y248404I-400J0D01*
G03Y246596I-429J-904D01*
G02X67500Y246235I171J-361D01*
G01Y243765D01*
G02X66929Y243404I-400J0D01*
G03Y241596I-429J-904D01*
G02X67500Y241235I171J-361D01*
G01Y237265D01*
G02X66929Y236904I-400J0D01*
G03Y235096I-429J-904D01*
G02X67500Y234735I171J-361D01*
G01Y228875D01*
G02X66940Y228508I-400J0D01*
G03Y226492I-440J-1008D01*
G02X67500Y226125I160J-367D01*
G01Y221000D01*
X69500Y219000D01*
Y173506D01*
G03Y173494I1000J-6D01*
G01Y163504D01*
G03Y161772I500J-866D01*
G01Y69000D01*
X68500Y68000D01*
X38000D01*
G37*
G36*
G01X80500Y253000D02*
Y222000D01*
X79500Y221000D01*
X70500D01*
X69500Y222000D01*
Y253000D01*
X70500Y254000D01*
X79500D01*
X80500Y253000D01*
G37*
G36*
G01X117000Y2000D02*
Y27134D01*
G03Y28866I-500J866D01*
G01Y36134D01*
G03Y37866I-500J866D01*
G01Y39134D01*
G03Y40866I-500J866D01*
G01Y46635D01*
G02X117571Y46996I400J0D01*
G03X118661Y48650I429J904D01*
G02Y49250I265J300D01*
G03X117571Y50904I-661J750D01*
G02X117000Y51265I-171J361D01*
G01Y53735D01*
G02X117571Y54096I400J0D01*
G03Y55904I429J904D01*
G02X117000Y56265I-171J361D01*
G01Y56606D01*
G02X117333Y56755I200J0D01*
G03X118997Y57571I667J745D01*
G02X119396Y58000I399J29D01*
G01X148000D01*
X149000Y57000D01*
Y41000D01*
X150500Y39500D01*
X152634D01*
G03X154366I866J500D01*
G01X156634D01*
G03X158366I866J500D01*
G01X167486D01*
X167514Y39333D01*
G03X169486I986J167D01*
G01X169514Y39500D01*
X171486D01*
X171514Y39333D01*
G03X173486I986J167D01*
G01X173514Y39500D01*
X175486D01*
X175514Y39333D01*
G03X177035Y40345I986J167D01*
G02X176966Y40966I214J338D01*
G01X177000Y41000D01*
Y41634D01*
G03Y43366I-500J866D01*
G01Y60486D01*
X177167Y60514D01*
G03Y62486I-167J986D01*
G01X177000Y62514D01*
Y64486D01*
X177167Y64514D01*
G03Y66486I-167J986D01*
G01X177000Y66514D01*
Y74986D01*
X177167Y75014D01*
G03Y76986I-167J986D01*
G01X177000Y77014D01*
Y77486D01*
X177167Y77514D01*
G03Y79486I-167J986D01*
G01X177000Y79514D01*
Y82000D01*
X178000Y83000D01*
X185000D01*
X187000Y85000D01*
Y100000D01*
X197000Y110000D01*
X197744D01*
G02X198144Y109601I0J-400D01*
G03X200344I1100J4D01*
G02X200744Y110000I400J-1D01*
G01X201644D01*
G02X202044Y109602I0J-400D01*
G03X204244I1100J5D01*
G02X204644Y110000I400J-2D01*
G01X215000D01*
X224968Y119968D01*
G02X225517Y119984I283J-283D01*
G03X227070Y121537I731J822D01*
G02X227086Y122086I299J266D01*
G01X233358Y128358D01*
X233469Y128328D01*
G03X234815Y129674I283J1063D01*
G01X234785Y129785D01*
X242489Y137489D01*
X242550Y137500D01*
G03X243434Y138384I-198J1082D01*
G01X243445Y138445D01*
X243670Y138670D01*
G02X244349Y138439I283J-283D01*
G03X245583Y139672I1091J143D01*
G02X245352Y140352I52J397D01*
G01X251000Y146000D01*
X313000D01*
X314000Y145000D01*
Y128000D01*
X314000Y82000D01*
X316000Y80000D01*
X381000D01*
X382000Y79000D01*
Y31000D01*
X381000Y30000D01*
X368000D01*
X360000Y22000D01*
Y3000D01*
X359000Y2000D01*
X117000D01*
G37*
G36*
G01X160043Y201210D02*
G03X160986Y202500I957J290D01*
G01X160901Y202499D01*
X160700Y202700D01*
X162293Y204293D01*
G03X163707Y205707I707J707D01*
G01X168000Y210000D01*
X186540D01*
X186577Y209985D01*
G03X187423I423J1015D01*
G01X187460Y210000D01*
X191887D01*
X191913Y209831D01*
G03X194087I1087J169D01*
G01X194113Y210000D01*
X205125D01*
G02X205492Y209440I0J-400D01*
G03X207508I1008J-440D01*
G02X207875Y210000I367J160D01*
G01X214125D01*
G02X214492Y209440I0J-400D01*
G03X216508I1008J-440D01*
G02X216875Y210000I367J160D01*
G01X217540D01*
X217577Y209985D01*
G03X218423I423J1015D01*
G01X218460Y210000D01*
X221025D01*
G02X221392Y209440I0J-400D01*
G03X223408I1008J-440D01*
G02X223775Y210000I367J160D01*
G01X236225D01*
G02X236592Y209440I0J-400D01*
G03X238608I1008J-440D01*
G02X238975Y210000I367J160D01*
G01X243925D01*
G02X244292Y209440I0J-400D01*
G03X246308I1008J-440D01*
G02X246675Y210000I367J160D01*
G01X251525D01*
G02X251892Y209440I0J-400D01*
G03X253908I1008J-440D01*
G02X254275Y210000I367J160D01*
G01X257625D01*
G02X257992Y209440I0J-400D01*
G03X260008I1008J-440D01*
G02X260375Y210000I367J160D01*
G01X265825D01*
G02X266192Y209440I0J-400D01*
G03X268208I1008J-440D01*
G02X268575Y210000I367J160D01*
G01X268725D01*
G02X269092Y209440I0J-400D01*
G03X271108I1008J-440D01*
G02X271475Y210000I367J160D01*
G01X313000D01*
X314000Y209000D01*
Y193375D01*
G02X313440Y193008I-400J0D01*
G03Y190992I-440J-1008D01*
G02X314000Y190625I160J-367D01*
G01Y162006D01*
G03Y161994I1000J-6D01*
G01Y156000D01*
X313000Y155000D01*
X308321D01*
X308294Y155008D01*
G03X307706I-294J-1008D01*
G01X307679Y155000D01*
X284113D01*
X284087Y155169D01*
G03X281913I-1087J-169D01*
G01X281887Y155000D01*
X281113D01*
X281087Y155169D01*
G03X278913I-1087J-169D01*
G01X278887Y155000D01*
X276000D01*
X275000Y156000D01*
Y200000D01*
X273000Y202000D01*
X270182D01*
X270148Y202013D01*
G03X269373I-387J-1030D01*
G01X269339Y202000D01*
X257000D01*
X256392Y201392D01*
X256363Y201378D01*
G03X255872Y200886I492J-984D01*
G01X255857Y200857D01*
X255000Y200000D01*
Y183500D01*
X256000Y182500D01*
Y175000D01*
X255913Y174913D01*
G02X255371Y174892I-283J283D01*
G03X253562Y173942I-715J-836D01*
G02X253164Y173500I-398J-42D01*
G01X252906D01*
Y173728D01*
X252914Y173755D01*
G03X250762Y173942I-1058J301D01*
G02X250364Y173500I-398J-42D01*
G01X239500D01*
X237802Y171802D01*
G02X237161Y171907I-283J283D01*
G03X235076Y171405I-985J-490D01*
G02X234676Y171000I-400J-5D01*
G01X234588D01*
G02X234188Y171405I0J400D01*
G03X231988I-1100J13D01*
G02X231588Y171000I-400J-5D01*
G01X231500D01*
G02X231100Y171405I0J400D01*
G03X228900I-1100J13D01*
G02X228500Y171000I-400J-5D01*
G01X228412D01*
G02X228012Y171405I0J400D01*
G03X225812I-1100J13D01*
G02X225412Y171000I-400J-5D01*
G01X225323D01*
G02X224923Y171404I0J400D01*
G03X222811Y170987I-1100J12D01*
G01X222863Y170863D01*
X219500Y167500D01*
X209000D01*
X208000Y168500D01*
X180997D01*
G02X180598Y168927I0J400D01*
G03X178402I-1098J73D01*
G02X178003Y168500I-399J-27D01*
G01X160866D01*
G03X159134I-866J-500D01*
G01X159000D01*
X156787Y166287D01*
X156649Y166388D01*
G03X156608Y166417I-649J-888D01*
G02Y167083I221J333D01*
G03X155392I-608J917D01*
G02Y166417I-221J-333D01*
G03X155222Y164722I608J-917D01*
G01X147239Y156739D01*
G02X146683Y156730I-283J283D01*
G03X145270Y155317I-683J-730D01*
G02X145261Y154761I-292J-273D01*
G01X144000Y153500D01*
Y116006D01*
G03Y115994I1000J-6D01*
G01Y98000D01*
X159000Y83000D01*
X174000D01*
X175000Y82000D01*
Y58765D01*
G02X174429Y58404I-400J0D01*
G03Y56596I-429J-904D01*
G02X175000Y56235I171J-361D01*
G01Y42000D01*
X174000Y41000D01*
X157506D01*
G03X157494I-6J-1000D01*
G01X153506D01*
G03X153494I-6J-1000D01*
G01X152000D01*
X151000Y42000D01*
Y58000D01*
X149000Y60000D01*
X135000D01*
X134000Y61000D01*
Y61619D01*
G02X134466Y62014I400J0D01*
G03Y63986I164J986D01*
G02X134000Y64381I-66J395D01*
G01Y104134D01*
G03Y105866I-500J866D01*
G01Y106634D01*
G03Y108366I-500J866D01*
G01Y109134D01*
G03Y110866I-500J866D01*
G01Y119634D01*
G03Y121366I-500J866D01*
G01Y122134D01*
G03Y123866I-500J866D01*
G01Y124634D01*
G03Y126366I-500J866D01*
G01Y142634D01*
G03Y144366I-500J866D01*
G01Y145634D01*
G03Y147366I-500J866D01*
G01Y148634D01*
G03Y150366I-500J866D01*
G01Y155134D01*
G03Y156866I-500J866D01*
G01Y173486D01*
X134167Y173514D01*
G03Y175486I-167J986D01*
G01X134000Y175514D01*
Y176000D01*
X159377Y201377D01*
G02X160043Y201210I283J-283D01*
G37*
G36*
G01X160000Y85000D02*
X146000Y99000D01*
Y115994D01*
G03Y116006I-1000J6D01*
G01Y116500D01*
X147000Y117500D01*
X168500D01*
X174165Y123165D01*
X174307Y123029D01*
G03X175721Y124443I693J721D01*
G02X175723Y124723I144J139D01*
G01X179008Y128008D01*
X179127Y127965D01*
G03X180535Y129373I373J1035D01*
G01X180492Y129492D01*
X189000Y138000D01*
X213500D01*
X218000Y142500D01*
X224000Y148500D01*
Y149000D01*
X224000Y149427D01*
X224142Y149470D01*
G03Y151575I-318J1053D01*
G01X224000Y151618D01*
Y152412D01*
X224142Y152455D01*
G03X224688Y154189I-318J1053D01*
G02X224719Y154719I314J248D01*
G01X225000Y155000D01*
X249000D01*
X250000Y154000D01*
Y152646D01*
G02X249455Y152273I-400J0D01*
G03Y150223I-399J-1025D01*
G02X250000Y149850I145J-373D01*
G01Y148746D01*
G02X249455Y148373I-400J0D01*
G03X248282Y146566I-399J-1025D01*
G02X248283Y146283I-141J-142D01*
G01X247038Y145038D01*
G02X246421Y145102I-283J283D01*
G03X244898Y143579I-921J-602D01*
G02X244962Y142962I-219J-335D01*
G01X240914Y138914D01*
G02X240267Y139033I-283J283D01*
G03X238812Y137579I-1003J-451D01*
G02X238931Y136931I-164J-365D01*
G01X226640Y124640D01*
X226529Y124669D01*
G03X225185Y123325I-281J-1064D01*
G01X225214Y123214D01*
X223636Y121636D01*
G02X223085Y121622I-283J283D01*
G03X221531Y120068I-737J-816D01*
G02X221517Y119517I-297J-268D01*
G01X214000Y112000D01*
X196613D01*
X196587Y112169D01*
G03X194698Y111247I-1087J-169D01*
G02X194690Y110690I-291J-274D01*
G01X185000Y101000D01*
Y86000D01*
X184000Y85000D01*
X176112D01*
G02X175795Y85643I0J400D01*
G03X174205I-795J607D01*
G02X173888Y85000I-318J-243D01*
G01X160000D01*
G37*
G36*
G01X147000Y119500D02*
X146000Y120500D01*
Y152500D01*
X154446Y160946D01*
G02X155092Y160831I283J-283D01*
G03X156419Y162158I908J419D01*
G02X156304Y162804I168J363D01*
G01X160000Y166500D01*
X178003D01*
G02X178402Y166073I0J-400D01*
G03X180598I1098J-73D01*
G02X180997Y166500I399J27D01*
G01X187432D01*
X187464Y166339D01*
G03X189622I1079J213D01*
G01X189654Y166500D01*
X190382D01*
X190413Y166339D01*
G03X192572I1079J213D01*
G01X192604Y166500D01*
X193032D01*
X193063Y166339D01*
G03X195222I1079J213D01*
G01X195254Y166500D01*
X195832D01*
X195863Y166339D01*
G03X198022I1079J213D01*
G01X198054Y166500D01*
X198631D01*
X198663Y166339D01*
G03X200821I1079J213D01*
G01X200853Y166500D01*
X201719D01*
X201751Y166339D01*
G03X203909I1079J213D01*
G01X203941Y166500D01*
X210121D01*
G02X210482Y165926I0J-400D01*
G03X212462I990J-479D01*
G02X212823Y166500I360J174D01*
G01X221500D01*
X222571Y167571D01*
G02X223112Y167593I283J-283D01*
G03X224917Y168555I711J839D01*
G02X225314Y169000I397J45D01*
G01X225421D01*
G02X225819Y168555I0J-400D01*
G03X228005I1093J-123D01*
G02X228403Y169000I397J45D01*
G01X228509D01*
G02X228907Y168555I0J-400D01*
G03X231093I1093J-123D01*
G02X231491Y169000I397J45D01*
G01X231597D01*
G02X231995Y168555I0J-400D01*
G03X234181I1093J-123D01*
G02X234579Y169000I397J45D01*
G01X234685D01*
G02X235083Y168555I0J-400D01*
G03X237195Y168019I1093J-123D01*
G02X237849Y168151I371J-150D01*
G01X238000Y168000D01*
Y157500D01*
X237000Y156500D01*
X224937D01*
X224910Y156668D01*
G03X222999Y155765I-1086J-176D01*
G01X223124Y155624D01*
X222000Y154500D01*
Y149500D01*
X212500Y140000D01*
X188000D01*
X180278Y132278D01*
G03X180108Y132417I-778J-778D01*
G02Y133083I221J333D01*
G03X178892I-608J917D01*
G02Y132417I-221J-333D01*
G03X178612Y130851I608J-917D01*
G01X178713Y130713D01*
X176668Y128668D01*
G02X175990Y128894I-283J283D01*
G03X174856Y127760I-990J-144D01*
G02X175082Y127082I-57J-396D01*
G01X167500Y119500D01*
X147000D01*
G37*
G36*
G01X252500Y147500D02*
X251500Y148500D01*
Y149749D01*
G02X251888Y150149I400J0D01*
G03Y152348I-32J1100D01*
G02X251500Y152747I12J400D01*
G01Y155000D01*
X250000Y156500D01*
X241000D01*
X240000Y157500D01*
Y159500D01*
X241000Y160500D01*
X272000D01*
X273000Y159500D01*
Y155500D01*
X275000Y153500D01*
X296625D01*
G02X296992Y152940I0J-400D01*
G03X299008I1008J-440D01*
G02X299375Y153500I367J160D01*
G01X299625D01*
G02X299992Y152940I0J-400D01*
G03X302008I1008J-440D01*
G02X302375Y153500I367J160D01*
G01X307077D01*
G03X308923I923J500D01*
G01X313000D01*
X314000Y152500D01*
Y148500D01*
X313000Y147500D01*
X312896D01*
G02X312497Y147929I0J400D01*
G03X310503I-997J71D01*
G02X310104Y147500I-399J-29D01*
G01X299265D01*
G02X298904Y148071I0J400D01*
G03X297096I-904J429D01*
G02X296735Y147500I-361J-171D01*
G01X284497D01*
G02X284098Y147927I0J400D01*
G03X281902I-1098J73D01*
G02X281503Y147500I-399J-27D01*
G01X281497D01*
G02X281098Y147927I0J400D01*
G03X278902I-1098J73D01*
G02X278503Y147500I-399J-27D01*
G01X272556D01*
X272515Y147646D01*
G03X270397I-1059J-298D01*
G01X270356Y147500D01*
X264157D01*
X264116Y147646D01*
G03X261998I-1059J-298D01*
G01X261957Y147500D01*
X261357D01*
X261316Y147646D01*
G03X259198I-1059J-298D01*
G01X259157Y147500D01*
X252500D01*
G37*
G36*
G01X241000Y162000D02*
X240349Y162651D01*
X240337Y162707D01*
G03X240000Y163280I-1073J-244D01*
G01Y164629D01*
G03Y166264I-736J817D01*
G01Y171500D01*
X241000Y172500D01*
X255500D01*
X256199Y173199D01*
G02X256741Y173220I283J-283D01*
G03X257415Y175155I715J836D01*
G02X257000Y175555I-15J400D01*
G01Y176457D01*
G02X257415Y176856I400J0D01*
G03Y179055I42J1099D01*
G02X257000Y179454I-15J400D01*
G01Y182493D01*
X257147Y182533D01*
G03Y184655I-291J1061D01*
G01X257000Y184695D01*
Y190893D01*
X257147Y190933D01*
G03Y193055I-291J1061D01*
G01X257000Y193095D01*
Y193693D01*
X257147Y193733D01*
G03Y195855I-291J1061D01*
G01X257000Y195895D01*
Y196493D01*
X257147Y196533D01*
G03Y198655I-291J1061D01*
G01X257000Y198695D01*
Y199000D01*
X257510Y199510D01*
G03X257740Y199740I-654J884D01*
G01X258000Y200000D01*
X266612D01*
G02X266949Y199385I0J-400D01*
G03X268805I928J-591D01*
G02X269142Y200000I337J215D01*
G01X269265D01*
X269305Y199982D01*
G03X270216I456J1001D01*
G01X270256Y200000D01*
X272000D01*
X273000Y199000D01*
Y195926D01*
G02X272498Y195540I-400J0D01*
G03Y193413I-281J-1063D01*
G02X273000Y193026I102J-387D01*
G01Y163000D01*
X272711Y162711D01*
X272532Y162890D01*
X272518Y162941D01*
G03X270373Y162467I-1061J-290D01*
G02X269978Y162000I-394J-67D01*
G01X269676D01*
Y162236D01*
X269688Y162269D01*
G03X267572Y162467I-1032J382D01*
G02X267178Y162000I-394J-67D01*
G01X266876D01*
Y162236D01*
X266888Y162269D01*
G03X264772Y162467I-1032J382D01*
G02X264378Y162000I-394J-67D01*
G01X264076D01*
Y162236D01*
X264088Y162269D01*
G03X261972Y162467I-1032J382D01*
G02X261578Y162000I-394J-67D01*
G01X261275D01*
Y162236D01*
X261288Y162269D01*
G03X259321Y163231I-1032J382D01*
G02X258641I-340J211D01*
G03X256622Y162467I-935J-579D01*
G02X256228Y162000I-394J-67D01*
G01X250535D01*
G02X250141Y162467I0J400D01*
G03X247972I-1084J185D01*
G02X247578Y162000I-394J-67D01*
G01X241000D01*
G37*
G36*
G01X820000Y-45000D02*
X810000D01*
Y-55000D01*
X805000D01*
Y-40000D01*
X820000D01*
Y-45000D01*
G37*
G36*
G01X810000Y345000D02*
Y335000D01*
X820000D01*
Y330000D01*
X805000D01*
Y345000D01*
X810000D01*
G37*
%LPC*%
G75*
G36*
G01X56500Y41000D02*
X56207Y40707D01*
G02X54634Y39500I-707J-707D01*
G01X39500D01*
X38000Y41000D01*
Y59000D01*
X39083Y60083D01*
X39046Y60199D01*
G02X40986Y60667I954J301D01*
G01X41014Y60500D01*
X41486D01*
X41514Y60667D01*
G02X43486I986J-167D01*
G01X43514Y60500D01*
X55000D01*
X56500Y59000D01*
Y41000D01*
G37*
G36*
G01X31304Y51405D02*
G02Y52595I-804J595D01*
G03X31946I321J238D01*
G02X33554I804J-595D01*
G03X34196I321J238D01*
G02Y51405I804J-595D01*
G03X33554I-321J-238D01*
G02X31946I-804J595D01*
G03X31304I-321J-238D01*
G37*
G36*
G01X30426Y57997D02*
G02X29503Y57074I74J-997D01*
G03X29074Y57503I-399J30D01*
G02X28003Y58574I-74J997D01*
G03X27574Y59003I-399J30D01*
G02X28497Y59926I-74J997D01*
G03X28926Y59497I399J-30D01*
G02X29997Y58426I74J-997D01*
G03X30426Y57997I399J-30D01*
G37*
G36*
G01X20804Y61405D02*
G02Y62595I-804J595D01*
G03X21446I321J238D01*
G02Y61405I804J-595D01*
G03X20804I-321J-238D01*
G37*
G36*
G01X111207Y68207D02*
G02X109503Y67571I-707J-707D01*
G03X109104Y68000I-399J29D01*
G01X99000D01*
X97500Y69500D01*
Y110000D01*
X91000Y116500D01*
Y140494D01*
G02Y140506I1000J6D01*
G01Y143494D01*
G02Y143506I1000J6D01*
G01Y156486D01*
X90833Y156514D01*
G02Y158486I167J986D01*
G01X91000Y158514D01*
Y161986D01*
X90833Y162014D01*
G02Y163986I167J986D01*
G01X91000Y164014D01*
Y164986D01*
X90833Y165014D01*
G02Y166986I167J986D01*
G01X91000Y167014D01*
Y175500D01*
X92500Y177000D01*
X105104D01*
G03X105503Y177429I0J400D01*
G02X107454Y177199I997J71D01*
G01X107417Y177083D01*
X109083Y175417D01*
X109199Y175454D01*
G02X110304Y175095I301J-954D01*
G03X110946I321J238D01*
G02X112554I804J-595D01*
G03X113196I321J238D01*
G02Y173905I804J-595D01*
G03X112554I-321J-238D01*
G02X111894Y173510I-804J595D01*
G03X111668Y172832I57J-396D01*
G01X119500Y165000D01*
Y76500D01*
X111207Y68207D01*
G37*
G36*
G01X322969Y139405D02*
G02X322117Y140043I-969J-405D01*
G03X322531Y140595I45J397D01*
G02X323383Y139957I969J405D01*
G03X322969Y139405I-45J-397D01*
G37*
G36*
G01Y151905D02*
G02X322117Y152543I-969J-405D01*
G03X322531Y153095I45J397D01*
G02X323383Y152457I969J405D01*
G03X322969Y151905I-45J-397D01*
G37*
G36*
G01X119804Y173905D02*
G02Y175095I-804J595D01*
G03X120446I321J238D01*
G02Y173905I804J-595D01*
G03X119804I-321J-238D01*
G37*
G36*
G01X85905Y174968D02*
G02Y176032I-905J532D01*
G03X86595I345J203D01*
G02Y174968I905J-532D01*
G03X85905I-345J-203D01*
G37*
G36*
G01X82006Y187944D02*
G02X81145Y188590I-1006J-444D01*
G03X81570Y189134I53J397D01*
G02X83430I930J366D01*
G03X83855Y188590I372J-147D01*
G02X82994Y187944I145J-1090D01*
G03X82591Y188504I-366J162D01*
G02X82409I-91J996D01*
G03X82006Y187944I-37J-398D01*
G37*
G36*
G01X90006D02*
G02X89145Y188590I-1006J-444D01*
G03X89570Y189134I53J397D01*
G02X91430I930J366D01*
G03X91855Y188590I372J-147D01*
G02X90994Y187944I145J-1090D01*
G03X90591Y188504I-366J162D01*
G02X90409I-91J996D01*
G03X90006Y187944I-37J-398D01*
G37*
G36*
G01X105095Y190304D02*
G02X103905I-595J-804D01*
G03Y190946I-238J321D01*
G02X105095I595J804D01*
G03Y190304I238J-321D01*
G37*
G36*
G01X111830Y200443D02*
G02Y201557I-830J557D01*
G03X112495I332J223D01*
G02Y200443I830J-557D01*
G03X111830I-332J-223D01*
G37*
G36*
G01X197417Y229392D02*
G02X195541Y229462I-917J608D01*
G03X194851Y229476I-349J-196D01*
G02Y230524I-851J524D01*
G03X195541Y230538I341J210D01*
G02X197417Y230608I959J-538D01*
G03X198083I333J221D01*
G02Y229392I917J-608D01*
G03X197417I-333J-221D01*
G37*
G36*
G01X290541Y230538D02*
G02Y229462I959J-538D01*
G03X289851Y229476I-349J-196D01*
G02Y230524I-851J524D01*
G03X290541Y230538I341J210D01*
G37*
G36*
G01X201917Y232392D02*
G02X200041Y232462I-917J608D01*
G03X199351Y232476I-349J-196D01*
G02Y233524I-851J524D01*
G03X200041Y233538I341J210D01*
G02X201917Y233608I959J-538D01*
G03X202583I333J221D01*
G02Y232392I917J-608D01*
G03X201917I-333J-221D01*
G37*
G36*
G01X204417Y237392D02*
G02X202541Y237462I-917J608D01*
G03X201851Y237476I-349J-196D01*
G02Y238524I-851J524D01*
G03X202541Y238538I341J210D01*
G02X204417Y238608I959J-538D01*
G03X205083I333J221D01*
G02X206145Y239090I917J-608D01*
G03X206570Y239634I53J397D01*
G02X208430I930J366D01*
G03X208855Y239090I372J-147D01*
G02X209917Y238608I145J-1090D01*
G03X210583I333J221D01*
G02Y237392I917J-608D01*
G03X209917I-333J-221D01*
G02X207994Y238444I-917J608D01*
G03X207591Y239004I-366J162D01*
G02X207409I-91J996D01*
G03X207006Y238444I-37J-398D01*
G02X205083Y237392I-1006J-444D01*
G03X204417I-333J-221D01*
G37*
G36*
G01X105058Y248068D02*
G02Y246932I942J-568D01*
G03X104383Y246946I-342J-207D01*
G02Y248054I-833J554D01*
G03X105058Y248068I333J221D01*
G37*
G36*
G01X214555Y251896D02*
G02X214017Y250819I445J-896D01*
G03X213445Y251105I-393J-72D01*
G02X213983Y252181I-445J896D01*
G03X214555Y251896I393J72D01*
G37*
G36*
G01X298006Y234900D02*
G03X298000Y234900I1J-200D01*
G03X297994Y234900I-7J-200D01*
G02X298006I6J1100D01*
G37*
G36*
G01X298006Y234500D02*
G02X297994I-6J-1000D01*
G03X298000Y234500I-1J200D01*
G03X298006Y234500I7J200D01*
G37*
G36*
G01X34074Y247339D02*
G02X32926I-574J-939D01*
G03Y248021I-209J341D01*
G02X34074I574J939D01*
G03Y247339I209J-341D01*
G37*
G36*
G01X45074Y242219D02*
G02X43926I-574J-939D01*
G03Y242901I-209J341D01*
G02X45074I574J939D01*
G03Y242219I209J-341D01*
G37*
G36*
G01X15238Y239841D02*
G02X13762I-738J-816D01*
G03Y240434I-268J297D01*
G02X13892Y242167I738J816D01*
G03Y242833I-221J333D01*
G02X13762Y244566I608J917D01*
G03Y245159I-268J297D01*
G02X15238I738J816D01*
G03Y244566I268J-297D01*
G02X15108Y242833I-738J-816D01*
G03Y242167I221J-333D01*
G02X15238Y240434I-608J-917D01*
G03Y239841I268J-297D01*
G37*
G36*
G01X34074Y234539D02*
G02X32926I-574J-939D01*
G03Y235221I-209J341D01*
G02X34074I574J939D01*
G03Y234539I209J-341D01*
G37*
G36*
G01X45046Y229423D02*
G02X43899Y229414I-566J-943D01*
G03X43894Y230097I-211J340D01*
G02X43913Y231994I566J943D01*
G03X43939Y232672I-199J347D01*
G02X45034Y232655I561J828D01*
G03X45038Y231976I214J-338D01*
G02X45041Y230106I-578J-936D01*
G03X45046Y229423I211J-340D01*
G37*
G36*
G01X258737Y131385D02*
G02Y132704I-880J660D01*
G03X259377I320J240D01*
G02Y131385I880J-660D01*
G03X258737I-320J-240D01*
G37*
G36*
G01X284417Y124892D02*
G02Y126108I-917J608D01*
G03X285083I333J221D01*
G02X286917I917J-608D01*
G03X287583I333J221D01*
G02Y124892I917J-608D01*
G03X286917I-333J-221D01*
G02X285083I-917J608D01*
G03X284417I-333J-221D01*
G37*
G36*
G01X286917Y121392D02*
G02Y122608I-917J608D01*
G03X287583I333J221D01*
G02Y121392I917J-608D01*
G03X286917I-333J-221D01*
G37*
G36*
G01X220917Y97392D02*
G02Y98608I-917J608D01*
G03X221583I333J221D01*
G02Y97392I917J-608D01*
G03X220917I-333J-221D01*
G37*
G36*
G01X191098Y197064D02*
G02X190368Y198036I-1098J-64D01*
G03X190902Y198436I134J377D01*
G02X191632Y197464I1098J64D01*
G03X191098Y197064I-134J-377D01*
G37*
G36*
G01X199933Y190513D02*
G02X198554Y190513I-689J-858D01*
G03X198554Y191136I-251J312D01*
G02X199932Y191136I689J858D01*
G03X199933Y190513I251J-312D01*
G37*
G36*
G01X177941Y184930D02*
G02X176041Y184962I-941J570D01*
G03X175351Y184976I-349J-196D01*
G02Y186024I-851J524D01*
G03X176041Y186038I341J210D01*
G02X177892Y186143I959J-538D01*
G03X178559Y186170I325J234D01*
G02X178608Y184957I941J-570D01*
G03X177941Y184930I-325J-234D01*
G37*
G36*
G01X201352Y163153D02*
G02X201256Y161911I856J-691D01*
G03X200599Y161962I-346J-201D01*
G02X200695Y163204I-856J691D01*
G03X201352Y163153I346J201D01*
G37*
G36*
G01X180108Y155917D02*
G02X178892I-608J-917D01*
G03Y156583I-221J333D01*
G02X180108I608J917D01*
G03Y155917I221J-333D01*
G37*
G36*
G01Y149417D02*
G02X178892I-608J-917D01*
G03Y150083I-221J333D01*
G02X180108I608J917D01*
G03Y149417I221J-333D01*
G37*
G54D27*
X36700Y31100D03*
G54D26*
X23900Y50000D03*
G54D28*
X14500Y32000D03*
Y48000D03*
X9500Y60500D03*
X14500Y57000D03*
X9500D03*
Y69500D03*
X30500Y49500D03*
X22250Y64500D03*
X30500Y54500D03*
X30000Y64500D03*
X17500Y60500D03*
X22250Y69500D03*
Y67000D03*
X30000Y69500D03*
Y67000D03*
X28500Y74000D03*
X27500Y69500D03*
X37000Y60500D03*
X58500Y60000D03*
X65000Y24500D03*
X74000Y32500D03*
X65000D03*
X68500Y24500D03*
X65500Y40500D03*
X70000Y43000D03*
X65000Y46870D03*
Y43130D03*
X70000Y54500D03*
X62500Y60000D03*
X73500Y54000D03*
Y66500D03*
X75000Y154500D03*
X73000Y185000D03*
X87000Y28000D03*
X82000Y36500D03*
X76000Y24500D03*
X82000Y46000D03*
X87000D03*
X83500Y60500D03*
Y54000D03*
X87000D03*
X81000Y66500D03*
X83500D03*
X89500Y78000D03*
X76000Y66500D03*
X78500D03*
X88500Y93500D03*
X82000Y90500D03*
X89500Y85500D03*
Y88500D03*
Y81000D03*
X76500Y93500D03*
X88500Y97500D03*
X79500Y106500D03*
Y104000D03*
X82000Y114000D03*
X89500D03*
Y121500D03*
Y118500D03*
Y111000D03*
X82000Y118500D03*
X79500D03*
X82000Y121500D03*
X79500D03*
Y111000D03*
Y114000D03*
X89500Y126000D03*
X85500Y129000D03*
X89500D03*
X82000D03*
X79500D03*
X82000Y126000D03*
X79500D03*
X89000Y148000D03*
X86500Y152000D03*
Y154500D03*
X78000D03*
X83500D03*
X76185Y160685D03*
X84815D03*
X77500Y175500D03*
X84815Y169315D03*
X76185D03*
X82000Y194000D03*
X75500Y187500D03*
X78000D03*
X85500Y203000D03*
X83250Y215000D03*
X93500Y37000D03*
X101500Y28000D03*
X97500Y37000D03*
X101500D03*
X104000Y40000D03*
X93500D03*
X101500D03*
X97500D03*
X104000Y46000D03*
X92000Y43000D03*
Y46000D03*
X101500Y54000D03*
Y61000D03*
X92000Y54000D03*
X90000Y103000D03*
X90000Y106000D03*
X93000Y196500D03*
Y201000D03*
Y209500D03*
X103000Y225000D03*
X91750D03*
Y220000D03*
X103000Y217500D03*
X91750Y215000D03*
X103000Y222500D03*
X91750Y240000D03*
X92000Y234500D03*
X103500Y242500D03*
X91750Y250000D03*
Y245000D03*
X103500Y250000D03*
Y252500D03*
Y255500D03*
X108500Y37000D03*
X112500D03*
X108500Y40000D03*
X112500D03*
Y55000D03*
X118000Y63000D03*
X104500Y182000D03*
Y187000D03*
Y184500D03*
X108000Y196500D03*
X113500Y191500D03*
Y183500D03*
Y187500D03*
X117500Y201000D03*
X105500Y222500D03*
Y225000D03*
X106000Y242500D03*
X117500Y247500D03*
Y242500D03*
X127000Y63000D03*
X129000Y78500D03*
X122500Y154000D03*
X125500D03*
X128500Y161000D03*
X125500Y158500D03*
Y161000D03*
X123750Y174500D03*
X131500Y179500D03*
X133000Y193000D03*
X130500Y184500D03*
X133000Y195500D03*
X121500Y183500D03*
Y191500D03*
Y187500D03*
X127500Y210500D03*
X124500D03*
X119000Y203000D03*
X121000Y201000D03*
X131630Y227000D03*
X133000Y267000D03*
X126000Y260500D03*
X133000Y272000D03*
X131000Y277000D03*
X143000Y195500D03*
X135370Y210500D03*
X143000Y207500D03*
X138500Y218000D03*
X141000D03*
X144000D03*
X138500Y224000D03*
X147000Y247500D03*
X142000Y267000D03*
X144000Y257500D03*
X142000Y272000D03*
X144000Y277000D03*
X152000Y203500D03*
Y207500D03*
X161000Y224000D03*
X152000Y224006D03*
X149000Y218000D03*
X152000D03*
X161000Y227000D03*
X172000Y224000D03*
X169000D03*
X173500Y233000D03*
X176500D03*
X167500Y253500D03*
X181000Y224000D03*
X183500D03*
X178000D03*
X179000Y233000D03*
X186000D03*
X188500D03*
X182500Y253500D03*
X181000Y259000D03*
X184000D03*
X197500Y222000D03*
X191500Y233000D03*
X197500Y253500D03*
X218000Y224000D03*
Y228000D03*
X220000Y226000D03*
X213000Y249000D03*
X232000Y235000D03*
X221000Y238000D03*
X223500D03*
X232000Y226000D03*
X223000D03*
X232000Y230000D03*
X223000D03*
X224000Y253000D03*
X221000Y244000D03*
Y246500D03*
X230630Y253000D03*
X227480D03*
X241000Y222000D03*
Y218000D03*
Y226000D03*
X248000Y236000D03*
X241000Y230000D03*
X236000Y253000D03*
X241000D03*
X243228Y250500D03*
X246378Y253000D03*
Y270000D03*
X240079D03*
X236929D03*
X243228D03*
X250000Y218000D03*
X253000D03*
X250000Y222000D03*
X259000Y218000D03*
X256500D03*
Y230000D03*
X259000D03*
X256000Y236000D03*
X250000Y230000D03*
X259000Y226000D03*
X250000D03*
X260500Y250500D03*
X259000Y253000D03*
X255827D03*
X262126D03*
X249528D03*
X261000Y265000D03*
X255827D03*
X258500Y270000D03*
X261000D03*
X249528D03*
X268500Y218000D03*
Y222000D03*
X278000Y218000D03*
X268500Y230000D03*
X276500Y236008D03*
X278000Y226000D03*
Y230000D03*
X268500Y226000D03*
X267000Y239000D03*
X273500D03*
X273566Y236000D03*
X277874Y253000D03*
X274500Y265000D03*
X267500D03*
Y270000D03*
X274724D03*
X277874D03*
X283500Y218000D03*
X289000Y224000D03*
X286000Y218000D03*
X289000Y237500D03*
Y226500D03*
X285500Y248500D03*
X287500Y253000D03*
X290472D03*
X281024Y253024D03*
X284173Y253173D03*
X284000Y265000D03*
X287323D03*
X284173Y270000D03*
X287323D03*
X305500Y225000D03*
Y218000D03*
Y222000D03*
X302000D03*
X298000Y218000D03*
X302000D03*
X298000Y239000D03*
Y226000D03*
X303000Y253000D03*
X306500D03*
X301500Y248500D03*
X296772Y253000D03*
X293622D03*
X306220Y265000D03*
X303071Y264929D03*
X299921Y265000D03*
X293622D03*
X296772D03*
X293622Y270000D03*
X306220D03*
X296500D03*
X299921D03*
X303071D03*
X318000Y108500D03*
Y105500D03*
Y116500D03*
X322000Y143000D03*
Y155500D03*
X312000Y222000D03*
X309000D03*
Y218000D03*
X312500Y253000D03*
X315669D03*
X312520Y264980D03*
X309500Y270000D03*
X312520D03*
X328000Y95000D03*
X328130Y99870D03*
X331000D03*
X334370D03*
X327000Y105500D03*
Y108500D03*
X332500Y107000D03*
X327000Y120500D03*
Y112500D03*
X330000Y120500D03*
X327000Y116500D03*
X335500Y207500D03*
X322500Y216000D03*
X335500Y217500D03*
Y242500D03*
X348000Y95000D03*
X338000D03*
Y90000D03*
Y85000D03*
X347000Y108500D03*
X348000Y100000D03*
X338000D03*
Y108500D03*
X351000Y98500D03*
Y107500D03*
X347000Y116500D03*
Y112500D03*
X338000Y124000D03*
Y111000D03*
X337984Y116500D03*
X351000Y112500D03*
Y121500D03*
X338000Y120500D03*
X351000Y275000D03*
X362500Y142000D03*
X357500Y144000D03*
X353500D03*
X357500Y153000D03*
X353500D03*
X362500Y155000D03*
Y160000D03*
Y163000D03*
Y196000D03*
Y199000D03*
X355500Y207500D03*
X365000D03*
X355500Y217500D03*
Y212500D03*
X365000Y217500D03*
Y212500D03*
Y222000D03*
X362000D03*
X365000Y237500D03*
X362047Y232953D03*
X355500Y237500D03*
X359000Y227500D03*
X365000Y233000D03*
Y242500D03*
X355500Y247500D03*
X365000D03*
X355500Y242500D03*
X366500Y106000D03*
Y121500D03*
X372000Y120500D03*
Y116500D03*
Y110000D03*
Y112500D03*
X368500Y142000D03*
Y155000D03*
X374500Y207500D03*
X378000Y219000D03*
X368000Y222000D03*
X378000Y236000D03*
X374500Y247500D03*
X376753Y252253D03*
X12500Y108000D03*
Y123000D03*
X15500Y110500D03*
X12500D03*
X16000Y215130D03*
Y218870D03*
X27000Y83500D03*
Y89500D03*
Y86500D03*
X30000Y83500D03*
Y86500D03*
Y89500D03*
X21500Y108000D03*
X31000Y120000D03*
X22500Y123000D03*
X31000D03*
X18500Y110500D03*
X21500D03*
X31000Y132000D03*
X17500D03*
X18500Y162000D03*
Y165000D03*
Y168130D03*
Y179130D03*
Y171870D03*
Y182870D03*
X30000Y211260D03*
Y221500D03*
Y218500D03*
Y215000D03*
X17000Y237776D03*
X29000Y240138D03*
X30500Y251500D03*
X17000Y242500D03*
Y247224D03*
X29000Y244862D03*
X28500Y255000D03*
X40000Y69500D03*
X36000Y101000D03*
X39000D03*
X42500D03*
Y110000D03*
Y132000D03*
X43500Y159500D03*
Y168500D03*
Y172500D03*
Y181500D03*
X41000Y222000D03*
Y212500D03*
X44500Y225920D03*
X33500Y226000D03*
Y238720D03*
X43700Y254000D03*
X33520Y251520D03*
X43500Y261000D03*
X32000Y268500D03*
X45500Y278000D03*
X32000Y272500D03*
X58000Y83500D03*
Y86000D03*
X60500Y83500D03*
X55500D03*
X60500Y86000D03*
X55500D03*
X47500Y101000D03*
X58000Y107000D03*
X55500D03*
X58000Y104500D03*
X60500Y101000D03*
X55500Y104500D03*
X60500Y122500D03*
Y132500D03*
Y127500D03*
X52000Y208000D03*
X47500Y222000D03*
X52000Y227500D03*
X55500Y238720D03*
Y236000D03*
Y248960D03*
Y245000D03*
Y251500D03*
X51870Y246500D03*
X56500Y257000D03*
X51500Y267500D03*
X48500D03*
X56500Y261000D03*
X59000Y268500D03*
X51500Y272500D03*
X48500D03*
X59000D03*
X65500Y86000D03*
X63000Y83500D03*
X68000Y86000D03*
Y83500D03*
X65500D03*
X63000Y86000D03*
X68000Y107000D03*
X65500D03*
X63000D03*
Y101000D03*
X65500Y104500D03*
X68000D03*
X63000D03*
X64500Y120000D03*
Y115000D03*
Y117500D03*
Y112500D03*
Y110000D03*
X63000Y202500D03*
Y208000D03*
X61000Y222000D03*
X68000Y268500D03*
X73000Y264000D03*
X82000D03*
Y268000D03*
X84000Y277000D03*
X71500Y240000D03*
Y237500D03*
Y242500D03*
X123500Y37000D03*
X131500Y28000D03*
X127500Y37000D03*
X131500D03*
X127500Y40000D03*
X123500D03*
X131500D03*
X119000D03*
X127000Y50000D03*
Y55000D03*
X146500Y37000D03*
X138500D03*
X146500Y28000D03*
X142500Y37000D03*
X134000Y40000D03*
X138500D03*
X143500D03*
X140900D03*
X149500Y28000D03*
X153500Y37000D03*
X157500D03*
X161500Y28000D03*
Y37000D03*
X168500D03*
X172500D03*
X176500D03*
Y28000D03*
X189500Y22000D03*
X180500D03*
X189500Y33500D03*
X180500D03*
X189500Y43500D03*
X180500Y50500D03*
Y37500D03*
X189500Y50500D03*
X180500Y65500D03*
X189500D03*
X186000Y76000D03*
Y78500D03*
X199000Y10500D03*
X229000Y6500D03*
X223000D03*
X226000Y16000D03*
X230500Y22000D03*
X232000Y16000D03*
X230500Y33500D03*
Y50500D03*
Y43500D03*
Y65500D03*
X241000Y6500D03*
X235000D03*
X239500Y22000D03*
X238000Y16000D03*
X239500Y33500D03*
Y50500D03*
Y43500D03*
Y65500D03*
X266500Y6500D03*
X272500D03*
X275500Y16000D03*
X268000Y22000D03*
X269500Y16000D03*
X277000Y22000D03*
X268000Y33500D03*
X277000D03*
Y50500D03*
X268000D03*
X277000Y43500D03*
Y65500D03*
X268000D03*
X284500Y6500D03*
X278500D03*
X281500Y16000D03*
X318000Y22000D03*
Y33500D03*
Y50500D03*
Y43500D03*
Y65500D03*
X311500Y135500D03*
Y144500D03*
X327000Y22000D03*
X332500Y35500D03*
X330000D03*
X335000D03*
X327000Y33500D03*
X332500Y38000D03*
X330000D03*
X335000D03*
X327000Y39500D03*
Y50500D03*
X335000Y55500D03*
X330000D03*
X332500D03*
X330000Y53000D03*
X335000D03*
X334500Y63000D03*
X332500Y53000D03*
X327000Y65500D03*
X334500Y68500D03*
Y71000D03*
X338500Y13000D03*
Y10500D03*
X341000D03*
X347000Y13000D03*
X341000D03*
X344000D03*
X350000D03*
X344000Y10500D03*
X347000D03*
X350000D03*
X345000Y31000D03*
Y33500D03*
X337500Y38000D03*
Y50500D03*
Y40500D03*
Y55500D03*
Y53000D03*
X351000Y59500D03*
X345500D03*
X341500D03*
X348500D03*
X337500D03*
X351000Y78000D03*
X337500D03*
Y68500D03*
X348000Y78000D03*
Y71000D03*
X345500Y78000D03*
X351000Y71000D03*
X353000Y13000D03*
X355500Y10500D03*
X358500Y13000D03*
X353000Y10500D03*
X358500D03*
X355500Y13000D03*
X361000Y40500D03*
Y56500D03*
Y59500D03*
X355000Y56500D03*
Y59500D03*
X366500Y65000D03*
X369000Y70000D03*
X371500D03*
X366500D03*
Y72500D03*
X369000D03*
X371500D03*
X366500Y67500D03*
X139750Y116000D03*
X137250D03*
X142500D03*
X139750Y156000D03*
X141500Y161500D03*
X135500D03*
X143500Y156000D03*
X137250D03*
X143000Y172000D03*
Y179500D03*
Y174500D03*
X158000Y53000D03*
X161000Y60000D03*
Y57500D03*
X160000Y77000D03*
X149500Y165500D03*
Y168000D03*
X152000Y175500D03*
Y179500D03*
X160000Y175500D03*
X165000Y61500D03*
X168000D03*
X165000Y64500D03*
X168000D03*
X171000Y57500D03*
X164000D03*
X163000Y74000D03*
Y77000D03*
Y188500D03*
Y191500D03*
X172000Y195500D03*
Y191500D03*
Y205000D03*
Y207500D03*
X175000Y205000D03*
X172000Y199500D03*
X175000D03*
X163000D03*
X289000Y164500D03*
X286000Y174000D03*
X289000D03*
Y180500D03*
X286000D03*
X289000Y168500D03*
X286000Y170300D03*
X289000Y176500D03*
X286000Y183000D03*
X289000Y184500D03*
X305500Y160500D03*
X298000D03*
X305500Y164500D03*
X301000Y160500D03*
Y172500D03*
Y180500D03*
Y176500D03*
X298000Y172500D03*
Y176500D03*
Y180500D03*
X301000Y184500D03*
X298000D03*
X305500Y194500D03*
Y189500D03*
X302000Y207500D03*
X298000D03*
Y199500D03*
X305500Y202500D03*
X298000Y203500D03*
X311500Y157000D03*
X175000Y88750D03*
Y91250D03*
Y93750D03*
Y108750D03*
Y101250D03*
Y106250D03*
Y98750D03*
Y116250D03*
Y113750D03*
Y121250D03*
X183000Y86500D03*
Y89000D03*
X156000Y158750D03*
X160000Y161250D03*
X175000Y136250D03*
Y131250D03*
Y138750D03*
Y143750D03*
Y151250D03*
Y146250D03*
Y158750D03*
Y161250D03*
Y153750D03*
G54D43*
X308000Y138500D03*
Y141500D03*
Y151000D03*
G54D31*
X132500Y210500D03*
X143000Y191500D03*
X138500Y221000D03*
Y227000D03*
X144000Y252500D03*
Y247500D03*
Y242500D03*
X289000Y218000D03*
Y233500D03*
X295000Y230000D03*
X320000Y184500D03*
X60500Y135500D03*
X55500Y227500D03*
X190500Y101000D03*
X195825Y19802D03*
Y26101D03*
X205275Y51301D03*
X198975Y48151D03*
X195825Y51301D03*
X198975Y41851D03*
Y51301D03*
X195825Y41851D03*
Y38702D03*
Y60751D03*
X202125Y54451D03*
X195825Y57601D03*
X198975Y54451D03*
Y57601D03*
Y63901D03*
X205275Y54451D03*
X202125Y57600D03*
X195825Y67050D03*
X199400Y101000D03*
X208500Y6500D03*
X211575Y16651D03*
X208425D03*
Y19801D03*
X211575D03*
X208425Y13501D03*
X211575D03*
X208425Y10351D03*
X211575D03*
Y35551D03*
X208425Y32401D03*
X211575D03*
X208425Y29251D03*
X211575D03*
X208425Y26101D03*
X211575Y22951D03*
Y26101D03*
X208425Y22951D03*
Y35551D03*
X211575Y48151D03*
X217875D03*
X214725Y51301D03*
X208425D03*
Y48151D03*
X211575Y45001D03*
X208425Y41851D03*
X211575D03*
X208425Y38701D03*
X211575D03*
X208425Y45001D03*
X211575Y51301D03*
X208425Y54451D03*
X211575Y60751D03*
X208425Y63901D03*
X214725Y54451D03*
X217875D03*
X211575D03*
Y63901D03*
X208425Y60751D03*
X217875Y63901D03*
X215000Y91000D03*
X218000Y88000D03*
Y91000D03*
X214700Y101000D03*
X224175Y19802D03*
Y26101D03*
X227325Y48151D03*
X221025Y51301D03*
X224175D03*
X224173Y38701D03*
X221024Y41850D03*
X224173D03*
X221025Y54451D03*
Y57601D03*
X224175Y67051D03*
X223000Y88000D03*
X232000Y98000D03*
X226000D03*
Y101000D03*
X229000Y98000D03*
X222500Y101000D03*
X228900D03*
X233752Y115205D03*
X233753Y112506D03*
X233752Y109607D03*
Y118006D03*
Y123606D03*
Y120806D03*
X226248Y118006D03*
X233752Y126406D03*
X247500Y55000D03*
X244500D03*
X238000Y98000D03*
Y101000D03*
X245000D03*
X237652Y112506D03*
Y109606D03*
Y120806D03*
Y118006D03*
X237652Y123606D03*
X249056Y115206D03*
Y112406D03*
Y109606D03*
X237652Y115206D03*
X241552Y115206D03*
Y112406D03*
X249057Y123606D03*
X249056Y118006D03*
X241551Y123606D03*
X241552Y120806D03*
Y118006D03*
X249057Y120621D03*
X248528Y138582D03*
X237652Y129205D03*
X237652Y126406D03*
X249057Y129206D03*
X241552Y129205D03*
Y126405D03*
X249056Y132006D03*
X245440Y132612D03*
X241552Y132006D03*
X249057Y126405D03*
X250500Y12000D03*
Y16000D03*
Y20000D03*
Y8000D03*
X257000Y16000D03*
Y20000D03*
Y8000D03*
Y12000D03*
X250500Y24000D03*
Y36000D03*
Y28000D03*
Y32000D03*
X257000Y24000D03*
Y32000D03*
Y36000D03*
Y28000D03*
X250500Y44000D03*
Y48000D03*
Y40000D03*
X257000Y44000D03*
Y48000D03*
Y40000D03*
X250500Y52000D03*
X257000Y55000D03*
X252956Y109605D03*
X260500Y101000D03*
X252956Y118006D03*
X260756Y115206D03*
Y109606D03*
Y112406D03*
X256856Y115205D03*
X256857Y112406D03*
X256856Y109607D03*
X260756Y120806D03*
X260756Y118006D03*
X256856Y120806D03*
Y118006D03*
Y123606D03*
X252756Y129206D03*
X251857Y132044D03*
Y135944D03*
X263057Y128144D03*
X260257D03*
X263057Y124244D03*
X260257Y124244D03*
X256856Y126406D03*
X263057Y132044D03*
X260257Y135951D03*
X263057Y135944D03*
X254658Y135951D03*
X255057Y132044D03*
X257557Y135951D03*
X264656Y108950D03*
X277194Y103869D03*
X270000Y101000D03*
X269761Y109017D03*
X267798Y115084D03*
X264656Y114550D03*
X267877Y111206D03*
X264656Y111750D03*
X269857Y113186D03*
X270117Y117228D03*
X265857Y128144D03*
X268658D03*
X265857Y124244D03*
X268677Y124244D03*
X268657Y132044D03*
Y135944D03*
X265856Y135951D03*
X265857Y132044D03*
X271457Y128143D03*
X271456Y124244D03*
X271457Y132044D03*
X271456Y135951D03*
X265857Y143448D03*
X283325Y19802D03*
Y26101D03*
X292775Y51301D03*
X283325Y38702D03*
Y41851D03*
X286475D03*
X283325Y51301D03*
X286475Y48151D03*
Y51301D03*
X292775Y54451D03*
X283325Y60751D03*
X286475Y57601D03*
Y63901D03*
X289625Y57600D03*
X283325Y57601D03*
X289625Y54451D03*
X286475D03*
X283325Y67050D03*
X291500Y109000D03*
Y106000D03*
Y118000D03*
Y112000D03*
Y122000D03*
Y115000D03*
X280000Y111000D03*
Y117100D03*
Y124400D03*
Y132000D03*
Y139475D03*
X299075Y10351D03*
X295925Y13501D03*
Y10351D03*
X299075Y19801D03*
X295925D03*
Y16651D03*
X299075D03*
Y13501D03*
X295925Y22951D03*
X299075Y26101D03*
Y22951D03*
X295925Y26101D03*
X299075Y29251D03*
X295925D03*
X299075Y32401D03*
X295925D03*
X299075Y35551D03*
X295925D03*
X305375Y48151D03*
X295925Y45001D03*
X299075Y38701D03*
X295925D03*
X299075Y41851D03*
X295925D03*
X299075Y45001D03*
Y48151D03*
X295925D03*
Y51301D03*
X299075D03*
X302225D03*
Y54451D03*
X295925Y62326D03*
Y54451D03*
Y59176D03*
X299075D03*
X305375Y54451D03*
Y63901D03*
X299075Y54451D03*
Y62326D03*
X311675Y19802D03*
Y26101D03*
X311673Y38701D03*
Y41850D03*
X308524D03*
X311675Y51301D03*
X308525D03*
X314825Y54451D03*
X308525D03*
Y57601D03*
X311675Y67051D03*
X149500Y171000D03*
X188542Y181856D03*
X179600Y177900D03*
X188543Y174056D03*
X188542Y177956D03*
X179500Y182500D03*
X177000Y192500D03*
Y195500D03*
X180000Y192700D03*
X188543Y185756D03*
X187646Y194652D03*
X189882Y192772D03*
X188590Y189655D03*
X180000Y198300D03*
X188000Y198700D03*
X182803Y206133D03*
X191342Y177956D03*
X194143D03*
Y181856D03*
X191342D03*
X202542Y174056D03*
X205342D03*
X199742D03*
X205442Y177956D03*
X202393Y177956D03*
X196943D03*
Y181856D03*
X199743Y177956D03*
X199743Y181856D03*
X192000Y195000D03*
X194143Y185756D03*
X191342D03*
X194191Y189655D03*
X195344Y191994D03*
Y194794D03*
X196943Y185756D03*
X199743Y185756D03*
X199244Y194793D03*
X191391Y189655D03*
X199244Y197593D03*
X208143Y174056D03*
X207000Y181000D03*
X208143Y177956D03*
X217648Y171416D03*
X210943Y174056D03*
X210943Y177994D03*
Y180794D03*
X207044Y194794D03*
Y191994D03*
X218447Y186394D03*
Y183594D03*
X210943Y186394D03*
Y189194D03*
X207044Y185756D03*
X218448Y194794D03*
X210944Y191994D03*
Y194794D03*
X207044Y200394D03*
Y197594D03*
X218448D03*
X218447Y200393D03*
X210943Y197593D03*
Y200393D03*
X223824Y177387D03*
X233087Y174402D03*
X233752Y180794D03*
Y177994D03*
X222348Y186394D03*
X222347Y194794D03*
X233752Y183594D03*
X226247Y189194D03*
Y186393D03*
X226248Y183594D03*
X233751Y194794D03*
X222348Y200393D03*
Y197593D03*
X236228Y174402D03*
X237652Y189194D03*
X241552Y194794D03*
X237652Y200394D03*
X252956Y180794D03*
Y183594D03*
X252956Y191994D03*
X252956Y186394D03*
Y200393D03*
X276500Y205500D03*
X283000Y164500D03*
X286000Y158500D03*
X280000Y162600D03*
X283000Y170300D03*
X280000D03*
Y178000D03*
X283000Y186000D03*
X286000Y186250D03*
X280000Y196200D03*
Y186000D03*
X310000Y192000D03*
X182806Y103868D03*
X190143Y113185D03*
X187953Y111302D03*
X180000Y114400D03*
Y117100D03*
X188542Y124244D03*
X188543Y132044D03*
X179500Y124400D03*
X199500Y120800D03*
X191500Y120500D03*
X203500Y115000D03*
Y126500D03*
X196943Y124244D03*
X205343Y132044D03*
X202543D03*
X199743D03*
Y135943D03*
X210943Y123606D03*
X214018Y132021D03*
X217648Y135596D03*
X208143Y132044D03*
X210943Y132006D03*
X222348Y129206D03*
X222350Y126500D03*
X233087Y138582D03*
X230000Y135596D03*
X230031Y138611D03*
X226911Y144552D03*
Y141566D03*
X233088Y144552D03*
X230000Y144553D03*
X236175Y138582D03*
X239264Y144553D03*
X242351Y144552D03*
X236176D03*
X179500Y137000D03*
X188350Y147348D03*
X179500Y143000D03*
X188543Y143448D03*
X188542Y151248D03*
X179500Y139700D03*
X188542Y158752D03*
X179500Y162500D03*
X191342Y147348D03*
X194143Y143447D03*
X191342D03*
X194143Y151248D03*
Y147348D03*
X191342Y151248D03*
X202542Y143448D03*
X205342D03*
X196943Y143447D03*
X199742Y143448D03*
X202543Y147348D03*
X205343D03*
X205342Y151247D03*
X202542D03*
X196943Y151248D03*
Y147348D03*
X199743Y151248D03*
Y147348D03*
X194143Y158752D03*
X191342D03*
X199743D03*
X196943D03*
X202543D03*
X217648Y150522D03*
X214360Y147538D03*
X208143Y143448D03*
Y151247D03*
X214560Y144552D03*
X210943Y143448D03*
X214588Y150500D03*
X210943Y151247D03*
X214560Y153508D03*
Y159478D03*
X211472Y162462D03*
X214560Y156492D03*
Y162462D03*
X211472Y156492D03*
Y159478D03*
X226912D03*
X223824D03*
X233088D03*
X230000D03*
X236176D03*
X257457Y151248D03*
X251857Y158752D03*
X263057Y158751D03*
X260257Y158752D03*
X254657D03*
X257457D03*
X271456Y151124D03*
X265857Y151247D03*
X268656Y158752D03*
X271456D03*
X268000Y155000D03*
X249057Y166551D03*
X242352Y165447D03*
X251857Y166551D03*
X260256Y166552D03*
X263057D03*
X257456D03*
X254657Y166551D03*
X260256Y174056D03*
X263057D03*
Y181855D03*
Y177956D03*
X260256D03*
X263057Y185756D03*
X260256D03*
X265857Y166552D03*
X268657D03*
X271457D03*
Y170300D03*
X268657Y174056D03*
X265857D03*
Y181855D03*
X268656Y181856D03*
X265857Y177956D03*
X268657D03*
X271457Y174056D03*
X271456Y177956D03*
Y181856D03*
X265857Y185756D03*
X268657D03*
X265809Y189656D03*
X268609D03*
X271457Y185756D03*
X270118Y192772D03*
X271409Y189656D03*
G54D30*
X52500Y10000D03*
X62500Y20000D03*
X52500D03*
X72500Y10000D03*
Y20000D03*
X92500Y10000D03*
X82500D03*
Y20000D03*
X92500D03*
X102500Y10000D03*
Y20000D03*
Y270000D03*
Y280000D03*
X112500Y217500D03*
Y227500D03*
Y270000D03*
Y280000D03*
X125000Y227500D03*
Y217500D03*
X122500Y270000D03*
Y280000D03*
X238500Y245000D03*
X228500D03*
X248500D03*
X258500D03*
X278500D03*
X268500D03*
X340866Y152126D03*
Y144252D03*
Y167874D03*
Y175748D03*
X37000Y262300D03*
Y280000D03*
X62500Y155000D03*
X52500Y150000D03*
Y160000D03*
X62500Y165000D03*
X52500Y170000D03*
X62500Y175000D03*
X52500Y180000D03*
X62500Y185000D03*
X62600Y262300D03*
Y280000D03*
X132500Y10000D03*
X122500D03*
X132500Y20000D03*
X122500D03*
X142500Y10000D03*
Y20000D03*
X162500Y10000D03*
X152500D03*
X162500Y20000D03*
X152500D03*
X172500Y10000D03*
Y20000D03*
G54D40*
X11500Y116000D03*
X17500Y145800D03*
Y199200D03*
X31500Y104000D03*
X51500Y116000D03*
G54D32*
X214488Y267500D03*
G54D38*
X335000Y275000D03*
G54D42*
X39500Y142000D03*
Y203000D03*
G54D35*
X334173Y146220D03*
Y173780D03*
X346772Y146220D03*
X340866Y160000D03*
X346772Y173780D03*
X52500Y190000D03*
X62500Y195000D03*
G54D36*
X334173Y163937D03*
Y156063D03*
X346772Y163937D03*
Y156063D03*
G54D37*
X325512Y267500D03*
G54D29*
X62500Y10000D03*
G54D44*
X351000Y33500D03*
G54D25*
X207579Y256791D03*
X157421D03*
G54D34*
X332283Y134134D03*
Y185866D03*
X354646Y134134D03*
Y185866D03*
G54D39*
X345000Y275000D03*
G54D41*
X27500Y150000D03*
Y195000D03*
G54D33*
X312150Y237150D03*
X147850Y72850D03*
%LPD*%
G75*
G36*
G01X40500Y41000D02*
X39500Y42000D01*
Y42306D01*
X39776D01*
X39833Y42255D01*
G03X40071Y43904I667J745D01*
G02X39500Y44265I-171J361D01*
G01Y58000D01*
X40500Y59000D01*
X54000D01*
X55000Y58000D01*
Y42000D01*
X54000Y41000D01*
X40500D01*
G37*
G36*
G01X99500Y69000D02*
X98500Y70000D01*
Y70500D01*
X98500Y104735D01*
G02X99072Y105096I400J0D01*
G03Y106904I428J904D01*
G02X98500Y107265I-171J361D01*
G01Y110500D01*
X92000Y117000D01*
Y139486D01*
X92167Y139514D01*
G03Y141486I-167J986D01*
G01X92000Y141514D01*
Y142486D01*
X92167Y142514D01*
G03Y144486I-167J986D01*
G01X92000Y144514D01*
Y157494D01*
G03Y157506I-1000J6D01*
G01Y162994D01*
G03Y163006I-1000J6D01*
G01Y163125D01*
G02X92560Y163492I400J0D01*
G03Y165508I440J1008D01*
G02X92000Y165875I-160J367D01*
G01Y165994D01*
G03Y166006I-1000J6D01*
G01Y166735D01*
G02X92571Y167096I400J0D01*
G03Y168904I429J904D01*
G02X92000Y169265I-171J361D01*
G01Y175000D01*
X93000Y176000D01*
X107000D01*
X108497Y174503D01*
X108503Y174428D01*
G03X109428Y173503I997J72D01*
G01X109503Y173497D01*
X118500Y164500D01*
Y77000D01*
X112123Y70623D01*
G02X111457Y70790I-283J283D01*
G03X110514Y69500I-957J-290D01*
G01X110599Y69501D01*
X110800Y69300D01*
X110500Y69000D01*
X99500D01*
G37*
%LPC*%
G75*
G36*
G01X109426Y156997D02*
G02X108503Y156074I74J-997D01*
G03X108074Y156503I-399J30D01*
G02Y158497I-74J997D01*
G03X108503Y158926I30J399D01*
G02X109426Y158003I997J74D01*
G03X108997Y157574I-30J-399D01*
G02Y157426I-997J-74D01*
G03X109426Y156997I399J-30D01*
G37*
G36*
G01Y150997D02*
G02X108503Y150074I74J-997D01*
G03X108074Y150503I-399J30D01*
G02Y152497I-74J997D01*
G03X108503Y152926I30J399D01*
G02X109426Y152003I997J74D01*
G03X108997Y151574I-30J-399D01*
G02Y151426I-997J-74D01*
G03X109426Y150997I399J-30D01*
G37*
G36*
G01X102500Y139489D02*
G02X101929Y140404I-1000J11D01*
G03X102500Y140761I171J361D01*
G02X102568Y141114I1000J-11D01*
G03X102235Y141322I-186J73D01*
G02X102500Y142011I-735J678D01*
G03X103071Y141654I400J4D01*
G02Y139846I429J-904D01*
G03X102500Y139489I-171J-361D01*
G37*
G54D28*
X102000Y99000D03*
Y103000D03*
Y106000D03*
X103500Y146500D03*
X101000D03*
X104500Y91500D03*
X107000Y106000D03*
X109500D03*
X112000D03*
X104500D03*
X112000Y109000D03*
Y115000D03*
X109500Y146500D03*
X112000D03*
Y150000D03*
X109500Y161500D03*
X109250Y168000D03*
%LPD*%
G75*
G54D10*
X15000Y15000D03*
Y275000D03*
X375000Y15000D03*
Y275000D03*
G54D20*
G01X-510Y442210D02*
Y359710D01*
X306990D01*
Y442210D01*
X-510D01*
G01X59754Y7254D02*
X62500Y10000D01*
G01X59754Y12746D02*
X62500Y10000D01*
G01D02*
X65246Y7254D01*
G01X62500Y10000D02*
X65246Y12746D01*
G01X89490Y442210D02*
Y359710D01*
G01Y387210D02*
X306990D01*
G01X89490Y414710D02*
X306990D01*
G01X166990D02*
Y387210D01*
G01X341300Y271300D02*
X345000Y275000D01*
G01D02*
X348700Y278700D01*
G01X341300D02*
X345000Y275000D01*
G01D02*
X348700Y271300D01*
G54D11*
X6740Y230295D03*
Y254705D03*
X19968Y230319D03*
Y254705D03*
G54D21*
G01X22500Y402500D02*
Y397500D01*
G01D02*
X26250Y393750D01*
X31250D01*
G01X27500D02*
X36250D01*
G01X31250Y406250D02*
X26250D01*
G01D02*
X22500Y402500D01*
G01X36250Y397500D02*
X48750D01*
G01X36250Y400000D02*
X42500Y406250D01*
G01X36250Y393750D02*
Y400000D01*
G01X42500Y406250D02*
X48750Y400000D01*
G01D02*
Y393750D01*
G01D02*
X56250D01*
G01X53750Y406250D02*
Y393750D01*
G01X58750D02*
X62500Y397500D01*
G01X53750Y393750D02*
X58750D01*
G01X55000Y406250D02*
X51250D01*
G01X58750D02*
X53750D01*
G01X62500Y402500D02*
X58750Y406250D01*
G01X62500Y397500D02*
Y402500D01*
G54D12*
X12500Y103000D03*
Y100500D03*
X15500D03*
X5000Y180000D03*
Y183000D03*
X17500Y64500D03*
Y69500D03*
Y67000D03*
X21500Y103000D03*
Y100500D03*
X18500D03*
X40500Y46000D03*
X43700Y43000D03*
Y46000D03*
Y49000D03*
X40500Y58000D03*
X43700D03*
Y52000D03*
X40500D03*
X43700Y55000D03*
X42500Y69500D03*
X54000Y43000D03*
Y46000D03*
Y49000D03*
Y52000D03*
Y55000D03*
X47500Y110000D03*
X56000Y120000D03*
X65500Y127500D03*
Y130000D03*
X63000D03*
Y127500D03*
Y132500D03*
X65500D03*
X71500Y225000D03*
X71450Y222500D03*
X71500Y227500D03*
Y250000D03*
Y252500D03*
X71450Y247500D03*
X71000Y277000D03*
X89500Y61000D03*
Y63500D03*
Y74500D03*
Y72000D03*
Y69500D03*
Y66500D03*
X82000Y209500D03*
Y272000D03*
X92000Y61000D03*
X93000Y175250D03*
Y173000D03*
Y178000D03*
X101500Y201000D03*
X98500D03*
X103000Y215000D03*
Y260500D03*
X104500Y73500D03*
Y70500D03*
X114500Y78000D03*
X112000D03*
X104500D03*
X109500D03*
X107000D03*
X117000D03*
X104500Y88500D03*
Y85500D03*
Y111000D03*
Y114000D03*
X114500Y118500D03*
X112000D03*
X109500D03*
X117000D03*
X104500D03*
Y126000D03*
Y129000D03*
X129000Y75000D03*
X147000Y44000D03*
X138000D03*
Y48000D03*
X147000D03*
X138000Y52500D03*
Y57000D03*
X147000Y52500D03*
X161000Y42500D03*
X158000Y49000D03*
Y45000D03*
X160000Y93750D03*
Y91250D03*
Y86250D03*
Y88750D03*
Y108750D03*
Y101250D03*
Y106250D03*
Y98750D03*
X148000Y116000D03*
X160000Y116250D03*
Y113750D03*
Y123750D03*
Y121250D03*
Y136250D03*
Y131250D03*
Y138750D03*
Y128750D03*
Y151250D03*
Y146250D03*
Y143750D03*
Y158750D03*
Y153750D03*
Y182000D03*
X152000Y191500D03*
X164000Y42500D03*
X174000D03*
X171000D03*
X172000Y185500D03*
X180500Y28000D03*
X189500D03*
X180500Y43500D03*
Y59500D03*
X189500D03*
X179000Y67500D03*
X190500Y91000D03*
Y93500D03*
Y96000D03*
Y98500D03*
X180000Y195500D03*
X181000Y286000D03*
X184000D03*
X195825Y22952D03*
Y29251D03*
Y48151D03*
X198975Y38702D03*
X202125Y51301D03*
X198975Y60751D03*
X195825Y54451D03*
X198975Y67051D03*
X193500Y91000D03*
Y93500D03*
Y96000D03*
Y98500D03*
Y101000D03*
X217875Y51301D03*
Y57601D03*
X217648Y162462D03*
X217648Y168432D03*
X214560D03*
X211472D03*
X214560Y174402D03*
X217648Y174402D03*
X230500Y28000D03*
X224175Y22952D03*
Y29251D03*
Y48151D03*
X221024Y38701D03*
X230500Y59500D03*
X224175Y54451D03*
X224856Y62323D03*
X224175Y57601D03*
X221025Y67051D03*
X233088Y150522D03*
X230000D03*
X226912D03*
X220736D03*
X233088Y153508D03*
X230000D03*
X226912D03*
X233088Y162462D03*
X230000D03*
X226912D03*
X223824D03*
X220736D03*
Y159478D03*
Y156492D03*
Y153508D03*
X226911Y174402D03*
X223824D03*
X233780Y250500D03*
Y282000D03*
X239500Y28000D03*
Y59500D03*
X242352Y135597D03*
X245440Y150522D03*
X242352D03*
X239264D03*
X236176D03*
X248528Y153448D03*
X245440Y153508D03*
X242352D03*
X239264D03*
X236176D03*
X249057Y158752D03*
X242351Y159477D03*
X236176Y162462D03*
X245439Y165447D03*
X242352Y174402D03*
X245440D03*
X242352Y171418D03*
X242300Y168433D03*
X252956Y126406D03*
X254657Y177956D03*
X252677Y265000D03*
Y270000D03*
X277000Y28000D03*
X268000D03*
Y43500D03*
X277000Y59500D03*
X268000D03*
X266900Y101100D03*
X271409Y120344D03*
X272045Y111302D03*
X264655Y117349D03*
X265857Y158751D03*
X269857Y196814D03*
X264200Y209000D03*
X272046Y198698D03*
X271575Y253000D03*
Y282000D03*
X283325Y29251D03*
Y22952D03*
X289625Y51301D03*
X283325Y48151D03*
X286475Y38702D03*
X283325Y54451D03*
X286475Y60751D03*
Y67051D03*
X280000Y114000D03*
X283000Y158500D03*
X290472Y265000D03*
Y270000D03*
X305375Y51301D03*
Y57601D03*
X301000Y148500D03*
X305500Y156500D03*
X318000Y28000D03*
X311675Y22952D03*
Y29251D03*
X308524Y38701D03*
X311675Y45001D03*
X318000Y59500D03*
X312356Y62323D03*
X311675Y54451D03*
Y57601D03*
X308525Y67051D03*
X327000Y28000D03*
Y43500D03*
Y59500D03*
X351000Y31000D03*
Y75000D03*
X341500Y78000D03*
X361000Y33500D03*
Y31000D03*
X358500Y33500D03*
Y31000D03*
X356000D03*
X353500D03*
X363500Y33500D03*
X356000D03*
X353500D03*
X363500Y31000D03*
Y36000D03*
X356500Y286000D03*
X353500D03*
X366000Y36000D03*
Y33500D03*
Y31000D03*
X369500Y94000D03*
Y91000D03*
X374500Y94000D03*
Y91000D03*
X372000D03*
X377000Y94000D03*
X372000D03*
X377000Y91000D03*
X369500Y96500D03*
X372000D03*
X385000Y167500D03*
Y155500D03*
Y191500D03*
Y203500D03*
G54D22*
G01X100917Y393750D02*
Y399250D01*
X103117D01*
X103850Y398975D01*
X104400Y398333D01*
X104583Y397600D01*
X104400Y396867D01*
X103942Y396317D01*
X103117Y396042D01*
X100917D01*
G01X106300Y399250D02*
X107583Y393750D01*
X109050Y399250D01*
X110517Y393750D01*
X111800Y399250D01*
G01X113517Y393750D02*
Y399250D01*
X115808D01*
X116542Y398975D01*
X117000Y398608D01*
X117183Y397875D01*
X117000Y397142D01*
X116450Y396683D01*
X115808Y396408D01*
X113517D01*
G01X115808D02*
X117183Y393750D01*
G01X121650D02*
Y399250D01*
X120550Y398150D01*
G01Y393750D02*
X122750D01*
G01X100917Y409250D02*
Y403750D01*
X104583D01*
G01X106758D02*
X109050Y409250D01*
X111342Y403750D01*
G01X110517Y405675D02*
X107583D01*
G01X115350Y403750D02*
Y406225D01*
X113517Y409250D01*
G01X117183D02*
X115350Y406225D01*
G01X123483Y403750D02*
X119817D01*
Y409250D01*
X123483D01*
G01X122017Y406592D02*
X119817D01*
G01X126117Y403750D02*
Y409250D01*
X128408D01*
X129142Y408975D01*
X129600Y408608D01*
X129783Y407875D01*
X129600Y407142D01*
X129050Y406683D01*
X128408Y406408D01*
X126117D01*
G01X128408D02*
X129783Y403750D01*
G01X138533Y404575D02*
X139083Y404117D01*
X139725Y403842D01*
X140550Y403750D01*
X141375Y403933D01*
X142017Y404300D01*
X142475Y404942D01*
X142567Y405675D01*
X142383Y406408D01*
X141925Y406867D01*
X141283Y407233D01*
X140642Y407325D01*
X140000Y407233D01*
X139175Y406867D01*
X139450Y409250D01*
X141925D01*
G54D13*
X27500Y150000D03*
Y195000D03*
G54D23*
G01X103833Y367000D02*
Y377000D01*
X107167D01*
X108500Y376500D01*
X109500Y375833D01*
X110333Y374833D01*
X111000Y373666D01*
X111167Y372000D01*
X111000Y370333D01*
X110333Y369167D01*
X109500Y368166D01*
X108500Y367500D01*
X107167Y367000D01*
X103833D01*
G01X114333D02*
X118500Y377000D01*
X122667Y367000D01*
G01X121167Y370500D02*
X115833D01*
G01X129500Y377000D02*
Y367000D01*
G01X125667Y377000D02*
X133333D01*
G01X143833Y367000D02*
X137167D01*
Y377000D01*
X143833D01*
G01X141167Y372167D02*
X137167D01*
G01X151500Y366667D02*
X151167Y366833D01*
Y367167D01*
X151500Y367333D01*
X151833Y367167D01*
Y366833D01*
X151500Y366667D01*
G01Y371166D02*
X151167Y371333D01*
Y371667D01*
X151500Y371833D01*
X151833Y371667D01*
Y371333D01*
X151500Y371166D01*
G01X108157Y431377D02*
X107157Y431877D01*
X105990Y432210D01*
X104657D01*
X103156Y431710D01*
X101990Y430877D01*
X101157Y429877D01*
X100490Y428210D01*
X100323Y426710D01*
X100657Y425210D01*
X101157Y424210D01*
X102157Y423210D01*
X103323Y422543D01*
X104490Y422210D01*
X105657D01*
X106823Y422543D01*
X107823Y423043D01*
X108657Y423710D01*
G01X115490Y428876D02*
Y422210D01*
G01Y431543D02*
X115157Y431710D01*
Y432043D01*
X115490Y432210D01*
X115823Y432043D01*
Y431710D01*
X115490Y431543D01*
G01X124157Y422210D02*
Y428876D01*
G01Y427543D02*
X124990Y428210D01*
X125823Y428710D01*
X126990Y428876D01*
X127823Y428710D01*
X128823Y428210D01*
G01X140157Y428043D02*
X138990Y428710D01*
X137990Y428876D01*
X136657Y428543D01*
X135657Y427877D01*
X134990Y426710D01*
X134823Y425543D01*
X134990Y424377D01*
X135657Y423376D01*
X136657Y422543D01*
X137990Y422210D01*
X139157Y422543D01*
X140157Y423210D01*
G01X145657Y428876D02*
Y424210D01*
X146323Y423043D01*
X147323Y422377D01*
X148490Y422210D01*
X149657Y422377D01*
X150657Y423043D01*
X151323Y424210D01*
G01Y422210D02*
Y428876D01*
G01X159490D02*
Y422210D01*
G01Y431543D02*
X159157Y431710D01*
Y432043D01*
X159490Y432210D01*
X159823Y432043D01*
Y431710D01*
X159490Y431543D01*
G01X170490Y432210D02*
Y422210D01*
G01X168157Y428876D02*
X172823D01*
G01X196157Y431377D02*
X195157Y431877D01*
X193990Y432210D01*
X192657D01*
X191156Y431710D01*
X189990Y430877D01*
X189157Y429877D01*
X188490Y428210D01*
X188323Y426710D01*
X188657Y425210D01*
X189157Y424210D01*
X190157Y423210D01*
X191323Y422543D01*
X192490Y422210D01*
X193657D01*
X194823Y422543D01*
X195823Y423043D01*
X196657Y423710D01*
G01X203490Y422210D02*
X202490Y422377D01*
X201490Y423043D01*
X200823Y424210D01*
X200490Y425543D01*
X200823Y426877D01*
X201490Y428043D01*
X202490Y428710D01*
X203490Y428876D01*
X204490Y428710D01*
X205490Y428043D01*
X206157Y426877D01*
X206323Y425543D01*
X206157Y424210D01*
X205490Y423043D01*
X204490Y422377D01*
X203490Y422210D01*
G01X214490Y421877D02*
X214157Y422043D01*
Y422377D01*
X214490Y422543D01*
X214823Y422377D01*
Y422043D01*
X214490Y421877D01*
G01X168750Y375000D02*
X167750Y374750D01*
X167000Y374125D01*
X166500Y373375D01*
X166125Y372375D01*
X166000Y371250D01*
X166125Y370125D01*
X166500Y369125D01*
X167000Y368375D01*
X167750Y367750D01*
X168750Y367500D01*
X169750Y367750D01*
X170500Y368375D01*
X171000Y369125D01*
X171375Y370125D01*
X171500Y371250D01*
X171375Y372375D01*
X171000Y373375D01*
X170500Y374125D01*
X169750Y374750D01*
X168750Y375000D01*
G01X174500Y368625D02*
X175250Y368000D01*
X176125Y367625D01*
X177250Y367500D01*
X178375Y367750D01*
X179250Y368250D01*
X179875Y369125D01*
X180000Y370125D01*
X179750Y371125D01*
X179125Y371750D01*
X178250Y372250D01*
X177375Y372375D01*
X176500Y372250D01*
X175375Y371750D01*
X175750Y375000D01*
X179125D01*
G01X183500Y367250D02*
X188000Y375000D01*
G01X194250D02*
X193250Y374750D01*
X192500Y374125D01*
X192000Y373375D01*
X191625Y372375D01*
X191500Y371250D01*
X191625Y370125D01*
X192000Y369125D01*
X192500Y368375D01*
X193250Y367750D01*
X194250Y367500D01*
X195250Y367750D01*
X196000Y368375D01*
X196500Y369125D01*
X196875Y370125D01*
X197000Y371250D01*
X196875Y372375D01*
X196500Y373375D01*
X196000Y374125D01*
X195250Y374750D01*
X194250Y375000D01*
G01X200375Y373750D02*
X201125Y374500D01*
X202000Y374875D01*
X203000Y375000D01*
X204250Y374750D01*
X205125Y374125D01*
X205375Y373375D01*
X205250Y372625D01*
X204750Y372000D01*
X202250Y370750D01*
X201125Y369875D01*
X200375Y368625D01*
X200125Y367500D01*
X205375D01*
G01X209000Y367250D02*
X213500Y375000D01*
G01X217375Y373750D02*
X218125Y374500D01*
X219000Y374875D01*
X220000Y375000D01*
X221250Y374750D01*
X222125Y374125D01*
X222375Y373375D01*
X222250Y372625D01*
X221750Y372000D01*
X219250Y370750D01*
X218125Y369875D01*
X217375Y368625D01*
X217125Y367500D01*
X222375D01*
G01X228250Y375000D02*
X227250Y374750D01*
X226500Y374125D01*
X226000Y373375D01*
X225625Y372375D01*
X225500Y371250D01*
X225625Y370125D01*
X226000Y369125D01*
X226500Y368375D01*
X227250Y367750D01*
X228250Y367500D01*
X229250Y367750D01*
X230000Y368375D01*
X230500Y369125D01*
X230875Y370125D01*
X231000Y371250D01*
X230875Y372375D01*
X230500Y373375D01*
X230000Y374125D01*
X229250Y374750D01*
X228250Y375000D01*
G01X236750Y367500D02*
Y375000D01*
X235250Y373500D01*
G01Y367500D02*
X238250D01*
G01X246750D02*
Y375000D01*
X242125Y369625D01*
X248375D01*
G01X175500Y397500D02*
Y405000D01*
X178750Y398750D01*
X182000Y405000D01*
Y397500D01*
G01X187250Y402500D02*
Y397500D01*
G01Y404500D02*
X187000Y404625D01*
Y404875D01*
X187250Y405000D01*
X187500Y404875D01*
Y404625D01*
X187250Y404500D01*
G01X193625Y397500D02*
Y402500D01*
G01Y401250D02*
X194125Y401875D01*
X194875Y402375D01*
X195875Y402500D01*
X196750Y402375D01*
X197500Y401875D01*
X197875Y401000D01*
Y397500D01*
G01X202125D02*
Y402500D01*
G01Y401250D02*
X202625Y401875D01*
X203375Y402375D01*
X204375Y402500D01*
X205250Y402375D01*
X206000Y401875D01*
X206375Y401000D01*
Y397500D01*
G01X212750D02*
X212000Y397625D01*
X211250Y398125D01*
X210750Y399000D01*
X210500Y400000D01*
X210750Y401000D01*
X211250Y401875D01*
X212000Y402375D01*
X212750Y402500D01*
X213500Y402375D01*
X214250Y401875D01*
X214750Y401000D01*
X214875Y400000D01*
X214750Y399000D01*
X214250Y398125D01*
X213500Y397625D01*
X212750Y397500D01*
G01X218125Y402500D02*
X219625Y397500D01*
X221250Y402500D01*
X222875Y397500D01*
X224375Y402500D01*
G01X226500Y397500D02*
Y405000D01*
X229750Y398750D01*
X233000Y405000D01*
Y397500D01*
G01X240500D02*
Y402500D01*
G01Y401625D02*
X240000Y402125D01*
X239250Y402375D01*
X238375Y402500D01*
X237500Y402250D01*
X236750Y401750D01*
X236250Y401000D01*
X236000Y400000D01*
X236250Y399000D01*
X236750Y398250D01*
X237500Y397750D01*
X238375Y397500D01*
X239250Y397625D01*
X240000Y398000D01*
X240500Y398500D01*
G01X244875Y402500D02*
X248625Y397500D01*
G01Y402500D02*
X244875Y397500D01*
G01X261250D02*
Y405000D01*
X264375D01*
X265375Y404625D01*
X266000Y404125D01*
X266250Y403125D01*
X266000Y402125D01*
X265250Y401500D01*
X264375Y401125D01*
X261250D01*
G01X264375D02*
X266250Y397500D01*
G01X270375Y400875D02*
X274375D01*
X274000Y401750D01*
X273375Y402250D01*
X272500Y402500D01*
X271625Y402375D01*
X270875Y402000D01*
X270375Y401125D01*
X270125Y400375D01*
Y399625D01*
X270375Y398875D01*
X271000Y398125D01*
X271750Y397625D01*
X272625Y397500D01*
X273500Y397750D01*
X274375Y398500D01*
G01X278500Y402500D02*
X280750Y397500D01*
X283000Y402500D01*
G01X286125Y397500D02*
X289250Y405000D01*
X292375Y397500D01*
G01X291250Y400125D02*
X287250D01*
G01X297750Y397500D02*
Y405000D01*
X296250Y403500D01*
G01Y397500D02*
X299250D01*
G54D14*
X48500Y50000D03*
G54D24*
G01X34370Y393130D02*
X27500Y400000D01*
G01X17500D02*
X42500Y375000D01*
X67500Y400000D01*
G01X17500D02*
X67500D01*
G01X42500Y425000D02*
X17500Y400000D01*
G01X27500D02*
X36450Y408950D01*
G01X34680Y383580D02*
G03X34990Y382820I1087J0D01*
G01X34700Y394380D02*
Y383580D01*
G01Y383750D02*
Y394380D01*
G01X35000Y382830D02*
X37450Y380350D01*
G01X37440Y380340D02*
G03X39050Y379680I1610J1634D01*
G01Y379700D02*
X46250D01*
G01D02*
X39000D01*
G01X46250Y382830D02*
X39370D01*
X37820Y384380D01*
Y396580D01*
X36870D01*
X34700Y394380D01*
G01X42500Y382830D02*
Y405630D01*
G01Y375000D02*
Y379700D01*
G01X34700Y394380D02*
X36870Y396580D01*
X37820D01*
Y384380D01*
X39370Y382830D01*
X46250D01*
G01X50000Y400000D02*
X42500Y392500D01*
G01D02*
X35000Y400000D01*
G01X42500Y385000D02*
X37820Y389700D01*
G01X42500Y385000D02*
X57500Y400000D01*
G01X35000D02*
X42500Y407500D01*
G01D02*
X50000Y400000D01*
G01X34680Y411080D02*
G03X34990Y410320I1087J0D01*
G01X34680Y411080D02*
G03X34990Y410320I1087J0D01*
G01X38710Y406590D02*
G03X40320Y405930I1610J1634D01*
G01X38710Y406590D02*
G03X40320Y405930I1610J1634D01*
G01X35000Y410330D02*
X38720Y406600D01*
G01X40320Y405950D02*
X45300D01*
G01X40320D02*
X45300D01*
G01D02*
X43750D01*
G01X45300Y409080D02*
X40620D01*
G01X45300D02*
X40620D01*
G01X43450D02*
X45300D01*
G01X35000Y410330D02*
X38720Y406600D01*
G01X40620Y409080D02*
X37820Y411880D01*
Y415630D01*
X40620Y418450D01*
X45300D01*
G01X34700Y415950D02*
Y411080D01*
G01X40620Y409080D02*
X37820Y411880D01*
Y415630D01*
X40620Y418450D01*
X45300D01*
G01X34700Y415950D02*
Y411080D01*
G01X38650Y411150D02*
X42500Y415000D01*
G01Y409080D02*
Y418450D01*
G01X57500Y400000D02*
X42500Y415000D01*
G01X45300Y421580D02*
X40250D01*
G01Y421550D02*
G03X38760Y420940I0J-2125D01*
G01X45300Y421580D02*
X40250D01*
G01Y421550D02*
G03X38760Y420940I0J-2125D01*
G01X42500Y421580D02*
Y425000D01*
G01X38750Y420950D02*
X35350Y417550D01*
G01X35340Y417560D02*
G03X34680Y415950I1634J-1610D01*
G01X38750Y420950D02*
X35350Y417550D01*
G01X35340Y417560D02*
G03X34680Y415950I1634J-1610D01*
G01X67500Y400000D02*
X42500Y425000D01*
G01X46250Y379680D02*
G03X47820Y381250I0J1570D01*
G01D02*
G03X46250Y382820I-1570J0D01*
G01X45300Y405930D02*
G03X46870Y407500I0J1570D01*
G01X45300Y405930D02*
G03X46870Y407500I0J1570D01*
G01D02*
G03X45300Y409070I-1570J0D01*
G01X46870Y407500D02*
G03X45300Y409070I-1570J0D01*
G01X46870Y420000D02*
G03X45300Y421570I-1570J0D01*
G01Y418430D02*
G03X46870Y420000I0J1570D01*
G54D15*
X62500Y10000D03*
G54D16*
X147850Y72850D03*
X312150Y237150D03*
G54D17*
X214488Y267500D03*
G54D18*
X325512D03*
G54D19*
X345000Y275000D03*
M02*
