*
G04 Job   : Z:\LASMO\PCB\PCB\PCB.pcb*
G04 User  : DESKTOP-D6MOGOB:alexis*
G04 Layer : SoldermaskBottom.gdo*
G04 Date  : Fri Jan 11 01:49:51 2019*
G04 Mentor Graphics Example Gerber Output Definition*
%ICAS*%
%MOIN*%
%FSLAX24Y24*%
%OFA0.0000B0.0000*%
G90*
G74*
%AMVB_RECTANGLE*
21,1,$1,$2,0,0,$3*
%
%ADD15C,0.06102*%
%ADD70C,0.06496*%
%ADD12C,0.07874*%
%ADD16C,0.08465*%
%ADD14C,0.15157*%
%ADD21O,0.12402X0.20276*%
%ADD20O,0.16339X0.10433*%
%ADD22O,0.20276X0.12402*%
%ADD18VB_RECTANGLE,0.06102X0.06102X0.00000*%
%ADD71VB_RECTANGLE,0.06496X0.06496X90.00000*%
%ADD24VB_RECTANGLE,0.03346X0.02165X0.00000*%
%ADD10VB_RECTANGLE,0.04528X0.02953X180.00000*%
%ADD17VB_RECTANGLE,0.04528X0.02953X270.00000*%
%ADD11VB_RECTANGLE,0.04528X0.03740X90.00000*%
%ADD13VB_RECTANGLE,0.04528X0.06890X180.00000*%
%ADD19VB_RECTANGLE,0.05118X0.13189X180.00000*%
%ADD23VB_RECTANGLE,0.05118X0.13189X90.00000*%
G01*
G54D10*
X16445Y15580D03*
Y16131D03*
X17168Y15580D03*
Y16131D03*
X17880Y15612D03*
Y16164D03*
X24070Y10343D03*
Y10894D03*
X25086Y15606D03*
Y16157D03*
X26375Y7716D03*
Y8267D03*
X27083Y7716D03*
Y8267D03*
X28747Y8110D03*
Y8661D03*
X29459Y8108D03*
Y8660D03*
X30001Y16062D03*
Y16613D03*
X35671Y18534D03*
Y19085D03*
X35753Y14920D03*
Y15471D03*
X37253Y14063D03*
Y14614D03*
X37961Y14072D03*
Y14623D03*
X38753Y12714D03*
Y13265D03*
X39461Y12706D03*
Y13257D03*
G54D11*
X24285Y6314D03*
Y7141D03*
G54D12*
X22901Y25410D03*
X24377Y22851D03*
X25854Y25410D03*
X28278Y25421D03*
X29754Y22862D03*
X31231Y25421D03*
X38929Y25428D03*
G54D13*
X30158Y8467D03*
X30965D03*
G54D14*
X44190Y12935D03*
Y17435D03*
G54D15*
X1144Y9796D03*
Y10796D03*
Y11796D03*
Y12796D03*
Y13796D03*
Y14796D03*
Y15796D03*
Y16796D03*
Y17796D03*
Y18796D03*
Y19796D03*
Y20796D03*
Y21796D03*
Y22796D03*
Y23796D03*
Y24796D03*
Y25796D03*
Y26796D03*
X3163Y1617D03*
X4148D03*
X11144Y9796D03*
Y10796D03*
Y11796D03*
Y12796D03*
Y13796D03*
Y14796D03*
Y15796D03*
Y16796D03*
Y17796D03*
Y18796D03*
Y19796D03*
Y20796D03*
Y21796D03*
Y22796D03*
Y23796D03*
Y24796D03*
Y25796D03*
Y26796D03*
X27694Y1960D03*
X28678D03*
X32079D03*
X33064D03*
X40690Y13935D03*
Y14935D03*
Y15935D03*
Y16935D03*
X41690Y13435D03*
Y14435D03*
Y15435D03*
Y16435D03*
X45520Y13695D03*
Y17675D03*
X46119Y12695D03*
Y16675D03*
G54D16*
X42989Y12124D03*
Y18246D03*
G54D17*
X23347Y15652D03*
X23899D03*
X26351Y11127D03*
X26902D03*
X28003Y10558D03*
X28010Y9846D03*
X28554Y10558D03*
X28561Y9846D03*
X33364Y12086D03*
X33381Y13187D03*
X33915Y12086D03*
X33933Y13187D03*
X35089Y13526D03*
X35640D03*
X38825Y15447D03*
X38833Y16156D03*
X39376Y15447D03*
X39384Y16156D03*
G54D18*
X1144Y8796D03*
X5132Y1617D03*
X11144Y8796D03*
X26709Y1960D03*
X31095D03*
G54D19*
X2598Y5291D03*
X3661D03*
X4580Y5282D03*
X5643D03*
X15909Y17779D03*
X16972D03*
G54D20*
X24377Y21709D03*
Y25331D03*
X29754Y21720D03*
Y25342D03*
G54D21*
X22310Y22260D03*
X27687Y22271D03*
X47543Y3764D03*
G54D22*
X45653Y2583D03*
Y4984D03*
G54D23*
X26904Y11968D03*
Y13031D03*
G54D24*
X20661Y7225D03*
Y7618D03*
G54D70*
X16497Y12178D03*
X17497D03*
X32829Y18202D03*
Y19202D03*
G54D71*
X18497Y12178D03*
X32829Y17202D03*
M02*
