; Version : LOCAL
; Job     : Z:\LASMO\PCB\PCB\PCB.pcb
; User    : DESKTOP-D6MOGOB:alexis
; Date    : Fri Jan 11 01:43:19 2019
; Format  : 3.3 / Absolute / MM / Leading
; Contents: Thru / Mill / Plated
M48
METRIC,TZ
FMAT,2
ICI,OFF
T05C1.0000
T07C1.0000
T06C1.0000
T04C1.2000
%
M71
G90
G93X0Y0
T05
G00X120759Y9560
M15
G01Y8660
Y10460
M16
G00X70326Y56569
M15
G01Y57469
Y55669
M16
G00X56668Y56541
M15
G01Y57441
Y55641
M16
T07
G00X115959Y6560
M15
G01X115059
X116859
M16
T06
G00X115959Y12660
M15
G01X114809
X117109
M16
T04
G00X61918Y55141
M15
G01X62718
X61118
M16
G00X75576Y55169
M15
G01X76376
X74776
M16
G00X61918Y64341
M15
G01X62718
X61118
M16
G00X75576Y64369
M15
G01X76376
X74776
M17
T00
M30
