G04 Fine line pattern test*
%FSLAX25Y25*%
%MOMM*%
%LPD*%
%ADD10C,0.010*%
D10*
X0Y0D02*
G01*
X000000Y000000D02*
X500000Y000000D01*
X000000Y001000D02*
X500000Y001000D01*
X000000Y002000D02*
X500000Y002000D01*
X000000Y003000D02*
X500000Y003000D01*
X000000Y004000D02*
X500000Y004000D01*
X000000Y005000D02*
X500000Y005000D01*
X000000Y006000D02*
X500000Y006000D01*
X000000Y007000D02*
X500000Y007000D01*
X000000Y008000D02*
X500000Y008000D01*
X000000Y009000D02*
X500000Y009000D01*
X000000Y010000D02*
X500000Y010000D01*
X000000Y011000D02*
X500000Y011000D01*
X000000Y012000D02*
X500000Y012000D01*
X000000Y013000D02*
X500000Y013000D01*
X000000Y014000D02*
X500000Y014000D01*
X000000Y015000D02*
X500000Y015000D01*
X000000Y016000D02*
X500000Y016000D01*
X000000Y017000D02*
X500000Y017000D01*
X000000Y018000D02*
X500000Y018000D01*
X000000Y019000D02*
X500000Y019000D01*
X000000Y020000D02*
X500000Y020000D01*
X000000Y021000D02*
X500000Y021000D01*
X000000Y022000D02*
X500000Y022000D01*
X000000Y023000D02*
X500000Y023000D01*
X000000Y024000D02*
X500000Y024000D01*
X000000Y025000D02*
X500000Y025000D01*
X000000Y026000D02*
X500000Y026000D01*
X000000Y027000D02*
X500000Y027000D01*
X000000Y028000D02*
X500000Y028000D01*
X000000Y029000D02*
X500000Y029000D01*
X000000Y030000D02*
X500000Y030000D01*
X000000Y031000D02*
X500000Y031000D01*
X000000Y032000D02*
X500000Y032000D01*
X000000Y033000D02*
X500000Y033000D01*
X000000Y034000D02*
X500000Y034000D01*
X000000Y035000D02*
X500000Y035000D01*
X000000Y036000D02*
X500000Y036000D01*
X000000Y037000D02*
X500000Y037000D01*
X000000Y038000D02*
X500000Y038000D01*
X000000Y039000D02*
X500000Y039000D01*
X000000Y040000D02*
X500000Y040000D01*
X000000Y041000D02*
X500000Y041000D01*
X000000Y042000D02*
X500000Y042000D01*
X000000Y043000D02*
X500000Y043000D01*
X000000Y044000D02*
X500000Y044000D01*
X000000Y045000D02*
X500000Y045000D01*
X000000Y046000D02*
X500000Y046000D01*
X000000Y047000D02*
X500000Y047000D01*
X000000Y048000D02*
X500000Y048000D01*
X000000Y049000D02*
X500000Y049000D01*
X000000Y050000D02*
X500000Y050000D01*
X000000Y051000D02*
X500000Y051000D01*
X000000Y052000D02*
X500000Y052000D01*
X000000Y053000D02*
X500000Y053000D01*
X000000Y054000D02*
X500000Y054000D01*
X000000Y055000D02*
X500000Y055000D01*
X000000Y056000D02*
X500000Y056000D01*
X000000Y057000D02*
X500000Y057000D01*
X000000Y058000D02*
X500000Y058000D01*
X000000Y059000D02*
X500000Y059000D01*
X000000Y060000D02*
X500000Y060000D01*
X000000Y061000D02*
X500000Y061000D01*
X000000Y062000D02*
X500000Y062000D01*
X000000Y063000D02*
X500000Y063000D01*
X000000Y064000D02*
X500000Y064000D01*
X000000Y065000D02*
X500000Y065000D01*
X000000Y066000D02*
X500000Y066000D01*
X000000Y067000D02*
X500000Y067000D01*
X000000Y068000D02*
X500000Y068000D01*
X000000Y069000D02*
X500000Y069000D01*
X000000Y070000D02*
X500000Y070000D01*
X000000Y071000D02*
X500000Y071000D01*
X000000Y072000D02*
X500000Y072000D01*
X000000Y073000D02*
X500000Y073000D01*
X000000Y074000D02*
X500000Y074000D01*
X000000Y075000D02*
X500000Y075000D01*
X000000Y076000D02*
X500000Y076000D01*
X000000Y077000D02*
X500000Y077000D01*
X000000Y078000D02*
X500000Y078000D01*
X000000Y079000D02*
X500000Y079000D01*
X000000Y080000D02*
X500000Y080000D01*
X000000Y081000D02*
X500000Y081000D01*
X000000Y082000D02*
X500000Y082000D01*
X000000Y083000D02*
X500000Y083000D01*
X000000Y084000D02*
X500000Y084000D01*
X000000Y085000D02*
X500000Y085000D01*
X000000Y086000D02*
X500000Y086000D01*
X000000Y087000D02*
X500000Y087000D01*
X000000Y088000D02*
X500000Y088000D01*
X000000Y089000D02*
X500000Y089000D01*
X000000Y090000D02*
X500000Y090000D01*
X000000Y091000D02*
X500000Y091000D01*
X000000Y092000D02*
X500000Y092000D01*
X000000Y093000D02*
X500000Y093000D01*
X000000Y094000D02*
X500000Y094000D01*
X000000Y095000D02*
X500000Y095000D01*
X000000Y096000D02*
X500000Y096000D01*
X000000Y097000D02*
X500000Y097000D01*
X000000Y098000D02*
X500000Y098000D01*
X000000Y099000D02*
X500000Y099000D01*
M02*
