G04 ================== begin FILE IDENTIFICATION RECORD ==================*
G04 Layout Name:  C:/Cadwork/CircuitCo_MinnowMAX_RevA1/MinnowMax_RevA1.brd*
G04 Film Name:    MinnowMax_lyr4*
G04 File Format:  Gerber RS274X*
G04 File Origin:  Cadence Allegro 16.6-S026*
G04 Origin Date:  Fri May 02 14:12:17 2014*
G04 *
G04 Layer:  VIA CLASS/INT4(H)*
G04 Layer:  PIN/INT4(H)*
G04 Layer:  ETCH/INT4(H)*
G04 Layer:  DRAWING FORMAT/TITLE_BLOCK*
G04 Layer:  BOARD GEOMETRY/TOOLING_CORNERS*
G04 *
G04 Offset:    (0.0000 0.0000)*
G04 Mirror:    No*
G04 Mode:      Positive*
G04 Rotation:  0*
G04 FullContactRelief:  No*
G04 UndefLineWidth:     5.0000*
G04 ================== end FILE IDENTIFICATION RECORD ====================*
%FSLAX45Y45*MOIN*%
%IR0*IPPOS*OFA0.00000B0.00000*MIA0B0*SFA1.00000B1.00000*%
%AMMACRO14*
4,1,36,-.005,0.0,
-.004924,-.000868,
-.004698,-.00171,
-.00433,-.0025,
-.00383,-.003214,
-.003214,-.00383,
-.0025,-.00433,
-.00171,-.004698,
-.000868,-.004924,
0.0,-.005,
.000868,-.004924,
.00171,-.004698,
.0025,-.00433,
.003214,-.00383,
.00383,-.003214,
.00433,-.0025,
.004698,-.00171,
.004924,-.000868,
.005,0.0,
.004924,.000868,
.004698,.00171,
.00433,.0025,
.00383,.003214,
.003214,.00383,
.0025,.00433,
.00171,.004698,
.000868,.004924,
0.0,.005,
-.000868,.004924,
-.00171,.004698,
-.0025,.00433,
-.003214,.00383,
-.00383,.003214,
-.00433,.0025,
-.004698,.00171,
-.004924,.000868,
-.005,0.0,
0.0*
%
%ADD14MACRO14*%
%AMMACRO16*
4,1,36,0.0,-.015,
-.002605,-.014772,
-.00513,-.014095,
-.0075,-.01299,
-.009642,-.011491,
-.011491,-.009642,
-.01299,-.0075,
-.014095,-.00513,
-.014772,-.002605,
-.015,0.0,
-.014772,.002605,
-.014095,.00513,
-.01299,.0075,
-.011491,.009642,
-.009642,.011491,
-.0075,.01299,
-.00513,.014095,
-.002605,.014772,
0.0,.015,
.002605,.014772,
.00513,.014095,
.0075,.01299,
.009642,.011491,
.011491,.009642,
.01299,.0075,
.014095,.00513,
.014772,.002605,
.015,0.0,
.014772,-.002605,
.014095,-.00513,
.01299,-.0075,
.011491,-.009642,
.009642,-.011491,
.0075,-.01299,
.00513,-.014095,
.002605,-.014772,
0.0,-.015,
0.0*
%
%ADD16MACRO16*%
%ADD10C,.016*%
%ADD15C,.058*%
%ADD12R,.058X.058*%
%AMMACRO13*
4,1,36,0.0,-.015,
.002605,-.014772,
.00513,-.014095,
.0075,-.01299,
.009642,-.011491,
.011491,-.009642,
.01299,-.0075,
.014095,-.00513,
.014772,-.002605,
.015,0.0,
.014772,.002605,
.014095,.00513,
.01299,.0075,
.011491,.009642,
.009642,.011491,
.0075,.01299,
.00513,.014095,
.002605,.014772,
0.0,.015,
-.002605,.014772,
-.00513,.014095,
-.0075,.01299,
-.009642,.011491,
-.011491,.009642,
-.01299,.0075,
-.014095,.00513,
-.014772,.002605,
-.015,0.0,
-.014772,-.002605,
-.014095,-.00513,
-.01299,-.0075,
-.011491,-.009642,
-.009642,-.011491,
-.0075,-.01299,
-.00513,-.014095,
-.002605,-.014772,
0.0,-.015,
135.*
%
%ADD13MACRO13*%
%ADD11C,.14*%
%ADD17C,.02*%
%ADD18C,.03*%
%ADD19C,.004*%
%ADD20C,.006*%
%ADD21C,.0062*%
%ADD22C,.008*%
%ADD23C,.005*%
%ADD24C,.02*%
%ADD25C,.022*%
G75*
%LPD*%
G75*
G36*
G01X-5000Y-55000D02*
Y-45000D01*
X-15000D01*
Y-40000D01*
X0D01*
Y-55000D01*
X-5000D01*
G37*
G36*
G01X-15000Y335000D02*
X-5000D01*
Y345000D01*
X0D01*
Y330000D01*
X-15000D01*
Y335000D01*
G37*
G36*
G01X15572Y249223D02*
X15148Y249648D01*
X14532Y249082D01*
X15148Y248516D01*
X15572Y248941D01*
G03Y249223I-141J141D01*
G37*
G36*
G01X31100Y252300D02*
X30500D01*
X30465Y251465D01*
X31300Y251500D01*
Y252100D01*
G03X31100Y252300I-200J0D01*
G37*
G36*
G01X56100Y228300D02*
X55500D01*
X55465Y227465D01*
X56300Y227500D01*
Y228100D01*
G03X56100Y228300I-200J0D01*
G37*
G36*
G01X50880Y246359D02*
X51304Y245934D01*
X51920Y246500D01*
X51304Y247066D01*
X50880Y246641D01*
G03Y246359I141J-141D01*
G37*
G36*
G01X54510Y244859D02*
X54934Y244434D01*
X55550Y245000D01*
X54934Y245566D01*
X54510Y245141D01*
G03Y244859I141J-141D01*
G37*
G36*
G01X61490Y135641D02*
X61066Y136066D01*
X60450Y135500D01*
X61066Y134934D01*
X61490Y135359D01*
G03Y135641I-141J141D01*
G37*
G36*
G01X67490Y236141D02*
X67066Y236566D01*
X66450Y236000D01*
X67066Y235434D01*
X67490Y235859D01*
G03Y236141I-141J141D01*
G37*
G36*
G01X67100Y228300D02*
X66500D01*
X66465Y227465D01*
X67300Y227500D01*
Y228100D01*
G03X67100Y228300I-200J0D01*
G37*
G36*
G01X67300Y246900D02*
Y247500D01*
X66465Y247535D01*
X66500Y246700D01*
X67100D01*
G03X67300Y246900I0J200D01*
G37*
G36*
G01X67100Y243300D02*
X66500D01*
X66465Y242465D01*
X67300Y242500D01*
Y243100D01*
G03X67100Y243300I-200J0D01*
G37*
G36*
G01X72400Y263200D02*
X73000D01*
X73035Y264035D01*
X72200Y264000D01*
Y263400D01*
G03X72400Y263200I200J0D01*
G37*
G36*
G01X73600Y264800D02*
X73000D01*
X72965Y263965D01*
X73800Y264000D01*
Y264600D01*
G03X73600Y264800I-200J0D01*
G37*
G36*
G01X68149Y262434D02*
X65500Y265083D01*
X62550Y262300D01*
X65500Y259517D01*
X68149Y262166D01*
G03Y262434I-149J134D01*
G37*
G36*
G01X86100Y129800D02*
X85500D01*
X85465Y128965D01*
X86300Y129000D01*
Y129600D01*
G03X86100Y129800I-200J0D01*
G37*
G36*
G01X265500Y195500D02*
X259000Y202000D01*
X232000D01*
X227000Y207000D01*
X183480D01*
G03X182126I-677J-867D01*
G01X174500D01*
X172500Y209000D01*
X138143D01*
X136672Y210471D01*
X136669Y210549D01*
G03X135297Y211798I-1299J-49D01*
G01X135207Y211793D01*
X128000Y219000D01*
X127000D01*
G03X123000I-2000J-1500D01*
G01X114500D01*
G03X110500I-2000J-1500D01*
G01X102000D01*
X101000Y220000D01*
Y225000D01*
X102000Y226000D01*
X110500D01*
G03X114500I2000J1500D01*
G01X123000D01*
G03X127000I2000J1500D01*
G01X130500D01*
X137783Y218717D01*
X137685Y218579D01*
G03X139079Y217185I815J-579D01*
G01X139217Y217283D01*
X142000Y214500D01*
X231500D01*
X236577Y209423D01*
X236544Y209309D01*
G03X238698Y209073I1056J-309D01*
G02X239097Y209500I399J27D01*
G01X243803D01*
G02X244202Y209073I0J-400D01*
G03X246398I1098J-73D01*
G02X246797Y209500I399J27D01*
G01X251403D01*
G02X251802Y209073I0J-400D01*
G03X253998I1098J-73D01*
G02X254397Y209500I399J27D01*
G01X257503D01*
G02X257902Y209073I0J-400D01*
G03X260098I1098J-73D01*
G02X260497Y209500I399J27D01*
G01X262703D01*
G02X263102Y209073I0J-400D01*
G03X265298I1098J-73D01*
G02X265697Y209500I399J27D01*
G01X265703D01*
G02X266102Y209073I0J-400D01*
G03X268298I1098J-73D01*
G02X268697Y209500I399J27D01*
G01X269035D01*
Y209277D01*
X269030Y209254D01*
G03X271198Y209073I1070J-254D01*
G02X271597Y209500I399J27D01*
G01X273000D01*
X274000Y208500D01*
Y196500D01*
X273000Y195500D01*
X272620D01*
X272588Y195512D01*
G03X271845I-371J-1035D01*
G01X271812Y195500D01*
X265500D01*
G37*
G36*
G01X132300Y178900D02*
Y179500D01*
X131465Y179535D01*
X131500Y178700D01*
X132100D01*
G03X132300Y178900I0J200D01*
G37*
G36*
G01X136170Y209900D02*
Y210500D01*
X135335Y210535D01*
X135370Y209700D01*
X135970D01*
G03X136170Y209900I0J200D01*
G37*
G36*
G01X144600Y218800D02*
X144000D01*
X143965Y217965D01*
X144800Y218000D01*
Y218600D01*
G03X144600Y218800I-200J0D01*
G37*
G36*
G01X141600D02*
X141000D01*
X140965Y217965D01*
X141800Y218000D01*
Y218600D01*
G03X141600Y218800I-200J0D01*
G37*
G36*
G01X156800Y164900D02*
Y165500D01*
X155965Y165535D01*
X156000Y164700D01*
X156600D01*
G03X156800Y164900I0J200D01*
G37*
G36*
G01Y160650D02*
Y161250D01*
X155965Y161285D01*
X156000Y160450D01*
X156600D01*
G03X156800Y160650I0J200D01*
G37*
G36*
G01Y158150D02*
Y158750D01*
X155965Y158785D01*
X156000Y157950D01*
X156600D01*
G03X156800Y158150I0J200D01*
G37*
G36*
G01X150300Y170400D02*
Y171000D01*
X149465Y171035D01*
X149500Y170200D01*
X150100D01*
G03X150300Y170400I0J200D01*
G37*
G36*
G01X156800Y167400D02*
Y168000D01*
X155965Y168035D01*
X156000Y167200D01*
X156600D01*
G03X156800Y167400I0J200D01*
G37*
G36*
G01X149800Y217400D02*
Y218000D01*
X148965Y218035D01*
X149000Y217200D01*
X149600D01*
G03X149800Y217400I0J200D01*
G37*
G36*
G01X153490Y217641D02*
X152566Y218566D01*
X151953Y218017D01*
X152500Y217500D01*
X153349D01*
X153490Y217641D01*
G37*
G36*
G01X171200Y192100D02*
Y191500D01*
X172035Y191465D01*
X172000Y192300D01*
X171400D01*
G03X171200Y192100I0J-200D01*
G37*
G36*
G01X172800Y194900D02*
Y195500D01*
X171965Y195535D01*
X172000Y194700D01*
X172600D01*
G03X172800Y194900I0J200D01*
G37*
G36*
G01X175800Y198900D02*
Y199500D01*
X174965Y199535D01*
X175000Y198700D01*
X175600D01*
G03X175800Y198900I0J200D01*
G37*
G36*
G01X172800D02*
Y199500D01*
X171965Y199535D01*
X172000Y198700D01*
X172600D01*
G03X172800Y198900I0J200D01*
G37*
G36*
G01X171400Y206700D02*
X172000D01*
X172035Y207535D01*
X171200Y207500D01*
Y206900D01*
G03X171400Y206700I200J0D01*
G37*
G36*
G01X172800Y204400D02*
Y205000D01*
X171965Y205035D01*
X172000Y204200D01*
X172600D01*
G03X172800Y204400I0J200D01*
G37*
G36*
G01X172600Y224800D02*
X172000D01*
X171965Y223965D01*
X172800Y224000D01*
Y224600D01*
G03X172600Y224800I-200J0D01*
G37*
G36*
G01X169800Y223400D02*
Y224000D01*
X168965Y224035D01*
X169000Y223200D01*
X169600D01*
G03X169800Y223400I0J200D01*
G37*
G36*
G01X217000Y144500D02*
Y140000D01*
X216250Y139250D01*
X180750D01*
X180571Y139429D01*
X180587Y139530D01*
G03X179330Y140787I-1087J170D01*
G01X179229Y140771D01*
X178500Y141500D01*
Y143500D01*
X179000Y144000D01*
X186500D01*
X187575Y142925D01*
X187588Y142902D01*
G03X189059Y142477I955J546D01*
G01X189103Y142500D01*
X190781D01*
X190825Y142476D01*
G03X191860I517J971D01*
G01X191904Y142500D01*
X193581D01*
X193625Y142476D01*
G03X194660I517J971D01*
G01X194704Y142500D01*
X196381D01*
X196425Y142476D01*
G03X197460I517J971D01*
G01X197504Y142500D01*
X199182D01*
X199226Y142477D01*
G03X200258I516J971D01*
G01X200302Y142500D01*
X201982D01*
X202026Y142477D01*
G03X203059I516J971D01*
G01X203103Y142500D01*
X204782D01*
X204826Y142477D01*
G03X205859I516J971D01*
G01X205903Y142500D01*
X207582D01*
X207626Y142477D01*
G03X208659I516J971D01*
G01X208703Y142500D01*
X210383D01*
X210427Y142477D01*
G03X211880Y142872I516J971D01*
G01X211893Y142893D01*
X212000Y143000D01*
Y143143D01*
X212007Y143168D01*
G03Y143728I-1064J280D01*
G01X212000Y143753D01*
Y144500D01*
X212598Y145098D01*
X216402D01*
X217000Y144500D01*
G37*
G36*
G01X187750Y146548D02*
X188350D01*
X188385Y147383D01*
X187550Y147348D01*
Y146748D01*
G03X187750Y146548I200J0D01*
G37*
G36*
G01X180490Y157641D02*
X180066Y158066D01*
X179450Y157500D01*
X180066Y156934D01*
X180490Y157359D01*
G03Y157641I-141J141D01*
G37*
G36*
G01X189859Y197990D02*
X189434Y197566D01*
X190000Y196950D01*
X190566Y197566D01*
X190141Y197990D01*
G03X189859I-141J-141D01*
G37*
G36*
G01X190742Y146548D02*
X191342D01*
X191378Y147383D01*
X190542Y147348D01*
Y146748D01*
G03X190742Y146548I200J0D01*
G37*
G36*
G01X200343Y163452D02*
X199743D01*
X199707Y162617D01*
X200543Y162652D01*
Y163252D01*
G03X200343Y163452I-200J0D01*
G37*
G36*
G01X203143Y159552D02*
X202543D01*
X202507Y158717D01*
X203343Y158752D01*
Y159352D01*
G03X203143Y159552I-200J0D01*
G37*
G36*
G01X191942D02*
X191342D01*
X191307Y158717D01*
X192142Y158752D01*
Y159352D01*
G03X191942Y159552I-200J0D01*
G37*
G36*
G01X200543Y158152D02*
Y158752D01*
X199707Y158787D01*
X199743Y157952D01*
X200343D01*
G03X200543Y158152I0J200D01*
G37*
G36*
G01X199147Y184943D02*
X199747Y184956D01*
X199778Y185792D01*
X198943Y185756D01*
Y185143D01*
G03X199147Y184943I200J0D01*
G37*
G36*
G01X195944Y195594D02*
X195344D01*
X195309Y194758D01*
X196144Y194794D01*
Y195394D01*
G03X195944Y195594I-200J0D01*
G37*
G36*
G01X196343Y184956D02*
X196943D01*
X196978Y185792D01*
X196143Y185756D01*
Y185156D01*
G03X196343Y184956I200J0D01*
G37*
G36*
G01X198644Y188855D02*
X199244D01*
X199279Y189691D01*
X198444Y189655D01*
Y189055D01*
G03X198644Y188855I200J0D01*
G37*
G36*
G01X198607Y193993D02*
X199244D01*
X199280Y194827D01*
X198444Y194805D01*
X198407Y194205D01*
G03X198607Y193993I200J-12D01*
G37*
G36*
G01X191010Y194859D02*
X191434Y194434D01*
X192050Y195000D01*
X191434Y195566D01*
X191010Y195141D01*
G03Y194859I141J-141D01*
G37*
G36*
G01X198254Y197452D02*
X198678Y197028D01*
X199294Y197593D01*
X198678Y198159D01*
X198254Y197735D01*
G03Y197452I141J-141D01*
G37*
G36*
G01X209225Y9861D02*
Y10351D01*
X208370Y10406D01*
X208425Y9551D01*
X208915D01*
G03X209225Y9861I0J310D01*
G37*
G36*
G01Y13011D02*
Y13501D01*
X208370Y13556D01*
X208425Y12701D01*
X208915D01*
G03X209225Y13011I0J310D01*
G37*
G36*
G01Y19311D02*
Y19801D01*
X208370Y19856D01*
X208425Y19001D01*
X208915D01*
G03X209225Y19311I0J310D01*
G37*
G36*
G01Y16161D02*
Y16651D01*
X208370Y16706D01*
X208425Y15851D01*
X208915D01*
G03X209225Y16161I0J310D01*
G37*
G36*
G01Y25611D02*
Y26101D01*
X208370Y26156D01*
X208425Y25301D01*
X208915D01*
G03X209225Y25611I0J310D01*
G37*
G36*
G01Y22461D02*
Y22951D01*
X208370Y23006D01*
X208425Y22151D01*
X208915D01*
G03X209225Y22461I0J310D01*
G37*
G36*
G01Y28761D02*
Y29251D01*
X208370Y29306D01*
X208425Y28451D01*
X208915D01*
G03X209225Y28761I0J310D01*
G37*
G36*
G01Y47661D02*
Y48151D01*
X208370Y48206D01*
X208425Y47351D01*
X208915D01*
G03X209225Y47661I0J310D01*
G37*
G36*
G01Y38211D02*
Y38701D01*
X208370Y38756D01*
X208425Y37901D01*
X208915D01*
G03X209225Y38211I0J310D01*
G37*
G36*
G01Y41361D02*
Y41851D01*
X208370Y41906D01*
X208425Y41051D01*
X208915D01*
G03X209225Y41361I0J310D01*
G37*
G36*
G01X205201Y152237D02*
X204777Y151813D01*
X205342Y151197D01*
X205908Y151813D01*
X205484Y152237D01*
G03X205201I-141J-141D01*
G37*
G36*
G01X210801D02*
X210377Y151813D01*
X210943Y151197D01*
X211508Y151813D01*
X211084Y152237D01*
G03X210801I-141J-141D01*
G37*
G36*
G01X208001D02*
X207577Y151813D01*
X208143Y151197D01*
X208708Y151813D01*
X208284Y152237D01*
G03X208001I-141J-141D01*
G37*
G36*
G01X219010Y225859D02*
X219434Y225434D01*
X220050Y226000D01*
X219434Y226566D01*
X219010Y226141D01*
G03Y225859I141J-141D01*
G37*
G36*
G01X232800Y229400D02*
Y230000D01*
X231965Y230035D01*
X232000Y229200D01*
X232600D01*
G03X232800Y229400I0J200D01*
G37*
G36*
G01X222700Y238600D02*
Y238000D01*
X223535Y237965D01*
X223500Y238800D01*
X222900D01*
G03X222700Y238600I0J-200D01*
G37*
G36*
G01X220200D02*
Y238000D01*
X221035Y237965D01*
X221000Y238800D01*
X220400D01*
G03X220200Y238600I0J-200D01*
G37*
G36*
G01X240200Y218600D02*
Y218000D01*
X241035Y217965D01*
X241000Y218800D01*
X240400D01*
G03X240200Y218600I0J-200D01*
G37*
G36*
G01X241800Y229400D02*
Y230000D01*
X240965Y230035D01*
X241000Y229200D01*
X241600D01*
G03X241800Y229400I0J200D01*
G37*
G36*
G01X257921Y8259D02*
X257549Y8581D01*
X256923Y7997D01*
X257566Y7434D01*
X257937Y7806D01*
G03X257921Y8259I-219J219D01*
G37*
G36*
G01X256088Y7781D02*
X256434Y7434D01*
X257078Y8000D01*
X256434Y8566D01*
X256088Y8219D01*
G03Y7781I219J-219D01*
G37*
G36*
G01X251412Y20219D02*
X251066Y20566D01*
X250422Y20000D01*
X251066Y19434D01*
X251412Y19781D01*
G03Y20219I-219J219D01*
G37*
G36*
G01X249588Y19781D02*
X249934Y19434D01*
X250578Y20000D01*
X249934Y20566D01*
X249588Y20219D01*
G03Y19781I219J-219D01*
G37*
G36*
G01X251412Y16219D02*
X251066Y16566D01*
X250422Y16000D01*
X251066Y15434D01*
X251412Y15781D01*
G03Y16219I-219J219D01*
G37*
G36*
G01X249588Y15781D02*
X249934Y15434D01*
X250578Y16000D01*
X249934Y16566D01*
X249588Y16219D01*
G03Y15781I219J-219D01*
G37*
G36*
G01X251412Y12219D02*
X251066Y12566D01*
X250422Y12000D01*
X251066Y11434D01*
X251412Y11781D01*
G03Y12219I-219J219D01*
G37*
G36*
G01X249588Y11781D02*
X249934Y11434D01*
X250578Y12000D01*
X249934Y12566D01*
X249588Y12219D01*
G03Y11781I219J-219D01*
G37*
G36*
G01X251412Y24219D02*
X251066Y24566D01*
X250422Y24000D01*
X251066Y23434D01*
X251412Y23781D01*
G03Y24219I-219J219D01*
G37*
G36*
G01X249588Y23781D02*
X249934Y23434D01*
X250578Y24000D01*
X249934Y24566D01*
X249588Y24219D01*
G03Y23781I219J-219D01*
G37*
G36*
G01X251412Y28219D02*
X251066Y28566D01*
X250422Y28000D01*
X251066Y27434D01*
X251412Y27781D01*
G03Y28219I-219J219D01*
G37*
G36*
G01X249588Y27781D02*
X249934Y27434D01*
X250578Y28000D01*
X249934Y28566D01*
X249588Y28219D01*
G03Y27781I219J-219D01*
G37*
G36*
G01X257800Y47510D02*
Y48000D01*
X256945Y48055D01*
X257000Y47200D01*
X257490D01*
G03X257800Y47510I0J310D01*
G37*
G36*
G01X256510Y47200D02*
X257000D01*
X257055Y48055D01*
X256200Y48000D01*
Y47510D01*
G03X256510Y47200I310J0D01*
G37*
G36*
G01X251412Y40219D02*
X251066Y40566D01*
X250422Y40000D01*
X251066Y39434D01*
X251412Y39781D01*
G03Y40219I-219J219D01*
G37*
G36*
G01X250010Y39200D02*
X250500D01*
X250555Y40055D01*
X249700Y40000D01*
Y39510D01*
G03X250010Y39200I310J0D01*
G37*
G36*
G01X251412Y44219D02*
X251066Y44566D01*
X250422Y44000D01*
X251066Y43434D01*
X251412Y43781D01*
G03Y44219I-219J219D01*
G37*
G36*
G01X250010Y43200D02*
X250500D01*
X250555Y44055D01*
X249700Y44000D01*
Y43510D01*
G03X250010Y43200I310J0D01*
G37*
G36*
G01X263657Y159551D02*
X263057D01*
X263021Y158716D01*
X263857Y158751D01*
Y159351D01*
G03X263657Y159551I-200J0D01*
G37*
G36*
G01X270652Y157952D02*
X271456D01*
X271496Y158782D01*
X270667Y158816D01*
X270463Y158216D01*
G03X270652Y157952I189J-64D01*
G37*
G36*
G01X285400Y157700D02*
X286000D01*
X286035Y158535D01*
X285200Y158500D01*
Y157900D01*
G03X285400Y157700I200J0D01*
G37*
G36*
G01X282200Y170900D02*
Y170300D01*
X283035Y170265D01*
X283000Y171100D01*
X282400D01*
G03X282200Y170900I0J-200D01*
G37*
G36*
G01X285200Y186850D02*
Y186250D01*
X286035Y186215D01*
X286000Y187050D01*
X285400D01*
G03X285200Y186850I0J-200D01*
G37*
G36*
G01X290700Y230600D02*
Y230000D01*
X291535Y229965D01*
X291500Y230800D01*
X290900D01*
G03X290700Y230600I0J-200D01*
G37*
G36*
G01X288010Y233359D02*
X288434Y232934D01*
X289050Y233500D01*
X288434Y234066D01*
X288010Y233641D01*
G03Y233359I141J-141D01*
G37*
G36*
G01X278800Y225400D02*
Y226000D01*
X277965Y226035D01*
X278000Y225200D01*
X278600D01*
G03X278800Y225400I0J200D01*
G37*
G36*
G01Y229400D02*
Y230000D01*
X277965Y230035D01*
X278000Y229200D01*
X278600D01*
G03X278800Y229400I0J200D01*
G37*
G36*
G01X283900Y281200D02*
X284500D01*
X284535Y282035D01*
X283700Y282000D01*
Y281400D01*
G03X283900Y281200I200J0D01*
G37*
G36*
G01X295435Y9551D02*
X295925D01*
X295980Y10406D01*
X295125Y10351D01*
Y9861D01*
G03X295435Y9551I310J0D01*
G37*
G36*
G01Y12701D02*
X295925D01*
X295980Y13556D01*
X295125Y13501D01*
Y13011D01*
G03X295435Y12701I310J0D01*
G37*
G36*
G01X295013Y19582D02*
X295359Y19235D01*
X296003Y19801D01*
X295359Y20367D01*
X295013Y20020D01*
G03Y19582I219J-219D01*
G37*
G36*
G01Y16432D02*
X295359Y16085D01*
X296003Y16651D01*
X295359Y17217D01*
X295013Y16870D01*
G03Y16432I219J-219D01*
G37*
G36*
G01Y25882D02*
X295359Y25535D01*
X296003Y26101D01*
X295359Y26667D01*
X295013Y26320D01*
G03Y25882I219J-219D01*
G37*
G36*
G01Y22732D02*
X295359Y22385D01*
X296003Y22951D01*
X295359Y23517D01*
X295013Y23170D01*
G03Y22732I219J-219D01*
G37*
G36*
G01Y29032D02*
X295359Y28685D01*
X296003Y29251D01*
X295359Y29817D01*
X295013Y29470D01*
G03Y29032I219J-219D01*
G37*
G36*
G01X295435Y47351D02*
X295925D01*
X295980Y48206D01*
X295125Y48151D01*
Y47661D01*
G03X295435Y47351I310J0D01*
G37*
G36*
G01Y37901D02*
X295925D01*
X295980Y38756D01*
X295125Y38701D01*
Y38211D01*
G03X295435Y37901I310J0D01*
G37*
G36*
G01Y41051D02*
X295925D01*
X295980Y41906D01*
X295125Y41851D01*
Y41361D01*
G03X295435Y41051I310J0D01*
G37*
G36*
G01X300400Y151700D02*
X301000D01*
X301035Y152535D01*
X300200Y152500D01*
Y151900D01*
G03X300400Y151700I200J0D01*
G37*
G36*
G01X304900Y159700D02*
X305500D01*
X305535Y160535D01*
X304700Y160500D01*
Y159900D01*
G03X304900Y159700I200J0D01*
G37*
G36*
G01X297010Y152359D02*
X297434Y151934D01*
X298050Y152500D01*
X297434Y153066D01*
X297010Y152641D01*
G03Y152359I141J-141D01*
G37*
G36*
G01X300200Y185100D02*
Y184500D01*
X301035Y184465D01*
X301000Y185300D01*
X300400D01*
G03X300200Y185100I0J-200D01*
G37*
G36*
G01X302600Y208300D02*
X302000D01*
X301965Y207465D01*
X302800Y207500D01*
Y208100D01*
G03X302600Y208300I-200J0D01*
G37*
G36*
G01X304900Y221200D02*
X305500D01*
X305535Y222035D01*
X304700Y222000D01*
Y221400D01*
G03X304900Y221200I200J0D01*
G37*
G36*
G01X301010Y221859D02*
X301434Y221434D01*
X302050Y222000D01*
X301434Y222566D01*
X301010Y222141D01*
G03Y221859I141J-141D01*
G37*
G36*
G01X301400Y210700D02*
X302000D01*
X302035Y211535D01*
X301200Y211500D01*
Y210900D01*
G03X301400Y210700I200J0D01*
G37*
G36*
G01X304900Y217200D02*
X305500D01*
X305535Y218035D01*
X304700Y218000D01*
Y217400D01*
G03X304900Y217200I200J0D01*
G37*
G36*
G01X301400D02*
X302000D01*
X302035Y218035D01*
X301200Y218000D01*
Y217400D01*
G03X301400Y217200I200J0D01*
G37*
G36*
G01X313540Y199859D02*
X315449Y197949D01*
X317550Y200000D01*
X315449Y202051D01*
X313540Y200141D01*
G03Y199859I141J-141D01*
G37*
G36*
G01X311200Y223100D02*
Y222000D01*
X312024Y221956D01*
X312128Y222754D01*
X311528Y223254D01*
G03X311200Y223100I-128J-154D01*
G37*
G36*
G01X308200Y218600D02*
Y218000D01*
X309035Y217965D01*
X309000Y218800D01*
X308400D01*
G03X308200Y218600I0J-200D01*
G37*
G36*
G01X308859Y222990D02*
X308434Y222566D01*
X309000Y221950D01*
X309566Y222566D01*
X309141Y222990D01*
G03X308859I-141J-141D01*
G37*
G36*
G01X369000Y109000D02*
X368000Y110000D01*
Y113000D01*
X367000Y114000D01*
X330000D01*
X329000Y115000D01*
Y122000D01*
X330000Y123000D01*
X337994D01*
G03X338006I6J1000D01*
G01X373000D01*
X374000Y122000D01*
Y110000D01*
X373000Y109000D01*
X369000D01*
G37*
G36*
G01X334510Y207359D02*
X334934Y206934D01*
X335550Y207500D01*
X334934Y208066D01*
X334510Y207641D01*
G03Y207359I141J-141D01*
G37*
G36*
G01X356490Y207641D02*
X356066Y208066D01*
X355450Y207500D01*
X356066Y206934D01*
X356490Y207359D01*
G03Y207641I-141J141D01*
G37*
G36*
G01X354510Y217359D02*
X354934Y216934D01*
X355550Y217500D01*
X354934Y218066D01*
X354510Y217641D01*
G03Y217359I141J-141D01*
G37*
G36*
G01Y212359D02*
X354934Y211934D01*
X355550Y212500D01*
X354934Y213066D01*
X354510Y212641D01*
G03Y212359I141J-141D01*
G37*
G36*
G01Y237359D02*
X354934Y236934D01*
X355550Y237500D01*
X354934Y238066D01*
X354510Y237641D01*
G03Y237359I141J-141D01*
G37*
G36*
G01X356300Y241900D02*
Y242500D01*
X355465Y242535D01*
X355500Y241700D01*
X356100D01*
G03X356300Y241900I0J200D01*
G37*
G36*
G01X354900Y246700D02*
X355500D01*
X355535Y247535D01*
X354700Y247500D01*
Y246900D01*
G03X354900Y246700I200J0D01*
G37*
G36*
G01X820000Y-45000D02*
X810000D01*
Y-55000D01*
X805000D01*
Y-40000D01*
X820000D01*
Y-45000D01*
G37*
G36*
G01X810000Y345000D02*
Y335000D01*
X820000D01*
Y330000D01*
X805000D01*
Y345000D01*
X810000D01*
G37*
%LPC*%
G75*
G54D24*
X175000Y212000D03*
X172000D03*
X347000Y116500D03*
X337984D03*
X351000Y121500D03*
X338000Y120500D03*
X366500Y121500D03*
G54D25*
X187000Y211000D03*
X193000Y210000D03*
X218000Y211000D03*
X206500Y209000D03*
X215500D03*
X222400D03*
X267877Y198794D03*
X269761Y200983D03*
%LPD*%
G75*
G54D10*
G01X45500Y278000D02*
X49500D01*
X59000Y268500D01*
G01X66500Y251500D02*
X67400D01*
X68950Y253050D01*
Y255450D01*
X74000Y260500D01*
X103000D01*
G01X183500Y224000D02*
X193000D01*
X194500Y225500D01*
X200500D01*
X202000Y224000D01*
X218000D01*
G01X183500D02*
X181000D01*
G01X230000Y135596D02*
X227904Y133500D01*
X221000D01*
X211106Y123606D01*
X210943D01*
G01X230031Y138611D02*
X227016Y135596D01*
X217648D01*
G01X230031Y138611D02*
X232143Y136500D01*
X237182D01*
X239264Y138582D01*
G01D02*
X242351D01*
X242352Y138582D01*
G01X268500Y226000D02*
X266500Y228000D01*
X258000D01*
X256500Y229500D01*
Y230000D01*
G01X260500Y250500D02*
X300500D01*
X303000Y253000D01*
G01X312500D02*
X305500Y260000D01*
X279500D01*
X274500Y265000D01*
X14582Y249082D03*
X30500Y251500D03*
X45500Y278000D03*
X60500Y135500D03*
X55500Y227500D03*
X51870Y246500D03*
X55500Y245000D03*
X59000Y268500D03*
X66500Y236000D03*
Y227500D03*
Y247500D03*
Y242500D03*
Y251500D03*
X73000Y264000D03*
X85500Y129000D03*
X103000Y225000D03*
Y222500D03*
Y260500D03*
X105500Y222500D03*
Y225000D03*
X131500Y179500D03*
X135370Y210500D03*
X144000Y218000D03*
X141000D03*
X156000Y165500D03*
Y161250D03*
Y158750D03*
X149500Y171000D03*
X156000Y168000D03*
X149000Y218000D03*
X152000D03*
X172000Y191500D03*
Y195500D03*
X175000Y199500D03*
X172000D03*
Y207500D03*
Y205000D03*
Y224000D03*
X169000D03*
X179500Y143000D03*
X188350Y147348D03*
X179500Y157500D03*
X190000Y197000D03*
X181000Y224000D03*
X183500D03*
X205342Y151247D03*
X191342Y147348D03*
X199743Y162652D03*
X202543Y158752D03*
X191342D03*
X199743D03*
X199743Y185756D03*
X195344Y194794D03*
X196943Y185756D03*
X199244Y189655D03*
Y194793D03*
X192000Y195000D03*
X199244Y197593D03*
X208425Y10351D03*
Y13501D03*
Y19801D03*
Y16651D03*
Y26101D03*
Y22951D03*
Y29251D03*
Y32401D03*
Y35551D03*
Y48151D03*
Y38701D03*
Y41851D03*
Y51301D03*
X210943Y123606D03*
X217648Y135596D03*
X210943Y151247D03*
X208143D03*
X214560Y144552D03*
X218000Y224000D03*
X220000Y226000D03*
X230031Y138611D03*
X230000Y135596D03*
X232000Y230000D03*
X223500Y238000D03*
X221000D03*
X239264Y138582D03*
X242352Y138582D03*
X241000Y218000D03*
Y230000D03*
X257000Y8000D03*
X250500Y20000D03*
Y16000D03*
Y12000D03*
Y24000D03*
Y28000D03*
Y32000D03*
Y36000D03*
X257000Y48000D03*
X250500Y40000D03*
Y44000D03*
Y52000D03*
X263057Y158751D03*
X256500Y230000D03*
X260500Y250500D03*
X271456Y158752D03*
X269857Y196814D03*
X272046Y198698D03*
X278000Y226000D03*
Y230000D03*
X268500Y226000D03*
X274500Y265000D03*
X286000Y158500D03*
X283000Y170300D03*
X286000Y186250D03*
X291500Y230000D03*
X289000Y233500D03*
X284500Y282000D03*
X295925Y10351D03*
Y13501D03*
Y19801D03*
Y16651D03*
Y26101D03*
Y22951D03*
Y29251D03*
Y32401D03*
Y35551D03*
Y48151D03*
Y38701D03*
Y41851D03*
Y51301D03*
X301000Y152500D03*
X298000D03*
X305500Y160500D03*
X301000Y184500D03*
X302000Y207500D03*
X305500Y222000D03*
X302000D03*
Y211500D03*
X305500Y218000D03*
X302000D03*
X303000Y253000D03*
X312000Y222000D03*
X309000Y218000D03*
Y222000D03*
X312500Y253000D03*
X330000Y120500D03*
X335500Y207500D03*
X355500D03*
Y217500D03*
Y212500D03*
Y237500D03*
Y242500D03*
Y247500D03*
X372000Y120500D03*
Y116500D03*
Y110000D03*
Y112500D03*
G54D20*
G01X100825Y394483D02*
X101558Y394025D01*
X102383Y393750D01*
X103117D01*
X103850Y394025D01*
X104400Y394483D01*
X104675Y395125D01*
X104492Y395767D01*
X104033Y396317D01*
X103208Y396683D01*
X102108Y396867D01*
X101467Y397233D01*
X101192Y397875D01*
X101375Y398517D01*
X101833Y398975D01*
X102475Y399250D01*
X103117D01*
X103758Y399067D01*
X104308Y398608D01*
G01X107950Y399250D02*
X110150D01*
G01X109050D02*
Y393750D01*
G01X107950D02*
X110150D01*
G01X115900Y396500D02*
X117733D01*
Y394850D01*
X117183Y394300D01*
X116542Y393933D01*
X115625Y393750D01*
X114708Y393933D01*
X114067Y394300D01*
X113517Y394850D01*
X113150Y395492D01*
X112967Y396225D01*
Y396867D01*
X113150Y397417D01*
X113517Y398058D01*
X114067Y398608D01*
X114617Y398975D01*
X115350Y399250D01*
X115992D01*
X116725Y399067D01*
X117275Y398700D01*
G01X119542Y393750D02*
Y399250D01*
X123758Y393750D01*
Y399250D01*
G01X125658Y393750D02*
X127950Y399250D01*
X130242Y393750D01*
G01X129417Y395675D02*
X126483D01*
G01X132417Y399250D02*
Y393750D01*
X136083D01*
G01X100917Y409250D02*
Y403750D01*
X104583D01*
G01X106758D02*
X109050Y409250D01*
X111342Y403750D01*
G01X110517Y405675D02*
X107583D01*
G01X115350Y403750D02*
Y406225D01*
X113517Y409250D01*
G01X117183D02*
X115350Y406225D01*
G01X123483Y403750D02*
X119817D01*
Y409250D01*
X123483D01*
G01X122017Y406592D02*
X119817D01*
G01X126117Y403750D02*
Y409250D01*
X128408D01*
X129142Y408975D01*
X129600Y408608D01*
X129783Y407875D01*
X129600Y407142D01*
X129050Y406683D01*
X128408Y406408D01*
X126117D01*
G01X128408D02*
X129783Y403750D01*
G01X141650D02*
Y409250D01*
X138258Y405308D01*
X142842D01*
G54D11*
X27500Y150000D03*
Y195000D03*
G54D21*
G01X295925Y10351D02*
X290074Y4500D01*
X214276D01*
X208425Y10351D01*
G01X257000Y8000D02*
X254000D01*
X252000Y10000D01*
X215000D01*
X213069Y11931D01*
X209995D01*
X208425Y13501D01*
G01X250500Y20000D02*
X248500D01*
X246500Y22000D01*
X243500D01*
X241500Y20000D01*
X238000D01*
X236000Y22000D01*
X234000D01*
X232000Y20000D01*
X227000D01*
X225619Y21381D01*
X223000D01*
X221881Y22500D01*
X219619D01*
X218500Y21381D01*
X217119D01*
X216000Y22500D01*
X213619D01*
X212500Y21381D01*
X209995D01*
X208425Y22951D01*
G01X250500Y16000D02*
X249000D01*
X245500Y19500D01*
X244269D01*
X241769Y17000D01*
X240000D01*
X238769Y18231D01*
X223269D01*
X221500Y20000D01*
X220000D01*
X218231Y18231D01*
X217269D01*
X215500Y20000D01*
X214000D01*
X212231Y18231D01*
X209995D01*
X208425Y19801D01*
G01Y16651D02*
X210005Y15071D01*
X221429D01*
X224000Y12500D01*
X225500D01*
X227000Y14000D01*
X228500D01*
X230000Y12500D01*
X231500D01*
X233000Y14000D01*
X234500D01*
X236000Y12500D01*
X237500D01*
X239000Y14000D01*
X240500D01*
X242000Y12500D01*
X243500D01*
X245000Y14000D01*
X246500D01*
X248500Y12000D01*
X250500D01*
G01Y24000D02*
X248000D01*
X246500Y25500D01*
X244000D01*
X242500Y24000D01*
X237500D01*
X236000Y25500D01*
X234000D01*
X232500Y24000D01*
X226000D01*
X225469Y24531D01*
X223469D01*
X222000Y26000D01*
X219969D01*
X218500Y24531D01*
X217000D01*
X215531Y26000D01*
X213560D01*
X212091Y24531D01*
X209995D01*
X208425Y26101D01*
G01X250500Y28000D02*
X242500D01*
X240500Y26000D01*
X238500D01*
X237000Y27500D01*
X233000D01*
X231500Y26000D01*
X228000D01*
X226319Y27681D01*
X223319D01*
X222000Y29000D01*
X220000D01*
X218710Y27710D01*
X217290D01*
X216000Y29000D01*
X213962D01*
X212643Y27681D01*
X209995D01*
X208425Y29251D01*
G01X250500Y32000D02*
X246838D01*
X245675Y30837D01*
X243663D01*
X242500Y32000D01*
X240993D01*
X239824Y30831D01*
X236169D01*
X235000Y32000D01*
X233000D01*
X231831Y30831D01*
X227686D01*
X226517Y32000D01*
X223917D01*
X222748Y30831D01*
X220148D01*
X218979Y32000D01*
X217500D01*
X216331Y30831D01*
X209995D01*
X208425Y32401D01*
G01Y35551D02*
X209995Y33981D01*
X214981D01*
X216500Y35500D01*
X218000D01*
X219519Y33981D01*
X221429D01*
X222948Y35500D01*
X224500D01*
X226016Y33984D01*
X227984D01*
X229500Y35500D01*
X231500D01*
X233019Y33981D01*
X234981D01*
X236500Y35500D01*
X250000D01*
X250500Y36000D01*
G01X208425Y48151D02*
X210005Y46571D01*
X213429D01*
X214975Y45025D01*
X247525D01*
X248975Y46475D01*
X255475D01*
X257000Y48000D01*
G01X250500Y40000D02*
X247631Y37131D01*
X245384D01*
X244015Y38500D01*
X242715D01*
X241346Y37131D01*
X239684D01*
X238315Y38500D01*
X236515D01*
X235146Y37131D01*
X233984D01*
X232615Y38500D01*
X231315D01*
X229946Y37131D01*
X209995D01*
X208425Y38701D01*
G01Y41851D02*
X209346Y40930D01*
X209996Y40280D01*
X229780D01*
X231000Y41500D01*
X232756D01*
X233956Y40300D01*
X235300D01*
X236500Y41500D01*
X238376D01*
X239557Y40319D01*
X241319D01*
X242500Y41500D01*
X244000D01*
X245220Y40280D01*
X246780D01*
X250500Y44000D01*
G01X208425Y51301D02*
X210005Y49721D01*
X213779D01*
X217000Y46500D01*
X231055D01*
X232055Y47500D01*
X233655D01*
X234655Y46500D01*
X236255D01*
X237255Y47500D01*
X238855D01*
X239855Y46500D01*
X241455D01*
X242455Y47500D01*
X244055D01*
X245055Y46500D01*
X246500D01*
X247750Y47750D01*
Y49250D01*
X250500Y52000D01*
G01X257000Y8000D02*
X257025Y8025D01*
X259525D01*
X261500Y10000D01*
X263000D01*
X264975Y8025D01*
X266525D01*
X268500Y10000D01*
X270000D01*
X271975Y8025D01*
X273525D01*
X275500Y10000D01*
X277000D01*
X278975Y8025D01*
X280025D01*
X282000Y10000D01*
X283525D01*
X285500Y8025D01*
X287025D01*
X288000Y9000D01*
Y11000D01*
X288500Y11500D01*
X289500D01*
X290000Y11000D01*
Y10000D01*
X290500Y9500D01*
X291924D01*
X295925Y13501D01*
G01Y22951D02*
X288951D01*
X284000Y18000D01*
X255000D01*
X253000Y20000D01*
X250500D01*
G01X295925Y19801D02*
X288801D01*
X283000Y14000D01*
X255000D01*
X253000Y16000D01*
X250500D01*
G01Y12000D02*
X253000D01*
X254525Y10475D01*
X258475D01*
X260000Y12000D01*
X284500D01*
X289151Y16651D01*
X295925D01*
G01Y26101D02*
X286101D01*
X284522Y24522D01*
X265022D01*
X262500Y22000D01*
X255000D01*
X253000Y24000D01*
X250500D01*
G01X295925Y29251D02*
X286251D01*
X284671Y27671D01*
X282000D01*
X280804Y26475D01*
X254525D01*
X253000Y28000D01*
X250500D01*
G01Y32000D02*
X253000D01*
X255000Y30000D01*
X262500D01*
X264000Y31500D01*
X281500D01*
X282401Y32401D01*
X295925D01*
G01X250500Y36000D02*
X253000D01*
X255000Y34000D01*
X262500D01*
X264051Y35551D01*
X295925D01*
G01X257000Y48000D02*
X260000Y45000D01*
X261500D01*
X263025Y46525D01*
X263975D01*
X265500Y45000D01*
X266500D01*
X268025Y46525D01*
X268975D01*
X270500Y45000D01*
X271500D01*
X273025Y46525D01*
X273975D01*
X275475Y45025D01*
X276525D01*
X278025Y46525D01*
X278975D01*
X282000Y43500D01*
X284500D01*
X285790Y44790D01*
X286710D01*
X288000Y43500D01*
X289000D01*
X290500Y45000D01*
X291500D01*
X292500Y44000D01*
X293950D01*
X294450Y44500D01*
Y46676D01*
X295925Y48151D01*
G01X250500Y40000D02*
X253000D01*
X255000Y38000D01*
X264500D01*
X265450Y37050D01*
X294274D01*
X295925Y38701D01*
G01X250500Y44000D02*
X253000D01*
X255000Y42000D01*
X265000D01*
X266728Y40272D01*
X294346D01*
X295925Y41851D01*
G01Y51301D02*
X291124Y46500D01*
X282000D01*
X280000Y48500D01*
X261000D01*
X259000Y50500D01*
X252000D01*
X250500Y52000D01*
G54D12*
X62600Y262300D03*
G54D22*
G01X103833Y367000D02*
Y377000D01*
X107167D01*
X108500Y376500D01*
X109500Y375833D01*
X110333Y374833D01*
X111000Y373666D01*
X111167Y372000D01*
X111000Y370333D01*
X110333Y369167D01*
X109500Y368166D01*
X108500Y367500D01*
X107167Y367000D01*
X103833D01*
G01X114333D02*
X118500Y377000D01*
X122667Y367000D01*
G01X121167Y370500D02*
X115833D01*
G01X129500Y377000D02*
Y367000D01*
G01X125667Y377000D02*
X133333D01*
G01X143833Y367000D02*
X137167D01*
Y377000D01*
X143833D01*
G01X141167Y372167D02*
X137167D01*
G01X151500Y366667D02*
X151167Y366833D01*
Y367167D01*
X151500Y367333D01*
X151833Y367167D01*
Y366833D01*
X151500Y366667D01*
G01Y371166D02*
X151167Y371333D01*
Y371667D01*
X151500Y371833D01*
X151833Y371667D01*
Y371333D01*
X151500Y371166D01*
G01X108157Y431377D02*
X107157Y431877D01*
X105990Y432210D01*
X104657D01*
X103156Y431710D01*
X101990Y430877D01*
X101157Y429877D01*
X100490Y428210D01*
X100323Y426710D01*
X100657Y425210D01*
X101157Y424210D01*
X102157Y423210D01*
X103323Y422543D01*
X104490Y422210D01*
X105657D01*
X106823Y422543D01*
X107823Y423043D01*
X108657Y423710D01*
G01X115490Y428876D02*
Y422210D01*
G01Y431543D02*
X115157Y431710D01*
Y432043D01*
X115490Y432210D01*
X115823Y432043D01*
Y431710D01*
X115490Y431543D01*
G01X124157Y422210D02*
Y428876D01*
G01Y427543D02*
X124990Y428210D01*
X125823Y428710D01*
X126990Y428876D01*
X127823Y428710D01*
X128823Y428210D01*
G01X140157Y428043D02*
X138990Y428710D01*
X137990Y428876D01*
X136657Y428543D01*
X135657Y427877D01*
X134990Y426710D01*
X134823Y425543D01*
X134990Y424377D01*
X135657Y423376D01*
X136657Y422543D01*
X137990Y422210D01*
X139157Y422543D01*
X140157Y423210D01*
G01X145657Y428876D02*
Y424210D01*
X146323Y423043D01*
X147323Y422377D01*
X148490Y422210D01*
X149657Y422377D01*
X150657Y423043D01*
X151323Y424210D01*
G01Y422210D02*
Y428876D01*
G01X159490D02*
Y422210D01*
G01Y431543D02*
X159157Y431710D01*
Y432043D01*
X159490Y432210D01*
X159823Y432043D01*
Y431710D01*
X159490Y431543D01*
G01X170490Y432210D02*
Y422210D01*
G01X168157Y428876D02*
X172823D01*
G01X196157Y431377D02*
X195157Y431877D01*
X193990Y432210D01*
X192657D01*
X191156Y431710D01*
X189990Y430877D01*
X189157Y429877D01*
X188490Y428210D01*
X188323Y426710D01*
X188657Y425210D01*
X189157Y424210D01*
X190157Y423210D01*
X191323Y422543D01*
X192490Y422210D01*
X193657D01*
X194823Y422543D01*
X195823Y423043D01*
X196657Y423710D01*
G01X203490Y422210D02*
X202490Y422377D01*
X201490Y423043D01*
X200823Y424210D01*
X200490Y425543D01*
X200823Y426877D01*
X201490Y428043D01*
X202490Y428710D01*
X203490Y428876D01*
X204490Y428710D01*
X205490Y428043D01*
X206157Y426877D01*
X206323Y425543D01*
X206157Y424210D01*
X205490Y423043D01*
X204490Y422377D01*
X203490Y422210D01*
G01X214490Y421877D02*
X214157Y422043D01*
Y422377D01*
X214490Y422543D01*
X214823Y422377D01*
Y422043D01*
X214490Y421877D01*
G01X168750Y375000D02*
X167750Y374750D01*
X167000Y374125D01*
X166500Y373375D01*
X166125Y372375D01*
X166000Y371250D01*
X166125Y370125D01*
X166500Y369125D01*
X167000Y368375D01*
X167750Y367750D01*
X168750Y367500D01*
X169750Y367750D01*
X170500Y368375D01*
X171000Y369125D01*
X171375Y370125D01*
X171500Y371250D01*
X171375Y372375D01*
X171000Y373375D01*
X170500Y374125D01*
X169750Y374750D01*
X168750Y375000D01*
G01X174500Y368625D02*
X175250Y368000D01*
X176125Y367625D01*
X177250Y367500D01*
X178375Y367750D01*
X179250Y368250D01*
X179875Y369125D01*
X180000Y370125D01*
X179750Y371125D01*
X179125Y371750D01*
X178250Y372250D01*
X177375Y372375D01*
X176500Y372250D01*
X175375Y371750D01*
X175750Y375000D01*
X179125D01*
G01X183500Y367250D02*
X188000Y375000D01*
G01X194250D02*
X193250Y374750D01*
X192500Y374125D01*
X192000Y373375D01*
X191625Y372375D01*
X191500Y371250D01*
X191625Y370125D01*
X192000Y369125D01*
X192500Y368375D01*
X193250Y367750D01*
X194250Y367500D01*
X195250Y367750D01*
X196000Y368375D01*
X196500Y369125D01*
X196875Y370125D01*
X197000Y371250D01*
X196875Y372375D01*
X196500Y373375D01*
X196000Y374125D01*
X195250Y374750D01*
X194250Y375000D01*
G01X200375Y373750D02*
X201125Y374500D01*
X202000Y374875D01*
X203000Y375000D01*
X204250Y374750D01*
X205125Y374125D01*
X205375Y373375D01*
X205250Y372625D01*
X204750Y372000D01*
X202250Y370750D01*
X201125Y369875D01*
X200375Y368625D01*
X200125Y367500D01*
X205375D01*
G01X209000Y367250D02*
X213500Y375000D01*
G01X217375Y373750D02*
X218125Y374500D01*
X219000Y374875D01*
X220000Y375000D01*
X221250Y374750D01*
X222125Y374125D01*
X222375Y373375D01*
X222250Y372625D01*
X221750Y372000D01*
X219250Y370750D01*
X218125Y369875D01*
X217375Y368625D01*
X217125Y367500D01*
X222375D01*
G01X228250Y375000D02*
X227250Y374750D01*
X226500Y374125D01*
X226000Y373375D01*
X225625Y372375D01*
X225500Y371250D01*
X225625Y370125D01*
X226000Y369125D01*
X226500Y368375D01*
X227250Y367750D01*
X228250Y367500D01*
X229250Y367750D01*
X230000Y368375D01*
X230500Y369125D01*
X230875Y370125D01*
X231000Y371250D01*
X230875Y372375D01*
X230500Y373375D01*
X230000Y374125D01*
X229250Y374750D01*
X228250Y375000D01*
G01X236750Y367500D02*
Y375000D01*
X235250Y373500D01*
G01Y367500D02*
X238250D01*
G01X246750D02*
Y375000D01*
X242125Y369625D01*
X248375D01*
G01X175500Y397500D02*
Y405000D01*
X178750Y398750D01*
X182000Y405000D01*
Y397500D01*
G01X187250Y402500D02*
Y397500D01*
G01Y404500D02*
X187000Y404625D01*
Y404875D01*
X187250Y405000D01*
X187500Y404875D01*
Y404625D01*
X187250Y404500D01*
G01X193625Y397500D02*
Y402500D01*
G01Y401250D02*
X194125Y401875D01*
X194875Y402375D01*
X195875Y402500D01*
X196750Y402375D01*
X197500Y401875D01*
X197875Y401000D01*
Y397500D01*
G01X202125D02*
Y402500D01*
G01Y401250D02*
X202625Y401875D01*
X203375Y402375D01*
X204375Y402500D01*
X205250Y402375D01*
X206000Y401875D01*
X206375Y401000D01*
Y397500D01*
G01X212750D02*
X212000Y397625D01*
X211250Y398125D01*
X210750Y399000D01*
X210500Y400000D01*
X210750Y401000D01*
X211250Y401875D01*
X212000Y402375D01*
X212750Y402500D01*
X213500Y402375D01*
X214250Y401875D01*
X214750Y401000D01*
X214875Y400000D01*
X214750Y399000D01*
X214250Y398125D01*
X213500Y397625D01*
X212750Y397500D01*
G01X218125Y402500D02*
X219625Y397500D01*
X221250Y402500D01*
X222875Y397500D01*
X224375Y402500D01*
G01X226500Y397500D02*
Y405000D01*
X229750Y398750D01*
X233000Y405000D01*
Y397500D01*
G01X240500D02*
Y402500D01*
G01Y401625D02*
X240000Y402125D01*
X239250Y402375D01*
X238375Y402500D01*
X237500Y402250D01*
X236750Y401750D01*
X236250Y401000D01*
X236000Y400000D01*
X236250Y399000D01*
X236750Y398250D01*
X237500Y397750D01*
X238375Y397500D01*
X239250Y397625D01*
X240000Y398000D01*
X240500Y398500D01*
G01X244875Y402500D02*
X248625Y397500D01*
G01Y402500D02*
X244875Y397500D01*
G01X261250D02*
Y405000D01*
X264375D01*
X265375Y404625D01*
X266000Y404125D01*
X266250Y403125D01*
X266000Y402125D01*
X265250Y401500D01*
X264375Y401125D01*
X261250D01*
G01X264375D02*
X266250Y397500D01*
G01X270375Y400875D02*
X274375D01*
X274000Y401750D01*
X273375Y402250D01*
X272500Y402500D01*
X271625Y402375D01*
X270875Y402000D01*
X270375Y401125D01*
X270125Y400375D01*
Y399625D01*
X270375Y398875D01*
X271000Y398125D01*
X271750Y397625D01*
X272625Y397500D01*
X273500Y397750D01*
X274375Y398500D01*
G01X278500Y402500D02*
X280750Y397500D01*
X283000Y402500D01*
G01X286125Y397500D02*
X289250Y405000D01*
X292375Y397500D01*
G01X291250Y400125D02*
X287250D01*
G01X297750Y397500D02*
Y405000D01*
X296250Y403500D01*
G01Y397500D02*
X299250D01*
G54D13*
X147850Y72850D03*
X312150Y237150D03*
G54D23*
G01X34370Y393130D02*
X27500Y400000D01*
G01X17500D02*
X42500Y375000D01*
X67500Y400000D01*
G01X17500D02*
X67500D01*
G01X42500Y425000D02*
X17500Y400000D01*
G01X27500D02*
X36450Y408950D01*
G01X34680Y383580D02*
G03X34990Y382820I1087J0D01*
G01X34700Y394380D02*
Y383580D01*
G01Y383750D02*
Y394380D01*
G01X35000Y382830D02*
X37450Y380350D01*
G01X37440Y380340D02*
G03X39050Y379680I1610J1634D01*
G01Y379700D02*
X46250D01*
G01D02*
X39000D01*
G01X46250Y382830D02*
X39370D01*
X37820Y384380D01*
Y396580D01*
X36870D01*
X34700Y394380D01*
G01X42500Y382830D02*
Y405630D01*
G01Y375000D02*
Y379700D01*
G01X34700Y394380D02*
X36870Y396580D01*
X37820D01*
Y384380D01*
X39370Y382830D01*
X46250D01*
G01X50000Y400000D02*
X42500Y392500D01*
G01D02*
X35000Y400000D01*
G01X42500Y385000D02*
X37820Y389700D01*
G01X42500Y385000D02*
X57500Y400000D01*
G01X35000D02*
X42500Y407500D01*
G01D02*
X50000Y400000D01*
G01X34680Y411080D02*
G03X34990Y410320I1087J0D01*
G01X34680Y411080D02*
G03X34990Y410320I1087J0D01*
G01X38710Y406590D02*
G03X40320Y405930I1610J1634D01*
G01X38710Y406590D02*
G03X40320Y405930I1610J1634D01*
G01X35000Y410330D02*
X38720Y406600D01*
G01X40320Y405950D02*
X45300D01*
G01X40320D02*
X45300D01*
G01D02*
X43750D01*
G01X45300Y409080D02*
X40620D01*
G01X45300D02*
X40620D01*
G01X43450D02*
X45300D01*
G01X35000Y410330D02*
X38720Y406600D01*
G01X40620Y409080D02*
X37820Y411880D01*
Y415630D01*
X40620Y418450D01*
X45300D01*
G01X34700Y415950D02*
Y411080D01*
G01X40620Y409080D02*
X37820Y411880D01*
Y415630D01*
X40620Y418450D01*
X45300D01*
G01X34700Y415950D02*
Y411080D01*
G01X38650Y411150D02*
X42500Y415000D01*
G01Y409080D02*
Y418450D01*
G01X57500Y400000D02*
X42500Y415000D01*
G01X45300Y421580D02*
X40250D01*
G01Y421550D02*
G03X38760Y420940I0J-2125D01*
G01X45300Y421580D02*
X40250D01*
G01Y421550D02*
G03X38760Y420940I0J-2125D01*
G01X42500Y421580D02*
Y425000D01*
G01X38750Y420950D02*
X35350Y417550D01*
G01X35340Y417560D02*
G03X34680Y415950I1634J-1610D01*
G01X38750Y420950D02*
X35350Y417550D01*
G01X35340Y417560D02*
G03X34680Y415950I1634J-1610D01*
G01X67500Y400000D02*
X42500Y425000D01*
G01X46250Y379680D02*
G03X47820Y381250I0J1570D01*
G01D02*
G03X46250Y382820I-1570J0D01*
G01X45300Y405930D02*
G03X46870Y407500I0J1570D01*
G01X45300Y405930D02*
G03X46870Y407500I0J1570D01*
G01D02*
G03X45300Y409070I-1570J0D01*
G01X46870Y407500D02*
G03X45300Y409070I-1570J0D01*
G01X46870Y420000D02*
G03X45300Y421570I-1570J0D01*
G01Y418430D02*
G03X46870Y420000I0J1570D01*
G54D14*
X214488Y267500D03*
G54D15*
X317500Y200000D03*
G54D16*
X325512Y267500D03*
G54D17*
G01X-510Y442210D02*
Y359710D01*
X306990D01*
Y442210D01*
X-510D01*
G01X89490D02*
Y359710D01*
G01Y387210D02*
X306990D01*
G01X89490Y414710D02*
X306990D01*
G01X166990D02*
Y387210D01*
G54D18*
G01X22500Y402500D02*
Y397500D01*
G01D02*
X26250Y393750D01*
X31250D01*
G01X27500D02*
X36250D01*
G01X31250Y406250D02*
X26250D01*
G01D02*
X22500Y402500D01*
G01X36250Y397500D02*
X48750D01*
G01X36250Y400000D02*
X42500Y406250D01*
G01X36250Y393750D02*
Y400000D01*
G01X42500Y406250D02*
X48750Y400000D01*
G01D02*
Y393750D01*
G01D02*
X56250D01*
G01X53750Y406250D02*
Y393750D01*
G01X58750D02*
X62500Y397500D01*
G01X53750Y393750D02*
X58750D01*
G01X55000Y406250D02*
X51250D01*
G01X58750D02*
X53750D01*
G01X62500Y402500D02*
X58750Y406250D01*
G01X62500Y397500D02*
Y402500D01*
G54D19*
G01X14582Y249082D02*
X25582D01*
X31000Y254500D01*
X39000D01*
X47000Y246500D01*
X51870D01*
G01X30500Y251500D02*
X32000Y253000D01*
X38500D01*
X46500Y245000D01*
X55500D01*
G01X289000Y233500D02*
X221000D01*
X220000Y234500D01*
X147864D01*
X146364Y233000D01*
X98000D01*
X95500Y230500D01*
X78500D01*
X77000Y232000D01*
X60000D01*
X55500Y227500D01*
G01X60500Y135500D02*
X79500D01*
X85100Y141100D01*
Y157600D01*
X87000Y159500D01*
Y167688D01*
X89500Y170188D01*
Y180500D01*
X100000Y191000D01*
Y204500D01*
X108500Y213000D01*
X127500D01*
X143000Y197500D01*
X147980D01*
X165480Y180000D01*
X202000D01*
X205500Y183500D01*
X212500D01*
X216844Y187844D01*
X238211D01*
X284406Y187844D01*
X286000Y186250D01*
G01X312000Y222000D02*
Y222500D01*
X304500Y230000D01*
X298000D01*
X292500Y235500D01*
X279500D01*
X277500Y237500D01*
X230500D01*
X229350Y236350D01*
X147593D01*
X145743Y234500D01*
X96500D01*
X94000Y232000D01*
X79500D01*
X75500Y236000D01*
X66500D01*
G01X291500Y230000D02*
X289500Y232000D01*
X220000D01*
X219500Y231500D01*
X99000D01*
X96500Y229000D01*
X77000D01*
X75500Y230500D01*
X69500D01*
X66500Y227500D01*
G01Y247500D02*
X68000Y246000D01*
X74000D01*
X82500Y237500D01*
X144500D01*
X148000Y241000D01*
X198000D01*
X200000Y243000D01*
X212500D01*
X214500Y241000D01*
X220500D01*
X223500Y238000D01*
G01X66500Y242500D02*
X68000Y244000D01*
X73500D01*
X81500Y236000D01*
X145121D01*
X148621Y239500D01*
X199000D01*
X201000Y241500D01*
X211500D01*
X213500Y239500D01*
X219500D01*
X221000Y238000D01*
G01X73000Y264000D02*
X79000Y270000D01*
X84000D01*
X88500Y274500D01*
X277000D01*
X284500Y282000D01*
G01X62600Y262300D02*
X71300D01*
X73000Y264000D01*
G01X85500Y129000D02*
X87000Y130500D01*
Y149000D01*
X89000Y151000D01*
Y167000D01*
X91500Y169500D01*
Y179813D01*
X103000Y191313D01*
Y204000D01*
X108000Y209000D01*
X127500D01*
X142500Y194000D01*
X144000D01*
X161500Y176500D01*
X212000D01*
X217644Y182144D01*
X259644D01*
X261000Y183500D01*
X282500D01*
X283500Y184500D01*
X287000D01*
X288500Y186000D01*
X299500D01*
X301000Y184500D01*
G01X131500Y179500D02*
X133500Y177500D01*
X153500D01*
X174250Y156750D01*
X176750D01*
X178000Y155500D01*
Y154441D01*
X178791Y153650D01*
X197350D01*
X198393Y152607D01*
Y150107D01*
X199500Y149000D01*
X211000D01*
X214000Y152000D01*
X227500D01*
X228500Y153000D01*
Y154000D01*
X229500Y155000D01*
X260500D01*
X262000Y156500D01*
X269000D01*
X271252Y158752D01*
X271456D01*
G01X135370Y210500D02*
X145870Y200000D01*
X148187D01*
X164187Y184000D01*
X181000D01*
X181794Y183206D01*
X197206D01*
X199743Y185743D01*
Y185756D01*
G01X144000Y218000D02*
X146000Y220000D01*
X153000D01*
X154000Y219000D01*
X234000D01*
X238000Y215000D01*
X302500D01*
X305500Y218000D01*
G01X141000D02*
X144500Y221500D01*
X154500D01*
X155500Y220500D01*
X234500D01*
X238500Y216500D01*
X300500D01*
X302000Y218000D01*
G01X149500Y171000D02*
X152000Y168500D01*
Y165500D01*
X153500Y164000D01*
Y155000D01*
X168100Y140400D01*
X176100D01*
X178150Y138350D01*
X225850D01*
X229000Y141500D01*
X294000D01*
X299500Y147000D01*
Y151000D01*
X301000Y152500D01*
G01X286000Y158500D02*
X284500Y157000D01*
X279000D01*
X275000Y153000D01*
X264500D01*
X260650Y149150D01*
X213150D01*
X209998Y145998D01*
X196384D01*
X195493Y146889D01*
Y151807D01*
X194702Y152598D01*
X178132D01*
X175580Y155150D01*
X172350D01*
X162500Y165000D01*
X159000D01*
X156000Y168000D01*
G01Y165500D02*
X158500Y163000D01*
X160500D01*
X162000Y161500D01*
Y159000D01*
X171500Y149500D01*
X176591D01*
X179091Y147000D01*
X182500D01*
X185000Y149500D01*
X192000D01*
X192793Y148707D01*
Y146707D01*
X194500Y145000D01*
X211000D01*
X211998Y145998D01*
X260816D01*
X260817Y145998D01*
X263616D01*
X263617Y146000D01*
X264000D01*
X267000Y149000D01*
X276000D01*
X279500Y152500D01*
X298000D01*
G01X156000Y161250D02*
X157500Y159750D01*
Y159000D01*
X159100Y157400D01*
X161100D01*
X170600Y147900D01*
X175928D01*
X177828Y146000D01*
X187002D01*
X188350Y147348D01*
G01X156000Y158750D02*
X159250Y155500D01*
X160500D01*
X162500Y153500D01*
Y152500D01*
X173000Y142000D01*
X175500D01*
X178500Y145000D01*
X188995D01*
X191342Y147348D01*
G01X149000Y218000D02*
X151000Y216000D01*
X233000D01*
X237000Y212000D01*
X273000D01*
X275500Y209500D01*
X300000D01*
X302000Y211500D01*
G01X152000Y218000D02*
X152500Y217500D01*
X233500D01*
X237500Y213500D01*
X303000D01*
X304000Y212500D01*
Y209500D01*
X302000Y207500D01*
G01X172000Y191500D02*
X171283Y192217D01*
Y192783D01*
X171967Y193467D01*
X172533D01*
X177000Y189000D01*
X181500D01*
X186094Y184406D01*
X195593D01*
X196943Y185756D01*
G01X172000Y195500D02*
X177500Y190000D01*
X182000D01*
X184844Y187156D01*
X196745D01*
X199244Y189655D01*
G01Y194793D02*
X199207D01*
X197000Y192586D01*
Y190555D01*
X194750Y188305D01*
X186695D01*
X180950Y194050D01*
X175950D01*
X174500Y195500D01*
Y197000D01*
X172000Y199500D01*
G01X175000D02*
X177550Y196950D01*
X182050D01*
X187578Y191422D01*
X191422D01*
X193694Y193694D01*
Y195694D01*
X195593Y197593D01*
X199244D01*
G01X192000Y195000D02*
X189500D01*
X183000Y201500D01*
X172500D01*
X170000Y204000D01*
Y205500D01*
X172000Y207500D01*
G01X190000Y197000D02*
Y199500D01*
X186000Y203500D01*
X173500D01*
X172000Y205000D01*
G01Y224000D02*
X176000Y228000D01*
X215500D01*
X217500Y226000D01*
X220000D01*
G01X169000Y224000D02*
X170500Y222500D01*
X194500D01*
X195500Y223500D01*
X199500D01*
X200500Y222500D01*
X236500D01*
X241000Y218000D01*
G01X179500Y157500D02*
X187000D01*
X189000Y155500D01*
X204500D01*
X207000Y158000D01*
Y161000D01*
X210000Y164000D01*
X213000D01*
X214500Y165500D01*
X237408D01*
X238991Y167083D01*
X246583D01*
X251150Y171650D01*
X281650D01*
X283000Y170300D01*
G01X199743Y162652D02*
X201590Y164500D01*
X203500D01*
X212000Y173000D01*
X219000D01*
X222037Y176037D01*
X241537D01*
X242000Y176500D01*
X287000D01*
X288350Y177850D01*
X301350D01*
X302500Y179000D01*
Y182500D01*
X310000Y190000D01*
X317000D01*
X334500Y207500D01*
X335500D01*
G01X355500Y237500D02*
X353400D01*
X353000Y237100D01*
Y235934D01*
X353400Y235534D01*
X355600D01*
X356000Y235134D01*
Y234534D01*
X355600Y234134D01*
X353400D01*
X353000Y233734D01*
Y233134D01*
X353400Y232734D01*
X355600D01*
X356000Y232334D01*
Y231734D01*
X355600Y231334D01*
X347629D01*
X340000Y223706D01*
Y209000D01*
X335500Y204500D01*
X333000D01*
X317500Y189000D01*
X311000D01*
X303500Y181500D01*
Y177000D01*
X301500Y175000D01*
X296000D01*
X293650Y172650D01*
X284850D01*
X282094Y175406D01*
X248906D01*
X246500Y173000D01*
X221500D01*
X218500Y170000D01*
X211000D01*
X204000Y163000D01*
Y160209D01*
X202543Y158752D01*
G01X355500Y247500D02*
X338500Y230500D01*
Y213000D01*
X321000Y195500D01*
X309000D01*
X302500Y189000D01*
Y183949D01*
X301051Y182500D01*
X295500D01*
X292150Y179150D01*
X281850D01*
X281556Y179444D01*
X216944D01*
X212906Y175406D01*
X204783D01*
X203992Y174615D01*
Y172992D01*
X198293Y167293D01*
Y165702D01*
X191342Y158752D01*
G01X199743D02*
X201495Y157000D01*
X203500D01*
X205500Y159000D01*
Y162500D01*
X210000Y167000D01*
X236500D01*
X236582Y167082D01*
X236735D01*
X237526Y167873D01*
Y168026D01*
X239568Y170068D01*
X246568D01*
X249206Y172706D01*
X283294D01*
X284350Y171650D01*
X294150D01*
X296650Y174150D01*
X301852D01*
X304350Y176648D01*
Y180350D01*
X312150Y188150D01*
X318150D01*
X333000Y203000D01*
X336500D01*
X341500Y208000D01*
Y221000D01*
X342000Y221500D01*
X343097D01*
X343497Y221100D01*
Y216117D01*
X343897Y215717D01*
X344997D01*
X345397Y216117D01*
Y221100D01*
X345797Y221500D01*
X346897D01*
X347297Y221100D01*
Y212900D01*
X347697Y212500D01*
X355500D01*
G01X317500Y200000D02*
X306000D01*
X297422Y191422D01*
X264078D01*
X259307Y196193D01*
X196743D01*
X195344Y194794D01*
G01X355500Y217500D02*
X352900D01*
X352500Y217900D01*
Y226000D01*
X352967Y226467D01*
X357100D01*
X357500Y226067D01*
Y211500D01*
X356000Y210000D01*
X345500D01*
X337000Y201500D01*
X333000D01*
X318800Y187300D01*
X313300D01*
X305200Y179200D01*
Y174200D01*
X301000Y170000D01*
X288000D01*
X286000Y168000D01*
X251000D01*
X250407Y167407D01*
Y165992D01*
X245414Y161000D01*
X210500D01*
X208500Y159000D01*
Y156000D01*
X205342Y152842D01*
Y151247D01*
G01X210943D02*
Y153443D01*
X212357Y154858D01*
X224857D01*
X226500Y156500D01*
X255000D01*
X256007Y157507D01*
Y159507D01*
X257750Y161250D01*
X283250D01*
X285000Y163000D01*
X298000D01*
X307000Y172000D01*
Y177000D01*
X312500Y182500D01*
X319980D01*
X321400Y183920D01*
Y186900D01*
X333000Y198500D01*
X353000D01*
X360500Y206000D01*
Y237500D01*
X355500Y242500D01*
G01Y207500D02*
X357100D01*
X357500Y207100D01*
Y205000D01*
X352500Y200000D01*
X351719D01*
X351319Y200400D01*
Y206100D01*
X350919Y206500D01*
X350319D01*
X349919Y206100D01*
Y200400D01*
X349519Y200000D01*
X348619D01*
X348219Y200400D01*
Y206100D01*
X347819Y206500D01*
X347219D01*
X346819Y206100D01*
Y200400D01*
X346419Y200000D01*
X345819D01*
X345419Y200400D01*
Y206100D01*
X345019Y206500D01*
X344419D01*
X344019Y206100D01*
Y200400D01*
X343619Y200000D01*
X333000D01*
X319450Y186450D01*
X314450D01*
X306050Y178050D01*
Y173050D01*
X299500Y166500D01*
X281500D01*
X280000Y165000D01*
X255000D01*
X250102Y160102D01*
X248102D01*
X246000Y158000D01*
X211070D01*
X210000Y156930D01*
Y155000D01*
X208143Y153143D01*
Y151247D01*
G01X232000Y230000D02*
X238000Y224000D01*
X243000D01*
X247000Y220000D01*
X303500D01*
X305500Y222000D01*
G01X302000D02*
X299000D01*
X298500Y221500D01*
X276000D01*
X273500Y224000D01*
X247000D01*
X241000Y230000D01*
G01X305500Y160500D02*
X303500Y158500D01*
X292000D01*
X290348Y160152D01*
X264457D01*
X263057Y158751D01*
G01X309000Y218000D02*
X307000Y220000D01*
Y222551D01*
X306051Y223500D01*
X297500D01*
X296650Y222650D01*
X281350D01*
X278000Y226000D01*
G01X309000Y222000D02*
Y224000D01*
X304500Y228500D01*
X279500D01*
X278000Y230000D01*
M02*
