G04 ================== begin FILE IDENTIFICATION RECORD ==================*
G04 Layout Name:  C:/Users/labadmin/Downloads/ww10-exchange/G4.2/arena_12-12_v2.2.brd*
G04 Film Name:    LAYER_1*
G04 File Format:  Gerber RS274X*
G04 File Origin:  Cadence Allegro 17.4-S007*
G04 Origin Date:  Tue Nov 10 23:59:30 2020*
G04 *
G04 Layer:  VIA KEEPOUT/ALL*
G04 Layer:  VIA KEEPOUT/BOTTOM*
G04 Layer:  VIA KEEPOUT/LAYER 2*
G04 Layer:  VIA KEEPOUT/GND2*
G04 Layer:  VIA KEEPOUT/LAYER 1*
G04 Layer:  VIA KEEPOUT/PWR*
G04 Layer:  VIA KEEPOUT/TOP*
G04 Layer:  VIA CLASS/FILMMASKBOTTOM*
G04 Layer:  VIA CLASS/LAYER 1*
G04 Layer:  ROUTE KEEPOUT/ALL*
G04 Layer:  ROUTE KEEPOUT/BOTTOM*
G04 Layer:  ROUTE KEEPOUT/LAYER 2*
G04 Layer:  ROUTE KEEPOUT/GND2*
G04 Layer:  ROUTE KEEPOUT/LAYER 1*
G04 Layer:  ROUTE KEEPOUT/PWR*
G04 Layer:  ROUTE KEEPOUT/TOP*
G04 Layer:  ROUTE KEEPIN/ALL*
G04 Layer:  PIN/FILMMASKBOTTOM*
G04 Layer:  PIN/LAYER 1*
G04 Layer:  PACKAGE KEEPOUT/ALL*
G04 Layer:  PACKAGE KEEPOUT/TOP*
G04 Layer:  PACKAGE KEEPOUT/BOTTOM*
G04 Layer:  PACKAGE KEEPIN/ALL*
G04 Layer:  ETCH/LAYER 1*
G04 Layer:  BOARD GEOMETRY/OUTLINE*
G04 *
G04 Offset:    (0.0 0.0)*
G04 Mirror:    No*
G04 Mode:      Positive*
G04 Rotation:  0*
G04 FullContactRelief:  No*
G04 UndefLineWidth:     0.1*
G04 ================== end FILE IDENTIFICATION RECORD ====================*
%FSLAX25Y25*MOIN*%
%IR0*IPPOS*OFA0.00000B0.00000*MIA0B0*SFA1.00000B1.00000*%
%ADD10C,.2*%
%ADD16R,.1969X.0787*%
%ADD15R,.0787X.1969*%
%ADD12C,.06*%
%ADD11C,.024*%
%ADD13C,5.7*%
%ADD14C,.0787*%
%ADD17C,.005*%
%ADD18C,.008*%
%ADD19C,.0001*%
%ADD20C,.2104*%
%ADD22C,.0344*%
%ADD21C,.0704*%
%ADD23C,.089*%
G75*
%LPD*%
G75*
G36*
G01X325500Y449550D02*
X446300D01*
Y-445500D01*
X439150D01*
G02X439000Y-444730I0J400D01*
G03X445520Y-435000I-4000J9730D01*
G03X424480I-10520J0D01*
G03X431000Y-444730I10520J0D01*
G02X430850Y-445500I-150J-370D01*
G01X179800D01*
G02X179520Y-444820I4J399D01*
G01X182890Y-441440D01*
G03X183160Y-440800I-638J646D01*
G01Y-415150D01*
G03X182890Y-414510I-908J-6D01*
G01X179450Y-411070D01*
G03X178810Y-410800I-646J-638D01*
G01X177500D01*
G03X176040Y-409990I-1460J-911D01*
G03X175820Y-410000I-32J-1721D01*
G02X175380Y-409520I-51J395D01*
G03X175420Y-409150I-1691J370D01*
G03X171980I-1720J0D01*
G03X172000Y-409440I1722J-27D01*
G01X172020Y-409540D01*
X170160Y-411410D01*
G03X169890Y-412050I638J-646D01*
G01Y-436510D01*
X169160Y-437240D01*
X103080D01*
X94540Y-428710D01*
G03X93900Y-428440I-646J-638D01*
G01X75600D01*
G03X74960Y-428710I6J-908D01*
G01X66420Y-437240D01*
X20030D01*
X15530Y-432740D01*
X15550Y-432640D01*
G03X15570Y-432350I-1702J263D01*
G03X13850Y-434070I-1720J0D01*
G03X14140Y-434050I27J1722D01*
G01X14240Y-434030D01*
X19010Y-438790D01*
G03X19650Y-439060I646J638D01*
G01X66800D01*
G03X67440Y-438790I-6J908D01*
G01X75980Y-430260D01*
X93520D01*
X102060Y-438790D01*
G03X102700Y-439060I646J638D01*
G01X169540D01*
G03X170180Y-438790I-6J908D01*
G01X171440Y-437530D01*
G03X171710Y-436890I-638J646D01*
G01Y-415670D01*
G02X172410Y-415410I399J-3D01*
G03X173700Y-415990I1290J1145D01*
G03X173920Y-415980I32J1721D01*
G02X174360Y-416460I51J-395D01*
G03X174320Y-416830I1691J-370D01*
G03X175130Y-418290I1721J0D01*
G01Y-436220D01*
X171810Y-439540D01*
X-17820D01*
X-24820Y-432540D01*
X-24800Y-432440D01*
G03X-24780Y-432150I-1702J263D01*
G03X-26500Y-433870I-1720J0D01*
G03X-26210Y-433850I27J1722D01*
G01X-26110Y-433830D01*
X-18840Y-441090D01*
G03X-18200Y-441360I646J638D01*
G01X172190D01*
G03X172830Y-441090I-6J908D01*
G01X176680Y-437240D01*
G03X176950Y-436600I-638J646D01*
G01Y-418290D01*
G03X177670Y-417380I-910J1460D01*
G02X178330Y-417220I379J-124D01*
G01X179040Y-417930D01*
Y-438070D01*
X175270Y-441840D01*
X-23670D01*
X-32970Y-432540D01*
X-32950Y-432440D01*
G03X-32930Y-432150I-1702J263D01*
G03X-34650Y-433870I-1720J0D01*
G03X-34360Y-433850I27J1722D01*
G01X-34260Y-433830D01*
X-24690Y-443390D01*
G03X-24050Y-443660I646J638D01*
G01X175650D01*
G03X176290Y-443390I-6J908D01*
G01X180590Y-439090D01*
G03X180860Y-438450I-638J646D01*
G01Y-417550D01*
G03X180590Y-416910I-908J-6D01*
G01X177310Y-413630D01*
G03X177240Y-413560I-677J-607D01*
G02X177220Y-412960I254J309D01*
G03X177500Y-412620I-1177J1254D01*
G01X178430D01*
X181340Y-415530D01*
Y-440420D01*
X177170Y-444590D01*
X-29020D01*
X-41070Y-432540D01*
X-41050Y-432440D01*
G03X-41030Y-432150I-1702J263D01*
G03X-42750Y-433870I-1720J0D01*
G03X-42460Y-433850I27J1722D01*
G01X-42360Y-433830D01*
X-31370Y-444820D01*
G02X-31650Y-445500I-284J-281D01*
G01X-430850D01*
G02X-431000Y-444730I0J400D01*
G03X-424480Y-435000I-4000J9730D01*
G03X-445520I-10520J0D01*
G03X-439000Y-444730I10520J0D01*
G02X-439150Y-445500I-150J-370D01*
G01X-449650D01*
Y449550D01*
X-325500D01*
X-320500Y444550D01*
Y369500D01*
X320500D01*
Y444550D01*
X325500Y449550D01*
G37*
%LPC*%
G75*
G36*
G01X241740Y-420080D02*
Y-412200D01*
G02X242260Y-411690I515J-5D01*
G01X261940D01*
G02X262460Y-412200I5J-515D01*
G01Y-420080D01*
G02X261940Y-420590I-515J5D01*
G01X242260D01*
G02X241740Y-420080I-5J515D01*
G37*
G36*
G01Y-443700D02*
Y-435820D01*
G02X242260Y-435310I515J-5D01*
G01X261940D01*
G02X262460Y-435820I5J-515D01*
G01Y-443700D01*
G02X261940Y-444210I-515J5D01*
G01X242260D01*
G02X241740Y-443700I-5J515D01*
G37*
G36*
G01X229150Y-437800D02*
Y-418100D01*
G02X229660Y-417590I515J-5D01*
G01X237540D01*
G02X238050Y-418100I-5J-515D01*
G01Y-437800D01*
G02X237540Y-438310I-515J5D01*
G01X229660D01*
G02X229150Y-437800I5J515D01*
G37*
G36*
G01X-92890Y-427460D02*
X-89990Y-424560D01*
G02X-89350Y-424290I646J-638D01*
G01X-17350D01*
G02X-16710Y-424560I-6J-908D01*
G01X-10740Y-430520D01*
X-10640Y-430500D01*
G02X-10350Y-430480I263J-1702D01*
G02X-12070Y-432200I0J-1720D01*
G02X-12050Y-431910I1722J27D01*
G01X-12030Y-431810D01*
X-17730Y-426110D01*
X-88970D01*
X-91340Y-428480D01*
Y-437850D01*
G02X-91610Y-438490I-908J6D01*
G01X-93960Y-440840D01*
G02X-94600Y-441110I-646J638D01*
G01X-110550D01*
G02X-111190Y-440840I6J908D01*
G01X-115530Y-436510D01*
X-197850D01*
G02X-198490Y-436240I6J908D01*
G01X-202140Y-432590D01*
G02X-202410Y-431950I638J646D01*
G01Y-429930D01*
X-204550Y-427790D01*
X-206660D01*
G02X-208120Y-428600I-1460J911D01*
G02Y-425160I0J1720D01*
G02X-206660Y-425970I0J-1721D01*
G01X-204170D01*
G02X-203530Y-426240I-6J-908D01*
G01X-200860Y-428910D01*
G02X-200590Y-429550I-638J-646D01*
G01Y-431570D01*
X-197470Y-434690D01*
X-115150D01*
G02X-114510Y-434960I-6J-908D01*
G01X-110170Y-439290D01*
X-108220D01*
G03X-107860Y-438720I-3J400D01*
G02X-108020Y-438000I1559J724D01*
G02X-104580I1720J0D01*
G02X-104740Y-438720I-1719J4D01*
G03X-104380Y-439290I363J-170D01*
G01X-94980D01*
X-93160Y-437470D01*
Y-428100D01*
G02X-92890Y-427460I908J-6D01*
G37*
G36*
G01X-212290Y-435270D02*
Y-425780D01*
G02X-213100Y-424320I911J1460D01*
G02X-209660I1720J0D01*
G02X-210470Y-425780I-1721J0D01*
G01Y-434890D01*
X-207420Y-437940D01*
X-117000D01*
G02X-116360Y-438210I-6J-908D01*
G01X-112870Y-441690D01*
X-69180D01*
X-66460Y-438970D01*
Y-431040D01*
G02X-66190Y-430400I908J-6D01*
G01X-63600Y-427810D01*
G02X-62960Y-427540I646J-638D01*
G01X-22150D01*
G02X-21510Y-427810I-6J-908D01*
G01X-18790Y-430520D01*
X-18690Y-430500D01*
G02X-18400Y-430480I263J-1702D01*
G02X-20120Y-432200I0J-1720D01*
G02X-20100Y-431910I1722J27D01*
G01X-20080Y-431810D01*
X-22530Y-429360D01*
X-62580D01*
X-64640Y-431420D01*
Y-439350D01*
G02X-64910Y-439990I-908J6D01*
G01X-68160Y-443240D01*
G02X-68800Y-443510I-646J638D01*
G01X-113250D01*
G02X-113890Y-443240I6J908D01*
G01X-117380Y-439760D01*
X-207800D01*
G02X-208440Y-439490I6J908D01*
G01X-212020Y-435910D01*
G02X-212290Y-435270I638J646D01*
G37*
G36*
G01X267270Y-409490D02*
G03X267530I130J147D01*
G02X268650Y-409080I1115J-1312D01*
G02X269770Y-409490I5J-1722D01*
G03X270030I130J147D01*
G02X271150Y-409080I1115J-1312D01*
G02X272870Y-410800I0J-1720D01*
G02X272460Y-411920I-1722J-5D01*
G03Y-412180I147J-130D01*
G02X272870Y-413300I-1312J-1115D01*
G02X272460Y-414420I-1722J-5D01*
G03Y-414680I147J-130D01*
G02X272870Y-415800I-1312J-1115D01*
G02X272460Y-416920I-1722J-5D01*
G03Y-417180I147J-130D01*
G02X272870Y-418300I-1312J-1115D01*
G02X272460Y-419420I-1722J-5D01*
G03Y-419680I147J-130D01*
G02X272870Y-420800I-1312J-1115D01*
G02X272460Y-421920I-1722J-5D01*
G03Y-422180I147J-130D01*
G02X272870Y-423300I-1312J-1115D01*
G02X271150Y-425020I-1720J0D01*
G02X270030Y-424610I-5J1722D01*
G03X269770I-130J-147D01*
G02X268650Y-425020I-1115J1312D01*
G02X267530Y-424610I-5J1722D01*
G03X267270I-130J-147D01*
G02X266150Y-425020I-1115J1312D01*
G02X264430Y-423300I0J1720D01*
G02X264840Y-422180I1722J5D01*
G03Y-421920I-147J130D01*
G02X264430Y-420800I1312J1115D01*
G02X264840Y-419680I1722J5D01*
G03Y-419420I-147J130D01*
G02X264430Y-418300I1312J1115D01*
G02X264840Y-417180I1722J5D01*
G03Y-416920I-147J130D01*
G02X264430Y-415800I1312J1115D01*
G02X264840Y-414680I1722J5D01*
G03Y-414420I-147J130D01*
G02X264430Y-413300I1312J1115D01*
G02X264840Y-412180I1722J5D01*
G03Y-411920I-147J130D01*
G02X264430Y-410800I1312J1115D01*
G02X266150Y-409080I1720J0D01*
G02X267270Y-409490I5J-1722D01*
G37*
G36*
G01X-232230Y-405260D02*
G03Y-405000I-151J130D01*
G02X-232670Y-403850I1283J1150D01*
G02X-229230I1720J0D01*
G02X-229670Y-405000I-1723J0D01*
G03Y-405260I151J-130D01*
G02X-229230Y-406410I-1283J-1150D01*
G02X-232670I-1720J0D01*
G02X-232230Y-405260I1723J0D01*
G37*
G36*
G01X-144480Y-402660D02*
G03Y-402400I-151J130D01*
G02X-144920Y-401250I1283J1150D01*
G02X-141480I1720J0D01*
G02X-141920Y-402400I-1723J0D01*
G03Y-402660I151J-130D01*
G02X-141480Y-403810I-1283J-1150D01*
G02X-144920I-1720J0D01*
G02X-144480Y-402660I1723J0D01*
G37*
G36*
G01X100900Y-402030D02*
G03X101310Y-401550I19J399D01*
G02X101270Y-401190I1679J369D01*
G02X102990Y-402910I1720J0D01*
G01X102890D01*
G03X102480Y-403390I-19J-399D01*
G02X102520Y-403750I-1679J-369D01*
G02X102480Y-404110I-1719J9D01*
G03X102890Y-404590I391J-81D01*
G01X102990D01*
G02Y-408030I0J-1720D01*
G01X102890D01*
G03X102480Y-408510I-19J-399D01*
G02X102520Y-408870I-1679J-369D01*
G02X102480Y-409230I-1719J9D01*
G03X102890Y-409710I391J-81D01*
G01X102990D01*
G02Y-413150I0J-1720D01*
G01X102890D01*
G03X102480Y-413630I-19J-399D01*
G02X102520Y-413990I-1679J-369D01*
G02X102480Y-414350I-1719J9D01*
G03X102890Y-414830I391J-81D01*
G01X102990D01*
G02Y-418270I0J-1720D01*
G01X102890D01*
G03X102480Y-418750I-19J-399D01*
G02X102520Y-419110I-1679J-369D01*
G02X100800Y-417390I-1720J0D01*
G01X100900D01*
G03X101310Y-416910I19J399D01*
G02X101270Y-416550I1679J369D01*
G02X101310Y-416190I1719J-9D01*
G03X100900Y-415710I-391J81D01*
G01X100800D01*
G02Y-412270I0J1720D01*
G01X100900D01*
G03X101310Y-411790I19J399D01*
G02X101270Y-411430I1679J369D01*
G02X101310Y-411070I1719J-9D01*
G03X100900Y-410590I-391J81D01*
G01X100800D01*
G02Y-407150I0J1720D01*
G01X100900D01*
G03X101310Y-406670I19J399D01*
G02X101270Y-406310I1679J369D01*
G02X101310Y-405950I1719J-9D01*
G03X100900Y-405470I-391J81D01*
G01X100800D01*
G02Y-402030I0J1720D01*
G01X100900D01*
G37*
G36*
G01X267320Y-399640D02*
G03X267580I130J147D01*
G02X268700Y-399230I1115J-1312D01*
G02X269820Y-399640I5J-1722D01*
G03X270080I130J147D01*
G02X271200Y-399230I1115J-1312D01*
G02X272920Y-400950I0J-1720D01*
G02X272510Y-402070I-1722J-5D01*
G03Y-402330I147J-130D01*
G02X272920Y-403450I-1312J-1115D01*
G02X272510Y-404570I-1722J-5D01*
G03Y-404830I147J-130D01*
G02X272920Y-405950I-1312J-1115D01*
G02X271200Y-407670I-1720J0D01*
G02X270080Y-407260I-5J1722D01*
G03X269820I-130J-147D01*
G02X268700Y-407670I-1115J1312D01*
G02X267580Y-407260I-5J1722D01*
G03X267320I-130J-147D01*
G02X266200Y-407670I-1115J1312D01*
G02X265080Y-407260I-5J1722D01*
G03X264820I-130J-147D01*
G02X263700Y-407670I-1115J1312D01*
G02X262580Y-407260I-5J1722D01*
G03X262320I-130J-147D01*
G02X261200Y-407670I-1115J1312D01*
G02X260080Y-407260I-5J1722D01*
G03X259820I-130J-147D01*
G02X258700Y-407670I-1115J1312D01*
G02X256980Y-405950I0J1720D01*
G02X257390Y-404830I1722J5D01*
G03Y-404570I-147J130D01*
G02X256980Y-403450I1312J1115D01*
G02X257390Y-402330I1722J5D01*
G03Y-402070I-147J130D01*
G02X256980Y-400950I1312J1115D01*
G02X258700Y-399230I1720J0D01*
G02X259820Y-399640I5J-1722D01*
G03X260080I130J147D01*
G02X261200Y-399230I1115J-1312D01*
G02X262320Y-399640I5J-1722D01*
G03X262580I130J147D01*
G02X263700Y-399230I1115J-1312D01*
G02X264820Y-399640I5J-1722D01*
G03X265080I130J147D01*
G02X266200Y-399230I1115J-1312D01*
G02X267320Y-399640I5J-1722D01*
G37*
G36*
G01X150370Y-395210D02*
G03Y-394950I-151J130D01*
G02X149930Y-393800I1283J1150D01*
G02X153370I1720J0D01*
G02X152930Y-394950I-1723J0D01*
G03Y-395210I151J-130D01*
G02X153370Y-396360I-1283J-1150D01*
G02X149930I-1720J0D01*
G02X150370Y-395210I1723J0D01*
G37*
G36*
G01X267470Y-390440D02*
G03X267730I130J147D01*
G02X268850Y-390030I1115J-1312D01*
G02X269970Y-390440I5J-1722D01*
G03X270230I130J147D01*
G02X271350Y-390030I1115J-1312D01*
G02X273070Y-391750I0J-1720D01*
G02X272660Y-392870I-1722J-5D01*
G03Y-393130I147J-130D01*
G02X273070Y-394250I-1312J-1115D01*
G02X272660Y-395370I-1722J-5D01*
G03Y-395630I147J-130D01*
G02X273070Y-396750I-1312J-1115D01*
G02X271350Y-398470I-1720J0D01*
G02X270230Y-398060I-5J1722D01*
G03X269970I-130J-147D01*
G02X268850Y-398470I-1115J1312D01*
G02X267730Y-398060I-5J1722D01*
G03X267470I-130J-147D01*
G02X266350Y-398470I-1115J1312D01*
G02X265230Y-398060I-5J1722D01*
G03X264970I-130J-147D01*
G02X263850Y-398470I-1115J1312D01*
G02X262730Y-398060I-5J1722D01*
G03X262470I-130J-147D01*
G02X261350Y-398470I-1115J1312D01*
G02X260230Y-398060I-5J1722D01*
G03X259970I-130J-147D01*
G02X258850Y-398470I-1115J1312D01*
G02X257130Y-396750I0J1720D01*
G02X257540Y-395630I1722J5D01*
G03Y-395370I-147J130D01*
G02X257130Y-394250I1312J1115D01*
G02X257540Y-393130I1722J5D01*
G03Y-392870I-147J130D01*
G02X257130Y-391750I1312J1115D01*
G02X258850Y-390030I1720J0D01*
G02X259970Y-390440I5J-1722D01*
G03X260230I130J147D01*
G02X261350Y-390030I1115J-1312D01*
G02X262470Y-390440I5J-1722D01*
G03X262730I130J147D01*
G02X263850Y-390030I1115J-1312D01*
G02X264970Y-390440I5J-1722D01*
G03X265230I130J147D01*
G02X266350Y-390030I1115J-1312D01*
G02X267470Y-390440I5J-1722D01*
G37*
G36*
G01X-104450Y-391550D02*
G02X-105910Y-392360I-1460J911D01*
G02Y-388920I0J1720D01*
G02X-104450Y-389730I0J-1721D01*
G01X-65570D01*
G02X-64110Y-388920I1460J-911D01*
G02Y-392360I0J-1720D01*
G02X-65570Y-391550I0J1721D01*
G01X-104450D01*
G37*
G36*
G01X-10910Y-332460D02*
Y-327460D01*
G02X-11720Y-326000I911J1460D01*
G02X-8280I1720J0D01*
G02X-9090Y-327460I-1721J0D01*
G01Y-332460D01*
X-8950Y-332500D01*
G02X-6480Y-335860I-1050J-3360D01*
G02X-13520I-3520J0D01*
G02X-11050Y-332500I3520J0D01*
G01X-10910Y-332460D01*
G37*
G36*
G01X291370Y-321390D02*
G03X291630I130J147D01*
G02X292750Y-320980I1115J-1312D01*
G02X293870Y-321390I5J-1722D01*
G03X294130I130J147D01*
G02X295250Y-320980I1115J-1312D01*
G02X296970Y-322700I0J-1720D01*
G02X296560Y-323820I-1722J-5D01*
G03Y-324080I147J-130D01*
G02X296970Y-325200I-1312J-1115D01*
G02X296560Y-326320I-1722J-5D01*
G03Y-326580I147J-130D01*
G02X296970Y-327700I-1312J-1115D01*
G02X295250Y-329420I-1720J0D01*
G02X294130Y-329010I-5J1722D01*
G03X293870I-130J-147D01*
G02X292750Y-329420I-1115J1312D01*
G02X291630Y-329010I-5J1722D01*
G03X291370I-130J-147D01*
G02X290250Y-329420I-1115J1312D01*
G02X289130Y-329010I-5J1722D01*
G03X288870I-130J-147D01*
G02X287750Y-329420I-1115J1312D01*
G02X286630Y-329010I-5J1722D01*
G03X286370I-130J-147D01*
G02X285250Y-329420I-1115J1312D01*
G02X284130Y-329010I-5J1722D01*
G03X283870I-130J-147D01*
G02X282750Y-329420I-1115J1312D01*
G02X281030Y-327700I0J1720D01*
G02X281440Y-326580I1722J5D01*
G03Y-326320I-147J130D01*
G02X281030Y-325200I1312J1115D01*
G02X281440Y-324080I1722J5D01*
G03Y-323820I-147J130D01*
G02X281030Y-322700I1312J1115D01*
G02X282750Y-320980I1720J0D01*
G02X283870Y-321390I5J-1722D01*
G03X284130I130J147D01*
G02X285250Y-320980I1115J-1312D01*
G02X286370Y-321390I5J-1722D01*
G03X286630I130J147D01*
G02X287750Y-320980I1115J-1312D01*
G02X288870Y-321390I5J-1722D01*
G03X289130I130J147D01*
G02X290250Y-320980I1115J-1312D01*
G02X291370Y-321390I5J-1722D01*
G37*
G36*
G01X-910Y-332460D02*
Y-322460D01*
G02X-1720Y-321000I911J1460D01*
G02X1720I1720J0D01*
G02X910Y-322460I-1721J0D01*
G01Y-332460D01*
X1050Y-332500D01*
G02X3520Y-335860I-1050J-3360D01*
G02X-3520I-3520J0D01*
G02X-1050Y-332500I3520J0D01*
G01X-910Y-332460D01*
G37*
G36*
G01X9090D02*
Y-317460D01*
G02X8280Y-316000I911J1460D01*
G02X11720I1720J0D01*
G02X10910Y-317460I-1721J0D01*
G01Y-332460D01*
X11050Y-332500D01*
G02X13520Y-335860I-1050J-3360D01*
G02X6480I-3520J0D01*
G02X8950Y-332500I3520J0D01*
G01X9090Y-332460D01*
G37*
G36*
G01X19090D02*
Y-312460D01*
G02X18280Y-311000I911J1460D01*
G02X21720I1720J0D01*
G02X20910Y-312460I-1721J0D01*
G01Y-332460D01*
X21050Y-332500D01*
G02X23520Y-335860I-1050J-3360D01*
G02X16480I-3520J0D01*
G02X18950Y-332500I3520J0D01*
G01X19090Y-332460D01*
G37*
G36*
G01X29090D02*
Y-307460D01*
G02X28280Y-306000I911J1460D01*
G02X31720I1720J0D01*
G02X30910Y-307460I-1721J0D01*
G01Y-332460D01*
X31050Y-332500D01*
G02X33520Y-335860I-1050J-3360D01*
G02X26480I-3520J0D01*
G02X28950Y-332500I3520J0D01*
G01X29090Y-332460D01*
G37*
G36*
G01X39090D02*
Y-302460D01*
G02X38280Y-301000I911J1460D01*
G02X41720I1720J0D01*
G02X40910Y-302460I-1721J0D01*
G01Y-332460D01*
X41050Y-332500D01*
G02X43520Y-335860I-1050J-3360D01*
G02X36480I-3520J0D01*
G02X38950Y-332500I3520J0D01*
G01X39090Y-332460D01*
G37*
G36*
G01X49090D02*
Y-297460D01*
G02X48280Y-296000I911J1460D01*
G02X51720I1720J0D01*
G02X50910Y-297460I-1721J0D01*
G01Y-332460D01*
X51050Y-332500D01*
G02X53520Y-335860I-1050J-3360D01*
G02X46480I-3520J0D01*
G02X48950Y-332500I3520J0D01*
G01X49090Y-332460D01*
G37*
G36*
G01X59090D02*
Y-292460D01*
G02X58280Y-291000I911J1460D01*
G02X61720I1720J0D01*
G02X60910Y-292460I-1721J0D01*
G01Y-332460D01*
X61050Y-332500D01*
G02X63520Y-335860I-1050J-3360D01*
G02X56480I-3520J0D01*
G02X58950Y-332500I3520J0D01*
G01X59090Y-332460D01*
G37*
G36*
G01X156780Y-293370D02*
X154280Y-289040D01*
X154180Y-289030D01*
G02X152620Y-287320I157J1710D01*
G02X156060I1720J0D01*
G02X155900Y-288040I-1719J4D01*
G01X155860Y-288130D01*
X158360Y-292460D01*
X158500Y-292430D01*
G02X159270Y-292340I791J-3428D01*
G02X155750Y-295860I0J-3520D01*
G02X156680Y-293480I3510J0D01*
G01X156780Y-293370D01*
G37*
G36*
G01X-115060Y-317460D02*
X-95060Y-282820D01*
X-95100Y-282730D01*
G02X-95260Y-282010I1559J724D01*
G02X-91820I1720J0D01*
G02X-93380Y-283720I-1717J0D01*
G01X-93480Y-283730D01*
X-113480Y-318370D01*
X-113380Y-318480D01*
G02X-112450Y-320860I-2580J-2380D01*
G02X-115970Y-317340I-3520J0D01*
G02X-115200Y-317430I-21J-3518D01*
G01X-115060Y-317460D01*
G37*
G36*
G01X-123720Y-312460D02*
X-106220Y-282150D01*
X-106260Y-282060D01*
G02X-106420Y-281340I1559J724D01*
G02X-102980I1720J0D01*
G02X-104540Y-283050I-1717J0D01*
G01X-104640Y-283060D01*
X-122140Y-313370D01*
X-122040Y-313480D01*
G02X-121110Y-315860I-2580J-2380D01*
G02X-124630Y-312340I-3520J0D01*
G02X-123860Y-312430I-21J-3518D01*
G01X-123720Y-312460D01*
G37*
G36*
G01X-132380Y-307460D02*
X-117380Y-281480D01*
X-117420Y-281390D01*
G02X-117580Y-280670I1559J724D01*
G02X-114140I1720J0D01*
G02X-115700Y-282380I-1717J0D01*
G01X-115800Y-282390D01*
X-130800Y-308370D01*
X-130700Y-308480D01*
G02X-129770Y-310860I-2580J-2380D01*
G02X-133290Y-307340I-3520J0D01*
G02X-132520Y-307430I-21J-3518D01*
G01X-132380Y-307460D01*
G37*
G36*
G01X-141040Y-302460D02*
X-128540Y-280810D01*
X-128580Y-280720D01*
G02X-128740Y-280000I1559J724D01*
G02X-125300I1720J0D01*
G02X-126860Y-281710I-1717J0D01*
G01X-126960Y-281720D01*
X-139460Y-303370D01*
X-139360Y-303480D01*
G02X-138430Y-305860I-2580J-2380D01*
G02X-141950Y-302340I-3520J0D01*
G02X-141180Y-302430I-21J-3518D01*
G01X-141040Y-302460D01*
G37*
G36*
G01X-149700Y-297460D02*
X-139700Y-280140D01*
X-139740Y-280050D01*
G02X-139900Y-279330I1559J724D01*
G02X-136460I1720J0D01*
G02X-138020Y-281040I-1717J0D01*
G01X-138120Y-281050D01*
X-148120Y-298370D01*
X-148020Y-298480D01*
G02X-147090Y-300860I-2580J-2380D01*
G02X-150610Y-297340I-3520J0D01*
G02X-149840Y-297430I-21J-3518D01*
G01X-149700Y-297460D01*
G37*
G36*
G01X-158360Y-292460D02*
X-150860Y-279470D01*
X-150900Y-279380D01*
G02X-151060Y-278660I1559J724D01*
G02X-147620I1720J0D01*
G02X-149180Y-280370I-1717J0D01*
G01X-149280Y-280380D01*
X-156780Y-293370D01*
X-156680Y-293480D01*
G02X-155750Y-295860I-2580J-2380D01*
G02X-159270Y-292340I-3520J0D01*
G02X-158500Y-292430I-21J-3518D01*
G01X-158360Y-292460D01*
G37*
G36*
G01X-167020Y-287460D02*
X-162020Y-278800D01*
X-162060Y-278710D01*
G02X-162220Y-277990I1559J724D01*
G02X-158780I1720J0D01*
G02X-160340Y-279700I-1717J0D01*
G01X-160440Y-279710D01*
X-165440Y-288370D01*
X-165340Y-288480D01*
G02X-164410Y-290860I-2580J-2380D01*
G02X-167930Y-287340I-3520J0D01*
G02X-167160Y-287430I-21J-3518D01*
G01X-167020Y-287460D01*
G37*
G36*
G01X165440Y-288370D02*
X160440Y-279710D01*
X160340Y-279700D01*
G02X158780Y-277990I157J1710D01*
G02X162220I1720J0D01*
G02X162060Y-278710I-1719J4D01*
G01X162020Y-278800D01*
X167020Y-287460D01*
X167160Y-287430D01*
G02X167930Y-287340I791J-3428D01*
G02X164410Y-290860I0J-3520D01*
G02X165340Y-288480I3510J0D01*
G01X165440Y-288370D01*
G37*
G36*
G01X-175680Y-282460D02*
X-173180Y-278130D01*
X-173220Y-278040D01*
G02X-173380Y-277320I1559J724D01*
G02X-169940I1720J0D01*
G02X-171500Y-279030I-1717J0D01*
G01X-171600Y-279040D01*
X-174100Y-283370D01*
X-174000Y-283480D01*
G02X-173070Y-285860I-2580J-2380D01*
G02X-176590Y-282340I-3520J0D01*
G02X-175820Y-282430I-21J-3518D01*
G01X-175680Y-282460D01*
G37*
G36*
G01X174100Y-283370D02*
X166600Y-270380D01*
X166500Y-270370D01*
G02X164940Y-268660I157J1710D01*
G02X168380I1720J0D01*
G02X168220Y-269380I-1719J4D01*
G01X168180Y-269470D01*
X175680Y-282460D01*
X175820Y-282430D01*
G02X176590Y-282340I791J-3428D01*
G02X173070Y-285860I0J-3520D01*
G02X174000Y-283480I3510J0D01*
G01X174100Y-283370D01*
G37*
G36*
G01X-211100Y-269870D02*
X-211230Y-269380D01*
X-211380D01*
G02X-214750Y-265860I153J3520D01*
G02X-207710I3520J0D01*
G02X-209350Y-268830I-3509J0D01*
G01X-209470Y-268910D01*
X-209340Y-269390D01*
X-209020Y-270580D01*
G02X-208990Y-270820I-881J-232D01*
G01Y-314770D01*
X-202820Y-320940D01*
X-188110D01*
G02X-186650Y-320130I1460J-911D01*
G02Y-323570I0J-1720D01*
G02X-188110Y-322760I0J1721D01*
G01X-203200D01*
G02X-203840Y-322490I6J908D01*
G01X-210540Y-315790D01*
G02X-210810Y-315150I638J646D01*
G01Y-270940D01*
X-211100Y-269870D01*
G37*
G36*
G01X182760Y-278370D02*
X172760Y-261050D01*
X172660Y-261040D01*
G02X171100Y-259330I157J1710D01*
G02X174540I1720J0D01*
G02X174380Y-260050I-1719J4D01*
G01X174340Y-260140D01*
X184340Y-277460D01*
X184480Y-277430D01*
G02X185250Y-277340I791J-3428D01*
G02X181730Y-280860I0J-3520D01*
G02X182660Y-278480I3510J0D01*
G01X182760Y-278370D01*
G37*
G36*
G01X191420Y-273370D02*
X178920Y-251720D01*
X178820Y-251710D01*
G02X177260Y-250000I157J1710D01*
G02X180700I1720J0D01*
G02X180540Y-250720I-1719J4D01*
G01X180500Y-250810D01*
X193000Y-272460D01*
X193140Y-272430D01*
G02X193910Y-272340I791J-3428D01*
G02X190390Y-275860I0J-3520D01*
G02X191320Y-273480I3510J0D01*
G01X191420Y-273370D01*
G37*
G36*
G01X337270Y-247710D02*
G03Y-247450I-151J130D01*
G02X336830Y-246300I1283J1150D01*
G02X340270I1720J0D01*
G02X339830Y-247450I-1723J0D01*
G03Y-247710I151J-130D01*
G02X340270Y-248860I-1283J-1150D01*
G02X336830I-1720J0D01*
G02X337270Y-247710I1723J0D01*
G37*
G36*
G01X370320D02*
G03Y-247450I-151J130D01*
G02X369880Y-246300I1283J1150D01*
G02X373320I1720J0D01*
G02X372880Y-247450I-1723J0D01*
G03Y-247710I151J-130D01*
G02X373320Y-248860I-1283J-1150D01*
G02X369880I-1720J0D01*
G02X370320Y-247710I1723J0D01*
G37*
G36*
G01X200080Y-268370D02*
X185080Y-242390D01*
X184980Y-242380D01*
G02X183420Y-240670I157J1710D01*
G02X186860I1720J0D01*
G02X186700Y-241390I-1719J4D01*
G01X186660Y-241480D01*
X201660Y-267460D01*
X201800Y-267430D01*
G02X202570Y-267340I791J-3428D01*
G02X199050Y-270860I0J-3520D01*
G02X199980Y-268480I3510J0D01*
G01X200080Y-268370D01*
G37*
G36*
G01X208740Y-263370D02*
X191240Y-233060D01*
X191140Y-233050D01*
G02X189580Y-231340I157J1710D01*
G02X193020I1720J0D01*
G02X192860Y-232060I-1719J4D01*
G01X192820Y-232150D01*
X210320Y-262460D01*
X210460Y-262430D01*
G02X211230Y-262340I791J-3428D01*
G02X207710Y-265860I0J-3520D01*
G02X208640Y-263480I3510J0D01*
G01X208740Y-263370D01*
G37*
G36*
G01X217400Y-258370D02*
X197400Y-223730D01*
X197300Y-223720D01*
G02X195740Y-222010I157J1710D01*
G02X199180I1720J0D01*
G02X199020Y-222730I-1719J4D01*
G01X198980Y-222820D01*
X218980Y-257460D01*
X219120Y-257430D01*
G02X219890Y-257340I791J-3428D01*
G02X216370Y-260860I0J-3520D01*
G02X217300Y-258480I3510J0D01*
G01X217400Y-258370D01*
G37*
G36*
G01X-258480Y-217300D02*
X-258370Y-217400D01*
X-223730Y-197400D01*
X-223720Y-197300D01*
G02X-222010Y-195740I1710J-157D01*
G02Y-199180I0J-1720D01*
G02X-222730Y-199020I4J1719D01*
G01X-222820Y-198980D01*
X-257460Y-218980D01*
X-257430Y-219120D01*
G02X-257340Y-219890I-3428J-791D01*
G02X-260860Y-216370I-3520J0D01*
G02X-258480Y-217300I0J-3510D01*
G37*
G36*
G01X-263480Y-208640D02*
X-263370Y-208740D01*
X-233060Y-191240D01*
X-233050Y-191140D01*
G02X-231340Y-189580I1710J-157D01*
G02Y-193020I0J-1720D01*
G02X-232060Y-192860I4J1719D01*
G01X-232150Y-192820D01*
X-262460Y-210320D01*
X-262430Y-210460D01*
G02X-262340Y-211230I-3428J-791D01*
G02X-265860Y-207710I-3520J0D01*
G02X-263480Y-208640I0J-3510D01*
G37*
G36*
G01X-268480Y-199980D02*
X-268370Y-200080D01*
X-242390Y-185080D01*
X-242380Y-184980D01*
G02X-240670Y-183420I1710J-157D01*
G02Y-186860I0J-1720D01*
G02X-241390Y-186700I4J1719D01*
G01X-241480Y-186660D01*
X-267460Y-201660D01*
X-267430Y-201800D01*
G02X-267340Y-202570I-3428J-791D01*
G02X-270860Y-199050I-3520J0D01*
G02X-268480Y-199980I0J-3510D01*
G37*
G36*
G01X-273480Y-191320D02*
X-273370Y-191420D01*
X-251720Y-178920D01*
X-251710Y-178820D01*
G02X-250000Y-177260I1710J-157D01*
G02Y-180700I0J-1720D01*
G02X-250720Y-180540I4J1719D01*
G01X-250810Y-180500D01*
X-272460Y-193000D01*
X-272430Y-193140D01*
G02X-272340Y-193910I-3428J-791D01*
G02X-275860Y-190390I-3520J0D01*
G02X-273480Y-191320I0J-3510D01*
G37*
G36*
G01X-278480Y-182660D02*
X-278370Y-182760D01*
X-261050Y-172760D01*
X-261040Y-172660D01*
G02X-259330Y-171100I1710J-157D01*
G02Y-174540I0J-1720D01*
G02X-260050Y-174380I4J1719D01*
G01X-260140Y-174340D01*
X-277460Y-184340D01*
X-277430Y-184480D01*
G02X-277340Y-185250I-3428J-791D01*
G02X-280860Y-181730I-3520J0D01*
G02X-278480Y-182660I0J-3510D01*
G37*
G36*
G01X282460Y-175680D02*
X278130Y-173180D01*
X278040Y-173220D01*
G02X277320Y-173380I-724J1559D01*
G02Y-169940I0J1720D01*
G02X279030Y-171500I0J-1717D01*
G01X279040Y-171600D01*
X283370Y-174100D01*
X283480Y-174000D01*
G02X285860Y-173070I2380J-2580D01*
G02X282340Y-176590I0J-3520D01*
G02X282430Y-175820I3518J-21D01*
G01X282460Y-175680D01*
G37*
G36*
G01X-283480Y-174000D02*
X-283370Y-174100D01*
X-270380Y-166600D01*
X-270370Y-166500D01*
G02X-268660Y-164940I1710J-157D01*
G02Y-168380I0J-1720D01*
G02X-269380Y-168220I4J1719D01*
G01X-269470Y-168180D01*
X-282460Y-175680D01*
X-282430Y-175820D01*
G02X-282340Y-176590I-3428J-791D01*
G02X-285860Y-173070I-3520J0D01*
G02X-283480Y-174000I0J-3510D01*
G37*
G36*
G01X-288480Y-165340D02*
X-288370Y-165440D01*
X-279710Y-160440D01*
X-279700Y-160340D01*
G02X-277990Y-158780I1710J-157D01*
G02Y-162220I0J-1720D01*
G02X-278710Y-162060I4J1719D01*
G01X-278800Y-162020D01*
X-287460Y-167020D01*
X-287430Y-167160D01*
G02X-287340Y-167930I-3428J-791D01*
G02X-290860Y-164410I-3520J0D01*
G02X-288480Y-165340I0J-3510D01*
G37*
G36*
G01X287460Y-167020D02*
X278800Y-162020D01*
X278710Y-162060D01*
G02X277990Y-162220I-724J1559D01*
G02Y-158780I0J1720D01*
G02X279700Y-160340I0J-1717D01*
G01X279710Y-160440D01*
X288370Y-165440D01*
X288480Y-165340D01*
G02X290860Y-164410I2380J-2580D01*
G02X287340Y-167930I0J-3520D01*
G02X287430Y-167160I3518J-21D01*
G01X287460Y-167020D01*
G37*
G36*
G01X-293480Y-156680D02*
X-293370Y-156780D01*
X-289040Y-154280D01*
X-289030Y-154180D01*
G02X-287320Y-152620I1710J-157D01*
G02Y-156060I0J-1720D01*
G02X-288040Y-155900I4J1719D01*
G01X-288130Y-155860D01*
X-292460Y-158360D01*
X-292430Y-158500D01*
G02X-292340Y-159270I-3428J-791D01*
G02X-295860Y-155750I-3520J0D01*
G02X-293480Y-156680I0J-3510D01*
G37*
G36*
G01X292460Y-158360D02*
X279470Y-150860D01*
X279380Y-150900D01*
G02X278660Y-151060I-724J1559D01*
G02Y-147620I0J1720D01*
G02X280370Y-149180I0J-1717D01*
G01X280380Y-149280D01*
X293370Y-156780D01*
X293480Y-156680D01*
G02X295860Y-155750I2380J-2580D01*
G02X292340Y-159270I0J-3520D01*
G02X292430Y-158500I3518J-21D01*
G01X292460Y-158360D01*
G37*
G36*
G01X297460Y-149700D02*
X280140Y-139700D01*
X280050Y-139740D01*
G02X279330Y-139900I-724J1559D01*
G02Y-136460I0J1720D01*
G02X281040Y-138020I0J-1717D01*
G01X281050Y-138120D01*
X298370Y-148120D01*
X298480Y-148020D01*
G02X300860Y-147090I2380J-2580D01*
G02X297340Y-150610I0J-3520D01*
G02X297430Y-149840I3518J-21D01*
G01X297460Y-149700D01*
G37*
G36*
G01X302460Y-141040D02*
X280810Y-128540D01*
X280720Y-128580D01*
G02X280000Y-128740I-724J1559D01*
G02Y-125300I0J1720D01*
G02X281710Y-126860I0J-1717D01*
G01X281720Y-126960D01*
X303370Y-139460D01*
X303480Y-139360D01*
G02X305860Y-138430I2380J-2580D01*
G02X302340Y-141950I0J-3520D01*
G02X302430Y-141180I3518J-21D01*
G01X302460Y-141040D01*
G37*
G36*
G01X324690Y-206770D02*
Y-127760D01*
G02X323880Y-126300I911J1460D01*
G02X327320I1720J0D01*
G02X326510Y-127760I-1721J0D01*
G01Y-207150D01*
G02X326240Y-207790I-908J6D01*
G01X322160Y-211870D01*
G02X321520Y-212140I-646J638D01*
G01X269260D01*
X269220Y-212280D01*
G02X265860Y-214750I-3360J1050D01*
G02Y-207710I0J3520D01*
G02X269220Y-210180I0J-3520D01*
G01X269260Y-210320D01*
X321140D01*
X324690Y-206770D01*
G37*
G36*
G01X307460Y-132380D02*
X281480Y-117380D01*
X281390Y-117420D01*
G02X280670Y-117580I-724J1559D01*
G02Y-114140I0J1720D01*
G02X282380Y-115700I0J-1717D01*
G01X282390Y-115800D01*
X308370Y-130800D01*
X308480Y-130700D01*
G02X310860Y-129770I2380J-2580D01*
G02X307340Y-133290I0J-3520D01*
G02X307430Y-132520I3518J-21D01*
G01X307460Y-132380D01*
G37*
G36*
G01X312460Y-123720D02*
X282150Y-106220D01*
X282060Y-106260D01*
G02X281340Y-106420I-724J1559D01*
G02Y-102980I0J1720D01*
G02X283050Y-104540I0J-1717D01*
G01X283060Y-104640D01*
X313370Y-122140D01*
X313480Y-122040D01*
G02X315860Y-121110I2380J-2580D01*
G02X312340Y-124630I0J-3520D01*
G02X312430Y-123860I3518J-21D01*
G01X312460Y-123720D01*
G37*
G36*
G01X317460Y-115060D02*
X282820Y-95060D01*
X282730Y-95100D01*
G02X282010Y-95260I-724J1559D01*
G02Y-91820I0J1720D01*
G02X283720Y-93380I0J-1717D01*
G01X283730Y-93480D01*
X318370Y-113480D01*
X318480Y-113380D01*
G02X320860Y-112450I2380J-2580D01*
G02X317340Y-115970I0J-3520D01*
G02X317430Y-115200I3518J-21D01*
G01X317460Y-115060D01*
G37*
G36*
G01X-292460Y-60910D02*
X-332460D01*
X-332500Y-61050D01*
G02X-335860Y-63520I-3360J1050D01*
G02Y-56480I0J3520D01*
G02X-332500Y-58950I0J-3520D01*
G01X-332460Y-59090D01*
X-292460D01*
G02X-291000Y-58280I1460J-911D01*
G02Y-61720I0J-1720D01*
G02X-292460Y-60910I0J1721D01*
G37*
G36*
G01X-422380Y-24350D02*
G03Y-24080I-146J135D01*
G02X-422810Y-22940I1296J1140D01*
G02X-419370I1720J0D01*
G02X-419810Y-24090I-1723J0D01*
G03Y-24360I146J-135D01*
G02X-419380Y-25500I-1296J-1140D01*
G02X-422820I-1720J0D01*
G02X-422380Y-24350I1723J0D01*
G37*
G36*
G01X-400330D02*
G03Y-24080I-146J135D01*
G02X-400760Y-22940I1296J1140D01*
G02X-397320I1720J0D01*
G02X-397760Y-24090I-1723J0D01*
G03Y-24360I146J-135D01*
G02X-397330Y-25500I-1296J-1140D01*
G02X-400770I-1720J0D01*
G02X-400330Y-24350I1723J0D01*
G37*
G36*
G01X327460Y-10910D02*
G02X326000Y-11720I-1460J911D01*
G02Y-8280I0J1720D01*
G02X327460Y-9090I0J-1721D01*
G01X332460D01*
X332500Y-8950D01*
G02X335860Y-6480I3360J-1050D01*
G02Y-13520I0J-3520D01*
G02X332500Y-11050I0J3520D01*
G01X332460Y-10910D01*
X327460D01*
G37*
G36*
G01X322460Y-910D02*
G02X321000Y-1720I-1460J911D01*
G02Y1720I0J1720D01*
G02X322460Y910I0J-1721D01*
G01X332460D01*
X332500Y1050D01*
G02X335860Y3520I3360J-1050D01*
G02Y-3520I0J-3520D01*
G02X332500Y-1050I0J3520D01*
G01X332460Y-910D01*
X322460D01*
G37*
G36*
G01X317460Y9090D02*
G02X316000Y8280I-1460J911D01*
G02Y11720I0J1720D01*
G02X317460Y10910I0J-1721D01*
G01X332460D01*
X332500Y11050D01*
G02X335860Y13520I3360J-1050D01*
G02Y6480I0J-3520D01*
G02X332500Y8950I0J3520D01*
G01X332460Y9090D01*
X317460D01*
G37*
G36*
G01X312460Y19090D02*
G02X311000Y18280I-1460J911D01*
G02Y21720I0J1720D01*
G02X312460Y20910I0J-1721D01*
G01X332460D01*
X332500Y21050D01*
G02X335860Y23520I3360J-1050D01*
G02Y16480I0J-3520D01*
G02X332500Y18950I0J3520D01*
G01X332460Y19090D01*
X312460D01*
G37*
G36*
G01X307460Y29090D02*
G02X306000Y28280I-1460J911D01*
G02Y31720I0J1720D01*
G02X307460Y30910I0J-1721D01*
G01X332460D01*
X332500Y31050D01*
G02X335860Y33520I3360J-1050D01*
G02Y26480I0J-3520D01*
G02X332500Y28950I0J3520D01*
G01X332460Y29090D01*
X307460D01*
G37*
G36*
G01X302460Y39090D02*
G02X301000Y38280I-1460J911D01*
G02Y41720I0J1720D01*
G02X302460Y40910I0J-1721D01*
G01X332460D01*
X332500Y41050D01*
G02X335860Y43520I3360J-1050D01*
G02Y36480I0J-3520D01*
G02X332500Y38950I0J3520D01*
G01X332460Y39090D01*
X302460D01*
G37*
G36*
G01X297460Y49090D02*
G02X296000Y48280I-1460J911D01*
G02Y51720I0J1720D01*
G02X297460Y50910I0J-1721D01*
G01X332460D01*
X332500Y51050D01*
G02X335860Y53520I3360J-1050D01*
G02Y46480I0J-3520D01*
G02X332500Y48950I0J3520D01*
G01X332460Y49090D01*
X297460D01*
G37*
G36*
G01X292460Y59090D02*
G02X291000Y58280I-1460J911D01*
G02Y61720I0J1720D01*
G02X292460Y60910I0J-1721D01*
G01X332460D01*
X332500Y61050D01*
G02X335860Y63520I3360J-1050D01*
G02Y56480I0J-3520D01*
G02X332500Y58950I0J3520D01*
G01X332460Y59090D01*
X292460D01*
G37*
G36*
G01X-283730Y93480D02*
X-318370Y113480D01*
X-318480Y113380D01*
G02X-320860Y112450I-2380J2580D01*
G02X-317340Y115970I0J3520D01*
G02X-317430Y115200I-3518J21D01*
G01X-317460Y115060D01*
X-282820Y95060D01*
X-282730Y95100D01*
G02X-282010Y95260I724J-1559D01*
G02Y91820I0J-1720D01*
G02X-283720Y93380I0J1717D01*
G01X-283730Y93480D01*
G37*
G36*
G01X-283060Y104640D02*
X-313370Y122140D01*
X-313480Y122040D01*
G02X-315860Y121110I-2380J2580D01*
G02X-312340Y124630I0J3520D01*
G02X-312430Y123860I-3518J21D01*
G01X-312460Y123720D01*
X-282150Y106220D01*
X-282060Y106260D01*
G02X-281340Y106420I724J-1559D01*
G02Y102980I0J-1720D01*
G02X-283050Y104540I0J1717D01*
G01X-283060Y104640D01*
G37*
G36*
G01X-282390Y115800D02*
X-308370Y130800D01*
X-308480Y130700D01*
G02X-310860Y129770I-2380J2580D01*
G02X-307340Y133290I0J3520D01*
G02X-307430Y132520I-3518J21D01*
G01X-307460Y132380D01*
X-281480Y117380D01*
X-281390Y117420D01*
G02X-280670Y117580I724J-1559D01*
G02Y114140I0J-1720D01*
G02X-282380Y115700I0J1717D01*
G01X-282390Y115800D01*
G37*
G36*
G01X-281720Y126960D02*
X-303370Y139460D01*
X-303480Y139360D01*
G02X-305860Y138430I-2380J2580D01*
G02X-302340Y141950I0J3520D01*
G02X-302430Y141180I-3518J21D01*
G01X-302460Y141040D01*
X-280810Y128540D01*
X-280720Y128580D01*
G02X-280000Y128740I724J-1559D01*
G02Y125300I0J-1720D01*
G02X-281710Y126860I0J1717D01*
G01X-281720Y126960D01*
G37*
G36*
G01X-281050Y138120D02*
X-298370Y148120D01*
X-298480Y148020D01*
G02X-300860Y147090I-2380J2580D01*
G02X-297340Y150610I0J3520D01*
G02X-297430Y149840I-3518J21D01*
G01X-297460Y149700D01*
X-280140Y139700D01*
X-280050Y139740D01*
G02X-279330Y139900I724J-1559D01*
G02Y136460I0J-1720D01*
G02X-281040Y138020I0J1717D01*
G01X-281050Y138120D01*
G37*
G36*
G01X-280380Y149280D02*
X-293370Y156780D01*
X-293480Y156680D01*
G02X-295860Y155750I-2380J2580D01*
G02X-292340Y159270I0J3520D01*
G02X-292430Y158500I-3518J21D01*
G01X-292460Y158360D01*
X-279470Y150860D01*
X-279380Y150900D01*
G02X-278660Y151060I724J-1559D01*
G02Y147620I0J-1720D01*
G02X-280370Y149180I0J1717D01*
G01X-280380Y149280D01*
G37*
G36*
G01X288130Y155860D02*
X292460Y158360D01*
X292430Y158500D01*
G02X292340Y159270I3428J791D01*
G02X295860Y155750I3520J0D01*
G02X293480Y156680I0J3510D01*
G01X293370Y156780D01*
X289040Y154280D01*
X289030Y154180D01*
G02X287320Y152620I-1710J157D01*
G02Y156060I0J1720D01*
G02X288040Y155900I-4J-1719D01*
G01X288130Y155860D01*
G37*
G36*
G01X-279710Y160440D02*
X-288370Y165440D01*
X-288480Y165340D01*
G02X-290860Y164410I-2380J2580D01*
G02X-287340Y167930I0J3520D01*
G02X-287430Y167160I-3518J21D01*
G01X-287460Y167020D01*
X-278800Y162020D01*
X-278710Y162060D01*
G02X-277990Y162220I724J-1559D01*
G02Y158780I0J-1720D01*
G02X-279700Y160340I0J1717D01*
G01X-279710Y160440D01*
G37*
G36*
G01X278800Y162020D02*
X287460Y167020D01*
X287430Y167160D01*
G02X287340Y167930I3428J791D01*
G02X290860Y164410I3520J0D01*
G02X288480Y165340I0J3510D01*
G01X288370Y165440D01*
X279710Y160440D01*
X279700Y160340D01*
G02X277990Y158780I-1710J157D01*
G02Y162220I0J1720D01*
G02X278710Y162060I-4J-1719D01*
G01X278800Y162020D01*
G37*
G36*
G01X-279040Y171600D02*
X-283370Y174100D01*
X-283480Y174000D01*
G02X-285860Y173070I-2380J2580D01*
G02X-282340Y176590I0J3520D01*
G02X-282430Y175820I-3518J21D01*
G01X-282460Y175680D01*
X-278130Y173180D01*
X-278040Y173220D01*
G02X-277320Y173380I724J-1559D01*
G02Y169940I0J-1720D01*
G02X-279030Y171500I0J1717D01*
G01X-279040Y171600D01*
G37*
G36*
G01X269470Y168180D02*
X282460Y175680D01*
X282430Y175820D01*
G02X282340Y176590I3428J791D01*
G02X285860Y173070I3520J0D01*
G02X283480Y174000I0J3510D01*
G01X283370Y174100D01*
X270380Y166600D01*
X270370Y166500D01*
G02X268660Y164940I-1710J157D01*
G02Y168380I0J1720D01*
G02X269380Y168220I-4J-1719D01*
G01X269470Y168180D01*
G37*
G36*
G01X260140Y174340D02*
X277460Y184340D01*
X277430Y184480D01*
G02X277340Y185250I3428J791D01*
G02X280860Y181730I3520J0D01*
G02X278480Y182660I0J3510D01*
G01X278370Y182760D01*
X261050Y172760D01*
X261040Y172660D01*
G02X259330Y171100I-1710J157D01*
G02Y174540I0J1720D01*
G02X260050Y174380I-4J-1719D01*
G01X260140Y174340D01*
G37*
G36*
G01X250810Y180500D02*
X272460Y193000D01*
X272430Y193140D01*
G02X272340Y193910I3428J791D01*
G02X275860Y190390I3520J0D01*
G02X273480Y191320I0J3510D01*
G01X273370Y191420D01*
X251720Y178920D01*
X251710Y178820D01*
G02X250000Y177260I-1710J157D01*
G02Y180700I0J1720D01*
G02X250720Y180540I-4J-1719D01*
G01X250810Y180500D01*
G37*
G36*
G01X241480Y186660D02*
X267460Y201660D01*
X267430Y201800D01*
G02X267340Y202570I3428J791D01*
G02X270860Y199050I3520J0D01*
G02X268480Y199980I0J3510D01*
G01X268370Y200080D01*
X242390Y185080D01*
X242380Y184980D01*
G02X240670Y183420I-1710J157D01*
G02Y186860I0J1720D01*
G02X241390Y186700I-4J-1719D01*
G01X241480Y186660D01*
G37*
G36*
G01X232150Y192820D02*
X262460Y210320D01*
X262430Y210460D01*
G02X262340Y211230I3428J791D01*
G02X265860Y207710I3520J0D01*
G02X263480Y208640I0J3510D01*
G01X263370Y208740D01*
X233060Y191240D01*
X233050Y191140D01*
G02X231340Y189580I-1710J157D01*
G02Y193020I0J1720D01*
G02X232060Y192860I-4J-1719D01*
G01X232150Y192820D01*
G37*
G36*
G01X222820Y198980D02*
X257460Y218980D01*
X257430Y219120D01*
G02X257340Y219890I3428J791D01*
G02X260860Y216370I3520J0D01*
G02X258480Y217300I0J3510D01*
G01X258370Y217400D01*
X223730Y197400D01*
X223720Y197300D01*
G02X222010Y195740I-1710J157D01*
G02Y199180I0J1720D01*
G02X222730Y199020I-4J-1719D01*
G01X222820Y198980D01*
G37*
G36*
G01X-198980Y222820D02*
X-218980Y257460D01*
X-219120Y257430D01*
G02X-219890Y257340I-791J3428D01*
G02X-216370Y260860I0J3520D01*
G02X-217300Y258480I-3510J0D01*
G01X-217400Y258370D01*
X-197400Y223730D01*
X-197300Y223720D01*
G02X-195740Y222010I-157J-1710D01*
G02X-199180I-1720J0D01*
G02X-199020Y222730I1719J-4D01*
G01X-198980Y222820D01*
G37*
G36*
G01X-192820Y232150D02*
X-210320Y262460D01*
X-210460Y262430D01*
G02X-211230Y262340I-791J3428D01*
G02X-207710Y265860I0J3520D01*
G02X-208640Y263480I-3510J0D01*
G01X-208740Y263370D01*
X-191240Y233060D01*
X-191140Y233050D01*
G02X-189580Y231340I-157J-1710D01*
G02X-193020I-1720J0D01*
G02X-192860Y232060I1719J-4D01*
G01X-192820Y232150D01*
G37*
G36*
G01X-186660Y241480D02*
X-201660Y267460D01*
X-201800Y267430D01*
G02X-202570Y267340I-791J3428D01*
G02X-199050Y270860I0J3520D01*
G02X-199980Y268480I-3510J0D01*
G01X-200080Y268370D01*
X-185080Y242390D01*
X-184980Y242380D01*
G02X-183420Y240670I-157J-1710D01*
G02X-186860I-1720J0D01*
G02X-186700Y241390I1719J-4D01*
G01X-186660Y241480D01*
G37*
G36*
G01X-180500Y250810D02*
X-193000Y272460D01*
X-193140Y272430D01*
G02X-193910Y272340I-791J3428D01*
G02X-190390Y275860I0J3520D01*
G02X-191320Y273480I-3510J0D01*
G01X-191420Y273370D01*
X-178920Y251720D01*
X-178820Y251710D01*
G02X-177260Y250000I-157J-1710D01*
G02X-180700I-1720J0D01*
G02X-180540Y250720I1719J-4D01*
G01X-180500Y250810D01*
G37*
G36*
G01X-174340Y260140D02*
X-184340Y277460D01*
X-184480Y277430D01*
G02X-185250Y277340I-791J3428D01*
G02X-181730Y280860I0J3520D01*
G02X-182660Y278480I-3510J0D01*
G01X-182760Y278370D01*
X-172760Y261050D01*
X-172660Y261040D01*
G02X-171100Y259330I-157J-1710D01*
G02X-174540I-1720J0D01*
G02X-174380Y260050I1719J-4D01*
G01X-174340Y260140D01*
G37*
G36*
G01X-168180Y269470D02*
X-175680Y282460D01*
X-175820Y282430D01*
G02X-176590Y282340I-791J3428D01*
G02X-173070Y285860I0J3520D01*
G02X-174000Y283480I-3510J0D01*
G01X-174100Y283370D01*
X-166600Y270380D01*
X-166500Y270370D01*
G02X-164940Y268660I-157J-1710D01*
G02X-168380I-1720J0D01*
G02X-168220Y269380I1719J-4D01*
G01X-168180Y269470D01*
G37*
G36*
G01X171600Y279040D02*
X174100Y283370D01*
X174000Y283480D01*
G02X173070Y285860I2580J2380D01*
G02X176590Y282340I3520J0D01*
G02X175820Y282430I21J3518D01*
G01X175680Y282460D01*
X173180Y278130D01*
X173220Y278040D01*
G02X173380Y277320I-1559J-724D01*
G02X169940I-1720J0D01*
G02X171500Y279030I1717J0D01*
G01X171600Y279040D01*
G37*
G36*
G01X-162020Y278800D02*
X-167020Y287460D01*
X-167160Y287430D01*
G02X-167930Y287340I-791J3428D01*
G02X-164410Y290860I0J3520D01*
G02X-165340Y288480I-3510J0D01*
G01X-165440Y288370D01*
X-160440Y279710D01*
X-160340Y279700D01*
G02X-158780Y277990I-157J-1710D01*
G02X-162220I-1720J0D01*
G02X-162060Y278710I1719J-4D01*
G01X-162020Y278800D01*
G37*
G36*
G01X160440Y279710D02*
X165440Y288370D01*
X165340Y288480D01*
G02X164410Y290860I2580J2380D01*
G02X167930Y287340I3520J0D01*
G02X167160Y287430I21J3518D01*
G01X167020Y287460D01*
X162020Y278800D01*
X162060Y278710D01*
G02X162220Y277990I-1559J-724D01*
G02X158780I-1720J0D01*
G02X160340Y279700I1717J0D01*
G01X160440Y279710D01*
G37*
G36*
G01X-155860Y288130D02*
X-158360Y292460D01*
X-158500Y292430D01*
G02X-159270Y292340I-791J3428D01*
G02X-155750Y295860I0J3520D01*
G02X-156680Y293480I-3510J0D01*
G01X-156780Y293370D01*
X-154280Y289040D01*
X-154180Y289030D01*
G02X-152620Y287320I-157J-1710D01*
G02X-156060I-1720J0D01*
G02X-155900Y288040I1719J-4D01*
G01X-155860Y288130D01*
G37*
G36*
G01X149280Y280380D02*
X156780Y293370D01*
X156680Y293480D01*
G02X155750Y295860I2580J2380D01*
G02X159270Y292340I3520J0D01*
G02X158500Y292430I21J3518D01*
G01X158360Y292460D01*
X150860Y279470D01*
X150900Y279380D01*
G02X151060Y278660I-1559J-724D01*
G02X147620I-1720J0D01*
G02X149180Y280370I1717J0D01*
G01X149280Y280380D01*
G37*
G36*
G01X138120Y281050D02*
X148120Y298370D01*
X148020Y298480D01*
G02X147090Y300860I2580J2380D01*
G02X150610Y297340I3520J0D01*
G02X149840Y297430I21J3518D01*
G01X149700Y297460D01*
X139700Y280140D01*
X139740Y280050D01*
G02X139900Y279330I-1559J-724D01*
G02X136460I-1720J0D01*
G02X138020Y281040I1717J0D01*
G01X138120Y281050D01*
G37*
G36*
G01X126960Y281720D02*
X139460Y303370D01*
X139360Y303480D01*
G02X138430Y305860I2580J2380D01*
G02X141950Y302340I3520J0D01*
G02X141180Y302430I21J3518D01*
G01X141040Y302460D01*
X128540Y280810D01*
X128580Y280720D01*
G02X128740Y280000I-1559J-724D01*
G02X125300I-1720J0D01*
G02X126860Y281710I1717J0D01*
G01X126960Y281720D01*
G37*
G36*
G01X115800Y282390D02*
X130800Y308370D01*
X130700Y308480D01*
G02X129770Y310860I2580J2380D01*
G02X133290Y307340I3520J0D01*
G02X132520Y307430I21J3518D01*
G01X132380Y307460D01*
X117380Y281480D01*
X117420Y281390D01*
G02X117580Y280670I-1559J-724D01*
G02X114140I-1720J0D01*
G02X115700Y282380I1717J0D01*
G01X115800Y282390D01*
G37*
G36*
G01X104640Y283060D02*
X122140Y313370D01*
X122040Y313480D01*
G02X121110Y315860I2580J2380D01*
G02X124630Y312340I3520J0D01*
G02X123860Y312430I21J3518D01*
G01X123720Y312460D01*
X106220Y282150D01*
X106260Y282060D01*
G02X106420Y281340I-1559J-724D01*
G02X102980I-1720J0D01*
G02X104540Y283050I1717J0D01*
G01X104640Y283060D01*
G37*
G36*
G01X165160Y310310D02*
X159040Y316420D01*
X158940Y316400D01*
G02X158650Y316380I-263J1702D01*
G02X160370Y318100I0J1720D01*
G02X160350Y317810I-1722J-27D01*
G01X160330Y317710D01*
X166180Y311860D01*
X208300D01*
G02X208940Y311590I-6J-908D01*
G01X211870Y308660D01*
G02X212140Y308020I-638J-646D01*
G01Y269260D01*
X212280Y269220D01*
G02X214750Y265860I-1050J-3360D01*
G02X207710I-3520J0D01*
G02X210180Y269220I3520J0D01*
G01X210320Y269260D01*
Y307640D01*
X207920Y310040D01*
X165800D01*
G02X165160Y310310I6J908D01*
G37*
G36*
G01X93480Y283730D02*
X113480Y318370D01*
X113380Y318480D01*
G02X112450Y320860I2580J2380D01*
G02X115970Y317340I3520J0D01*
G02X115200Y317430I21J3518D01*
G01X115060Y317460D01*
X95060Y282820D01*
X95100Y282730D01*
G02X95260Y282010I-1559J-724D01*
G02X91820I-1720J0D01*
G02X93380Y283720I1717J0D01*
G01X93480Y283730D01*
G37*
G36*
G01X-60910Y292460D02*
Y332460D01*
X-61050Y332500D01*
G02X-63520Y335860I1050J3360D01*
G02X-56480I3520J0D01*
G02X-58950Y332500I-3520J0D01*
G01X-59090Y332460D01*
Y292460D01*
G02X-58280Y291000I-911J-1460D01*
G02X-61720I-1720J0D01*
G02X-60910Y292460I1721J0D01*
G37*
G36*
G01X-50910Y297460D02*
Y332460D01*
X-51050Y332500D01*
G02X-53520Y335860I1050J3360D01*
G02X-46480I3520J0D01*
G02X-48950Y332500I-3520J0D01*
G01X-49090Y332460D01*
Y297460D01*
G02X-48280Y296000I-911J-1460D01*
G02X-51720I-1720J0D01*
G02X-50910Y297460I1721J0D01*
G37*
G36*
G01X-40910Y302460D02*
Y332460D01*
X-41050Y332500D01*
G02X-43520Y335860I1050J3360D01*
G02X-36480I3520J0D01*
G02X-38950Y332500I-3520J0D01*
G01X-39090Y332460D01*
Y302460D01*
G02X-38280Y301000I-911J-1460D01*
G02X-41720I-1720J0D01*
G02X-40910Y302460I1721J0D01*
G37*
G36*
G01X-30910Y307460D02*
Y332460D01*
X-31050Y332500D01*
G02X-33520Y335860I1050J3360D01*
G02X-26480I3520J0D01*
G02X-28950Y332500I-3520J0D01*
G01X-29090Y332460D01*
Y307460D01*
G02X-28280Y306000I-911J-1460D01*
G02X-31720I-1720J0D01*
G02X-30910Y307460I1721J0D01*
G37*
G36*
G01X-20910Y312460D02*
Y332460D01*
X-21050Y332500D01*
G02X-23520Y335860I1050J3360D01*
G02X-16480I3520J0D01*
G02X-18950Y332500I-3520J0D01*
G01X-19090Y332460D01*
Y312460D01*
G02X-18280Y311000I-911J-1460D01*
G02X-21720I-1720J0D01*
G02X-20910Y312460I1721J0D01*
G37*
G36*
G01X-10910Y317460D02*
Y332460D01*
X-11050Y332500D01*
G02X-13520Y335860I1050J3360D01*
G02X-6480I3520J0D01*
G02X-8950Y332500I-3520J0D01*
G01X-9090Y332460D01*
Y317460D01*
G02X-8280Y316000I-911J-1460D01*
G02X-11720I-1720J0D01*
G02X-10910Y317460I1721J0D01*
G37*
G36*
G01X-910Y322460D02*
Y332460D01*
X-1050Y332500D01*
G02X-3520Y335860I1050J3360D01*
G02X3520I3520J0D01*
G02X1050Y332500I-3520J0D01*
G01X910Y332460D01*
Y322460D01*
G02X1720Y321000I-911J-1460D01*
G02X-1720I-1720J0D01*
G02X-910Y322460I1721J0D01*
G37*
G36*
G01X9090Y327460D02*
Y332460D01*
X8950Y332500D01*
G02X6480Y335860I1050J3360D01*
G02X13520I3520J0D01*
G02X11050Y332500I-3520J0D01*
G01X10910Y332460D01*
Y327460D01*
G02X11720Y326000I-911J-1460D01*
G02X8280I-1720J0D01*
G02X9090Y327460I1721J0D01*
G37*
G36*
G01X-291190Y342390D02*
G02X-290550Y342660I646J-638D01*
G01X-239010D01*
G02X-237550Y343470I1460J-911D01*
G02Y340030I0J-1720D01*
G02X-239010Y340840I0J1721D01*
G01X-290170D01*
X-296140Y334870D01*
Y218660D01*
X-272380D01*
G02X-271740Y218390I-6J-908D01*
G01X-267620Y214280D01*
G02X-265860Y214750I1760J-3060D01*
G02X-269380Y211230I0J-3520D01*
G02X-268980Y212860I3521J0D01*
G01X-268910Y212990D01*
X-272760Y216840D01*
X-296670D01*
X-338040Y175470D01*
Y163110D01*
G02X-337230Y161650I-911J-1460D01*
G02X-340670I-1720J0D01*
G02X-339860Y163110I1721J0D01*
G01Y175850D01*
G02X-339590Y176490I908J-6D01*
G01X-297960Y218130D01*
Y335250D01*
G02X-297690Y335890I908J-6D01*
G01X-291190Y342390D01*
G37*
G36*
G01X44670Y343900D02*
X-63740D01*
G02X-65200Y343090I-1460J911D01*
G02Y346530I0J1720D01*
G02X-63740Y345720I0J-1721D01*
G01X45050D01*
G02X45690Y345450I-6J-908D01*
G01X50640Y340500D01*
G02X50910Y339860I-638J-646D01*
G01Y339260D01*
X51050Y339220D01*
G02X53520Y335860I-1050J-3360D01*
G02X46480I-3520J0D01*
G02X48670Y339120I3521J0D01*
G03X48800Y339770I-153J369D01*
G01X44670Y343900D01*
G37*
G36*
G01X285520Y0D02*
G02I-285520J0D01*
G37*
G36*
G01X261040Y-265160D02*
G02X260230Y-263700I911J1460D01*
G02X263670I1720J0D01*
G02X262860Y-265160I-1721J0D01*
G01Y-355400D01*
G02X262590Y-356040I-908J6D01*
G01X254840Y-363790D01*
G02X254200Y-364060I-646J638D01*
G01X-46140D01*
G02X-49060I-1460J911D01*
G01X-101200D01*
G02X-101840Y-363790I6J908D01*
G01X-106830Y-358810D01*
X-158200D01*
G02X-158840Y-358540I6J908D01*
G01X-164480Y-352910D01*
X-190500D01*
G02X-191960Y-353720I-1460J911D01*
G02Y-350280I0J1720D01*
G02X-190500Y-351090I0J-1721D01*
G01X-164100D01*
G02X-163460Y-351360I-6J-908D01*
G01X-157820Y-356990D01*
X-106450D01*
G02X-105810Y-357260I-6J-908D01*
G01X-100820Y-362240D01*
X-49060D01*
G02X-46140I1460J-911D01*
G01X-26430D01*
G03X-26090Y-361630I1J399D01*
G02X-26330Y-360750I1493J880D01*
G02X-22890I1720J0D01*
G02X-23130Y-361630I-1733J0D01*
G03X-22790Y-362240I339J-211D01*
G01X20260D01*
G03X20510Y-361530I-3J400D01*
G02X19880Y-360200I1089J1330D01*
G02X23320I1720J0D01*
G02X22690Y-361530I-1719J0D01*
G03X22940Y-362240I253J-310D01*
G01X28610D01*
G03X28860Y-361530I-3J400D01*
G02X28230Y-360200I1089J1330D01*
G02X31670I1720J0D01*
G02X31040Y-361530I-1719J0D01*
G03X31290Y-362240I253J-310D01*
G01X36770D01*
G03X37010Y-361520I0J400D01*
G02X36330Y-360150I1040J1370D01*
G02X39770I1720J0D01*
G02X39090Y-361520I-1720J0D01*
G03X39330Y-362240I240J-320D01*
G01X44870D01*
G03X45110Y-361520I0J400D01*
G02X44430Y-360150I1040J1370D01*
G02X47870I1720J0D01*
G02X47190Y-361520I-1720J0D01*
G03X47430Y-362240I240J-320D01*
G01X53010D01*
G03X53260Y-361530I-3J400D01*
G02X52630Y-360200I1089J1330D01*
G02X56070I1720J0D01*
G02X55440Y-361530I-1719J0D01*
G03X55690Y-362240I253J-310D01*
G01X61260D01*
G03X61510Y-361530I-3J400D01*
G02X60880Y-360200I1089J1330D01*
G02X64320I1720J0D01*
G02X63690Y-361530I-1719J0D01*
G03X63940Y-362240I253J-310D01*
G01X132270D01*
X144420Y-350090D01*
X144400Y-349990D01*
G02X144380Y-349700I1702J263D01*
G02X146100Y-351420I1720J0D01*
G02X145810Y-351400I-27J1722D01*
G01X145710Y-351380D01*
X135530Y-361560D01*
G03X135810Y-362240I284J-281D01*
G01X253820D01*
X261040Y-355020D01*
Y-265160D01*
G37*
G36*
G01X244870Y-330700D02*
G02X244650Y-330710I-188J1711D01*
G02X246370Y-328990I0J1720D01*
G02X246330Y-329360I-1731J0D01*
G03X246770Y-329840I389J-85D01*
G02X246990Y-329830I188J-1711D01*
G02Y-333270I0J-1720D01*
G02X246770Y-333260I-32J1721D01*
G03X246330Y-333740I-51J-395D01*
G02Y-334480I-1691J-370D01*
G03X246770Y-334960I389J-85D01*
G02X246990Y-334950I188J-1711D01*
G02Y-338390I0J-1720D01*
G02X246770Y-338380I-32J1721D01*
G03X246330Y-338860I-51J-395D01*
G02Y-339600I-1691J-370D01*
G03X246770Y-340080I389J-85D01*
G02X246990Y-340070I188J-1711D01*
G02Y-343510I0J-1720D01*
G02X246770Y-343500I-32J1721D01*
G03X246330Y-343980I-51J-395D01*
G02Y-344720I-1691J-370D01*
G03X246770Y-345200I389J-85D01*
G02X246990Y-345190I188J-1711D01*
G02X245270Y-346910I0J-1720D01*
G02X245310Y-346540I1731J0D01*
G03X244870Y-346060I-389J85D01*
G02X244650Y-346070I-188J1711D01*
G02Y-342630I0J1720D01*
G02X244870Y-342640I32J-1721D01*
G03X245310Y-342160I51J395D01*
G02Y-341420I1691J370D01*
G03X244870Y-340940I-389J85D01*
G02X244650Y-340950I-188J1711D01*
G02Y-337510I0J1720D01*
G02X244870Y-337520I32J-1721D01*
G03X245310Y-337040I51J395D01*
G02Y-336300I1691J370D01*
G03X244870Y-335820I-389J85D01*
G02X244650Y-335830I-188J1711D01*
G02Y-332390I0J1720D01*
G02X244870Y-332400I32J-1721D01*
G03X245310Y-331920I51J395D01*
G02Y-331180I1691J370D01*
G03X244870Y-330700I-389J85D01*
G37*
G36*
G01X171030Y-333280D02*
G02X170810Y-333290I-188J1711D01*
G02X172530Y-331570I0J1720D01*
G02X172490Y-331940I-1731J0D01*
G03X172930Y-332420I389J-85D01*
G02X173150Y-332410I188J-1711D01*
G02Y-335850I0J-1720D01*
G02X172930Y-335840I-32J1721D01*
G03X172490Y-336320I-51J-395D01*
G02Y-337060I-1691J-370D01*
G03X172930Y-337540I389J-85D01*
G02X173150Y-337530I188J-1711D01*
G02Y-340970I0J-1720D01*
G02X172930Y-340960I-32J1721D01*
G03X172490Y-341440I-50J-396D01*
G02X172530Y-341800I-1679J-369D01*
G02X172490Y-342170I-1731J0D01*
G03X172930Y-342650I389J-85D01*
G02X173150Y-342640I188J-1711D01*
G02Y-346080I0J-1720D01*
G02X172930Y-346070I-32J1721D01*
G03X172490Y-346550I-51J-395D01*
G02Y-347290I-1691J-370D01*
G03X172930Y-347770I389J-85D01*
G02X173150Y-347760I188J-1711D01*
G02Y-351200I0J-1720D01*
G02X172930Y-351190I-32J1721D01*
G03X172490Y-351670I-51J-395D01*
G02Y-352410I-1691J-370D01*
G03X172930Y-352890I389J-85D01*
G02X173150Y-352880I188J-1711D01*
G02X171430Y-354600I0J-1720D01*
G02X171470Y-354230I1731J0D01*
G03X171030Y-353750I-389J85D01*
G02X170810Y-353760I-188J1711D01*
G02Y-350320I0J1720D01*
G02X171030Y-350330I32J-1721D01*
G03X171470Y-349850I51J395D01*
G02Y-349110I1691J370D01*
G03X171030Y-348630I-389J85D01*
G02X170810Y-348640I-188J1711D01*
G02Y-345200I0J1720D01*
G02X171030Y-345210I32J-1721D01*
G03X171470Y-344730I51J395D01*
G02Y-343990I1691J370D01*
G03X171030Y-343510I-389J85D01*
G02X170810Y-343520I-188J1711D01*
G02Y-340080I0J1720D01*
G02X171030Y-340090I32J-1721D01*
G03X171470Y-339610I50J396D01*
G02X171430Y-339250I1679J369D01*
G02X171470Y-338880I1731J0D01*
G03X171030Y-338400I-389J85D01*
G02X170810Y-338410I-188J1711D01*
G02Y-334970I0J1720D01*
G02X171030Y-334980I32J-1721D01*
G03X171470Y-334500I51J395D01*
G02Y-333760I1691J370D01*
G03X171030Y-333280I-389J85D01*
G37*
G36*
G01X173850Y-397970D02*
G02X173240Y-398080I-605J1611D01*
G02X174960Y-396360I0J1720D01*
G02X174890Y-396830I-1718J16D01*
G03X175420Y-397310I386J-106D01*
G02X176030Y-397200I605J-1611D01*
G02X174310Y-398920I0J-1720D01*
G02X174380Y-398450I1718J-16D01*
G03X173850Y-397970I-386J106D01*
G37*
G36*
G01X292080Y-406690D02*
G02X293200Y-406280I1115J-1312D01*
G02X294320Y-406690I5J-1722D01*
G03X294580I130J147D01*
G02X295700Y-406280I1115J-1312D01*
G02X297420Y-408000I0J-1720D01*
G02X297010Y-409120I-1722J-5D01*
G03Y-409380I147J-130D01*
G02X297420Y-410500I-1312J-1115D01*
G02X297010Y-411620I-1722J-5D01*
G03Y-411880I147J-130D01*
G02X297420Y-413000I-1312J-1115D01*
G02X296780Y-414340I-1723J0D01*
G03X296810Y-414990I246J-314D01*
G02X297620Y-416450I-911J-1460D01*
G02X297210Y-417570I-1722J-5D01*
G03Y-417830I147J-130D01*
G02X297620Y-418950I-1312J-1115D01*
G02X297210Y-420070I-1722J-5D01*
G03Y-420330I147J-130D01*
G02X297620Y-421450I-1312J-1115D01*
G02X295900Y-423170I-1720J0D01*
G02X294780Y-422760I-5J1722D01*
G03X294520I-130J-147D01*
G02X293400Y-423170I-1115J1312D01*
G02X292280Y-422760I-5J1722D01*
G03X292020I-130J-147D01*
G02X290900Y-423170I-1115J1312D01*
G02X289780Y-422760I-5J1722D01*
G03X289520I-130J-147D01*
G02X288400Y-423170I-1115J1312D01*
G02X287280Y-422760I-5J1722D01*
G03X287020I-130J-147D01*
G02X285900Y-423170I-1115J1312D01*
G02X284780Y-422760I-5J1722D01*
G03X284520I-130J-147D01*
G02X283400Y-423170I-1115J1312D01*
G02X281680Y-421450I0J1720D01*
G02X282090Y-420330I1722J5D01*
G03Y-420070I-147J130D01*
G02X281680Y-418950I1312J1115D01*
G02X282090Y-417830I1722J5D01*
G03Y-417570I-147J130D01*
G02X281680Y-416450I1312J1115D01*
G02X282320Y-415110I1723J0D01*
G03X282290Y-414460I-246J314D01*
G02X281480Y-413000I911J1460D01*
G02X281890Y-411880I1722J5D01*
G03Y-411620I-147J130D01*
G02X281480Y-410500I1312J1115D01*
G02X281890Y-409380I1722J5D01*
G03Y-409120I-147J130D01*
G02X281480Y-408000I1312J1115D01*
G02X283200Y-406280I1720J0D01*
G02X284320Y-406690I5J-1722D01*
G03X284580I130J147D01*
G02X285700Y-406280I1115J-1312D01*
G02X286820Y-406690I5J-1722D01*
G03X287080I130J147D01*
G02X288200Y-406280I1115J-1312D01*
G02X289320Y-406690I5J-1722D01*
G03X289580I130J147D01*
G02X290700Y-406280I1115J-1312D01*
G02X291820Y-406690I5J-1722D01*
G03X292080I130J147D01*
G37*
G36*
G01X-355680Y-6920D02*
G02X-357220Y-5210I179J1710D01*
G02X-355500Y-3490I1720J0D01*
G02X-354040Y-4300I0J-1721D01*
G01X-349740D01*
G02X-349100Y-4570I-6J-908D01*
G01X-344710Y-8960D01*
G02X-344440Y-9600I-638J-646D01*
G01Y-51200D01*
G02X-344710Y-51840I-908J6D01*
G01X-351510Y-58640D01*
G02X-352150Y-58910I-646J638D01*
G01X-398420D01*
X-401690Y-62180D01*
Y-333370D01*
X-359170Y-375890D01*
X-205180D01*
X-201690Y-372410D01*
G02X-201050Y-372140I646J-638D01*
G01X-182450D01*
G02X-181810Y-372410I-6J-908D01*
G01X-178320Y-375890D01*
X-62150D01*
G02X-61320Y-376420I0J-915D01*
G01X-61310Y-376460D01*
X-52120Y-385640D01*
X-50370D01*
G03X-50010Y-385070I-1J399D01*
G02X-50170Y-384340I1561J725D01*
G02X-46730I1720J0D01*
G02X-46890Y-385070I-1721J-5D01*
G03X-46530Y-385640I361J-171D01*
G01X-45370D01*
G03X-45010Y-385070I-1J399D01*
G02X-45170Y-384340I1561J725D01*
G02X-44360Y-382880I1721J0D01*
G01Y-369050D01*
G02X-44090Y-368410I908J-6D01*
G01X-40840Y-365160D01*
G02X-40200Y-364890I646J-638D01*
G01X259270D01*
X264540Y-359620D01*
Y-269800D01*
G02X264810Y-269160I908J-6D01*
G01X272990Y-260980D01*
G02X273630Y-260710I646J-638D01*
G01X289690D01*
G02X291150Y-259900I1460J-911D01*
G02X292800Y-261140I0J-1718D01*
G03X293470Y-261310I386J114D01*
G01X293990Y-260780D01*
Y-260520D01*
X293910Y-260460D01*
G02X293180Y-259060I977J1400D01*
G02X293510Y-258050I1711J0D01*
G03X293190Y-257410I-321J240D01*
G01X292610D01*
G02X291150Y-258220I-1460J911D01*
G02Y-254780I0J1720D01*
G02X292610Y-255590I0J-1721D01*
G01X293190D01*
G03X293510Y-254950I-1J400D01*
G02X293180Y-253940I1381J1010D01*
G02X294900Y-252220I1720J0D01*
G02X296360Y-253030I0J-1721D01*
G01X298690D01*
G02X299330Y-253300I-6J-908D01*
G01X302540Y-256510D01*
G02X302810Y-257150I-638J-646D01*
G01Y-272450D01*
G02X302540Y-273090I-908J6D01*
G01X296190Y-279440D01*
G02X295550Y-279710I-646J638D01*
G01X282280D01*
X279560Y-282430D01*
Y-364400D01*
G02X279290Y-365040I-908J6D01*
G01X269590Y-374740D01*
G02X268950Y-375010I-646J638D01*
G01X200720D01*
G02X200080Y-374740I6J908D01*
G01X199990Y-374660D01*
X-24170D01*
X-27540Y-378030D01*
Y-382880D01*
G02X-26730Y-384340I-911J-1460D01*
G02X-26890Y-385070I-1721J-5D01*
G03X-26530Y-385640I361J-171D01*
G01X-25370D01*
G03X-25010Y-385070I-1J399D01*
G02X-25170Y-384340I1561J725D01*
G02X-24360Y-382880I1721J0D01*
G01Y-379950D01*
G02X-24090Y-379310I908J-6D01*
G01X-21040Y-376260D01*
G02X-20400Y-375990I646J-638D01*
G01X143650D01*
G02X144290Y-376260I-6J-908D01*
G01X145830Y-377790D01*
X209870D01*
X211510Y-376160D01*
G02X212150Y-375890I646J-638D01*
G01X273250D01*
G02X273890Y-376160I-6J-908D01*
G01X275530Y-377790D01*
X287770D01*
X300640Y-364920D01*
Y-283600D01*
G02X300910Y-282960I908J-6D01*
G01X308390Y-275470D01*
Y-268010D01*
G02X307580Y-266550I911J1460D01*
G02X309300Y-264830I1720J0D01*
G02X310670Y-265510I0J-1720D01*
G03X311390Y-265270I320J240D01*
G01Y-264280D01*
X310140Y-263030D01*
X310040Y-263050D01*
G02X309750Y-263070I-263J1702D01*
G02X311470Y-261350I0J1720D01*
G02X311450Y-261640I-1722J-27D01*
G01X311430Y-261740D01*
X312940Y-263260D01*
G02X313210Y-263900I-638J-646D01*
G01Y-321170D01*
X320490Y-328460D01*
G02X320760Y-329100I-638J-646D01*
G01Y-368450D01*
G02X320490Y-369090I-908J6D01*
G01X307890Y-381690D01*
G02X307250Y-381960I-646J638D01*
G01X273560D01*
G03X273170Y-382450I1J-401D01*
G02X273220Y-382850I-1669J-412D01*
G02X272810Y-383970I-1722J-5D01*
G03Y-384230I147J-130D01*
G02X273220Y-385350I-1312J-1115D01*
G02X272810Y-386470I-1722J-5D01*
G03Y-386730I147J-130D01*
G02X273220Y-387850I-1312J-1115D01*
G02X271500Y-389570I-1720J0D01*
G02X270380Y-389160I-5J1722D01*
G03X270120I-130J-147D01*
G02X269000Y-389570I-1115J1312D01*
G02X267880Y-389160I-5J1722D01*
G03X267620I-130J-147D01*
G02X266500Y-389570I-1115J1312D01*
G02X265380Y-389160I-5J1722D01*
G03X265120I-130J-147D01*
G02X264000Y-389570I-1115J1312D01*
G02X262880Y-389160I-5J1722D01*
G03X262620I-130J-147D01*
G02X261500Y-389570I-1115J1312D01*
G02X260380Y-389160I-5J1722D01*
G03X260120I-130J-147D01*
G02X259000Y-389570I-1115J1312D01*
G02X257280Y-387850I0J1720D01*
G02X257690Y-386730I1722J5D01*
G03Y-386470I-147J130D01*
G02X257280Y-385350I1312J1115D01*
G02X257690Y-384230I1722J5D01*
G03Y-383970I-147J130D01*
G02X257280Y-382850I1312J1115D01*
G02X257400Y-382210I1722J8D01*
G03X257030Y-381660I-369J151D01*
G01X251130D01*
X248990Y-383790D01*
G02X248350Y-384060I-646J638D01*
G01X140850D01*
G02X140210Y-383790I6J908D01*
G01X139410Y-382990D01*
G02X139140Y-382350I638J646D01*
G01Y-381580D01*
X138870Y-381310D01*
X15870D01*
X13230Y-383950D01*
X13250Y-384050D01*
G02X13270Y-384340I-1702J-263D01*
G02X11550Y-382620I-1720J0D01*
G02X11840Y-382640I27J-1722D01*
G01X11940Y-382660D01*
X14850Y-379760D01*
G02X15490Y-379490I646J-638D01*
G01X139250D01*
G02X139890Y-379760I-6J-908D01*
G01X140690Y-380560D01*
G02X140960Y-381200I-638J-646D01*
G01Y-381970D01*
X141230Y-382240D01*
X247970D01*
X250110Y-380110D01*
G02X250750Y-379840I646J-638D01*
G01X272370D01*
G02X273050Y-380140I0J-921D01*
G01X306870D01*
X318940Y-368070D01*
Y-329480D01*
X311660Y-322190D01*
G02X311390Y-321550I638J646D01*
G01Y-267830D01*
G03X310670Y-267590I-400J0D01*
G02X310210Y-268010I-1371J1039D01*
G01Y-275850D01*
G02X309940Y-276490I-908J6D01*
G01X302460Y-283980D01*
Y-365300D01*
G02X302190Y-365940I-908J6D01*
G01X288790Y-379340D01*
G02X288150Y-379610I-646J638D01*
G01X275150D01*
G02X274510Y-379340I6J908D01*
G01X272870Y-377710D01*
X212530D01*
X210890Y-379340D01*
G02X210250Y-379610I-646J638D01*
G01X145450D01*
G02X144810Y-379340I6J908D01*
G01X143270Y-377810D01*
X-20020D01*
X-22540Y-380330D01*
Y-382880D01*
G02X-21730Y-384340I-911J-1460D01*
G02X-21890Y-385070I-1721J-5D01*
G03X-21530Y-385640I361J-171D01*
G01X-21040D01*
X-20130Y-384730D01*
X-20150Y-384630D01*
G02X-20170Y-384340I1702J263D01*
G02X-18450Y-386060I1720J0D01*
G02X-18740Y-386040I-27J1722D01*
G01X-18840Y-386020D01*
X-20020Y-387190D01*
G02X-20660Y-387460I-646J638D01*
G01X-52500D01*
G02X-53140Y-387190I6J908D01*
G01X-62630Y-377710D01*
X-178700D01*
G02X-179340Y-377440I6J908D01*
G01X-182830Y-373960D01*
X-200670D01*
X-204160Y-377440D01*
G02X-204800Y-377710I-646J638D01*
G01X-359550D01*
G02X-360190Y-377440I6J908D01*
G01X-403240Y-334390D01*
G02X-403510Y-333750I638J646D01*
G01Y-61800D01*
G02X-403240Y-61160I908J-6D01*
G01X-399440Y-57360D01*
G02X-398800Y-57090I646J-638D01*
G01X-352530D01*
X-346260Y-50820D01*
Y-9980D01*
X-350120Y-6120D01*
X-354040D01*
G02X-354480Y-6600I-1466J902D01*
G03X-354250Y-7320I235J-322D01*
G01X-350970D01*
G02X-350330Y-7590I-6J-908D01*
G01X-346960Y-10960D01*
G02X-346690Y-11600I-638J-646D01*
G01Y-46050D01*
G02X-346960Y-46690I-908J6D01*
G01X-355610Y-55340D01*
G02X-356250Y-55610I-646J638D01*
G01X-406020D01*
X-406740Y-56330D01*
Y-336470D01*
X-362620Y-380590D01*
X-62600D01*
G02X-61960Y-380860I-6J-908D01*
G01X-54620Y-388190D01*
X-15830D01*
X-14360Y-386720D01*
Y-385800D01*
G02X-15170Y-384340I911J1460D01*
G02X-11730I1720J0D01*
G02X-12540Y-385800I-1721J0D01*
G01Y-387100D01*
G02X-12810Y-387740I-908J6D01*
G01X-14810Y-389740D01*
G02X-15450Y-390010I-646J638D01*
G01X-55000D01*
G02X-55640Y-389740I6J908D01*
G01X-62980Y-382410D01*
X-363000D01*
G02X-363640Y-382140I6J908D01*
G01X-408290Y-337490D01*
G02X-408560Y-336850I638J646D01*
G01Y-55950D01*
G02X-408290Y-55310I908J-6D01*
G01X-407040Y-54060D01*
G02X-406400Y-53790I646J-638D01*
G01X-356630D01*
X-348510Y-45670D01*
Y-38310D01*
X-348870D01*
X-348910Y-38470D01*
G02X-349160Y-38940I-891J172D01*
G01X-352210Y-41990D01*
G02X-352850Y-42260I-646J638D01*
G01X-406720D01*
X-410490Y-46030D01*
Y-338420D01*
X-361820Y-387090D01*
X-199430D01*
X-196340Y-384010D01*
G02X-195700Y-383740I646J-638D01*
G01X-64100D01*
G02X-63460Y-384010I-6J-908D01*
G01X-56520Y-390940D01*
X-12020D01*
X-9360Y-388280D01*
Y-385800D01*
G02X-10170Y-384340I911J1460D01*
G02X-6730I1720J0D01*
G02X-7540Y-385800I-1721J0D01*
G01Y-388660D01*
G02X-7810Y-389300I-908J6D01*
G01X-11000Y-392490D01*
G02X-11640Y-392760I-646J638D01*
G01X-56900D01*
G02X-57540Y-392490I6J908D01*
G01X-64480Y-385560D01*
X-195320D01*
X-198410Y-388640D01*
G02X-199050Y-388910I-646J638D01*
G01X-362200D01*
G02X-362840Y-388640I6J908D01*
G01X-412040Y-339440D01*
G02X-412310Y-338800I638J646D01*
G01Y-45650D01*
G02X-412040Y-45010I908J-6D01*
G01X-407740Y-40710D01*
G02X-407100Y-40440I646J-638D01*
G01X-353230D01*
X-350710Y-37920D01*
Y-13780D01*
X-353250Y-11240D01*
X-354040D01*
G02X-354370Y-11630I-1464J904D01*
G01X-354440Y-11690D01*
Y-11980D01*
X-354010D01*
G02X-353370Y-12250I-6J-908D01*
G01X-351810Y-13810D01*
G02X-351540Y-14450I-638J-646D01*
G01Y-35060D01*
G02X-351810Y-35700I-908J6D01*
G01X-354700Y-38590D01*
G02X-355340Y-38860I-646J638D01*
G01X-409780D01*
X-414440Y-43520D01*
Y-340470D01*
X-363870Y-391040D01*
X-197780D01*
X-193740Y-387010D01*
G02X-193100Y-386740I646J-638D01*
G01X-142200D01*
G02X-141560Y-387010I-6J-908D01*
G01X-134070Y-394490D01*
X-5780D01*
X-4310Y-393020D01*
Y-390640D01*
X-4320Y-390610D01*
G02X-4360Y-390340I870J267D01*
G01Y-385800D01*
G02X-5170Y-384340I911J1460D01*
G02X-1730I1720J0D01*
G02X-2540Y-385800I-1721J0D01*
G01Y-390090D01*
X-2530Y-390120D01*
G02X-2490Y-390390I-870J-267D01*
G01Y-393400D01*
G02X-2760Y-394040I-908J6D01*
G01X-4760Y-396040D01*
G02X-5400Y-396310I-646J638D01*
G01X-134450D01*
G02X-135090Y-396040I6J908D01*
G01X-142580Y-388560D01*
X-162850D01*
G03X-163090Y-389280I1J-400D01*
G02X-162420Y-390640I-1045J-1360D01*
G02X-165860I-1720J0D01*
G02X-165190Y-389280I1715J0D01*
G03X-165430Y-388560I-241J320D01*
G01X-192720D01*
X-196760Y-392590D01*
G02X-197400Y-392860I-646J638D01*
G01X-364250D01*
G02X-364890Y-392590I6J908D01*
G01X-415990Y-341490D01*
G02X-416260Y-340850I638J646D01*
G01Y-43140D01*
G02X-415990Y-42500I908J-6D01*
G01X-410800Y-37310D01*
G02X-410160Y-37040I646J-638D01*
G01X-355720D01*
X-353360Y-34680D01*
Y-14830D01*
X-353710Y-14480D01*
X-353940Y-14710D01*
X-353890Y-14830D01*
G02X-353780Y-15450I-1613J-606D01*
G02X-354590Y-16910I-1721J0D01*
G01Y-32090D01*
G02X-354860Y-32730I-908J6D01*
G01X-358420Y-36290D01*
G02X-359060Y-36560I-646J638D01*
G01X-412530D01*
X-418090Y-42120D01*
Y-342020D01*
X-365520Y-394590D01*
X-140800D01*
G02X-140160Y-394860I-6J-908D01*
G01X-137220Y-397790D01*
X-1330D01*
X640Y-395820D01*
Y-385800D01*
G02X-170Y-384340I911J1460D01*
G02X3270I1720J0D01*
G02X2460Y-385800I-1721J0D01*
G01Y-396200D01*
G02X2190Y-396840I-908J6D01*
G01X-310Y-399340D01*
G02X-950Y-399610I-646J638D01*
G01X-51670D01*
G03X-51900Y-400330I5J-398D01*
G02X-50060Y-403940I-2621J-3610D01*
G02X-51630Y-407330I-4445J0D01*
G03X-51370Y-408040I254J-310D01*
G01X3660D01*
X5890Y-405810D01*
Y-387070D01*
G02X5640Y-386440I669J630D01*
G01Y-385800D01*
G02X4830Y-384340I911J1460D01*
G02X8270I1720J0D01*
G02X7540Y-385740I-1707J0D01*
G01X7460Y-385800D01*
Y-386060D01*
X7510Y-386110D01*
G02X7710Y-386690I-713J-570D01*
G01Y-406190D01*
G02X7440Y-406830I-908J6D01*
G01X4680Y-409590D01*
G02X4040Y-409860I-646J638D01*
G01X-58700D01*
G02X-59340Y-409590I6J908D01*
G01X-66030Y-402910D01*
X-104470D01*
X-109040Y-407470D01*
G02X-109680Y-407740I-646J638D01*
G01X-110480D01*
G03X-110850Y-408290I-1J-399D01*
G02X-110730Y-408930I-1602J-632D01*
G02X-111040Y-409910I-1719J5D01*
G03X-110710Y-410540I329J-229D01*
G01X-100050D01*
G02X-99410Y-410810I-6J-908D01*
G01X-93920Y-416290D01*
X-80470D01*
G03X-80100Y-415740I1J399D01*
G02X-80220Y-415100I1602J632D01*
G02X-76780I1720J0D01*
G02X-76900Y-415740I-1722J-8D01*
G03X-76530Y-416290I369J-151D01*
G01X33850D01*
G02X34490Y-416560I-6J-908D01*
G01X38990Y-421060D01*
G02X39260Y-421700I-638J-646D01*
G01Y-430990D01*
G02X40070Y-432450I-911J-1460D01*
G02X36630I-1720J0D01*
G02X37440Y-430990I1721J0D01*
G01Y-422080D01*
X33470Y-418110D01*
X-94300D01*
G02X-94940Y-417840I6J908D01*
G01X-100430Y-412360D01*
X-147200D01*
G02X-147840Y-412090I6J908D01*
G01X-157530Y-402410D01*
X-207050D01*
G03X-207400Y-403010I-3J-400D01*
G02X-207180Y-403850I-1494J-840D01*
G02X-207620Y-405000I-1723J0D01*
G03Y-405260I151J-130D01*
G02X-207180Y-406410I-1283J-1150D01*
G02X-207510Y-407420I-1711J0D01*
G03X-207190Y-408060I321J-240D01*
G01X-205950D01*
X-201190Y-403310D01*
G02X-200550Y-403040I646J-638D01*
G01X-159740D01*
G02X-159100Y-403310I-6J-908D01*
G01X-147560Y-414840D01*
X-109500D01*
G02X-108860Y-415110I-6J-908D01*
G01X-105120Y-418840D01*
X20250D01*
G02X20890Y-419110I-6J-908D01*
G01X22640Y-420860D01*
G02X22910Y-421500I-638J-646D01*
G01Y-430940D01*
G02X23720Y-432400I-911J-1460D01*
G02X23330Y-433490I-1718J0D01*
G03X23640Y-434140I312J-250D01*
G01X27220D01*
X28470Y-432890D01*
X28450Y-432790D01*
G02X28430Y-432500I1702J263D01*
G02X30150Y-434220I1720J0D01*
G02X29860Y-434200I-27J1722D01*
G01X29760Y-434180D01*
X28240Y-435690D01*
G02X27600Y-435960I-646J638D01*
G01X19910D01*
G02X19270Y-435690I6J908D01*
G01X17520Y-433940D01*
G02X17250Y-433300I638J646D01*
G01Y-429580D01*
X14880Y-427210D01*
X-300D01*
G02X-940Y-426940I6J908D01*
G01X-4780Y-423110D01*
X-105860D01*
G03X-106230Y-423660I3J-401D01*
G02X-106110Y-424280I-1598J-631D01*
G02X-109550I-1720J0D01*
G02X-109430Y-423660I1718J-11D01*
G03X-109800Y-423110I-373J149D01*
G01X-151690D01*
G02X-152330Y-422840I6J908D01*
G01X-167970Y-407210D01*
X-182090D01*
G03X-182380Y-407880I5J-400D01*
G02X-181930Y-409040I-1270J-1160D01*
G02X-185370I-1720J0D01*
G02X-184920Y-407880I1720J0D01*
G03X-185210Y-407210I-295J270D01*
G01X-195320D01*
X-200290Y-412170D01*
G02X-200930Y-412440I-646J638D01*
G01X-206660D01*
G02X-208120Y-413250I-1460J911D01*
G02X-209840Y-411530I0J1720D01*
G02X-209250Y-410230I1727J0D01*
G01X-209180Y-410170D01*
Y-409880D01*
X-209920D01*
G02X-211380Y-410690I-1460J911D01*
G02Y-407250I0J1720D01*
G02X-211040Y-407280I19J-1722D01*
G03X-210580Y-406800I73J390D01*
G02X-210620Y-406410I1682J370D01*
G02X-210180Y-405260I1723J0D01*
G03Y-405000I-151J130D01*
G02X-210620Y-403850I1283J1150D01*
G02X-210400Y-403010I1714J0D01*
G03X-210750Y-402410I-347J200D01*
G01X-212970D01*
X-214890Y-404330D01*
Y-411520D01*
X-213230Y-413180D01*
X-212840D01*
G02X-211380Y-412370I1460J-911D01*
G02Y-415810I0J-1720D01*
G02X-212840Y-415000I0J1721D01*
G01X-213610D01*
G02X-214250Y-414730I6J908D01*
G01X-216440Y-412540D01*
G02X-216710Y-411900I638J646D01*
G01Y-403950D01*
G02X-216440Y-403310I908J-6D01*
G01X-213990Y-400860D01*
G02X-213350Y-400590I646J-638D01*
G01X-157150D01*
G02X-156510Y-400860I-6J-908D01*
G01X-146820Y-410540D01*
X-114190D01*
G03X-113860Y-409910I1J401D01*
G02X-114170Y-408930I1409J985D01*
G02X-114050Y-408290I1722J8D01*
G03X-114420Y-407740I-369J151D01*
G01X-118500D01*
X-119880Y-409110D01*
G02X-120520Y-409380I-646J638D01*
G01X-144780D01*
G02X-145420Y-409110I6J908D01*
G01X-155380Y-399160D01*
X-368350D01*
G02X-368990Y-398890I6J908D01*
G01X-423840Y-344040D01*
G02X-424110Y-343400I638J646D01*
G01Y-38160D01*
G02X-423840Y-37520I908J-6D01*
G01X-417430Y-31110D01*
G02X-416790Y-30840I646J-638D01*
G01X-362140D01*
X-360160Y-28860D01*
Y-19470D01*
G02X-360970Y-18010I911J1460D01*
G02X-357530I1720J0D01*
G02X-358340Y-19470I-1721J0D01*
G01Y-29240D01*
G02X-358610Y-29880I-908J6D01*
G01X-361120Y-32390D01*
G02X-361760Y-32660I-646J638D01*
G01X-416410D01*
X-422290Y-38540D01*
Y-343020D01*
X-367970Y-397340D01*
X-155000D01*
G02X-154360Y-397610I-6J-908D01*
G01X-144400Y-407560D01*
X-120900D01*
X-119520Y-406190D01*
G02X-118880Y-405920I646J-638D01*
G01X-113700D01*
G03X-113470Y-405200I-5J398D01*
G02X-114170Y-403810I1030J1390D01*
G02X-113730Y-402660I1723J0D01*
G03Y-402400I-151J130D01*
G02X-114170Y-401250I1283J1150D01*
G02X-113850Y-400240I1723J10D01*
G03X-114170Y-399610I-323J232D01*
G01X-137600D01*
G02X-138240Y-399340I6J908D01*
G01X-141180Y-396410D01*
X-365900D01*
G02X-366540Y-396140I6J908D01*
G01X-419640Y-343040D01*
G02X-419910Y-342400I638J646D01*
G01Y-41740D01*
G02X-419640Y-41100I908J-6D01*
G01X-413550Y-35010D01*
G02X-412910Y-34740I646J-638D01*
G01X-359440D01*
X-356410Y-31710D01*
Y-16910D01*
G02X-357220Y-15450I911J1460D01*
G02X-356890Y-14440I1711J0D01*
G03X-357210Y-13800I-321J240D01*
G01X-357790D01*
G02X-359250Y-14610I-1460J911D01*
G02Y-11170I0J1720D01*
G02X-357790Y-11980I0J-1721D01*
G01X-357210D01*
G03X-356890Y-11340I-1J400D01*
G02X-357220Y-10330I1381J1010D01*
G02X-357020Y-9530I1719J-5D01*
G03X-357170Y-9010I-356J179D01*
G02X-357330Y-8870I515J750D01*
G01X-357530Y-8680D01*
X-357790D01*
X-357850Y-8760D01*
G02X-359250Y-9490I-1400J977D01*
G02Y-6050I0J1720D01*
G02X-357790Y-6860I0J-1721D01*
G01X-357150D01*
G02X-356510Y-7130I-6J-908D01*
G01X-356310Y-7320D01*
X-355500D01*
Y-6940D01*
X-355680Y-6920D01*
G37*
G36*
G01X-75290Y365190D02*
G02X-74650Y365460I646J-638D01*
G01X97500D01*
G02X98140Y365190I-6J-908D01*
G01X104240Y359090D01*
G02X104510Y358450I-638J-646D01*
G01Y329950D01*
X105550Y328910D01*
G02X107310Y329380I1760J-3060D01*
G02X110670Y326910I0J-3520D01*
G01X110710Y326770D01*
X329240D01*
G02X329880Y326500I-6J-908D01*
G01X368040Y288340D01*
G02X368310Y287700I-638J-646D01*
G01Y77460D01*
G02X368040Y76820I-908J6D01*
G01X361230Y70000D01*
X368040Y63180D01*
G02X368310Y62540I-638J-646D01*
G01Y-102610D01*
G02X368040Y-103250I-908J6D01*
G01X363340Y-107950D01*
G02X362700Y-108220I-646J638D01*
G01X329260D01*
X329220Y-108360D01*
G02X328910Y-109070I-3362J1045D01*
G01X333490Y-113660D01*
G02X333760Y-114300I-638J-646D01*
G01Y-240800D01*
G02X333490Y-241440I-908J6D01*
G01X326790Y-248140D01*
G02X326150Y-248410I-646J638D01*
G01X289480D01*
X281380Y-256500D01*
G02X280740Y-256770I-646J638D01*
G01X231950D01*
X231910Y-256910D01*
G02X229350Y-259290I-3361J1048D01*
G03X229160Y-259960I91J-388D01*
G01X229640Y-260450D01*
G02X229910Y-261090I-638J-646D01*
G01Y-293100D01*
G02X229640Y-293740I-908J6D01*
G01X221640Y-301740D01*
G02X221000Y-302010I-646J638D01*
G01X165530D01*
X162310Y-305230D01*
Y-337500D01*
G02X162040Y-338140I-908J6D01*
G01X156390Y-343790D01*
G02X155750Y-344060I-646J638D01*
G01X77290D01*
G02X76650Y-343790I6J908D01*
G01X71760Y-338910D01*
G02X71050Y-339220I-1755J3052D01*
G01X70910Y-339260D01*
Y-348100D01*
G02X70640Y-348740I-908J6D01*
G01X66140Y-353240D01*
G02X65500Y-353510I-646J638D01*
G01X-102800D01*
G02X-103440Y-353240I6J908D01*
G01X-107950Y-348730D01*
G02X-108220Y-348090I638J646D01*
G01Y-329260D01*
X-108360Y-329220D01*
G02X-109070Y-328910I1045J3362D01*
G01X-109710Y-329540D01*
G02X-110350Y-329810I-646J638D01*
G01X-187130D01*
X-195650Y-338330D01*
Y-365480D01*
G02X-194840Y-366940I-911J-1460D01*
G02X-198280I-1720J0D01*
G02X-197470Y-365480I1721J0D01*
G01Y-338330D01*
X-204690Y-331110D01*
X-248150D01*
G02X-248790Y-330840I6J908D01*
G01X-256500Y-323130D01*
G02X-256770Y-322490I638J646D01*
G01Y-231950D01*
X-256910Y-231910D01*
G02X-257620Y-231600I1045J3362D01*
G01X-266420Y-240390D01*
G02X-267060Y-240660I-646J638D01*
G01X-349050D01*
G02X-349690Y-240390I6J908D01*
G01X-363740Y-226340D01*
G02X-364010Y-225700I638J646D01*
G01Y-70000D01*
G02X-363100Y-69090I910J0D01*
G01X-350660D01*
Y-64430D01*
G02X-350390Y-63790I908J-6D01*
G01X-343960Y-57350D01*
Y27620D01*
X-349930Y33590D01*
X-368100D01*
G02X-368740Y33860I6J908D01*
G01X-371490Y36610D01*
G02X-371760Y37250I638J646D01*
G01Y101750D01*
G02X-371490Y102390I908J-6D01*
G01X-365930Y107950D01*
G02X-365290Y108220I646J-638D01*
G01X-329260D01*
X-329220Y108360D01*
G02X-325860Y110830I3360J-1050D01*
G02Y103790I0J-3520D01*
G02X-329220Y106260I0J3520D01*
G01X-329260Y106400D01*
X-364910D01*
X-369940Y101370D01*
Y37630D01*
X-367720Y35410D01*
X-349550D01*
G02X-348910Y35140I-6J-908D01*
G01X-343440Y29680D01*
G03X-342760Y29960I281J284D01*
G01Y50420D01*
X-345240Y52910D01*
G02X-345510Y53550I638J646D01*
G01Y98790D01*
G02X-346320Y100250I911J1460D01*
G02X-342880I1720J0D01*
G02X-343690Y98790I-1721J0D01*
G01Y53930D01*
X-340670Y50910D01*
X-339260D01*
X-339220Y51050D01*
G02X-335860Y53520I3360J-1050D01*
G02Y46480I0J-3520D01*
G02X-339220Y48950I0J3520D01*
G01X-339260Y49090D01*
X-340940D01*
Y29020D01*
X-339860Y27930D01*
G02X-339590Y27290I-638J-646D01*
G01Y22070D01*
G03X-338850Y21860I399J-1D01*
G02X-335860Y23520I2990J-1863D01*
G02Y16480I0J-3520D01*
G02X-338850Y18140I0J3523D01*
G03X-339590Y17930I-341J-209D01*
G01Y12070D01*
G03X-338850Y11860I399J-1D01*
G02X-335860Y13520I2990J-1863D01*
G02X-332500Y11050I0J-3520D01*
G01X-332460Y10910D01*
X-327460D01*
G02X-326000Y11720I1460J-911D01*
G02Y8280I0J-1720D01*
G02X-327460Y9090I0J1721D01*
G01X-332460D01*
X-332500Y8950D01*
G02X-335860Y6480I-3360J1050D01*
G02X-338850Y8140I0J3523D01*
G03X-339590Y7930I-341J-209D01*
G01Y2070D01*
G03X-338850Y1860I399J-1D01*
G02X-335860Y3520I2990J-1863D01*
G02X-332500Y1050I0J-3520D01*
G01X-332460Y910D01*
X-322460D01*
G02X-321000Y1720I1460J-911D01*
G02Y-1720I0J-1720D01*
G02X-322460Y-910I0J1721D01*
G01X-332460D01*
X-332500Y-1050D01*
G02X-335860Y-3520I-3360J1050D01*
G02X-338850Y-1860I0J3523D01*
G03X-339590Y-2070I-341J-209D01*
G01Y-7930D01*
G03X-338850Y-8140I399J-1D01*
G02X-335860Y-6480I2990J-1863D01*
G02X-332500Y-8950I0J-3520D01*
G01X-332460Y-9090D01*
X-317460D01*
G02X-316000Y-8280I1460J-911D01*
G02Y-11720I0J-1720D01*
G02X-317460Y-10910I0J1721D01*
G01X-332460D01*
X-332500Y-11050D01*
G02X-335860Y-13520I-3360J1050D01*
G02X-338850Y-11860I0J3523D01*
G03X-339590Y-12070I-341J-209D01*
G01Y-17930D01*
G03X-338850Y-18140I399J-1D01*
G02X-335860Y-16480I2990J-1863D01*
G02X-332500Y-18950I0J-3520D01*
G01X-332460Y-19090D01*
X-312460D01*
G02X-311000Y-18280I1460J-911D01*
G02Y-21720I0J-1720D01*
G02X-312460Y-20910I0J1721D01*
G01X-332460D01*
X-332500Y-21050D01*
G02X-335860Y-23520I-3360J1050D01*
G02X-338850Y-21860I0J3523D01*
G03X-339590Y-22070I-341J-209D01*
G01Y-27930D01*
G03X-338850Y-28140I399J-1D01*
G02X-335860Y-26480I2990J-1863D01*
G02X-332500Y-28950I0J-3520D01*
G01X-332460Y-29090D01*
X-307460D01*
G02X-306000Y-28280I1460J-911D01*
G02Y-31720I0J-1720D01*
G02X-307460Y-30910I0J1721D01*
G01X-332460D01*
X-332500Y-31050D01*
G02X-335860Y-33520I-3360J1050D01*
G02X-338850Y-31860I0J3523D01*
G03X-339590Y-32070I-341J-209D01*
G01Y-37930D01*
G03X-338850Y-38140I399J-1D01*
G02X-335860Y-36480I2990J-1863D01*
G02X-332500Y-38950I0J-3520D01*
G01X-332460Y-39090D01*
X-302460D01*
G02X-301000Y-38280I1460J-911D01*
G02Y-41720I0J-1720D01*
G02X-302460Y-40910I0J1721D01*
G01X-332460D01*
X-332500Y-41050D01*
G02X-335860Y-43520I-3360J1050D01*
G02X-338850Y-41860I0J3523D01*
G03X-339590Y-42070I-341J-209D01*
G01Y-47930D01*
G03X-338850Y-48140I399J-1D01*
G02X-335860Y-46480I2990J-1863D01*
G02X-332500Y-48950I0J-3520D01*
G01X-332460Y-49090D01*
X-297460D01*
G02X-296000Y-48280I1460J-911D01*
G02Y-51720I0J-1720D01*
G02X-297460Y-50910I0J1721D01*
G01X-332460D01*
X-332500Y-51050D01*
G02X-335860Y-53520I-3360J1050D01*
G02X-338850Y-51860I0J3523D01*
G03X-339590Y-52070I-341J-209D01*
G01Y-57020D01*
G02X-339860Y-57660I-908J6D01*
G01X-340940Y-58750D01*
Y-59500D01*
G02X-341210Y-60140I-908J6D01*
G01X-342920Y-61860D01*
X-342900Y-61960D01*
G02X-342880Y-62250I-1702J-263D01*
G02X-344600Y-63970I-1720J0D01*
G02X-346180Y-62930I0J1720D01*
G03X-346830Y-62800I-369J-153D01*
G01X-348840Y-64810D01*
Y-69090D01*
X-339260D01*
X-339220Y-68950D01*
G02X-335860Y-66480I3360J-1050D01*
G02Y-73520I0J-3520D01*
G02X-339220Y-71050I0J3520D01*
G01X-339260Y-70910D01*
X-362190D01*
Y-225320D01*
X-348670Y-238840D01*
X-267440D01*
X-258910Y-230310D01*
G02X-259380Y-228550I3060J1760D01*
G02X-252340I3520J0D01*
G02X-254810Y-231910I-3520J0D01*
G01X-254950Y-231950D01*
Y-322110D01*
X-247770Y-329290D01*
X-204310D01*
G02X-203670Y-329560I-6J-908D01*
G01X-196560Y-336660D01*
X-188150Y-328260D01*
G02X-187510Y-327990I646J-638D01*
G01X-110730D01*
X-110360Y-327620D01*
X-110430Y-327490D01*
G02X-110830Y-325860I3121J1630D01*
G02X-103790I3520J0D01*
G02X-106260Y-329220I-3520J0D01*
G01X-106400Y-329260D01*
Y-347710D01*
X-102420Y-351690D01*
X65120D01*
X69090Y-347720D01*
Y-339260D01*
X68950Y-339220D01*
G02X66480Y-335860I1050J3360D01*
G02X73520I3520J0D01*
G02X73050Y-337620I-3530J0D01*
G01X77670Y-342240D01*
X155370D01*
X160490Y-337120D01*
Y-304850D01*
G02X160760Y-304210I908J-6D01*
G01X164510Y-300460D01*
G02X165150Y-300190I646J-638D01*
G01X220620D01*
X228090Y-292720D01*
Y-261470D01*
X226900Y-260270D01*
G02X226630Y-259630I638J646D01*
G02X226660Y-259390I911J8D01*
G01X226790Y-258910D01*
X226670Y-258830D01*
G02X225030Y-255860I1869J2970D01*
G02X228550Y-252340I3520J0D01*
G02X231910Y-254810I0J-3520D01*
G01X231950Y-254950D01*
X280360D01*
X288460Y-246860D01*
G02X289100Y-246590I646J-638D01*
G01X325770D01*
X331940Y-240420D01*
Y-114680D01*
X327620Y-110360D01*
X327490Y-110430D01*
G02X325860Y-110830I-1630J3121D01*
G02Y-103790I0J3520D01*
G02X329220Y-106260I0J-3520D01*
G01X329260Y-106400D01*
X362320D01*
X366490Y-102230D01*
Y62160D01*
X359560Y69090D01*
X339260D01*
X339220Y68950D01*
G02X336940Y66650I-3360J1050D01*
G01X336800Y66610D01*
Y66260D01*
X337500D01*
G02X338140Y65990I-6J-908D01*
G01X344440Y59690D01*
G02X344710Y59050I-638J-646D01*
G01Y-46750D01*
G02X344440Y-47390I-908J6D01*
G01X341190Y-50640D01*
G02X340550Y-50910I-646J638D01*
G01X339260D01*
X339220Y-51050D01*
G02X335860Y-53520I-3360J1050D01*
G02Y-46480I0J3520D01*
G02X339220Y-48950I0J-3520D01*
G01X339260Y-49090D01*
X340170D01*
X342890Y-46370D01*
Y58670D01*
X337120Y64440D01*
X331850D01*
G02X331210Y64710I6J908D01*
G01X329110Y66810D01*
G02X328840Y67450I638J646D01*
G01Y75450D01*
G02X329110Y76090I908J-6D01*
G01X331460Y78440D01*
G02X332100Y78710I646J-638D01*
G01X338570D01*
X342890Y83030D01*
Y116220D01*
X332120Y126990D01*
X319510D01*
X318910Y126390D01*
G02X319380Y124630I-3060J-1760D01*
G02X315860Y128150I-3520J0D01*
G02X317490Y127750I0J-3521D01*
G01X317620Y127680D01*
X318490Y128540D01*
G02X319130Y128810I646J-638D01*
G01X332500D01*
G02X333140Y128540I-6J-908D01*
G01X342210Y119480D01*
G03X342890Y119760I281J284D01*
G01Y223840D01*
G02X342080Y225300I911J1460D01*
G02X345520I1720J0D01*
G02X344710Y223840I-1721J0D01*
G01Y82650D01*
G02X344440Y82010I-908J6D01*
G01X339590Y77160D01*
G02X338950Y76890I-646J638D01*
G01X332480D01*
X330660Y75070D01*
Y67830D01*
X332230Y66260D01*
X333810D01*
G03X334020Y67000I-1J400D01*
G02X332340Y70000I1839J3000D01*
G02X335860Y73520I3520J0D01*
G02X339220Y71050I0J-3520D01*
G01X339260Y70910D01*
X359560D01*
X366490Y77840D01*
Y222620D01*
X359520Y229590D01*
X259480D01*
X259260Y229460D01*
X259300Y229320D01*
G02X259380Y228550I-3442J-747D01*
G02X255860Y232070I-3520J0D01*
G02X258240Y231140I0J-3510D01*
G01X258350Y231040D01*
X258790Y231290D01*
G02X259240Y231410I450J-784D01*
G01X359900D01*
G02X360540Y231140I-6J-908D01*
G01X365810Y225880D01*
G03X366490Y226160I281J284D01*
G01Y287320D01*
X328860Y324950D01*
X110710D01*
X110670Y324810D01*
G02X107310Y322340I-3360J1050D01*
G02X103790Y325860I0J3520D01*
G02X104190Y327490I3521J0D01*
G01X104260Y327620D01*
X102960Y328930D01*
G02X102690Y329570I638J646D01*
G01Y358070D01*
X97120Y363640D01*
X-74270D01*
X-79010Y358900D01*
X-69360Y349240D01*
G02X-69090Y348600I-638J-646D01*
G01Y339260D01*
X-68950Y339220D01*
G02X-66480Y335860I-1050J-3360D01*
G02X-73520I-3520J0D01*
G02X-71050Y339220I3520J0D01*
G01X-70910Y339260D01*
Y348220D01*
X-80680Y357990D01*
X-212470D01*
X-227640Y342820D01*
Y259260D01*
X-227500Y259220D01*
G02X-225030Y255860I-1050J-3360D01*
G02X-232070I-3520J0D01*
G02X-229600Y259220I3520J0D01*
G01X-229460Y259260D01*
Y343200D01*
G02X-229190Y343840I908J-6D01*
G01X-213490Y359540D01*
G02X-212850Y359810I646J-638D01*
G01X-80680D01*
X-75290Y365190D01*
G37*
G54D20*
X435000Y435000D03*
X-435000D03*
X-400000Y400000D03*
X400000D03*
X-400000Y-400000D03*
X400000D03*
G54D22*
X-183650Y-419280D03*
X-187400Y-421840D03*
Y-426960D03*
Y-411600D03*
X-183650Y-414160D03*
X-187400Y-416720D03*
X24310Y358400D03*
X-359250Y-2650D03*
X-355500Y-90D03*
X-74620Y-359950D03*
X-89490Y-329920D03*
X116100Y-350530D03*
X-85660Y-333350D03*
X-90080Y-334140D03*
X31550Y-384340D03*
X-58960Y-413040D03*
X21550Y-384340D03*
X-322250Y-157820D03*
X41550Y-384340D03*
X46550D03*
X16550D03*
X26550D03*
X-74460Y-348350D03*
X36550Y-384340D03*
X-185470Y-304910D03*
X347450Y-74460D03*
X359050Y-74620D03*
X110220Y-339400D03*
X-362650Y24460D03*
X274760Y-244800D03*
X264490Y-239080D03*
X348130Y117850D03*
X337800Y110720D03*
X244850Y276360D03*
X238630Y265090D03*
X74520Y360950D03*
X74310Y349850D03*
X-116250Y348480D03*
X-110070Y338300D03*
X-264140Y238630D03*
X-274460Y244700D03*
X-349500Y74310D03*
X-360150Y74520D03*
X-338750Y-110370D03*
X-349230Y-117050D03*
X-239280Y-266040D03*
X-245600Y-276510D03*
X-298590Y199780D03*
X-158020Y321000D03*
X157970Y-321600D03*
X192170Y301810D03*
X321350Y158220D03*
X360400Y-24410D03*
X297990Y-200430D03*
X-405200Y27750D03*
X164900Y-393800D03*
X-204440Y-358560D03*
X-183650Y-424400D03*
X54650Y-432450D03*
X62900Y-432400D03*
X-218150Y-302950D03*
X430150Y-39450D03*
X-272400Y-414150D03*
X436950Y143100D03*
X397850D03*
X-268650Y-416710D03*
Y-411590D03*
X204500Y-354600D03*
X395850Y-39450D03*
X-268650Y-426950D03*
X-272400Y-429510D03*
X-268650Y-421830D03*
X-272400Y-424390D03*
X-50800Y-432100D03*
X194240Y-352040D03*
X-405000Y169000D03*
X-442400Y27750D03*
X-329200Y273700D03*
X-272400Y-419270D03*
X-218150Y-287050D03*
X-58900Y-432050D03*
X-186650Y-377660D03*
X46500Y-432350D03*
X-2300Y-432250D03*
X5800Y-432300D03*
X-435200Y169000D03*
X-209750Y-372250D03*
X77100Y-436650D03*
X354200Y-319850D03*
X84150Y-433800D03*
X-66200Y-408100D03*
X-81600Y-431350D03*
X-78500Y-434150D03*
X-208120Y-416650D03*
X-103000Y-427050D03*
X-208120Y-421760D03*
X-211380Y-419200D03*
X-105300Y-431350D03*
X-99700Y-434150D03*
X315180Y168910D03*
X-74150Y-411500D03*
X-76550Y-438000D03*
G54D21*
X335860Y-20000D03*
Y-30000D03*
Y-40000D03*
Y-60000D03*
Y-70000D03*
X150610Y-300860D03*
X141950Y-305860D03*
X133290Y-310860D03*
X124630Y-315860D03*
X115970Y-320860D03*
X107310Y-325860D03*
X185250Y280860D03*
X193910Y275860D03*
X202570Y270860D03*
X219890Y260860D03*
X228550Y255860D03*
X-150610Y300860D03*
X-141950Y305860D03*
X-133290Y310860D03*
X-124630Y315860D03*
X-115970Y320860D03*
X-107310Y325860D03*
X-335860Y30000D03*
Y40000D03*
Y60000D03*
Y70000D03*
X-20000Y-335860D03*
X-30000D03*
X-40000D03*
X-50000D03*
X-60000D03*
X-70000D03*
X300860Y150610D03*
X305860Y141950D03*
X310860Y133290D03*
X320860Y115970D03*
X325860Y107310D03*
X280860Y-185250D03*
X275860Y-193910D03*
X270860Y-202570D03*
X260860Y-219890D03*
X255860Y-228550D03*
X20000Y335860D03*
X30000D03*
X40000D03*
X60000D03*
X70000D03*
X-280860Y185250D03*
X-275860Y193910D03*
X-270860Y202570D03*
X-260860Y219890D03*
X-255860Y228550D03*
X-300860Y-150610D03*
X-305860Y-141950D03*
X-310860Y-133290D03*
X-315860Y-124630D03*
X-320860Y-115970D03*
X-325860Y-107310D03*
X-185250Y-280860D03*
X-193910Y-275860D03*
X-202570Y-270860D03*
X-219890Y-260860D03*
X-228550Y-255860D03*
G54D23*
X52690Y-403940D03*
%LPD*%
G75*
G36*
G01X-342140Y-56890D02*
Y27160D01*
G02X-341800Y27300I199J-2D01*
G01X-341410Y26910D01*
Y-56640D01*
X-341800Y-57030D01*
G02X-342140Y-56890I-141J142D01*
G37*
G36*
G01X-200170Y-404860D02*
X-160120D01*
X-148580Y-416390D01*
G03X-147940Y-416660I646J638D01*
G01X-109880D01*
X-106140Y-420390D01*
G03X-105500Y-420660I646J638D01*
G01X19870D01*
X21090Y-421880D01*
Y-430940D01*
G03X20280Y-432400I911J-1460D01*
G03X20970Y-433780I1725J0D01*
G01X21050Y-433840D01*
Y-434140D01*
X20290D01*
X19070Y-432920D01*
Y-429200D01*
G03X18800Y-428560I-908J-6D01*
G01X15900Y-425660D01*
G03X15260Y-425390I-646J-638D01*
G01X8110D01*
G02X7810Y-424720I-5J400D01*
G03X8270Y-423550I-1258J1170D01*
G03X4830I-1720J0D01*
G03X5290Y-424720I1718J0D01*
G02X4990Y-425390I-295J-270D01*
G01X80D01*
X-3760Y-421560D01*
G03X-4400Y-421290I-646J-638D01*
G01X-106790D01*
G03X-106960Y-421270I-191J-888D01*
G01X-108700D01*
G03X-108870Y-421290I21J-908D01*
G01X-151310D01*
X-166950Y-405660D01*
G03X-167590Y-405390I-646J-638D01*
G01X-195700D01*
G03X-196340Y-405660I6J-908D01*
G01X-201310Y-410620D01*
X-206660D01*
G03X-206730Y-410520I-1442J-935D01*
G02X-206410Y-409880I321J240D01*
G01X-205570D01*
G03X-204930Y-409610I-6J908D01*
G01X-200170Y-404860D01*
G37*
G36*
G01X-110730Y-399610D02*
X-57350D01*
G02X-57120Y-400330I-5J-398D01*
G03X-58960Y-403940I2621J-3610D01*
G03X-57390Y-407330I4445J0D01*
G02X-57650Y-408040I-254J-310D01*
G01X-58320D01*
X-65010Y-401360D01*
G03X-65650Y-401090I-646J-638D01*
G01X-104850D01*
G03X-105490Y-401360I6J-908D01*
G01X-110060Y-405920D01*
X-111200D01*
G02X-111430Y-405200I5J398D01*
G03X-110730Y-403810I-1030J1390D01*
G03X-111170Y-402660I-1723J0D01*
G02Y-402400I151J130D01*
G03X-110730Y-401250I-1283J1150D01*
G03X-111050Y-400240I-1723J10D01*
G02X-110730Y-399610I323J232D01*
G37*
G36*
G01X274010Y-262530D02*
X289690D01*
G03X290670Y-263270I1458J912D01*
G02X290840Y-263940I-114J-386D01*
G01X289380Y-265390D01*
X274990D01*
G03X274350Y-265660I6J-908D01*
G01X269210Y-270800D01*
G03X268940Y-271440I638J-646D01*
G01Y-307600D01*
G03X269210Y-308240I908J6D01*
G01X271040Y-310080D01*
Y-316120D01*
X269210Y-317960D01*
G03X268940Y-318600I638J-646D01*
G01Y-360570D01*
X262270Y-367240D01*
X-35750D01*
G03X-36390Y-367510I6J-908D01*
G01X-39090Y-370210D01*
G03X-39360Y-370850I638J-646D01*
G01Y-382880D01*
G03X-40170Y-384340I911J-1460D01*
G03X-40010Y-385070I1721J-5D01*
G02X-40370Y-385640I-361J-171D01*
G01X-41530D01*
G02X-41890Y-385070I1J399D01*
G03X-41730Y-384340I-1561J725D01*
G03X-42540Y-382880I-1721J0D01*
G01Y-369430D01*
X-39820Y-366710D01*
X259650D01*
G03X260290Y-366440I-6J908D01*
G01X266090Y-360640D01*
G03X266360Y-360000I-638J646D01*
G01Y-270180D01*
X274010Y-262530D01*
G37*
G36*
G01X295960Y-257410D02*
X296420D01*
X298640Y-259630D01*
Y-269920D01*
X293770Y-274790D01*
X276300D01*
G03X275660Y-275060I6J-908D01*
G01X274210Y-276510D01*
G03X273940Y-277150I638J-646D01*
G01Y-361470D01*
X265270Y-370140D01*
X-29400D01*
G03X-30040Y-370410I6J-908D01*
G01X-34090Y-374460D01*
G03X-34360Y-375100I638J-646D01*
G01Y-382880D01*
G03X-35170Y-384340I911J-1460D01*
G03X-35010Y-385070I1721J-5D01*
G02X-35370Y-385640I-361J-171D01*
G01X-36530D01*
G02X-36890Y-385070I1J399D01*
G03X-36730Y-384340I-1561J725D01*
G03X-37540Y-382880I-1721J0D01*
G01Y-371230D01*
X-35370Y-369060D01*
X262650D01*
G03X263290Y-368790I-6J908D01*
G01X270490Y-361590D01*
G03X270760Y-360950I-638J646D01*
G01Y-318980D01*
X272590Y-317140D01*
G03X272860Y-316500I-638J646D01*
G01Y-309700D01*
G03X272590Y-309060I-908J-6D01*
G01X270760Y-307220D01*
Y-271820D01*
X275370Y-267210D01*
X289760D01*
G03X290400Y-266940I-6J908D01*
G01X295540Y-261800D01*
G03X295810Y-261160I-638J646D01*
G01Y-260520D01*
G03X296620Y-259060I-911J1460D01*
G03X296030Y-257760I-1727J0D01*
G01X295960Y-257700D01*
Y-257410D01*
G37*
G36*
G01X296360Y-254850D02*
X298310D01*
X300990Y-257530D01*
Y-272070D01*
X295170Y-277890D01*
X281900D01*
G03X281260Y-278160I6J-908D01*
G01X278010Y-281410D01*
G03X277740Y-282050I638J-646D01*
G01Y-364020D01*
X268570Y-373190D01*
X201100D01*
X201010Y-373110D01*
G03X200370Y-372840I-646J-638D01*
G01X-24550D01*
G03X-25190Y-373110I6J-908D01*
G01X-29090Y-377010D01*
G03X-29360Y-377650I638J-646D01*
G01Y-382880D01*
G03X-30170Y-384340I911J-1460D01*
G03X-30010Y-385070I1721J-5D01*
G02X-30370Y-385640I-361J-171D01*
G01X-31530D01*
G02X-31890Y-385070I1J399D01*
G03X-31730Y-384340I-1561J725D01*
G03X-32540Y-382880I-1721J0D01*
G01Y-375480D01*
X-29020Y-371960D01*
X265650D01*
G03X266290Y-371690I-6J908D01*
G01X275490Y-362490D01*
G03X275760Y-361850I-638J646D01*
G01Y-277530D01*
X276680Y-276610D01*
X294150D01*
G03X294790Y-276340I-6J908D01*
G01X300190Y-270940D01*
G03X300460Y-270300I-638J646D01*
G01Y-259250D01*
G03X300190Y-258610I-908J-6D01*
G01X297440Y-255860D01*
G03X296800Y-255590I-646J-638D01*
G01X296610D01*
G02X296290Y-254950I1J400D01*
G03X296360Y-254850I-1372J1035D01*
G37*
%LPC*%
G75*
G54D22*
X16550Y-423550D03*
%LPD*%
G75*
G54D10*
X-435000Y-435000D03*
Y435000D03*
X-400000Y-400000D03*
Y400000D03*
X400000Y-400000D03*
Y400000D03*
X435000Y-435000D03*
Y435000D03*
G54D11*
X-425700Y-47300D03*
X-421100Y-25500D03*
X-421090Y-22940D03*
X-430660Y-2470D03*
Y-5030D03*
Y2650D03*
Y90D03*
X-442400Y27750D03*
X-435200Y169000D03*
X-403600Y-47600D03*
X-407730Y-20380D03*
X-399040Y-22940D03*
X-399050Y-25500D03*
X-405200Y27750D03*
X-405000Y169000D03*
X-359250Y-18010D03*
Y-12890D03*
Y-7770D03*
Y-2650D03*
X-362650Y24460D03*
X-360150Y52580D03*
Y74520D03*
X-330350Y-124930D03*
X-338270Y-136050D03*
X-338750Y-110370D03*
X-349230Y-117050D03*
X-344600Y-62250D03*
X-355500Y-15450D03*
Y-10330D03*
Y-5210D03*
Y-90D03*
X-349500Y57490D03*
Y74310D03*
X-344600Y100250D03*
X-338950Y161650D03*
X-329200Y273700D03*
X-322250Y-157820D03*
X-301000Y-40000D03*
X-316000Y-10000D03*
X-311000Y-20000D03*
X-306000Y-30000D03*
X-326000Y10000D03*
X-321000Y0D03*
X-298590Y199780D03*
X-268650Y-426950D03*
X-272400Y-429510D03*
Y-424390D03*
X-268650Y-421830D03*
Y-411590D03*
X-272400Y-414150D03*
X-268650Y-416710D03*
X-272400Y-419270D03*
X-287320Y-154340D03*
X-268660Y-166660D03*
X-277990Y-160500D03*
X-296000Y-50000D03*
X-291000Y-60000D03*
X-280670Y115860D03*
X-281340Y104700D03*
X-282010Y93540D03*
X-278660Y149340D03*
X-279330Y138180D03*
X-280000Y127020D03*
X-277320Y171660D03*
X-277990Y160500D03*
X-272560Y224070D03*
X-285440Y225700D03*
X-274460Y244700D03*
X-245600Y-276510D03*
X-239280Y-266040D03*
X-240670Y-185140D03*
X-259330Y-172820D03*
X-250000Y-178980D03*
X-264140Y238630D03*
X-218550Y-432000D03*
X-208900D03*
X-211380Y-424320D03*
X-208120Y-426880D03*
Y-421760D03*
X-230950Y-406410D03*
Y-403850D03*
X-218550Y-408970D03*
X-208900Y-403850D03*
Y-406410D03*
X-211380Y-408970D03*
X-208120Y-411530D03*
X-211380Y-414090D03*
X-208120Y-416650D03*
X-211380Y-419200D03*
X-209750Y-372250D03*
X-224750Y-384450D03*
X-218150Y-302950D03*
X-224720Y-274460D03*
X-226600Y-287490D03*
X-218150Y-287050D03*
X-231340Y-191300D03*
X-222010Y-197460D03*
X-237550Y341750D03*
X-196500Y-429440D03*
X-187400Y-426960D03*
Y-421840D03*
X-183650Y-424400D03*
X-187400Y-411600D03*
X-183650Y-414160D03*
X-187400Y-416720D03*
X-183650Y-419280D03*
Y-409040D03*
X-202700Y-385300D03*
X-186650Y-377660D03*
X-196560Y-366940D03*
X-204440Y-358560D03*
X-191960Y-352000D03*
X-185470Y-304910D03*
X-186650Y-321850D03*
X-191300Y231340D03*
X-197460Y222010D03*
X-178980Y250000D03*
X-185140Y240670D03*
X-164140Y-390640D03*
X-156250Y-372450D03*
X-177590Y-363350D03*
X-156450Y-351900D03*
X-177590Y-343000D03*
X-171660Y-277320D03*
X-149340Y-278660D03*
X-160500Y-277990D03*
X-166660Y268660D03*
X-172820Y259330D03*
X-154340Y287320D03*
X-160500Y277990D03*
X-158020Y321000D03*
X-143200Y-429400D03*
X-121150D03*
Y-426840D03*
X-143200Y-403810D03*
Y-401250D03*
X-134500Y-406370D03*
X-138180Y-279330D03*
X-127020Y-280000D03*
X-124630Y329900D03*
X-135250Y337520D03*
X-103000Y-427050D03*
X-107830Y-424280D03*
X-105300Y-431350D03*
X-99700Y-434150D03*
X-106300Y-438000D03*
X-112450Y-403810D03*
Y-401250D03*
Y-408930D03*
X-105910Y-390640D03*
X-90080Y-334140D03*
X-89490Y-329920D03*
X-115860Y-280670D03*
X-104700Y-281340D03*
X-93540Y-282010D03*
X-116250Y348480D03*
X-110070Y338300D03*
X-58900Y-447850D03*
Y-432050D03*
X-81600Y-431350D03*
X-78500Y-434150D03*
X-76550Y-438000D03*
X-66200Y-408100D03*
X-78500Y-415100D03*
X-74150Y-411500D03*
X-58960Y-413040D03*
X-64110Y-390640D03*
X-85660Y-333350D03*
X-74460Y-348350D03*
X-74620Y-359950D03*
X-57640Y-348350D03*
X-60000Y291000D03*
X-65200Y344810D03*
X-34650Y-447950D03*
X-42750D03*
X-50800Y-447900D03*
Y-432100D03*
X-42750Y-432150D03*
X-34650D03*
X-48450Y-384340D03*
X-47600Y-363150D03*
X-28450Y-384340D03*
X-33450D03*
X-38450D03*
X-43450D03*
X-52680Y-359950D03*
X-50000Y296000D03*
X-30000Y306000D03*
X-40000Y301000D03*
X-2300Y-448050D03*
X-10350Y-448000D03*
X-18400D03*
X-26500Y-447950D03*
Y-432150D03*
X-18400Y-432200D03*
X-10350D03*
X-2300Y-432250D03*
X-24610Y-360750D03*
X1550Y-384340D03*
X-3450D03*
X-8450D03*
X-13450D03*
X-18450D03*
X-23450D03*
X-10000Y-326000D03*
X0Y-321000D03*
X-10000Y316000D03*
X-20000Y311000D03*
X0Y321000D03*
X13850Y-448150D03*
X22000Y-448200D03*
X30150Y-448300D03*
X5800Y-448100D03*
Y-432300D03*
X22000Y-432400D03*
X30150Y-432500D03*
X16550Y-423550D03*
X6550D03*
X13850Y-432350D03*
X11550Y-384340D03*
X6550D03*
X31550D03*
X21550D03*
X16550D03*
X26550D03*
X21600Y-360200D03*
X29950D03*
X10000Y-316000D03*
X20000Y-311000D03*
X30000Y-306000D03*
X10000Y326000D03*
X24310Y358400D03*
X38350Y-448250D03*
X46500Y-448150D03*
X54650Y-448250D03*
X38350Y-432450D03*
X46500Y-432350D03*
X54650Y-432450D03*
X36550Y-384340D03*
X46550D03*
X41550D03*
X38050Y-360150D03*
X46150D03*
X54350Y-360200D03*
X40000Y-301000D03*
X50000Y-296000D03*
X60000Y-291000D03*
X57490Y349850D03*
X52580Y360950D03*
X62900Y-448200D03*
X84150Y-433800D03*
X77100Y-436650D03*
X62900Y-432400D03*
X62600Y-360200D03*
X74310Y349850D03*
X74520Y360950D03*
X102990Y-416550D03*
X100800Y-419110D03*
Y-413990D03*
X102990Y-401190D03*
Y-406310D03*
X100800Y-403750D03*
Y-408870D03*
X102990Y-411430D03*
X110220Y-339400D03*
X116100Y-350530D03*
X115860Y280670D03*
X104700Y281340D03*
X93540Y282010D03*
X142850Y-421950D03*
X151650Y-396360D03*
Y-393800D03*
X142850Y-398920D03*
X147300Y-375900D03*
X124780Y-331000D03*
X135100Y-339570D03*
X146100Y-349700D03*
X149340Y278660D03*
X138180Y279330D03*
X127020Y280000D03*
X164900Y-421950D03*
Y-419390D03*
Y-393800D03*
X173240Y-396360D03*
X176040Y-411710D03*
X173700Y-414270D03*
X176040Y-416830D03*
X173700Y-409150D03*
X176030Y-398920D03*
X169250Y-375900D03*
X177600Y-375850D03*
X170810Y-352040D03*
X173150Y-354600D03*
Y-344360D03*
X170810Y-341800D03*
Y-336690D03*
X173150Y-334130D03*
X170810Y-331570D03*
X173150Y-349480D03*
X170810Y-346920D03*
X173150Y-339250D03*
X157970Y-321600D03*
X173150Y-329010D03*
X170810Y-326450D03*
X154340Y-287320D03*
X160500Y-277990D03*
X166660Y-268660D03*
X172820Y-259330D03*
X178980Y-250000D03*
X171660Y277320D03*
X160500Y277990D03*
X158650Y318100D03*
X199650Y-376000D03*
X204500Y-354600D03*
X194240Y-352040D03*
X185140Y-240670D03*
X191300Y-231340D03*
X197460Y-222010D03*
X192170Y301810D03*
X240670Y185140D03*
X231340Y191300D03*
X222010Y197460D03*
X238630Y265090D03*
X224070Y273510D03*
X225850Y287340D03*
X266150Y-423300D03*
X268650D03*
X271150D03*
X266150Y-410800D03*
Y-413300D03*
Y-415800D03*
Y-418300D03*
Y-420800D03*
X268650Y-410800D03*
Y-413300D03*
Y-415800D03*
Y-418300D03*
Y-420800D03*
X271150Y-410800D03*
Y-413300D03*
Y-415800D03*
Y-418300D03*
Y-420800D03*
X271350Y-391750D03*
X268850D03*
X266350D03*
X263850D03*
X261350D03*
X258850D03*
X271350Y-394250D03*
X268850D03*
X266350D03*
X263850D03*
X261350D03*
X258850D03*
X271350Y-396750D03*
X268850D03*
X266350D03*
X263850D03*
X261350D03*
X258850D03*
X258700Y-405950D03*
X261200D03*
X263700D03*
X266200D03*
X268700D03*
X271200D03*
X258700Y-403450D03*
X261200D03*
X263700D03*
X266200D03*
X268700D03*
X271200D03*
X258700Y-400950D03*
X261200D03*
X263700D03*
X266200D03*
X268700D03*
X271200D03*
X271500Y-382850D03*
X269000D03*
X266500D03*
X264000D03*
X261500D03*
X259000D03*
X271500Y-385350D03*
X269000D03*
X266500D03*
X264000D03*
X261500D03*
X259000D03*
X271500Y-387850D03*
X269000D03*
X266500D03*
X264000D03*
X261500D03*
X259000D03*
X246990Y-331550D03*
Y-346910D03*
X244650Y-344350D03*
X246990Y-341790D03*
X244650Y-339230D03*
X246990Y-336670D03*
X244650Y-334110D03*
X269210Y-313950D03*
X244650Y-328990D03*
X261950Y-263700D03*
X264490Y-239080D03*
X272910Y-224520D03*
X268660Y166660D03*
X259330Y172820D03*
X250000Y178980D03*
X244850Y276360D03*
X295900Y-421450D03*
X293400D03*
X290900D03*
X288400D03*
X285900D03*
X283400D03*
X295900Y-416450D03*
X293400D03*
X290900D03*
X288400D03*
X285900D03*
X283400D03*
X295900Y-418950D03*
X293400D03*
X290900D03*
X288400D03*
X285900D03*
X283400D03*
X295700Y-408000D03*
X293200D03*
X290700D03*
X288200D03*
X285700D03*
X283200D03*
X295700Y-410500D03*
X293200D03*
X290700D03*
X288200D03*
X285700D03*
X283200D03*
X295700Y-413000D03*
X293200D03*
X290700D03*
X288200D03*
X285700D03*
X283200D03*
X282750Y-327700D03*
X285250D03*
X287750D03*
X290250D03*
X292750D03*
X295250D03*
X282750Y-325200D03*
X285250D03*
X287750D03*
X290250D03*
X292750D03*
X295250D03*
X282750Y-322700D03*
X285250D03*
X287750D03*
X290250D03*
X292750D03*
X295250D03*
X274760Y-244800D03*
X294900Y-253940D03*
X291150Y-256500D03*
X294900Y-259060D03*
X291150Y-261620D03*
X285740Y-225800D03*
X297990Y-200430D03*
X277320Y-171660D03*
X277990Y-160500D03*
X278660Y-149340D03*
X279330Y-138180D03*
X280000Y-127020D03*
X280670Y-115860D03*
X281340Y-104700D03*
X282010Y-93540D03*
X301000Y40000D03*
X296000Y50000D03*
X291000Y60000D03*
X287320Y154340D03*
X277990Y160500D03*
X330650Y-399250D03*
Y-401750D03*
Y-404250D03*
X330700Y-393000D03*
Y-395500D03*
X330800Y-373200D03*
Y-381600D03*
Y-384100D03*
Y-386600D03*
Y-375700D03*
Y-378200D03*
X330700Y-390500D03*
X306900Y-338000D03*
Y-340500D03*
X309400Y-338000D03*
Y-340500D03*
X311900Y-338000D03*
Y-340500D03*
X306900Y-333000D03*
Y-335500D03*
X309400Y-333000D03*
Y-335500D03*
X311900Y-333000D03*
Y-335500D03*
X306900Y-328000D03*
Y-330500D03*
X309400Y-328000D03*
Y-330500D03*
X311900Y-328000D03*
Y-330500D03*
X329700Y-321800D03*
X332200D03*
X318300Y-321700D03*
X320800D03*
X323300D03*
X327200Y-321800D03*
X329700Y-311800D03*
X332200D03*
X329700Y-309300D03*
X332200D03*
X329700Y-314300D03*
Y-316800D03*
X332200Y-314300D03*
Y-316800D03*
X329700Y-319300D03*
X332200D03*
X318300Y-309200D03*
Y-311700D03*
X320800Y-309200D03*
Y-311700D03*
X323300Y-309200D03*
Y-311700D03*
X327200Y-311800D03*
Y-309300D03*
X318300Y-314200D03*
Y-316700D03*
X320800Y-314200D03*
Y-316700D03*
X323300Y-314200D03*
Y-316700D03*
X318300Y-319200D03*
X320800D03*
X323300D03*
X327200Y-314300D03*
Y-316800D03*
Y-319300D03*
X309750Y-261350D03*
X309300Y-266550D03*
X325600Y-126300D03*
X326000Y-10000D03*
X316000Y10000D03*
X311000Y20000D03*
X321000Y0D03*
X306000Y30000D03*
X329400Y125280D03*
X321350Y158220D03*
X315180Y168910D03*
X340650Y-399250D03*
Y-401750D03*
Y-404250D03*
X340700Y-393000D03*
Y-395500D03*
X343150Y-399250D03*
Y-401750D03*
Y-404250D03*
X343200Y-393000D03*
Y-395500D03*
X338150Y-399250D03*
X335650D03*
X338150Y-401750D03*
X335650D03*
X338150Y-404250D03*
X335650D03*
X333150Y-399250D03*
Y-401750D03*
Y-404250D03*
X338200Y-393000D03*
X335700D03*
X338200Y-395500D03*
X335700D03*
X333200Y-393000D03*
Y-395500D03*
X343300Y-373200D03*
X340800D03*
X343300Y-381600D03*
X340800D03*
X343300Y-384100D03*
X340800D03*
X343300Y-386600D03*
X340800D03*
X343300Y-375700D03*
X340800D03*
X343300Y-378200D03*
X340800D03*
X340700Y-390500D03*
X343200D03*
X338300Y-373200D03*
X335800D03*
X338300Y-381600D03*
X335800D03*
X338300Y-384100D03*
X335800D03*
X338300Y-386600D03*
X335800D03*
X338300Y-375700D03*
X335800D03*
X338300Y-378200D03*
X335800D03*
X333300Y-373200D03*
Y-381600D03*
Y-384100D03*
Y-386600D03*
Y-375700D03*
Y-378200D03*
X338200Y-390500D03*
X335700D03*
X333200D03*
X335950Y-321850D03*
X338450D03*
X340950D03*
X335950Y-311850D03*
X338450D03*
X340950D03*
X335950Y-309350D03*
X338450D03*
X340950D03*
X335950Y-314350D03*
Y-316850D03*
X338450Y-314350D03*
Y-316850D03*
X340950Y-314350D03*
Y-316850D03*
X335950Y-319350D03*
X338450D03*
X340950D03*
X354200Y-319850D03*
X349550Y-251420D03*
X338550Y-246300D03*
Y-248860D03*
X350010Y-232260D03*
X359050Y-74620D03*
X347450Y-74460D03*
X359050Y-52680D03*
X347450Y-57640D03*
X360400Y-24410D03*
X343800Y62400D03*
X348130Y117850D03*
X337800Y110720D03*
X337170Y136850D03*
X343800Y225300D03*
X371600Y-271890D03*
Y-274450D03*
Y-248860D03*
Y-246300D03*
Y-266770D03*
Y-269330D03*
X366050Y-227000D03*
X395850Y-39450D03*
X397850Y143100D03*
X430150Y-39450D03*
X436950Y143100D03*
G54D12*
X-325860Y-107310D03*
X-335860Y-70000D03*
Y-60000D03*
Y-50000D03*
Y-40000D03*
Y-30000D03*
Y-20000D03*
Y-10000D03*
Y0D03*
Y10000D03*
Y20000D03*
Y30000D03*
Y40000D03*
Y50000D03*
Y60000D03*
Y70000D03*
X-325860Y107310D03*
X-295860Y-159270D03*
X-300860Y-150610D03*
X-305860Y-141950D03*
X-310860Y-133290D03*
X-315860Y-124630D03*
X-320860Y-115970D03*
Y115970D03*
X-315860Y124630D03*
X-310860Y133290D03*
X-305860Y141950D03*
X-300860Y150610D03*
X-295860Y159270D03*
X-265860Y-211230D03*
X-270860Y-202570D03*
X-275860Y-193910D03*
X-280860Y-185250D03*
X-285860Y-176590D03*
X-290860Y-167930D03*
Y167930D03*
X-285860Y176590D03*
X-280860Y185250D03*
X-275860Y193910D03*
X-270860Y202570D03*
X-265860Y211230D03*
X-255860Y-228550D03*
X-260860Y-219890D03*
Y219890D03*
X-255860Y228550D03*
X-211230Y-265860D03*
X-219890Y-260860D03*
X-228550Y-255860D03*
Y255860D03*
X-219890Y260860D03*
X-211230Y265860D03*
X-176590Y-285860D03*
X-185250Y-280860D03*
X-193910Y-275860D03*
X-202570Y-270860D03*
Y270860D03*
X-193910Y275860D03*
X-185250Y280860D03*
X-176590Y285860D03*
X-150610Y-300860D03*
X-159270Y-295860D03*
X-167930Y-290860D03*
Y290860D03*
X-159270Y295860D03*
X-150610Y300860D03*
X-115970Y-320860D03*
X-124630Y-315860D03*
X-133290Y-310860D03*
X-141950Y-305860D03*
Y305860D03*
X-133290Y310860D03*
X-124630Y315860D03*
X-115970Y320860D03*
X-107310Y-325860D03*
Y325860D03*
X-60000Y-335860D03*
X-70000D03*
Y335860D03*
X-60000D03*
X-30000Y-335860D03*
X-40000D03*
X-50000D03*
Y335860D03*
X-40000D03*
X-30000D03*
X0Y-335860D03*
X-10000D03*
X-20000D03*
Y335860D03*
X-10000D03*
X0D03*
X30000Y-335860D03*
X20000D03*
X10000D03*
Y335860D03*
X20000D03*
X30000D03*
X60000Y-335860D03*
X50000D03*
X40000D03*
Y335860D03*
X50000D03*
X60000D03*
X70000Y-335860D03*
Y335860D03*
X115970Y-320860D03*
X107310Y-325860D03*
Y325860D03*
X115970Y320860D03*
X150610Y-300860D03*
X141950Y-305860D03*
X133290Y-310860D03*
X124630Y-315860D03*
X150610Y300860D03*
X124630Y315860D03*
X133290Y310860D03*
X141950Y305860D03*
X176590Y-285860D03*
X167930Y-290860D03*
X159270Y-295860D03*
Y295860D03*
X167930Y290860D03*
X176590Y285860D03*
X202570Y-270860D03*
X193910Y-275860D03*
X185250Y-280860D03*
X211230Y-265860D03*
X202570Y270860D03*
X211230Y265860D03*
X185250Y280860D03*
X193910Y275860D03*
X228550Y-255860D03*
X219890Y-260860D03*
Y260860D03*
X228550Y255860D03*
X265860Y-211230D03*
X260860Y-219890D03*
X255860Y-228550D03*
X270860Y-202570D03*
Y202570D03*
X255860Y228550D03*
X260860Y219890D03*
X265860Y211230D03*
X280860Y-185250D03*
X275860Y-193910D03*
X300860Y-150610D03*
X295860Y-159270D03*
X290860Y-167930D03*
X285860Y-176590D03*
X300860Y150610D03*
X285860Y176590D03*
X290860Y167930D03*
X295860Y159270D03*
X275860Y193910D03*
X280860Y185250D03*
X315860Y-124630D03*
X310860Y-133290D03*
X305860Y-141950D03*
X325860Y-107310D03*
X320860Y-115970D03*
Y115970D03*
X325860Y107310D03*
X305860Y141950D03*
X310860Y133290D03*
X315860Y124630D03*
X335860Y-70000D03*
Y-40000D03*
Y-50000D03*
Y-60000D03*
Y-10000D03*
Y-20000D03*
Y-30000D03*
Y20000D03*
Y10000D03*
Y0D03*
Y50000D03*
Y40000D03*
Y30000D03*
Y70000D03*
Y60000D03*
G54D13*
X0Y0D03*
G54D14*
X-54510Y-403940D03*
X52690D03*
G54D15*
X233600Y-427950D03*
G54D16*
X252100Y-439760D03*
Y-416140D03*
G54D17*
G01X-400000Y-410710D02*
Y-400000D01*
G01D02*
Y-389290D01*
G01X-410710Y-400000D02*
X-400000D01*
G01D02*
X-389290D01*
G01X-400000Y389290D02*
Y400000D01*
G01D02*
Y410710D01*
G01X-410710Y400000D02*
X-400000D01*
G01D02*
X-389290D01*
G01X-335860Y56290D02*
Y60000D01*
G01D02*
Y63710D01*
G01X-339570Y60000D02*
X-335860D01*
G01D02*
X-332150D01*
G01X-320860Y-119680D02*
Y-115970D01*
G01D02*
Y-112260D01*
G01X-324570Y-115970D02*
X-320860D01*
G01D02*
X-317150D01*
G01X-285710Y0D02*
X0D01*
G01X-260860Y216180D02*
Y219890D01*
G01D02*
Y223600D01*
G01X-264570Y219890D02*
X-260860D01*
G01D02*
X-257150D01*
G01X-219890Y-264570D02*
Y-260860D01*
G01D02*
Y-257150D01*
G01X-223600Y-260860D02*
X-219890D01*
G01D02*
X-216180D01*
G01X-115970Y317150D02*
Y320860D01*
G01D02*
Y324570D01*
G01X-119680Y320860D02*
X-115970D01*
G01D02*
X-112260D01*
G01X-60000Y-339570D02*
Y-335860D01*
G01D02*
Y-332150D01*
G01X-63710Y-335860D02*
X-60000D01*
G01D02*
X-56290D01*
G01X0Y-285710D02*
Y0D01*
G01D02*
Y285710D01*
G01Y0D02*
X285710D01*
G01X60000Y332150D02*
Y335860D01*
G01D02*
Y339570D01*
G01X56290Y335860D02*
X60000D01*
G01D02*
X63710D01*
G01X115970Y-324570D02*
Y-320860D01*
G01D02*
Y-317150D01*
G01X112260Y-320860D02*
X115970D01*
G01D02*
X119680D01*
G01X233600Y-438510D02*
Y-427950D01*
G01D02*
Y-417390D01*
G01X228950Y-427950D02*
X233600D01*
G01D02*
X238250D01*
G01X219890Y257150D02*
Y260860D01*
G01D02*
Y264570D01*
G01X216180Y260860D02*
X219890D01*
G01D02*
X223600D01*
G01X252100Y-444410D02*
Y-439760D01*
G01D02*
Y-435110D01*
G01X241540Y-439760D02*
X252100D01*
G01D02*
X262660D01*
G01X260860Y-223600D02*
Y-219890D01*
G01D02*
Y-216180D01*
G01X257150Y-219890D02*
X260860D01*
G01D02*
X264570D01*
G01X320860Y112260D02*
Y115970D01*
G01D02*
Y119680D01*
G01X317150Y115970D02*
X320860D01*
G01D02*
X324570D01*
G01X335860Y-63710D02*
Y-60000D01*
G01D02*
Y-56290D01*
G01X332150Y-60000D02*
X335860D01*
G01D02*
X339570D01*
G01X389290Y-400000D02*
X400000D01*
G01X389290Y400000D02*
X400000D01*
G01Y-410710D02*
Y-400000D01*
G01D02*
Y-389290D01*
G01Y-400000D02*
X410710D01*
G01X400000Y389290D02*
Y400000D01*
G01D02*
Y410710D01*
G01Y400000D02*
X410710D01*
G54D18*
G01X6550Y-384340D02*
Y-386440D01*
X6800Y-386690D01*
Y-406190D01*
X4040Y-408950D01*
X-58700D01*
X-65650Y-402000D01*
X-104850D01*
X-109680Y-406830D01*
X-118880D01*
X-120520Y-408470D01*
X-144780D01*
X-155000Y-398250D01*
X-368350D01*
X-423200Y-343400D01*
Y-38160D01*
X-416790Y-31750D01*
X-361760D01*
X-359250Y-29240D01*
Y-18010D01*
G01X1550Y-384340D02*
Y-396200D01*
X-950Y-398700D01*
X-137600D01*
X-140800Y-395500D01*
X-365900D01*
X-419000Y-342400D01*
Y-41740D01*
X-412910Y-35650D01*
X-359060D01*
X-355500Y-32090D01*
Y-15450D01*
G01X-3450Y-384340D02*
Y-390340D01*
X-3400Y-390390D01*
Y-393400D01*
X-5400Y-395400D01*
X-134450D01*
X-142200Y-387650D01*
X-193100D01*
X-197400Y-391950D01*
X-364250D01*
X-415350Y-340850D01*
Y-43140D01*
X-410160Y-37950D01*
X-355340D01*
X-352450Y-35060D01*
Y-14450D01*
X-354010Y-12890D01*
X-359250D01*
G01X-8450Y-384340D02*
Y-388660D01*
X-11640Y-391850D01*
X-56900D01*
X-64100Y-384650D01*
X-195700D01*
X-199050Y-388000D01*
X-362200D01*
X-411400Y-338800D01*
Y-45650D01*
X-407100Y-41350D01*
X-352850D01*
X-349800Y-38300D01*
Y-13400D01*
X-352870Y-10330D01*
X-355500D01*
G01X-13450Y-384340D02*
Y-387100D01*
X-15450Y-389100D01*
X-55000D01*
X-62600Y-381500D01*
X-363000D01*
X-407650Y-336850D01*
Y-55950D01*
X-406400Y-54700D01*
X-356250D01*
X-347600Y-46050D01*
Y-11600D01*
X-350970Y-8230D01*
X-356690D01*
X-357150Y-7770D01*
X-359250D01*
G01X-18450Y-384340D02*
X-20660Y-386550D01*
X-52500D01*
X-62150Y-376900D01*
Y-376800D01*
X-178700D01*
X-182450Y-373050D01*
X-201050D01*
X-204800Y-376800D01*
X-359550D01*
X-402600Y-333750D01*
Y-61800D01*
X-398800Y-58000D01*
X-352150D01*
X-345350Y-51200D01*
Y-9600D01*
X-349740Y-5210D01*
X-355500D01*
G01X-349510Y-70000D02*
X-363100D01*
Y-225700D01*
X-349050Y-239750D01*
X-267060D01*
X-255860Y-228550D01*
G01X-349510Y-70000D02*
X-349750Y-69760D01*
Y-64430D01*
X-343050Y-57730D01*
Y28000D01*
X-349550Y34500D01*
X-368100D01*
X-370850Y37250D01*
Y101750D01*
X-365290Y107310D01*
X-325860D01*
G01X-335860Y-70000D02*
X-349510D01*
G01X-344600Y-62250D02*
X-341850Y-59500D01*
Y-58370D01*
X-340500Y-57020D01*
Y27290D01*
X-341850Y28640D01*
Y50800D01*
G01X-335860Y-40000D02*
X-301000D01*
G01X-335860Y-50000D02*
X-296000D01*
G01X-335860Y-60000D02*
X-291000D01*
G01X-335860Y-10000D02*
X-316000D01*
G01X-335860Y-20000D02*
X-311000D01*
G01X-335860Y-30000D02*
X-306000D01*
G01X-335860Y10000D02*
X-326000D01*
G01X-335860Y0D02*
X-321000D01*
G01X-344600Y100250D02*
Y53550D01*
X-341850Y50800D01*
G01D02*
X-341050Y50000D01*
X-335860D01*
G01X-297050Y217750D02*
X-338950Y175850D01*
Y161650D01*
G01X-315860Y124630D02*
X-281340Y104700D01*
G01X-320860Y115970D02*
X-282010Y93540D01*
G01X-305860Y141950D02*
X-280000Y127020D01*
G01X-310860Y133290D02*
X-280670Y115860D01*
G01X-300860Y150610D02*
X-279330Y138180D01*
G01X-280860Y-185250D02*
X-259330Y-172820D01*
G01X-275860Y-193910D02*
X-250000Y-178980D01*
G01X-270860Y-202570D02*
X-240670Y-185140D01*
G01X-295860Y-159270D02*
X-287320Y-154340D01*
G01X-285860Y-176590D02*
X-268660Y-166660D01*
G01X-290860Y-167930D02*
X-277990Y-160500D01*
G01X-285860Y176590D02*
X-277320Y171660D01*
G01X-295860Y159270D02*
X-278660Y149340D01*
G01X-290860Y167930D02*
X-277990Y160500D01*
G01X-237550Y341750D02*
X-290550D01*
X-297050Y335250D01*
Y217750D01*
G01X-265860Y211230D02*
X-272380Y217750D01*
X-297050D01*
G01X-255860Y-228550D02*
Y-322490D01*
X-248150Y-330200D01*
X-204310D01*
X-196560Y-337950D01*
G01X-260860Y-219890D02*
X-222010Y-197460D01*
G01X-265860Y-211230D02*
X-231340Y-191300D01*
G01X-18400Y-432200D02*
X-22150Y-428450D01*
X-62960D01*
X-65550Y-431040D01*
Y-439350D01*
X-68800Y-442600D01*
X-113250D01*
X-117000Y-438850D01*
X-207800D01*
X-211380Y-435270D01*
Y-424320D01*
G01Y-408970D02*
X-205570D01*
X-200550Y-403950D01*
X-159740D01*
X-147940Y-415750D01*
X-109500D01*
X-105500Y-419750D01*
X20250D01*
X22000Y-421500D01*
Y-432400D01*
G01X-211380Y-414090D02*
X-213610D01*
X-215800Y-411900D01*
Y-403950D01*
X-213350Y-401500D01*
X-157150D01*
X-147200Y-411450D01*
X-100050D01*
X-94300Y-417200D01*
X33850D01*
X38350Y-421700D01*
Y-432450D01*
G01X-211230Y-265860D02*
X-210220Y-269630D01*
X-209900Y-270820D01*
Y-315150D01*
X-203200Y-321850D01*
X-186650D01*
G01X-211230Y265860D02*
X-191300Y231340D01*
G01X-219890Y260860D02*
X-197460Y222010D01*
G01X-80300Y358900D02*
X-212850D01*
X-228550Y343200D01*
Y255860D01*
G01X-10350Y-432200D02*
X-17350Y-425200D01*
X-89350D01*
X-92250Y-428100D01*
Y-437850D01*
X-94600Y-440200D01*
X-110550D01*
X-115150Y-435600D01*
X-197850D01*
X-201500Y-431950D01*
Y-429550D01*
X-204170Y-426880D01*
X-208120D01*
G01X30150Y-432500D02*
X27600Y-435050D01*
X19910D01*
X18160Y-433300D01*
Y-429200D01*
X15260Y-426300D01*
X-300D01*
X-4400Y-422200D01*
X-106940D01*
X-106960Y-422180D01*
X-108700D01*
X-108720Y-422200D01*
X-151690D01*
X-167590Y-406300D01*
X-195700D01*
X-200930Y-411530D01*
X-208120D01*
G01X-196560Y-337950D02*
Y-366940D01*
G01X-191960Y-352000D02*
X-164100D01*
X-158200Y-357900D01*
X-106450D01*
X-101200Y-363150D01*
X-47600D01*
G01X-196560Y-337950D02*
X-187510Y-328900D01*
X-110350D01*
X-107310Y-325860D01*
G01X-193910Y275860D02*
X-178980Y250000D01*
G01X-202570Y270860D02*
X-185140Y240670D01*
G01X-185250Y280860D02*
X-172820Y259330D01*
G01X-176590Y-285860D02*
X-171660Y-277320D01*
G01X-159270Y-295860D02*
X-149340Y-278660D01*
G01X-150610Y-300860D02*
X-138180Y-279330D01*
G01X-167930Y-290860D02*
X-160500Y-277990D01*
G01X-159270Y295860D02*
X-154340Y287320D01*
G01X-176590Y285860D02*
X-166660Y268660D01*
G01X-167930Y290860D02*
X-160500Y277990D01*
G01X-141950Y-305860D02*
X-127020Y-280000D01*
G01X-133290Y-310860D02*
X-115860Y-280670D01*
G01X-124630Y-315860D02*
X-104700Y-281340D01*
G01X-105910Y-390640D02*
X-64110D01*
G01X70000Y-335860D02*
Y-348100D01*
X65500Y-352600D01*
X-102800D01*
X-107310Y-348090D01*
Y-325860D01*
G01X-115970Y-320860D02*
X-93540Y-282010D01*
G01X-60000Y335860D02*
Y291000D01*
G01X-65200Y344810D02*
X45050D01*
X50000Y339860D01*
Y335860D01*
G01X-80300Y358900D02*
X-70000Y348600D01*
Y335860D01*
G01X107310Y325860D02*
X103600Y329570D01*
Y358450D01*
X97500Y364550D01*
X-74650D01*
X-80300Y358900D01*
G01X-42750Y-432150D02*
X-29400Y-445500D01*
X177550D01*
X182250Y-440800D01*
Y-415150D01*
X178810Y-411710D01*
X176040D01*
G01X-34650Y-432150D02*
X-24050Y-442750D01*
X175650D01*
X179950Y-438450D01*
Y-417550D01*
X176670Y-414270D01*
X173700D01*
G01X132650Y-363150D02*
X-47600D01*
G01X291150Y-256500D02*
X296800D01*
X299550Y-259250D01*
Y-270300D01*
X294150Y-275700D01*
X276300D01*
X274850Y-277150D01*
Y-361850D01*
X265650Y-371050D01*
X-29400D01*
X-33450Y-375100D01*
Y-384340D01*
G01X-38450D02*
Y-370850D01*
X-35750Y-368150D01*
X262650D01*
X269850Y-360950D01*
Y-318600D01*
X271950Y-316500D01*
Y-309700D01*
X269850Y-307600D01*
Y-271440D01*
X274990Y-266300D01*
X289760D01*
X294900Y-261160D01*
Y-259060D01*
G01X291150Y-261620D02*
X273630D01*
X265450Y-269800D01*
Y-360000D01*
X259650Y-365800D01*
X-40200D01*
X-43450Y-369050D01*
Y-384340D01*
G01X-50000Y335860D02*
Y296000D01*
G01X-30000Y335860D02*
Y306000D01*
G01X-40000Y335860D02*
Y301000D01*
G01X-26500Y-432150D02*
X-18200Y-440450D01*
X172190D01*
X176040Y-436600D01*
Y-416830D01*
G01X-23450Y-384340D02*
Y-379950D01*
X-20400Y-376900D01*
X143650D01*
X145450Y-378700D01*
X210250D01*
X212150Y-376800D01*
X273250D01*
X275150Y-378700D01*
X288150D01*
X301550Y-365300D01*
Y-283600D01*
X309300Y-275850D01*
Y-266550D01*
G01X294900Y-253940D02*
X298690D01*
X301900Y-257150D01*
Y-272450D01*
X295550Y-278800D01*
X281900D01*
X278650Y-282050D01*
Y-364400D01*
X268950Y-374100D01*
X200720D01*
X200370Y-373750D01*
X-24550D01*
X-28450Y-377650D01*
Y-384340D01*
G01X-10000Y-335860D02*
Y-326000D01*
G01X0Y-335860D02*
Y-321000D01*
G01X-10000Y335860D02*
Y316000D01*
G01X-20000Y335860D02*
Y311000D01*
G01X0Y335860D02*
Y321000D01*
G01X173700Y-409150D02*
X170800Y-412050D01*
Y-436890D01*
X169540Y-438150D01*
X102700D01*
X93900Y-429350D01*
X75600D01*
X66800Y-438150D01*
X19650D01*
X13850Y-432350D01*
G01X11550Y-384340D02*
X15490Y-380400D01*
X139250D01*
X140050Y-381200D01*
Y-382350D01*
X140850Y-383150D01*
X248350D01*
X250750Y-380750D01*
X272370D01*
X272670Y-381050D01*
X307250D01*
X319850Y-368450D01*
Y-329100D01*
X312300Y-321550D01*
Y-263900D01*
X309750Y-261350D01*
G01X10000Y-335860D02*
Y-316000D01*
G01X20000Y-335860D02*
Y-311000D01*
G01X30000Y-335860D02*
Y-306000D01*
G01X10000Y335860D02*
Y326000D01*
G01X40000Y-335860D02*
Y-301000D01*
G01X50000Y-335860D02*
Y-296000D01*
G01X60000Y-335860D02*
Y-291000D01*
G01X70000Y-335860D02*
X77290Y-343150D01*
X155750D01*
X161400Y-337500D01*
Y-304850D01*
X165150Y-301100D01*
X221000D01*
X229000Y-293100D01*
Y-261090D01*
X227540Y-259630D01*
X228550Y-255860D01*
G01X133290Y310860D02*
X115860Y280670D01*
G01X124630Y315860D02*
X104700Y281340D01*
G01X115970Y320860D02*
X93540Y282010D01*
G01X367400Y223000D02*
Y287700D01*
X329240Y325860D01*
X107310D01*
G01X261950Y-263700D02*
Y-355400D01*
X254200Y-363150D01*
X132650D01*
G01D02*
X146100Y-349700D01*
G01X159270Y295860D02*
X149340Y278660D01*
G01X150610Y300860D02*
X138180Y279330D01*
G01X141950Y305860D02*
X127020Y280000D01*
G01X159270Y-295860D02*
X154340Y-287320D01*
G01X176590Y-285860D02*
X166660Y-268660D01*
G01X167930Y-290860D02*
X160500Y-277990D01*
G01X185250Y-280860D02*
X172820Y-259330D01*
G01X193910Y-275860D02*
X178980Y-250000D01*
G01X176590Y285860D02*
X171660Y277320D01*
G01X167930Y290860D02*
X160500Y277990D01*
G01X158650Y318100D02*
X165800Y310950D01*
X208300D01*
X211230Y308020D01*
Y265860D01*
G01X202570Y-270860D02*
X185140Y-240670D01*
G01X211230Y-265860D02*
X191300Y-231340D01*
G01X219890Y-260860D02*
X197460Y-222010D01*
G01X325860Y-107310D02*
X332850Y-114300D01*
Y-240800D01*
X326150Y-247500D01*
X289100D01*
X280740Y-255860D01*
X228550D01*
G01X265860Y211230D02*
X231340Y191300D01*
G01X260860Y219890D02*
X222010Y197460D01*
G01X325600Y-126300D02*
Y-207150D01*
X321520Y-211230D01*
X265860D01*
G01X285860Y176590D02*
X268660Y166660D01*
G01X280860Y185250D02*
X259330Y172820D01*
G01X275860Y193910D02*
X250000Y178980D01*
G01X270860Y202570D02*
X240670Y185140D01*
G01X255860Y228550D02*
X259240Y230500D01*
X359900D01*
X367400Y223000D01*
G01X285860Y-176590D02*
X277320Y-171660D01*
G01X295860Y-159270D02*
X278660Y-149340D01*
G01X290860Y-167930D02*
X277990Y-160500D01*
G01X300860Y-150610D02*
X279330Y-138180D01*
G01X305860Y-141950D02*
X280000Y-127020D01*
G01X310860Y-133290D02*
X280670Y-115860D01*
G01X315860Y-124630D02*
X281340Y-104700D01*
G01X320860Y-115970D02*
X282010Y-93540D01*
G01X335860Y50000D02*
X296000D01*
G01X335860Y60000D02*
X291000D01*
G01X295860Y159270D02*
X287320Y154340D01*
G01X290860Y167930D02*
X277990Y160500D01*
G01X359940Y70000D02*
X367400Y62540D01*
Y-102610D01*
X362700Y-107310D01*
X325860D01*
G01X335860Y-10000D02*
X326000D01*
G01X335860Y10000D02*
X316000D01*
G01X335860Y20000D02*
X311000D01*
G01X335860Y0D02*
X321000D01*
G01X335860Y30000D02*
X306000D01*
G01X335860Y40000D02*
X301000D01*
G01X343800Y116600D02*
Y82650D01*
X338950Y77800D01*
X332100D01*
X329750Y75450D01*
Y67450D01*
X331850Y65350D01*
X337500D01*
X343800Y59050D01*
Y-46750D01*
X340550Y-50000D01*
X335860D01*
G01X315860Y124630D02*
X319130Y127900D01*
X332500D01*
X343800Y116600D01*
G01X367400Y223000D02*
Y77460D01*
X359940Y70000D01*
G01X335860D02*
X359940D01*
G01X343800Y116600D02*
Y225300D01*
G54D19*
G01X-460000Y-480000D02*
G03I-15000J5000D01*
G01X-465000D02*
G03I-10000J5000D01*
G01X-495000Y-475000D02*
X-455000D01*
G01X-485000Y500000D02*
Y460000D01*
G01X-470000Y475000D02*
G03I-15000J5000D01*
G01X-475000D02*
G03I-10000J5000D01*
G01X-505000Y480000D02*
X-465000D01*
G01X-475000Y-455000D02*
Y-495000D01*
G01X-450000Y-450000D02*
X450000D01*
Y450000D01*
X325000D01*
X320000Y445000D01*
Y370000D01*
X-320000D01*
Y445000D01*
X-325000Y450000D01*
X-450000D01*
Y-450000D01*
G01X-376500Y-400000D02*
G03I-23500J0D01*
G01Y399930D02*
G03I-23500J2D01*
G01X275000Y0D02*
G03I-275000J0D01*
G01X0Y-9000D02*
Y9000D01*
G01Y-9000D02*
Y9000D01*
G01X-9000Y0D02*
X9000D01*
G01X-9000D02*
X9000D01*
G01X423500Y-400000D02*
G03I-23500J0D01*
G01Y399930D02*
G03I-23500J2D01*
G01X480000Y-450000D02*
Y-490000D01*
G01X495000Y-475000D02*
G03I-15000J5000D01*
G01X460000Y-470000D02*
X500000D01*
G01X490000Y-475000D02*
G03I-10000J5000D01*
G01Y455000D02*
G03I-15000J5000D01*
G01X475000Y480000D02*
Y440000D01*
G01X485000Y455000D02*
G03I-10000J5000D01*
G01X455000Y460000D02*
X495000D01*
M02*
