G04 ================== begin FILE IDENTIFICATION RECORD ==================*
G04 Layout Name:  C:/Users/labadmin/Downloads/ww10-exchange/G4.2/arena_12-12_v2.2.brd*
G04 Film Name:    PWR*
G04 File Format:  Gerber RS274X*
G04 File Origin:  Cadence Allegro 17.4-S007*
G04 Origin Date:  Tue Nov 10 23:59:30 2020*
G04 *
G04 Layer:  VIA KEEPOUT/ALL*
G04 Layer:  VIA KEEPOUT/BOTTOM*
G04 Layer:  VIA KEEPOUT/LAYER 2*
G04 Layer:  VIA KEEPOUT/GND2*
G04 Layer:  VIA KEEPOUT/LAYER 1*
G04 Layer:  VIA KEEPOUT/PWR*
G04 Layer:  VIA KEEPOUT/TOP*
G04 Layer:  VIA CLASS/FILMMASKBOTTOM*
G04 Layer:  VIA CLASS/PWR*
G04 Layer:  ROUTE KEEPOUT/ALL*
G04 Layer:  ROUTE KEEPOUT/BOTTOM*
G04 Layer:  ROUTE KEEPOUT/LAYER 2*
G04 Layer:  ROUTE KEEPOUT/GND2*
G04 Layer:  ROUTE KEEPOUT/LAYER 1*
G04 Layer:  ROUTE KEEPOUT/PWR*
G04 Layer:  ROUTE KEEPOUT/TOP*
G04 Layer:  ROUTE KEEPIN/ALL*
G04 Layer:  PIN/FILMMASKBOTTOM*
G04 Layer:  PIN/PWR*
G04 Layer:  PACKAGE KEEPOUT/ALL*
G04 Layer:  PACKAGE KEEPOUT/TOP*
G04 Layer:  PACKAGE KEEPOUT/BOTTOM*
G04 Layer:  PACKAGE KEEPIN/ALL*
G04 Layer:  ETCH/PWR*
G04 Layer:  BOARD GEOMETRY/OUTLINE*
G04 *
G04 Offset:    (0.0 0.0)*
G04 Mirror:    No*
G04 Mode:      Positive*
G04 Rotation:  0*
G04 FullContactRelief:  No*
G04 UndefLineWidth:     0.1*
G04 ================== end FILE IDENTIFICATION RECORD ====================*
%FSLAX25Y25*MOIN*%
%IR0*IPPOS*OFA0.00000B0.00000*MIA0B0*SFA1.00000B1.00000*%
%ADD10C,.2*%
%ADD16R,.1969X.0787*%
%ADD15R,.0787X.1969*%
%ADD12C,.06*%
%ADD11C,.024*%
%ADD13C,5.7*%
%ADD14C,.0787*%
%ADD17C,.005*%
%ADD18C,.0001*%
%ADD19C,.2104*%
%ADD21C,.0344*%
%ADD20C,.0704*%
%ADD22C,.089*%
G75*
%LPD*%
G75*
G36*
G01X327000Y444550D02*
X429040D01*
G02X429260Y443820I-1J-399D01*
G03X424480Y435000I5747J-8820D01*
G03X435000Y424480I10520J0D01*
G03X444200Y429900I0J10518D01*
G02X444950Y429710I350J-194D01*
G01Y-429710D01*
G02X444200Y-429900I-400J4D01*
G03X435000Y-424480I-9200J-5098D01*
G03X424480Y-435000I0J-10520D01*
G03X429990Y-444250I10519J0D01*
G02X429800Y-445000I-193J-350D01*
G01X74460D01*
Y-365410D01*
X158890D01*
Y-402960D01*
X181060D01*
Y-365410D01*
X299260D01*
Y-318660D01*
X299310D01*
Y-291160D01*
X344610D01*
Y-241690D01*
X330390D01*
Y-282790D01*
X276890D01*
Y-314490D01*
X276840D01*
Y-359590D01*
X190210D01*
Y-324140D01*
X157090D01*
Y-356240D01*
X7190D01*
Y-364440D01*
X-45680D01*
G02X-46040Y-363870I3J400D01*
G03X-45880Y-363150I-1559J724D01*
G03X-49320I-1720J0D01*
G03X-49160Y-363870I1719J4D01*
G02X-49520Y-364440I-363J-170D01*
G01X-175590D01*
G02X-175960Y-363910I6J399D01*
G03X-175870Y-363350I-1632J549D01*
G03X-179310I-1720J0D01*
G03X-179220Y-363910I1722J-11D01*
G02X-179590Y-364440I-376J-131D01*
G01X-262660D01*
Y-364490D01*
X-394590D01*
Y-16490D01*
X-419510D01*
Y-375160D01*
X-214460D01*
Y-409060D01*
X-213110D01*
X-213080Y-409230D01*
G03X-209680I1700J260D01*
G01X-209650Y-409060D01*
X-199840D01*
Y-375160D01*
X-119460D01*
Y-410710D01*
X-107540D01*
Y-392370D01*
G02X-106910Y-392040I400J3D01*
G03X-105910Y-392360I1000J1403D01*
G03Y-388920I0J1720D01*
G03X-106910Y-389240I0J-1723D01*
G02X-107540Y-388910I-230J327D01*
G01Y-377610D01*
X66490D01*
Y-440740D01*
X-55110D01*
Y-445000D01*
X-429800D01*
G02X-429990Y-444250I3J400D01*
G03X-424480Y-435000I-5009J9250D01*
G03X-435000Y-424480I-10520J0D01*
G03X-444630Y-430770I0J-10517D01*
G02X-445400Y-430610I-370J154D01*
G01Y430610D01*
G02X-444630Y430770I400J6D01*
G03X-435000Y424480I9630J4227D01*
G03X-424480Y435000I0J10520D01*
G03X-429260Y443820I-10527J0D01*
G02X-429040Y444550I221J331D01*
G01X-327050D01*
X-322050Y439550D01*
Y368000D01*
X322000D01*
Y439550D01*
X327000Y444550D01*
G37*
G36*
G01X-445400Y-445000D02*
Y-439390D01*
G02X-444630Y-439230I400J6D01*
G03X-440010Y-444250I9632J4229D01*
G02X-440200Y-445000I-193J-350D01*
G01X-445400D01*
G37*
G36*
G01Y444550D02*
X-440960D01*
G02X-440740Y443820I-1J-399D01*
G03X-444630Y439230I5746J-8813D01*
G02X-445400Y439390I-370J154D01*
G01Y444550D01*
G37*
G36*
G01X-419000Y-17000D02*
X-395100D01*
Y-365000D01*
X-262150D01*
Y-364950D01*
X-197960D01*
G02X-197700Y-365650I-2J-399D01*
G03X-198280Y-366940I1145J-1290D01*
G03X-194840I1720J0D01*
G03X-195420Y-365650I-1725J0D01*
G02X-195160Y-364950I262J301D01*
G01X-178220D01*
X-178190Y-364960D01*
G03X-177590Y-365070I605J1609D01*
G03X-176990Y-364960I-5J1719D01*
G01X-176960Y-364950D01*
X7700D01*
Y-356750D01*
X157600D01*
Y-324650D01*
X169220D01*
G02X169520Y-325310I-2J-399D01*
G03X169090Y-326450I1296J-1140D01*
G03X170810Y-328170I1720J0D01*
G03X171030Y-328160I32J1721D01*
G02X171470Y-328640I51J-395D01*
G03Y-329380I1691J-370D01*
G02X171030Y-329860I-389J-85D01*
G03X170810Y-329850I-188J-1711D01*
G03Y-333290I0J-1720D01*
G03X171030Y-333280I32J1721D01*
G02X171470Y-333760I51J-395D01*
G03Y-334500I1691J-370D01*
G02X171030Y-334980I-389J-85D01*
G03X170810Y-334970I-188J-1711D01*
G03Y-338410I0J-1720D01*
G03X171030Y-338400I32J1721D01*
G02X171470Y-338880I51J-395D01*
G03X171430Y-339250I1691J-370D01*
G03X171470Y-339610I1719J9D01*
G02X171030Y-340090I-390J-84D01*
G03X170810Y-340080I-188J-1711D01*
G03Y-343520I0J-1720D01*
G03X171030Y-343510I32J1721D01*
G02X171470Y-343990I51J-395D01*
G03Y-344730I1691J-370D01*
G02X171030Y-345210I-389J-85D01*
G03X170810Y-345200I-188J-1711D01*
G03Y-348640I0J-1720D01*
G03X171030Y-348630I32J1721D01*
G02X171470Y-349110I51J-395D01*
G03X171430Y-349480I1691J-370D01*
G03X173150Y-347760I1720J0D01*
G03X172930Y-347770I-32J-1721D01*
G02X172490Y-347290I-51J395D01*
G03Y-346550I-1691J370D01*
G02X172930Y-346070I389J85D01*
G03X173150Y-346080I188J1711D01*
G03Y-342640I0J1720D01*
G03X172930Y-342650I-32J-1721D01*
G02X172490Y-342170I-51J395D01*
G03X172530Y-341800I-1691J370D01*
G03X172490Y-341440I-1719J-9D01*
G02X172930Y-340960I390J84D01*
G03X173150Y-340970I188J1711D01*
G03Y-337530I0J1720D01*
G03X172930Y-337540I-32J-1721D01*
G02X172490Y-337060I-51J395D01*
G03Y-336320I-1691J370D01*
G02X172930Y-335840I389J85D01*
G03X173150Y-335850I188J1711D01*
G03Y-332410I0J1720D01*
G03X172930Y-332420I-32J-1721D01*
G02X172490Y-331940I-51J395D01*
G03Y-331200I-1691J370D01*
G02X172930Y-330720I389J85D01*
G03X173150Y-330730I188J1711D01*
G03Y-327290I0J1720D01*
G03X172930Y-327300I-32J-1721D01*
G02X172490Y-326820I-51J395D01*
G03X172530Y-326450I-1691J370D01*
G03X172100Y-325310I-1726J0D01*
G02X172400Y-324650I302J261D01*
G01X189700D01*
Y-360100D01*
X277350D01*
Y-315000D01*
X277400D01*
Y-283300D01*
X330900D01*
Y-242200D01*
X344100D01*
Y-290650D01*
X298800D01*
Y-318150D01*
X298750D01*
Y-364900D01*
X180550D01*
Y-402450D01*
X159400D01*
Y-364900D01*
X73950D01*
Y-449650D01*
X-54600D01*
Y-441250D01*
X67000D01*
Y-377100D01*
X-108050D01*
Y-410200D01*
X-110520D01*
G02X-110880Y-409640I5J399D01*
G03X-110730Y-408930I-1572J703D01*
G03X-114170I-1720J0D01*
G03X-114020Y-409640I1722J-7D01*
G02X-114380Y-410200I-365J-161D01*
G01X-118950D01*
Y-374650D01*
X-200350D01*
Y-408550D01*
X-209710D01*
X-209750Y-408410D01*
G03X-213010I-1630J-565D01*
G01X-213050Y-408550D01*
X-213950D01*
Y-374650D01*
X-419000D01*
Y-17000D01*
G37*
G36*
G01X440010Y-444250D02*
G03X444200Y-440100I-5011J9249D01*
G02X444950Y-440290I350J-194D01*
G01Y-445000D01*
X440200D01*
G02X440010Y-444250I3J400D01*
G37*
G36*
G01X440960Y444550D02*
X444950D01*
Y440290D01*
G02X444200Y440100I-400J4D01*
G03X440740Y443820I-9206J-5093D01*
G02X440960Y444550I221J331D01*
G37*
%LPC*%
G75*
G36*
G01X241740Y-420080D02*
Y-412200D01*
G02X242260Y-411690I515J-5D01*
G01X261940D01*
G02X262460Y-412200I5J-515D01*
G01Y-420080D01*
G02X261940Y-420590I-515J5D01*
G01X242260D01*
G02X241740Y-420080I-5J515D01*
G37*
G36*
G01Y-443700D02*
Y-435820D01*
G02X242260Y-435310I515J-5D01*
G01X261940D01*
G02X262460Y-435820I5J-515D01*
G01Y-443700D01*
G02X261940Y-444210I-515J5D01*
G01X242260D01*
G02X241740Y-443700I-5J515D01*
G37*
G36*
G01X229150Y-437800D02*
Y-418100D01*
G02X229660Y-417590I515J-5D01*
G01X237540D01*
G02X238050Y-418100I-5J-515D01*
G01Y-437800D01*
G02X237540Y-438310I-515J5D01*
G01X229660D01*
G02X229150Y-437800I5J515D01*
G37*
G36*
G01X-122430Y-428250D02*
G03Y-427990I-151J130D01*
G02X-122870Y-426840I1283J1150D01*
G02X-119430I1720J0D01*
G02X-119870Y-427990I-1723J0D01*
G03Y-428250I151J-130D01*
G02X-119430Y-429400I-1283J-1150D01*
G02X-122870I-1720J0D01*
G02X-122430Y-428250I1723J0D01*
G37*
G36*
G01X163620Y-420800D02*
G03Y-420540I-151J130D01*
G02X163180Y-419390I1283J1150D01*
G02X166620I1720J0D01*
G02X166180Y-420540I-1723J0D01*
G03Y-420800I151J-130D01*
G02X166620Y-421950I-1283J-1150D01*
G02X163180I-1720J0D01*
G02X163620Y-420800I1723J0D01*
G37*
G36*
G01X100900Y-402030D02*
G03X101310Y-401550I19J399D01*
G02X101270Y-401190I1679J369D01*
G02X102990Y-402910I1720J0D01*
G01X102890D01*
G03X102480Y-403390I-19J-399D01*
G02X102520Y-403750I-1679J-369D01*
G02X102480Y-404110I-1719J9D01*
G03X102890Y-404590I391J-81D01*
G01X102990D01*
G02Y-408030I0J-1720D01*
G01X102890D01*
G03X102480Y-408510I-19J-399D01*
G02X102520Y-408870I-1679J-369D01*
G02X102480Y-409230I-1719J9D01*
G03X102890Y-409710I391J-81D01*
G01X102990D01*
G02Y-413150I0J-1720D01*
G01X102890D01*
G03X102480Y-413630I-19J-399D01*
G02X102520Y-413990I-1679J-369D01*
G02X102480Y-414350I-1719J9D01*
G03X102890Y-414830I391J-81D01*
G01X102990D01*
G02Y-418270I0J-1720D01*
G01X102890D01*
G03X102480Y-418750I-19J-399D01*
G02X102520Y-419110I-1679J-369D01*
G02X100800Y-417390I-1720J0D01*
G01X100900D01*
G03X101310Y-416910I19J399D01*
G02X101270Y-416550I1679J369D01*
G02X101310Y-416190I1719J-9D01*
G03X100900Y-415710I-391J81D01*
G01X100800D01*
G02Y-412270I0J1720D01*
G01X100900D01*
G03X101310Y-411790I19J399D01*
G02X101270Y-411430I1679J369D01*
G02X101310Y-411070I1719J-9D01*
G03X100900Y-410590I-391J81D01*
G01X100800D01*
G02Y-407150I0J1720D01*
G01X100900D01*
G03X101310Y-406670I19J399D01*
G02X101270Y-406310I1679J369D01*
G02X101310Y-405950I1719J-9D01*
G03X100900Y-405470I-391J81D01*
G01X100800D01*
G02Y-402030I0J1720D01*
G01X100900D01*
G37*
G36*
G01X339420Y-371890D02*
G03X339680I130J147D01*
G02X340800Y-371480I1115J-1312D01*
G02X341920Y-371890I5J-1722D01*
G03X342180I130J147D01*
G02X343300Y-371480I1115J-1312D01*
G02X345020Y-373200I0J-1720D01*
G02X344610Y-374320I-1722J-5D01*
G03Y-374580I147J-130D01*
G02X345020Y-375700I-1312J-1115D01*
G02X344610Y-376820I-1722J-5D01*
G03Y-377080I147J-130D01*
G02X345020Y-378200I-1312J-1115D01*
G02X344330Y-379580I-1725J0D01*
G03Y-380220I236J-320D01*
G02X345020Y-381600I-1035J-1380D01*
G02X344610Y-382720I-1722J-5D01*
G03Y-382980I147J-130D01*
G02X345020Y-384100I-1312J-1115D01*
G02X344610Y-385220I-1722J-5D01*
G03Y-385480I147J-130D01*
G02X345020Y-386600I-1312J-1115D01*
G02X343300Y-388320I-1720J0D01*
G02X342180Y-387910I-5J1722D01*
G03X341920I-130J-147D01*
G02X340800Y-388320I-1115J1312D01*
G02X339680Y-387910I-5J1722D01*
G03X339420I-130J-147D01*
G02X338300Y-388320I-1115J1312D01*
G02X337180Y-387910I-5J1722D01*
G03X336920I-130J-147D01*
G02X335800Y-388320I-1115J1312D01*
G02X334680Y-387910I-5J1722D01*
G03X334420I-130J-147D01*
G02X333300Y-388320I-1115J1312D01*
G02X332180Y-387910I-5J1722D01*
G03X331920I-130J-147D01*
G02X330800Y-388320I-1115J1312D01*
G02X329080Y-386600I0J1720D01*
G02X329490Y-385480I1722J5D01*
G03Y-385220I-147J130D01*
G02X329080Y-384100I1312J1115D01*
G02X329490Y-382980I1722J5D01*
G03Y-382720I-147J130D01*
G02X329080Y-381600I1312J1115D01*
G02X329770Y-380220I1725J0D01*
G03Y-379580I-236J320D01*
G02X329080Y-378200I1035J1380D01*
G02X329490Y-377080I1722J5D01*
G03Y-376820I-147J130D01*
G02X329080Y-375700I1312J1115D01*
G02X329490Y-374580I1722J5D01*
G03Y-374320I-147J130D01*
G02X329080Y-373200I1312J1115D01*
G02X330800Y-371480I1720J0D01*
G02X331920Y-371890I5J-1722D01*
G03X332180I130J147D01*
G02X333300Y-371480I1115J-1312D01*
G02X334420Y-371890I5J-1722D01*
G03X334680I130J147D01*
G02X335800Y-371480I1115J-1312D01*
G02X336920Y-371890I5J-1722D01*
G03X337180I130J147D01*
G02X338300Y-371480I1115J-1312D01*
G02X339420Y-371890I5J-1722D01*
G37*
G36*
G01X308020Y-326690D02*
G03X308280I130J147D01*
G02X309400Y-326280I1115J-1312D01*
G02X310520Y-326690I5J-1722D01*
G03X310780I130J147D01*
G02X311900Y-326280I1115J-1312D01*
G02X313620Y-328000I0J-1720D01*
G02X313210Y-329120I-1722J-5D01*
G03Y-329380I147J-130D01*
G02X313620Y-330500I-1312J-1115D01*
G02X313210Y-331620I-1722J-5D01*
G03Y-331880I147J-130D01*
G02X313620Y-333000I-1312J-1115D01*
G02X313210Y-334120I-1722J-5D01*
G03Y-334380I147J-130D01*
G02X313620Y-335500I-1312J-1115D01*
G02X313210Y-336620I-1722J-5D01*
G03Y-336880I147J-130D01*
G02X313620Y-338000I-1312J-1115D01*
G02X313210Y-339120I-1722J-5D01*
G03Y-339380I147J-130D01*
G02X313620Y-340500I-1312J-1115D01*
G02X311900Y-342220I-1720J0D01*
G02X310780Y-341810I-5J1722D01*
G03X310520I-130J-147D01*
G02X309400Y-342220I-1115J1312D01*
G02X308280Y-341810I-5J1722D01*
G03X308020I-130J-147D01*
G02X306900Y-342220I-1115J1312D01*
G02X305180Y-340500I0J1720D01*
G02X305590Y-339380I1722J5D01*
G03Y-339120I-147J130D01*
G02X305180Y-338000I1312J1115D01*
G02X305590Y-336880I1722J5D01*
G03Y-336620I-147J130D01*
G02X305180Y-335500I1312J1115D01*
G02X305590Y-334380I1722J5D01*
G03Y-334120I-147J130D01*
G02X305180Y-333000I1312J1115D01*
G02X305590Y-331880I1722J5D01*
G03Y-331620I-147J130D01*
G02X305180Y-330500I1312J1115D01*
G02X305590Y-329380I1722J5D01*
G03Y-329120I-147J130D01*
G02X305180Y-328000I1312J1115D01*
G02X306900Y-326280I1720J0D01*
G02X308020Y-326690I5J-1722D01*
G37*
G36*
G01X319420Y-307890D02*
G03X319680I130J147D01*
G02X320800Y-307480I1115J-1312D01*
G02X321920Y-307890I5J-1722D01*
G03X322180I130J147D01*
G02X323300Y-307480I1115J-1312D01*
G02X325020Y-309200I0J-1720D01*
G02X324610Y-310320I-1722J-5D01*
G03Y-310580I147J-130D01*
G02X325020Y-311700I-1312J-1115D01*
G02X324610Y-312820I-1722J-5D01*
G03Y-313080I147J-130D01*
G02X325020Y-314200I-1312J-1115D01*
G02X324610Y-315320I-1722J-5D01*
G03Y-315580I147J-130D01*
G02X325020Y-316700I-1312J-1115D01*
G02X324610Y-317820I-1722J-5D01*
G03Y-318080I147J-130D01*
G02X325020Y-319200I-1312J-1115D01*
G02X324610Y-320320I-1722J-5D01*
G03Y-320580I147J-130D01*
G02X325020Y-321700I-1312J-1115D01*
G02X323300Y-323420I-1720J0D01*
G02X322180Y-323010I-5J1722D01*
G03X321920I-130J-147D01*
G02X320800Y-323420I-1115J1312D01*
G02X319680Y-323010I-5J1722D01*
G03X319420I-130J-147D01*
G02X318300Y-323420I-1115J1312D01*
G02X316580Y-321700I0J1720D01*
G02X316990Y-320580I1722J5D01*
G03Y-320320I-147J130D01*
G02X316580Y-319200I1312J1115D01*
G02X316990Y-318080I1722J5D01*
G03Y-317820I-147J130D01*
G02X316580Y-316700I1312J1115D01*
G02X316990Y-315580I1722J5D01*
G03Y-315320I-147J130D01*
G02X316580Y-314200I1312J1115D01*
G02X316990Y-313080I1722J5D01*
G03Y-312820I-147J130D01*
G02X316580Y-311700I1312J1115D01*
G02X316990Y-310580I1722J5D01*
G03Y-310320I-147J130D01*
G02X316580Y-309200I1312J1115D01*
G02X318300Y-307480I1720J0D01*
G02X319420Y-307890I5J-1722D01*
G37*
G36*
G01X370320Y-268180D02*
G03Y-267920I-151J130D01*
G02X369880Y-266770I1283J1150D01*
G02X373320I1720J0D01*
G02X372880Y-267920I-1723J0D01*
G03Y-268180I151J-130D01*
G02Y-270480I-1283J-1150D01*
G03Y-270740I151J-130D01*
G02Y-273040I-1283J-1150D01*
G03Y-273300I151J-130D01*
G02X373320Y-274450I-1283J-1150D01*
G02X369880I-1720J0D01*
G02X370320Y-273300I1723J0D01*
G03Y-273040I-151J130D01*
G02Y-270740I1283J1150D01*
G03Y-270480I-151J130D01*
G02Y-268180I1283J1150D01*
G37*
G36*
G01X-431940Y1240D02*
G03Y1500I-151J130D01*
G02X-432380Y2650I1283J1150D01*
G02X-428940I1720J0D01*
G02X-429380Y1500I-1723J0D01*
G03Y1240I151J-130D01*
G02Y-1060I-1283J-1150D01*
G03Y-1320I151J-130D01*
G02Y-3620I-1283J-1150D01*
G03Y-3880I151J-130D01*
G02X-428940Y-5030I-1283J-1150D01*
G02X-432380I-1720J0D01*
G02X-431940Y-3880I1723J0D01*
G03Y-3620I-151J130D01*
G02Y-1320I1283J1150D01*
G03Y-1060I-151J130D01*
G02Y1240I1283J1150D01*
G37*
G36*
G01X285520Y0D02*
G02I-285520J0D01*
G37*
G36*
G01X173920Y-410860D02*
G02X173700Y-410870I-188J1711D01*
G02X175420Y-409150I0J1720D01*
G02X175380Y-409520I-1731J0D01*
G03X175820Y-410000I389J-85D01*
G02X176040Y-409990I188J-1711D01*
G02Y-413430I0J-1720D01*
G02X175820Y-413420I-32J1721D01*
G03X175380Y-413900I-51J-395D01*
G02Y-414640I-1691J-370D01*
G03X175820Y-415120I389J-85D01*
G02X176040Y-415110I188J-1711D01*
G02X174320Y-416830I0J-1720D01*
G02X174360Y-416460I1731J0D01*
G03X173920Y-415980I-389J85D01*
G02X173700Y-415990I-188J1711D01*
G02Y-412550I0J1720D01*
G02X173920Y-412560I32J-1721D01*
G03X174360Y-412080I51J395D01*
G02Y-411340I1691J370D01*
G03X173920Y-410860I-389J85D01*
G37*
G36*
G01X339580Y-389190D02*
G02X340700Y-388780I1115J-1312D01*
G02X341820Y-389190I5J-1722D01*
G03X342080I130J147D01*
G02X343200Y-388780I1115J-1312D01*
G02X344920Y-390500I0J-1720D01*
G02X344510Y-391620I-1722J-5D01*
G03Y-391880I147J-130D01*
G02X344920Y-393000I-1312J-1115D01*
G02X344510Y-394120I-1722J-5D01*
G03Y-394380I147J-130D01*
G02X344920Y-395500I-1312J-1115D01*
G02X343980Y-397030I-1715J0D01*
G03X343970Y-397740I182J-358D01*
G02X344870Y-399250I-817J-1510D01*
G02X344460Y-400370I-1722J-5D01*
G03Y-400630I147J-130D01*
G02X344870Y-401750I-1312J-1115D01*
G02X344460Y-402870I-1722J-5D01*
G03Y-403130I147J-130D01*
G02X344870Y-404250I-1312J-1115D01*
G02X343150Y-405970I-1720J0D01*
G02X342030Y-405560I-5J1722D01*
G03X341770I-130J-147D01*
G02X340650Y-405970I-1115J1312D01*
G02X339530Y-405560I-5J1722D01*
G03X339270I-130J-147D01*
G02X338150Y-405970I-1115J1312D01*
G02X337030Y-405560I-5J1722D01*
G03X336770I-130J-147D01*
G02X335650Y-405970I-1115J1312D01*
G02X334530Y-405560I-5J1722D01*
G03X334270I-130J-147D01*
G02X333150Y-405970I-1115J1312D01*
G02X332030Y-405560I-5J1722D01*
G03X331770I-130J-147D01*
G02X330650Y-405970I-1115J1312D01*
G02X328930Y-404250I0J1720D01*
G02X329340Y-403130I1722J5D01*
G03Y-402870I-147J130D01*
G02X328930Y-401750I1312J1115D01*
G02X329340Y-400630I1722J5D01*
G03Y-400370I-147J130D01*
G02X328930Y-399250I1312J1115D01*
G02X329870Y-397720I1715J0D01*
G03X329880Y-397010I-182J358D01*
G02X328980Y-395500I817J1510D01*
G02X329390Y-394380I1722J5D01*
G03Y-394120I-147J130D01*
G02X328980Y-393000I1312J1115D01*
G02X329390Y-391880I1722J5D01*
G03Y-391620I-147J130D01*
G02X328980Y-390500I1312J1115D01*
G02X330700Y-388780I1720J0D01*
G02X331820Y-389190I5J-1722D01*
G03X332080I130J147D01*
G02X333200Y-388780I1115J-1312D01*
G02X334320Y-389190I5J-1722D01*
G03X334580I130J147D01*
G02X335700Y-388780I1115J-1312D01*
G02X336820Y-389190I5J-1722D01*
G03X337080I130J147D01*
G02X338200Y-388780I1115J-1312D01*
G02X339320Y-389190I5J-1722D01*
G03X339580I130J147D01*
G37*
G36*
G01X244870Y-330700D02*
G02X244650Y-330710I-188J1711D01*
G02X246370Y-328990I0J1720D01*
G02X246330Y-329360I-1731J0D01*
G03X246770Y-329840I389J-85D01*
G02X246990Y-329830I188J-1711D01*
G02Y-333270I0J-1720D01*
G02X246770Y-333260I-32J1721D01*
G03X246330Y-333740I-51J-395D01*
G02Y-334480I-1691J-370D01*
G03X246770Y-334960I389J-85D01*
G02X246990Y-334950I188J-1711D01*
G02Y-338390I0J-1720D01*
G02X246770Y-338380I-32J1721D01*
G03X246330Y-338860I-51J-395D01*
G02Y-339600I-1691J-370D01*
G03X246770Y-340080I389J-85D01*
G02X246990Y-340070I188J-1711D01*
G02Y-343510I0J-1720D01*
G02X246770Y-343500I-32J1721D01*
G03X246330Y-343980I-51J-395D01*
G02Y-344720I-1691J-370D01*
G03X246770Y-345200I389J-85D01*
G02X246990Y-345190I188J-1711D01*
G02X245270Y-346910I0J-1720D01*
G02X245310Y-346540I1731J0D01*
G03X244870Y-346060I-389J85D01*
G02X244650Y-346070I-188J1711D01*
G02Y-342630I0J1720D01*
G02X244870Y-342640I32J-1721D01*
G03X245310Y-342160I51J395D01*
G02Y-341420I1691J370D01*
G03X244870Y-340940I-389J85D01*
G02X244650Y-340950I-188J1711D01*
G02Y-337510I0J1720D01*
G02X244870Y-337520I32J-1721D01*
G03X245310Y-337040I51J395D01*
G02Y-336300I1691J370D01*
G03X244870Y-335820I-389J85D01*
G02X244650Y-335830I-188J1711D01*
G02Y-332390I0J1720D01*
G02X244870Y-332400I32J-1721D01*
G03X245310Y-331920I51J395D01*
G02Y-331180I1691J370D01*
G03X244870Y-330700I-389J85D01*
G37*
G36*
G01X328580Y-307990D02*
G02X329700Y-307580I1115J-1312D01*
G02X330820Y-307990I5J-1722D01*
G03X331080I130J147D01*
G02X332200Y-307580I1115J-1312D01*
G02X333730Y-308520I0J-1715D01*
G03X334440Y-308530I358J182D01*
G02X335950Y-307630I1510J-817D01*
G02X337070Y-308040I5J-1722D01*
G03X337330I130J147D01*
G02X338450Y-307630I1115J-1312D01*
G02X339570Y-308040I5J-1722D01*
G03X339830I130J147D01*
G02X340950Y-307630I1115J-1312D01*
G02X342670Y-309350I0J-1720D01*
G02X342260Y-310470I-1722J-5D01*
G03Y-310730I147J-130D01*
G02X342670Y-311850I-1312J-1115D01*
G02X342260Y-312970I-1722J-5D01*
G03Y-313230I147J-130D01*
G02X342670Y-314350I-1312J-1115D01*
G02X342260Y-315470I-1722J-5D01*
G03Y-315730I147J-130D01*
G02X342670Y-316850I-1312J-1115D01*
G02X342260Y-317970I-1722J-5D01*
G03Y-318230I147J-130D01*
G02X342670Y-319350I-1312J-1115D01*
G02X342260Y-320470I-1722J-5D01*
G03Y-320730I147J-130D01*
G02X342670Y-321850I-1312J-1115D01*
G02X340950Y-323570I-1720J0D01*
G02X339830Y-323160I-5J1722D01*
G03X339570I-130J-147D01*
G02X338450Y-323570I-1115J1312D01*
G02X337330Y-323160I-5J1722D01*
G03X337070I-130J-147D01*
G02X335950Y-323570I-1115J1312D01*
G02X334420Y-322630I0J1715D01*
G03X333710Y-322620I-358J-182D01*
G02X332200Y-323520I-1510J817D01*
G02X331080Y-323110I-5J1722D01*
G03X330820I-130J-147D01*
G02X329700Y-323520I-1115J1312D01*
G02X328580Y-323110I-5J1722D01*
G03X328320I-130J-147D01*
G02X327200Y-323520I-1115J1312D01*
G02X325480Y-321800I0J1720D01*
G02X325890Y-320680I1722J5D01*
G03Y-320420I-147J130D01*
G02X325480Y-319300I1312J1115D01*
G02X325890Y-318180I1722J5D01*
G03Y-317920I-147J130D01*
G02X325480Y-316800I1312J1115D01*
G02X325890Y-315680I1722J5D01*
G03Y-315420I-147J130D01*
G02X325480Y-314300I1312J1115D01*
G02X325890Y-313180I1722J5D01*
G03Y-312920I-147J130D01*
G02X325480Y-311800I1312J1115D01*
G02X325890Y-310680I1722J5D01*
G03Y-310420I-147J130D01*
G02X325480Y-309300I1312J1115D01*
G02X327200Y-307580I1720J0D01*
G02X328320Y-307990I5J-1722D01*
G03X328580I130J147D01*
G37*
G54D19*
X-400000Y400000D03*
X400000D03*
X-400000Y-400000D03*
X400000D03*
G54D21*
X-183650Y-419280D03*
X-187400Y-421840D03*
Y-426960D03*
X-183650Y-409040D03*
X-187400Y-411600D03*
X-183650Y-414160D03*
X-187400Y-416720D03*
X294900Y-253940D03*
X291150Y-256500D03*
X294900Y-259060D03*
X291150Y-261620D03*
X-359250Y-18010D03*
X-355500Y-15450D03*
X-359250Y-12890D03*
X-355500Y-10330D03*
X-359250Y-7770D03*
X-355500Y-5210D03*
X-359250Y-2650D03*
X-355500Y-90D03*
X-277320Y171660D03*
X-172820Y259330D03*
X-154340Y287320D03*
X-282010Y93540D03*
X-178980Y250000D03*
X301000Y40000D03*
X-160500Y277990D03*
X321000Y0D03*
X306000Y30000D03*
X250000Y178980D03*
X291000Y60000D03*
X-30000Y306000D03*
X0Y321000D03*
X-10000Y316000D03*
X-20000Y311000D03*
X10000Y326000D03*
X-60000Y291000D03*
X-50000Y296000D03*
X104700Y281340D03*
X259330Y172820D03*
X296000Y50000D03*
X-279330Y138180D03*
X311000Y20000D03*
X-280670Y115860D03*
X326000Y-10000D03*
X-277990Y160500D03*
X-280000Y127020D03*
X149340Y278660D03*
X93540Y282010D03*
X-191300Y231340D03*
X-185140Y240670D03*
X-166660Y268660D03*
X-278660Y149340D03*
X-281340Y104700D03*
X-40000Y301000D03*
X127020Y280000D03*
X160500Y277990D03*
X138180Y279330D03*
X171660Y277320D03*
X-301000Y-40000D03*
X-296000Y-50000D03*
X-291000Y-60000D03*
X-326000Y10000D03*
X-311000Y-20000D03*
X-316000Y-10000D03*
X-321000Y0D03*
X-306000Y-30000D03*
X277990Y160500D03*
X222010Y197460D03*
X231340Y191300D03*
X240670Y185140D03*
X-197460Y222010D03*
X287320Y154340D03*
X115860Y280670D03*
X268660Y166660D03*
X316000Y10000D03*
X-240670Y-185140D03*
X-231340Y-191300D03*
X-222010Y-197460D03*
X-287320Y-154340D03*
X-259330Y-172820D03*
X-268660Y-166660D03*
X-277990Y-160500D03*
X-250000Y-178980D03*
X-115860Y-280670D03*
X-104700Y-281340D03*
X-93540Y-282010D03*
X-171660Y-277320D03*
X-138180Y-279330D03*
X-149340Y-278660D03*
X-160500Y-277990D03*
X-127020Y-280000D03*
X40000Y-301000D03*
X50000Y-296000D03*
X60000Y-291000D03*
X-10000Y-326000D03*
X20000Y-311000D03*
X10000Y-316000D03*
X0Y-321000D03*
X30000Y-306000D03*
X185140Y-240670D03*
X191300Y-231340D03*
X197460Y-222010D03*
X154340Y-287320D03*
X172820Y-259330D03*
X166660Y-268660D03*
X160500Y-277990D03*
X178980Y-250000D03*
X280670Y-115860D03*
X281340Y-104700D03*
X282010Y-93540D03*
X277320Y-171660D03*
X279330Y-138180D03*
X278660Y-149340D03*
X277990Y-160500D03*
X280000Y-127020D03*
X31550Y-384340D03*
X-58960Y-413040D03*
X21550Y-384340D03*
X-3450D03*
X16550Y-423550D03*
X-18450Y-384340D03*
X6550Y-423550D03*
X-13450Y-384340D03*
X-43450D03*
X6550D03*
X1550D03*
X41550D03*
X46550D03*
X16550D03*
X-23450D03*
X-28450D03*
X-33450D03*
X26550D03*
X-38450D03*
X-8450D03*
X11550D03*
X36550D03*
X-57640Y-348350D03*
X-52680Y-359950D03*
X124780Y-331000D03*
X135100Y-339570D03*
X285740Y-225800D03*
X272910Y-224520D03*
X359050Y-52680D03*
X347450Y-57640D03*
X337170Y136850D03*
X329400Y125280D03*
X224070Y273510D03*
X225850Y287340D03*
X52580Y360950D03*
X57490Y349850D03*
X-124630Y329900D03*
X-135250Y337520D03*
X-272560Y224070D03*
X-285440Y225700D03*
X-349500Y57490D03*
X-360150Y52580D03*
X-330350Y-124930D03*
X-338270Y-136050D03*
X-224720Y-274460D03*
X-226600Y-287490D03*
X-48450Y-384340D03*
X349550Y-251420D03*
X-405200Y27750D03*
X147300Y-375900D03*
X-425700Y-47300D03*
X142850Y-421950D03*
X-134500Y-406370D03*
X-164140Y-390640D03*
X-143200Y-429400D03*
X142850Y-398920D03*
X-224750Y-384450D03*
X-183650Y-424400D03*
X54650Y-432450D03*
X62900Y-432400D03*
X-218150Y-302950D03*
X-218550Y-408970D03*
X430150Y-39450D03*
X-218550Y-432000D03*
X-272400Y-414150D03*
X38350Y-432450D03*
X436950Y143100D03*
X397850D03*
X-268650Y-416710D03*
Y-411590D03*
X395850Y-39450D03*
X-268650Y-426950D03*
X-272400Y-429510D03*
X-268650Y-421830D03*
X-272400Y-424390D03*
X-50800Y-432100D03*
X-177590Y-343000D03*
X-405000Y169000D03*
X-442400Y27750D03*
X-329200Y273700D03*
X366050Y-227000D03*
X-272400Y-419270D03*
X-218150Y-287050D03*
X199650Y-376000D03*
X309300Y-266550D03*
X-58900Y-432050D03*
X-156450Y-351900D03*
X-186650Y-377660D03*
Y-321850D03*
X46500Y-432350D03*
X-42750Y-432150D03*
X-34650D03*
X-26500D03*
X-18400Y-432200D03*
X-10350D03*
X-2300Y-432250D03*
X5800Y-432300D03*
X13850Y-432350D03*
X-208120Y-411530D03*
X22000Y-432400D03*
X30150Y-432500D03*
X-435200Y169000D03*
X350010Y-232260D03*
X-191960Y-352000D03*
X-237550Y341750D03*
X343800Y62400D03*
X-338950Y161650D03*
X-344600Y100250D03*
X77100Y-436650D03*
X-344600Y-62250D03*
X146100Y-349700D03*
X343800Y225300D03*
X261950Y-263700D03*
X325600Y-126300D03*
X354200Y-319850D03*
X84150Y-433800D03*
X-66200Y-408100D03*
X-107830Y-424280D03*
X158650Y318100D03*
X-64110Y-390640D03*
X-65200Y344810D03*
X-81600Y-431350D03*
X-78500Y-434150D03*
X309750Y-261350D03*
X-208120Y-416650D03*
X-211380Y-414090D03*
X-208900Y-432000D03*
X-103000Y-427050D03*
X-208120Y-421760D03*
X-211380Y-419200D03*
X-105300Y-431350D03*
X-208120Y-426880D03*
X-211380Y-424320D03*
X-78500Y-415100D03*
X-99700Y-434150D03*
X315180Y168910D03*
X-74150Y-411500D03*
X-106300Y-438000D03*
X-196500Y-429440D03*
X-76550Y-438000D03*
X269210Y-313950D03*
X169250Y-375900D03*
X-407730Y-20380D03*
X176030Y-398920D03*
X-403600Y-47600D03*
X177600Y-375850D03*
X-202700Y-385300D03*
X-156250Y-372450D03*
X-209750Y-372250D03*
G54D20*
X335860Y10000D03*
Y0D03*
Y-10000D03*
Y-20000D03*
Y-30000D03*
Y-40000D03*
Y-50000D03*
Y-60000D03*
Y70000D03*
Y60000D03*
Y50000D03*
Y40000D03*
Y30000D03*
Y20000D03*
Y-70000D03*
X176590Y-285860D03*
X167930Y-290860D03*
X159270Y-295860D03*
X150610Y-300860D03*
X141950Y-305860D03*
X133290Y-310860D03*
X124630Y-315860D03*
X115970Y-320860D03*
X228550Y-255860D03*
X219890Y-260860D03*
X211230Y-265860D03*
X202570Y-270860D03*
X193910Y-275860D03*
X185250Y-280860D03*
X107310Y-325860D03*
X159270Y295860D03*
X167930Y290860D03*
X176590Y285860D03*
X185250Y280860D03*
X193910Y275860D03*
X202570Y270860D03*
X211230Y265860D03*
X219890Y260860D03*
X107310Y325860D03*
X115970Y320860D03*
X124630Y315860D03*
X133290Y310860D03*
X141950Y305860D03*
X150610Y300860D03*
X228550Y255860D03*
X-176590Y285860D03*
X-167930Y290860D03*
X-159270Y295860D03*
X-150610Y300860D03*
X-141950Y305860D03*
X-133290Y310860D03*
X-124630Y315860D03*
X-115970Y320860D03*
X-228550Y255860D03*
X-219890Y260860D03*
X-211230Y265860D03*
X-202570Y270860D03*
X-193910Y275860D03*
X-185250Y280860D03*
X-107310Y325860D03*
X-335860Y-10000D03*
Y0D03*
Y10000D03*
Y20000D03*
Y30000D03*
Y40000D03*
Y50000D03*
Y60000D03*
Y-70000D03*
Y-60000D03*
Y-50000D03*
Y-40000D03*
Y-30000D03*
Y-20000D03*
Y70000D03*
X10000Y-335860D03*
X0D03*
X-10000D03*
X-20000D03*
X-30000D03*
X-40000D03*
X-50000D03*
X-60000D03*
X70000D03*
X60000D03*
X50000D03*
X40000D03*
X30000D03*
X20000D03*
X-70000D03*
X285860Y176590D03*
X290860Y167930D03*
X295860Y159270D03*
X300860Y150610D03*
X305860Y141950D03*
X310860Y133290D03*
X315860Y124630D03*
X320860Y115970D03*
X255860Y228550D03*
X260860Y219890D03*
X265860Y211230D03*
X270860Y202570D03*
X275860Y193910D03*
X280860Y185250D03*
X325860Y107310D03*
X295860Y-159270D03*
X290860Y-167930D03*
X285860Y-176590D03*
X280860Y-185250D03*
X275860Y-193910D03*
X270860Y-202570D03*
X265860Y-211230D03*
X260860Y-219890D03*
X325860Y-107310D03*
X320860Y-115970D03*
X315860Y-124630D03*
X310860Y-133290D03*
X305860Y-141950D03*
X300860Y-150610D03*
X255860Y-228550D03*
X-10000Y335860D03*
X0D03*
X10000D03*
X20000D03*
X30000D03*
X40000D03*
X50000D03*
X60000D03*
X-70000D03*
X-60000D03*
X-50000D03*
X-40000D03*
X-30000D03*
X-20000D03*
X70000D03*
X-295860Y159270D03*
X-290860Y167930D03*
X-285860Y176590D03*
X-280860Y185250D03*
X-275860Y193910D03*
X-270860Y202570D03*
X-265860Y211230D03*
X-260860Y219890D03*
X-325860Y107310D03*
X-320860Y115970D03*
X-315860Y124630D03*
X-310860Y133290D03*
X-305860Y141950D03*
X-300860Y150610D03*
X-255860Y228550D03*
X-285860Y-176590D03*
X-290860Y-167930D03*
X-295860Y-159270D03*
X-300860Y-150610D03*
X-305860Y-141950D03*
X-310860Y-133290D03*
X-315860Y-124630D03*
X-320860Y-115970D03*
X-255860Y-228550D03*
X-260860Y-219890D03*
X-265860Y-211230D03*
X-270860Y-202570D03*
X-275860Y-193910D03*
X-280860Y-185250D03*
X-325860Y-107310D03*
X-159270Y-295860D03*
X-167930Y-290860D03*
X-176590Y-285860D03*
X-185250Y-280860D03*
X-193910Y-275860D03*
X-202570Y-270860D03*
X-211230Y-265860D03*
X-219890Y-260860D03*
X-107310Y-325860D03*
X-115970Y-320860D03*
X-124630Y-315860D03*
X-133290Y-310860D03*
X-141950Y-305860D03*
X-150610Y-300860D03*
X-228550Y-255860D03*
G54D22*
X52690Y-403940D03*
X-54510D03*
%LPD*%
G75*
G54D10*
X-435000Y-435000D03*
Y435000D03*
X-400000Y-400000D03*
Y400000D03*
X400000Y-400000D03*
Y400000D03*
X435000Y-435000D03*
Y435000D03*
G54D11*
X-425700Y-47300D03*
X-421100Y-25500D03*
X-421090Y-22940D03*
X-430660Y-2470D03*
Y-5030D03*
Y2650D03*
Y90D03*
X-442400Y27750D03*
X-435200Y169000D03*
X-403600Y-47600D03*
X-407730Y-20380D03*
X-399040Y-22940D03*
X-399050Y-25500D03*
X-405200Y27750D03*
X-405000Y169000D03*
X-359250Y-18010D03*
Y-12890D03*
Y-7770D03*
Y-2650D03*
X-362650Y24460D03*
X-360150Y52580D03*
Y74520D03*
X-330350Y-124930D03*
X-338270Y-136050D03*
X-338750Y-110370D03*
X-349230Y-117050D03*
X-344600Y-62250D03*
X-355500Y-15450D03*
Y-10330D03*
Y-5210D03*
Y-90D03*
X-349500Y57490D03*
Y74310D03*
X-344600Y100250D03*
X-338950Y161650D03*
X-329200Y273700D03*
X-322250Y-157820D03*
X-301000Y-40000D03*
X-316000Y-10000D03*
X-311000Y-20000D03*
X-306000Y-30000D03*
X-326000Y10000D03*
X-321000Y0D03*
X-298590Y199780D03*
X-268650Y-426950D03*
X-272400Y-429510D03*
Y-424390D03*
X-268650Y-421830D03*
Y-411590D03*
X-272400Y-414150D03*
X-268650Y-416710D03*
X-272400Y-419270D03*
X-287320Y-154340D03*
X-268660Y-166660D03*
X-277990Y-160500D03*
X-296000Y-50000D03*
X-291000Y-60000D03*
X-280670Y115860D03*
X-281340Y104700D03*
X-282010Y93540D03*
X-278660Y149340D03*
X-279330Y138180D03*
X-280000Y127020D03*
X-277320Y171660D03*
X-277990Y160500D03*
X-272560Y224070D03*
X-285440Y225700D03*
X-274460Y244700D03*
X-245600Y-276510D03*
X-239280Y-266040D03*
X-240670Y-185140D03*
X-259330Y-172820D03*
X-250000Y-178980D03*
X-264140Y238630D03*
X-218550Y-432000D03*
X-208900D03*
X-211380Y-424320D03*
X-208120Y-426880D03*
Y-421760D03*
X-230950Y-406410D03*
Y-403850D03*
X-218550Y-408970D03*
X-208900Y-403850D03*
Y-406410D03*
X-211380Y-408970D03*
X-208120Y-411530D03*
X-211380Y-414090D03*
X-208120Y-416650D03*
X-211380Y-419200D03*
X-209750Y-372250D03*
X-224750Y-384450D03*
X-218150Y-302950D03*
X-224720Y-274460D03*
X-226600Y-287490D03*
X-218150Y-287050D03*
X-231340Y-191300D03*
X-222010Y-197460D03*
X-237550Y341750D03*
X-196500Y-429440D03*
X-187400Y-426960D03*
Y-421840D03*
X-183650Y-424400D03*
X-187400Y-411600D03*
X-183650Y-414160D03*
X-187400Y-416720D03*
X-183650Y-419280D03*
Y-409040D03*
X-202700Y-385300D03*
X-186650Y-377660D03*
X-196560Y-366940D03*
X-204440Y-358560D03*
X-191960Y-352000D03*
X-185470Y-304910D03*
X-186650Y-321850D03*
X-191300Y231340D03*
X-197460Y222010D03*
X-178980Y250000D03*
X-185140Y240670D03*
X-164140Y-390640D03*
X-156250Y-372450D03*
X-177590Y-363350D03*
X-156450Y-351900D03*
X-177590Y-343000D03*
X-171660Y-277320D03*
X-149340Y-278660D03*
X-160500Y-277990D03*
X-166660Y268660D03*
X-172820Y259330D03*
X-154340Y287320D03*
X-160500Y277990D03*
X-158020Y321000D03*
X-143200Y-429400D03*
X-121150D03*
Y-426840D03*
X-143200Y-403810D03*
Y-401250D03*
X-134500Y-406370D03*
X-138180Y-279330D03*
X-127020Y-280000D03*
X-124630Y329900D03*
X-135250Y337520D03*
X-103000Y-427050D03*
X-107830Y-424280D03*
X-105300Y-431350D03*
X-99700Y-434150D03*
X-106300Y-438000D03*
X-112450Y-403810D03*
Y-401250D03*
Y-408930D03*
X-105910Y-390640D03*
X-90080Y-334140D03*
X-89490Y-329920D03*
X-115860Y-280670D03*
X-104700Y-281340D03*
X-93540Y-282010D03*
X-116250Y348480D03*
X-110070Y338300D03*
X-58900Y-447850D03*
Y-432050D03*
X-81600Y-431350D03*
X-78500Y-434150D03*
X-76550Y-438000D03*
X-66200Y-408100D03*
X-78500Y-415100D03*
X-74150Y-411500D03*
X-58960Y-413040D03*
X-64110Y-390640D03*
X-85660Y-333350D03*
X-74460Y-348350D03*
X-74620Y-359950D03*
X-57640Y-348350D03*
X-60000Y291000D03*
X-65200Y344810D03*
X-34650Y-447950D03*
X-42750D03*
X-50800Y-447900D03*
Y-432100D03*
X-42750Y-432150D03*
X-34650D03*
X-48450Y-384340D03*
X-47600Y-363150D03*
X-28450Y-384340D03*
X-33450D03*
X-38450D03*
X-43450D03*
X-52680Y-359950D03*
X-50000Y296000D03*
X-30000Y306000D03*
X-40000Y301000D03*
X-2300Y-448050D03*
X-10350Y-448000D03*
X-18400D03*
X-26500Y-447950D03*
Y-432150D03*
X-18400Y-432200D03*
X-10350D03*
X-2300Y-432250D03*
X-24610Y-360750D03*
X1550Y-384340D03*
X-3450D03*
X-8450D03*
X-13450D03*
X-18450D03*
X-23450D03*
X-10000Y-326000D03*
X0Y-321000D03*
X-10000Y316000D03*
X-20000Y311000D03*
X0Y321000D03*
X13850Y-448150D03*
X22000Y-448200D03*
X30150Y-448300D03*
X5800Y-448100D03*
Y-432300D03*
X22000Y-432400D03*
X30150Y-432500D03*
X16550Y-423550D03*
X6550D03*
X13850Y-432350D03*
X11550Y-384340D03*
X6550D03*
X31550D03*
X21550D03*
X16550D03*
X26550D03*
X21600Y-360200D03*
X29950D03*
X10000Y-316000D03*
X20000Y-311000D03*
X30000Y-306000D03*
X10000Y326000D03*
X24310Y358400D03*
X38350Y-448250D03*
X46500Y-448150D03*
X54650Y-448250D03*
X38350Y-432450D03*
X46500Y-432350D03*
X54650Y-432450D03*
X36550Y-384340D03*
X46550D03*
X41550D03*
X38050Y-360150D03*
X46150D03*
X54350Y-360200D03*
X40000Y-301000D03*
X50000Y-296000D03*
X60000Y-291000D03*
X57490Y349850D03*
X52580Y360950D03*
X62900Y-448200D03*
X84150Y-433800D03*
X77100Y-436650D03*
X62900Y-432400D03*
X62600Y-360200D03*
X74310Y349850D03*
X74520Y360950D03*
X102990Y-416550D03*
X100800Y-419110D03*
Y-413990D03*
X102990Y-401190D03*
Y-406310D03*
X100800Y-403750D03*
Y-408870D03*
X102990Y-411430D03*
X110220Y-339400D03*
X116100Y-350530D03*
X115860Y280670D03*
X104700Y281340D03*
X93540Y282010D03*
X142850Y-421950D03*
X151650Y-396360D03*
Y-393800D03*
X142850Y-398920D03*
X147300Y-375900D03*
X124780Y-331000D03*
X135100Y-339570D03*
X146100Y-349700D03*
X149340Y278660D03*
X138180Y279330D03*
X127020Y280000D03*
X164900Y-421950D03*
Y-419390D03*
Y-393800D03*
X173240Y-396360D03*
X176040Y-411710D03*
X173700Y-414270D03*
X176040Y-416830D03*
X173700Y-409150D03*
X176030Y-398920D03*
X169250Y-375900D03*
X177600Y-375850D03*
X170810Y-352040D03*
X173150Y-354600D03*
Y-344360D03*
X170810Y-341800D03*
Y-336690D03*
X173150Y-334130D03*
X170810Y-331570D03*
X173150Y-349480D03*
X170810Y-346920D03*
X173150Y-339250D03*
X157970Y-321600D03*
X173150Y-329010D03*
X170810Y-326450D03*
X154340Y-287320D03*
X160500Y-277990D03*
X166660Y-268660D03*
X172820Y-259330D03*
X178980Y-250000D03*
X171660Y277320D03*
X160500Y277990D03*
X158650Y318100D03*
X199650Y-376000D03*
X204500Y-354600D03*
X194240Y-352040D03*
X185140Y-240670D03*
X191300Y-231340D03*
X197460Y-222010D03*
X192170Y301810D03*
X240670Y185140D03*
X231340Y191300D03*
X222010Y197460D03*
X238630Y265090D03*
X224070Y273510D03*
X225850Y287340D03*
X266150Y-423300D03*
X268650D03*
X271150D03*
X266150Y-410800D03*
Y-413300D03*
Y-415800D03*
Y-418300D03*
Y-420800D03*
X268650Y-410800D03*
Y-413300D03*
Y-415800D03*
Y-418300D03*
Y-420800D03*
X271150Y-410800D03*
Y-413300D03*
Y-415800D03*
Y-418300D03*
Y-420800D03*
X271350Y-391750D03*
X268850D03*
X266350D03*
X263850D03*
X261350D03*
X258850D03*
X271350Y-394250D03*
X268850D03*
X266350D03*
X263850D03*
X261350D03*
X258850D03*
X271350Y-396750D03*
X268850D03*
X266350D03*
X263850D03*
X261350D03*
X258850D03*
X258700Y-405950D03*
X261200D03*
X263700D03*
X266200D03*
X268700D03*
X271200D03*
X258700Y-403450D03*
X261200D03*
X263700D03*
X266200D03*
X268700D03*
X271200D03*
X258700Y-400950D03*
X261200D03*
X263700D03*
X266200D03*
X268700D03*
X271200D03*
X271500Y-382850D03*
X269000D03*
X266500D03*
X264000D03*
X261500D03*
X259000D03*
X271500Y-385350D03*
X269000D03*
X266500D03*
X264000D03*
X261500D03*
X259000D03*
X271500Y-387850D03*
X269000D03*
X266500D03*
X264000D03*
X261500D03*
X259000D03*
X246990Y-331550D03*
Y-346910D03*
X244650Y-344350D03*
X246990Y-341790D03*
X244650Y-339230D03*
X246990Y-336670D03*
X244650Y-334110D03*
X269210Y-313950D03*
X244650Y-328990D03*
X261950Y-263700D03*
X264490Y-239080D03*
X272910Y-224520D03*
X268660Y166660D03*
X259330Y172820D03*
X250000Y178980D03*
X244850Y276360D03*
X295900Y-421450D03*
X293400D03*
X290900D03*
X288400D03*
X285900D03*
X283400D03*
X295900Y-416450D03*
X293400D03*
X290900D03*
X288400D03*
X285900D03*
X283400D03*
X295900Y-418950D03*
X293400D03*
X290900D03*
X288400D03*
X285900D03*
X283400D03*
X295700Y-408000D03*
X293200D03*
X290700D03*
X288200D03*
X285700D03*
X283200D03*
X295700Y-410500D03*
X293200D03*
X290700D03*
X288200D03*
X285700D03*
X283200D03*
X295700Y-413000D03*
X293200D03*
X290700D03*
X288200D03*
X285700D03*
X283200D03*
X282750Y-327700D03*
X285250D03*
X287750D03*
X290250D03*
X292750D03*
X295250D03*
X282750Y-325200D03*
X285250D03*
X287750D03*
X290250D03*
X292750D03*
X295250D03*
X282750Y-322700D03*
X285250D03*
X287750D03*
X290250D03*
X292750D03*
X295250D03*
X274760Y-244800D03*
X294900Y-253940D03*
X291150Y-256500D03*
X294900Y-259060D03*
X291150Y-261620D03*
X285740Y-225800D03*
X297990Y-200430D03*
X277320Y-171660D03*
X277990Y-160500D03*
X278660Y-149340D03*
X279330Y-138180D03*
X280000Y-127020D03*
X280670Y-115860D03*
X281340Y-104700D03*
X282010Y-93540D03*
X301000Y40000D03*
X296000Y50000D03*
X291000Y60000D03*
X287320Y154340D03*
X277990Y160500D03*
X330650Y-399250D03*
Y-401750D03*
Y-404250D03*
X330700Y-393000D03*
Y-395500D03*
X330800Y-373200D03*
Y-381600D03*
Y-384100D03*
Y-386600D03*
Y-375700D03*
Y-378200D03*
X330700Y-390500D03*
X306900Y-338000D03*
Y-340500D03*
X309400Y-338000D03*
Y-340500D03*
X311900Y-338000D03*
Y-340500D03*
X306900Y-333000D03*
Y-335500D03*
X309400Y-333000D03*
Y-335500D03*
X311900Y-333000D03*
Y-335500D03*
X306900Y-328000D03*
Y-330500D03*
X309400Y-328000D03*
Y-330500D03*
X311900Y-328000D03*
Y-330500D03*
X329700Y-321800D03*
X332200D03*
X318300Y-321700D03*
X320800D03*
X323300D03*
X327200Y-321800D03*
X329700Y-311800D03*
X332200D03*
X329700Y-309300D03*
X332200D03*
X329700Y-314300D03*
Y-316800D03*
X332200Y-314300D03*
Y-316800D03*
X329700Y-319300D03*
X332200D03*
X318300Y-309200D03*
Y-311700D03*
X320800Y-309200D03*
Y-311700D03*
X323300Y-309200D03*
Y-311700D03*
X327200Y-311800D03*
Y-309300D03*
X318300Y-314200D03*
Y-316700D03*
X320800Y-314200D03*
Y-316700D03*
X323300Y-314200D03*
Y-316700D03*
X318300Y-319200D03*
X320800D03*
X323300D03*
X327200Y-314300D03*
Y-316800D03*
Y-319300D03*
X309750Y-261350D03*
X309300Y-266550D03*
X325600Y-126300D03*
X326000Y-10000D03*
X316000Y10000D03*
X311000Y20000D03*
X321000Y0D03*
X306000Y30000D03*
X329400Y125280D03*
X321350Y158220D03*
X315180Y168910D03*
X340650Y-399250D03*
Y-401750D03*
Y-404250D03*
X340700Y-393000D03*
Y-395500D03*
X343150Y-399250D03*
Y-401750D03*
Y-404250D03*
X343200Y-393000D03*
Y-395500D03*
X338150Y-399250D03*
X335650D03*
X338150Y-401750D03*
X335650D03*
X338150Y-404250D03*
X335650D03*
X333150Y-399250D03*
Y-401750D03*
Y-404250D03*
X338200Y-393000D03*
X335700D03*
X338200Y-395500D03*
X335700D03*
X333200Y-393000D03*
Y-395500D03*
X343300Y-373200D03*
X340800D03*
X343300Y-381600D03*
X340800D03*
X343300Y-384100D03*
X340800D03*
X343300Y-386600D03*
X340800D03*
X343300Y-375700D03*
X340800D03*
X343300Y-378200D03*
X340800D03*
X340700Y-390500D03*
X343200D03*
X338300Y-373200D03*
X335800D03*
X338300Y-381600D03*
X335800D03*
X338300Y-384100D03*
X335800D03*
X338300Y-386600D03*
X335800D03*
X338300Y-375700D03*
X335800D03*
X338300Y-378200D03*
X335800D03*
X333300Y-373200D03*
Y-381600D03*
Y-384100D03*
Y-386600D03*
Y-375700D03*
Y-378200D03*
X338200Y-390500D03*
X335700D03*
X333200D03*
X335950Y-321850D03*
X338450D03*
X340950D03*
X335950Y-311850D03*
X338450D03*
X340950D03*
X335950Y-309350D03*
X338450D03*
X340950D03*
X335950Y-314350D03*
Y-316850D03*
X338450Y-314350D03*
Y-316850D03*
X340950Y-314350D03*
Y-316850D03*
X335950Y-319350D03*
X338450D03*
X340950D03*
X354200Y-319850D03*
X349550Y-251420D03*
X338550Y-246300D03*
Y-248860D03*
X350010Y-232260D03*
X359050Y-74620D03*
X347450Y-74460D03*
X359050Y-52680D03*
X347450Y-57640D03*
X360400Y-24410D03*
X343800Y62400D03*
X348130Y117850D03*
X337800Y110720D03*
X337170Y136850D03*
X343800Y225300D03*
X371600Y-271890D03*
Y-274450D03*
Y-248860D03*
Y-246300D03*
Y-266770D03*
Y-269330D03*
X366050Y-227000D03*
X395850Y-39450D03*
X397850Y143100D03*
X430150Y-39450D03*
X436950Y143100D03*
G54D12*
X-325860Y-107310D03*
X-335860Y-70000D03*
Y-60000D03*
Y-50000D03*
Y-40000D03*
Y-30000D03*
Y-20000D03*
Y-10000D03*
Y0D03*
Y10000D03*
Y20000D03*
Y30000D03*
Y40000D03*
Y50000D03*
Y60000D03*
Y70000D03*
X-325860Y107310D03*
X-295860Y-159270D03*
X-300860Y-150610D03*
X-305860Y-141950D03*
X-310860Y-133290D03*
X-315860Y-124630D03*
X-320860Y-115970D03*
Y115970D03*
X-315860Y124630D03*
X-310860Y133290D03*
X-305860Y141950D03*
X-300860Y150610D03*
X-295860Y159270D03*
X-265860Y-211230D03*
X-270860Y-202570D03*
X-275860Y-193910D03*
X-280860Y-185250D03*
X-285860Y-176590D03*
X-290860Y-167930D03*
Y167930D03*
X-285860Y176590D03*
X-280860Y185250D03*
X-275860Y193910D03*
X-270860Y202570D03*
X-265860Y211230D03*
X-255860Y-228550D03*
X-260860Y-219890D03*
Y219890D03*
X-255860Y228550D03*
X-211230Y-265860D03*
X-219890Y-260860D03*
X-228550Y-255860D03*
Y255860D03*
X-219890Y260860D03*
X-211230Y265860D03*
X-176590Y-285860D03*
X-185250Y-280860D03*
X-193910Y-275860D03*
X-202570Y-270860D03*
Y270860D03*
X-193910Y275860D03*
X-185250Y280860D03*
X-176590Y285860D03*
X-150610Y-300860D03*
X-159270Y-295860D03*
X-167930Y-290860D03*
Y290860D03*
X-159270Y295860D03*
X-150610Y300860D03*
X-115970Y-320860D03*
X-124630Y-315860D03*
X-133290Y-310860D03*
X-141950Y-305860D03*
Y305860D03*
X-133290Y310860D03*
X-124630Y315860D03*
X-115970Y320860D03*
X-107310Y-325860D03*
Y325860D03*
X-60000Y-335860D03*
X-70000D03*
Y335860D03*
X-60000D03*
X-30000Y-335860D03*
X-40000D03*
X-50000D03*
Y335860D03*
X-40000D03*
X-30000D03*
X0Y-335860D03*
X-10000D03*
X-20000D03*
Y335860D03*
X-10000D03*
X0D03*
X30000Y-335860D03*
X20000D03*
X10000D03*
Y335860D03*
X20000D03*
X30000D03*
X60000Y-335860D03*
X50000D03*
X40000D03*
Y335860D03*
X50000D03*
X60000D03*
X70000Y-335860D03*
Y335860D03*
X115970Y-320860D03*
X107310Y-325860D03*
Y325860D03*
X115970Y320860D03*
X150610Y-300860D03*
X141950Y-305860D03*
X133290Y-310860D03*
X124630Y-315860D03*
X150610Y300860D03*
X124630Y315860D03*
X133290Y310860D03*
X141950Y305860D03*
X176590Y-285860D03*
X167930Y-290860D03*
X159270Y-295860D03*
Y295860D03*
X167930Y290860D03*
X176590Y285860D03*
X202570Y-270860D03*
X193910Y-275860D03*
X185250Y-280860D03*
X211230Y-265860D03*
X202570Y270860D03*
X211230Y265860D03*
X185250Y280860D03*
X193910Y275860D03*
X228550Y-255860D03*
X219890Y-260860D03*
Y260860D03*
X228550Y255860D03*
X265860Y-211230D03*
X260860Y-219890D03*
X255860Y-228550D03*
X270860Y-202570D03*
Y202570D03*
X255860Y228550D03*
X260860Y219890D03*
X265860Y211230D03*
X280860Y-185250D03*
X275860Y-193910D03*
X300860Y-150610D03*
X295860Y-159270D03*
X290860Y-167930D03*
X285860Y-176590D03*
X300860Y150610D03*
X285860Y176590D03*
X290860Y167930D03*
X295860Y159270D03*
X275860Y193910D03*
X280860Y185250D03*
X315860Y-124630D03*
X310860Y-133290D03*
X305860Y-141950D03*
X325860Y-107310D03*
X320860Y-115970D03*
Y115970D03*
X325860Y107310D03*
X305860Y141950D03*
X310860Y133290D03*
X315860Y124630D03*
X335860Y-70000D03*
Y-40000D03*
Y-50000D03*
Y-60000D03*
Y-10000D03*
Y-20000D03*
Y-30000D03*
Y20000D03*
Y10000D03*
Y0D03*
Y50000D03*
Y40000D03*
Y30000D03*
Y70000D03*
Y60000D03*
G54D13*
X0Y0D03*
G54D14*
X-54510Y-403940D03*
X52690D03*
G54D15*
X233600Y-427950D03*
G54D16*
X252100Y-439760D03*
Y-416140D03*
G54D17*
G01X-335860Y66290D02*
Y70000D01*
G01D02*
Y73710D01*
G01X-339570Y70000D02*
X-335860D01*
G01D02*
X-332150D01*
G01X-325860Y-111020D02*
Y-107310D01*
G01D02*
Y-103600D01*
G01X-329570Y-107310D02*
X-325860D01*
G01D02*
X-322150D01*
G01X-255860Y224840D02*
Y228550D01*
G01D02*
Y232260D01*
G01X-259570Y228550D02*
X-255860D01*
G01D02*
X-252150D01*
G01X-228550Y-259570D02*
Y-255860D01*
G01D02*
Y-252150D01*
G01X-232260Y-255860D02*
X-228550D01*
G01D02*
X-224840D01*
G01X-107310Y322150D02*
Y325860D01*
G01D02*
Y329570D01*
G01X-111020Y325860D02*
X-107310D01*
G01D02*
X-103600D01*
G01X-70000Y-339570D02*
Y-335860D01*
G01D02*
Y-332150D01*
G01X-73710Y-335860D02*
X-70000D01*
G01D02*
X-66290D01*
G01X70000Y332150D02*
Y335860D01*
G01D02*
Y339570D01*
G01X66290Y335860D02*
X70000D01*
G01D02*
X73710D01*
G01X107310Y-329570D02*
Y-325860D01*
G01D02*
Y-322150D01*
G01X103600Y-325860D02*
X107310D01*
G01D02*
X111020D01*
G01X228550Y252150D02*
Y255860D01*
G01D02*
Y259570D01*
G01X224840Y255860D02*
X228550D01*
G01D02*
X232260D01*
G01X252100Y-420790D02*
Y-416140D01*
G01D02*
Y-411490D01*
G01X241540Y-416140D02*
X252100D01*
G01D02*
X262660D01*
G01X255860Y-232260D02*
Y-228550D01*
G01D02*
Y-224840D01*
G01X252150Y-228550D02*
X255860D01*
G01D02*
X259570D01*
G01X325860Y103600D02*
Y107310D01*
G01D02*
Y111020D01*
G01X322150Y107310D02*
X325860D01*
G01D02*
X329570D01*
G01X335860Y-73710D02*
Y-70000D01*
G01D02*
Y-66290D01*
G01X332150Y-70000D02*
X335860D01*
G01D02*
X339570D01*
G54D18*
G01X-460000Y-480000D02*
G03I-15000J5000D01*
G01X-465000D02*
G03I-10000J5000D01*
G01X-495000Y-475000D02*
X-455000D01*
G01X-485000Y500000D02*
Y460000D01*
G01X-470000Y475000D02*
G03I-15000J5000D01*
G01X-475000D02*
G03I-10000J5000D01*
G01X-505000Y480000D02*
X-465000D01*
G01X-475000Y-455000D02*
Y-495000D01*
G01X-450000Y-450000D02*
X450000D01*
Y450000D01*
X325000D01*
X320000Y445000D01*
Y370000D01*
X-320000D01*
Y445000D01*
X-325000Y450000D01*
X-450000D01*
Y-450000D01*
G01X-376500Y-400000D02*
G03I-23500J0D01*
G01Y399930D02*
G03I-23500J2D01*
G01X275000Y0D02*
G03I-275000J0D01*
G01X0Y-9000D02*
Y9000D01*
G01Y-9000D02*
Y9000D01*
G01X-9000Y0D02*
X9000D01*
G01X-9000D02*
X9000D01*
G01X423500Y-400000D02*
G03I-23500J0D01*
G01Y399930D02*
G03I-23500J2D01*
G01X480000Y-450000D02*
Y-490000D01*
G01X495000Y-475000D02*
G03I-15000J5000D01*
G01X460000Y-470000D02*
X500000D01*
G01X490000Y-475000D02*
G03I-10000J5000D01*
G01Y455000D02*
G03I-15000J5000D01*
G01X475000Y480000D02*
Y440000D01*
G01X485000Y455000D02*
G03I-10000J5000D01*
G01X455000Y460000D02*
X495000D01*
M02*
