G04 ================== begin FILE IDENTIFICATION RECORD ==================*
G04 Layout Name:  C:/Users/labadmin/Downloads/ww10-exchange/G4.2/arena_12-12_v2.2.brd*
G04 Film Name:    silk_screen_top*
G04 File Format:  Gerber RS274X*
G04 File Origin:  Cadence Allegro 17.4-S007*
G04 Origin Date:  Tue Nov 10 23:59:31 2020*
G04 *
G04 Layer:  CONSTRAINT REGION/ALL*
G04 Layer:  CONSTRAINT REGION/OUTER_LAYERS*
G04 Layer:  CONSTRAINT REGION/INNER_SIGNAL_LAYERS*
G04 Layer:  CONSTRAINT REGION/INNER_PLANE_LAYERS*
G04 Layer:  CONSTRAINT REGION/BOTTOM*
G04 Layer:  CONSTRAINT REGION/LAYER 2*
G04 Layer:  CONSTRAINT REGION/GND2*
G04 Layer:  CONSTRAINT REGION/LAYER 1*
G04 Layer:  CONSTRAINT REGION/PWR*
G04 Layer:  CONSTRAINT REGION/TOP*
G04 Layer:  VIA KEEPOUT/ALL*
G04 Layer:  VIA KEEPOUT/BOTTOM*
G04 Layer:  VIA KEEPOUT/LAYER 2*
G04 Layer:  VIA KEEPOUT/GND2*
G04 Layer:  VIA KEEPOUT/LAYER 1*
G04 Layer:  VIA KEEPOUT/PWR*
G04 Layer:  VIA KEEPOUT/TOP*
G04 Layer:  USER PART NUMBER/SILKSCREEN_TOP*
G04 Layer:  TOLERANCE/SILKSCREEN_TOP*
G04 Layer:  ROUTE KEEPOUT/ALL*
G04 Layer:  ROUTE KEEPOUT/BOTTOM*
G04 Layer:  ROUTE KEEPOUT/LAYER 2*
G04 Layer:  ROUTE KEEPOUT/GND2*
G04 Layer:  ROUTE KEEPOUT/LAYER 1*
G04 Layer:  ROUTE KEEPOUT/PWR*
G04 Layer:  ROUTE KEEPOUT/TOP*
G04 Layer:  ROUTE KEEPIN/ALL*
G04 Layer:  REF DES/SILKSCREEN_TOP*
G04 Layer:  PACKAGE KEEPOUT/ALL*
G04 Layer:  PACKAGE KEEPOUT/TOP*
G04 Layer:  PACKAGE KEEPOUT/BOTTOM*
G04 Layer:  PACKAGE KEEPIN/ALL*
G04 Layer:  PACKAGE GEOMETRY/SILKSCREEN_TOP*
G04 Layer:  DEVICE TYPE/SILKSCREEN_TOP*
G04 Layer:  COMPONENT VALUE/SILKSCREEN_TOP*
G04 Layer:  BOARD GEOMETRY/OUTLINE*
G04 Layer:  BOARD GEOMETRY/SILKSCREEN_TOP*
G04 *
G04 Offset:    (0.0 0.0)*
G04 Mirror:    No*
G04 Mode:      Positive*
G04 Rotation:  0*
G04 FullContactRelief:  No*
G04 UndefLineWidth:     0.1*
G04 ================== end FILE IDENTIFICATION RECORD ====================*
%FSLAX25Y25*MOIN*%
%IR0*IPPOS*OFA0.00000B0.00000*MIA0B0*SFA1.00000B1.00000*%
%ADD10C,.01*%
%ADD11C,.05*%
%ADD12C,.0001*%
G75*
%LPD*%
G75*
G54D10*
G01X-424670Y-425000D02*
Y-420000D01*
X-422500Y-424170D01*
X-420330Y-420000D01*
Y-425000D01*
G01X-419080Y-420830D02*
X-418580Y-420330D01*
X-418000Y-420080D01*
X-417330Y-420000D01*
X-416500Y-420170D01*
X-415920Y-420580D01*
X-415750Y-421080D01*
X-415830Y-421580D01*
X-416170Y-422000D01*
X-417830Y-422830D01*
X-418580Y-423420D01*
X-419080Y-424250D01*
X-419250Y-425000D01*
X-415750D01*
G01X-424670Y445000D02*
Y450000D01*
X-422500Y445830D01*
X-420330Y450000D01*
Y445000D01*
G01X-417670D02*
X-417500Y446080D01*
X-417250Y447000D01*
X-416920Y447830D01*
X-416500Y448750D01*
X-415830Y450000D01*
X-419170D01*
G01X-389670Y-390000D02*
Y-385000D01*
X-387500Y-389170D01*
X-385330Y-385000D01*
Y-390000D01*
G01X-381500D02*
Y-385000D01*
X-384580Y-388580D01*
X-380420D01*
G01X-389670Y410000D02*
Y415000D01*
X-387500Y410830D01*
X-385330Y415000D01*
Y410000D01*
G01X-384080Y412080D02*
X-383500Y412670D01*
X-383000Y413000D01*
X-382330Y413170D01*
X-381750Y413000D01*
X-381330Y412670D01*
X-381000Y412170D01*
X-380920Y411580D01*
X-381000Y411080D01*
X-381330Y410580D01*
X-381830Y410170D01*
X-382420Y410000D01*
X-383080Y410170D01*
X-383670Y410670D01*
X-384000Y411420D01*
X-384080Y412250D01*
X-383920Y413330D01*
X-383670Y413920D01*
X-383250Y414500D01*
X-382670Y414920D01*
X-382080Y415000D01*
X-381500Y414830D01*
X-381080Y414420D01*
G01X-338720Y-85220D02*
X-338940Y-85830D01*
X-338980Y-86430D01*
X-338830Y-87020D01*
X-338360Y-87510D01*
X-337820Y-87780D01*
X-337130Y-87960D01*
X-336470Y-87780D01*
X-333590Y-86110D01*
G01X-336250Y-91490D02*
X-331920Y-88990D01*
X-333290Y-88630D01*
G01X-336750Y-90630D02*
X-335750Y-92360D01*
G01X-329420Y-93320D02*
X-329900Y-92830D01*
X-330510Y-92610D01*
X-331110Y-92570D01*
X-331810Y-92680D01*
X-332500Y-92990D01*
X-333110Y-93430D01*
X-333560Y-93980D01*
X-333830Y-94520D01*
X-333940Y-95160D01*
X-333750Y-95820D01*
X-333270Y-96320D01*
X-332660Y-96540D01*
X-332060Y-96580D01*
X-331360Y-96470D01*
X-330670Y-96160D01*
X-330060Y-95720D01*
X-329610Y-95170D01*
X-329340Y-94630D01*
X-329230Y-93990D01*
X-329420Y-93320D01*
G01X-332690Y-105480D02*
X-302690Y-157440D01*
G01X-324030Y-100480D02*
X-332690Y-105480D01*
G01X-330860Y-15000D02*
Y-75000D01*
X-340860D01*
Y-15000D01*
G01Y15000D02*
Y-15000D01*
G01X-330860Y15000D02*
Y-15000D01*
G01Y15000D02*
Y75000D01*
G01X-340860D02*
Y15000D01*
G01X-330030Y71670D02*
X-323360Y70000D01*
G01Y68330D02*
X-330030Y70000D01*
G01X-327530Y72500D02*
Y67500D01*
G01X-325860D02*
Y72500D01*
G01X-328360Y65000D02*
X-323360D01*
X-324360Y66000D01*
G01X-328360D02*
Y64000D01*
G01X-334000Y89170D02*
X-334500Y88750D01*
X-334830Y88250D01*
X-335000Y87670D01*
X-334830Y87000D01*
X-334500Y86500D01*
X-334000Y86000D01*
X-333330Y85830D01*
X-330000D01*
G01X-334250Y84330D02*
X-334670Y83830D01*
X-334920Y83250D01*
X-335000Y82500D01*
X-334830Y81750D01*
X-334500Y81170D01*
X-333920Y80750D01*
X-333250Y80670D01*
X-332580Y80830D01*
X-332170Y81250D01*
X-331830Y81830D01*
X-331750Y82420D01*
X-331830Y83000D01*
X-332170Y83750D01*
X-330000Y83500D01*
Y81250D01*
G01X-330860Y65000D02*
X-340860D01*
G01X-330860Y75000D02*
X-340860D01*
G01X-294030Y152440D02*
X-324030Y100480D01*
X-332690Y105480D01*
X-302690Y157440D01*
G01Y-157440D02*
X-287690Y-183420D01*
G01X-294030Y-152440D02*
X-324030Y-100480D01*
G01X-321640Y-102940D02*
X-315030Y-101050D01*
G01X-314200Y-102500D02*
X-320800Y-104390D01*
G01X-319890Y-100970D02*
X-317390Y-105300D01*
G01X-315950Y-104470D02*
X-318450Y-100140D01*
G01X-316860Y-107880D02*
X-312530Y-105380D01*
X-313900Y-105020D01*
G01X-317360Y-107020D02*
X-316360Y-108750D01*
G01X-319030Y-109140D02*
X-327690Y-114140D01*
G01X-287690Y183420D02*
X-302690Y157440D01*
G01X-279030Y-178420D02*
X-249030Y-230380D01*
X-257690Y-235380D01*
X-287690Y-183420D01*
G01X-294030Y-152440D02*
X-279030Y-178420D01*
G01Y178420D02*
X-294030Y152440D01*
G01X-279030Y178420D02*
X-249030Y230380D01*
G01X-257690Y235380D02*
X-287690Y183420D01*
G01X-243780Y-244550D02*
X-243670Y-245190D01*
X-243400Y-245730D01*
X-242980Y-246170D01*
X-242320Y-246360D01*
X-241720Y-246320D01*
X-241040Y-246130D01*
X-240560Y-245640D01*
X-238890Y-242750D01*
G01X-238510Y-248750D02*
X-236010Y-244420D01*
X-237370Y-244790D01*
G01X-239370Y-248250D02*
X-237640Y-249250D01*
G01X-249970Y227080D02*
X-245030Y222310D01*
G01X-245860Y220860D02*
X-250800Y225640D01*
G01X-247390Y226550D02*
X-249890Y222220D01*
G01X-248450Y221390D02*
X-245950Y225720D01*
G01X-251860Y220480D02*
X-247530Y217980D01*
X-247900Y219340D01*
G01X-251360Y221340D02*
X-252360Y219610D01*
G01X-244550Y248780D02*
X-245190Y248670D01*
X-245730Y248400D01*
X-246170Y247980D01*
X-246360Y247320D01*
X-246320Y246720D01*
X-246130Y246040D01*
X-245640Y245560D01*
X-242750Y243890D01*
G01X-248750Y243510D02*
X-244420Y241010D01*
X-244790Y242370D01*
G01X-248250Y244370D02*
X-249250Y242640D01*
G01X-251170Y239320D02*
X-250310Y238630D01*
X-249640Y237960D01*
X-249090Y237250D01*
X-248500Y236430D01*
X-247750Y235230D01*
X-246090Y238120D01*
G01X-254030Y221720D02*
X-262690Y226720D01*
G01X-249030Y230380D02*
X-257690Y235380D01*
G01X-227080Y-249970D02*
X-222310Y-245030D01*
G01X-220860Y-245860D02*
X-225640Y-250800D01*
G01X-226550Y-247390D02*
X-222220Y-249890D01*
G01X-221390Y-248450D02*
X-225720Y-245950D01*
G01X-220480Y-251860D02*
X-217980Y-247530D01*
X-219340Y-247900D01*
G01X-221340Y-251360D02*
X-219610Y-252360D01*
G01X-221720Y-254030D02*
X-226720Y-262690D01*
G01X-178420Y-279030D02*
X-230380Y-249030D01*
G01X-235380Y-257690D02*
X-183420Y-287690D01*
G01X-230380Y-249030D02*
X-235380Y-257690D01*
G01X-178420Y279030D02*
X-230380Y249030D01*
X-235380Y257690D01*
X-183420Y287690D01*
G01Y-287690D02*
X-157440Y-302690D01*
G01Y302690D02*
X-183420Y287690D01*
G01X-152440Y-294030D02*
X-100480Y-324030D01*
X-105480Y-332690D01*
X-157440Y-302690D01*
G01X-178420Y-279030D02*
X-152440Y-294030D01*
G01Y294030D02*
X-178420Y279030D01*
G01X-152440Y294030D02*
X-100480Y324030D01*
G01X-105480Y332690D02*
X-157440Y302690D01*
G01X-89170Y-334000D02*
X-88750Y-334500D01*
X-88250Y-334830D01*
X-87670Y-335000D01*
X-87000Y-334830D01*
X-86500Y-334500D01*
X-86000Y-334000D01*
X-85830Y-333330D01*
Y-330000D01*
G01X-81500Y-335000D02*
Y-330000D01*
X-84580Y-333580D01*
X-80420D01*
G01X-102940Y321640D02*
X-101050Y315030D01*
G01X-102500Y314200D02*
X-104390Y320800D01*
G01X-100970Y319890D02*
X-105300Y317390D01*
G01X-104470Y315950D02*
X-100140Y318450D01*
G01X-107880Y316860D02*
X-105380Y312530D01*
X-105020Y313900D01*
G01X-107020Y317360D02*
X-108750Y316360D01*
G01X-109140Y319030D02*
X-114140Y327690D01*
G01X-100480Y324030D02*
X-105480Y332690D01*
G01X-99780Y331280D02*
X-99170Y331060D01*
X-98570Y331020D01*
X-97980Y331170D01*
X-97490Y331640D01*
X-97220Y332180D01*
X-97040Y332870D01*
X-97220Y333530D01*
X-98890Y336410D01*
G01X-95920Y334760D02*
X-95700Y335560D01*
X-95440Y336100D01*
X-94940Y336580D01*
X-94360Y336720D01*
X-93830Y336640D01*
X-93290Y336380D01*
X-92930Y335910D01*
X-92750Y335440D01*
X-92790Y334840D01*
X-93010Y334230D01*
X-93430Y333790D01*
X-94090Y333600D01*
X-94850Y333740D01*
X-95510Y334230D01*
X-96000Y334910D01*
X-96400Y335930D01*
X-96470Y336560D01*
X-96400Y337270D01*
X-96110Y337920D01*
X-95640Y338290D01*
X-95060Y338440D01*
X-94490Y338280D01*
G01X-65000Y-330860D02*
Y-340860D01*
G01X-75000D02*
X-15000D01*
G01X-75000Y-330860D02*
Y-340860D01*
G01X-71670Y-330030D02*
X-70000Y-323360D01*
G01X-68330D02*
X-70000Y-330030D01*
G01X-72500Y-327530D02*
X-67500D01*
G01Y-325860D02*
X-72500D01*
G01X-65000Y-328360D02*
Y-323360D01*
X-66000Y-324360D01*
G01Y-328360D02*
X-64000D01*
G01X-15000Y-330860D02*
X-75000D01*
G01X-15000Y330860D02*
X-75000D01*
Y340860D01*
X-15000D01*
G01Y-340860D02*
X15000D01*
G01X-15000Y-330860D02*
X15000D01*
G01Y340860D02*
X-15000D01*
G01X15000Y330860D02*
X-15000D01*
G01X15000Y-330860D02*
X75000D01*
Y-340860D01*
X15000D01*
G01Y330860D02*
X75000D01*
G01Y340860D02*
X15000D01*
G01X36330Y0D02*
Y5000D01*
X38500Y830D01*
X40670Y5000D01*
Y0D01*
G01X42080Y580D02*
X42670Y170D01*
X43330Y0D01*
X44000Y170D01*
X44580Y670D01*
X45000Y1420D01*
X45170Y2170D01*
Y3080D01*
X45000Y3830D01*
X44580Y4500D01*
X44080Y4830D01*
X43500Y5000D01*
X42830Y4830D01*
X42330Y4500D01*
X42000Y4000D01*
X41830Y3330D01*
X42000Y2750D01*
X42420Y2170D01*
X42920Y1830D01*
X43500Y1750D01*
X44170Y1920D01*
X44670Y2330D01*
X45170Y3080D01*
G01X71670Y330030D02*
X70000Y323360D01*
G01X68330D02*
X70000Y330030D01*
G01X72500Y327530D02*
X67500D01*
G01Y325860D02*
X72500D01*
G01X65000Y328360D02*
Y323360D01*
X66000Y324360D01*
G01Y328360D02*
X64000D01*
G01X78330Y335800D02*
X78750Y335300D01*
X79250Y334970D01*
X79830Y334800D01*
X80500Y334970D01*
X81000Y335300D01*
X81500Y335800D01*
X81670Y336470D01*
Y339800D01*
G01X85000Y334800D02*
Y339800D01*
X84000Y338800D01*
G01Y334800D02*
X86000D01*
G01X88580Y335380D02*
X89170Y334970D01*
X89830Y334800D01*
X90500Y334970D01*
X91080Y335470D01*
X91500Y336220D01*
X91670Y336970D01*
Y337880D01*
X91500Y338630D01*
X91080Y339300D01*
X90580Y339630D01*
X90000Y339800D01*
X89330Y339630D01*
X88830Y339300D01*
X88500Y338800D01*
X88330Y338130D01*
X88500Y337550D01*
X88920Y336970D01*
X89420Y336630D01*
X90000Y336550D01*
X90670Y336720D01*
X91170Y337130D01*
X91670Y337880D01*
G01X65000Y330860D02*
Y340860D01*
G01X75000Y330860D02*
Y340860D01*
G01X95220Y-333720D02*
X95830Y-333940D01*
X96430Y-333980D01*
X97020Y-333830D01*
X97510Y-333360D01*
X97780Y-332820D01*
X97960Y-332130D01*
X97780Y-331470D01*
X96110Y-328590D01*
G01X101490Y-331250D02*
X101960Y-330890D01*
X102410Y-330340D01*
X102560Y-329770D01*
X102420Y-329180D01*
X101980Y-328760D01*
X101300Y-328570D01*
X100520Y-328730D01*
X99800Y-329150D01*
X99280Y-329250D01*
X98720Y-329100D01*
X98280Y-328680D01*
X98200Y-328050D01*
X98500Y-327400D01*
X98990Y-326920D01*
X99660Y-326730D01*
X100370Y-326800D01*
X100880Y-327180D01*
X101020Y-327770D01*
X100870Y-328340D01*
X100520Y-328730D01*
X99800Y-329150D01*
X99280Y-329740D01*
X99090Y-330420D01*
X99240Y-331010D01*
X99680Y-331430D01*
X100250Y-331590D01*
X100950Y-331470D01*
X101490Y-331250D01*
G01X105480Y-332690D02*
X157440Y-302690D01*
G01X100480Y-324030D02*
X105480Y-332690D01*
G01X102940Y-321640D02*
X101050Y-315030D01*
G01X102500Y-314200D02*
X104390Y-320800D01*
G01X100970Y-319890D02*
X105300Y-317390D01*
G01X104470Y-315950D02*
X100140Y-318450D01*
G01X107880Y-316860D02*
X105380Y-312530D01*
X105020Y-313900D01*
G01X107020Y-317360D02*
X108750Y-316360D01*
G01X109140Y-319030D02*
X114140Y-327690D01*
G01X152440Y-294030D02*
X100480Y-324030D01*
G01X152440Y294030D02*
X100480Y324030D01*
X105480Y332690D01*
X157440Y302690D01*
G01Y-302690D02*
X183420Y-287690D01*
G01X152440Y-294030D02*
X178420Y-279030D01*
G01D02*
X230380Y-249030D01*
X235380Y-257690D01*
X183420Y-287690D01*
G01Y287690D02*
X157440Y302690D01*
G01X178420Y279030D02*
X152440Y294030D01*
G01X178420Y279030D02*
X230380Y249030D01*
G01X235380Y257690D02*
X183420Y287690D01*
G01X227080Y249970D02*
X222310Y245030D01*
G01X220860Y245860D02*
X225640Y250800D01*
G01X226550Y247390D02*
X222220Y249890D01*
G01X221390Y248450D02*
X225720Y245950D01*
G01X220480Y251860D02*
X217980Y247530D01*
X219340Y247900D01*
G01X221340Y251360D02*
X219610Y252360D01*
G01X243780Y249550D02*
X243670Y250190D01*
X243400Y250730D01*
X242980Y251170D01*
X242320Y251360D01*
X241720Y251320D01*
X241040Y251130D01*
X240560Y250640D01*
X238890Y247750D01*
G01X238650Y253670D02*
X237960Y252810D01*
X237290Y252140D01*
X236580Y251590D01*
X235760Y251000D01*
X234560Y250250D01*
X237450Y248590D01*
G01X221720Y254030D02*
X226720Y262690D01*
G01X230380Y249030D02*
X235380Y257690D01*
G01X249550Y-243780D02*
X250190Y-243670D01*
X250730Y-243400D01*
X251170Y-242980D01*
X251360Y-242320D01*
X251320Y-241720D01*
X251130Y-241040D01*
X250640Y-240560D01*
X247750Y-238890D01*
G01X249350Y-237790D02*
X249170Y-237110D01*
X249240Y-236480D01*
X249500Y-235860D01*
X250060Y-235220D01*
X250720Y-234930D01*
X251230Y-235030D01*
X251620Y-235350D01*
X251820Y-235850D01*
X251710Y-237710D01*
X251840Y-238650D01*
X252310Y-239500D01*
X252870Y-240020D01*
X254630Y-236990D01*
G01X249970Y-227080D02*
X245030Y-222310D01*
G01X245860Y-220860D02*
X250800Y-225640D01*
G01X247390Y-226550D02*
X249890Y-222220D01*
G01X248450Y-221390D02*
X245950Y-225720D01*
G01X251860Y-220480D02*
X247530Y-217980D01*
X247900Y-219340D01*
G01X251360Y-221340D02*
X252360Y-219610D01*
G01X254030Y-221720D02*
X262690Y-226720D01*
G01X279030Y-178420D02*
X249030Y-230380D01*
G01X257690Y-235380D02*
X287690Y-183420D01*
G01X249030Y-230380D02*
X257690Y-235380D01*
G01X279030Y178420D02*
X249030Y230380D01*
X257690Y235380D01*
X287690Y183420D01*
G01Y-183420D02*
X302690Y-157440D01*
G01X279030Y-178420D02*
X294030Y-152440D01*
G01D02*
X324030Y-100480D01*
X332690Y-105480D01*
X302690Y-157440D01*
G01X294030Y152440D02*
X324030Y100480D01*
G01X302690Y157440D02*
X287690Y183420D01*
G01X294030Y152440D02*
X279030Y178420D01*
G01X330030Y-71670D02*
X323360Y-70000D01*
G01Y-68330D02*
X330030Y-70000D01*
G01X327530Y-72500D02*
Y-67500D01*
G01X325860D02*
Y-72500D01*
G01X328360Y-65000D02*
X323360D01*
X324360Y-66000D01*
G01X328360D02*
Y-64000D01*
G01X334000Y-89170D02*
X334500Y-88750D01*
X334830Y-88250D01*
X335000Y-87670D01*
X334830Y-87000D01*
X334500Y-86500D01*
X334000Y-86000D01*
X333330Y-85830D01*
X330000D01*
G01X334420Y-83920D02*
X334830Y-83330D01*
X335000Y-82670D01*
X334830Y-82000D01*
X334330Y-81420D01*
X333580Y-81000D01*
X332830Y-80830D01*
X331920D01*
X331170Y-81000D01*
X330500Y-81420D01*
X330170Y-81920D01*
X330000Y-82500D01*
X330170Y-83170D01*
X330500Y-83670D01*
X331000Y-84000D01*
X331670Y-84170D01*
X332250Y-84000D01*
X332830Y-83580D01*
X333170Y-83080D01*
X333250Y-82500D01*
X333080Y-81830D01*
X332670Y-81330D01*
X331920Y-80830D01*
G01X321640Y102940D02*
X315030Y101050D01*
G01X314200Y102500D02*
X320800Y104390D01*
G01X319890Y100970D02*
X317390Y105300D01*
G01X315950Y104470D02*
X318450Y100140D01*
G01X316860Y107880D02*
X312530Y105380D01*
X313900Y105020D01*
G01X317360Y107020D02*
X316360Y108750D01*
G01X333720Y90220D02*
X333940Y90830D01*
X333980Y91430D01*
X333830Y92020D01*
X333360Y92510D01*
X332820Y92780D01*
X332130Y92960D01*
X331470Y92780D01*
X328590Y91110D01*
G01X331300Y94410D02*
X331560Y95130D01*
X331510Y95880D01*
X331210Y96570D01*
X330800Y97100D01*
X330110Y97470D01*
X329470Y97580D01*
X328990Y97400D01*
X328570Y96970D01*
X328500Y96260D01*
X328650Y95670D01*
X329020Y95020D01*
G01X328650Y95670D02*
X328180Y95970D01*
X327610Y96130D01*
X327100Y96020D01*
X326750Y95630D01*
X326590Y95060D01*
X326750Y94280D01*
X327200Y93680D01*
X327860Y93190D01*
G01X319030Y109140D02*
X327690Y114140D01*
G01X332690Y105480D02*
X302690Y157440D01*
G01X324030Y100480D02*
X332690Y105480D01*
G01X330860Y-65000D02*
X340860D01*
G01X330860Y-15000D02*
Y-75000D01*
G01X340860D02*
Y-15000D01*
G01X330860Y-75000D02*
X340860D01*
G01Y-15000D02*
Y15000D01*
G01X330860Y-15000D02*
Y15000D01*
G01D02*
Y75000D01*
X340860D01*
Y15000D01*
G01X397530Y-387900D02*
Y-382900D01*
X399700Y-387070D01*
X401870Y-382900D01*
Y-387900D01*
G01X402870Y-386900D02*
X403370Y-387480D01*
X404030Y-387820D01*
X404780Y-387900D01*
X405450Y-387820D01*
X406120Y-387400D01*
X406530Y-386900D01*
X406620Y-386400D01*
X406450Y-385820D01*
X405870Y-385400D01*
X405280Y-385230D01*
X404530D01*
G01X405280D02*
X405780Y-384980D01*
X406200Y-384570D01*
X406370Y-384070D01*
X406200Y-383570D01*
X405780Y-383150D01*
X405030Y-382900D01*
X404280Y-382980D01*
X403530Y-383320D01*
G01X410330Y410000D02*
Y415000D01*
X412500Y410830D01*
X414670Y415000D01*
Y410000D01*
G01X415670Y410750D02*
X416170Y410330D01*
X416750Y410080D01*
X417500Y410000D01*
X418250Y410170D01*
X418830Y410500D01*
X419250Y411080D01*
X419330Y411750D01*
X419170Y412420D01*
X418750Y412830D01*
X418170Y413170D01*
X417580Y413250D01*
X417000Y413170D01*
X416250Y412830D01*
X416500Y415000D01*
X418750D01*
G01X439930Y-424300D02*
Y-419300D01*
X442100Y-423470D01*
X444270Y-419300D01*
Y-424300D01*
G01X447100D02*
Y-419300D01*
X446100Y-420300D01*
G01Y-424300D02*
X448100D01*
G01X445330Y445000D02*
Y450000D01*
X447500Y445830D01*
X449670Y450000D01*
Y445000D01*
G01X452500D02*
X453080Y445080D01*
X453750Y445330D01*
X454170Y445750D01*
X454330Y446330D01*
X454170Y446920D01*
X453670Y447420D01*
X452920Y447670D01*
X452080D01*
X451580Y447830D01*
X451170Y448250D01*
X451000Y448830D01*
X451250Y449420D01*
X451830Y449830D01*
X452500Y450000D01*
X453170Y449830D01*
X453750Y449420D01*
X454000Y448830D01*
X453830Y448250D01*
X453420Y447830D01*
X452920Y447670D01*
X452080D01*
X451330Y447420D01*
X450830Y446920D01*
X450670Y446330D01*
X450830Y445750D01*
X451250Y445330D01*
X451920Y445080D01*
X452500Y445000D01*
G54D11*
G01X-423100Y326550D02*
Y356550D01*
X-429100Y350550D01*
G01Y326550D02*
X-417100D01*
G01X-402600Y351550D02*
X-399600Y354550D01*
X-396100Y356050D01*
X-392100Y356550D01*
X-387100Y355550D01*
X-383600Y353050D01*
X-382600Y350050D01*
X-383100Y347050D01*
X-385100Y344550D01*
X-395100Y339550D01*
X-399600Y336050D01*
X-402600Y331050D01*
X-403600Y326550D01*
X-382600D01*
G01X-367600Y350050D02*
X-365100Y356550D01*
G01X-358600D02*
X-361100Y350050D01*
G01X-315600Y356550D02*
X-303100Y326550D01*
X-290600Y356550D01*
G01X-282600Y351550D02*
X-279600Y354550D01*
X-276100Y356050D01*
X-272100Y356550D01*
X-267100Y355550D01*
X-263600Y353050D01*
X-262600Y350050D01*
X-263100Y347050D01*
X-265100Y344550D01*
X-275100Y339550D01*
X-279600Y336050D01*
X-282600Y331050D01*
X-283600Y326550D01*
X-262600D01*
G01X-243100Y325550D02*
X-244100Y326050D01*
Y327050D01*
X-243100Y327550D01*
X-242100Y327050D01*
Y326050D01*
X-243100Y325550D01*
G01X-222600Y351550D02*
X-219600Y354550D01*
X-216100Y356050D01*
X-212100Y356550D01*
X-207100Y355550D01*
X-203600Y353050D01*
X-202600Y350050D01*
X-203100Y347050D01*
X-205100Y344550D01*
X-215100Y339550D01*
X-219600Y336050D01*
X-222600Y331050D01*
X-223600Y326550D01*
X-202600D01*
G01X-314700Y307750D02*
X-311700Y310750D01*
X-308200Y312250D01*
X-304200Y312750D01*
X-299200Y311750D01*
X-295700Y309250D01*
X-294700Y306250D01*
X-295200Y303250D01*
X-297200Y300750D01*
X-307200Y295750D01*
X-311700Y292250D01*
X-314700Y287250D01*
X-315700Y282750D01*
X-294700D01*
G01X-275200Y312750D02*
X-279200Y311750D01*
X-282200Y309250D01*
X-284200Y306250D01*
X-285700Y302250D01*
X-286200Y297750D01*
X-285700Y293250D01*
X-284200Y289250D01*
X-282200Y286250D01*
X-279200Y283750D01*
X-275200Y282750D01*
X-271200Y283750D01*
X-268200Y286250D01*
X-266200Y289250D01*
X-264700Y293250D01*
X-264200Y297750D01*
X-264700Y302250D01*
X-266200Y306250D01*
X-268200Y309250D01*
X-271200Y311750D01*
X-275200Y312750D01*
G01X-254700Y307750D02*
X-251700Y310750D01*
X-248200Y312250D01*
X-244200Y312750D01*
X-239200Y311750D01*
X-235700Y309250D01*
X-234700Y306250D01*
X-235200Y303250D01*
X-237200Y300750D01*
X-247200Y295750D01*
X-251700Y292250D01*
X-254700Y287250D01*
X-255700Y282750D01*
X-234700D01*
G01X-215200Y312750D02*
X-219200Y311750D01*
X-222200Y309250D01*
X-224200Y306250D01*
X-225700Y302250D01*
X-226200Y297750D01*
X-225700Y293250D01*
X-224200Y289250D01*
X-222200Y286250D01*
X-219200Y283750D01*
X-215200Y282750D01*
X-211200Y283750D01*
X-208200Y286250D01*
X-206200Y289250D01*
X-204700Y293250D01*
X-204200Y297750D01*
X-204700Y302250D01*
X-206200Y306250D01*
X-208200Y309250D01*
X-211200Y311750D01*
X-215200Y312750D01*
G54D12*
G01X-460000Y-480000D02*
G03I-15000J5000D01*
G01X-465000D02*
G03I-10000J5000D01*
G01X-495000Y-475000D02*
X-455000D01*
G01X-485000Y500000D02*
Y460000D01*
G01X-470000Y475000D02*
G03I-15000J5000D01*
G01X-475000D02*
G03I-10000J5000D01*
G01X-505000Y480000D02*
X-465000D01*
G01X-475000Y-455000D02*
Y-495000D01*
G01X-450000Y-450000D02*
X450000D01*
Y450000D01*
X325000D01*
X320000Y445000D01*
Y370000D01*
X-320000D01*
Y445000D01*
X-325000Y450000D01*
X-450000D01*
Y-450000D01*
G01X-376500Y-400000D02*
G03I-23500J0D01*
G01Y399930D02*
G03I-23500J2D01*
G01X275000Y0D02*
G03I-275000J0D01*
G01X0Y-9000D02*
Y9000D01*
G01Y-9000D02*
Y9000D01*
G01X-9000Y0D02*
X9000D01*
G01X-9000D02*
X9000D01*
G01X423500Y-400000D02*
G03I-23500J0D01*
G01Y399930D02*
G03I-23500J2D01*
G01X480000Y-450000D02*
Y-490000D01*
G01X495000Y-475000D02*
G03I-15000J5000D01*
G01X460000Y-470000D02*
X500000D01*
G01X490000Y-475000D02*
G03I-10000J5000D01*
G01Y455000D02*
G03I-15000J5000D01*
G01X475000Y480000D02*
Y440000D01*
G01X485000Y455000D02*
G03I-10000J5000D01*
G01X455000Y460000D02*
X495000D01*
M02*
