G04 ================== begin FILE IDENTIFICATION RECORD ==================*
G04 Layout Name:  C:/Users/labadmin/Downloads/ww10-exchange/G4.2/arena_12-12_v2.2.brd*
G04 Film Name:    Solder_Mask_Bottom*
G04 File Format:  Gerber RS274X*
G04 File Origin:  Cadence Allegro 17.4-S007*
G04 Origin Date:  Tue Nov 10 23:59:31 2020*
G04 *
G04 Layer:  CONSTRAINT REGION/ALL*
G04 Layer:  CONSTRAINT REGION/OUTER_LAYERS*
G04 Layer:  CONSTRAINT REGION/INNER_SIGNAL_LAYERS*
G04 Layer:  CONSTRAINT REGION/INNER_PLANE_LAYERS*
G04 Layer:  CONSTRAINT REGION/BOTTOM*
G04 Layer:  CONSTRAINT REGION/LAYER 2*
G04 Layer:  CONSTRAINT REGION/GND2*
G04 Layer:  CONSTRAINT REGION/LAYER 1*
G04 Layer:  CONSTRAINT REGION/PWR*
G04 Layer:  CONSTRAINT REGION/TOP*
G04 Layer:  VIA KEEPOUT/ALL*
G04 Layer:  VIA KEEPOUT/BOTTOM*
G04 Layer:  VIA KEEPOUT/LAYER 2*
G04 Layer:  VIA KEEPOUT/GND2*
G04 Layer:  VIA KEEPOUT/LAYER 1*
G04 Layer:  VIA KEEPOUT/PWR*
G04 Layer:  VIA KEEPOUT/TOP*
G04 Layer:  VIA CLASS/SOLDERMASK_BOTTOM*
G04 Layer:  ROUTE KEEPOUT/ALL*
G04 Layer:  ROUTE KEEPOUT/BOTTOM*
G04 Layer:  ROUTE KEEPOUT/LAYER 2*
G04 Layer:  ROUTE KEEPOUT/GND2*
G04 Layer:  ROUTE KEEPOUT/LAYER 1*
G04 Layer:  ROUTE KEEPOUT/PWR*
G04 Layer:  ROUTE KEEPOUT/TOP*
G04 Layer:  ROUTE KEEPIN/ALL*
G04 Layer:  PIN/SOLDERMASK_BOTTOM*
G04 Layer:  PACKAGE KEEPOUT/ALL*
G04 Layer:  PACKAGE KEEPOUT/TOP*
G04 Layer:  PACKAGE KEEPOUT/BOTTOM*
G04 Layer:  PACKAGE KEEPIN/ALL*
G04 Layer:  DRC ERROR CLASS/SOLDERMASK_BOTTOM*
G04 Layer:  BOARD GEOMETRY/OUTLINE*
G04 *
G04 Offset:    (0.0 0.0)*
G04 Mirror:    No*
G04 Mode:      Positive*
G04 Rotation:  0*
G04 FullContactRelief:  No*
G04 UndefLineWidth:     0.1*
G04 ================== end FILE IDENTIFICATION RECORD ====================*
%FSLAX25Y25*MOIN*%
%IR0*IPPOS*OFA0.00000B0.00000*MIA0B0*SFA1.00000B1.00000*%
%ADD10C,.2*%
%AMMACRO16*
21,1,.0433,.0551,0.0,0.0,120.*%
%ADD16MACRO16*%
%ADD38R,.063X.126*%
%AMMACRO25*
21,1,.0433,.0551,0.0,0.0,150.*%
%ADD25MACRO25*%
%ADD35R,.125X.065*%
%ADD32R,.126X.063*%
%ADD36R,.065X.125*%
%ADD13R,.061X.0098*%
%ADD30R,.0287X.1618*%
%ADD33R,.1969X.0787*%
%ADD31R,.0787X.1969*%
%ADD37R,.35X.42*%
%AMMACRO28*
21,1,.0433,.0551,0.0,0.0,30.*%
%ADD28MACRO28*%
%ADD19C,.06*%
%AMMACRO18*
21,1,.06,.06,0.0,0.0,30.*%
%ADD18MACRO18*%
%ADD34R,.09X.042*%
%ADD22C,5.7*%
%ADD27R,.04X.048*%
%ADD12C,.044*%
%AMMACRO24*
21,1,.06,.06,0.0,0.0,60.*%
%ADD24MACRO24*%
%AMMACRO21*
21,1,.0433,.0551,0.0,0.0,60.*%
%ADD21MACRO21*%
%AMMACRO17*
21,1,.066,.066,0.0,0.0,30.*%
%ADD17MACRO17*%
%ADD11R,.0551X.0433*%
%ADD26R,.0433X.0551*%
%ADD20R,.06X.06*%
%ADD14R,.075X.018*%
%AMMACRO23*
21,1,.066,.066,0.0,0.0,60.*%
%ADD23MACRO23*%
%ADD15R,.066X.066*%
%ADD29C,.0787*%
%ADD39C,.0001*%
G75*
%LPD*%
G75*
G54D10*
X-435000Y-435000D03*
Y435000D03*
X-400000Y-400000D03*
Y400000D03*
X400000Y-400000D03*
Y400000D03*
X435000Y-435000D03*
Y435000D03*
G54D20*
X-335860Y70000D03*
X-70000Y-335860D03*
X70000Y335860D03*
X335860Y-70000D03*
G54D11*
X-425700Y-42290D03*
Y-34410D03*
X-403600Y-42590D03*
Y-34710D03*
X-362650Y19990D03*
Y12110D03*
X-353150Y20140D03*
Y12260D03*
X-349500Y61960D03*
Y69840D03*
X-224750Y-397640D03*
Y-389760D03*
X-202700Y-397990D03*
Y-390110D03*
X-169450Y-382760D03*
Y-390640D03*
X-138850Y-394890D03*
Y-387010D03*
X-116800Y-394890D03*
Y-387010D03*
X-58900Y-443890D03*
Y-436010D03*
X-34650Y-443990D03*
Y-436110D03*
X-42750Y-443990D03*
Y-436110D03*
X-50800Y-443940D03*
Y-436060D03*
X-10350Y-444040D03*
Y-436160D03*
X-18400Y-444040D03*
Y-436160D03*
X-2300Y-444090D03*
Y-436210D03*
X-26500Y-443990D03*
Y-436110D03*
X13850Y-444190D03*
Y-436310D03*
X30150Y-444340D03*
Y-436460D03*
X22000Y-444240D03*
Y-436360D03*
X5800Y-444140D03*
Y-436260D03*
X21600Y-365310D03*
Y-373190D03*
X29950Y-365310D03*
Y-373190D03*
X46500Y-444190D03*
Y-436310D03*
X38350Y-444290D03*
Y-436410D03*
X54650Y-444290D03*
Y-436410D03*
X38050Y-365260D03*
Y-373140D03*
X46150Y-365260D03*
Y-373140D03*
X54350Y-365310D03*
Y-373190D03*
X62600Y-365310D03*
Y-373190D03*
X62900Y-444240D03*
Y-436360D03*
X147300Y-379810D03*
Y-387690D03*
X169250Y-379810D03*
Y-387690D03*
X177600Y-367840D03*
Y-359960D03*
X199650Y-367990D03*
Y-360110D03*
X354200Y-347710D03*
Y-355590D03*
X345300Y-347660D03*
Y-355540D03*
X343950Y-232260D03*
Y-240140D03*
X347450Y-62110D03*
Y-69990D03*
X351500Y-19940D03*
Y-12060D03*
X360400Y-19940D03*
Y-12060D03*
X366050Y-232560D03*
Y-240440D03*
G54D21*
X-300830Y195910D03*
X-304770Y189090D03*
X-292430Y190660D03*
X-296370Y183840D03*
X-270320Y227940D03*
X-266380Y234760D03*
X270670Y-228390D03*
X266730Y-235210D03*
X292380Y-191960D03*
X296320Y-185140D03*
X300230Y-196560D03*
X304170Y-189740D03*
G54D12*
X-425700Y-47300D03*
X-421100Y-25500D03*
X-421090Y-22940D03*
X-430660Y-2470D03*
Y-5030D03*
Y2650D03*
Y90D03*
X-442400Y27750D03*
X-435200Y169000D03*
X-403600Y-47600D03*
X-407730Y-20380D03*
X-399040Y-22940D03*
X-399050Y-25500D03*
X-405200Y27750D03*
X-405000Y169000D03*
X-359250Y-18010D03*
Y-12890D03*
Y-7770D03*
Y-2650D03*
X-362650Y24460D03*
X-360150Y52580D03*
Y74520D03*
X-330350Y-124930D03*
X-338270Y-136050D03*
X-338750Y-110370D03*
X-349230Y-117050D03*
X-344600Y-62250D03*
X-355500Y-15450D03*
Y-10330D03*
Y-5210D03*
Y-90D03*
X-349500Y57490D03*
Y74310D03*
X-344600Y100250D03*
X-338950Y161650D03*
X-329200Y273700D03*
X-322250Y-157820D03*
X-301000Y-40000D03*
X-316000Y-10000D03*
X-311000Y-20000D03*
X-306000Y-30000D03*
X-326000Y10000D03*
X-321000Y0D03*
X-298590Y199780D03*
X-268650Y-426950D03*
X-272400Y-429510D03*
Y-424390D03*
X-268650Y-421830D03*
Y-411590D03*
X-272400Y-414150D03*
X-268650Y-416710D03*
X-272400Y-419270D03*
X-287320Y-154340D03*
X-268660Y-166660D03*
X-277990Y-160500D03*
X-296000Y-50000D03*
X-291000Y-60000D03*
X-280670Y115860D03*
X-281340Y104700D03*
X-282010Y93540D03*
X-278660Y149340D03*
X-279330Y138180D03*
X-280000Y127020D03*
X-277320Y171660D03*
X-277990Y160500D03*
X-272560Y224070D03*
X-285440Y225700D03*
X-274460Y244700D03*
X-245600Y-276510D03*
X-239280Y-266040D03*
X-240670Y-185140D03*
X-259330Y-172820D03*
X-250000Y-178980D03*
X-264140Y238630D03*
X-218550Y-432000D03*
X-208900D03*
X-211380Y-424320D03*
X-208120Y-426880D03*
Y-421760D03*
X-230950Y-406410D03*
Y-403850D03*
X-218550Y-408970D03*
X-208900Y-403850D03*
Y-406410D03*
X-211380Y-408970D03*
X-208120Y-411530D03*
X-211380Y-414090D03*
X-208120Y-416650D03*
X-211380Y-419200D03*
X-209750Y-372250D03*
X-224750Y-384450D03*
X-218150Y-302950D03*
X-224720Y-274460D03*
X-226600Y-287490D03*
X-218150Y-287050D03*
X-231340Y-191300D03*
X-222010Y-197460D03*
X-237550Y341750D03*
X-196500Y-429440D03*
X-187400Y-426960D03*
Y-421840D03*
X-183650Y-424400D03*
X-187400Y-411600D03*
X-183650Y-414160D03*
X-187400Y-416720D03*
X-183650Y-419280D03*
Y-409040D03*
X-202700Y-385300D03*
X-186650Y-377660D03*
X-196560Y-366940D03*
X-204440Y-358560D03*
X-191960Y-352000D03*
X-185470Y-304910D03*
X-186650Y-321850D03*
X-191300Y231340D03*
X-197460Y222010D03*
X-178980Y250000D03*
X-185140Y240670D03*
X-164140Y-390640D03*
X-156250Y-372450D03*
X-177590Y-363350D03*
X-156450Y-351900D03*
X-177590Y-343000D03*
X-171660Y-277320D03*
X-149340Y-278660D03*
X-160500Y-277990D03*
X-166660Y268660D03*
X-172820Y259330D03*
X-154340Y287320D03*
X-160500Y277990D03*
X-158020Y321000D03*
X-143200Y-429400D03*
X-121150D03*
Y-426840D03*
X-143200Y-403810D03*
Y-401250D03*
X-134500Y-406370D03*
X-138180Y-279330D03*
X-127020Y-280000D03*
X-124630Y329900D03*
X-135250Y337520D03*
X-103000Y-427050D03*
X-107830Y-424280D03*
X-105300Y-431350D03*
X-99700Y-434150D03*
X-106300Y-438000D03*
X-112450Y-403810D03*
Y-401250D03*
Y-408930D03*
X-105910Y-390640D03*
X-90080Y-334140D03*
X-89490Y-329920D03*
X-115860Y-280670D03*
X-104700Y-281340D03*
X-93540Y-282010D03*
X-116250Y348480D03*
X-110070Y338300D03*
X-58900Y-447850D03*
Y-432050D03*
X-81600Y-431350D03*
X-78500Y-434150D03*
X-76550Y-438000D03*
X-66200Y-408100D03*
X-78500Y-415100D03*
X-74150Y-411500D03*
X-58960Y-413040D03*
X-64110Y-390640D03*
X-85660Y-333350D03*
X-74460Y-348350D03*
X-74620Y-359950D03*
X-57640Y-348350D03*
X-60000Y291000D03*
X-65200Y344810D03*
X-34650Y-447950D03*
X-42750D03*
X-50800Y-447900D03*
Y-432100D03*
X-42750Y-432150D03*
X-34650D03*
X-48450Y-384340D03*
X-47600Y-363150D03*
X-28450Y-384340D03*
X-33450D03*
X-38450D03*
X-43450D03*
X-52680Y-359950D03*
X-50000Y296000D03*
X-30000Y306000D03*
X-40000Y301000D03*
X-2300Y-448050D03*
X-10350Y-448000D03*
X-18400D03*
X-26500Y-447950D03*
Y-432150D03*
X-18400Y-432200D03*
X-10350D03*
X-2300Y-432250D03*
X-24610Y-360750D03*
X1550Y-384340D03*
X-3450D03*
X-8450D03*
X-13450D03*
X-18450D03*
X-23450D03*
X-10000Y-326000D03*
X0Y-321000D03*
X-10000Y316000D03*
X-20000Y311000D03*
X0Y321000D03*
X13850Y-448150D03*
X22000Y-448200D03*
X30150Y-448300D03*
X5800Y-448100D03*
Y-432300D03*
X22000Y-432400D03*
X30150Y-432500D03*
X16550Y-423550D03*
X6550D03*
X13850Y-432350D03*
X11550Y-384340D03*
X6550D03*
X31550D03*
X21550D03*
X16550D03*
X26550D03*
X21600Y-360200D03*
X29950D03*
X10000Y-316000D03*
X20000Y-311000D03*
X30000Y-306000D03*
X10000Y326000D03*
X24310Y358400D03*
X38350Y-448250D03*
X46500Y-448150D03*
X54650Y-448250D03*
X38350Y-432450D03*
X46500Y-432350D03*
X54650Y-432450D03*
X36550Y-384340D03*
X46550D03*
X41550D03*
X38050Y-360150D03*
X46150D03*
X54350Y-360200D03*
X40000Y-301000D03*
X50000Y-296000D03*
X60000Y-291000D03*
X57490Y349850D03*
X52580Y360950D03*
X62900Y-448200D03*
X84150Y-433800D03*
X77100Y-436650D03*
X62900Y-432400D03*
X62600Y-360200D03*
X74310Y349850D03*
X74520Y360950D03*
X102990Y-416550D03*
X100800Y-419110D03*
Y-413990D03*
X102990Y-401190D03*
Y-406310D03*
X100800Y-403750D03*
Y-408870D03*
X102990Y-411430D03*
X110220Y-339400D03*
X116100Y-350530D03*
X115860Y280670D03*
X104700Y281340D03*
X93540Y282010D03*
X142850Y-421950D03*
X151650Y-396360D03*
Y-393800D03*
X142850Y-398920D03*
X147300Y-375900D03*
X124780Y-331000D03*
X135100Y-339570D03*
X146100Y-349700D03*
X149340Y278660D03*
X138180Y279330D03*
X127020Y280000D03*
X164900Y-421950D03*
Y-419390D03*
Y-393800D03*
X173240Y-396360D03*
X176040Y-411710D03*
X173700Y-414270D03*
X176040Y-416830D03*
X173700Y-409150D03*
X176030Y-398920D03*
X169250Y-375900D03*
X177600Y-375850D03*
X170810Y-352040D03*
X173150Y-354600D03*
Y-344360D03*
X170810Y-341800D03*
Y-336690D03*
X173150Y-334130D03*
X170810Y-331570D03*
X173150Y-349480D03*
X170810Y-346920D03*
X173150Y-339250D03*
X157970Y-321600D03*
X173150Y-329010D03*
X170810Y-326450D03*
X154340Y-287320D03*
X160500Y-277990D03*
X166660Y-268660D03*
X172820Y-259330D03*
X178980Y-250000D03*
X171660Y277320D03*
X160500Y277990D03*
X158650Y318100D03*
X199650Y-376000D03*
X204500Y-354600D03*
X194240Y-352040D03*
X185140Y-240670D03*
X191300Y-231340D03*
X197460Y-222010D03*
X192170Y301810D03*
X240670Y185140D03*
X231340Y191300D03*
X222010Y197460D03*
X238630Y265090D03*
X224070Y273510D03*
X225850Y287340D03*
X266150Y-423300D03*
X268650D03*
X271150D03*
X266150Y-410800D03*
Y-413300D03*
Y-415800D03*
Y-418300D03*
Y-420800D03*
X268650Y-410800D03*
Y-413300D03*
Y-415800D03*
Y-418300D03*
Y-420800D03*
X271150Y-410800D03*
Y-413300D03*
Y-415800D03*
Y-418300D03*
Y-420800D03*
X271350Y-391750D03*
X268850D03*
X266350D03*
X263850D03*
X261350D03*
X258850D03*
X271350Y-394250D03*
X268850D03*
X266350D03*
X263850D03*
X261350D03*
X258850D03*
X271350Y-396750D03*
X268850D03*
X266350D03*
X263850D03*
X261350D03*
X258850D03*
X258700Y-405950D03*
X261200D03*
X263700D03*
X266200D03*
X268700D03*
X271200D03*
X258700Y-403450D03*
X261200D03*
X263700D03*
X266200D03*
X268700D03*
X271200D03*
X258700Y-400950D03*
X261200D03*
X263700D03*
X266200D03*
X268700D03*
X271200D03*
X271500Y-382850D03*
X269000D03*
X266500D03*
X264000D03*
X261500D03*
X259000D03*
X271500Y-385350D03*
X269000D03*
X266500D03*
X264000D03*
X261500D03*
X259000D03*
X271500Y-387850D03*
X269000D03*
X266500D03*
X264000D03*
X261500D03*
X259000D03*
X246990Y-331550D03*
Y-346910D03*
X244650Y-344350D03*
X246990Y-341790D03*
X244650Y-339230D03*
X246990Y-336670D03*
X244650Y-334110D03*
X269210Y-313950D03*
X244650Y-328990D03*
X261950Y-263700D03*
X264490Y-239080D03*
X272910Y-224520D03*
X268660Y166660D03*
X259330Y172820D03*
X250000Y178980D03*
X244850Y276360D03*
X295900Y-421450D03*
X293400D03*
X290900D03*
X288400D03*
X285900D03*
X283400D03*
X295900Y-416450D03*
X293400D03*
X290900D03*
X288400D03*
X285900D03*
X283400D03*
X295900Y-418950D03*
X293400D03*
X290900D03*
X288400D03*
X285900D03*
X283400D03*
X295700Y-408000D03*
X293200D03*
X290700D03*
X288200D03*
X285700D03*
X283200D03*
X295700Y-410500D03*
X293200D03*
X290700D03*
X288200D03*
X285700D03*
X283200D03*
X295700Y-413000D03*
X293200D03*
X290700D03*
X288200D03*
X285700D03*
X283200D03*
X282750Y-327700D03*
X285250D03*
X287750D03*
X290250D03*
X292750D03*
X295250D03*
X282750Y-325200D03*
X285250D03*
X287750D03*
X290250D03*
X292750D03*
X295250D03*
X282750Y-322700D03*
X285250D03*
X287750D03*
X290250D03*
X292750D03*
X295250D03*
X274760Y-244800D03*
X294900Y-253940D03*
X291150Y-256500D03*
X294900Y-259060D03*
X291150Y-261620D03*
X285740Y-225800D03*
X297990Y-200430D03*
X277320Y-171660D03*
X277990Y-160500D03*
X278660Y-149340D03*
X279330Y-138180D03*
X280000Y-127020D03*
X280670Y-115860D03*
X281340Y-104700D03*
X282010Y-93540D03*
X301000Y40000D03*
X296000Y50000D03*
X291000Y60000D03*
X287320Y154340D03*
X277990Y160500D03*
X330650Y-399250D03*
Y-401750D03*
Y-404250D03*
X330700Y-393000D03*
Y-395500D03*
X330800Y-373200D03*
Y-381600D03*
Y-384100D03*
Y-386600D03*
Y-375700D03*
Y-378200D03*
X330700Y-390500D03*
X306900Y-338000D03*
Y-340500D03*
X309400Y-338000D03*
Y-340500D03*
X311900Y-338000D03*
Y-340500D03*
X306900Y-333000D03*
Y-335500D03*
X309400Y-333000D03*
Y-335500D03*
X311900Y-333000D03*
Y-335500D03*
X306900Y-328000D03*
Y-330500D03*
X309400Y-328000D03*
Y-330500D03*
X311900Y-328000D03*
Y-330500D03*
X329700Y-321800D03*
X332200D03*
X318300Y-321700D03*
X320800D03*
X323300D03*
X327200Y-321800D03*
X329700Y-311800D03*
X332200D03*
X329700Y-309300D03*
X332200D03*
X329700Y-314300D03*
Y-316800D03*
X332200Y-314300D03*
Y-316800D03*
X329700Y-319300D03*
X332200D03*
X318300Y-309200D03*
Y-311700D03*
X320800Y-309200D03*
Y-311700D03*
X323300Y-309200D03*
Y-311700D03*
X327200Y-311800D03*
Y-309300D03*
X318300Y-314200D03*
Y-316700D03*
X320800Y-314200D03*
Y-316700D03*
X323300Y-314200D03*
Y-316700D03*
X318300Y-319200D03*
X320800D03*
X323300D03*
X327200Y-314300D03*
Y-316800D03*
Y-319300D03*
X309750Y-261350D03*
X309300Y-266550D03*
X325600Y-126300D03*
X326000Y-10000D03*
X316000Y10000D03*
X311000Y20000D03*
X321000Y0D03*
X306000Y30000D03*
X329400Y125280D03*
X321350Y158220D03*
X315180Y168910D03*
X340650Y-399250D03*
Y-401750D03*
Y-404250D03*
X340700Y-393000D03*
Y-395500D03*
X343150Y-399250D03*
Y-401750D03*
Y-404250D03*
X343200Y-393000D03*
Y-395500D03*
X338150Y-399250D03*
X335650D03*
X338150Y-401750D03*
X335650D03*
X338150Y-404250D03*
X335650D03*
X333150Y-399250D03*
Y-401750D03*
Y-404250D03*
X338200Y-393000D03*
X335700D03*
X338200Y-395500D03*
X335700D03*
X333200Y-393000D03*
Y-395500D03*
X343300Y-373200D03*
X340800D03*
X343300Y-381600D03*
X340800D03*
X343300Y-384100D03*
X340800D03*
X343300Y-386600D03*
X340800D03*
X343300Y-375700D03*
X340800D03*
X343300Y-378200D03*
X340800D03*
X340700Y-390500D03*
X343200D03*
X338300Y-373200D03*
X335800D03*
X338300Y-381600D03*
X335800D03*
X338300Y-384100D03*
X335800D03*
X338300Y-386600D03*
X335800D03*
X338300Y-375700D03*
X335800D03*
X338300Y-378200D03*
X335800D03*
X333300Y-373200D03*
Y-381600D03*
Y-384100D03*
Y-386600D03*
Y-375700D03*
Y-378200D03*
X338200Y-390500D03*
X335700D03*
X333200D03*
X335950Y-321850D03*
X338450D03*
X340950D03*
X335950Y-311850D03*
X338450D03*
X340950D03*
X335950Y-309350D03*
X338450D03*
X340950D03*
X335950Y-314350D03*
Y-316850D03*
X338450Y-314350D03*
Y-316850D03*
X340950Y-314350D03*
Y-316850D03*
X335950Y-319350D03*
X338450D03*
X340950D03*
X354200Y-319850D03*
X349550Y-251420D03*
X338550Y-246300D03*
Y-248860D03*
X350010Y-232260D03*
X359050Y-74620D03*
X347450Y-74460D03*
X359050Y-52680D03*
X347450Y-57640D03*
X360400Y-24410D03*
X343800Y62400D03*
X348130Y117850D03*
X337800Y110720D03*
X337170Y136850D03*
X343800Y225300D03*
X371600Y-271890D03*
Y-274450D03*
Y-248860D03*
Y-246300D03*
Y-266770D03*
Y-269330D03*
X366050Y-227000D03*
X395850Y-39450D03*
X397850Y143100D03*
X430150Y-39450D03*
X436950Y143100D03*
G54D30*
X-48450Y-413040D03*
X-43450D03*
X-38450D03*
X-33450D03*
Y-394850D03*
X-38450D03*
X-43450D03*
X-48450D03*
X-28450Y-413040D03*
X-23450D03*
X-18450D03*
X-13450D03*
X-8450D03*
X-3450D03*
Y-394850D03*
X-8450D03*
X-13450D03*
X-18450D03*
X-23450D03*
X-28450D03*
X1550Y-413040D03*
X6550D03*
X11550D03*
X16550D03*
X21550D03*
X26550D03*
Y-394850D03*
X21550D03*
X16550D03*
X11550D03*
X6550D03*
X1550D03*
X31550Y-413040D03*
X36550D03*
X41550D03*
X46550D03*
Y-394850D03*
X41550D03*
X36550D03*
X31550D03*
G54D22*
X0Y0D03*
G54D31*
X233600Y-427950D03*
G54D13*
X-425650Y-5030D03*
Y-7590D03*
Y-10150D03*
Y-12700D03*
Y-15260D03*
Y-17820D03*
Y-20380D03*
Y-22940D03*
Y-25500D03*
Y2650D03*
Y90D03*
Y-2470D03*
X-403600Y-25500D03*
Y-22940D03*
Y-20380D03*
Y-17820D03*
Y-15260D03*
Y-12700D03*
Y-10150D03*
Y-7590D03*
Y-5030D03*
Y-2470D03*
Y90D03*
Y2650D03*
X-224750Y-424320D03*
Y-426880D03*
Y-429440D03*
Y-432000D03*
Y-403850D03*
Y-406410D03*
Y-408970D03*
Y-411530D03*
Y-414090D03*
Y-416650D03*
Y-419200D03*
Y-421760D03*
X-202700Y-432000D03*
Y-429440D03*
Y-426880D03*
Y-424320D03*
Y-421760D03*
Y-419200D03*
Y-416650D03*
Y-414090D03*
Y-411530D03*
Y-408970D03*
Y-406410D03*
Y-403850D03*
X-138850Y-424280D03*
Y-426840D03*
Y-429400D03*
Y-401250D03*
Y-403810D03*
Y-406370D03*
Y-408930D03*
Y-411490D03*
Y-414050D03*
Y-416600D03*
Y-419160D03*
Y-421720D03*
X-116800Y-429400D03*
Y-426840D03*
Y-424280D03*
Y-421720D03*
Y-419160D03*
Y-416600D03*
Y-414050D03*
Y-411490D03*
Y-408930D03*
Y-406370D03*
Y-403810D03*
Y-401250D03*
X147250Y-393800D03*
Y-396360D03*
Y-398920D03*
Y-401480D03*
Y-404040D03*
Y-406600D03*
Y-409150D03*
Y-411710D03*
Y-414270D03*
Y-416830D03*
Y-419390D03*
Y-421950D03*
X169300D03*
Y-419390D03*
Y-416830D03*
Y-414270D03*
Y-411710D03*
Y-409150D03*
Y-406600D03*
Y-404040D03*
Y-401480D03*
Y-398920D03*
Y-396360D03*
Y-393800D03*
X177550Y-334130D03*
Y-336690D03*
Y-339250D03*
Y-341800D03*
Y-344360D03*
Y-346920D03*
Y-349480D03*
Y-352040D03*
Y-354600D03*
Y-326450D03*
Y-329010D03*
Y-331570D03*
X199600Y-354600D03*
Y-352040D03*
Y-349480D03*
Y-346920D03*
Y-344360D03*
Y-341800D03*
Y-339250D03*
Y-336690D03*
Y-334130D03*
Y-331570D03*
Y-329010D03*
Y-326450D03*
X344050Y-274450D03*
Y-246300D03*
Y-248860D03*
Y-251420D03*
Y-253980D03*
Y-256540D03*
Y-259100D03*
Y-261650D03*
Y-264210D03*
Y-266770D03*
Y-269330D03*
Y-271890D03*
X366100Y-274450D03*
Y-271890D03*
Y-269330D03*
Y-266770D03*
Y-264210D03*
Y-261650D03*
Y-259100D03*
Y-256540D03*
Y-253980D03*
Y-251420D03*
Y-248860D03*
Y-246300D03*
G54D23*
X-276700Y240830D03*
X-283200Y229570D03*
X-241730Y-278750D03*
X-230470Y-285250D03*
X240980Y278600D03*
X229720Y285100D03*
X277000Y-240930D03*
X283500Y-229670D03*
G54D14*
X-393050Y-2650D03*
Y-5210D03*
Y-7770D03*
Y-10330D03*
Y-12890D03*
Y-15450D03*
Y-18010D03*
Y-90D03*
X-365450Y-18010D03*
Y-15450D03*
Y-12890D03*
Y-10330D03*
Y-7770D03*
Y-5210D03*
Y-2650D03*
Y-90D03*
X-262450Y-424390D03*
Y-426950D03*
Y-429510D03*
Y-411590D03*
Y-414150D03*
Y-416710D03*
Y-419270D03*
Y-421830D03*
X-234850Y-429510D03*
Y-426950D03*
Y-424390D03*
Y-421830D03*
Y-419270D03*
Y-416710D03*
Y-414150D03*
Y-411590D03*
X-177450Y-424400D03*
Y-426960D03*
Y-409040D03*
Y-411600D03*
Y-414160D03*
Y-416720D03*
Y-419280D03*
Y-421840D03*
X-149850Y-426960D03*
Y-424400D03*
Y-421840D03*
Y-419280D03*
Y-416720D03*
Y-414160D03*
Y-411600D03*
Y-409040D03*
X107650Y-401190D03*
Y-403750D03*
Y-406310D03*
Y-408870D03*
Y-411430D03*
Y-413990D03*
Y-416550D03*
Y-419110D03*
X135250D03*
Y-416550D03*
Y-413990D03*
Y-411430D03*
Y-408870D03*
Y-406310D03*
Y-403750D03*
Y-401190D03*
X212650Y-334110D03*
Y-336670D03*
Y-339230D03*
Y-341790D03*
Y-344350D03*
Y-346910D03*
Y-328990D03*
Y-331550D03*
X240250Y-346910D03*
Y-344350D03*
Y-341790D03*
Y-339230D03*
Y-336670D03*
Y-334110D03*
Y-331550D03*
Y-328990D03*
X301100Y-253940D03*
Y-256500D03*
Y-259060D03*
Y-261620D03*
Y-264180D03*
Y-266740D03*
Y-269300D03*
Y-271860D03*
X328700D03*
Y-269300D03*
Y-266740D03*
Y-264180D03*
Y-261620D03*
Y-259060D03*
Y-256500D03*
Y-253940D03*
G54D32*
X230360Y-398700D03*
X250050D03*
X289250Y-314100D03*
X308940D03*
G54D15*
X-360150Y57050D03*
Y70050D03*
X-70150Y-359950D03*
X-57150D03*
X57050Y360950D03*
X70050D03*
X359050Y-70150D03*
Y-57150D03*
G54D24*
X-255860Y228550D03*
X-228550Y-255860D03*
X228550Y255860D03*
X255860Y-228550D03*
G54D33*
X252100Y-439760D03*
Y-416140D03*
G54D34*
X289250Y-395050D03*
Y-401750D03*
Y-374950D03*
Y-381650D03*
Y-388350D03*
G54D25*
X-228590Y-272220D03*
X-235410Y-268280D03*
X-189340Y-302670D03*
X-191710Y-290730D03*
X-184890Y-294670D03*
X-196160Y-298730D03*
X191790Y291170D03*
X198610Y287230D03*
X196490Y299270D03*
X203310Y295330D03*
X234760Y267330D03*
X227940Y271270D03*
G54D16*
X-332580Y-121060D03*
X-336520Y-114240D03*
X-311770Y-157090D03*
X-307830Y-163910D03*
X-320020Y-161690D03*
X-316080Y-168510D03*
X331630Y121410D03*
X311020Y157790D03*
X307080Y164610D03*
X319120Y162090D03*
X315180Y168910D03*
X335570Y114590D03*
G54D26*
X-196560Y-372250D03*
X-204440D03*
X-169440Y-372450D03*
X-161560D03*
X-169640Y-351900D03*
X-161760D03*
X-62110Y-348350D03*
X-69990D03*
X-20140Y-360750D03*
X-12260D03*
X-20040Y-352100D03*
X-12160D03*
X19840Y348750D03*
X11960D03*
X19840Y358400D03*
X11960D03*
X61960Y349850D03*
X69840D03*
X230310Y-382450D03*
X238190D03*
X269210Y-313950D03*
X277090D03*
X297090Y-297050D03*
X289210D03*
G54D17*
X-347000Y-120920D03*
X-340500Y-132180D03*
X-120120Y346250D03*
X-131380Y339750D03*
X119970Y-348300D03*
X131230Y-341800D03*
X345900Y121720D03*
X339400Y132980D03*
G54D35*
X289200Y-362600D03*
Y-337100D03*
X354200Y-337150D03*
Y-311650D03*
G54D27*
X-182900Y-363350D03*
X-179150Y-372350D03*
X-186650D03*
X-182900Y-343000D03*
X-179150Y-352000D03*
X-186650D03*
G54D18*
X-325860Y-107310D03*
X-107310Y325860D03*
X107310Y-325860D03*
X325860Y107310D03*
G54D36*
X316450Y-419400D03*
X341950D03*
G54D19*
X-335860Y-70000D03*
Y-60000D03*
Y-50000D03*
Y-40000D03*
Y-30000D03*
Y-20000D03*
Y-10000D03*
Y0D03*
Y10000D03*
Y20000D03*
Y30000D03*
Y40000D03*
Y50000D03*
Y60000D03*
X-325860Y107310D03*
X-295860Y-159270D03*
X-300860Y-150610D03*
X-305860Y-141950D03*
X-310860Y-133290D03*
X-315860Y-124630D03*
X-320860Y-115970D03*
Y115970D03*
X-315860Y124630D03*
X-310860Y133290D03*
X-305860Y141950D03*
X-300860Y150610D03*
X-295860Y159270D03*
X-265860Y-211230D03*
X-270860Y-202570D03*
X-275860Y-193910D03*
X-280860Y-185250D03*
X-285860Y-176590D03*
X-290860Y-167930D03*
Y167930D03*
X-285860Y176590D03*
X-280860Y185250D03*
X-275860Y193910D03*
X-270860Y202570D03*
X-265860Y211230D03*
X-255860Y-228550D03*
X-260860Y-219890D03*
Y219890D03*
X-211230Y-265860D03*
X-219890Y-260860D03*
X-228550Y255860D03*
X-219890Y260860D03*
X-211230Y265860D03*
X-176590Y-285860D03*
X-185250Y-280860D03*
X-193910Y-275860D03*
X-202570Y-270860D03*
Y270860D03*
X-193910Y275860D03*
X-185250Y280860D03*
X-176590Y285860D03*
X-150610Y-300860D03*
X-159270Y-295860D03*
X-167930Y-290860D03*
Y290860D03*
X-159270Y295860D03*
X-150610Y300860D03*
X-115970Y-320860D03*
X-124630Y-315860D03*
X-133290Y-310860D03*
X-141950Y-305860D03*
Y305860D03*
X-133290Y310860D03*
X-124630Y315860D03*
X-115970Y320860D03*
X-107310Y-325860D03*
X-60000Y-335860D03*
X-70000Y335860D03*
X-60000D03*
X-30000Y-335860D03*
X-40000D03*
X-50000D03*
Y335860D03*
X-40000D03*
X-30000D03*
X0Y-335860D03*
X-10000D03*
X-20000D03*
Y335860D03*
X-10000D03*
X0D03*
X30000Y-335860D03*
X20000D03*
X10000D03*
Y335860D03*
X20000D03*
X30000D03*
X60000Y-335860D03*
X50000D03*
X40000D03*
Y335860D03*
X50000D03*
X60000D03*
X70000Y-335860D03*
X115970Y-320860D03*
X107310Y325860D03*
X115970Y320860D03*
X150610Y-300860D03*
X141950Y-305860D03*
X133290Y-310860D03*
X124630Y-315860D03*
X150610Y300860D03*
X124630Y315860D03*
X133290Y310860D03*
X141950Y305860D03*
X176590Y-285860D03*
X167930Y-290860D03*
X159270Y-295860D03*
Y295860D03*
X167930Y290860D03*
X176590Y285860D03*
X202570Y-270860D03*
X193910Y-275860D03*
X185250Y-280860D03*
X211230Y-265860D03*
X202570Y270860D03*
X211230Y265860D03*
X185250Y280860D03*
X193910Y275860D03*
X228550Y-255860D03*
X219890Y-260860D03*
Y260860D03*
X265860Y-211230D03*
X260860Y-219890D03*
X270860Y-202570D03*
Y202570D03*
X255860Y228550D03*
X260860Y219890D03*
X265860Y211230D03*
X280860Y-185250D03*
X275860Y-193910D03*
X300860Y-150610D03*
X295860Y-159270D03*
X290860Y-167930D03*
X285860Y-176590D03*
X300860Y150610D03*
X285860Y176590D03*
X290860Y167930D03*
X295860Y159270D03*
X275860Y193910D03*
X280860Y185250D03*
X315860Y-124630D03*
X310860Y-133290D03*
X305860Y-141950D03*
X325860Y-107310D03*
X320860Y-115970D03*
Y115970D03*
X305860Y141950D03*
X310860Y133290D03*
X315860Y124630D03*
X335860Y-40000D03*
Y-50000D03*
Y-60000D03*
Y-10000D03*
Y-20000D03*
Y-30000D03*
Y20000D03*
Y10000D03*
Y0D03*
Y50000D03*
Y40000D03*
Y30000D03*
Y70000D03*
Y60000D03*
G54D28*
X-157090Y310770D03*
X-163910Y306830D03*
X-161890Y318770D03*
X-168710Y314830D03*
X-120760Y332130D03*
X-113940Y336070D03*
X120910Y-333230D03*
X114090Y-337170D03*
X157390Y-311570D03*
X164210Y-307630D03*
X161840Y-319370D03*
X168660Y-315430D03*
G54D37*
X328250Y-388450D03*
G54D29*
X-54510Y-403940D03*
X52690D03*
G54D38*
X327700Y-335810D03*
Y-355500D03*
G54D39*
G01X-460000Y-480000D02*
G03I-15000J5000D01*
G01X-465000D02*
G03I-10000J5000D01*
G01X-495000Y-475000D02*
X-455000D01*
G01X-485000Y500000D02*
Y460000D01*
G01X-470000Y475000D02*
G03I-15000J5000D01*
G01X-475000D02*
G03I-10000J5000D01*
G01X-505000Y480000D02*
X-465000D01*
G01X-475000Y-455000D02*
Y-495000D01*
G01X-450000Y-450000D02*
X450000D01*
Y450000D01*
X325000D01*
X320000Y445000D01*
Y370000D01*
X-320000D01*
Y445000D01*
X-325000Y450000D01*
X-450000D01*
Y-450000D01*
G01X-376500Y-400000D02*
G03I-23500J0D01*
G01Y399930D02*
G03I-23500J2D01*
G01X275000Y0D02*
G03I-275000J0D01*
G01X0Y-9000D02*
Y9000D01*
G01Y-9000D02*
Y9000D01*
G01X-9000Y0D02*
X9000D01*
G01X-9000D02*
X9000D01*
G01X423500Y-400000D02*
G03I-23500J0D01*
G01Y399930D02*
G03I-23500J2D01*
G01X480000Y-450000D02*
Y-490000D01*
G01X495000Y-475000D02*
G03I-15000J5000D01*
G01X460000Y-470000D02*
X500000D01*
G01X490000Y-475000D02*
G03I-10000J5000D01*
G01Y455000D02*
G03I-15000J5000D01*
G01X475000Y480000D02*
Y440000D01*
G01X485000Y455000D02*
G03I-10000J5000D01*
G01X455000Y460000D02*
X495000D01*
M02*
