G04 ================== begin FILE IDENTIFICATION RECORD ==================*
G04 Layout Name:  C:/Users/labadmin/Downloads/ww10-exchange/G4.2/arena_12-12_v2.2.brd*
G04 Film Name:    TOP*
G04 File Format:  Gerber RS274X*
G04 File Origin:  Cadence Allegro 17.4-S007*
G04 Origin Date:  Tue Nov 10 23:59:30 2020*
G04 *
G04 Layer:  VIA KEEPOUT/ALL*
G04 Layer:  VIA KEEPOUT/BOTTOM*
G04 Layer:  VIA KEEPOUT/LAYER 2*
G04 Layer:  VIA KEEPOUT/GND2*
G04 Layer:  VIA KEEPOUT/LAYER 1*
G04 Layer:  VIA KEEPOUT/PWR*
G04 Layer:  VIA KEEPOUT/TOP*
G04 Layer:  VIA CLASS/FILMMASKBOTTOM*
G04 Layer:  VIA CLASS/TOP*
G04 Layer:  ROUTE KEEPOUT/ALL*
G04 Layer:  ROUTE KEEPOUT/BOTTOM*
G04 Layer:  ROUTE KEEPOUT/LAYER 2*
G04 Layer:  ROUTE KEEPOUT/GND2*
G04 Layer:  ROUTE KEEPOUT/LAYER 1*
G04 Layer:  ROUTE KEEPOUT/PWR*
G04 Layer:  ROUTE KEEPOUT/TOP*
G04 Layer:  ROUTE KEEPIN/ALL*
G04 Layer:  PIN/FILMMASKBOTTOM*
G04 Layer:  PIN/TOP*
G04 Layer:  PACKAGE KEEPOUT/ALL*
G04 Layer:  PACKAGE KEEPOUT/TOP*
G04 Layer:  PACKAGE KEEPOUT/BOTTOM*
G04 Layer:  PACKAGE KEEPIN/ALL*
G04 Layer:  ETCH/TOP*
G04 Layer:  BOARD GEOMETRY/OUTLINE*
G04 *
G04 Offset:    (0.0 0.0)*
G04 Mirror:    No*
G04 Mode:      Positive*
G04 Rotation:  0*
G04 FullContactRelief:  No*
G04 UndefLineWidth:     0.1*
G04 ================== end FILE IDENTIFICATION RECORD ====================*
%FSLAX25Y25*MOIN*%
%IR0*IPPOS*OFA0.00000B0.00000*MIA0B0*SFA1.00000B1.00000*%
%ADD10C,.2*%
%ADD19R,.1969X.0787*%
%ADD18R,.0787X.1969*%
%ADD13C,.06*%
%AMMACRO12*
21,1,.06,.06,0.0,0.0,30.*%
%ADD12MACRO12*%
%ADD11C,.024*%
%ADD15C,5.7*%
%AMMACRO16*
21,1,.06,.06,0.0,0.0,60.*%
%ADD16MACRO16*%
%ADD14R,.06X.06*%
%ADD17C,.0787*%
%ADD20C,.005*%
%ADD21C,.008*%
%ADD22C,.0001*%
%ADD23C,.025*%
%ADD24C,.2104*%
%ADD26C,.0344*%
%ADD25C,.0704*%
%ADD27C,.089*%
G75*
%LPD*%
G75*
G36*
G01X326500Y448450D02*
X449600D01*
Y-449650D01*
X64740D01*
G02X64390Y-449050I-1J401D01*
G03X64620Y-448200I-1488J859D01*
G03X61180I-1720J0D01*
G03X61410Y-449050I1718J9D01*
G02X61060Y-449650I-349J-199D01*
G01X56520D01*
G02X56170Y-449060I0J399D01*
G03X56370Y-448250I-1521J805D01*
G03X52930I-1720J0D01*
G03X53130Y-449060I1721J-5D01*
G02X52780Y-449650I-350J-191D01*
G01X48310D01*
G02X47970Y-449040I1J400D01*
G03X48220Y-448150I-1459J890D01*
G03X44780I-1720J0D01*
G03X45030Y-449040I1709J0D01*
G02X44690Y-449650I-341J-210D01*
G01X40220D01*
G02X39870Y-449060I0J399D01*
G03X40070Y-448250I-1521J805D01*
G03X36630I-1720J0D01*
G03X36830Y-449060I1721J-5D01*
G02X36480Y-449650I-350J-191D01*
G01X32040D01*
G02X31690Y-449070I6J399D01*
G03X31870Y-448300I-1541J766D01*
G03X28430I-1720J0D01*
G03X28610Y-449070I1721J-4D01*
G02X28260Y-449650I-356J-181D01*
G01X23840D01*
G02X23490Y-449050I-1J401D01*
G03X23720Y-448200I-1488J859D01*
G03X20280I-1720J0D01*
G03X20510Y-449050I1718J9D01*
G02X20160Y-449650I-349J-199D01*
G01X15660D01*
G02X15320Y-449040I1J400D01*
G03X15570Y-448150I-1459J890D01*
G03X12130I-1720J0D01*
G03X12380Y-449040I1709J0D01*
G02X12040Y-449650I-341J-210D01*
G01X7580D01*
G02X7240Y-449030I-3J402D01*
G03X7520Y-448100I-1437J940D01*
G03X4080I-1720J0D01*
G03X4360Y-449030I1717J10D01*
G02X4020Y-449650I-337J-218D01*
G01X-550D01*
G02X-880Y-449020I-3J400D01*
G03X-580Y-448050I-1418J970D01*
G03X-4020I-1720J0D01*
G03X-3720Y-449020I1718J0D01*
G02X-4050Y-449650I-327J-230D01*
G01X-8640D01*
G02X-8960Y-449010I1J400D01*
G03X-8630Y-448000I-1381J1010D01*
G03X-12070I-1720J0D01*
G03X-11740Y-449010I1711J0D01*
G02X-12060Y-449650I-321J-240D01*
G01X-16690D01*
G02X-17010Y-449010I1J400D01*
G03X-16680Y-448000I-1381J1010D01*
G03X-20120I-1720J0D01*
G03X-19790Y-449010I1711J0D01*
G02X-20110Y-449650I-321J-240D01*
G01X-24830D01*
G02X-25140Y-449010I6J398D01*
G03X-24780Y-447950I-1362J1054D01*
G03X-28220I-1720J0D01*
G03X-27860Y-449010I1722J-6D01*
G02X-28170Y-449650I-316J-242D01*
G01X-32980D01*
G02X-33290Y-449010I6J398D01*
G03X-32930Y-447950I-1362J1054D01*
G03X-36370I-1720J0D01*
G03X-36010Y-449010I1722J-6D01*
G02X-36320Y-449650I-316J-242D01*
G01X-41080D01*
G02X-41390Y-449010I6J398D01*
G03X-41030Y-447950I-1362J1054D01*
G03X-44470I-1720J0D01*
G03X-44110Y-449010I1722J-6D01*
G02X-44420Y-449650I-316J-242D01*
G01X-49170D01*
G02X-49470Y-449000I7J398D01*
G03X-49080Y-447900I-1333J1092D01*
G03X-52520I-1720J0D01*
G03X-52130Y-449000I1723J-8D01*
G02X-52430Y-449650I-307J-252D01*
G01X-57310D01*
G02X-57610Y-448990I2J399D01*
G03X-57180Y-447850I-1296J1140D01*
G03X-58900Y-446130I-1720J0D01*
G03X-60360Y-446940I0J-1721D01*
G01X-67820D01*
X-70790Y-443970D01*
Y-430290D01*
G03X-71060Y-429650I-908J-6D01*
G01X-74300Y-426410D01*
G03X-74940Y-426140I-646J-638D01*
G01X-101540D01*
G03X-101750Y-425870I-1456J-916D01*
G02X-101460Y-425190I286J280D01*
G01X-59000D01*
X-52480Y-431710D01*
X-52500Y-431810D01*
G03X-52520Y-432100I1702J-263D01*
G03X-50800Y-430380I1720J0D01*
G03X-51090Y-430400I-27J-1722D01*
G01X-51190Y-430420D01*
X-57980Y-423640D01*
G03X-58620Y-423370I-646J-638D01*
G01X-106370D01*
G03X-107830Y-422560I-1460J-911D01*
G03Y-426000I0J-1720D01*
G03X-106370Y-425190I0J1721D01*
G01X-104540D01*
G02X-104250Y-425870I4J-400D01*
G03X-104720Y-427050I1246J-1180D01*
G03X-103000Y-428770I1720J0D01*
G03X-101540Y-427960I0J1721D01*
G01X-75320D01*
X-72610Y-430670D01*
Y-444350D01*
G03X-72340Y-444990I908J6D01*
G01X-68840Y-448490D01*
G03X-68200Y-448760I646J638D01*
G01X-60360D01*
G03X-60190Y-448990I1464J904D01*
G02X-60490Y-449650I-302J-261D01*
G01X-448800D01*
Y448450D01*
X-326500D01*
X-321500Y443450D01*
Y368500D01*
X321500D01*
Y443450D01*
X326500Y448450D01*
G37*
%LPC*%
G75*
G36*
G01X-227710Y-260400D02*
X-232900Y-257400D01*
G02X-233090Y-256700I251J444D01*
G01X-230090Y-251510D01*
G02X-229390Y-251320I444J-251D01*
G01X-224200Y-254320D01*
G02X-224010Y-255020I-251J-444D01*
G01X-227010Y-260210D01*
G02X-227710Y-260400I-444J251D01*
G37*
G36*
G01X-327400Y-111660D02*
X-330400Y-106470D01*
G02X-330210Y-105770I441J256D01*
G01X-325020Y-102770D01*
G02X-324320Y-102960I256J-441D01*
G01X-321320Y-108150D01*
G02X-321510Y-108850I-441J-256D01*
G01X-326700Y-111850D01*
G02X-327400Y-111660I-256J441D01*
G37*
G36*
G01X-255020Y224010D02*
X-260210Y227010D01*
G02X-260400Y227710I251J444D01*
G01X-257400Y232900D01*
G02X-256700Y233090I444J-251D01*
G01X-251510Y230090D01*
G02X-251320Y229390I-251J-444D01*
G01X-254320Y224200D01*
G02X-255020Y224010I-444J251D01*
G37*
G36*
G01X66490Y332860D02*
Y338860D01*
G02X67000Y339370I510J0D01*
G01X73000D01*
G02X73510Y338860I0J-510D01*
G01Y332860D01*
G02X73000Y332350I-510J0D01*
G01X67000D01*
G02X66490Y332860I0J510D01*
G37*
G36*
G01X256700Y-233090D02*
X251510Y-230090D01*
G02X251320Y-229390I251J444D01*
G01X254320Y-224200D01*
G02X255020Y-224010I444J-251D01*
G01X260210Y-227010D01*
G02X260400Y-227710I-251J-444D01*
G01X257400Y-232900D01*
G02X256700Y-233090I-444J251D01*
G37*
G36*
G01X324320Y102960D02*
X321320Y108150D01*
G02X321510Y108850I441J256D01*
G01X326700Y111850D01*
G02X327400Y111660I256J-441D01*
G01X330400Y106470D01*
G02X330210Y105770I-441J-256D01*
G01X325020Y102770D01*
G02X324320Y102960I-256J441D01*
G37*
G36*
G01X-73510Y-338860D02*
Y-332860D01*
G02X-73000Y-332350I510J0D01*
G01X-67000D01*
G02X-66490Y-332860I0J-510D01*
G01Y-338860D01*
G02X-67000Y-339370I-510J0D01*
G01X-73000D01*
G02X-73510Y-338860I0J510D01*
G37*
G36*
G01X-339370Y67000D02*
Y73000D01*
G02X-338860Y73510I510J0D01*
G01X-332860D01*
G02X-332350Y73000I0J-510D01*
G01Y67000D01*
G02X-332860Y66490I-510J0D01*
G01X-338860D01*
G02X-339370Y67000I0J510D01*
G37*
G36*
G01X-108850Y321510D02*
X-111850Y326700D01*
G02X-111660Y327400I441J256D01*
G01X-106470Y330400D01*
G02X-105770Y330210I256J-441D01*
G01X-102770Y325020D01*
G02X-102960Y324320I-441J-256D01*
G01X-108150Y321320D01*
G02X-108850Y321510I-256J441D01*
G37*
G36*
G01X229390Y251320D02*
X224200Y254320D01*
G02X224010Y255020I251J444D01*
G01X227010Y260210D01*
G02X227710Y260400I444J-251D01*
G01X232900Y257400D01*
G02X233090Y256700I-251J-444D01*
G01X230090Y251510D01*
G02X229390Y251320I-444J251D01*
G37*
G36*
G01X105770Y-330210D02*
X102770Y-325020D01*
G02X102960Y-324320I441J256D01*
G01X108150Y-321320D01*
G02X108850Y-321510I256J-441D01*
G01X111850Y-326700D01*
G02X111660Y-327400I-441J-256D01*
G01X106470Y-330400D01*
G02X105770Y-330210I-256J441D01*
G37*
G36*
G01X332350Y-73000D02*
Y-67000D01*
G02X332860Y-66490I510J0D01*
G01X338860D01*
G02X339370Y-67000I0J-510D01*
G01Y-73000D01*
G02X338860Y-73510I-510J0D01*
G01X332860D01*
G02X332350Y-73000I0J510D01*
G37*
G36*
G01X241740Y-420080D02*
Y-412200D01*
G02X242260Y-411690I515J-5D01*
G01X261940D01*
G02X262460Y-412200I5J-515D01*
G01Y-420080D01*
G02X261940Y-420590I-515J5D01*
G01X242260D01*
G02X241740Y-420080I-5J515D01*
G37*
G36*
G01Y-443700D02*
Y-435820D01*
G02X242260Y-435310I515J-5D01*
G01X261940D01*
G02X262460Y-435820I5J-515D01*
G01Y-443700D01*
G02X261940Y-444210I-515J5D01*
G01X242260D01*
G02X241740Y-443700I-5J515D01*
G37*
G36*
G01X229150Y-437800D02*
Y-418100D01*
G02X229660Y-417590I515J-5D01*
G01X237540D01*
G02X238050Y-418100I-5J-515D01*
G01Y-437800D01*
G02X237540Y-438310I-515J5D01*
G01X229660D01*
G02X229150Y-437800I5J515D01*
G37*
G36*
G01X-104840Y-438910D02*
G02X-106300Y-439720I-1460J911D01*
G02Y-436280I0J1720D01*
G02X-104840Y-437090I0J-1721D01*
G01X-78010D01*
G02X-76550Y-436280I1460J-911D01*
G02Y-439720I0J-1720D01*
G02X-78010Y-438910I0J1721D01*
G01X-104840D01*
G37*
G36*
G01X11710Y-439490D02*
X6190Y-433980D01*
X6090Y-434000D01*
G02X5800Y-434020I-263J1702D01*
G02X7520Y-432300I0J1720D01*
G02X7500Y-432590I-1722J-27D01*
G01X7480Y-432690D01*
X12730Y-437940D01*
X74520D01*
X75420Y-437040D01*
X75400Y-436940D01*
G02X75380Y-436650I1702J263D01*
G02X77100Y-438370I1720J0D01*
G02X76810Y-438350I-27J1722D01*
G01X76710Y-438330D01*
X75540Y-439490D01*
G02X74900Y-439760I-646J638D01*
G01X12350D01*
G02X11710Y-439490I6J908D01*
G37*
G36*
G01X6910Y-442740D02*
X-1910Y-433930D01*
X-2010Y-433950D01*
G02X-2300Y-433970I-263J1702D01*
G02X-580Y-432250I0J1720D01*
G02X-600Y-432540I-1722J-27D01*
G01X-620Y-432640D01*
X7930Y-441190D01*
X78270D01*
X83240Y-436220D01*
Y-435260D01*
G02X82430Y-433800I911J1460D01*
G02X85870I1720J0D01*
G02X85060Y-435260I-1721J0D01*
G01Y-436600D01*
G02X84790Y-437240I-908J6D01*
G01X79290Y-442740D01*
G02X78650Y-443010I-646J638D01*
G01X7550D01*
G02X6910Y-442740I6J908D01*
G37*
G36*
G01X-64430Y-416010D02*
X-77040D01*
G02X-78500Y-416820I-1460J911D01*
G02Y-413380I0J1720D01*
G02X-77040Y-414190I0J-1721D01*
G01X-64050D01*
G02X-63410Y-414460I-6J-908D01*
G01X-62070Y-415790D01*
X26850D01*
G02X27490Y-416060I-6J-908D01*
G01X34940Y-423510D01*
G02X35210Y-424150I-638J-646D01*
G01Y-432870D01*
X37030Y-434690D01*
X51120D01*
X52970Y-432840D01*
X52950Y-432740D01*
G02X52930Y-432450I1702J263D01*
G02X54650Y-434170I1720J0D01*
G02X54360Y-434150I-27J1722D01*
G01X54260Y-434130D01*
X52140Y-436240D01*
G02X51500Y-436510I-646J638D01*
G01X36650D01*
G02X36010Y-436240I6J908D01*
G01X33660Y-433890D01*
G02X33390Y-433250I638J646D01*
G01Y-424530D01*
X26470Y-417610D01*
X-62450D01*
G02X-63090Y-417340I6J908D01*
G01X-64430Y-416010D01*
G37*
G36*
G01X267270Y-409490D02*
G03X267530I130J147D01*
G02X268650Y-409080I1115J-1312D01*
G02X269770Y-409490I5J-1722D01*
G03X270030I130J147D01*
G02X271150Y-409080I1115J-1312D01*
G02X272870Y-410800I0J-1720D01*
G02X272460Y-411920I-1722J-5D01*
G03Y-412180I147J-130D01*
G02X272870Y-413300I-1312J-1115D01*
G02X272460Y-414420I-1722J-5D01*
G03Y-414680I147J-130D01*
G02X272870Y-415800I-1312J-1115D01*
G02X272460Y-416920I-1722J-5D01*
G03Y-417180I147J-130D01*
G02X272870Y-418300I-1312J-1115D01*
G02X272460Y-419420I-1722J-5D01*
G03Y-419680I147J-130D01*
G02X272870Y-420800I-1312J-1115D01*
G02X272460Y-421920I-1722J-5D01*
G03Y-422180I147J-130D01*
G02X272870Y-423300I-1312J-1115D01*
G02X271150Y-425020I-1720J0D01*
G02X270030Y-424610I-5J1722D01*
G03X269770I-130J-147D01*
G02X268650Y-425020I-1115J1312D01*
G02X267530Y-424610I-5J1722D01*
G03X267270I-130J-147D01*
G02X266150Y-425020I-1115J1312D01*
G02X264430Y-423300I0J1720D01*
G02X264840Y-422180I1722J5D01*
G03Y-421920I-147J130D01*
G02X264430Y-420800I1312J1115D01*
G02X264840Y-419680I1722J5D01*
G03Y-419420I-147J130D01*
G02X264430Y-418300I1312J1115D01*
G02X264840Y-417180I1722J5D01*
G03Y-416920I-147J130D01*
G02X264430Y-415800I1312J1115D01*
G02X264840Y-414680I1722J5D01*
G03Y-414420I-147J130D01*
G02X264430Y-413300I1312J1115D01*
G02X264840Y-412180I1722J5D01*
G03Y-411920I-147J130D01*
G02X264430Y-410800I1312J1115D01*
G02X266150Y-409080I1720J0D01*
G02X267270Y-409490I5J-1722D01*
G37*
G36*
G01X-95800Y-409840D02*
X-110990D01*
G02X-112450Y-410650I-1460J911D01*
G02Y-407210I0J1720D01*
G02X-110990Y-408020I0J-1721D01*
G01X-95420D01*
G02X-94780Y-408290I-6J-908D01*
G01X-83670Y-419390D01*
X-8000D01*
G02X-7360Y-419660I-6J-908D01*
G01X-670Y-426340D01*
X8750D01*
G02X9390Y-426610I-6J-908D01*
G01X13460Y-430670D01*
X13560Y-430650D01*
G02X13850Y-430630I263J-1702D01*
G02X12130Y-432350I0J-1720D01*
G02X12150Y-432060I1722J27D01*
G01X12170Y-431960D01*
X8370Y-428160D01*
X-1050D01*
G02X-1690Y-427890I6J908D01*
G01X-8380Y-421210D01*
X-84050D01*
G02X-84690Y-420940I6J908D01*
G01X-95800Y-409840D01*
G37*
G36*
G01X-232230Y-405260D02*
G03Y-405000I-151J130D01*
G02X-232670Y-403850I1283J1150D01*
G02X-229230I1720J0D01*
G02X-229670Y-405000I-1723J0D01*
G03Y-405260I151J-130D01*
G02X-229230Y-406410I-1283J-1150D01*
G02X-232670I-1720J0D01*
G02X-232230Y-405260I1723J0D01*
G37*
G36*
G01X-144480Y-402660D02*
G03Y-402400I-151J130D01*
G02X-144920Y-401250I1283J1150D01*
G02X-141480I1720J0D01*
G02X-141920Y-402400I-1723J0D01*
G03Y-402660I151J-130D01*
G02X-141480Y-403810I-1283J-1150D01*
G02X-144920I-1720J0D01*
G02X-144480Y-402660I1723J0D01*
G37*
G36*
G01X-113730D02*
G03Y-402400I-151J130D01*
G02X-114170Y-401250I1283J1150D01*
G02X-110730I1720J0D01*
G02X-111170Y-402400I-1723J0D01*
G03Y-402660I151J-130D01*
G02X-110730Y-403810I-1283J-1150D01*
G02X-114170I-1720J0D01*
G02X-113730Y-402660I1723J0D01*
G37*
G36*
G01X267320Y-399640D02*
G03X267580I130J147D01*
G02X268700Y-399230I1115J-1312D01*
G02X269820Y-399640I5J-1722D01*
G03X270080I130J147D01*
G02X271200Y-399230I1115J-1312D01*
G02X272920Y-400950I0J-1720D01*
G02X272510Y-402070I-1722J-5D01*
G03Y-402330I147J-130D01*
G02X272920Y-403450I-1312J-1115D01*
G02X272510Y-404570I-1722J-5D01*
G03Y-404830I147J-130D01*
G02X272920Y-405950I-1312J-1115D01*
G02X271200Y-407670I-1720J0D01*
G02X270080Y-407260I-5J1722D01*
G03X269820I-130J-147D01*
G02X268700Y-407670I-1115J1312D01*
G02X267580Y-407260I-5J1722D01*
G03X267320I-130J-147D01*
G02X266200Y-407670I-1115J1312D01*
G02X265080Y-407260I-5J1722D01*
G03X264820I-130J-147D01*
G02X263700Y-407670I-1115J1312D01*
G02X262580Y-407260I-5J1722D01*
G03X262320I-130J-147D01*
G02X261200Y-407670I-1115J1312D01*
G02X260080Y-407260I-5J1722D01*
G03X259820I-130J-147D01*
G02X258700Y-407670I-1115J1312D01*
G02X256980Y-405950I0J1720D01*
G02X257390Y-404830I1722J5D01*
G03Y-404570I-147J130D01*
G02X256980Y-403450I1312J1115D01*
G02X257390Y-402330I1722J5D01*
G03Y-402070I-147J130D01*
G02X256980Y-400950I1312J1115D01*
G02X258700Y-399230I1720J0D01*
G02X259820Y-399640I5J-1722D01*
G03X260080I130J147D01*
G02X261200Y-399230I1115J-1312D01*
G02X262320Y-399640I5J-1722D01*
G03X262580I130J147D01*
G02X263700Y-399230I1115J-1312D01*
G02X264820Y-399640I5J-1722D01*
G03X265080I130J147D01*
G02X266200Y-399230I1115J-1312D01*
G02X267320Y-399640I5J-1722D01*
G37*
G36*
G01X-74790Y-397710D02*
X-72290Y-395210D01*
G02X-71650Y-394940I646J-638D01*
G01X-8610D01*
G02X-7970Y-395210I-6J-908D01*
G01X-2910Y-400270D01*
G02X-2640Y-400910I-638J-646D01*
G01Y-406270D01*
X-1820Y-407090D01*
X38500D01*
G02X39140Y-407360I-6J-908D01*
G01X62510Y-430720D01*
X62610Y-430700D01*
G02X62900Y-430680I263J-1702D01*
G02X61180Y-432400I0J-1720D01*
G02X61200Y-432110I1722J27D01*
G01X61220Y-432010D01*
X38120Y-408910D01*
X-2200D01*
G02X-2840Y-408640I6J908D01*
G01X-4190Y-407290D01*
G02X-4460Y-406650I638J646D01*
G01Y-401290D01*
X-8990Y-396760D01*
X-71270D01*
X-73240Y-398730D01*
Y-410040D01*
G02X-72430Y-411500I-911J-1460D01*
G02X-75870I-1720J0D01*
G02X-75060Y-410040I1721J0D01*
G01Y-398350D01*
G02X-74790Y-397710I908J-6D01*
G37*
G36*
G01X150370Y-395210D02*
G03Y-394950I-151J130D01*
G02X149930Y-393800I1283J1150D01*
G02X153370I1720J0D01*
G02X152930Y-394950I-1723J0D01*
G03Y-395210I151J-130D01*
G02X153370Y-396360I-1283J-1150D01*
G02X149930I-1720J0D01*
G02X150370Y-395210I1723J0D01*
G37*
G36*
G01X267470Y-390440D02*
G03X267730I130J147D01*
G02X268850Y-390030I1115J-1312D01*
G02X269970Y-390440I5J-1722D01*
G03X270230I130J147D01*
G02X271350Y-390030I1115J-1312D01*
G02X273070Y-391750I0J-1720D01*
G02X272660Y-392870I-1722J-5D01*
G03Y-393130I147J-130D01*
G02X273070Y-394250I-1312J-1115D01*
G02X272660Y-395370I-1722J-5D01*
G03Y-395630I147J-130D01*
G02X273070Y-396750I-1312J-1115D01*
G02X271350Y-398470I-1720J0D01*
G02X270230Y-398060I-5J1722D01*
G03X269970I-130J-147D01*
G02X268850Y-398470I-1115J1312D01*
G02X267730Y-398060I-5J1722D01*
G03X267470I-130J-147D01*
G02X266350Y-398470I-1115J1312D01*
G02X265230Y-398060I-5J1722D01*
G03X264970I-130J-147D01*
G02X263850Y-398470I-1115J1312D01*
G02X262730Y-398060I-5J1722D01*
G03X262470I-130J-147D01*
G02X261350Y-398470I-1115J1312D01*
G02X260230Y-398060I-5J1722D01*
G03X259970I-130J-147D01*
G02X258850Y-398470I-1115J1312D01*
G02X257130Y-396750I0J1720D01*
G02X257540Y-395630I1722J5D01*
G03Y-395370I-147J130D01*
G02X257130Y-394250I1312J1115D01*
G02X257540Y-393130I1722J5D01*
G03Y-392870I-147J130D01*
G02X257130Y-391750I1312J1115D01*
G02X258850Y-390030I1720J0D01*
G02X259970Y-390440I5J-1722D01*
G03X260230I130J147D01*
G02X261350Y-390030I1115J-1312D01*
G02X262470Y-390440I5J-1722D01*
G03X262730I130J147D01*
G02X263850Y-390030I1115J-1312D01*
G02X264970Y-390440I5J-1722D01*
G03X265230I130J147D01*
G02X266350Y-390030I1115J-1312D01*
G02X267470Y-390440I5J-1722D01*
G37*
G36*
G01X267620Y-381540D02*
G03X267880I130J147D01*
G02X269000Y-381130I1115J-1312D01*
G02X270120Y-381540I5J-1722D01*
G03X270380I130J147D01*
G02X271500Y-381130I1115J-1312D01*
G02X273220Y-382850I0J-1720D01*
G02X272810Y-383970I-1722J-5D01*
G03Y-384230I147J-130D01*
G02X273220Y-385350I-1312J-1115D01*
G02X272810Y-386470I-1722J-5D01*
G03Y-386730I147J-130D01*
G02X273220Y-387850I-1312J-1115D01*
G02X271500Y-389570I-1720J0D01*
G02X270380Y-389160I-5J1722D01*
G03X270120I-130J-147D01*
G02X269000Y-389570I-1115J1312D01*
G02X267880Y-389160I-5J1722D01*
G03X267620I-130J-147D01*
G02X266500Y-389570I-1115J1312D01*
G02X265380Y-389160I-5J1722D01*
G03X265120I-130J-147D01*
G02X264000Y-389570I-1115J1312D01*
G02X262880Y-389160I-5J1722D01*
G03X262620I-130J-147D01*
G02X261500Y-389570I-1115J1312D01*
G02X260380Y-389160I-5J1722D01*
G03X260120I-130J-147D01*
G02X259000Y-389570I-1115J1312D01*
G02X257280Y-387850I0J1720D01*
G02X257690Y-386730I1722J5D01*
G03Y-386470I-147J130D01*
G02X257280Y-385350I1312J1115D01*
G02X257690Y-384230I1722J5D01*
G03Y-383970I-147J130D01*
G02X257280Y-382850I1312J1115D01*
G02X259000Y-381130I1720J0D01*
G02X260120Y-381540I5J-1722D01*
G03X260380I130J147D01*
G02X261500Y-381130I1115J-1312D01*
G02X262620Y-381540I5J-1722D01*
G03X262880I130J147D01*
G02X264000Y-381130I1115J-1312D01*
G02X265120Y-381540I5J-1722D01*
G03X265380I130J147D01*
G02X266500Y-381130I1115J-1312D01*
G02X267620Y-381540I5J-1722D01*
G37*
G36*
G01X-40910Y-366660D02*
Y-339260D01*
X-41050Y-339220D01*
G02X-43520Y-335860I1050J3360D01*
G02X-36480I3520J0D01*
G02X-38950Y-339220I-3520J0D01*
G01X-39090Y-339260D01*
Y-367040D01*
G02X-39360Y-367680I-908J6D01*
G01X-44170Y-372490D01*
G02X-44810Y-372760I-646J638D01*
G01X-138670D01*
X-146690Y-380780D01*
Y-404900D01*
G02X-146960Y-405540I-908J6D01*
G01X-151100Y-409680D01*
G02X-151740Y-409950I-646J638D01*
G01X-182190D01*
G02X-183650Y-410760I-1460J911D01*
G02Y-407320I0J1720D01*
G02X-182190Y-408130I0J-1721D01*
G01X-152120D01*
X-148510Y-404520D01*
Y-380400D01*
G02X-148240Y-379760I908J-6D01*
G01X-139690Y-371210D01*
G02X-139050Y-370940I646J-638D01*
G01X-45190D01*
X-40910Y-366660D01*
G37*
G36*
G01X291370Y-321390D02*
G03X291630I130J147D01*
G02X292750Y-320980I1115J-1312D01*
G02X293870Y-321390I5J-1722D01*
G03X294130I130J147D01*
G02X295250Y-320980I1115J-1312D01*
G02X296970Y-322700I0J-1720D01*
G02X296560Y-323820I-1722J-5D01*
G03Y-324080I147J-130D01*
G02X296970Y-325200I-1312J-1115D01*
G02X296560Y-326320I-1722J-5D01*
G03Y-326580I147J-130D01*
G02X296970Y-327700I-1312J-1115D01*
G02X295250Y-329420I-1720J0D01*
G02X294130Y-329010I-5J1722D01*
G03X293870I-130J-147D01*
G02X292750Y-329420I-1115J1312D01*
G02X291630Y-329010I-5J1722D01*
G03X291370I-130J-147D01*
G02X290250Y-329420I-1115J1312D01*
G02X289130Y-329010I-5J1722D01*
G03X288870I-130J-147D01*
G02X287750Y-329420I-1115J1312D01*
G02X286630Y-329010I-5J1722D01*
G03X286370I-130J-147D01*
G02X285250Y-329420I-1115J1312D01*
G02X284130Y-329010I-5J1722D01*
G03X283870I-130J-147D01*
G02X282750Y-329420I-1115J1312D01*
G02X281030Y-327700I0J1720D01*
G02X281440Y-326580I1722J5D01*
G03Y-326320I-147J130D01*
G02X281030Y-325200I1312J1115D01*
G02X281440Y-324080I1722J5D01*
G03Y-323820I-147J130D01*
G02X281030Y-322700I1312J1115D01*
G02X282750Y-320980I1720J0D01*
G02X283870Y-321390I5J-1722D01*
G03X284130I130J147D01*
G02X285250Y-320980I1115J-1312D01*
G02X286370Y-321390I5J-1722D01*
G03X286630I130J147D01*
G02X287750Y-320980I1115J-1312D01*
G02X288870Y-321390I5J-1722D01*
G03X289130I130J147D01*
G02X290250Y-320980I1115J-1312D01*
G02X291370Y-321390I5J-1722D01*
G37*
G36*
G01X-219060Y-301490D02*
Y-288510D01*
G02X-219870Y-287050I911J1460D01*
G02X-216430I1720J0D01*
G02X-217240Y-288510I-1721J0D01*
G01Y-301490D01*
G02X-216430Y-302950I-911J-1460D01*
G02X-219870I-1720J0D01*
G02X-219060Y-301490I1721J0D01*
G37*
G36*
G01X337270Y-247710D02*
G03Y-247450I-151J130D01*
G02X336830Y-246300I1283J1150D01*
G02X340270I1720J0D01*
G02X339830Y-247450I-1723J0D01*
G03Y-247710I151J-130D01*
G02X340270Y-248860I-1283J-1150D01*
G02X336830I-1720J0D01*
G02X337270Y-247710I1723J0D01*
G37*
G36*
G01X370320D02*
G03Y-247450I-151J130D01*
G02X369880Y-246300I1283J1150D01*
G02X373320I1720J0D01*
G02X372880Y-247450I-1723J0D01*
G03Y-247710I151J-130D01*
G02X373320Y-248860I-1283J-1150D01*
G02X369880I-1720J0D01*
G02X370320Y-247710I1723J0D01*
G37*
G36*
G01X397310Y-40360D02*
G02X395850Y-41170I-1460J911D01*
G02Y-37730I0J1720D01*
G02X397310Y-38540I0J-1721D01*
G01X428690D01*
G02X430150Y-37730I1460J-911D01*
G02Y-41170I0J-1720D01*
G02X428690Y-40360I0J1721D01*
G01X397310D01*
G37*
G36*
G01X-422380Y-24350D02*
G03Y-24080I-146J135D01*
G02X-422810Y-22940I1296J1140D01*
G02X-419370I1720J0D01*
G02X-419810Y-24090I-1723J0D01*
G03Y-24360I146J-135D01*
G02X-419380Y-25500I-1296J-1140D01*
G02X-422820I-1720J0D01*
G02X-422380Y-24350I1723J0D01*
G37*
G36*
G01X-400330D02*
G03Y-24080I-146J135D01*
G02X-400760Y-22940I1296J1140D01*
G02X-397320I1720J0D01*
G02X-397760Y-24090I-1723J0D01*
G03Y-24360I146J-135D01*
G02X-397330Y-25500I-1296J-1140D01*
G02X-400770I-1720J0D01*
G02X-400330Y-24350I1723J0D01*
G37*
G36*
G01X-440940Y26840D02*
G02X-442400Y26030I-1460J911D01*
G02Y29470I0J1720D01*
G02X-440940Y28660I0J-1721D01*
G01X-406660D01*
G02X-405200Y29470I1460J-911D01*
G02Y26030I0J-1720D01*
G02X-406660Y26840I0J1721D01*
G01X-440940D01*
G37*
G36*
G01X399310Y142190D02*
G02X397850Y141380I-1460J911D01*
G02Y144820I0J1720D01*
G02X399310Y144010I0J-1721D01*
G01X435490D01*
G02X436950Y144820I1460J-911D01*
G02Y141380I0J-1720D01*
G02X435490Y142190I0J1721D01*
G01X399310D01*
G37*
G36*
G01X-78520Y291730D02*
G02X-77980Y291910I540J-720D01*
G01X-61460D01*
G02X-58540I1460J-911D01*
G01X77990D01*
G02X78530Y291730I0J-900D01*
G01X78540Y291720D01*
X92730Y283530D01*
X92820Y283570D01*
G02X93540Y283730I724J-1559D01*
G02X95250Y282170I0J-1717D01*
G01X95260Y282070D01*
X206760Y217700D01*
G02X206940Y217550I-487J-767D01*
G01X217100Y207390D01*
X217140Y207380D01*
G02X217550Y207010I-378J-831D01*
G01X222070Y199180D01*
X222170Y199170D01*
G02X223730Y197460I-157J-1710D01*
G02X223570Y196740I-1719J4D01*
G01X223530Y196650D01*
X291790Y78420D01*
G02X291910Y77960I-792J-452D01*
G01Y61460D01*
G02Y58540I-911J-1460D01*
G01Y-78500D01*
G02X291640Y-79140I-908J6D01*
G01X291010Y-79780D01*
X283530Y-92730D01*
X283570Y-92820D01*
G02X283730Y-93540I-1559J-724D01*
G02X280290I-1720J0D01*
G02X281850Y-91830I1717J0D01*
G01X281950Y-91820D01*
X289490Y-78760D01*
G02X289640Y-78580I767J-487D01*
G01X290090Y-78120D01*
Y58540D01*
G02Y61460I911J1460D01*
G01Y77720D01*
X221950Y195740D01*
X221850Y195750D01*
G02X220290Y197460I157J1710D01*
G02X220450Y198180I1719J-4D01*
G01X220490Y198270D01*
X216140Y205800D01*
X216110Y205820D01*
G02X216020Y205910I595J685D01*
G01X205740Y216180D01*
X94350Y280490D01*
X94260Y280450D01*
G02X93540Y280290I-724J1559D01*
G02X91830Y281850I0J1717D01*
G01X91820Y281950D01*
X77730Y290090D01*
X-58540D01*
G02X-61460I-1460J911D01*
G01X-77720D01*
X-195740Y221950D01*
X-195750Y221850D01*
G02X-197460Y220290I-1710J157D01*
G02X-198180Y220450I4J1719D01*
G01X-198270Y220490D01*
X-205990Y216030D01*
X-216070Y205960D01*
X-216080Y205920D01*
G02X-216120Y205840I-835J368D01*
G01X-280490Y94350D01*
X-280450Y94260D01*
G02X-280290Y93540I-1559J-724D01*
G02X-281850Y91830I-1717J0D01*
G01X-281950Y91820D01*
X-290090Y77720D01*
Y-58540D01*
G02Y-61460I-911J-1460D01*
G01Y-77720D01*
X-221950Y-195740D01*
X-221850Y-195750D01*
G02X-220290Y-197460I-157J-1710D01*
G02X-220450Y-198180I-1719J4D01*
G01X-220490Y-198270D01*
X-216030Y-205990D01*
X-205960Y-216070D01*
X-205920Y-216080D01*
G02X-205840Y-216120I-368J-835D01*
G01X-94350Y-280490D01*
X-94260Y-280450D01*
G02X-93540Y-280290I724J-1559D01*
G02X-91830Y-281850I0J-1717D01*
G01X-91820Y-281950D01*
X-77730Y-290090D01*
X58540D01*
G02X61460I1460J-911D01*
G01X61850D01*
X61880Y-290080D01*
G02X62150Y-290040I267J-870D01*
G01X77800D01*
X195740Y-221950D01*
X195750Y-221850D01*
G02X197460Y-220290I1710J-157D01*
G02Y-223730I0J-1720D01*
G02X196740Y-223570I4J1719D01*
G01X196650Y-223530D01*
X78610Y-291670D01*
X78600Y-291680D01*
G02X78060Y-291860I-540J720D01*
G01X62400D01*
X62370Y-291870D01*
G02X62100Y-291910I-267J870D01*
G01X61460D01*
G02X58540I-1460J911D01*
G01X-77970D01*
G02X-78430Y-291790I-8J912D01*
G01X-92730Y-283530D01*
X-92820Y-283570D01*
G02X-93540Y-283730I-724J1559D01*
G02X-95250Y-282170I0J1717D01*
G01X-95260Y-282070D01*
X-206570Y-217800D01*
X-206600D01*
G02X-207040Y-217550I211J884D01*
G01X-217400Y-207190D01*
G02X-217550Y-207010I617J667D01*
G01X-222070Y-199180D01*
X-222170Y-199170D01*
G02X-223730Y-197460I157J1710D01*
G02X-223570Y-196740I1719J-4D01*
G01X-223530Y-196650D01*
X-291790Y-78420D01*
G02X-291910Y-77960I792J452D01*
G01Y-61460D01*
G02Y-58540I911J1460D01*
G01Y77960D01*
G02X-291790Y78420I912J8D01*
G01X-283530Y92730D01*
X-283570Y92820D01*
G02X-283730Y93540I1559J724D01*
G02X-282170Y95250I1717J0D01*
G01X-282070Y95260D01*
X-217800Y206570D01*
Y206600D01*
G02X-217550Y207040I884J-211D01*
G01X-207190Y217400D01*
G02X-207010Y217550I667J-617D01*
G01X-199180Y222070D01*
X-199170Y222170D01*
G02X-197460Y223730I1710J-157D01*
G02X-196740Y223570I-4J-1719D01*
G01X-196650Y223530D01*
X-78530Y291720D01*
X-78520Y291730D01*
G37*
G36*
G01X-79770Y296790D02*
G02X-79310Y296910I452J-792D01*
G01X-51460D01*
G02X-48540I1460J-911D01*
G01X79400D01*
G02X80040Y296640I-6J-908D01*
G01X80080Y296610D01*
X103890Y282860D01*
X103980Y282900D01*
G02X104700Y283060I724J-1559D01*
G02X106410Y281500I0J-1717D01*
G01X106420Y281400D01*
X209130Y222100D01*
X209150Y222090D01*
G02X209470Y221880I-327J-847D01*
G01X221830Y209520D01*
G02X221980Y209340I-617J-667D01*
G01X231400Y193020D01*
X231500Y193010D01*
G02X233060Y191300I-157J-1710D01*
G02X232900Y190580I-1719J4D01*
G01X232860Y190490D01*
X296790Y79760D01*
G02X296910Y79300I-792J-452D01*
G01Y51460D01*
G02Y48540I-911J-1460D01*
G01Y-79790D01*
G02X296640Y-80430I-908J6D01*
G01X296070Y-81010D01*
X282860Y-103890D01*
X282900Y-103980D01*
G02X283060Y-104700I-1559J-724D01*
G02X279620I-1720J0D01*
G02X281180Y-102990I1717J0D01*
G01X281280Y-102980D01*
X294550Y-79990D01*
G02X294700Y-79810I767J-487D01*
G01X295090Y-79410D01*
Y48540D01*
G02Y51460I911J1460D01*
G01Y79060D01*
X231280Y189580D01*
X231180Y189590D01*
G02X229620Y191300I157J1710D01*
G02X229780Y192020I1719J-4D01*
G01X229820Y192110D01*
X220460Y208320D01*
X208310Y220470D01*
X105510Y279820D01*
X105420Y279780D01*
G02X104700Y279620I-724J1559D01*
G02X102990Y281180I0J1717D01*
G01X102980Y281280D01*
X79070Y295090D01*
X-48540D01*
G02X-51460I-1460J911D01*
G01X-79070D01*
X-189580Y231280D01*
X-189590Y231180D01*
G02X-191300Y229620I-1710J157D01*
G02X-192020Y229780I4J1719D01*
G01X-192110Y229820D01*
X-208320Y220460D01*
X-220470Y208310D01*
X-279820Y105510D01*
X-279780Y105420D01*
G02X-279620Y104700I-1559J-724D01*
G02X-281180Y102990I-1717J0D01*
G01X-281280Y102980D01*
X-295090Y79070D01*
Y-48540D01*
G02Y-51460I-911J-1460D01*
G01Y-79050D01*
X-231280Y-189580D01*
X-231180Y-189590D01*
G02X-229620Y-191300I-157J-1710D01*
G02X-229780Y-192020I-1719J4D01*
G01X-229820Y-192110D01*
X-220460Y-208320D01*
X-208310Y-220470D01*
X-105510Y-279820D01*
X-105420Y-279780D01*
G02X-104700Y-279620I724J-1559D01*
G02X-102990Y-281180I0J-1717D01*
G01X-102980Y-281280D01*
X-79350Y-294920D01*
G02X-79140Y-295090I-463J-786D01*
G01X48540D01*
G02X51460I1460J-911D01*
G01X52100D01*
G02X52370Y-295130I3J-910D01*
G01X52400Y-295140D01*
X78970D01*
X189580Y-231280D01*
X189590Y-231180D01*
G02X191300Y-229620I1710J-157D01*
G02Y-233060I0J-1720D01*
G02X190580Y-232900I4J1719D01*
G01X190490Y-232860D01*
X79670Y-296840D01*
G02X79210Y-296960I-452J792D01*
G01X52150D01*
G02X51880Y-296920I-3J910D01*
G01X51850Y-296910D01*
X51460D01*
G02X48540I-1460J911D01*
G01X-79520D01*
G02X-80160Y-296640I6J908D01*
G01X-80370Y-296440D01*
X-103890Y-282860D01*
X-103980Y-282900D01*
G02X-104700Y-283060I-724J1559D01*
G02X-106410Y-281500I0J1717D01*
G01X-106420Y-281400D01*
X-209130Y-222100D01*
X-209150Y-222090D01*
G02X-209470Y-221880I327J847D01*
G01X-221830Y-209520D01*
G02X-221980Y-209340I617J667D01*
G01X-231400Y-193020D01*
X-231500Y-193010D01*
G02X-233060Y-191300I157J1710D01*
G02X-232900Y-190580I1719J-4D01*
G01X-232860Y-190490D01*
X-296710Y-79890D01*
X-296720Y-79880D01*
G02X-296910Y-79320I730J560D01*
G01Y-51460D01*
G02Y-48540I911J1460D01*
G01Y79310D01*
G02X-296790Y79770I912J8D01*
G01X-282860Y103890D01*
X-282900Y103980D01*
G02X-283060Y104700I1559J724D01*
G02X-281500Y106410I1717J0D01*
G01X-281400Y106420D01*
X-222100Y209130D01*
X-222090Y209150D01*
G02X-221880Y209470I847J-327D01*
G01X-209520Y221830D01*
G02X-209340Y221980I667J-617D01*
G01X-193020Y231400D01*
X-193010Y231500D01*
G02X-191300Y233060I1710J-157D01*
G02X-190580Y232900I-4J-1719D01*
G01X-190490Y232860D01*
X-79770Y296790D01*
G37*
G36*
G01X-42400Y301860D02*
G02X-42100Y301910I298J-860D01*
G01X-41460D01*
G02X-38540I1460J-911D01*
G01X80810D01*
G02X81450Y301640I-6J-908D01*
G01X81590Y301510D01*
X115050Y282190D01*
X115140Y282230D01*
G02X115860Y282390I724J-1559D01*
G02X117570Y280830I0J-1717D01*
G01X117580Y280730D01*
X211570Y226460D01*
X211610D01*
G02X212090Y226200I-173J-893D01*
G01X226010Y212280D01*
G02X226160Y212100I-617J-667D01*
G01X240730Y186860D01*
X240830Y186850D01*
G02X242390Y185140I-157J-1710D01*
G02X242230Y184420I-1719J4D01*
G01X242190Y184330D01*
X301790Y81100D01*
G02X301910Y80640I-792J-452D01*
G01Y41460D01*
G02Y38540I-911J-1460D01*
G01Y-80700D01*
G02X301670Y-81310I-908J5D01*
G01X301660Y-81330D01*
X282190Y-115050D01*
X282230Y-115140D01*
G02X282390Y-115860I-1559J-724D01*
G02X278950I-1720J0D01*
G02X280510Y-114150I1717J0D01*
G01X280610Y-114140D01*
X300090Y-80400D01*
Y38540D01*
G02Y41460I911J1460D01*
G01Y80400D01*
X240610Y183420D01*
X240510Y183430D01*
G02X238950Y185140I157J1710D01*
G02X239110Y185860I1719J-4D01*
G01X239150Y185950D01*
X224640Y211080D01*
X211030Y224690D01*
X210990Y224700D01*
G02X210790Y224800I305J861D01*
G01X210730Y224850D01*
X116670Y279150D01*
X116580Y279110D01*
G02X115860Y278950I-724J1559D01*
G02X114150Y280510I0J1717D01*
G01X114140Y280610D01*
X80570Y299990D01*
G02X80440Y300090I488J769D01*
G01X-38540D01*
G02X-41460I-1460J911D01*
G01X-41830D01*
X-41860Y300080D01*
G02X-42160Y300030I-298J860D01*
G01X-80500D01*
X-183420Y240610D01*
X-183430Y240510D01*
G02X-185140Y238950I-1710J157D01*
G02X-185860Y239110I4J1719D01*
G01X-185950Y239150D01*
X-211080Y224640D01*
X-224740Y210990D01*
X-224750Y210940D01*
G02X-224830Y210750I-876J257D01*
G01X-279150Y116670D01*
X-279110Y116580D01*
G02X-278950Y115860I-1559J-724D01*
G02X-280510Y114150I-1717J0D01*
G01X-280610Y114140D01*
X-300090Y80400D01*
Y-38540D01*
G02Y-41460I-911J-1460D01*
G01Y-41820D01*
X-300080Y-41850D01*
G02X-300020Y-42170I-849J-325D01*
G01Y-80520D01*
X-240610Y-183420D01*
X-240510Y-183430D01*
G02X-238950Y-185140I-157J-1710D01*
G02X-239110Y-185860I-1719J4D01*
G01X-239150Y-185950D01*
X-224640Y-211080D01*
X-210990Y-224740D01*
X-210940Y-224750D01*
G02X-210750Y-224830I-257J-876D01*
G01X-116670Y-279150D01*
X-116580Y-279110D01*
G02X-115860Y-278950I724J-1559D01*
G02X-114150Y-280510I0J-1717D01*
G01X-114140Y-280610D01*
X-80400Y-300090D01*
X38540D01*
G02X41460I1460J-911D01*
G01X80400D01*
X183420Y-240610D01*
X183430Y-240510D01*
G02X185140Y-238950I1710J-157D01*
G02Y-242390I0J-1720D01*
G02X184420Y-242230I4J1719D01*
G01X184330Y-242190D01*
X81210Y-301720D01*
X81200Y-301730D01*
G02X80660Y-301910I-540J720D01*
G01X41460D01*
G02X38540I-1460J911D01*
G01X-80640D01*
G02X-81100Y-301790I-8J912D01*
G01X-115050Y-282190D01*
X-115140Y-282230D01*
G02X-115860Y-282390I-724J1559D01*
G02X-117570Y-280830I0J1717D01*
G01X-117580Y-280730D01*
X-211460Y-226530D01*
X-211500Y-226520D01*
G02X-212030Y-226260I113J900D01*
G01X-226010Y-212280D01*
G02X-226160Y-212100I617J667D01*
G01X-240730Y-186860D01*
X-240830Y-186850D01*
G02X-242390Y-185140I157J1710D01*
G02X-242230Y-184420I1719J-4D01*
G01X-242190Y-184330D01*
X-301650Y-81330D01*
X-301660Y-81320D01*
G02X-301840Y-80780I720J540D01*
G01Y-42450D01*
X-301850Y-42420D01*
G02X-301910Y-42100I849J325D01*
G01Y-41460D01*
G02Y-38540I911J1460D01*
G01Y80660D01*
G02X-301730Y81200I900J0D01*
G01X-301720Y81210D01*
X-282190Y115050D01*
X-282230Y115140D01*
G02X-282390Y115860I1559J724D01*
G02X-280830Y117570I1717J0D01*
G01X-280730Y117580D01*
X-226530Y211460D01*
X-226520Y211500D01*
G02X-226260Y212030I900J-113D01*
G01X-212280Y226010D01*
G02X-212100Y226160I667J-617D01*
G01X-186860Y240730D01*
X-186850Y240830D01*
G02X-185140Y242390I1710J-157D01*
G02X-184420Y242230I-4J-1719D01*
G01X-184330Y242190D01*
X-81310Y301660D01*
X-81300Y301670D01*
G02X-80760Y301850I540J-720D01*
G01X-42430D01*
X-42400Y301860D01*
G37*
G36*
G01X-82540Y306730D02*
G02X-82000Y306910I540J-720D01*
G01X-31460D01*
G02X-28540I1460J-911D01*
G01X82000D01*
G02X82540Y306730I0J-900D01*
G01X82550Y306720D01*
X126210Y281520D01*
X126300Y281560D01*
G02X127020Y281720I724J-1559D01*
G02X128730Y280160I0J-1717D01*
G01X128740Y280060D01*
X214130Y230760D01*
X214150Y230750D01*
G02X214470Y230540I-327J-847D01*
G01X230490Y214520D01*
G02X230640Y214340I-617J-667D01*
G01X250060Y180700D01*
X250160Y180690D01*
G02X251720Y178980I-157J-1710D01*
G02X251560Y178260I-1719J4D01*
G01X251520Y178170D01*
X306790Y82360D01*
G02X306910Y81910I-784J-450D01*
G01Y31460D01*
G02Y28540I-911J-1460D01*
G01Y-82600D01*
G02X306640Y-83240I-908J6D01*
G01X305890Y-84000D01*
X281520Y-126210D01*
X281560Y-126300D01*
G02X281720Y-127020I-1559J-724D01*
G02X278280I-1720J0D01*
G02X279840Y-125310I1717J0D01*
G01X279940Y-125300D01*
X304370Y-82980D01*
G02X304520Y-82800I767J-487D01*
G01X305090Y-82220D01*
Y28540D01*
G02Y31460I911J1460D01*
G01Y81670D01*
X249940Y177260D01*
X249840Y177270D01*
G02X248280Y178980I157J1710D01*
G02X248440Y179700I1719J-4D01*
G01X248480Y179790D01*
X229120Y213320D01*
X213310Y229130D01*
X127830Y278480D01*
X127740Y278440D01*
G02X127020Y278280I-724J1559D01*
G02X125310Y279840I0J1717D01*
G01X125300Y279940D01*
X81740Y305090D01*
X-28540D01*
G02X-31460I-1460J911D01*
G01X-81740D01*
X-177260Y249940D01*
X-177270Y249840D01*
G02X-178980Y248280I-1710J157D01*
G02X-179700Y248440I4J1719D01*
G01X-179790Y248480D01*
X-213320Y229120D01*
X-229130Y213310D01*
X-278480Y127830D01*
X-278440Y127740D01*
G02X-278280Y127020I-1559J-724D01*
G02X-279840Y125310I-1717J0D01*
G01X-279940Y125300D01*
X-305090Y81740D01*
Y-28540D01*
G02Y-31460I-911J-1460D01*
G01Y-81730D01*
X-249940Y-177260D01*
X-249840Y-177270D01*
G02X-248280Y-178980I-157J-1710D01*
G02X-248440Y-179700I-1719J4D01*
G01X-248480Y-179790D01*
X-229120Y-213320D01*
X-213310Y-229130D01*
X-127830Y-278480D01*
X-127740Y-278440D01*
G02X-127020Y-278280I724J-1559D01*
G02X-125310Y-279840I0J-1717D01*
G01X-125300Y-279940D01*
X-81760Y-305090D01*
X28540D01*
G02X31460I1460J-911D01*
G01X81730D01*
X177260Y-249940D01*
X177270Y-249840D01*
G02X178980Y-248280I1710J-157D01*
G02Y-251720I0J-1720D01*
G02X178260Y-251560I4J1719D01*
G01X178170Y-251520D01*
X82570Y-306710D01*
X82560Y-306720D01*
G02X82000Y-306910I-560J730D01*
G01X31460D01*
G02X28540I-1460J911D01*
G01X-82000D01*
G02X-82460Y-306790I-8J912D01*
G01X-126210Y-281520D01*
X-126300Y-281560D01*
G02X-127020Y-281720I-724J1559D01*
G02X-128730Y-280160I0J1717D01*
G01X-128740Y-280060D01*
X-214130Y-230760D01*
X-214150Y-230750D01*
G02X-214470Y-230540I327J847D01*
G01X-230490Y-214520D01*
G02X-230640Y-214340I617J667D01*
G01X-250060Y-180700D01*
X-250160Y-180690D01*
G02X-251720Y-178980I157J1710D01*
G02X-251560Y-178260I1719J-4D01*
G01X-251520Y-178170D01*
X-306790Y-82430D01*
G02X-306910Y-81970I792J452D01*
G01Y-31460D01*
G02Y-28540I911J1460D01*
G01Y81980D01*
G02X-306790Y82440I912J8D01*
G01X-281520Y126210D01*
X-281560Y126300D01*
G02X-281720Y127020I1559J724D01*
G02X-280160Y128730I1717J0D01*
G01X-280060Y128740D01*
X-230760Y214130D01*
X-230750Y214150D01*
G02X-230540Y214470I847J-327D01*
G01X-214520Y230490D01*
G02X-214340Y230640I667J-617D01*
G01X-180700Y250060D01*
X-180690Y250160D01*
G02X-178980Y251720I1710J-157D01*
G02X-178260Y251560I-4J-1719D01*
G01X-178170Y251520D01*
X-82550Y306720D01*
X-82540Y306730D01*
G37*
G36*
G01X-220030Y274610D02*
X-184790Y309840D01*
G02X-184150Y310110I646J-638D01*
G01X-145290D01*
G02X-144650Y309840I-6J-908D01*
G01X-143710Y308910D01*
G02X-141950Y309380I1760J-3060D01*
G02X-145470Y305860I0J-3520D01*
G02X-145000Y307620I3530J0D01*
G01X-145670Y308290D01*
X-183770D01*
X-219010Y273060D01*
G02X-219650Y272790I-646J638D01*
G01X-327740D01*
G02X-329200Y271980I-1460J911D01*
G02Y275420I0J1720D01*
G02X-327740Y274610I0J-1721D01*
G01X-220030D01*
G37*
G36*
G01X-83880Y311730D02*
G02X-83340Y311910I540J-720D01*
G01X-21460D01*
G02X-18540I1460J-911D01*
G01X83320D01*
G02X83780Y311790I8J-912D01*
G01X137370Y280850D01*
X137460Y280890D01*
G02X138180Y281050I724J-1559D01*
G02X139890Y279490I0J-1717D01*
G01X139900Y279390D01*
X216760Y235020D01*
G02X216940Y234870I-487J-767D01*
G01X234920Y216890D01*
G02X235140Y216550I-634J-651D01*
G01X235150Y216530D01*
X259390Y174540D01*
X259490Y174530D01*
G02X261050Y172820I-157J-1710D01*
G02X260890Y172100I-1719J4D01*
G01X260850Y172010D01*
X311970Y83450D01*
X311980Y83440D01*
G02X312160Y82900I-720J-540D01*
G01Y22350D01*
G02X311960Y21770I-913J-10D01*
G01X311910Y21720D01*
Y21460D01*
X311990Y21400D01*
G02X312720Y20000I-977J-1400D01*
G02X311910Y18540I-1721J0D01*
G01Y-83400D01*
G02X311650Y-84040I-918J0D01*
G01X311630Y-84060D01*
X280850Y-137370D01*
X280890Y-137460D01*
G02X281050Y-138180I-1559J-724D01*
G02X277610I-1720J0D01*
G02X279170Y-136470I1717J0D01*
G01X279270Y-136460D01*
X310090Y-83080D01*
Y18540D01*
G02Y21460I911J1460D01*
G01Y22100D01*
G02X310340Y22730I919J0D01*
G01Y82640D01*
X259270Y171100D01*
X259170Y171110D01*
G02X257610Y172820I157J1710D01*
G02X257770Y173540I1719J-4D01*
G01X257810Y173630D01*
X233500Y215750D01*
X215740Y233500D01*
X138990Y277810D01*
X138900Y277770D01*
G02X138180Y277610I-724J1559D01*
G02X136470Y279170I0J1717D01*
G01X136460Y279270D01*
X83080Y310090D01*
X-18540D01*
G02X-21460I-1460J911D01*
G01X-83080D01*
X-171100Y259270D01*
X-171110Y259170D01*
G02X-172820Y257610I-1710J157D01*
G02X-173540Y257770I4J1719D01*
G01X-173630Y257810D01*
X-215750Y233500D01*
X-233500Y215740D01*
X-277810Y138990D01*
X-277770Y138900D01*
G02X-277610Y138180I-1559J-724D01*
G02X-279170Y136470I-1717J0D01*
G01X-279270Y136460D01*
X-310090Y83080D01*
Y-18540D01*
G02Y-21460I-911J-1460D01*
G01Y-83080D01*
X-259270Y-171100D01*
X-259170Y-171110D01*
G02X-257610Y-172820I-157J-1710D01*
G02X-257770Y-173540I-1719J4D01*
G01X-257810Y-173630D01*
X-233550Y-215650D01*
X-215650Y-233560D01*
X-138990Y-277810D01*
X-138900Y-277770D01*
G02X-138180Y-277610I724J-1559D01*
G02X-136470Y-279170I0J-1717D01*
G01X-136460Y-279270D01*
X-83090Y-310090D01*
X18540D01*
G02X21460I1460J-911D01*
G01X83080D01*
X171100Y-259270D01*
X171110Y-259170D01*
G02X172820Y-257610I1710J-157D01*
G02Y-261050I0J-1720D01*
G02X172100Y-260890I4J1719D01*
G01X172010Y-260850D01*
X84090Y-311610D01*
X84050Y-311640D01*
G02X83410Y-311910I-646J638D01*
G01X21460D01*
G02X18540I-1460J911D01*
G01X-83330D01*
G02X-83790Y-311790I-8J912D01*
G01X-137370Y-280850D01*
X-137460Y-280890D01*
G02X-138180Y-281050I-724J1559D01*
G02X-139890Y-279490I0J1717D01*
G01X-139900Y-279390D01*
X-216760Y-235020D01*
G02X-217070Y-234710I470J780D01*
G01X-217080Y-234690D01*
X-234920Y-216850D01*
G02X-235070Y-216670I617J667D01*
G01X-259390Y-174540D01*
X-259490Y-174530D01*
G02X-261050Y-172820I157J1710D01*
G02X-260890Y-172100I1719J-4D01*
G01X-260850Y-172010D01*
X-311790Y-83780D01*
G02X-311910Y-83320I792J452D01*
G01Y-21460D01*
G02Y-18540I911J1460D01*
G01Y83340D01*
G02X-311730Y83880I900J0D01*
G01X-311720Y83890D01*
X-280850Y137370D01*
X-280890Y137460D01*
G02X-281050Y138180I1559J724D01*
G02X-279490Y139890I1717J0D01*
G01X-279390Y139900D01*
X-235020Y216760D01*
G02X-234870Y216940I767J-487D01*
G01X-216890Y234920D01*
G02X-216550Y235140I651J-634D01*
G01X-216530Y235150D01*
X-174540Y259390D01*
X-174530Y259490D01*
G02X-172820Y261050I1710J-157D01*
G02X-172100Y260890I-4J-1719D01*
G01X-172010Y260850D01*
X-83890Y311720D01*
X-83880Y311730D01*
G37*
G36*
G01X-85130Y316790D02*
G02X-84670Y316910I452J-792D01*
G01X-11460D01*
G02X-8540I1460J-911D01*
G01X-7900D01*
G02X-7540Y316840I10J-912D01*
G01X-7500Y316820D01*
X84830D01*
G02X85290Y316700I8J-912D01*
G01X148530Y280180D01*
X148620Y280220D01*
G02X149340Y280380I724J-1559D01*
G02X151050Y278820I0J-1717D01*
G01X151060Y278720D01*
X219080Y239440D01*
X219110D01*
G02X219550Y239190I-211J-884D01*
G01X239050Y219690D01*
G02X239200Y219510I-617J-667D01*
G01X268720Y168380D01*
X268820Y168370D01*
G02X270380Y166660I-157J-1710D01*
G02X270220Y165940I-1719J4D01*
G01X270180Y165850D01*
X316800Y85100D01*
X316810Y85090D01*
G02X317000Y84530I-730J-560D01*
G01Y12190D01*
G02X316930Y11830I-912J-10D01*
G01X316910Y11790D01*
Y11460D01*
G02Y8540I-911J-1460D01*
G01Y-85500D01*
G02X316640Y-86140I-908J6D01*
G01X315600Y-87190D01*
X280180Y-148530D01*
X280220Y-148620D01*
G02X280380Y-149340I-1559J-724D01*
G02X276940I-1720J0D01*
G02X278500Y-147630I1717J0D01*
G01X278600Y-147620D01*
X314080Y-86170D01*
G02X314230Y-85990I767J-487D01*
G01X315090Y-85120D01*
Y8540D01*
G02Y11460I911J1460D01*
G01Y12100D01*
G02X315160Y12460I912J10D01*
G01X315180Y12500D01*
Y84260D01*
X268600Y164940D01*
X268500Y164950D01*
G02X266940Y166660I157J1710D01*
G02X267100Y167380I1719J-4D01*
G01X267140Y167470D01*
X237680Y218490D01*
X218470Y237700D01*
X218440Y237710D01*
G02X218330Y237770I381J828D01*
G01X218150Y237880D01*
X150150Y277140D01*
X150060Y277100D01*
G02X149340Y276940I-724J1559D01*
G02X147630Y278500I0J1717D01*
G01X147620Y278600D01*
X84590Y315000D01*
X-7810D01*
G02X-8170Y315070I-10J912D01*
G01X-8210Y315090D01*
X-8540D01*
G02X-11460I-1460J911D01*
G01X-84430D01*
X-164940Y268600D01*
X-164950Y268500D01*
G02X-166660Y266940I-1710J157D01*
G02X-167380Y267100I4J1719D01*
G01X-167470Y267140D01*
X-218490Y237680D01*
X-237780Y218400D01*
X-237790Y218350D01*
G02X-237870Y218160I-876J257D01*
G01X-277140Y150150D01*
X-277100Y150060D01*
G02X-276940Y149340I-1559J-724D01*
G02X-278500Y147630I-1717J0D01*
G01X-278600Y147620D01*
X-315090Y84450D01*
Y-8540D01*
G02Y-11460I-911J-1460D01*
G01Y-12100D01*
G02X-315140Y-12400I-910J-2D01*
G01X-315150Y-12430D01*
Y-84320D01*
X-268600Y-164940D01*
X-268500Y-164950D01*
G02X-266940Y-166660I-157J-1710D01*
G02X-267100Y-167380I-1719J4D01*
G01X-267140Y-167470D01*
X-237680Y-218490D01*
X-218400Y-237780D01*
X-218350Y-237790D01*
G02X-218160Y-237870I-257J-876D01*
G01X-150150Y-277140D01*
X-150060Y-277100D01*
G02X-149340Y-276940I724J-1559D01*
G02X-147630Y-278500I0J-1717D01*
G01X-147620Y-278600D01*
X-84430Y-315090D01*
X8540D01*
G02X11460I1460J-911D01*
G01X84430D01*
X164940Y-268600D01*
X164950Y-268500D01*
G02X166660Y-266940I1710J-157D01*
G02Y-270380I0J-1720D01*
G02X165940Y-270220I4J1719D01*
G01X165850Y-270180D01*
X85130Y-316790D01*
G02X84670Y-316910I-452J792D01*
G01X11460D01*
G02X8540I-1460J911D01*
G01X-84670D01*
G02X-85130Y-316790I-8J912D01*
G01X-148530Y-280180D01*
X-148620Y-280220D01*
G02X-149340Y-280380I-724J1559D01*
G02X-151050Y-278820I0J1717D01*
G01X-151060Y-278720D01*
X-218870Y-239570D01*
X-218910Y-239560D01*
G02X-219440Y-239300I113J900D01*
G01X-239050Y-219690D01*
G02X-239200Y-219510I617J667D01*
G01X-268720Y-168380D01*
X-268820Y-168370D01*
G02X-270380Y-166660I157J1710D01*
G02X-270220Y-165940I1719J-4D01*
G01X-270180Y-165850D01*
X-316780Y-85130D01*
X-316790Y-85120D01*
G02X-316970Y-84580I720J540D01*
G01Y-12160D01*
G02X-316920Y-11860I910J2D01*
G01X-316910Y-11830D01*
Y-11460D01*
G02Y-8540I911J1460D01*
G01Y84690D01*
G02X-316790Y85150I912J8D01*
G01X-280180Y148530D01*
X-280220Y148620D01*
G02X-280380Y149340I1559J724D01*
G02X-278820Y151050I1717J0D01*
G01X-278720Y151060D01*
X-239570Y218870D01*
X-239560Y218910D01*
G02X-239300Y219440I900J-113D01*
G01X-219690Y239050D01*
G02X-219510Y239200I667J-617D01*
G01X-168380Y268720D01*
X-168370Y268820D01*
G02X-166660Y270380I1710J-157D01*
G02X-165940Y270220I-4J-1719D01*
G01X-165850Y270180D01*
X-85130Y316790D01*
G37*
G36*
G01X-86840Y321640D02*
G02X-86200Y321910I646J-638D01*
G01X-1460D01*
G02X1460I1460J-911D01*
G01X86020D01*
G02X86560Y321730I0J-900D01*
G01X86570Y321720D01*
X159690Y279510D01*
X159780Y279550D01*
G02X160500Y279710I724J-1559D01*
G02X162210Y278140I0J-1716D01*
G01X162220Y278040D01*
X221660Y243720D01*
X221700D01*
G02X222270Y243450I-80J-906D01*
G01X243180Y222540D01*
G02X243330Y222360I-617J-667D01*
G01X278050Y162220D01*
X278150Y162210D01*
G02X279710Y160500I-157J-1710D01*
G02X279550Y159780I-1719J4D01*
G01X279510Y159690D01*
X321870Y86330D01*
G02X321990Y85870I-792J-452D01*
G01Y2180D01*
G02X321920Y1840I-908J10D01*
G01X321910Y1800D01*
Y1460D01*
G02Y-1460I-911J-1460D01*
G01Y-86600D01*
G02X321640Y-87240I-908J6D01*
G01X320920Y-87970D01*
X279510Y-159690D01*
X279550Y-159780D01*
G02X279710Y-160500I-1559J-724D01*
G02X276270I-1720J0D01*
G02X277830Y-158790I1717J0D01*
G01X277930Y-158780D01*
X319400Y-86950D01*
G02X319550Y-86770I767J-487D01*
G01X320090Y-86220D01*
Y-1460D01*
G02Y1460I911J1460D01*
G01Y2100D01*
G02X320160Y2440I908J-10D01*
G01X320170Y2480D01*
Y85630D01*
X277930Y158780D01*
X277830Y158790D01*
G02X276270Y160500I157J1710D01*
G02X276430Y161220I1719J-4D01*
G01X276470Y161310D01*
X241810Y221340D01*
X221240Y241910D01*
X221190Y241930D01*
G02X220930Y242030I192J887D01*
G01X220710Y242170D01*
X161300Y276470D01*
X161210Y276420D01*
G02X160500Y276270I-703J1572D01*
G02X158790Y277830I0J1717D01*
G01X158780Y277930D01*
X85760Y320090D01*
X1460D01*
G02X-1460I-1460J911D01*
G01X-85820D01*
G02X-86000Y319950I-646J644D01*
G01X-158780Y277930D01*
X-158790Y277830D01*
G02X-160500Y276270I-1710J157D01*
G02X-161220Y276430I4J1719D01*
G01X-161310Y276470D01*
X-221340Y241810D01*
X-242080Y221070D01*
X-242090Y221010D01*
G02X-242200Y220660I-906J92D01*
G01X-276470Y161310D01*
X-276430Y161220D01*
G02X-276270Y160500I-1559J-724D01*
G02X-277830Y158790I-1717J0D01*
G01X-277930Y158780D01*
X-320090Y85770D01*
Y1460D01*
G02Y-1460I-911J-1460D01*
G01Y-85760D01*
X-277930Y-158780D01*
X-277830Y-158790D01*
G02X-276270Y-160500I-157J-1710D01*
G02X-276430Y-161220I-1719J4D01*
G01X-276470Y-161310D01*
X-241810Y-221340D01*
X-221070Y-242080D01*
X-221010Y-242090D01*
G02X-220660Y-242200I-92J-906D01*
G01X-161310Y-276470D01*
X-161220Y-276430D01*
G02X-160500Y-276270I724J-1559D01*
G02X-158790Y-277830I0J-1717D01*
G01X-158780Y-277930D01*
X-85770Y-320090D01*
X-1460D01*
G02X1460I1460J-911D01*
G01X85820D01*
G02X86000Y-319950I646J-644D01*
G01X158780Y-277930D01*
X158790Y-277830D01*
G02X160500Y-276270I1710J-157D01*
G02Y-279710I0J-1720D01*
G02X159780Y-279550I4J1719D01*
G01X159690Y-279510D01*
X87020Y-321470D01*
X86840Y-321640D01*
G02X86200Y-321910I-646J638D01*
G01X1460D01*
G02X-1460I-1460J911D01*
G01X-86010D01*
G02X-86470Y-321790I-8J912D01*
G01X-159690Y-279510D01*
X-159780Y-279550D01*
G02X-160500Y-279710I-724J1559D01*
G02X-162210Y-278150I0J1717D01*
G01X-162220Y-278050D01*
X-221360Y-243900D01*
X-221450D01*
G02X-222090Y-243630I6J908D01*
G01X-243180Y-222540D01*
G02X-243330Y-222360I617J667D01*
G01X-278050Y-162220D01*
X-278150Y-162210D01*
G02X-279710Y-160500I157J1710D01*
G02X-279550Y-159780I1719J-4D01*
G01X-279510Y-159690D01*
X-321720Y-86570D01*
X-321730Y-86560D01*
G02X-321910Y-86020I720J540D01*
G01Y-1460D01*
G02Y1460I911J1460D01*
G01Y86010D01*
G02X-321790Y86470I912J8D01*
G01X-279510Y159690D01*
X-279550Y159780D01*
G02X-279710Y160500I1559J724D01*
G02X-278150Y162210I1717J0D01*
G01X-278050Y162220D01*
X-243900Y221360D01*
Y221450D01*
G02X-243630Y222090I908J-6D01*
G01X-222540Y243180D01*
G02X-222360Y243330I667J-617D01*
G01X-162220Y278050D01*
X-162210Y278150D01*
G02X-160500Y279710I1710J-157D01*
G02X-159780Y279550I-4J-1719D01*
G01X-159690Y279510D01*
X-87020Y321470D01*
X-86840Y321640D01*
G37*
G36*
G01X-87350Y-326910D02*
G02X-87800Y-326790I0J904D01*
G01X-93970Y-323240D01*
X-170850Y-278840D01*
X-170940Y-278880D01*
G02X-171660Y-279040I-724J1559D01*
G02X-173370Y-277480I0J1717D01*
G01X-173380Y-277380D01*
X-223890Y-248220D01*
X-223920Y-248210D01*
G02X-224370Y-247960I198J887D01*
G01X-247810Y-224520D01*
G02X-247960Y-224340I617J667D01*
G01X-287380Y-156060D01*
X-287480Y-156050D01*
G02X-289040Y-154340I157J1710D01*
G02X-288880Y-153620I1719J-4D01*
G01X-288840Y-153530D01*
X-326790Y-87810D01*
G02X-326910Y-87350I792J452D01*
G01Y8540D01*
G02Y11460I911J1460D01*
G01Y87360D01*
G02X-326730Y87900I900J0D01*
G01X-326720Y87910D01*
X-278840Y170850D01*
X-278880Y170940D01*
G02X-279040Y171660I1559J724D01*
G02X-277480Y173370I1717J0D01*
G01X-277380Y173380D01*
X-248110Y224080D01*
G02X-247960Y224260I767J-487D01*
G01X-224730Y247500D01*
X-224720Y247530D01*
G02X-224340Y247960I839J-359D01*
G01X-156060Y287380D01*
X-156050Y287480D01*
G02X-154340Y289040I1710J-157D01*
G02X-153620Y288880I-4J-1719D01*
G01X-153530Y288840D01*
X-87810Y326790D01*
G02X-87350Y326910I452J-792D01*
G01X8540D01*
G02X11460I1460J-911D01*
G01X87280D01*
G02X87730Y326790I0J-904D01*
G01X170850Y278840D01*
X170940Y278880D01*
G02X171660Y279040I724J-1559D01*
G02X173370Y277480I0J-1717D01*
G01X173380Y277380D01*
X223890Y248220D01*
X223920Y248210D01*
G02X224370Y247960I-198J-887D01*
G01X247810Y224520D01*
G02X247960Y224340I-617J-667D01*
G01X287380Y156060D01*
X287480Y156050D01*
G02X289040Y154340I-157J-1710D01*
G02X288880Y153620I-1719J4D01*
G01X288840Y153530D01*
X326720Y87930D01*
G02X326840Y87470I-792J-452D01*
G01Y-7550D01*
X326850Y-7580D01*
G02X326910Y-7900I-849J-325D01*
G01Y-8540D01*
G02Y-11460I-911J-1460D01*
G01Y-87360D01*
G02X326730Y-87900I-900J0D01*
G01X326720Y-87910D01*
X278840Y-170850D01*
X278880Y-170940D01*
G02X279040Y-171660I-1559J-724D01*
G02X275600I-1720J0D01*
G02X277160Y-169950I1717J0D01*
G01X277260Y-169940D01*
X325090Y-87100D01*
Y-11460D01*
G02Y-8540I911J1460D01*
G01Y-8180D01*
X325080Y-8150D01*
G02X325020Y-7830I849J325D01*
G01Y87230D01*
X287260Y152620D01*
X287160Y152630D01*
G02X285600Y154340I157J1710D01*
G02X285760Y155060I1719J-4D01*
G01X285800Y155150D01*
X246440Y223320D01*
X223290Y246470D01*
X223260Y246480D01*
G02X223160Y246530I357J840D01*
G01X172470Y275800D01*
X172380Y275760D01*
G02X171660Y275600I-724J1559D01*
G02X169950Y277160I0J1717D01*
G01X169940Y277260D01*
X87040Y325090D01*
X11460D01*
G02X8540I-1460J911D01*
G01X-87110D01*
X-152620Y287260D01*
X-152630Y287160D01*
G02X-154340Y285600I-1710J157D01*
G02X-155060Y285760I4J1719D01*
G01X-155150Y285800D01*
X-223120Y246560D01*
X-223140Y246520D01*
G02X-223240Y246420I-690J590D01*
G01X-246590Y223060D01*
X-275800Y172470D01*
X-275760Y172380D01*
G02X-275600Y171660I-1559J-724D01*
G02X-277160Y169950I-1717J0D01*
G01X-277260Y169940D01*
X-325090Y87100D01*
Y11460D01*
G02Y8540I-911J-1460D01*
G01Y-87110D01*
X-287260Y-152620D01*
X-287160Y-152630D01*
G02X-285600Y-154340I-157J-1710D01*
G02X-285760Y-155060I-1719J4D01*
G01X-285800Y-155150D01*
X-246440Y-223320D01*
X-223290Y-246470D01*
X-223260Y-246480D01*
G02X-223160Y-246530I-357J-840D01*
G01X-172470Y-275800D01*
X-172380Y-275760D01*
G02X-171660Y-275600I724J-1559D01*
G02X-169950Y-277160I0J-1717D01*
G01X-169940Y-277260D01*
X-93060Y-321660D01*
X-87110Y-325090D01*
X-11460D01*
G02X-8540I1460J-911D01*
G01X87100D01*
X152620Y-287260D01*
X152630Y-287160D01*
G02X154340Y-285600I1710J-157D01*
G02Y-289040I0J-1720D01*
G02X153620Y-288880I4J1719D01*
G01X153530Y-288840D01*
X87910Y-326720D01*
X87900Y-326730D01*
G02X87360Y-326910I-540J720D01*
G01X-8540D01*
G02X-11460I-1460J911D01*
G01X-87350D01*
G37*
G36*
G01X51760Y338910D02*
X57750Y344890D01*
G02X58390Y345160I646J-638D01*
G01X150100D01*
G02X150740Y344890I-6J-908D01*
G01X159290Y336340D01*
G02X159560Y335700I-638J-646D01*
G01Y319560D01*
G02X160370Y318100I-911J-1460D01*
G02X156930I-1720J0D01*
G02X157740Y319560I1721J0D01*
G01Y335320D01*
X149720Y343340D01*
X58770D01*
X53050Y337620D01*
X53120Y337490D01*
G02X53520Y335860I-3121J-1630D01*
G02X50000Y339380I-3520J0D01*
G02X51630Y338980I0J-3521D01*
G01X51760Y338910D01*
G37*
G36*
G01X285520Y0D02*
G02I-285520J0D01*
G37*
G36*
G01X169090Y-346920D02*
Y-346910D01*
G03X168540Y-346540I-400J-1D01*
G02X168190Y-346610I-350J840D01*
G01X85530D01*
X81960Y-350180D01*
Y-374700D01*
G02X81690Y-375340I-908J6D01*
G01X79490Y-377540D01*
G02X78850Y-377810I-646J638D01*
G01X39380D01*
X37460Y-379730D01*
Y-382880D01*
G02X38270Y-384340I-911J-1460D01*
G02X34830I-1720J0D01*
G02X35640Y-382880I1721J0D01*
G01Y-379350D01*
G02X35910Y-378710I908J-6D01*
G01X38360Y-376260D01*
G02X39000Y-375990I646J-638D01*
G01X78470D01*
X80140Y-374320D01*
Y-349800D01*
G02X80410Y-349160I908J-6D01*
G01X84510Y-345060D01*
G02X85150Y-344790I646J-638D01*
G01X167810D01*
X168890Y-343720D01*
G02X169530Y-343450I646J-638D01*
G01X169750D01*
Y-343160D01*
X169680Y-343100D01*
G02X169410Y-342790I1151J1275D01*
G01X169350Y-342710D01*
X169090D01*
X168150Y-343640D01*
G02X167510Y-343910I-646J638D01*
G01X83630D01*
X79360Y-348180D01*
Y-370550D01*
G02X79090Y-371190I-908J6D01*
G01X75890Y-374390D01*
G02X75250Y-374660I-646J638D01*
G01X35730D01*
X32460Y-377930D01*
Y-382880D01*
G02X33270Y-384340I-911J-1460D01*
G02X29830I-1720J0D01*
G02X30640Y-382880I1721J0D01*
G01Y-377550D01*
G02X30910Y-376910I908J-6D01*
G01X34710Y-373110D01*
G02X35350Y-372840I646J-638D01*
G01X74870D01*
X77540Y-370170D01*
Y-347800D01*
G02X77810Y-347160I908J-6D01*
G01X82610Y-342360D01*
G02X83250Y-342090I646J-638D01*
G01X167130D01*
X168070Y-341160D01*
G02X168710Y-340890I646J-638D01*
G01X169350D01*
G02X169410Y-340790I1506J-836D01*
G03X169090Y-340160I-323J232D01*
G01X161150D01*
G02X160510Y-339890I6J908D01*
G01X157570Y-336960D01*
X83730D01*
X76260Y-344430D01*
Y-367260D01*
G02X75990Y-367900I-908J6D01*
G01X72350Y-371540D01*
G02X71710Y-371810I-646J638D01*
G01X32680D01*
X27460Y-377030D01*
Y-382880D01*
G02X28270Y-384340I-911J-1460D01*
G02X24830I-1720J0D01*
G02X25640Y-382880I1721J0D01*
G01Y-376650D01*
G02X25910Y-376010I908J-6D01*
G01X31660Y-370260D01*
G02X32300Y-369990I646J-638D01*
G01X71330D01*
X74440Y-366880D01*
Y-344050D01*
G02X74710Y-343410I908J-6D01*
G01X82710Y-335410D01*
G02X83350Y-335140I646J-638D01*
G01X157950D01*
G02X158590Y-335410I-6J-908D01*
G01X161530Y-338340D01*
X169100D01*
G03X169420Y-337700I-1J400D01*
G02X169350Y-337600I1372J1035D01*
G01X165040D01*
G02X164400Y-337330I6J908D01*
G01X160770Y-333710D01*
X136150D01*
G02X135510Y-333440I6J908D01*
G01X130570Y-328510D01*
X121330D01*
X116390Y-333440D01*
G02X115750Y-333710I-646J638D01*
G01X81730D01*
X73260Y-342180D01*
Y-364100D01*
G02X72990Y-364740I-908J6D01*
G01X69290Y-368440D01*
G02X68650Y-368710I-646J638D01*
G01X24030D01*
X22460Y-370280D01*
Y-382880D01*
G02X23270Y-384340I-911J-1460D01*
G02X21550Y-386060I-1720J0D01*
G02X20630Y-385790I5J1719D01*
G03X20010Y-386130I-219J-336D01*
G01Y-388220D01*
X24330Y-392540D01*
X78450D01*
G02X79090Y-392810I-6J-908D01*
G01X83240Y-396960D01*
G02X83510Y-397600I-638J-646D01*
G01Y-415880D01*
X85830Y-418200D01*
X99340D01*
G02X100800Y-417390I1460J-911D01*
G01X100900D01*
G03X101310Y-416910I19J399D01*
G02X101270Y-416550I1679J369D01*
G02X101310Y-416190I1719J-9D01*
G03X100900Y-415710I-391J81D01*
G01X100800D01*
G02Y-412270I0J1720D01*
G01X100900D01*
G03X101310Y-411790I19J399D01*
G02X101270Y-411430I1679J369D01*
G02X101310Y-411070I1719J-9D01*
G03X100900Y-410590I-391J81D01*
G01X100800D01*
G02X99340Y-409780I0J1721D01*
G01X95420D01*
G02X94780Y-409510I6J908D01*
G01X89610Y-404340D01*
G02X89340Y-403700I638J646D01*
G01Y-363350D01*
G02X89610Y-362710I908J-6D01*
G01X94160Y-358160D01*
G02X94800Y-357890I646J-638D01*
G01X185810D01*
X189940Y-353760D01*
Y-316640D01*
X185410Y-312110D01*
X138110D01*
X137700Y-312510D01*
G02X137060Y-312780I-646J638D01*
G02X136820Y-312750I-8J911D01*
G01X136340Y-312620D01*
X136260Y-312740D01*
G02X133290Y-314380I-2970J1869D01*
G02Y-307340I0J3520D01*
G02X136730Y-310120I0J-3518D01*
G03X137310Y-310390I391J82D01*
G02X137730Y-310290I415J-811D01*
G01X185790D01*
G02X186430Y-310560I-6J-908D01*
G01X191490Y-315620D01*
G02X191760Y-316260I-638J-646D01*
G01Y-354140D01*
G02X191490Y-354780I-908J6D01*
G01X186830Y-359440D01*
G02X186190Y-359710I-646J638D01*
G01X95180D01*
X91160Y-363730D01*
Y-403320D01*
X95800Y-407960D01*
X99340D01*
G02X99410Y-407860I1442J-935D01*
G03X99090Y-407220I-321J240D01*
G01X97160D01*
G02X96520Y-406950I6J908D01*
G01X92510Y-402940D01*
G02X92240Y-402300I638J646D01*
G01Y-365050D01*
G02X92510Y-364410I908J-6D01*
G01X94110Y-362810D01*
G02X94750Y-362540I646J-638D01*
G01X249020D01*
X254190Y-357370D01*
Y-251430D01*
X244610Y-241840D01*
G02X244340Y-241200I638J646D01*
G01Y-206850D01*
G02X244610Y-206210I908J-6D01*
G01X249260Y-201560D01*
G02X249900Y-201290I646J-638D01*
G01X265710D01*
G02X266350Y-201560I-6J-908D01*
G01X266760Y-201960D01*
G03X267430Y-201770I282J281D01*
G02X270860Y-199050I3430J-803D01*
G02Y-206090I0J-3520D01*
G02X267890Y-204450I0J3509D01*
G01X267810Y-204330D01*
X267330Y-204460D01*
G02X267090Y-204490I-232J881D01*
G02X266450Y-204220I6J908D01*
G01X265330Y-203110D01*
X250280D01*
X246160Y-207230D01*
Y-240820D01*
X255740Y-250410D01*
G02X256010Y-251050I-638J-646D01*
G01Y-357750D01*
G02X255740Y-358390I-908J6D01*
G01X250040Y-364090D01*
G02X249400Y-364360I-646J638D01*
G01X95130D01*
X94060Y-365430D01*
Y-401920D01*
X97540Y-405400D01*
X99090D01*
G03X99410Y-404760I-1J400D01*
G02X99080Y-403750I1381J1010D01*
G02X99100Y-403460I1722J27D01*
G01X99120Y-403360D01*
X95660Y-399890D01*
G02X95390Y-399250I638J646D01*
G01Y-370200D01*
G02X95660Y-369560I908J-6D01*
G01X97360Y-367860D01*
G02X98000Y-367590I646J-638D01*
G01X261170D01*
X267790Y-360970D01*
Y-323130D01*
X263910Y-319240D01*
G02X263640Y-318600I638J646D01*
G01Y-300650D01*
G02X263910Y-300010I908J-6D01*
G01X267790Y-296120D01*
Y-256450D01*
G02X268060Y-255810I908J-6D01*
G01X281410Y-242460D01*
G02X282050Y-242190I646J-638D01*
G01X326380D01*
X335790Y-232780D01*
Y-120560D01*
G02X336060Y-119920I908J-6D01*
G01X371640Y-84330D01*
Y-50030D01*
X362520Y-40910D01*
X339260D01*
X339220Y-41050D01*
G02X335860Y-43520I-3360J1050D01*
G02Y-36480I0J3520D01*
G02X339220Y-38950I0J-3520D01*
G01X339260Y-39090D01*
X362900D01*
G02X363540Y-39360I-6J-908D01*
G01X373190Y-49010D01*
G02X373460Y-49650I-638J-646D01*
G01Y-84710D01*
G02X373190Y-85350I-908J6D01*
G01X337610Y-120940D01*
Y-233160D01*
G02X337340Y-233800I-908J6D01*
G01X327400Y-243740D01*
G02X326760Y-244010I-646J638D01*
G01X282430D01*
X269610Y-256830D01*
Y-296500D01*
G02X269340Y-297140I-908J6D01*
G01X265460Y-301030D01*
Y-318220D01*
X269340Y-322110D01*
G02X269610Y-322750I-638J-646D01*
G01Y-361350D01*
G02X269340Y-361990I-908J6D01*
G01X262190Y-369140D01*
G02X261550Y-369410I-646J638D01*
G01X98380D01*
X97210Y-370580D01*
Y-398870D01*
X100410Y-402070D01*
X100510Y-402050D01*
G02X100800Y-402030I263J-1702D01*
G01X100900D01*
G03X101310Y-401550I19J399D01*
G02X101270Y-401190I1679J369D01*
G02X102080Y-399730I1721J0D01*
G01Y-375160D01*
G02X102350Y-374520I908J-6D01*
G01X104660Y-372210D01*
G02X105300Y-371940I646J-638D01*
G01X263620D01*
X271540Y-364020D01*
Y-262010D01*
G02X271810Y-261370I908J-6D01*
G01X285020Y-248160D01*
G02X285660Y-247890I646J-638D01*
G01X329320D01*
X343090Y-234120D01*
Y-126450D01*
G02X343360Y-125810I908J-6D01*
G01X382040Y-87120D01*
Y126670D01*
X377340Y131370D01*
X314630D01*
G02X314390Y131400I-8J911D01*
G01X313910Y131530D01*
X313830Y131410D01*
G02X310860Y129770I-2970J1869D01*
G02Y136810I0J3520D01*
G02X314380Y133440I0J-3523D01*
G01Y133290D01*
X314750Y133190D01*
X377720D01*
G02X378360Y132920I-6J-908D01*
G01X383590Y127690D01*
G02X383860Y127050I-638J-646D01*
G01Y-87500D01*
G02X383590Y-88140I-908J6D01*
G01X344910Y-126830D01*
Y-234500D01*
G02X344640Y-235140I-908J6D01*
G01X330340Y-249440D01*
G02X329700Y-249710I-646J638D01*
G01X286040D01*
X273360Y-262390D01*
Y-364400D01*
G02X273090Y-365040I-908J6D01*
G01X264640Y-373490D01*
G02X264000Y-373760I-646J638D01*
G01X105680D01*
X103900Y-375540D01*
Y-399730D01*
G02X104710Y-401190I-911J-1460D01*
G02X102990Y-402910I-1720J0D01*
G01X102890D01*
G03X102480Y-403390I-19J-399D01*
G02X102520Y-403750I-1679J-369D01*
G02X102480Y-404110I-1719J9D01*
G03X102890Y-404590I391J-81D01*
G01X102990D01*
G02Y-408030I0J-1720D01*
G01X102890D01*
G03X102480Y-408510I-19J-399D01*
G02X102520Y-408870I-1679J-369D01*
G02X102480Y-409230I-1719J9D01*
G03X102890Y-409710I391J-81D01*
G01X102990D01*
G02X104450Y-410520I0J-1721D01*
G01X105140D01*
X106490Y-409170D01*
Y-384350D01*
G02X106760Y-383710I908J-6D01*
G01X109510Y-380960D01*
G02X110150Y-380690I646J-638D01*
G01X247620D01*
X250860Y-377460D01*
G02X251500Y-377190I646J-638D01*
G01X264260D01*
X275490Y-365960D01*
Y-283450D01*
G02X275760Y-282810I908J-6D01*
G01X279410Y-279160D01*
G02X280050Y-278890I646J-638D01*
G01X373920D01*
X377240Y-275570D01*
Y-106000D01*
G02X377510Y-105360I908J-6D01*
G01X389040Y-93820D01*
Y259920D01*
X379010Y269950D01*
X205970D01*
X205930Y269810D01*
G02X202570Y267340I-3360J1050D01*
G02Y274380I0J3520D01*
G02X205930Y271910I0J-3520D01*
G01X205970Y271770D01*
X379390D01*
G02X380030Y271500I-6J-908D01*
G01X390590Y260940D01*
G02X390860Y260300I-638J-646D01*
G01Y-94200D01*
G02X390590Y-94840I-908J6D01*
G01X379060Y-106380D01*
Y-275950D01*
G02X378790Y-276590I-908J6D01*
G01X374940Y-280440D01*
G02X374300Y-280710I-646J638D01*
G01X280430D01*
X277310Y-283830D01*
Y-366340D01*
G02X277040Y-366980I-908J6D01*
G01X265280Y-378740D01*
G02X264640Y-379010I-646J638D01*
G01X251880D01*
X248640Y-382240D01*
G02X248000Y-382510I-646J638D01*
G01X110530D01*
X108310Y-384730D01*
Y-409550D01*
G02X108040Y-410190I-908J6D01*
G01X106160Y-412070D01*
G02X105520Y-412340I-646J638D01*
G01X104450D01*
G02X104380Y-412440I-1442J935D01*
G03X104700Y-413080I321J-240D01*
G01X107640D01*
G02X108280Y-413350I-6J-908D01*
G01X112640Y-417710D01*
G02X112910Y-418350I-638J-646D01*
G01Y-423300D01*
G02X112640Y-423940I-908J6D01*
G01X107990Y-428590D01*
G02X107350Y-428860I-646J638D01*
G01X63710D01*
G02X63070Y-428590I6J908D01*
G01X50960Y-416480D01*
G02X50690Y-415840I638J646D01*
G01Y-412490D01*
X43410Y-405210D01*
X3300D01*
G02X2660Y-404940I6J908D01*
G01X-1190Y-401090D01*
G02X-1460Y-400450I638J646D01*
G01Y-385740D01*
G03X-2160Y-385480I-399J-3D01*
G02X-3450Y-386060I-1290J1145D01*
G02Y-382620I0J1720D01*
G02X-2160Y-383200I0J-1725D01*
G03X-1460Y-382940I301J263D01*
G01Y-340310D01*
G02X-1190Y-339670I908J-6D01*
G01X-910Y-339380D01*
X-1090Y-339210D01*
X-1130Y-339190D01*
G02X-3520Y-335860I1125J3330D01*
G02X3520I3520J0D01*
G02X1050Y-339220I-3520J0D01*
G01X910Y-339260D01*
Y-339760D01*
G02X640Y-340400I-908J6D01*
G01X360Y-340690D01*
Y-382370D01*
G03X910Y-382740I399J-1D01*
G02X1550Y-382620I632J-1602D01*
G02Y-386060I0J-1720D01*
G02X910Y-385940I-8J1722D01*
G03X360Y-386310I-151J-369D01*
G01Y-400070D01*
X3680Y-403390D01*
X43790D01*
G02X44430Y-403660I-6J-908D01*
G01X52240Y-411470D01*
G02X52510Y-412110I-638J-646D01*
G01Y-415460D01*
X64090Y-427040D01*
X106970D01*
X111090Y-422920D01*
Y-418730D01*
X107260Y-414900D01*
X104700D01*
G03X104380Y-415540I1J-400D01*
G02X104450Y-415640I-1372J-1035D01*
G01X105550D01*
G02X106190Y-415910I-6J-908D01*
G01X107890Y-417610D01*
G02X108160Y-418250I-638J-646D01*
G01Y-421000D01*
G02X107890Y-421640I-908J6D01*
G01X104990Y-424540D01*
G02X104350Y-424810I-646J638D01*
G01X84050D01*
G02X83410Y-424540I6J908D01*
G01X78460Y-419590D01*
G02X78190Y-418950I638J646D01*
G01Y-400930D01*
X75670Y-398410D01*
X14800D01*
G02X14160Y-398140I6J908D01*
G01X8810Y-392790D01*
G02X8540Y-392150I638J646D01*
G01Y-385740D01*
G03X7840Y-385480I-399J-3D01*
G02X6550Y-386060I-1290J1145D01*
G02Y-382620I0J1720D01*
G02X7840Y-383200I0J-1725D01*
G03X8540Y-382940I301J263D01*
G01Y-340310D01*
G02X8810Y-339670I908J-6D01*
G01X9090Y-339380D01*
X8910Y-339210D01*
X8870Y-339190D01*
G02X6480Y-335860I1125J3330D01*
G02X13520I3520J0D01*
G02X11050Y-339220I-3520J0D01*
G01X10910Y-339260D01*
Y-339760D01*
G02X10640Y-340400I-908J6D01*
G01X10360Y-340690D01*
Y-382370D01*
G03X10910Y-382740I399J-1D01*
G02X11550Y-382620I632J-1602D01*
G02Y-386060I0J-1720D01*
G02X10910Y-385940I-8J1722D01*
G03X10360Y-386310I-151J-369D01*
G01Y-391770D01*
X15180Y-396590D01*
X76050D01*
G02X76690Y-396860I-6J-908D01*
G01X79740Y-399910D01*
G02X80010Y-400550I-638J-646D01*
G01Y-418570D01*
X84430Y-422990D01*
X103970D01*
X106340Y-420620D01*
Y-418630D01*
X105170Y-417460D01*
X104450D01*
G02X102990Y-418270I-1460J911D01*
G01X102890D01*
G03X102480Y-418750I-19J-399D01*
G02X102520Y-419110I-1679J-369D01*
G02X100800Y-420830I-1720J0D01*
G02X99340Y-420020I0J1721D01*
G01X85450D01*
G02X84810Y-419750I6J908D01*
G01X81960Y-416900D01*
G02X81690Y-416260I638J646D01*
G01Y-397980D01*
X78070Y-394360D01*
X23950D01*
G02X23310Y-394090I6J908D01*
G01X18460Y-389240D01*
G02X18190Y-388600I638J646D01*
G01Y-386060D01*
G03X17560Y-385740I-398J-3D01*
G02X16550Y-386060I-1000J1403D01*
G02Y-382620I0J1720D01*
G02X17560Y-382940I10J-1723D01*
G03X18190Y-382620I232J323D01*
G01Y-340660D01*
G02X18460Y-340020I908J-6D01*
G01X18730Y-339740D01*
G03X18610Y-339090I-282J284D01*
G02X16480Y-335860I1384J3230D01*
G02X23520I3520J0D01*
G02X21050Y-339220I-3520J0D01*
G01X20910Y-339260D01*
Y-339760D01*
G02X20640Y-340400I-908J6D01*
G01X20010Y-341040D01*
Y-358450D01*
G03X20630Y-358780I400J4D01*
G02X21600Y-358480I970J-1418D01*
G02Y-361920I0J-1720D01*
G02X20630Y-361620I0J1718D01*
G03X20010Y-361950I-220J-334D01*
G01Y-382960D01*
G03X20350Y-383110I200J-6D01*
G02X20640Y-382880I1207J-1224D01*
G01Y-369900D01*
G02X20910Y-369260I908J-6D01*
G01X23010Y-367160D01*
G02X23650Y-366890I646J-638D01*
G01X68270D01*
X71440Y-363720D01*
Y-341800D01*
G02X71710Y-341160I908J-6D01*
G01X80710Y-332160D01*
G02X81350Y-331890I646J-638D01*
G01X115370D01*
X120310Y-326960D01*
G02X120950Y-326690I646J-638D01*
G01X130950D01*
G02X131590Y-326960I-6J-908D01*
G01X136530Y-331890D01*
X161150D01*
G02X161790Y-332160I-6J-908D01*
G01X165420Y-335780D01*
X169350D01*
G02X170810Y-334970I1460J-911D01*
G02X171030Y-334980I32J-1721D01*
G03X171470Y-334500I51J395D01*
G02Y-333760I1691J370D01*
G03X171030Y-333280I-389J85D01*
G02X170810Y-333290I-188J1711D01*
G02X172530Y-331570I0J1720D01*
G02X172490Y-331940I-1731J0D01*
G03X172930Y-332420I389J-85D01*
G02X173150Y-332410I188J-1711D01*
G02Y-335850I0J-1720D01*
G02X172930Y-335840I-32J1721D01*
G03X172490Y-336320I-51J-395D01*
G02Y-337060I-1691J-370D01*
G03X172930Y-337540I389J-85D01*
G02X173150Y-337530I188J-1711D01*
G02Y-340970I0J-1720D01*
G02X172930Y-340960I-32J1721D01*
G03X172490Y-341440I-50J-396D01*
G02X172530Y-341800I-1679J-369D01*
G02X172490Y-342170I-1731J0D01*
G03X172930Y-342650I389J-85D01*
G02X173150Y-342640I188J-1711D01*
G02Y-346080I0J-1720D01*
G02X172930Y-346070I-32J1721D01*
G03X172490Y-346550I-51J-395D01*
G02Y-347290I-1691J-370D01*
G03X172930Y-347770I389J-85D01*
G02X173150Y-347760I188J-1711D01*
G02Y-351200I0J-1720D01*
G02X172930Y-351190I-32J1721D01*
G03X172490Y-351670I-51J-395D01*
G02Y-352410I-1691J-370D01*
G03X172930Y-352890I389J-85D01*
G02X173150Y-352880I188J-1711D01*
G02X171430Y-354600I0J-1720D01*
G02X171470Y-354230I1731J0D01*
G03X171030Y-353750I-389J85D01*
G02X170810Y-353760I-188J1711D01*
G02Y-350320I0J1720D01*
G02X171030Y-350330I32J-1721D01*
G03X171470Y-349850I51J395D01*
G02Y-349110I1691J370D01*
G03X171030Y-348630I-389J85D01*
G02X170810Y-348640I-188J1711D01*
G02X169090Y-346920I0J1720D01*
G37*
G36*
G01X-306770Y-145350D02*
X-306910Y-145310D01*
G02X-309380Y-141950I1050J3360D01*
G02X-302340I3520J0D01*
G02X-304810Y-145310I-3520J0D01*
G01X-304950Y-145350D01*
Y-404760D01*
X-294320Y-415390D01*
X-274350D01*
G03X-273980Y-414830I4J400D01*
G02X-274120Y-414150I1581J680D01*
G02X-270680I1720J0D01*
G02X-270880Y-414960I-1721J-5D01*
G03X-270720Y-415500I350J-190D01*
G02X-270520Y-415660I-462J-782D01*
G01X-270370Y-415800D01*
X-270110D01*
X-270050Y-415720D01*
G02X-268650Y-414990I1400J-977D01*
G02Y-418430I0J-1720D01*
G02X-270110Y-417620I0J1721D01*
G01X-270750D01*
G02X-271390Y-417350I6J908D01*
G01X-271540Y-417210D01*
X-272120D01*
Y-417570D01*
X-271970Y-417600D01*
G02X-270680Y-419270I-436J-1670D01*
G02X-274120I-1720J0D01*
G02X-273470Y-417920I1727J0D01*
G03X-273720Y-417210I-250J311D01*
G01X-294700D01*
G02X-295340Y-416940I6J908D01*
G01X-306500Y-405780D01*
G02X-306770Y-405140I638J646D01*
G01Y-145350D01*
G37*
G36*
G01X271970Y-194010D02*
X272340Y-193910D01*
Y-193760D01*
G02X275860Y-190390I3520J-153D01*
G02Y-197430I0J-3520D01*
G02X272890Y-195790I0J3509D01*
G01X272810Y-195670D01*
X272330Y-195800D01*
G02X272090Y-195830I-232J881D01*
G01X245260D01*
X243360Y-197730D01*
Y-244270D01*
X252690Y-253610D01*
G02X252960Y-254250I-638J-646D01*
G01Y-334250D01*
G02X252690Y-334890I-908J6D01*
G01X250270Y-337310D01*
G02X249630Y-337580I-646J638D01*
G01X248450D01*
G02X246990Y-338390I-1460J911D01*
G02X246770Y-338380I-32J1721D01*
G03X246330Y-338860I-51J-395D01*
G02Y-339600I-1691J-370D01*
G03X246770Y-340080I389J-85D01*
G02X246990Y-340070I188J-1711D01*
G02Y-343510I0J-1720D01*
G02X246770Y-343500I-32J1721D01*
G03X246330Y-343980I-51J-395D01*
G02Y-344720I-1691J-370D01*
G03X246770Y-345200I389J-85D01*
G02X246990Y-345190I188J-1711D01*
G02X245270Y-346910I0J-1720D01*
G02X245310Y-346540I1731J0D01*
G03X244870Y-346060I-389J85D01*
G02X244650Y-346070I-188J1711D01*
G02Y-342630I0J1720D01*
G02X244870Y-342640I32J-1721D01*
G03X245310Y-342160I51J395D01*
G02Y-341420I1691J370D01*
G03X244870Y-340940I-389J85D01*
G02X244650Y-340950I-188J1711D01*
G02Y-337510I0J1720D01*
G02X244870Y-337520I32J-1721D01*
G03X245310Y-337040I51J395D01*
G02Y-336300I1691J370D01*
G03X244870Y-335820I-389J85D01*
G02X244650Y-335830I-188J1711D01*
G02X243190Y-335020I0J1721D01*
G01X213860D01*
G02X213220Y-334750I6J908D01*
G01X207610Y-329140D01*
G02X207340Y-328500I638J646D01*
G01Y-309530D01*
X204580Y-306770D01*
X145350D01*
X145310Y-306910D01*
G02X141950Y-309380I-3360J1050D01*
G02Y-302340I0J3520D01*
G02X145310Y-304810I0J-3520D01*
G01X145350Y-304950D01*
X204960D01*
G02X205600Y-305220I-6J-908D01*
G01X208890Y-308510D01*
G02X209160Y-309150I-638J-646D01*
G01Y-328120D01*
X214240Y-333200D01*
X243190D01*
G02X243260Y-333100I1442J-935D01*
G03X242940Y-332460I-321J240D01*
G01X220100D01*
G02X219460Y-332190I6J908D01*
G01X213860Y-326590D01*
G02X213590Y-325950I638J646D01*
G01Y-269510D01*
X212990Y-268910D01*
G02X211230Y-269380I-1760J3060D01*
G02X214750Y-265860I0J3520D01*
G02X214280Y-267620I-3530J0D01*
G01X215140Y-268490D01*
G02X215410Y-269130I-638J-646D01*
G01Y-325570D01*
X220480Y-330640D01*
X242940D01*
G03X243260Y-330000I-1J400D01*
G02X243190Y-329900I1372J1035D01*
G01X231990D01*
G02X231350Y-329630I6J908D01*
G01X226160Y-324440D01*
G02X225890Y-323800I638J646D01*
G01Y-268150D01*
X221650Y-263910D01*
G02X219890Y-264380I-1760J3060D01*
G02X223410Y-260860I0J3520D01*
G02X222940Y-262620I-3530J0D01*
G01X227440Y-267130D01*
G02X227710Y-267770I-638J-646D01*
G01Y-323420D01*
X232370Y-328080D01*
X243190D01*
G02X244650Y-327270I1460J-911D01*
G02X246370Y-328990I0J-1720D01*
G02X246330Y-329360I-1731J0D01*
G03X246770Y-329840I389J-85D01*
G02X246990Y-329830I188J-1711D01*
G02Y-333270I0J-1720D01*
G02X246770Y-333260I-32J1721D01*
G03X246330Y-333740I-51J-395D01*
G02Y-334480I-1691J-370D01*
G03X246770Y-334960I389J-85D01*
G02X246990Y-334950I188J-1711D01*
G02X248450Y-335760I0J-1721D01*
G01X249250D01*
X251140Y-333870D01*
Y-254630D01*
X241810Y-245290D01*
G02X241540Y-244650I638J646D01*
G01Y-197350D01*
G02X241810Y-196710I908J-6D01*
G01X244240Y-194280D01*
G02X244880Y-194010I646J-638D01*
G01X271970D01*
G37*
G36*
G01X173850Y-397970D02*
G02X173240Y-398080I-605J1611D01*
G02X174960Y-396360I0J1720D01*
G02X174890Y-396830I-1718J16D01*
G03X175420Y-397310I386J-106D01*
G02X176030Y-397200I605J-1611D01*
G02X174310Y-398920I0J-1720D01*
G02X174380Y-398450I1718J-16D01*
G03X173850Y-397970I-386J106D01*
G37*
G36*
G01X-210180Y-405000D02*
G02X-210620Y-403850I1283J1150D01*
G02X-207180I1720J0D01*
G02X-207620Y-405000I-1723J0D01*
G03Y-405260I151J-130D01*
G02X-207180Y-406410I-1283J-1150D01*
G02X-208900Y-408130I-1720J0D01*
G02X-209240Y-408100I-19J1722D01*
G03X-209700Y-408580I-73J-390D01*
G02X-209660Y-408970I-1682J-370D01*
G02X-211380Y-407250I-1720J0D01*
G02X-211040Y-407280I19J-1722D01*
G03X-210580Y-406800I73J390D01*
G02X-210620Y-406410I1682J370D01*
G02X-210180Y-405260I1723J0D01*
G03Y-405000I-151J130D01*
G37*
G36*
G01X292080Y-406690D02*
G02X293200Y-406280I1115J-1312D01*
G02X294320Y-406690I5J-1722D01*
G03X294580I130J147D01*
G02X295700Y-406280I1115J-1312D01*
G02X297420Y-408000I0J-1720D01*
G02X297010Y-409120I-1722J-5D01*
G03Y-409380I147J-130D01*
G02X297420Y-410500I-1312J-1115D01*
G02X297010Y-411620I-1722J-5D01*
G03Y-411880I147J-130D01*
G02X297420Y-413000I-1312J-1115D01*
G02X296780Y-414340I-1723J0D01*
G03X296810Y-414990I246J-314D01*
G02X297620Y-416450I-911J-1460D01*
G02X297210Y-417570I-1722J-5D01*
G03Y-417830I147J-130D01*
G02X297620Y-418950I-1312J-1115D01*
G02X297210Y-420070I-1722J-5D01*
G03Y-420330I147J-130D01*
G02X297620Y-421450I-1312J-1115D01*
G02X295900Y-423170I-1720J0D01*
G02X294780Y-422760I-5J1722D01*
G03X294520I-130J-147D01*
G02X293400Y-423170I-1115J1312D01*
G02X292280Y-422760I-5J1722D01*
G03X292020I-130J-147D01*
G02X290900Y-423170I-1115J1312D01*
G02X289780Y-422760I-5J1722D01*
G03X289520I-130J-147D01*
G02X288400Y-423170I-1115J1312D01*
G02X287280Y-422760I-5J1722D01*
G03X287020I-130J-147D01*
G02X285900Y-423170I-1115J1312D01*
G02X284780Y-422760I-5J1722D01*
G03X284520I-130J-147D01*
G02X283400Y-423170I-1115J1312D01*
G02X281680Y-421450I0J1720D01*
G02X282090Y-420330I1722J5D01*
G03Y-420070I-147J130D01*
G02X281680Y-418950I1312J1115D01*
G02X282090Y-417830I1722J5D01*
G03Y-417570I-147J130D01*
G02X281680Y-416450I1312J1115D01*
G02X282320Y-415110I1723J0D01*
G03X282290Y-414460I-246J314D01*
G02X281480Y-413000I911J1460D01*
G02X281890Y-411880I1722J5D01*
G03Y-411620I-147J130D01*
G02X281480Y-410500I1312J1115D01*
G02X281890Y-409380I1722J5D01*
G03Y-409120I-147J130D01*
G02X281480Y-408000I1312J1115D01*
G02X283200Y-406280I1720J0D01*
G02X284320Y-406690I5J-1722D01*
G03X284580I130J147D01*
G02X285700Y-406280I1115J-1312D01*
G02X286820Y-406690I5J-1722D01*
G03X287080I130J147D01*
G02X288200Y-406280I1115J-1312D01*
G02X289320Y-406690I5J-1722D01*
G03X289580I130J147D01*
G02X290700Y-406280I1115J-1312D01*
G02X291820Y-406690I5J-1722D01*
G03X292080I130J147D01*
G37*
G36*
G01X-64740Y-409010D02*
G02X-66200Y-409820I-1460J911D01*
G02Y-406380I0J1720D01*
G02X-64740Y-407190I0J-1721D01*
G01X-63400D01*
G02X-62760Y-407460I-6J-908D01*
G01X-60870Y-409340D01*
X35410D01*
G02X36050Y-409610I-6J-908D01*
G01X41240Y-414800D01*
G02X41510Y-415440I-638J-646D01*
G01Y-426070D01*
X46110Y-430670D01*
X46210Y-430650D01*
G02X46500Y-430630I263J-1702D01*
G02X44780Y-432350I0J-1720D01*
G02X44800Y-432060I1722J27D01*
G01X44820Y-431960D01*
X39960Y-427090D01*
G02X39690Y-426450I638J646D01*
G01Y-415820D01*
X35030Y-411160D01*
X-57440D01*
G03X-57730Y-411840I-3J-400D01*
G02X-57240Y-413040I-1224J-1200D01*
G02X-60680I-1720J0D01*
G02X-60190Y-411840I1714J0D01*
G03X-60480Y-411160I-287J280D01*
G01X-61250D01*
G02X-61890Y-410890I6J908D01*
G01X-63780Y-409010D01*
X-64740D01*
G37*
G36*
G01X173920Y-410860D02*
G02X173700Y-410870I-188J1711D01*
G02X175420Y-409150I0J1720D01*
G02X175380Y-409520I-1731J0D01*
G03X175820Y-410000I389J-85D01*
G02X176040Y-409990I188J-1711D01*
G02Y-413430I0J-1720D01*
G02X175820Y-413420I-32J1721D01*
G03X175380Y-413900I-51J-395D01*
G02Y-414640I-1691J-370D01*
G03X175820Y-415120I389J-85D01*
G02X176040Y-415110I188J-1711D01*
G02X174320Y-416830I0J-1720D01*
G02X174360Y-416460I1731J0D01*
G03X173920Y-415980I-389J85D01*
G02X173700Y-415990I-188J1711D01*
G02Y-412550I0J1720D01*
G02X173920Y-412560I32J-1721D01*
G03X174360Y-412080I51J395D01*
G02Y-411340I1691J370D01*
G03X173920Y-410860I-389J85D01*
G37*
G36*
G01X-103840Y-430440D02*
X-83060D01*
G02X-81600Y-429630I1460J-911D01*
G02X-79880Y-431350I0J-1720D01*
G02X-80380Y-432560I-1714J0D01*
G03X-80090Y-433240I287J-280D01*
G01X-79960D01*
X-79900Y-433160D01*
G02X-78500Y-432430I1400J-977D01*
G02Y-435870I0J-1720D01*
G02X-79960Y-435060I0J1721D01*
G01X-98240D01*
G02X-99700Y-435870I-1460J911D01*
G02X-101420Y-434150I0J1720D01*
G02X-100920Y-432940I1714J0D01*
G03X-101210Y-432260I-287J280D01*
G01X-103840D01*
G02X-105300Y-433070I-1460J911D01*
G02Y-429630I0J1720D01*
G02X-103840Y-430440I0J-1721D01*
G37*
G36*
G01X-375640Y361890D02*
G02X-375000Y362160I646J-638D01*
G01X14610D01*
G02X15250Y361890I-6J-908D01*
G01X38240Y338910D01*
G02X40000Y339380I1760J-3060D01*
G02X36480Y335860I0J-3520D01*
G02X36950Y337620I3530J0D01*
G01X14230Y360340D01*
X-374620D01*
X-396740Y338220D01*
Y-16520D01*
X-375210Y-38060D01*
G02X-374940Y-38700I-638J-646D01*
G01Y-440320D01*
X-369320Y-445940D01*
X-193970D01*
X-191610Y-443580D01*
Y-425850D01*
G02X-191340Y-425210I908J-6D01*
G01X-189890Y-423760D01*
G02X-189250Y-423490I646J-638D01*
G01X-189110D01*
G03X-188790Y-422850I-1J400D01*
G02X-188860Y-422750I1372J1035D01*
G01X-189960D01*
X-192740Y-425530D01*
Y-442650D01*
G02X-193010Y-443290I-908J6D01*
G01X-194960Y-445240D01*
G02X-195600Y-445510I-646J638D01*
G01X-364090D01*
G02X-364730Y-445240I6J908D01*
G01X-368540Y-441430D01*
G02X-368810Y-440790I638J646D01*
G01Y-36130D01*
X-393240Y-11690D01*
G02X-393510Y-11050I638J646D01*
G01Y291300D01*
G02X-393240Y291940I908J-6D01*
G01X-383190Y301990D01*
G02X-382550Y302260I646J-638D01*
G01X-204080D01*
X-190540Y315790D01*
G02X-189900Y316060I646J-638D01*
G01X-137580D01*
G02X-136940Y315790I-6J-908D01*
G01X-135050Y313910D01*
G02X-133290Y314380I1760J-3060D01*
G02X-136810Y310860I0J-3520D01*
G02X-136410Y312490I3521J0D01*
G01X-136340Y312620D01*
X-137960Y314240D01*
X-189520D01*
X-203060Y300710D01*
G02X-203700Y300440I-646J638D01*
G01X-382170D01*
X-391690Y290920D01*
Y-10670D01*
X-367260Y-35110D01*
G02X-366990Y-35750I-638J-646D01*
G01Y-440410D01*
X-363710Y-443690D01*
X-195980D01*
X-194560Y-442270D01*
Y-425150D01*
G02X-194290Y-424510I908J-6D01*
G01X-190980Y-421200D01*
G02X-190340Y-420930I646J-638D01*
G01X-188860D01*
G02X-188790Y-420830I1442J-935D01*
G03X-189110Y-420190I-321J240D01*
G01X-194700D01*
X-199140Y-424630D01*
Y-438900D01*
G02X-199410Y-439540I-908J6D01*
G01X-202810Y-442940D01*
G02X-203450Y-443210I-646J638D01*
G01X-357450D01*
G02X-358090Y-442940I6J908D01*
G01X-361840Y-439190D01*
G02X-362110Y-438550I638J646D01*
G01Y-31980D01*
X-387190Y-6890D01*
G02X-387460Y-6250I638J646D01*
G01Y191800D01*
G02X-387190Y192440I908J-6D01*
G01X-373990Y205640D01*
G02X-373350Y205910I646J-638D01*
G01X-275070D01*
G02X-274610Y205790I8J-912D01*
G01X-273350Y205060D01*
X-273240Y205160D01*
G02X-270860Y206090I2380J-2580D01*
G02X-274380Y202570I0J-3520D01*
G02X-274290Y203340I3518J-21D01*
G01X-274260Y203480D01*
X-275310Y204090D01*
X-372970D01*
X-385640Y191420D01*
Y-5870D01*
X-360560Y-30960D01*
G02X-360290Y-31600I-638J-646D01*
G01Y-438170D01*
X-357070Y-441390D01*
X-350570D01*
X-350430Y-441050D01*
Y-441040D01*
X-354740Y-436730D01*
G02X-355010Y-436090I638J646D01*
G01Y-31530D01*
X-382790Y-3740D01*
G02X-383060Y-3100I638J646D01*
G01Y36850D01*
G02X-382790Y37490I908J-6D01*
G01X-379640Y40640D01*
G02X-379000Y40910I646J-638D01*
G01X-339260D01*
X-339220Y41050D01*
G02X-335860Y43520I3360J-1050D01*
G02Y36480I0J-3520D01*
G02X-339220Y38950I0J3520D01*
G01X-339260Y39090D01*
X-378620D01*
X-381240Y36470D01*
Y-2720D01*
X-353460Y-30510D01*
G02X-353190Y-31150I-638J-646D01*
G01Y-435710D01*
X-349410Y-439490D01*
X-205530D01*
X-203210Y-437170D01*
Y-421350D01*
G02X-202940Y-420710I908J-6D01*
G01X-198310Y-416080D01*
G02X-197670Y-415810I646J-638D01*
G01X-188860D01*
G02X-188790Y-415710I1442J-935D01*
G03X-189110Y-415070I-321J240D01*
G01X-199220D01*
X-203840Y-419690D01*
Y-434350D01*
G02X-204110Y-434990I-908J6D01*
G01X-207810Y-438690D01*
G02X-208450Y-438960I-646J638D01*
G01X-338000D01*
G02X-338640Y-438690I6J908D01*
G01X-342040Y-435290D01*
G02X-342310Y-434650I638J646D01*
G01Y-391390D01*
X-347440Y-386250D01*
G02X-347710Y-385610I638J646D01*
G01Y-169230D01*
G02X-347440Y-168590I908J-6D01*
G01X-313910Y-135050D01*
X-313980Y-134920D01*
G02X-314380Y-133290I3121J1630D01*
G02X-310860Y-136810I3520J0D01*
G02X-312490Y-136410I0J3521D01*
G01X-312620Y-136340D01*
X-345890Y-169610D01*
Y-385230D01*
X-340760Y-390370D01*
G02X-340490Y-391010I-638J-646D01*
G01Y-434270D01*
X-337620Y-437140D01*
X-208830D01*
X-205660Y-433970D01*
Y-419310D01*
G02X-205390Y-418670I908J-6D01*
G01X-200240Y-413520D01*
G02X-199600Y-413250I646J-638D01*
G01X-189110D01*
G03X-188790Y-412610I-1J400D01*
G02X-189120Y-411600I1381J1010D01*
G02X-189100Y-411310I1722J27D01*
G01X-189080Y-411210D01*
X-191440Y-408840D01*
G02X-191710Y-408200I638J646D01*
G01Y-363070D01*
X-205440Y-349330D01*
G02X-205710Y-348690I638J646D01*
G01Y-274730D01*
G02X-205590Y-274280I904J0D01*
G01X-205060Y-273350D01*
X-205160Y-273250D01*
G02X-206090Y-270860I2592J2385D01*
G02X-202570Y-274380I3520J0D01*
G02X-203340Y-274300I-23J3522D01*
G01X-203480Y-274260D01*
X-203890Y-274970D01*
Y-348310D01*
X-190160Y-362050D01*
G02X-189890Y-362690I-638J-646D01*
G01Y-407820D01*
X-187790Y-409920D01*
X-187690Y-409900D01*
G02X-187400Y-409880I263J-1702D01*
G02X-185680Y-411600I0J-1720D01*
G02X-186010Y-412610I-1711J0D01*
G03X-185690Y-413250I321J-240D01*
G01X-185110D01*
G02X-183650Y-412440I1460J-911D01*
G02Y-415880I0J-1720D01*
G02X-185110Y-415070I0J1721D01*
G01X-185690D01*
G03X-186010Y-415710I1J-400D01*
G02Y-417730I-1381J-1010D01*
G03X-185690Y-418370I321J-240D01*
G01X-185110D01*
G02X-183650Y-417560I1460J-911D01*
G02Y-421000I0J-1720D01*
G02X-185110Y-420190I0J1721D01*
G01X-185690D01*
G03X-186010Y-420830I1J-400D01*
G02Y-422850I-1381J-1010D01*
G03X-185690Y-423490I321J-240D01*
G01X-185110D01*
G02X-183650Y-422680I1460J-911D01*
G02X-181930Y-424400I0J-1720D01*
G02X-182260Y-425410I-1711J0D01*
G03X-181940Y-426050I321J-240D01*
G01X-158090D01*
X-151390Y-419360D01*
G02X-150750Y-419090I646J-638D01*
G01X-129530D01*
X-125760Y-415320D01*
Y-382250D01*
G02X-125490Y-381610I908J-6D01*
G01X-121590Y-377710D01*
G02X-120950Y-377440I646J-638D01*
G01X-67700D01*
X-67670Y-377430D01*
G02X-67400Y-377390I267J-870D01*
G01X-17480D01*
X-10910Y-370820D01*
Y-339260D01*
X-11050Y-339220D01*
G02X-13520Y-335860I1050J3360D01*
G02X-6480I3520J0D01*
G02X-8950Y-339220I-3520J0D01*
G01X-9090Y-339260D01*
Y-371200D01*
G02X-9360Y-371840I-908J6D01*
G01X-16460Y-378940D01*
G02X-17100Y-379210I-646J638D01*
G01X-67150D01*
X-67180Y-379220D01*
G02X-67450Y-379260I-267J870D01*
G01X-120570D01*
X-123940Y-382630D01*
Y-415700D01*
G02X-124210Y-416340I-908J6D01*
G01X-128510Y-420640D01*
G02X-129150Y-420910I-646J638D01*
G01X-150370D01*
X-157070Y-427600D01*
G02X-157710Y-427870I-646J638D01*
G01X-185940D01*
G02X-187400Y-428680I-1460J911D01*
G02X-189120Y-426960I0J1720D01*
G02X-188530Y-425660I1727J0D01*
G01X-188460Y-425600D01*
Y-425310D01*
X-188870D01*
X-189790Y-426230D01*
Y-443960D01*
G02X-190060Y-444600I-908J6D01*
G01X-192950Y-447490D01*
G02X-193590Y-447760I-646J638D01*
G01X-369700D01*
G02X-370340Y-447490I6J908D01*
G01X-376490Y-441340D01*
G02X-376760Y-440700I638J646D01*
G01Y-39080D01*
X-398290Y-17540D01*
G02X-398560Y-16900I638J646D01*
G01Y338600D01*
G02X-398290Y339240I908J-6D01*
G01X-375640Y361890D01*
G37*
G54D24*
X435000Y435000D03*
X-435000D03*
X-400000Y400000D03*
X400000D03*
X-400000Y-400000D03*
X400000D03*
X-435000Y-435000D03*
X435000D03*
G54D26*
X294900Y-253940D03*
X291150Y-256500D03*
X294900Y-259060D03*
X291150Y-261620D03*
X24310Y358400D03*
X-359250Y-18010D03*
X-355500Y-15450D03*
X-359250Y-12890D03*
X-355500Y-10330D03*
X-359250Y-7770D03*
X-355500Y-5210D03*
X-359250Y-2650D03*
X-355500Y-90D03*
X-74620Y-359950D03*
X-89490Y-329920D03*
X116100Y-350530D03*
X-85660Y-333350D03*
X-90080Y-334140D03*
X16550Y-423550D03*
X-18450Y-384340D03*
X6550Y-423550D03*
X-13450Y-384340D03*
X-322250Y-157820D03*
X-43450Y-384340D03*
X41550D03*
X46550D03*
X-23450D03*
X-28450D03*
X-33450D03*
X-38450D03*
X-8450D03*
X38050Y-360150D03*
X-74460Y-348350D03*
X-185470Y-304910D03*
X347450Y-74460D03*
X359050Y-74620D03*
X110220Y-339400D03*
X-362650Y24460D03*
X274760Y-244800D03*
X264490Y-239080D03*
X348130Y117850D03*
X337800Y110720D03*
X244850Y276360D03*
X238630Y265090D03*
X74520Y360950D03*
X74310Y349850D03*
X-116250Y348480D03*
X-110070Y338300D03*
X-264140Y238630D03*
X-274460Y244700D03*
X-349500Y74310D03*
X-360150Y74520D03*
X-338750Y-110370D03*
X-349230Y-117050D03*
X-239280Y-266040D03*
X-245600Y-276510D03*
X-48450Y-384340D03*
X-298590Y199780D03*
X-158020Y321000D03*
X157970Y-321600D03*
X192170Y301810D03*
X321350Y158220D03*
X360400Y-24410D03*
X297990Y-200430D03*
X-24610Y-360750D03*
X164900Y-393800D03*
X-204440Y-358560D03*
X-164140Y-390640D03*
X54350Y-360200D03*
X38350Y-432450D03*
X-268650Y-411590D03*
X204500Y-354600D03*
X-268650Y-426950D03*
X-272400Y-429510D03*
X-268650Y-421830D03*
X-272400Y-424390D03*
X194240Y-352040D03*
X29950Y-360200D03*
X-405000Y169000D03*
X46150Y-360150D03*
X62600Y-360200D03*
X309300Y-266550D03*
X-58900Y-432050D03*
X-186650Y-377660D03*
Y-321850D03*
X-42750Y-432150D03*
X-34650D03*
X-26500D03*
X-18400Y-432200D03*
X-10350D03*
X-208120Y-411530D03*
X22000Y-432400D03*
X30150Y-432500D03*
X-435200Y169000D03*
X-196560Y-366940D03*
X-209750Y-372250D03*
X-191960Y-352000D03*
X-237550Y341750D03*
X-338950Y161650D03*
X-344600Y100250D03*
Y-62250D03*
X-47600Y-363150D03*
X146100Y-349700D03*
X343800Y225300D03*
X261950Y-263700D03*
X325600Y-126300D03*
X354200Y-319850D03*
X-64110Y-390640D03*
X-65200Y344810D03*
X-105910Y-390640D03*
X309750Y-261350D03*
X-208120Y-416650D03*
X-211380Y-414090D03*
X-208120Y-421760D03*
X-211380Y-419200D03*
X-208120Y-426880D03*
X-211380Y-424320D03*
X315180Y168910D03*
G54D25*
X335860Y10000D03*
Y0D03*
Y-10000D03*
Y-20000D03*
Y-30000D03*
Y-50000D03*
Y-60000D03*
Y70000D03*
Y60000D03*
Y50000D03*
Y40000D03*
Y30000D03*
Y20000D03*
X176590Y-285860D03*
X167930Y-290860D03*
X159270Y-295860D03*
X150610Y-300860D03*
X124630Y-315860D03*
X115970Y-320860D03*
X228550Y-255860D03*
X202570Y-270860D03*
X193910Y-275860D03*
X185250Y-280860D03*
X159270Y295860D03*
X167930Y290860D03*
X176590Y285860D03*
X185250Y280860D03*
X193910Y275860D03*
X211230Y265860D03*
X219890Y260860D03*
X107310Y325860D03*
X115970Y320860D03*
X124630Y315860D03*
X133290Y310860D03*
X141950Y305860D03*
X150610Y300860D03*
X-176590Y285860D03*
X-167930Y290860D03*
X-159270Y295860D03*
X-150610Y300860D03*
X-124630Y315860D03*
X-115970Y320860D03*
X-228550Y255860D03*
X-219890Y260860D03*
X-211230Y265860D03*
X-202570Y270860D03*
X-193910Y275860D03*
X-185250Y280860D03*
X-335860Y-10000D03*
Y0D03*
Y10000D03*
Y20000D03*
Y30000D03*
Y50000D03*
Y60000D03*
Y-70000D03*
Y-60000D03*
Y-50000D03*
Y-40000D03*
Y-30000D03*
Y-20000D03*
X-20000Y-335860D03*
X-30000D03*
X-50000D03*
X-60000D03*
X70000D03*
X60000D03*
X50000D03*
X40000D03*
X30000D03*
X285860Y176590D03*
X290860Y167930D03*
X295860Y159270D03*
X300860Y150610D03*
X305860Y141950D03*
X315860Y124630D03*
X320860Y115970D03*
X255860Y228550D03*
X260860Y219890D03*
X265860Y211230D03*
X270860Y202570D03*
X275860Y193910D03*
X280860Y185250D03*
X295860Y-159270D03*
X290860Y-167930D03*
X285860Y-176590D03*
X280860Y-185250D03*
X265860Y-211230D03*
X260860Y-219890D03*
X325860Y-107310D03*
X320860Y-115970D03*
X315860Y-124630D03*
X310860Y-133290D03*
X305860Y-141950D03*
X300860Y-150610D03*
X-10000Y335860D03*
X0D03*
X10000D03*
X20000D03*
X30000D03*
X60000D03*
X-70000D03*
X-60000D03*
X-50000D03*
X-40000D03*
X-30000D03*
X-20000D03*
X-295860Y159270D03*
X-290860Y167930D03*
X-285860Y176590D03*
X-280860Y185250D03*
X-275860Y193910D03*
X-265860Y211230D03*
X-260860Y219890D03*
X-325860Y107310D03*
X-320860Y115970D03*
X-315860Y124630D03*
X-310860Y133290D03*
X-305860Y141950D03*
X-300860Y150610D03*
X-285860Y-176590D03*
X-290860Y-167930D03*
X-295860Y-159270D03*
X-300860Y-150610D03*
X-315860Y-124630D03*
X-320860Y-115970D03*
X-255860Y-228550D03*
X-260860Y-219890D03*
X-265860Y-211230D03*
X-270860Y-202570D03*
X-275860Y-193910D03*
X-280860Y-185250D03*
X-159270Y-295860D03*
X-167930Y-290860D03*
X-176590Y-285860D03*
X-185250Y-280860D03*
X-193910Y-275860D03*
X-211230Y-265860D03*
X-219890Y-260860D03*
X-107310Y-325860D03*
X-115970Y-320860D03*
X-124630Y-315860D03*
X-133290Y-310860D03*
X-141950Y-305860D03*
X-150610Y-300860D03*
G54D27*
X52690Y-403940D03*
X-54510D03*
%LPD*%
G75*
G36*
G01X-197290Y-417630D02*
X-188860D01*
G03X-188790Y-417730I1442J935D01*
G02X-189110Y-418370I-321J-240D01*
G01X-195080D01*
G03X-195720Y-418640I6J-908D01*
G01X-200690Y-423610D01*
G03X-200960Y-424250I638J-646D01*
G01Y-438520D01*
X-203830Y-441390D01*
X-204370D01*
X-204510Y-441050D01*
Y-441040D01*
X-201660Y-438190D01*
G03X-201390Y-437550I-638J646D01*
G01Y-421730D01*
X-197290Y-417630D01*
G37*
G36*
G01X-98190Y-432260D02*
X-83060D01*
G03X-82820Y-432560I1454J917D01*
G02X-83110Y-433240I-287J-280D01*
G01X-98240D01*
G03X-98480Y-432940I-1454J-917D01*
G02X-98190Y-432260I287J280D01*
G37*
G54D10*
X-435000Y-435000D03*
Y435000D03*
X-400000Y-400000D03*
Y400000D03*
X400000Y-400000D03*
Y400000D03*
X435000Y-435000D03*
Y435000D03*
G54D20*
G01X-400000Y-410710D02*
Y-400000D01*
G01D02*
Y-389290D01*
G01X-410710Y-400000D02*
X-400000D01*
G01D02*
X-389290D01*
G01X-400000Y389290D02*
Y400000D01*
G01D02*
Y410710D01*
G01X-410710Y400000D02*
X-400000D01*
G01D02*
X-389290D01*
G01X-335860Y56290D02*
Y60000D01*
G01D02*
Y63710D01*
G01X-339570Y60000D02*
X-335860D01*
G01D02*
X-332150D01*
G01X-320860Y-119680D02*
Y-115970D01*
G01D02*
Y-112260D01*
G01X-324570Y-115970D02*
X-320860D01*
G01D02*
X-317150D01*
G01X-285710Y0D02*
X0D01*
G01X-260860Y216180D02*
Y219890D01*
G01D02*
Y223600D01*
G01X-264570Y219890D02*
X-260860D01*
G01D02*
X-257150D01*
G01X-219890Y-264570D02*
Y-260860D01*
G01D02*
Y-257150D01*
G01X-223600Y-260860D02*
X-219890D01*
G01D02*
X-216180D01*
G01X-115970Y317150D02*
Y320860D01*
G01D02*
Y324570D01*
G01X-119680Y320860D02*
X-115970D01*
G01D02*
X-112260D01*
G01X-60000Y-339570D02*
Y-335860D01*
G01D02*
Y-332150D01*
G01X-63710Y-335860D02*
X-60000D01*
G01D02*
X-56290D01*
G01X0Y-285710D02*
Y0D01*
G01D02*
Y285710D01*
G01Y0D02*
X285710D01*
G01X60000Y332150D02*
Y335860D01*
G01D02*
Y339570D01*
G01X56290Y335860D02*
X60000D01*
G01D02*
X63710D01*
G01X115970Y-324570D02*
Y-320860D01*
G01D02*
Y-317150D01*
G01X112260Y-320860D02*
X115970D01*
G01D02*
X119680D01*
G01X233600Y-438510D02*
Y-427950D01*
G01D02*
Y-417390D01*
G01X228950Y-427950D02*
X233600D01*
G01D02*
X238250D01*
G01X219890Y257150D02*
Y260860D01*
G01D02*
Y264570D01*
G01X216180Y260860D02*
X219890D01*
G01D02*
X223600D01*
G01X252100Y-444410D02*
Y-439760D01*
G01D02*
Y-435110D01*
G01X241540Y-439760D02*
X252100D01*
G01D02*
X262660D01*
G01X260860Y-223600D02*
Y-219890D01*
G01D02*
Y-216180D01*
G01X257150Y-219890D02*
X260860D01*
G01D02*
X264570D01*
G01X320860Y112260D02*
Y115970D01*
G01D02*
Y119680D01*
G01X317150Y115970D02*
X320860D01*
G01D02*
X324570D01*
G01X335860Y-63710D02*
Y-60000D01*
G01D02*
Y-56290D01*
G01X332150Y-60000D02*
X335860D01*
G01D02*
X339570D01*
G01X389290Y-400000D02*
X400000D01*
G01X389290Y400000D02*
X400000D01*
G01Y-410710D02*
Y-400000D01*
G01D02*
Y-389290D01*
G01Y-400000D02*
X410710D01*
G01X400000Y389290D02*
Y400000D01*
G01D02*
Y410710D01*
G01Y400000D02*
X410710D01*
G54D11*
X-425700Y-47300D03*
X-421100Y-25500D03*
X-421090Y-22940D03*
X-430660Y-2470D03*
Y-5030D03*
Y2650D03*
Y90D03*
X-442400Y27750D03*
X-435200Y169000D03*
X-403600Y-47600D03*
X-407730Y-20380D03*
X-399040Y-22940D03*
X-399050Y-25500D03*
X-405200Y27750D03*
X-405000Y169000D03*
X-359250Y-18010D03*
Y-12890D03*
Y-7770D03*
Y-2650D03*
X-362650Y24460D03*
X-360150Y52580D03*
Y74520D03*
X-330350Y-124930D03*
X-338270Y-136050D03*
X-338750Y-110370D03*
X-349230Y-117050D03*
X-344600Y-62250D03*
X-355500Y-15450D03*
Y-10330D03*
Y-5210D03*
Y-90D03*
X-349500Y57490D03*
Y74310D03*
X-344600Y100250D03*
X-338950Y161650D03*
X-329200Y273700D03*
X-322250Y-157820D03*
X-301000Y-40000D03*
X-316000Y-10000D03*
X-311000Y-20000D03*
X-306000Y-30000D03*
X-326000Y10000D03*
X-321000Y0D03*
X-298590Y199780D03*
X-268650Y-426950D03*
X-272400Y-429510D03*
Y-424390D03*
X-268650Y-421830D03*
Y-411590D03*
X-272400Y-414150D03*
X-268650Y-416710D03*
X-272400Y-419270D03*
X-287320Y-154340D03*
X-268660Y-166660D03*
X-277990Y-160500D03*
X-296000Y-50000D03*
X-291000Y-60000D03*
X-280670Y115860D03*
X-281340Y104700D03*
X-282010Y93540D03*
X-278660Y149340D03*
X-279330Y138180D03*
X-280000Y127020D03*
X-277320Y171660D03*
X-277990Y160500D03*
X-272560Y224070D03*
X-285440Y225700D03*
X-274460Y244700D03*
X-245600Y-276510D03*
X-239280Y-266040D03*
X-240670Y-185140D03*
X-259330Y-172820D03*
X-250000Y-178980D03*
X-264140Y238630D03*
X-218550Y-432000D03*
X-208900D03*
X-211380Y-424320D03*
X-208120Y-426880D03*
Y-421760D03*
X-230950Y-406410D03*
Y-403850D03*
X-218550Y-408970D03*
X-208900Y-403850D03*
Y-406410D03*
X-211380Y-408970D03*
X-208120Y-411530D03*
X-211380Y-414090D03*
X-208120Y-416650D03*
X-211380Y-419200D03*
X-209750Y-372250D03*
X-224750Y-384450D03*
X-218150Y-302950D03*
X-224720Y-274460D03*
X-226600Y-287490D03*
X-218150Y-287050D03*
X-231340Y-191300D03*
X-222010Y-197460D03*
X-237550Y341750D03*
X-196500Y-429440D03*
X-187400Y-426960D03*
Y-421840D03*
X-183650Y-424400D03*
X-187400Y-411600D03*
X-183650Y-414160D03*
X-187400Y-416720D03*
X-183650Y-419280D03*
Y-409040D03*
X-202700Y-385300D03*
X-186650Y-377660D03*
X-196560Y-366940D03*
X-204440Y-358560D03*
X-191960Y-352000D03*
X-185470Y-304910D03*
X-186650Y-321850D03*
X-191300Y231340D03*
X-197460Y222010D03*
X-178980Y250000D03*
X-185140Y240670D03*
X-164140Y-390640D03*
X-156250Y-372450D03*
X-177590Y-363350D03*
X-156450Y-351900D03*
X-177590Y-343000D03*
X-171660Y-277320D03*
X-149340Y-278660D03*
X-160500Y-277990D03*
X-166660Y268660D03*
X-172820Y259330D03*
X-154340Y287320D03*
X-160500Y277990D03*
X-158020Y321000D03*
X-143200Y-429400D03*
X-121150D03*
Y-426840D03*
X-143200Y-403810D03*
Y-401250D03*
X-134500Y-406370D03*
X-138180Y-279330D03*
X-127020Y-280000D03*
X-124630Y329900D03*
X-135250Y337520D03*
X-103000Y-427050D03*
X-107830Y-424280D03*
X-105300Y-431350D03*
X-99700Y-434150D03*
X-106300Y-438000D03*
X-112450Y-403810D03*
Y-401250D03*
Y-408930D03*
X-105910Y-390640D03*
X-90080Y-334140D03*
X-89490Y-329920D03*
X-115860Y-280670D03*
X-104700Y-281340D03*
X-93540Y-282010D03*
X-116250Y348480D03*
X-110070Y338300D03*
X-58900Y-447850D03*
Y-432050D03*
X-81600Y-431350D03*
X-78500Y-434150D03*
X-76550Y-438000D03*
X-66200Y-408100D03*
X-78500Y-415100D03*
X-74150Y-411500D03*
X-58960Y-413040D03*
X-64110Y-390640D03*
X-85660Y-333350D03*
X-74460Y-348350D03*
X-74620Y-359950D03*
X-57640Y-348350D03*
X-60000Y291000D03*
X-65200Y344810D03*
X-34650Y-447950D03*
X-42750D03*
X-50800Y-447900D03*
Y-432100D03*
X-42750Y-432150D03*
X-34650D03*
X-48450Y-384340D03*
X-47600Y-363150D03*
X-28450Y-384340D03*
X-33450D03*
X-38450D03*
X-43450D03*
X-52680Y-359950D03*
X-50000Y296000D03*
X-30000Y306000D03*
X-40000Y301000D03*
X-2300Y-448050D03*
X-10350Y-448000D03*
X-18400D03*
X-26500Y-447950D03*
Y-432150D03*
X-18400Y-432200D03*
X-10350D03*
X-2300Y-432250D03*
X-24610Y-360750D03*
X1550Y-384340D03*
X-3450D03*
X-8450D03*
X-13450D03*
X-18450D03*
X-23450D03*
X-10000Y-326000D03*
X0Y-321000D03*
X-10000Y316000D03*
X-20000Y311000D03*
X0Y321000D03*
X13850Y-448150D03*
X22000Y-448200D03*
X30150Y-448300D03*
X5800Y-448100D03*
Y-432300D03*
X22000Y-432400D03*
X30150Y-432500D03*
X16550Y-423550D03*
X6550D03*
X13850Y-432350D03*
X11550Y-384340D03*
X6550D03*
X31550D03*
X21550D03*
X16550D03*
X26550D03*
X21600Y-360200D03*
X29950D03*
X10000Y-316000D03*
X20000Y-311000D03*
X30000Y-306000D03*
X10000Y326000D03*
X24310Y358400D03*
X38350Y-448250D03*
X46500Y-448150D03*
X54650Y-448250D03*
X38350Y-432450D03*
X46500Y-432350D03*
X54650Y-432450D03*
X36550Y-384340D03*
X46550D03*
X41550D03*
X38050Y-360150D03*
X46150D03*
X54350Y-360200D03*
X40000Y-301000D03*
X50000Y-296000D03*
X60000Y-291000D03*
X57490Y349850D03*
X52580Y360950D03*
X62900Y-448200D03*
X84150Y-433800D03*
X77100Y-436650D03*
X62900Y-432400D03*
X62600Y-360200D03*
X74310Y349850D03*
X74520Y360950D03*
X102990Y-416550D03*
X100800Y-419110D03*
Y-413990D03*
X102990Y-401190D03*
Y-406310D03*
X100800Y-403750D03*
Y-408870D03*
X102990Y-411430D03*
X110220Y-339400D03*
X116100Y-350530D03*
X115860Y280670D03*
X104700Y281340D03*
X93540Y282010D03*
X142850Y-421950D03*
X151650Y-396360D03*
Y-393800D03*
X142850Y-398920D03*
X147300Y-375900D03*
X124780Y-331000D03*
X135100Y-339570D03*
X146100Y-349700D03*
X149340Y278660D03*
X138180Y279330D03*
X127020Y280000D03*
X164900Y-421950D03*
Y-419390D03*
Y-393800D03*
X173240Y-396360D03*
X176040Y-411710D03*
X173700Y-414270D03*
X176040Y-416830D03*
X173700Y-409150D03*
X176030Y-398920D03*
X169250Y-375900D03*
X177600Y-375850D03*
X170810Y-352040D03*
X173150Y-354600D03*
Y-344360D03*
X170810Y-341800D03*
Y-336690D03*
X173150Y-334130D03*
X170810Y-331570D03*
X173150Y-349480D03*
X170810Y-346920D03*
X173150Y-339250D03*
X157970Y-321600D03*
X173150Y-329010D03*
X170810Y-326450D03*
X154340Y-287320D03*
X160500Y-277990D03*
X166660Y-268660D03*
X172820Y-259330D03*
X178980Y-250000D03*
X171660Y277320D03*
X160500Y277990D03*
X158650Y318100D03*
X199650Y-376000D03*
X204500Y-354600D03*
X194240Y-352040D03*
X185140Y-240670D03*
X191300Y-231340D03*
X197460Y-222010D03*
X192170Y301810D03*
X240670Y185140D03*
X231340Y191300D03*
X222010Y197460D03*
X238630Y265090D03*
X224070Y273510D03*
X225850Y287340D03*
X266150Y-423300D03*
X268650D03*
X271150D03*
X266150Y-410800D03*
Y-413300D03*
Y-415800D03*
Y-418300D03*
Y-420800D03*
X268650Y-410800D03*
Y-413300D03*
Y-415800D03*
Y-418300D03*
Y-420800D03*
X271150Y-410800D03*
Y-413300D03*
Y-415800D03*
Y-418300D03*
Y-420800D03*
X271350Y-391750D03*
X268850D03*
X266350D03*
X263850D03*
X261350D03*
X258850D03*
X271350Y-394250D03*
X268850D03*
X266350D03*
X263850D03*
X261350D03*
X258850D03*
X271350Y-396750D03*
X268850D03*
X266350D03*
X263850D03*
X261350D03*
X258850D03*
X258700Y-405950D03*
X261200D03*
X263700D03*
X266200D03*
X268700D03*
X271200D03*
X258700Y-403450D03*
X261200D03*
X263700D03*
X266200D03*
X268700D03*
X271200D03*
X258700Y-400950D03*
X261200D03*
X263700D03*
X266200D03*
X268700D03*
X271200D03*
X271500Y-382850D03*
X269000D03*
X266500D03*
X264000D03*
X261500D03*
X259000D03*
X271500Y-385350D03*
X269000D03*
X266500D03*
X264000D03*
X261500D03*
X259000D03*
X271500Y-387850D03*
X269000D03*
X266500D03*
X264000D03*
X261500D03*
X259000D03*
X246990Y-331550D03*
Y-346910D03*
X244650Y-344350D03*
X246990Y-341790D03*
X244650Y-339230D03*
X246990Y-336670D03*
X244650Y-334110D03*
X269210Y-313950D03*
X244650Y-328990D03*
X261950Y-263700D03*
X264490Y-239080D03*
X272910Y-224520D03*
X268660Y166660D03*
X259330Y172820D03*
X250000Y178980D03*
X244850Y276360D03*
X295900Y-421450D03*
X293400D03*
X290900D03*
X288400D03*
X285900D03*
X283400D03*
X295900Y-416450D03*
X293400D03*
X290900D03*
X288400D03*
X285900D03*
X283400D03*
X295900Y-418950D03*
X293400D03*
X290900D03*
X288400D03*
X285900D03*
X283400D03*
X295700Y-408000D03*
X293200D03*
X290700D03*
X288200D03*
X285700D03*
X283200D03*
X295700Y-410500D03*
X293200D03*
X290700D03*
X288200D03*
X285700D03*
X283200D03*
X295700Y-413000D03*
X293200D03*
X290700D03*
X288200D03*
X285700D03*
X283200D03*
X282750Y-327700D03*
X285250D03*
X287750D03*
X290250D03*
X292750D03*
X295250D03*
X282750Y-325200D03*
X285250D03*
X287750D03*
X290250D03*
X292750D03*
X295250D03*
X282750Y-322700D03*
X285250D03*
X287750D03*
X290250D03*
X292750D03*
X295250D03*
X274760Y-244800D03*
X294900Y-253940D03*
X291150Y-256500D03*
X294900Y-259060D03*
X291150Y-261620D03*
X285740Y-225800D03*
X297990Y-200430D03*
X277320Y-171660D03*
X277990Y-160500D03*
X278660Y-149340D03*
X279330Y-138180D03*
X280000Y-127020D03*
X280670Y-115860D03*
X281340Y-104700D03*
X282010Y-93540D03*
X301000Y40000D03*
X296000Y50000D03*
X291000Y60000D03*
X287320Y154340D03*
X277990Y160500D03*
X330650Y-399250D03*
Y-401750D03*
Y-404250D03*
X330700Y-393000D03*
Y-395500D03*
X330800Y-373200D03*
Y-381600D03*
Y-384100D03*
Y-386600D03*
Y-375700D03*
Y-378200D03*
X330700Y-390500D03*
X306900Y-338000D03*
Y-340500D03*
X309400Y-338000D03*
Y-340500D03*
X311900Y-338000D03*
Y-340500D03*
X306900Y-333000D03*
Y-335500D03*
X309400Y-333000D03*
Y-335500D03*
X311900Y-333000D03*
Y-335500D03*
X306900Y-328000D03*
Y-330500D03*
X309400Y-328000D03*
Y-330500D03*
X311900Y-328000D03*
Y-330500D03*
X329700Y-321800D03*
X332200D03*
X318300Y-321700D03*
X320800D03*
X323300D03*
X327200Y-321800D03*
X329700Y-311800D03*
X332200D03*
X329700Y-309300D03*
X332200D03*
X329700Y-314300D03*
Y-316800D03*
X332200Y-314300D03*
Y-316800D03*
X329700Y-319300D03*
X332200D03*
X318300Y-309200D03*
Y-311700D03*
X320800Y-309200D03*
Y-311700D03*
X323300Y-309200D03*
Y-311700D03*
X327200Y-311800D03*
Y-309300D03*
X318300Y-314200D03*
Y-316700D03*
X320800Y-314200D03*
Y-316700D03*
X323300Y-314200D03*
Y-316700D03*
X318300Y-319200D03*
X320800D03*
X323300D03*
X327200Y-314300D03*
Y-316800D03*
Y-319300D03*
X309750Y-261350D03*
X309300Y-266550D03*
X325600Y-126300D03*
X326000Y-10000D03*
X316000Y10000D03*
X311000Y20000D03*
X321000Y0D03*
X306000Y30000D03*
X329400Y125280D03*
X321350Y158220D03*
X315180Y168910D03*
X340650Y-399250D03*
Y-401750D03*
Y-404250D03*
X340700Y-393000D03*
Y-395500D03*
X343150Y-399250D03*
Y-401750D03*
Y-404250D03*
X343200Y-393000D03*
Y-395500D03*
X338150Y-399250D03*
X335650D03*
X338150Y-401750D03*
X335650D03*
X338150Y-404250D03*
X335650D03*
X333150Y-399250D03*
Y-401750D03*
Y-404250D03*
X338200Y-393000D03*
X335700D03*
X338200Y-395500D03*
X335700D03*
X333200Y-393000D03*
Y-395500D03*
X343300Y-373200D03*
X340800D03*
X343300Y-381600D03*
X340800D03*
X343300Y-384100D03*
X340800D03*
X343300Y-386600D03*
X340800D03*
X343300Y-375700D03*
X340800D03*
X343300Y-378200D03*
X340800D03*
X340700Y-390500D03*
X343200D03*
X338300Y-373200D03*
X335800D03*
X338300Y-381600D03*
X335800D03*
X338300Y-384100D03*
X335800D03*
X338300Y-386600D03*
X335800D03*
X338300Y-375700D03*
X335800D03*
X338300Y-378200D03*
X335800D03*
X333300Y-373200D03*
Y-381600D03*
Y-384100D03*
Y-386600D03*
Y-375700D03*
Y-378200D03*
X338200Y-390500D03*
X335700D03*
X333200D03*
X335950Y-321850D03*
X338450D03*
X340950D03*
X335950Y-311850D03*
X338450D03*
X340950D03*
X335950Y-309350D03*
X338450D03*
X340950D03*
X335950Y-314350D03*
Y-316850D03*
X338450Y-314350D03*
Y-316850D03*
X340950Y-314350D03*
Y-316850D03*
X335950Y-319350D03*
X338450D03*
X340950D03*
X354200Y-319850D03*
X349550Y-251420D03*
X338550Y-246300D03*
Y-248860D03*
X350010Y-232260D03*
X359050Y-74620D03*
X347450Y-74460D03*
X359050Y-52680D03*
X347450Y-57640D03*
X360400Y-24410D03*
X343800Y62400D03*
X348130Y117850D03*
X337800Y110720D03*
X337170Y136850D03*
X343800Y225300D03*
X371600Y-271890D03*
Y-274450D03*
Y-248860D03*
Y-246300D03*
Y-266770D03*
Y-269330D03*
X366050Y-227000D03*
X395850Y-39450D03*
X397850Y143100D03*
X430150Y-39450D03*
X436950Y143100D03*
G54D21*
G01X-442400Y27750D02*
X-405200D01*
G01X-133290Y310860D02*
X-137580Y315150D01*
X-189900D01*
X-203700Y301350D01*
X-382550D01*
X-392600Y291300D01*
Y-11050D01*
X-367900Y-35750D01*
Y-440790D01*
X-364090Y-444600D01*
X-195600D01*
X-193650Y-442650D01*
Y-425150D01*
X-190340Y-421840D01*
X-187400D01*
G01X-183650Y-424400D02*
X-189250D01*
X-190700Y-425850D01*
Y-443960D01*
X-193590Y-446850D01*
X-369700D01*
X-375850Y-440700D01*
Y-38700D01*
X-397650Y-16900D01*
Y338600D01*
X-375000Y361250D01*
X14610D01*
X40000Y335860D01*
G01X-183650Y-419280D02*
X-195080D01*
X-200050Y-424250D01*
Y-438900D01*
X-203450Y-442300D01*
X-357450D01*
X-361200Y-438550D01*
Y-31600D01*
X-386550Y-6250D01*
Y191800D01*
X-373350Y205000D01*
X-275070D01*
X-270860Y202570D01*
G01X-187400Y-416720D02*
X-197670D01*
X-202300Y-421350D01*
Y-437550D01*
X-205150Y-440400D01*
X-349790D01*
X-354100Y-436090D01*
Y-31150D01*
X-382150Y-3100D01*
Y36850D01*
X-379000Y40000D01*
X-335860D01*
G01X-183650Y-414160D02*
X-199600D01*
X-204750Y-419310D01*
Y-434350D01*
X-208450Y-438050D01*
X-338000D01*
X-341400Y-434650D01*
Y-391010D01*
X-346800Y-385610D01*
Y-169230D01*
X-310860Y-133290D01*
G01X-268650Y-416710D02*
X-270750D01*
X-271160Y-416300D01*
X-294700D01*
X-305860Y-405140D01*
Y-141950D01*
G01X-326000Y10000D02*
Y-87350D01*
X-287320Y-154340D01*
G01X-321000Y0D02*
Y-86020D01*
X-320980Y-86040D01*
X-277990Y-160500D01*
G01X-316000Y-10000D02*
Y-12100D01*
X-316060Y-12160D01*
Y-84580D01*
X-316040Y-84600D01*
X-268660Y-166660D01*
G01X-311000Y-20000D02*
Y-83320D01*
X-259330Y-172820D01*
G01X-306000Y-30000D02*
Y-81970D01*
X-250000Y-178980D01*
G01X-301000Y-40000D02*
Y-42100D01*
X-300930Y-42170D01*
Y-80780D01*
X-300910Y-80800D01*
X-240670Y-185140D01*
G01X-301000Y-40000D02*
Y80660D01*
X-300980Y80680D01*
X-280670Y115860D01*
G01X-278660Y149340D02*
X-316000Y84690D01*
Y-10000D01*
G01X-311000Y-20000D02*
Y83340D01*
X-310980Y83360D01*
X-279330Y138180D01*
G01X-306000Y-30000D02*
Y81980D01*
X-280000Y127020D01*
G01X-326000Y10000D02*
Y87360D01*
X-325980Y87380D01*
X-277320Y171660D01*
G01X-321000Y0D02*
Y86010D01*
X-277990Y160500D01*
G01X-141950Y305860D02*
X-145290Y309200D01*
X-184150D01*
X-219650Y273700D01*
X-329200D01*
G01X-171660Y-277320D02*
X-223620Y-247320D01*
X-223730D01*
X-247170Y-223880D01*
X-287320Y-154340D01*
G01X-160500Y-277990D02*
X-221120Y-242990D01*
X-221450D01*
X-242540Y-221900D01*
X-277990Y-160500D01*
G01X-296000Y-50000D02*
Y-79320D01*
X-295970Y-79350D01*
X-231340Y-191300D01*
G01X-291000Y-60000D02*
Y-77960D01*
X-222010Y-197460D01*
G01X-296000Y-50000D02*
Y79310D01*
X-281340Y104700D01*
G01X-282010Y93540D02*
X-291000Y77960D01*
Y-60000D01*
G01X-185140Y240670D02*
X-211640Y225370D01*
X-225620Y211390D01*
Y211210D01*
X-280670Y115860D01*
G01X-191300Y231340D02*
X-208880Y221190D01*
X-221240Y208830D01*
Y208800D01*
X-281340Y104700D01*
G01X-197460Y222010D02*
X-206550Y216760D01*
X-216910Y206400D01*
Y206300D01*
X-282010Y93540D01*
G01X-172820Y259330D02*
X-216210Y234280D01*
X-216250D01*
X-234230Y216300D01*
X-279330Y138180D01*
G01X-178980Y250000D02*
X-213880Y229850D01*
X-229900Y213830D01*
Y213800D01*
X-280000Y127020D01*
G01X-154340Y287320D02*
X-223880Y247170D01*
Y247060D01*
X-247320Y223620D01*
X-277320Y171660D01*
G01X-166660Y268660D02*
X-219050Y238410D01*
X-238660Y218800D01*
Y218620D01*
X-278660Y149340D01*
G01X-160500Y277990D02*
X-221900Y242540D01*
X-242990Y221450D01*
Y221120D01*
X-277990Y160500D01*
G01X-149340Y-278660D02*
X-218620Y-238660D01*
X-218800D01*
X-238410Y-219050D01*
X-268660Y-166660D01*
G01X-138180Y-279330D02*
X-216300Y-234230D01*
Y-234190D01*
X-234280Y-216210D01*
X-259330Y-172820D01*
G01X-127020Y-280000D02*
X-213800Y-229900D01*
X-213830D01*
X-229850Y-213880D01*
X-250000Y-178980D01*
G01X-115860Y-280670D02*
X-211210Y-225620D01*
X-211390D01*
X-225370Y-211640D01*
X-240670Y-185140D01*
G01X-218150Y-302950D02*
Y-287050D01*
G01X-104700Y-281340D02*
X-208800Y-221240D01*
X-208830D01*
X-221190Y-208880D01*
X-231340Y-191300D01*
G01X-93540Y-282010D02*
X-206300Y-216910D01*
X-206400D01*
X-216760Y-206550D01*
X-222010Y-197460D01*
G01X-187400Y-426960D02*
X-157710D01*
X-150750Y-420000D01*
X-129150D01*
X-124850Y-415700D01*
Y-382250D01*
X-120950Y-378350D01*
X-67450D01*
X-67400Y-378300D01*
X-17100D01*
X-10000Y-371200D01*
Y-335860D01*
G01X-187400Y-411600D02*
X-190800Y-408200D01*
Y-362690D01*
X-204800Y-348690D01*
Y-274730D01*
X-202570Y-270860D01*
G01X-40000Y-335860D02*
Y-367040D01*
X-44810Y-371850D01*
X-139050D01*
X-147600Y-380400D01*
Y-404900D01*
X-151740Y-409040D01*
X-183650D01*
G01X-191300Y231340D02*
X-79310Y296000D01*
X-50000D01*
G01X-60000Y291000D02*
X-77980D01*
X-78000Y290980D01*
X-197460Y222010D01*
G01X-40000Y301000D02*
X-42100D01*
X-42160Y300940D01*
X-80760D01*
X-80780Y300920D01*
X-185140Y240670D01*
G01X-10000Y-326000D02*
X-87350D01*
X-93510Y-322450D01*
X-171660Y-277320D01*
G01X0Y-321000D02*
X-86010D01*
X-160500Y-277990D01*
G01X-20000Y311000D02*
X-83340D01*
X-83360Y310980D01*
X-172820Y259330D01*
G01X-30000Y306000D02*
X-82000D01*
X-82020Y305980D01*
X-178980Y250000D01*
G01X10000Y326000D02*
X-87350D01*
X-154340Y287320D01*
G01X-10000Y316000D02*
X-84670D01*
X-166660Y268660D01*
G01X0Y321000D02*
X-86200D01*
X-86460Y320740D01*
X-160500Y277990D01*
G01X-149340Y-278660D02*
X-84670Y-316000D01*
X10000D01*
G01X20000Y-311000D02*
X-83330D01*
X-138180Y-279330D01*
G01X30000Y-306000D02*
X-82000D01*
X-127020Y-280000D01*
G01X-58900Y-447850D02*
X-68200D01*
X-71700Y-444350D01*
Y-430290D01*
X-74940Y-427050D01*
X-103000D01*
G01X-107830Y-424280D02*
X-58620D01*
X-50800Y-432100D01*
G01X-105300Y-431350D02*
X-81600D01*
G01X-99700Y-434150D02*
X-78500D01*
G01X-106300Y-438000D02*
X-76550D01*
G01X13850Y-432350D02*
X8750Y-427250D01*
X-1050D01*
X-8000Y-420300D01*
X-84050D01*
X-95420Y-408930D01*
X-112450D01*
G01X40000Y-301000D02*
X-80640D01*
X-115860Y-280670D01*
G01X50000Y-296000D02*
X-79520D01*
X-79810Y-295710D01*
X-104700Y-281340D01*
G01X-93540Y-282010D02*
X-77970Y-291000D01*
X60000D01*
G01X46500Y-432350D02*
X40600Y-426450D01*
Y-415440D01*
X35410Y-410250D01*
X-61250D01*
X-63400Y-408100D01*
X-66200D01*
G01X54650Y-432450D02*
X51500Y-435600D01*
X36650D01*
X34300Y-433250D01*
Y-424150D01*
X26850Y-416700D01*
X-62450D01*
X-64050Y-415100D01*
X-78500D01*
G01X62900Y-432400D02*
X38500Y-408000D01*
X-2200D01*
X-3550Y-406650D01*
Y-400910D01*
X-8610Y-395850D01*
X-71650D01*
X-74150Y-398350D01*
Y-411500D01*
G01X-60000Y291000D02*
X77990D01*
X78010Y290980D01*
X93540Y282010D01*
G01X-50000Y296000D02*
X79400D01*
X79520Y295880D01*
X104700Y281340D01*
G01X-30000Y306000D02*
X82000D01*
X82020Y305980D01*
X127020Y280000D01*
G01X-40000Y301000D02*
X80810D01*
X81030Y300780D01*
X115860Y280670D01*
G01X-2300Y-432250D02*
X7550Y-442100D01*
X78650D01*
X84150Y-436600D01*
Y-433800D01*
G01X0Y-335860D02*
Y-339760D01*
X-550Y-340310D01*
Y-400450D01*
X3300Y-404300D01*
X43790D01*
X51600Y-412110D01*
Y-415840D01*
X63710Y-427950D01*
X107350D01*
X112000Y-423300D01*
Y-418350D01*
X107640Y-413990D01*
X100800D01*
G01X-10000Y-326000D02*
X87360D01*
X87380Y-325980D01*
X154340Y-287320D01*
G01X160500Y-277990D02*
X86460Y-320740D01*
X86200Y-321000D01*
X0D01*
G01X-10000Y316000D02*
X-7900D01*
X-7810Y315910D01*
X84830D01*
X149340Y278660D01*
G01X-20000Y311000D02*
X83320D01*
X138180Y279330D01*
G01X0Y321000D02*
X86020D01*
X86040Y320980D01*
X160500Y277990D01*
G01X77100Y-436650D02*
X74900Y-438850D01*
X12350D01*
X5800Y-432300D01*
G01X102990Y-416550D02*
X105550D01*
X107250Y-418250D01*
Y-421000D01*
X104350Y-423900D01*
X84050D01*
X79100Y-418950D01*
Y-400550D01*
X76050Y-397500D01*
X14800D01*
X9450Y-392150D01*
Y-340310D01*
X10000Y-339760D01*
Y-335860D01*
G01X20000D02*
Y-339760D01*
X19100Y-340660D01*
Y-388600D01*
X23950Y-393450D01*
X78450D01*
X82600Y-397600D01*
Y-416260D01*
X85450Y-419110D01*
X100800D01*
G01X21550Y-384340D02*
Y-369900D01*
X23650Y-367800D01*
X68650D01*
X72350Y-364100D01*
Y-341800D01*
X81350Y-332800D01*
X115750D01*
X120950Y-327600D01*
X130950D01*
X136150Y-332800D01*
X161150D01*
X165040Y-336690D01*
X170810D01*
G01X26550Y-384340D02*
Y-376650D01*
X32300Y-370900D01*
X71710D01*
X75350Y-367260D01*
Y-344050D01*
X83350Y-336050D01*
X157950D01*
X161150Y-339250D01*
X173150D01*
G01X10000Y-316000D02*
X84670D01*
X166660Y-268660D01*
G01X20000Y-311000D02*
X83410D01*
X83530Y-310880D01*
X172820Y-259330D01*
G01X30000Y-306000D02*
X82000D01*
X82030Y-305970D01*
X178980Y-250000D01*
G01X10000Y326000D02*
X87280D01*
X171660Y277320D01*
G01X36550Y-384340D02*
Y-379350D01*
X39000Y-376900D01*
X78850D01*
X81050Y-374700D01*
Y-349800D01*
X85150Y-345700D01*
X168190D01*
X169530Y-344360D01*
X173150D01*
G01X31550Y-384340D02*
Y-377550D01*
X35350Y-373750D01*
X75250D01*
X78450Y-370550D01*
Y-347800D01*
X83250Y-343000D01*
X167510D01*
X168710Y-341800D01*
X170810D01*
G01X40000Y-301000D02*
X80660D01*
X80680Y-300980D01*
X185140Y-240670D01*
G01X50000Y-296000D02*
X52100D01*
X52150Y-296050D01*
X79210D01*
X191300Y-231340D01*
G01X60000Y-291000D02*
X62100D01*
X62150Y-290950D01*
X78060D01*
X78080Y-290930D01*
X197460Y-222010D01*
G01X50000Y335860D02*
X58390Y344250D01*
X150100D01*
X158650Y335700D01*
Y318100D01*
G01X133290Y-310860D02*
X137060Y-311870D01*
X137730Y-311200D01*
X185790D01*
X190850Y-316260D01*
Y-354140D01*
X186190Y-358800D01*
X94800D01*
X90250Y-363350D01*
Y-403700D01*
X95420Y-408870D01*
X100800D01*
G01X310860Y133290D02*
X314630Y132280D01*
X377720D01*
X382950Y127050D01*
Y-87500D01*
X344000Y-126450D01*
Y-234500D01*
X329700Y-248800D01*
X285660D01*
X272450Y-262010D01*
Y-364400D01*
X264000Y-372850D01*
X105300D01*
X102990Y-375160D01*
Y-401190D01*
G01X270860Y-202570D02*
X267090Y-203580D01*
X265710Y-202200D01*
X249900D01*
X245250Y-206850D01*
Y-241200D01*
X255100Y-251050D01*
Y-357750D01*
X249400Y-363450D01*
X94750D01*
X93150Y-365050D01*
Y-402300D01*
X97160Y-406310D01*
X102990D01*
G01X335860Y-40000D02*
X362900D01*
X372550Y-49650D01*
Y-84710D01*
X336700Y-120560D01*
Y-233160D01*
X326760Y-243100D01*
X282050D01*
X268700Y-256450D01*
Y-296500D01*
X264550Y-300650D01*
Y-318600D01*
X268700Y-322750D01*
Y-361350D01*
X261550Y-368500D01*
X98000D01*
X96300Y-370200D01*
Y-399250D01*
X100800Y-403750D01*
G01X202570Y270860D02*
X379390D01*
X389950Y260300D01*
Y-94200D01*
X378150Y-106000D01*
Y-275950D01*
X374300Y-279800D01*
X280050D01*
X276400Y-283450D01*
Y-366340D01*
X264640Y-378100D01*
X251500D01*
X248000Y-381600D01*
X110150D01*
X107400Y-384350D01*
Y-409550D01*
X105520Y-411430D01*
X102990D01*
G01X222010Y197460D02*
X216760Y206550D01*
X216660D01*
X206300Y216910D01*
X93540Y282010D01*
G01X240670Y185140D02*
X225370Y211640D01*
X211450Y225560D01*
X211300D01*
X211210Y225620D01*
X115860Y280670D01*
G01X231340Y191300D02*
X221190Y208880D01*
X208830Y221240D01*
X208800D01*
X104700Y281340D01*
G01X141950Y-305860D02*
X204960D01*
X208250Y-309150D01*
Y-328500D01*
X213860Y-334110D01*
X244650D01*
G01X250000Y178980D02*
X229850Y213880D01*
X213830Y229900D01*
X213800D01*
X127020Y280000D01*
G01X268660Y166660D02*
X238410Y219050D01*
X218910Y238550D01*
X218800D01*
X218620Y238660D01*
X149340Y278660D01*
G01X259330Y172820D02*
X234280Y216210D01*
Y216250D01*
X216300Y234230D01*
X138180Y279330D01*
G01X277990Y160500D02*
X242540Y221900D01*
X221630Y242810D01*
X221400D01*
X221170Y242950D01*
X160500Y277980D01*
Y277990D01*
G01X287320Y154340D02*
X247170Y223880D01*
X223730Y247320D01*
X223620D01*
X171660Y277320D01*
G01X211230Y-265860D02*
X214500Y-269130D01*
Y-325950D01*
X220100Y-331550D01*
X246990D01*
G01X219890Y-260860D02*
X226800Y-267770D01*
Y-323800D01*
X231990Y-328990D01*
X244650D01*
G01X296000Y50000D02*
Y79300D01*
X231340Y191300D01*
G01X291000Y60000D02*
Y77960D01*
X222010Y197460D01*
G01X246990Y-336670D02*
X249630D01*
X252050Y-334250D01*
Y-254250D01*
X242450Y-244650D01*
Y-197350D01*
X244880Y-194920D01*
X272090D01*
X275860Y-193910D01*
G01X306000Y30000D02*
Y81910D01*
X250000Y178980D01*
G01X301000Y40000D02*
Y80640D01*
X240670Y185140D01*
G01X316000Y10000D02*
Y12100D01*
X316090Y12190D01*
Y84530D01*
X316060Y84560D01*
X268660Y166660D01*
G01X259330Y172820D02*
X311230Y82920D01*
X311250Y82900D01*
Y22350D01*
X311000Y22100D01*
Y20000D01*
G01X287500Y-402500D02*
Y-400000D01*
G01X326000Y-10000D02*
Y-87360D01*
X325980Y-87380D01*
X277320Y-171660D01*
G01X321000Y0D02*
Y-86600D01*
X320190Y-87410D01*
X277990Y-160500D01*
G01X316000Y10000D02*
Y-85500D01*
X314870Y-86630D01*
X278660Y-149340D01*
G01X311000Y20000D02*
Y-83400D01*
X310900Y-83500D01*
X279330Y-138180D01*
G01X306000Y30000D02*
Y-82600D01*
X305160Y-83440D01*
X280000Y-127020D01*
G01X301000Y40000D02*
Y-80700D01*
X300930Y-80770D01*
X280670Y-115860D01*
G01X296000Y50000D02*
Y-79790D01*
X295340Y-80450D01*
X281340Y-104700D01*
G01X291000Y60000D02*
Y-78500D01*
X290280Y-79220D01*
X282010Y-93540D01*
G01X326000Y-10000D02*
Y-7900D01*
X325930Y-7830D01*
Y87470D01*
X287320Y154340D01*
G01X321000Y0D02*
Y2100D01*
X321080Y2180D01*
Y85870D01*
X277990Y160500D01*
G01X430150Y-39450D02*
X395850D01*
G01X436950Y143100D02*
X397850D01*
G54D12*
X-325860Y-107310D03*
X-107310Y325860D03*
X107310Y-325860D03*
X325860Y107310D03*
G54D22*
G01X-460000Y-480000D02*
G03I-15000J5000D01*
G01X-465000D02*
G03I-10000J5000D01*
G01X-495000Y-475000D02*
X-455000D01*
G01X-485000Y500000D02*
Y460000D01*
G01X-470000Y475000D02*
G03I-15000J5000D01*
G01X-475000D02*
G03I-10000J5000D01*
G01X-505000Y480000D02*
X-465000D01*
G01X-475000Y-455000D02*
Y-495000D01*
G01X-450000Y-450000D02*
X450000D01*
Y450000D01*
X325000D01*
X320000Y445000D01*
Y370000D01*
X-320000D01*
Y445000D01*
X-325000Y450000D01*
X-450000D01*
Y-450000D01*
G01X-376500Y-400000D02*
G03I-23500J0D01*
G01Y399930D02*
G03I-23500J2D01*
G01X275000Y0D02*
G03I-275000J0D01*
G01X0Y-9000D02*
Y9000D01*
G01Y-9000D02*
Y9000D01*
G01X-9000Y0D02*
X9000D01*
G01X-9000D02*
X9000D01*
G01X423500Y-400000D02*
G03I-23500J0D01*
G01Y399930D02*
G03I-23500J2D01*
G01X480000Y-450000D02*
Y-490000D01*
G01X495000Y-475000D02*
G03I-15000J5000D01*
G01X460000Y-470000D02*
X500000D01*
G01X490000Y-475000D02*
G03I-10000J5000D01*
G01Y455000D02*
G03I-15000J5000D01*
G01X475000Y480000D02*
Y440000D01*
G01X485000Y455000D02*
G03I-10000J5000D01*
G01X455000Y460000D02*
X495000D01*
G54D13*
X-335860Y-70000D03*
Y-60000D03*
Y-50000D03*
Y-40000D03*
Y-30000D03*
Y-20000D03*
Y-10000D03*
Y0D03*
Y10000D03*
Y20000D03*
Y30000D03*
Y40000D03*
Y50000D03*
Y60000D03*
X-325860Y107310D03*
X-295860Y-159270D03*
X-300860Y-150610D03*
X-305860Y-141950D03*
X-310860Y-133290D03*
X-315860Y-124630D03*
X-320860Y-115970D03*
Y115970D03*
X-315860Y124630D03*
X-310860Y133290D03*
X-305860Y141950D03*
X-300860Y150610D03*
X-295860Y159270D03*
X-265860Y-211230D03*
X-270860Y-202570D03*
X-275860Y-193910D03*
X-280860Y-185250D03*
X-285860Y-176590D03*
X-290860Y-167930D03*
Y167930D03*
X-285860Y176590D03*
X-280860Y185250D03*
X-275860Y193910D03*
X-270860Y202570D03*
X-265860Y211230D03*
X-255860Y-228550D03*
X-260860Y-219890D03*
Y219890D03*
X-211230Y-265860D03*
X-219890Y-260860D03*
X-228550Y255860D03*
X-219890Y260860D03*
X-211230Y265860D03*
X-176590Y-285860D03*
X-185250Y-280860D03*
X-193910Y-275860D03*
X-202570Y-270860D03*
Y270860D03*
X-193910Y275860D03*
X-185250Y280860D03*
X-176590Y285860D03*
X-150610Y-300860D03*
X-159270Y-295860D03*
X-167930Y-290860D03*
Y290860D03*
X-159270Y295860D03*
X-150610Y300860D03*
X-115970Y-320860D03*
X-124630Y-315860D03*
X-133290Y-310860D03*
X-141950Y-305860D03*
Y305860D03*
X-133290Y310860D03*
X-124630Y315860D03*
X-115970Y320860D03*
X-107310Y-325860D03*
X-60000Y-335860D03*
X-70000Y335860D03*
X-60000D03*
X-30000Y-335860D03*
X-40000D03*
X-50000D03*
Y335860D03*
X-40000D03*
X-30000D03*
X0Y-335860D03*
X-10000D03*
X-20000D03*
Y335860D03*
X-10000D03*
X0D03*
X30000Y-335860D03*
X20000D03*
X10000D03*
Y335860D03*
X20000D03*
X30000D03*
X60000Y-335860D03*
X50000D03*
X40000D03*
Y335860D03*
X50000D03*
X60000D03*
X70000Y-335860D03*
X115970Y-320860D03*
X107310Y325860D03*
X115970Y320860D03*
X150610Y-300860D03*
X141950Y-305860D03*
X133290Y-310860D03*
X124630Y-315860D03*
X150610Y300860D03*
X124630Y315860D03*
X133290Y310860D03*
X141950Y305860D03*
X176590Y-285860D03*
X167930Y-290860D03*
X159270Y-295860D03*
Y295860D03*
X167930Y290860D03*
X176590Y285860D03*
X202570Y-270860D03*
X193910Y-275860D03*
X185250Y-280860D03*
X211230Y-265860D03*
X202570Y270860D03*
X211230Y265860D03*
X185250Y280860D03*
X193910Y275860D03*
X228550Y-255860D03*
X219890Y-260860D03*
Y260860D03*
X265860Y-211230D03*
X260860Y-219890D03*
X270860Y-202570D03*
Y202570D03*
X255860Y228550D03*
X260860Y219890D03*
X265860Y211230D03*
X280860Y-185250D03*
X275860Y-193910D03*
X300860Y-150610D03*
X295860Y-159270D03*
X290860Y-167930D03*
X285860Y-176590D03*
X300860Y150610D03*
X285860Y176590D03*
X290860Y167930D03*
X295860Y159270D03*
X275860Y193910D03*
X280860Y185250D03*
X315860Y-124630D03*
X310860Y-133290D03*
X305860Y-141950D03*
X325860Y-107310D03*
X320860Y-115970D03*
Y115970D03*
X305860Y141950D03*
X310860Y133290D03*
X315860Y124630D03*
X335860Y-40000D03*
Y-50000D03*
Y-60000D03*
Y-10000D03*
Y-20000D03*
Y-30000D03*
Y20000D03*
Y10000D03*
Y0D03*
Y50000D03*
Y40000D03*
Y30000D03*
Y70000D03*
Y60000D03*
G54D23*
G01X295100Y-358200D02*
X290100D01*
G54D14*
X-335860Y70000D03*
X-70000Y-335860D03*
X70000Y335860D03*
X335860Y-70000D03*
G54D15*
X0Y0D03*
G54D16*
X-255860Y228550D03*
X-228550Y-255860D03*
X228550Y255860D03*
X255860Y-228550D03*
G54D17*
X-54510Y-403940D03*
X52690D03*
G54D18*
X233600Y-427950D03*
G54D19*
X252100Y-439760D03*
Y-416140D03*
M02*
