G04 DipTrace 2.4.0.1*
%INBottomSilk.gbr*%
%MOIN*%
%ADD40C,0.0139*%
%FSLAX44Y44*%
G04*
G70*
G90*
G75*
G01*
%LNBotSilk*%
%LPD*%
X18372Y34194D2*
D40*
X18415Y34280D1*
X18502Y34366D1*
X18587Y34409D1*
X18759D1*
X18846Y34366D1*
X18932Y34280D1*
X18975Y34194D1*
X19018Y34065D1*
Y33849D1*
X18975Y33721D1*
X18932Y33634D1*
X18846Y33548D1*
X18759Y33505D1*
X18587D1*
X18502Y33548D1*
X18415Y33634D1*
X18372Y33721D1*
X17880Y34108D2*
X17965Y34065D1*
X18052Y33978D1*
X18095Y33849D1*
Y33763D1*
X18052Y33634D1*
X17965Y33548D1*
X17880Y33505D1*
X17750D1*
X17664Y33548D1*
X17578Y33634D1*
X17534Y33763D1*
Y33849D1*
X17578Y33978D1*
X17664Y34065D1*
X17750Y34108D1*
X17880D1*
X16740Y34409D2*
Y33505D1*
Y33978D2*
X16826Y34065D1*
X16912Y34108D1*
X17042D1*
X17127Y34065D1*
X17214Y33978D1*
X17257Y33849D1*
Y33763D1*
X17214Y33634D1*
X17127Y33548D1*
X17042Y33505D1*
X16912D1*
X16826Y33548D1*
X16740Y33634D1*
X16462Y33849D2*
X15946D1*
Y33935D1*
X15989Y34022D1*
X16032Y34065D1*
X16118Y34108D1*
X16247D1*
X16333Y34065D1*
X16420Y33978D1*
X16462Y33849D1*
Y33763D1*
X16420Y33634D1*
X16333Y33548D1*
X16247Y33505D1*
X16118D1*
X16032Y33548D1*
X15946Y33634D1*
X14793Y33935D2*
X14405D1*
X14277Y33978D1*
X14233Y34022D1*
X14190Y34108D1*
Y34237D1*
X14233Y34322D1*
X14277Y34366D1*
X14405Y34409D1*
X14793D1*
Y33505D1*
X13396Y34108D2*
Y33505D1*
Y33978D2*
X13482Y34065D1*
X13568Y34108D1*
X13697D1*
X13783Y34065D1*
X13869Y33978D1*
X13912Y33849D1*
Y33763D1*
X13869Y33634D1*
X13783Y33548D1*
X13697Y33505D1*
X13568D1*
X13482Y33548D1*
X13396Y33634D1*
X13118Y34409D2*
X13075Y34366D1*
X13032Y34409D1*
X13075Y34453D1*
X13118Y34409D1*
X13075Y34108D2*
Y33505D1*
X12754Y34108D2*
Y33505D1*
Y33935D2*
X12624Y34065D1*
X12538Y34108D1*
X12410D1*
X12323Y34065D1*
X12280Y33935D1*
Y33505D1*
X11873Y34409D2*
Y33677D1*
X11830Y33548D1*
X11744Y33505D1*
X11658D1*
X12002Y34108D2*
X11701D1*
X11380Y33849D2*
X10864D1*
Y33935D1*
X10907Y34022D1*
X10949Y34065D1*
X11036Y34108D1*
X11165D1*
X11251Y34065D1*
X11337Y33978D1*
X11380Y33849D1*
Y33763D1*
X11337Y33634D1*
X11251Y33548D1*
X11165Y33505D1*
X11036D1*
X10949Y33548D1*
X10864Y33634D1*
X10586Y34108D2*
Y33505D1*
Y33849D2*
X10542Y33978D1*
X10457Y34065D1*
X10370Y34108D1*
X10241D1*
X9489Y33978D2*
X9532Y34065D1*
X9661Y34108D1*
X9791D1*
X9920Y34065D1*
X9963Y33978D1*
X9920Y33893D1*
X9834Y33849D1*
X9619Y33806D1*
X9532Y33763D1*
X9489Y33677D1*
Y33634D1*
X9532Y33548D1*
X9661Y33505D1*
X9791D1*
X9920Y33548D1*
X9963Y33634D1*
X18027Y32639D2*
X18587D1*
Y31735D1*
Y32208D2*
X18243D1*
X17749Y32639D2*
Y31735D1*
X17447D1*
X17318Y31778D1*
X17231Y31864D1*
X17189Y31951D1*
X17146Y32079D1*
Y32295D1*
X17189Y32424D1*
X17231Y32510D1*
X17318Y32596D1*
X17447Y32639D1*
X17749D1*
X16868Y32466D2*
X16781Y32510D1*
X16652Y32638D1*
Y31735D1*
X15499Y32639D2*
Y31735D1*
X15069Y32338D2*
X15499Y31907D1*
X15327Y32079D2*
X15026Y31735D1*
X14748Y32639D2*
Y31735D1*
Y32208D2*
X14661Y32295D1*
X14576Y32338D1*
X14446D1*
X14361Y32295D1*
X14274Y32208D1*
X14232Y32079D1*
Y31993D1*
X14274Y31864D1*
X14361Y31778D1*
X14446Y31735D1*
X14576D1*
X14661Y31778D1*
X14748Y31864D1*
X13437Y32639D2*
Y31735D1*
Y32208D2*
X13523Y32295D1*
X13609Y32338D1*
X13739D1*
X13824Y32295D1*
X13911Y32208D1*
X13954Y32079D1*
Y31993D1*
X13911Y31864D1*
X13824Y31778D1*
X13739Y31735D1*
X13609D1*
X13523Y31778D1*
X13437Y31864D1*
X12285Y32338D2*
X12026Y31735D1*
X11768Y32338D1*
X11490Y32466D2*
X11404Y32510D1*
X11275Y32638D1*
Y31735D1*
X10954Y31821D2*
X10997Y31777D1*
X10954Y31735D1*
X10910Y31777D1*
X10954Y31821D1*
X10374Y32638D2*
X10503Y32595D1*
X10589Y32466D1*
X10632Y32251D1*
Y32122D1*
X10589Y31907D1*
X10503Y31777D1*
X10374Y31735D1*
X10288D1*
X10159Y31777D1*
X10073Y31907D1*
X10029Y32122D1*
Y32251D1*
X10073Y32466D1*
X10159Y32595D1*
X10288Y32638D1*
X10374D1*
X10073Y32466D2*
X10589Y31907D1*
M02*
