M48
INCH
T01C0.0157
T02C0.0197
T03C0.0217
T04C0.0315
T05C0.035
T06C0.0354
T07C0.0394
T08C0.0433
T09C0.0472
T10C0.0551
T11C0.0669
T12C0.0945
T13C0.126
%
T01
X+026814Y+011188
X+026187Y+011187
X+027690Y+010500
X+028127Y+010938
X+028502Y+011313
X+029815Y+010500
X+030690Y+010875
X+031127Y+011313
X+026814Y+007500
X+026187Y+007500
X+023189Y+009500
X+022376Y+009500
X+022001Y+009938
X+021564Y+010250
X+022376Y+010938
X+022751Y+010625
X+023189Y+010750
X+022064Y+011313
X+021251Y+011313
X+021501Y+012250
X+020126Y+011313
X+019689Y+010250
X+018439Y+012250
X+010937Y+012187
X+011000Y+011188
T02
X+023562Y+014687
X+024314Y+014188
X+024062Y+013562
X+024062Y+013000
X+023187Y+013000
X+022564Y+014001
X+022625Y+014687
X+020876Y+015751
X+019627Y+014188
X+017376Y+013938
X+015937Y+013937
X+015937Y+016437
X+011437Y+014187
X+010187Y+015187
X+008687Y+015187
X+009437Y+013250
X+009187Y+012187
X+009687Y+012187
X+009687Y+011687
X+009688Y+011188
X+009187Y+011187
X+009187Y+011687
X+008187Y+010625
X+006937Y+010187
X+005687Y+010187
X+004500Y+010937
X+004500Y+012437
X+004500Y+013937
X+004500Y+015437
X+005437Y+019187
X+008312Y+018251
X+009562Y+018249
X+009562Y+020687
X+008312Y+020687
X+008937Y+023437
X+010437Y+023437
X+006937Y+023437
X+014437Y+021437
X+017437Y+021437
X+022500Y+020562
X+026437Y+018437
X+027437Y+018437
X+026937Y+019437
X+026937Y+022000
X+026752Y+015251
X+029752Y+015313
X+029752Y+014813
X+031690Y+016376
X+034187Y+014687
X+035937Y+014687
X+035937Y+016687
X+036187Y+021437
X+032687Y+013187
X+029002Y+012000
X+027127Y+012000
X+024752Y+010938
X+023377Y+011250
X+024187Y+007187
X+028687Y+007187
X+030937Y+007187
X+032937Y+007187
X+030937Y+005187
X+019064Y+011750
X+016937Y+007375
X+016937Y+005625
X+013937Y+005625
X+013937Y+007375
X+010937Y+007375
X+010937Y+005625
X+007937Y+005625
X+007937Y+007375
X+004500Y+009437
X+011569Y+010444
T03
X+031062Y+021437
X+030471Y+021437
X+029881Y+021437
X+030176Y+020846
X+030767Y+020846
X+031357Y+020846
X+031948Y+020846
X+032538Y+020846
X+032243Y+020256
X+031653Y+020256
X+031062Y+020256
X+030471Y+020256
X+029881Y+020256
X+029290Y+020256
X+029586Y+020846
X+031653Y+021437
X+032243Y+021437
X+032834Y+021437
X+032834Y+020256
T04
X+009063Y+016813
X+010047Y+016813
T05
X+023923Y+022632
X+022191Y+022632
T06
X+022001Y+005187
X+022001Y+005975
X+022789Y+005975
X+022789Y+005187
X+023576Y+005187
X+023576Y+005975
X+024364Y+005975
X+024364Y+005187
X+025151Y+005187
X+025151Y+005975
X+035000Y+008850
X+035000Y+009637
X+035000Y+010425
X+035787Y+010425
X+035787Y+011212
X+035000Y+011212
X+035000Y+012000
X+035787Y+012000
X+035787Y+009637
X+035787Y+008850
T07
X+008937Y+019437
X+007087Y+020618
X+008937Y+021799
T08
X+034251Y+023524
X+028070Y+023524
X+028627Y+005125
X+029627Y+005125
X+007187Y+016937
X+007187Y+017937
T09
X+005375Y+016813
X+005375Y+021164
T10
X+018937Y+020000
X+017953Y+019015
X+015984Y+020000
X+014016Y+019015
X+013031Y+020000
X+014016Y+023937
X+015000Y+023937
X+016969Y+023937
X+017953Y+023937
T11
X+031160Y+022815
T12
X+018937Y+021968
X+013031Y+021968
T13
X+005312Y+023562
X+005312Y+005312
X+036187Y+005312
X+036187Y+023562
T00
M30
