G04 DipTrace 2.4.0.2*
%INpanel_BottomSilk.gbr*%
%MOMM*%
%ADD10C,0.25*%
%ADD28O,0.391X0.392*%
%ADD70C,0.157*%
%FSLAX53Y53*%
G04*
G71*
G90*
G75*
G01*
%LNBotSilk*%
%LPD*%
X20862Y18270D2*
D10*
Y16971D1*
D28*
X67740Y17370D3*
X67506Y18644D2*
D10*
X64506D1*
Y19144D1*
X67506D1*
Y18644D1*
D28*
X71709Y17370D3*
X71475Y18644D2*
D10*
X68475D1*
Y19144D1*
X71475D1*
Y18644D1*
D28*
X75678Y17370D3*
X75444Y18644D2*
D10*
X72444D1*
Y19144D1*
X75444D1*
Y18644D1*
X28073Y35515D2*
Y30115D1*
X24873Y35515D2*
Y30115D1*
X28073D2*
X24873D1*
X28073Y35515D2*
X26973D1*
X25973D2*
X24873D1*
X26973D2*
G02X25973Y35515I-500J1D01*
G01*
D28*
X59367Y40590D3*
X59133Y41864D2*
D10*
X56133D1*
Y42364D1*
X59133D1*
Y41864D1*
D28*
X59367Y33446D3*
X59133Y34720D2*
D10*
X56133D1*
Y35220D1*
X59133D1*
Y34720D1*
D28*
X15235Y31859D3*
X15001Y33132D2*
D10*
X12001D1*
Y33632D1*
X15001D1*
Y33132D1*
X22577Y19616D2*
D70*
X22625Y19713D1*
X22723Y19810D1*
X22819Y19859D1*
X23014D1*
X23111Y19810D1*
X23208Y19713D1*
X23257Y19616D1*
X23306Y19470D1*
Y19226D1*
X23257Y19082D1*
X23208Y18984D1*
X23111Y18887D1*
X23014Y18838D1*
X22819D1*
X22723Y18887D1*
X22625Y18984D1*
X22577Y19082D1*
X22263Y19663D2*
X22165Y19713D1*
X22019Y19858D1*
Y18838D1*
X67082Y22056D2*
Y21036D1*
X66742D1*
X66596Y21085D1*
X66498Y21182D1*
X66450Y21279D1*
X66402Y21424D1*
Y21668D1*
X66450Y21814D1*
X66498Y21910D1*
X66596Y22008D1*
X66742Y22056D1*
X67082D1*
X65602Y21036D2*
Y22055D1*
X66088Y21376D1*
X65359D1*
X71027Y22056D2*
Y21036D1*
X70687D1*
X70541Y21085D1*
X70443Y21182D1*
X70395Y21279D1*
X70347Y21424D1*
Y21668D1*
X70395Y21814D1*
X70443Y21910D1*
X70541Y22008D1*
X70687Y22056D1*
X71027D1*
X69450Y22055D2*
X69935D1*
X69983Y21618D1*
X69935Y21667D1*
X69789Y21716D1*
X69644D1*
X69498Y21667D1*
X69401Y21570D1*
X69352Y21424D1*
Y21328D1*
X69401Y21182D1*
X69498Y21084D1*
X69644Y21036D1*
X69789D1*
X69935Y21084D1*
X69983Y21133D1*
X70033Y21230D1*
X74972Y22056D2*
Y21036D1*
X74631D1*
X74485Y21085D1*
X74388Y21182D1*
X74339Y21279D1*
X74291Y21424D1*
Y21668D1*
X74339Y21814D1*
X74388Y21910D1*
X74485Y22008D1*
X74631Y22056D1*
X74972D1*
X73394Y21910D2*
X73443Y22007D1*
X73589Y22055D1*
X73685D1*
X73831Y22007D1*
X73929Y21861D1*
X73977Y21618D1*
Y21376D1*
X73929Y21182D1*
X73831Y21084D1*
X73685Y21036D1*
X73637D1*
X73492Y21084D1*
X73394Y21182D1*
X73346Y21328D1*
Y21376D1*
X73394Y21522D1*
X73492Y21618D1*
X73637Y21667D1*
X73685D1*
X73831Y21618D1*
X73929Y21522D1*
X73977Y21376D1*
X27273Y29699D2*
Y28679D1*
X26231Y29457D2*
X26279Y29553D1*
X26377Y29651D1*
X26473Y29699D1*
X26668D1*
X26765Y29651D1*
X26862Y29553D1*
X26911Y29457D1*
X26960Y29311D1*
Y29067D1*
X26911Y28922D1*
X26862Y28825D1*
X26765Y28728D1*
X26668Y28679D1*
X26473D1*
X26377Y28728D1*
X26279Y28825D1*
X26231Y28922D1*
X25917Y29504D2*
X25819Y29553D1*
X25673Y29698D1*
Y28679D1*
X60764Y43847D2*
X60861Y43800D1*
X60958Y43703D1*
X61007Y43605D1*
X61056Y43459D1*
Y43216D1*
X61007Y43070D1*
X60958Y42974D1*
X60861Y42876D1*
X60764Y42828D1*
X60570D1*
X60472Y42876D1*
X60376Y42974D1*
X60327Y43070D1*
X60278Y43216D1*
Y43459D1*
X60327Y43605D1*
X60376Y43703D1*
X60472Y43800D1*
X60570Y43847D1*
X60764D1*
X60618Y43022D2*
X60327Y42730D1*
X59964Y43652D2*
X59866Y43701D1*
X59720Y43846D1*
Y42827D1*
X60983Y37021D2*
X61079Y36974D1*
X61177Y36876D1*
X61225Y36779D1*
X61275Y36633D1*
Y36390D1*
X61225Y36244D1*
X61177Y36148D1*
X61079Y36050D1*
X60983Y36002D1*
X60788D1*
X60691Y36050D1*
X60594Y36148D1*
X60546Y36244D1*
X60496Y36390D1*
Y36633D1*
X60546Y36779D1*
X60594Y36876D1*
X60691Y36974D1*
X60788Y37021D1*
X60983D1*
X60837Y36196D2*
X60546Y35904D1*
X60133Y36778D2*
Y36826D1*
X60085Y36924D1*
X60037Y36972D1*
X59939Y37020D1*
X59745D1*
X59648Y36972D1*
X59600Y36924D1*
X59550Y36826D1*
Y36729D1*
X59600Y36632D1*
X59696Y36487D1*
X60183Y36000D1*
X59502D1*
X12405Y35910D2*
X12501Y35863D1*
X12599Y35765D1*
X12647Y35667D1*
X12697Y35521D1*
Y35279D1*
X12647Y35133D1*
X12599Y35036D1*
X12501Y34939D1*
X12405Y34890D1*
X12210D1*
X12113Y34939D1*
X12016Y35036D1*
X11968Y35133D1*
X11918Y35279D1*
Y35521D1*
X11968Y35667D1*
X12016Y35765D1*
X12113Y35863D1*
X12210Y35910D1*
X12405D1*
X12259Y35085D2*
X11968Y34793D1*
X11507Y35909D2*
X10973D1*
X11264Y35520D1*
X11118D1*
X11022Y35472D1*
X10973Y35424D1*
X10924Y35278D1*
Y35181D1*
X10973Y35035D1*
X11070Y34937D1*
X11216Y34889D1*
X11362D1*
X11507Y34937D1*
X11555Y34987D1*
X11605Y35083D1*
X27450Y38746D2*
X27013D1*
X26867Y38796D1*
X26818Y38844D1*
X26769Y38941D1*
Y39038D1*
X26818Y39135D1*
X26867Y39184D1*
X27013Y39233D1*
X27450D1*
Y38212D1*
X27110Y38746D2*
X26769Y38212D1*
X26456Y39037D2*
X26358Y39087D1*
X26212Y39232D1*
Y38212D1*
X34018Y38588D2*
X33582D1*
X33436Y38637D1*
X33386Y38685D1*
X33338Y38782D1*
Y38880D1*
X33386Y38976D1*
X33436Y39026D1*
X33582Y39074D1*
X34018D1*
Y38053D1*
X33678Y38588D2*
X33338Y38053D1*
X32975Y38830D2*
Y38878D1*
X32926Y38976D1*
X32878Y39024D1*
X32780Y39073D1*
X32586D1*
X32489Y39024D1*
X32441Y38976D1*
X32392Y38878D1*
Y38782D1*
X32441Y38684D1*
X32538Y38539D1*
X33024Y38053D1*
X32343D1*
X38781Y38429D2*
X38344D1*
X38198Y38478D1*
X38149Y38527D1*
X38100Y38623D1*
Y38721D1*
X38149Y38817D1*
X38198Y38867D1*
X38344Y38915D1*
X38781D1*
Y37894D1*
X38441Y38429D2*
X38100Y37894D1*
X37689Y38914D2*
X37155D1*
X37446Y38525D1*
X37300D1*
X37204Y38477D1*
X37155Y38429D1*
X37106Y38283D1*
Y38186D1*
X37155Y38040D1*
X37252Y37943D1*
X37398Y37894D1*
X37544D1*
X37689Y37943D1*
X37737Y37992D1*
X37787Y38089D1*
X52299Y35571D2*
X51862D1*
X51716Y35621D1*
X51667Y35669D1*
X51619Y35765D1*
Y35863D1*
X51667Y35960D1*
X51716Y36009D1*
X51862Y36057D1*
X52299D1*
Y35037D1*
X51959Y35571D2*
X51619Y35037D1*
X50818D2*
Y36056D1*
X51305Y35377D1*
X50576D1*
X47036Y33507D2*
X46599D1*
X46453Y33557D1*
X46404Y33605D1*
X46356Y33702D1*
Y33799D1*
X46404Y33896D1*
X46453Y33945D1*
X46599Y33994D1*
X47036D1*
Y32973D1*
X46696Y33507D2*
X46356Y32973D1*
X45459Y33993D2*
X45944D1*
X45992Y33556D1*
X45944Y33604D1*
X45798Y33653D1*
X45653D1*
X45507Y33604D1*
X45410Y33507D1*
X45361Y33361D1*
Y33265D1*
X45410Y33119D1*
X45507Y33021D1*
X45653Y32973D1*
X45798D1*
X45944Y33021D1*
X45992Y33071D1*
X46042Y33167D1*
X42884Y31920D2*
X42447D1*
X42301Y31969D1*
X42252Y32018D1*
X42203Y32114D1*
Y32212D1*
X42252Y32308D1*
X42301Y32358D1*
X42447Y32406D1*
X42884D1*
Y31385D1*
X42544Y31920D2*
X42203Y31385D1*
X41307Y32260D2*
X41355Y32357D1*
X41501Y32405D1*
X41598D1*
X41744Y32357D1*
X41841Y32211D1*
X41890Y31968D1*
Y31726D1*
X41841Y31531D1*
X41744Y31434D1*
X41598Y31385D1*
X41549D1*
X41404Y31434D1*
X41307Y31531D1*
X41258Y31677D1*
Y31726D1*
X41307Y31872D1*
X41404Y31968D1*
X41549Y32016D1*
X41598D1*
X41744Y31968D1*
X41841Y31872D1*
X41890Y31726D1*
X35970Y32919D2*
X35533D1*
X35387Y32968D1*
X35337Y33017D1*
X35289Y33113D1*
Y33211D1*
X35337Y33308D1*
X35387Y33357D1*
X35533Y33405D1*
X35970D1*
Y32384D1*
X35629Y32919D2*
X35289Y32384D1*
X34781D2*
X34295Y33404D1*
X34975D1*
X33112Y32760D2*
X32675D1*
X32529Y32810D1*
X32479Y32858D1*
X32431Y32955D1*
Y33052D1*
X32479Y33149D1*
X32529Y33198D1*
X32675Y33247D1*
X33112D1*
Y32226D1*
X32771Y32760D2*
X32431Y32226D1*
X31875Y33246D2*
X32020Y33197D1*
X32069Y33101D1*
Y33003D1*
X32020Y32906D1*
X31923Y32857D1*
X31729Y32809D1*
X31583Y32760D1*
X31486Y32663D1*
X31438Y32566D1*
Y32420D1*
X31486Y32323D1*
X31534Y32274D1*
X31680Y32226D1*
X31875D1*
X32020Y32274D1*
X32069Y32323D1*
X32117Y32420D1*
Y32566D1*
X32069Y32663D1*
X31971Y32760D1*
X31826Y32809D1*
X31632Y32857D1*
X31534Y32906D1*
X31486Y33003D1*
Y33101D1*
X31534Y33197D1*
X31680Y33246D1*
X31875D1*
X63568Y39745D2*
X63131D1*
X62985Y39794D1*
X62936Y39843D1*
X62888Y39939D1*
Y40037D1*
X62936Y40134D1*
X62985Y40183D1*
X63131Y40231D1*
X63568D1*
Y39210D1*
X63228Y39745D2*
X62888Y39210D1*
X61942Y39891D2*
X61991Y39745D1*
X62088Y39647D1*
X62234Y39599D1*
X62282D1*
X62428Y39647D1*
X62525Y39745D1*
X62574Y39891D1*
Y39939D1*
X62525Y40085D1*
X62428Y40182D1*
X62282Y40230D1*
X62234D1*
X62088Y40182D1*
X61991Y40085D1*
X61942Y39891D1*
Y39647D1*
X61991Y39405D1*
X62088Y39259D1*
X62234Y39210D1*
X62330D1*
X62476Y39259D1*
X62525Y39356D1*
X62283Y28310D2*
X61846D1*
X61700Y28359D1*
X61651Y28407D1*
X61602Y28504D1*
Y28602D1*
X61651Y28698D1*
X61700Y28748D1*
X61846Y28796D1*
X62283D1*
Y27775D1*
X61943Y28310D2*
X61602Y27775D1*
X61289Y28601D2*
X61191Y28650D1*
X61045Y28795D1*
Y27775D1*
X60439Y28795D2*
X60585Y28747D1*
X60683Y28601D1*
X60731Y28358D1*
Y28212D1*
X60683Y27969D1*
X60585Y27823D1*
X60439Y27775D1*
X60343D1*
X60197Y27823D1*
X60100Y27969D1*
X60051Y28212D1*
Y28358D1*
X60100Y28601D1*
X60197Y28747D1*
X60343Y28795D1*
X60439D1*
X60100Y28601D2*
X60683Y27969D1*
X12847Y27357D2*
X12410D1*
X12264Y27407D1*
X12214Y27455D1*
X12166Y27551D1*
Y27649D1*
X12214Y27746D1*
X12264Y27795D1*
X12410Y27843D1*
X12847D1*
Y26823D1*
X12506Y27357D2*
X12166Y26823D1*
X11852Y27648D2*
X11755Y27697D1*
X11609Y27842D1*
Y26823D1*
X11295Y27648D2*
X11197Y27697D1*
X11051Y27842D1*
Y26823D1*
X55415Y38901D2*
X54978D1*
X54832Y38950D1*
X54782Y38998D1*
X54734Y39095D1*
Y39193D1*
X54782Y39289D1*
X54832Y39339D1*
X54978Y39387D1*
X55415D1*
Y38366D1*
X55074Y38901D2*
X54734Y38366D1*
X54420Y39192D2*
X54323Y39241D1*
X54177Y39386D1*
Y38366D1*
X53814Y39143D2*
Y39192D1*
X53765Y39289D1*
X53717Y39338D1*
X53619Y39386D1*
X53425D1*
X53328Y39338D1*
X53280Y39289D1*
X53231Y39192D1*
Y39095D1*
X53280Y38997D1*
X53377Y38852D1*
X53863Y38366D1*
X53182D1*
X55573Y32074D2*
X55137D1*
X54991Y32123D1*
X54941Y32171D1*
X54893Y32268D1*
Y32366D1*
X54941Y32462D1*
X54991Y32512D1*
X55137Y32560D1*
X55573D1*
Y31539D1*
X55233Y32074D2*
X54893Y31539D1*
X54579Y32365D2*
X54481Y32414D1*
X54335Y32559D1*
Y31539D1*
X53924Y32559D2*
X53391D1*
X53681Y32170D1*
X53535D1*
X53439Y32122D1*
X53391Y32074D1*
X53341Y31928D1*
Y31831D1*
X53391Y31685D1*
X53487Y31587D1*
X53633Y31539D1*
X53779D1*
X53924Y31587D1*
X53972Y31637D1*
X54022Y31733D1*
X14472Y31915D2*
X14035D1*
X13889Y31964D1*
X13840Y32013D1*
X13791Y32109D1*
Y32207D1*
X13840Y32304D1*
X13889Y32353D1*
X14035Y32401D1*
X14472D1*
Y31380D1*
X14132Y31915D2*
X13791Y31380D1*
X13478Y32206D2*
X13380Y32255D1*
X13234Y32400D1*
Y31380D1*
X12434D2*
Y32400D1*
X12920Y31721D1*
X12191D1*
M02*
