G04 Layer: TopSolderMaskLayer*
G04 EasyEDA v6.4.19.4, 2021-07-14T11:09:17--7:00*
G04 73e50abd1ea448babbb0d4c805b7eb3a,d433bb90ee054a4e8348b136ee7bb52c,10*
G04 Gerber Generator version 0.2*
G04 Scale: 100 percent, Rotated: No, Reflected: No *
G04 Dimensions in inches *
G04 leading zeros omitted , absolute positions ,3 integer and 6 decimal *
%FSLAX36Y36*%
%MOIN*%

%ADD39C,0.0316*%
%ADD40C,0.1497*%
%ADD41C,0.1891*%
%ADD43C,0.0680*%
%ADD44C,0.1655*%

%LPD*%
G36*
X1247020Y121620D02*
G01*
X1245860Y121300D01*
X1244620Y120380D01*
X1243280Y118760D01*
X1241720Y116380D01*
X1239880Y113160D01*
X1232340Y98539D01*
X1195020Y24580D01*
X1186440Y7900D01*
X1184980Y5260D01*
X1184820Y5300D01*
X1184180Y6180D01*
X1181620Y10780D01*
X1177640Y18640D01*
X1172560Y29100D01*
X1166700Y41460D01*
X1158660Y58760D01*
X1152320Y71960D01*
X1149980Y76560D01*
X1148080Y80060D01*
X1146540Y82560D01*
X1145260Y84260D01*
X1144180Y85280D01*
X1143200Y85780D01*
X1142720Y85879D01*
X1141260Y85900D01*
X1139940Y85620D01*
X1138920Y85079D01*
X1138340Y84320D01*
X1114280Y23080D01*
X1108660Y8520D01*
X1103700Y-4660D01*
X1099580Y-15880D01*
X1096032Y-26200D01*
X1105060Y-26200D01*
X1133640Y46520D01*
X1141220Y65359D01*
X1142860Y69120D01*
X1143240Y68500D01*
X1150980Y52480D01*
X1163700Y25500D01*
X1177140Y-3459D01*
X1185680Y-22500D01*
X1187200Y-26260D01*
X1187220Y-26460D01*
X1186280Y-26560D01*
X1179940Y-26700D01*
X1161760Y-26720D01*
X1105060Y-26200D01*
X1096032Y-26200D01*
X1094800Y-30200D01*
X1094460Y-32020D01*
X1094580Y-32800D01*
X1094780Y-33460D01*
X1095140Y-34000D01*
X1095720Y-34460D01*
X1096600Y-34800D01*
X1097880Y-35080D01*
X1101820Y-35480D01*
X1108200Y-35720D01*
X1140220Y-36340D01*
X1140220Y-41440D01*
X1140360Y-43720D01*
X1140740Y-45800D01*
X1141360Y-47619D01*
X1142200Y-49140D01*
X1143200Y-50340D01*
X1144340Y-51160D01*
X1145620Y-51580D01*
X1147000Y-51540D01*
X1148420Y-50920D01*
X1149380Y-49600D01*
X1149960Y-47260D01*
X1150320Y-43660D01*
X1150760Y-36340D01*
X1188440Y-35620D01*
X1193840Y-35320D01*
X1195660Y-35100D01*
X1197020Y-34820D01*
X1197960Y-34480D01*
X1198600Y-34040D01*
X1198980Y-33520D01*
X1199200Y-32900D01*
X1199320Y-32140D01*
X1199100Y-30000D01*
X1198140Y-26660D01*
X1196600Y-22580D01*
X1194640Y-18200D01*
X1189500Y-7600D01*
X1200500Y14240D01*
X1204000Y20740D01*
X1206860Y25660D01*
X1207960Y27340D01*
X1208780Y28400D01*
X1209260Y28760D01*
X1210300Y28400D01*
X1212020Y27400D01*
X1214200Y25920D01*
X1219020Y22360D01*
X1221380Y20900D01*
X1223380Y19940D01*
X1224740Y19600D01*
X1226280Y20200D01*
X1228720Y21820D01*
X1231740Y24180D01*
X1235000Y27060D01*
X1242900Y34460D01*
X1277400Y26640D01*
X1287880Y24060D01*
X1294060Y22240D01*
X1295320Y20700D01*
X1297540Y17300D01*
X1300380Y12540D01*
X1303580Y6939D01*
X1311440Y-7300D01*
X1305620Y-23140D01*
X1304639Y-26200D01*
X1314440Y-26200D01*
X1343000Y46520D01*
X1350600Y65359D01*
X1352240Y69120D01*
X1353500Y66680D01*
X1361699Y49620D01*
X1374880Y21600D01*
X1387880Y-6520D01*
X1392600Y-16940D01*
X1396380Y-25760D01*
X1396579Y-26460D01*
X1395640Y-26560D01*
X1389300Y-26700D01*
X1371140Y-26720D01*
X1314440Y-26200D01*
X1304639Y-26200D01*
X1303880Y-29180D01*
X1303700Y-30680D01*
X1303740Y-31940D01*
X1304019Y-33000D01*
X1304540Y-33880D01*
X1305340Y-34580D01*
X1306440Y-35140D01*
X1307820Y-35540D01*
X1309520Y-35860D01*
X1311560Y-36060D01*
X1316680Y-36240D01*
X1349580Y-36260D01*
X1349580Y-41400D01*
X1349720Y-43700D01*
X1350100Y-45780D01*
X1350720Y-47619D01*
X1351560Y-49140D01*
X1352560Y-50340D01*
X1353700Y-51160D01*
X1354980Y-51580D01*
X1356360Y-51540D01*
X1357780Y-50920D01*
X1358740Y-49600D01*
X1359319Y-47260D01*
X1359680Y-43660D01*
X1360140Y-36340D01*
X1397560Y-35620D01*
X1402960Y-35320D01*
X1404820Y-35100D01*
X1406200Y-34840D01*
X1407200Y-34520D01*
X1407860Y-34120D01*
X1408280Y-33640D01*
X1408520Y-33060D01*
X1408660Y-32380D01*
X1408520Y-31620D01*
X1407240Y-27960D01*
X1404720Y-21740D01*
X1401120Y-13340D01*
X1391339Y8600D01*
X1385480Y21400D01*
X1369860Y54800D01*
X1363980Y67080D01*
X1359640Y75660D01*
X1357980Y78780D01*
X1356560Y81199D01*
X1355380Y83020D01*
X1354379Y84320D01*
X1353540Y85180D01*
X1352780Y85660D01*
X1352100Y85879D01*
X1351120Y85879D01*
X1350660Y85780D01*
X1350200Y85540D01*
X1349199Y84620D01*
X1348060Y82940D01*
X1346660Y80280D01*
X1344920Y76440D01*
X1342700Y71220D01*
X1336540Y55860D01*
X1328720Y35960D01*
X1322980Y21700D01*
X1319060Y12600D01*
X1317660Y9740D01*
X1316560Y7820D01*
X1315740Y6780D01*
X1315400Y6560D01*
X1315100Y6500D01*
X1314840Y6600D01*
X1313880Y8139D01*
X1294139Y42900D01*
X1278380Y70880D01*
X1265180Y94100D01*
X1255140Y111440D01*
X1251800Y117040D01*
X1249460Y120640D01*
X1248200Y121359D01*
G37*
G36*
X1981000Y69000D02*
G01*
X1978620Y68740D01*
X1976300Y68220D01*
X1974019Y67440D01*
X1971780Y66420D01*
X1970220Y65500D01*
X1968779Y64440D01*
X1967440Y63240D01*
X1966220Y61900D01*
X1965100Y60420D01*
X1964079Y58800D01*
X1963180Y57040D01*
X1962400Y55160D01*
X1961720Y53140D01*
X1961160Y50980D01*
X1960700Y48700D01*
X1960360Y46280D01*
X1960200Y44400D01*
X1960160Y42560D01*
X1960240Y40740D01*
X1960420Y38940D01*
X1960740Y37140D01*
X1961200Y35340D01*
X1961780Y33520D01*
X1962500Y31700D01*
X1963340Y29860D01*
X1964340Y27980D01*
X1966759Y24100D01*
X1969800Y20000D01*
X1980240Y7620D01*
X1983160Y3660D01*
X1984220Y1980D01*
X1985040Y420D01*
X1985660Y-1060D01*
X1986100Y-2480D01*
X1986380Y-3920D01*
X1986540Y-5380D01*
X1986579Y-6959D01*
X1986399Y-9740D01*
X1985860Y-12260D01*
X1985000Y-14460D01*
X1983860Y-16359D01*
X1982440Y-17940D01*
X1980760Y-19160D01*
X1978880Y-20019D01*
X1976819Y-20520D01*
X1974600Y-20620D01*
X1972220Y-20299D01*
X1969760Y-19580D01*
X1967200Y-18400D01*
X1962820Y-16040D01*
X1962820Y-22919D01*
X1962940Y-26880D01*
X1963700Y-29220D01*
X1965620Y-30800D01*
X1969280Y-32380D01*
X1971360Y-33100D01*
X1973420Y-33580D01*
X1975460Y-33860D01*
X1977480Y-33900D01*
X1979460Y-33760D01*
X1981399Y-33420D01*
X1983280Y-32900D01*
X1985100Y-32180D01*
X1986840Y-31300D01*
X1988520Y-30259D01*
X1990120Y-29060D01*
X1991600Y-27719D01*
X1993000Y-26240D01*
X1994280Y-24640D01*
X1995460Y-22900D01*
X1996500Y-21040D01*
X1997400Y-19080D01*
X1998160Y-17020D01*
X1998779Y-14880D01*
X1999220Y-12640D01*
X1999500Y-10340D01*
X1999620Y-7960D01*
X1999540Y-5540D01*
X1999280Y-3060D01*
X1998920Y-1060D01*
X1998440Y920D01*
X1997800Y2900D01*
X1996980Y4900D01*
X1995980Y6979D01*
X1994800Y9160D01*
X1991740Y13879D01*
X1987680Y19300D01*
X1977620Y31620D01*
X1976000Y33880D01*
X1974820Y35840D01*
X1974019Y37580D01*
X1973520Y39260D01*
X1973280Y40980D01*
X1973220Y42880D01*
X1973460Y45960D01*
X1974180Y48740D01*
X1975340Y51180D01*
X1976840Y53220D01*
X1978680Y54800D01*
X1980780Y55880D01*
X1983100Y56380D01*
X1985580Y56260D01*
X1989660Y55359D01*
X1991500Y54860D01*
X1992880Y54360D01*
X1994220Y54040D01*
X1995020Y54620D01*
X1995400Y56340D01*
X1995480Y59520D01*
X1995340Y62880D01*
X1994720Y64980D01*
X1993300Y66320D01*
X1990800Y67420D01*
X1988300Y68220D01*
X1985840Y68740D01*
X1983400Y69000D01*
G37*
G36*
X1926060Y69000D02*
G01*
X1923680Y68740D01*
X1921360Y68220D01*
X1919079Y67440D01*
X1916840Y66420D01*
X1915280Y65500D01*
X1913839Y64440D01*
X1912500Y63240D01*
X1911279Y61900D01*
X1910160Y60420D01*
X1909139Y58800D01*
X1908240Y57040D01*
X1907460Y55160D01*
X1906780Y53140D01*
X1906220Y50980D01*
X1905760Y48700D01*
X1905420Y46280D01*
X1905260Y44400D01*
X1905220Y42560D01*
X1905300Y40740D01*
X1905480Y38940D01*
X1905800Y37140D01*
X1906260Y35340D01*
X1906840Y33520D01*
X1907560Y31700D01*
X1908400Y29860D01*
X1909400Y27980D01*
X1911819Y24100D01*
X1914860Y20000D01*
X1925300Y7620D01*
X1928220Y3660D01*
X1929280Y1980D01*
X1930100Y420D01*
X1930720Y-1060D01*
X1931160Y-2480D01*
X1931440Y-3920D01*
X1931600Y-5380D01*
X1931639Y-6959D01*
X1931459Y-9740D01*
X1930920Y-12260D01*
X1930060Y-14460D01*
X1928920Y-16359D01*
X1927500Y-17940D01*
X1925820Y-19160D01*
X1923940Y-20019D01*
X1921879Y-20520D01*
X1919660Y-20620D01*
X1917280Y-20299D01*
X1914820Y-19580D01*
X1912260Y-18400D01*
X1907880Y-16040D01*
X1907880Y-22919D01*
X1908000Y-26900D01*
X1908779Y-29260D01*
X1910780Y-30840D01*
X1914600Y-32500D01*
X1918320Y-33820D01*
X1921240Y-34360D01*
X1924079Y-34160D01*
X1927520Y-33240D01*
X1929420Y-32559D01*
X1931240Y-31700D01*
X1932960Y-30700D01*
X1934580Y-29540D01*
X1936100Y-28240D01*
X1937520Y-26800D01*
X1938820Y-25240D01*
X1940000Y-23540D01*
X1941060Y-21720D01*
X1942000Y-19780D01*
X1942800Y-17720D01*
X1943460Y-15560D01*
X1944319Y-11700D01*
X1944580Y-9860D01*
X1944720Y-8040D01*
X1944720Y-6260D01*
X1944600Y-4460D01*
X1944360Y-2680D01*
X1943959Y-880D01*
X1943420Y980D01*
X1942720Y2859D01*
X1941860Y4800D01*
X1940840Y6820D01*
X1938280Y11140D01*
X1934980Y15920D01*
X1930940Y21280D01*
X1926060Y27300D01*
X1922120Y32320D01*
X1920760Y34300D01*
X1919740Y36080D01*
X1919040Y37700D01*
X1918580Y39280D01*
X1918340Y40900D01*
X1918280Y42640D01*
X1918500Y45420D01*
X1919120Y48120D01*
X1920120Y50599D01*
X1921459Y52779D01*
X1922700Y54220D01*
X1924000Y55300D01*
X1925460Y56000D01*
X1927120Y56360D01*
X1929040Y56360D01*
X1931339Y56040D01*
X1934019Y55380D01*
X1937200Y54380D01*
X1939019Y53940D01*
X1940040Y54400D01*
X1940460Y56120D01*
X1940540Y59500D01*
X1940400Y62880D01*
X1939780Y64980D01*
X1938380Y66320D01*
X1935860Y67420D01*
X1933360Y68220D01*
X1930900Y68740D01*
X1928460Y69000D01*
G37*
G36*
X2257500Y68980D02*
G01*
X2255140Y68780D01*
X2252820Y68360D01*
X2250540Y67700D01*
X2248300Y66820D01*
X2246660Y65940D01*
X2245100Y64820D01*
X2243640Y63480D01*
X2242300Y61960D01*
X2241100Y60260D01*
X2240000Y58400D01*
X2239040Y56400D01*
X2238240Y54300D01*
X2237560Y52080D01*
X2237040Y49800D01*
X2236680Y47440D01*
X2236480Y45039D01*
X2236440Y42600D01*
X2236600Y40160D01*
X2236920Y37720D01*
X2237440Y35320D01*
X2237940Y33760D01*
X2238680Y32000D01*
X2239640Y30080D01*
X2242120Y25900D01*
X2243580Y23720D01*
X2246840Y19420D01*
X2252820Y12060D01*
X2257120Y6500D01*
X2258720Y4260D01*
X2259980Y2320D01*
X2260980Y600D01*
X2261700Y-940D01*
X2262220Y-2360D01*
X2262540Y-3700D01*
X2262700Y-5020D01*
X2262760Y-6380D01*
X2262660Y-8440D01*
X2262360Y-10460D01*
X2261920Y-12440D01*
X2261300Y-14280D01*
X2260560Y-15980D01*
X2259700Y-17440D01*
X2258740Y-18660D01*
X2257700Y-19580D01*
X2256500Y-20179D01*
X2254980Y-20560D01*
X2253200Y-20700D01*
X2251260Y-20640D01*
X2249240Y-20379D01*
X2247200Y-19920D01*
X2245220Y-19260D01*
X2243380Y-18400D01*
X2239000Y-16040D01*
X2239000Y-22919D01*
X2239120Y-26900D01*
X2239900Y-29260D01*
X2241900Y-30840D01*
X2245740Y-32500D01*
X2247700Y-33180D01*
X2249640Y-33680D01*
X2251540Y-34000D01*
X2253400Y-34120D01*
X2255220Y-34080D01*
X2256980Y-33860D01*
X2258700Y-33500D01*
X2260340Y-32960D01*
X2261940Y-32300D01*
X2263460Y-31480D01*
X2264920Y-30520D01*
X2266300Y-29440D01*
X2267600Y-28260D01*
X2268820Y-26940D01*
X2269960Y-25520D01*
X2271000Y-24000D01*
X2271940Y-22380D01*
X2272780Y-20680D01*
X2273520Y-18900D01*
X2274160Y-17060D01*
X2274680Y-15120D01*
X2275080Y-13140D01*
X2275360Y-11100D01*
X2275520Y-9020D01*
X2275540Y-6899D01*
X2275440Y-4740D01*
X2275180Y-2560D01*
X2274800Y-360D01*
X2274260Y1860D01*
X2273580Y4100D01*
X2272740Y6320D01*
X2271740Y8540D01*
X2270440Y10960D01*
X2268980Y13260D01*
X2267560Y15220D01*
X2264760Y18100D01*
X2259560Y24080D01*
X2256580Y27740D01*
X2254540Y30419D01*
X2252840Y32960D01*
X2251460Y35380D01*
X2250400Y37700D01*
X2249640Y39920D01*
X2249220Y42020D01*
X2249100Y44060D01*
X2249300Y46000D01*
X2249800Y47859D01*
X2250640Y49660D01*
X2251760Y51420D01*
X2253220Y53099D01*
X2254680Y54440D01*
X2256260Y55420D01*
X2257940Y56080D01*
X2259760Y56400D01*
X2261760Y56380D01*
X2263960Y56040D01*
X2266380Y55359D01*
X2269060Y54360D01*
X2270400Y54040D01*
X2271200Y54620D01*
X2271580Y56340D01*
X2271660Y59520D01*
X2271520Y62880D01*
X2270900Y64980D01*
X2269500Y66320D01*
X2266980Y67420D01*
X2264640Y68160D01*
X2262260Y68660D01*
X2259880Y68940D01*
G37*
G36*
X2134300Y67720D02*
G01*
X2120286Y-240D01*
X2132120Y-240D01*
X2132360Y1860D01*
X2133940Y11900D01*
X2136240Y25580D01*
X2137220Y31980D01*
X2137900Y37140D01*
X2138200Y40320D01*
X2138340Y42800D01*
X2138560Y43460D01*
X2138960Y42200D01*
X2140000Y37300D01*
X2141940Y26060D01*
X2146320Y-2160D01*
X2139200Y-2160D01*
X2136100Y-2039D01*
X2133880Y-1680D01*
X2132560Y-1080D01*
X2132120Y-240D01*
X2120286Y-240D01*
X2114540Y-29340D01*
X2114260Y-31240D01*
X2114660Y-32040D01*
X2115800Y-32660D01*
X2117620Y-33040D01*
X2120040Y-33160D01*
X2125820Y-33160D01*
X2129460Y-13020D01*
X2148160Y-13020D01*
X2152160Y-32400D01*
X2160900Y-33020D01*
X2164220Y-33020D01*
X2164700Y-32860D01*
X2144520Y66800D01*
G37*
G36*
X1469259Y67720D02*
G01*
X1458940Y66800D01*
X1451860Y20680D01*
X1449460Y5740D01*
X1447960Y-2940D01*
X1447560Y5080D01*
X1446860Y11620D01*
X1444180Y32240D01*
X1439300Y66800D01*
X1430620Y67400D01*
X1428620Y67340D01*
X1427280Y67160D01*
X1426780Y66820D01*
X1432000Y34300D01*
X1440440Y-16840D01*
X1442520Y-28900D01*
X1443140Y-31100D01*
X1444100Y-32400D01*
X1445720Y-33020D01*
X1449300Y-33180D01*
X1450960Y-33140D01*
X1451639Y-32940D01*
X1452240Y-32580D01*
X1452760Y-31960D01*
X1453260Y-31040D01*
X1453720Y-29740D01*
X1454660Y-25820D01*
X1455700Y-19720D01*
X1460960Y15460D01*
X1462740Y25660D01*
X1463460Y29100D01*
X1464079Y31440D01*
X1464560Y32660D01*
X1464760Y32860D01*
X1464920Y32759D01*
X1465180Y31700D01*
X1465480Y27240D01*
X1466680Y17860D01*
X1468660Y4180D01*
X1473000Y-23620D01*
X1474300Y-32420D01*
X1474720Y-32719D01*
X1475840Y-32960D01*
X1477480Y-33100D01*
X1481519Y-33120D01*
X1483180Y-32960D01*
X1484280Y-32740D01*
X1484700Y-32460D01*
X1501040Y66660D01*
X1500540Y67220D01*
X1499220Y67540D01*
X1497340Y67640D01*
X1495160Y67560D01*
X1492960Y67280D01*
X1490980Y66860D01*
X1489500Y66300D01*
X1488779Y65640D01*
X1487940Y60700D01*
X1485100Y40420D01*
X1481020Y9600D01*
X1480300Y5180D01*
X1479760Y2660D01*
X1479520Y2039D01*
X1479319Y1820D01*
X1479120Y1980D01*
X1478940Y2460D01*
X1478600Y4340D01*
X1476459Y19500D01*
G37*
G36*
X2179560Y67580D02*
G01*
X2179777Y40460D01*
X2192960Y40460D01*
X2193040Y47820D01*
X2193380Y52820D01*
X2193700Y54520D01*
X2194140Y55740D01*
X2194720Y56520D01*
X2195460Y56900D01*
X2196380Y56920D01*
X2197500Y56600D01*
X2198860Y56000D01*
X2200440Y55160D01*
X2201840Y54020D01*
X2203020Y52340D01*
X2204000Y50240D01*
X2204740Y47760D01*
X2205280Y45060D01*
X2205580Y42180D01*
X2205640Y39240D01*
X2205460Y36320D01*
X2205040Y33540D01*
X2204360Y30980D01*
X2203400Y28740D01*
X2202200Y26900D01*
X2201040Y25840D01*
X2199580Y24980D01*
X2197980Y24400D01*
X2196460Y24180D01*
X2195320Y24220D01*
X2194460Y24460D01*
X2193840Y25099D01*
X2193420Y26300D01*
X2193160Y28260D01*
X2192980Y35140D01*
X2192960Y40460D01*
X2179777Y40460D01*
X2180127Y-4500D01*
X2192960Y-4500D01*
X2193020Y4880D01*
X2193160Y7780D01*
X2193420Y9720D01*
X2193860Y10900D01*
X2194500Y11520D01*
X2195380Y11740D01*
X2196580Y11780D01*
X2198260Y11480D01*
X2200040Y10640D01*
X2201740Y9360D01*
X2203260Y7700D01*
X2204400Y5880D01*
X2205300Y3860D01*
X2205960Y1700D01*
X2206360Y-580D01*
X2206540Y-2940D01*
X2206520Y-5300D01*
X2206280Y-7660D01*
X2205840Y-9940D01*
X2205240Y-12120D01*
X2204440Y-14160D01*
X2203480Y-16000D01*
X2202360Y-17600D01*
X2201120Y-18920D01*
X2199720Y-19920D01*
X2198200Y-20540D01*
X2196580Y-20760D01*
X2195380Y-20740D01*
X2194500Y-20500D01*
X2193860Y-19880D01*
X2193420Y-18700D01*
X2193160Y-16760D01*
X2193020Y-13859D01*
X2192960Y-4500D01*
X2180127Y-4500D01*
X2180340Y-32400D01*
X2196920Y-32360D01*
X2199940Y-32260D01*
X2202440Y-32080D01*
X2204500Y-31780D01*
X2206200Y-31360D01*
X2207680Y-30800D01*
X2209020Y-30059D01*
X2210320Y-29160D01*
X2212300Y-27420D01*
X2214020Y-25480D01*
X2215480Y-23340D01*
X2216700Y-20920D01*
X2217700Y-18220D01*
X2218460Y-15220D01*
X2219040Y-11860D01*
X2219400Y-8139D01*
X2219540Y-5460D01*
X2219520Y-2900D01*
X2219380Y-480D01*
X2219100Y1820D01*
X2218700Y4000D01*
X2218180Y6000D01*
X2217520Y7860D01*
X2216760Y9540D01*
X2215860Y11060D01*
X2214860Y12380D01*
X2213740Y13520D01*
X2212520Y14460D01*
X2207900Y17540D01*
X2207920Y17940D01*
X2208440Y18640D01*
X2209400Y19540D01*
X2212000Y21680D01*
X2213200Y23020D01*
X2214260Y24540D01*
X2215200Y26240D01*
X2216000Y28080D01*
X2216680Y30059D01*
X2217220Y32140D01*
X2217640Y34300D01*
X2217940Y36540D01*
X2218100Y38820D01*
X2218080Y43480D01*
X2217880Y45800D01*
X2217560Y48080D01*
X2217120Y50340D01*
X2216560Y52500D01*
X2215880Y54600D01*
X2215100Y56580D01*
X2214200Y58440D01*
X2213180Y60140D01*
X2212060Y61700D01*
X2210820Y63060D01*
X2209460Y64220D01*
X2208000Y65140D01*
X2206760Y65720D01*
X2205300Y66220D01*
X2203580Y66620D01*
X2199460Y67240D01*
X2194400Y67540D01*
G37*
G36*
X2060820Y67580D02*
G01*
X2060820Y-33160D01*
X2095140Y-33160D01*
X2094220Y-21540D01*
X2074180Y-20620D01*
X2074180Y67580D01*
G37*
G36*
X1854420Y67580D02*
G01*
X1854420Y-33260D01*
X1887840Y-32400D01*
X1887840Y-21540D01*
X1866300Y-20640D01*
X1866300Y13340D01*
X1885600Y13340D01*
X1885600Y24180D01*
X1866300Y24180D01*
X1866300Y56720D01*
X1888580Y56720D01*
X1888580Y67580D01*
G37*
G36*
X1786080Y67580D02*
G01*
X1786860Y-32400D01*
X1799920Y-33360D01*
X1798899Y14520D01*
X1798720Y27960D01*
X1798779Y34260D01*
X1819400Y-33320D01*
X1831399Y-32400D01*
X1832200Y67580D01*
X1818500Y67580D01*
X1819540Y80D01*
X1815240Y15220D01*
X1809960Y32519D01*
X1798820Y67580D01*
G37*
G36*
X1725240Y67580D02*
G01*
X1725240Y39580D01*
X1738600Y39580D01*
X1738680Y49060D01*
X1738800Y52080D01*
X1739040Y54200D01*
X1739400Y55560D01*
X1739940Y56320D01*
X1740640Y56660D01*
X1741579Y56720D01*
X1742960Y56480D01*
X1744540Y55820D01*
X1746120Y54840D01*
X1747520Y53620D01*
X1748680Y52020D01*
X1749680Y49960D01*
X1750380Y47699D01*
X1750700Y45500D01*
X1750800Y42040D01*
X1750780Y38940D01*
X1750620Y36200D01*
X1750340Y33800D01*
X1749900Y31680D01*
X1749319Y29860D01*
X1748560Y28280D01*
X1747620Y26940D01*
X1746500Y25820D01*
X1745180Y24880D01*
X1743680Y24100D01*
X1741940Y23460D01*
X1740840Y23160D01*
X1740020Y23140D01*
X1739420Y23600D01*
X1739040Y24740D01*
X1738779Y26700D01*
X1738660Y29720D01*
X1738600Y39580D01*
X1725240Y39580D01*
X1725240Y-33340D01*
X1737860Y-32400D01*
X1739340Y12160D01*
X1755260Y-33160D01*
X1768240Y-33160D01*
X1756339Y660D01*
X1750760Y16060D01*
X1754400Y17800D01*
X1755660Y18540D01*
X1756819Y19520D01*
X1757920Y20720D01*
X1758920Y22120D01*
X1759840Y23700D01*
X1760680Y25460D01*
X1761399Y27360D01*
X1762040Y29380D01*
X1762580Y31500D01*
X1763020Y33720D01*
X1763340Y36000D01*
X1763540Y38320D01*
X1763640Y43040D01*
X1763500Y45400D01*
X1763240Y47740D01*
X1762840Y50020D01*
X1762340Y52240D01*
X1761680Y54380D01*
X1760900Y56400D01*
X1759920Y58420D01*
X1758839Y60199D01*
X1757620Y61740D01*
X1756220Y63099D01*
X1754660Y64240D01*
X1752880Y65180D01*
X1750880Y65960D01*
X1748600Y66580D01*
X1746040Y67040D01*
X1743180Y67340D01*
X1739980Y67520D01*
G37*
G36*
X1671780Y67580D02*
G01*
X1671780Y-33260D01*
X1705200Y-32400D01*
X1705200Y-21540D01*
X1683560Y-20640D01*
X1684400Y12560D01*
X1702960Y13480D01*
X1702960Y24040D01*
X1684400Y24960D01*
X1684400Y55960D01*
X1705940Y56860D01*
X1705940Y67580D01*
G37*
G36*
X1604980Y67580D02*
G01*
X1604980Y56940D01*
X1618340Y56940D01*
X1623220Y55460D01*
X1626699Y54060D01*
X1628200Y53360D01*
X1629560Y52420D01*
X1630940Y51040D01*
X1632180Y49420D01*
X1633120Y47740D01*
X1633620Y46380D01*
X1634560Y42660D01*
X1635400Y37840D01*
X1636100Y32240D01*
X1636639Y26200D01*
X1637000Y20059D01*
X1637140Y14120D01*
X1637040Y8740D01*
X1636440Y1900D01*
X1635940Y-2060D01*
X1635340Y-5520D01*
X1634640Y-8520D01*
X1633800Y-11100D01*
X1632840Y-13280D01*
X1631699Y-15120D01*
X1630400Y-16640D01*
X1628899Y-17880D01*
X1627180Y-18840D01*
X1625240Y-19600D01*
X1623060Y-20160D01*
X1618340Y-21160D01*
X1618340Y56940D01*
X1604980Y56940D01*
X1604980Y-33600D01*
X1621399Y-32480D01*
X1624880Y-32060D01*
X1628000Y-31520D01*
X1630800Y-30840D01*
X1633300Y-30019D01*
X1635520Y-29040D01*
X1637500Y-27879D01*
X1639280Y-26540D01*
X1640860Y-24980D01*
X1642280Y-23200D01*
X1643580Y-21200D01*
X1644760Y-18940D01*
X1645560Y-17160D01*
X1646980Y-13240D01*
X1648180Y-8920D01*
X1649139Y-4280D01*
X1649900Y660D01*
X1650440Y5800D01*
X1650740Y11080D01*
X1650860Y16440D01*
X1650760Y21800D01*
X1650460Y27120D01*
X1649960Y32320D01*
X1649259Y37340D01*
X1648360Y42120D01*
X1647300Y46580D01*
X1646040Y50660D01*
X1645340Y52539D01*
X1643800Y55920D01*
X1642980Y57420D01*
X1642100Y58780D01*
X1641180Y59980D01*
X1640220Y61020D01*
X1638920Y62200D01*
X1637600Y63240D01*
X1636200Y64160D01*
X1634700Y64940D01*
X1633100Y65620D01*
X1631360Y66180D01*
X1629480Y66640D01*
X1627400Y67000D01*
X1622580Y67440D01*
X1616759Y67580D01*
G37*
G36*
X1553000Y67580D02*
G01*
X1553000Y-33160D01*
X1587340Y-33160D01*
X1586399Y-21540D01*
X1566360Y-20620D01*
X1566360Y67580D01*
G37*
G36*
X1518839Y67580D02*
G01*
X1518839Y-33160D01*
X1532220Y-33160D01*
X1532220Y67580D01*
G37*
D39*
X1138000Y1024239D02*
G01*
X1138000Y988018D01*
X1188000Y1024239D02*
G01*
X1188000Y988018D01*
X1238000Y1024239D02*
G01*
X1238000Y988018D01*
X1288000Y1024239D02*
G01*
X1288000Y988018D01*
X1138000Y1239980D02*
G01*
X1138000Y1203759D01*
X1188000Y1239980D02*
G01*
X1188000Y1203759D01*
X1238000Y1239980D02*
G01*
X1238000Y1203759D01*
X1288000Y1239980D02*
G01*
X1288000Y1203759D01*
X1300000Y1719758D02*
G01*
X1300000Y1755979D01*
X1250000Y1719758D02*
G01*
X1250000Y1755979D01*
X1200000Y1719758D02*
G01*
X1200000Y1755979D01*
X1150000Y1719758D02*
G01*
X1150000Y1755979D01*
X1300000Y1504020D02*
G01*
X1300000Y1540239D01*
X1250000Y1504020D02*
G01*
X1250000Y1540239D01*
X1200000Y1504020D02*
G01*
X1200000Y1540239D01*
X1150000Y1504020D02*
G01*
X1150000Y1540239D01*
D40*
G01*
X3188980Y0D03*
G01*
X3188980Y2755909D03*
G01*
X-354329Y0D03*
G01*
X-354329Y2755909D03*
D41*
G01*
X-334650Y1870079D03*
G01*
X-334650Y885830D03*
G01*
X3173230Y1870079D03*
G01*
X3173230Y885830D03*
G36*
X2791400Y1181500D02*
G01*
X2791400Y1250500D01*
X2850600Y1250500D01*
X2850600Y1181500D01*
G37*
G36*
X2791400Y869499D02*
G01*
X2791400Y938499D01*
X2850600Y938499D01*
X2850600Y869499D01*
G37*
G36*
X2969399Y1181500D02*
G01*
X2969399Y1250500D01*
X3028599Y1250500D01*
X3028599Y1181500D01*
G37*
G36*
X2969399Y869499D02*
G01*
X2969399Y938499D01*
X3028599Y938499D01*
X3028599Y869499D01*
G37*
G36*
X2969399Y1669499D02*
G01*
X2969399Y1738499D01*
X3028599Y1738499D01*
X3028599Y1669499D01*
G37*
G36*
X2969399Y1981500D02*
G01*
X2969399Y2050500D01*
X3028599Y2050500D01*
X3028599Y1981500D01*
G37*
G36*
X2791400Y1669499D02*
G01*
X2791400Y1738499D01*
X2850600Y1738499D01*
X2850600Y1669499D01*
G37*
G36*
X2791400Y1981500D02*
G01*
X2791400Y2050500D01*
X2850600Y2050500D01*
X2850600Y1981500D01*
G37*
G36*
X2969399Y1269499D02*
G01*
X2969399Y1338499D01*
X3028599Y1338499D01*
X3028599Y1269499D01*
G37*
G36*
X2969399Y1581500D02*
G01*
X2969399Y1650500D01*
X3028599Y1650500D01*
X3028599Y1581500D01*
G37*
G36*
X2791400Y1269499D02*
G01*
X2791400Y1338499D01*
X2850600Y1338499D01*
X2850600Y1269499D01*
G37*
G36*
X2791400Y1581500D02*
G01*
X2791400Y1650500D01*
X2850600Y1650500D01*
X2850600Y1581500D01*
G37*
D43*
G01*
X-50000Y2300000D03*
G01*
X-50000Y2200000D03*
G01*
X-50000Y2100000D03*
G01*
X-50000Y2000000D03*
G01*
X-50000Y1900000D03*
G01*
X-50000Y1800000D03*
G01*
X-50000Y1700000D03*
G01*
X-50000Y1600000D03*
G01*
X-50000Y1500000D03*
G01*
X-50000Y1400000D03*
G01*
X-50000Y1300000D03*
G01*
X-50000Y1200000D03*
G01*
X-50000Y1100000D03*
G01*
X-50000Y1000000D03*
G01*
X-50000Y900000D03*
G01*
X-50000Y800000D03*
G01*
X-50000Y700000D03*
G01*
X-50000Y600000D03*
G01*
X750000Y600000D03*
G01*
X750000Y700000D03*
G01*
X750000Y800000D03*
G01*
X750000Y900000D03*
G01*
X750000Y1000000D03*
G01*
X750000Y1100000D03*
G01*
X750000Y1200000D03*
G01*
X750000Y1300000D03*
G01*
X750000Y1400000D03*
G01*
X750000Y1500000D03*
G01*
X750000Y1600000D03*
G01*
X750000Y1700000D03*
G01*
X750000Y1800000D03*
G01*
X750000Y1900000D03*
D44*
G01*
X0Y2700000D03*
G01*
X700000Y2700000D03*
G01*
X0Y0D03*
G01*
X700000Y0D03*
G36*
X2707399Y25799D02*
G01*
X2707399Y61300D01*
X2742899Y61300D01*
X2742899Y25799D01*
G37*
G36*
X2707100Y88699D02*
G01*
X2707100Y124200D01*
X2742600Y124200D01*
X2742600Y88699D01*
G37*
G36*
X2587399Y25799D02*
G01*
X2587399Y61300D01*
X2622899Y61300D01*
X2622899Y25799D01*
G37*
G36*
X2587100Y88699D02*
G01*
X2587100Y124200D01*
X2622600Y124200D01*
X2622600Y88699D01*
G37*
G36*
X1629200Y189200D02*
G01*
X1629200Y242399D01*
X1660799Y242399D01*
X1660799Y189200D01*
G37*
G36*
X1591800Y287600D02*
G01*
X1591800Y340799D01*
X1623400Y340799D01*
X1623400Y287600D01*
G37*
G36*
X1666599Y287600D02*
G01*
X1666599Y340799D01*
X1698199Y340799D01*
X1698199Y287600D01*
G37*
G36*
X1489200Y189200D02*
G01*
X1489200Y242399D01*
X1520799Y242399D01*
X1520799Y189200D01*
G37*
G36*
X1451800Y287600D02*
G01*
X1451800Y340799D01*
X1483400Y340799D01*
X1483400Y287600D01*
G37*
G36*
X1526599Y287600D02*
G01*
X1526599Y340799D01*
X1558199Y340799D01*
X1558199Y287600D01*
G37*
G36*
X1349200Y189200D02*
G01*
X1349200Y242399D01*
X1380799Y242399D01*
X1380799Y189200D01*
G37*
G36*
X1311800Y287600D02*
G01*
X1311800Y340799D01*
X1343400Y340799D01*
X1343400Y287600D01*
G37*
G36*
X1386599Y287600D02*
G01*
X1386599Y340799D01*
X1418199Y340799D01*
X1418199Y287600D01*
G37*
G36*
X1209200Y189200D02*
G01*
X1209200Y242399D01*
X1240799Y242399D01*
X1240799Y189200D01*
G37*
G36*
X1171800Y287600D02*
G01*
X1171800Y340799D01*
X1203400Y340799D01*
X1203400Y287600D01*
G37*
G36*
X1246599Y287600D02*
G01*
X1246599Y340799D01*
X1278199Y340799D01*
X1278199Y287600D01*
G37*
G36*
X1069200Y189200D02*
G01*
X1069200Y242399D01*
X1100799Y242399D01*
X1100799Y189200D01*
G37*
G36*
X1031800Y287600D02*
G01*
X1031800Y340799D01*
X1063400Y340799D01*
X1063400Y287600D01*
G37*
G36*
X1106599Y287600D02*
G01*
X1106599Y340799D01*
X1138199Y340799D01*
X1138199Y287600D01*
G37*
G36*
X929200Y189200D02*
G01*
X929200Y242399D01*
X960799Y242399D01*
X960799Y189200D01*
G37*
G36*
X891800Y287600D02*
G01*
X891800Y340799D01*
X923400Y340799D01*
X923400Y287600D01*
G37*
G36*
X966599Y287600D02*
G01*
X966599Y340799D01*
X998199Y340799D01*
X998199Y287600D01*
G37*
D43*
G01*
X1745670Y650000D03*
G01*
X1845670Y650000D03*
G01*
X1945670Y650000D03*
G01*
X2045670Y650000D03*
G01*
X2145670Y650000D03*
G01*
X2245670Y650000D03*
G01*
X2345670Y650000D03*
G01*
X2445670Y650000D03*
G36*
X3065699Y446999D02*
G01*
X3065699Y486399D01*
X3085500Y486399D01*
X3085500Y446999D01*
G37*
G36*
X3014499Y446999D02*
G01*
X3014499Y486399D01*
X3034300Y486399D01*
X3034300Y446999D01*
G37*
G36*
X3014499Y533600D02*
G01*
X3014499Y573000D01*
X3034300Y573000D01*
X3034300Y533600D01*
G37*
G36*
X3040100Y533600D02*
G01*
X3040100Y573000D01*
X3059899Y573000D01*
X3059899Y533600D01*
G37*
G36*
X3065699Y533600D02*
G01*
X3065699Y573000D01*
X3085500Y573000D01*
X3085500Y533600D01*
G37*
G36*
X2914499Y533600D02*
G01*
X2914499Y573000D01*
X2934300Y573000D01*
X2934300Y533600D01*
G37*
G36*
X2965699Y533600D02*
G01*
X2965699Y573000D01*
X2985500Y573000D01*
X2985500Y533600D01*
G37*
G36*
X2965699Y446999D02*
G01*
X2965699Y486399D01*
X2985500Y486399D01*
X2985500Y446999D01*
G37*
G36*
X2940100Y446999D02*
G01*
X2940100Y486399D01*
X2959899Y486399D01*
X2959899Y446999D01*
G37*
G36*
X2914499Y446999D02*
G01*
X2914499Y486399D01*
X2934300Y486399D01*
X2934300Y446999D01*
G37*
G36*
X2918599Y296599D02*
G01*
X2918599Y375399D01*
X2997399Y375399D01*
X2997399Y296599D01*
G37*
G36*
X2918599Y375399D02*
G01*
X2918599Y418699D01*
X2938299Y418699D01*
X2938299Y375399D01*
G37*
G36*
X2938299Y375399D02*
G01*
X2938299Y418699D01*
X2958000Y418699D01*
X2958000Y375399D01*
G37*
G36*
X2958000Y375399D02*
G01*
X2958000Y418699D01*
X2977700Y418699D01*
X2977700Y375399D01*
G37*
G36*
X2977700Y375399D02*
G01*
X2977700Y418699D01*
X2997399Y418699D01*
X2997399Y375399D01*
G37*
G36*
X2997399Y375399D02*
G01*
X2997399Y395100D01*
X3017100Y395100D01*
X3017100Y375399D01*
G37*
G36*
X2997399Y355700D02*
G01*
X2997399Y375399D01*
X3040699Y375399D01*
X3040699Y355700D01*
G37*
G36*
X2997399Y335999D02*
G01*
X2997399Y355700D01*
X3040699Y355700D01*
X3040699Y335999D01*
G37*
G36*
X2997399Y316300D02*
G01*
X2997399Y335999D01*
X3040699Y335999D01*
X3040699Y316300D01*
G37*
G36*
X2997399Y296599D02*
G01*
X2997399Y316300D01*
X3040699Y316300D01*
X3040699Y296599D01*
G37*
G36*
X2997399Y276900D02*
G01*
X2997399Y296599D01*
X3017100Y296599D01*
X3017100Y276900D01*
G37*
G36*
X2977700Y253299D02*
G01*
X2977700Y296599D01*
X2997399Y296599D01*
X2997399Y253299D01*
G37*
G36*
X2958000Y253299D02*
G01*
X2958000Y296599D01*
X2977700Y296599D01*
X2977700Y253299D01*
G37*
G36*
X2938199Y253299D02*
G01*
X2938199Y296599D01*
X2957799Y296599D01*
X2957799Y253299D01*
G37*
G36*
X2918599Y253299D02*
G01*
X2918599Y296599D01*
X2938299Y296599D01*
X2938299Y253299D01*
G37*
G36*
X2898900Y276900D02*
G01*
X2898900Y296599D01*
X2918599Y296599D01*
X2918599Y276900D01*
G37*
G36*
X2875299Y296599D02*
G01*
X2875299Y316300D01*
X2918599Y316300D01*
X2918599Y296599D01*
G37*
G36*
X2875299Y316300D02*
G01*
X2875299Y335999D01*
X2918599Y335999D01*
X2918599Y316300D01*
G37*
G36*
X2875299Y335999D02*
G01*
X2875299Y355700D01*
X2918599Y355700D01*
X2918599Y335999D01*
G37*
G36*
X2875299Y355700D02*
G01*
X2875299Y375399D01*
X2918599Y375399D01*
X2918599Y355700D01*
G37*
G36*
X2898900Y375399D02*
G01*
X2898900Y395100D01*
X2918599Y395100D01*
X2918599Y375399D01*
G37*
G36*
X1160299Y780799D02*
G01*
X1160299Y808499D01*
X1199700Y808499D01*
X1199700Y780799D01*
G37*
G36*
X1160299Y741500D02*
G01*
X1160299Y769200D01*
X1199700Y769200D01*
X1199700Y741500D01*
G37*
G36*
X1105299Y780799D02*
G01*
X1105299Y808499D01*
X1144700Y808499D01*
X1144700Y780799D01*
G37*
G36*
X1105299Y741500D02*
G01*
X1105299Y769200D01*
X1144700Y769200D01*
X1144700Y741500D01*
G37*
G36*
X3191499Y164600D02*
G01*
X3191499Y266100D01*
X3274300Y266100D01*
X3274300Y164600D01*
G37*
G36*
X3191499Y393899D02*
G01*
X3191499Y495399D01*
X3274300Y495399D01*
X3274300Y393899D01*
G37*
G36*
X3191499Y269899D02*
G01*
X3191499Y324200D01*
X3274300Y324200D01*
X3274300Y269899D01*
G37*
G36*
X3191499Y335799D02*
G01*
X3191499Y390100D01*
X3274300Y390100D01*
X3274300Y335799D01*
G37*
G36*
X3096999Y317100D02*
G01*
X3096999Y342899D01*
X3159399Y342899D01*
X3159399Y317100D01*
G37*
G36*
X3096999Y342699D02*
G01*
X3096999Y368400D01*
X3159399Y368400D01*
X3159399Y342699D01*
G37*
G36*
X3096999Y291500D02*
G01*
X3096999Y317300D01*
X3159399Y317300D01*
X3159399Y291500D01*
G37*
G36*
X3096999Y368299D02*
G01*
X3096999Y394000D01*
X3159399Y394000D01*
X3159399Y368299D01*
G37*
G36*
X3096999Y265999D02*
G01*
X3096999Y291700D01*
X3159399Y291700D01*
X3159399Y265999D01*
G37*
G36*
X3096999Y200000D02*
G01*
X3096999Y265100D01*
X3187700Y265100D01*
X3187700Y200000D01*
G37*
G36*
X3096999Y394899D02*
G01*
X3096999Y460000D01*
X3187700Y460000D01*
X3187700Y394899D01*
G37*
G36*
X2978299Y152500D02*
G01*
X2978299Y180199D01*
X3017700Y180199D01*
X3017700Y152500D01*
G37*
G36*
X2978299Y191799D02*
G01*
X2978299Y219499D01*
X3017700Y219499D01*
X3017700Y191799D01*
G37*
G36*
X1336499Y1060300D02*
G01*
X1336499Y1099699D01*
X1364200Y1099699D01*
X1364200Y1060300D01*
G37*
G36*
X1375799Y1060300D02*
G01*
X1375799Y1099699D01*
X1403500Y1099699D01*
X1403500Y1060300D01*
G37*
G36*
X1166300Y1266500D02*
G01*
X1166300Y1294200D01*
X1205699Y1294200D01*
X1205699Y1266500D01*
G37*
G36*
X1166300Y1305799D02*
G01*
X1166300Y1333499D01*
X1205699Y1333499D01*
X1205699Y1305799D01*
G37*
G36*
X1220299Y1266500D02*
G01*
X1220299Y1294200D01*
X1259700Y1294200D01*
X1259700Y1266500D01*
G37*
G36*
X1220299Y1305799D02*
G01*
X1220299Y1333499D01*
X1259700Y1333499D01*
X1259700Y1305799D01*
G37*
G36*
X2894499Y181300D02*
G01*
X2894499Y220700D01*
X2922200Y220700D01*
X2922200Y181300D01*
G37*
G36*
X2933800Y181300D02*
G01*
X2933800Y220700D01*
X2961499Y220700D01*
X2961499Y181300D01*
G37*
G36*
X2933800Y126300D02*
G01*
X2933800Y165700D01*
X2961499Y165700D01*
X2961499Y126300D01*
G37*
G36*
X2894499Y126300D02*
G01*
X2894499Y165700D01*
X2922200Y165700D01*
X2922200Y126300D01*
G37*
G36*
X1280799Y1435300D02*
G01*
X1280799Y1474699D01*
X1308500Y1474699D01*
X1308500Y1435300D01*
G37*
G36*
X1241499Y1435300D02*
G01*
X1241499Y1474699D01*
X1269200Y1474699D01*
X1269200Y1435300D01*
G37*
G36*
X1141499Y1785300D02*
G01*
X1141499Y1824699D01*
X1169200Y1824699D01*
X1169200Y1785300D01*
G37*
G36*
X1180799Y1785300D02*
G01*
X1180799Y1824699D01*
X1208500Y1824699D01*
X1208500Y1785300D01*
G37*
G36*
X1451499Y350199D02*
G01*
X1451499Y389699D01*
X1479200Y389699D01*
X1479200Y350199D01*
G37*
G36*
X1490799Y350199D02*
G01*
X1490799Y389699D01*
X1518500Y389699D01*
X1518500Y350199D01*
G37*
G36*
X1591499Y350199D02*
G01*
X1591499Y389699D01*
X1619200Y389699D01*
X1619200Y350199D01*
G37*
G36*
X1630799Y350199D02*
G01*
X1630799Y389699D01*
X1658500Y389699D01*
X1658500Y350199D01*
G37*
G36*
X1311499Y350199D02*
G01*
X1311499Y389699D01*
X1339200Y389699D01*
X1339200Y350199D01*
G37*
G36*
X1350799Y350199D02*
G01*
X1350799Y389699D01*
X1378500Y389699D01*
X1378500Y350199D01*
G37*
G36*
X891499Y350199D02*
G01*
X891499Y389699D01*
X919200Y389699D01*
X919200Y350199D01*
G37*
G36*
X930799Y350199D02*
G01*
X930799Y389699D01*
X958500Y389699D01*
X958500Y350199D01*
G37*
G36*
X1031499Y350199D02*
G01*
X1031499Y389699D01*
X1059200Y389699D01*
X1059200Y350199D01*
G37*
G36*
X1070799Y350199D02*
G01*
X1070799Y389699D01*
X1098500Y389699D01*
X1098500Y350199D01*
G37*
G36*
X1171499Y350199D02*
G01*
X1171499Y389699D01*
X1199200Y389699D01*
X1199200Y350199D01*
G37*
G36*
X1210799Y350199D02*
G01*
X1210799Y389699D01*
X1238500Y389699D01*
X1238500Y350199D01*
G37*
G36*
X1356000Y2378400D02*
G01*
X1356000Y2446399D01*
X1423999Y2446399D01*
X1423999Y2378400D01*
G37*
G01*
X1390000Y2510790D03*
G01*
X1390000Y2609189D03*
G01*
X1390000Y2707640D03*
G36*
X2637700Y316500D02*
G01*
X2637700Y367800D01*
X2673299Y367800D01*
X2673299Y316500D01*
G37*
G36*
X2637700Y259400D02*
G01*
X2637700Y290999D01*
X2673299Y290999D01*
X2673299Y259400D01*
G37*
G36*
X2732200Y259400D02*
G01*
X2732200Y290999D01*
X2767799Y290999D01*
X2767799Y259400D01*
G37*
G36*
X2732200Y334200D02*
G01*
X2732200Y365799D01*
X2767799Y365799D01*
X2767799Y334200D01*
G37*
G36*
X2776499Y225199D02*
G01*
X2776499Y264699D01*
X2804200Y264699D01*
X2804200Y225199D01*
G37*
G36*
X2815799Y225199D02*
G01*
X2815799Y264699D01*
X2843500Y264699D01*
X2843500Y225199D01*
G37*
G36*
X3100299Y121500D02*
G01*
X3100299Y149200D01*
X3139799Y149200D01*
X3139799Y121500D01*
G37*
G36*
X3100299Y160799D02*
G01*
X3100299Y188499D01*
X3139799Y188499D01*
X3139799Y160799D01*
G37*
G36*
X2773199Y176799D02*
G01*
X2773199Y204499D01*
X2812700Y204499D01*
X2812700Y176799D01*
G37*
G36*
X2773199Y137500D02*
G01*
X2773199Y165199D01*
X2812700Y165199D01*
X2812700Y137500D01*
G37*
G36*
X3045200Y160799D02*
G01*
X3045200Y188499D01*
X3084700Y188499D01*
X3084700Y160799D01*
G37*
G36*
X3045200Y121500D02*
G01*
X3045200Y149200D01*
X3084700Y149200D01*
X3084700Y121500D01*
G37*
G36*
X2496499Y20300D02*
G01*
X2496499Y59699D01*
X2524200Y59699D01*
X2524200Y20300D01*
G37*
G36*
X2535799Y20300D02*
G01*
X2535799Y59699D01*
X2563500Y59699D01*
X2563500Y20300D01*
G37*
G36*
X2805799Y20300D02*
G01*
X2805799Y59699D01*
X2833500Y59699D01*
X2833500Y20300D01*
G37*
G36*
X2766499Y20300D02*
G01*
X2766499Y59699D01*
X2794200Y59699D01*
X2794200Y20300D01*
G37*
G36*
X975299Y390799D02*
G01*
X975299Y418499D01*
X1014700Y418499D01*
X1014700Y390799D01*
G37*
G36*
X975299Y351500D02*
G01*
X975299Y379200D01*
X1014700Y379200D01*
X1014700Y351500D01*
G37*
G36*
X1115299Y390799D02*
G01*
X1115299Y418499D01*
X1154700Y418499D01*
X1154700Y390799D01*
G37*
G36*
X1115299Y351500D02*
G01*
X1115299Y379200D01*
X1154700Y379200D01*
X1154700Y351500D01*
G37*
G36*
X1255299Y390799D02*
G01*
X1255299Y418499D01*
X1294700Y418499D01*
X1294700Y390799D01*
G37*
G36*
X1255299Y351500D02*
G01*
X1255299Y379200D01*
X1294700Y379200D01*
X1294700Y351500D01*
G37*
G36*
X1395299Y390799D02*
G01*
X1395299Y418499D01*
X1434700Y418499D01*
X1434700Y390799D01*
G37*
G36*
X1395299Y351500D02*
G01*
X1395299Y379200D01*
X1434700Y379200D01*
X1434700Y351500D01*
G37*
G36*
X1535299Y390799D02*
G01*
X1535299Y418499D01*
X1574700Y418499D01*
X1574700Y390799D01*
G37*
G36*
X1535299Y351500D02*
G01*
X1535299Y379200D01*
X1574700Y379200D01*
X1574700Y351500D01*
G37*
G36*
X1675299Y390799D02*
G01*
X1675299Y418499D01*
X1714700Y418499D01*
X1714700Y390799D01*
G37*
G36*
X1675299Y351500D02*
G01*
X1675299Y379200D01*
X1714700Y379200D01*
X1714700Y351500D01*
G37*
G36*
X1535200Y195799D02*
G01*
X1535200Y223499D01*
X1574700Y223499D01*
X1574700Y195799D01*
G37*
G36*
X1535200Y156500D02*
G01*
X1535200Y184200D01*
X1574700Y184200D01*
X1574700Y156500D01*
G37*
G36*
X1395200Y195799D02*
G01*
X1395200Y223499D01*
X1434700Y223499D01*
X1434700Y195799D01*
G37*
G36*
X1395200Y156500D02*
G01*
X1395200Y184200D01*
X1434700Y184200D01*
X1434700Y156500D01*
G37*
G36*
X1255200Y195799D02*
G01*
X1255200Y223499D01*
X1294700Y223499D01*
X1294700Y195799D01*
G37*
G36*
X1255200Y156500D02*
G01*
X1255200Y184200D01*
X1294700Y184200D01*
X1294700Y156500D01*
G37*
G36*
X1115200Y195799D02*
G01*
X1115200Y223499D01*
X1154700Y223499D01*
X1154700Y195799D01*
G37*
G36*
X1115200Y156500D02*
G01*
X1115200Y184200D01*
X1154700Y184200D01*
X1154700Y156500D01*
G37*
G36*
X975200Y195799D02*
G01*
X975200Y223499D01*
X1014700Y223499D01*
X1014700Y195799D01*
G37*
G36*
X975200Y156500D02*
G01*
X975200Y184200D01*
X1014700Y184200D01*
X1014700Y156500D01*
G37*
G36*
X1675200Y195799D02*
G01*
X1675200Y223499D01*
X1714700Y223499D01*
X1714700Y195799D01*
G37*
G36*
X1675200Y156500D02*
G01*
X1675200Y184200D01*
X1714700Y184200D01*
X1714700Y156500D01*
G37*
M02*
