M48
; DRILL file {KiCad 5.99.0-unknown-9424d66d22~106~ubuntu18.04.1} date Sat Jan  9 19:59:27 2021
; FORMAT={-:-/ absolute / metric / decimal}
; #@! TF.CreationDate,2021-01-09T19:59:27+08:00
; #@! TF.GenerationSoftware,Kicad,Pcbnew,5.99.0-unknown-9424d66d22~106~ubuntu18.04.1
; #@! TF.FileFunction,Plated,1,2,PTH
FMAT,2
METRIC
T1C0.600
T2C0.650
T3C0.700
T4C0.850
T5C1.000
T6C1.100
%
G90
G05
T3
X73.114Y-67.536
X73.914Y-65.786
X74.714Y-67.536
X75.514Y-65.786
X76.314Y-67.536
X86.368Y-55.142
X86.868Y-56.642
X88.368Y-55.142
X89.368Y-56.642
X90.368Y-55.142
X91.368Y-56.642
X92.368Y-55.142
X93.868Y-56.642
X94.368Y-55.142
T4
X48.554Y-64.069
X53.554Y-64.069
T5
X40.259Y-26.289
X40.259Y-28.829
X40.259Y-31.369
X40.259Y-33.909
X40.259Y-36.449
X40.259Y-38.989
X40.259Y-41.529
X40.259Y-44.069
X40.259Y-46.609
X40.259Y-51.689
X47.879Y-26.289
X47.879Y-28.829
X47.879Y-31.369
X47.879Y-33.909
X47.879Y-36.449
X47.879Y-38.989
X47.879Y-41.529
X47.879Y-44.069
X47.879Y-46.609
X47.879Y-51.689
X72.39Y-28.956
X74.186Y-30.752
X75.982Y-32.548
X77.778Y-23.568
X77.778Y-34.344
X79.574Y-25.364
X79.574Y-36.14
X81.37Y-27.16
X81.37Y-37.936
X83.166Y-28.956
X83.166Y-39.732
X84.962Y-30.752
X84.962Y-41.528
X86.758Y-32.548
X86.758Y-43.324
X88.554Y-34.344
X90.351Y-36.14
X90.351Y-46.917
X92.147Y-37.936
X95.739Y-41.528
T6
X22.18Y-66.213
X22.54Y-60.263
X30.8Y-60.263
X31.16Y-66.213
T1
G00X34.669Y-61.344
M15
G01X34.669Y-62.444
M16
G05
G00X34.669Y-65.774
M15
G01X34.669Y-66.374
M16
G05
G00X43.309Y-61.344
M15
G01X43.309Y-62.444
M16
G05
G00X43.309Y-65.774
M15
G01X43.309Y-66.374
M16
G05
G00X47.554Y-67.12
M15
G01X47.554Y-66.419
M16
G05
G00X54.554Y-66.419
M15
G01X54.554Y-67.12
M16
G05
G00X83.968Y-55.342
M15
G01X83.968Y-56.442
M16
G05
G00X83.968Y-63.992
M15
G01X83.968Y-64.792
M16
G05
G00X96.768Y-55.342
M15
G01X96.768Y-56.442
M16
G05
G00X96.768Y-63.992
M15
G01X96.768Y-64.792
M16
G05
T2
G00X60.039Y-63.847
M15
G01X60.039Y-63.447
M16
G05
G00X64.879Y-63.847
M15
G01X64.879Y-63.447
M16
G05
T3
G00X59.729Y-66.897
M15
G01X59.729Y-66.397
M16
G05
G00X65.189Y-66.897
M15
G01X65.189Y-66.397
M16
G05
G00X71.064Y-66.011
M15
G01X71.064Y-67.311
M16
G05
G00X78.364Y-66.011
M15
G01X78.364Y-67.311
M16
G05
T0
M30
