G04 ================== begin FILE IDENTIFICATION RECORD ==================*
G04 Layout Name:  C:/Users/labadmin/Downloads/ww10-exchange/G4.2/arena_12-12_v2.2.brd*
G04 Film Name:    Assembly*
G04 File Format:  Gerber RS274X*
G04 File Origin:  Cadence Allegro 17.4-S007*
G04 Origin Date:  Tue Nov 10 23:59:31 2020*
G04 *
G04 Layer:  CONSTRAINT REGION/ALL*
G04 Layer:  CONSTRAINT REGION/OUTER_LAYERS*
G04 Layer:  CONSTRAINT REGION/INNER_SIGNAL_LAYERS*
G04 Layer:  CONSTRAINT REGION/INNER_PLANE_LAYERS*
G04 Layer:  CONSTRAINT REGION/BOTTOM*
G04 Layer:  CONSTRAINT REGION/LAYER 2*
G04 Layer:  CONSTRAINT REGION/GND2*
G04 Layer:  CONSTRAINT REGION/LAYER 1*
G04 Layer:  CONSTRAINT REGION/PWR*
G04 Layer:  CONSTRAINT REGION/TOP*
G04 Layer:  VIA KEEPOUT/ALL*
G04 Layer:  VIA KEEPOUT/BOTTOM*
G04 Layer:  VIA KEEPOUT/LAYER 2*
G04 Layer:  VIA KEEPOUT/GND2*
G04 Layer:  VIA KEEPOUT/LAYER 1*
G04 Layer:  VIA KEEPOUT/PWR*
G04 Layer:  VIA KEEPOUT/TOP*
G04 Layer:  ROUTE KEEPOUT/ALL*
G04 Layer:  ROUTE KEEPOUT/BOTTOM*
G04 Layer:  ROUTE KEEPOUT/LAYER 2*
G04 Layer:  ROUTE KEEPOUT/GND2*
G04 Layer:  ROUTE KEEPOUT/LAYER 1*
G04 Layer:  ROUTE KEEPOUT/PWR*
G04 Layer:  ROUTE KEEPOUT/TOP*
G04 Layer:  ROUTE KEEPIN/ALL*
G04 Layer:  PACKAGE KEEPOUT/ALL*
G04 Layer:  PACKAGE KEEPOUT/TOP*
G04 Layer:  PACKAGE KEEPOUT/BOTTOM*
G04 Layer:  PACKAGE KEEPIN/ALL*
G04 Layer:  MANUFACTURING/PHOTOPLOT_OUTLINE*
G04 Layer:  MANUFACTURING/NO_GLOSS_ALL*
G04 Layer:  MANUFACTURING/NO_GLOSS_TOP*
G04 Layer:  MANUFACTURING/NO_GLOSS_BOTTOM*
G04 Layer:  MANUFACTURING/NO_GLOSS_INTERNAL*
G04 Layer:  MANUFACTURING/NCDRILL_LEGEND*
G04 Layer:  MANUFACTURING/NCDRILL_FIGURE*
G04 Layer:  MANUFACTURING/PROBE_TOP*
G04 Layer:  MANUFACTURING/PROBE_BOTTOM*
G04 Layer:  MANUFACTURING/AUTOSILK_TOP*
G04 Layer:  MANUFACTURING/AUTOSILK_BOTTOM*
G04 Layer:  MANUFACTURING/NO_PROBE_TOP*
G04 Layer:  MANUFACTURING/NO_PROBE_BOTTOM*
G04 Layer:  MANUFACTURING/XSECTION_CHART*
G04 Layer:  MANUFACTURING/NCLEGEND-1-1*
G04 Layer:  MANUFACTURING/NCLEGEND-1-6*
G04 Layer:  BOARD GEOMETRY/OUTLINE*
G04 Layer:  BOARD GEOMETRY/DIMENSION*
G04 *
G04 Offset:    (0.0 0.0)*
G04 Mirror:    No*
G04 Mode:      Positive*
G04 Rotation:  0*
G04 FullContactRelief:  No*
G04 UndefLineWidth:     0.1*
G04 ================== end FILE IDENTIFICATION RECORD ====================*
%FSLAX25Y25*MOIN*%
%IR0*IPPOS*OFA0.00000B0.00000*MIA0B0*SFA1.00000B1.00000*%
%AMMACRO17*
1,1,.0001,0.0,.03935*
20,1,.0001,0.0,.03935,.034078,-.019675,0.0*
1,1,.0001,.034078,-.019675*
20,1,.0001,.034078,-.019675,-.034078,-.019675,0.0*
1,1,.0001,-.034078,-.019675*
20,1,.0001,-.034078,-.019675,0.0,.03935,0.0*
1,1,.0001,0.0,.03935*
%
%ADD17MACRO17*%
%AMMACRO14*
1,1,.0001,.02,0.0*
20,1,.0001,.02,0.0,-.02,0.0,0.0*
1,1,.0001,-.02,0.0*
1,1,.0001,0.0,.02*
20,1,.0001,0.0,.02,0.0,-.02,0.0*
1,1,.0001,0.0,-.02*
%
%ADD14MACRO14*%
%AMMACRO12*
1,1,.0001,.025,0.0*
20,1,.0001,.025,0.0,.02462,-.004341,0.0*
1,1,.0001,.02462,-.004341*
20,1,.0001,.02462,-.004341,.023492,-.008551,0.0*
1,1,.0001,.023492,-.008551*
20,1,.0001,.023492,-.008551,.021651,-.0125,0.0*
1,1,.0001,.021651,-.0125*
20,1,.0001,.021651,-.0125,.019151,-.01607,0.0*
1,1,.0001,.019151,-.01607*
20,1,.0001,.019151,-.01607,.01607,-.019151,0.0*
1,1,.0001,.01607,-.019151*
20,1,.0001,.01607,-.019151,.0125,-.021651,0.0*
1,1,.0001,.0125,-.021651*
20,1,.0001,.0125,-.021651,.008551,-.023492,0.0*
1,1,.0001,.008551,-.023492*
20,1,.0001,.008551,-.023492,.004341,-.02462,0.0*
1,1,.0001,.004341,-.02462*
20,1,.0001,.004341,-.02462,0.0,-.025,0.0*
1,1,.0001,0.0,-.025*
20,1,.0001,0.0,-.025,-.004341,-.02462,0.0*
1,1,.0001,-.004341,-.02462*
20,1,.0001,-.004341,-.02462,-.008551,-.023492,0.0*
1,1,.0001,-.008551,-.023492*
20,1,.0001,-.008551,-.023492,-.0125,-.021651,0.0*
1,1,.0001,-.0125,-.021651*
20,1,.0001,-.0125,-.021651,-.01607,-.019151,0.0*
1,1,.0001,-.01607,-.019151*
20,1,.0001,-.01607,-.019151,-.019151,-.01607,0.0*
1,1,.0001,-.019151,-.01607*
20,1,.0001,-.019151,-.01607,-.021651,-.0125,0.0*
1,1,.0001,-.021651,-.0125*
20,1,.0001,-.021651,-.0125,-.023492,-.008551,0.0*
1,1,.0001,-.023492,-.008551*
20,1,.0001,-.023492,-.008551,-.02462,-.004341,0.0*
1,1,.0001,-.02462,-.004341*
20,1,.0001,-.02462,-.004341,-.025,0.0,0.0*
1,1,.0001,-.025,0.0*
20,1,.0001,-.025,0.0,-.02462,.004341,0.0*
1,1,.0001,-.02462,.004341*
20,1,.0001,-.02462,.004341,-.023492,.008551,0.0*
1,1,.0001,-.023492,.008551*
20,1,.0001,-.023492,.008551,-.021651,.0125,0.0*
1,1,.0001,-.021651,.0125*
20,1,.0001,-.021651,.0125,-.019151,.01607,0.0*
1,1,.0001,-.019151,.01607*
20,1,.0001,-.019151,.01607,-.01607,.019151,0.0*
1,1,.0001,-.01607,.019151*
20,1,.0001,-.01607,.019151,-.0125,.021651,0.0*
1,1,.0001,-.0125,.021651*
20,1,.0001,-.0125,.021651,-.008551,.023492,0.0*
1,1,.0001,-.008551,.023492*
20,1,.0001,-.008551,.023492,-.004341,.02462,0.0*
1,1,.0001,-.004341,.02462*
20,1,.0001,-.004341,.02462,0.0,.025,0.0*
1,1,.0001,0.0,.025*
20,1,.0001,0.0,.025,.004341,.02462,0.0*
1,1,.0001,.004341,.02462*
20,1,.0001,.004341,.02462,.008551,.023492,0.0*
1,1,.0001,.008551,.023492*
20,1,.0001,.008551,.023492,.0125,.021651,0.0*
1,1,.0001,.0125,.021651*
20,1,.0001,.0125,.021651,.01607,.019151,0.0*
1,1,.0001,.01607,.019151*
20,1,.0001,.01607,.019151,.019151,.01607,0.0*
1,1,.0001,.019151,.01607*
20,1,.0001,.019151,.01607,.021651,.0125,0.0*
1,1,.0001,.021651,.0125*
20,1,.0001,.021651,.0125,.023492,.008551,0.0*
1,1,.0001,.023492,.008551*
20,1,.0001,.023492,.008551,.02462,.004341,0.0*
1,1,.0001,.02462,.004341*
20,1,.0001,.02462,.004341,.025,0.0,0.0*
1,1,.0001,.025,0.0*
1,1,.0001,.0125,0.0*
20,1,.0001,.0125,0.0,-.0125,0.0,0.0*
1,1,.0001,-.0125,0.0*
1,1,.0001,0.0,.0125*
20,1,.0001,0.0,.0125,0.0,-.0125,0.0*
1,1,.0001,0.0,-.0125*
%
%ADD12MACRO12*%
%AMMACRO16*
1,1,.0001,.05,0.0*
20,1,.0001,.05,0.0,.04924,-.008682,0.0*
1,1,.0001,.04924,-.008682*
20,1,.0001,.04924,-.008682,.046985,-.017101,0.0*
1,1,.0001,.046985,-.017101*
20,1,.0001,.046985,-.017101,.043301,-.025,0.0*
1,1,.0001,.043301,-.025*
20,1,.0001,.043301,-.025,.038302,-.032139,0.0*
1,1,.0001,.038302,-.032139*
20,1,.0001,.038302,-.032139,.032139,-.038302,0.0*
1,1,.0001,.032139,-.038302*
20,1,.0001,.032139,-.038302,.025,-.043301,0.0*
1,1,.0001,.025,-.043301*
20,1,.0001,.025,-.043301,.017101,-.046985,0.0*
1,1,.0001,.017101,-.046985*
20,1,.0001,.017101,-.046985,.008682,-.04924,0.0*
1,1,.0001,.008682,-.04924*
20,1,.0001,.008682,-.04924,0.0,-.05,0.0*
1,1,.0001,0.0,-.05*
20,1,.0001,0.0,-.05,-.008682,-.04924,0.0*
1,1,.0001,-.008682,-.04924*
20,1,.0001,-.008682,-.04924,-.017101,-.046985,0.0*
1,1,.0001,-.017101,-.046985*
20,1,.0001,-.017101,-.046985,-.025,-.043301,0.0*
1,1,.0001,-.025,-.043301*
20,1,.0001,-.025,-.043301,-.032139,-.038302,0.0*
1,1,.0001,-.032139,-.038302*
20,1,.0001,-.032139,-.038302,-.038302,-.032139,0.0*
1,1,.0001,-.038302,-.032139*
20,1,.0001,-.038302,-.032139,-.043301,-.025,0.0*
1,1,.0001,-.043301,-.025*
20,1,.0001,-.043301,-.025,-.046985,-.017101,0.0*
1,1,.0001,-.046985,-.017101*
20,1,.0001,-.046985,-.017101,-.04924,-.008682,0.0*
1,1,.0001,-.04924,-.008682*
20,1,.0001,-.04924,-.008682,-.05,0.0,0.0*
1,1,.0001,-.05,0.0*
20,1,.0001,-.05,0.0,-.04924,.008682,0.0*
1,1,.0001,-.04924,.008682*
20,1,.0001,-.04924,.008682,-.046985,.017101,0.0*
1,1,.0001,-.046985,.017101*
20,1,.0001,-.046985,.017101,-.043301,.025,0.0*
1,1,.0001,-.043301,.025*
20,1,.0001,-.043301,.025,-.038302,.032139,0.0*
1,1,.0001,-.038302,.032139*
20,1,.0001,-.038302,.032139,-.032139,.038302,0.0*
1,1,.0001,-.032139,.038302*
20,1,.0001,-.032139,.038302,-.025,.043301,0.0*
1,1,.0001,-.025,.043301*
20,1,.0001,-.025,.043301,-.017101,.046985,0.0*
1,1,.0001,-.017101,.046985*
20,1,.0001,-.017101,.046985,-.008682,.04924,0.0*
1,1,.0001,-.008682,.04924*
20,1,.0001,-.008682,.04924,0.0,.05,0.0*
1,1,.0001,0.0,.05*
20,1,.0001,0.0,.05,.008682,.04924,0.0*
1,1,.0001,.008682,.04924*
20,1,.0001,.008682,.04924,.017101,.046985,0.0*
1,1,.0001,.017101,.046985*
20,1,.0001,.017101,.046985,.025,.043301,0.0*
1,1,.0001,.025,.043301*
20,1,.0001,.025,.043301,.032139,.038302,0.0*
1,1,.0001,.032139,.038302*
20,1,.0001,.032139,.038302,.038302,.032139,0.0*
1,1,.0001,.038302,.032139*
20,1,.0001,.038302,.032139,.043301,.025,0.0*
1,1,.0001,.043301,.025*
20,1,.0001,.043301,.025,.046985,.017101,0.0*
1,1,.0001,.046985,.017101*
20,1,.0001,.046985,.017101,.04924,.008682,0.0*
1,1,.0001,.04924,.008682*
20,1,.0001,.04924,.008682,.05,0.0,0.0*
1,1,.0001,.05,0.0*
1,1,.0001,.0183,.0208*
20,1,.0001,.0183,.0208,.0133,.0233,0.0*
1,1,.0001,.0133,.0233*
20,1,.0001,.0133,.0233,.0075,.025,0.0*
1,1,.0001,.0075,.025*
20,1,.0001,.0075,.025,.0008,.025,0.0*
1,1,.0001,.0008,.025*
20,1,.0001,.0008,.025,-.0067,.0225,0.0*
1,1,.0001,-.0067,.0225*
20,1,.0001,-.0067,.0225,-.0125,.0183,0.0*
1,1,.0001,-.0125,.0183*
20,1,.0001,-.0125,.0183,-.0167,.0133,0.0*
1,1,.0001,-.0167,.0133*
20,1,.0001,-.0167,.0133,-.02,.005,0.0*
1,1,.0001,-.02,.005*
20,1,.0001,-.02,.005,-.0208,-.0025,0.0*
1,1,.0001,-.0208,-.0025*
20,1,.0001,-.0208,-.0025,-.0192,-.01,0.0*
1,1,.0001,-.0192,-.01*
20,1,.0001,-.0192,-.01,-.0167,-.015,0.0*
1,1,.0001,-.0167,-.015*
20,1,.0001,-.0167,-.015,-.0117,-.02,0.0*
1,1,.0001,-.0117,-.02*
20,1,.0001,-.0117,-.02,-.0058,-.0233,0.0*
1,1,.0001,-.0058,-.0233*
20,1,.0001,-.0058,-.0233,0.0,-.025,0.0*
1,1,.0001,0.0,-.025*
20,1,.0001,0.0,-.025,.0058,-.025,0.0*
1,1,.0001,.0058,-.025*
20,1,.0001,.0058,-.025,.0117,-.0233,0.0*
1,1,.0001,.0117,-.0233*
20,1,.0001,.0117,-.0233,.0167,-.0208,0.0*
1,1,.0001,.0167,-.0208*
20,1,.0001,.0167,-.0208,.0208,-.0175,0.0*
1,1,.0001,.0208,-.0175*
%
%ADD16MACRO16*%
%AMMACRO10*
1,1,.0001,0.0,.1*
20,1,.0001,0.0,.1,.086603,-.05,0.0*
1,1,.0001,.086603,-.05*
20,1,.0001,.086603,-.05,-.086603,-.05,0.0*
1,1,.0001,-.086603,-.05*
20,1,.0001,-.086603,-.05,0.0,.1,0.0*
1,1,.0001,0.0,.1*
%
%ADD10MACRO10*%
%AMMACRO18*
1,1,.0001,.09845,0.0*
20,1,.0001,.09845,0.0,.096954,-.017096,0.0*
1,1,.0001,.096954,-.017096*
20,1,.0001,.096954,-.017096,.092513,-.033672,0.0*
1,1,.0001,.092513,-.033672*
20,1,.0001,.092513,-.033672,.08526,-.049225,0.0*
1,1,.0001,.08526,-.049225*
20,1,.0001,.08526,-.049225,.075417,-.063282,0.0*
1,1,.0001,.075417,-.063282*
20,1,.0001,.075417,-.063282,.063282,-.075417,0.0*
1,1,.0001,.063282,-.075417*
20,1,.0001,.063282,-.075417,.049225,-.08526,0.0*
1,1,.0001,.049225,-.08526*
20,1,.0001,.049225,-.08526,.033672,-.092513,0.0*
1,1,.0001,.033672,-.092513*
20,1,.0001,.033672,-.092513,.017096,-.096954,0.0*
1,1,.0001,.017096,-.096954*
20,1,.0001,.017096,-.096954,0.0,-.09845,0.0*
1,1,.0001,0.0,-.09845*
20,1,.0001,0.0,-.09845,-.017096,-.096954,0.0*
1,1,.0001,-.017096,-.096954*
20,1,.0001,-.017096,-.096954,-.033672,-.092513,0.0*
1,1,.0001,-.033672,-.092513*
20,1,.0001,-.033672,-.092513,-.049225,-.08526,0.0*
1,1,.0001,-.049225,-.08526*
20,1,.0001,-.049225,-.08526,-.063282,-.075417,0.0*
1,1,.0001,-.063282,-.075417*
20,1,.0001,-.063282,-.075417,-.075417,-.063282,0.0*
1,1,.0001,-.075417,-.063282*
20,1,.0001,-.075417,-.063282,-.08526,-.049225,0.0*
1,1,.0001,-.08526,-.049225*
20,1,.0001,-.08526,-.049225,-.092513,-.033672,0.0*
1,1,.0001,-.092513,-.033672*
20,1,.0001,-.092513,-.033672,-.096954,-.017096,0.0*
1,1,.0001,-.096954,-.017096*
20,1,.0001,-.096954,-.017096,-.09845,0.0,0.0*
1,1,.0001,-.09845,0.0*
20,1,.0001,-.09845,0.0,-.096954,.017096,0.0*
1,1,.0001,-.096954,.017096*
20,1,.0001,-.096954,.017096,-.092513,.033672,0.0*
1,1,.0001,-.092513,.033672*
20,1,.0001,-.092513,.033672,-.08526,.049225,0.0*
1,1,.0001,-.08526,.049225*
20,1,.0001,-.08526,.049225,-.075417,.063282,0.0*
1,1,.0001,-.075417,.063282*
20,1,.0001,-.075417,.063282,-.063282,.075417,0.0*
1,1,.0001,-.063282,.075417*
20,1,.0001,-.063282,.075417,-.049225,.08526,0.0*
1,1,.0001,-.049225,.08526*
20,1,.0001,-.049225,.08526,-.033672,.092513,0.0*
1,1,.0001,-.033672,.092513*
20,1,.0001,-.033672,.092513,-.017096,.096954,0.0*
1,1,.0001,-.017096,.096954*
20,1,.0001,-.017096,.096954,0.0,.09845,0.0*
1,1,.0001,0.0,.09845*
20,1,.0001,0.0,.09845,.017096,.096954,0.0*
1,1,.0001,.017096,.096954*
20,1,.0001,.017096,.096954,.033672,.092513,0.0*
1,1,.0001,.033672,.092513*
20,1,.0001,.033672,.092513,.049225,.08526,0.0*
1,1,.0001,.049225,.08526*
20,1,.0001,.049225,.08526,.063282,.075417,0.0*
1,1,.0001,.063282,.075417*
20,1,.0001,.063282,.075417,.075417,.063282,0.0*
1,1,.0001,.075417,.063282*
20,1,.0001,.075417,.063282,.08526,.049225,0.0*
1,1,.0001,.08526,.049225*
20,1,.0001,.08526,.049225,.092513,.033672,0.0*
1,1,.0001,.092513,.033672*
20,1,.0001,.092513,.033672,.096954,.017096,0.0*
1,1,.0001,.096954,.017096*
20,1,.0001,.096954,.017096,.09845,0.0,0.0*
1,1,.0001,.09845,0.0*
1,1,.0001,0.0,-.0492*
20,1,.0001,0.0,-.0492,0.0,.0492,0.0*
1,1,.0001,0.0,.0492*
20,1,.0001,0.0,.0492,-.0197,.0295,0.0*
1,1,.0001,-.0197,.0295*
1,1,.0001,-.0197,-.0492*
20,1,.0001,-.0197,-.0492,.0197,-.0492,0.0*
1,1,.0001,.0197,-.0492*
%
%ADD18MACRO18*%
%AMMACRO13*
1,1,.0001,0.0,.03*
20,1,.0001,0.0,.03,.025981,-.015,0.0*
1,1,.0001,.025981,-.015*
20,1,.0001,.025981,-.015,-.025981,-.015,0.0*
1,1,.0001,-.025981,-.015*
20,1,.0001,-.025981,-.015,0.0,.03,0.0*
1,1,.0001,0.0,.03*
%
%ADD13MACRO13*%
%AMMACRO11*
1,1,.0001,0.0,.012*
20,1,.0001,0.0,.012,.010392,-.006,0.0*
1,1,.0001,.010392,-.006*
20,1,.0001,.010392,-.006,-.010392,-.006,0.0*
1,1,.0001,-.010392,-.006*
20,1,.0001,-.010392,-.006,0.0,.012,0.0*
1,1,.0001,0.0,.012*
%
%ADD11MACRO11*%
%AMMACRO15*
1,1,.0001,0.0,2.85*
20,1,.0001,0.0,2.85,2.468171,-1.425,0.0*
1,1,.0001,2.468171,-1.425*
20,1,.0001,2.468171,-1.425,-2.468171,-1.425,0.0*
1,1,.0001,-2.468171,-1.425*
20,1,.0001,-2.468171,-1.425,0.0,2.85,0.0*
1,1,.0001,0.0,2.85*
%
%ADD15MACRO15*%
%AMMACRO22*
1,1,.0001,-.015,.06*
20,1,.0001,-.015,.06,.015,.06,0.0*
1,1,.0001,.015,.06*
20,1,.0001,.015,.06,.015,-.06,0.0*
1,1,.0001,.015,-.06*
20,1,.0001,.015,-.06,-.015,-.06,0.0*
1,1,.0001,-.015,-.06*
20,1,.0001,-.015,-.06,-.015,.06,0.0*
1,1,.0001,-.015,.06*
%
%ADD22MACRO22*%
%AMMACRO20*
1,1,.0001,-.06,.015*
20,1,.0001,-.06,.015,.06,.015,0.0*
1,1,.0001,.06,.015*
20,1,.0001,.06,.015,.06,-.015,0.0*
1,1,.0001,.06,-.015*
20,1,.0001,.06,-.015,-.06,-.015,0.0*
1,1,.0001,-.06,-.015*
20,1,.0001,-.06,-.015,-.06,.015,0.0*
1,1,.0001,-.06,.015*
%
%ADD20MACRO20*%
%AMMACRO21*
1,1,.0001,.06005,.01495*
20,1,.0001,.06005,.01495,.06005,-.01495,0.0*
1,1,.0001,.06005,-.01495*
20,1,.0001,.06005,-.01495,-.06005,-.01495,0.0*
1,1,.0001,-.06005,-.01495*
20,1,.0001,-.06005,-.01495,-.06005,.01495,0.0*
1,1,.0001,-.06005,.01495*
20,1,.0001,-.06005,.01495,.06005,.01495,0.0*
1,1,.0001,.06005,.01495*
%
%ADD21MACRO21*%
%AMMACRO19*
1,1,.0001,.01495,.06005*
20,1,.0001,.01495,.06005,.01495,-.06005,0.0*
1,1,.0001,.01495,-.06005*
20,1,.0001,.01495,-.06005,-.01495,-.06005,0.0*
1,1,.0001,-.01495,-.06005*
20,1,.0001,-.01495,-.06005,-.01495,.06005,0.0*
1,1,.0001,-.01495,.06005*
20,1,.0001,-.01495,.06005,.01495,.06005,0.0*
1,1,.0001,.01495,.06005*
%
%ADD19MACRO19*%
%ADD23C,.0001*%
G75*
%LPD*%
G75*
G36*
G01X-633650Y382680D02*
Y377640D01*
X-631150D01*
Y189480D01*
X-633650D01*
Y184440D01*
X-618650D01*
Y189480D01*
X-621150D01*
Y377640D01*
X-618650D01*
Y382680D01*
X-633650D01*
G37*
G36*
G01X-653650Y184440D02*
Y189480D01*
X-573650D01*
Y184440D01*
X-653650D01*
G37*
G36*
G01Y223080D02*
Y228120D01*
X-573650D01*
Y223080D01*
X-653650D01*
G37*
G36*
G01Y261720D02*
Y266760D01*
X-573650D01*
Y261720D01*
X-653650D01*
G37*
G36*
G01Y300360D02*
Y305400D01*
X-573650D01*
Y300360D01*
X-653650D01*
G37*
G36*
G01Y339000D02*
Y344040D01*
X-573650D01*
Y339000D01*
X-653650D01*
G37*
G36*
G01Y377640D02*
Y382680D01*
X-573650D01*
Y377640D01*
X-653650D01*
G37*
G36*
G01X280950Y-367950D02*
Y-331800D01*
X297450D01*
Y-367950D01*
X280950D01*
G37*
G54D10*
X-435000Y-435000D03*
D03*
Y435000D03*
D03*
X-400000Y-400000D03*
D03*
Y400000D03*
D03*
X400000Y-400000D03*
D03*
Y400000D03*
D03*
X435000Y-435000D03*
D03*
Y435000D03*
D03*
G54D20*
X252100Y-439760D03*
Y-416140D03*
G54D11*
X-425700Y-47300D03*
D03*
X-421100Y-25500D03*
D03*
X-421090Y-22940D03*
D03*
X-430660Y-2470D03*
D03*
Y-5030D03*
D03*
Y2650D03*
D03*
Y90D03*
D03*
X-442400Y27750D03*
D03*
X-435200Y169000D03*
D03*
X-403600Y-47600D03*
D03*
X-407730Y-20380D03*
D03*
X-399040Y-22940D03*
D03*
X-399050Y-25500D03*
D03*
X-405200Y27750D03*
D03*
X-405000Y169000D03*
D03*
X-359250Y-18010D03*
D03*
Y-12890D03*
D03*
Y-7770D03*
D03*
Y-2650D03*
D03*
X-362650Y24460D03*
D03*
X-360150Y52580D03*
D03*
Y74520D03*
D03*
X-330350Y-124930D03*
D03*
X-338270Y-136050D03*
D03*
X-338750Y-110370D03*
D03*
X-349230Y-117050D03*
D03*
X-344600Y-62250D03*
D03*
X-355500Y-15450D03*
D03*
Y-10330D03*
D03*
Y-5210D03*
D03*
Y-90D03*
D03*
X-349500Y57490D03*
D03*
Y74310D03*
D03*
X-344600Y100250D03*
D03*
X-338950Y161650D03*
D03*
X-329200Y273700D03*
D03*
X-322250Y-157820D03*
D03*
X-301000Y-40000D03*
D03*
X-316000Y-10000D03*
D03*
X-311000Y-20000D03*
D03*
X-306000Y-30000D03*
D03*
X-326000Y10000D03*
D03*
X-321000Y0D03*
D03*
X-298590Y199780D03*
D03*
X-268650Y-426950D03*
D03*
X-272400Y-429510D03*
D03*
Y-424390D03*
D03*
X-268650Y-421830D03*
D03*
Y-411590D03*
D03*
X-272400Y-414150D03*
D03*
X-268650Y-416710D03*
D03*
X-272400Y-419270D03*
D03*
X-287320Y-154340D03*
D03*
X-268660Y-166660D03*
D03*
X-277990Y-160500D03*
D03*
X-296000Y-50000D03*
D03*
X-291000Y-60000D03*
D03*
X-280670Y115860D03*
D03*
X-281340Y104700D03*
D03*
X-282010Y93540D03*
D03*
X-278660Y149340D03*
D03*
X-279330Y138180D03*
D03*
X-280000Y127020D03*
D03*
X-277320Y171660D03*
D03*
X-277990Y160500D03*
D03*
X-272560Y224070D03*
D03*
X-285440Y225700D03*
D03*
X-274460Y244700D03*
D03*
X-245600Y-276510D03*
D03*
X-239280Y-266040D03*
D03*
X-240670Y-185140D03*
D03*
X-259330Y-172820D03*
D03*
X-250000Y-178980D03*
D03*
X-264140Y238630D03*
D03*
X-218550Y-432000D03*
D03*
X-208900D03*
D03*
X-211380Y-424320D03*
D03*
X-208120Y-426880D03*
D03*
Y-421760D03*
D03*
X-230950Y-406410D03*
D03*
Y-403850D03*
D03*
X-218550Y-408970D03*
D03*
X-208900Y-403850D03*
D03*
Y-406410D03*
D03*
X-211380Y-408970D03*
D03*
X-208120Y-411530D03*
D03*
X-211380Y-414090D03*
D03*
X-208120Y-416650D03*
D03*
X-211380Y-419200D03*
D03*
X-209750Y-372250D03*
D03*
X-224750Y-384450D03*
D03*
X-218150Y-302950D03*
D03*
X-224720Y-274460D03*
D03*
X-226600Y-287490D03*
D03*
X-218150Y-287050D03*
D03*
X-231340Y-191300D03*
D03*
X-222010Y-197460D03*
D03*
X-237550Y341750D03*
D03*
X-196500Y-429440D03*
D03*
X-187400Y-426960D03*
D03*
Y-421840D03*
D03*
X-183650Y-424400D03*
D03*
X-187400Y-411600D03*
D03*
X-183650Y-414160D03*
D03*
X-187400Y-416720D03*
D03*
X-183650Y-419280D03*
D03*
Y-409040D03*
D03*
X-202700Y-385300D03*
D03*
X-186650Y-377660D03*
D03*
X-196560Y-366940D03*
D03*
X-204440Y-358560D03*
D03*
X-191960Y-352000D03*
D03*
X-185470Y-304910D03*
D03*
X-186650Y-321850D03*
D03*
X-191300Y231340D03*
D03*
X-197460Y222010D03*
D03*
X-178980Y250000D03*
D03*
X-185140Y240670D03*
D03*
X-164140Y-390640D03*
D03*
X-156250Y-372450D03*
D03*
X-177590Y-363350D03*
D03*
X-156450Y-351900D03*
D03*
X-177590Y-343000D03*
D03*
X-171660Y-277320D03*
D03*
X-149340Y-278660D03*
D03*
X-160500Y-277990D03*
D03*
X-166660Y268660D03*
D03*
X-172820Y259330D03*
D03*
X-154340Y287320D03*
D03*
X-160500Y277990D03*
D03*
X-158020Y321000D03*
D03*
X-143200Y-429400D03*
D03*
X-121150D03*
D03*
Y-426840D03*
D03*
X-143200Y-403810D03*
D03*
Y-401250D03*
D03*
X-134500Y-406370D03*
D03*
X-138180Y-279330D03*
D03*
X-127020Y-280000D03*
D03*
X-124630Y329900D03*
D03*
X-135250Y337520D03*
D03*
X-103000Y-427050D03*
D03*
X-107830Y-424280D03*
D03*
X-105300Y-431350D03*
D03*
X-99700Y-434150D03*
D03*
X-106300Y-438000D03*
D03*
X-112450Y-403810D03*
D03*
Y-401250D03*
D03*
Y-408930D03*
D03*
X-105910Y-390640D03*
D03*
X-90080Y-334140D03*
D03*
X-89490Y-329920D03*
D03*
X-115860Y-280670D03*
D03*
X-104700Y-281340D03*
D03*
X-93540Y-282010D03*
D03*
X-116250Y348480D03*
D03*
X-110070Y338300D03*
D03*
X-58900Y-447850D03*
D03*
Y-432050D03*
D03*
X-81600Y-431350D03*
D03*
X-78500Y-434150D03*
D03*
X-76550Y-438000D03*
D03*
X-66200Y-408100D03*
D03*
X-78500Y-415100D03*
D03*
X-74150Y-411500D03*
D03*
X-58960Y-413040D03*
D03*
X-64110Y-390640D03*
D03*
X-85660Y-333350D03*
D03*
X-74460Y-348350D03*
D03*
X-74620Y-359950D03*
D03*
X-57640Y-348350D03*
D03*
X-60000Y291000D03*
D03*
X-65200Y344810D03*
D03*
X-34650Y-447950D03*
D03*
X-42750D03*
D03*
X-50800Y-447900D03*
D03*
Y-432100D03*
D03*
X-42750Y-432150D03*
D03*
X-34650D03*
D03*
X-48450Y-384340D03*
D03*
X-47600Y-363150D03*
D03*
X-28450Y-384340D03*
D03*
X-33450D03*
D03*
X-38450D03*
D03*
X-43450D03*
D03*
X-52680Y-359950D03*
D03*
X-50000Y296000D03*
D03*
X-30000Y306000D03*
D03*
X-40000Y301000D03*
D03*
X-2300Y-448050D03*
D03*
X-10350Y-448000D03*
D03*
X-18400D03*
D03*
X-26500Y-447950D03*
D03*
Y-432150D03*
D03*
X-18400Y-432200D03*
D03*
X-10350D03*
D03*
X-2300Y-432250D03*
D03*
X-24610Y-360750D03*
D03*
X1550Y-384340D03*
D03*
X-3450D03*
D03*
X-8450D03*
D03*
X-13450D03*
D03*
X-18450D03*
D03*
X-23450D03*
D03*
X-10000Y-326000D03*
D03*
X0Y-321000D03*
D03*
X-10000Y316000D03*
D03*
X-20000Y311000D03*
D03*
X0Y321000D03*
D03*
X13850Y-448150D03*
D03*
X22000Y-448200D03*
D03*
X30150Y-448300D03*
D03*
X5800Y-448100D03*
D03*
Y-432300D03*
D03*
X22000Y-432400D03*
D03*
X30150Y-432500D03*
D03*
X16550Y-423550D03*
D03*
X6550D03*
D03*
X13850Y-432350D03*
D03*
X11550Y-384340D03*
D03*
X6550D03*
D03*
X31550D03*
D03*
X21550D03*
D03*
X16550D03*
D03*
X26550D03*
D03*
X21600Y-360200D03*
D03*
X29950D03*
D03*
X10000Y-316000D03*
D03*
X20000Y-311000D03*
D03*
X30000Y-306000D03*
D03*
X10000Y326000D03*
D03*
X24310Y358400D03*
D03*
X38350Y-448250D03*
D03*
X46500Y-448150D03*
D03*
X54650Y-448250D03*
D03*
X38350Y-432450D03*
D03*
X46500Y-432350D03*
D03*
X54650Y-432450D03*
D03*
X36550Y-384340D03*
D03*
X46550D03*
D03*
X41550D03*
D03*
X38050Y-360150D03*
D03*
X46150D03*
D03*
X54350Y-360200D03*
D03*
X40000Y-301000D03*
D03*
X50000Y-296000D03*
D03*
X60000Y-291000D03*
D03*
X57490Y349850D03*
D03*
X52580Y360950D03*
D03*
X62900Y-448200D03*
D03*
X84150Y-433800D03*
D03*
X77100Y-436650D03*
D03*
X62900Y-432400D03*
D03*
X62600Y-360200D03*
D03*
X74310Y349850D03*
D03*
X74520Y360950D03*
D03*
X102990Y-416550D03*
D03*
X100800Y-419110D03*
D03*
Y-413990D03*
D03*
X102990Y-401190D03*
D03*
Y-406310D03*
D03*
X100800Y-403750D03*
D03*
Y-408870D03*
D03*
X102990Y-411430D03*
D03*
X110220Y-339400D03*
D03*
X116100Y-350530D03*
D03*
X115860Y280670D03*
D03*
X104700Y281340D03*
D03*
X93540Y282010D03*
D03*
X142850Y-421950D03*
D03*
X151650Y-396360D03*
D03*
Y-393800D03*
D03*
X142850Y-398920D03*
D03*
X147300Y-375900D03*
D03*
X124780Y-331000D03*
D03*
X135100Y-339570D03*
D03*
X146100Y-349700D03*
D03*
X149340Y278660D03*
D03*
X138180Y279330D03*
D03*
X127020Y280000D03*
D03*
X164900Y-421950D03*
D03*
Y-419390D03*
D03*
Y-393800D03*
D03*
X173240Y-396360D03*
D03*
X176040Y-411710D03*
D03*
X173700Y-414270D03*
D03*
X176040Y-416830D03*
D03*
X173700Y-409150D03*
D03*
X176030Y-398920D03*
D03*
X169250Y-375900D03*
D03*
X177600Y-375850D03*
D03*
X170810Y-352040D03*
D03*
X173150Y-354600D03*
D03*
Y-344360D03*
D03*
X170810Y-341800D03*
D03*
Y-336690D03*
D03*
X173150Y-334130D03*
D03*
X170810Y-331570D03*
D03*
X173150Y-349480D03*
D03*
X170810Y-346920D03*
D03*
X173150Y-339250D03*
D03*
X157970Y-321600D03*
D03*
X173150Y-329010D03*
D03*
X170810Y-326450D03*
D03*
X154340Y-287320D03*
D03*
X160500Y-277990D03*
D03*
X166660Y-268660D03*
D03*
X172820Y-259330D03*
D03*
X178980Y-250000D03*
D03*
X171660Y277320D03*
D03*
X160500Y277990D03*
D03*
X158650Y318100D03*
D03*
X199650Y-376000D03*
D03*
X204500Y-354600D03*
D03*
X194240Y-352040D03*
D03*
X185140Y-240670D03*
D03*
X191300Y-231340D03*
D03*
X197460Y-222010D03*
D03*
X192170Y301810D03*
D03*
X240670Y185140D03*
D03*
X231340Y191300D03*
D03*
X222010Y197460D03*
D03*
X238630Y265090D03*
D03*
X224070Y273510D03*
D03*
X225850Y287340D03*
D03*
X266150Y-423300D03*
D03*
X268650D03*
D03*
X271150D03*
D03*
X266150Y-410800D03*
D03*
Y-413300D03*
D03*
Y-415800D03*
D03*
Y-418300D03*
D03*
Y-420800D03*
D03*
X268650Y-410800D03*
D03*
Y-413300D03*
D03*
Y-415800D03*
D03*
Y-418300D03*
D03*
Y-420800D03*
D03*
X271150Y-410800D03*
D03*
Y-413300D03*
D03*
Y-415800D03*
D03*
Y-418300D03*
D03*
Y-420800D03*
D03*
X271350Y-391750D03*
D03*
X268850D03*
D03*
X266350D03*
D03*
X263850D03*
D03*
X261350D03*
D03*
X258850D03*
D03*
X271350Y-394250D03*
D03*
X268850D03*
D03*
X266350D03*
D03*
X263850D03*
D03*
X261350D03*
D03*
X258850D03*
D03*
X271350Y-396750D03*
D03*
X268850D03*
D03*
X266350D03*
D03*
X263850D03*
D03*
X261350D03*
D03*
X258850D03*
D03*
X258700Y-405950D03*
D03*
X261200D03*
D03*
X263700D03*
D03*
X266200D03*
D03*
X268700D03*
D03*
X271200D03*
D03*
X258700Y-403450D03*
D03*
X261200D03*
D03*
X263700D03*
D03*
X266200D03*
D03*
X268700D03*
D03*
X271200D03*
D03*
X258700Y-400950D03*
D03*
X261200D03*
D03*
X263700D03*
D03*
X266200D03*
D03*
X268700D03*
D03*
X271200D03*
D03*
X271500Y-382850D03*
D03*
X269000D03*
D03*
X266500D03*
D03*
X264000D03*
D03*
X261500D03*
D03*
X259000D03*
D03*
X271500Y-385350D03*
D03*
X269000D03*
D03*
X266500D03*
D03*
X264000D03*
D03*
X261500D03*
D03*
X259000D03*
D03*
X271500Y-387850D03*
D03*
X269000D03*
D03*
X266500D03*
D03*
X264000D03*
D03*
X261500D03*
D03*
X259000D03*
D03*
X246990Y-331550D03*
D03*
Y-346910D03*
D03*
X244650Y-344350D03*
D03*
X246990Y-341790D03*
D03*
X244650Y-339230D03*
D03*
X246990Y-336670D03*
D03*
X244650Y-334110D03*
D03*
X269210Y-313950D03*
D03*
X244650Y-328990D03*
D03*
X261950Y-263700D03*
D03*
X264490Y-239080D03*
D03*
X272910Y-224520D03*
D03*
X268660Y166660D03*
D03*
X259330Y172820D03*
D03*
X250000Y178980D03*
D03*
X244850Y276360D03*
D03*
X295900Y-421450D03*
D03*
X293400D03*
D03*
X290900D03*
D03*
X288400D03*
D03*
X285900D03*
D03*
X283400D03*
D03*
X295900Y-416450D03*
D03*
X293400D03*
D03*
X290900D03*
D03*
X288400D03*
D03*
X285900D03*
D03*
X283400D03*
D03*
X295900Y-418950D03*
D03*
X293400D03*
D03*
X290900D03*
D03*
X288400D03*
D03*
X285900D03*
D03*
X283400D03*
D03*
X295700Y-408000D03*
D03*
X293200D03*
D03*
X290700D03*
D03*
X288200D03*
D03*
X285700D03*
D03*
X283200D03*
D03*
X295700Y-410500D03*
D03*
X293200D03*
D03*
X290700D03*
D03*
X288200D03*
D03*
X285700D03*
D03*
X283200D03*
D03*
X295700Y-413000D03*
D03*
X293200D03*
D03*
X290700D03*
D03*
X288200D03*
D03*
X285700D03*
D03*
X283200D03*
D03*
X282750Y-327700D03*
D03*
X285250D03*
D03*
X287750D03*
D03*
X290250D03*
D03*
X292750D03*
D03*
X295250D03*
D03*
X282750Y-325200D03*
D03*
X285250D03*
D03*
X287750D03*
D03*
X290250D03*
D03*
X292750D03*
D03*
X295250D03*
D03*
X282750Y-322700D03*
D03*
X285250D03*
D03*
X287750D03*
D03*
X290250D03*
D03*
X292750D03*
D03*
X295250D03*
D03*
X274760Y-244800D03*
D03*
X294900Y-253940D03*
D03*
X291150Y-256500D03*
D03*
X294900Y-259060D03*
D03*
X291150Y-261620D03*
D03*
X285740Y-225800D03*
D03*
X297990Y-200430D03*
D03*
X277320Y-171660D03*
D03*
X277990Y-160500D03*
D03*
X278660Y-149340D03*
D03*
X279330Y-138180D03*
D03*
X280000Y-127020D03*
D03*
X280670Y-115860D03*
D03*
X281340Y-104700D03*
D03*
X282010Y-93540D03*
D03*
X301000Y40000D03*
D03*
X296000Y50000D03*
D03*
X291000Y60000D03*
D03*
X287320Y154340D03*
D03*
X277990Y160500D03*
D03*
X330650Y-399250D03*
D03*
Y-401750D03*
D03*
Y-404250D03*
D03*
X330700Y-393000D03*
D03*
Y-395500D03*
D03*
X330800Y-373200D03*
D03*
Y-381600D03*
D03*
Y-384100D03*
D03*
Y-386600D03*
D03*
Y-375700D03*
D03*
Y-378200D03*
D03*
X330700Y-390500D03*
D03*
X306900Y-338000D03*
D03*
Y-340500D03*
D03*
X309400Y-338000D03*
D03*
Y-340500D03*
D03*
X311900Y-338000D03*
D03*
Y-340500D03*
D03*
X306900Y-333000D03*
D03*
Y-335500D03*
D03*
X309400Y-333000D03*
D03*
Y-335500D03*
D03*
X311900Y-333000D03*
D03*
Y-335500D03*
D03*
X306900Y-328000D03*
D03*
Y-330500D03*
D03*
X309400Y-328000D03*
D03*
Y-330500D03*
D03*
X311900Y-328000D03*
D03*
Y-330500D03*
D03*
X329700Y-321800D03*
D03*
X332200D03*
D03*
X318300Y-321700D03*
D03*
X320800D03*
D03*
X323300D03*
D03*
X327200Y-321800D03*
D03*
X329700Y-311800D03*
D03*
X332200D03*
D03*
X329700Y-309300D03*
D03*
X332200D03*
D03*
X329700Y-314300D03*
D03*
Y-316800D03*
D03*
X332200Y-314300D03*
D03*
Y-316800D03*
D03*
X329700Y-319300D03*
D03*
X332200D03*
D03*
X318300Y-309200D03*
D03*
Y-311700D03*
D03*
X320800Y-309200D03*
D03*
Y-311700D03*
D03*
X323300Y-309200D03*
D03*
Y-311700D03*
D03*
X327200Y-311800D03*
D03*
Y-309300D03*
D03*
X318300Y-314200D03*
D03*
Y-316700D03*
D03*
X320800Y-314200D03*
D03*
Y-316700D03*
D03*
X323300Y-314200D03*
D03*
Y-316700D03*
D03*
X318300Y-319200D03*
D03*
X320800D03*
D03*
X323300D03*
D03*
X327200Y-314300D03*
D03*
Y-316800D03*
D03*
Y-319300D03*
D03*
X309750Y-261350D03*
D03*
X309300Y-266550D03*
D03*
X325600Y-126300D03*
D03*
X326000Y-10000D03*
D03*
X316000Y10000D03*
D03*
X311000Y20000D03*
D03*
X321000Y0D03*
D03*
X306000Y30000D03*
D03*
X329400Y125280D03*
D03*
X321350Y158220D03*
D03*
X315180Y168910D03*
D03*
X340650Y-399250D03*
D03*
Y-401750D03*
D03*
Y-404250D03*
D03*
X340700Y-393000D03*
D03*
Y-395500D03*
D03*
X343150Y-399250D03*
D03*
Y-401750D03*
D03*
Y-404250D03*
D03*
X343200Y-393000D03*
D03*
Y-395500D03*
D03*
X338150Y-399250D03*
D03*
X335650D03*
D03*
X338150Y-401750D03*
D03*
X335650D03*
D03*
X338150Y-404250D03*
D03*
X335650D03*
D03*
X333150Y-399250D03*
D03*
Y-401750D03*
D03*
Y-404250D03*
D03*
X338200Y-393000D03*
D03*
X335700D03*
D03*
X338200Y-395500D03*
D03*
X335700D03*
D03*
X333200Y-393000D03*
D03*
Y-395500D03*
D03*
X343300Y-373200D03*
D03*
X340800D03*
D03*
X343300Y-381600D03*
D03*
X340800D03*
D03*
X343300Y-384100D03*
D03*
X340800D03*
D03*
X343300Y-386600D03*
D03*
X340800D03*
D03*
X343300Y-375700D03*
D03*
X340800D03*
D03*
X343300Y-378200D03*
D03*
X340800D03*
D03*
X340700Y-390500D03*
D03*
X343200D03*
D03*
X338300Y-373200D03*
D03*
X335800D03*
D03*
X338300Y-381600D03*
D03*
X335800D03*
D03*
X338300Y-384100D03*
D03*
X335800D03*
D03*
X338300Y-386600D03*
D03*
X335800D03*
D03*
X338300Y-375700D03*
D03*
X335800D03*
D03*
X338300Y-378200D03*
D03*
X335800D03*
D03*
X333300Y-373200D03*
D03*
Y-381600D03*
D03*
Y-384100D03*
D03*
Y-386600D03*
D03*
Y-375700D03*
D03*
Y-378200D03*
D03*
X338200Y-390500D03*
D03*
X335700D03*
D03*
X333200D03*
D03*
X335950Y-321850D03*
D03*
X338450D03*
D03*
X340950D03*
D03*
X335950Y-311850D03*
D03*
X338450D03*
D03*
X340950D03*
D03*
X335950Y-309350D03*
D03*
X338450D03*
D03*
X340950D03*
D03*
X335950Y-314350D03*
D03*
Y-316850D03*
D03*
X338450Y-314350D03*
D03*
Y-316850D03*
D03*
X340950Y-314350D03*
D03*
Y-316850D03*
D03*
X335950Y-319350D03*
D03*
X338450D03*
D03*
X340950D03*
D03*
X354200Y-319850D03*
D03*
X349550Y-251420D03*
D03*
X338550Y-246300D03*
D03*
Y-248860D03*
D03*
X350010Y-232260D03*
D03*
X359050Y-74620D03*
D03*
X347450Y-74460D03*
D03*
X359050Y-52680D03*
D03*
X347450Y-57640D03*
D03*
X360400Y-24410D03*
D03*
X343800Y62400D03*
D03*
X348130Y117850D03*
D03*
X337800Y110720D03*
D03*
X337170Y136850D03*
D03*
X343800Y225300D03*
D03*
X371600Y-271890D03*
D03*
Y-274450D03*
D03*
Y-248860D03*
D03*
Y-246300D03*
D03*
Y-266770D03*
D03*
Y-269330D03*
D03*
X366050Y-227000D03*
D03*
X395850Y-39450D03*
D03*
X397850Y143100D03*
D03*
X430150Y-39450D03*
D03*
X436950Y143100D03*
D03*
G54D21*
X637050Y-69750D03*
G54D12*
X-425700Y-47300D03*
X-421100Y-25500D03*
X-421090Y-22940D03*
X-430660Y-2470D03*
Y-5030D03*
Y2650D03*
Y90D03*
X-442400Y27750D03*
X-435200Y169000D03*
X-403600Y-47600D03*
X-407730Y-20380D03*
X-399040Y-22940D03*
X-399050Y-25500D03*
X-405200Y27750D03*
X-405000Y169000D03*
X-359250Y-18010D03*
Y-12890D03*
Y-7770D03*
Y-2650D03*
X-362650Y24460D03*
X-360150Y52580D03*
Y74520D03*
X-330350Y-124930D03*
X-338270Y-136050D03*
X-338750Y-110370D03*
X-349230Y-117050D03*
X-344600Y-62250D03*
X-355500Y-15450D03*
Y-10330D03*
Y-5210D03*
Y-90D03*
X-349500Y57490D03*
Y74310D03*
X-344600Y100250D03*
X-338950Y161650D03*
X-329200Y273700D03*
X-322250Y-157820D03*
X-301000Y-40000D03*
X-316000Y-10000D03*
X-311000Y-20000D03*
X-306000Y-30000D03*
X-326000Y10000D03*
X-321000Y0D03*
X-298590Y199780D03*
X-268650Y-426950D03*
X-272400Y-429510D03*
Y-424390D03*
X-268650Y-421830D03*
Y-411590D03*
X-272400Y-414150D03*
X-268650Y-416710D03*
X-272400Y-419270D03*
X-287320Y-154340D03*
X-268660Y-166660D03*
X-277990Y-160500D03*
X-296000Y-50000D03*
X-291000Y-60000D03*
X-280670Y115860D03*
X-281340Y104700D03*
X-282010Y93540D03*
X-278660Y149340D03*
X-279330Y138180D03*
X-280000Y127020D03*
X-277320Y171660D03*
X-277990Y160500D03*
X-272560Y224070D03*
X-285440Y225700D03*
X-274460Y244700D03*
X-245600Y-276510D03*
X-239280Y-266040D03*
X-240670Y-185140D03*
X-259330Y-172820D03*
X-250000Y-178980D03*
X-264140Y238630D03*
X-218550Y-432000D03*
X-208900D03*
X-211380Y-424320D03*
X-208120Y-426880D03*
Y-421760D03*
X-230950Y-406410D03*
Y-403850D03*
X-218550Y-408970D03*
X-208900Y-403850D03*
Y-406410D03*
X-211380Y-408970D03*
X-208120Y-411530D03*
X-211380Y-414090D03*
X-208120Y-416650D03*
X-211380Y-419200D03*
X-209750Y-372250D03*
X-224750Y-384450D03*
X-218150Y-302950D03*
X-224720Y-274460D03*
X-226600Y-287490D03*
X-218150Y-287050D03*
X-231340Y-191300D03*
X-222010Y-197460D03*
X-237550Y341750D03*
X-196500Y-429440D03*
X-187400Y-426960D03*
Y-421840D03*
X-183650Y-424400D03*
X-187400Y-411600D03*
X-183650Y-414160D03*
X-187400Y-416720D03*
X-183650Y-419280D03*
Y-409040D03*
X-202700Y-385300D03*
X-186650Y-377660D03*
X-196560Y-366940D03*
X-204440Y-358560D03*
X-191960Y-352000D03*
X-185470Y-304910D03*
X-186650Y-321850D03*
X-191300Y231340D03*
X-197460Y222010D03*
X-178980Y250000D03*
X-185140Y240670D03*
X-164140Y-390640D03*
X-156250Y-372450D03*
X-177590Y-363350D03*
X-156450Y-351900D03*
X-177590Y-343000D03*
X-171660Y-277320D03*
X-149340Y-278660D03*
X-160500Y-277990D03*
X-166660Y268660D03*
X-172820Y259330D03*
X-154340Y287320D03*
X-160500Y277990D03*
X-158020Y321000D03*
X-143200Y-429400D03*
X-121150D03*
Y-426840D03*
X-143200Y-403810D03*
Y-401250D03*
X-134500Y-406370D03*
X-138180Y-279330D03*
X-127020Y-280000D03*
X-124630Y329900D03*
X-135250Y337520D03*
X-103000Y-427050D03*
X-107830Y-424280D03*
X-105300Y-431350D03*
X-99700Y-434150D03*
X-106300Y-438000D03*
X-112450Y-403810D03*
Y-401250D03*
Y-408930D03*
X-105910Y-390640D03*
X-90080Y-334140D03*
X-89490Y-329920D03*
X-115860Y-280670D03*
X-104700Y-281340D03*
X-93540Y-282010D03*
X-116250Y348480D03*
X-110070Y338300D03*
X-58900Y-447850D03*
Y-432050D03*
X-81600Y-431350D03*
X-78500Y-434150D03*
X-76550Y-438000D03*
X-66200Y-408100D03*
X-78500Y-415100D03*
X-74150Y-411500D03*
X-58960Y-413040D03*
X-64110Y-390640D03*
X-85660Y-333350D03*
X-74460Y-348350D03*
X-74620Y-359950D03*
X-57640Y-348350D03*
X-60000Y291000D03*
X-65200Y344810D03*
X-34650Y-447950D03*
X-42750D03*
X-50800Y-447900D03*
Y-432100D03*
X-42750Y-432150D03*
X-34650D03*
X-48450Y-384340D03*
X-47600Y-363150D03*
X-28450Y-384340D03*
X-33450D03*
X-38450D03*
X-43450D03*
X-52680Y-359950D03*
X-50000Y296000D03*
X-30000Y306000D03*
X-40000Y301000D03*
X-2300Y-448050D03*
X-10350Y-448000D03*
X-18400D03*
X-26500Y-447950D03*
Y-432150D03*
X-18400Y-432200D03*
X-10350D03*
X-2300Y-432250D03*
X-24610Y-360750D03*
X1550Y-384340D03*
X-3450D03*
X-8450D03*
X-13450D03*
X-18450D03*
X-23450D03*
X-10000Y-326000D03*
X0Y-321000D03*
X-10000Y316000D03*
X-20000Y311000D03*
X0Y321000D03*
X13850Y-448150D03*
X22000Y-448200D03*
X30150Y-448300D03*
X5800Y-448100D03*
Y-432300D03*
X22000Y-432400D03*
X30150Y-432500D03*
X16550Y-423550D03*
X6550D03*
X13850Y-432350D03*
X11550Y-384340D03*
X6550D03*
X31550D03*
X21550D03*
X16550D03*
X26550D03*
X21600Y-360200D03*
X29950D03*
X10000Y-316000D03*
X20000Y-311000D03*
X30000Y-306000D03*
X10000Y326000D03*
X24310Y358400D03*
X38350Y-448250D03*
X46500Y-448150D03*
X54650Y-448250D03*
X38350Y-432450D03*
X46500Y-432350D03*
X54650Y-432450D03*
X36550Y-384340D03*
X46550D03*
X41550D03*
X38050Y-360150D03*
X46150D03*
X54350Y-360200D03*
X40000Y-301000D03*
X50000Y-296000D03*
X60000Y-291000D03*
X57490Y349850D03*
X52580Y360950D03*
X62900Y-448200D03*
X84150Y-433800D03*
X77100Y-436650D03*
X62900Y-432400D03*
X62600Y-360200D03*
X74310Y349850D03*
X74520Y360950D03*
X102990Y-416550D03*
X100800Y-419110D03*
Y-413990D03*
X102990Y-401190D03*
Y-406310D03*
X100800Y-403750D03*
Y-408870D03*
X102990Y-411430D03*
X110220Y-339400D03*
X116100Y-350530D03*
X115860Y280670D03*
X104700Y281340D03*
X93540Y282010D03*
X142850Y-421950D03*
X151650Y-396360D03*
Y-393800D03*
X142850Y-398920D03*
X147300Y-375900D03*
X124780Y-331000D03*
X135100Y-339570D03*
X146100Y-349700D03*
X149340Y278660D03*
X138180Y279330D03*
X127020Y280000D03*
X164900Y-421950D03*
Y-419390D03*
Y-393800D03*
X173240Y-396360D03*
X176040Y-411710D03*
X173700Y-414270D03*
X176040Y-416830D03*
X173700Y-409150D03*
X176030Y-398920D03*
X169250Y-375900D03*
X177600Y-375850D03*
X170810Y-352040D03*
X173150Y-354600D03*
Y-344360D03*
X170810Y-341800D03*
Y-336690D03*
X173150Y-334130D03*
X170810Y-331570D03*
X173150Y-349480D03*
X170810Y-346920D03*
X173150Y-339250D03*
X157970Y-321600D03*
X173150Y-329010D03*
X170810Y-326450D03*
X154340Y-287320D03*
X160500Y-277990D03*
X166660Y-268660D03*
X172820Y-259330D03*
X178980Y-250000D03*
X171660Y277320D03*
X160500Y277990D03*
X158650Y318100D03*
X199650Y-376000D03*
X204500Y-354600D03*
X194240Y-352040D03*
X185140Y-240670D03*
X191300Y-231340D03*
X197460Y-222010D03*
X192170Y301810D03*
X240670Y185140D03*
X231340Y191300D03*
X222010Y197460D03*
X238630Y265090D03*
X224070Y273510D03*
X225850Y287340D03*
X266150Y-423300D03*
X268650D03*
X271150D03*
X266150Y-410800D03*
Y-413300D03*
Y-415800D03*
Y-418300D03*
Y-420800D03*
X268650Y-410800D03*
Y-413300D03*
Y-415800D03*
Y-418300D03*
Y-420800D03*
X271150Y-410800D03*
Y-413300D03*
Y-415800D03*
Y-418300D03*
Y-420800D03*
X271350Y-391750D03*
X268850D03*
X266350D03*
X263850D03*
X261350D03*
X258850D03*
X271350Y-394250D03*
X268850D03*
X266350D03*
X263850D03*
X261350D03*
X258850D03*
X271350Y-396750D03*
X268850D03*
X266350D03*
X263850D03*
X261350D03*
X258850D03*
X258700Y-405950D03*
X261200D03*
X263700D03*
X266200D03*
X268700D03*
X271200D03*
X258700Y-403450D03*
X261200D03*
X263700D03*
X266200D03*
X268700D03*
X271200D03*
X258700Y-400950D03*
X261200D03*
X263700D03*
X266200D03*
X268700D03*
X271200D03*
X271500Y-382850D03*
X269000D03*
X266500D03*
X264000D03*
X261500D03*
X259000D03*
X271500Y-385350D03*
X269000D03*
X266500D03*
X264000D03*
X261500D03*
X259000D03*
X271500Y-387850D03*
X269000D03*
X266500D03*
X264000D03*
X261500D03*
X259000D03*
X246990Y-331550D03*
Y-346910D03*
X244650Y-344350D03*
X246990Y-341790D03*
X244650Y-339230D03*
X246990Y-336670D03*
X244650Y-334110D03*
X269210Y-313950D03*
X244650Y-328990D03*
X261950Y-263700D03*
X264490Y-239080D03*
X272910Y-224520D03*
X268660Y166660D03*
X259330Y172820D03*
X250000Y178980D03*
X244850Y276360D03*
X295900Y-421450D03*
X293400D03*
X290900D03*
X288400D03*
X285900D03*
X283400D03*
X295900Y-416450D03*
X293400D03*
X290900D03*
X288400D03*
X285900D03*
X283400D03*
X295900Y-418950D03*
X293400D03*
X290900D03*
X288400D03*
X285900D03*
X283400D03*
X295700Y-408000D03*
X293200D03*
X290700D03*
X288200D03*
X285700D03*
X283200D03*
X295700Y-410500D03*
X293200D03*
X290700D03*
X288200D03*
X285700D03*
X283200D03*
X295700Y-413000D03*
X293200D03*
X290700D03*
X288200D03*
X285700D03*
X283200D03*
X282750Y-327700D03*
X285250D03*
X287750D03*
X290250D03*
X292750D03*
X295250D03*
X282750Y-325200D03*
X285250D03*
X287750D03*
X290250D03*
X292750D03*
X295250D03*
X282750Y-322700D03*
X285250D03*
X287750D03*
X290250D03*
X292750D03*
X295250D03*
X274760Y-244800D03*
X294900Y-253940D03*
X291150Y-256500D03*
X294900Y-259060D03*
X291150Y-261620D03*
X285740Y-225800D03*
X297990Y-200430D03*
X277320Y-171660D03*
X277990Y-160500D03*
X278660Y-149340D03*
X279330Y-138180D03*
X280000Y-127020D03*
X280670Y-115860D03*
X281340Y-104700D03*
X282010Y-93540D03*
X301000Y40000D03*
X296000Y50000D03*
X291000Y60000D03*
X287320Y154340D03*
X277990Y160500D03*
X330650Y-399250D03*
Y-401750D03*
Y-404250D03*
X330700Y-393000D03*
Y-395500D03*
X330800Y-373200D03*
Y-381600D03*
Y-384100D03*
Y-386600D03*
Y-375700D03*
Y-378200D03*
X330700Y-390500D03*
X306900Y-338000D03*
Y-340500D03*
X309400Y-338000D03*
Y-340500D03*
X311900Y-338000D03*
Y-340500D03*
X306900Y-333000D03*
Y-335500D03*
X309400Y-333000D03*
Y-335500D03*
X311900Y-333000D03*
Y-335500D03*
X306900Y-328000D03*
Y-330500D03*
X309400Y-328000D03*
Y-330500D03*
X311900Y-328000D03*
Y-330500D03*
X329700Y-321800D03*
X332200D03*
X318300Y-321700D03*
X320800D03*
X323300D03*
X327200Y-321800D03*
X329700Y-311800D03*
X332200D03*
X329700Y-309300D03*
X332200D03*
X329700Y-314300D03*
Y-316800D03*
X332200Y-314300D03*
Y-316800D03*
X329700Y-319300D03*
X332200D03*
X318300Y-309200D03*
Y-311700D03*
X320800Y-309200D03*
Y-311700D03*
X323300Y-309200D03*
Y-311700D03*
X327200Y-311800D03*
Y-309300D03*
X318300Y-314200D03*
Y-316700D03*
X320800Y-314200D03*
Y-316700D03*
X323300Y-314200D03*
Y-316700D03*
X318300Y-319200D03*
X320800D03*
X323300D03*
X327200Y-314300D03*
Y-316800D03*
Y-319300D03*
X309750Y-261350D03*
X309300Y-266550D03*
X325600Y-126300D03*
X326000Y-10000D03*
X316000Y10000D03*
X311000Y20000D03*
X321000Y0D03*
X306000Y30000D03*
X329400Y125280D03*
X321350Y158220D03*
X315180Y168910D03*
X340650Y-399250D03*
Y-401750D03*
Y-404250D03*
X340700Y-393000D03*
Y-395500D03*
X343150Y-399250D03*
Y-401750D03*
Y-404250D03*
X343200Y-393000D03*
Y-395500D03*
X338150Y-399250D03*
X335650D03*
X338150Y-401750D03*
X335650D03*
X338150Y-404250D03*
X335650D03*
X333150Y-399250D03*
Y-401750D03*
Y-404250D03*
X338200Y-393000D03*
X335700D03*
X338200Y-395500D03*
X335700D03*
X333200Y-393000D03*
Y-395500D03*
X343300Y-373200D03*
X340800D03*
X343300Y-381600D03*
X340800D03*
X343300Y-384100D03*
X340800D03*
X343300Y-386600D03*
X340800D03*
X343300Y-375700D03*
X340800D03*
X343300Y-378200D03*
X340800D03*
X340700Y-390500D03*
X343200D03*
X338300Y-373200D03*
X335800D03*
X338300Y-381600D03*
X335800D03*
X338300Y-384100D03*
X335800D03*
X338300Y-386600D03*
X335800D03*
X338300Y-375700D03*
X335800D03*
X338300Y-378200D03*
X335800D03*
X333300Y-373200D03*
Y-381600D03*
Y-384100D03*
Y-386600D03*
Y-375700D03*
Y-378200D03*
X338200Y-390500D03*
X335700D03*
X333200D03*
X335950Y-321850D03*
X338450D03*
X340950D03*
X335950Y-311850D03*
X338450D03*
X340950D03*
X335950Y-309350D03*
X338450D03*
X340950D03*
X335950Y-314350D03*
Y-316850D03*
X338450Y-314350D03*
Y-316850D03*
X340950Y-314350D03*
Y-316850D03*
X335950Y-319350D03*
X338450D03*
X340950D03*
X354200Y-319850D03*
X349550Y-251420D03*
X338550Y-246300D03*
Y-248860D03*
X350010Y-232260D03*
X359050Y-74620D03*
X347450Y-74460D03*
X359050Y-52680D03*
X347450Y-57640D03*
X360400Y-24410D03*
X343800Y62400D03*
X348130Y117850D03*
X337800Y110720D03*
X337170Y136850D03*
X343800Y225300D03*
X371600Y-271890D03*
Y-274450D03*
Y-248860D03*
Y-246300D03*
Y-266770D03*
Y-269330D03*
X366050Y-227000D03*
X395850Y-39450D03*
X397850Y143100D03*
X430150Y-39450D03*
X436950Y143100D03*
X637050Y70750D03*
G54D22*
Y-41650D03*
G54D13*
X-325860Y-107310D03*
D03*
X-335860Y-70000D03*
D03*
Y-60000D03*
D03*
Y-50000D03*
D03*
Y-40000D03*
D03*
Y-30000D03*
D03*
Y-20000D03*
D03*
Y-10000D03*
D03*
Y0D03*
D03*
Y10000D03*
D03*
Y20000D03*
D03*
Y30000D03*
D03*
Y40000D03*
D03*
Y50000D03*
D03*
Y60000D03*
D03*
Y70000D03*
D03*
X-325860Y107310D03*
D03*
X-295860Y-159270D03*
D03*
X-300860Y-150610D03*
D03*
X-305860Y-141950D03*
D03*
X-310860Y-133290D03*
D03*
X-315860Y-124630D03*
D03*
X-320860Y-115970D03*
D03*
Y115970D03*
D03*
X-315860Y124630D03*
D03*
X-310860Y133290D03*
D03*
X-305860Y141950D03*
D03*
X-300860Y150610D03*
D03*
X-295860Y159270D03*
D03*
X-265860Y-211230D03*
D03*
X-270860Y-202570D03*
D03*
X-275860Y-193910D03*
D03*
X-280860Y-185250D03*
D03*
X-285860Y-176590D03*
D03*
X-290860Y-167930D03*
D03*
Y167930D03*
D03*
X-285860Y176590D03*
D03*
X-280860Y185250D03*
D03*
X-275860Y193910D03*
D03*
X-270860Y202570D03*
D03*
X-265860Y211230D03*
D03*
X-255860Y-228550D03*
D03*
X-260860Y-219890D03*
D03*
Y219890D03*
D03*
X-255860Y228550D03*
D03*
X-211230Y-265860D03*
D03*
X-219890Y-260860D03*
D03*
X-228550Y-255860D03*
D03*
Y255860D03*
D03*
X-219890Y260860D03*
D03*
X-211230Y265860D03*
D03*
X-176590Y-285860D03*
D03*
X-185250Y-280860D03*
D03*
X-193910Y-275860D03*
D03*
X-202570Y-270860D03*
D03*
Y270860D03*
D03*
X-193910Y275860D03*
D03*
X-185250Y280860D03*
D03*
X-176590Y285860D03*
D03*
X-150610Y-300860D03*
D03*
X-159270Y-295860D03*
D03*
X-167930Y-290860D03*
D03*
Y290860D03*
D03*
X-159270Y295860D03*
D03*
X-150610Y300860D03*
D03*
X-115970Y-320860D03*
D03*
X-124630Y-315860D03*
D03*
X-133290Y-310860D03*
D03*
X-141950Y-305860D03*
D03*
Y305860D03*
D03*
X-133290Y310860D03*
D03*
X-124630Y315860D03*
D03*
X-115970Y320860D03*
D03*
X-107310Y-325860D03*
D03*
Y325860D03*
D03*
X-60000Y-335860D03*
D03*
X-70000D03*
D03*
Y335860D03*
D03*
X-60000D03*
D03*
X-30000Y-335860D03*
D03*
X-40000D03*
D03*
X-50000D03*
D03*
Y335860D03*
D03*
X-40000D03*
D03*
X-30000D03*
D03*
X0Y-335860D03*
D03*
X-10000D03*
D03*
X-20000D03*
D03*
Y335860D03*
D03*
X-10000D03*
D03*
X0D03*
D03*
X30000Y-335860D03*
D03*
X20000D03*
D03*
X10000D03*
D03*
Y335860D03*
D03*
X20000D03*
D03*
X30000D03*
D03*
X60000Y-335860D03*
D03*
X50000D03*
D03*
X40000D03*
D03*
Y335860D03*
D03*
X50000D03*
D03*
X60000D03*
D03*
X70000Y-335860D03*
D03*
Y335860D03*
D03*
X115970Y-320860D03*
D03*
X107310Y-325860D03*
D03*
Y325860D03*
D03*
X115970Y320860D03*
D03*
X150610Y-300860D03*
D03*
X141950Y-305860D03*
D03*
X133290Y-310860D03*
D03*
X124630Y-315860D03*
D03*
X150610Y300860D03*
D03*
X124630Y315860D03*
D03*
X133290Y310860D03*
D03*
X141950Y305860D03*
D03*
X176590Y-285860D03*
D03*
X167930Y-290860D03*
D03*
X159270Y-295860D03*
D03*
Y295860D03*
D03*
X167930Y290860D03*
D03*
X176590Y285860D03*
D03*
X202570Y-270860D03*
D03*
X193910Y-275860D03*
D03*
X185250Y-280860D03*
D03*
X211230Y-265860D03*
D03*
X202570Y270860D03*
D03*
X211230Y265860D03*
D03*
X185250Y280860D03*
D03*
X193910Y275860D03*
D03*
X228550Y-255860D03*
D03*
X219890Y-260860D03*
D03*
Y260860D03*
D03*
X228550Y255860D03*
D03*
X265860Y-211230D03*
D03*
X260860Y-219890D03*
D03*
X255860Y-228550D03*
D03*
X270860Y-202570D03*
D03*
Y202570D03*
D03*
X255860Y228550D03*
D03*
X260860Y219890D03*
D03*
X265860Y211230D03*
D03*
X280860Y-185250D03*
D03*
X275860Y-193910D03*
D03*
X300860Y-150610D03*
D03*
X295860Y-159270D03*
D03*
X290860Y-167930D03*
D03*
X285860Y-176590D03*
D03*
X300860Y150610D03*
D03*
X285860Y176590D03*
D03*
X290860Y167930D03*
D03*
X295860Y159270D03*
D03*
X275860Y193910D03*
D03*
X280860Y185250D03*
D03*
X315860Y-124630D03*
D03*
X310860Y-133290D03*
D03*
X305860Y-141950D03*
D03*
X325860Y-107310D03*
D03*
X320860Y-115970D03*
D03*
Y115970D03*
D03*
X325860Y107310D03*
D03*
X305860Y141950D03*
D03*
X310860Y133290D03*
D03*
X315860Y124630D03*
D03*
X335860Y-70000D03*
D03*
Y-40000D03*
D03*
Y-50000D03*
D03*
Y-60000D03*
D03*
Y-10000D03*
D03*
Y-20000D03*
D03*
Y-30000D03*
D03*
Y20000D03*
D03*
Y10000D03*
D03*
Y0D03*
D03*
Y50000D03*
D03*
Y40000D03*
D03*
Y30000D03*
D03*
Y70000D03*
D03*
Y60000D03*
D03*
G54D23*
G01X-641740Y175280D02*
Y177780D01*
X-641200D01*
X-640990Y177650D01*
X-640830Y177490D01*
X-640700Y177240D01*
X-640590Y176950D01*
X-640560Y176530D01*
X-640590Y176110D01*
X-640700Y175820D01*
X-640830Y175570D01*
X-640990Y175400D01*
X-641200Y175280D01*
X-641740D01*
G01X-638420D02*
X-639480D01*
Y177780D01*
X-638420D01*
G01X-638840Y176570D02*
X-639480D01*
G01X-637310Y175610D02*
X-637100Y175400D01*
X-636860Y175280D01*
X-636640D01*
X-636430Y175400D01*
X-636270Y175610D01*
X-636190Y175910D01*
X-636240Y176200D01*
X-636380Y176450D01*
X-636620Y176610D01*
X-636940Y176700D01*
X-637120Y176860D01*
X-637200Y177150D01*
X-637150Y177450D01*
X-637020Y177650D01*
X-636830Y177780D01*
X-636640D01*
X-636460Y177700D01*
X-636300Y177490D01*
G01X-634870Y177780D02*
X-634230D01*
G01X-634550D02*
Y175280D01*
G01X-634870D02*
X-634230D01*
G01X-632190Y176530D02*
X-631660D01*
Y175780D01*
X-631820Y175530D01*
X-632000Y175360D01*
X-632270Y175280D01*
X-632540Y175360D01*
X-632720Y175530D01*
X-632880Y175780D01*
X-632990Y176070D01*
X-633040Y176400D01*
Y176700D01*
X-632990Y176950D01*
X-632880Y177240D01*
X-632720Y177490D01*
X-632560Y177650D01*
X-632350Y177780D01*
X-632160D01*
X-631950Y177700D01*
X-631790Y177530D01*
G01X-630760Y175280D02*
Y177780D01*
X-629540Y175280D01*
Y177780D01*
G01X-625160Y177570D02*
X-625320Y177700D01*
X-625510Y177780D01*
X-625720D01*
X-625960Y177650D01*
X-626150Y177450D01*
X-626280Y177200D01*
X-626390Y176780D01*
X-626420Y176400D01*
X-626360Y176030D01*
X-626280Y175780D01*
X-626120Y175530D01*
X-625940Y175360D01*
X-625750Y175280D01*
X-625560D01*
X-625380Y175360D01*
X-625220Y175490D01*
X-625080Y175650D01*
G01X-624080Y175280D02*
Y177780D01*
X-623420D01*
X-623200Y177650D01*
X-623070Y177490D01*
X-623020Y177150D01*
X-623070Y176820D01*
X-623230Y176610D01*
X-623420Y176490D01*
X-624080D01*
G01X-623420D02*
X-623020Y175280D01*
G01X-621350D02*
X-621560Y175320D01*
X-621750Y175490D01*
X-621910Y175740D01*
X-622020Y176030D01*
X-622070Y176360D01*
Y176700D01*
X-622020Y177030D01*
X-621910Y177320D01*
X-621750Y177570D01*
X-621560Y177740D01*
X-621350Y177780D01*
X-621140Y177740D01*
X-620950Y177570D01*
X-620790Y177320D01*
X-620680Y177030D01*
X-620630Y176700D01*
Y176360D01*
X-620680Y176030D01*
X-620790Y175740D01*
X-620950Y175490D01*
X-621140Y175320D01*
X-621350Y175280D01*
G01X-619710Y175610D02*
X-619500Y175400D01*
X-619260Y175280D01*
X-619040D01*
X-618830Y175400D01*
X-618670Y175610D01*
X-618590Y175910D01*
X-618640Y176200D01*
X-618780Y176450D01*
X-619020Y176610D01*
X-619340Y176700D01*
X-619520Y176860D01*
X-619600Y177150D01*
X-619550Y177450D01*
X-619420Y177650D01*
X-619230Y177780D01*
X-619040D01*
X-618860Y177700D01*
X-618700Y177490D01*
G01X-617510Y175610D02*
X-617300Y175400D01*
X-617060Y175280D01*
X-616840D01*
X-616630Y175400D01*
X-616470Y175610D01*
X-616390Y175910D01*
X-616440Y176200D01*
X-616580Y176450D01*
X-616820Y176610D01*
X-617140Y176700D01*
X-617320Y176860D01*
X-617400Y177150D01*
X-617350Y177450D01*
X-617220Y177650D01*
X-617030Y177780D01*
X-616840D01*
X-616660Y177700D01*
X-616500Y177490D01*
G01X-613110Y175610D02*
X-612900Y175400D01*
X-612660Y175280D01*
X-612440D01*
X-612230Y175400D01*
X-612070Y175610D01*
X-611990Y175910D01*
X-612040Y176200D01*
X-612180Y176450D01*
X-612420Y176610D01*
X-612740Y176700D01*
X-612920Y176860D01*
X-613000Y177150D01*
X-612950Y177450D01*
X-612820Y177650D01*
X-612630Y177780D01*
X-612440D01*
X-612260Y177700D01*
X-612100Y177490D01*
G01X-609820Y175280D02*
X-610880D01*
Y177780D01*
X-609820D01*
G01X-610240Y176570D02*
X-610880D01*
G01X-607560Y177570D02*
X-607720Y177700D01*
X-607910Y177780D01*
X-608120D01*
X-608360Y177650D01*
X-608550Y177450D01*
X-608680Y177200D01*
X-608790Y176780D01*
X-608820Y176400D01*
X-608760Y176030D01*
X-608680Y175780D01*
X-608520Y175530D01*
X-608340Y175360D01*
X-608150Y175280D01*
X-607960D01*
X-607780Y175360D01*
X-607620Y175490D01*
X-607480Y175650D01*
G01X-605950Y177780D02*
Y175280D01*
G01X-606560Y177780D02*
X-605340D01*
G01X-604070D02*
X-603430D01*
G01X-603750D02*
Y175280D01*
G01X-604070D02*
X-603430D01*
G01X-601550D02*
X-601760Y175320D01*
X-601950Y175490D01*
X-602110Y175740D01*
X-602220Y176030D01*
X-602270Y176360D01*
Y176700D01*
X-602220Y177030D01*
X-602110Y177320D01*
X-601950Y177570D01*
X-601760Y177740D01*
X-601550Y177780D01*
X-601340Y177740D01*
X-601150Y177570D01*
X-600990Y177320D01*
X-600880Y177030D01*
X-600830Y176700D01*
Y176360D01*
X-600880Y176030D01*
X-600990Y175740D01*
X-601150Y175490D01*
X-601340Y175320D01*
X-601550Y175280D01*
G01X-599960D02*
Y177780D01*
X-598740Y175280D01*
Y177780D01*
G01X-594360Y177570D02*
X-594520Y177700D01*
X-594710Y177780D01*
X-594920D01*
X-595160Y177650D01*
X-595350Y177450D01*
X-595480Y177200D01*
X-595590Y176780D01*
X-595620Y176400D01*
X-595560Y176030D01*
X-595480Y175780D01*
X-595320Y175530D01*
X-595140Y175360D01*
X-594950Y175280D01*
X-594760D01*
X-594580Y175360D01*
X-594420Y175490D01*
X-594280Y175650D01*
G01X-593310Y175280D02*
Y177780D01*
G01X-592190D02*
Y175280D01*
G01Y176530D02*
X-593310D01*
G01X-591220Y175280D02*
X-590550Y177780D01*
X-589880Y175280D01*
G01X-590120Y176150D02*
X-590980D01*
G01X-588880Y175280D02*
Y177780D01*
X-588220D01*
X-588000Y177650D01*
X-587870Y177490D01*
X-587820Y177150D01*
X-587870Y176820D01*
X-588030Y176610D01*
X-588220Y176490D01*
X-588880D01*
G01X-588220D02*
X-587820Y175280D01*
G01X-586150Y177780D02*
Y175280D01*
G01X-586760Y177780D02*
X-585540D01*
G01X-643050Y174450D02*
X-641450D01*
G01X-640850D02*
X-639250D01*
G01X-638650D02*
X-637050D01*
G01X-636450D02*
X-634850D01*
G01X-634250D02*
X-632650D01*
G01X-632050D02*
X-630450D01*
G01X-629850D02*
X-628250D01*
G01X-627650D02*
X-626050D01*
G01X-625450D02*
X-623850D01*
G01X-623250D02*
X-621650D01*
G01X-621050D02*
X-619450D01*
G01X-618850D02*
X-617250D01*
G01X-616650D02*
X-615050D01*
G01X-614450D02*
X-612850D01*
G01X-612250D02*
X-610650D01*
G01X-610050D02*
X-608450D01*
G01X-607850D02*
X-606250D01*
G01X-605650D02*
X-604050D01*
G01X-603450D02*
X-601850D01*
G01X-601250D02*
X-599650D01*
G01X-599050D02*
X-597450D01*
G01X-596850D02*
X-595250D01*
G01X-594650D02*
X-593050D01*
G01X-592450D02*
X-590850D01*
G01X-590250D02*
X-588650D01*
G01X-588050D02*
X-586450D01*
G01X-585850D02*
X-584250D01*
G01X-638950Y172780D02*
Y170280D01*
G01X-639560Y172780D02*
X-638340D01*
G01X-636750Y170280D02*
X-636960Y170320D01*
X-637150Y170490D01*
X-637310Y170740D01*
X-637420Y171030D01*
X-637470Y171360D01*
Y171700D01*
X-637420Y172030D01*
X-637310Y172320D01*
X-637150Y172570D01*
X-636960Y172740D01*
X-636750Y172780D01*
X-636540Y172740D01*
X-636350Y172570D01*
X-636190Y172320D01*
X-636080Y172030D01*
X-636030Y171700D01*
Y171360D01*
X-636080Y171030D01*
X-636190Y170740D01*
X-636350Y170490D01*
X-636540Y170320D01*
X-636750Y170280D01*
G01X-634550Y172780D02*
Y170280D01*
G01X-635160Y172780D02*
X-633940D01*
G01X-633020Y170280D02*
X-632350Y172780D01*
X-631680Y170280D01*
G01X-631920Y171150D02*
X-632780D01*
G01X-630680Y172780D02*
Y170280D01*
X-629620D01*
G01X-625750Y172780D02*
Y170280D01*
G01X-626360Y172780D02*
X-625140D01*
G01X-624110Y170280D02*
Y172780D01*
G01X-622990D02*
Y170280D01*
G01Y171530D02*
X-624110D01*
G01X-621670Y172780D02*
X-621030D01*
G01X-621350D02*
Y170280D01*
G01X-621670D02*
X-621030D01*
G01X-618560Y172570D02*
X-618720Y172700D01*
X-618910Y172780D01*
X-619120D01*
X-619360Y172650D01*
X-619550Y172450D01*
X-619680Y172200D01*
X-619790Y171780D01*
X-619820Y171400D01*
X-619760Y171030D01*
X-619680Y170780D01*
X-619520Y170530D01*
X-619340Y170360D01*
X-619150Y170280D01*
X-618960D01*
X-618780Y170360D01*
X-618620Y170490D01*
X-618480Y170650D01*
G01X-617540Y170280D02*
Y172780D01*
G01X-616520D02*
X-617540Y171240D01*
G01X-616360Y170280D02*
X-617080Y171950D01*
G01X-615360Y170280D02*
Y172780D01*
X-614140Y170280D01*
Y172780D01*
G01X-612020Y170280D02*
X-613080D01*
Y172780D01*
X-612020D01*
G01X-612440Y171570D02*
X-613080D01*
G01X-610910Y170610D02*
X-610700Y170400D01*
X-610460Y170280D01*
X-610240D01*
X-610030Y170400D01*
X-609870Y170610D01*
X-609790Y170910D01*
X-609840Y171200D01*
X-609980Y171450D01*
X-610220Y171610D01*
X-610540Y171700D01*
X-610720Y171860D01*
X-610800Y172150D01*
X-610750Y172450D01*
X-610620Y172650D01*
X-610430Y172780D01*
X-610240D01*
X-610060Y172700D01*
X-609900Y172490D01*
G01X-608710Y170610D02*
X-608500Y170400D01*
X-608260Y170280D01*
X-608040D01*
X-607830Y170400D01*
X-607670Y170610D01*
X-607590Y170910D01*
X-607640Y171200D01*
X-607780Y171450D01*
X-608020Y171610D01*
X-608340Y171700D01*
X-608520Y171860D01*
X-608600Y172150D01*
X-608550Y172450D01*
X-608420Y172650D01*
X-608230Y172780D01*
X-608040D01*
X-607860Y172700D01*
X-607700Y172490D01*
G01X-603430Y170280D02*
Y172780D01*
X-604420Y170990D01*
X-603080D01*
G01X-601600Y170280D02*
X-601550Y170820D01*
X-601470Y171280D01*
X-601360Y171700D01*
X-601230Y172150D01*
X-601020Y172780D01*
X-602080D01*
G01X-599350Y170200D02*
X-599400Y170240D01*
Y170320D01*
X-599350Y170360D01*
X-599300Y170320D01*
Y170240D01*
X-599350Y170200D01*
G01X-597660Y172360D02*
X-597500Y172610D01*
X-597310Y172740D01*
X-597100Y172780D01*
X-596830Y172700D01*
X-596640Y172490D01*
X-596590Y172240D01*
X-596620Y171990D01*
X-596720Y171780D01*
X-597260Y171360D01*
X-597500Y171070D01*
X-597660Y170650D01*
X-597710Y170280D01*
X-596590D01*
G01X-593440D02*
Y172780D01*
X-592750Y170700D01*
X-592060Y172780D01*
Y170280D01*
G01X-590870Y172780D02*
X-590230D01*
G01X-590550D02*
Y170280D01*
G01X-590870D02*
X-590230D01*
G01X-588880Y172780D02*
Y170280D01*
X-587820D01*
G01X-653650Y189480D02*
Y223080D01*
X-573650D01*
Y189480D01*
X-653650D01*
G01Y228120D02*
Y261720D01*
X-573650D01*
Y228120D01*
X-653650D01*
G01Y266760D02*
Y300360D01*
X-573650D01*
Y266760D01*
X-653650D01*
G01Y305400D02*
Y339000D01*
X-573650D01*
Y305400D01*
X-653650D01*
G01Y344040D02*
Y377640D01*
X-573650D01*
Y344040D01*
X-653650D01*
G01X-626150Y385980D02*
X-628650D01*
X-628150Y385660D01*
G01X-626150D02*
Y386300D01*
G01X-626980Y387830D02*
Y388530D01*
G01X-627190Y389870D02*
X-627480Y390060D01*
X-627650Y390220D01*
X-627730Y390430D01*
X-627650Y390620D01*
X-627480Y390750D01*
X-627230Y390860D01*
X-626940Y390890D01*
X-626690Y390860D01*
X-626440Y390750D01*
X-626230Y390590D01*
X-626150Y390410D01*
X-626230Y390190D01*
X-626480Y390010D01*
X-626860Y389900D01*
X-627270Y389870D01*
X-627820Y389930D01*
X-628110Y390010D01*
X-628400Y390140D01*
X-628610Y390330D01*
X-628650Y390510D01*
X-628570Y390700D01*
X-628360Y390830D01*
G01X-566840Y206200D02*
X-565660Y208030D01*
G01X-566250Y208360D02*
Y205860D01*
G01X-565660Y206200D02*
X-566840Y208030D01*
G01X-567050Y207110D02*
X-565450D01*
G01X-560240Y206280D02*
Y208780D01*
X-559700D01*
X-559490Y208650D01*
X-559330Y208490D01*
X-559200Y208240D01*
X-559090Y207950D01*
X-559060Y207530D01*
X-559090Y207110D01*
X-559200Y206820D01*
X-559330Y206570D01*
X-559490Y206400D01*
X-559700Y206280D01*
X-560240D01*
G01X-557770Y208780D02*
X-557130D01*
G01X-557450D02*
Y206280D01*
G01X-557770D02*
X-557130D01*
G01X-554720D02*
X-555780D01*
Y208780D01*
X-554720D01*
G01X-555140Y207570D02*
X-555780D01*
G01X-553580Y208780D02*
Y206280D01*
X-552520D01*
G01X-550320D02*
X-551380D01*
Y208780D01*
X-550320D01*
G01X-550740Y207570D02*
X-551380D01*
G01X-548060Y208570D02*
X-548220Y208700D01*
X-548410Y208780D01*
X-548620D01*
X-548860Y208650D01*
X-549050Y208450D01*
X-549180Y208200D01*
X-549290Y207780D01*
X-549320Y207400D01*
X-549260Y207030D01*
X-549180Y206780D01*
X-549020Y206530D01*
X-548840Y206360D01*
X-548650Y206280D01*
X-548460D01*
X-548280Y206360D01*
X-548120Y206490D01*
X-547980Y206650D01*
G01X-546450Y208780D02*
Y206280D01*
G01X-547060Y208780D02*
X-545840D01*
G01X-544780Y206280D02*
Y208780D01*
X-544120D01*
X-543900Y208650D01*
X-543770Y208490D01*
X-543720Y208150D01*
X-543770Y207820D01*
X-543930Y207610D01*
X-544120Y207490D01*
X-544780D01*
G01X-544120D02*
X-543720Y206280D01*
G01X-542370Y208780D02*
X-541730D01*
G01X-542050D02*
Y206280D01*
G01X-542370D02*
X-541730D01*
G01X-539260Y208570D02*
X-539420Y208700D01*
X-539610Y208780D01*
X-539820D01*
X-540060Y208650D01*
X-540250Y208450D01*
X-540380Y208200D01*
X-540490Y207780D01*
X-540520Y207400D01*
X-540460Y207030D01*
X-540380Y206780D01*
X-540220Y206530D01*
X-540040Y206360D01*
X-539850Y206280D01*
X-539660D01*
X-539480Y206360D01*
X-539320Y206490D01*
X-539180Y206650D01*
G01X-535800Y207110D02*
X-535100D01*
G01X-531560Y206280D02*
Y208780D01*
X-530540D01*
G01X-530920Y207570D02*
X-531560D01*
G01X-529380Y206280D02*
Y208780D01*
X-528720D01*
X-528500Y208650D01*
X-528370Y208490D01*
X-528320Y208150D01*
X-528370Y207820D01*
X-528530Y207610D01*
X-528720Y207490D01*
X-529380D01*
G01X-528720D02*
X-528320Y206280D01*
G01X-527000Y207110D02*
X-526300D01*
G01X-524130Y206280D02*
Y208780D01*
X-525120Y206990D01*
X-523780D01*
G01X-520050Y206280D02*
X-519860Y206320D01*
X-519650Y206450D01*
X-519520Y206650D01*
X-519460Y206950D01*
X-519520Y207240D01*
X-519680Y207490D01*
X-519920Y207610D01*
X-520180D01*
X-520340Y207700D01*
X-520480Y207900D01*
X-520530Y208200D01*
X-520450Y208490D01*
X-520260Y208700D01*
X-520050Y208780D01*
X-519840Y208700D01*
X-519650Y208490D01*
X-519570Y208200D01*
X-519620Y207900D01*
X-519760Y207700D01*
X-519920Y207610D01*
X-520180D01*
X-520420Y207490D01*
X-520580Y207240D01*
X-520640Y206950D01*
X-520580Y206650D01*
X-520450Y206450D01*
X-520240Y206320D01*
X-520050Y206280D01*
G01X-516340D02*
Y208780D01*
X-515650Y206700D01*
X-514960Y208780D01*
Y206280D01*
G01X-513770Y208780D02*
X-513130D01*
G01X-513450D02*
Y206280D01*
G01X-513770D02*
X-513130D01*
G01X-511780Y208780D02*
Y206280D01*
X-510720D01*
G01X-571180Y188650D02*
Y186150D01*
X-570120D01*
G01X-568960Y187190D02*
X-568770Y187480D01*
X-568610Y187650D01*
X-568400Y187730D01*
X-568210Y187650D01*
X-568080Y187480D01*
X-567970Y187230D01*
X-567940Y186940D01*
X-567970Y186690D01*
X-568080Y186440D01*
X-568240Y186230D01*
X-568420Y186150D01*
X-568640Y186230D01*
X-568820Y186480D01*
X-568930Y186860D01*
X-568960Y187270D01*
X-568900Y187820D01*
X-568820Y188110D01*
X-568690Y188400D01*
X-568500Y188610D01*
X-568320Y188650D01*
X-568130Y188570D01*
X-568000Y188360D01*
G01X-566250Y186070D02*
X-566300Y186110D01*
Y186190D01*
X-566250Y186230D01*
X-566200Y186190D01*
Y186110D01*
X-566250Y186070D01*
G01Y187190D02*
X-566300Y187230D01*
Y187320D01*
X-566250Y187360D01*
X-566200Y187320D01*
Y187230D01*
X-566250Y187190D01*
G01X-561640Y187480D02*
X-561530Y187610D01*
X-561450Y187820D01*
X-561400Y188110D01*
X-561450Y188360D01*
X-561560Y188520D01*
X-561740Y188650D01*
X-562460D01*
Y186150D01*
X-561580D01*
X-561400Y186320D01*
X-561290Y186570D01*
X-561240Y186860D01*
X-561290Y187150D01*
X-561450Y187400D01*
X-561640Y187480D01*
X-562460D01*
G01X-559650Y186150D02*
X-559860Y186190D01*
X-560050Y186360D01*
X-560210Y186610D01*
X-560320Y186900D01*
X-560370Y187230D01*
Y187570D01*
X-560320Y187900D01*
X-560210Y188190D01*
X-560050Y188440D01*
X-559860Y188610D01*
X-559650Y188650D01*
X-559440Y188610D01*
X-559250Y188440D01*
X-559090Y188190D01*
X-558980Y187900D01*
X-558930Y187570D01*
Y187230D01*
X-558980Y186900D01*
X-559090Y186610D01*
X-559250Y186360D01*
X-559440Y186190D01*
X-559650Y186150D01*
G01X-557450Y188650D02*
Y186150D01*
G01X-558060Y188650D02*
X-556840D01*
G01X-555250D02*
Y186150D01*
G01X-555860Y188650D02*
X-554640D01*
G01X-553050Y186150D02*
X-553260Y186190D01*
X-553450Y186360D01*
X-553610Y186610D01*
X-553720Y186900D01*
X-553770Y187230D01*
Y187570D01*
X-553720Y187900D01*
X-553610Y188190D01*
X-553450Y188440D01*
X-553260Y188610D01*
X-553050Y188650D01*
X-552840Y188610D01*
X-552650Y188440D01*
X-552490Y188190D01*
X-552380Y187900D01*
X-552330Y187570D01*
Y187230D01*
X-552380Y186900D01*
X-552490Y186610D01*
X-552650Y186360D01*
X-552840Y186190D01*
X-553050Y186150D01*
G01X-551540D02*
Y188650D01*
X-550850Y186570D01*
X-550160Y188650D01*
Y186150D01*
G01X-545860Y188440D02*
X-546020Y188570D01*
X-546210Y188650D01*
X-546420D01*
X-546660Y188520D01*
X-546850Y188320D01*
X-546980Y188070D01*
X-547090Y187650D01*
X-547120Y187270D01*
X-547060Y186900D01*
X-546980Y186650D01*
X-546820Y186400D01*
X-546640Y186230D01*
X-546450Y186150D01*
X-546260D01*
X-546080Y186230D01*
X-545920Y186360D01*
X-545780Y186520D01*
G01X-544250Y186150D02*
X-544460Y186190D01*
X-544650Y186360D01*
X-544810Y186610D01*
X-544920Y186900D01*
X-544970Y187230D01*
Y187570D01*
X-544920Y187900D01*
X-544810Y188190D01*
X-544650Y188440D01*
X-544460Y188610D01*
X-544250Y188650D01*
X-544040Y188610D01*
X-543850Y188440D01*
X-543690Y188190D01*
X-543580Y187900D01*
X-543530Y187570D01*
Y187230D01*
X-543580Y186900D01*
X-543690Y186610D01*
X-543850Y186360D01*
X-544040Y186190D01*
X-544250Y186150D01*
G01X-542660D02*
Y188650D01*
X-541440Y186150D01*
Y188650D01*
G01X-540440Y186150D02*
Y188650D01*
X-539900D01*
X-539690Y188520D01*
X-539530Y188360D01*
X-539400Y188110D01*
X-539290Y187820D01*
X-539260Y187400D01*
X-539290Y186980D01*
X-539400Y186690D01*
X-539530Y186440D01*
X-539690Y186270D01*
X-539900Y186150D01*
X-540440D01*
G01X-538240Y188650D02*
Y186860D01*
X-538130Y186480D01*
X-537920Y186230D01*
X-537650Y186150D01*
X-537380Y186230D01*
X-537170Y186480D01*
X-537060Y186860D01*
Y188650D01*
G01X-534860Y188440D02*
X-535020Y188570D01*
X-535210Y188650D01*
X-535420D01*
X-535660Y188520D01*
X-535850Y188320D01*
X-535980Y188070D01*
X-536090Y187650D01*
X-536120Y187270D01*
X-536060Y186900D01*
X-535980Y186650D01*
X-535820Y186400D01*
X-535640Y186230D01*
X-535450Y186150D01*
X-535260D01*
X-535080Y186230D01*
X-534920Y186360D01*
X-534780Y186520D01*
G01X-533250Y188650D02*
Y186150D01*
G01X-533860Y188650D02*
X-532640D01*
G01X-531050Y186150D02*
X-531260Y186190D01*
X-531450Y186360D01*
X-531610Y186610D01*
X-531720Y186900D01*
X-531770Y187230D01*
Y187570D01*
X-531720Y187900D01*
X-531610Y188190D01*
X-531450Y188440D01*
X-531260Y188610D01*
X-531050Y188650D01*
X-530840Y188610D01*
X-530650Y188440D01*
X-530490Y188190D01*
X-530380Y187900D01*
X-530330Y187570D01*
Y187230D01*
X-530380Y186900D01*
X-530490Y186610D01*
X-530650Y186360D01*
X-530840Y186190D01*
X-531050Y186150D01*
G01X-529380D02*
Y188650D01*
X-528720D01*
X-528500Y188520D01*
X-528370Y188360D01*
X-528320Y188020D01*
X-528370Y187690D01*
X-528530Y187480D01*
X-528720Y187360D01*
X-529380D01*
G01X-528720D02*
X-528320Y186150D01*
G01X-524800Y186980D02*
X-524100D01*
G01X-519460Y188440D02*
X-519620Y188570D01*
X-519810Y188650D01*
X-520020D01*
X-520260Y188520D01*
X-520450Y188320D01*
X-520580Y188070D01*
X-520690Y187650D01*
X-520720Y187270D01*
X-520660Y186900D01*
X-520580Y186650D01*
X-520420Y186400D01*
X-520240Y186230D01*
X-520050Y186150D01*
X-519860D01*
X-519680Y186230D01*
X-519520Y186360D01*
X-519380Y186520D01*
G01X-517850Y186150D02*
X-518060Y186190D01*
X-518250Y186360D01*
X-518410Y186610D01*
X-518520Y186900D01*
X-518570Y187230D01*
Y187570D01*
X-518520Y187900D01*
X-518410Y188190D01*
X-518250Y188440D01*
X-518060Y188610D01*
X-517850Y188650D01*
X-517640Y188610D01*
X-517450Y188440D01*
X-517290Y188190D01*
X-517180Y187900D01*
X-517130Y187570D01*
Y187230D01*
X-517180Y186900D01*
X-517290Y186610D01*
X-517450Y186360D01*
X-517640Y186190D01*
X-517850Y186150D01*
G01X-516180D02*
Y188650D01*
X-515540D01*
X-515330Y188520D01*
X-515170Y188230D01*
X-515120Y187900D01*
X-515170Y187570D01*
X-515300Y187320D01*
X-515540Y187190D01*
X-516180D01*
G01X-513980Y186150D02*
Y188650D01*
X-513340D01*
X-513130Y188520D01*
X-512970Y188230D01*
X-512920Y187900D01*
X-512970Y187570D01*
X-513100Y187320D01*
X-513340Y187190D01*
X-513980D01*
G01X-510720Y186150D02*
X-511780D01*
Y188650D01*
X-510720D01*
G01X-511140Y187440D02*
X-511780D01*
G01X-509580Y186150D02*
Y188650D01*
X-508920D01*
X-508700Y188520D01*
X-508570Y188360D01*
X-508520Y188020D01*
X-508570Y187690D01*
X-508730Y187480D01*
X-508920Y187360D01*
X-509580D01*
G01X-508920D02*
X-508520Y186150D01*
G01X-504650D02*
Y188650D01*
X-504970Y188150D01*
G01Y186150D02*
X-504330D01*
G01X-502450Y186070D02*
X-502500Y186110D01*
Y186190D01*
X-502450Y186230D01*
X-502400Y186190D01*
Y186110D01*
X-502450Y186070D01*
G01X-500760Y188230D02*
X-500600Y188480D01*
X-500410Y188610D01*
X-500200Y188650D01*
X-499930Y188570D01*
X-499740Y188360D01*
X-499690Y188110D01*
X-499720Y187860D01*
X-499820Y187650D01*
X-500360Y187230D01*
X-500600Y186940D01*
X-500760Y186520D01*
X-500810Y186150D01*
X-499690D01*
G01X-496540D02*
Y188650D01*
X-495850Y186570D01*
X-495160Y188650D01*
Y186150D01*
G01X-493970Y188650D02*
X-493330D01*
G01X-493650D02*
Y186150D01*
G01X-493970D02*
X-493330D01*
G01X-491980Y188650D02*
Y186150D01*
X-490920D01*
G01X-566840Y181030D02*
X-565660Y182860D01*
G01X-566250Y183190D02*
Y180690D01*
G01X-565660Y181030D02*
X-566840Y182860D01*
G01X-567050Y181940D02*
X-565450D01*
G01X-560210Y181440D02*
X-560000Y181230D01*
X-559760Y181110D01*
X-559540D01*
X-559330Y181230D01*
X-559170Y181440D01*
X-559090Y181740D01*
X-559140Y182030D01*
X-559280Y182280D01*
X-559520Y182440D01*
X-559840Y182530D01*
X-560020Y182690D01*
X-560100Y182980D01*
X-560050Y183280D01*
X-559920Y183480D01*
X-559730Y183610D01*
X-559540D01*
X-559360Y183530D01*
X-559200Y183320D01*
G01X-558040Y183610D02*
Y181820D01*
X-557930Y181440D01*
X-557720Y181190D01*
X-557450Y181110D01*
X-557180Y181190D01*
X-556970Y181440D01*
X-556860Y181820D01*
Y183610D01*
G01X-555780Y181110D02*
Y183610D01*
X-555120D01*
X-554900Y183480D01*
X-554770Y183320D01*
X-554720Y182980D01*
X-554770Y182650D01*
X-554930Y182440D01*
X-555120Y182320D01*
X-555780D01*
G01X-555120D02*
X-554720Y181110D01*
G01X-553560D02*
Y183610D01*
X-552540D01*
G01X-552920Y182400D02*
X-553560D01*
G01X-551520Y181110D02*
X-550850Y183610D01*
X-550180Y181110D01*
G01X-550420Y181980D02*
X-551280D01*
G01X-548060Y183400D02*
X-548220Y183530D01*
X-548410Y183610D01*
X-548620D01*
X-548860Y183480D01*
X-549050Y183280D01*
X-549180Y183030D01*
X-549290Y182610D01*
X-549320Y182230D01*
X-549260Y181860D01*
X-549180Y181610D01*
X-549020Y181360D01*
X-548840Y181190D01*
X-548650Y181110D01*
X-548460D01*
X-548280Y181190D01*
X-548120Y181320D01*
X-547980Y181480D01*
G01X-545920Y181110D02*
X-546980D01*
Y183610D01*
X-545920D01*
G01X-546340Y182400D02*
X-546980D01*
G01X-542400Y181940D02*
X-541700D01*
G01X-538320Y181110D02*
X-537650Y183610D01*
X-536980Y181110D01*
G01X-537220Y181980D02*
X-538080D01*
G01X-535770Y183610D02*
X-535130D01*
G01X-535450D02*
Y181110D01*
G01X-535770D02*
X-535130D01*
G01X-533780D02*
Y183610D01*
X-533120D01*
X-532900Y183480D01*
X-532770Y183320D01*
X-532720Y182980D01*
X-532770Y182650D01*
X-532930Y182440D01*
X-533120Y182320D01*
X-533780D01*
G01X-533120D02*
X-532720Y181110D01*
G01X-528850Y183610D02*
X-529060Y183530D01*
X-529220Y183320D01*
X-529330Y183070D01*
X-529410Y182730D01*
X-529440Y182360D01*
X-529410Y181980D01*
X-529330Y181650D01*
X-529220Y181400D01*
X-529060Y181190D01*
X-528850Y181110D01*
X-528640Y181190D01*
X-528480Y181400D01*
X-528370Y181650D01*
X-528290Y181980D01*
X-528260Y182360D01*
X-528290Y182730D01*
X-528370Y183070D01*
X-528480Y183320D01*
X-528640Y183530D01*
X-528850Y183610D01*
G01X-525140Y181110D02*
Y183610D01*
X-524450Y181530D01*
X-523760Y183610D01*
Y181110D01*
G01X-522570Y183610D02*
X-521930D01*
G01X-522250D02*
Y181110D01*
G01X-522570D02*
X-521930D01*
G01X-520580Y183610D02*
Y181110D01*
X-519520D01*
G01X-571180Y227290D02*
Y224790D01*
X-570120D01*
G01X-569040Y225160D02*
X-568880Y224960D01*
X-568690Y224830D01*
X-568450Y224790D01*
X-568210Y224870D01*
X-568020Y225040D01*
X-567890Y225330D01*
X-567860Y225660D01*
X-567920Y226000D01*
X-568050Y226210D01*
X-568240Y226370D01*
X-568420Y226410D01*
X-568610Y226370D01*
X-568850Y226210D01*
X-568770Y227290D01*
X-568050D01*
G01X-566250Y224710D02*
X-566300Y224750D01*
Y224830D01*
X-566250Y224870D01*
X-566200Y224830D01*
Y224750D01*
X-566250Y224710D01*
G01Y225830D02*
X-566300Y225870D01*
Y225960D01*
X-566250Y226000D01*
X-566200Y225960D01*
Y225870D01*
X-566250Y225830D01*
G01X-562380Y227290D02*
Y224790D01*
X-561320D01*
G01X-560320D02*
X-559650Y227290D01*
X-558980Y224790D01*
G01X-559220Y225660D02*
X-560080D01*
G01X-557450Y224790D02*
Y225910D01*
X-557980Y227290D01*
G01X-556920D02*
X-557450Y225910D01*
G01X-554720Y224790D02*
X-555780D01*
Y227290D01*
X-554720D01*
G01X-555140Y226080D02*
X-555780D01*
G01X-553580Y224790D02*
Y227290D01*
X-552920D01*
X-552700Y227160D01*
X-552570Y227000D01*
X-552520Y226660D01*
X-552570Y226330D01*
X-552730Y226120D01*
X-552920Y226000D01*
X-553580D01*
G01X-552920D02*
X-552520Y224790D01*
G01X-549160Y226870D02*
X-549000Y227120D01*
X-548810Y227250D01*
X-548600Y227290D01*
X-548330Y227210D01*
X-548140Y227000D01*
X-548090Y226750D01*
X-548120Y226500D01*
X-548220Y226290D01*
X-548760Y225870D01*
X-549000Y225580D01*
X-549160Y225160D01*
X-549210Y224790D01*
X-548090D01*
G01X-543660Y227080D02*
X-543820Y227210D01*
X-544010Y227290D01*
X-544220D01*
X-544460Y227160D01*
X-544650Y226960D01*
X-544780Y226710D01*
X-544890Y226290D01*
X-544920Y225910D01*
X-544860Y225540D01*
X-544780Y225290D01*
X-544620Y225040D01*
X-544440Y224870D01*
X-544250Y224790D01*
X-544060D01*
X-543880Y224870D01*
X-543720Y225000D01*
X-543580Y225160D01*
G01X-542050Y224790D02*
X-542260Y224830D01*
X-542450Y225000D01*
X-542610Y225250D01*
X-542720Y225540D01*
X-542770Y225870D01*
Y226210D01*
X-542720Y226540D01*
X-542610Y226830D01*
X-542450Y227080D01*
X-542260Y227250D01*
X-542050Y227290D01*
X-541840Y227250D01*
X-541650Y227080D01*
X-541490Y226830D01*
X-541380Y226540D01*
X-541330Y226210D01*
Y225870D01*
X-541380Y225540D01*
X-541490Y225250D01*
X-541650Y225000D01*
X-541840Y224830D01*
X-542050Y224790D01*
G01X-540460D02*
Y227290D01*
X-539240Y224790D01*
Y227290D01*
G01X-538240Y224790D02*
Y227290D01*
X-537700D01*
X-537490Y227160D01*
X-537330Y227000D01*
X-537200Y226750D01*
X-537090Y226460D01*
X-537060Y226040D01*
X-537090Y225620D01*
X-537200Y225330D01*
X-537330Y225080D01*
X-537490Y224910D01*
X-537700Y224790D01*
X-538240D01*
G01X-536040Y227290D02*
Y225500D01*
X-535930Y225120D01*
X-535720Y224870D01*
X-535450Y224790D01*
X-535180Y224870D01*
X-534970Y225120D01*
X-534860Y225500D01*
Y227290D01*
G01X-532660Y227080D02*
X-532820Y227210D01*
X-533010Y227290D01*
X-533220D01*
X-533460Y227160D01*
X-533650Y226960D01*
X-533780Y226710D01*
X-533890Y226290D01*
X-533920Y225910D01*
X-533860Y225540D01*
X-533780Y225290D01*
X-533620Y225040D01*
X-533440Y224870D01*
X-533250Y224790D01*
X-533060D01*
X-532880Y224870D01*
X-532720Y225000D01*
X-532580Y225160D01*
G01X-531050Y227290D02*
Y224790D01*
G01X-531660Y227290D02*
X-530440D01*
G01X-528850Y224790D02*
X-529060Y224830D01*
X-529250Y225000D01*
X-529410Y225250D01*
X-529520Y225540D01*
X-529570Y225870D01*
Y226210D01*
X-529520Y226540D01*
X-529410Y226830D01*
X-529250Y227080D01*
X-529060Y227250D01*
X-528850Y227290D01*
X-528640Y227250D01*
X-528450Y227080D01*
X-528290Y226830D01*
X-528180Y226540D01*
X-528130Y226210D01*
Y225870D01*
X-528180Y225540D01*
X-528290Y225250D01*
X-528450Y225000D01*
X-528640Y224830D01*
X-528850Y224790D01*
G01X-527180D02*
Y227290D01*
X-526520D01*
X-526300Y227160D01*
X-526170Y227000D01*
X-526120Y226660D01*
X-526170Y226330D01*
X-526330Y226120D01*
X-526520Y226000D01*
X-527180D01*
G01X-526520D02*
X-526120Y224790D01*
G01X-522600Y225620D02*
X-521900D01*
G01X-517260Y227080D02*
X-517420Y227210D01*
X-517610Y227290D01*
X-517820D01*
X-518060Y227160D01*
X-518250Y226960D01*
X-518380Y226710D01*
X-518490Y226290D01*
X-518520Y225910D01*
X-518460Y225540D01*
X-518380Y225290D01*
X-518220Y225040D01*
X-518040Y224870D01*
X-517850Y224790D01*
X-517660D01*
X-517480Y224870D01*
X-517320Y225000D01*
X-517180Y225160D01*
G01X-515650Y224790D02*
X-515860Y224830D01*
X-516050Y225000D01*
X-516210Y225250D01*
X-516320Y225540D01*
X-516370Y225870D01*
Y226210D01*
X-516320Y226540D01*
X-516210Y226830D01*
X-516050Y227080D01*
X-515860Y227250D01*
X-515650Y227290D01*
X-515440Y227250D01*
X-515250Y227080D01*
X-515090Y226830D01*
X-514980Y226540D01*
X-514930Y226210D01*
Y225870D01*
X-514980Y225540D01*
X-515090Y225250D01*
X-515250Y225000D01*
X-515440Y224830D01*
X-515650Y224790D01*
G01X-513980D02*
Y227290D01*
X-513340D01*
X-513130Y227160D01*
X-512970Y226870D01*
X-512920Y226540D01*
X-512970Y226210D01*
X-513100Y225960D01*
X-513340Y225830D01*
X-513980D01*
G01X-511780Y224790D02*
Y227290D01*
X-511140D01*
X-510930Y227160D01*
X-510770Y226870D01*
X-510720Y226540D01*
X-510770Y226210D01*
X-510900Y225960D01*
X-511140Y225830D01*
X-511780D01*
G01X-508520Y224790D02*
X-509580D01*
Y227290D01*
X-508520D01*
G01X-508940Y226080D02*
X-509580D01*
G01X-507380Y224790D02*
Y227290D01*
X-506720D01*
X-506500Y227160D01*
X-506370Y227000D01*
X-506320Y226660D01*
X-506370Y226330D01*
X-506530Y226120D01*
X-506720Y226000D01*
X-507380D01*
G01X-506720D02*
X-506320Y224790D01*
G01X-502450D02*
Y227290D01*
X-502770Y226790D01*
G01Y224790D02*
X-502130D01*
G01X-500250Y224710D02*
X-500300Y224750D01*
Y224830D01*
X-500250Y224870D01*
X-500200Y224830D01*
Y224750D01*
X-500250Y224710D01*
G01X-498560Y226870D02*
X-498400Y227120D01*
X-498210Y227250D01*
X-498000Y227290D01*
X-497730Y227210D01*
X-497540Y227000D01*
X-497490Y226750D01*
X-497520Y226500D01*
X-497620Y226290D01*
X-498160Y225870D01*
X-498400Y225580D01*
X-498560Y225160D01*
X-498610Y224790D01*
X-497490D01*
G01X-494340D02*
Y227290D01*
X-493650Y225210D01*
X-492960Y227290D01*
Y224790D01*
G01X-491770Y227290D02*
X-491130D01*
G01X-491450D02*
Y224790D01*
G01X-491770D02*
X-491130D01*
G01X-489780Y227290D02*
Y224790D01*
X-488720D01*
G01X-571180Y265930D02*
Y263430D01*
X-570120D01*
G01X-568130D02*
Y265930D01*
X-569120Y264140D01*
X-567780D01*
G01X-566250Y263350D02*
X-566300Y263390D01*
Y263470D01*
X-566250Y263510D01*
X-566200Y263470D01*
Y263390D01*
X-566250Y263350D01*
G01Y264470D02*
X-566300Y264510D01*
Y264600D01*
X-566250Y264640D01*
X-566200Y264600D01*
Y264510D01*
X-566250Y264470D01*
G01X-561690Y264680D02*
X-561160D01*
Y263930D01*
X-561320Y263680D01*
X-561500Y263510D01*
X-561770Y263430D01*
X-562040Y263510D01*
X-562220Y263680D01*
X-562380Y263930D01*
X-562490Y264220D01*
X-562540Y264550D01*
Y264850D01*
X-562490Y265100D01*
X-562380Y265390D01*
X-562220Y265640D01*
X-562060Y265800D01*
X-561850Y265930D01*
X-561660D01*
X-561450Y265850D01*
X-561290Y265680D01*
G01X-560260Y263430D02*
Y265930D01*
X-559040Y263430D01*
Y265930D01*
G01X-558040Y263430D02*
Y265930D01*
X-557500D01*
X-557290Y265800D01*
X-557130Y265640D01*
X-557000Y265390D01*
X-556890Y265100D01*
X-556860Y264680D01*
X-556890Y264260D01*
X-557000Y263970D01*
X-557130Y263720D01*
X-557290Y263550D01*
X-557500Y263430D01*
X-558040D01*
G01X-555760Y265510D02*
X-555600Y265760D01*
X-555410Y265890D01*
X-555200Y265930D01*
X-554930Y265850D01*
X-554740Y265640D01*
X-554690Y265390D01*
X-554720Y265140D01*
X-554820Y264930D01*
X-555360Y264510D01*
X-555600Y264220D01*
X-555760Y263800D01*
X-555810Y263430D01*
X-554690D01*
G01X-550260Y265720D02*
X-550420Y265850D01*
X-550610Y265930D01*
X-550820D01*
X-551060Y265800D01*
X-551250Y265600D01*
X-551380Y265350D01*
X-551490Y264930D01*
X-551520Y264550D01*
X-551460Y264180D01*
X-551380Y263930D01*
X-551220Y263680D01*
X-551040Y263510D01*
X-550850Y263430D01*
X-550660D01*
X-550480Y263510D01*
X-550320Y263640D01*
X-550180Y263800D01*
G01X-548650Y263430D02*
X-548860Y263470D01*
X-549050Y263640D01*
X-549210Y263890D01*
X-549320Y264180D01*
X-549370Y264510D01*
Y264850D01*
X-549320Y265180D01*
X-549210Y265470D01*
X-549050Y265720D01*
X-548860Y265890D01*
X-548650Y265930D01*
X-548440Y265890D01*
X-548250Y265720D01*
X-548090Y265470D01*
X-547980Y265180D01*
X-547930Y264850D01*
Y264510D01*
X-547980Y264180D01*
X-548090Y263890D01*
X-548250Y263640D01*
X-548440Y263470D01*
X-548650Y263430D01*
G01X-547060D02*
Y265930D01*
X-545840Y263430D01*
Y265930D01*
G01X-544840Y263430D02*
Y265930D01*
X-544300D01*
X-544090Y265800D01*
X-543930Y265640D01*
X-543800Y265390D01*
X-543690Y265100D01*
X-543660Y264680D01*
X-543690Y264260D01*
X-543800Y263970D01*
X-543930Y263720D01*
X-544090Y263550D01*
X-544300Y263430D01*
X-544840D01*
G01X-542640Y265930D02*
Y264140D01*
X-542530Y263760D01*
X-542320Y263510D01*
X-542050Y263430D01*
X-541780Y263510D01*
X-541570Y263760D01*
X-541460Y264140D01*
Y265930D01*
G01X-539260Y265720D02*
X-539420Y265850D01*
X-539610Y265930D01*
X-539820D01*
X-540060Y265800D01*
X-540250Y265600D01*
X-540380Y265350D01*
X-540490Y264930D01*
X-540520Y264550D01*
X-540460Y264180D01*
X-540380Y263930D01*
X-540220Y263680D01*
X-540040Y263510D01*
X-539850Y263430D01*
X-539660D01*
X-539480Y263510D01*
X-539320Y263640D01*
X-539180Y263800D01*
G01X-537650Y265930D02*
Y263430D01*
G01X-538260Y265930D02*
X-537040D01*
G01X-535450Y263430D02*
X-535660Y263470D01*
X-535850Y263640D01*
X-536010Y263890D01*
X-536120Y264180D01*
X-536170Y264510D01*
Y264850D01*
X-536120Y265180D01*
X-536010Y265470D01*
X-535850Y265720D01*
X-535660Y265890D01*
X-535450Y265930D01*
X-535240Y265890D01*
X-535050Y265720D01*
X-534890Y265470D01*
X-534780Y265180D01*
X-534730Y264850D01*
Y264510D01*
X-534780Y264180D01*
X-534890Y263890D01*
X-535050Y263640D01*
X-535240Y263470D01*
X-535450Y263430D01*
G01X-533780D02*
Y265930D01*
X-533120D01*
X-532900Y265800D01*
X-532770Y265640D01*
X-532720Y265300D01*
X-532770Y264970D01*
X-532930Y264760D01*
X-533120Y264640D01*
X-533780D01*
G01X-533120D02*
X-532720Y263430D01*
G01X-529200Y264260D02*
X-528500D01*
G01X-523860Y265720D02*
X-524020Y265850D01*
X-524210Y265930D01*
X-524420D01*
X-524660Y265800D01*
X-524850Y265600D01*
X-524980Y265350D01*
X-525090Y264930D01*
X-525120Y264550D01*
X-525060Y264180D01*
X-524980Y263930D01*
X-524820Y263680D01*
X-524640Y263510D01*
X-524450Y263430D01*
X-524260D01*
X-524080Y263510D01*
X-523920Y263640D01*
X-523780Y263800D01*
G01X-522250Y263430D02*
X-522460Y263470D01*
X-522650Y263640D01*
X-522810Y263890D01*
X-522920Y264180D01*
X-522970Y264510D01*
Y264850D01*
X-522920Y265180D01*
X-522810Y265470D01*
X-522650Y265720D01*
X-522460Y265890D01*
X-522250Y265930D01*
X-522040Y265890D01*
X-521850Y265720D01*
X-521690Y265470D01*
X-521580Y265180D01*
X-521530Y264850D01*
Y264510D01*
X-521580Y264180D01*
X-521690Y263890D01*
X-521850Y263640D01*
X-522040Y263470D01*
X-522250Y263430D01*
G01X-520580D02*
Y265930D01*
X-519940D01*
X-519730Y265800D01*
X-519570Y265510D01*
X-519520Y265180D01*
X-519570Y264850D01*
X-519700Y264600D01*
X-519940Y264470D01*
X-520580D01*
G01X-518380Y263430D02*
Y265930D01*
X-517740D01*
X-517530Y265800D01*
X-517370Y265510D01*
X-517320Y265180D01*
X-517370Y264850D01*
X-517500Y264600D01*
X-517740Y264470D01*
X-518380D01*
G01X-515120Y263430D02*
X-516180D01*
Y265930D01*
X-515120D01*
G01X-515540Y264720D02*
X-516180D01*
G01X-513980Y263430D02*
Y265930D01*
X-513320D01*
X-513100Y265800D01*
X-512970Y265640D01*
X-512920Y265300D01*
X-512970Y264970D01*
X-513130Y264760D01*
X-513320Y264640D01*
X-513980D01*
G01X-513320D02*
X-512920Y263430D01*
G01X-509050D02*
Y265930D01*
X-509370Y265430D01*
G01Y263430D02*
X-508730D01*
G01X-506850Y263350D02*
X-506900Y263390D01*
Y263470D01*
X-506850Y263510D01*
X-506800Y263470D01*
Y263390D01*
X-506850Y263350D01*
G01X-505160Y265510D02*
X-505000Y265760D01*
X-504810Y265890D01*
X-504600Y265930D01*
X-504330Y265850D01*
X-504140Y265640D01*
X-504090Y265390D01*
X-504120Y265140D01*
X-504220Y264930D01*
X-504760Y264510D01*
X-505000Y264220D01*
X-505160Y263800D01*
X-505210Y263430D01*
X-504090D01*
G01X-500940D02*
Y265930D01*
X-500250Y263850D01*
X-499560Y265930D01*
Y263430D01*
G01X-498370Y265930D02*
X-497730D01*
G01X-498050D02*
Y263430D01*
G01X-498370D02*
X-497730D01*
G01X-496380Y265930D02*
Y263430D01*
X-495320D01*
G01X-566840Y244840D02*
X-565660Y246670D01*
G01X-566250Y247000D02*
Y244500D01*
G01X-565660Y244840D02*
X-566840Y246670D01*
G01X-567050Y245750D02*
X-565450D01*
G01X-560240Y244920D02*
Y247420D01*
X-559700D01*
X-559490Y247290D01*
X-559330Y247130D01*
X-559200Y246880D01*
X-559090Y246590D01*
X-559060Y246170D01*
X-559090Y245750D01*
X-559200Y245460D01*
X-559330Y245210D01*
X-559490Y245040D01*
X-559700Y244920D01*
X-560240D01*
G01X-557770Y247420D02*
X-557130D01*
G01X-557450D02*
Y244920D01*
G01X-557770D02*
X-557130D01*
G01X-554720D02*
X-555780D01*
Y247420D01*
X-554720D01*
G01X-555140Y246210D02*
X-555780D01*
G01X-553580Y247420D02*
Y244920D01*
X-552520D01*
G01X-550320D02*
X-551380D01*
Y247420D01*
X-550320D01*
G01X-550740Y246210D02*
X-551380D01*
G01X-548060Y247210D02*
X-548220Y247340D01*
X-548410Y247420D01*
X-548620D01*
X-548860Y247290D01*
X-549050Y247090D01*
X-549180Y246840D01*
X-549290Y246420D01*
X-549320Y246040D01*
X-549260Y245670D01*
X-549180Y245420D01*
X-549020Y245170D01*
X-548840Y245000D01*
X-548650Y244920D01*
X-548460D01*
X-548280Y245000D01*
X-548120Y245130D01*
X-547980Y245290D01*
G01X-546450Y247420D02*
Y244920D01*
G01X-547060Y247420D02*
X-545840D01*
G01X-544780Y244920D02*
Y247420D01*
X-544120D01*
X-543900Y247290D01*
X-543770Y247130D01*
X-543720Y246790D01*
X-543770Y246460D01*
X-543930Y246250D01*
X-544120Y246130D01*
X-544780D01*
G01X-544120D02*
X-543720Y244920D01*
G01X-542370Y247420D02*
X-541730D01*
G01X-542050D02*
Y244920D01*
G01X-542370D02*
X-541730D01*
G01X-539260Y247210D02*
X-539420Y247340D01*
X-539610Y247420D01*
X-539820D01*
X-540060Y247290D01*
X-540250Y247090D01*
X-540380Y246840D01*
X-540490Y246420D01*
X-540520Y246040D01*
X-540460Y245670D01*
X-540380Y245420D01*
X-540220Y245170D01*
X-540040Y245000D01*
X-539850Y244920D01*
X-539660D01*
X-539480Y245000D01*
X-539320Y245130D01*
X-539180Y245290D01*
G01X-535800Y245750D02*
X-535100D01*
G01X-531560Y244920D02*
Y247420D01*
X-530540D01*
G01X-530920Y246210D02*
X-531560D01*
G01X-529380Y244920D02*
Y247420D01*
X-528720D01*
X-528500Y247290D01*
X-528370Y247130D01*
X-528320Y246790D01*
X-528370Y246460D01*
X-528530Y246250D01*
X-528720Y246130D01*
X-529380D01*
G01X-528720D02*
X-528320Y244920D01*
G01X-527000Y245750D02*
X-526300D01*
G01X-524130Y244920D02*
Y247420D01*
X-525120Y245630D01*
X-523780D01*
G01X-520050Y244920D02*
X-519860Y244960D01*
X-519650Y245090D01*
X-519520Y245290D01*
X-519460Y245590D01*
X-519520Y245880D01*
X-519680Y246130D01*
X-519920Y246250D01*
X-520180D01*
X-520340Y246340D01*
X-520480Y246540D01*
X-520530Y246840D01*
X-520450Y247130D01*
X-520260Y247340D01*
X-520050Y247420D01*
X-519840Y247340D01*
X-519650Y247130D01*
X-519570Y246840D01*
X-519620Y246540D01*
X-519760Y246340D01*
X-519920Y246250D01*
X-520180D01*
X-520420Y246130D01*
X-520580Y245880D01*
X-520640Y245590D01*
X-520580Y245290D01*
X-520450Y245090D01*
X-520240Y244960D01*
X-520050Y244920D01*
G01X-516340D02*
Y247420D01*
X-515650Y245340D01*
X-514960Y247420D01*
Y244920D01*
G01X-513770Y247420D02*
X-513130D01*
G01X-513450D02*
Y244920D01*
G01X-513770D02*
X-513130D01*
G01X-511780Y247420D02*
Y244920D01*
X-510720D01*
G01X-566840Y283480D02*
X-565660Y285310D01*
G01X-566250Y285640D02*
Y283140D01*
G01X-565660Y283480D02*
X-566840Y285310D01*
G01X-567050Y284390D02*
X-565450D01*
G01X-560240Y283560D02*
Y286060D01*
X-559700D01*
X-559490Y285930D01*
X-559330Y285770D01*
X-559200Y285520D01*
X-559090Y285230D01*
X-559060Y284810D01*
X-559090Y284390D01*
X-559200Y284100D01*
X-559330Y283850D01*
X-559490Y283680D01*
X-559700Y283560D01*
X-560240D01*
G01X-557770Y286060D02*
X-557130D01*
G01X-557450D02*
Y283560D01*
G01X-557770D02*
X-557130D01*
G01X-554720D02*
X-555780D01*
Y286060D01*
X-554720D01*
G01X-555140Y284850D02*
X-555780D01*
G01X-553580Y286060D02*
Y283560D01*
X-552520D01*
G01X-550320D02*
X-551380D01*
Y286060D01*
X-550320D01*
G01X-550740Y284850D02*
X-551380D01*
G01X-548060Y285850D02*
X-548220Y285980D01*
X-548410Y286060D01*
X-548620D01*
X-548860Y285930D01*
X-549050Y285730D01*
X-549180Y285480D01*
X-549290Y285060D01*
X-549320Y284680D01*
X-549260Y284310D01*
X-549180Y284060D01*
X-549020Y283810D01*
X-548840Y283640D01*
X-548650Y283560D01*
X-548460D01*
X-548280Y283640D01*
X-548120Y283770D01*
X-547980Y283930D01*
G01X-546450Y286060D02*
Y283560D01*
G01X-547060Y286060D02*
X-545840D01*
G01X-544780Y283560D02*
Y286060D01*
X-544120D01*
X-543900Y285930D01*
X-543770Y285770D01*
X-543720Y285430D01*
X-543770Y285100D01*
X-543930Y284890D01*
X-544120Y284770D01*
X-544780D01*
G01X-544120D02*
X-543720Y283560D01*
G01X-542370Y286060D02*
X-541730D01*
G01X-542050D02*
Y283560D01*
G01X-542370D02*
X-541730D01*
G01X-539260Y285850D02*
X-539420Y285980D01*
X-539610Y286060D01*
X-539820D01*
X-540060Y285930D01*
X-540250Y285730D01*
X-540380Y285480D01*
X-540490Y285060D01*
X-540520Y284680D01*
X-540460Y284310D01*
X-540380Y284060D01*
X-540220Y283810D01*
X-540040Y283640D01*
X-539850Y283560D01*
X-539660D01*
X-539480Y283640D01*
X-539320Y283770D01*
X-539180Y283930D01*
G01X-535800Y284390D02*
X-535100D01*
G01X-531560Y283560D02*
Y286060D01*
X-530540D01*
G01X-530920Y284850D02*
X-531560D01*
G01X-529380Y283560D02*
Y286060D01*
X-528720D01*
X-528500Y285930D01*
X-528370Y285770D01*
X-528320Y285430D01*
X-528370Y285100D01*
X-528530Y284890D01*
X-528720Y284770D01*
X-529380D01*
G01X-528720D02*
X-528320Y283560D01*
G01X-527000Y284390D02*
X-526300D01*
G01X-524130Y283560D02*
Y286060D01*
X-525120Y284270D01*
X-523780D01*
G01X-520050Y283560D02*
X-519860Y283600D01*
X-519650Y283730D01*
X-519520Y283930D01*
X-519460Y284230D01*
X-519520Y284520D01*
X-519680Y284770D01*
X-519920Y284890D01*
X-520180D01*
X-520340Y284980D01*
X-520480Y285180D01*
X-520530Y285480D01*
X-520450Y285770D01*
X-520260Y285980D01*
X-520050Y286060D01*
X-519840Y285980D01*
X-519650Y285770D01*
X-519570Y285480D01*
X-519620Y285180D01*
X-519760Y284980D01*
X-519920Y284890D01*
X-520180D01*
X-520420Y284770D01*
X-520580Y284520D01*
X-520640Y284230D01*
X-520580Y283930D01*
X-520450Y283730D01*
X-520240Y283600D01*
X-520050Y283560D01*
G01X-516340D02*
Y286060D01*
X-515650Y283980D01*
X-514960Y286060D01*
Y283560D01*
G01X-513770Y286060D02*
X-513130D01*
G01X-513450D02*
Y283560D01*
G01X-513770D02*
X-513130D01*
G01X-511780Y286060D02*
Y283560D01*
X-510720D01*
G01X-566840Y322120D02*
X-565660Y323950D01*
G01X-566250Y324280D02*
Y321780D01*
G01X-565660Y322120D02*
X-566840Y323950D01*
G01X-567050Y323030D02*
X-565450D01*
G01X-560240Y322200D02*
Y324700D01*
X-559700D01*
X-559490Y324570D01*
X-559330Y324410D01*
X-559200Y324160D01*
X-559090Y323870D01*
X-559060Y323450D01*
X-559090Y323030D01*
X-559200Y322740D01*
X-559330Y322490D01*
X-559490Y322320D01*
X-559700Y322200D01*
X-560240D01*
G01X-557770Y324700D02*
X-557130D01*
G01X-557450D02*
Y322200D01*
G01X-557770D02*
X-557130D01*
G01X-554720D02*
X-555780D01*
Y324700D01*
X-554720D01*
G01X-555140Y323490D02*
X-555780D01*
G01X-553580Y324700D02*
Y322200D01*
X-552520D01*
G01X-550320D02*
X-551380D01*
Y324700D01*
X-550320D01*
G01X-550740Y323490D02*
X-551380D01*
G01X-548060Y324490D02*
X-548220Y324620D01*
X-548410Y324700D01*
X-548620D01*
X-548860Y324570D01*
X-549050Y324370D01*
X-549180Y324120D01*
X-549290Y323700D01*
X-549320Y323320D01*
X-549260Y322950D01*
X-549180Y322700D01*
X-549020Y322450D01*
X-548840Y322280D01*
X-548650Y322200D01*
X-548460D01*
X-548280Y322280D01*
X-548120Y322410D01*
X-547980Y322570D01*
G01X-546450Y324700D02*
Y322200D01*
G01X-547060Y324700D02*
X-545840D01*
G01X-544780Y322200D02*
Y324700D01*
X-544120D01*
X-543900Y324570D01*
X-543770Y324410D01*
X-543720Y324070D01*
X-543770Y323740D01*
X-543930Y323530D01*
X-544120Y323410D01*
X-544780D01*
G01X-544120D02*
X-543720Y322200D01*
G01X-542370Y324700D02*
X-541730D01*
G01X-542050D02*
Y322200D01*
G01X-542370D02*
X-541730D01*
G01X-539260Y324490D02*
X-539420Y324620D01*
X-539610Y324700D01*
X-539820D01*
X-540060Y324570D01*
X-540250Y324370D01*
X-540380Y324120D01*
X-540490Y323700D01*
X-540520Y323320D01*
X-540460Y322950D01*
X-540380Y322700D01*
X-540220Y322450D01*
X-540040Y322280D01*
X-539850Y322200D01*
X-539660D01*
X-539480Y322280D01*
X-539320Y322410D01*
X-539180Y322570D01*
G01X-535800Y323030D02*
X-535100D01*
G01X-531560Y322200D02*
Y324700D01*
X-530540D01*
G01X-530920Y323490D02*
X-531560D01*
G01X-529380Y322200D02*
Y324700D01*
X-528720D01*
X-528500Y324570D01*
X-528370Y324410D01*
X-528320Y324070D01*
X-528370Y323740D01*
X-528530Y323530D01*
X-528720Y323410D01*
X-529380D01*
G01X-528720D02*
X-528320Y322200D01*
G01X-527000Y323030D02*
X-526300D01*
G01X-524130Y322200D02*
Y324700D01*
X-525120Y322910D01*
X-523780D01*
G01X-520050Y322200D02*
X-519860Y322240D01*
X-519650Y322370D01*
X-519520Y322570D01*
X-519460Y322870D01*
X-519520Y323160D01*
X-519680Y323410D01*
X-519920Y323530D01*
X-520180D01*
X-520340Y323620D01*
X-520480Y323820D01*
X-520530Y324120D01*
X-520450Y324410D01*
X-520260Y324620D01*
X-520050Y324700D01*
X-519840Y324620D01*
X-519650Y324410D01*
X-519570Y324120D01*
X-519620Y323820D01*
X-519760Y323620D01*
X-519920Y323530D01*
X-520180D01*
X-520420Y323410D01*
X-520580Y323160D01*
X-520640Y322870D01*
X-520580Y322570D01*
X-520450Y322370D01*
X-520240Y322240D01*
X-520050Y322200D01*
G01X-516340D02*
Y324700D01*
X-515650Y322620D01*
X-514960Y324700D01*
Y322200D01*
G01X-513770Y324700D02*
X-513130D01*
G01X-513450D02*
Y322200D01*
G01X-513770D02*
X-513130D01*
G01X-511780Y324700D02*
Y322200D01*
X-510720D01*
G01X-571180Y304570D02*
Y302070D01*
X-570120D01*
G01X-569040Y302570D02*
X-568880Y302280D01*
X-568660Y302110D01*
X-568420Y302070D01*
X-568210Y302110D01*
X-568000Y302320D01*
X-567860Y302570D01*
X-567840Y302820D01*
X-567890Y303110D01*
X-568080Y303320D01*
X-568260Y303400D01*
X-568500D01*
G01X-568260D02*
X-568100Y303530D01*
X-567970Y303740D01*
X-567920Y303990D01*
X-567970Y304240D01*
X-568100Y304440D01*
X-568340Y304570D01*
X-568580Y304530D01*
X-568820Y304360D01*
G01X-566250Y301990D02*
X-566300Y302030D01*
Y302110D01*
X-566250Y302150D01*
X-566200Y302110D01*
Y302030D01*
X-566250Y301990D01*
G01Y303110D02*
X-566300Y303150D01*
Y303240D01*
X-566250Y303280D01*
X-566200Y303240D01*
Y303150D01*
X-566250Y303110D01*
G01X-562380Y304570D02*
Y302070D01*
X-561320D01*
G01X-560320D02*
X-559650Y304570D01*
X-558980Y302070D01*
G01X-559220Y302940D02*
X-560080D01*
G01X-557450Y302070D02*
Y303190D01*
X-557980Y304570D01*
G01X-556920D02*
X-557450Y303190D01*
G01X-554720Y302070D02*
X-555780D01*
Y304570D01*
X-554720D01*
G01X-555140Y303360D02*
X-555780D01*
G01X-553580Y302070D02*
Y304570D01*
X-552920D01*
X-552700Y304440D01*
X-552570Y304280D01*
X-552520Y303940D01*
X-552570Y303610D01*
X-552730Y303400D01*
X-552920Y303280D01*
X-553580D01*
G01X-552920D02*
X-552520Y302070D01*
G01X-548650D02*
Y304570D01*
X-548970Y304070D01*
G01Y302070D02*
X-548330D01*
G01X-543660Y304360D02*
X-543820Y304490D01*
X-544010Y304570D01*
X-544220D01*
X-544460Y304440D01*
X-544650Y304240D01*
X-544780Y303990D01*
X-544890Y303570D01*
X-544920Y303190D01*
X-544860Y302820D01*
X-544780Y302570D01*
X-544620Y302320D01*
X-544440Y302150D01*
X-544250Y302070D01*
X-544060D01*
X-543880Y302150D01*
X-543720Y302280D01*
X-543580Y302440D01*
G01X-542050Y302070D02*
X-542260Y302110D01*
X-542450Y302280D01*
X-542610Y302530D01*
X-542720Y302820D01*
X-542770Y303150D01*
Y303490D01*
X-542720Y303820D01*
X-542610Y304110D01*
X-542450Y304360D01*
X-542260Y304530D01*
X-542050Y304570D01*
X-541840Y304530D01*
X-541650Y304360D01*
X-541490Y304110D01*
X-541380Y303820D01*
X-541330Y303490D01*
Y303150D01*
X-541380Y302820D01*
X-541490Y302530D01*
X-541650Y302280D01*
X-541840Y302110D01*
X-542050Y302070D01*
G01X-540460D02*
Y304570D01*
X-539240Y302070D01*
Y304570D01*
G01X-538240Y302070D02*
Y304570D01*
X-537700D01*
X-537490Y304440D01*
X-537330Y304280D01*
X-537200Y304030D01*
X-537090Y303740D01*
X-537060Y303320D01*
X-537090Y302900D01*
X-537200Y302610D01*
X-537330Y302360D01*
X-537490Y302190D01*
X-537700Y302070D01*
X-538240D01*
G01X-536040Y304570D02*
Y302780D01*
X-535930Y302400D01*
X-535720Y302150D01*
X-535450Y302070D01*
X-535180Y302150D01*
X-534970Y302400D01*
X-534860Y302780D01*
Y304570D01*
G01X-532660Y304360D02*
X-532820Y304490D01*
X-533010Y304570D01*
X-533220D01*
X-533460Y304440D01*
X-533650Y304240D01*
X-533780Y303990D01*
X-533890Y303570D01*
X-533920Y303190D01*
X-533860Y302820D01*
X-533780Y302570D01*
X-533620Y302320D01*
X-533440Y302150D01*
X-533250Y302070D01*
X-533060D01*
X-532880Y302150D01*
X-532720Y302280D01*
X-532580Y302440D01*
G01X-531050Y304570D02*
Y302070D01*
G01X-531660Y304570D02*
X-530440D01*
G01X-528850Y302070D02*
X-529060Y302110D01*
X-529250Y302280D01*
X-529410Y302530D01*
X-529520Y302820D01*
X-529570Y303150D01*
Y303490D01*
X-529520Y303820D01*
X-529410Y304110D01*
X-529250Y304360D01*
X-529060Y304530D01*
X-528850Y304570D01*
X-528640Y304530D01*
X-528450Y304360D01*
X-528290Y304110D01*
X-528180Y303820D01*
X-528130Y303490D01*
Y303150D01*
X-528180Y302820D01*
X-528290Y302530D01*
X-528450Y302280D01*
X-528640Y302110D01*
X-528850Y302070D01*
G01X-527180D02*
Y304570D01*
X-526520D01*
X-526300Y304440D01*
X-526170Y304280D01*
X-526120Y303940D01*
X-526170Y303610D01*
X-526330Y303400D01*
X-526520Y303280D01*
X-527180D01*
G01X-526520D02*
X-526120Y302070D01*
G01X-522600Y302900D02*
X-521900D01*
G01X-517260Y304360D02*
X-517420Y304490D01*
X-517610Y304570D01*
X-517820D01*
X-518060Y304440D01*
X-518250Y304240D01*
X-518380Y303990D01*
X-518490Y303570D01*
X-518520Y303190D01*
X-518460Y302820D01*
X-518380Y302570D01*
X-518220Y302320D01*
X-518040Y302150D01*
X-517850Y302070D01*
X-517660D01*
X-517480Y302150D01*
X-517320Y302280D01*
X-517180Y302440D01*
G01X-515650Y302070D02*
X-515860Y302110D01*
X-516050Y302280D01*
X-516210Y302530D01*
X-516320Y302820D01*
X-516370Y303150D01*
Y303490D01*
X-516320Y303820D01*
X-516210Y304110D01*
X-516050Y304360D01*
X-515860Y304530D01*
X-515650Y304570D01*
X-515440Y304530D01*
X-515250Y304360D01*
X-515090Y304110D01*
X-514980Y303820D01*
X-514930Y303490D01*
Y303150D01*
X-514980Y302820D01*
X-515090Y302530D01*
X-515250Y302280D01*
X-515440Y302110D01*
X-515650Y302070D01*
G01X-513980D02*
Y304570D01*
X-513340D01*
X-513130Y304440D01*
X-512970Y304150D01*
X-512920Y303820D01*
X-512970Y303490D01*
X-513100Y303240D01*
X-513340Y303110D01*
X-513980D01*
G01X-511780Y302070D02*
Y304570D01*
X-511140D01*
X-510930Y304440D01*
X-510770Y304150D01*
X-510720Y303820D01*
X-510770Y303490D01*
X-510900Y303240D01*
X-511140Y303110D01*
X-511780D01*
G01X-508520Y302070D02*
X-509580D01*
Y304570D01*
X-508520D01*
G01X-508940Y303360D02*
X-509580D01*
G01X-507380Y302070D02*
Y304570D01*
X-506720D01*
X-506500Y304440D01*
X-506370Y304280D01*
X-506320Y303940D01*
X-506370Y303610D01*
X-506530Y303400D01*
X-506720Y303280D01*
X-507380D01*
G01X-506720D02*
X-506320Y302070D01*
G01X-502450D02*
Y304570D01*
X-502770Y304070D01*
G01Y302070D02*
X-502130D01*
G01X-500250Y301990D02*
X-500300Y302030D01*
Y302110D01*
X-500250Y302150D01*
X-500200Y302110D01*
Y302030D01*
X-500250Y301990D01*
G01X-498560Y304150D02*
X-498400Y304400D01*
X-498210Y304530D01*
X-498000Y304570D01*
X-497730Y304490D01*
X-497540Y304280D01*
X-497490Y304030D01*
X-497520Y303780D01*
X-497620Y303570D01*
X-498160Y303150D01*
X-498400Y302860D01*
X-498560Y302440D01*
X-498610Y302070D01*
X-497490D01*
G01X-494340D02*
Y304570D01*
X-493650Y302490D01*
X-492960Y304570D01*
Y302070D01*
G01X-491770Y304570D02*
X-491130D01*
G01X-491450D02*
Y302070D01*
G01X-491770D02*
X-491130D01*
G01X-489780Y304570D02*
Y302070D01*
X-488720D01*
G01X-571180Y343210D02*
Y340710D01*
X-570120D01*
G01X-568960Y342790D02*
X-568800Y343040D01*
X-568610Y343170D01*
X-568400Y343210D01*
X-568130Y343130D01*
X-567940Y342920D01*
X-567890Y342670D01*
X-567920Y342420D01*
X-568020Y342210D01*
X-568560Y341790D01*
X-568800Y341500D01*
X-568960Y341080D01*
X-569010Y340710D01*
X-567890D01*
G01X-566250Y340630D02*
X-566300Y340670D01*
Y340750D01*
X-566250Y340790D01*
X-566200Y340750D01*
Y340670D01*
X-566250Y340630D01*
G01Y341750D02*
X-566300Y341790D01*
Y341880D01*
X-566250Y341920D01*
X-566200Y341880D01*
Y341790D01*
X-566250Y341750D01*
G01X-562380Y340710D02*
Y343210D01*
X-561740D01*
X-561530Y343080D01*
X-561370Y342790D01*
X-561320Y342460D01*
X-561370Y342130D01*
X-561500Y341880D01*
X-561740Y341750D01*
X-562380D01*
G01X-560450Y343210D02*
X-560080Y340710D01*
X-559650Y343210D01*
X-559220Y340710D01*
X-558850Y343210D01*
G01X-557980Y340710D02*
Y343210D01*
X-557320D01*
X-557100Y343080D01*
X-556970Y342920D01*
X-556920Y342580D01*
X-556970Y342250D01*
X-557130Y342040D01*
X-557320Y341920D01*
X-557980D01*
G01X-557320D02*
X-556920Y340710D01*
G01X-552460Y343000D02*
X-552620Y343130D01*
X-552810Y343210D01*
X-553020D01*
X-553260Y343080D01*
X-553450Y342880D01*
X-553580Y342630D01*
X-553690Y342210D01*
X-553720Y341830D01*
X-553660Y341460D01*
X-553580Y341210D01*
X-553420Y340960D01*
X-553240Y340790D01*
X-553050Y340710D01*
X-552860D01*
X-552680Y340790D01*
X-552520Y340920D01*
X-552380Y341080D01*
G01X-550850Y340710D02*
X-551060Y340750D01*
X-551250Y340920D01*
X-551410Y341170D01*
X-551520Y341460D01*
X-551570Y341790D01*
Y342130D01*
X-551520Y342460D01*
X-551410Y342750D01*
X-551250Y343000D01*
X-551060Y343170D01*
X-550850Y343210D01*
X-550640Y343170D01*
X-550450Y343000D01*
X-550290Y342750D01*
X-550180Y342460D01*
X-550130Y342130D01*
Y341790D01*
X-550180Y341460D01*
X-550290Y341170D01*
X-550450Y340920D01*
X-550640Y340750D01*
X-550850Y340710D01*
G01X-549260D02*
Y343210D01*
X-548040Y340710D01*
Y343210D01*
G01X-547040Y340710D02*
Y343210D01*
X-546500D01*
X-546290Y343080D01*
X-546130Y342920D01*
X-546000Y342670D01*
X-545890Y342380D01*
X-545860Y341960D01*
X-545890Y341540D01*
X-546000Y341250D01*
X-546130Y341000D01*
X-546290Y340830D01*
X-546500Y340710D01*
X-547040D01*
G01X-544840Y343210D02*
Y341420D01*
X-544730Y341040D01*
X-544520Y340790D01*
X-544250Y340710D01*
X-543980Y340790D01*
X-543770Y341040D01*
X-543660Y341420D01*
Y343210D01*
G01X-541460Y343000D02*
X-541620Y343130D01*
X-541810Y343210D01*
X-542020D01*
X-542260Y343080D01*
X-542450Y342880D01*
X-542580Y342630D01*
X-542690Y342210D01*
X-542720Y341830D01*
X-542660Y341460D01*
X-542580Y341210D01*
X-542420Y340960D01*
X-542240Y340790D01*
X-542050Y340710D01*
X-541860D01*
X-541680Y340790D01*
X-541520Y340920D01*
X-541380Y341080D01*
G01X-539850Y343210D02*
Y340710D01*
G01X-540460Y343210D02*
X-539240D01*
G01X-537650Y340710D02*
X-537860Y340750D01*
X-538050Y340920D01*
X-538210Y341170D01*
X-538320Y341460D01*
X-538370Y341790D01*
Y342130D01*
X-538320Y342460D01*
X-538210Y342750D01*
X-538050Y343000D01*
X-537860Y343170D01*
X-537650Y343210D01*
X-537440Y343170D01*
X-537250Y343000D01*
X-537090Y342750D01*
X-536980Y342460D01*
X-536930Y342130D01*
Y341790D01*
X-536980Y341460D01*
X-537090Y341170D01*
X-537250Y340920D01*
X-537440Y340750D01*
X-537650Y340710D01*
G01X-535980D02*
Y343210D01*
X-535320D01*
X-535100Y343080D01*
X-534970Y342920D01*
X-534920Y342580D01*
X-534970Y342250D01*
X-535130Y342040D01*
X-535320Y341920D01*
X-535980D01*
G01X-535320D02*
X-534920Y340710D01*
G01X-531400Y341540D02*
X-530700D01*
G01X-526060Y343000D02*
X-526220Y343130D01*
X-526410Y343210D01*
X-526620D01*
X-526860Y343080D01*
X-527050Y342880D01*
X-527180Y342630D01*
X-527290Y342210D01*
X-527320Y341830D01*
X-527260Y341460D01*
X-527180Y341210D01*
X-527020Y340960D01*
X-526840Y340790D01*
X-526650Y340710D01*
X-526460D01*
X-526280Y340790D01*
X-526120Y340920D01*
X-525980Y341080D01*
G01X-524450Y340710D02*
X-524660Y340750D01*
X-524850Y340920D01*
X-525010Y341170D01*
X-525120Y341460D01*
X-525170Y341790D01*
Y342130D01*
X-525120Y342460D01*
X-525010Y342750D01*
X-524850Y343000D01*
X-524660Y343170D01*
X-524450Y343210D01*
X-524240Y343170D01*
X-524050Y343000D01*
X-523890Y342750D01*
X-523780Y342460D01*
X-523730Y342130D01*
Y341790D01*
X-523780Y341460D01*
X-523890Y341170D01*
X-524050Y340920D01*
X-524240Y340750D01*
X-524450Y340710D01*
G01X-522780D02*
Y343210D01*
X-522140D01*
X-521930Y343080D01*
X-521770Y342790D01*
X-521720Y342460D01*
X-521770Y342130D01*
X-521900Y341880D01*
X-522140Y341750D01*
X-522780D01*
G01X-520580Y340710D02*
Y343210D01*
X-519940D01*
X-519730Y343080D01*
X-519570Y342790D01*
X-519520Y342460D01*
X-519570Y342130D01*
X-519700Y341880D01*
X-519940Y341750D01*
X-520580D01*
G01X-517320Y340710D02*
X-518380D01*
Y343210D01*
X-517320D01*
G01X-517740Y342000D02*
X-518380D01*
G01X-516180Y340710D02*
Y343210D01*
X-515520D01*
X-515300Y343080D01*
X-515170Y342920D01*
X-515120Y342580D01*
X-515170Y342250D01*
X-515330Y342040D01*
X-515520Y341920D01*
X-516180D01*
G01X-515520D02*
X-515120Y340710D01*
G01X-511250D02*
Y343210D01*
X-511570Y342710D01*
G01Y340710D02*
X-510930D01*
G01X-509050Y340630D02*
X-509100Y340670D01*
Y340750D01*
X-509050Y340790D01*
X-509000Y340750D01*
Y340670D01*
X-509050Y340630D01*
G01X-507360Y342790D02*
X-507200Y343040D01*
X-507010Y343170D01*
X-506800Y343210D01*
X-506530Y343130D01*
X-506340Y342920D01*
X-506290Y342670D01*
X-506320Y342420D01*
X-506420Y342210D01*
X-506960Y341790D01*
X-507200Y341500D01*
X-507360Y341080D01*
X-507410Y340710D01*
X-506290D01*
G01X-503140D02*
Y343210D01*
X-502450Y341130D01*
X-501760Y343210D01*
Y340710D01*
G01X-500570Y343210D02*
X-499930D01*
G01X-500250D02*
Y340710D01*
G01X-500570D02*
X-499930D01*
G01X-498580Y343210D02*
Y340710D01*
X-497520D01*
G01X-566840Y383430D02*
X-565660Y385260D01*
G01X-566250Y385590D02*
Y383090D01*
G01X-565660Y383430D02*
X-566840Y385260D01*
G01X-567050Y384340D02*
X-565450D01*
G01X-560210Y383840D02*
X-560000Y383630D01*
X-559760Y383510D01*
X-559540D01*
X-559330Y383630D01*
X-559170Y383840D01*
X-559090Y384140D01*
X-559140Y384430D01*
X-559280Y384680D01*
X-559520Y384840D01*
X-559840Y384930D01*
X-560020Y385090D01*
X-560100Y385380D01*
X-560050Y385680D01*
X-559920Y385880D01*
X-559730Y386010D01*
X-559540D01*
X-559360Y385930D01*
X-559200Y385720D01*
G01X-558040Y386010D02*
Y384220D01*
X-557930Y383840D01*
X-557720Y383590D01*
X-557450Y383510D01*
X-557180Y383590D01*
X-556970Y383840D01*
X-556860Y384220D01*
Y386010D01*
G01X-555780Y383510D02*
Y386010D01*
X-555120D01*
X-554900Y385880D01*
X-554770Y385720D01*
X-554720Y385380D01*
X-554770Y385050D01*
X-554930Y384840D01*
X-555120Y384720D01*
X-555780D01*
G01X-555120D02*
X-554720Y383510D01*
G01X-553560D02*
Y386010D01*
X-552540D01*
G01X-552920Y384800D02*
X-553560D01*
G01X-551520Y383510D02*
X-550850Y386010D01*
X-550180Y383510D01*
G01X-550420Y384380D02*
X-551280D01*
G01X-548060Y385800D02*
X-548220Y385930D01*
X-548410Y386010D01*
X-548620D01*
X-548860Y385880D01*
X-549050Y385680D01*
X-549180Y385430D01*
X-549290Y385010D01*
X-549320Y384630D01*
X-549260Y384260D01*
X-549180Y384010D01*
X-549020Y383760D01*
X-548840Y383590D01*
X-548650Y383510D01*
X-548460D01*
X-548280Y383590D01*
X-548120Y383720D01*
X-547980Y383880D01*
G01X-545920Y383510D02*
X-546980D01*
Y386010D01*
X-545920D01*
G01X-546340Y384800D02*
X-546980D01*
G01X-542400Y384340D02*
X-541700D01*
G01X-538320Y383510D02*
X-537650Y386010D01*
X-536980Y383510D01*
G01X-537220Y384380D02*
X-538080D01*
G01X-535770Y386010D02*
X-535130D01*
G01X-535450D02*
Y383510D01*
G01X-535770D02*
X-535130D01*
G01X-533780D02*
Y386010D01*
X-533120D01*
X-532900Y385880D01*
X-532770Y385720D01*
X-532720Y385380D01*
X-532770Y385050D01*
X-532930Y384840D01*
X-533120Y384720D01*
X-533780D01*
G01X-533120D02*
X-532720Y383510D01*
G01X-528850Y386010D02*
X-529060Y385930D01*
X-529220Y385720D01*
X-529330Y385470D01*
X-529410Y385130D01*
X-529440Y384760D01*
X-529410Y384380D01*
X-529330Y384050D01*
X-529220Y383800D01*
X-529060Y383590D01*
X-528850Y383510D01*
X-528640Y383590D01*
X-528480Y383800D01*
X-528370Y384050D01*
X-528290Y384380D01*
X-528260Y384760D01*
X-528290Y385130D01*
X-528370Y385470D01*
X-528480Y385720D01*
X-528640Y385930D01*
X-528850Y386010D01*
G01X-525140Y383510D02*
Y386010D01*
X-524450Y383930D01*
X-523760Y386010D01*
Y383510D01*
G01X-522570Y386010D02*
X-521930D01*
G01X-522250D02*
Y383510D01*
G01X-522570D02*
X-521930D01*
G01X-520580Y386010D02*
Y383510D01*
X-519520D01*
G01X-571180Y381850D02*
Y379350D01*
X-570120D01*
G01X-568450D02*
Y381850D01*
X-568770Y381350D01*
G01Y379350D02*
X-568130D01*
G01X-566250Y379270D02*
X-566300Y379310D01*
Y379390D01*
X-566250Y379430D01*
X-566200Y379390D01*
Y379310D01*
X-566250Y379270D01*
G01Y380390D02*
X-566300Y380430D01*
Y380520D01*
X-566250Y380560D01*
X-566200Y380520D01*
Y380430D01*
X-566250Y380390D01*
G01X-561850Y381850D02*
Y379350D01*
G01X-562460Y381850D02*
X-561240D01*
G01X-559650Y379350D02*
X-559860Y379390D01*
X-560050Y379560D01*
X-560210Y379810D01*
X-560320Y380100D01*
X-560370Y380430D01*
Y380770D01*
X-560320Y381100D01*
X-560210Y381390D01*
X-560050Y381640D01*
X-559860Y381810D01*
X-559650Y381850D01*
X-559440Y381810D01*
X-559250Y381640D01*
X-559090Y381390D01*
X-558980Y381100D01*
X-558930Y380770D01*
Y380430D01*
X-558980Y380100D01*
X-559090Y379810D01*
X-559250Y379560D01*
X-559440Y379390D01*
X-559650Y379350D01*
G01X-557980D02*
Y381850D01*
X-557340D01*
X-557130Y381720D01*
X-556970Y381430D01*
X-556920Y381100D01*
X-556970Y380770D01*
X-557100Y380520D01*
X-557340Y380390D01*
X-557980D01*
G01X-552460Y381640D02*
X-552620Y381770D01*
X-552810Y381850D01*
X-553020D01*
X-553260Y381720D01*
X-553450Y381520D01*
X-553580Y381270D01*
X-553690Y380850D01*
X-553720Y380470D01*
X-553660Y380100D01*
X-553580Y379850D01*
X-553420Y379600D01*
X-553240Y379430D01*
X-553050Y379350D01*
X-552860D01*
X-552680Y379430D01*
X-552520Y379560D01*
X-552380Y379720D01*
G01X-550850Y379350D02*
X-551060Y379390D01*
X-551250Y379560D01*
X-551410Y379810D01*
X-551520Y380100D01*
X-551570Y380430D01*
Y380770D01*
X-551520Y381100D01*
X-551410Y381390D01*
X-551250Y381640D01*
X-551060Y381810D01*
X-550850Y381850D01*
X-550640Y381810D01*
X-550450Y381640D01*
X-550290Y381390D01*
X-550180Y381100D01*
X-550130Y380770D01*
Y380430D01*
X-550180Y380100D01*
X-550290Y379810D01*
X-550450Y379560D01*
X-550640Y379390D01*
X-550850Y379350D01*
G01X-549260D02*
Y381850D01*
X-548040Y379350D01*
Y381850D01*
G01X-547040Y379350D02*
Y381850D01*
X-546500D01*
X-546290Y381720D01*
X-546130Y381560D01*
X-546000Y381310D01*
X-545890Y381020D01*
X-545860Y380600D01*
X-545890Y380180D01*
X-546000Y379890D01*
X-546130Y379640D01*
X-546290Y379470D01*
X-546500Y379350D01*
X-547040D01*
G01X-544840Y381850D02*
Y380060D01*
X-544730Y379680D01*
X-544520Y379430D01*
X-544250Y379350D01*
X-543980Y379430D01*
X-543770Y379680D01*
X-543660Y380060D01*
Y381850D01*
G01X-541460Y381640D02*
X-541620Y381770D01*
X-541810Y381850D01*
X-542020D01*
X-542260Y381720D01*
X-542450Y381520D01*
X-542580Y381270D01*
X-542690Y380850D01*
X-542720Y380470D01*
X-542660Y380100D01*
X-542580Y379850D01*
X-542420Y379600D01*
X-542240Y379430D01*
X-542050Y379350D01*
X-541860D01*
X-541680Y379430D01*
X-541520Y379560D01*
X-541380Y379720D01*
G01X-539850Y381850D02*
Y379350D01*
G01X-540460Y381850D02*
X-539240D01*
G01X-537650Y379350D02*
X-537860Y379390D01*
X-538050Y379560D01*
X-538210Y379810D01*
X-538320Y380100D01*
X-538370Y380430D01*
Y380770D01*
X-538320Y381100D01*
X-538210Y381390D01*
X-538050Y381640D01*
X-537860Y381810D01*
X-537650Y381850D01*
X-537440Y381810D01*
X-537250Y381640D01*
X-537090Y381390D01*
X-536980Y381100D01*
X-536930Y380770D01*
Y380430D01*
X-536980Y380100D01*
X-537090Y379810D01*
X-537250Y379560D01*
X-537440Y379390D01*
X-537650Y379350D01*
G01X-535980D02*
Y381850D01*
X-535320D01*
X-535100Y381720D01*
X-534970Y381560D01*
X-534920Y381220D01*
X-534970Y380890D01*
X-535130Y380680D01*
X-535320Y380560D01*
X-535980D01*
G01X-535320D02*
X-534920Y379350D01*
G01X-531400Y380180D02*
X-530700D01*
G01X-526060Y381640D02*
X-526220Y381770D01*
X-526410Y381850D01*
X-526620D01*
X-526860Y381720D01*
X-527050Y381520D01*
X-527180Y381270D01*
X-527290Y380850D01*
X-527320Y380470D01*
X-527260Y380100D01*
X-527180Y379850D01*
X-527020Y379600D01*
X-526840Y379430D01*
X-526650Y379350D01*
X-526460D01*
X-526280Y379430D01*
X-526120Y379560D01*
X-525980Y379720D01*
G01X-524450Y379350D02*
X-524660Y379390D01*
X-524850Y379560D01*
X-525010Y379810D01*
X-525120Y380100D01*
X-525170Y380430D01*
Y380770D01*
X-525120Y381100D01*
X-525010Y381390D01*
X-524850Y381640D01*
X-524660Y381810D01*
X-524450Y381850D01*
X-524240Y381810D01*
X-524050Y381640D01*
X-523890Y381390D01*
X-523780Y381100D01*
X-523730Y380770D01*
Y380430D01*
X-523780Y380100D01*
X-523890Y379810D01*
X-524050Y379560D01*
X-524240Y379390D01*
X-524450Y379350D01*
G01X-522780D02*
Y381850D01*
X-522140D01*
X-521930Y381720D01*
X-521770Y381430D01*
X-521720Y381100D01*
X-521770Y380770D01*
X-521900Y380520D01*
X-522140Y380390D01*
X-522780D01*
G01X-520580Y379350D02*
Y381850D01*
X-519940D01*
X-519730Y381720D01*
X-519570Y381430D01*
X-519520Y381100D01*
X-519570Y380770D01*
X-519700Y380520D01*
X-519940Y380390D01*
X-520580D01*
G01X-517320Y379350D02*
X-518380D01*
Y381850D01*
X-517320D01*
G01X-517740Y380640D02*
X-518380D01*
G01X-516180Y379350D02*
Y381850D01*
X-515520D01*
X-515300Y381720D01*
X-515170Y381560D01*
X-515120Y381220D01*
X-515170Y380890D01*
X-515330Y380680D01*
X-515520Y380560D01*
X-516180D01*
G01X-515520D02*
X-515120Y379350D01*
G01X-511250D02*
Y381850D01*
X-511570Y381350D01*
G01Y379350D02*
X-510930D01*
G01X-509050Y379270D02*
X-509100Y379310D01*
Y379390D01*
X-509050Y379430D01*
X-509000Y379390D01*
Y379310D01*
X-509050Y379270D01*
G01X-507360Y381430D02*
X-507200Y381680D01*
X-507010Y381810D01*
X-506800Y381850D01*
X-506530Y381770D01*
X-506340Y381560D01*
X-506290Y381310D01*
X-506320Y381060D01*
X-506420Y380850D01*
X-506960Y380430D01*
X-507200Y380140D01*
X-507360Y379720D01*
X-507410Y379350D01*
X-506290D01*
G01X-503140D02*
Y381850D01*
X-502450Y379770D01*
X-501760Y381850D01*
Y379350D01*
G01X-500570Y381850D02*
X-499930D01*
G01X-500250D02*
Y379350D01*
G01X-500570D02*
X-499930D01*
G01X-498580Y381850D02*
Y379350D01*
X-497520D01*
G01X-566840Y360760D02*
X-565660Y362590D01*
G01X-566250Y362920D02*
Y360420D01*
G01X-565660Y360760D02*
X-566840Y362590D01*
G01X-567050Y361670D02*
X-565450D01*
G01X-560240Y360840D02*
Y363340D01*
X-559700D01*
X-559490Y363210D01*
X-559330Y363050D01*
X-559200Y362800D01*
X-559090Y362510D01*
X-559060Y362090D01*
X-559090Y361670D01*
X-559200Y361380D01*
X-559330Y361130D01*
X-559490Y360960D01*
X-559700Y360840D01*
X-560240D01*
G01X-557770Y363340D02*
X-557130D01*
G01X-557450D02*
Y360840D01*
G01X-557770D02*
X-557130D01*
G01X-554720D02*
X-555780D01*
Y363340D01*
X-554720D01*
G01X-555140Y362130D02*
X-555780D01*
G01X-553580Y363340D02*
Y360840D01*
X-552520D01*
G01X-550320D02*
X-551380D01*
Y363340D01*
X-550320D01*
G01X-550740Y362130D02*
X-551380D01*
G01X-548060Y363130D02*
X-548220Y363260D01*
X-548410Y363340D01*
X-548620D01*
X-548860Y363210D01*
X-549050Y363010D01*
X-549180Y362760D01*
X-549290Y362340D01*
X-549320Y361960D01*
X-549260Y361590D01*
X-549180Y361340D01*
X-549020Y361090D01*
X-548840Y360920D01*
X-548650Y360840D01*
X-548460D01*
X-548280Y360920D01*
X-548120Y361050D01*
X-547980Y361210D01*
G01X-546450Y363340D02*
Y360840D01*
G01X-547060Y363340D02*
X-545840D01*
G01X-544780Y360840D02*
Y363340D01*
X-544120D01*
X-543900Y363210D01*
X-543770Y363050D01*
X-543720Y362710D01*
X-543770Y362380D01*
X-543930Y362170D01*
X-544120Y362050D01*
X-544780D01*
G01X-544120D02*
X-543720Y360840D01*
G01X-542370Y363340D02*
X-541730D01*
G01X-542050D02*
Y360840D01*
G01X-542370D02*
X-541730D01*
G01X-539260Y363130D02*
X-539420Y363260D01*
X-539610Y363340D01*
X-539820D01*
X-540060Y363210D01*
X-540250Y363010D01*
X-540380Y362760D01*
X-540490Y362340D01*
X-540520Y361960D01*
X-540460Y361590D01*
X-540380Y361340D01*
X-540220Y361090D01*
X-540040Y360920D01*
X-539850Y360840D01*
X-539660D01*
X-539480Y360920D01*
X-539320Y361050D01*
X-539180Y361210D01*
G01X-535800Y361670D02*
X-535100D01*
G01X-531560Y360840D02*
Y363340D01*
X-530540D01*
G01X-530920Y362130D02*
X-531560D01*
G01X-529380Y360840D02*
Y363340D01*
X-528720D01*
X-528500Y363210D01*
X-528370Y363050D01*
X-528320Y362710D01*
X-528370Y362380D01*
X-528530Y362170D01*
X-528720Y362050D01*
X-529380D01*
G01X-528720D02*
X-528320Y360840D01*
G01X-527000Y361670D02*
X-526300D01*
G01X-524130Y360840D02*
Y363340D01*
X-525120Y361550D01*
X-523780D01*
G01X-520050Y360840D02*
X-519860Y360880D01*
X-519650Y361010D01*
X-519520Y361210D01*
X-519460Y361510D01*
X-519520Y361800D01*
X-519680Y362050D01*
X-519920Y362170D01*
X-520180D01*
X-520340Y362260D01*
X-520480Y362460D01*
X-520530Y362760D01*
X-520450Y363050D01*
X-520260Y363260D01*
X-520050Y363340D01*
X-519840Y363260D01*
X-519650Y363050D01*
X-519570Y362760D01*
X-519620Y362460D01*
X-519760Y362260D01*
X-519920Y362170D01*
X-520180D01*
X-520420Y362050D01*
X-520580Y361800D01*
X-520640Y361510D01*
X-520580Y361210D01*
X-520450Y361010D01*
X-520240Y360880D01*
X-520050Y360840D01*
G01X-516340D02*
Y363340D01*
X-515650Y361260D01*
X-514960Y363340D01*
Y360840D01*
G01X-513770Y363340D02*
X-513130D01*
G01X-513450D02*
Y360840D01*
G01X-513770D02*
X-513130D01*
G01X-511780Y363340D02*
Y360840D01*
X-510720D01*
G01X-460000Y-480000D02*
G03I-15000J5000D01*
G01X-465000D02*
G03I-10000J5000D01*
G01X-495000Y-475000D02*
X-455000D01*
G01X-485000Y500000D02*
Y460000D01*
G01X-470000Y475000D02*
G03I-15000J5000D01*
G01X-475000D02*
G03I-10000J5000D01*
G01X-505000Y480000D02*
X-465000D01*
G01X-475000Y-455000D02*
Y-495000D01*
G01X-450000Y-450000D02*
X450000D01*
Y450000D01*
X325000D01*
X320000Y445000D01*
Y370000D01*
X-320000D01*
Y445000D01*
X-325000Y450000D01*
X-450000D01*
Y-450000D01*
G01Y460000D02*
Y590000D01*
G01X-12620Y580000D02*
X-450000D01*
G01X-435000Y582500D02*
X-450000Y580000D01*
X-435000Y577500D01*
Y582500D01*
G01X-376500Y-400000D02*
G03I-23500J0D01*
G01Y399930D02*
G03I-23500J2D01*
G01X275000Y0D02*
G03I-275000J0D01*
G01X0Y-9000D02*
Y9000D01*
G01Y-9000D02*
Y9000D01*
G01X-9000Y0D02*
X9000D01*
G01X-9000D02*
X9000D01*
G01X-1240Y575210D02*
X-150Y574170D01*
X1090Y573750D01*
X2330Y574170D01*
X3410Y575420D01*
X4190Y577290D01*
X4500Y579170D01*
Y581460D01*
X4190Y583330D01*
X3410Y585000D01*
X2480Y585830D01*
X1400Y586250D01*
X160Y585830D01*
X-770Y585000D01*
X-1390Y583750D01*
X-1700Y582080D01*
X-1390Y580630D01*
X-610Y579170D01*
X320Y578330D01*
X1400Y578120D01*
X2640Y578540D01*
X3570Y579580D01*
X4500Y581460D01*
G01X13800Y573330D02*
X13490Y573540D01*
Y573960D01*
X13800Y574170D01*
X14110Y573960D01*
Y573540D01*
X13800Y573330D01*
G01X26200Y586250D02*
X24960Y585830D01*
X24030Y584790D01*
X23410Y583540D01*
X22940Y581870D01*
X22790Y580000D01*
X22940Y578120D01*
X23410Y576460D01*
X24030Y575210D01*
X24960Y574170D01*
X26200Y573750D01*
X27440Y574170D01*
X28370Y575210D01*
X28990Y576460D01*
X29460Y578120D01*
X29610Y580000D01*
X29460Y581870D01*
X28990Y583540D01*
X28370Y584790D01*
X27440Y585830D01*
X26200Y586250D01*
G01X38600D02*
X37360Y585830D01*
X36430Y584790D01*
X35810Y583540D01*
X35340Y581870D01*
X35190Y580000D01*
X35340Y578120D01*
X35810Y576460D01*
X36430Y575210D01*
X37360Y574170D01*
X38600Y573750D01*
X39840Y574170D01*
X40770Y575210D01*
X41390Y576460D01*
X41860Y578120D01*
X42010Y580000D01*
X41860Y581870D01*
X41390Y583540D01*
X40770Y584790D01*
X39840Y585830D01*
X38600Y586250D01*
G01X52620Y580000D02*
X450000D01*
G01X82790Y277090D02*
X83820Y261910D01*
X87770Y276600D01*
X82790Y277090D01*
G01X83820Y261910D02*
X108470Y514380D01*
G01X82100Y523750D02*
Y536250D01*
X85970D01*
X87210Y535620D01*
X87990Y534790D01*
X88300Y533120D01*
X87990Y531460D01*
X87060Y530420D01*
X85970Y529790D01*
X82100D01*
G01X85970D02*
X88300Y523750D01*
G01X94650Y534170D02*
X95590Y535420D01*
X96670Y536040D01*
X97910Y536250D01*
X99460Y535830D01*
X100550Y534790D01*
X100860Y533540D01*
X100700Y532290D01*
X100080Y531250D01*
X96980Y529170D01*
X95590Y527710D01*
X94650Y525620D01*
X94340Y523750D01*
X100860D01*
G01X110000Y523330D02*
X109690Y523540D01*
Y523960D01*
X110000Y524170D01*
X110310Y523960D01*
Y523540D01*
X110000Y523330D01*
G01X122090Y523750D02*
X122400Y526460D01*
X122870Y528750D01*
X123480Y530830D01*
X124260Y533120D01*
X125500Y536250D01*
X119300D01*
G01X131390Y525620D02*
X132320Y524580D01*
X133400Y523960D01*
X134800Y523750D01*
X136200Y524170D01*
X137280Y525000D01*
X138060Y526460D01*
X138210Y528120D01*
X137900Y529790D01*
X137120Y530830D01*
X136040Y531670D01*
X134960Y531870D01*
X133870Y531670D01*
X132480Y530830D01*
X132940Y536250D01*
X137120D01*
G01X423500Y-400000D02*
G03I-23500J0D01*
G01Y399930D02*
G03I-23500J2D01*
G01X450000Y460000D02*
Y590000D01*
G01X435000Y577500D02*
X450000Y580000D01*
X435000Y582500D01*
Y577500D01*
G01X480000Y-450000D02*
Y-490000D01*
G01X495000Y-475000D02*
G03I-15000J5000D01*
G01X460000Y-470000D02*
X500000D01*
G01X490000Y-475000D02*
G03I-10000J5000D01*
G01X460000Y-450000D02*
X560000D01*
G01X490000Y455000D02*
G03I-15000J5000D01*
G01X475000Y480000D02*
Y440000D01*
G01X485000Y455000D02*
G03I-10000J5000D01*
G01X455000Y460000D02*
X495000D01*
G01X460000Y450000D02*
X560000D01*
G01X528760Y-34790D02*
X529850Y-35830D01*
X531090Y-36250D01*
X532330Y-35830D01*
X533410Y-34580D01*
X534190Y-32710D01*
X534500Y-30830D01*
Y-28540D01*
X534190Y-26670D01*
X533410Y-25000D01*
X532480Y-24170D01*
X531400Y-23750D01*
X530160Y-24170D01*
X529230Y-25000D01*
X528610Y-26250D01*
X528300Y-27920D01*
X528610Y-29370D01*
X529390Y-30830D01*
X530320Y-31670D01*
X531400Y-31880D01*
X532640Y-31460D01*
X533570Y-30420D01*
X534500Y-28540D01*
G01X543800Y-36670D02*
X543490Y-36460D01*
Y-36040D01*
X543800Y-35830D01*
X544110Y-36040D01*
Y-36460D01*
X543800Y-36670D01*
G01X556200Y-23750D02*
X554960Y-24170D01*
X554030Y-25210D01*
X553410Y-26460D01*
X552940Y-28130D01*
X552790Y-30000D01*
X552940Y-31880D01*
X553410Y-33540D01*
X554030Y-34790D01*
X554960Y-35830D01*
X556200Y-36250D01*
X557440Y-35830D01*
X558370Y-34790D01*
X558990Y-33540D01*
X559460Y-31880D01*
X559610Y-30000D01*
X559460Y-28130D01*
X558990Y-26460D01*
X558370Y-25210D01*
X557440Y-24170D01*
X556200Y-23750D01*
G01X568600D02*
X567360Y-24170D01*
X566430Y-25210D01*
X565810Y-26460D01*
X565340Y-28130D01*
X565190Y-30000D01*
X565340Y-31880D01*
X565810Y-33540D01*
X566430Y-34790D01*
X567360Y-35830D01*
X568600Y-36250D01*
X569840Y-35830D01*
X570770Y-34790D01*
X571390Y-33540D01*
X571860Y-31880D01*
X572010Y-30000D01*
X571860Y-28130D01*
X571390Y-26460D01*
X570770Y-25210D01*
X569840Y-24170D01*
X568600Y-23750D01*
G01X550000Y-45620D02*
Y-450000D01*
G01X547500Y-435000D02*
X550000Y-450000D01*
X552500Y-435000D01*
X547500D01*
G01X550000Y-14380D02*
Y450000D01*
G01X552500Y435000D02*
X550000Y450000D01*
X547500Y435000D01*
X552500D01*
G01X592100Y-83800D02*
Y166000D01*
X1075700D01*
Y-83800D01*
X592100D01*
G01Y-55700D02*
X1075700D01*
G01X592100Y-27600D02*
X1075700D01*
G01X592100Y500D02*
X1075700D01*
G01X592100Y56700D02*
X1075700D01*
G01X592100Y28600D02*
X1075700D01*
G01X592100Y84800D02*
X1075700D01*
G01X592100Y112900D02*
X1075700D01*
G01X592100Y141000D02*
X1075700D01*
G01X603100Y94150D02*
Y106650D01*
X609000D01*
G01X606820Y100610D02*
X603100D01*
G01X616590Y106650D02*
X620310D01*
G01X618450D02*
Y94150D01*
G01X616590D02*
X620310D01*
G01X631780Y100400D02*
X634880D01*
Y96650D01*
X633950Y95400D01*
X632860Y94570D01*
X631320Y94150D01*
X629770Y94570D01*
X628680Y95400D01*
X627750Y96650D01*
X627130Y98110D01*
X626820Y99770D01*
Y101230D01*
X627130Y102480D01*
X627750Y103940D01*
X628680Y105190D01*
X629610Y106020D01*
X630850Y106650D01*
X631930D01*
X633170Y106230D01*
X634110Y105400D01*
G01X639840Y106650D02*
Y97690D01*
X640460Y95820D01*
X641700Y94570D01*
X643250Y94150D01*
X644800Y94570D01*
X646040Y95820D01*
X646660Y97690D01*
Y106650D01*
G01X652550Y94150D02*
Y106650D01*
X656420D01*
X657660Y106020D01*
X658440Y105190D01*
X658750Y103520D01*
X658440Y101860D01*
X657510Y100820D01*
X656420Y100190D01*
X652550D01*
G01X656420D02*
X658750Y94150D01*
G01X671150D02*
X664950D01*
Y106650D01*
X671150D01*
G01X668670Y100610D02*
X664950D01*
G01X682000Y112900D02*
Y-83800D01*
G01X675490Y147250D02*
Y159750D01*
X678590D01*
X679830Y159120D01*
X680760Y158290D01*
X681540Y157040D01*
X682160Y155580D01*
X682310Y153500D01*
X682160Y151420D01*
X681540Y149960D01*
X680760Y148710D01*
X679830Y147870D01*
X678590Y147250D01*
X675490D01*
G01X688200D02*
Y159750D01*
X692070D01*
X693310Y159120D01*
X694090Y158290D01*
X694400Y156620D01*
X694090Y154960D01*
X693160Y153920D01*
X692070Y153290D01*
X688200D01*
G01X692070D02*
X694400Y147250D01*
G01X701840Y159750D02*
X705560D01*
G01X703700D02*
Y147250D01*
G01X701840D02*
X705560D01*
G01X713000Y159750D02*
Y147250D01*
X719200D01*
G01X725400Y159750D02*
Y147250D01*
X731600D01*
G01X756710Y158710D02*
X755780Y159330D01*
X754700Y159750D01*
X753460D01*
X752060Y159120D01*
X750980Y158080D01*
X750200Y156830D01*
X749580Y154750D01*
X749420Y152870D01*
X749740Y151000D01*
X750200Y149750D01*
X751130Y148500D01*
X752220Y147670D01*
X753300Y147250D01*
X754380D01*
X755470Y147670D01*
X756400Y148290D01*
X757180Y149120D01*
G01X762440Y147250D02*
Y159750D01*
G01X768960D02*
Y147250D01*
G01Y153500D02*
X762440D01*
G01X774220Y147250D02*
X778100Y159750D01*
X781980Y147250D01*
G01X780580Y151620D02*
X775620D01*
G01X787400Y147250D02*
Y159750D01*
X791270D01*
X792510Y159120D01*
X793290Y158290D01*
X793600Y156620D01*
X793290Y154960D01*
X792360Y153920D01*
X791270Y153290D01*
X787400D01*
G01X791270D02*
X793600Y147250D01*
G01X802900Y159750D02*
Y147250D01*
G01X799340Y159750D02*
X806460D01*
G01X815300Y146830D02*
X814990Y147040D01*
Y147460D01*
X815300Y147670D01*
X815610Y147460D01*
Y147040D01*
X815300Y146830D01*
G01Y152460D02*
X814990Y152670D01*
Y153080D01*
X815300Y153290D01*
X815610Y153080D01*
Y152670D01*
X815300Y152460D01*
G01X840100Y159750D02*
Y147250D01*
G01X836540Y159750D02*
X843660D01*
G01X852500Y147250D02*
X851260Y147460D01*
X850180Y148290D01*
X849240Y149540D01*
X848620Y151000D01*
X848310Y152670D01*
Y154330D01*
X848620Y156000D01*
X849240Y157460D01*
X850180Y158710D01*
X851260Y159540D01*
X852500Y159750D01*
X853740Y159540D01*
X854820Y158710D01*
X855760Y157460D01*
X856380Y156000D01*
X856690Y154330D01*
Y152670D01*
X856380Y151000D01*
X855760Y149540D01*
X854820Y148290D01*
X853740Y147460D01*
X852500Y147250D01*
G01X861800D02*
Y159750D01*
X865520D01*
X866760Y159120D01*
X867690Y157670D01*
X868000Y156000D01*
X867690Y154330D01*
X866910Y153080D01*
X865520Y152460D01*
X861800D01*
G01X889700Y159750D02*
Y147250D01*
G01X887530Y155580D02*
X891870D01*
G01X902100Y147250D02*
X901170Y147460D01*
X900240Y148290D01*
X899620Y149750D01*
X899310Y151420D01*
X899620Y153080D01*
X900240Y154540D01*
X901170Y155370D01*
X902100Y155580D01*
X903030Y155370D01*
X903960Y154540D01*
X904580Y153080D01*
X904740Y151420D01*
X904580Y149750D01*
X903960Y148290D01*
X903030Y147460D01*
X902100Y147250D01*
G01X928140Y153920D02*
X928760Y154540D01*
X929220Y155580D01*
X929540Y157040D01*
X929220Y158290D01*
X928610Y159120D01*
X927520Y159750D01*
X923340D01*
Y147250D01*
X928450D01*
X929540Y148080D01*
X930160Y149330D01*
X930460Y150790D01*
X930160Y152250D01*
X929220Y153500D01*
X928140Y153920D01*
X923340D01*
G01X939300Y147250D02*
X938060Y147460D01*
X936980Y148290D01*
X936040Y149540D01*
X935420Y151000D01*
X935110Y152670D01*
Y154330D01*
X935420Y156000D01*
X936040Y157460D01*
X936980Y158710D01*
X938060Y159540D01*
X939300Y159750D01*
X940540Y159540D01*
X941620Y158710D01*
X942560Y157460D01*
X943180Y156000D01*
X943490Y154330D01*
Y152670D01*
X943180Y151000D01*
X942560Y149540D01*
X941620Y148290D01*
X940540Y147460D01*
X939300Y147250D01*
G01X951700Y159750D02*
Y147250D01*
G01X948140Y159750D02*
X955260D01*
G01X964100D02*
Y147250D01*
G01X960540Y159750D02*
X967660D01*
G01X976500Y147250D02*
X975260Y147460D01*
X974180Y148290D01*
X973240Y149540D01*
X972620Y151000D01*
X972310Y152670D01*
Y154330D01*
X972620Y156000D01*
X973240Y157460D01*
X974180Y158710D01*
X975260Y159540D01*
X976500Y159750D01*
X977740Y159540D01*
X978820Y158710D01*
X979760Y157460D01*
X980380Y156000D01*
X980690Y154330D01*
Y152670D01*
X980380Y151000D01*
X979760Y149540D01*
X978820Y148290D01*
X977740Y147460D01*
X976500Y147250D01*
G01X984870D02*
Y159750D01*
X988900Y149330D01*
X992930Y159750D01*
Y147250D01*
G01X720750Y-76000D02*
Y-63500D01*
X718890Y-66000D01*
G01Y-76000D02*
X722610D01*
G01X730200Y-65580D02*
X731140Y-64330D01*
X732220Y-63710D01*
X733460Y-63500D01*
X735010Y-63920D01*
X736100Y-64960D01*
X736410Y-66210D01*
X736250Y-67460D01*
X735630Y-68500D01*
X732530Y-70580D01*
X731140Y-72040D01*
X730200Y-74130D01*
X729890Y-76000D01*
X736410D01*
G01X745550Y-63500D02*
X744310Y-63920D01*
X743380Y-64960D01*
X742760Y-66210D01*
X742290Y-67880D01*
X742140Y-69750D01*
X742290Y-71630D01*
X742760Y-73290D01*
X743380Y-74540D01*
X744310Y-75580D01*
X745550Y-76000D01*
X746790Y-75580D01*
X747720Y-74540D01*
X748340Y-73290D01*
X748810Y-71630D01*
X748960Y-69750D01*
X748810Y-67880D01*
X748340Y-66210D01*
X747720Y-64960D01*
X746790Y-63920D01*
X745550Y-63500D01*
G01X757950Y-76420D02*
X757640Y-76210D01*
Y-75790D01*
X757950Y-75580D01*
X758260Y-75790D01*
Y-76210D01*
X757950Y-76420D01*
G01X770350Y-76000D02*
Y-63500D01*
X768490Y-66000D01*
G01Y-76000D02*
X772210D01*
G01X780430Y-67670D02*
X785070Y-76000D01*
G01Y-67670D02*
X780430Y-76000D01*
G01X792200Y-65580D02*
X793140Y-64330D01*
X794220Y-63710D01*
X795460Y-63500D01*
X797010Y-63920D01*
X798100Y-64960D01*
X798410Y-66210D01*
X798250Y-67460D01*
X797630Y-68500D01*
X794530Y-70580D01*
X793140Y-72040D01*
X792200Y-74130D01*
X791890Y-76000D01*
X798410D01*
G01X804910Y-74540D02*
X806000Y-75580D01*
X807240Y-76000D01*
X808480Y-75580D01*
X809560Y-74330D01*
X810340Y-72460D01*
X810650Y-70580D01*
Y-68290D01*
X810340Y-66420D01*
X809560Y-64750D01*
X808630Y-63920D01*
X807550Y-63500D01*
X806310Y-63920D01*
X805380Y-64750D01*
X804760Y-66000D01*
X804450Y-67670D01*
X804760Y-69120D01*
X805540Y-70580D01*
X806470Y-71420D01*
X807550Y-71630D01*
X808790Y-71210D01*
X809720Y-70170D01*
X810650Y-68290D01*
G01X819950Y-76420D02*
X819640Y-76210D01*
Y-75790D01*
X819950Y-75580D01*
X820260Y-75790D01*
Y-76210D01*
X819950Y-76420D01*
G01X829710Y-74540D02*
X830800Y-75580D01*
X832040Y-76000D01*
X833280Y-75580D01*
X834360Y-74330D01*
X835140Y-72460D01*
X835450Y-70580D01*
Y-68290D01*
X835140Y-66420D01*
X834360Y-64750D01*
X833430Y-63920D01*
X832350Y-63500D01*
X831110Y-63920D01*
X830180Y-64750D01*
X829560Y-66000D01*
X829250Y-67670D01*
X829560Y-69120D01*
X830340Y-70580D01*
X831270Y-71420D01*
X832350Y-71630D01*
X833590Y-71210D01*
X834520Y-70170D01*
X835450Y-68290D01*
G01X720750Y-47900D02*
Y-35400D01*
X718890Y-37900D01*
G01Y-47900D02*
X722610D01*
G01X730200Y-37480D02*
X731140Y-36230D01*
X732220Y-35610D01*
X733460Y-35400D01*
X735010Y-35820D01*
X736100Y-36860D01*
X736410Y-38110D01*
X736250Y-39360D01*
X735630Y-40400D01*
X732530Y-42480D01*
X731140Y-43940D01*
X730200Y-46030D01*
X729890Y-47900D01*
X736410D01*
G01X745550Y-35400D02*
X744310Y-35820D01*
X743380Y-36860D01*
X742760Y-38110D01*
X742290Y-39780D01*
X742140Y-41650D01*
X742290Y-43530D01*
X742760Y-45190D01*
X743380Y-46440D01*
X744310Y-47480D01*
X745550Y-47900D01*
X746790Y-47480D01*
X747720Y-46440D01*
X748340Y-45190D01*
X748810Y-43530D01*
X748960Y-41650D01*
X748810Y-39780D01*
X748340Y-38110D01*
X747720Y-36860D01*
X746790Y-35820D01*
X745550Y-35400D01*
G01X757950Y-48320D02*
X757640Y-48110D01*
Y-47690D01*
X757950Y-47480D01*
X758260Y-47690D01*
Y-48110D01*
X757950Y-48320D01*
G01X770350Y-47900D02*
Y-35400D01*
X768490Y-37900D01*
G01Y-47900D02*
X772210D01*
G01X780430Y-39570D02*
X785070Y-47900D01*
G01Y-39570D02*
X780430Y-47900D01*
G01X792200Y-37480D02*
X793140Y-36230D01*
X794220Y-35610D01*
X795460Y-35400D01*
X797010Y-35820D01*
X798100Y-36860D01*
X798410Y-38110D01*
X798250Y-39360D01*
X797630Y-40400D01*
X794530Y-42480D01*
X793140Y-43940D01*
X792200Y-46030D01*
X791890Y-47900D01*
X798410D01*
G01X804910Y-46440D02*
X806000Y-47480D01*
X807240Y-47900D01*
X808480Y-47480D01*
X809560Y-46230D01*
X810340Y-44360D01*
X810650Y-42480D01*
Y-40190D01*
X810340Y-38320D01*
X809560Y-36650D01*
X808630Y-35820D01*
X807550Y-35400D01*
X806310Y-35820D01*
X805380Y-36650D01*
X804760Y-37900D01*
X804450Y-39570D01*
X804760Y-41020D01*
X805540Y-42480D01*
X806470Y-43320D01*
X807550Y-43530D01*
X808790Y-43110D01*
X809720Y-42070D01*
X810650Y-40190D01*
G01X819950Y-48320D02*
X819640Y-48110D01*
Y-47690D01*
X819950Y-47480D01*
X820260Y-47690D01*
Y-48110D01*
X819950Y-48320D01*
G01X829710Y-46440D02*
X830800Y-47480D01*
X832040Y-47900D01*
X833280Y-47480D01*
X834360Y-46230D01*
X835140Y-44360D01*
X835450Y-42480D01*
Y-40190D01*
X835140Y-38320D01*
X834360Y-36650D01*
X833430Y-35820D01*
X832350Y-35400D01*
X831110Y-35820D01*
X830180Y-36650D01*
X829560Y-37900D01*
X829250Y-39570D01*
X829560Y-41020D01*
X830340Y-42480D01*
X831270Y-43320D01*
X832350Y-43530D01*
X833590Y-43110D01*
X834520Y-42070D01*
X835450Y-40190D01*
G01X706020Y122250D02*
X709900Y134750D01*
X713780Y122250D01*
G01X712380Y126620D02*
X707420D01*
G01X719200Y134750D02*
Y122250D01*
X725400D01*
G01X731600Y134750D02*
Y122250D01*
X737800D01*
G01X756090Y134750D02*
Y125790D01*
X756710Y123920D01*
X757950Y122670D01*
X759500Y122250D01*
X761050Y122670D01*
X762290Y123920D01*
X762910Y125790D01*
Y134750D01*
G01X768340Y122250D02*
Y134750D01*
X775460Y122250D01*
Y134750D01*
G01X782440D02*
X786160D01*
G01X784300D02*
Y122250D01*
G01X782440D02*
X786160D01*
G01X796700Y134750D02*
Y122250D01*
G01X793140Y134750D02*
X800260D01*
G01X805840Y123920D02*
X807090Y122870D01*
X808480Y122250D01*
X809720D01*
X810960Y122870D01*
X811890Y123920D01*
X812360Y125380D01*
X812050Y126830D01*
X811270Y128080D01*
X809870Y128920D01*
X808020Y129330D01*
X806930Y130170D01*
X806460Y131620D01*
X806780Y133080D01*
X807550Y134120D01*
X808630Y134750D01*
X809720D01*
X810810Y134330D01*
X811740Y133290D01*
G01X830020Y122250D02*
X833900Y134750D01*
X837780Y122250D01*
G01X836380Y126620D02*
X831420D01*
G01X843200Y122250D02*
Y134750D01*
X847070D01*
X848310Y134120D01*
X849090Y133290D01*
X849400Y131620D01*
X849090Y129960D01*
X848160Y128920D01*
X847070Y128290D01*
X843200D01*
G01X847070D02*
X849400Y122250D01*
G01X861800D02*
X855600D01*
Y134750D01*
X861800D01*
G01X859320Y128710D02*
X855600D01*
G01X881640Y134750D02*
X885360D01*
G01X883500D02*
Y122250D01*
G01X881640D02*
X885360D01*
G01X892340D02*
Y134750D01*
X899460Y122250D01*
Y134750D01*
G01X916670Y122250D02*
Y134750D01*
X920700Y124330D01*
X924730Y134750D01*
Y122250D01*
G01X931240Y134750D02*
X934960D01*
G01X933100D02*
Y122250D01*
G01X931240D02*
X934960D01*
G01X942400Y134750D02*
Y122250D01*
X948600D01*
G01X954640Y123920D02*
X955890Y122870D01*
X957280Y122250D01*
X958520D01*
X959760Y122870D01*
X960690Y123920D01*
X961160Y125380D01*
X960850Y126830D01*
X960070Y128080D01*
X958670Y128920D01*
X956820Y129330D01*
X955730Y130170D01*
X955260Y131620D01*
X955580Y133080D01*
X956350Y134120D01*
X957430Y134750D01*
X958520D01*
X959610Y134330D01*
X960540Y133290D01*
G01X742140Y-17930D02*
X743070Y-18970D01*
X744150Y-19590D01*
X745550Y-19800D01*
X746950Y-19380D01*
X748030Y-18550D01*
X748810Y-17090D01*
X748960Y-15430D01*
X748650Y-13760D01*
X747870Y-12720D01*
X746790Y-11880D01*
X745710Y-11680D01*
X744620Y-11880D01*
X743230Y-12720D01*
X743690Y-7300D01*
X747870D01*
G01X754540Y-17930D02*
X755470Y-18970D01*
X756550Y-19590D01*
X757950Y-19800D01*
X759350Y-19380D01*
X760430Y-18550D01*
X761210Y-17090D01*
X761360Y-15430D01*
X761050Y-13760D01*
X760270Y-12720D01*
X759190Y-11880D01*
X758110Y-11680D01*
X757020Y-11880D01*
X755630Y-12720D01*
X756090Y-7300D01*
X760270D01*
G01X770350D02*
X769110Y-7720D01*
X768180Y-8760D01*
X767560Y-10010D01*
X767090Y-11680D01*
X766940Y-13550D01*
X767090Y-15430D01*
X767560Y-17090D01*
X768180Y-18340D01*
X769110Y-19380D01*
X770350Y-19800D01*
X771590Y-19380D01*
X772520Y-18340D01*
X773140Y-17090D01*
X773610Y-15430D01*
X773760Y-13550D01*
X773610Y-11680D01*
X773140Y-10010D01*
X772520Y-8760D01*
X771590Y-7720D01*
X770350Y-7300D01*
G01X782750D02*
X781510Y-7720D01*
X780580Y-8760D01*
X779960Y-10010D01*
X779490Y-11680D01*
X779340Y-13550D01*
X779490Y-15430D01*
X779960Y-17090D01*
X780580Y-18340D01*
X781510Y-19380D01*
X782750Y-19800D01*
X783990Y-19380D01*
X784920Y-18340D01*
X785540Y-17090D01*
X786010Y-15430D01*
X786160Y-13550D01*
X786010Y-11680D01*
X785540Y-10010D01*
X784920Y-8760D01*
X783990Y-7720D01*
X782750Y-7300D01*
G01X795150Y-20220D02*
X794840Y-20010D01*
Y-19590D01*
X795150Y-19380D01*
X795460Y-19590D01*
Y-20010D01*
X795150Y-20220D01*
G01X807550Y-7300D02*
X806310Y-7720D01*
X805380Y-8760D01*
X804760Y-10010D01*
X804290Y-11680D01*
X804140Y-13550D01*
X804290Y-15430D01*
X804760Y-17090D01*
X805380Y-18340D01*
X806310Y-19380D01*
X807550Y-19800D01*
X808790Y-19380D01*
X809720Y-18340D01*
X810340Y-17090D01*
X810810Y-15430D01*
X810960Y-13550D01*
X810810Y-11680D01*
X810340Y-10010D01*
X809720Y-8760D01*
X808790Y-7720D01*
X807550Y-7300D01*
G01X751750Y8300D02*
Y20800D01*
X749890Y18300D01*
G01Y8300D02*
X753610D01*
G01X761200Y13510D02*
X762290Y14970D01*
X763220Y15800D01*
X764460Y16220D01*
X765550Y15800D01*
X766320Y14970D01*
X766940Y13720D01*
X767100Y12260D01*
X766940Y11010D01*
X766320Y9760D01*
X765390Y8720D01*
X764310Y8300D01*
X763070Y8720D01*
X761980Y9970D01*
X761360Y11840D01*
X761200Y13920D01*
X761510Y16630D01*
X761980Y18090D01*
X762750Y19550D01*
X763840Y20590D01*
X764920Y20800D01*
X766010Y20380D01*
X766790Y19340D01*
G01X773910Y9760D02*
X775000Y8720D01*
X776240Y8300D01*
X777480Y8720D01*
X778560Y9970D01*
X779340Y11840D01*
X779650Y13720D01*
Y16010D01*
X779340Y17880D01*
X778560Y19550D01*
X777630Y20380D01*
X776550Y20800D01*
X775310Y20380D01*
X774380Y19550D01*
X773760Y18300D01*
X773450Y16630D01*
X773760Y15180D01*
X774540Y13720D01*
X775470Y12880D01*
X776550Y12670D01*
X777790Y13090D01*
X778720Y14130D01*
X779650Y16010D01*
G01X788950Y7880D02*
X788640Y8090D01*
Y8510D01*
X788950Y8720D01*
X789260Y8510D01*
Y8090D01*
X788950Y7880D01*
G01X797940Y10170D02*
X798870Y9130D01*
X799950Y8510D01*
X801350Y8300D01*
X802750Y8720D01*
X803830Y9550D01*
X804610Y11010D01*
X804760Y12670D01*
X804450Y14340D01*
X803670Y15380D01*
X802590Y16220D01*
X801510Y16420D01*
X800420Y16220D01*
X799030Y15380D01*
X799490Y20800D01*
X803670D01*
G01X759810Y36400D02*
Y48900D01*
X754070Y39940D01*
X761830D01*
G01X770350Y48900D02*
X769110Y48480D01*
X768180Y47440D01*
X767560Y46190D01*
X767090Y44520D01*
X766940Y42650D01*
X767090Y40770D01*
X767560Y39110D01*
X768180Y37860D01*
X769110Y36820D01*
X770350Y36400D01*
X771590Y36820D01*
X772520Y37860D01*
X773140Y39110D01*
X773610Y40770D01*
X773760Y42650D01*
X773610Y44520D01*
X773140Y46190D01*
X772520Y47440D01*
X771590Y48480D01*
X770350Y48900D01*
G01X782750Y35980D02*
X782440Y36190D01*
Y36610D01*
X782750Y36820D01*
X783060Y36610D01*
Y36190D01*
X782750Y35980D01*
G01X795150Y48900D02*
X793910Y48480D01*
X792980Y47440D01*
X792360Y46190D01*
X791890Y44520D01*
X791740Y42650D01*
X791890Y40770D01*
X792360Y39110D01*
X792980Y37860D01*
X793910Y36820D01*
X795150Y36400D01*
X796390Y36820D01*
X797320Y37860D01*
X797940Y39110D01*
X798410Y40770D01*
X798560Y42650D01*
X798410Y44520D01*
X797940Y46190D01*
X797320Y47440D01*
X796390Y48480D01*
X795150Y48900D01*
G01X757950Y64500D02*
Y77000D01*
X756090Y74500D01*
G01Y64500D02*
X759810D01*
G01X766940Y67000D02*
X767870Y65540D01*
X769110Y64710D01*
X770510Y64500D01*
X771750Y64710D01*
X772990Y65750D01*
X773760Y67000D01*
X773910Y68250D01*
X773610Y69710D01*
X772520Y70750D01*
X771430Y71170D01*
X770040D01*
G01X771430D02*
X772360Y71790D01*
X773140Y72830D01*
X773450Y74080D01*
X773140Y75330D01*
X772360Y76370D01*
X770970Y77000D01*
X769580Y76790D01*
X768180Y75960D01*
G01X782750Y64080D02*
X782440Y64290D01*
Y64710D01*
X782750Y64920D01*
X783060Y64710D01*
Y64290D01*
X782750Y64080D01*
G01X795150Y77000D02*
X793910Y76580D01*
X792980Y75540D01*
X792360Y74290D01*
X791890Y72620D01*
X791740Y70750D01*
X791890Y68870D01*
X792360Y67210D01*
X792980Y65960D01*
X793910Y64920D01*
X795150Y64500D01*
X796390Y64920D01*
X797320Y65960D01*
X797940Y67210D01*
X798410Y68870D01*
X798560Y70750D01*
X798410Y72620D01*
X797940Y74290D01*
X797320Y75540D01*
X796390Y76580D01*
X795150Y77000D01*
G01X754690Y95820D02*
X755940Y94770D01*
X757330Y94150D01*
X758570D01*
X759810Y94770D01*
X760740Y95820D01*
X761210Y97280D01*
X760900Y98730D01*
X760120Y99980D01*
X758720Y100820D01*
X756870Y101230D01*
X755780Y102070D01*
X755310Y103520D01*
X755630Y104980D01*
X756400Y106020D01*
X757480Y106650D01*
X758570D01*
X759660Y106230D01*
X760590Y105190D01*
G01X768490Y106650D02*
X772210D01*
G01X770350D02*
Y94150D01*
G01X768490D02*
X772210D01*
G01X779800Y106650D02*
X785700D01*
X779800Y94150D01*
X785700D01*
G01X798250D02*
X792050D01*
Y106650D01*
X798250D01*
G01X795770Y100610D02*
X792050D01*
G01X900550Y-76000D02*
Y-63500D01*
X904270D01*
X905510Y-64130D01*
X906440Y-65580D01*
X906750Y-67250D01*
X906440Y-68920D01*
X905660Y-70170D01*
X904270Y-70790D01*
X900550D01*
G01X912950Y-63500D02*
Y-76000D01*
X919150D01*
G01X924570D02*
X928450Y-63500D01*
X932330Y-76000D01*
G01X930930Y-71630D02*
X925970D01*
G01X940850Y-63500D02*
Y-76000D01*
G01X937290Y-63500D02*
X944410D01*
G01X956350Y-76000D02*
X950150D01*
Y-63500D01*
X956350D01*
G01X953870Y-69540D02*
X950150D01*
G01X962240Y-76000D02*
Y-63500D01*
X965340D01*
X966580Y-64130D01*
X967510Y-64960D01*
X968290Y-66210D01*
X968910Y-67670D01*
X969060Y-69750D01*
X968910Y-71830D01*
X968290Y-73290D01*
X967510Y-74540D01*
X966580Y-75380D01*
X965340Y-76000D01*
X962240D01*
G01X871100Y112900D02*
Y-83800D01*
G01X900550Y-47900D02*
Y-35400D01*
X904270D01*
X905510Y-36030D01*
X906440Y-37480D01*
X906750Y-39150D01*
X906440Y-40820D01*
X905660Y-42070D01*
X904270Y-42690D01*
X900550D01*
G01X912950Y-35400D02*
Y-47900D01*
X919150D01*
G01X924570D02*
X928450Y-35400D01*
X932330Y-47900D01*
G01X930930Y-43530D02*
X925970D01*
G01X940850Y-35400D02*
Y-47900D01*
G01X937290Y-35400D02*
X944410D01*
G01X956350Y-47900D02*
X950150D01*
Y-35400D01*
X956350D01*
G01X953870Y-41440D02*
X950150D01*
G01X962240Y-47900D02*
Y-35400D01*
X965340D01*
X966580Y-36030D01*
X967510Y-36860D01*
X968290Y-38110D01*
X968910Y-39570D01*
X969060Y-41650D01*
X968910Y-43730D01*
X968290Y-45190D01*
X967510Y-46440D01*
X966580Y-47280D01*
X965340Y-47900D01*
X962240D01*
G01X875290Y-19800D02*
Y-7300D01*
X882410Y-19800D01*
Y-7300D01*
G01X891250Y-19800D02*
X890010Y-19590D01*
X888930Y-18760D01*
X887990Y-17510D01*
X887370Y-16050D01*
X887060Y-14380D01*
Y-12720D01*
X887370Y-11050D01*
X887990Y-9590D01*
X888930Y-8340D01*
X890010Y-7510D01*
X891250Y-7300D01*
X892490Y-7510D01*
X893570Y-8340D01*
X894510Y-9590D01*
X895130Y-11050D01*
X895440Y-12720D01*
Y-14380D01*
X895130Y-16050D01*
X894510Y-17510D01*
X893570Y-18760D01*
X892490Y-19590D01*
X891250Y-19800D01*
G01X900090D02*
Y-7300D01*
X907210Y-19800D01*
Y-7300D01*
G01X914040Y-15630D02*
X918060D01*
G01X925350Y-19800D02*
Y-7300D01*
X929070D01*
X930310Y-7930D01*
X931240Y-9380D01*
X931550Y-11050D01*
X931240Y-12720D01*
X930460Y-13970D01*
X929070Y-14590D01*
X925350D01*
G01X937750Y-7300D02*
Y-19800D01*
X943950D01*
G01X949370D02*
X953250Y-7300D01*
X957130Y-19800D01*
G01X955730Y-15430D02*
X950770D01*
G01X965650Y-7300D02*
Y-19800D01*
G01X962090Y-7300D02*
X969210D01*
G01X981150Y-19800D02*
X974950D01*
Y-7300D01*
X981150D01*
G01X978670Y-13340D02*
X974950D01*
G01X987040Y-19800D02*
Y-7300D01*
X990140D01*
X991380Y-7930D01*
X992310Y-8760D01*
X993090Y-10010D01*
X993710Y-11470D01*
X993860Y-13550D01*
X993710Y-15630D01*
X993090Y-17090D01*
X992310Y-18340D01*
X991380Y-19180D01*
X990140Y-19800D01*
X987040D01*
G01X900550Y8300D02*
Y20800D01*
X904270D01*
X905510Y20170D01*
X906440Y18720D01*
X906750Y17050D01*
X906440Y15380D01*
X905660Y14130D01*
X904270Y13510D01*
X900550D01*
G01X912950Y20800D02*
Y8300D01*
X919150D01*
G01X924570D02*
X928450Y20800D01*
X932330Y8300D01*
G01X930930Y12670D02*
X925970D01*
G01X940850Y20800D02*
Y8300D01*
G01X937290Y20800D02*
X944410D01*
G01X956350Y8300D02*
X950150D01*
Y20800D01*
X956350D01*
G01X953870Y14760D02*
X950150D01*
G01X962240Y8300D02*
Y20800D01*
X965340D01*
X966580Y20170D01*
X967510Y19340D01*
X968290Y18090D01*
X968910Y16630D01*
X969060Y14550D01*
X968910Y12470D01*
X968290Y11010D01*
X967510Y9760D01*
X966580Y8920D01*
X965340Y8300D01*
X962240D01*
G01X900550Y36400D02*
Y48900D01*
X904270D01*
X905510Y48270D01*
X906440Y46820D01*
X906750Y45150D01*
X906440Y43480D01*
X905660Y42230D01*
X904270Y41610D01*
X900550D01*
G01X912950Y48900D02*
Y36400D01*
X919150D01*
G01X924570D02*
X928450Y48900D01*
X932330Y36400D01*
G01X930930Y40770D02*
X925970D01*
G01X940850Y48900D02*
Y36400D01*
G01X937290Y48900D02*
X944410D01*
G01X956350Y36400D02*
X950150D01*
Y48900D01*
X956350D01*
G01X953870Y42860D02*
X950150D01*
G01X962240Y36400D02*
Y48900D01*
X965340D01*
X966580Y48270D01*
X967510Y47440D01*
X968290Y46190D01*
X968910Y44730D01*
X969060Y42650D01*
X968910Y40570D01*
X968290Y39110D01*
X967510Y37860D01*
X966580Y37020D01*
X965340Y36400D01*
X962240D01*
G01X900550Y64500D02*
Y77000D01*
X904270D01*
X905510Y76370D01*
X906440Y74920D01*
X906750Y73250D01*
X906440Y71580D01*
X905660Y70330D01*
X904270Y69710D01*
X900550D01*
G01X912950Y77000D02*
Y64500D01*
X919150D01*
G01X924570D02*
X928450Y77000D01*
X932330Y64500D01*
G01X930930Y68870D02*
X925970D01*
G01X940850Y77000D02*
Y64500D01*
G01X937290Y77000D02*
X944410D01*
G01X956350Y64500D02*
X950150D01*
Y77000D01*
X956350D01*
G01X953870Y70960D02*
X950150D01*
G01X962240Y64500D02*
Y77000D01*
X965340D01*
X966580Y76370D01*
X967510Y75540D01*
X968290Y74290D01*
X968910Y72830D01*
X969060Y70750D01*
X968910Y68670D01*
X968290Y67210D01*
X967510Y65960D01*
X966580Y65120D01*
X965340Y64500D01*
X962240D01*
G01X900550Y94150D02*
Y106650D01*
X904270D01*
X905510Y106020D01*
X906440Y104570D01*
X906750Y102900D01*
X906440Y101230D01*
X905660Y99980D01*
X904270Y99360D01*
X900550D01*
G01X912950Y106650D02*
Y94150D01*
X919150D01*
G01X924570D02*
X928450Y106650D01*
X932330Y94150D01*
G01X930930Y98520D02*
X925970D01*
G01X940850Y106650D02*
Y94150D01*
G01X937290Y106650D02*
X944410D01*
G01X956350Y94150D02*
X950150D01*
Y106650D01*
X956350D01*
G01X953870Y100610D02*
X950150D01*
G01X962240Y94150D02*
Y106650D01*
X965340D01*
X966580Y106020D01*
X967510Y105190D01*
X968290Y103940D01*
X968910Y102480D01*
X969060Y100400D01*
X968910Y98320D01*
X968290Y96860D01*
X967510Y95610D01*
X966580Y94770D01*
X965340Y94150D01*
X962240D01*
G01X998200Y112900D02*
Y-83800D01*
G01X1024550Y36400D02*
Y48900D01*
X1022690Y46400D01*
G01Y36400D02*
X1026410D01*
G01X1036950D02*
X1038030Y36610D01*
X1039270Y37230D01*
X1040050Y38270D01*
X1040360Y39730D01*
X1040050Y41190D01*
X1039120Y42440D01*
X1037720Y43070D01*
X1036180D01*
X1035240Y43480D01*
X1034470Y44520D01*
X1034160Y45980D01*
X1034630Y47440D01*
X1035710Y48480D01*
X1036950Y48900D01*
X1038190Y48480D01*
X1039270Y47440D01*
X1039740Y45980D01*
X1039430Y44520D01*
X1038660Y43480D01*
X1037720Y43070D01*
X1036180D01*
X1034780Y42440D01*
X1033850Y41190D01*
X1033540Y39730D01*
X1033850Y38270D01*
X1034630Y37230D01*
X1035870Y36610D01*
X1036950Y36400D01*
G01X1049350Y48900D02*
X1048110Y48480D01*
X1047180Y47440D01*
X1046560Y46190D01*
X1046090Y44520D01*
X1045940Y42650D01*
X1046090Y40770D01*
X1046560Y39110D01*
X1047180Y37860D01*
X1048110Y36820D01*
X1049350Y36400D01*
X1050590Y36820D01*
X1051520Y37860D01*
X1052140Y39110D01*
X1052610Y40770D01*
X1052760Y42650D01*
X1052610Y44520D01*
X1052140Y46190D01*
X1051520Y47440D01*
X1050590Y48480D01*
X1049350Y48900D01*
G01X1021600Y69710D02*
X1022690Y71170D01*
X1023620Y72000D01*
X1024860Y72420D01*
X1025950Y72000D01*
X1026720Y71170D01*
X1027340Y69920D01*
X1027500Y68460D01*
X1027340Y67210D01*
X1026720Y65960D01*
X1025790Y64920D01*
X1024710Y64500D01*
X1023470Y64920D01*
X1022380Y66170D01*
X1021760Y68040D01*
X1021600Y70120D01*
X1021910Y72830D01*
X1022380Y74290D01*
X1023150Y75750D01*
X1024240Y76790D01*
X1025320Y77000D01*
X1026410Y76580D01*
X1027190Y75540D01*
G01X1034000Y69710D02*
X1035090Y71170D01*
X1036020Y72000D01*
X1037260Y72420D01*
X1038350Y72000D01*
X1039120Y71170D01*
X1039740Y69920D01*
X1039900Y68460D01*
X1039740Y67210D01*
X1039120Y65960D01*
X1038190Y64920D01*
X1037110Y64500D01*
X1035870Y64920D01*
X1034780Y66170D01*
X1034160Y68040D01*
X1034000Y70120D01*
X1034310Y72830D01*
X1034780Y74290D01*
X1035550Y75750D01*
X1036640Y76790D01*
X1037720Y77000D01*
X1038810Y76580D01*
X1039590Y75540D01*
G01X1049350Y64500D02*
X1050430Y64710D01*
X1051670Y65330D01*
X1052450Y66370D01*
X1052760Y67830D01*
X1052450Y69290D01*
X1051520Y70540D01*
X1050120Y71170D01*
X1048580D01*
X1047640Y71580D01*
X1046870Y72620D01*
X1046560Y74080D01*
X1047030Y75540D01*
X1048110Y76580D01*
X1049350Y77000D01*
X1050590Y76580D01*
X1051670Y75540D01*
X1052140Y74080D01*
X1051830Y72620D01*
X1051060Y71580D01*
X1050120Y71170D01*
X1048580D01*
X1047180Y70540D01*
X1046250Y69290D01*
X1045940Y67830D01*
X1046250Y66370D01*
X1047030Y65330D01*
X1048270Y64710D01*
X1049350Y64500D01*
G01X1024550Y94150D02*
X1023310Y94360D01*
X1022230Y95190D01*
X1021290Y96440D01*
X1020670Y97900D01*
X1020360Y99570D01*
Y101230D01*
X1020670Y102900D01*
X1021290Y104360D01*
X1022230Y105610D01*
X1023310Y106440D01*
X1024550Y106650D01*
X1025790Y106440D01*
X1026870Y105610D01*
X1027810Y104360D01*
X1028430Y102900D01*
X1028740Y101230D01*
Y99570D01*
X1028430Y97900D01*
X1027810Y96440D01*
X1026870Y95190D01*
X1025790Y94360D01*
X1024550Y94150D01*
G01X1025790Y97480D02*
X1027650Y94150D01*
G01X1036950Y106650D02*
Y94150D01*
G01X1033390Y106650D02*
X1040510D01*
G01X1049350Y94150D02*
Y99770D01*
X1046250Y106650D01*
G01X1052450D02*
X1049350Y99770D01*
G01X1034000Y-65580D02*
X1034940Y-64330D01*
X1036020Y-63710D01*
X1037260Y-63500D01*
X1038810Y-63920D01*
X1039900Y-64960D01*
X1040210Y-66210D01*
X1040050Y-67460D01*
X1039430Y-68500D01*
X1036330Y-70580D01*
X1034940Y-72040D01*
X1034000Y-74130D01*
X1033690Y-76000D01*
X1040210D01*
G01X1036950Y-47900D02*
Y-35400D01*
X1035090Y-37900D01*
G01Y-47900D02*
X1038810D01*
G01X1036950Y-19800D02*
Y-7300D01*
X1035090Y-9800D01*
G01Y-19800D02*
X1038810D01*
G01X1036950Y8300D02*
X1038030Y8510D01*
X1039270Y9130D01*
X1040050Y10170D01*
X1040360Y11630D01*
X1040050Y13090D01*
X1039120Y14340D01*
X1037720Y14970D01*
X1036180D01*
X1035240Y15380D01*
X1034470Y16420D01*
X1034160Y17880D01*
X1034630Y19340D01*
X1035710Y20380D01*
X1036950Y20800D01*
X1038190Y20380D01*
X1039270Y19340D01*
X1039740Y17880D01*
X1039430Y16420D01*
X1038660Y15380D01*
X1037720Y14970D01*
X1036180D01*
X1034780Y14340D01*
X1033850Y13090D01*
X1033540Y11630D01*
X1033850Y10170D01*
X1034630Y9130D01*
X1035870Y8510D01*
X1036950Y8300D01*
G54D14*
X-325860Y-107310D03*
X-335860Y-70000D03*
Y-60000D03*
Y-50000D03*
Y-40000D03*
Y-30000D03*
Y-20000D03*
Y-10000D03*
Y0D03*
Y10000D03*
Y20000D03*
Y30000D03*
Y40000D03*
Y50000D03*
Y60000D03*
Y70000D03*
X-325860Y107310D03*
X-295860Y-159270D03*
X-300860Y-150610D03*
X-305860Y-141950D03*
X-310860Y-133290D03*
X-315860Y-124630D03*
X-320860Y-115970D03*
Y115970D03*
X-315860Y124630D03*
X-310860Y133290D03*
X-305860Y141950D03*
X-300860Y150610D03*
X-295860Y159270D03*
X-265860Y-211230D03*
X-270860Y-202570D03*
X-275860Y-193910D03*
X-280860Y-185250D03*
X-285860Y-176590D03*
X-290860Y-167930D03*
Y167930D03*
X-285860Y176590D03*
X-280860Y185250D03*
X-275860Y193910D03*
X-270860Y202570D03*
X-265860Y211230D03*
X-255860Y-228550D03*
X-260860Y-219890D03*
Y219890D03*
X-255860Y228550D03*
X-211230Y-265860D03*
X-219890Y-260860D03*
X-228550Y-255860D03*
Y255860D03*
X-219890Y260860D03*
X-211230Y265860D03*
X-176590Y-285860D03*
X-185250Y-280860D03*
X-193910Y-275860D03*
X-202570Y-270860D03*
Y270860D03*
X-193910Y275860D03*
X-185250Y280860D03*
X-176590Y285860D03*
X-150610Y-300860D03*
X-159270Y-295860D03*
X-167930Y-290860D03*
Y290860D03*
X-159270Y295860D03*
X-150610Y300860D03*
X-115970Y-320860D03*
X-124630Y-315860D03*
X-133290Y-310860D03*
X-141950Y-305860D03*
Y305860D03*
X-133290Y310860D03*
X-124630Y315860D03*
X-115970Y320860D03*
X-107310Y-325860D03*
Y325860D03*
X-60000Y-335860D03*
X-70000D03*
Y335860D03*
X-60000D03*
X-30000Y-335860D03*
X-40000D03*
X-50000D03*
Y335860D03*
X-40000D03*
X-30000D03*
X0Y-335860D03*
X-10000D03*
X-20000D03*
Y335860D03*
X-10000D03*
X0D03*
X30000Y-335860D03*
X20000D03*
X10000D03*
Y335860D03*
X20000D03*
X30000D03*
X60000Y-335860D03*
X50000D03*
X40000D03*
Y335860D03*
X50000D03*
X60000D03*
X70000Y-335860D03*
Y335860D03*
X115970Y-320860D03*
X107310Y-325860D03*
Y325860D03*
X115970Y320860D03*
X150610Y-300860D03*
X141950Y-305860D03*
X133290Y-310860D03*
X124630Y-315860D03*
X150610Y300860D03*
X124630Y315860D03*
X133290Y310860D03*
X141950Y305860D03*
X176590Y-285860D03*
X167930Y-290860D03*
X159270Y-295860D03*
Y295860D03*
X167930Y290860D03*
X176590Y285860D03*
X202570Y-270860D03*
X193910Y-275860D03*
X185250Y-280860D03*
X211230Y-265860D03*
X202570Y270860D03*
X211230Y265860D03*
X185250Y280860D03*
X193910Y275860D03*
X228550Y-255860D03*
X219890Y-260860D03*
Y260860D03*
X228550Y255860D03*
X265860Y-211230D03*
X260860Y-219890D03*
X255860Y-228550D03*
X270860Y-202570D03*
Y202570D03*
X255860Y228550D03*
X260860Y219890D03*
X265860Y211230D03*
X280860Y-185250D03*
X275860Y-193910D03*
X300860Y-150610D03*
X295860Y-159270D03*
X290860Y-167930D03*
X285860Y-176590D03*
X300860Y150610D03*
X285860Y176590D03*
X290860Y167930D03*
X295860Y159270D03*
X275860Y193910D03*
X280860Y185250D03*
X315860Y-124630D03*
X310860Y-133290D03*
X305860Y-141950D03*
X325860Y-107310D03*
X320860Y-115970D03*
Y115970D03*
X325860Y107310D03*
X305860Y141950D03*
X310860Y133290D03*
X315860Y124630D03*
X335860Y-70000D03*
Y-40000D03*
Y-50000D03*
Y-60000D03*
Y-10000D03*
Y-20000D03*
Y-30000D03*
Y20000D03*
Y10000D03*
Y0D03*
Y50000D03*
Y40000D03*
Y30000D03*
Y70000D03*
Y60000D03*
X637050Y42650D03*
G54D15*
X0Y0D03*
D03*
G54D16*
D03*
X637050Y-13550D03*
G54D17*
X-54510Y-403940D03*
D03*
X52690D03*
D03*
X233600Y-427950D03*
D03*
X252100Y-439760D03*
D03*
Y-416140D03*
D03*
G54D18*
X-54510Y-403940D03*
X52690D03*
G54D19*
X233600Y-427950D03*
M02*
