M48
INCH,LZ
;FILE_FORMAT=2:4
;TYPE=PLATED
;Layer: Drill PTH
;EasyEDA v6.4.19.4, 2021-07-14T11:09:17--7:00
;73e50abd1ea448babbb0d4c805b7eb3a,d433bb90ee054a4e8348b136ee7bb52c,10
;Gerber Generator version 0.2
;Holesize 1 = 0.0120 inch
T01C0.0120
;Holesize 2 = 0.0360 inch
T02C0.0360
;Holesize 3 = 0.0830 inch
T03C0.0830
;Holesize 4 = 0.1000 inch
T04C0.1000
;Holesize 5 = 0.1220 inch
T05C0.1220
%
G05
G90
T01
X011100Y019000
X011100Y018050
X011500Y014700
X029600Y005900
X030500Y006200
X016000Y004150
X014600Y004150
X013200Y004150
X011800Y004150
X010400Y004150
X009000Y004150
X013900Y010350
X011380Y013190
X012800Y015800
X009100Y002150
X010500Y002150
X011900Y002150
X013300Y002150
X014700Y002150
X016100Y002150
X030200Y005900
X029950Y004400
X030800Y003800
X030250Y001300
X028500Y001100
X028710Y001610
X026900Y003400
X028800Y005450
X028786Y002566
X028700Y002200
X031650Y001750
X026900Y002750
X030800Y003000
X028550Y003000
X028550Y003350
X030800Y003350
X011380Y010640
X011880Y010640
T02
X-000500Y023000
X-000500Y022000
X-000500Y021000
X-000500Y020000
X-000500Y019000
X-000500Y018000
X-000500Y017000
X-000500Y016000
X-000500Y015000
X-000500Y014000
X-000500Y013000
X-000500Y012000
X-000500Y011000
X-000500Y010000
X-000500Y009000
X-000500Y008000
X-000500Y007000
X-000500Y006000
X007500Y006000
X007500Y007000
X007500Y008000
X007500Y009000
X007500Y010000
X007500Y011000
X007500Y012000
X007500Y013000
X007500Y014000
X007500Y015000
X007500Y016000
X007500Y017000
X007500Y018000
X007500Y019000
X017457Y006500
X018457Y006500
X019457Y006500
X020457Y006500
X021457Y006500
X022457Y006500
X023457Y006500
X024457Y006500
X013900Y024124
X013900Y025108
X013900Y026092
X013900Y027076
T03
X031890Y000000
X031890Y027559
X-003543Y000000
X-003543Y027559
T04
X000000Y027000
X007000Y027000
X000000Y000000
X007000Y000000
T05
X-003346Y018701
X-003346Y008858
X031732Y018701
X031732Y008858
M30
