G04 Layer: TopLayer*
G04 EasyEDA v6.4.19.4, 2021-07-14T11:09:17--7:00*
G04 73e50abd1ea448babbb0d4c805b7eb3a,d433bb90ee054a4e8348b136ee7bb52c,10*
G04 Gerber Generator version 0.2*
G04 Scale: 100 percent, Rotated: No, Reflected: No *
G04 Dimensions in inches *
G04 leading zeros omitted , absolute positions ,3 integer and 6 decimal *
%FSLAX36Y36*%
%MOIN*%

%ADD10C,0.0100*%
%ADD11C,0.0236*%
%ADD12C,0.0240*%
%ADD13R,0.0512X0.0610*%
%ADD16R,0.0157X0.0354*%
%ADD19R,0.0118X0.0118*%
%ADD20R,0.0354X0.0118*%
%ADD21R,0.0315X0.0197*%
%ADD22R,0.0748X0.0935*%
%ADD23R,0.0543X0.0177*%
%ADD24R,0.0197X0.0315*%
%ADD25R,0.0276X0.0433*%
%ADD26R,0.0276X0.0236*%
%ADD27C,0.1417*%
%ADD28C,0.1811*%
%ADD29C,0.0600*%
%ADD30C,0.1575*%

%LPD*%
G36*
X-343960Y-88320D02*
G01*
X-345620Y-87960D01*
X-346960Y-86960D01*
X-347780Y-85500D01*
X-347939Y-83820D01*
X-347360Y-82220D01*
X-346200Y-81000D01*
X-344640Y-80380D01*
X-336860Y-79060D01*
X-329320Y-77000D01*
X-322000Y-74220D01*
X-314980Y-70760D01*
X-308340Y-66620D01*
X-302120Y-61880D01*
X-296400Y-56560D01*
X-291200Y-50700D01*
X-286600Y-44360D01*
X-282640Y-37620D01*
X-279340Y-30540D01*
X-276760Y-23160D01*
X-274880Y-15560D01*
X-273740Y-7820D01*
X-273360Y0D01*
X-273740Y7820D01*
X-274880Y15560D01*
X-276760Y23160D01*
X-279340Y30540D01*
X-282640Y37620D01*
X-286600Y44360D01*
X-291200Y50700D01*
X-296400Y56560D01*
X-302120Y61880D01*
X-308340Y66620D01*
X-314980Y70760D01*
X-322000Y74220D01*
X-329320Y77000D01*
X-336860Y79060D01*
X-344580Y80380D01*
X-352380Y80940D01*
X-360200Y80740D01*
X-367960Y79800D01*
X-375600Y78120D01*
X-383040Y75700D01*
X-390220Y72580D01*
X-397040Y68780D01*
X-403480Y64340D01*
X-409460Y59280D01*
X-414940Y53680D01*
X-419840Y47580D01*
X-424120Y41040D01*
X-427760Y34120D01*
X-430700Y26880D01*
X-432939Y19380D01*
X-434440Y11700D01*
X-434680Y9300D01*
X-435200Y7660D01*
X-436380Y6400D01*
X-437980Y5740D01*
X-439700Y5840D01*
X-441240Y6640D01*
X-442280Y8000D01*
X-442660Y9700D01*
X-442660Y874860D01*
X-442299Y876520D01*
X-441260Y877900D01*
X-439760Y878700D01*
X-438060Y878820D01*
X-436460Y878199D01*
X-435260Y877000D01*
X-434700Y875380D01*
X-433760Y868340D01*
X-431860Y859780D01*
X-429219Y851400D01*
X-425860Y843300D01*
X-421800Y835500D01*
X-417100Y828100D01*
X-411740Y821140D01*
X-405820Y814659D01*
X-399340Y808720D01*
X-392380Y803379D01*
X-384960Y798660D01*
X-377180Y794599D01*
X-369060Y791240D01*
X-360700Y788600D01*
X-352120Y786700D01*
X-343420Y785560D01*
X-334640Y785180D01*
X-325880Y785560D01*
X-317160Y786700D01*
X-308600Y788600D01*
X-300220Y791240D01*
X-292120Y794599D01*
X-284320Y798660D01*
X-276920Y803379D01*
X-269960Y808720D01*
X-263480Y814659D01*
X-257540Y821140D01*
X-252200Y828100D01*
X-247480Y835500D01*
X-243420Y843300D01*
X-240060Y851400D01*
X-237420Y859780D01*
X-235520Y868340D01*
X-234380Y877060D01*
X-234000Y885819D01*
X-234380Y894599D01*
X-235520Y903300D01*
X-237420Y911880D01*
X-240060Y920260D01*
X-243420Y928360D01*
X-247480Y936160D01*
X-252200Y943560D01*
X-257540Y950520D01*
X-263480Y957000D01*
X-269960Y962920D01*
X-276920Y968280D01*
X-284320Y972980D01*
X-292120Y977039D01*
X-300220Y980400D01*
X-308600Y983040D01*
X-317160Y984940D01*
X-325880Y986100D01*
X-334640Y986480D01*
X-343420Y986100D01*
X-352120Y984940D01*
X-360700Y983040D01*
X-369060Y980400D01*
X-377180Y977039D01*
X-384960Y972980D01*
X-392380Y968280D01*
X-399340Y962920D01*
X-405820Y957000D01*
X-411740Y950520D01*
X-417100Y943560D01*
X-421800Y936160D01*
X-425860Y928360D01*
X-429219Y920260D01*
X-431860Y911880D01*
X-433760Y903300D01*
X-434700Y896260D01*
X-435260Y894659D01*
X-436460Y893439D01*
X-438060Y892840D01*
X-439760Y892940D01*
X-441260Y893760D01*
X-442299Y895120D01*
X-442660Y896800D01*
X-442660Y1859120D01*
X-442299Y1860780D01*
X-441260Y1862140D01*
X-439760Y1862960D01*
X-438060Y1863060D01*
X-436460Y1862460D01*
X-435260Y1861240D01*
X-434700Y1859640D01*
X-433760Y1852600D01*
X-431860Y1844019D01*
X-429219Y1835660D01*
X-425860Y1827540D01*
X-421800Y1819760D01*
X-417100Y1812360D01*
X-411740Y1805380D01*
X-405820Y1798920D01*
X-399340Y1792980D01*
X-392380Y1787640D01*
X-384960Y1782920D01*
X-377180Y1778860D01*
X-369060Y1775500D01*
X-360700Y1772860D01*
X-352120Y1770960D01*
X-343420Y1769820D01*
X-334640Y1769440D01*
X-325880Y1769820D01*
X-317160Y1770960D01*
X-308600Y1772860D01*
X-300220Y1775500D01*
X-292120Y1778860D01*
X-284320Y1782920D01*
X-276920Y1787640D01*
X-269960Y1792980D01*
X-263480Y1798920D01*
X-257540Y1805380D01*
X-252200Y1812360D01*
X-247480Y1819760D01*
X-243420Y1827540D01*
X-240060Y1835660D01*
X-237420Y1844019D01*
X-235520Y1852600D01*
X-234380Y1861300D01*
X-234000Y1870080D01*
X-234380Y1878860D01*
X-235520Y1887560D01*
X-237420Y1896120D01*
X-240060Y1904500D01*
X-243420Y1912620D01*
X-247480Y1920400D01*
X-252200Y1927800D01*
X-257540Y1934780D01*
X-263480Y1941240D01*
X-269960Y1947180D01*
X-276920Y1952520D01*
X-284320Y1957240D01*
X-292120Y1961300D01*
X-300220Y1964660D01*
X-308600Y1967300D01*
X-317160Y1969199D01*
X-325880Y1970340D01*
X-334640Y1970720D01*
X-343420Y1970340D01*
X-352120Y1969199D01*
X-360700Y1967300D01*
X-369060Y1964660D01*
X-377180Y1961300D01*
X-384960Y1957240D01*
X-392380Y1952520D01*
X-399340Y1947180D01*
X-405820Y1941240D01*
X-411740Y1934780D01*
X-417100Y1927800D01*
X-421800Y1920400D01*
X-425860Y1912620D01*
X-429219Y1904500D01*
X-431860Y1896120D01*
X-433760Y1887560D01*
X-434700Y1880520D01*
X-435260Y1878920D01*
X-436460Y1877700D01*
X-438060Y1877080D01*
X-439760Y1877200D01*
X-441260Y1878020D01*
X-442299Y1879379D01*
X-442660Y1881040D01*
X-442660Y2746220D01*
X-442280Y2747900D01*
X-441240Y2749280D01*
X-439700Y2750080D01*
X-437980Y2750160D01*
X-436380Y2749500D01*
X-435200Y2748240D01*
X-434680Y2746600D01*
X-434440Y2744200D01*
X-432939Y2736540D01*
X-430700Y2729040D01*
X-427760Y2721780D01*
X-424120Y2714860D01*
X-419840Y2708320D01*
X-414940Y2702220D01*
X-409460Y2696620D01*
X-403480Y2691580D01*
X-397040Y2687140D01*
X-390220Y2683340D01*
X-383040Y2680200D01*
X-375600Y2677780D01*
X-367960Y2676100D01*
X-360200Y2675160D01*
X-352380Y2674960D01*
X-344580Y2675539D01*
X-336860Y2676860D01*
X-329320Y2678900D01*
X-322000Y2681680D01*
X-314980Y2685140D01*
X-308340Y2689280D01*
X-302120Y2694020D01*
X-296400Y2699360D01*
X-291200Y2705200D01*
X-286600Y2711540D01*
X-282640Y2718279D01*
X-279340Y2725380D01*
X-276760Y2732760D01*
X-274880Y2740360D01*
X-273740Y2748100D01*
X-273360Y2755899D01*
X-273740Y2763720D01*
X-274880Y2771460D01*
X-276760Y2779060D01*
X-279340Y2786440D01*
X-282640Y2793540D01*
X-286600Y2800280D01*
X-291200Y2806600D01*
X-296400Y2812460D01*
X-302120Y2817780D01*
X-308340Y2822540D01*
X-314980Y2826660D01*
X-322000Y2830140D01*
X-329320Y2832900D01*
X-336860Y2834960D01*
X-344640Y2836280D01*
X-346200Y2836920D01*
X-347360Y2838140D01*
X-347939Y2839720D01*
X-347780Y2841400D01*
X-346960Y2842880D01*
X-345620Y2843880D01*
X-343960Y2844240D01*
X3179380Y2844240D01*
X3181060Y2843860D01*
X3182420Y2842840D01*
X3183220Y2841320D01*
X3183340Y2839620D01*
X3182720Y2838020D01*
X3181480Y2836820D01*
X3179860Y2836259D01*
X3175340Y2835720D01*
X3167700Y2834020D01*
X3160260Y2831600D01*
X3153100Y2828480D01*
X3146259Y2824680D01*
X3139820Y2820240D01*
X3133840Y2815200D01*
X3128380Y2809600D01*
X3123480Y2803500D01*
X3119180Y2796960D01*
X3115560Y2790020D01*
X3112600Y2782780D01*
X3110360Y2775280D01*
X3108860Y2767600D01*
X3108100Y2759820D01*
X3108100Y2752000D01*
X3108860Y2744200D01*
X3110360Y2736540D01*
X3112600Y2729040D01*
X3115560Y2721780D01*
X3119180Y2714860D01*
X3123480Y2708320D01*
X3128380Y2702220D01*
X3133840Y2696620D01*
X3139820Y2691580D01*
X3146259Y2687140D01*
X3153100Y2683340D01*
X3160260Y2680200D01*
X3167700Y2677780D01*
X3175340Y2676100D01*
X3183120Y2675160D01*
X3190940Y2674960D01*
X3198740Y2675539D01*
X3206440Y2676860D01*
X3214000Y2678900D01*
X3221300Y2681680D01*
X3228320Y2685140D01*
X3234960Y2689280D01*
X3241180Y2694020D01*
X3246920Y2699360D01*
X3252100Y2705200D01*
X3256700Y2711540D01*
X3260659Y2718279D01*
X3263960Y2725380D01*
X3266560Y2732760D01*
X3268420Y2740360D01*
X3269340Y2746620D01*
X3269940Y2748200D01*
X3271139Y2749400D01*
X3272740Y2750000D01*
X3274440Y2749860D01*
X3275920Y2749060D01*
X3276940Y2747700D01*
X3277300Y2746040D01*
X3277300Y1900380D01*
X3276980Y1898800D01*
X3276060Y1897480D01*
X3274700Y1896639D01*
X3273100Y1896380D01*
X3271540Y1896780D01*
X3270260Y1897780D01*
X3269480Y1899180D01*
X3267799Y1904500D01*
X3264440Y1912620D01*
X3260400Y1920400D01*
X3255680Y1927800D01*
X3250340Y1934780D01*
X3244400Y1941240D01*
X3237919Y1947180D01*
X3230960Y1952520D01*
X3223560Y1957240D01*
X3215760Y1961300D01*
X3207660Y1964660D01*
X3199280Y1967300D01*
X3190700Y1969199D01*
X3182000Y1970340D01*
X3173240Y1970720D01*
X3164460Y1970340D01*
X3155760Y1969199D01*
X3147180Y1967300D01*
X3138800Y1964660D01*
X3130700Y1961300D01*
X3122900Y1957240D01*
X3115500Y1952520D01*
X3108540Y1947180D01*
X3102060Y1941240D01*
X3096120Y1934780D01*
X3090779Y1927800D01*
X3086060Y1920400D01*
X3082020Y1912620D01*
X3078660Y1904500D01*
X3076019Y1896120D01*
X3074120Y1887560D01*
X3072960Y1878860D01*
X3072580Y1870080D01*
X3072960Y1861300D01*
X3074120Y1852600D01*
X3076019Y1844019D01*
X3078660Y1835660D01*
X3082020Y1827540D01*
X3086060Y1819760D01*
X3090779Y1812360D01*
X3096120Y1805380D01*
X3102060Y1798920D01*
X3108540Y1792980D01*
X3115500Y1787640D01*
X3122900Y1782920D01*
X3130700Y1778860D01*
X3138800Y1775500D01*
X3147180Y1772860D01*
X3155760Y1770960D01*
X3164460Y1769820D01*
X3173240Y1769440D01*
X3182000Y1769820D01*
X3190700Y1770960D01*
X3199280Y1772860D01*
X3207660Y1775500D01*
X3215760Y1778860D01*
X3223560Y1782920D01*
X3230960Y1787640D01*
X3237919Y1792980D01*
X3244400Y1798920D01*
X3250340Y1805380D01*
X3255680Y1812360D01*
X3260400Y1819760D01*
X3264440Y1827540D01*
X3267799Y1835660D01*
X3269480Y1840980D01*
X3270260Y1842380D01*
X3271540Y1843360D01*
X3273100Y1843779D01*
X3274700Y1843520D01*
X3276060Y1842680D01*
X3276980Y1841360D01*
X3277300Y1839780D01*
X3277300Y916120D01*
X3276980Y914560D01*
X3276060Y913240D01*
X3274700Y912380D01*
X3273100Y912140D01*
X3271540Y912540D01*
X3270260Y913520D01*
X3269480Y914920D01*
X3267799Y920260D01*
X3264440Y928360D01*
X3260400Y936160D01*
X3255680Y943560D01*
X3250340Y950520D01*
X3244400Y957000D01*
X3237919Y962920D01*
X3230960Y968280D01*
X3223560Y972980D01*
X3215760Y977039D01*
X3207660Y980400D01*
X3199280Y983040D01*
X3190700Y984940D01*
X3182000Y986100D01*
X3173240Y986480D01*
X3164460Y986100D01*
X3155760Y984940D01*
X3147180Y983040D01*
X3138800Y980400D01*
X3130700Y977039D01*
X3122900Y972980D01*
X3115500Y968280D01*
X3108540Y962920D01*
X3102060Y957000D01*
X3096120Y950520D01*
X3090779Y943560D01*
X3086060Y936160D01*
X3082020Y928360D01*
X3078660Y920260D01*
X3076019Y911880D01*
X3074120Y903300D01*
X3072960Y894599D01*
X3072580Y885819D01*
X3072960Y877060D01*
X3074120Y868340D01*
X3076019Y859780D01*
X3078660Y851400D01*
X3082020Y843300D01*
X3086060Y835500D01*
X3090779Y828100D01*
X3096120Y821140D01*
X3102060Y814659D01*
X3108540Y808720D01*
X3115500Y803379D01*
X3122900Y798660D01*
X3130700Y794599D01*
X3138800Y791240D01*
X3147180Y788600D01*
X3155760Y786700D01*
X3164460Y785560D01*
X3173240Y785180D01*
X3182000Y785560D01*
X3190700Y786700D01*
X3199280Y788600D01*
X3207660Y791240D01*
X3215760Y794599D01*
X3223560Y798660D01*
X3230960Y803379D01*
X3237919Y808720D01*
X3244400Y814659D01*
X3250340Y821140D01*
X3255680Y828100D01*
X3260400Y835500D01*
X3264440Y843300D01*
X3267799Y851400D01*
X3269480Y856720D01*
X3270260Y858139D01*
X3271540Y859120D01*
X3273100Y859520D01*
X3274700Y859280D01*
X3276060Y858420D01*
X3276980Y857099D01*
X3277300Y855520D01*
X3277300Y505180D01*
X3276960Y503540D01*
X3275960Y502200D01*
X3274520Y501380D01*
X3272860Y501200D01*
X3270080Y501520D01*
X3195740Y501520D01*
X3193260Y501240D01*
X3191139Y500500D01*
X3189220Y499300D01*
X3187640Y497700D01*
X3186440Y495800D01*
X3185680Y493660D01*
X3185419Y491200D01*
X3185419Y470080D01*
X3185100Y468540D01*
X3184240Y467260D01*
X3182940Y466380D01*
X3181420Y466079D01*
X3101240Y466079D01*
X3098780Y465800D01*
X3096640Y465060D01*
X3094740Y463860D01*
X3093140Y462260D01*
X3091940Y460360D01*
X3091120Y458000D01*
X3090280Y456620D01*
X3088940Y455660D01*
X3087340Y455340D01*
X3082020Y455340D01*
X3082020Y438880D01*
X3083240Y438880D01*
X3087200Y439320D01*
X3088639Y438940D01*
X3089840Y438060D01*
X3090640Y436800D01*
X3090920Y435340D01*
X3090920Y405060D01*
X3090659Y403640D01*
X3089900Y402380D01*
X3088740Y401500D01*
X3087340Y401079D01*
X3085880Y401200D01*
X3083840Y401740D01*
X3080000Y402080D01*
X3076160Y401740D01*
X3072440Y400760D01*
X3068960Y399120D01*
X3065800Y396920D01*
X3063080Y394200D01*
X3060880Y391040D01*
X3059240Y387560D01*
X3058260Y383840D01*
X3057980Y380660D01*
X3057620Y379300D01*
X3056820Y378180D01*
X3052559Y373920D01*
X3051220Y373020D01*
X3049640Y372740D01*
X3048080Y373100D01*
X3046780Y374040D01*
X3045820Y375800D01*
X3044620Y377720D01*
X3043020Y379300D01*
X3041120Y380500D01*
X3038980Y381260D01*
X3036520Y381540D01*
X3027220Y381540D01*
X3025680Y381840D01*
X3024400Y382700D01*
X3023519Y384000D01*
X3023220Y385540D01*
X3023220Y390900D01*
X3022940Y393360D01*
X3022200Y395480D01*
X3021000Y397400D01*
X3019400Y399000D01*
X3018399Y399620D01*
X3017340Y400580D01*
X3016700Y401860D01*
X3016540Y403280D01*
X3016880Y404660D01*
X3017700Y405840D01*
X3034960Y423080D01*
X3036960Y425520D01*
X3038340Y428120D01*
X3039200Y430959D01*
X3039520Y434099D01*
X3039520Y440520D01*
X3039680Y441620D01*
X3040120Y442640D01*
X3041360Y444600D01*
X3042100Y446740D01*
X3042380Y449200D01*
X3042380Y484180D01*
X3042100Y486640D01*
X3041360Y488780D01*
X3040160Y490680D01*
X3038560Y492280D01*
X3036660Y493480D01*
X3034520Y494219D01*
X3032060Y494500D01*
X3016760Y494500D01*
X3014300Y494219D01*
X3012160Y493480D01*
X3010260Y492280D01*
X3008660Y490680D01*
X3007460Y488780D01*
X3006720Y486640D01*
X3006440Y484180D01*
X3006440Y464920D01*
X3006160Y463500D01*
X3005400Y462239D01*
X3004260Y461360D01*
X3002860Y460940D01*
X3001400Y461060D01*
X2998660Y461800D01*
X2997700Y462200D01*
X2996880Y462840D01*
X2994740Y464960D01*
X2993860Y466260D01*
X2993560Y467800D01*
X2993560Y484180D01*
X2993279Y486640D01*
X2992540Y488780D01*
X2991340Y490680D01*
X2989740Y492280D01*
X2987840Y493480D01*
X2985700Y494219D01*
X2983240Y494500D01*
X2967940Y494500D01*
X2965480Y494219D01*
X2964120Y493760D01*
X2962799Y493519D01*
X2961480Y493760D01*
X2960120Y494219D01*
X2957640Y494500D01*
X2942360Y494500D01*
X2939880Y494219D01*
X2938519Y493760D01*
X2937200Y493519D01*
X2935880Y493760D01*
X2934520Y494219D01*
X2932060Y494500D01*
X2930840Y494500D01*
X2930840Y476880D01*
X2931720Y475580D01*
X2932020Y474040D01*
X2932020Y459340D01*
X2931720Y457800D01*
X2930840Y456500D01*
X2930840Y449099D01*
X2930539Y447560D01*
X2929680Y446280D01*
X2928380Y445400D01*
X2926840Y445100D01*
X2921980Y445100D01*
X2920440Y445400D01*
X2919140Y446280D01*
X2918279Y447560D01*
X2917980Y449099D01*
X2917980Y455340D01*
X2906440Y455340D01*
X2906440Y449099D01*
X2906139Y447560D01*
X2905260Y446280D01*
X2903960Y445400D01*
X2902440Y445100D01*
X2655200Y445100D01*
X2652060Y444799D01*
X2649220Y443940D01*
X2646620Y442540D01*
X2644180Y440540D01*
X2594460Y390820D01*
X2592460Y388380D01*
X2591060Y385780D01*
X2590200Y382939D01*
X2589900Y379799D01*
X2589900Y135940D01*
X2589560Y134340D01*
X2588620Y133020D01*
X2587220Y132160D01*
X2584740Y131300D01*
X2582840Y130100D01*
X2581240Y128500D01*
X2580040Y126600D01*
X2579300Y124460D01*
X2579020Y122000D01*
X2579020Y90960D01*
X2579300Y88480D01*
X2580040Y86359D01*
X2581240Y84440D01*
X2582840Y82860D01*
X2584740Y81640D01*
X2586880Y80900D01*
X2589340Y80620D01*
X2620380Y80620D01*
X2622860Y80900D01*
X2624980Y81640D01*
X2626900Y82860D01*
X2628480Y84440D01*
X2629680Y86359D01*
X2630440Y88480D01*
X2630720Y90960D01*
X2630720Y122000D01*
X2630440Y124460D01*
X2629680Y126600D01*
X2628480Y128500D01*
X2626900Y130100D01*
X2624980Y131300D01*
X2622780Y132080D01*
X2621380Y132920D01*
X2620440Y134240D01*
X2620100Y135840D01*
X2620100Y182360D01*
X2620400Y183880D01*
X2621280Y185180D01*
X2622559Y186060D01*
X2624100Y186360D01*
X2625640Y186060D01*
X2626920Y185180D01*
X2697840Y114280D01*
X2698720Y112980D01*
X2699020Y111440D01*
X2699020Y90960D01*
X2699300Y88480D01*
X2700040Y86359D01*
X2701240Y84440D01*
X2702840Y82860D01*
X2704740Y81640D01*
X2706880Y80900D01*
X2709340Y80620D01*
X2740380Y80620D01*
X2742860Y80900D01*
X2744980Y81640D01*
X2746900Y82860D01*
X2748480Y84440D01*
X2749680Y86359D01*
X2750440Y88480D01*
X2750720Y90960D01*
X2750720Y122000D01*
X2750440Y124460D01*
X2749680Y126600D01*
X2748480Y128500D01*
X2746900Y130100D01*
X2744980Y131300D01*
X2742860Y132040D01*
X2740380Y132320D01*
X2724160Y132320D01*
X2722620Y132620D01*
X2721340Y133500D01*
X2641280Y213560D01*
X2640400Y214840D01*
X2640100Y216380D01*
X2640100Y249280D01*
X2640400Y250820D01*
X2641280Y252120D01*
X2642559Y252979D01*
X2644100Y253280D01*
X2669060Y253280D01*
X2671540Y253560D01*
X2673660Y254300D01*
X2675500Y255460D01*
X2676720Y255980D01*
X2678039Y256060D01*
X2679320Y255700D01*
X2682440Y254240D01*
X2686160Y253260D01*
X2690000Y252920D01*
X2693840Y253260D01*
X2697559Y254240D01*
X2701040Y255880D01*
X2704200Y258080D01*
X2706920Y260799D01*
X2709120Y263960D01*
X2710760Y267440D01*
X2711740Y271160D01*
X2712080Y275000D01*
X2711740Y278840D01*
X2710760Y282560D01*
X2709120Y286040D01*
X2706920Y289200D01*
X2704200Y291920D01*
X2701040Y294120D01*
X2697559Y295760D01*
X2693840Y296740D01*
X2690000Y297080D01*
X2686160Y296740D01*
X2682440Y295760D01*
X2679680Y294460D01*
X2678399Y294100D01*
X2677080Y294200D01*
X2675860Y294700D01*
X2673660Y296080D01*
X2671540Y296820D01*
X2669060Y297100D01*
X2644100Y297100D01*
X2642559Y297400D01*
X2641280Y298280D01*
X2640400Y299580D01*
X2640100Y301100D01*
X2640100Y306380D01*
X2640400Y307900D01*
X2641280Y309200D01*
X2642559Y310060D01*
X2644100Y310380D01*
X2669060Y310380D01*
X2671540Y310640D01*
X2673660Y311400D01*
X2675580Y312600D01*
X2677160Y314180D01*
X2679240Y317760D01*
X2680400Y318680D01*
X2681820Y319120D01*
X2683300Y319020D01*
X2686160Y318260D01*
X2690000Y317920D01*
X2693840Y318260D01*
X2697559Y319240D01*
X2701040Y320880D01*
X2704200Y323080D01*
X2706920Y325800D01*
X2709120Y328960D01*
X2710760Y332440D01*
X2711740Y336160D01*
X2712080Y340000D01*
X2711740Y343840D01*
X2710760Y347560D01*
X2709120Y351040D01*
X2706920Y354200D01*
X2704200Y356920D01*
X2701040Y359120D01*
X2697559Y360760D01*
X2693840Y361740D01*
X2690000Y362080D01*
X2686160Y361740D01*
X2684280Y361240D01*
X2682559Y361160D01*
X2680980Y361800D01*
X2679820Y363040D01*
X2679260Y364660D01*
X2679120Y366019D01*
X2678360Y368140D01*
X2677160Y370060D01*
X2675580Y371659D01*
X2673660Y372860D01*
X2671540Y373600D01*
X2669060Y373880D01*
X2654880Y373880D01*
X2653360Y374180D01*
X2652060Y375040D01*
X2651200Y376340D01*
X2650880Y377879D01*
X2651200Y379400D01*
X2652060Y380700D01*
X2660080Y388720D01*
X2661380Y389600D01*
X2662919Y389900D01*
X2888780Y389900D01*
X2890320Y389600D01*
X2891620Y388720D01*
X2892480Y387440D01*
X2892780Y385540D01*
X2892480Y384000D01*
X2891620Y382700D01*
X2890320Y381840D01*
X2888780Y381540D01*
X2879480Y381540D01*
X2877020Y381260D01*
X2874880Y380520D01*
X2872980Y379320D01*
X2871380Y377720D01*
X2870179Y375800D01*
X2869440Y373680D01*
X2869160Y371200D01*
X2869160Y359840D01*
X2869040Y357680D01*
X2868200Y356220D01*
X2866840Y355240D01*
X2865179Y354920D01*
X2863540Y355280D01*
X2862559Y355760D01*
X2858840Y356740D01*
X2855000Y357080D01*
X2851160Y356740D01*
X2847440Y355760D01*
X2843960Y354120D01*
X2840800Y351920D01*
X2840160Y351280D01*
X2838860Y350400D01*
X2837320Y350100D01*
X2777880Y350100D01*
X2776340Y350400D01*
X2775040Y351280D01*
X2774180Y352560D01*
X2773880Y354099D01*
X2773880Y361580D01*
X2773600Y364060D01*
X2772860Y366180D01*
X2771660Y368100D01*
X2770059Y369680D01*
X2768140Y370880D01*
X2766019Y371640D01*
X2763560Y371900D01*
X2736440Y371900D01*
X2733980Y371640D01*
X2731840Y370880D01*
X2729940Y369680D01*
X2728340Y368100D01*
X2727140Y366180D01*
X2726400Y364060D01*
X2726120Y361580D01*
X2726120Y338420D01*
X2726400Y335940D01*
X2727140Y333820D01*
X2728340Y331900D01*
X2729940Y330319D01*
X2731840Y329099D01*
X2733980Y328360D01*
X2736440Y328080D01*
X2748900Y328080D01*
X2750440Y327780D01*
X2751720Y326920D01*
X2754180Y324460D01*
X2756620Y322460D01*
X2759220Y321060D01*
X2762060Y320200D01*
X2764740Y319940D01*
X2766240Y319480D01*
X2767460Y318500D01*
X2768180Y317100D01*
X2768340Y315540D01*
X2767860Y314060D01*
X2766860Y312840D01*
X2763980Y310520D01*
X2751740Y298280D01*
X2750440Y297400D01*
X2748900Y297100D01*
X2736440Y297100D01*
X2733980Y296820D01*
X2731840Y296080D01*
X2729940Y294880D01*
X2728340Y293280D01*
X2727140Y291380D01*
X2726400Y289240D01*
X2726120Y286780D01*
X2726120Y263600D01*
X2726400Y261140D01*
X2727140Y259020D01*
X2728340Y257100D01*
X2729940Y255500D01*
X2731840Y254300D01*
X2733980Y253560D01*
X2736440Y253280D01*
X2752280Y253280D01*
X2753800Y252979D01*
X2755100Y252120D01*
X2755960Y250820D01*
X2756280Y249280D01*
X2755960Y247760D01*
X2755100Y246460D01*
X2749460Y240820D01*
X2747460Y238380D01*
X2746060Y235780D01*
X2745200Y232940D01*
X2744900Y229800D01*
X2744900Y180200D01*
X2745200Y177060D01*
X2746060Y174220D01*
X2747460Y171620D01*
X2749460Y169180D01*
X2765980Y152660D01*
X2766840Y151380D01*
X2767140Y149840D01*
X2767140Y141700D01*
X2767420Y139240D01*
X2768180Y137100D01*
X2769380Y135200D01*
X2770960Y133600D01*
X2772880Y132400D01*
X2775000Y131660D01*
X2777480Y131380D01*
X2805620Y131380D01*
X2807140Y131060D01*
X2808440Y130200D01*
X2826820Y111840D01*
X2827620Y110700D01*
X2827980Y109360D01*
X2828260Y106160D01*
X2829240Y102440D01*
X2830880Y98960D01*
X2833080Y95800D01*
X2835800Y93080D01*
X2838960Y90879D01*
X2839620Y90559D01*
X2840860Y89660D01*
X2841660Y88379D01*
X2841920Y86880D01*
X2841620Y85380D01*
X2840760Y84120D01*
X2823660Y67020D01*
X2822360Y66160D01*
X2820840Y65840D01*
X2810059Y65840D01*
X2807600Y65580D01*
X2805460Y64820D01*
X2803560Y63620D01*
X2802820Y62900D01*
X2801520Y62020D01*
X2800000Y61720D01*
X2798460Y62020D01*
X2797160Y62900D01*
X2796440Y63620D01*
X2794520Y64820D01*
X2792400Y65580D01*
X2789920Y65840D01*
X2770700Y65840D01*
X2768220Y65580D01*
X2766100Y64820D01*
X2764180Y63620D01*
X2762600Y62020D01*
X2761400Y60119D01*
X2760580Y57779D01*
X2759720Y56380D01*
X2758399Y55439D01*
X2756800Y55100D01*
X2754980Y55100D01*
X2753560Y55359D01*
X2752320Y56120D01*
X2751420Y57280D01*
X2751000Y58680D01*
X2750700Y61520D01*
X2749960Y63640D01*
X2748759Y65560D01*
X2747160Y67140D01*
X2745260Y68340D01*
X2743120Y69100D01*
X2740659Y69380D01*
X2709620Y69380D01*
X2707140Y69100D01*
X2705020Y68340D01*
X2703100Y67140D01*
X2701520Y65560D01*
X2700320Y63640D01*
X2699560Y61520D01*
X2699300Y59040D01*
X2699300Y28000D01*
X2699820Y23920D01*
X2699480Y22440D01*
X2698600Y21200D01*
X2697320Y20379D01*
X2695840Y20099D01*
X2634440Y20099D01*
X2632960Y20379D01*
X2631680Y21200D01*
X2630800Y22440D01*
X2630440Y23920D01*
X2630980Y28000D01*
X2630980Y59040D01*
X2630700Y61520D01*
X2629960Y63640D01*
X2628759Y65560D01*
X2627160Y67140D01*
X2625260Y68340D01*
X2623120Y69100D01*
X2620659Y69380D01*
X2589620Y69380D01*
X2587140Y69100D01*
X2585020Y68340D01*
X2583100Y67140D01*
X2581520Y65560D01*
X2580320Y63640D01*
X2579560Y61520D01*
X2579420Y60199D01*
X2579000Y58800D01*
X2578120Y57660D01*
X2576880Y56900D01*
X2575440Y56640D01*
X2572660Y56640D01*
X2571060Y56980D01*
X2569740Y57920D01*
X2568880Y59320D01*
X2568600Y60119D01*
X2567400Y62020D01*
X2565820Y63620D01*
X2563900Y64820D01*
X2561780Y65580D01*
X2559300Y65840D01*
X2540080Y65840D01*
X2537600Y65580D01*
X2535480Y64820D01*
X2533560Y63620D01*
X2532840Y62900D01*
X2531540Y62020D01*
X2530000Y61720D01*
X2528480Y62020D01*
X2527180Y62900D01*
X2526440Y63620D01*
X2524540Y64820D01*
X2522400Y65580D01*
X2519940Y65840D01*
X2500700Y65840D01*
X2498240Y65580D01*
X2496100Y64820D01*
X2494200Y63620D01*
X2492600Y62020D01*
X2491400Y60119D01*
X2490660Y57980D01*
X2490380Y55519D01*
X2490380Y24480D01*
X2490660Y22020D01*
X2491400Y19880D01*
X2492600Y17980D01*
X2494200Y16379D01*
X2496100Y15180D01*
X2498240Y14420D01*
X2500700Y14160D01*
X2502840Y14160D01*
X2504360Y13839D01*
X2505660Y12980D01*
X2524180Y-5540D01*
X2526620Y-7540D01*
X2529220Y-8940D01*
X2532060Y-9800D01*
X2535200Y-10100D01*
X2799800Y-10100D01*
X2802940Y-9800D01*
X2805779Y-8940D01*
X2808380Y-7540D01*
X2810820Y-5540D01*
X2829680Y13320D01*
X2831220Y14280D01*
X2833920Y15180D01*
X2835800Y16379D01*
X2837400Y17980D01*
X2838600Y19880D01*
X2839340Y22020D01*
X2839620Y24480D01*
X2839620Y38620D01*
X2839920Y40140D01*
X2840800Y41440D01*
X2893080Y93720D01*
X2894380Y94600D01*
X2895899Y94900D01*
X2973800Y94900D01*
X2976940Y95200D01*
X2979780Y96060D01*
X2982380Y97460D01*
X2984820Y99460D01*
X3001860Y116500D01*
X3003320Y117440D01*
X3005040Y117660D01*
X3006680Y117140D01*
X3010800Y113080D01*
X3013960Y110879D01*
X3017440Y109240D01*
X3021160Y108260D01*
X3025000Y107920D01*
X3028840Y108260D01*
X3032559Y109240D01*
X3036040Y110879D01*
X3039200Y113080D01*
X3041340Y115239D01*
X3042580Y116080D01*
X3044020Y116400D01*
X3045500Y116180D01*
X3047000Y115660D01*
X3049480Y115380D01*
X3080520Y115380D01*
X3082980Y115660D01*
X3085120Y116400D01*
X3087020Y117600D01*
X3088480Y119040D01*
X3089760Y119920D01*
X3091300Y120220D01*
X3093700Y120220D01*
X3095220Y119920D01*
X3096520Y119040D01*
X3097980Y117600D01*
X3099880Y116400D01*
X3102020Y115640D01*
X3104480Y115380D01*
X3135520Y115380D01*
X3138000Y115640D01*
X3140120Y116400D01*
X3142040Y117600D01*
X3143620Y119179D01*
X3144820Y121100D01*
X3145580Y123219D01*
X3145860Y125700D01*
X3145860Y144940D01*
X3145580Y147400D01*
X3144820Y149520D01*
X3143620Y151440D01*
X3142900Y152160D01*
X3142020Y153460D01*
X3141720Y155000D01*
X3142020Y156520D01*
X3142900Y157820D01*
X3143680Y158600D01*
X3144960Y159460D01*
X3146480Y159780D01*
X3147420Y159780D01*
X3148960Y159480D01*
X3150280Y158620D01*
X3150800Y158080D01*
X3153960Y155880D01*
X3157440Y154240D01*
X3161160Y153260D01*
X3165000Y152920D01*
X3168840Y153260D01*
X3172559Y154240D01*
X3176040Y155880D01*
X3179200Y158080D01*
X3183420Y162300D01*
X3185080Y162840D01*
X3186800Y162600D01*
X3188260Y161680D01*
X3189220Y160700D01*
X3191139Y159500D01*
X3193260Y158760D01*
X3195740Y158480D01*
X3270080Y158480D01*
X3272860Y158800D01*
X3274520Y158620D01*
X3275960Y157800D01*
X3276960Y156460D01*
X3277300Y154820D01*
X3277300Y9880D01*
X3276940Y8220D01*
X3275920Y6860D01*
X3274440Y6040D01*
X3272740Y5920D01*
X3271139Y6500D01*
X3269940Y7700D01*
X3269340Y9300D01*
X3268420Y15560D01*
X3266560Y23160D01*
X3263960Y30540D01*
X3260659Y37620D01*
X3256700Y44360D01*
X3252100Y50700D01*
X3246920Y56560D01*
X3241180Y61880D01*
X3234960Y66620D01*
X3228320Y70760D01*
X3221300Y74220D01*
X3214000Y77000D01*
X3206440Y79060D01*
X3198740Y80380D01*
X3190940Y80940D01*
X3183120Y80740D01*
X3175340Y79800D01*
X3167700Y78120D01*
X3160260Y75700D01*
X3153100Y72580D01*
X3146259Y68780D01*
X3139820Y64340D01*
X3133840Y59280D01*
X3128380Y53680D01*
X3123480Y47580D01*
X3119180Y41040D01*
X3115560Y34120D01*
X3112600Y26880D01*
X3110360Y19380D01*
X3108860Y11700D01*
X3108100Y3920D01*
X3108100Y-3920D01*
X3108860Y-11700D01*
X3110360Y-19380D01*
X3112600Y-26880D01*
X3115560Y-34120D01*
X3119180Y-41040D01*
X3123480Y-47580D01*
X3128380Y-53680D01*
X3133840Y-59280D01*
X3139820Y-64340D01*
X3146259Y-68780D01*
X3153100Y-72580D01*
X3160260Y-75700D01*
X3167700Y-78120D01*
X3175340Y-79800D01*
X3179860Y-80360D01*
X3181480Y-80920D01*
X3182720Y-82100D01*
X3183340Y-83699D01*
X3183220Y-85420D01*
X3182420Y-86920D01*
X3181060Y-87960D01*
X3179380Y-88320D01*
X738620Y-88320D01*
X737099Y-88020D01*
X735819Y-87180D01*
X734940Y-85900D01*
X734620Y-84380D01*
X734900Y-82860D01*
X735740Y-81560D01*
X737000Y-80660D01*
X739599Y-79520D01*
X746760Y-75520D01*
X753540Y-70900D01*
X759840Y-65660D01*
X765660Y-59840D01*
X770900Y-53540D01*
X775520Y-46760D01*
X779520Y-39600D01*
X782840Y-32100D01*
X785440Y-24320D01*
X787320Y-16319D01*
X788460Y-8200D01*
X788840Y0D01*
X788460Y8200D01*
X787320Y16319D01*
X785440Y24320D01*
X782840Y32100D01*
X779520Y39600D01*
X775520Y46760D01*
X770900Y53540D01*
X765660Y59840D01*
X759840Y65660D01*
X753540Y70900D01*
X746760Y75520D01*
X739599Y79520D01*
X732099Y82840D01*
X724320Y85440D01*
X716320Y87320D01*
X708199Y88460D01*
X700000Y88840D01*
X691800Y88460D01*
X683680Y87320D01*
X675680Y85440D01*
X667900Y82840D01*
X660400Y79520D01*
X653240Y75520D01*
X646460Y70900D01*
X640160Y65660D01*
X634340Y59840D01*
X629100Y53540D01*
X624480Y46760D01*
X620480Y39600D01*
X617160Y32100D01*
X614560Y24320D01*
X612680Y16319D01*
X611540Y8200D01*
X611160Y0D01*
X611540Y-8200D01*
X612680Y-16319D01*
X614560Y-24320D01*
X617160Y-32100D01*
X620480Y-39600D01*
X624480Y-46760D01*
X629100Y-53540D01*
X634340Y-59840D01*
X640160Y-65660D01*
X646460Y-70900D01*
X653240Y-75520D01*
X660400Y-79520D01*
X663000Y-80660D01*
X664260Y-81560D01*
X665100Y-82860D01*
X665380Y-84380D01*
X665060Y-85900D01*
X664180Y-87180D01*
X662900Y-88020D01*
X661380Y-88320D01*
X504000Y-88320D01*
X502460Y-88020D01*
X501180Y-87160D01*
X500300Y-85860D01*
X500000Y-84320D01*
X500000Y149600D01*
X499600Y150000D01*
X200400Y150000D01*
X200000Y149600D01*
X200000Y-84320D01*
X199700Y-85860D01*
X198820Y-87160D01*
X197540Y-88020D01*
X196000Y-88320D01*
X38620Y-88320D01*
X37100Y-88020D01*
X35820Y-87180D01*
X34940Y-85900D01*
X34620Y-84380D01*
X34900Y-82860D01*
X35740Y-81560D01*
X37000Y-80660D01*
X39600Y-79520D01*
X46760Y-75520D01*
X53540Y-70900D01*
X59840Y-65660D01*
X65660Y-59840D01*
X70900Y-53540D01*
X75520Y-46760D01*
X79520Y-39600D01*
X82840Y-32100D01*
X85440Y-24320D01*
X87320Y-16319D01*
X88460Y-8200D01*
X88840Y0D01*
X88460Y8200D01*
X87320Y16319D01*
X85440Y24320D01*
X82840Y32100D01*
X79520Y39600D01*
X75520Y46760D01*
X70900Y53540D01*
X65660Y59840D01*
X59840Y65660D01*
X53540Y70900D01*
X46760Y75520D01*
X39600Y79520D01*
X32100Y82840D01*
X24320Y85440D01*
X16319Y87320D01*
X8200Y88460D01*
X0Y88840D01*
X-8200Y88460D01*
X-16319Y87320D01*
X-24320Y85440D01*
X-32100Y82840D01*
X-39600Y79520D01*
X-46760Y75520D01*
X-53540Y70900D01*
X-59840Y65660D01*
X-65660Y59840D01*
X-70900Y53540D01*
X-75520Y46760D01*
X-79520Y39600D01*
X-82840Y32100D01*
X-85440Y24320D01*
X-87320Y16319D01*
X-88460Y8200D01*
X-88840Y0D01*
X-88460Y-8200D01*
X-87320Y-16319D01*
X-85440Y-24320D01*
X-82840Y-32100D01*
X-79520Y-39600D01*
X-75520Y-46760D01*
X-70900Y-53540D01*
X-65660Y-59840D01*
X-59840Y-65660D01*
X-53540Y-70900D01*
X-46760Y-75520D01*
X-39600Y-79520D01*
X-37000Y-80660D01*
X-35740Y-81560D01*
X-34900Y-82860D01*
X-34620Y-84380D01*
X-34940Y-85900D01*
X-35820Y-87180D01*
X-37100Y-88020D01*
X-38620Y-88320D01*
G37*

%LPC*%
G36*
X979479Y150380D02*
G01*
X1010520Y150380D01*
X1012980Y150660D01*
X1015120Y151400D01*
X1017020Y152600D01*
X1018620Y154200D01*
X1019820Y156100D01*
X1020560Y158240D01*
X1020840Y160700D01*
X1020840Y162840D01*
X1021140Y164360D01*
X1022020Y165660D01*
X1048180Y191820D01*
X1049300Y192620D01*
X1050660Y192979D01*
X1053840Y193260D01*
X1056220Y193880D01*
X1057920Y193960D01*
X1059500Y193340D01*
X1060680Y192079D01*
X1061220Y190479D01*
X1061400Y188960D01*
X1062140Y186820D01*
X1063340Y184920D01*
X1064940Y183320D01*
X1066840Y182120D01*
X1068980Y181380D01*
X1071440Y181100D01*
X1096700Y181100D01*
X1098220Y180780D01*
X1099520Y179920D01*
X1107980Y171460D01*
X1108840Y170180D01*
X1109140Y168640D01*
X1109140Y160700D01*
X1109420Y158240D01*
X1110180Y156100D01*
X1111380Y154200D01*
X1112960Y152600D01*
X1114880Y151400D01*
X1117000Y150660D01*
X1119480Y150380D01*
X1150520Y150380D01*
X1152980Y150660D01*
X1155120Y151400D01*
X1157020Y152600D01*
X1158620Y154200D01*
X1159820Y156100D01*
X1160560Y158240D01*
X1160840Y160700D01*
X1160840Y162840D01*
X1161140Y164360D01*
X1162020Y165660D01*
X1188180Y191820D01*
X1189300Y192620D01*
X1190660Y192979D01*
X1193840Y193260D01*
X1196220Y193880D01*
X1197920Y193960D01*
X1199500Y193340D01*
X1200680Y192079D01*
X1201220Y190479D01*
X1201400Y188960D01*
X1202140Y186820D01*
X1203340Y184920D01*
X1204940Y183320D01*
X1206840Y182120D01*
X1208980Y181380D01*
X1211440Y181100D01*
X1236700Y181100D01*
X1238220Y180780D01*
X1239520Y179920D01*
X1247980Y171460D01*
X1248840Y170180D01*
X1249140Y168640D01*
X1249140Y160700D01*
X1249420Y158240D01*
X1250180Y156100D01*
X1251380Y154200D01*
X1252960Y152600D01*
X1254880Y151400D01*
X1257000Y150660D01*
X1259480Y150380D01*
X1290520Y150380D01*
X1292980Y150660D01*
X1295120Y151400D01*
X1297020Y152600D01*
X1298620Y154200D01*
X1299820Y156100D01*
X1300560Y158240D01*
X1300840Y160700D01*
X1300840Y162840D01*
X1301140Y164360D01*
X1302020Y165660D01*
X1328180Y191820D01*
X1329300Y192620D01*
X1330660Y192979D01*
X1333839Y193260D01*
X1336220Y193880D01*
X1337920Y193960D01*
X1339500Y193340D01*
X1340680Y192079D01*
X1341220Y190479D01*
X1341399Y188960D01*
X1342140Y186820D01*
X1343340Y184920D01*
X1344940Y183320D01*
X1346840Y182120D01*
X1348980Y181380D01*
X1351440Y181100D01*
X1376699Y181100D01*
X1378220Y180780D01*
X1379520Y179920D01*
X1387980Y171460D01*
X1388839Y170180D01*
X1389139Y168640D01*
X1389139Y160700D01*
X1389420Y158240D01*
X1390180Y156100D01*
X1391380Y154200D01*
X1392960Y152600D01*
X1394880Y151400D01*
X1397000Y150660D01*
X1399480Y150380D01*
X1430520Y150380D01*
X1432980Y150660D01*
X1435120Y151400D01*
X1437020Y152600D01*
X1438620Y154200D01*
X1439820Y156100D01*
X1440560Y158240D01*
X1440840Y160700D01*
X1440840Y162840D01*
X1441140Y164360D01*
X1442020Y165660D01*
X1468180Y191820D01*
X1469300Y192620D01*
X1470660Y192979D01*
X1473839Y193260D01*
X1476220Y193880D01*
X1477920Y193960D01*
X1479500Y193340D01*
X1480680Y192079D01*
X1481220Y190479D01*
X1481399Y188960D01*
X1482140Y186820D01*
X1483340Y184920D01*
X1484940Y183320D01*
X1486840Y182120D01*
X1488980Y181380D01*
X1491440Y181100D01*
X1516699Y181100D01*
X1518220Y180780D01*
X1519520Y179920D01*
X1527980Y171460D01*
X1528839Y170180D01*
X1529139Y168640D01*
X1529139Y160700D01*
X1529420Y158240D01*
X1530180Y156100D01*
X1531380Y154200D01*
X1532960Y152600D01*
X1534880Y151400D01*
X1537000Y150660D01*
X1539480Y150380D01*
X1570520Y150380D01*
X1572980Y150660D01*
X1575120Y151400D01*
X1577020Y152600D01*
X1578620Y154200D01*
X1579820Y156100D01*
X1580560Y158240D01*
X1580840Y160700D01*
X1580840Y162840D01*
X1581140Y164360D01*
X1582020Y165660D01*
X1608180Y191820D01*
X1609300Y192620D01*
X1610660Y192979D01*
X1613839Y193260D01*
X1616220Y193880D01*
X1617920Y193960D01*
X1619500Y193340D01*
X1620680Y192079D01*
X1621220Y190479D01*
X1621399Y188960D01*
X1622140Y186820D01*
X1623340Y184920D01*
X1624940Y183320D01*
X1626840Y182120D01*
X1628980Y181380D01*
X1631440Y181100D01*
X1656699Y181100D01*
X1658220Y180780D01*
X1659520Y179920D01*
X1667980Y171460D01*
X1668839Y170180D01*
X1669139Y168640D01*
X1669139Y160700D01*
X1669420Y158240D01*
X1670180Y156100D01*
X1671380Y154200D01*
X1672960Y152600D01*
X1674880Y151400D01*
X1677000Y150660D01*
X1679480Y150380D01*
X1710520Y150380D01*
X1712980Y150660D01*
X1715120Y151400D01*
X1717020Y152600D01*
X1718620Y154200D01*
X1719820Y156100D01*
X1720560Y158240D01*
X1720840Y160700D01*
X1720840Y179940D01*
X1720560Y182399D01*
X1719820Y184540D01*
X1718620Y186439D01*
X1717880Y187180D01*
X1717020Y188480D01*
X1716720Y190000D01*
X1717020Y191540D01*
X1717880Y192840D01*
X1718620Y193560D01*
X1719820Y195479D01*
X1720560Y197600D01*
X1720840Y200060D01*
X1720840Y219300D01*
X1720560Y221780D01*
X1719820Y223900D01*
X1718620Y225820D01*
X1717020Y227399D01*
X1715120Y228600D01*
X1712980Y229360D01*
X1710520Y229620D01*
X1701500Y229620D01*
X1699960Y229940D01*
X1698680Y230799D01*
X1697800Y232100D01*
X1697500Y233619D01*
X1697500Y276620D01*
X1697840Y278220D01*
X1698779Y279540D01*
X1700560Y280520D01*
X1702460Y281720D01*
X1704060Y283320D01*
X1705260Y285220D01*
X1706000Y287360D01*
X1706279Y289820D01*
X1706279Y338579D01*
X1706020Y340920D01*
X1706180Y342580D01*
X1707000Y344040D01*
X1708360Y345020D01*
X1712980Y345640D01*
X1715120Y346400D01*
X1717020Y347600D01*
X1718620Y349180D01*
X1719820Y351100D01*
X1720580Y353220D01*
X1720840Y355700D01*
X1720840Y374920D01*
X1720580Y377400D01*
X1719820Y379520D01*
X1718620Y381440D01*
X1717900Y382160D01*
X1717020Y383459D01*
X1716720Y385000D01*
X1717020Y386520D01*
X1717900Y387819D01*
X1718620Y388560D01*
X1719820Y390460D01*
X1720580Y392600D01*
X1720840Y395060D01*
X1720840Y397260D01*
X1705380Y397260D01*
X1705380Y389260D01*
X1705060Y387720D01*
X1704199Y386420D01*
X1702900Y385560D01*
X1701380Y385260D01*
X1688620Y385260D01*
X1687100Y385560D01*
X1685800Y386420D01*
X1684940Y387720D01*
X1684620Y389260D01*
X1684620Y397260D01*
X1669160Y397260D01*
X1669160Y394940D01*
X1668839Y393400D01*
X1667980Y392100D01*
X1666680Y391240D01*
X1665160Y390940D01*
X1663620Y391240D01*
X1662320Y392100D01*
X1660800Y393620D01*
X1658899Y394820D01*
X1656759Y395560D01*
X1654300Y395840D01*
X1635060Y395840D01*
X1632600Y395560D01*
X1630460Y394820D01*
X1628560Y393620D01*
X1627820Y392879D01*
X1626519Y392020D01*
X1625000Y391719D01*
X1623460Y392020D01*
X1622160Y392879D01*
X1621579Y393480D01*
X1620720Y394760D01*
X1620420Y396300D01*
X1620420Y405840D01*
X1620760Y407440D01*
X1621740Y411160D01*
X1622080Y415000D01*
X1621740Y418840D01*
X1620760Y422560D01*
X1619120Y426040D01*
X1616920Y429200D01*
X1614199Y431920D01*
X1611040Y434120D01*
X1607560Y435760D01*
X1603839Y436740D01*
X1600000Y437080D01*
X1596160Y436740D01*
X1592440Y435760D01*
X1588959Y434120D01*
X1585800Y431920D01*
X1583080Y429200D01*
X1580220Y425060D01*
X1578959Y423820D01*
X1577300Y423240D01*
X1575540Y423459D01*
X1572980Y424340D01*
X1570520Y424620D01*
X1565380Y424620D01*
X1565380Y412100D01*
X1574940Y412100D01*
X1576620Y411719D01*
X1578000Y410680D01*
X1578800Y409140D01*
X1579240Y407440D01*
X1581819Y401960D01*
X1581740Y400220D01*
X1580940Y398680D01*
X1579580Y397640D01*
X1577880Y397260D01*
X1565380Y397260D01*
X1565380Y389260D01*
X1565060Y387720D01*
X1564199Y386420D01*
X1562900Y385560D01*
X1561380Y385260D01*
X1548620Y385260D01*
X1547100Y385560D01*
X1545800Y386420D01*
X1544940Y387720D01*
X1544620Y389260D01*
X1544620Y397260D01*
X1529160Y397260D01*
X1529160Y394940D01*
X1528839Y393400D01*
X1527980Y392100D01*
X1526680Y391240D01*
X1525160Y390940D01*
X1523620Y391240D01*
X1522320Y392100D01*
X1520800Y393620D01*
X1518899Y394820D01*
X1516759Y395560D01*
X1514300Y395840D01*
X1495060Y395840D01*
X1492600Y395560D01*
X1490460Y394820D01*
X1488560Y393620D01*
X1487820Y392879D01*
X1486519Y392020D01*
X1485000Y391719D01*
X1483460Y392020D01*
X1482160Y392879D01*
X1481579Y393480D01*
X1480720Y394760D01*
X1480420Y396300D01*
X1480420Y405840D01*
X1480760Y407440D01*
X1481740Y411160D01*
X1482080Y415000D01*
X1481740Y418840D01*
X1480760Y422560D01*
X1479120Y426040D01*
X1476920Y429200D01*
X1474199Y431920D01*
X1471040Y434120D01*
X1467560Y435760D01*
X1463839Y436740D01*
X1460000Y437080D01*
X1456160Y436740D01*
X1452440Y435760D01*
X1448959Y434120D01*
X1445800Y431920D01*
X1443080Y429200D01*
X1440220Y425060D01*
X1438959Y423820D01*
X1437300Y423240D01*
X1435540Y423459D01*
X1432980Y424340D01*
X1430520Y424620D01*
X1425380Y424620D01*
X1425380Y412100D01*
X1434940Y412100D01*
X1436620Y411719D01*
X1438000Y410680D01*
X1438800Y409140D01*
X1439240Y407440D01*
X1441819Y401960D01*
X1441740Y400220D01*
X1440940Y398680D01*
X1439580Y397640D01*
X1437880Y397260D01*
X1425380Y397260D01*
X1425380Y389260D01*
X1425060Y387720D01*
X1424199Y386420D01*
X1422900Y385560D01*
X1421380Y385260D01*
X1408620Y385260D01*
X1407100Y385560D01*
X1405800Y386420D01*
X1404940Y387720D01*
X1404620Y389260D01*
X1404620Y397260D01*
X1389160Y397260D01*
X1389160Y394940D01*
X1388839Y393400D01*
X1387980Y392100D01*
X1386680Y391240D01*
X1385160Y390940D01*
X1383620Y391240D01*
X1382320Y392100D01*
X1380800Y393620D01*
X1378899Y394820D01*
X1376759Y395560D01*
X1374300Y395840D01*
X1355060Y395840D01*
X1352600Y395560D01*
X1350460Y394820D01*
X1348560Y393620D01*
X1347820Y392879D01*
X1346519Y392020D01*
X1345000Y391719D01*
X1343460Y392020D01*
X1342160Y392879D01*
X1341579Y393480D01*
X1340720Y394760D01*
X1340420Y396300D01*
X1340420Y405840D01*
X1340760Y407440D01*
X1341740Y411160D01*
X1342080Y415000D01*
X1341740Y418840D01*
X1340760Y422560D01*
X1339120Y426040D01*
X1336920Y429200D01*
X1334199Y431920D01*
X1331040Y434120D01*
X1327560Y435760D01*
X1323839Y436740D01*
X1320000Y437080D01*
X1316160Y436740D01*
X1312440Y435760D01*
X1308959Y434120D01*
X1305800Y431920D01*
X1303080Y429200D01*
X1300220Y425060D01*
X1298959Y423820D01*
X1297300Y423240D01*
X1295540Y423459D01*
X1292980Y424340D01*
X1290520Y424620D01*
X1285380Y424620D01*
X1285380Y412100D01*
X1294940Y412100D01*
X1296620Y411719D01*
X1298000Y410680D01*
X1298800Y409140D01*
X1299240Y407440D01*
X1301819Y401960D01*
X1301740Y400220D01*
X1300940Y398680D01*
X1299580Y397640D01*
X1297880Y397260D01*
X1285380Y397260D01*
X1285380Y389260D01*
X1285060Y387720D01*
X1284199Y386420D01*
X1282900Y385560D01*
X1281380Y385260D01*
X1268620Y385260D01*
X1267100Y385560D01*
X1265800Y386420D01*
X1264940Y387720D01*
X1264620Y389260D01*
X1264620Y397260D01*
X1249160Y397260D01*
X1249160Y394940D01*
X1248840Y393400D01*
X1247980Y392100D01*
X1246680Y391240D01*
X1245160Y390940D01*
X1243620Y391240D01*
X1242320Y392100D01*
X1240800Y393620D01*
X1238900Y394820D01*
X1236760Y395560D01*
X1234300Y395840D01*
X1215060Y395840D01*
X1212600Y395560D01*
X1210460Y394820D01*
X1208560Y393620D01*
X1207820Y392879D01*
X1206520Y392020D01*
X1205000Y391719D01*
X1203460Y392020D01*
X1202160Y392879D01*
X1201580Y393480D01*
X1200720Y394760D01*
X1200420Y396300D01*
X1200420Y405840D01*
X1200760Y407440D01*
X1201740Y411160D01*
X1202080Y415000D01*
X1201740Y418840D01*
X1200760Y422560D01*
X1199120Y426040D01*
X1196920Y429200D01*
X1194200Y431920D01*
X1191040Y434120D01*
X1187560Y435760D01*
X1183840Y436740D01*
X1180000Y437080D01*
X1176160Y436740D01*
X1172440Y435760D01*
X1168960Y434120D01*
X1165800Y431920D01*
X1163080Y429200D01*
X1160220Y425060D01*
X1158960Y423820D01*
X1157300Y423240D01*
X1155540Y423459D01*
X1152980Y424340D01*
X1150520Y424620D01*
X1145380Y424620D01*
X1145380Y412100D01*
X1154940Y412100D01*
X1156620Y411719D01*
X1158000Y410680D01*
X1158800Y409140D01*
X1159240Y407440D01*
X1161820Y401960D01*
X1161740Y400220D01*
X1160940Y398680D01*
X1159580Y397640D01*
X1157880Y397260D01*
X1145380Y397260D01*
X1145380Y389260D01*
X1145060Y387720D01*
X1144200Y386420D01*
X1142900Y385560D01*
X1141380Y385260D01*
X1128620Y385260D01*
X1127100Y385560D01*
X1125800Y386420D01*
X1124940Y387720D01*
X1124620Y389260D01*
X1124620Y397260D01*
X1109160Y397260D01*
X1109160Y394940D01*
X1108840Y393400D01*
X1107980Y392100D01*
X1106680Y391240D01*
X1105160Y390940D01*
X1103620Y391240D01*
X1102320Y392100D01*
X1100800Y393620D01*
X1098900Y394820D01*
X1096760Y395560D01*
X1094300Y395840D01*
X1075060Y395840D01*
X1072600Y395560D01*
X1070460Y394820D01*
X1068560Y393620D01*
X1067820Y392879D01*
X1066520Y392020D01*
X1065000Y391719D01*
X1063460Y392020D01*
X1062160Y392879D01*
X1061580Y393480D01*
X1060720Y394760D01*
X1060420Y396300D01*
X1060420Y405840D01*
X1060760Y407440D01*
X1061740Y411160D01*
X1062080Y415000D01*
X1061740Y418840D01*
X1060760Y422560D01*
X1059120Y426040D01*
X1056920Y429200D01*
X1054200Y431920D01*
X1051040Y434120D01*
X1047560Y435760D01*
X1043840Y436740D01*
X1040000Y437080D01*
X1036160Y436740D01*
X1032440Y435760D01*
X1028960Y434120D01*
X1025800Y431920D01*
X1023080Y429200D01*
X1020220Y425060D01*
X1018960Y423820D01*
X1017300Y423240D01*
X1015540Y423459D01*
X1012980Y424340D01*
X1010520Y424620D01*
X1005380Y424620D01*
X1005380Y412100D01*
X1014940Y412100D01*
X1016620Y411719D01*
X1018000Y410680D01*
X1018800Y409140D01*
X1019240Y407440D01*
X1021820Y401960D01*
X1021740Y400220D01*
X1020939Y398680D01*
X1019580Y397640D01*
X1017880Y397260D01*
X1005380Y397260D01*
X1005380Y389260D01*
X1005060Y387720D01*
X1004200Y386420D01*
X1002900Y385560D01*
X1001380Y385260D01*
X988620Y385260D01*
X987099Y385560D01*
X985800Y386420D01*
X984940Y387720D01*
X984620Y389260D01*
X984620Y397260D01*
X969160Y397260D01*
X969160Y394940D01*
X968840Y393400D01*
X967980Y392100D01*
X966680Y391240D01*
X965160Y390940D01*
X963620Y391240D01*
X962320Y392100D01*
X960800Y393620D01*
X958900Y394820D01*
X956760Y395560D01*
X954300Y395840D01*
X935060Y395840D01*
X932600Y395560D01*
X930460Y394820D01*
X928560Y393620D01*
X927820Y392879D01*
X926520Y392020D01*
X925000Y391719D01*
X923460Y392020D01*
X922159Y392879D01*
X921600Y393459D01*
X920720Y394760D01*
X920420Y396300D01*
X920420Y405840D01*
X920560Y406920D01*
X921760Y411180D01*
X922080Y415000D01*
X921740Y418840D01*
X920759Y422560D01*
X919120Y426040D01*
X916919Y429200D01*
X914200Y431920D01*
X911040Y434120D01*
X907560Y435760D01*
X903840Y436740D01*
X900000Y437080D01*
X896160Y436740D01*
X892440Y435760D01*
X888960Y434120D01*
X885800Y431920D01*
X883080Y429200D01*
X880879Y426040D01*
X879240Y422560D01*
X878259Y418840D01*
X877920Y415000D01*
X878259Y411160D01*
X879240Y407440D01*
X880879Y403960D01*
X883080Y400800D01*
X885800Y398080D01*
X886580Y397540D01*
X887620Y396460D01*
X888199Y395060D01*
X888220Y393540D01*
X887660Y392140D01*
X886400Y390120D01*
X885639Y387980D01*
X885380Y385520D01*
X885380Y354480D01*
X885639Y352000D01*
X886919Y348480D01*
X886900Y346980D01*
X886340Y345600D01*
X884740Y343140D01*
X884000Y341040D01*
X883720Y338579D01*
X883720Y289820D01*
X884000Y287360D01*
X884740Y285220D01*
X885939Y283320D01*
X887540Y281720D01*
X889440Y280520D01*
X891580Y279780D01*
X894040Y279500D01*
X921160Y279500D01*
X923620Y279780D01*
X924460Y280060D01*
X925960Y280280D01*
X927440Y279940D01*
X928680Y279060D01*
X929500Y277780D01*
X929780Y276300D01*
X929820Y253380D01*
X929500Y251759D01*
X928540Y250440D01*
X926840Y249480D01*
X924940Y248280D01*
X923340Y246680D01*
X922140Y244780D01*
X921400Y242680D01*
X921100Y239620D01*
X920560Y237979D01*
X919400Y236720D01*
X917800Y236060D01*
X916080Y236140D01*
X913840Y236740D01*
X910000Y237079D01*
X906160Y236740D01*
X902440Y235760D01*
X898960Y234120D01*
X895800Y231920D01*
X893080Y229200D01*
X890879Y226040D01*
X889240Y222560D01*
X888259Y218840D01*
X887920Y215000D01*
X888259Y211160D01*
X889240Y207440D01*
X890879Y203960D01*
X893080Y200799D01*
X895800Y198080D01*
X898960Y195880D01*
X902440Y194240D01*
X906160Y193260D01*
X910000Y192920D01*
X913840Y193260D01*
X916220Y193880D01*
X917920Y193960D01*
X919500Y193340D01*
X920680Y192079D01*
X921220Y190479D01*
X921400Y188960D01*
X922140Y186820D01*
X923340Y184920D01*
X924940Y183320D01*
X926840Y182120D01*
X928980Y181380D01*
X931440Y181100D01*
X956700Y181100D01*
X958220Y180780D01*
X959520Y179920D01*
X967980Y171460D01*
X968840Y170180D01*
X969140Y168640D01*
X969140Y160700D01*
X969419Y158240D01*
X970180Y156100D01*
X971380Y154200D01*
X972960Y152600D01*
X974880Y151400D01*
X977000Y150660D01*
G37*
G36*
X1529160Y412100D02*
G01*
X1544620Y412100D01*
X1544620Y424620D01*
X1539480Y424620D01*
X1537020Y424340D01*
X1534880Y423600D01*
X1532980Y422400D01*
X1531380Y420800D01*
X1530180Y418900D01*
X1529420Y416760D01*
X1529160Y414300D01*
G37*
G36*
X969160Y412100D02*
G01*
X984620Y412100D01*
X984620Y424620D01*
X979479Y424620D01*
X977020Y424340D01*
X974880Y423600D01*
X972980Y422400D01*
X971380Y420800D01*
X970180Y418900D01*
X969419Y416760D01*
X969160Y414300D01*
G37*
G36*
X1109160Y412100D02*
G01*
X1124620Y412100D01*
X1124620Y424620D01*
X1119480Y424620D01*
X1117020Y424340D01*
X1114880Y423600D01*
X1112980Y422400D01*
X1111380Y420800D01*
X1110180Y418900D01*
X1109420Y416760D01*
X1109160Y414300D01*
G37*
G36*
X1249160Y412100D02*
G01*
X1264620Y412100D01*
X1264620Y424620D01*
X1259480Y424620D01*
X1257020Y424340D01*
X1254880Y423600D01*
X1252980Y422400D01*
X1251380Y420800D01*
X1250180Y418900D01*
X1249420Y416760D01*
X1249160Y414300D01*
G37*
G36*
X1389160Y412100D02*
G01*
X1404620Y412100D01*
X1404620Y424620D01*
X1399480Y424620D01*
X1397020Y424340D01*
X1394880Y423600D01*
X1392980Y422400D01*
X1391380Y420800D01*
X1390180Y418900D01*
X1389420Y416760D01*
X1389160Y414300D01*
G37*
G36*
X1669160Y412100D02*
G01*
X1684620Y412100D01*
X1684620Y424620D01*
X1679480Y424620D01*
X1677020Y424340D01*
X1674880Y423600D01*
X1672980Y422400D01*
X1671380Y420800D01*
X1670180Y418900D01*
X1669420Y416760D01*
X1669160Y414300D01*
G37*
G36*
X1705380Y412100D02*
G01*
X1720840Y412100D01*
X1720840Y414300D01*
X1720580Y416760D01*
X1719820Y418900D01*
X1718620Y420800D01*
X1717020Y422400D01*
X1715120Y423600D01*
X1712980Y424340D01*
X1710520Y424620D01*
X1705380Y424620D01*
G37*
G36*
X3067940Y438880D02*
G01*
X3069160Y438880D01*
X3069160Y455340D01*
X3057620Y455340D01*
X3057620Y449200D01*
X3057900Y446740D01*
X3058639Y444600D01*
X3059840Y442700D01*
X3061440Y441100D01*
X3063340Y439900D01*
X3065480Y439159D01*
G37*
G36*
X3057620Y478040D02*
G01*
X3069160Y478040D01*
X3069160Y494500D01*
X3067940Y494500D01*
X3065480Y494219D01*
X3063340Y493480D01*
X3061440Y492280D01*
X3059840Y490680D01*
X3058639Y488780D01*
X3057900Y486640D01*
X3057620Y484180D01*
G37*
G36*
X3082020Y478040D02*
G01*
X3093560Y478040D01*
X3093560Y484180D01*
X3093279Y486640D01*
X3092540Y488780D01*
X3091340Y490680D01*
X3089740Y492280D01*
X3087840Y493480D01*
X3085700Y494219D01*
X3083240Y494500D01*
X3082020Y494500D01*
G37*
G36*
X2906440Y478040D02*
G01*
X2917980Y478040D01*
X2917980Y494500D01*
X2916760Y494500D01*
X2914300Y494219D01*
X2912160Y493480D01*
X2910260Y492280D01*
X2908660Y490680D01*
X2907460Y488780D01*
X2906720Y486640D01*
X2906440Y484180D01*
G37*
G36*
X2961800Y504900D02*
G01*
X3064800Y504900D01*
X3067940Y505200D01*
X3070779Y506060D01*
X3073380Y507460D01*
X3075820Y509460D01*
X3086139Y519780D01*
X3088140Y522220D01*
X3089540Y524820D01*
X3090400Y527720D01*
X3090779Y528560D01*
X3092540Y531220D01*
X3093279Y533360D01*
X3093560Y535820D01*
X3093560Y570800D01*
X3093279Y573260D01*
X3092540Y575400D01*
X3091340Y577300D01*
X3089740Y578900D01*
X3087840Y580100D01*
X3085700Y580840D01*
X3083240Y581120D01*
X3069100Y581120D01*
X3067559Y581440D01*
X3066280Y582300D01*
X3065400Y583600D01*
X3065100Y585120D01*
X3065100Y602320D01*
X3065400Y603860D01*
X3066280Y605160D01*
X3066920Y605800D01*
X3069120Y608960D01*
X3070760Y612440D01*
X3071740Y616160D01*
X3072080Y620000D01*
X3071740Y623840D01*
X3070760Y627560D01*
X3069120Y631040D01*
X3066920Y634200D01*
X3064200Y636920D01*
X3061040Y639120D01*
X3057559Y640759D01*
X3053840Y641740D01*
X3050000Y642080D01*
X3046160Y641740D01*
X3042440Y640759D01*
X3038960Y639120D01*
X3035800Y636920D01*
X3033080Y634200D01*
X3030880Y631040D01*
X3029240Y627560D01*
X3028260Y623840D01*
X3027919Y620000D01*
X3028260Y616080D01*
X3028039Y614360D01*
X3027100Y612900D01*
X3025640Y611960D01*
X3023920Y611740D01*
X3020000Y612080D01*
X3016160Y611740D01*
X3012440Y610760D01*
X3008960Y609120D01*
X3005800Y606920D01*
X3003080Y604200D01*
X3000880Y601040D01*
X2999240Y597560D01*
X2998260Y593840D01*
X2997919Y590000D01*
X2998260Y586160D01*
X2999240Y582440D01*
X3000880Y578960D01*
X3003080Y575800D01*
X3005260Y573620D01*
X3006139Y572320D01*
X3006440Y570800D01*
X3006440Y539100D01*
X3006139Y537560D01*
X3005260Y536280D01*
X3003960Y535400D01*
X3002440Y535100D01*
X2997559Y535100D01*
X2996040Y535400D01*
X2994740Y536280D01*
X2993860Y537560D01*
X2993560Y539100D01*
X2993560Y570800D01*
X2993279Y573260D01*
X2992540Y575400D01*
X2991340Y577300D01*
X2990080Y578740D01*
X2989520Y580180D01*
X2988140Y582780D01*
X2986120Y585220D01*
X2983180Y588180D01*
X2982380Y589300D01*
X2982020Y590660D01*
X2981740Y593840D01*
X2980760Y597560D01*
X2979120Y601040D01*
X2976920Y604200D01*
X2974200Y606920D01*
X2971040Y609120D01*
X2967559Y610760D01*
X2963840Y611740D01*
X2960000Y612080D01*
X2956160Y611740D01*
X2952440Y610760D01*
X2948960Y609120D01*
X2945800Y606920D01*
X2943080Y604200D01*
X2940880Y601040D01*
X2939240Y597560D01*
X2938260Y593840D01*
X2937919Y590000D01*
X2938420Y584380D01*
X2937940Y582900D01*
X2936920Y581740D01*
X2935539Y581040D01*
X2934000Y580900D01*
X2932060Y581120D01*
X2916760Y581120D01*
X2914300Y580840D01*
X2912160Y580100D01*
X2910260Y578900D01*
X2908660Y577300D01*
X2907460Y575400D01*
X2906480Y573620D01*
X2905140Y572680D01*
X2903540Y572340D01*
X2892440Y572340D01*
X2889300Y572040D01*
X2886460Y571180D01*
X2883860Y569780D01*
X2881600Y567920D01*
X2880580Y567320D01*
X2879420Y567040D01*
X2876160Y566740D01*
X2872440Y565760D01*
X2868960Y564120D01*
X2865800Y561920D01*
X2863080Y559200D01*
X2860880Y556040D01*
X2859240Y552560D01*
X2858260Y548840D01*
X2857919Y545000D01*
X2858260Y541160D01*
X2859240Y537440D01*
X2860880Y533960D01*
X2863080Y530800D01*
X2865800Y528080D01*
X2868960Y525880D01*
X2872440Y524240D01*
X2876160Y523260D01*
X2880000Y522920D01*
X2883840Y523260D01*
X2887559Y524240D01*
X2891040Y525880D01*
X2894200Y528080D01*
X2896920Y530800D01*
X2900120Y535340D01*
X2901460Y536160D01*
X2903000Y536380D01*
X2904540Y536000D01*
X2905779Y535060D01*
X2906580Y533720D01*
X2907460Y531220D01*
X2908660Y529320D01*
X2910260Y527720D01*
X2912160Y526520D01*
X2914300Y525780D01*
X2916760Y525500D01*
X2933759Y525500D01*
X2934880Y525120D01*
X2935840Y524400D01*
X2950779Y509460D01*
X2953220Y507460D01*
X2955840Y506060D01*
X2958660Y505200D01*
G37*
G36*
X1100200Y504900D02*
G01*
X2719800Y504900D01*
X2722940Y505200D01*
X2725779Y506060D01*
X2728380Y507460D01*
X2730820Y509460D01*
X2920539Y699180D01*
X2922540Y701620D01*
X2923940Y704220D01*
X2924800Y707060D01*
X2925100Y710200D01*
X2925100Y1119080D01*
X2925400Y1120620D01*
X2926280Y1121920D01*
X2978580Y1174220D01*
X2979880Y1175100D01*
X2981420Y1175400D01*
X3024380Y1175400D01*
X3026840Y1175680D01*
X3028980Y1176420D01*
X3030880Y1177620D01*
X3032480Y1179220D01*
X3033680Y1181120D01*
X3034420Y1183260D01*
X3034700Y1185720D01*
X3034700Y1246280D01*
X3034420Y1248740D01*
X3033680Y1250880D01*
X3032480Y1252780D01*
X3030880Y1254380D01*
X3028980Y1255580D01*
X3027120Y1256220D01*
X3025720Y1257060D01*
X3024780Y1258400D01*
X3024440Y1260000D01*
X3024780Y1261600D01*
X3025720Y1262940D01*
X3027120Y1263780D01*
X3028980Y1264420D01*
X3030880Y1265620D01*
X3032480Y1267220D01*
X3033680Y1269120D01*
X3034420Y1271260D01*
X3034700Y1273720D01*
X3034700Y1286240D01*
X3014300Y1286240D01*
X3014300Y1260600D01*
X3014000Y1259060D01*
X3013120Y1257780D01*
X3011840Y1256900D01*
X3010299Y1256600D01*
X2987700Y1256600D01*
X2986160Y1256900D01*
X2984880Y1257780D01*
X2984000Y1259060D01*
X2983700Y1260600D01*
X2983700Y1286240D01*
X2963300Y1286240D01*
X2963300Y1273720D01*
X2963580Y1271260D01*
X2964320Y1269120D01*
X2965520Y1267220D01*
X2967120Y1265620D01*
X2969020Y1264420D01*
X2970880Y1263780D01*
X2972280Y1262940D01*
X2973220Y1261600D01*
X2973560Y1260000D01*
X2973220Y1258400D01*
X2972280Y1257060D01*
X2970880Y1256220D01*
X2969020Y1255580D01*
X2967120Y1254380D01*
X2965520Y1252780D01*
X2964320Y1250880D01*
X2963580Y1248740D01*
X2963300Y1246280D01*
X2963300Y1203320D01*
X2963000Y1201780D01*
X2962120Y1200480D01*
X2899460Y1137820D01*
X2897460Y1135380D01*
X2896060Y1132780D01*
X2895200Y1129940D01*
X2894900Y1126800D01*
X2894900Y717920D01*
X2894600Y716380D01*
X2893720Y715080D01*
X2714920Y536280D01*
X2713620Y535400D01*
X2712080Y535100D01*
X1107920Y535100D01*
X1106380Y535400D01*
X1105080Y536280D01*
X1092680Y548660D01*
X1091740Y550140D01*
X1091540Y551880D01*
X1092080Y553560D01*
X1093300Y554820D01*
X1094920Y555460D01*
X1100200Y554900D01*
X2519800Y554900D01*
X2522940Y555200D01*
X2525780Y556060D01*
X2528380Y557460D01*
X2530820Y559460D01*
X2560539Y589180D01*
X2562540Y591620D01*
X2563940Y594220D01*
X2564800Y597060D01*
X2565100Y600200D01*
X2565100Y1172080D01*
X2565400Y1173620D01*
X2566280Y1174920D01*
X2679080Y1287720D01*
X2680380Y1288600D01*
X2681920Y1288899D01*
X2781300Y1288899D01*
X2782840Y1288600D01*
X2784120Y1287720D01*
X2785000Y1286440D01*
X2785299Y1284900D01*
X2785299Y1273720D01*
X2785580Y1271260D01*
X2786320Y1269120D01*
X2787520Y1267220D01*
X2789120Y1265620D01*
X2791019Y1264420D01*
X2792880Y1263780D01*
X2794280Y1262940D01*
X2795220Y1261600D01*
X2795560Y1260000D01*
X2795220Y1258400D01*
X2794280Y1257060D01*
X2792880Y1256220D01*
X2791019Y1255580D01*
X2789120Y1254380D01*
X2787520Y1252780D01*
X2786320Y1250880D01*
X2785580Y1248740D01*
X2785299Y1246280D01*
X2785299Y1233740D01*
X2805700Y1233740D01*
X2805700Y1259400D01*
X2806000Y1260940D01*
X2806880Y1262220D01*
X2808159Y1263100D01*
X2809700Y1263400D01*
X2832300Y1263400D01*
X2833840Y1263100D01*
X2835120Y1262220D01*
X2836000Y1260940D01*
X2836300Y1259400D01*
X2836300Y1233740D01*
X2856700Y1233740D01*
X2856700Y1246280D01*
X2856420Y1248740D01*
X2855680Y1250880D01*
X2854480Y1252780D01*
X2852880Y1254380D01*
X2850980Y1255580D01*
X2849120Y1256220D01*
X2847720Y1257060D01*
X2846780Y1258400D01*
X2846440Y1260000D01*
X2846780Y1261600D01*
X2847720Y1262940D01*
X2849120Y1263780D01*
X2850980Y1264420D01*
X2852880Y1265620D01*
X2854480Y1267220D01*
X2855680Y1269120D01*
X2856420Y1271260D01*
X2856700Y1273720D01*
X2856700Y1334280D01*
X2856420Y1336740D01*
X2855680Y1338880D01*
X2854480Y1340780D01*
X2852880Y1342380D01*
X2850980Y1343580D01*
X2848840Y1344319D01*
X2846380Y1344600D01*
X2795620Y1344600D01*
X2793159Y1344319D01*
X2791019Y1343580D01*
X2789120Y1342380D01*
X2787520Y1340780D01*
X2786320Y1338880D01*
X2785580Y1336740D01*
X2785299Y1334280D01*
X2785299Y1323100D01*
X2785000Y1321560D01*
X2784120Y1320280D01*
X2782840Y1319400D01*
X2781300Y1319100D01*
X2674200Y1319100D01*
X2671060Y1318800D01*
X2668220Y1317940D01*
X2665620Y1316540D01*
X2663180Y1314540D01*
X2539460Y1190820D01*
X2537460Y1188380D01*
X2536060Y1185780D01*
X2535200Y1182940D01*
X2534900Y1179800D01*
X2534900Y607920D01*
X2534600Y606380D01*
X2533720Y605080D01*
X2514920Y586280D01*
X2513620Y585400D01*
X2512080Y585100D01*
X1107920Y585100D01*
X1106380Y585400D01*
X1105080Y586280D01*
X980819Y710540D01*
X978379Y712540D01*
X975780Y713940D01*
X972940Y714800D01*
X969800Y715100D01*
X789640Y715100D01*
X788220Y715360D01*
X786960Y716140D01*
X786080Y717300D01*
X784500Y720440D01*
X781460Y724840D01*
X777880Y728820D01*
X773780Y732280D01*
X769260Y735160D01*
X764400Y737420D01*
X759300Y739000D01*
X754020Y739880D01*
X748660Y740060D01*
X743340Y739539D01*
X738120Y738300D01*
X733120Y736360D01*
X728420Y733800D01*
X724120Y730620D01*
X721880Y728460D01*
X720580Y727620D01*
X719060Y727320D01*
X717540Y727640D01*
X716260Y728520D01*
X715400Y729800D01*
X715100Y731320D01*
X715100Y768680D01*
X715400Y770200D01*
X716260Y771480D01*
X717540Y772360D01*
X719060Y772680D01*
X720580Y772380D01*
X721880Y771540D01*
X724120Y769380D01*
X728420Y766200D01*
X733120Y763640D01*
X738120Y761700D01*
X743340Y760460D01*
X748660Y759940D01*
X754020Y760120D01*
X759300Y761000D01*
X764400Y762580D01*
X769260Y764840D01*
X773780Y767720D01*
X777880Y771180D01*
X781460Y775160D01*
X784500Y779560D01*
X786080Y782700D01*
X786960Y783860D01*
X788220Y784640D01*
X789640Y784900D01*
X829800Y784900D01*
X832940Y785200D01*
X835780Y786060D01*
X838379Y787460D01*
X840819Y789460D01*
X1095080Y1043720D01*
X1096380Y1044599D01*
X1097920Y1044900D01*
X1118160Y1044900D01*
X1119840Y1044520D01*
X1121220Y1043480D01*
X1122020Y1041940D01*
X1122100Y1040200D01*
X1121440Y1038600D01*
X1119040Y1035180D01*
X1117420Y1031720D01*
X1116440Y1028040D01*
X1116080Y1024060D01*
X1116080Y1007240D01*
X1115780Y1005699D01*
X1114460Y1003940D01*
X1112460Y1001500D01*
X1111060Y998900D01*
X1110200Y996080D01*
X1109900Y992940D01*
X1109900Y818199D01*
X1109560Y816600D01*
X1108620Y815260D01*
X1107220Y814419D01*
X1104880Y813600D01*
X1102980Y812400D01*
X1101380Y810800D01*
X1100180Y808900D01*
X1099420Y806760D01*
X1099160Y804300D01*
X1099160Y785060D01*
X1099420Y782600D01*
X1100180Y780460D01*
X1101380Y778560D01*
X1102100Y777820D01*
X1102980Y776520D01*
X1103280Y775000D01*
X1102980Y773460D01*
X1102100Y772159D01*
X1101380Y771440D01*
X1100180Y769520D01*
X1099420Y767400D01*
X1099160Y764920D01*
X1099160Y762740D01*
X1114620Y762740D01*
X1114620Y770740D01*
X1114940Y772260D01*
X1115800Y773560D01*
X1117100Y774440D01*
X1118620Y774740D01*
X1131380Y774740D01*
X1132900Y774440D01*
X1134200Y773560D01*
X1135060Y772260D01*
X1135380Y770740D01*
X1135380Y762740D01*
X1169620Y762740D01*
X1169620Y770740D01*
X1169940Y772260D01*
X1170800Y773560D01*
X1172100Y774440D01*
X1173620Y774740D01*
X1186380Y774740D01*
X1187900Y774440D01*
X1189200Y773560D01*
X1190060Y772260D01*
X1190380Y770740D01*
X1190380Y762740D01*
X1205840Y762740D01*
X1205840Y764920D01*
X1205580Y767400D01*
X1204820Y769520D01*
X1203620Y771440D01*
X1202900Y772159D01*
X1202020Y773460D01*
X1201720Y775000D01*
X1202020Y776520D01*
X1202900Y777820D01*
X1203620Y778560D01*
X1204820Y780460D01*
X1205580Y782600D01*
X1205840Y785060D01*
X1205840Y804300D01*
X1205580Y806760D01*
X1204820Y808900D01*
X1203620Y810800D01*
X1202020Y812400D01*
X1200120Y813600D01*
X1197780Y814419D01*
X1196380Y815260D01*
X1195440Y816600D01*
X1195100Y818199D01*
X1195100Y964720D01*
X1195380Y966180D01*
X1196200Y967460D01*
X1197400Y968340D01*
X1198940Y969060D01*
X1202080Y971240D01*
X1204780Y973940D01*
X1206960Y977060D01*
X1208580Y980520D01*
X1209140Y982620D01*
X1209940Y984160D01*
X1211300Y985220D01*
X1213000Y985580D01*
X1214700Y985220D01*
X1216060Y984160D01*
X1216860Y982620D01*
X1217420Y980520D01*
X1219040Y977060D01*
X1221220Y973940D01*
X1223920Y971240D01*
X1227060Y969060D01*
X1230520Y967440D01*
X1234200Y966460D01*
X1238000Y966120D01*
X1241800Y966460D01*
X1245480Y967440D01*
X1248940Y969060D01*
X1252080Y971240D01*
X1254780Y973940D01*
X1256960Y977060D01*
X1258580Y980520D01*
X1259140Y982620D01*
X1259940Y984160D01*
X1261300Y985220D01*
X1263000Y985580D01*
X1264700Y985220D01*
X1266060Y984160D01*
X1266860Y982620D01*
X1267420Y980520D01*
X1269040Y977060D01*
X1271220Y973940D01*
X1273920Y971240D01*
X1277060Y969060D01*
X1279600Y967860D01*
X1279600Y988660D01*
X1263920Y988660D01*
X1262380Y988960D01*
X1261080Y989840D01*
X1260220Y991140D01*
X1259920Y992660D01*
X1259920Y1019580D01*
X1260220Y1021120D01*
X1261080Y1022420D01*
X1262380Y1023280D01*
X1263920Y1023580D01*
X1279600Y1023580D01*
X1279600Y1047580D01*
X1279900Y1049120D01*
X1280760Y1050420D01*
X1294079Y1063720D01*
X1295380Y1064600D01*
X1296920Y1064900D01*
X1326800Y1064900D01*
X1328400Y1064560D01*
X1329740Y1063620D01*
X1330580Y1062220D01*
X1331399Y1059880D01*
X1332600Y1057980D01*
X1334199Y1056380D01*
X1336100Y1055180D01*
X1338240Y1054420D01*
X1340700Y1054160D01*
X1359940Y1054160D01*
X1362400Y1054420D01*
X1364540Y1055180D01*
X1366440Y1056380D01*
X1367180Y1057100D01*
X1368480Y1057980D01*
X1370000Y1058280D01*
X1371540Y1057980D01*
X1372840Y1057100D01*
X1373720Y1056220D01*
X1374600Y1054920D01*
X1374900Y1053380D01*
X1374900Y1052680D01*
X1374600Y1051140D01*
X1373720Y1049840D01*
X1373080Y1049200D01*
X1370880Y1046040D01*
X1369240Y1042560D01*
X1368260Y1038840D01*
X1367920Y1035000D01*
X1368260Y1031160D01*
X1369240Y1027440D01*
X1370880Y1023960D01*
X1373080Y1020800D01*
X1375800Y1018080D01*
X1378959Y1015879D01*
X1382440Y1014240D01*
X1386160Y1013259D01*
X1390000Y1012920D01*
X1393839Y1013259D01*
X1397560Y1014240D01*
X1401040Y1015879D01*
X1404199Y1018080D01*
X1406920Y1020800D01*
X1409120Y1023960D01*
X1410760Y1027440D01*
X1411740Y1031160D01*
X1412080Y1035000D01*
X1411740Y1038840D01*
X1410760Y1042560D01*
X1409120Y1046040D01*
X1406920Y1049200D01*
X1406279Y1049840D01*
X1405400Y1051140D01*
X1405100Y1052680D01*
X1405100Y1054000D01*
X1405400Y1055540D01*
X1406279Y1056840D01*
X1407400Y1057980D01*
X1408600Y1059880D01*
X1409360Y1062020D01*
X1409640Y1064480D01*
X1409640Y1095520D01*
X1409360Y1097980D01*
X1408600Y1100120D01*
X1407400Y1102020D01*
X1405820Y1103620D01*
X1403899Y1104820D01*
X1401780Y1105580D01*
X1399300Y1105840D01*
X1380080Y1105840D01*
X1377600Y1105580D01*
X1375480Y1104820D01*
X1373560Y1103620D01*
X1372840Y1102900D01*
X1371540Y1102020D01*
X1370000Y1101720D01*
X1368480Y1102020D01*
X1367180Y1102900D01*
X1366440Y1103620D01*
X1364540Y1104820D01*
X1362400Y1105580D01*
X1359940Y1105840D01*
X1340700Y1105840D01*
X1338240Y1105580D01*
X1336100Y1104820D01*
X1334199Y1103620D01*
X1332600Y1102020D01*
X1331399Y1100120D01*
X1330580Y1097780D01*
X1329740Y1096380D01*
X1328400Y1095440D01*
X1326800Y1095100D01*
X1289199Y1095100D01*
X1286060Y1094800D01*
X1283220Y1093940D01*
X1280620Y1092540D01*
X1278180Y1090540D01*
X1233920Y1046280D01*
X1233100Y1045639D01*
X1232140Y1045240D01*
X1230520Y1044820D01*
X1227060Y1043199D01*
X1223920Y1041000D01*
X1221220Y1038319D01*
X1219040Y1035180D01*
X1217420Y1031720D01*
X1216860Y1029640D01*
X1216060Y1028100D01*
X1214700Y1027039D01*
X1213000Y1026660D01*
X1211300Y1027039D01*
X1209940Y1028100D01*
X1209140Y1029640D01*
X1208580Y1031720D01*
X1206960Y1035180D01*
X1204780Y1038319D01*
X1204280Y1038820D01*
X1203400Y1040100D01*
X1203100Y1041640D01*
X1203100Y1046320D01*
X1203400Y1047860D01*
X1204280Y1049160D01*
X1204920Y1049800D01*
X1207120Y1052960D01*
X1208760Y1056440D01*
X1209740Y1060160D01*
X1210080Y1064000D01*
X1209740Y1067840D01*
X1208760Y1071560D01*
X1207120Y1075040D01*
X1204920Y1078200D01*
X1202200Y1080920D01*
X1199040Y1083120D01*
X1195560Y1084760D01*
X1191840Y1085740D01*
X1188660Y1086020D01*
X1187300Y1086380D01*
X1186180Y1087180D01*
X1162820Y1110540D01*
X1160380Y1112540D01*
X1157780Y1113940D01*
X1154940Y1114800D01*
X1151800Y1115100D01*
X1070200Y1115100D01*
X1067060Y1114800D01*
X1064220Y1113940D01*
X1061620Y1112540D01*
X1059180Y1110540D01*
X864920Y916280D01*
X863620Y915400D01*
X862080Y915100D01*
X789640Y915100D01*
X788220Y915360D01*
X786960Y916140D01*
X786080Y917300D01*
X784500Y920440D01*
X781460Y924840D01*
X777880Y928820D01*
X773780Y932280D01*
X769260Y935160D01*
X764400Y937420D01*
X759300Y939000D01*
X754020Y939880D01*
X748660Y940060D01*
X743340Y939539D01*
X738120Y938300D01*
X733120Y936360D01*
X728420Y933800D01*
X724120Y930620D01*
X721880Y928460D01*
X720580Y927620D01*
X719060Y927320D01*
X717540Y927640D01*
X716260Y928520D01*
X715400Y929800D01*
X715100Y931320D01*
X715100Y942080D01*
X715400Y943620D01*
X716280Y944920D01*
X732640Y961280D01*
X733900Y962140D01*
X735400Y962440D01*
X736900Y962180D01*
X738120Y961700D01*
X743340Y960460D01*
X748660Y959940D01*
X754020Y960120D01*
X759300Y961000D01*
X764400Y962580D01*
X769260Y964840D01*
X773780Y967720D01*
X777880Y971180D01*
X781460Y975160D01*
X784500Y979560D01*
X786900Y984340D01*
X788660Y989400D01*
X789740Y994659D01*
X790100Y1000000D01*
X789740Y1005340D01*
X788660Y1010600D01*
X786900Y1015660D01*
X784500Y1020440D01*
X781460Y1024840D01*
X777880Y1028820D01*
X773780Y1032280D01*
X769260Y1035160D01*
X764400Y1037420D01*
X759300Y1039000D01*
X754020Y1039880D01*
X748660Y1040060D01*
X743340Y1039539D01*
X738120Y1038300D01*
X733120Y1036360D01*
X728420Y1033800D01*
X724120Y1030620D01*
X720260Y1026900D01*
X716940Y1022680D01*
X714220Y1018080D01*
X712120Y1013160D01*
X710720Y1007980D01*
X710000Y1002680D01*
X710000Y997320D01*
X710720Y992020D01*
X712240Y986480D01*
X712380Y985080D01*
X712020Y983720D01*
X711220Y982580D01*
X689460Y960819D01*
X687460Y958379D01*
X686060Y955780D01*
X685200Y952940D01*
X684900Y949800D01*
X684900Y680200D01*
X685200Y677060D01*
X686060Y674220D01*
X687460Y671620D01*
X689460Y669180D01*
X719180Y639460D01*
X721620Y637460D01*
X722940Y636760D01*
X724120Y635820D01*
X724840Y634520D01*
X725060Y633020D01*
X724700Y631580D01*
X723840Y630340D01*
X720260Y626900D01*
X716940Y622680D01*
X713120Y616260D01*
X711820Y615400D01*
X710300Y615100D01*
X-10360Y615100D01*
X-11780Y615360D01*
X-13040Y616140D01*
X-13919Y617300D01*
X-15500Y620440D01*
X-18540Y624840D01*
X-22120Y628820D01*
X-26220Y632280D01*
X-30740Y635160D01*
X-35600Y637420D01*
X-40700Y639000D01*
X-45980Y639880D01*
X-51340Y640060D01*
X-56660Y639540D01*
X-61880Y638300D01*
X-66880Y636360D01*
X-71580Y633800D01*
X-75880Y630620D01*
X-79740Y626900D01*
X-83059Y622680D01*
X-85780Y618080D01*
X-87880Y613160D01*
X-89280Y607980D01*
X-90000Y602680D01*
X-90000Y597320D01*
X-89280Y592020D01*
X-87880Y586840D01*
X-85780Y581920D01*
X-83059Y577320D01*
X-79740Y573100D01*
X-75880Y569380D01*
X-71580Y566200D01*
X-66880Y563640D01*
X-61880Y561700D01*
X-56660Y560460D01*
X-51340Y559940D01*
X-45980Y560120D01*
X-40700Y561000D01*
X-35600Y562580D01*
X-30740Y564840D01*
X-26220Y567720D01*
X-22120Y571180D01*
X-18540Y575160D01*
X-15500Y579560D01*
X-13919Y582700D01*
X-13040Y583860D01*
X-11780Y584640D01*
X-10360Y584900D01*
X710300Y584900D01*
X711820Y584600D01*
X713120Y583740D01*
X716940Y577320D01*
X720260Y573100D01*
X724120Y569380D01*
X728420Y566200D01*
X733120Y563640D01*
X738120Y561700D01*
X743340Y560460D01*
X748660Y559940D01*
X754020Y560120D01*
X759300Y561000D01*
X764400Y562580D01*
X769260Y564840D01*
X773780Y567720D01*
X777880Y571180D01*
X781460Y575160D01*
X784500Y579560D01*
X786900Y584340D01*
X788660Y589400D01*
X789740Y594660D01*
X790100Y600000D01*
X789740Y605340D01*
X788660Y610600D01*
X786900Y615660D01*
X784500Y620440D01*
X781460Y624840D01*
X778420Y628220D01*
X777620Y629520D01*
X777380Y631040D01*
X777720Y632520D01*
X778600Y633780D01*
X779880Y634600D01*
X781380Y634900D01*
X962080Y634900D01*
X963620Y634600D01*
X964920Y633720D01*
X1089180Y509460D01*
X1091620Y507460D01*
X1094220Y506060D01*
X1097060Y505200D01*
G37*
G36*
X1743000Y610000D02*
G01*
X1748340Y610000D01*
X1753660Y610720D01*
X1758820Y612120D01*
X1763760Y614220D01*
X1768360Y616940D01*
X1772560Y620260D01*
X1776279Y624120D01*
X1779460Y628420D01*
X1782040Y633120D01*
X1783959Y638120D01*
X1785200Y643340D01*
X1785740Y648660D01*
X1785560Y654020D01*
X1784660Y659300D01*
X1783080Y664400D01*
X1780820Y669260D01*
X1777940Y673780D01*
X1774480Y677880D01*
X1770520Y681460D01*
X1766100Y684500D01*
X1761320Y686900D01*
X1756260Y688660D01*
X1751020Y689740D01*
X1745660Y690100D01*
X1740320Y689740D01*
X1735080Y688660D01*
X1730020Y686900D01*
X1725240Y684500D01*
X1720820Y681460D01*
X1716860Y677880D01*
X1713400Y673780D01*
X1710520Y669260D01*
X1708260Y664400D01*
X1706680Y659300D01*
X1705780Y654020D01*
X1705600Y648660D01*
X1706140Y643340D01*
X1707380Y638120D01*
X1709300Y633120D01*
X1711879Y628420D01*
X1715060Y624120D01*
X1718779Y620260D01*
X1722980Y616940D01*
X1727580Y614220D01*
X1732520Y612120D01*
X1737680Y610720D01*
G37*
G36*
X2443000Y610000D02*
G01*
X2448340Y610000D01*
X2453660Y610720D01*
X2458820Y612120D01*
X2463760Y614220D01*
X2468360Y616940D01*
X2472560Y620260D01*
X2476280Y624120D01*
X2479460Y628420D01*
X2482040Y633120D01*
X2483960Y638120D01*
X2485200Y643340D01*
X2485740Y648660D01*
X2485560Y654020D01*
X2484660Y659300D01*
X2483080Y664400D01*
X2480820Y669260D01*
X2477940Y673780D01*
X2474480Y677880D01*
X2470520Y681460D01*
X2466100Y684500D01*
X2461320Y686900D01*
X2456260Y688660D01*
X2451020Y689740D01*
X2445660Y690100D01*
X2440320Y689740D01*
X2435080Y688660D01*
X2430020Y686900D01*
X2425240Y684500D01*
X2420820Y681460D01*
X2416860Y677880D01*
X2413400Y673780D01*
X2410520Y669260D01*
X2408260Y664400D01*
X2406680Y659300D01*
X2405780Y654020D01*
X2405600Y648660D01*
X2406140Y643340D01*
X2407380Y638120D01*
X2409300Y633120D01*
X2411880Y628420D01*
X2415060Y624120D01*
X2418780Y620260D01*
X2422980Y616940D01*
X2427580Y614220D01*
X2432520Y612120D01*
X2437680Y610720D01*
G37*
G36*
X1843000Y610000D02*
G01*
X1848340Y610000D01*
X1853660Y610720D01*
X1858820Y612120D01*
X1863760Y614220D01*
X1868360Y616940D01*
X1872560Y620260D01*
X1876279Y624120D01*
X1879460Y628420D01*
X1882040Y633120D01*
X1883959Y638120D01*
X1885200Y643340D01*
X1885740Y648660D01*
X1885560Y654020D01*
X1884660Y659300D01*
X1883080Y664400D01*
X1880820Y669260D01*
X1877940Y673780D01*
X1874480Y677880D01*
X1870520Y681460D01*
X1866100Y684500D01*
X1863000Y686060D01*
X1861840Y686940D01*
X1861060Y688199D01*
X1860800Y689640D01*
X1860800Y1114100D01*
X1860500Y1117240D01*
X1859640Y1120080D01*
X1858240Y1122680D01*
X1856240Y1125120D01*
X1833280Y1148080D01*
X1832420Y1149360D01*
X1832120Y1150900D01*
X1832420Y1152440D01*
X1833280Y1153720D01*
X1834580Y1154600D01*
X1836120Y1154900D01*
X1882080Y1154900D01*
X1883620Y1154600D01*
X1884920Y1153720D01*
X1929420Y1109220D01*
X1930300Y1107920D01*
X1930600Y1106380D01*
X1930600Y689659D01*
X1930340Y688220D01*
X1929560Y686979D01*
X1928400Y686100D01*
X1925240Y684500D01*
X1920820Y681460D01*
X1916860Y677880D01*
X1913400Y673780D01*
X1910520Y669260D01*
X1908260Y664400D01*
X1906680Y659300D01*
X1905780Y654020D01*
X1905600Y648660D01*
X1906140Y643340D01*
X1907380Y638120D01*
X1909300Y633120D01*
X1911879Y628420D01*
X1915060Y624120D01*
X1918779Y620260D01*
X1922980Y616940D01*
X1927580Y614220D01*
X1932520Y612120D01*
X1937680Y610720D01*
X1943000Y610000D01*
X1948340Y610000D01*
X1953660Y610720D01*
X1958820Y612120D01*
X1963760Y614220D01*
X1968360Y616940D01*
X1972560Y620260D01*
X1976279Y624120D01*
X1979460Y628420D01*
X1982040Y633120D01*
X1983959Y638120D01*
X1985200Y643340D01*
X1985740Y648660D01*
X1985560Y654020D01*
X1984660Y659300D01*
X1983080Y664400D01*
X1980820Y669260D01*
X1977940Y673780D01*
X1974480Y677880D01*
X1970520Y681460D01*
X1966100Y684500D01*
X1963000Y686060D01*
X1961840Y686940D01*
X1961060Y688199D01*
X1960800Y689640D01*
X1960800Y1114100D01*
X1960500Y1117240D01*
X1959640Y1120080D01*
X1958240Y1122680D01*
X1956240Y1125120D01*
X1900820Y1180540D01*
X1898380Y1182540D01*
X1895780Y1183940D01*
X1892940Y1184800D01*
X1889800Y1185100D01*
X1309240Y1185100D01*
X1307560Y1185480D01*
X1306180Y1186520D01*
X1305380Y1188060D01*
X1305300Y1189800D01*
X1305960Y1191400D01*
X1306960Y1192820D01*
X1308580Y1196280D01*
X1309560Y1199960D01*
X1309920Y1203940D01*
X1309920Y1239800D01*
X1309560Y1243780D01*
X1308580Y1247480D01*
X1306960Y1250940D01*
X1304780Y1254060D01*
X1302080Y1256760D01*
X1298940Y1258940D01*
X1295480Y1260560D01*
X1291800Y1261540D01*
X1288000Y1261880D01*
X1284199Y1261540D01*
X1280520Y1260560D01*
X1277060Y1258940D01*
X1273920Y1256760D01*
X1271220Y1254060D01*
X1269040Y1250940D01*
X1267420Y1247480D01*
X1266860Y1245380D01*
X1266060Y1243840D01*
X1264700Y1242780D01*
X1263000Y1242420D01*
X1261300Y1242780D01*
X1259940Y1243840D01*
X1259140Y1245380D01*
X1258580Y1247480D01*
X1256960Y1250940D01*
X1254580Y1254320D01*
X1253940Y1255840D01*
X1253960Y1257480D01*
X1254640Y1258980D01*
X1255860Y1260080D01*
X1257980Y1260660D01*
X1260120Y1261400D01*
X1262020Y1262600D01*
X1263620Y1264200D01*
X1264820Y1266100D01*
X1265580Y1268240D01*
X1265840Y1270700D01*
X1265840Y1289940D01*
X1265580Y1292400D01*
X1264820Y1294540D01*
X1263620Y1296440D01*
X1262900Y1297180D01*
X1262020Y1298480D01*
X1261720Y1300000D01*
X1262020Y1301540D01*
X1262900Y1302840D01*
X1263620Y1303560D01*
X1264820Y1305480D01*
X1265580Y1307600D01*
X1265840Y1310080D01*
X1265840Y1329300D01*
X1265580Y1331780D01*
X1264820Y1333899D01*
X1263620Y1335820D01*
X1262020Y1337400D01*
X1260120Y1338600D01*
X1257980Y1339360D01*
X1255520Y1339640D01*
X1224480Y1339640D01*
X1222020Y1339360D01*
X1219880Y1338600D01*
X1217980Y1337400D01*
X1216520Y1335960D01*
X1215220Y1335080D01*
X1213680Y1334780D01*
X1212320Y1334780D01*
X1210780Y1335080D01*
X1209480Y1335960D01*
X1208020Y1337400D01*
X1206120Y1338600D01*
X1203980Y1339360D01*
X1201520Y1339640D01*
X1170480Y1339640D01*
X1168020Y1339360D01*
X1165880Y1338600D01*
X1163980Y1337400D01*
X1162140Y1335580D01*
X1160880Y1334720D01*
X1159380Y1334420D01*
X1155480Y1334360D01*
X1153920Y1334640D01*
X1149040Y1338120D01*
X1145560Y1339760D01*
X1141840Y1340740D01*
X1138000Y1341080D01*
X1134160Y1340740D01*
X1130440Y1339760D01*
X1126960Y1338120D01*
X1123800Y1335920D01*
X1121080Y1333200D01*
X1118880Y1330040D01*
X1117240Y1326560D01*
X1116260Y1322840D01*
X1115920Y1319000D01*
X1116260Y1315160D01*
X1117240Y1311440D01*
X1118880Y1307960D01*
X1121080Y1304800D01*
X1121720Y1304160D01*
X1122600Y1302860D01*
X1122900Y1301320D01*
X1122900Y1257380D01*
X1122600Y1255860D01*
X1121720Y1254560D01*
X1121220Y1254060D01*
X1119040Y1250940D01*
X1117420Y1247480D01*
X1116440Y1243780D01*
X1116080Y1239800D01*
X1116080Y1203940D01*
X1116440Y1199960D01*
X1117420Y1196280D01*
X1119040Y1192820D01*
X1120040Y1191400D01*
X1120700Y1189800D01*
X1120620Y1188060D01*
X1119820Y1186520D01*
X1118440Y1185480D01*
X1116760Y1185100D01*
X792680Y1185100D01*
X790980Y1185480D01*
X789580Y1186560D01*
X788800Y1188140D01*
X788760Y1189900D01*
X789740Y1194660D01*
X790100Y1200000D01*
X789740Y1205340D01*
X788660Y1210600D01*
X786900Y1215660D01*
X784500Y1220440D01*
X781460Y1224840D01*
X777880Y1228820D01*
X773780Y1232280D01*
X769260Y1235160D01*
X764400Y1237420D01*
X759300Y1239000D01*
X754020Y1239880D01*
X748660Y1240060D01*
X743340Y1239540D01*
X738120Y1238300D01*
X733120Y1236360D01*
X728420Y1233800D01*
X724120Y1230620D01*
X720260Y1226900D01*
X716940Y1222680D01*
X714220Y1218080D01*
X712120Y1213160D01*
X710720Y1207980D01*
X710000Y1202680D01*
X710000Y1197320D01*
X710720Y1192020D01*
X712120Y1186840D01*
X714220Y1181920D01*
X716940Y1177320D01*
X720260Y1173100D01*
X721440Y1171980D01*
X722340Y1170680D01*
X722660Y1169140D01*
X722360Y1167600D01*
X721500Y1166280D01*
X720200Y1165400D01*
X718660Y1165100D01*
X707920Y1165100D01*
X706380Y1165400D01*
X705080Y1166280D01*
X696280Y1175080D01*
X695400Y1176380D01*
X695100Y1177920D01*
X695100Y1542080D01*
X695400Y1543620D01*
X696280Y1544920D01*
X719740Y1568380D01*
X720900Y1569199D01*
X722260Y1569540D01*
X723680Y1569400D01*
X724940Y1568779D01*
X728420Y1566200D01*
X733120Y1563640D01*
X738120Y1561699D01*
X743340Y1560460D01*
X748660Y1559940D01*
X754020Y1560120D01*
X759300Y1561000D01*
X764400Y1562580D01*
X769260Y1564840D01*
X773780Y1567720D01*
X777880Y1571180D01*
X781460Y1575160D01*
X784500Y1579560D01*
X786900Y1584340D01*
X788660Y1589400D01*
X789740Y1594660D01*
X790100Y1600000D01*
X789740Y1605340D01*
X788660Y1610600D01*
X786900Y1615660D01*
X784500Y1620440D01*
X781460Y1624840D01*
X777880Y1628820D01*
X772180Y1633720D01*
X771580Y1635320D01*
X771700Y1637020D01*
X772520Y1638520D01*
X773880Y1639540D01*
X775540Y1639900D01*
X1067080Y1639900D01*
X1068620Y1639600D01*
X1069920Y1638720D01*
X1142100Y1566540D01*
X1142960Y1565280D01*
X1143280Y1563779D01*
X1143000Y1562280D01*
X1142200Y1560980D01*
X1140960Y1560100D01*
X1139060Y1559199D01*
X1135920Y1557000D01*
X1133220Y1554319D01*
X1131040Y1551180D01*
X1129420Y1547720D01*
X1128440Y1544040D01*
X1128080Y1540060D01*
X1128080Y1504199D01*
X1128440Y1500220D01*
X1129420Y1496519D01*
X1131040Y1493060D01*
X1133420Y1489660D01*
X1134080Y1488100D01*
X1134040Y1486399D01*
X1133280Y1484480D01*
X1130880Y1481040D01*
X1129240Y1477560D01*
X1128260Y1473839D01*
X1127920Y1470000D01*
X1128260Y1466160D01*
X1129240Y1462440D01*
X1130880Y1458959D01*
X1133080Y1455800D01*
X1135800Y1453080D01*
X1138960Y1450880D01*
X1142440Y1449240D01*
X1146160Y1448260D01*
X1150000Y1447920D01*
X1153840Y1448260D01*
X1157560Y1449240D01*
X1161040Y1450880D01*
X1164200Y1453080D01*
X1166920Y1455800D01*
X1169120Y1458959D01*
X1170760Y1462440D01*
X1171740Y1466160D01*
X1172080Y1470000D01*
X1171740Y1473839D01*
X1170760Y1477560D01*
X1169120Y1481040D01*
X1166720Y1484480D01*
X1165960Y1486399D01*
X1165920Y1488100D01*
X1166580Y1489660D01*
X1168960Y1493060D01*
X1170580Y1496519D01*
X1171140Y1498620D01*
X1171940Y1500160D01*
X1173300Y1501220D01*
X1175000Y1501579D01*
X1176700Y1501220D01*
X1178060Y1500160D01*
X1178860Y1498620D01*
X1179420Y1496519D01*
X1181040Y1493060D01*
X1183220Y1489940D01*
X1185920Y1487240D01*
X1189060Y1485060D01*
X1192520Y1483440D01*
X1196200Y1482460D01*
X1200000Y1482120D01*
X1203800Y1482460D01*
X1207480Y1483440D01*
X1210940Y1485060D01*
X1214080Y1487240D01*
X1216780Y1489940D01*
X1218960Y1493060D01*
X1220580Y1496519D01*
X1221140Y1498620D01*
X1221940Y1500160D01*
X1223300Y1501220D01*
X1225000Y1501579D01*
X1226700Y1501220D01*
X1228060Y1500160D01*
X1228860Y1498620D01*
X1229420Y1496519D01*
X1231040Y1493060D01*
X1233220Y1489940D01*
X1235920Y1487240D01*
X1238500Y1485440D01*
X1239420Y1484540D01*
X1240020Y1483420D01*
X1240220Y1481300D01*
X1239900Y1479780D01*
X1239040Y1478480D01*
X1237600Y1477020D01*
X1236400Y1475120D01*
X1235640Y1472980D01*
X1235360Y1470520D01*
X1235360Y1439480D01*
X1235640Y1437020D01*
X1236400Y1434880D01*
X1237600Y1432980D01*
X1238640Y1431920D01*
X1239500Y1430640D01*
X1239800Y1429100D01*
X1239500Y1427560D01*
X1238640Y1426279D01*
X1237340Y1425400D01*
X1235800Y1425100D01*
X1017920Y1425100D01*
X1016380Y1425400D01*
X1015080Y1426279D01*
X930819Y1510540D01*
X928379Y1512540D01*
X925780Y1513940D01*
X922940Y1514800D01*
X919800Y1515100D01*
X789640Y1515100D01*
X788220Y1515360D01*
X786960Y1516140D01*
X786080Y1517300D01*
X784500Y1520440D01*
X781460Y1524840D01*
X777880Y1528820D01*
X773780Y1532280D01*
X769260Y1535160D01*
X764400Y1537420D01*
X759300Y1539000D01*
X754020Y1539880D01*
X748660Y1540060D01*
X743340Y1539540D01*
X738120Y1538300D01*
X733120Y1536360D01*
X728420Y1533800D01*
X724120Y1530620D01*
X720260Y1526900D01*
X716940Y1522680D01*
X714220Y1518080D01*
X712120Y1513160D01*
X710720Y1507980D01*
X710000Y1502680D01*
X710000Y1497320D01*
X710720Y1492020D01*
X712120Y1486840D01*
X714220Y1481920D01*
X716940Y1477320D01*
X720260Y1473100D01*
X724120Y1469379D01*
X728420Y1466200D01*
X733120Y1463640D01*
X738120Y1461699D01*
X743340Y1460460D01*
X748660Y1459940D01*
X754020Y1460120D01*
X759300Y1461000D01*
X764400Y1462580D01*
X769260Y1464840D01*
X773780Y1467720D01*
X777880Y1471180D01*
X781460Y1475160D01*
X784500Y1479560D01*
X786080Y1482700D01*
X786960Y1483860D01*
X788220Y1484640D01*
X789640Y1484900D01*
X912080Y1484900D01*
X913620Y1484600D01*
X914920Y1483720D01*
X999180Y1399460D01*
X1001620Y1397460D01*
X1004220Y1396060D01*
X1007060Y1395200D01*
X1010200Y1394900D01*
X1982080Y1394900D01*
X1983620Y1394600D01*
X1984920Y1393720D01*
X2029420Y1349220D01*
X2030300Y1347920D01*
X2030600Y1346380D01*
X2030600Y689659D01*
X2030340Y688220D01*
X2029560Y686979D01*
X2028400Y686100D01*
X2025240Y684500D01*
X2020820Y681460D01*
X2016860Y677880D01*
X2013400Y673780D01*
X2010520Y669260D01*
X2008260Y664400D01*
X2006680Y659300D01*
X2005780Y654020D01*
X2005600Y648660D01*
X2006140Y643340D01*
X2007380Y638120D01*
X2009300Y633120D01*
X2011879Y628420D01*
X2015060Y624120D01*
X2018779Y620260D01*
X2022980Y616940D01*
X2027580Y614220D01*
X2032520Y612120D01*
X2037680Y610720D01*
X2043000Y610000D01*
X2048340Y610000D01*
X2053660Y610720D01*
X2058820Y612120D01*
X2063760Y614220D01*
X2068360Y616940D01*
X2072560Y620260D01*
X2076279Y624120D01*
X2079460Y628420D01*
X2082040Y633120D01*
X2083959Y638120D01*
X2085200Y643340D01*
X2085740Y648660D01*
X2085560Y654020D01*
X2084660Y659300D01*
X2083080Y664400D01*
X2080820Y669260D01*
X2077940Y673780D01*
X2074480Y677880D01*
X2070520Y681460D01*
X2066100Y684500D01*
X2063000Y686060D01*
X2061840Y686940D01*
X2061060Y688199D01*
X2060800Y689640D01*
X2060800Y1354100D01*
X2060500Y1357240D01*
X2059640Y1360080D01*
X2058240Y1362680D01*
X2056240Y1365120D01*
X2000820Y1420540D01*
X1998380Y1422540D01*
X1995780Y1423940D01*
X1992940Y1424800D01*
X1989800Y1425100D01*
X1314180Y1425100D01*
X1312660Y1425400D01*
X1311360Y1426279D01*
X1310500Y1427560D01*
X1310180Y1429100D01*
X1310500Y1430640D01*
X1311360Y1431920D01*
X1312400Y1432980D01*
X1313600Y1434880D01*
X1314340Y1437020D01*
X1314620Y1439480D01*
X1314620Y1470520D01*
X1314340Y1472980D01*
X1313600Y1475120D01*
X1312400Y1477020D01*
X1310960Y1478480D01*
X1310080Y1479780D01*
X1309780Y1481300D01*
X1309980Y1483420D01*
X1310580Y1484540D01*
X1311480Y1485440D01*
X1314079Y1487240D01*
X1316780Y1489940D01*
X1318959Y1493060D01*
X1320580Y1496519D01*
X1321560Y1500220D01*
X1321920Y1504199D01*
X1321920Y1540060D01*
X1321560Y1544040D01*
X1320580Y1547720D01*
X1318959Y1551180D01*
X1316780Y1554319D01*
X1314079Y1557000D01*
X1310940Y1559199D01*
X1307480Y1560820D01*
X1303800Y1561800D01*
X1301579Y1562000D01*
X1299980Y1562480D01*
X1298720Y1563580D01*
X1298020Y1565080D01*
X1298000Y1566740D01*
X1298640Y1568280D01*
X1299120Y1568959D01*
X1300760Y1572440D01*
X1301740Y1576160D01*
X1302080Y1580000D01*
X1301740Y1583839D01*
X1300760Y1587560D01*
X1299120Y1591040D01*
X1296920Y1594199D01*
X1294199Y1596920D01*
X1291040Y1599120D01*
X1287560Y1600760D01*
X1283839Y1601740D01*
X1280000Y1602080D01*
X1276160Y1601740D01*
X1272440Y1600760D01*
X1268960Y1599120D01*
X1265800Y1596920D01*
X1263080Y1594199D01*
X1260880Y1591040D01*
X1259240Y1587560D01*
X1258260Y1583839D01*
X1257920Y1580000D01*
X1258260Y1576160D01*
X1259240Y1572440D01*
X1260880Y1568959D01*
X1262420Y1566740D01*
X1263080Y1565160D01*
X1263020Y1563420D01*
X1262220Y1561900D01*
X1260860Y1560840D01*
X1259180Y1560460D01*
X1257480Y1560820D01*
X1253800Y1561800D01*
X1250000Y1562140D01*
X1246200Y1561800D01*
X1242520Y1560820D01*
X1239060Y1559199D01*
X1235920Y1557000D01*
X1233220Y1554319D01*
X1231040Y1551180D01*
X1229420Y1547720D01*
X1228860Y1545640D01*
X1228060Y1544100D01*
X1226700Y1543040D01*
X1225000Y1542660D01*
X1223300Y1543040D01*
X1221940Y1544100D01*
X1221140Y1545640D01*
X1220580Y1547720D01*
X1218960Y1551180D01*
X1216780Y1554319D01*
X1214080Y1557000D01*
X1210940Y1559199D01*
X1207480Y1560820D01*
X1203800Y1561800D01*
X1200000Y1562140D01*
X1196200Y1561800D01*
X1193180Y1561000D01*
X1191800Y1560880D01*
X1190460Y1561240D01*
X1189320Y1562020D01*
X1085820Y1665540D01*
X1083380Y1667540D01*
X1080780Y1668940D01*
X1077940Y1669800D01*
X1074800Y1670100D01*
X785600Y1670100D01*
X783900Y1670480D01*
X782540Y1671519D01*
X781740Y1673040D01*
X781640Y1674760D01*
X782300Y1676360D01*
X784500Y1679560D01*
X786900Y1684340D01*
X788660Y1689400D01*
X789740Y1694660D01*
X790100Y1700000D01*
X789740Y1705340D01*
X788660Y1710600D01*
X786900Y1715660D01*
X784500Y1720440D01*
X781460Y1724840D01*
X778420Y1728220D01*
X777620Y1729520D01*
X777380Y1731040D01*
X777720Y1732520D01*
X778600Y1733779D01*
X779880Y1734600D01*
X781380Y1734900D01*
X1052080Y1734900D01*
X1053620Y1734600D01*
X1054920Y1733720D01*
X1129180Y1659460D01*
X1131620Y1657460D01*
X1134220Y1656060D01*
X1137060Y1655200D01*
X1140200Y1654900D01*
X1279800Y1654900D01*
X1282940Y1655200D01*
X1285780Y1656060D01*
X1288380Y1657460D01*
X1290820Y1659460D01*
X1310540Y1679180D01*
X1312540Y1681620D01*
X1313940Y1684220D01*
X1314800Y1687060D01*
X1315100Y1690200D01*
X1315100Y1702360D01*
X1315400Y1703880D01*
X1316279Y1705180D01*
X1316780Y1705680D01*
X1318959Y1708820D01*
X1320580Y1712280D01*
X1321560Y1715960D01*
X1321840Y1719139D01*
X1322240Y1720560D01*
X1323120Y1721740D01*
X1324379Y1722520D01*
X1325820Y1722800D01*
X2044180Y1722800D01*
X2045720Y1722500D01*
X2047020Y1721620D01*
X2129420Y1639220D01*
X2130300Y1637920D01*
X2130600Y1636380D01*
X2130600Y689659D01*
X2130340Y688220D01*
X2129560Y686979D01*
X2128400Y686100D01*
X2125240Y684500D01*
X2120820Y681460D01*
X2116860Y677880D01*
X2113400Y673780D01*
X2110520Y669260D01*
X2108260Y664400D01*
X2106680Y659300D01*
X2105780Y654020D01*
X2105600Y648660D01*
X2106140Y643340D01*
X2107380Y638120D01*
X2109300Y633120D01*
X2111880Y628420D01*
X2115060Y624120D01*
X2118780Y620260D01*
X2122980Y616940D01*
X2127580Y614220D01*
X2132520Y612120D01*
X2137680Y610720D01*
X2143000Y610000D01*
X2148340Y610000D01*
X2153660Y610720D01*
X2158820Y612120D01*
X2163760Y614220D01*
X2168360Y616940D01*
X2172560Y620260D01*
X2176280Y624120D01*
X2179460Y628420D01*
X2182040Y633120D01*
X2183960Y638120D01*
X2185200Y643340D01*
X2185740Y648660D01*
X2185560Y654020D01*
X2184660Y659300D01*
X2183080Y664400D01*
X2180820Y669260D01*
X2177940Y673780D01*
X2174480Y677880D01*
X2170520Y681460D01*
X2166100Y684500D01*
X2163000Y686060D01*
X2161840Y686940D01*
X2161060Y688199D01*
X2160800Y689640D01*
X2160800Y1644100D01*
X2160500Y1647240D01*
X2159640Y1650080D01*
X2158240Y1652680D01*
X2156240Y1655120D01*
X2062920Y1748440D01*
X2060480Y1750440D01*
X2057880Y1751840D01*
X2055040Y1752700D01*
X2051900Y1753000D01*
X1325820Y1753000D01*
X1324379Y1753280D01*
X1323120Y1754060D01*
X1322240Y1755240D01*
X1321840Y1756660D01*
X1321560Y1759780D01*
X1320580Y1763480D01*
X1318959Y1766940D01*
X1316780Y1770060D01*
X1314079Y1772760D01*
X1310940Y1774940D01*
X1307480Y1776560D01*
X1303800Y1777540D01*
X1300000Y1777880D01*
X1296200Y1777540D01*
X1292520Y1776560D01*
X1289060Y1774940D01*
X1285920Y1772760D01*
X1283220Y1770060D01*
X1281040Y1766940D01*
X1279420Y1763480D01*
X1278860Y1761380D01*
X1278060Y1759840D01*
X1276700Y1758779D01*
X1275000Y1758420D01*
X1273300Y1758779D01*
X1271940Y1759840D01*
X1271140Y1761380D01*
X1270580Y1763480D01*
X1268960Y1766940D01*
X1266780Y1770060D01*
X1266280Y1770560D01*
X1265400Y1771860D01*
X1265100Y1773380D01*
X1265100Y1822080D01*
X1265400Y1823620D01*
X1266280Y1824920D01*
X1275080Y1833720D01*
X1276380Y1834600D01*
X1277920Y1834900D01*
X2102080Y1834900D01*
X2103620Y1834600D01*
X2104920Y1833720D01*
X2229420Y1709220D01*
X2230300Y1707920D01*
X2230600Y1706380D01*
X2230600Y689659D01*
X2230340Y688220D01*
X2229560Y686979D01*
X2228400Y686100D01*
X2225240Y684500D01*
X2220820Y681460D01*
X2216860Y677880D01*
X2213400Y673780D01*
X2210520Y669260D01*
X2208260Y664400D01*
X2206680Y659300D01*
X2205780Y654020D01*
X2205600Y648660D01*
X2206140Y643340D01*
X2207380Y638120D01*
X2209300Y633120D01*
X2211880Y628420D01*
X2215060Y624120D01*
X2218780Y620260D01*
X2222980Y616940D01*
X2227580Y614220D01*
X2232520Y612120D01*
X2237680Y610720D01*
X2243000Y610000D01*
X2248340Y610000D01*
X2253660Y610720D01*
X2258820Y612120D01*
X2263760Y614220D01*
X2268360Y616940D01*
X2272560Y620260D01*
X2276280Y624120D01*
X2279460Y628420D01*
X2282040Y633120D01*
X2283960Y638120D01*
X2285200Y643340D01*
X2285740Y648660D01*
X2285560Y654020D01*
X2284660Y659300D01*
X2283080Y664400D01*
X2280820Y669260D01*
X2277940Y673780D01*
X2274480Y677880D01*
X2270520Y681460D01*
X2266100Y684500D01*
X2263000Y686060D01*
X2261840Y686940D01*
X2261060Y688199D01*
X2260800Y689640D01*
X2260800Y1714100D01*
X2260500Y1717240D01*
X2259640Y1720080D01*
X2258240Y1722680D01*
X2256240Y1725120D01*
X2120820Y1860540D01*
X2118380Y1862540D01*
X2115780Y1863940D01*
X2112940Y1864800D01*
X2109800Y1865100D01*
X1270200Y1865100D01*
X1267060Y1864800D01*
X1264220Y1863940D01*
X1261620Y1862540D01*
X1259180Y1860540D01*
X1252820Y1854180D01*
X1251540Y1853320D01*
X1250000Y1853020D01*
X1248460Y1853320D01*
X1247180Y1854180D01*
X1240820Y1860540D01*
X1238380Y1862540D01*
X1235780Y1863940D01*
X1232940Y1864800D01*
X1229800Y1865100D01*
X781380Y1865100D01*
X779880Y1865400D01*
X778600Y1866220D01*
X777720Y1867480D01*
X777380Y1868959D01*
X777620Y1870480D01*
X778420Y1871780D01*
X781460Y1875160D01*
X784500Y1879560D01*
X786900Y1884340D01*
X788660Y1889400D01*
X789740Y1894660D01*
X790100Y1900000D01*
X789740Y1905340D01*
X788660Y1910600D01*
X786900Y1915660D01*
X784500Y1920440D01*
X781460Y1924840D01*
X778420Y1928220D01*
X777620Y1929520D01*
X777380Y1931040D01*
X777720Y1932520D01*
X778600Y1933779D01*
X779880Y1934600D01*
X781380Y1934900D01*
X2162080Y1934900D01*
X2163620Y1934600D01*
X2164920Y1933720D01*
X2405180Y1693460D01*
X2407620Y1691459D01*
X2410220Y1690060D01*
X2413060Y1689199D01*
X2416200Y1688899D01*
X2781300Y1688899D01*
X2782840Y1688600D01*
X2784120Y1687720D01*
X2785000Y1686440D01*
X2785299Y1684900D01*
X2785299Y1673720D01*
X2785580Y1671260D01*
X2786320Y1669120D01*
X2787520Y1667220D01*
X2789120Y1665620D01*
X2791019Y1664420D01*
X2792880Y1663779D01*
X2794280Y1662940D01*
X2795220Y1661600D01*
X2795560Y1660000D01*
X2795220Y1658400D01*
X2794280Y1657060D01*
X2792880Y1656220D01*
X2791019Y1655580D01*
X2789120Y1654379D01*
X2787520Y1652780D01*
X2786320Y1650880D01*
X2785580Y1648740D01*
X2785299Y1646279D01*
X2785299Y1585720D01*
X2785580Y1583260D01*
X2786320Y1581120D01*
X2787520Y1579220D01*
X2789120Y1577620D01*
X2791019Y1576420D01*
X2793159Y1575680D01*
X2795620Y1575400D01*
X2846380Y1575400D01*
X2848840Y1575680D01*
X2850980Y1576420D01*
X2852880Y1577620D01*
X2854480Y1579220D01*
X2855680Y1581120D01*
X2856420Y1583260D01*
X2856700Y1585720D01*
X2856700Y1646279D01*
X2856420Y1648740D01*
X2855680Y1650880D01*
X2854480Y1652780D01*
X2852880Y1654379D01*
X2850980Y1655580D01*
X2849120Y1656220D01*
X2847720Y1657060D01*
X2846780Y1658400D01*
X2846440Y1660000D01*
X2846780Y1661600D01*
X2847720Y1662940D01*
X2849120Y1663779D01*
X2850980Y1664420D01*
X2852880Y1665620D01*
X2854480Y1667220D01*
X2855680Y1669120D01*
X2856420Y1671260D01*
X2856700Y1673720D01*
X2856700Y1734280D01*
X2856420Y1736740D01*
X2855680Y1738880D01*
X2854480Y1740780D01*
X2852880Y1742380D01*
X2850980Y1743580D01*
X2848840Y1744319D01*
X2846380Y1744600D01*
X2795620Y1744600D01*
X2793159Y1744319D01*
X2791019Y1743580D01*
X2789120Y1742380D01*
X2787520Y1740780D01*
X2786320Y1738880D01*
X2785580Y1736740D01*
X2785299Y1734280D01*
X2785299Y1723100D01*
X2785000Y1721560D01*
X2784120Y1720280D01*
X2782840Y1719400D01*
X2781300Y1719100D01*
X2423920Y1719100D01*
X2422380Y1719400D01*
X2421080Y1720280D01*
X2180820Y1960540D01*
X2178380Y1962540D01*
X2175780Y1963940D01*
X2172940Y1964800D01*
X2169800Y1965100D01*
X-18620Y1965100D01*
X-20120Y1965400D01*
X-21400Y1966220D01*
X-22280Y1967480D01*
X-22620Y1968959D01*
X-22380Y1970480D01*
X-21580Y1971780D01*
X-18540Y1975160D01*
X-15500Y1979560D01*
X-13100Y1984340D01*
X-11339Y1989400D01*
X-10260Y1994660D01*
X-9900Y2000000D01*
X-10260Y2005340D01*
X-11339Y2010600D01*
X-13100Y2015660D01*
X-15500Y2020440D01*
X-18540Y2024840D01*
X-22120Y2028820D01*
X-26220Y2032280D01*
X-30740Y2035160D01*
X-35600Y2037420D01*
X-40700Y2039000D01*
X-45980Y2039880D01*
X-51340Y2040060D01*
X-56660Y2039540D01*
X-61880Y2038300D01*
X-66880Y2036360D01*
X-71580Y2033800D01*
X-75880Y2030620D01*
X-79740Y2026900D01*
X-83059Y2022680D01*
X-85780Y2018080D01*
X-87880Y2013160D01*
X-89280Y2007980D01*
X-90000Y2002680D01*
X-90000Y1997320D01*
X-89280Y1992020D01*
X-87880Y1986840D01*
X-85780Y1981920D01*
X-83059Y1977320D01*
X-79740Y1973100D01*
X-78560Y1971980D01*
X-77660Y1970680D01*
X-77340Y1969139D01*
X-77640Y1967600D01*
X-78500Y1966279D01*
X-79800Y1965400D01*
X-81340Y1965100D01*
X-89800Y1965100D01*
X-92940Y1964800D01*
X-95780Y1963940D01*
X-98379Y1962540D01*
X-100820Y1960540D01*
X-150540Y1910820D01*
X-152540Y1908380D01*
X-153940Y1905780D01*
X-154800Y1902940D01*
X-155100Y1899800D01*
X-155100Y860200D01*
X-154800Y857060D01*
X-153940Y854220D01*
X-152540Y851620D01*
X-150540Y849180D01*
X-90820Y789460D01*
X-88760Y787780D01*
X-88100Y787080D01*
X-87620Y786240D01*
X-85780Y781919D01*
X-83059Y777320D01*
X-79740Y773100D01*
X-75880Y769380D01*
X-71580Y766200D01*
X-66880Y763640D01*
X-61880Y761700D01*
X-56660Y760460D01*
X-51340Y759940D01*
X-45980Y760120D01*
X-40700Y761000D01*
X-35600Y762580D01*
X-30740Y764840D01*
X-26220Y767720D01*
X-22120Y771180D01*
X-18540Y775160D01*
X-15500Y779560D01*
X-13100Y784340D01*
X-11339Y789400D01*
X-10260Y794659D01*
X-9900Y800000D01*
X-10260Y805340D01*
X-11339Y810600D01*
X-13100Y815660D01*
X-15500Y820440D01*
X-18540Y824840D01*
X-22120Y828820D01*
X-26220Y832280D01*
X-30740Y835160D01*
X-35600Y837420D01*
X-40700Y839000D01*
X-45980Y839880D01*
X-51340Y840060D01*
X-56660Y839539D01*
X-61880Y838300D01*
X-66880Y836360D01*
X-71580Y833800D01*
X-75880Y830620D01*
X-79860Y826780D01*
X-81160Y825939D01*
X-82680Y825639D01*
X-84179Y825960D01*
X-85460Y826820D01*
X-123720Y865080D01*
X-124600Y866380D01*
X-124900Y867920D01*
X-124900Y1892080D01*
X-124600Y1893620D01*
X-123720Y1894920D01*
X-84920Y1933720D01*
X-83620Y1934600D01*
X-82080Y1934900D01*
X-81340Y1934900D01*
X-79800Y1934600D01*
X-78500Y1933720D01*
X-77640Y1932400D01*
X-77340Y1930860D01*
X-77660Y1929319D01*
X-78560Y1928020D01*
X-79740Y1926900D01*
X-83059Y1922680D01*
X-85780Y1918080D01*
X-87880Y1913160D01*
X-89280Y1907980D01*
X-90000Y1902680D01*
X-90000Y1897320D01*
X-89280Y1892020D01*
X-87880Y1886840D01*
X-85780Y1881920D01*
X-83059Y1877320D01*
X-79740Y1873100D01*
X-75880Y1869379D01*
X-71580Y1866200D01*
X-66880Y1863640D01*
X-61880Y1861699D01*
X-56660Y1860460D01*
X-51340Y1859940D01*
X-45980Y1860120D01*
X-40700Y1861000D01*
X-35600Y1862580D01*
X-30740Y1864840D01*
X-26220Y1867720D01*
X-22120Y1871180D01*
X-18540Y1875160D01*
X-15500Y1879560D01*
X-13100Y1884340D01*
X-11339Y1889400D01*
X-10260Y1894660D01*
X-9900Y1900000D01*
X-10260Y1905340D01*
X-11339Y1910600D01*
X-13100Y1915660D01*
X-15500Y1920440D01*
X-18540Y1924840D01*
X-21580Y1928220D01*
X-22380Y1929520D01*
X-22620Y1931040D01*
X-22280Y1932520D01*
X-21400Y1933779D01*
X-20120Y1934600D01*
X-18620Y1934900D01*
X718660Y1934900D01*
X720200Y1934600D01*
X721500Y1933720D01*
X722360Y1932400D01*
X722660Y1930860D01*
X722340Y1929319D01*
X721440Y1928020D01*
X720260Y1926900D01*
X716940Y1922680D01*
X714220Y1918080D01*
X712120Y1913160D01*
X710720Y1907980D01*
X710000Y1902680D01*
X710000Y1897320D01*
X710720Y1892020D01*
X712120Y1886840D01*
X714220Y1881920D01*
X716940Y1877320D01*
X720260Y1873100D01*
X721440Y1871980D01*
X722340Y1870680D01*
X722660Y1869139D01*
X722360Y1867600D01*
X721500Y1866279D01*
X720200Y1865400D01*
X718660Y1865100D01*
X580200Y1865100D01*
X577060Y1864800D01*
X574220Y1863940D01*
X571620Y1862540D01*
X569180Y1860540D01*
X24920Y1316279D01*
X23620Y1315400D01*
X22080Y1315100D01*
X-10360Y1315100D01*
X-11780Y1315360D01*
X-13040Y1316140D01*
X-13919Y1317300D01*
X-15500Y1320440D01*
X-18540Y1324840D01*
X-22120Y1328820D01*
X-26220Y1332280D01*
X-30740Y1335160D01*
X-35600Y1337420D01*
X-40700Y1339000D01*
X-45980Y1339880D01*
X-51340Y1340060D01*
X-56660Y1339540D01*
X-61880Y1338300D01*
X-66880Y1336360D01*
X-71580Y1333800D01*
X-75880Y1330620D01*
X-79740Y1326900D01*
X-83059Y1322680D01*
X-85780Y1318080D01*
X-87880Y1313160D01*
X-89280Y1307980D01*
X-90000Y1302680D01*
X-90000Y1297320D01*
X-89280Y1292020D01*
X-87880Y1286840D01*
X-85780Y1281920D01*
X-83059Y1277320D01*
X-79740Y1273100D01*
X-75880Y1269380D01*
X-71580Y1266200D01*
X-66880Y1263640D01*
X-61880Y1261700D01*
X-56660Y1260460D01*
X-51340Y1259940D01*
X-45980Y1260120D01*
X-40700Y1261000D01*
X-35600Y1262580D01*
X-30740Y1264840D01*
X-26220Y1267720D01*
X-22120Y1271180D01*
X-18540Y1275160D01*
X-15500Y1279560D01*
X-13919Y1282700D01*
X-13040Y1283860D01*
X-11780Y1284640D01*
X-10360Y1284900D01*
X29800Y1284900D01*
X32940Y1285200D01*
X35780Y1286060D01*
X38380Y1287460D01*
X40820Y1289460D01*
X585080Y1833720D01*
X586380Y1834600D01*
X587920Y1834900D01*
X718660Y1834900D01*
X720200Y1834600D01*
X721500Y1833720D01*
X722360Y1832400D01*
X722660Y1830860D01*
X722340Y1829319D01*
X721440Y1828020D01*
X720260Y1826900D01*
X716940Y1822680D01*
X714220Y1818080D01*
X712120Y1813160D01*
X710720Y1807980D01*
X710000Y1802680D01*
X710000Y1797320D01*
X710720Y1792020D01*
X712120Y1786840D01*
X714220Y1781920D01*
X716940Y1777320D01*
X720260Y1773100D01*
X721440Y1771980D01*
X722340Y1770680D01*
X722660Y1769139D01*
X722360Y1767600D01*
X721500Y1766279D01*
X720200Y1765400D01*
X718660Y1765100D01*
X580200Y1765100D01*
X577060Y1764800D01*
X574220Y1763940D01*
X571620Y1762540D01*
X569180Y1760540D01*
X24920Y1216280D01*
X23620Y1215400D01*
X22080Y1215100D01*
X-10360Y1215100D01*
X-11780Y1215360D01*
X-13040Y1216140D01*
X-13919Y1217300D01*
X-15500Y1220440D01*
X-18540Y1224840D01*
X-22120Y1228820D01*
X-26220Y1232280D01*
X-30740Y1235160D01*
X-35600Y1237420D01*
X-40700Y1239000D01*
X-45980Y1239880D01*
X-51340Y1240060D01*
X-56660Y1239540D01*
X-61880Y1238300D01*
X-66880Y1236360D01*
X-71580Y1233800D01*
X-75880Y1230620D01*
X-79740Y1226900D01*
X-83059Y1222680D01*
X-85780Y1218080D01*
X-87880Y1213160D01*
X-89280Y1207980D01*
X-90000Y1202680D01*
X-90000Y1197320D01*
X-89280Y1192020D01*
X-87880Y1186840D01*
X-85780Y1181920D01*
X-83059Y1177320D01*
X-79740Y1173100D01*
X-75880Y1169380D01*
X-71580Y1166200D01*
X-66880Y1163640D01*
X-61880Y1161700D01*
X-56660Y1160460D01*
X-51340Y1159940D01*
X-45980Y1160120D01*
X-40700Y1161000D01*
X-35600Y1162580D01*
X-30740Y1164840D01*
X-26220Y1167720D01*
X-22120Y1171180D01*
X-18540Y1175160D01*
X-15500Y1179560D01*
X-13919Y1182700D01*
X-13040Y1183860D01*
X-11780Y1184640D01*
X-10360Y1184900D01*
X29800Y1184900D01*
X32940Y1185200D01*
X35780Y1186060D01*
X38380Y1187460D01*
X40820Y1189460D01*
X585080Y1733720D01*
X586380Y1734600D01*
X587920Y1734900D01*
X718660Y1734900D01*
X720200Y1734600D01*
X721500Y1733720D01*
X722360Y1732400D01*
X722660Y1730860D01*
X722340Y1729319D01*
X721440Y1728020D01*
X720260Y1726900D01*
X716940Y1722680D01*
X714220Y1718080D01*
X712120Y1713160D01*
X710720Y1707980D01*
X710000Y1702680D01*
X710000Y1697320D01*
X710720Y1692020D01*
X712120Y1686840D01*
X714220Y1681920D01*
X716940Y1677320D01*
X717520Y1676579D01*
X718280Y1674980D01*
X718280Y1673200D01*
X717500Y1671600D01*
X716120Y1670500D01*
X714380Y1670100D01*
X585200Y1670100D01*
X582060Y1669800D01*
X579220Y1668940D01*
X576620Y1667540D01*
X574180Y1665540D01*
X24920Y1116280D01*
X23620Y1115400D01*
X22080Y1115100D01*
X-10360Y1115100D01*
X-11780Y1115360D01*
X-13040Y1116140D01*
X-13919Y1117300D01*
X-15500Y1120440D01*
X-18540Y1124840D01*
X-22120Y1128820D01*
X-26220Y1132280D01*
X-30740Y1135160D01*
X-35600Y1137420D01*
X-40700Y1139000D01*
X-45980Y1139880D01*
X-51340Y1140060D01*
X-56660Y1139540D01*
X-61880Y1138300D01*
X-66880Y1136360D01*
X-71580Y1133800D01*
X-75880Y1130620D01*
X-79740Y1126900D01*
X-83059Y1122680D01*
X-85780Y1118080D01*
X-87880Y1113160D01*
X-89280Y1107980D01*
X-90000Y1102680D01*
X-90000Y1097320D01*
X-89280Y1092020D01*
X-87880Y1086840D01*
X-85780Y1081920D01*
X-83059Y1077320D01*
X-79740Y1073100D01*
X-75880Y1069380D01*
X-71580Y1066200D01*
X-66880Y1063640D01*
X-61880Y1061700D01*
X-56660Y1060460D01*
X-51340Y1059940D01*
X-45980Y1060120D01*
X-40700Y1061000D01*
X-35600Y1062580D01*
X-30740Y1064840D01*
X-26220Y1067720D01*
X-22120Y1071180D01*
X-18540Y1075160D01*
X-15500Y1079560D01*
X-13919Y1082700D01*
X-13040Y1083860D01*
X-11780Y1084640D01*
X-10360Y1084900D01*
X29800Y1084900D01*
X32940Y1085200D01*
X35780Y1086060D01*
X38380Y1087460D01*
X40820Y1089460D01*
X590080Y1638720D01*
X591380Y1639600D01*
X592920Y1639900D01*
X724539Y1639900D01*
X726160Y1639560D01*
X727520Y1638580D01*
X728340Y1637140D01*
X728520Y1635500D01*
X728020Y1633920D01*
X726919Y1632680D01*
X724120Y1630620D01*
X720260Y1626900D01*
X716940Y1622680D01*
X714220Y1618080D01*
X712120Y1613160D01*
X710720Y1607980D01*
X709980Y1602480D01*
X709599Y1601240D01*
X708840Y1600200D01*
X669460Y1560820D01*
X667460Y1558380D01*
X666060Y1555780D01*
X665200Y1552940D01*
X664900Y1549800D01*
X664900Y1170200D01*
X665200Y1167060D01*
X666060Y1164220D01*
X667460Y1161620D01*
X669460Y1159180D01*
X689180Y1139460D01*
X691620Y1137460D01*
X694220Y1136060D01*
X697060Y1135200D01*
X700200Y1134900D01*
X718660Y1134900D01*
X720200Y1134600D01*
X721500Y1133720D01*
X722360Y1132400D01*
X722660Y1130860D01*
X722340Y1129320D01*
X721440Y1128020D01*
X720260Y1126900D01*
X716940Y1122680D01*
X714220Y1118080D01*
X712120Y1113160D01*
X710720Y1107980D01*
X710000Y1102680D01*
X710000Y1097320D01*
X710720Y1092020D01*
X712120Y1086840D01*
X714220Y1081920D01*
X716940Y1077320D01*
X720260Y1073100D01*
X724120Y1069380D01*
X728420Y1066200D01*
X733120Y1063640D01*
X738120Y1061700D01*
X743340Y1060460D01*
X748660Y1059940D01*
X754020Y1060120D01*
X759300Y1061000D01*
X764400Y1062580D01*
X769260Y1064840D01*
X773780Y1067720D01*
X777880Y1071180D01*
X781460Y1075160D01*
X784500Y1079560D01*
X786900Y1084340D01*
X788660Y1089400D01*
X789740Y1094660D01*
X790100Y1100000D01*
X789740Y1105340D01*
X788660Y1110600D01*
X786900Y1115660D01*
X784500Y1120440D01*
X781460Y1124840D01*
X778420Y1128220D01*
X777620Y1129520D01*
X777380Y1131040D01*
X777720Y1132520D01*
X778600Y1133780D01*
X779880Y1134600D01*
X781380Y1134900D01*
X1802080Y1134900D01*
X1803620Y1134600D01*
X1804920Y1133720D01*
X1829420Y1109220D01*
X1830300Y1107920D01*
X1830600Y1106380D01*
X1830600Y689659D01*
X1830340Y688220D01*
X1829560Y686979D01*
X1828400Y686100D01*
X1825240Y684500D01*
X1820820Y681460D01*
X1816860Y677880D01*
X1813400Y673780D01*
X1810520Y669260D01*
X1808260Y664400D01*
X1806680Y659300D01*
X1805780Y654020D01*
X1805600Y648660D01*
X1806140Y643340D01*
X1807380Y638120D01*
X1809300Y633120D01*
X1811879Y628420D01*
X1815060Y624120D01*
X1818779Y620260D01*
X1822980Y616940D01*
X1827580Y614220D01*
X1832520Y612120D01*
X1837680Y610720D01*
G37*
G36*
X2328160Y613980D02*
G01*
X2328160Y632500D01*
X2309640Y632500D01*
X2311880Y628420D01*
X2315060Y624120D01*
X2318780Y620260D01*
X2322980Y616940D01*
X2327580Y614220D01*
G37*
G36*
X2363160Y613980D02*
G01*
X2363760Y614220D01*
X2368360Y616940D01*
X2372560Y620260D01*
X2376280Y624120D01*
X2379460Y628420D01*
X2381700Y632500D01*
X2363160Y632500D01*
G37*
G36*
X1562200Y648580D02*
G01*
X1568260Y649140D01*
X1574220Y650380D01*
X1580000Y652340D01*
X1585500Y654960D01*
X1590660Y658220D01*
X1595380Y662060D01*
X1599640Y666420D01*
X1603320Y671260D01*
X1606420Y676520D01*
X1608880Y682099D01*
X1610660Y687920D01*
X1611740Y693920D01*
X1612100Y700000D01*
X1611740Y706080D01*
X1610660Y712080D01*
X1608880Y717900D01*
X1606420Y723480D01*
X1603320Y728740D01*
X1599640Y733580D01*
X1595380Y737940D01*
X1590660Y741780D01*
X1585500Y745040D01*
X1580000Y747660D01*
X1574220Y749620D01*
X1568260Y750860D01*
X1562200Y751420D01*
X1556100Y751220D01*
X1550080Y750340D01*
X1544199Y748720D01*
X1538560Y746440D01*
X1533220Y743500D01*
X1528260Y739940D01*
X1523760Y735819D01*
X1519780Y731200D01*
X1516380Y726160D01*
X1513600Y720740D01*
X1511480Y715020D01*
X1510040Y709100D01*
X1509319Y703040D01*
X1509319Y696960D01*
X1510040Y690900D01*
X1511480Y684980D01*
X1513600Y679260D01*
X1516380Y673840D01*
X1519780Y668800D01*
X1523760Y664180D01*
X1528260Y660060D01*
X1533220Y656500D01*
X1538560Y653560D01*
X1544199Y651280D01*
X1550080Y649659D01*
X1556100Y648780D01*
G37*
G36*
X2632200Y648580D02*
G01*
X2638260Y649140D01*
X2644220Y650380D01*
X2650000Y652340D01*
X2655500Y654960D01*
X2660659Y658220D01*
X2665380Y662060D01*
X2669640Y666420D01*
X2673320Y671260D01*
X2676420Y676520D01*
X2678880Y682099D01*
X2680659Y687920D01*
X2681740Y693920D01*
X2682100Y700000D01*
X2681740Y706080D01*
X2680659Y712080D01*
X2678880Y717900D01*
X2676420Y723480D01*
X2673320Y728740D01*
X2669640Y733580D01*
X2665380Y737940D01*
X2660659Y741780D01*
X2655500Y745040D01*
X2650000Y747660D01*
X2644220Y749620D01*
X2638260Y750860D01*
X2632200Y751420D01*
X2626100Y751220D01*
X2620080Y750340D01*
X2614200Y748720D01*
X2608560Y746440D01*
X2603220Y743500D01*
X2598260Y739940D01*
X2593759Y735819D01*
X2589780Y731200D01*
X2586380Y726160D01*
X2583600Y720740D01*
X2581480Y715020D01*
X2580040Y709100D01*
X2579320Y703040D01*
X2579320Y696960D01*
X2580040Y690900D01*
X2581480Y684980D01*
X2583600Y679260D01*
X2586380Y673840D01*
X2589780Y668800D01*
X2593759Y664180D01*
X2598260Y660060D01*
X2603220Y656500D01*
X2608560Y653560D01*
X2614200Y651280D01*
X2620080Y649659D01*
X2626100Y648780D01*
G37*
G36*
X-51340Y659940D02*
G01*
X-45980Y660120D01*
X-40700Y661000D01*
X-35600Y662580D01*
X-30740Y664840D01*
X-26220Y667720D01*
X-22120Y671180D01*
X-18540Y675160D01*
X-15500Y679560D01*
X-13100Y684340D01*
X-11339Y689400D01*
X-10260Y694659D01*
X-9900Y700000D01*
X-10260Y705340D01*
X-11339Y710600D01*
X-13100Y715660D01*
X-15500Y720440D01*
X-18540Y724840D01*
X-22120Y728820D01*
X-26220Y732280D01*
X-30740Y735160D01*
X-35600Y737420D01*
X-40700Y739000D01*
X-45980Y739880D01*
X-51340Y740060D01*
X-56660Y739539D01*
X-61880Y738300D01*
X-66880Y736360D01*
X-71580Y733800D01*
X-75880Y730620D01*
X-79740Y726900D01*
X-83059Y722680D01*
X-85780Y718080D01*
X-87880Y713160D01*
X-89280Y707980D01*
X-90000Y702680D01*
X-90000Y697320D01*
X-89280Y692020D01*
X-87880Y686840D01*
X-85780Y681919D01*
X-83059Y677320D01*
X-79740Y673100D01*
X-75880Y669380D01*
X-71580Y666200D01*
X-66880Y663640D01*
X-61880Y661700D01*
X-56660Y660460D01*
G37*
G36*
X2363160Y667500D02*
G01*
X2381640Y667500D01*
X2380820Y669260D01*
X2377940Y673780D01*
X2374480Y677880D01*
X2370520Y681460D01*
X2366100Y684500D01*
X2363160Y685980D01*
G37*
G36*
X2309700Y667500D02*
G01*
X2328160Y667500D01*
X2328160Y685980D01*
X2325240Y684500D01*
X2320820Y681460D01*
X2316860Y677880D01*
X2313400Y673780D01*
X2310520Y669260D01*
G37*
G36*
X1190380Y735360D02*
G01*
X1195520Y735360D01*
X1197980Y735639D01*
X1200120Y736400D01*
X1202020Y737600D01*
X1203620Y739180D01*
X1204820Y741100D01*
X1205580Y743220D01*
X1205840Y745699D01*
X1205840Y747880D01*
X1190380Y747880D01*
G37*
G36*
X1109480Y735360D02*
G01*
X1114620Y735360D01*
X1114620Y747880D01*
X1099160Y747880D01*
X1099160Y745699D01*
X1099420Y743220D01*
X1100180Y741100D01*
X1101380Y739180D01*
X1102980Y737600D01*
X1104880Y736400D01*
X1107020Y735639D01*
G37*
G36*
X1135380Y735360D02*
G01*
X1140520Y735360D01*
X1142980Y735639D01*
X1145120Y736400D01*
X1147020Y737600D01*
X1148620Y739180D01*
X1149120Y739960D01*
X1150220Y741120D01*
X1151700Y741760D01*
X1153300Y741760D01*
X1154780Y741120D01*
X1155880Y739960D01*
X1156380Y739180D01*
X1157980Y737600D01*
X1159880Y736400D01*
X1162020Y735639D01*
X1164480Y735360D01*
X1169620Y735360D01*
X1169620Y747880D01*
X1135380Y747880D01*
G37*
G36*
X-51340Y859940D02*
G01*
X-45980Y860120D01*
X-40700Y861000D01*
X-35600Y862580D01*
X-30740Y864840D01*
X-26220Y867720D01*
X-22120Y871180D01*
X-18540Y875160D01*
X-15500Y879560D01*
X-13100Y884340D01*
X-11339Y889400D01*
X-10260Y894659D01*
X-9900Y900000D01*
X-10260Y905340D01*
X-11339Y910600D01*
X-13100Y915660D01*
X-15500Y920440D01*
X-18540Y924840D01*
X-22120Y928820D01*
X-26220Y932280D01*
X-30740Y935160D01*
X-32580Y936020D01*
X-33800Y936900D01*
X-34620Y938160D01*
X-34900Y939640D01*
X-34900Y960360D01*
X-34620Y961840D01*
X-33800Y963100D01*
X-32580Y963980D01*
X-30740Y964840D01*
X-26220Y967720D01*
X-22120Y971180D01*
X-18540Y975160D01*
X-15500Y979560D01*
X-13100Y984340D01*
X-11339Y989400D01*
X-10260Y994659D01*
X-9900Y1000000D01*
X-10260Y1005340D01*
X-11339Y1010600D01*
X-13100Y1015660D01*
X-15500Y1020440D01*
X-18540Y1024840D01*
X-22120Y1028820D01*
X-26220Y1032280D01*
X-30740Y1035160D01*
X-35600Y1037420D01*
X-40700Y1039000D01*
X-45980Y1039880D01*
X-51340Y1040060D01*
X-56660Y1039539D01*
X-61880Y1038300D01*
X-66880Y1036360D01*
X-71580Y1033800D01*
X-75880Y1030620D01*
X-79740Y1026900D01*
X-83059Y1022680D01*
X-85780Y1018080D01*
X-87880Y1013160D01*
X-89280Y1007980D01*
X-90000Y1002680D01*
X-90000Y997320D01*
X-89280Y992020D01*
X-87880Y986840D01*
X-85780Y981919D01*
X-83059Y977320D01*
X-79740Y973100D01*
X-75880Y969380D01*
X-71580Y966200D01*
X-67180Y963800D01*
X-66080Y962900D01*
X-65359Y961680D01*
X-65100Y960300D01*
X-65100Y939700D01*
X-65359Y938319D01*
X-66080Y937099D01*
X-67180Y936200D01*
X-71580Y933800D01*
X-75880Y930620D01*
X-79740Y926900D01*
X-83059Y922680D01*
X-85780Y918080D01*
X-87880Y913160D01*
X-89280Y907980D01*
X-90000Y902680D01*
X-90000Y897320D01*
X-89280Y892020D01*
X-87880Y886840D01*
X-85780Y881919D01*
X-83059Y877320D01*
X-79740Y873100D01*
X-75880Y869380D01*
X-71580Y866200D01*
X-66880Y863640D01*
X-61880Y861700D01*
X-56660Y860460D01*
G37*
G36*
X2973620Y863400D02*
G01*
X3024380Y863400D01*
X3026840Y863680D01*
X3028980Y864419D01*
X3030880Y865620D01*
X3032480Y867220D01*
X3033680Y869120D01*
X3034420Y871260D01*
X3034700Y873720D01*
X3034700Y934280D01*
X3034420Y936740D01*
X3033680Y938880D01*
X3032480Y940780D01*
X3030880Y942380D01*
X3028980Y943580D01*
X3026840Y944320D01*
X3024380Y944599D01*
X2973620Y944599D01*
X2971160Y944320D01*
X2969020Y943580D01*
X2967120Y942380D01*
X2965520Y940780D01*
X2964320Y938880D01*
X2963580Y936740D01*
X2963300Y934280D01*
X2963300Y873720D01*
X2963580Y871260D01*
X2964320Y869120D01*
X2965520Y867220D01*
X2967120Y865620D01*
X2969020Y864419D01*
X2971160Y863680D01*
G37*
G36*
X2795620Y863400D02*
G01*
X2846380Y863400D01*
X2848840Y863680D01*
X2850980Y864419D01*
X2852880Y865620D01*
X2854480Y867220D01*
X2855680Y869120D01*
X2856420Y871260D01*
X2856700Y873720D01*
X2856700Y934280D01*
X2856420Y936740D01*
X2855680Y938880D01*
X2854480Y940780D01*
X2852880Y942380D01*
X2850980Y943580D01*
X2848840Y944320D01*
X2846380Y944599D01*
X2795620Y944599D01*
X2793159Y944320D01*
X2791019Y943580D01*
X2789120Y942380D01*
X2787520Y940780D01*
X2786320Y938880D01*
X2785580Y936740D01*
X2785299Y934280D01*
X2785299Y873720D01*
X2785580Y871260D01*
X2786320Y869120D01*
X2787520Y867220D01*
X2789120Y865620D01*
X2791019Y864419D01*
X2793159Y863680D01*
G37*
G36*
X1296399Y967860D02*
G01*
X1298940Y969060D01*
X1302080Y971240D01*
X1304780Y973940D01*
X1306960Y977060D01*
X1308580Y980520D01*
X1309560Y984220D01*
X1309920Y988660D01*
X1296399Y988660D01*
G37*
G36*
X1296399Y1023580D02*
G01*
X1309920Y1023580D01*
X1309560Y1028040D01*
X1308580Y1031720D01*
X1306960Y1035180D01*
X1304780Y1038319D01*
X1302080Y1041000D01*
X1298940Y1043199D01*
X1296399Y1044380D01*
G37*
G36*
X2795620Y1175400D02*
G01*
X2805700Y1175400D01*
X2805700Y1198240D01*
X2785299Y1198240D01*
X2785299Y1185720D01*
X2785580Y1183260D01*
X2786320Y1181120D01*
X2787520Y1179220D01*
X2789120Y1177620D01*
X2791019Y1176420D01*
X2793159Y1175680D01*
G37*
G36*
X2836300Y1175400D02*
G01*
X2846380Y1175400D01*
X2848840Y1175680D01*
X2850980Y1176420D01*
X2852880Y1177620D01*
X2854480Y1179220D01*
X2855680Y1181120D01*
X2856420Y1183260D01*
X2856700Y1185720D01*
X2856700Y1198240D01*
X2836300Y1198240D01*
G37*
G36*
X748660Y1259940D02*
G01*
X754020Y1260120D01*
X759300Y1261000D01*
X764400Y1262580D01*
X769260Y1264840D01*
X773780Y1267720D01*
X777880Y1271180D01*
X781460Y1275160D01*
X784500Y1279560D01*
X786900Y1284340D01*
X788660Y1289400D01*
X789740Y1294660D01*
X790100Y1300000D01*
X789740Y1305340D01*
X788660Y1310600D01*
X786900Y1315660D01*
X784500Y1320440D01*
X781460Y1324840D01*
X777880Y1328820D01*
X773780Y1332280D01*
X769260Y1335160D01*
X764400Y1337420D01*
X759300Y1339000D01*
X754020Y1339880D01*
X748660Y1340060D01*
X743340Y1339540D01*
X738120Y1338300D01*
X733120Y1336360D01*
X728420Y1333800D01*
X724120Y1330620D01*
X720260Y1326900D01*
X716940Y1322680D01*
X714220Y1318080D01*
X712120Y1313160D01*
X710720Y1307980D01*
X710000Y1302680D01*
X710000Y1297320D01*
X710720Y1292020D01*
X712120Y1286840D01*
X714220Y1281920D01*
X716940Y1277320D01*
X720260Y1273100D01*
X724120Y1269380D01*
X728420Y1266200D01*
X733120Y1263640D01*
X738120Y1261700D01*
X743340Y1260460D01*
G37*
G36*
X2963300Y1321740D02*
G01*
X2983700Y1321740D01*
X2983700Y1344600D01*
X2973620Y1344600D01*
X2971160Y1344319D01*
X2969020Y1343580D01*
X2967120Y1342380D01*
X2965520Y1340780D01*
X2964320Y1338880D01*
X2963580Y1336740D01*
X2963300Y1334280D01*
G37*
G36*
X3014300Y1321740D02*
G01*
X3034700Y1321740D01*
X3034700Y1334280D01*
X3034420Y1336740D01*
X3033680Y1338880D01*
X3032480Y1340780D01*
X3030880Y1342380D01*
X3028980Y1343580D01*
X3026840Y1344319D01*
X3024380Y1344600D01*
X3014300Y1344600D01*
G37*
G36*
X-51340Y1359940D02*
G01*
X-45980Y1360120D01*
X-40700Y1361000D01*
X-35600Y1362580D01*
X-30740Y1364840D01*
X-26220Y1367720D01*
X-22120Y1371180D01*
X-18540Y1375160D01*
X-15500Y1379560D01*
X-13100Y1384340D01*
X-11339Y1389400D01*
X-10260Y1394660D01*
X-9900Y1400000D01*
X-10260Y1405340D01*
X-11339Y1410600D01*
X-13100Y1415660D01*
X-15500Y1420440D01*
X-18540Y1424840D01*
X-22120Y1428820D01*
X-26220Y1432280D01*
X-30740Y1435160D01*
X-35600Y1437420D01*
X-40700Y1439000D01*
X-45980Y1439880D01*
X-51340Y1440060D01*
X-56660Y1439540D01*
X-61880Y1438300D01*
X-66880Y1436360D01*
X-71580Y1433800D01*
X-75880Y1430620D01*
X-79740Y1426900D01*
X-83059Y1422680D01*
X-85780Y1418080D01*
X-87880Y1413160D01*
X-89280Y1407980D01*
X-90000Y1402680D01*
X-90000Y1397320D01*
X-89280Y1392020D01*
X-87880Y1386840D01*
X-85780Y1381920D01*
X-83059Y1377320D01*
X-79740Y1373100D01*
X-75880Y1369379D01*
X-71580Y1366200D01*
X-66880Y1363640D01*
X-61880Y1361699D01*
X-56660Y1360460D01*
G37*
G36*
X748660Y1359940D02*
G01*
X754020Y1360120D01*
X759300Y1361000D01*
X764400Y1362580D01*
X769260Y1364840D01*
X773780Y1367720D01*
X777880Y1371180D01*
X781460Y1375160D01*
X784500Y1379560D01*
X786900Y1384340D01*
X788660Y1389400D01*
X789740Y1394660D01*
X790100Y1400000D01*
X789740Y1405340D01*
X788660Y1410600D01*
X786900Y1415660D01*
X784500Y1420440D01*
X781460Y1424840D01*
X777880Y1428820D01*
X773780Y1432280D01*
X769260Y1435160D01*
X764400Y1437420D01*
X759300Y1439000D01*
X754020Y1439880D01*
X748660Y1440060D01*
X743340Y1439540D01*
X738120Y1438300D01*
X733120Y1436360D01*
X728420Y1433800D01*
X724120Y1430620D01*
X720260Y1426900D01*
X716940Y1422680D01*
X714220Y1418080D01*
X712120Y1413160D01*
X710720Y1407980D01*
X710000Y1402680D01*
X710000Y1397320D01*
X710720Y1392020D01*
X712120Y1386840D01*
X714220Y1381920D01*
X716940Y1377320D01*
X720260Y1373100D01*
X724120Y1369379D01*
X728420Y1366200D01*
X733120Y1363640D01*
X738120Y1361699D01*
X743340Y1360460D01*
G37*
G36*
X-51340Y1459940D02*
G01*
X-45980Y1460120D01*
X-40700Y1461000D01*
X-35600Y1462580D01*
X-30740Y1464840D01*
X-26220Y1467720D01*
X-22120Y1471180D01*
X-18540Y1475160D01*
X-15500Y1479560D01*
X-13100Y1484340D01*
X-11339Y1489400D01*
X-10260Y1494660D01*
X-9900Y1500000D01*
X-10260Y1505340D01*
X-11339Y1510600D01*
X-13100Y1515660D01*
X-15500Y1520440D01*
X-18540Y1524840D01*
X-22120Y1528820D01*
X-26220Y1532280D01*
X-30740Y1535160D01*
X-35600Y1537420D01*
X-40700Y1539000D01*
X-45980Y1539880D01*
X-51340Y1540060D01*
X-56660Y1539540D01*
X-61880Y1538300D01*
X-66880Y1536360D01*
X-71580Y1533800D01*
X-75880Y1530620D01*
X-79740Y1526900D01*
X-83059Y1522680D01*
X-85780Y1518080D01*
X-87880Y1513160D01*
X-89280Y1507980D01*
X-90000Y1502680D01*
X-90000Y1497320D01*
X-89280Y1492020D01*
X-87880Y1486840D01*
X-85780Y1481920D01*
X-83059Y1477320D01*
X-79740Y1473100D01*
X-75880Y1469379D01*
X-71580Y1466200D01*
X-66880Y1463640D01*
X-61880Y1461699D01*
X-56660Y1460460D01*
G37*
G36*
X-51340Y1559940D02*
G01*
X-45980Y1560120D01*
X-40700Y1561000D01*
X-35600Y1562580D01*
X-30740Y1564840D01*
X-26220Y1567720D01*
X-22120Y1571180D01*
X-18540Y1575160D01*
X-15500Y1579560D01*
X-13100Y1584340D01*
X-11339Y1589400D01*
X-10260Y1594660D01*
X-9900Y1600000D01*
X-10260Y1605340D01*
X-11339Y1610600D01*
X-13100Y1615660D01*
X-15500Y1620440D01*
X-18540Y1624840D01*
X-22120Y1628820D01*
X-26220Y1632280D01*
X-30740Y1635160D01*
X-35600Y1637420D01*
X-40700Y1639000D01*
X-45980Y1639880D01*
X-51340Y1640060D01*
X-56660Y1639540D01*
X-61880Y1638300D01*
X-66880Y1636360D01*
X-71580Y1633800D01*
X-75880Y1630620D01*
X-79740Y1626900D01*
X-83059Y1622680D01*
X-85780Y1618080D01*
X-87880Y1613160D01*
X-89280Y1607980D01*
X-90000Y1602680D01*
X-90000Y1597320D01*
X-89280Y1592020D01*
X-87880Y1586840D01*
X-85780Y1581920D01*
X-83059Y1577320D01*
X-79740Y1573100D01*
X-75880Y1569379D01*
X-71580Y1566200D01*
X-66880Y1563640D01*
X-61880Y1561699D01*
X-56660Y1560460D01*
G37*
G36*
X2973620Y1575400D02*
G01*
X3024380Y1575400D01*
X3026840Y1575680D01*
X3028980Y1576420D01*
X3030880Y1577620D01*
X3032480Y1579220D01*
X3033680Y1581120D01*
X3034420Y1583260D01*
X3034700Y1585720D01*
X3034700Y1646279D01*
X3034420Y1648740D01*
X3033680Y1650880D01*
X3032480Y1652780D01*
X3030880Y1654379D01*
X3028980Y1655580D01*
X3027120Y1656220D01*
X3025720Y1657060D01*
X3024780Y1658400D01*
X3024440Y1660000D01*
X3024780Y1661600D01*
X3025720Y1662940D01*
X3027120Y1663779D01*
X3028980Y1664420D01*
X3030880Y1665620D01*
X3032480Y1667220D01*
X3033680Y1669120D01*
X3034420Y1671260D01*
X3034700Y1673720D01*
X3034700Y1686240D01*
X3014300Y1686240D01*
X3014300Y1660600D01*
X3014000Y1659060D01*
X3013120Y1657780D01*
X3011840Y1656900D01*
X3010299Y1656600D01*
X2987700Y1656600D01*
X2986160Y1656900D01*
X2984880Y1657780D01*
X2984000Y1659060D01*
X2983700Y1660600D01*
X2983700Y1686240D01*
X2963300Y1686240D01*
X2963300Y1673720D01*
X2963580Y1671260D01*
X2964320Y1669120D01*
X2965520Y1667220D01*
X2967120Y1665620D01*
X2969020Y1664420D01*
X2970880Y1663779D01*
X2972280Y1662940D01*
X2973220Y1661600D01*
X2973560Y1660000D01*
X2973220Y1658400D01*
X2972280Y1657060D01*
X2970880Y1656220D01*
X2969020Y1655580D01*
X2967120Y1654379D01*
X2965520Y1652780D01*
X2964320Y1650880D01*
X2963580Y1648740D01*
X2963300Y1646279D01*
X2963300Y1585720D01*
X2963580Y1583260D01*
X2964320Y1581120D01*
X2965520Y1579220D01*
X2967120Y1577620D01*
X2969020Y1576420D01*
X2971160Y1575680D01*
G37*
G36*
X-51340Y1659940D02*
G01*
X-45980Y1660120D01*
X-40700Y1661000D01*
X-35600Y1662580D01*
X-30740Y1664840D01*
X-26220Y1667720D01*
X-22120Y1671180D01*
X-18540Y1675160D01*
X-15500Y1679560D01*
X-13100Y1684340D01*
X-11339Y1689400D01*
X-10260Y1694660D01*
X-9900Y1700000D01*
X-10260Y1705340D01*
X-11339Y1710600D01*
X-13100Y1715660D01*
X-15500Y1720440D01*
X-18540Y1724840D01*
X-22120Y1728820D01*
X-26220Y1732280D01*
X-30740Y1735160D01*
X-35600Y1737420D01*
X-40700Y1739000D01*
X-45980Y1739880D01*
X-51340Y1740060D01*
X-56660Y1739540D01*
X-61880Y1738300D01*
X-66880Y1736360D01*
X-71580Y1733800D01*
X-75880Y1730620D01*
X-79740Y1726900D01*
X-83059Y1722680D01*
X-85780Y1718080D01*
X-87880Y1713160D01*
X-89280Y1707980D01*
X-90000Y1702680D01*
X-90000Y1697320D01*
X-89280Y1692020D01*
X-87880Y1686840D01*
X-85780Y1681920D01*
X-83059Y1677320D01*
X-79740Y1673100D01*
X-75880Y1669379D01*
X-71580Y1666200D01*
X-66880Y1663640D01*
X-61880Y1661699D01*
X-56660Y1660460D01*
G37*
G36*
X2963300Y1721740D02*
G01*
X2983700Y1721740D01*
X2983700Y1744600D01*
X2973620Y1744600D01*
X2971160Y1744319D01*
X2969020Y1743580D01*
X2967120Y1742380D01*
X2965520Y1740780D01*
X2964320Y1738880D01*
X2963580Y1736740D01*
X2963300Y1734280D01*
G37*
G36*
X3014300Y1721740D02*
G01*
X3034700Y1721740D01*
X3034700Y1734280D01*
X3034420Y1736740D01*
X3033680Y1738880D01*
X3032480Y1740780D01*
X3030880Y1742380D01*
X3028980Y1743580D01*
X3026840Y1744319D01*
X3024380Y1744600D01*
X3014300Y1744600D01*
G37*
G36*
X-51340Y1759940D02*
G01*
X-45980Y1760120D01*
X-40700Y1761000D01*
X-35600Y1762580D01*
X-30740Y1764840D01*
X-26220Y1767720D01*
X-22120Y1771180D01*
X-18540Y1775160D01*
X-15500Y1779560D01*
X-13100Y1784340D01*
X-11339Y1789400D01*
X-10260Y1794660D01*
X-9900Y1800000D01*
X-10260Y1805340D01*
X-11339Y1810600D01*
X-13100Y1815660D01*
X-15500Y1820440D01*
X-18540Y1824840D01*
X-22120Y1828820D01*
X-26220Y1832280D01*
X-30740Y1835160D01*
X-35600Y1837420D01*
X-40700Y1839000D01*
X-45980Y1839880D01*
X-51340Y1840060D01*
X-56660Y1839540D01*
X-61880Y1838300D01*
X-66880Y1836360D01*
X-71580Y1833800D01*
X-75880Y1830620D01*
X-79740Y1826900D01*
X-83059Y1822680D01*
X-85780Y1818080D01*
X-87880Y1813160D01*
X-89280Y1807980D01*
X-90000Y1802680D01*
X-90000Y1797320D01*
X-89280Y1792020D01*
X-87880Y1786840D01*
X-85780Y1781920D01*
X-83059Y1777320D01*
X-79740Y1773100D01*
X-75880Y1769379D01*
X-71580Y1766200D01*
X-66880Y1763640D01*
X-61880Y1761699D01*
X-56660Y1760460D01*
G37*
G36*
X2973620Y1975400D02*
G01*
X3024380Y1975400D01*
X3026840Y1975680D01*
X3028980Y1976420D01*
X3030880Y1977620D01*
X3032480Y1979220D01*
X3033680Y1981120D01*
X3034420Y1983260D01*
X3034700Y1985720D01*
X3034700Y2046279D01*
X3034420Y2048740D01*
X3033680Y2050880D01*
X3032480Y2052780D01*
X3030880Y2054379D01*
X3028980Y2055580D01*
X3026840Y2056320D01*
X3024380Y2056600D01*
X2973620Y2056600D01*
X2971160Y2056320D01*
X2969020Y2055580D01*
X2967120Y2054379D01*
X2965520Y2052780D01*
X2964320Y2050880D01*
X2963580Y2048740D01*
X2963300Y2046279D01*
X2963300Y1985720D01*
X2963580Y1983260D01*
X2964320Y1981120D01*
X2965520Y1979220D01*
X2967120Y1977620D01*
X2969020Y1976420D01*
X2971160Y1975680D01*
G37*
G36*
X2795620Y1975400D02*
G01*
X2846380Y1975400D01*
X2848840Y1975680D01*
X2850980Y1976420D01*
X2852880Y1977620D01*
X2854480Y1979220D01*
X2855680Y1981120D01*
X2856420Y1983260D01*
X2856700Y1985720D01*
X2856700Y2046279D01*
X2856420Y2048740D01*
X2855680Y2050880D01*
X2854480Y2052780D01*
X2852880Y2054379D01*
X2850980Y2055580D01*
X2848840Y2056320D01*
X2846380Y2056600D01*
X2795620Y2056600D01*
X2793159Y2056320D01*
X2791019Y2055580D01*
X2789120Y2054379D01*
X2787520Y2052780D01*
X2786320Y2050880D01*
X2785580Y2048740D01*
X2785299Y2046279D01*
X2785299Y1985720D01*
X2785580Y1983260D01*
X2786320Y1981120D01*
X2787520Y1979220D01*
X2789120Y1977620D01*
X2791019Y1976420D01*
X2793159Y1975680D01*
G37*
G36*
X-51340Y2059940D02*
G01*
X-45980Y2060120D01*
X-40700Y2061000D01*
X-35600Y2062580D01*
X-30740Y2064840D01*
X-26220Y2067720D01*
X-22120Y2071180D01*
X-18540Y2075160D01*
X-15500Y2079560D01*
X-13100Y2084340D01*
X-11339Y2089400D01*
X-10260Y2094660D01*
X-9900Y2100000D01*
X-10260Y2105340D01*
X-11339Y2110600D01*
X-13100Y2115660D01*
X-15500Y2120440D01*
X-18540Y2124840D01*
X-22120Y2128820D01*
X-26220Y2132280D01*
X-30740Y2135160D01*
X-35600Y2137420D01*
X-40700Y2139000D01*
X-45980Y2139880D01*
X-51340Y2140060D01*
X-56660Y2139540D01*
X-61880Y2138300D01*
X-66880Y2136360D01*
X-71580Y2133800D01*
X-75880Y2130620D01*
X-79740Y2126900D01*
X-83059Y2122680D01*
X-85780Y2118080D01*
X-87880Y2113160D01*
X-89280Y2107980D01*
X-90000Y2102680D01*
X-90000Y2097320D01*
X-89280Y2092020D01*
X-87880Y2086840D01*
X-85780Y2081920D01*
X-83059Y2077320D01*
X-79740Y2073100D01*
X-75880Y2069379D01*
X-71580Y2066200D01*
X-66880Y2063640D01*
X-61880Y2061699D01*
X-56660Y2060460D01*
G37*
G36*
X2632200Y2158580D02*
G01*
X2638260Y2159140D01*
X2644220Y2160380D01*
X2650000Y2162340D01*
X2655500Y2164960D01*
X2660659Y2168220D01*
X2665380Y2172060D01*
X2669640Y2176420D01*
X2673320Y2181260D01*
X2676420Y2186520D01*
X2678880Y2192100D01*
X2680659Y2197920D01*
X2681740Y2203920D01*
X2682100Y2210000D01*
X2681740Y2216080D01*
X2680659Y2222080D01*
X2678880Y2227900D01*
X2676420Y2233480D01*
X2673320Y2238740D01*
X2669640Y2243580D01*
X2665380Y2247940D01*
X2660659Y2251780D01*
X2655500Y2255040D01*
X2650000Y2257660D01*
X2644220Y2259620D01*
X2638260Y2260860D01*
X2632200Y2261420D01*
X2626100Y2261220D01*
X2620080Y2260340D01*
X2614200Y2258720D01*
X2608560Y2256440D01*
X2603220Y2253500D01*
X2598260Y2249940D01*
X2593759Y2245820D01*
X2589780Y2241200D01*
X2586380Y2236160D01*
X2583600Y2230740D01*
X2581480Y2225020D01*
X2580040Y2219100D01*
X2579320Y2213040D01*
X2579320Y2206960D01*
X2580040Y2200900D01*
X2581480Y2194980D01*
X2583600Y2189260D01*
X2586380Y2183840D01*
X2589780Y2178800D01*
X2593759Y2174180D01*
X2598260Y2170060D01*
X2603220Y2166500D01*
X2608560Y2163560D01*
X2614200Y2161280D01*
X2620080Y2159660D01*
X2626100Y2158780D01*
G37*
G36*
X1562200Y2158580D02*
G01*
X1568260Y2159140D01*
X1574220Y2160380D01*
X1580000Y2162340D01*
X1585500Y2164960D01*
X1590660Y2168220D01*
X1595380Y2172060D01*
X1599640Y2176420D01*
X1603320Y2181260D01*
X1606420Y2186520D01*
X1608880Y2192100D01*
X1610660Y2197920D01*
X1611740Y2203920D01*
X1612100Y2210000D01*
X1611740Y2216080D01*
X1610660Y2222080D01*
X1608880Y2227900D01*
X1606420Y2233480D01*
X1603320Y2238740D01*
X1599640Y2243580D01*
X1595380Y2247940D01*
X1590660Y2251780D01*
X1585500Y2255040D01*
X1580000Y2257660D01*
X1574220Y2259620D01*
X1568260Y2260860D01*
X1562200Y2261420D01*
X1556100Y2261220D01*
X1550080Y2260340D01*
X1544199Y2258720D01*
X1538560Y2256440D01*
X1533220Y2253500D01*
X1528260Y2249940D01*
X1523760Y2245820D01*
X1519780Y2241200D01*
X1516380Y2236160D01*
X1513600Y2230740D01*
X1511480Y2225020D01*
X1510040Y2219100D01*
X1509319Y2213040D01*
X1509319Y2206960D01*
X1510040Y2200900D01*
X1511480Y2194980D01*
X1513600Y2189260D01*
X1516380Y2183840D01*
X1519780Y2178800D01*
X1523760Y2174180D01*
X1528260Y2170060D01*
X1533220Y2166500D01*
X1538560Y2163560D01*
X1544199Y2161280D01*
X1550080Y2159660D01*
X1556100Y2158780D01*
G37*
G36*
X-67500Y2163980D02*
G01*
X-67500Y2182500D01*
X-86020Y2182500D01*
X-85780Y2181920D01*
X-83059Y2177320D01*
X-79740Y2173100D01*
X-75880Y2169380D01*
X-71580Y2166200D01*
G37*
G36*
X-32500Y2164020D02*
G01*
X-30740Y2164840D01*
X-26220Y2167720D01*
X-22120Y2171180D01*
X-18540Y2175160D01*
X-15500Y2179560D01*
X-14020Y2182500D01*
X-32500Y2182500D01*
G37*
G36*
X-32500Y2217500D02*
G01*
X-14020Y2217500D01*
X-15500Y2220440D01*
X-18540Y2224840D01*
X-22120Y2228820D01*
X-26220Y2232280D01*
X-30740Y2235160D01*
X-32500Y2235980D01*
G37*
G36*
X-86020Y2217500D02*
G01*
X-67500Y2217500D01*
X-67500Y2236020D01*
X-71580Y2233800D01*
X-75880Y2230620D01*
X-79740Y2226900D01*
X-83059Y2222680D01*
X-85780Y2218080D01*
G37*
G36*
X-51340Y2259940D02*
G01*
X-45980Y2260120D01*
X-40700Y2261000D01*
X-35600Y2262580D01*
X-30740Y2264840D01*
X-26220Y2267720D01*
X-22120Y2271180D01*
X-18540Y2275160D01*
X-15500Y2279560D01*
X-13100Y2284340D01*
X-11339Y2289400D01*
X-10260Y2294660D01*
X-9900Y2300000D01*
X-10260Y2305340D01*
X-11339Y2310600D01*
X-13100Y2315660D01*
X-15500Y2320440D01*
X-18540Y2324840D01*
X-22120Y2328820D01*
X-26220Y2332280D01*
X-30740Y2335160D01*
X-35600Y2337420D01*
X-40700Y2339000D01*
X-45980Y2339880D01*
X-51340Y2340060D01*
X-56660Y2339540D01*
X-61880Y2338300D01*
X-66880Y2336360D01*
X-71580Y2333800D01*
X-75880Y2330620D01*
X-79740Y2326900D01*
X-83059Y2322680D01*
X-85780Y2318080D01*
X-87880Y2313160D01*
X-89280Y2307980D01*
X-90000Y2302680D01*
X-90000Y2297320D01*
X-89280Y2292020D01*
X-87880Y2286840D01*
X-85780Y2281920D01*
X-83059Y2277320D01*
X-79740Y2273100D01*
X-75880Y2269380D01*
X-71580Y2266200D01*
X-66880Y2263640D01*
X-61880Y2261700D01*
X-56660Y2260460D01*
G37*
G36*
X1360220Y2372260D02*
G01*
X1419780Y2372260D01*
X1422240Y2372540D01*
X1424360Y2373280D01*
X1426279Y2374480D01*
X1427880Y2376080D01*
X1429079Y2378000D01*
X1429820Y2380120D01*
X1430100Y2382580D01*
X1430100Y2442140D01*
X1429820Y2444600D01*
X1429079Y2446740D01*
X1427880Y2448640D01*
X1426279Y2450240D01*
X1424360Y2451440D01*
X1422240Y2452180D01*
X1419780Y2452460D01*
X1360220Y2452460D01*
X1357760Y2452180D01*
X1355620Y2451440D01*
X1353720Y2450240D01*
X1352120Y2448640D01*
X1350920Y2446740D01*
X1350180Y2444600D01*
X1349900Y2442140D01*
X1349900Y2382580D01*
X1350180Y2380120D01*
X1350920Y2378000D01*
X1352120Y2376080D01*
X1353720Y2374480D01*
X1355620Y2373280D01*
X1357760Y2372540D01*
G37*
G36*
X1372500Y2474760D02*
G01*
X1372500Y2493280D01*
X1353959Y2493280D01*
X1354220Y2492700D01*
X1356940Y2488100D01*
X1360260Y2483900D01*
X1364120Y2480180D01*
X1368420Y2477000D01*
G37*
G36*
X1407500Y2474820D02*
G01*
X1409259Y2475640D01*
X1413779Y2478520D01*
X1417860Y2481980D01*
X1421459Y2485940D01*
X1424480Y2490360D01*
X1425980Y2493280D01*
X1407500Y2493280D01*
G37*
G36*
X1407500Y2528280D02*
G01*
X1425980Y2528280D01*
X1424480Y2531220D01*
X1421459Y2535640D01*
X1417860Y2539600D01*
X1413779Y2543060D01*
X1409259Y2545940D01*
X1407500Y2546760D01*
G37*
G36*
X1353959Y2528280D02*
G01*
X1372500Y2528280D01*
X1372500Y2546820D01*
X1368420Y2544580D01*
X1364120Y2541400D01*
X1360260Y2537680D01*
X1356940Y2533480D01*
X1354220Y2528880D01*
G37*
G36*
X1388660Y2569120D02*
G01*
X1394000Y2569300D01*
X1399280Y2570200D01*
X1404400Y2571780D01*
X1409259Y2574040D01*
X1413779Y2576920D01*
X1417860Y2580380D01*
X1421459Y2584340D01*
X1424480Y2588759D01*
X1426900Y2593540D01*
X1428660Y2598600D01*
X1429720Y2603840D01*
X1430080Y2609180D01*
X1429720Y2614540D01*
X1428660Y2619780D01*
X1426900Y2624840D01*
X1424480Y2629620D01*
X1421459Y2634040D01*
X1417860Y2638000D01*
X1413779Y2641460D01*
X1409259Y2644340D01*
X1404400Y2646600D01*
X1399280Y2648180D01*
X1394000Y2649080D01*
X1388660Y2649260D01*
X1383320Y2648720D01*
X1378120Y2647480D01*
X1373120Y2645560D01*
X1368420Y2642980D01*
X1364120Y2639800D01*
X1360260Y2636080D01*
X1356940Y2631880D01*
X1354220Y2627280D01*
X1352120Y2622340D01*
X1350700Y2617180D01*
X1350000Y2611860D01*
X1350000Y2606520D01*
X1350700Y2601200D01*
X1352120Y2596040D01*
X1354220Y2591100D01*
X1356940Y2586500D01*
X1360260Y2582300D01*
X1364120Y2578580D01*
X1368420Y2575400D01*
X1373120Y2572820D01*
X1378120Y2570899D01*
X1383320Y2569660D01*
G37*
G36*
X700000Y2611160D02*
G01*
X708199Y2611540D01*
X716320Y2612679D01*
X724320Y2614560D01*
X732099Y2617160D01*
X739599Y2620480D01*
X746760Y2624480D01*
X753540Y2629100D01*
X759840Y2634340D01*
X765660Y2640160D01*
X770900Y2646460D01*
X775520Y2653240D01*
X779520Y2660400D01*
X782840Y2667900D01*
X785440Y2675680D01*
X787320Y2683680D01*
X788460Y2691800D01*
X788840Y2700000D01*
X788460Y2708200D01*
X787320Y2716320D01*
X785440Y2724320D01*
X782840Y2732100D01*
X779520Y2739600D01*
X775520Y2746760D01*
X770900Y2753540D01*
X765660Y2759840D01*
X759840Y2765659D01*
X753540Y2770899D01*
X746760Y2775520D01*
X739599Y2779520D01*
X732099Y2782840D01*
X724320Y2785440D01*
X716320Y2787320D01*
X708199Y2788460D01*
X700000Y2788840D01*
X691800Y2788460D01*
X683680Y2787320D01*
X675680Y2785440D01*
X667900Y2782840D01*
X660400Y2779520D01*
X653240Y2775520D01*
X646460Y2770899D01*
X640160Y2765659D01*
X634340Y2759840D01*
X629100Y2753540D01*
X624480Y2746760D01*
X620480Y2739600D01*
X617160Y2732100D01*
X614560Y2724320D01*
X612680Y2716320D01*
X611540Y2708200D01*
X611160Y2700000D01*
X611540Y2691800D01*
X612680Y2683680D01*
X614560Y2675680D01*
X617160Y2667900D01*
X620480Y2660400D01*
X624480Y2653240D01*
X629100Y2646460D01*
X634340Y2640160D01*
X640160Y2634340D01*
X646460Y2629100D01*
X653240Y2624480D01*
X660400Y2620480D01*
X667900Y2617160D01*
X675680Y2614560D01*
X683680Y2612679D01*
X691800Y2611540D01*
G37*
G36*
X0Y2611160D02*
G01*
X8200Y2611540D01*
X16319Y2612679D01*
X24320Y2614560D01*
X32100Y2617160D01*
X39600Y2620480D01*
X46760Y2624480D01*
X53540Y2629100D01*
X59840Y2634340D01*
X65660Y2640160D01*
X70900Y2646460D01*
X75520Y2653240D01*
X79520Y2660400D01*
X82840Y2667900D01*
X85440Y2675680D01*
X87320Y2683680D01*
X88460Y2691800D01*
X88840Y2700000D01*
X88460Y2708200D01*
X87320Y2716320D01*
X85440Y2724320D01*
X82840Y2732100D01*
X79520Y2739600D01*
X75520Y2746760D01*
X70900Y2753540D01*
X65660Y2759840D01*
X59840Y2765659D01*
X53540Y2770899D01*
X46760Y2775520D01*
X39600Y2779520D01*
X32100Y2782840D01*
X24320Y2785440D01*
X16319Y2787320D01*
X8200Y2788460D01*
X0Y2788840D01*
X-8200Y2788460D01*
X-16319Y2787320D01*
X-24320Y2785440D01*
X-32100Y2782840D01*
X-39600Y2779520D01*
X-46760Y2775520D01*
X-53540Y2770899D01*
X-59840Y2765659D01*
X-65660Y2759840D01*
X-70900Y2753540D01*
X-75520Y2746760D01*
X-79520Y2739600D01*
X-82840Y2732100D01*
X-85440Y2724320D01*
X-87320Y2716320D01*
X-88460Y2708200D01*
X-88840Y2700000D01*
X-88460Y2691800D01*
X-87320Y2683680D01*
X-85440Y2675680D01*
X-82840Y2667900D01*
X-79520Y2660400D01*
X-75520Y2653240D01*
X-70900Y2646460D01*
X-65660Y2640160D01*
X-59840Y2634340D01*
X-53540Y2629100D01*
X-46760Y2624480D01*
X-39600Y2620480D01*
X-32100Y2617160D01*
X-24320Y2614560D01*
X-16319Y2612679D01*
X-8200Y2611540D01*
G37*
G36*
X1388660Y2667580D02*
G01*
X1394000Y2667760D01*
X1399280Y2668639D01*
X1404400Y2670220D01*
X1409259Y2672480D01*
X1413779Y2675360D01*
X1417860Y2678820D01*
X1421459Y2682799D01*
X1424480Y2687200D01*
X1426900Y2691980D01*
X1428660Y2697040D01*
X1429720Y2702300D01*
X1430080Y2707640D01*
X1429720Y2712980D01*
X1428660Y2718240D01*
X1426900Y2723300D01*
X1424480Y2728080D01*
X1421459Y2732480D01*
X1417860Y2736460D01*
X1413779Y2739920D01*
X1409259Y2742799D01*
X1404400Y2745059D01*
X1399280Y2746640D01*
X1394000Y2747520D01*
X1388660Y2747700D01*
X1383320Y2747180D01*
X1378120Y2745940D01*
X1373120Y2744000D01*
X1368420Y2741440D01*
X1364120Y2738260D01*
X1360260Y2734540D01*
X1356940Y2730320D01*
X1354220Y2725720D01*
X1352120Y2720800D01*
X1350700Y2715620D01*
X1350000Y2710320D01*
X1350000Y2704960D01*
X1350700Y2699660D01*
X1352120Y2694480D01*
X1354220Y2689560D01*
X1356940Y2684960D01*
X1360260Y2680740D01*
X1364120Y2677020D01*
X1368420Y2673840D01*
X1373120Y2671280D01*
X1378120Y2669340D01*
X1383320Y2668100D01*
G37*

%LPD*%
G36*
X1147920Y1685100D02*
G01*
X1146380Y1685400D01*
X1145080Y1686279D01*
X1138940Y1692420D01*
X1138080Y1693700D01*
X1137760Y1695200D01*
X1138040Y1696699D01*
X1138860Y1698000D01*
X1140100Y1698880D01*
X1141600Y1699240D01*
X1141600Y1720420D01*
X1128080Y1720420D01*
X1128440Y1715960D01*
X1129340Y1712560D01*
X1129420Y1710840D01*
X1128760Y1709240D01*
X1127480Y1708060D01*
X1125840Y1707540D01*
X1124120Y1707760D01*
X1122660Y1708700D01*
X1070820Y1760540D01*
X1068380Y1762540D01*
X1065780Y1763940D01*
X1062940Y1764800D01*
X1059800Y1765100D01*
X781380Y1765100D01*
X779880Y1765400D01*
X778600Y1766220D01*
X777720Y1767480D01*
X777380Y1768959D01*
X777620Y1770480D01*
X778420Y1771780D01*
X781460Y1775160D01*
X784500Y1779560D01*
X786900Y1784340D01*
X788660Y1789400D01*
X789740Y1794660D01*
X790100Y1800000D01*
X789740Y1805340D01*
X788660Y1810600D01*
X786900Y1815660D01*
X784500Y1820440D01*
X781460Y1824840D01*
X778420Y1828220D01*
X777620Y1829520D01*
X777380Y1831040D01*
X777720Y1832520D01*
X778600Y1833779D01*
X779880Y1834600D01*
X781380Y1834900D01*
X1135820Y1834900D01*
X1137340Y1834600D01*
X1138640Y1833720D01*
X1139520Y1832440D01*
X1139820Y1830900D01*
X1139520Y1829360D01*
X1138640Y1828080D01*
X1137600Y1827020D01*
X1136400Y1825120D01*
X1135660Y1822980D01*
X1135380Y1820520D01*
X1135380Y1815380D01*
X1147900Y1815380D01*
X1147900Y1830900D01*
X1148200Y1832440D01*
X1149080Y1833720D01*
X1150360Y1834600D01*
X1151900Y1834900D01*
X1158740Y1834900D01*
X1160280Y1834600D01*
X1161560Y1833720D01*
X1162440Y1832440D01*
X1162740Y1830900D01*
X1162740Y1815380D01*
X1170740Y1815380D01*
X1172280Y1815060D01*
X1173580Y1814199D01*
X1174440Y1812900D01*
X1174740Y1811380D01*
X1174740Y1798620D01*
X1174440Y1797100D01*
X1173580Y1795800D01*
X1172280Y1794940D01*
X1170740Y1794620D01*
X1162740Y1794620D01*
X1162740Y1775160D01*
X1162440Y1773620D01*
X1161560Y1772320D01*
X1160280Y1771459D01*
X1158400Y1771160D01*
X1158400Y1755340D01*
X1174080Y1755340D01*
X1175620Y1755040D01*
X1176920Y1754160D01*
X1177780Y1752860D01*
X1178080Y1751339D01*
X1178080Y1724420D01*
X1177780Y1722880D01*
X1176920Y1721579D01*
X1175620Y1720720D01*
X1174080Y1720420D01*
X1158400Y1720420D01*
X1158400Y1699620D01*
X1160940Y1700800D01*
X1164080Y1703000D01*
X1166780Y1705680D01*
X1168960Y1708820D01*
X1170580Y1712280D01*
X1171140Y1714360D01*
X1171940Y1715900D01*
X1173300Y1716960D01*
X1175000Y1717340D01*
X1176700Y1716960D01*
X1178060Y1715900D01*
X1178860Y1714360D01*
X1179420Y1712280D01*
X1181040Y1708820D01*
X1183220Y1705680D01*
X1185920Y1703000D01*
X1189060Y1700800D01*
X1192520Y1699180D01*
X1196200Y1698200D01*
X1200000Y1697860D01*
X1203800Y1698200D01*
X1207480Y1699180D01*
X1210940Y1700800D01*
X1214080Y1703000D01*
X1216780Y1705680D01*
X1218960Y1708820D01*
X1220580Y1712280D01*
X1221140Y1714360D01*
X1221940Y1715900D01*
X1223300Y1716960D01*
X1225000Y1717340D01*
X1226700Y1716960D01*
X1228060Y1715900D01*
X1228860Y1714360D01*
X1229420Y1712280D01*
X1231040Y1708820D01*
X1233220Y1705680D01*
X1235920Y1703000D01*
X1239060Y1700800D01*
X1242520Y1699180D01*
X1246200Y1698200D01*
X1250000Y1697860D01*
X1253800Y1698200D01*
X1257480Y1699180D01*
X1260940Y1700800D01*
X1264080Y1703000D01*
X1266780Y1705680D01*
X1268960Y1708820D01*
X1270580Y1712280D01*
X1271140Y1714360D01*
X1271940Y1715900D01*
X1273300Y1716960D01*
X1275000Y1717340D01*
X1276700Y1716960D01*
X1278060Y1715900D01*
X1278860Y1714360D01*
X1279420Y1712280D01*
X1281040Y1708820D01*
X1283220Y1705680D01*
X1283720Y1705180D01*
X1284600Y1703880D01*
X1284900Y1702360D01*
X1284900Y1697920D01*
X1284600Y1696380D01*
X1283720Y1695080D01*
X1274920Y1686279D01*
X1273620Y1685400D01*
X1272080Y1685100D01*
G37*

%LPC*%
G36*
X1128080Y1755340D02*
G01*
X1141600Y1755340D01*
X1141600Y1781519D01*
X1141860Y1782960D01*
X1142640Y1784220D01*
X1143820Y1785100D01*
X1145240Y1785500D01*
X1147900Y1785720D01*
X1147900Y1794620D01*
X1135380Y1794620D01*
X1135380Y1789480D01*
X1135660Y1787020D01*
X1136400Y1784880D01*
X1137600Y1782980D01*
X1139540Y1781040D01*
X1140480Y1779580D01*
X1140720Y1777860D01*
X1140200Y1776200D01*
X1139020Y1774920D01*
X1135920Y1772760D01*
X1133220Y1770060D01*
X1131040Y1766940D01*
X1129420Y1763480D01*
X1128440Y1759780D01*
G37*

%LPD*%
D10*
X750000Y700000D02*
G01*
X970000Y700000D01*
X1100000Y570000D01*
X2520000Y570000D01*
X2550000Y600000D01*
X2550000Y1180000D01*
X2673999Y1304000D01*
X2821000Y1304000D01*
X2821000Y1704000D02*
G01*
X2416000Y1704000D01*
X2170000Y1950000D01*
X-90000Y1950000D01*
X-140000Y1900000D01*
X-140000Y860000D01*
X-80000Y800000D01*
X-50000Y800000D01*
X750000Y1600000D02*
G01*
X730000Y1600000D01*
X680000Y1550000D01*
X680000Y1170000D01*
X700000Y1150000D01*
X1810000Y1150000D01*
X1845699Y1114299D01*
X1845699Y650000D01*
X1945699Y650000D02*
G01*
X1945699Y1114299D01*
X1890000Y1170000D01*
X780000Y1170000D01*
X750000Y1200000D01*
X1600000Y415000D02*
G01*
X1605315Y409684D01*
X1605315Y370000D01*
X944700Y370000D02*
G01*
X945000Y215801D01*
X1084700Y370000D02*
G01*
X1085000Y215801D01*
X1224700Y370000D02*
G01*
X1225000Y215801D01*
X1364700Y370000D02*
G01*
X1365000Y215801D01*
X1504700Y370000D02*
G01*
X1505000Y215801D01*
X1644700Y370000D02*
G01*
X1645000Y215801D01*
X1645000Y215801D02*
G01*
X1690491Y170309D01*
X1695000Y170309D01*
X1610000Y215000D02*
G01*
X1645000Y215801D01*
X1555000Y170309D02*
G01*
X1565309Y170309D01*
X1610000Y215000D01*
X1505000Y215801D02*
G01*
X1550491Y170309D01*
X1555000Y170309D01*
X1470000Y215000D02*
G01*
X1505000Y215801D01*
X1415000Y170309D02*
G01*
X1425309Y170309D01*
X1470000Y215000D01*
X1365000Y215801D02*
G01*
X1410491Y170309D01*
X1415000Y170309D01*
X1330000Y215000D02*
G01*
X1365000Y215801D01*
X1275000Y170309D02*
G01*
X1285309Y170309D01*
X1330000Y215000D01*
X1225000Y215801D02*
G01*
X1270491Y170309D01*
X1275000Y170309D01*
X1190000Y215000D02*
G01*
X1225000Y215801D01*
X1135000Y170309D02*
G01*
X1145309Y170309D01*
X1190000Y215000D01*
X1085000Y215801D02*
G01*
X1130491Y170309D01*
X1135000Y170309D01*
X1050000Y215000D02*
G01*
X1085000Y215801D01*
X995000Y170309D02*
G01*
X1005309Y170309D01*
X1050000Y215000D01*
X945000Y215801D02*
G01*
X990491Y170309D01*
X995000Y170309D01*
X910000Y215000D02*
G01*
X945000Y215801D01*
X995000Y209679D02*
G01*
X982399Y222280D01*
X982399Y314198D01*
X995000Y365320D02*
G01*
X982399Y352719D01*
X982399Y314198D01*
X1135000Y209679D02*
G01*
X1122399Y222280D01*
X1122399Y314198D01*
X1135000Y365320D02*
G01*
X1122399Y352719D01*
X1122399Y314198D01*
X1275000Y209679D02*
G01*
X1262399Y222280D01*
X1262399Y314198D01*
X1275000Y365320D02*
G01*
X1262399Y352719D01*
X1262399Y314198D01*
X1415000Y209679D02*
G01*
X1402399Y222280D01*
X1402399Y314198D01*
X1415000Y365320D02*
G01*
X1402399Y352719D01*
X1402399Y314198D01*
X1555000Y209679D02*
G01*
X1542399Y222280D01*
X1542399Y314198D01*
X1555000Y365320D02*
G01*
X1542399Y352719D01*
X1542399Y314198D01*
X1605315Y370000D02*
G01*
X1607600Y367714D01*
X1607600Y314198D01*
X1695000Y209679D02*
G01*
X1682399Y222280D01*
X1682399Y314198D01*
X1695000Y365320D02*
G01*
X1682399Y352719D01*
X1682399Y314198D01*
X1695000Y170309D02*
G01*
X1700309Y170309D01*
X1300000Y1522129D02*
G01*
X1294683Y1516812D01*
X1294683Y1455001D01*
X1194687Y1804998D02*
G01*
X1200000Y1799684D01*
X1200000Y1737871D01*
X1280000Y1580000D02*
G01*
X1280000Y1542129D01*
X1300000Y1522129D01*
X1250000Y1522129D02*
G01*
X1255312Y1516819D01*
X1255312Y1455001D01*
X907600Y314200D02*
G01*
X905320Y316480D01*
X905320Y370000D01*
X1045315Y370000D02*
G01*
X1047600Y367714D01*
X1047600Y314198D01*
X905320Y370000D02*
G01*
X905320Y409679D01*
X900000Y415000D01*
X1040000Y415000D02*
G01*
X1045315Y409684D01*
X1045315Y370000D01*
X1180000Y415000D02*
G01*
X1185315Y409684D01*
X1185315Y370000D01*
X1185315Y370000D02*
G01*
X1187600Y367714D01*
X1187600Y314198D01*
X1320000Y415000D02*
G01*
X1325315Y409684D01*
X1325315Y370000D01*
X1325315Y370000D02*
G01*
X1327600Y367714D01*
X1327600Y314198D01*
X1465315Y370000D02*
G01*
X1467600Y367714D01*
X1467600Y314198D01*
X1460000Y415000D02*
G01*
X1465315Y409684D01*
X1465315Y370000D01*
X-50000Y1300000D02*
G01*
X30000Y1300000D01*
X580000Y1850000D01*
X1230000Y1850000D01*
X1250000Y1830000D01*
X1250000Y1737869D01*
X1300000Y1737869D02*
G01*
X1300000Y1690000D01*
X1280000Y1670000D01*
X1140000Y1670000D01*
X1060000Y1750000D01*
X580000Y1750000D01*
X30000Y1200000D01*
X-50000Y1200000D01*
X1389678Y1080000D02*
G01*
X1390000Y1079679D01*
X1390000Y1035000D01*
X1350309Y1080000D02*
G01*
X1288999Y1080000D01*
X1237997Y1028998D01*
X1237997Y1006100D01*
X1240002Y1280311D02*
G01*
X1238000Y1278308D01*
X1238000Y1221871D01*
X1185997Y1280311D02*
G01*
X1188000Y1278308D01*
X1188000Y1221871D01*
X1138000Y1319000D02*
G01*
X1138000Y1221871D01*
X1138000Y1319000D02*
G01*
X1185997Y1319701D01*
X1185997Y1319681D02*
G01*
X1240002Y1319681D01*
X1138000Y1064000D02*
G01*
X1138000Y1006129D01*
X1188000Y1064000D02*
G01*
X1188000Y1006129D01*
X1200000Y1522100D02*
G01*
X1200000Y1530000D01*
X1075000Y1655000D01*
X585000Y1655000D01*
X30000Y1100000D01*
X-50000Y1100000D01*
X1150000Y1522129D02*
G01*
X1150000Y1470000D01*
X750000Y800000D02*
G01*
X830000Y800000D01*
X1090000Y1060000D01*
X1133999Y1060000D01*
X1138000Y1064000D01*
X750000Y900000D02*
G01*
X870000Y900000D01*
X1070000Y1100000D01*
X1151999Y1100000D01*
X1188000Y1064000D01*
X-50000Y1000000D02*
G01*
X-50000Y900000D01*
X3120000Y174699D02*
G01*
X3165000Y175000D01*
X2908301Y200000D02*
G01*
X2890000Y200000D01*
X2870000Y220000D01*
X2790316Y245000D02*
G01*
X2775000Y245000D01*
X2760000Y230000D01*
X2760000Y180000D01*
X2788687Y151316D01*
X2792997Y151316D01*
X3020000Y590000D02*
G01*
X3024413Y585585D01*
X3024413Y557240D01*
X2975586Y462759D02*
G01*
X2995000Y443346D01*
X2995000Y440000D01*
X2987529Y397019D02*
G01*
X3024413Y433901D01*
X3024413Y462759D01*
X3019018Y326159D02*
G01*
X2967842Y326159D01*
X2957997Y336001D01*
X2896981Y345839D02*
G01*
X2948158Y345839D01*
X2957997Y336001D01*
X3019018Y326159D02*
G01*
X3041162Y326159D01*
X3050000Y335000D01*
X3050000Y350000D01*
X3080000Y380000D01*
X3019018Y306469D02*
G01*
X3019018Y326159D01*
X3080000Y380000D02*
G01*
X3081181Y381179D01*
X3128188Y381179D01*
X2819683Y40001D02*
G01*
X2819683Y24682D01*
X2800000Y5000D01*
X2535000Y5000D01*
X2510316Y29682D01*
X2510316Y39998D01*
X3065000Y135315D02*
G01*
X3120000Y135315D01*
X3025000Y130000D02*
G01*
X3030316Y135315D01*
X3065000Y135315D01*
X2655497Y275199D02*
G01*
X2690000Y275000D01*
X2850000Y110000D02*
G01*
X2808687Y151316D01*
X2792997Y151316D01*
X2871000Y161001D02*
G01*
X2885995Y146003D01*
X2908311Y146003D01*
X2655508Y342118D02*
G01*
X2657632Y340000D01*
X2690000Y340000D01*
X2880000Y545000D02*
G01*
X2892241Y557240D01*
X2924408Y557240D01*
X2967842Y397019D02*
G01*
X2967842Y422161D01*
X2950000Y440001D01*
X2950000Y462759D01*
X2948158Y397019D02*
G01*
X2948158Y416840D01*
X2935000Y430000D01*
X2655000Y430000D01*
X2605000Y380000D01*
X2605000Y108469D01*
X2928472Y397019D02*
G01*
X2920487Y405000D01*
X2655000Y405000D01*
X2625000Y375000D01*
X2625000Y208469D01*
X2725000Y108472D01*
X2887997Y110000D02*
G01*
X2819683Y41682D01*
X2819683Y40001D01*
X2792997Y190686D02*
G01*
X2829683Y227370D01*
X2829683Y245000D01*
X2908788Y286790D02*
G01*
X2878578Y256577D01*
X2878578Y256577D02*
G01*
X2867002Y245000D01*
X2829683Y245000D01*
X2750000Y350000D02*
G01*
X2765000Y335000D01*
X2855000Y335000D01*
X2750000Y275189D02*
G01*
X2774809Y300000D01*
X2855000Y300000D01*
X3080000Y300000D02*
G01*
X3084408Y304409D01*
X3128188Y304409D01*
X3080000Y335000D02*
G01*
X3085000Y330000D01*
X3128188Y330000D01*
X2855000Y300000D02*
G01*
X2861469Y306469D01*
X2896981Y306469D01*
X2855000Y335000D02*
G01*
X2863837Y326159D01*
X2896981Y326159D01*
X2998002Y166318D02*
G01*
X2997997Y133998D01*
X2973999Y110000D01*
X2887997Y110000D01*
X2807313Y190686D01*
X2792997Y190686D01*
X2947690Y200996D02*
G01*
X2947681Y146003D01*
X2928472Y274980D02*
G01*
X2908320Y254828D01*
X2908320Y200996D01*
X2948198Y275000D02*
G01*
X2947700Y201001D01*
X2967842Y274980D02*
G01*
X2967842Y235851D01*
X2998002Y205688D01*
X2549687Y39998D02*
G01*
X2551234Y41543D01*
X2605000Y41543D01*
X2725000Y41543D02*
G01*
X2726538Y40001D01*
X2780312Y40001D01*
X3065000Y174684D02*
G01*
X3120000Y174684D01*
X3128198Y278798D02*
G01*
X3096000Y278998D01*
X3065000Y250000D01*
X3065000Y174699D01*
X3050000Y620000D02*
G01*
X3050000Y557240D01*
X2960000Y590000D02*
G01*
X2975591Y574409D01*
X2975591Y557240D01*
X2924399Y557199D02*
G01*
X2961602Y520000D01*
X3065000Y520000D01*
X3075600Y530601D01*
X3075600Y557199D01*
X-50000Y600000D02*
G01*
X750000Y600000D01*
X2145699Y650000D02*
G01*
X2145699Y1644299D01*
X2052100Y1737899D01*
X1300000Y1737899D01*
X1250000Y1737899D02*
G01*
X1250000Y1830000D01*
X1270000Y1850000D01*
X2110000Y1850000D01*
X2245699Y1714299D01*
X2245699Y650000D01*
X2045699Y650000D02*
G01*
X2045699Y1354299D01*
X1990000Y1410000D01*
X1010000Y1410000D01*
X920000Y1500000D01*
X750000Y1500000D01*
X750000Y1000000D02*
G01*
X700000Y950000D01*
X700000Y680000D01*
X730000Y650000D01*
X970000Y650000D01*
X1100000Y520000D01*
X2720000Y520000D01*
X2910000Y710000D01*
X2910000Y1126999D01*
X2998999Y1215999D01*
X1138000Y1006129D02*
G01*
X1125000Y993130D01*
X1125000Y794690D01*
X1188000Y1006129D02*
G01*
X1180000Y998130D01*
X1180000Y794690D01*
D11*
X1138000Y1024239D02*
G01*
X1138000Y988018D01*
X1188000Y1024239D02*
G01*
X1188000Y988018D01*
X1238000Y1024239D02*
G01*
X1238000Y988018D01*
X1288000Y1024239D02*
G01*
X1288000Y988018D01*
X1138000Y1239980D02*
G01*
X1138000Y1203759D01*
X1188000Y1239980D02*
G01*
X1188000Y1203759D01*
X1238000Y1239980D02*
G01*
X1238000Y1203759D01*
X1288000Y1239980D02*
G01*
X1288000Y1203759D01*
X1300000Y1719758D02*
G01*
X1300000Y1755979D01*
X1250000Y1719758D02*
G01*
X1250000Y1755979D01*
X1200000Y1719758D02*
G01*
X1200000Y1755979D01*
X1150000Y1719758D02*
G01*
X1150000Y1755979D01*
X1300000Y1504020D02*
G01*
X1300000Y1540239D01*
X1250000Y1504020D02*
G01*
X1250000Y1540239D01*
X1200000Y1504020D02*
G01*
X1200000Y1540239D01*
X1150000Y1504020D02*
G01*
X1150000Y1540239D01*
G36*
X2795399Y1246500D02*
G01*
X2846599Y1246500D01*
X2846599Y1185500D01*
X2795399Y1185500D01*
G37*
G36*
X2795399Y934499D02*
G01*
X2846599Y934499D01*
X2846599Y873499D01*
X2795399Y873499D01*
G37*
G36*
X2973400Y1246500D02*
G01*
X3024600Y1246500D01*
X3024600Y1185500D01*
X2973400Y1185500D01*
G37*
G36*
X2973400Y934499D02*
G01*
X3024600Y934499D01*
X3024600Y873499D01*
X2973400Y873499D01*
G37*
D13*
G01*
X2998999Y1704000D03*
G01*
X2998999Y2015999D03*
G01*
X2821000Y1704000D03*
G01*
X2821000Y2015999D03*
G01*
X2998999Y1304000D03*
G01*
X2998999Y1615999D03*
G01*
X2821000Y1304000D03*
G01*
X2821000Y1615999D03*
G36*
X2709390Y59274D02*
G01*
X2740887Y59274D01*
X2740887Y27777D01*
X2709390Y27777D01*
G37*
G36*
X2709115Y122226D02*
G01*
X2740610Y122226D01*
X2740610Y90731D01*
X2709115Y90731D01*
G37*
G36*
X2589390Y59274D02*
G01*
X2620887Y59274D01*
X2620887Y27777D01*
X2589390Y27777D01*
G37*
G36*
X2589115Y122226D02*
G01*
X2620610Y122226D01*
X2620610Y90731D01*
X2589115Y90731D01*
G37*
G36*
X1631220Y240405D02*
G01*
X1658779Y240405D01*
X1658779Y191194D01*
X1631220Y191194D01*
G37*
G36*
X1593819Y338805D02*
G01*
X1621379Y338805D01*
X1621379Y289594D01*
X1593819Y289594D01*
G37*
G36*
X1668620Y338805D02*
G01*
X1696180Y338805D01*
X1696180Y289594D01*
X1668620Y289594D01*
G37*
G36*
X1491220Y240405D02*
G01*
X1518779Y240405D01*
X1518779Y191194D01*
X1491220Y191194D01*
G37*
G36*
X1453819Y338805D02*
G01*
X1481379Y338805D01*
X1481379Y289594D01*
X1453819Y289594D01*
G37*
G36*
X1528620Y338805D02*
G01*
X1556180Y338805D01*
X1556180Y289594D01*
X1528620Y289594D01*
G37*
G36*
X1351220Y240405D02*
G01*
X1378779Y240405D01*
X1378779Y191194D01*
X1351220Y191194D01*
G37*
G36*
X1313819Y338805D02*
G01*
X1341379Y338805D01*
X1341379Y289594D01*
X1313819Y289594D01*
G37*
G36*
X1388620Y338805D02*
G01*
X1416180Y338805D01*
X1416180Y289594D01*
X1388620Y289594D01*
G37*
G36*
X1211220Y240405D02*
G01*
X1238779Y240405D01*
X1238779Y191194D01*
X1211220Y191194D01*
G37*
G36*
X1173819Y338805D02*
G01*
X1201379Y338805D01*
X1201379Y289594D01*
X1173819Y289594D01*
G37*
G36*
X1248620Y338805D02*
G01*
X1276180Y338805D01*
X1276180Y289594D01*
X1248620Y289594D01*
G37*
G36*
X1071220Y240405D02*
G01*
X1098779Y240405D01*
X1098779Y191194D01*
X1071220Y191194D01*
G37*
G36*
X1033819Y338805D02*
G01*
X1061379Y338805D01*
X1061379Y289594D01*
X1033819Y289594D01*
G37*
G36*
X1108620Y338805D02*
G01*
X1136180Y338805D01*
X1136180Y289594D01*
X1108620Y289594D01*
G37*
G36*
X931220Y240405D02*
G01*
X958779Y240405D01*
X958779Y191194D01*
X931220Y191194D01*
G37*
G36*
X893819Y338805D02*
G01*
X921379Y338805D01*
X921379Y289594D01*
X893819Y289594D01*
G37*
G36*
X968620Y338805D02*
G01*
X996180Y338805D01*
X996180Y289594D01*
X968620Y289594D01*
G37*
D16*
G01*
X3075590Y466689D03*
G01*
X3024409Y466689D03*
G01*
X3024409Y553310D03*
G01*
X3050000Y553310D03*
G01*
X3075590Y553310D03*
G36*
X2916534Y571024D02*
G01*
X2932281Y571024D01*
X2932281Y535590D01*
X2916534Y535590D01*
G37*
G36*
X2967713Y571024D02*
G01*
X2983461Y571024D01*
X2983461Y535590D01*
X2967713Y535590D01*
G37*
G36*
X2967713Y484409D02*
G01*
X2983461Y484409D01*
X2983461Y448975D01*
X2967713Y448975D01*
G37*
G36*
X2942124Y484409D02*
G01*
X2957871Y484409D01*
X2957871Y448975D01*
X2942124Y448975D01*
G37*
G36*
X2916534Y484409D02*
G01*
X2932281Y484409D01*
X2932281Y448975D01*
X2916534Y448975D01*
G37*
G36*
X2922566Y371433D02*
G01*
X2993433Y371433D01*
X2993433Y300567D01*
X2922566Y300567D01*
G37*
G36*
X2922565Y414740D02*
G01*
X2934377Y414740D01*
X2934377Y379306D01*
X2922565Y379306D01*
G37*
G36*
X2942250Y414740D02*
G01*
X2954062Y414740D01*
X2954062Y379306D01*
X2942250Y379306D01*
G37*
G36*
X2961935Y414740D02*
G01*
X2973747Y414740D01*
X2973747Y379306D01*
X2961935Y379306D01*
G37*
G36*
X2981621Y414740D02*
G01*
X2993433Y414740D01*
X2993433Y379306D01*
X2981621Y379306D01*
G37*
D19*
G01*
X3007209Y385210D03*
D20*
G01*
X3019020Y365529D03*
G01*
X3019020Y345839D03*
G01*
X3019020Y326159D03*
G01*
X3019020Y306469D03*
D19*
G01*
X3007209Y286790D03*
G36*
X2981621Y292692D02*
G01*
X2993433Y292692D01*
X2993433Y257258D01*
X2981621Y257258D01*
G37*
G36*
X2961936Y292692D02*
G01*
X2973748Y292692D01*
X2973748Y257260D01*
X2961936Y257260D01*
G37*
G36*
X2942093Y292692D02*
G01*
X2953905Y292692D01*
X2953905Y257260D01*
X2942093Y257260D01*
G37*
G36*
X2922565Y292692D02*
G01*
X2934377Y292692D01*
X2934377Y257260D01*
X2922565Y257260D01*
G37*
G01*
X2908789Y286790D03*
D20*
G01*
X2896980Y306469D03*
G01*
X2896980Y326159D03*
G01*
X2896980Y345839D03*
G01*
X2896980Y365529D03*
D19*
G01*
X2908789Y385210D03*
D21*
G01*
X1180000Y794690D03*
G01*
X1180000Y755320D03*
G01*
X1125000Y794690D03*
G01*
X1125000Y755320D03*
D22*
G01*
X3232910Y215329D03*
G01*
X3232910Y444670D03*
G36*
X3195510Y273899D02*
G01*
X3195510Y320160D01*
X3270320Y320160D01*
X3270320Y273899D01*
G37*
G36*
X3195510Y339839D02*
G01*
X3195510Y386100D01*
X3270320Y386100D01*
X3270320Y339839D01*
G37*
D23*
G01*
X3128190Y330000D03*
G01*
X3128190Y355590D03*
G01*
X3128190Y304409D03*
G01*
X3128190Y381179D03*
G01*
X3128190Y278820D03*
G36*
X3101019Y204020D02*
G01*
X3101019Y261100D01*
X3183699Y261100D01*
X3183699Y204020D01*
G37*
G36*
X3101019Y398899D02*
G01*
X3101019Y455979D01*
X3183699Y455979D01*
X3183699Y398899D01*
G37*
D21*
G01*
X2998000Y166309D03*
G01*
X2998000Y205680D03*
D24*
G01*
X1350309Y1080000D03*
G01*
X1389679Y1080000D03*
D21*
G01*
X1186000Y1280309D03*
G01*
X1186000Y1319679D03*
G01*
X1240000Y1280309D03*
G01*
X1240000Y1319679D03*
D24*
G01*
X2908310Y200999D03*
G01*
X2947680Y200999D03*
G36*
X2937843Y161747D02*
G01*
X2957528Y161747D01*
X2957528Y130252D01*
X2937843Y130252D01*
G37*
G36*
X2898473Y161747D02*
G01*
X2918158Y161747D01*
X2918158Y130252D01*
X2898473Y130252D01*
G37*
G36*
X1284843Y1470747D02*
G01*
X1304528Y1470747D01*
X1304528Y1439252D01*
X1284843Y1439252D01*
G37*
G36*
X1245473Y1470747D02*
G01*
X1265158Y1470747D01*
X1265158Y1439252D01*
X1245473Y1439252D01*
G37*
G01*
X1155309Y1805000D03*
G01*
X1194679Y1805000D03*
G36*
X1455475Y385745D02*
G01*
X1475160Y385745D01*
X1475160Y354248D01*
X1455475Y354248D01*
G37*
G36*
X1494845Y385745D02*
G01*
X1514530Y385745D01*
X1514530Y354248D01*
X1494845Y354248D01*
G37*
G36*
X1595475Y385745D02*
G01*
X1615160Y385745D01*
X1615160Y354248D01*
X1595475Y354248D01*
G37*
G36*
X1634845Y385745D02*
G01*
X1654530Y385745D01*
X1654530Y354248D01*
X1634845Y354248D01*
G37*
G36*
X1315475Y385745D02*
G01*
X1335160Y385745D01*
X1335160Y354248D01*
X1315475Y354248D01*
G37*
G36*
X1354845Y385745D02*
G01*
X1374530Y385745D01*
X1374530Y354248D01*
X1354845Y354248D01*
G37*
G36*
X895475Y385745D02*
G01*
X915160Y385745D01*
X915160Y354248D01*
X895475Y354248D01*
G37*
G36*
X934845Y385745D02*
G01*
X954530Y385745D01*
X954530Y354248D01*
X934845Y354248D01*
G37*
G36*
X1035475Y385745D02*
G01*
X1055160Y385745D01*
X1055160Y354248D01*
X1035475Y354248D01*
G37*
G36*
X1074845Y385745D02*
G01*
X1094530Y385745D01*
X1094530Y354248D01*
X1074845Y354248D01*
G37*
G36*
X1175475Y385745D02*
G01*
X1195160Y385745D01*
X1195160Y354248D01*
X1175475Y354248D01*
G37*
G36*
X1214845Y385745D02*
G01*
X1234530Y385745D01*
X1234530Y354248D01*
X1214845Y354248D01*
G37*
D25*
G01*
X2655510Y342119D03*
D26*
G01*
X2655510Y275189D03*
G01*
X2750000Y275189D03*
G01*
X2750000Y350000D03*
G36*
X2780475Y260745D02*
G01*
X2800160Y260745D01*
X2800160Y229248D01*
X2780475Y229248D01*
G37*
G36*
X2819845Y260745D02*
G01*
X2839530Y260745D01*
X2839530Y229248D01*
X2819845Y229248D01*
G37*
D21*
G01*
X3120000Y135320D03*
G01*
X3120000Y174690D03*
G01*
X2793000Y190680D03*
G01*
X2793000Y151309D03*
G01*
X3065000Y174679D03*
G01*
X3065000Y135309D03*
D24*
G01*
X2510309Y40000D03*
G01*
X2549679Y40000D03*
G36*
X2809843Y55747D02*
G01*
X2829528Y55747D01*
X2829528Y24252D01*
X2809843Y24252D01*
G37*
G36*
X2770473Y55747D02*
G01*
X2790158Y55747D01*
X2790158Y24252D01*
X2770473Y24252D01*
G37*
D21*
G01*
X995000Y404690D03*
G01*
X995000Y365320D03*
G01*
X1135000Y404690D03*
G01*
X1135000Y365320D03*
G01*
X1275000Y404690D03*
G01*
X1275000Y365320D03*
G01*
X1415000Y404690D03*
G01*
X1415000Y365320D03*
G01*
X1555000Y404690D03*
G01*
X1555000Y365320D03*
G01*
X1695000Y404690D03*
G01*
X1695000Y365320D03*
G01*
X1555000Y209679D03*
G01*
X1555000Y170309D03*
G01*
X1415000Y209679D03*
G01*
X1415000Y170309D03*
G01*
X1275000Y209679D03*
G01*
X1275000Y170309D03*
G01*
X1135000Y209679D03*
G01*
X1135000Y170309D03*
G01*
X995000Y209679D03*
G01*
X995000Y170309D03*
G01*
X1695000Y209679D03*
G01*
X1695000Y170309D03*
D27*
G01*
X3188980Y0D03*
G01*
X3188980Y2755909D03*
G01*
X-354329Y0D03*
G01*
X-354329Y2755909D03*
D28*
G01*
X-334650Y1870079D03*
G01*
X-334650Y885830D03*
G01*
X3173230Y1870079D03*
G01*
X3173230Y885830D03*
D29*
G01*
X-50000Y2300000D03*
G01*
X-50000Y2200000D03*
G01*
X-50000Y2100000D03*
G01*
X-50000Y2000000D03*
G01*
X-50000Y1900000D03*
G01*
X-50000Y1800000D03*
G01*
X-50000Y1700000D03*
G01*
X-50000Y1600000D03*
G01*
X-50000Y1500000D03*
G01*
X-50000Y1400000D03*
G01*
X-50000Y1300000D03*
G01*
X-50000Y1200000D03*
G01*
X-50000Y1100000D03*
G01*
X-50000Y1000000D03*
G01*
X-50000Y900000D03*
G01*
X-50000Y800000D03*
G01*
X-50000Y700000D03*
G01*
X-50000Y600000D03*
G01*
X750000Y600000D03*
G01*
X750000Y700000D03*
G01*
X750000Y800000D03*
G01*
X750000Y900000D03*
G01*
X750000Y1000000D03*
G01*
X750000Y1100000D03*
G01*
X750000Y1200000D03*
G01*
X750000Y1300000D03*
G01*
X750000Y1400000D03*
G01*
X750000Y1500000D03*
G01*
X750000Y1600000D03*
G01*
X750000Y1700000D03*
G01*
X750000Y1800000D03*
G01*
X750000Y1900000D03*
D30*
G01*
X0Y2700000D03*
G01*
X700000Y2700000D03*
G01*
X0Y0D03*
G01*
X700000Y0D03*
D29*
G01*
X1745670Y650000D03*
G01*
X1845670Y650000D03*
G01*
X1945670Y650000D03*
G01*
X2045670Y650000D03*
G01*
X2145670Y650000D03*
G01*
X2245670Y650000D03*
G01*
X2345670Y650000D03*
G01*
X2445670Y650000D03*
G36*
X1359994Y2442363D02*
G01*
X1419994Y2442363D01*
X1419994Y2382363D01*
X1359994Y2382363D01*
G37*
G01*
X1390000Y2510790D03*
G01*
X1390000Y2609189D03*
G01*
X1390000Y2707640D03*
D12*
G01*
X1110000Y1900000D03*
G01*
X1110000Y1805000D03*
G01*
X1150000Y1470000D03*
G01*
X2960000Y590000D03*
G01*
X3050000Y620000D03*
G01*
X1600000Y415000D03*
G01*
X1460000Y415000D03*
G01*
X1320000Y415000D03*
G01*
X1180000Y415000D03*
G01*
X1040000Y415000D03*
G01*
X900000Y415000D03*
G01*
X1390000Y1035000D03*
G01*
X1138000Y1319000D03*
G01*
X1280000Y1580000D03*
G01*
X910000Y215000D03*
G01*
X1050000Y215000D03*
G01*
X1190000Y215000D03*
G01*
X1330000Y215000D03*
G01*
X1470000Y215000D03*
G01*
X1610000Y215000D03*
G01*
X3020000Y590000D03*
G01*
X2995000Y440000D03*
G01*
X3080000Y380000D03*
G01*
X3025000Y130000D03*
G01*
X2850000Y110000D03*
G01*
X2871000Y160999D03*
G01*
X2690000Y340000D03*
G01*
X2880000Y545000D03*
G01*
X2878580Y256579D03*
G01*
X2870000Y220000D03*
G01*
X3165000Y175000D03*
G01*
X2690000Y275000D03*
G01*
X3080000Y300000D03*
G01*
X2855000Y300000D03*
G01*
X2855000Y335000D03*
G01*
X3080000Y335000D03*
G01*
X1138000Y1064000D03*
G01*
X1188000Y1064000D03*
M02*
