G04 start of page 8 for group -4062 idx -4062 *
G04 Title: controller, soldermask *
G04 Creator: pcb 20140316 *
G04 CreationDate: Sat 06 Feb 2016 05:28:38 PM GMT UTC *
G04 For: rxdtxd *
G04 Format: Gerber/RS-274X *
G04 PCB-Dimensions (mil): 6700.00 3100.00 *
G04 PCB-Coordinate-Origin: lower left *
%MOIN*%
%FSLAX25Y25*%
%LNBOTTOMMASK*%
%ADD60C,0.0847*%
%ADD59C,0.0830*%
%ADD58C,0.1280*%
%ADD57C,0.0750*%
%ADD56C,0.0001*%
%ADD55C,0.0810*%
G54D55*X300000Y180000D03*
X310000D03*
X320000D03*
X330000D03*
X340000D03*
X350000D03*
X360000D03*
X310000Y210000D03*
X300000D03*
G54D56*G36*
X425950Y174050D02*Y165950D01*
X434050D01*
Y174050D01*
X425950D01*
G37*
G54D55*X410000Y170000D03*
G54D56*G36*
X395950Y184050D02*Y175950D01*
X404050D01*
Y184050D01*
X395950D01*
G37*
G54D55*X410000Y180000D03*
X420000D03*
X430000D03*
X440000D03*
X450000D03*
X460000D03*
X470000D03*
Y210000D03*
X460000D03*
X450000D03*
X440000D03*
X430000D03*
X420000D03*
X410000D03*
X360000D03*
X350000D03*
X340000D03*
X330000D03*
X320000D03*
X310000Y220000D03*
G54D56*G36*
X346250Y263750D02*Y256250D01*
X353750D01*
Y263750D01*
X346250D01*
G37*
G54D57*X345000Y250000D03*
X340000Y260000D03*
X335000Y250000D03*
X330000Y260000D03*
G54D58*X352500Y302500D03*
G54D57*X325000Y250000D03*
X320000Y260000D03*
G54D58*X312500Y267500D03*
G54D57*X315000Y250000D03*
G54D55*X400000Y210000D03*
G54D56*G36*
X486250Y263750D02*Y256250D01*
X493750D01*
Y263750D01*
X486250D01*
G37*
G54D57*X485000Y250000D03*
X480000Y260000D03*
X475000Y250000D03*
G54D58*X492500Y302500D03*
G54D57*X470000Y260000D03*
X465000Y250000D03*
X460000Y260000D03*
G54D58*X452500Y267500D03*
G54D57*X455000Y250000D03*
G54D55*X210000Y180000D03*
X220000D03*
X230000D03*
X240000D03*
X250000Y210000D03*
X240000D03*
G54D56*G36*
X285950Y224050D02*Y215950D01*
X294050D01*
Y224050D01*
X285950D01*
G37*
G36*
X175950D02*Y215950D01*
X184050D01*
Y224050D01*
X175950D01*
G37*
G54D55*X200000Y220000D03*
G54D56*G36*
X175950Y184050D02*Y175950D01*
X184050D01*
Y184050D01*
X175950D01*
G37*
G54D55*X190000Y180000D03*
X200000D03*
G54D56*G36*
X225950Y144050D02*Y135950D01*
X234050D01*
Y144050D01*
X225950D01*
G37*
G54D55*X230000Y130000D03*
G54D56*G36*
X215950Y144050D02*Y135950D01*
X224050D01*
Y144050D01*
X215950D01*
G37*
G54D55*X220000Y130000D03*
G54D56*G36*
X205950Y144050D02*Y135950D01*
X214050D01*
Y144050D01*
X205950D01*
G37*
G54D55*X210000Y130000D03*
G54D56*G36*
X185950Y144050D02*Y135950D01*
X194050D01*
Y144050D01*
X185950D01*
G37*
G54D55*X190000Y130000D03*
G54D56*G36*
X195950Y144050D02*Y135950D01*
X204050D01*
Y144050D01*
X195950D01*
G37*
G54D55*X200000Y130000D03*
X190000Y160000D03*
X180000D03*
X250000Y180000D03*
G54D56*G36*
X285950Y184050D02*Y175950D01*
X294050D01*
Y184050D01*
X285950D01*
G37*
G54D55*X290000Y210000D03*
Y160000D03*
X280000D03*
X270000D03*
G54D56*G36*
X245950Y164050D02*Y155950D01*
X254050D01*
Y164050D01*
X245950D01*
G37*
G54D55*X240000Y160000D03*
X230000D03*
X220000D03*
X210000D03*
X200000D03*
X230000Y210000D03*
X220000D03*
X210000D03*
X200000D03*
X190000D03*
X180000D03*
G54D56*G36*
X206250Y263750D02*Y256250D01*
X213750D01*
Y263750D01*
X206250D01*
G37*
G54D57*X205000Y250000D03*
X200000Y260000D03*
X195000Y250000D03*
G54D58*X212500Y302500D03*
G54D57*X190000Y260000D03*
X185000Y250000D03*
X175000D03*
X180000Y260000D03*
G54D58*X172500Y267500D03*
G54D56*G36*
X525950Y64050D02*Y55950D01*
X534050D01*
Y64050D01*
X525950D01*
G37*
G54D55*X570000Y60000D03*
G54D59*X550000Y80000D03*
G54D55*X580000Y210000D03*
X570000D03*
X560000D03*
X550000D03*
X540000D03*
X530000D03*
X520000D03*
X510000D03*
G54D56*G36*
X535950Y174050D02*Y165950D01*
X544050D01*
Y174050D01*
X535950D01*
G37*
G54D55*X540000Y180000D03*
X550000D03*
X520000D03*
X530000D03*
X560000D03*
X570000D03*
X580000D03*
G54D56*G36*
X545850Y144150D02*Y135850D01*
X554150D01*
Y144150D01*
X545850D01*
G37*
G36*
X626250Y263750D02*Y256250D01*
X633750D01*
Y263750D01*
X626250D01*
G37*
G54D57*X625000Y250000D03*
X620000Y260000D03*
X615000Y250000D03*
X610000Y260000D03*
X605000Y250000D03*
X600000Y260000D03*
X595000Y250000D03*
G54D58*X632500Y302500D03*
X592500Y267500D03*
G54D55*X520000Y170000D03*
G54D56*G36*
X505950Y184050D02*Y175950D01*
X514050D01*
Y184050D01*
X505950D01*
G37*
G54D59*X540000Y140000D03*
X530000D03*
X520000D03*
X510000D03*
X500000D03*
X490000D03*
X480000D03*
X470000D03*
G54D55*X480000Y40000D03*
G54D56*G36*
X475950Y24050D02*Y15950D01*
X484050D01*
Y24050D01*
X475950D01*
G37*
G54D55*X460000Y20000D03*
G54D56*G36*
X425950Y64050D02*Y55950D01*
X434050D01*
Y64050D01*
X425950D01*
G37*
G54D55*X410000Y60000D03*
G54D59*Y80000D03*
X420000D03*
X430000D03*
X440000D03*
X450000D03*
G54D56*G36*
X485763Y64237D02*Y55763D01*
X494237D01*
Y64237D01*
X485763D01*
G37*
G54D59*X460000Y80000D03*
X470000D03*
X480000D03*
X490000D03*
X500000D03*
X510000D03*
X520000D03*
X530000D03*
X540000D03*
G54D60*X520000Y60000D03*
G54D59*X460000Y140000D03*
X450000D03*
X440000D03*
X430000D03*
X420000D03*
G54D56*G36*
X385950Y44050D02*Y35950D01*
X394050D01*
Y44050D01*
X385950D01*
G37*
G54D55*X410000Y40000D03*
G54D56*G36*
X315950Y44050D02*Y35950D01*
X324050D01*
Y44050D01*
X315950D01*
G37*
G54D55*X340000Y40000D03*
G54D56*G36*
X455950Y44050D02*Y35950D01*
X464050D01*
Y44050D01*
X455950D01*
G37*
G36*
X335950Y24050D02*Y15950D01*
X344050D01*
Y24050D01*
X335950D01*
G37*
G36*
X405950D02*Y15950D01*
X414050D01*
Y24050D01*
X405950D01*
G37*
G54D55*X390000Y20000D03*
X370000D03*
X440000D03*
X320000D03*
X300000D03*
G54D59*X410000Y140000D03*
G54D56*G36*
X335950Y144050D02*Y135950D01*
X344050D01*
Y144050D01*
X335950D01*
G37*
G36*
X325950D02*Y135950D01*
X334050D01*
Y144050D01*
X325950D01*
G37*
G36*
X355950Y164050D02*Y155950D01*
X364050D01*
Y164050D01*
X355950D01*
G37*
G54D55*X350000Y160000D03*
X340000D03*
Y130000D03*
X330000D03*
G54D56*G36*
X305950Y144050D02*Y135950D01*
X314050D01*
Y144050D01*
X305950D01*
G37*
G36*
X315950D02*Y135950D01*
X324050D01*
Y144050D01*
X315950D01*
G37*
G54D55*X310000Y130000D03*
X300000D03*
X320000D03*
G54D56*G36*
X295950Y144050D02*Y135950D01*
X304050D01*
Y144050D01*
X295950D01*
G37*
G54D55*X330000Y160000D03*
X320000D03*
X310000D03*
X300000D03*
G54D56*G36*
X175950Y44050D02*Y35950D01*
X184050D01*
Y44050D01*
X175950D01*
G37*
G54D55*X180000Y20000D03*
X160000D03*
G54D56*G36*
X5950Y74050D02*Y65950D01*
X14050D01*
Y74050D01*
X5950D01*
G37*
G54D55*X10000Y90000D03*
X20000Y80000D03*
G54D56*G36*
X85950Y24050D02*Y15950D01*
X94050D01*
Y24050D01*
X85950D01*
G37*
G54D55*X110000Y20000D03*
G54D56*G36*
X85950Y84050D02*Y75950D01*
X94050D01*
Y84050D01*
X85950D01*
G37*
G54D55*X110000Y80000D03*
X200000Y40000D03*
G54D56*G36*
X245950Y44050D02*Y35950D01*
X254050D01*
Y44050D01*
X245950D01*
G37*
G54D55*X250000Y20000D03*
X230000D03*
X270000Y40000D03*
G54D56*G36*
X265950Y24050D02*Y15950D01*
X274050D01*
Y24050D01*
X265950D01*
G37*
G36*
X195950D02*Y15950D01*
X204050D01*
Y24050D01*
X195950D01*
G37*
G36*
X65950Y134050D02*Y125950D01*
X74050D01*
Y134050D01*
X65950D01*
G37*
G54D55*X70000Y150000D03*
G54D56*G36*
X95763Y134237D02*Y125763D01*
X104237D01*
Y134237D01*
X95763D01*
G37*
G54D60*X110000Y130000D03*
G54D55*X170000Y160000D03*
X160000D03*
G54D56*G36*
X95950Y174050D02*Y165950D01*
X104050D01*
Y174050D01*
X95950D01*
G37*
G54D55*X80000Y170000D03*
G54D56*G36*
X65950Y184050D02*Y175950D01*
X74050D01*
Y184050D01*
X65950D01*
G37*
G54D55*X80000Y180000D03*
X90000D03*
X100000D03*
X110000D03*
X120000D03*
X130000D03*
X140000D03*
Y210000D03*
X130000D03*
X120000D03*
X110000D03*
X100000D03*
X90000D03*
X80000D03*
X70000D03*
G54D56*G36*
X66250Y263750D02*Y256250D01*
X73750D01*
Y263750D01*
X66250D01*
G37*
G54D58*X72500Y302500D03*
G54D57*X65000Y250000D03*
X55000D03*
X45000D03*
X35000D03*
X60000Y260000D03*
X50000D03*
X40000D03*
G54D58*X32500Y267500D03*
M02*
