G04 start of page 10 for group -3984 idx -3984 *
G04 Title: controller, fab *
G04 Creator: pcb 20140316 *
G04 CreationDate: Sat 06 Feb 2016 05:28:38 PM GMT UTC *
G04 For: rxdtxd *
G04 Format: Gerber/RS-274X *
G04 PCB-Dimensions (mil): 6700.00 3100.00 *
G04 PCB-Coordinate-Origin: lower left *
%MOIN*%
%FSLAX25Y25*%
%LNFAB*%
%ADD68C,0.0100*%
%ADD67C,0.0075*%
%ADD66C,0.0060*%
%ADD65C,0.0080*%
G54D65*X18400Y201600D02*X21600D01*
X18400D02*Y198400D01*
X21600D01*
Y201600D02*Y198400D01*
X18400Y21600D02*X21600D01*
X18400D02*Y18400D01*
X21600D01*
Y21600D02*Y18400D01*
X648400Y201600D02*X651600D01*
X648400D02*Y198400D01*
X651600D01*
Y201600D02*Y198400D01*
X648400Y21600D02*X651600D01*
X648400D02*Y18400D01*
X651600D01*
Y21600D02*Y18400D01*
X13400Y322850D02*X16600D01*
X13400D02*Y319650D01*
X16600D01*
Y322850D02*Y319650D01*
G54D66*X135000Y323500D02*X136500Y320500D01*
X138000Y323500D01*
X136500Y320500D02*Y317500D01*
X139800Y320800D02*X142050D01*
X139800Y317500D02*X142800D01*
X139800Y323500D02*Y317500D01*
Y323500D02*X142800D01*
X147600D02*X148350Y322750D01*
X145350Y323500D02*X147600D01*
X144600Y322750D02*X145350Y323500D01*
X144600Y322750D02*Y321250D01*
X145350Y320500D01*
X147600D01*
X148350Y319750D01*
Y318250D01*
X147600Y317500D02*X148350Y318250D01*
X145350Y317500D02*X147600D01*
X144600Y318250D02*X145350Y317500D01*
X98000Y319750D02*X101000Y323500D01*
X98000Y319750D02*X101750D01*
X101000Y323500D02*Y317500D01*
X45000Y318250D02*X45750Y317500D01*
X45000Y322750D02*Y318250D01*
Y322750D02*X45750Y323500D01*
X47250D01*
X48000Y322750D01*
Y318250D01*
X47250Y317500D02*X48000Y318250D01*
X45750Y317500D02*X47250D01*
X45000Y319000D02*X48000Y322000D01*
X49800Y317500D02*X50550D01*
X52350Y322300D02*X53550Y323500D01*
Y317500D01*
X52350D02*X54600D01*
X56400Y322300D02*X57600Y323500D01*
Y317500D01*
X56400D02*X58650D01*
X61200D02*X63450Y320500D01*
Y322750D02*Y320500D01*
X62700Y323500D02*X63450Y322750D01*
X61200Y323500D02*X62700D01*
X60450Y322750D02*X61200Y323500D01*
X60450Y322750D02*Y321250D01*
X61200Y320500D01*
X63450D01*
X211700Y302500D02*G75*G03X213300Y302500I800J0D01*G01*
G75*G03X211700Y302500I-800J0D01*G01*
X171700Y267500D02*G75*G03X173300Y267500I800J0D01*G01*
G75*G03X171700Y267500I-800J0D01*G01*
X351700Y302500D02*G75*G03X353300Y302500I800J0D01*G01*
G75*G03X351700Y302500I-800J0D01*G01*
X311700Y267500D02*G75*G03X313300Y267500I800J0D01*G01*
G75*G03X311700Y267500I-800J0D01*G01*
X491700Y302500D02*G75*G03X493300Y302500I800J0D01*G01*
G75*G03X491700Y302500I-800J0D01*G01*
X451700Y267500D02*G75*G03X453300Y267500I800J0D01*G01*
G75*G03X451700Y267500I-800J0D01*G01*
X631700Y302500D02*G75*G03X633300Y302500I800J0D01*G01*
G75*G03X631700Y302500I-800J0D01*G01*
X591700Y267500D02*G75*G03X593300Y267500I800J0D01*G01*
G75*G03X591700Y267500I-800J0D01*G01*
X71700Y302500D02*G75*G03X73300Y302500I800J0D01*G01*
G75*G03X71700Y302500I-800J0D01*G01*
X31700Y267500D02*G75*G03X33300Y267500I800J0D01*G01*
G75*G03X31700Y267500I-800J0D01*G01*
X14200Y336250D02*G75*G03X15800Y336250I800J0D01*G01*
G75*G03X14200Y336250I-800J0D01*G01*
X140000Y338500D02*Y332500D01*
Y338500D02*X143750Y332500D01*
Y338500D02*Y332500D01*
X145550Y337750D02*Y333250D01*
Y337750D02*X146300Y338500D01*
X147800D01*
X148550Y337750D01*
Y333250D01*
X147800Y332500D02*X148550Y333250D01*
X146300Y332500D02*X147800D01*
X145550Y333250D02*X146300Y332500D01*
X98000Y337300D02*X99200Y338500D01*
Y332500D01*
X98000D02*X100250D01*
X102050Y333250D02*X102800Y332500D01*
X102050Y337750D02*Y333250D01*
Y337750D02*X102800Y338500D01*
X104300D01*
X105050Y337750D01*
Y333250D01*
X104300Y332500D02*X105050Y333250D01*
X102800Y332500D02*X104300D01*
X102050Y334000D02*X105050Y337000D01*
X45000Y333250D02*X45750Y332500D01*
X45000Y337750D02*Y333250D01*
Y337750D02*X45750Y338500D01*
X47250D01*
X48000Y337750D01*
Y333250D01*
X47250Y332500D02*X48000Y333250D01*
X45750Y332500D02*X47250D01*
X45000Y334000D02*X48000Y337000D01*
X49800Y332500D02*X50550D01*
X52350Y333250D02*X53100Y332500D01*
X52350Y337750D02*Y333250D01*
Y337750D02*X53100Y338500D01*
X54600D01*
X55350Y337750D01*
Y333250D01*
X54600Y332500D02*X55350Y333250D01*
X53100Y332500D02*X54600D01*
X52350Y334000D02*X55350Y337000D01*
X59400Y338500D02*X60150Y337750D01*
X57900Y338500D02*X59400D01*
X57150Y337750D02*X57900Y338500D01*
X57150Y337750D02*Y333250D01*
X57900Y332500D01*
X59400Y335800D02*X60150Y335050D01*
X57150Y335800D02*X59400D01*
X57900Y332500D02*X59400D01*
X60150Y333250D01*
Y335050D02*Y333250D01*
X61950Y337750D02*X62700Y338500D01*
X64200D01*
X64950Y337750D01*
X64200Y332500D02*X64950Y333250D01*
X62700Y332500D02*X64200D01*
X61950Y333250D02*X62700Y332500D01*
Y335800D02*X64200D01*
X64950Y337750D02*Y336550D01*
Y335050D02*Y333250D01*
Y335050D02*X64200Y335800D01*
X64950Y336550D02*X64200Y335800D01*
X88800Y21200D02*X91200Y18800D01*
X88800D02*X91200Y21200D01*
X108800D02*X111200Y18800D01*
X108800D02*X111200Y21200D01*
X8800Y71200D02*X11200Y68800D01*
X8800D02*X11200Y71200D01*
X18800Y81200D02*X21200Y78800D01*
X18800D02*X21200Y81200D01*
X8800Y91200D02*X11200Y88800D01*
X8800D02*X11200Y91200D01*
X13800Y352450D02*X16200Y350050D01*
X13800D02*X16200Y352450D01*
X135000Y353500D02*X136500Y350500D01*
X138000Y353500D01*
X136500Y350500D02*Y347500D01*
X139800Y350800D02*X142050D01*
X139800Y347500D02*X142800D01*
X139800Y353500D02*Y347500D01*
Y353500D02*X142800D01*
X147600D02*X148350Y352750D01*
X145350Y353500D02*X147600D01*
X144600Y352750D02*X145350Y353500D01*
X144600Y352750D02*Y351250D01*
X145350Y350500D01*
X147600D01*
X148350Y349750D01*
Y348250D01*
X147600Y347500D02*X148350Y348250D01*
X145350Y347500D02*X147600D01*
X144600Y348250D02*X145350Y347500D01*
X98000Y353500D02*X101000D01*
X98000D02*Y350500D01*
X98750Y351250D01*
X100250D01*
X101000Y350500D01*
Y348250D01*
X100250Y347500D02*X101000Y348250D01*
X98750Y347500D02*X100250D01*
X98000Y348250D02*X98750Y347500D01*
X45000Y348250D02*X45750Y347500D01*
X45000Y352750D02*Y348250D01*
Y352750D02*X45750Y353500D01*
X47250D01*
X48000Y352750D01*
Y348250D01*
X47250Y347500D02*X48000Y348250D01*
X45750Y347500D02*X47250D01*
X45000Y349000D02*X48000Y352000D01*
X49800Y347500D02*X50550D01*
X52350Y348250D02*X53100Y347500D01*
X52350Y352750D02*Y348250D01*
Y352750D02*X53100Y353500D01*
X54600D01*
X55350Y352750D01*
Y348250D01*
X54600Y347500D02*X55350Y348250D01*
X53100Y347500D02*X54600D01*
X52350Y349000D02*X55350Y352000D01*
X57150Y352750D02*X57900Y353500D01*
X59400D01*
X60150Y352750D01*
X59400Y347500D02*X60150Y348250D01*
X57900Y347500D02*X59400D01*
X57150Y348250D02*X57900Y347500D01*
Y350800D02*X59400D01*
X60150Y352750D02*Y351550D01*
Y350050D02*Y348250D01*
Y350050D02*X59400Y350800D01*
X60150Y351550D02*X59400Y350800D01*
X62700Y347500D02*X64950Y350500D01*
Y352750D02*Y350500D01*
X64200Y353500D02*X64950Y352750D01*
X62700Y353500D02*X64200D01*
X61950Y352750D02*X62700Y353500D01*
X61950Y352750D02*Y351250D01*
X62700Y350500D01*
X64950D01*
X180000Y181600D02*Y178400D01*
X178400Y180000D02*X181600D01*
X190000Y181600D02*Y178400D01*
X188400Y180000D02*X191600D01*
X200000Y181600D02*Y178400D01*
X198400Y180000D02*X201600D01*
X210000Y181600D02*Y178400D01*
X208400Y180000D02*X211600D01*
X220000Y181600D02*Y178400D01*
X218400Y180000D02*X221600D01*
X230000Y181600D02*Y178400D01*
X228400Y180000D02*X231600D01*
X240000Y181600D02*Y178400D01*
X238400Y180000D02*X241600D01*
X250000Y181600D02*Y178400D01*
X248400Y180000D02*X251600D01*
X250000Y211600D02*Y208400D01*
X248400Y210000D02*X251600D01*
X240000Y211600D02*Y208400D01*
X238400Y210000D02*X241600D01*
X230000Y211600D02*Y208400D01*
X228400Y210000D02*X231600D01*
X220000Y211600D02*Y208400D01*
X218400Y210000D02*X221600D01*
X210000Y211600D02*Y208400D01*
X208400Y210000D02*X211600D01*
X200000Y211600D02*Y208400D01*
X198400Y210000D02*X201600D01*
X190000Y211600D02*Y208400D01*
X188400Y210000D02*X191600D01*
X180000Y211600D02*Y208400D01*
X178400Y210000D02*X181600D01*
X70000Y131600D02*Y128400D01*
X68400Y130000D02*X71600D01*
X70000Y151600D02*Y148400D01*
X68400Y150000D02*X71600D01*
X290000Y181600D02*Y178400D01*
X288400Y180000D02*X291600D01*
X300000Y181600D02*Y178400D01*
X298400Y180000D02*X301600D01*
X310000Y181600D02*Y178400D01*
X308400Y180000D02*X311600D01*
X320000Y181600D02*Y178400D01*
X318400Y180000D02*X321600D01*
X330000Y181600D02*Y178400D01*
X328400Y180000D02*X331600D01*
X340000Y181600D02*Y178400D01*
X338400Y180000D02*X341600D01*
X350000Y181600D02*Y178400D01*
X348400Y180000D02*X351600D01*
X360000Y181600D02*Y178400D01*
X358400Y180000D02*X361600D01*
X360000Y211600D02*Y208400D01*
X358400Y210000D02*X361600D01*
X350000Y211600D02*Y208400D01*
X348400Y210000D02*X351600D01*
X340000Y211600D02*Y208400D01*
X338400Y210000D02*X341600D01*
X330000Y211600D02*Y208400D01*
X328400Y210000D02*X331600D01*
X320000Y211600D02*Y208400D01*
X318400Y210000D02*X321600D01*
X310000Y211600D02*Y208400D01*
X308400Y210000D02*X311600D01*
X300000Y211600D02*Y208400D01*
X298400Y210000D02*X301600D01*
X290000Y211600D02*Y208400D01*
X288400Y210000D02*X291600D01*
X530000Y61600D02*Y58400D01*
X528400Y60000D02*X531600D01*
X570000Y61600D02*Y58400D01*
X568400Y60000D02*X571600D01*
X180000Y41600D02*Y38400D01*
X178400Y40000D02*X181600D01*
X200000Y41600D02*Y38400D01*
X198400Y40000D02*X201600D01*
X250000Y41600D02*Y38400D01*
X248400Y40000D02*X251600D01*
X270000Y41600D02*Y38400D01*
X268400Y40000D02*X271600D01*
X390000Y41600D02*Y38400D01*
X388400Y40000D02*X391600D01*
X410000Y41600D02*Y38400D01*
X408400Y40000D02*X411600D01*
X320000Y41600D02*Y38400D01*
X318400Y40000D02*X321600D01*
X340000Y41600D02*Y38400D01*
X338400Y40000D02*X341600D01*
X460000Y41600D02*Y38400D01*
X458400Y40000D02*X461600D01*
X480000Y41600D02*Y38400D01*
X478400Y40000D02*X481600D01*
X270000Y21600D02*Y18400D01*
X268400Y20000D02*X271600D01*
X250000Y21600D02*Y18400D01*
X248400Y20000D02*X251600D01*
X230000Y21600D02*Y18400D01*
X228400Y20000D02*X231600D01*
X340000Y21600D02*Y18400D01*
X338400Y20000D02*X341600D01*
X320000Y21600D02*Y18400D01*
X318400Y20000D02*X321600D01*
X300000Y21600D02*Y18400D01*
X298400Y20000D02*X301600D01*
X410000Y21600D02*Y18400D01*
X408400Y20000D02*X411600D01*
X390000Y21600D02*Y18400D01*
X388400Y20000D02*X391600D01*
X370000Y21600D02*Y18400D01*
X368400Y20000D02*X371600D01*
X480000Y21600D02*Y18400D01*
X478400Y20000D02*X481600D01*
X460000Y21600D02*Y18400D01*
X458400Y20000D02*X461600D01*
X440000Y21600D02*Y18400D01*
X438400Y20000D02*X441600D01*
X90000Y81600D02*Y78400D01*
X88400Y80000D02*X91600D01*
X110000Y81600D02*Y78400D01*
X108400Y80000D02*X111600D01*
X430000Y171600D02*Y168400D01*
X428400Y170000D02*X431600D01*
X410000Y171600D02*Y168400D01*
X408400Y170000D02*X411600D01*
X400000Y181600D02*Y178400D01*
X398400Y180000D02*X401600D01*
X410000Y181600D02*Y178400D01*
X408400Y180000D02*X411600D01*
X420000Y181600D02*Y178400D01*
X418400Y180000D02*X421600D01*
X430000Y181600D02*Y178400D01*
X428400Y180000D02*X431600D01*
X440000Y181600D02*Y178400D01*
X438400Y180000D02*X441600D01*
X450000Y181600D02*Y178400D01*
X448400Y180000D02*X451600D01*
X460000Y181600D02*Y178400D01*
X458400Y180000D02*X461600D01*
X470000Y181600D02*Y178400D01*
X468400Y180000D02*X471600D01*
X470000Y211600D02*Y208400D01*
X468400Y210000D02*X471600D01*
X460000Y211600D02*Y208400D01*
X458400Y210000D02*X461600D01*
X450000Y211600D02*Y208400D01*
X448400Y210000D02*X451600D01*
X440000Y211600D02*Y208400D01*
X438400Y210000D02*X441600D01*
X430000Y211600D02*Y208400D01*
X428400Y210000D02*X431600D01*
X420000Y211600D02*Y208400D01*
X418400Y210000D02*X421600D01*
X410000Y211600D02*Y208400D01*
X408400Y210000D02*X411600D01*
X400000Y211600D02*Y208400D01*
X398400Y210000D02*X401600D01*
X540000Y171600D02*Y168400D01*
X538400Y170000D02*X541600D01*
X520000Y171600D02*Y168400D01*
X518400Y170000D02*X521600D01*
X510000Y181600D02*Y178400D01*
X508400Y180000D02*X511600D01*
X520000Y181600D02*Y178400D01*
X518400Y180000D02*X521600D01*
X530000Y181600D02*Y178400D01*
X528400Y180000D02*X531600D01*
X540000Y181600D02*Y178400D01*
X538400Y180000D02*X541600D01*
X550000Y181600D02*Y178400D01*
X548400Y180000D02*X551600D01*
X560000Y181600D02*Y178400D01*
X558400Y180000D02*X561600D01*
X570000Y181600D02*Y178400D01*
X568400Y180000D02*X571600D01*
X580000Y181600D02*Y178400D01*
X578400Y180000D02*X581600D01*
X580000Y211600D02*Y208400D01*
X578400Y210000D02*X581600D01*
X570000Y211600D02*Y208400D01*
X568400Y210000D02*X571600D01*
X560000Y211600D02*Y208400D01*
X558400Y210000D02*X561600D01*
X550000Y211600D02*Y208400D01*
X548400Y210000D02*X551600D01*
X540000Y211600D02*Y208400D01*
X538400Y210000D02*X541600D01*
X530000Y211600D02*Y208400D01*
X528400Y210000D02*X531600D01*
X520000Y211600D02*Y208400D01*
X518400Y210000D02*X521600D01*
X510000Y211600D02*Y208400D01*
X508400Y210000D02*X511600D01*
X290000Y221600D02*Y218400D01*
X288400Y220000D02*X291600D01*
X310000Y221600D02*Y218400D01*
X308400Y220000D02*X311600D01*
X180000Y221600D02*Y218400D01*
X178400Y220000D02*X181600D01*
X200000Y221600D02*Y218400D01*
X198400Y220000D02*X201600D01*
X100000Y171600D02*Y168400D01*
X98400Y170000D02*X101600D01*
X80000Y171600D02*Y168400D01*
X78400Y170000D02*X81600D01*
X430000Y61600D02*Y58400D01*
X428400Y60000D02*X431600D01*
X410000Y61600D02*Y58400D01*
X408400Y60000D02*X411600D01*
X550000Y141600D02*Y138400D01*
X548400Y140000D02*X551600D01*
X540000Y141600D02*Y138400D01*
X538400Y140000D02*X541600D01*
X530000Y141600D02*Y138400D01*
X528400Y140000D02*X531600D01*
X520000Y141600D02*Y138400D01*
X518400Y140000D02*X521600D01*
X510000Y141600D02*Y138400D01*
X508400Y140000D02*X511600D01*
X500000Y141600D02*Y138400D01*
X498400Y140000D02*X501600D01*
X490000Y141600D02*Y138400D01*
X488400Y140000D02*X491600D01*
X480000Y141600D02*Y138400D01*
X478400Y140000D02*X481600D01*
X470000Y141600D02*Y138400D01*
X468400Y140000D02*X471600D01*
X460000Y141600D02*Y138400D01*
X458400Y140000D02*X461600D01*
X450000Y141600D02*Y138400D01*
X448400Y140000D02*X451600D01*
X440000Y141600D02*Y138400D01*
X438400Y140000D02*X441600D01*
X430000Y141600D02*Y138400D01*
X428400Y140000D02*X431600D01*
X420000Y141600D02*Y138400D01*
X418400Y140000D02*X421600D01*
X410000Y141600D02*Y138400D01*
X408400Y140000D02*X411600D01*
X410000Y81600D02*Y78400D01*
X408400Y80000D02*X411600D01*
X420000Y81600D02*Y78400D01*
X418400Y80000D02*X421600D01*
X430000Y81600D02*Y78400D01*
X428400Y80000D02*X431600D01*
X440000Y81600D02*Y78400D01*
X438400Y80000D02*X441600D01*
X450000Y81600D02*Y78400D01*
X448400Y80000D02*X451600D01*
X460000Y81600D02*Y78400D01*
X458400Y80000D02*X461600D01*
X470000Y81600D02*Y78400D01*
X468400Y80000D02*X471600D01*
X480000Y81600D02*Y78400D01*
X478400Y80000D02*X481600D01*
X490000Y81600D02*Y78400D01*
X488400Y80000D02*X491600D01*
X500000Y81600D02*Y78400D01*
X498400Y80000D02*X501600D01*
X510000Y81600D02*Y78400D01*
X508400Y80000D02*X511600D01*
X520000Y81600D02*Y78400D01*
X518400Y80000D02*X521600D01*
X530000Y81600D02*Y78400D01*
X528400Y80000D02*X531600D01*
X540000Y81600D02*Y78400D01*
X538400Y80000D02*X541600D01*
X550000Y81600D02*Y78400D01*
X548400Y80000D02*X551600D01*
X340000Y141600D02*Y138400D01*
X338400Y140000D02*X341600D01*
X340000Y131600D02*Y128400D01*
X338400Y130000D02*X341600D01*
X310000Y141600D02*Y138400D01*
X308400Y140000D02*X311600D01*
X310000Y131600D02*Y128400D01*
X308400Y130000D02*X311600D01*
X300000Y141600D02*Y138400D01*
X298400Y140000D02*X301600D01*
X300000Y131600D02*Y128400D01*
X298400Y130000D02*X301600D01*
X320000Y141600D02*Y138400D01*
X318400Y140000D02*X321600D01*
X320000Y131600D02*Y128400D01*
X318400Y130000D02*X321600D01*
X330000Y141600D02*Y138400D01*
X328400Y140000D02*X331600D01*
X330000Y131600D02*Y128400D01*
X328400Y130000D02*X331600D01*
X360000Y161600D02*Y158400D01*
X358400Y160000D02*X361600D01*
X350000Y161600D02*Y158400D01*
X348400Y160000D02*X351600D01*
X340000Y161600D02*Y158400D01*
X338400Y160000D02*X341600D01*
X330000Y161600D02*Y158400D01*
X328400Y160000D02*X331600D01*
X320000Y161600D02*Y158400D01*
X318400Y160000D02*X321600D01*
X310000Y161600D02*Y158400D01*
X308400Y160000D02*X311600D01*
X300000Y161600D02*Y158400D01*
X298400Y160000D02*X301600D01*
X290000Y161600D02*Y158400D01*
X288400Y160000D02*X291600D01*
X280000Y161600D02*Y158400D01*
X278400Y160000D02*X281600D01*
X270000Y161600D02*Y158400D01*
X268400Y160000D02*X271600D01*
X230000Y141600D02*Y138400D01*
X228400Y140000D02*X231600D01*
X230000Y131600D02*Y128400D01*
X228400Y130000D02*X231600D01*
X220000Y141600D02*Y138400D01*
X218400Y140000D02*X221600D01*
X220000Y131600D02*Y128400D01*
X218400Y130000D02*X221600D01*
X210000Y141600D02*Y138400D01*
X208400Y140000D02*X211600D01*
X210000Y131600D02*Y128400D01*
X208400Y130000D02*X211600D01*
X190000Y141600D02*Y138400D01*
X188400Y140000D02*X191600D01*
X190000Y131600D02*Y128400D01*
X188400Y130000D02*X191600D01*
X200000Y141600D02*Y138400D01*
X198400Y140000D02*X201600D01*
X200000Y131600D02*Y128400D01*
X198400Y130000D02*X201600D01*
X250000Y161600D02*Y158400D01*
X248400Y160000D02*X251600D01*
X240000Y161600D02*Y158400D01*
X238400Y160000D02*X241600D01*
X230000Y161600D02*Y158400D01*
X228400Y160000D02*X231600D01*
X220000Y161600D02*Y158400D01*
X218400Y160000D02*X221600D01*
X210000Y161600D02*Y158400D01*
X208400Y160000D02*X211600D01*
X200000Y161600D02*Y158400D01*
X198400Y160000D02*X201600D01*
X190000Y161600D02*Y158400D01*
X188400Y160000D02*X191600D01*
X180000Y161600D02*Y158400D01*
X178400Y160000D02*X181600D01*
X170000Y161600D02*Y158400D01*
X168400Y160000D02*X171600D01*
X160000Y161600D02*Y158400D01*
X158400Y160000D02*X161600D01*
X70000Y181600D02*Y178400D01*
X68400Y180000D02*X71600D01*
X80000Y181600D02*Y178400D01*
X78400Y180000D02*X81600D01*
X90000Y181600D02*Y178400D01*
X88400Y180000D02*X91600D01*
X100000Y181600D02*Y178400D01*
X98400Y180000D02*X101600D01*
X110000Y181600D02*Y178400D01*
X108400Y180000D02*X111600D01*
X120000Y181600D02*Y178400D01*
X118400Y180000D02*X121600D01*
X130000Y181600D02*Y178400D01*
X128400Y180000D02*X131600D01*
X140000Y181600D02*Y178400D01*
X138400Y180000D02*X141600D01*
X140000Y211600D02*Y208400D01*
X138400Y210000D02*X141600D01*
X130000Y211600D02*Y208400D01*
X128400Y210000D02*X131600D01*
X120000Y211600D02*Y208400D01*
X118400Y210000D02*X121600D01*
X110000Y211600D02*Y208400D01*
X108400Y210000D02*X111600D01*
X100000Y211600D02*Y208400D01*
X98400Y210000D02*X101600D01*
X90000Y211600D02*Y208400D01*
X88400Y210000D02*X91600D01*
X80000Y211600D02*Y208400D01*
X78400Y210000D02*X81600D01*
X70000Y211600D02*Y208400D01*
X68400Y210000D02*X71600D01*
X200000Y21600D02*Y18400D01*
X198400Y20000D02*X201600D01*
X180000Y21600D02*Y18400D01*
X178400Y20000D02*X181600D01*
X160000Y21600D02*Y18400D01*
X158400Y20000D02*X161600D01*
X210000Y261600D02*Y258400D01*
X208400Y260000D02*X211600D01*
X205000Y251600D02*Y248400D01*
X203400Y250000D02*X206600D01*
X200000Y261600D02*Y258400D01*
X198400Y260000D02*X201600D01*
X195000Y251600D02*Y248400D01*
X193400Y250000D02*X196600D01*
X190000Y261600D02*Y258400D01*
X188400Y260000D02*X191600D01*
X185000Y251600D02*Y248400D01*
X183400Y250000D02*X186600D01*
X180000Y261600D02*Y258400D01*
X178400Y260000D02*X181600D01*
X175000Y251600D02*Y248400D01*
X173400Y250000D02*X176600D01*
X350000Y261600D02*Y258400D01*
X348400Y260000D02*X351600D01*
X345000Y251600D02*Y248400D01*
X343400Y250000D02*X346600D01*
X340000Y261600D02*Y258400D01*
X338400Y260000D02*X341600D01*
X335000Y251600D02*Y248400D01*
X333400Y250000D02*X336600D01*
X330000Y261600D02*Y258400D01*
X328400Y260000D02*X331600D01*
X325000Y251600D02*Y248400D01*
X323400Y250000D02*X326600D01*
X320000Y261600D02*Y258400D01*
X318400Y260000D02*X321600D01*
X315000Y251600D02*Y248400D01*
X313400Y250000D02*X316600D01*
X490000Y261600D02*Y258400D01*
X488400Y260000D02*X491600D01*
X485000Y251600D02*Y248400D01*
X483400Y250000D02*X486600D01*
X480000Y261600D02*Y258400D01*
X478400Y260000D02*X481600D01*
X475000Y251600D02*Y248400D01*
X473400Y250000D02*X476600D01*
X470000Y261600D02*Y258400D01*
X468400Y260000D02*X471600D01*
X465000Y251600D02*Y248400D01*
X463400Y250000D02*X466600D01*
X460000Y261600D02*Y258400D01*
X458400Y260000D02*X461600D01*
X455000Y251600D02*Y248400D01*
X453400Y250000D02*X456600D01*
X630000Y261600D02*Y258400D01*
X628400Y260000D02*X631600D01*
X625000Y251600D02*Y248400D01*
X623400Y250000D02*X626600D01*
X620000Y261600D02*Y258400D01*
X618400Y260000D02*X621600D01*
X615000Y251600D02*Y248400D01*
X613400Y250000D02*X616600D01*
X610000Y261600D02*Y258400D01*
X608400Y260000D02*X611600D01*
X605000Y251600D02*Y248400D01*
X603400Y250000D02*X606600D01*
X600000Y261600D02*Y258400D01*
X598400Y260000D02*X601600D01*
X595000Y251600D02*Y248400D01*
X593400Y250000D02*X596600D01*
X70000Y261600D02*Y258400D01*
X68400Y260000D02*X71600D01*
X65000Y251600D02*Y248400D01*
X63400Y250000D02*X66600D01*
X60000Y261600D02*Y258400D01*
X58400Y260000D02*X61600D01*
X55000Y251600D02*Y248400D01*
X53400Y250000D02*X56600D01*
X50000Y261600D02*Y258400D01*
X48400Y260000D02*X51600D01*
X45000Y251600D02*Y248400D01*
X43400Y250000D02*X46600D01*
X40000Y261600D02*Y258400D01*
X38400Y260000D02*X41600D01*
X35000Y251600D02*Y248400D01*
X33400Y250000D02*X36600D01*
X100000Y131600D02*Y128400D01*
X98400Y130000D02*X101600D01*
X490000Y61600D02*Y58400D01*
X488400Y60000D02*X491600D01*
X520000Y61600D02*Y58400D01*
X518400Y60000D02*X521600D01*
X245000Y96600D02*Y93400D01*
X243400Y95000D02*X246600D01*
X262500Y106600D02*Y103400D01*
X260900Y105000D02*X264100D01*
X165000Y114100D02*Y110900D01*
X163400Y112500D02*X166600D01*
X180000Y196600D02*Y193400D01*
X178400Y195000D02*X181600D01*
X367500Y81600D02*Y78400D01*
X365900Y80000D02*X369100D01*
X360000Y196600D02*Y193400D01*
X358400Y195000D02*X361600D01*
X400000Y161600D02*Y158400D01*
X398400Y160000D02*X401600D01*
X410000Y226600D02*Y223400D01*
X408400Y225000D02*X411600D01*
X490000Y154100D02*Y150900D01*
X488400Y152500D02*X491600D01*
X490000Y184100D02*Y180900D01*
X488400Y182500D02*X491600D01*
X57500Y131600D02*Y128400D01*
X55900Y130000D02*X59100D01*
X260000Y221600D02*Y218400D01*
X258400Y220000D02*X261600D01*
X265000Y196600D02*Y193400D01*
X263400Y195000D02*X266600D01*
X340000Y196600D02*Y193400D01*
X338400Y195000D02*X341600D01*
X382500Y189100D02*Y185900D01*
X380900Y187500D02*X384100D01*
X577500Y111600D02*Y108400D01*
X575900Y110000D02*X579100D01*
X500000Y111600D02*Y108400D01*
X498400Y110000D02*X501600D01*
X367500Y141600D02*Y138400D01*
X365900Y140000D02*X369100D01*
X45000Y239100D02*Y235900D01*
X43400Y237500D02*X46600D01*
X440000Y226600D02*Y223400D01*
X438400Y225000D02*X441600D01*
X75000Y239100D02*Y235900D01*
X73400Y237500D02*X76600D01*
X15000Y367850D02*Y364650D01*
X13400Y366250D02*X16600D01*
X135000Y368500D02*X136500Y365500D01*
X138000Y368500D01*
X136500Y365500D02*Y362500D01*
X139800Y365800D02*X142050D01*
X139800Y362500D02*X142800D01*
X139800Y368500D02*Y362500D01*
Y368500D02*X142800D01*
X147600D02*X148350Y367750D01*
X145350Y368500D02*X147600D01*
X144600Y367750D02*X145350Y368500D01*
X144600Y367750D02*Y366250D01*
X145350Y365500D01*
X147600D01*
X148350Y364750D01*
Y363250D01*
X147600Y362500D02*X148350Y363250D01*
X145350Y362500D02*X147600D01*
X144600Y363250D02*X145350Y362500D01*
X98000Y367750D02*X98750Y368500D01*
X101000D01*
X101750Y367750D01*
Y366250D01*
X98000Y362500D02*X101750Y366250D01*
X98000Y362500D02*X101750D01*
X103550Y368500D02*X106550D01*
X103550D02*Y365500D01*
X104300Y366250D01*
X105800D01*
X106550Y365500D01*
Y363250D01*
X105800Y362500D02*X106550Y363250D01*
X104300Y362500D02*X105800D01*
X103550Y363250D02*X104300Y362500D01*
X109100D02*X112100Y368500D01*
X108350D02*X112100D01*
X45000Y363250D02*X45750Y362500D01*
X45000Y367750D02*Y363250D01*
Y367750D02*X45750Y368500D01*
X47250D01*
X48000Y367750D01*
Y363250D01*
X47250Y362500D02*X48000Y363250D01*
X45750Y362500D02*X47250D01*
X45000Y364000D02*X48000Y367000D01*
X49800Y362500D02*X50550D01*
X52350Y363250D02*X53100Y362500D01*
X52350Y367750D02*Y363250D01*
Y367750D02*X53100Y368500D01*
X54600D01*
X55350Y367750D01*
Y363250D01*
X54600Y362500D02*X55350Y363250D01*
X53100Y362500D02*X54600D01*
X52350Y364000D02*X55350Y367000D01*
X57150Y367750D02*X57900Y368500D01*
X59400D01*
X60150Y367750D01*
X59400Y362500D02*X60150Y363250D01*
X57900Y362500D02*X59400D01*
X57150Y363250D02*X57900Y362500D01*
Y365800D02*X59400D01*
X60150Y367750D02*Y366550D01*
Y365050D02*Y363250D01*
Y365050D02*X59400Y365800D01*
X60150Y366550D02*X59400Y365800D01*
X61950Y367300D02*X63150Y368500D01*
Y362500D01*
X61950D02*X64200D01*
X110000Y130000D02*Y128400D01*
Y130000D02*X111387Y130800D01*
X110000Y130000D02*X108613Y130800D01*
X15000Y381250D02*Y379650D01*
Y381250D02*X16387Y382050D01*
X15000Y381250D02*X13613Y382050D01*
X135000Y383500D02*X136500Y380500D01*
X138000Y383500D01*
X136500Y380500D02*Y377500D01*
X139800Y380800D02*X142050D01*
X139800Y377500D02*X142800D01*
X139800Y383500D02*Y377500D01*
Y383500D02*X142800D01*
X147600D02*X148350Y382750D01*
X145350Y383500D02*X147600D01*
X144600Y382750D02*X145350Y383500D01*
X144600Y382750D02*Y381250D01*
X145350Y380500D01*
X147600D01*
X148350Y379750D01*
Y378250D01*
X147600Y377500D02*X148350Y378250D01*
X145350Y377500D02*X147600D01*
X144600Y378250D02*X145350Y377500D01*
X98000Y382300D02*X99200Y383500D01*
Y377500D01*
X98000D02*X100250D01*
X45000Y378250D02*X45750Y377500D01*
X45000Y382750D02*Y378250D01*
Y382750D02*X45750Y383500D01*
X47250D01*
X48000Y382750D01*
Y378250D01*
X47250Y377500D02*X48000Y378250D01*
X45750Y377500D02*X47250D01*
X45000Y379000D02*X48000Y382000D01*
X49800Y377500D02*X50550D01*
X52350Y378250D02*X53100Y377500D01*
X52350Y382750D02*Y378250D01*
Y382750D02*X53100Y383500D01*
X54600D01*
X55350Y382750D01*
Y378250D01*
X54600Y377500D02*X55350Y378250D01*
X53100Y377500D02*X54600D01*
X52350Y379000D02*X55350Y382000D01*
X57150Y382750D02*X57900Y383500D01*
X59400D01*
X60150Y382750D01*
X59400Y377500D02*X60150Y378250D01*
X57900Y377500D02*X59400D01*
X57150Y378250D02*X57900Y377500D01*
Y380800D02*X59400D01*
X60150Y382750D02*Y381550D01*
Y380050D02*Y378250D01*
Y380050D02*X59400Y380800D01*
X60150Y381550D02*X59400Y380800D01*
X61950Y378250D02*X62700Y377500D01*
X61950Y382750D02*Y378250D01*
Y382750D02*X62700Y383500D01*
X64200D01*
X64950Y382750D01*
Y378250D01*
X64200Y377500D02*X64950Y378250D01*
X62700Y377500D02*X64200D01*
X61950Y379000D02*X64950Y382000D01*
X3000Y398500D02*X3750Y397750D01*
X750Y398500D02*X3000D01*
X0Y397750D02*X750Y398500D01*
X0Y397750D02*Y396250D01*
X750Y395500D01*
X3000D01*
X3750Y394750D01*
Y393250D01*
X3000Y392500D02*X3750Y393250D01*
X750Y392500D02*X3000D01*
X0Y393250D02*X750Y392500D01*
X5550Y395500D02*Y393250D01*
X6300Y392500D01*
X8550Y395500D02*Y391000D01*
X7800Y390250D02*X8550Y391000D01*
X6300Y390250D02*X7800D01*
X5550Y391000D02*X6300Y390250D01*
Y392500D02*X7800D01*
X8550Y393250D01*
X11100Y394750D02*Y392500D01*
Y394750D02*X11850Y395500D01*
X12600D01*
X13350Y394750D01*
Y392500D01*
Y394750D02*X14100Y395500D01*
X14850D01*
X15600Y394750D01*
Y392500D01*
X10350Y395500D02*X11100Y394750D01*
X17400Y398500D02*Y392500D01*
Y393250D02*X18150Y392500D01*
X19650D01*
X20400Y393250D01*
Y394750D02*Y393250D01*
X19650Y395500D02*X20400Y394750D01*
X18150Y395500D02*X19650D01*
X17400Y394750D02*X18150Y395500D01*
X22200Y394750D02*Y393250D01*
Y394750D02*X22950Y395500D01*
X24450D01*
X25200Y394750D01*
Y393250D01*
X24450Y392500D02*X25200Y393250D01*
X22950Y392500D02*X24450D01*
X22200Y393250D02*X22950Y392500D01*
X27000Y398500D02*Y393250D01*
X27750Y392500D01*
X0Y389250D02*X29250D01*
X41750Y398500D02*Y392500D01*
X43700Y398500D02*X44750Y397450D01*
Y393550D01*
X43700Y392500D02*X44750Y393550D01*
X41000Y392500D02*X43700D01*
X41000Y398500D02*X43700D01*
G54D67*X46550Y397000D02*Y396850D01*
G54D66*Y394750D02*Y392500D01*
X50300Y395500D02*X51050Y394750D01*
X48800Y395500D02*X50300D01*
X48050Y394750D02*X48800Y395500D01*
X48050Y394750D02*Y393250D01*
X48800Y392500D01*
X51050Y395500D02*Y393250D01*
X51800Y392500D01*
X48800D02*X50300D01*
X51050Y393250D01*
X54350Y394750D02*Y392500D01*
Y394750D02*X55100Y395500D01*
X55850D01*
X56600Y394750D01*
Y392500D01*
Y394750D02*X57350Y395500D01*
X58100D01*
X58850Y394750D01*
Y392500D01*
X53600Y395500D02*X54350Y394750D01*
X60650Y392500D02*X61400D01*
X65900Y393250D02*X66650Y392500D01*
X65900Y397750D02*X66650Y398500D01*
X65900Y397750D02*Y393250D01*
X68450Y398500D02*X69950D01*
X69200D02*Y392500D01*
X68450D02*X69950D01*
X72500Y394750D02*Y392500D01*
Y394750D02*X73250Y395500D01*
X74000D01*
X74750Y394750D01*
Y392500D01*
X71750Y395500D02*X72500Y394750D01*
X77300Y395500D02*X79550D01*
X76550Y394750D02*X77300Y395500D01*
X76550Y394750D02*Y393250D01*
X77300Y392500D01*
X79550D01*
X81350Y398500D02*Y392500D01*
Y394750D02*X82100Y395500D01*
X83600D01*
X84350Y394750D01*
Y392500D01*
X86150Y398500D02*X86900Y397750D01*
Y393250D01*
X86150Y392500D02*X86900Y393250D01*
X41000Y389250D02*X88700D01*
X96050Y392500D02*X98000D01*
X95000Y393550D02*X96050Y392500D01*
X95000Y397450D02*Y393550D01*
Y397450D02*X96050Y398500D01*
X98000D01*
X99800Y394750D02*Y393250D01*
Y394750D02*X100550Y395500D01*
X102050D01*
X102800Y394750D01*
Y393250D01*
X102050Y392500D02*X102800Y393250D01*
X100550Y392500D02*X102050D01*
X99800Y393250D02*X100550Y392500D01*
X104600Y395500D02*Y393250D01*
X105350Y392500D01*
X106850D01*
X107600Y393250D01*
Y395500D02*Y393250D01*
X110150Y394750D02*Y392500D01*
Y394750D02*X110900Y395500D01*
X111650D01*
X112400Y394750D01*
Y392500D01*
X109400Y395500D02*X110150Y394750D01*
X114950Y398500D02*Y393250D01*
X115700Y392500D01*
X114200Y396250D02*X115700D01*
X95000Y389250D02*X117200D01*
X130750Y398500D02*Y392500D01*
X130000Y398500D02*X133000D01*
X133750Y397750D01*
Y396250D01*
X133000Y395500D02*X133750Y396250D01*
X130750Y395500D02*X133000D01*
X135550Y398500D02*Y393250D01*
X136300Y392500D01*
X140050Y395500D02*X140800Y394750D01*
X138550Y395500D02*X140050D01*
X137800Y394750D02*X138550Y395500D01*
X137800Y394750D02*Y393250D01*
X138550Y392500D01*
X140800Y395500D02*Y393250D01*
X141550Y392500D01*
X138550D02*X140050D01*
X140800Y393250D01*
X144100Y398500D02*Y393250D01*
X144850Y392500D01*
X143350Y396250D02*X144850D01*
X147100Y392500D02*X149350D01*
X146350Y393250D02*X147100Y392500D01*
X146350Y394750D02*Y393250D01*
Y394750D02*X147100Y395500D01*
X148600D01*
X149350Y394750D01*
X146350Y394000D02*X149350D01*
Y394750D02*Y394000D01*
X154150Y398500D02*Y392500D01*
X153400D02*X154150Y393250D01*
X151900Y392500D02*X153400D01*
X151150Y393250D02*X151900Y392500D01*
X151150Y394750D02*Y393250D01*
Y394750D02*X151900Y395500D01*
X153400D01*
X154150Y394750D01*
X157450Y395500D02*Y394750D01*
Y393250D02*Y392500D01*
X155950Y397750D02*Y397000D01*
Y397750D02*X156700Y398500D01*
X158200D01*
X158950Y397750D01*
Y397000D01*
X157450Y395500D02*X158950Y397000D01*
X130000Y389250D02*X160750D01*
X0Y413500D02*X3000D01*
X1500D02*Y407500D01*
X4800Y413500D02*Y407500D01*
Y409750D02*X5550Y410500D01*
X7050D01*
X7800Y409750D01*
Y407500D01*
X10350D02*X12600D01*
X9600Y408250D02*X10350Y407500D01*
X9600Y409750D02*Y408250D01*
Y409750D02*X10350Y410500D01*
X11850D01*
X12600Y409750D01*
X9600Y409000D02*X12600D01*
Y409750D02*Y409000D01*
X15150Y409750D02*Y407500D01*
Y409750D02*X15900Y410500D01*
X17400D01*
X14400D02*X15150Y409750D01*
X19950Y407500D02*X22200D01*
X19200Y408250D02*X19950Y407500D01*
X19200Y409750D02*Y408250D01*
Y409750D02*X19950Y410500D01*
X21450D01*
X22200Y409750D01*
X19200Y409000D02*X22200D01*
Y409750D02*Y409000D01*
X28950Y410500D02*X29700Y409750D01*
X27450Y410500D02*X28950D01*
X26700Y409750D02*X27450Y410500D01*
X26700Y409750D02*Y408250D01*
X27450Y407500D01*
X29700Y410500D02*Y408250D01*
X30450Y407500D01*
X27450D02*X28950D01*
X29700Y408250D01*
X33000Y409750D02*Y407500D01*
Y409750D02*X33750Y410500D01*
X35250D01*
X32250D02*X33000Y409750D01*
X37800Y407500D02*X40050D01*
X37050Y408250D02*X37800Y407500D01*
X37050Y409750D02*Y408250D01*
Y409750D02*X37800Y410500D01*
X39300D01*
X40050Y409750D01*
X37050Y409000D02*X40050D01*
Y409750D02*Y409000D01*
X44550Y413500D02*X47550D01*
X44550D02*Y410500D01*
X45300Y411250D01*
X46800D01*
X47550Y410500D01*
Y408250D01*
X46800Y407500D02*X47550Y408250D01*
X45300Y407500D02*X46800D01*
X44550Y408250D02*X45300Y407500D01*
X55050Y413500D02*Y407500D01*
X54300D02*X55050Y408250D01*
X52800Y407500D02*X54300D01*
X52050Y408250D02*X52800Y407500D01*
X52050Y409750D02*Y408250D01*
Y409750D02*X52800Y410500D01*
X54300D01*
X55050Y409750D01*
G54D67*X56850Y412000D02*Y411850D01*
G54D66*Y409750D02*Y407500D01*
X59100Y412750D02*Y407500D01*
Y412750D02*X59850Y413500D01*
X60600D01*
X58350Y410500D02*X59850D01*
X62850Y412750D02*Y407500D01*
Y412750D02*X63600Y413500D01*
X64350D01*
X62100Y410500D02*X63600D01*
X66600Y407500D02*X68850D01*
X65850Y408250D02*X66600Y407500D01*
X65850Y409750D02*Y408250D01*
Y409750D02*X66600Y410500D01*
X68100D01*
X68850Y409750D01*
X65850Y409000D02*X68850D01*
Y409750D02*Y409000D01*
X71400Y409750D02*Y407500D01*
Y409750D02*X72150Y410500D01*
X73650D01*
X70650D02*X71400Y409750D01*
X76200Y407500D02*X78450D01*
X75450Y408250D02*X76200Y407500D01*
X75450Y409750D02*Y408250D01*
Y409750D02*X76200Y410500D01*
X77700D01*
X78450Y409750D01*
X75450Y409000D02*X78450D01*
Y409750D02*Y409000D01*
X81000Y409750D02*Y407500D01*
Y409750D02*X81750Y410500D01*
X82500D01*
X83250Y409750D01*
Y407500D01*
X80250Y410500D02*X81000Y409750D01*
X85800Y413500D02*Y408250D01*
X86550Y407500D01*
X85050Y411250D02*X86550D01*
X93750Y413500D02*Y407500D01*
X93000D02*X93750Y408250D01*
X91500Y407500D02*X93000D01*
X90750Y408250D02*X91500Y407500D01*
X90750Y409750D02*Y408250D01*
Y409750D02*X91500Y410500D01*
X93000D01*
X93750Y409750D01*
X96300D02*Y407500D01*
Y409750D02*X97050Y410500D01*
X98550D01*
X95550D02*X96300Y409750D01*
G54D67*X100350Y412000D02*Y411850D01*
G54D66*Y409750D02*Y407500D01*
X101850Y413500D02*Y408250D01*
X102600Y407500D01*
X104100Y413500D02*Y408250D01*
X104850Y407500D01*
X109800D02*X112050D01*
X112800Y408250D01*
X112050Y409000D02*X112800Y408250D01*
X109800Y409000D02*X112050D01*
X109050Y409750D02*X109800Y409000D01*
X109050Y409750D02*X109800Y410500D01*
X112050D01*
X112800Y409750D01*
X109050Y408250D02*X109800Y407500D01*
G54D67*X114600Y412000D02*Y411850D01*
G54D66*Y409750D02*Y407500D01*
X116100Y410500D02*X119100D01*
X116100Y407500D02*X119100Y410500D01*
X116100Y407500D02*X119100D01*
X121650D02*X123900D01*
X120900Y408250D02*X121650Y407500D01*
X120900Y409750D02*Y408250D01*
Y409750D02*X121650Y410500D01*
X123150D01*
X123900Y409750D01*
X120900Y409000D02*X123900D01*
Y409750D02*Y409000D01*
X126450Y407500D02*X128700D01*
X129450Y408250D01*
X128700Y409000D02*X129450Y408250D01*
X126450Y409000D02*X128700D01*
X125700Y409750D02*X126450Y409000D01*
X125700Y409750D02*X126450Y410500D01*
X128700D01*
X129450Y409750D01*
X125700Y408250D02*X126450Y407500D01*
X133950Y410500D02*Y408250D01*
X134700Y407500D01*
X136200D01*
X136950Y408250D01*
Y410500D02*Y408250D01*
X139500Y407500D02*X141750D01*
X142500Y408250D01*
X141750Y409000D02*X142500Y408250D01*
X139500Y409000D02*X141750D01*
X138750Y409750D02*X139500Y409000D01*
X138750Y409750D02*X139500Y410500D01*
X141750D01*
X142500Y409750D01*
X138750Y408250D02*X139500Y407500D01*
X145050D02*X147300D01*
X144300Y408250D02*X145050Y407500D01*
X144300Y409750D02*Y408250D01*
Y409750D02*X145050Y410500D01*
X146550D01*
X147300Y409750D01*
X144300Y409000D02*X147300D01*
Y409750D02*Y409000D01*
X152100Y413500D02*Y407500D01*
X151350D02*X152100Y408250D01*
X149850Y407500D02*X151350D01*
X149100Y408250D02*X149850Y407500D01*
X149100Y409750D02*Y408250D01*
Y409750D02*X149850Y410500D01*
X151350D01*
X152100Y409750D01*
G54D67*X156600Y412000D02*Y411850D01*
G54D66*Y409750D02*Y407500D01*
X158850Y409750D02*Y407500D01*
Y409750D02*X159600Y410500D01*
X160350D01*
X161100Y409750D01*
Y407500D01*
X158100Y410500D02*X158850Y409750D01*
X166350Y413500D02*Y408250D01*
X167100Y407500D01*
X165600Y411250D02*X167100D01*
X168600Y413500D02*Y407500D01*
Y409750D02*X169350Y410500D01*
X170850D01*
X171600Y409750D01*
Y407500D01*
G54D67*X173400Y412000D02*Y411850D01*
G54D66*Y409750D02*Y407500D01*
X175650D02*X177900D01*
X178650Y408250D01*
X177900Y409000D02*X178650Y408250D01*
X175650Y409000D02*X177900D01*
X174900Y409750D02*X175650Y409000D01*
X174900Y409750D02*X175650Y410500D01*
X177900D01*
X178650Y409750D01*
X174900Y408250D02*X175650Y407500D01*
X183150Y413500D02*Y408250D01*
X183900Y407500D01*
X187650Y410500D02*X188400Y409750D01*
X186150Y410500D02*X187650D01*
X185400Y409750D02*X186150Y410500D01*
X185400Y409750D02*Y408250D01*
X186150Y407500D01*
X188400Y410500D02*Y408250D01*
X189150Y407500D01*
X186150D02*X187650D01*
X188400Y408250D01*
X190950Y410500D02*Y408250D01*
X191700Y407500D01*
X193950Y410500D02*Y406000D01*
X193200Y405250D02*X193950Y406000D01*
X191700Y405250D02*X193200D01*
X190950Y406000D02*X191700Y405250D01*
Y407500D02*X193200D01*
X193950Y408250D01*
X195750Y409750D02*Y408250D01*
Y409750D02*X196500Y410500D01*
X198000D01*
X198750Y409750D01*
Y408250D01*
X198000Y407500D02*X198750Y408250D01*
X196500Y407500D02*X198000D01*
X195750Y408250D02*X196500Y407500D01*
X200550Y410500D02*Y408250D01*
X201300Y407500D01*
X202800D01*
X203550Y408250D01*
Y410500D02*Y408250D01*
X206100Y413500D02*Y408250D01*
X206850Y407500D01*
X205350Y411250D02*X206850D01*
X208350Y406000D02*X209850Y407500D01*
X214350Y412750D02*X215100Y413500D01*
X217350D01*
X218100Y412750D01*
Y411250D01*
X214350Y407500D02*X218100Y411250D01*
X214350Y407500D02*X218100D01*
X220650D02*X223650Y413500D01*
X219900D02*X223650D01*
X226200Y407500D02*X229200Y413500D01*
X225450D02*X229200D01*
X233700D02*Y407500D01*
Y409750D02*X234450Y410500D01*
X235950D01*
X236700Y409750D01*
Y407500D01*
X238500Y409750D02*Y408250D01*
Y409750D02*X239250Y410500D01*
X240750D01*
X241500Y409750D01*
Y408250D01*
X240750Y407500D02*X241500Y408250D01*
X239250Y407500D02*X240750D01*
X238500Y408250D02*X239250Y407500D01*
X243300Y413500D02*Y408250D01*
X244050Y407500D01*
X246300D02*X248550D01*
X245550Y408250D02*X246300Y407500D01*
X245550Y409750D02*Y408250D01*
Y409750D02*X246300Y410500D01*
X247800D01*
X248550Y409750D01*
X245550Y409000D02*X248550D01*
Y409750D02*Y409000D01*
X251100Y407500D02*X253350D01*
X254100Y408250D01*
X253350Y409000D02*X254100Y408250D01*
X251100Y409000D02*X253350D01*
X250350Y409750D02*X251100Y409000D01*
X250350Y409750D02*X251100Y410500D01*
X253350D01*
X254100Y409750D01*
X250350Y408250D02*X251100Y407500D01*
X259350Y413500D02*Y408250D01*
X260100Y407500D01*
X258600Y411250D02*X260100D01*
X261600Y409750D02*Y408250D01*
Y409750D02*X262350Y410500D01*
X263850D01*
X264600Y409750D01*
Y408250D01*
X263850Y407500D02*X264600Y408250D01*
X262350Y407500D02*X263850D01*
X261600Y408250D02*X262350Y407500D01*
X267150Y413500D02*Y408250D01*
X267900Y407500D01*
X266400Y411250D02*X267900D01*
X271650Y410500D02*X272400Y409750D01*
X270150Y410500D02*X271650D01*
X269400Y409750D02*X270150Y410500D01*
X269400Y409750D02*Y408250D01*
X270150Y407500D01*
X272400Y410500D02*Y408250D01*
X273150Y407500D01*
X270150D02*X271650D01*
X272400Y408250D01*
X274950Y413500D02*Y408250D01*
X275700Y407500D01*
G54D68*X0Y310000D02*X670000D01*
X0D02*Y0D01*
X670000Y310000D02*Y0D01*
X0D02*X670000D01*
G54D66*X200000Y323500D02*Y317500D01*
Y323500D02*X202250Y320500D01*
X204500Y323500D01*
Y317500D01*
X208550Y320500D02*X209300Y319750D01*
X207050Y320500D02*X208550D01*
X206300Y319750D02*X207050Y320500D01*
X206300Y319750D02*Y318250D01*
X207050Y317500D01*
X209300Y320500D02*Y318250D01*
X210050Y317500D01*
X207050D02*X208550D01*
X209300Y318250D01*
X211850Y320500D02*X214850Y317500D01*
X211850D02*X214850Y320500D01*
G54D67*X216650Y322000D02*Y321850D01*
G54D66*Y319750D02*Y317500D01*
X218900Y319750D02*Y317500D01*
Y319750D02*X219650Y320500D01*
X220400D01*
X221150Y319750D01*
Y317500D01*
Y319750D02*X221900Y320500D01*
X222650D01*
X223400Y319750D01*
Y317500D01*
X218150Y320500D02*X218900Y319750D01*
X225200Y320500D02*Y318250D01*
X225950Y317500D01*
X227450D01*
X228200Y318250D01*
Y320500D02*Y318250D01*
X230750Y319750D02*Y317500D01*
Y319750D02*X231500Y320500D01*
X232250D01*
X233000Y319750D01*
Y317500D01*
Y319750D02*X233750Y320500D01*
X234500D01*
X235250Y319750D01*
Y317500D01*
X230000Y320500D02*X230750Y319750D01*
X240500Y323500D02*Y317500D01*
X242450Y323500D02*X243500Y322450D01*
Y318550D01*
X242450Y317500D02*X243500Y318550D01*
X239750Y317500D02*X242450D01*
X239750Y323500D02*X242450D01*
G54D67*X245300Y322000D02*Y321850D01*
G54D66*Y319750D02*Y317500D01*
X247550Y319750D02*Y317500D01*
Y319750D02*X248300Y320500D01*
X249050D01*
X249800Y319750D01*
Y317500D01*
Y319750D02*X250550Y320500D01*
X251300D01*
X252050Y319750D01*
Y317500D01*
X246800Y320500D02*X247550Y319750D01*
X254600Y317500D02*X256850D01*
X253850Y318250D02*X254600Y317500D01*
X253850Y319750D02*Y318250D01*
Y319750D02*X254600Y320500D01*
X256100D01*
X256850Y319750D01*
X253850Y319000D02*X256850D01*
Y319750D02*Y319000D01*
X259400Y319750D02*Y317500D01*
Y319750D02*X260150Y320500D01*
X260900D01*
X261650Y319750D01*
Y317500D01*
X258650Y320500D02*X259400Y319750D01*
X264200Y317500D02*X266450D01*
X267200Y318250D01*
X266450Y319000D02*X267200Y318250D01*
X264200Y319000D02*X266450D01*
X263450Y319750D02*X264200Y319000D01*
X263450Y319750D02*X264200Y320500D01*
X266450D01*
X267200Y319750D01*
X263450Y318250D02*X264200Y317500D01*
G54D67*X269000Y322000D02*Y321850D01*
G54D66*Y319750D02*Y317500D01*
X270500Y319750D02*Y318250D01*
Y319750D02*X271250Y320500D01*
X272750D01*
X273500Y319750D01*
Y318250D01*
X272750Y317500D02*X273500Y318250D01*
X271250Y317500D02*X272750D01*
X270500Y318250D02*X271250Y317500D01*
X276050Y319750D02*Y317500D01*
Y319750D02*X276800Y320500D01*
X277550D01*
X278300Y319750D01*
Y317500D01*
X275300Y320500D02*X276050Y319750D01*
X280850Y317500D02*X283100D01*
X283850Y318250D01*
X283100Y319000D02*X283850Y318250D01*
X280850Y319000D02*X283100D01*
X280100Y319750D02*X280850Y319000D01*
X280100Y319750D02*X280850Y320500D01*
X283100D01*
X283850Y319750D01*
X280100Y318250D02*X280850Y317500D01*
X285650Y321250D02*X286400D01*
X285650Y319750D02*X286400D01*
X293150Y323500D02*X293900Y322750D01*
X291650Y323500D02*X293150D01*
X290900Y322750D02*X291650Y323500D01*
X290900Y322750D02*Y318250D01*
X291650Y317500D01*
X293150Y320800D02*X293900Y320050D01*
X290900Y320800D02*X293150D01*
X291650Y317500D02*X293150D01*
X293900Y318250D01*
Y320050D02*Y318250D01*
X296450Y317500D02*X299450Y323500D01*
X295700D02*X299450D01*
X301250Y318250D02*X302000Y317500D01*
X301250Y322750D02*Y318250D01*
Y322750D02*X302000Y323500D01*
X303500D01*
X304250Y322750D01*
Y318250D01*
X303500Y317500D02*X304250Y318250D01*
X302000Y317500D02*X303500D01*
X301250Y319000D02*X304250Y322000D01*
X306050Y318250D02*X306800Y317500D01*
X306050Y322750D02*Y318250D01*
Y322750D02*X306800Y323500D01*
X308300D01*
X309050Y322750D01*
Y318250D01*
X308300Y317500D02*X309050Y318250D01*
X306800Y317500D02*X308300D01*
X306050Y319000D02*X309050Y322000D01*
X310850Y317500D02*X311600D01*
X313400Y318250D02*X314150Y317500D01*
X313400Y322750D02*Y318250D01*
Y322750D02*X314150Y323500D01*
X315650D01*
X316400Y322750D01*
Y318250D01*
X315650Y317500D02*X316400Y318250D01*
X314150Y317500D02*X315650D01*
X313400Y319000D02*X316400Y322000D01*
X318200Y318250D02*X318950Y317500D01*
X318200Y322750D02*Y318250D01*
Y322750D02*X318950Y323500D01*
X320450D01*
X321200Y322750D01*
Y318250D01*
X320450Y317500D02*X321200Y318250D01*
X318950Y317500D02*X320450D01*
X318200Y319000D02*X321200Y322000D01*
X323000Y318250D02*X323750Y317500D01*
X323000Y322750D02*Y318250D01*
Y322750D02*X323750Y323500D01*
X325250D01*
X326000Y322750D01*
Y318250D01*
X325250Y317500D02*X326000Y318250D01*
X323750Y317500D02*X325250D01*
X323000Y319000D02*X326000Y322000D01*
X327800Y318250D02*X328550Y317500D01*
X327800Y322750D02*Y318250D01*
Y322750D02*X328550Y323500D01*
X330050D01*
X330800Y322750D01*
Y318250D01*
X330050Y317500D02*X330800Y318250D01*
X328550Y317500D02*X330050D01*
X327800Y319000D02*X330800Y322000D01*
X332600Y318250D02*X333350Y317500D01*
X332600Y322750D02*Y318250D01*
Y322750D02*X333350Y323500D01*
X334850D01*
X335600Y322750D01*
Y318250D01*
X334850Y317500D02*X335600Y318250D01*
X333350Y317500D02*X334850D01*
X332600Y319000D02*X335600Y322000D01*
X337400Y318250D02*X338150Y317500D01*
X337400Y322750D02*Y318250D01*
Y322750D02*X338150Y323500D01*
X339650D01*
X340400Y322750D01*
Y318250D01*
X339650Y317500D02*X340400Y318250D01*
X338150Y317500D02*X339650D01*
X337400Y319000D02*X340400Y322000D01*
X345650Y319750D02*Y317500D01*
Y319750D02*X346400Y320500D01*
X347150D01*
X347900Y319750D01*
Y317500D01*
Y319750D02*X348650Y320500D01*
X349400D01*
X350150Y319750D01*
Y317500D01*
X344900Y320500D02*X345650Y319750D01*
G54D67*X351950Y322000D02*Y321850D01*
G54D66*Y319750D02*Y317500D01*
X353450Y323500D02*Y318250D01*
X354200Y317500D01*
X356450D02*X358700D01*
X359450Y318250D01*
X358700Y319000D02*X359450Y318250D01*
X356450Y319000D02*X358700D01*
X355700Y319750D02*X356450Y319000D01*
X355700Y319750D02*X356450Y320500D01*
X358700D01*
X359450Y319750D01*
X355700Y318250D02*X356450Y317500D01*
X363950Y320500D02*Y318250D01*
X364700Y317500D01*
X365450D01*
X366200Y318250D01*
Y320500D02*Y318250D01*
X366950Y317500D01*
X367700D01*
X368450Y318250D01*
Y320500D02*Y318250D01*
G54D67*X370250Y322000D02*Y321850D01*
G54D66*Y319750D02*Y317500D01*
X374750Y323500D02*Y317500D01*
X374000D02*X374750Y318250D01*
X372500Y317500D02*X374000D01*
X371750Y318250D02*X372500Y317500D01*
X371750Y319750D02*Y318250D01*
Y319750D02*X372500Y320500D01*
X374000D01*
X374750Y319750D01*
X377300Y317500D02*X379550D01*
X376550Y318250D02*X377300Y317500D01*
X376550Y319750D02*Y318250D01*
Y319750D02*X377300Y320500D01*
X378800D01*
X379550Y319750D01*
X376550Y319000D02*X379550D01*
Y319750D02*Y319000D01*
X381350Y316000D02*X382850Y317500D01*
X387350Y322750D02*X388100Y323500D01*
X389600D01*
X390350Y322750D01*
X389600Y317500D02*X390350Y318250D01*
X388100Y317500D02*X389600D01*
X387350Y318250D02*X388100Y317500D01*
Y320800D02*X389600D01*
X390350Y322750D02*Y321550D01*
Y320050D02*Y318250D01*
Y320050D02*X389600Y320800D01*
X390350Y321550D02*X389600Y320800D01*
X392150Y322300D02*X393350Y323500D01*
Y317500D01*
X392150D02*X394400D01*
X396200Y318250D02*X396950Y317500D01*
X396200Y322750D02*Y318250D01*
Y322750D02*X396950Y323500D01*
X398450D01*
X399200Y322750D01*
Y318250D01*
X398450Y317500D02*X399200Y318250D01*
X396950Y317500D02*X398450D01*
X396200Y319000D02*X399200Y322000D01*
X401000Y318250D02*X401750Y317500D01*
X401000Y322750D02*Y318250D01*
Y322750D02*X401750Y323500D01*
X403250D01*
X404000Y322750D01*
Y318250D01*
X403250Y317500D02*X404000Y318250D01*
X401750Y317500D02*X403250D01*
X401000Y319000D02*X404000Y322000D01*
X405800Y317500D02*X406550D01*
X408350Y318250D02*X409100Y317500D01*
X408350Y322750D02*Y318250D01*
Y322750D02*X409100Y323500D01*
X410600D01*
X411350Y322750D01*
Y318250D01*
X410600Y317500D02*X411350Y318250D01*
X409100Y317500D02*X410600D01*
X408350Y319000D02*X411350Y322000D01*
X413150Y318250D02*X413900Y317500D01*
X413150Y322750D02*Y318250D01*
Y322750D02*X413900Y323500D01*
X415400D01*
X416150Y322750D01*
Y318250D01*
X415400Y317500D02*X416150Y318250D01*
X413900Y317500D02*X415400D01*
X413150Y319000D02*X416150Y322000D01*
X417950Y318250D02*X418700Y317500D01*
X417950Y322750D02*Y318250D01*
Y322750D02*X418700Y323500D01*
X420200D01*
X420950Y322750D01*
Y318250D01*
X420200Y317500D02*X420950Y318250D01*
X418700Y317500D02*X420200D01*
X417950Y319000D02*X420950Y322000D01*
X422750Y318250D02*X423500Y317500D01*
X422750Y322750D02*Y318250D01*
Y322750D02*X423500Y323500D01*
X425000D01*
X425750Y322750D01*
Y318250D01*
X425000Y317500D02*X425750Y318250D01*
X423500Y317500D02*X425000D01*
X422750Y319000D02*X425750Y322000D01*
X427550Y318250D02*X428300Y317500D01*
X427550Y322750D02*Y318250D01*
Y322750D02*X428300Y323500D01*
X429800D01*
X430550Y322750D01*
Y318250D01*
X429800Y317500D02*X430550Y318250D01*
X428300Y317500D02*X429800D01*
X427550Y319000D02*X430550Y322000D01*
X432350Y318250D02*X433100Y317500D01*
X432350Y322750D02*Y318250D01*
Y322750D02*X433100Y323500D01*
X434600D01*
X435350Y322750D01*
Y318250D01*
X434600Y317500D02*X435350Y318250D01*
X433100Y317500D02*X434600D01*
X432350Y319000D02*X435350Y322000D01*
X440600Y319750D02*Y317500D01*
Y319750D02*X441350Y320500D01*
X442100D01*
X442850Y319750D01*
Y317500D01*
Y319750D02*X443600Y320500D01*
X444350D01*
X445100Y319750D01*
Y317500D01*
X439850Y320500D02*X440600Y319750D01*
G54D67*X446900Y322000D02*Y321850D01*
G54D66*Y319750D02*Y317500D01*
X448400Y323500D02*Y318250D01*
X449150Y317500D01*
X451400D02*X453650D01*
X454400Y318250D01*
X453650Y319000D02*X454400Y318250D01*
X451400Y319000D02*X453650D01*
X450650Y319750D02*X451400Y319000D01*
X450650Y319750D02*X451400Y320500D01*
X453650D01*
X454400Y319750D01*
X450650Y318250D02*X451400Y317500D01*
X458900Y323500D02*Y317500D01*
Y319750D02*X459650Y320500D01*
X461150D01*
X461900Y319750D01*
Y317500D01*
G54D67*X463700Y322000D02*Y321850D01*
G54D66*Y319750D02*Y317500D01*
X467450Y320500D02*X468200Y319750D01*
X465950Y320500D02*X467450D01*
X465200Y319750D02*X465950Y320500D01*
X465200Y319750D02*Y318250D01*
X465950Y317500D01*
X467450D01*
X468200Y318250D01*
X465200Y316000D02*X465950Y315250D01*
X467450D01*
X468200Y316000D01*
Y320500D02*Y316000D01*
X470000Y323500D02*Y317500D01*
Y319750D02*X470750Y320500D01*
X472250D01*
X473000Y319750D01*
Y317500D01*
X132275Y-9500D02*X135275D01*
X136025Y-8750D01*
Y-6950D02*Y-8750D01*
X135275Y-6200D02*X136025Y-6950D01*
X133025Y-6200D02*X135275D01*
X133025Y-3500D02*Y-9500D01*
X132275Y-3500D02*X135275D01*
X136025Y-4250D01*
Y-5450D01*
X135275Y-6200D02*X136025Y-5450D01*
X137825Y-7250D02*Y-8750D01*
Y-7250D02*X138575Y-6500D01*
X140075D01*
X140825Y-7250D01*
Y-8750D01*
X140075Y-9500D02*X140825Y-8750D01*
X138575Y-9500D02*X140075D01*
X137825Y-8750D02*X138575Y-9500D01*
X144875Y-6500D02*X145625Y-7250D01*
X143375Y-6500D02*X144875D01*
X142625Y-7250D02*X143375Y-6500D01*
X142625Y-7250D02*Y-8750D01*
X143375Y-9500D01*
X145625Y-6500D02*Y-8750D01*
X146375Y-9500D01*
X143375D02*X144875D01*
X145625Y-8750D01*
X148925Y-7250D02*Y-9500D01*
Y-7250D02*X149675Y-6500D01*
X151175D01*
X148175D02*X148925Y-7250D01*
X155975Y-3500D02*Y-9500D01*
X155225D02*X155975Y-8750D01*
X153725Y-9500D02*X155225D01*
X152975Y-8750D02*X153725Y-9500D01*
X152975Y-7250D02*Y-8750D01*
Y-7250D02*X153725Y-6500D01*
X155225D01*
X155975Y-7250D01*
X160475D02*Y-8750D01*
Y-7250D02*X161225Y-6500D01*
X162725D01*
X163475Y-7250D01*
Y-8750D01*
X162725Y-9500D02*X163475Y-8750D01*
X161225Y-9500D02*X162725D01*
X160475Y-8750D02*X161225Y-9500D01*
X165275Y-6500D02*Y-8750D01*
X166025Y-9500D01*
X167525D01*
X168275Y-8750D01*
Y-6500D02*Y-8750D01*
X170825Y-3500D02*Y-8750D01*
X171575Y-9500D01*
X170075Y-5750D02*X171575D01*
X173075Y-3500D02*Y-8750D01*
X173825Y-9500D01*
G54D67*X175325Y-5000D02*Y-5150D01*
G54D66*Y-7250D02*Y-9500D01*
X177575Y-7250D02*Y-9500D01*
Y-7250D02*X178325Y-6500D01*
X179075D01*
X179825Y-7250D01*
Y-9500D01*
X176825Y-6500D02*X177575Y-7250D01*
X182375Y-9500D02*X184625D01*
X181625Y-8750D02*X182375Y-9500D01*
X181625Y-7250D02*Y-8750D01*
Y-7250D02*X182375Y-6500D01*
X183875D01*
X184625Y-7250D01*
X181625Y-8000D02*X184625D01*
Y-7250D02*Y-8000D01*
G54D67*X189125Y-5000D02*Y-5150D01*
G54D66*Y-7250D02*Y-9500D01*
X191375D02*X193625D01*
X194375Y-8750D01*
X193625Y-8000D02*X194375Y-8750D01*
X191375Y-8000D02*X193625D01*
X190625Y-7250D02*X191375Y-8000D01*
X190625Y-7250D02*X191375Y-6500D01*
X193625D01*
X194375Y-7250D01*
X190625Y-8750D02*X191375Y-9500D01*
X199625Y-3500D02*Y-8750D01*
X200375Y-9500D01*
X198875Y-5750D02*X200375D01*
X201875Y-3500D02*Y-9500D01*
Y-7250D02*X202625Y-6500D01*
X204125D01*
X204875Y-7250D01*
Y-9500D01*
X207425D02*X209675D01*
X206675Y-8750D02*X207425Y-9500D01*
X206675Y-7250D02*Y-8750D01*
Y-7250D02*X207425Y-6500D01*
X208925D01*
X209675Y-7250D01*
X206675Y-8000D02*X209675D01*
Y-7250D02*Y-8000D01*
X214925Y-6500D02*X217175D01*
X214175Y-7250D02*X214925Y-6500D01*
X214175Y-7250D02*Y-8750D01*
X214925Y-9500D01*
X217175D01*
X219725D02*X221975D01*
X218975Y-8750D02*X219725Y-9500D01*
X218975Y-7250D02*Y-8750D01*
Y-7250D02*X219725Y-6500D01*
X221225D01*
X221975Y-7250D01*
X218975Y-8000D02*X221975D01*
Y-7250D02*Y-8000D01*
X224525Y-7250D02*Y-9500D01*
Y-7250D02*X225275Y-6500D01*
X226025D01*
X226775Y-7250D01*
Y-9500D01*
X223775Y-6500D02*X224525Y-7250D01*
X229325Y-3500D02*Y-8750D01*
X230075Y-9500D01*
X228575Y-5750D02*X230075D01*
X232325Y-9500D02*X234575D01*
X231575Y-8750D02*X232325Y-9500D01*
X231575Y-7250D02*Y-8750D01*
Y-7250D02*X232325Y-6500D01*
X233825D01*
X234575Y-7250D01*
X231575Y-8000D02*X234575D01*
Y-7250D02*Y-8000D01*
X237125Y-7250D02*Y-9500D01*
Y-7250D02*X237875Y-6500D01*
X239375D01*
X236375D02*X237125Y-7250D01*
X241175Y-3500D02*Y-8750D01*
X241925Y-9500D01*
G54D67*X243425Y-5000D02*Y-5150D01*
G54D66*Y-7250D02*Y-9500D01*
X245675Y-7250D02*Y-9500D01*
Y-7250D02*X246425Y-6500D01*
X247175D01*
X247925Y-7250D01*
Y-9500D01*
X244925Y-6500D02*X245675Y-7250D01*
X250475Y-9500D02*X252725D01*
X249725Y-8750D02*X250475Y-9500D01*
X249725Y-7250D02*Y-8750D01*
Y-7250D02*X250475Y-6500D01*
X251975D01*
X252725Y-7250D01*
X249725Y-8000D02*X252725D01*
Y-7250D02*Y-8000D01*
X257225Y-7250D02*Y-8750D01*
Y-7250D02*X257975Y-6500D01*
X259475D01*
X260225Y-7250D01*
Y-8750D01*
X259475Y-9500D02*X260225Y-8750D01*
X257975Y-9500D02*X259475D01*
X257225Y-8750D02*X257975Y-9500D01*
X262775Y-4250D02*Y-9500D01*
Y-4250D02*X263525Y-3500D01*
X264275D01*
X262025Y-6500D02*X263525D01*
X269225Y-3500D02*Y-8750D01*
X269975Y-9500D01*
X268475Y-5750D02*X269975D01*
X271475Y-3500D02*Y-9500D01*
Y-7250D02*X272225Y-6500D01*
X273725D01*
X274475Y-7250D01*
Y-9500D01*
G54D67*X276275Y-5000D02*Y-5150D01*
G54D66*Y-7250D02*Y-9500D01*
X278525D02*X280775D01*
X281525Y-8750D01*
X280775Y-8000D02*X281525Y-8750D01*
X278525Y-8000D02*X280775D01*
X277775Y-7250D02*X278525Y-8000D01*
X277775Y-7250D02*X278525Y-6500D01*
X280775D01*
X281525Y-7250D01*
X277775Y-8750D02*X278525Y-9500D01*
X286025Y-8750D02*X286775Y-9500D01*
X286025Y-7550D02*Y-8750D01*
Y-7550D02*X287075Y-6500D01*
X287975D01*
X289025Y-7550D01*
Y-8750D01*
X288275Y-9500D02*X289025Y-8750D01*
X286775Y-9500D02*X288275D01*
X286025Y-5450D02*X287075Y-6500D01*
X286025Y-4250D02*Y-5450D01*
Y-4250D02*X286775Y-3500D01*
X288275D01*
X289025Y-4250D01*
Y-5450D01*
X287975Y-6500D02*X289025Y-5450D01*
X290825Y-9500D02*X291575D01*
X293375Y-8750D02*X294125Y-9500D01*
X293375Y-4250D02*Y-8750D01*
Y-4250D02*X294125Y-3500D01*
X295625D01*
X296375Y-4250D01*
Y-8750D01*
X295625Y-9500D02*X296375Y-8750D01*
X294125Y-9500D02*X295625D01*
X293375Y-8000D02*X296375Y-5000D01*
X298175Y-8750D02*X298925Y-9500D01*
X298175Y-4250D02*Y-8750D01*
Y-4250D02*X298925Y-3500D01*
X300425D01*
X301175Y-4250D01*
Y-8750D01*
X300425Y-9500D02*X301175Y-8750D01*
X298925Y-9500D02*X300425D01*
X298175Y-8000D02*X301175Y-5000D01*
X302975Y-8750D02*X303725Y-9500D01*
X302975Y-4250D02*Y-8750D01*
Y-4250D02*X303725Y-3500D01*
X305225D01*
X305975Y-4250D01*
Y-8750D01*
X305225Y-9500D02*X305975Y-8750D01*
X303725Y-9500D02*X305225D01*
X302975Y-8000D02*X305975Y-5000D01*
X307775Y-8750D02*X308525Y-9500D01*
X307775Y-4250D02*Y-8750D01*
Y-4250D02*X308525Y-3500D01*
X310025D01*
X310775Y-4250D01*
Y-8750D01*
X310025Y-9500D02*X310775Y-8750D01*
X308525Y-9500D02*X310025D01*
X307775Y-8000D02*X310775Y-5000D01*
X312575Y-8750D02*X313325Y-9500D01*
X312575Y-4250D02*Y-8750D01*
Y-4250D02*X313325Y-3500D01*
X314825D01*
X315575Y-4250D01*
Y-8750D01*
X314825Y-9500D02*X315575Y-8750D01*
X313325Y-9500D02*X314825D01*
X312575Y-8000D02*X315575Y-5000D01*
X317375Y-8750D02*X318125Y-9500D01*
X317375Y-4250D02*Y-8750D01*
Y-4250D02*X318125Y-3500D01*
X319625D01*
X320375Y-4250D01*
Y-8750D01*
X319625Y-9500D02*X320375Y-8750D01*
X318125Y-9500D02*X319625D01*
X317375Y-8000D02*X320375Y-5000D01*
X325625Y-7250D02*Y-9500D01*
Y-7250D02*X326375Y-6500D01*
X327125D01*
X327875Y-7250D01*
Y-9500D01*
Y-7250D02*X328625Y-6500D01*
X329375D01*
X330125Y-7250D01*
Y-9500D01*
X324875Y-6500D02*X325625Y-7250D01*
G54D67*X331925Y-5000D02*Y-5150D01*
G54D66*Y-7250D02*Y-9500D01*
X333425Y-3500D02*Y-8750D01*
X334175Y-9500D01*
X339125Y-7250D02*Y-9500D01*
Y-7250D02*X339875Y-6500D01*
X341375D01*
X338375D02*X339125Y-7250D01*
X343925Y-9500D02*X346175D01*
X343175Y-8750D02*X343925Y-9500D01*
X343175Y-7250D02*Y-8750D01*
Y-7250D02*X343925Y-6500D01*
X345425D01*
X346175Y-7250D01*
X343175Y-8000D02*X346175D01*
Y-7250D02*Y-8000D01*
X348725Y-6500D02*X350975D01*
X347975Y-7250D02*X348725Y-6500D01*
X347975Y-7250D02*Y-8750D01*
X348725Y-9500D01*
X350975D01*
X353525Y-3500D02*Y-8750D01*
X354275Y-9500D01*
X352775Y-5750D02*X354275D01*
X358025Y-6500D02*X358775Y-7250D01*
X356525Y-6500D02*X358025D01*
X355775Y-7250D02*X356525Y-6500D01*
X355775Y-7250D02*Y-8750D01*
X356525Y-9500D01*
X358775Y-6500D02*Y-8750D01*
X359525Y-9500D01*
X356525D02*X358025D01*
X358775Y-8750D01*
X362075Y-7250D02*Y-9500D01*
Y-7250D02*X362825Y-6500D01*
X363575D01*
X364325Y-7250D01*
Y-9500D01*
X361325Y-6500D02*X362075Y-7250D01*
X368375Y-6500D02*X369125Y-7250D01*
X366875Y-6500D02*X368375D01*
X366125Y-7250D02*X366875Y-6500D01*
X366125Y-7250D02*Y-8750D01*
X366875Y-9500D01*
X368375D01*
X369125Y-8750D01*
X366125Y-11000D02*X366875Y-11750D01*
X368375D01*
X369125Y-11000D01*
Y-6500D02*Y-11000D01*
X370925Y-3500D02*Y-8750D01*
X371675Y-9500D01*
X373925D02*X376175D01*
X373175Y-8750D02*X373925Y-9500D01*
X373175Y-7250D02*Y-8750D01*
Y-7250D02*X373925Y-6500D01*
X375425D01*
X376175Y-7250D01*
X373175Y-8000D02*X376175D01*
Y-7250D02*Y-8000D01*
X380675Y-6500D02*X383675D01*
X388175Y-8750D02*X388925Y-9500D01*
X388175Y-4250D02*Y-8750D01*
Y-4250D02*X388925Y-3500D01*
X390425D01*
X391175Y-4250D01*
Y-8750D01*
X390425Y-9500D02*X391175Y-8750D01*
X388925Y-9500D02*X390425D01*
X388175Y-8000D02*X391175Y-5000D01*
X392975Y-11000D02*X394475Y-9500D01*
X396275Y-8750D02*X397025Y-9500D01*
X396275Y-4250D02*Y-8750D01*
Y-4250D02*X397025Y-3500D01*
X398525D01*
X399275Y-4250D01*
Y-8750D01*
X398525Y-9500D02*X399275Y-8750D01*
X397025Y-9500D02*X398525D01*
X396275Y-8000D02*X399275Y-5000D01*
X404525Y-3500D02*Y-8750D01*
X405275Y-9500D01*
X403775Y-5750D02*X405275D01*
X406775Y-7250D02*Y-8750D01*
Y-7250D02*X407525Y-6500D01*
X409025D01*
X409775Y-7250D01*
Y-8750D01*
X409025Y-9500D02*X409775Y-8750D01*
X407525Y-9500D02*X409025D01*
X406775Y-8750D02*X407525Y-9500D01*
X416525Y-3500D02*X417275Y-4250D01*
X415025Y-3500D02*X416525D01*
X414275Y-4250D02*X415025Y-3500D01*
X414275Y-4250D02*Y-8750D01*
X415025Y-9500D01*
X416525Y-6200D02*X417275Y-6950D01*
X414275Y-6200D02*X416525D01*
X415025Y-9500D02*X416525D01*
X417275Y-8750D01*
Y-6950D02*Y-8750D01*
X419825Y-9500D02*X422825Y-3500D01*
X419075D02*X422825D01*
X424625Y-8750D02*X425375Y-9500D01*
X424625Y-4250D02*Y-8750D01*
Y-4250D02*X425375Y-3500D01*
X426875D01*
X427625Y-4250D01*
Y-8750D01*
X426875Y-9500D02*X427625Y-8750D01*
X425375Y-9500D02*X426875D01*
X424625Y-8000D02*X427625Y-5000D01*
X429425Y-8750D02*X430175Y-9500D01*
X429425Y-4250D02*Y-8750D01*
Y-4250D02*X430175Y-3500D01*
X431675D01*
X432425Y-4250D01*
Y-8750D01*
X431675Y-9500D02*X432425Y-8750D01*
X430175Y-9500D02*X431675D01*
X429425Y-8000D02*X432425Y-5000D01*
X434225Y-9500D02*X434975D01*
X436775Y-8750D02*X437525Y-9500D01*
X436775Y-4250D02*Y-8750D01*
Y-4250D02*X437525Y-3500D01*
X439025D01*
X439775Y-4250D01*
Y-8750D01*
X439025Y-9500D02*X439775Y-8750D01*
X437525Y-9500D02*X439025D01*
X436775Y-8000D02*X439775Y-5000D01*
X441575Y-8750D02*X442325Y-9500D01*
X441575Y-4250D02*Y-8750D01*
Y-4250D02*X442325Y-3500D01*
X443825D01*
X444575Y-4250D01*
Y-8750D01*
X443825Y-9500D02*X444575Y-8750D01*
X442325Y-9500D02*X443825D01*
X441575Y-8000D02*X444575Y-5000D01*
X446375Y-8750D02*X447125Y-9500D01*
X446375Y-4250D02*Y-8750D01*
Y-4250D02*X447125Y-3500D01*
X448625D01*
X449375Y-4250D01*
Y-8750D01*
X448625Y-9500D02*X449375Y-8750D01*
X447125Y-9500D02*X448625D01*
X446375Y-8000D02*X449375Y-5000D01*
X451175Y-8750D02*X451925Y-9500D01*
X451175Y-4250D02*Y-8750D01*
Y-4250D02*X451925Y-3500D01*
X453425D01*
X454175Y-4250D01*
Y-8750D01*
X453425Y-9500D02*X454175Y-8750D01*
X451925Y-9500D02*X453425D01*
X451175Y-8000D02*X454175Y-5000D01*
X455975Y-8750D02*X456725Y-9500D01*
X455975Y-4250D02*Y-8750D01*
Y-4250D02*X456725Y-3500D01*
X458225D01*
X458975Y-4250D01*
Y-8750D01*
X458225Y-9500D02*X458975Y-8750D01*
X456725Y-9500D02*X458225D01*
X455975Y-8000D02*X458975Y-5000D01*
X460775Y-8750D02*X461525Y-9500D01*
X460775Y-4250D02*Y-8750D01*
Y-4250D02*X461525Y-3500D01*
X463025D01*
X463775Y-4250D01*
Y-8750D01*
X463025Y-9500D02*X463775Y-8750D01*
X461525Y-9500D02*X463025D01*
X460775Y-8000D02*X463775Y-5000D01*
X465575Y-11000D02*X467075Y-9500D01*
X468875Y-4250D02*X469625Y-3500D01*
X471125D01*
X471875Y-4250D01*
X471125Y-9500D02*X471875Y-8750D01*
X469625Y-9500D02*X471125D01*
X468875Y-8750D02*X469625Y-9500D01*
Y-6200D02*X471125D01*
X471875Y-4250D02*Y-5450D01*
Y-6950D02*Y-8750D01*
Y-6950D02*X471125Y-6200D01*
X471875Y-5450D02*X471125Y-6200D01*
X473675Y-4700D02*X474875Y-3500D01*
Y-9500D01*
X473675D02*X475925D01*
X477725Y-8750D02*X478475Y-9500D01*
X477725Y-4250D02*Y-8750D01*
Y-4250D02*X478475Y-3500D01*
X479975D01*
X480725Y-4250D01*
Y-8750D01*
X479975Y-9500D02*X480725Y-8750D01*
X478475Y-9500D02*X479975D01*
X477725Y-8000D02*X480725Y-5000D01*
X482525Y-8750D02*X483275Y-9500D01*
X482525Y-4250D02*Y-8750D01*
Y-4250D02*X483275Y-3500D01*
X484775D01*
X485525Y-4250D01*
Y-8750D01*
X484775Y-9500D02*X485525Y-8750D01*
X483275Y-9500D02*X484775D01*
X482525Y-8000D02*X485525Y-5000D01*
X487325Y-9500D02*X488075D01*
X489875Y-8750D02*X490625Y-9500D01*
X489875Y-4250D02*Y-8750D01*
Y-4250D02*X490625Y-3500D01*
X492125D01*
X492875Y-4250D01*
Y-8750D01*
X492125Y-9500D02*X492875Y-8750D01*
X490625Y-9500D02*X492125D01*
X489875Y-8000D02*X492875Y-5000D01*
X494675Y-8750D02*X495425Y-9500D01*
X494675Y-4250D02*Y-8750D01*
Y-4250D02*X495425Y-3500D01*
X496925D01*
X497675Y-4250D01*
Y-8750D01*
X496925Y-9500D02*X497675Y-8750D01*
X495425Y-9500D02*X496925D01*
X494675Y-8000D02*X497675Y-5000D01*
X499475Y-8750D02*X500225Y-9500D01*
X499475Y-4250D02*Y-8750D01*
Y-4250D02*X500225Y-3500D01*
X501725D01*
X502475Y-4250D01*
Y-8750D01*
X501725Y-9500D02*X502475Y-8750D01*
X500225Y-9500D02*X501725D01*
X499475Y-8000D02*X502475Y-5000D01*
X504275Y-8750D02*X505025Y-9500D01*
X504275Y-4250D02*Y-8750D01*
Y-4250D02*X505025Y-3500D01*
X506525D01*
X507275Y-4250D01*
Y-8750D01*
X506525Y-9500D02*X507275Y-8750D01*
X505025Y-9500D02*X506525D01*
X504275Y-8000D02*X507275Y-5000D01*
X509075Y-8750D02*X509825Y-9500D01*
X509075Y-4250D02*Y-8750D01*
Y-4250D02*X509825Y-3500D01*
X511325D01*
X512075Y-4250D01*
Y-8750D01*
X511325Y-9500D02*X512075Y-8750D01*
X509825Y-9500D02*X511325D01*
X509075Y-8000D02*X512075Y-5000D01*
X513875Y-8750D02*X514625Y-9500D01*
X513875Y-4250D02*Y-8750D01*
Y-4250D02*X514625Y-3500D01*
X516125D01*
X516875Y-4250D01*
Y-8750D01*
X516125Y-9500D02*X516875Y-8750D01*
X514625Y-9500D02*X516125D01*
X513875Y-8000D02*X516875Y-5000D01*
X522125Y-7250D02*Y-9500D01*
Y-7250D02*X522875Y-6500D01*
X523625D01*
X524375Y-7250D01*
Y-9500D01*
Y-7250D02*X525125Y-6500D01*
X525875D01*
X526625Y-7250D01*
Y-9500D01*
X521375Y-6500D02*X522125Y-7250D01*
G54D67*X528425Y-5000D02*Y-5150D01*
G54D66*Y-7250D02*Y-9500D01*
X529925Y-3500D02*Y-8750D01*
X530675Y-9500D01*
X532925D02*X535175D01*
X535925Y-8750D01*
X535175Y-8000D02*X535925Y-8750D01*
X532925Y-8000D02*X535175D01*
X532175Y-7250D02*X532925Y-8000D01*
X532175Y-7250D02*X532925Y-6500D01*
X535175D01*
X535925Y-7250D01*
X532175Y-8750D02*X532925Y-9500D01*
X200750Y338500D02*Y332500D01*
X202700Y338500D02*X203750Y337450D01*
Y333550D01*
X202700Y332500D02*X203750Y333550D01*
X200000Y332500D02*X202700D01*
X200000Y338500D02*X202700D01*
X207800Y335500D02*X208550Y334750D01*
X206300Y335500D02*X207800D01*
X205550Y334750D02*X206300Y335500D01*
X205550Y334750D02*Y333250D01*
X206300Y332500D01*
X208550Y335500D02*Y333250D01*
X209300Y332500D01*
X206300D02*X207800D01*
X208550Y333250D01*
X211850Y338500D02*Y333250D01*
X212600Y332500D01*
X211100Y336250D02*X212600D01*
X214850Y332500D02*X217100D01*
X214100Y333250D02*X214850Y332500D01*
X214100Y334750D02*Y333250D01*
Y334750D02*X214850Y335500D01*
X216350D01*
X217100Y334750D01*
X214100Y334000D02*X217100D01*
Y334750D02*Y334000D01*
X218900Y336250D02*X219650D01*
X218900Y334750D02*X219650D01*
X227150Y338500D02*X227900Y337750D01*
X224900Y338500D02*X227150D01*
X224150Y337750D02*X224900Y338500D01*
X224150Y337750D02*Y336250D01*
X224900Y335500D01*
X227150D01*
X227900Y334750D01*
Y333250D01*
X227150Y332500D02*X227900Y333250D01*
X224900Y332500D02*X227150D01*
X224150Y333250D02*X224900Y332500D01*
X231950Y335500D02*X232700Y334750D01*
X230450Y335500D02*X231950D01*
X229700Y334750D02*X230450Y335500D01*
X229700Y334750D02*Y333250D01*
X230450Y332500D01*
X232700Y335500D02*Y333250D01*
X233450Y332500D01*
X230450D02*X231950D01*
X232700Y333250D01*
X236000Y338500D02*Y333250D01*
X236750Y332500D01*
X235250Y336250D02*X236750D01*
X240950Y333250D02*X241700Y332500D01*
X240950Y337750D02*Y333250D01*
Y337750D02*X241700Y338500D01*
X243200D01*
X243950Y337750D01*
Y333250D01*
X243200Y332500D02*X243950Y333250D01*
X241700Y332500D02*X243200D01*
X240950Y334000D02*X243950Y337000D01*
X248000Y338500D02*X248750Y337750D01*
X246500Y338500D02*X248000D01*
X245750Y337750D02*X246500Y338500D01*
X245750Y337750D02*Y333250D01*
X246500Y332500D01*
X248000Y335800D02*X248750Y335050D01*
X245750Y335800D02*X248000D01*
X246500Y332500D02*X248000D01*
X248750Y333250D01*
Y335050D02*Y333250D01*
X253250Y338500D02*Y332500D01*
Y338500D02*X256250D01*
X253250Y335800D02*X255500D01*
X258800Y332500D02*X261050D01*
X258050Y333250D02*X258800Y332500D01*
X258050Y334750D02*Y333250D01*
Y334750D02*X258800Y335500D01*
X260300D01*
X261050Y334750D01*
X258050Y334000D02*X261050D01*
Y334750D02*Y334000D01*
X262850Y338500D02*Y332500D01*
Y333250D02*X263600Y332500D01*
X265100D01*
X265850Y333250D01*
Y334750D02*Y333250D01*
X265100Y335500D02*X265850Y334750D01*
X263600Y335500D02*X265100D01*
X262850Y334750D02*X263600Y335500D01*
X270350Y337750D02*X271100Y338500D01*
X273350D01*
X274100Y337750D01*
Y336250D01*
X270350Y332500D02*X274100Y336250D01*
X270350Y332500D02*X274100D01*
X275900Y333250D02*X276650Y332500D01*
X275900Y337750D02*Y333250D01*
Y337750D02*X276650Y338500D01*
X278150D01*
X278900Y337750D01*
Y333250D01*
X278150Y332500D02*X278900Y333250D01*
X276650Y332500D02*X278150D01*
X275900Y334000D02*X278900Y337000D01*
X280700Y337300D02*X281900Y338500D01*
Y332500D01*
X280700D02*X282950D01*
X287000Y338500D02*X287750Y337750D01*
X285500Y338500D02*X287000D01*
X284750Y337750D02*X285500Y338500D01*
X284750Y337750D02*Y333250D01*
X285500Y332500D01*
X287000Y335800D02*X287750Y335050D01*
X284750Y335800D02*X287000D01*
X285500Y332500D02*X287000D01*
X287750Y333250D01*
Y335050D02*Y333250D01*
X292250D02*X293000Y332500D01*
X292250Y337750D02*Y333250D01*
Y337750D02*X293000Y338500D01*
X294500D01*
X295250Y337750D01*
Y333250D01*
X294500Y332500D02*X295250Y333250D01*
X293000Y332500D02*X294500D01*
X292250Y334000D02*X295250Y337000D01*
X297050Y338500D02*X300050D01*
X297050D02*Y335500D01*
X297800Y336250D01*
X299300D01*
X300050Y335500D01*
Y333250D01*
X299300Y332500D02*X300050Y333250D01*
X297800Y332500D02*X299300D01*
X297050Y333250D02*X297800Y332500D01*
X301850Y336250D02*X302600D01*
X301850Y334750D02*X302600D01*
X304400Y337750D02*X305150Y338500D01*
X307400D01*
X308150Y337750D01*
Y336250D01*
X304400Y332500D02*X308150Y336250D01*
X304400Y332500D02*X308150D01*
X309950Y333250D02*X310700Y332500D01*
X309950Y334450D02*Y333250D01*
Y334450D02*X311000Y335500D01*
X311900D01*
X312950Y334450D01*
Y333250D01*
X312200Y332500D02*X312950Y333250D01*
X310700Y332500D02*X312200D01*
X309950Y336550D02*X311000Y335500D01*
X309950Y337750D02*Y336550D01*
Y337750D02*X310700Y338500D01*
X312200D01*
X312950Y337750D01*
Y336550D01*
X311900Y335500D02*X312950Y336550D01*
X314750Y336250D02*X315500D01*
X314750Y334750D02*X315500D01*
X317300Y337750D02*X318050Y338500D01*
X319550D01*
X320300Y337750D01*
X319550Y332500D02*X320300Y333250D01*
X318050Y332500D02*X319550D01*
X317300Y333250D02*X318050Y332500D01*
Y335800D02*X319550D01*
X320300Y337750D02*Y336550D01*
Y335050D02*Y333250D01*
Y335050D02*X319550Y335800D01*
X320300Y336550D02*X319550Y335800D01*
X322100Y333250D02*X322850Y332500D01*
X322100Y334450D02*Y333250D01*
Y334450D02*X323150Y335500D01*
X324050D01*
X325100Y334450D01*
Y333250D01*
X324350Y332500D02*X325100Y333250D01*
X322850Y332500D02*X324350D01*
X322100Y336550D02*X323150Y335500D01*
X322100Y337750D02*Y336550D01*
Y337750D02*X322850Y338500D01*
X324350D01*
X325100Y337750D01*
Y336550D01*
X324050Y335500D02*X325100Y336550D01*
X330350Y338500D02*Y332500D01*
X329600Y338500D02*X332600D01*
X333350Y337750D01*
Y336250D01*
X332600Y335500D02*X333350Y336250D01*
X330350Y335500D02*X332600D01*
X335150Y338500D02*Y332500D01*
Y338500D02*X337400Y335500D01*
X339650Y338500D01*
Y332500D01*
X347150Y338500D02*X347900Y337750D01*
X344900Y338500D02*X347150D01*
X344150Y337750D02*X344900Y338500D01*
X344150Y337750D02*Y333250D01*
X344900Y332500D01*
X347150D01*
X347900Y333250D01*
Y334750D02*Y333250D01*
X347150Y335500D02*X347900Y334750D01*
X345650Y335500D02*X347150D01*
X349700Y338500D02*Y332500D01*
Y338500D02*X351950Y335500D01*
X354200Y338500D01*
Y332500D01*
X356000Y338500D02*X359000D01*
X357500D02*Y332500D01*
X363500Y338500D02*Y333250D01*
X364250Y332500D01*
X365750D01*
X366500Y333250D01*
Y338500D02*Y333250D01*
X368300Y338500D02*X371300D01*
X369800D02*Y332500D01*
X374150D02*X376100D01*
X373100Y333550D02*X374150Y332500D01*
X373100Y337450D02*Y333550D01*
Y337450D02*X374150Y338500D01*
X376100D01*
X200000Y352000D02*Y347500D01*
Y352000D02*X201050Y353500D01*
X202700D01*
X203750Y352000D01*
Y347500D01*
X200000Y350500D02*X203750D01*
X205550D02*Y348250D01*
X206300Y347500D01*
X207800D01*
X208550Y348250D01*
Y350500D02*Y348250D01*
X211100Y353500D02*Y348250D01*
X211850Y347500D01*
X210350Y351250D02*X211850D01*
X213350Y353500D02*Y347500D01*
Y349750D02*X214100Y350500D01*
X215600D01*
X216350Y349750D01*
Y347500D01*
X218150Y349750D02*Y348250D01*
Y349750D02*X218900Y350500D01*
X220400D01*
X221150Y349750D01*
Y348250D01*
X220400Y347500D02*X221150Y348250D01*
X218900Y347500D02*X220400D01*
X218150Y348250D02*X218900Y347500D01*
X223700Y349750D02*Y347500D01*
Y349750D02*X224450Y350500D01*
X225950D01*
X222950D02*X223700Y349750D01*
X227750Y351250D02*X228500D01*
X227750Y349750D02*X228500D01*
X200000Y368500D02*X203000D01*
X201500D02*Y362500D01*
G54D67*X204800Y367000D02*Y366850D01*
G54D66*Y364750D02*Y362500D01*
X207050Y368500D02*Y363250D01*
X207800Y362500D01*
X206300Y366250D02*X207800D01*
X209300Y368500D02*Y363250D01*
X210050Y362500D01*
X212300D02*X214550D01*
X211550Y363250D02*X212300Y362500D01*
X211550Y364750D02*Y363250D01*
Y364750D02*X212300Y365500D01*
X213800D01*
X214550Y364750D01*
X211550Y364000D02*X214550D01*
Y364750D02*Y364000D01*
X216350Y366250D02*X217100D01*
X216350Y364750D02*X217100D01*
X222350Y365500D02*X224600D01*
X221600Y364750D02*X222350Y365500D01*
X221600Y364750D02*Y363250D01*
X222350Y362500D01*
X224600D01*
X226400Y364750D02*Y363250D01*
Y364750D02*X227150Y365500D01*
X228650D01*
X229400Y364750D01*
Y363250D01*
X228650Y362500D02*X229400Y363250D01*
X227150Y362500D02*X228650D01*
X226400Y363250D02*X227150Y362500D01*
X231950Y364750D02*Y362500D01*
Y364750D02*X232700Y365500D01*
X233450D01*
X234200Y364750D01*
Y362500D01*
X231200Y365500D02*X231950Y364750D01*
X236750Y368500D02*Y363250D01*
X237500Y362500D01*
X236000Y366250D02*X237500D01*
X239750Y364750D02*Y362500D01*
Y364750D02*X240500Y365500D01*
X242000D01*
X239000D02*X239750Y364750D01*
X243800D02*Y363250D01*
Y364750D02*X244550Y365500D01*
X246050D01*
X246800Y364750D01*
Y363250D01*
X246050Y362500D02*X246800Y363250D01*
X244550Y362500D02*X246050D01*
X243800Y363250D02*X244550Y362500D01*
X248600Y368500D02*Y363250D01*
X249350Y362500D01*
X250850Y368500D02*Y363250D01*
X251600Y362500D01*
X253850D02*X256100D01*
X253100Y363250D02*X253850Y362500D01*
X253100Y364750D02*Y363250D01*
Y364750D02*X253850Y365500D01*
X255350D01*
X256100Y364750D01*
X253100Y364000D02*X256100D01*
Y364750D02*Y364000D01*
X258650Y364750D02*Y362500D01*
Y364750D02*X259400Y365500D01*
X260900D01*
X257900D02*X258650Y364750D01*
X265400Y365500D02*X268400D01*
X272900Y368500D02*Y362500D01*
Y368500D02*X275900D01*
X272900Y365800D02*X275150D01*
X279950Y365500D02*X280700Y364750D01*
X278450Y365500D02*X279950D01*
X277700Y364750D02*X278450Y365500D01*
X277700Y364750D02*Y363250D01*
X278450Y362500D01*
X280700Y365500D02*Y363250D01*
X281450Y362500D01*
X278450D02*X279950D01*
X280700Y363250D01*
X283250Y368500D02*Y362500D01*
Y363250D02*X284000Y362500D01*
X285500D01*
X286250Y363250D01*
Y364750D02*Y363250D01*
X285500Y365500D02*X286250Y364750D01*
X284000Y365500D02*X285500D01*
X283250Y364750D02*X284000Y365500D01*
X288800Y364750D02*Y362500D01*
Y364750D02*X289550Y365500D01*
X291050D01*
X288050D02*X288800Y364750D01*
G54D67*X292850Y367000D02*Y366850D01*
G54D66*Y364750D02*Y362500D01*
X295100Y365500D02*X297350D01*
X294350Y364750D02*X295100Y365500D01*
X294350Y364750D02*Y363250D01*
X295100Y362500D01*
X297350D01*
X301400Y365500D02*X302150Y364750D01*
X299900Y365500D02*X301400D01*
X299150Y364750D02*X299900Y365500D01*
X299150Y364750D02*Y363250D01*
X299900Y362500D01*
X302150Y365500D02*Y363250D01*
X302900Y362500D01*
X299900D02*X301400D01*
X302150Y363250D01*
X305450Y368500D02*Y363250D01*
X306200Y362500D01*
X304700Y366250D02*X306200D01*
G54D67*X307700Y367000D02*Y366850D01*
G54D66*Y364750D02*Y362500D01*
X309200Y364750D02*Y363250D01*
Y364750D02*X309950Y365500D01*
X311450D01*
X312200Y364750D01*
Y363250D01*
X311450Y362500D02*X312200Y363250D01*
X309950Y362500D02*X311450D01*
X309200Y363250D02*X309950Y362500D01*
X314750Y364750D02*Y362500D01*
Y364750D02*X315500Y365500D01*
X316250D01*
X317000Y364750D01*
Y362500D01*
X314000Y365500D02*X314750Y364750D01*
X322250Y368500D02*Y362500D01*
X324200Y368500D02*X325250Y367450D01*
Y363550D01*
X324200Y362500D02*X325250Y363550D01*
X321500Y362500D02*X324200D01*
X321500Y368500D02*X324200D01*
X327800Y364750D02*Y362500D01*
Y364750D02*X328550Y365500D01*
X330050D01*
X327050D02*X327800Y364750D01*
X334100Y365500D02*X334850Y364750D01*
X332600Y365500D02*X334100D01*
X331850Y364750D02*X332600Y365500D01*
X331850Y364750D02*Y363250D01*
X332600Y362500D01*
X334850Y365500D02*Y363250D01*
X335600Y362500D01*
X332600D02*X334100D01*
X334850Y363250D01*
X337400Y365500D02*Y363250D01*
X338150Y362500D01*
X338900D01*
X339650Y363250D01*
Y365500D02*Y363250D01*
X340400Y362500D01*
X341150D01*
X341900Y363250D01*
Y365500D02*Y363250D01*
G54D67*X343700Y367000D02*Y366850D01*
G54D66*Y364750D02*Y362500D01*
X345950Y364750D02*Y362500D01*
Y364750D02*X346700Y365500D01*
X347450D01*
X348200Y364750D01*
Y362500D01*
X345200Y365500D02*X345950Y364750D01*
X352250Y365500D02*X353000Y364750D01*
X350750Y365500D02*X352250D01*
X350000Y364750D02*X350750Y365500D01*
X350000Y364750D02*Y363250D01*
X350750Y362500D01*
X352250D01*
X353000Y363250D01*
X350000Y361000D02*X350750Y360250D01*
X352250D01*
X353000Y361000D01*
Y365500D02*Y361000D01*
M02*
