M48
INCH
T40C0.118
T39C0.039
T38C0.031
%
T38
X002000Y022000
X002000Y018000
X002000Y017000
X002000Y013000
X003000Y021000
X003000Y020000
X003000Y019000
X003000Y018000
X003000Y016000
X003000Y015000
X003000Y014000
X003000Y013000
X004000Y009000
X004000Y008000
X004000Y007000
X004000Y006000
X006000Y021000
X006000Y020000
X006000Y019000
X006000Y018000
X006000Y016000
X006000Y015000
X006000Y014000
X006000Y013000
X006000Y005000
X006000Y004000
X007000Y020000
X007000Y018000
X007000Y015000
X007000Y013000
X007500Y024000
X007750Y011000
X007750Y010000
X007750Y009000
X007750Y008000
X007750Y007000
X007750Y006000
X007750Y005000
X007750Y004000
X008000Y025000
X008500Y024000
X009000Y025000
X009500Y024000
X010000Y025000
X010000Y020000
X010000Y013000
X010500Y024000
X011000Y025000
X011000Y016000
X012000Y020000
X012000Y016000
X012000Y013000
X012750Y011000
X012750Y010000
X012750Y009000
X012750Y008000
X012750Y007000
X012750Y006000
X012750Y005000
X012750Y004000
X013750Y009000
X013750Y005000
T39
X015000Y018000
X016000Y019000
X016000Y017000
T40
X002000Y026000
X002000Y002000
X016000Y026000
X016000Y002000
M30
