M48
INCH
T01C0.0217
T02C0.0276
T03C0.0354
T04C0.0433
T05C0.0669
T06C0.126
%
T01
X+006937Y+025687
X+006937Y+025096
X+006937Y+024506
X+007528Y+024801
X+007528Y+025392
X+007528Y+025982
X+007528Y+026573
X+007528Y+027163
X+008118Y+026868
X+008118Y+026278
X+008118Y+025687
X+008118Y+025096
X+008118Y+024506
X+008118Y+023915
X+007528Y+024211
X+006937Y+026278
X+006937Y+026868
X+006937Y+027459
X+008118Y+027459
T02
X+019437Y+029437
X+018687Y+028437
X+017937Y+027437
X+017187Y+026437
X+016437Y+025437
X+015461Y+024437
X+014711Y+023437
X+013961Y+022437
X+013211Y+021437
X+012461Y+020437
X+014711Y+018437
X+015461Y+019437
X+016437Y+020437
X+017187Y+021437
X+017937Y+022437
X+018687Y+023437
X+019437Y+024437
X+019437Y+019437
X+018687Y+018437
X+017937Y+017437
X+017187Y+016437
X+016437Y+015437
X+015461Y+014437
X+014711Y+013437
X+013961Y+012437
X+013211Y+011437
X+012461Y+010437
X+016437Y+010437
X+017187Y+011437
X+017937Y+012437
X+018687Y+013437
X+019437Y+014437
X+013961Y+017437
X+013211Y+016437
X+012461Y+015437
X+012461Y+025437
X+013211Y+026437
X+013961Y+027437
X+014711Y+028437
X+015461Y+029437
T03
X+022437Y+010437
X+022437Y+011437
X+023437Y+011437
X+023437Y+010437
X+023437Y+012437
X+023437Y+013437
X+023437Y+014437
X+023437Y+015437
X+023437Y+016437
X+023437Y+017437
X+023437Y+018437
X+023437Y+019437
X+022437Y+019437
X+022437Y+018437
X+022437Y+017437
X+022437Y+016437
X+022437Y+015437
X+022437Y+014437
X+022437Y+013437
X+022437Y+012437
X+022437Y+020437
X+022437Y+021437
X+022437Y+022437
X+023437Y+022437
X+023437Y+021437
X+023437Y+020437
X+023437Y+023437
X+023437Y+024437
X+023437Y+025437
X+023437Y+026437
X+023437Y+027437
X+022437Y+027437
X+022437Y+026437
X+022437Y+025437
X+022437Y+024437
X+022437Y+023437
X+022437Y+028437
X+022437Y+029437
X+023437Y+029437
X+023437Y+028437
T04
X+004850Y+028876
X+004850Y+022695
T05
X+005559Y+025785
T06
X+023437Y+033937
X+005437Y+033937
X+005437Y+005437
X+023437Y+005437
T00
M30
