G04 DipTrace 2.4.0.1*
%INkeyboard_Bottom.gbr*%
%MOIN*%
%ADD13C,0.03*%
%ADD14C,0.02*%
%ADD15C,0.025*%
%ADD17C,0.0433*%
%ADD18C,0.0787*%
%ADD19C,0.0748*%
%ADD20R,0.0748X0.0748*%
%ADD21R,0.0709X0.0709*%
%ADD22C,0.0709*%
%FSLAX44Y44*%
G04*
G70*
G90*
G75*
G01*
%LNBottom*%
%LPD*%
X15461Y29437D2*
D13*
Y24437D1*
Y19437D1*
Y14437D1*
X8118Y26278D2*
X8778D1*
X11937Y29437D1*
X15461D1*
X14711Y28437D2*
Y23437D1*
Y18437D1*
Y13437D1*
X8118Y25687D2*
X9187D1*
X11937Y28437D1*
X14711D1*
X13961Y27437D2*
X11937D1*
X9687Y25187D1*
X8209D1*
X8118Y25096D1*
X13961Y27437D2*
Y22437D1*
Y17437D1*
Y12437D1*
X13211Y26437D2*
X11937D1*
X9937Y24437D1*
X8187D1*
X8118Y24506D1*
X13211Y26437D2*
Y21437D1*
Y16437D1*
Y11437D1*
X12461Y25437D2*
X11937D1*
X10437Y23937D1*
X8140D1*
X8118Y23915D1*
X12461Y25437D2*
Y20437D1*
Y15437D1*
Y10437D1*
X7528Y25982D2*
D14*
Y25392D1*
Y24801D1*
Y24211D1*
Y25982D2*
Y26573D1*
Y27163D1*
Y28096D1*
X6937Y28687D1*
X5039D1*
X4850Y28876D1*
X19437Y19437D2*
D13*
X22437D1*
Y18437D2*
X18687D1*
X17937Y17437D2*
X22437D1*
Y16437D2*
X17187D1*
X16437Y15437D2*
X22437D1*
Y14437D2*
X19437D1*
X18687Y13437D2*
X22437D1*
Y12437D2*
X17937D1*
X17187Y11437D2*
X22437D1*
X19437Y29437D2*
X22437D1*
Y28437D2*
X18687D1*
X17937Y27437D2*
X22437D1*
Y26437D2*
X17187D1*
X16437Y25437D2*
X22437D1*
Y24437D2*
X19437D1*
X18687Y23437D2*
X22437D1*
Y22437D2*
X17937D1*
X17187Y21437D2*
X22437D1*
Y20437D2*
X16437D1*
X22437Y10437D2*
X16437D1*
X23437Y29437D2*
D14*
Y28437D1*
Y27437D1*
Y26437D1*
Y25437D1*
X24187Y24687D1*
Y20687D1*
X25187Y19687D1*
Y9187D1*
X23437Y7437D1*
X11687D1*
X9437Y9687D1*
Y18687D1*
X5687Y22437D1*
Y24937D1*
X6437Y25687D1*
Y25937D1*
X6778Y26278D1*
X6937D1*
X23437Y24437D2*
Y23437D1*
Y22437D1*
Y21437D1*
Y20437D1*
X6937Y25687D2*
X6062Y24812D1*
Y22812D1*
X9937Y18937D1*
Y9937D1*
X11937Y7937D1*
X23187D1*
X24687Y9437D1*
Y19187D1*
X23437Y20437D1*
Y19437D2*
Y18437D1*
Y17437D1*
Y16437D1*
Y15437D1*
X6937Y25096D2*
X6846D1*
X6437Y24687D1*
Y23187D1*
X10437Y19187D1*
Y10187D1*
X12187Y8437D1*
X22937D1*
X24187Y9687D1*
Y14687D1*
X23437Y15437D1*
Y14437D2*
Y13437D1*
Y12437D1*
Y10437D2*
Y11437D1*
Y12437D1*
Y10437D2*
Y9687D1*
X22687Y8937D1*
X12437D1*
X10937Y10437D1*
Y19437D1*
X6937Y23437D1*
Y24506D1*
X4087Y35063D2*
D15*
X25789D1*
X4087Y34815D2*
X4808D1*
X6066D2*
X22808D1*
X24066D2*
X25789D1*
X4087Y34566D2*
X4555D1*
X6319D2*
X22555D1*
X24319D2*
X25789D1*
X4087Y34317D2*
X4418D1*
X6456D2*
X22418D1*
X24456D2*
X25789D1*
X4087Y34069D2*
X4355D1*
X6519D2*
X22355D1*
X24519D2*
X25789D1*
X4087Y33820D2*
X4355D1*
X6519D2*
X22355D1*
X24519D2*
X25789D1*
X4087Y33571D2*
X4414D1*
X6460D2*
X22414D1*
X24460D2*
X25789D1*
X4087Y33323D2*
X4543D1*
X6331D2*
X22543D1*
X24331D2*
X25789D1*
X4087Y33074D2*
X4789D1*
X6085D2*
X22789D1*
X24085D2*
X25789D1*
X4087Y32825D2*
X25789D1*
X4087Y32576D2*
X25789D1*
X4087Y32328D2*
X25789D1*
X4087Y32079D2*
X25789D1*
X4087Y31830D2*
X25789D1*
X4087Y31582D2*
X25789D1*
X4087Y31333D2*
X25789D1*
X4087Y31084D2*
X25789D1*
X4087Y30836D2*
X25789D1*
X4087Y30587D2*
X25789D1*
X4087Y30338D2*
X25789D1*
X4087Y30090D2*
X14992D1*
X15929D2*
X18621D1*
X20253D2*
X21644D1*
X23870D2*
X25789D1*
X4087Y29841D2*
X11488D1*
X16163D2*
X18621D1*
X24116D2*
X25789D1*
X4087Y29592D2*
X11238D1*
X16261D2*
X18621D1*
X24214D2*
X25789D1*
X4087Y29344D2*
X10992D1*
X16269D2*
X18621D1*
X24226D2*
X25789D1*
X4087Y29095D2*
X10742D1*
X16198D2*
X17871D1*
X24151D2*
X25789D1*
X4087Y28846D2*
X10492D1*
X16069D2*
X17871D1*
X24112D2*
X25789D1*
X4087Y28597D2*
X10246D1*
X16069D2*
X17871D1*
X24214D2*
X25789D1*
X4087Y28349D2*
X9996D1*
X16069D2*
X17871D1*
X24226D2*
X25789D1*
X4087Y28100D2*
X6797D1*
X7076D2*
X7980D1*
X8257D2*
X9746D1*
X16069D2*
X17121D1*
X24155D2*
X25789D1*
X4087Y27851D2*
X6391D1*
X7483D2*
X7573D1*
X8663D2*
X9500D1*
X16069D2*
X17121D1*
X24108D2*
X25789D1*
X4087Y27603D2*
X6277D1*
X8776D2*
X9250D1*
X16069D2*
X17121D1*
X24214D2*
X25789D1*
X4087Y27354D2*
X6269D1*
X8784D2*
X9004D1*
X16069D2*
X17121D1*
X24226D2*
X25789D1*
X4087Y27105D2*
X6305D1*
X16069D2*
X16371D1*
X24155D2*
X25789D1*
X4087Y26857D2*
X6262D1*
X16069D2*
X16371D1*
X24108D2*
X25789D1*
X4087Y26608D2*
X6316D1*
X16069D2*
X16371D1*
X24214D2*
X25789D1*
X4087Y26359D2*
X5019D1*
X16069D2*
X16371D1*
X24226D2*
X25789D1*
X4087Y26111D2*
X4836D1*
X24159D2*
X25789D1*
X4087Y25862D2*
X4769D1*
X24105D2*
X25789D1*
X4087Y25613D2*
X4785D1*
X24210D2*
X25789D1*
X4087Y25365D2*
X4891D1*
X24292D2*
X25789D1*
X4087Y25116D2*
X5156D1*
X24538D2*
X25789D1*
X4087Y24867D2*
X5129D1*
X24714D2*
X25789D1*
X4087Y24618D2*
X5129D1*
X16253D2*
X18621D1*
X24745D2*
X25789D1*
X4087Y24370D2*
X5129D1*
X11722D2*
X11848D1*
X16273D2*
X18621D1*
X24745D2*
X25789D1*
X4087Y24121D2*
X5129D1*
X11472D2*
X11851D1*
X16210D2*
X17871D1*
X24745D2*
X25789D1*
X4087Y23872D2*
X5129D1*
X11226D2*
X11851D1*
X16069D2*
X17871D1*
X24745D2*
X25789D1*
X4087Y23624D2*
X5129D1*
X10976D2*
X11851D1*
X16069D2*
X17871D1*
X24745D2*
X25789D1*
X4087Y23375D2*
X5129D1*
X10624D2*
X11851D1*
X16069D2*
X17871D1*
X24745D2*
X25789D1*
X4087Y23126D2*
X5129D1*
X8030D2*
X11851D1*
X16069D2*
X17121D1*
X24745D2*
X25789D1*
X4087Y22878D2*
X5129D1*
X8276D2*
X11851D1*
X16069D2*
X17121D1*
X24745D2*
X25789D1*
X4087Y22629D2*
X5129D1*
X8526D2*
X11851D1*
X16069D2*
X17121D1*
X24745D2*
X25789D1*
X4087Y22380D2*
X5129D1*
X8776D2*
X11851D1*
X16069D2*
X17121D1*
X24745D2*
X25789D1*
X4087Y22132D2*
X5223D1*
X9023D2*
X11851D1*
X16069D2*
X16371D1*
X24745D2*
X25789D1*
X4087Y21883D2*
X5461D1*
X9273D2*
X11851D1*
X16069D2*
X16371D1*
X24745D2*
X25789D1*
X4087Y21634D2*
X5707D1*
X9523D2*
X11851D1*
X16069D2*
X16371D1*
X24745D2*
X25789D1*
X4087Y21386D2*
X5957D1*
X9769D2*
X11851D1*
X16069D2*
X16371D1*
X24745D2*
X25789D1*
X4087Y21137D2*
X6207D1*
X10019D2*
X11851D1*
X24745D2*
X25789D1*
X4087Y20888D2*
X6453D1*
X10269D2*
X11789D1*
X24769D2*
X25789D1*
X4087Y20639D2*
X6703D1*
X10515D2*
X11672D1*
X25015D2*
X25789D1*
X4087Y20391D2*
X6953D1*
X10765D2*
X11648D1*
X25265D2*
X25789D1*
X4087Y20142D2*
X7199D1*
X11015D2*
X11703D1*
X25515D2*
X25789D1*
X4087Y19893D2*
X7449D1*
X11261D2*
X11851D1*
X25706D2*
X25789D1*
X4087Y19645D2*
X7699D1*
X11456D2*
X11851D1*
X16245D2*
X18621D1*
X4087Y19396D2*
X7945D1*
X11495D2*
X11851D1*
X16273D2*
X18621D1*
X4087Y19147D2*
X8195D1*
X11495D2*
X11851D1*
X16218D2*
X17871D1*
X4087Y18899D2*
X8445D1*
X11495D2*
X11851D1*
X16069D2*
X17871D1*
X4087Y18650D2*
X8691D1*
X11495D2*
X11851D1*
X16069D2*
X17871D1*
X4087Y18401D2*
X8879D1*
X11495D2*
X11851D1*
X16069D2*
X17871D1*
X4087Y18153D2*
X8879D1*
X11495D2*
X11851D1*
X16069D2*
X17121D1*
X4087Y17904D2*
X8879D1*
X11495D2*
X11851D1*
X16069D2*
X17121D1*
X4087Y17655D2*
X8879D1*
X11495D2*
X11851D1*
X16069D2*
X17121D1*
X4087Y17406D2*
X8879D1*
X11495D2*
X11851D1*
X16069D2*
X17121D1*
X4087Y17158D2*
X8879D1*
X11495D2*
X11851D1*
X16069D2*
X16371D1*
X4087Y16909D2*
X8879D1*
X11495D2*
X11851D1*
X16069D2*
X16371D1*
X4087Y16660D2*
X8879D1*
X11495D2*
X11851D1*
X16069D2*
X16371D1*
X4087Y16412D2*
X8879D1*
X11495D2*
X11851D1*
X16069D2*
X16371D1*
X4087Y16163D2*
X8879D1*
X11495D2*
X11851D1*
X4087Y15914D2*
X8879D1*
X11495D2*
X11808D1*
X4087Y15666D2*
X8879D1*
X11495D2*
X11680D1*
X4087Y15417D2*
X8879D1*
X11495D2*
X11645D1*
X4087Y15168D2*
X8879D1*
X11495D2*
X11695D1*
X4087Y14920D2*
X8879D1*
X11495D2*
X11840D1*
X4087Y14671D2*
X8879D1*
X11495D2*
X11851D1*
X17253D2*
X18621D1*
X4087Y14422D2*
X8879D1*
X11495D2*
X11851D1*
X16276D2*
X18621D1*
X4087Y14174D2*
X8879D1*
X11495D2*
X11851D1*
X16230D2*
X17871D1*
X4087Y13925D2*
X8879D1*
X11495D2*
X11851D1*
X16085D2*
X17871D1*
X4087Y13676D2*
X8879D1*
X11495D2*
X11851D1*
X15694D2*
X17871D1*
X4087Y13427D2*
X8879D1*
X11495D2*
X11851D1*
X15526D2*
X17871D1*
X4087Y13179D2*
X8879D1*
X11495D2*
X11851D1*
X15480D2*
X17121D1*
X4087Y12930D2*
X8879D1*
X11495D2*
X11851D1*
X15339D2*
X17121D1*
X4087Y12681D2*
X8879D1*
X11495D2*
X11851D1*
X14964D2*
X17121D1*
X4087Y12433D2*
X8879D1*
X11495D2*
X11851D1*
X14776D2*
X17121D1*
X4087Y12184D2*
X8879D1*
X11495D2*
X11851D1*
X14733D2*
X16371D1*
X4087Y11935D2*
X8879D1*
X11495D2*
X11851D1*
X14597D2*
X16371D1*
X4087Y11687D2*
X8879D1*
X11495D2*
X11851D1*
X14230D2*
X16371D1*
X4087Y11438D2*
X8879D1*
X11495D2*
X11851D1*
X14026D2*
X16371D1*
X4087Y11189D2*
X8879D1*
X11495D2*
X11851D1*
X13983D2*
X15621D1*
X4087Y10941D2*
X8879D1*
X11495D2*
X11828D1*
X13851D2*
X15621D1*
X4087Y10692D2*
X8879D1*
X11495D2*
X11687D1*
X13495D2*
X15621D1*
X4087Y10443D2*
X8879D1*
X13276D2*
X15621D1*
X4087Y10195D2*
X8879D1*
X13237D2*
X15621D1*
X4087Y9946D2*
X8879D1*
X13105D2*
X15621D1*
X4087Y9697D2*
X8879D1*
X12761D2*
X15621D1*
X17253D2*
X22199D1*
X4087Y9448D2*
X8933D1*
X4087Y9200D2*
X9144D1*
X4087Y8951D2*
X9391D1*
X25691D2*
X25789D1*
X4087Y8702D2*
X9641D1*
X25483D2*
X25789D1*
X4087Y8454D2*
X9891D1*
X25233D2*
X25789D1*
X4087Y8205D2*
X10137D1*
X24987D2*
X25789D1*
X4087Y7956D2*
X10387D1*
X24737D2*
X25789D1*
X4087Y7708D2*
X10637D1*
X24487D2*
X25789D1*
X4087Y7459D2*
X10883D1*
X24241D2*
X25789D1*
X4087Y7210D2*
X11133D1*
X23991D2*
X25789D1*
X4087Y6962D2*
X11418D1*
X23706D2*
X25789D1*
X4087Y6713D2*
X25789D1*
X4087Y6464D2*
X5133D1*
X5741D2*
X23133D1*
X23741D2*
X25789D1*
X4087Y6216D2*
X4687D1*
X6187D2*
X22687D1*
X24187D2*
X25789D1*
X4087Y5967D2*
X4488D1*
X6386D2*
X22488D1*
X24386D2*
X25789D1*
X4087Y5718D2*
X4387D1*
X6487D2*
X22387D1*
X24487D2*
X25789D1*
X4087Y5469D2*
X4348D1*
X6526D2*
X22348D1*
X24526D2*
X25789D1*
X4087Y5221D2*
X4371D1*
X6503D2*
X22371D1*
X24503D2*
X25789D1*
X4087Y4972D2*
X4453D1*
X6421D2*
X22453D1*
X24421D2*
X25789D1*
X4087Y4723D2*
X4621D1*
X6253D2*
X22621D1*
X24253D2*
X25789D1*
X4087Y4475D2*
X4957D1*
X5917D2*
X22957D1*
X23917D2*
X25789D1*
X4087Y4226D2*
X25789D1*
X8441Y23353D2*
X8384Y23320D1*
X8265Y23281D1*
X8142Y23264D1*
X8017Y23272D1*
X7896Y23303D1*
X7749Y23382D1*
X11315Y19815D1*
X11393Y19717D1*
X11445Y19604D1*
X11469Y19493D1*
X11472Y18562D1*
Y10660D1*
X11672Y10459D1*
X11685Y10581D1*
X11717Y10702D1*
X11768Y10816D1*
X11837Y10920D1*
X11876Y10964D1*
Y14910D1*
X11813Y14986D1*
X11750Y15094D1*
X11705Y15210D1*
X11678Y15333D1*
X11672Y15457D1*
X11685Y15581D1*
X11717Y15702D1*
X11768Y15816D1*
X11837Y15920D1*
X11876Y15964D1*
Y19910D1*
X11813Y19986D1*
X11750Y20094D1*
X11705Y20210D1*
X11678Y20333D1*
X11672Y20457D1*
X11685Y20581D1*
X11717Y20702D1*
X11768Y20816D1*
X11837Y20920D1*
X11876Y20964D1*
Y24550D1*
X10851Y23523D1*
X10754Y23445D1*
X10642Y23389D1*
X10525Y23359D1*
X10312Y23352D1*
X8449D1*
X8696Y27164D2*
X8738Y27064D1*
X11523Y29851D1*
X11620Y29929D1*
X11732Y29985D1*
X11850Y30015D1*
X12062Y30022D1*
X14933D1*
X15018Y30091D1*
X15127Y30152D1*
X15244Y30196D1*
X15366Y30221D1*
X15491Y30226D1*
X15615Y30211D1*
X15735Y30177D1*
X15848Y30125D1*
X15952Y30055D1*
X16043Y29970D1*
X16120Y29871D1*
X16180Y29762D1*
X16222Y29644D1*
X16245Y29521D1*
X16250Y29437D1*
X16240Y29313D1*
X16211Y29191D1*
X16163Y29076D1*
X16097Y28970D1*
X16043Y28908D1*
X16046Y26812D1*
Y26230D1*
X16402Y26226D1*
X16398Y26648D1*
Y27226D1*
X17152D1*
X17148Y27648D1*
Y28226D1*
X17902D1*
X17898Y28648D1*
Y29226D1*
X18652D1*
X18648Y29648D1*
Y30226D1*
X20226D1*
Y30019D1*
X21667Y30022D1*
Y30207D1*
X23207D1*
Y30171D1*
X23311Y30196D1*
X23435Y30207D1*
X23560Y30197D1*
X23681Y30167D1*
X23796Y30118D1*
X23901Y30051D1*
X23994Y29968D1*
X24073Y29871D1*
X24135Y29762D1*
X24178Y29645D1*
X24202Y29523D1*
X24207Y29437D1*
X24197Y29313D1*
X24166Y29191D1*
X24117Y29077D1*
X24021Y28939D1*
X24073Y28871D1*
X24135Y28762D1*
X24178Y28645D1*
X24202Y28523D1*
X24207Y28437D1*
X24197Y28313D1*
X24166Y28191D1*
X24117Y28077D1*
X24021Y27939D1*
X24073Y27871D1*
X24135Y27762D1*
X24178Y27645D1*
X24202Y27523D1*
X24207Y27437D1*
X24197Y27313D1*
X24166Y27191D1*
X24117Y27077D1*
X24021Y26939D1*
X24073Y26871D1*
X24135Y26762D1*
X24178Y26645D1*
X24202Y26523D1*
X24207Y26437D1*
X24197Y26313D1*
X24166Y26191D1*
X24117Y26077D1*
X24021Y25939D1*
X24073Y25871D1*
X24135Y25762D1*
X24178Y25645D1*
X24202Y25523D1*
X24206Y25425D1*
X24565Y25065D1*
X24643Y24967D1*
X24695Y24854D1*
X24719Y24743D1*
X24722Y23812D1*
Y20910D1*
X25565Y20065D1*
X25643Y19967D1*
X25695Y19854D1*
X25719Y19743D1*
X25722Y18812D1*
Y9187D1*
X25707Y9063D1*
X25665Y8946D1*
X25603Y8850D1*
X24947Y8190D1*
X23815Y7059D1*
X23717Y6981D1*
X23604Y6929D1*
X23493Y6905D1*
X22562Y6902D1*
X11687D1*
X11563Y6917D1*
X11446Y6959D1*
X11350Y7021D1*
X10690Y7677D1*
X9059Y9309D1*
X8981Y9407D1*
X8929Y9520D1*
X8905Y9631D1*
X8902Y10562D1*
Y18464D1*
X5309Y22059D1*
X5231Y22157D1*
X5179Y22270D1*
X5155Y22381D1*
X5152Y23312D1*
Y24937D1*
X5165Y25054D1*
X5163Y25126D1*
X5061Y25198D1*
X4973Y25286D1*
X4900Y25388D1*
X4844Y25500D1*
X4808Y25619D1*
X4791Y25743D1*
X4794Y25867D1*
X4817Y25990D1*
X4860Y26107D1*
X4921Y26216D1*
X4999Y26314D1*
X5092Y26397D1*
X5197Y26465D1*
X5312Y26514D1*
X5433Y26545D1*
X5557Y26555D1*
X5682Y26545D1*
X5803Y26515D1*
X5918Y26466D1*
X6023Y26399D1*
X6084Y26345D1*
X6345Y26602D1*
X6308Y26698D1*
X6287Y26821D1*
X6290Y26946D1*
X6317Y27068D1*
X6359Y27165D1*
X6308Y27289D1*
X6287Y27412D1*
X6290Y27537D1*
X6317Y27659D1*
X6366Y27773D1*
X6437Y27876D1*
X6526Y27964D1*
X6629Y28033D1*
X6745Y28081D1*
X6867Y28106D1*
X6992Y28108D1*
X7114Y28086D1*
X7231Y28040D1*
X7336Y27974D1*
X7427Y27888D1*
X7500Y27787D1*
X7524Y27734D1*
X7618Y27876D1*
X7707Y27964D1*
X7811Y28033D1*
X7926Y28081D1*
X8048Y28106D1*
X8173Y28108D1*
X8296Y28086D1*
X8412Y28040D1*
X8517Y27974D1*
X8608Y27888D1*
X8681Y27787D1*
X8733Y27673D1*
X8763Y27552D1*
X8770Y27459D1*
X8758Y27334D1*
X8722Y27215D1*
X8699Y27170D1*
X22713Y9721D2*
X22643Y9696D1*
X22521Y9672D1*
X22396Y9668D1*
X22272Y9685D1*
X22153Y9722D1*
X22041Y9777D1*
X21937Y9852D1*
X17226Y9851D1*
Y9648D1*
X15648D1*
Y11226D1*
X16402D1*
X16398Y11648D1*
Y12226D1*
X17152D1*
X17148Y12648D1*
Y13226D1*
X17902D1*
X17898Y13648D1*
Y14226D1*
X18652D1*
X18648Y14648D1*
Y14855D1*
X17230Y14852D1*
X17226Y14648D1*
X16222Y14644D1*
X16245Y14521D1*
X16250Y14437D1*
X16240Y14313D1*
X16211Y14191D1*
X16163Y14076D1*
X16097Y13970D1*
X16015Y13875D1*
X15920Y13795D1*
X15813Y13731D1*
X15697Y13684D1*
X15575Y13656D1*
X15472Y13644D1*
X15495Y13521D1*
X15500Y13437D1*
X15490Y13313D1*
X15461Y13191D1*
X15413Y13076D1*
X15347Y12970D1*
X15265Y12875D1*
X15170Y12795D1*
X15063Y12731D1*
X14947Y12684D1*
X14825Y12656D1*
X14722Y12644D1*
X14745Y12521D1*
X14750Y12437D1*
X14740Y12313D1*
X14711Y12191D1*
X14663Y12076D1*
X14597Y11970D1*
X14515Y11875D1*
X14420Y11795D1*
X14313Y11731D1*
X14197Y11684D1*
X14075Y11656D1*
X13972Y11644D1*
X13995Y11521D1*
X14000Y11437D1*
X13990Y11313D1*
X13961Y11191D1*
X13913Y11076D1*
X13847Y10970D1*
X13765Y10875D1*
X13670Y10795D1*
X13563Y10731D1*
X13447Y10684D1*
X13325Y10656D1*
X13222Y10644D1*
X13245Y10521D1*
X13250Y10437D1*
X13240Y10313D1*
X13211Y10191D1*
X13163Y10076D1*
X13097Y9970D1*
X13015Y9875D1*
X12920Y9795D1*
X12813Y9731D1*
X12697Y9684D1*
X12575Y9656D1*
X12478Y9650D1*
X12660Y9470D1*
X15312Y9472D1*
X22464D1*
X22709Y9716D1*
X17226Y24855D2*
Y24648D1*
X16222Y24644D1*
X16245Y24521D1*
X16250Y24437D1*
X16240Y24313D1*
X16211Y24191D1*
X16163Y24076D1*
X16097Y23970D1*
X16043Y23908D1*
X16046Y21812D1*
Y21230D1*
X16402Y21226D1*
X16398Y21648D1*
Y22226D1*
X17152D1*
X17148Y22648D1*
Y23226D1*
X17902D1*
X17898Y23648D1*
Y24226D1*
X18652D1*
X18648Y24648D1*
Y24855D1*
X17230Y24852D1*
X17226Y19855D2*
Y19648D1*
X16222Y19644D1*
X16245Y19521D1*
X16250Y19437D1*
X16240Y19313D1*
X16211Y19191D1*
X16163Y19076D1*
X16097Y18970D1*
X16043Y18908D1*
X16046Y16812D1*
Y16230D1*
X16402Y16226D1*
X16398Y16648D1*
Y17226D1*
X17152D1*
X17148Y17648D1*
Y18226D1*
X17902D1*
X17898Y18648D1*
Y19226D1*
X18652D1*
X18648Y19648D1*
Y19855D1*
X17230Y19852D1*
X24495Y33812D2*
X24473Y33689D1*
X24437Y33570D1*
X24387Y33455D1*
X24324Y33347D1*
X24249Y33247D1*
X24162Y33157D1*
X24066Y33078D1*
X23961Y33010D1*
X23849Y32955D1*
X23731Y32913D1*
X23609Y32886D1*
X23485Y32873D1*
X23360Y32875D1*
X23236Y32891D1*
X23115Y32922D1*
X22998Y32967D1*
X22888Y33025D1*
X22785Y33095D1*
X22691Y33178D1*
X22607Y33270D1*
X22534Y33372D1*
X22474Y33482D1*
X22428Y33597D1*
X22395Y33718D1*
X22376Y33842D1*
X22372Y33966D1*
X22383Y34091D1*
X22409Y34213D1*
X22448Y34332D1*
X22501Y34445D1*
X22567Y34551D1*
X22645Y34649D1*
X22734Y34737D1*
X22832Y34813D1*
X22939Y34878D1*
X23053Y34930D1*
X23172Y34968D1*
X23294Y34992D1*
X23419Y35002D1*
X23544Y34997D1*
X23667Y34977D1*
X23787Y34943D1*
X23902Y34895D1*
X24011Y34834D1*
X24112Y34760D1*
X24204Y34676D1*
X24285Y34581D1*
X24355Y34477D1*
X24412Y34366D1*
X24455Y34248D1*
X24485Y34127D1*
X24502Y33937D1*
X24495Y33812D1*
X6495D2*
X6473Y33689D1*
X6437Y33570D1*
X6387Y33455D1*
X6324Y33347D1*
X6249Y33247D1*
X6162Y33157D1*
X6066Y33078D1*
X5961Y33010D1*
X5849Y32955D1*
X5731Y32913D1*
X5609Y32886D1*
X5485Y32873D1*
X5360Y32875D1*
X5236Y32891D1*
X5115Y32922D1*
X4998Y32967D1*
X4888Y33025D1*
X4785Y33095D1*
X4691Y33178D1*
X4607Y33270D1*
X4534Y33372D1*
X4474Y33482D1*
X4428Y33597D1*
X4395Y33718D1*
X4376Y33842D1*
X4372Y33966D1*
X4383Y34091D1*
X4409Y34213D1*
X4448Y34332D1*
X4501Y34445D1*
X4567Y34551D1*
X4645Y34649D1*
X4734Y34737D1*
X4832Y34813D1*
X4939Y34878D1*
X5053Y34930D1*
X5172Y34968D1*
X5294Y34992D1*
X5419Y35002D1*
X5544Y34997D1*
X5667Y34977D1*
X5787Y34943D1*
X5902Y34895D1*
X6011Y34834D1*
X6112Y34760D1*
X6204Y34676D1*
X6285Y34581D1*
X6355Y34477D1*
X6412Y34366D1*
X6455Y34248D1*
X6485Y34127D1*
X6502Y33937D1*
X6495Y33812D1*
X24495Y5312D2*
X24473Y5189D1*
X24437Y5070D1*
X24387Y4955D1*
X24324Y4847D1*
X24249Y4747D1*
X24162Y4657D1*
X24066Y4578D1*
X23961Y4510D1*
X23849Y4455D1*
X23731Y4413D1*
X23609Y4386D1*
X23485Y4373D1*
X23360Y4375D1*
X23236Y4391D1*
X23115Y4422D1*
X22998Y4467D1*
X22888Y4525D1*
X22785Y4595D1*
X22691Y4678D1*
X22607Y4770D1*
X22534Y4872D1*
X22474Y4982D1*
X22428Y5097D1*
X22395Y5218D1*
X22376Y5342D1*
X22372Y5466D1*
X22383Y5591D1*
X22409Y5713D1*
X22448Y5832D1*
X22501Y5945D1*
X22567Y6051D1*
X22645Y6149D1*
X22734Y6237D1*
X22832Y6313D1*
X22939Y6378D1*
X23053Y6430D1*
X23172Y6468D1*
X23294Y6492D1*
X23419Y6502D1*
X23544Y6497D1*
X23667Y6477D1*
X23787Y6443D1*
X23902Y6395D1*
X24011Y6334D1*
X24112Y6260D1*
X24204Y6176D1*
X24285Y6081D1*
X24355Y5977D1*
X24412Y5866D1*
X24455Y5748D1*
X24485Y5627D1*
X24502Y5437D1*
X24495Y5312D1*
X6495D2*
X6473Y5189D1*
X6437Y5070D1*
X6387Y4955D1*
X6324Y4847D1*
X6249Y4747D1*
X6162Y4657D1*
X6066Y4578D1*
X5961Y4510D1*
X5849Y4455D1*
X5731Y4413D1*
X5609Y4386D1*
X5485Y4373D1*
X5360Y4375D1*
X5236Y4391D1*
X5115Y4422D1*
X4998Y4467D1*
X4888Y4525D1*
X4785Y4595D1*
X4691Y4678D1*
X4607Y4770D1*
X4534Y4872D1*
X4474Y4982D1*
X4428Y5097D1*
X4395Y5218D1*
X4376Y5342D1*
X4372Y5466D1*
X4383Y5591D1*
X4409Y5713D1*
X4448Y5832D1*
X4501Y5945D1*
X4567Y6051D1*
X4645Y6149D1*
X4734Y6237D1*
X4832Y6313D1*
X4939Y6378D1*
X5053Y6430D1*
X5172Y6468D1*
X5294Y6492D1*
X5419Y6502D1*
X5544Y6497D1*
X5667Y6477D1*
X5787Y6443D1*
X5902Y6395D1*
X6011Y6334D1*
X6112Y6260D1*
X6204Y6176D1*
X6285Y6081D1*
X6355Y5977D1*
X6412Y5866D1*
X6455Y5748D1*
X6485Y5627D1*
X6502Y5437D1*
X6495Y5312D1*
X25687Y35312D2*
X4062D1*
Y4062D1*
X25812D1*
Y35312D1*
X25687D1*
D17*
X6937Y25687D3*
X8118D3*
X6937Y25096D3*
Y24506D3*
X7528Y25392D3*
Y24801D3*
Y24211D3*
X8118Y23915D3*
Y24506D3*
Y25096D3*
Y26278D3*
Y26868D3*
Y27459D3*
X6937D3*
Y26868D3*
Y26278D3*
X7528Y25982D3*
Y26573D3*
Y27163D3*
D18*
X4850Y28876D3*
Y22695D3*
D19*
X22437Y10437D3*
Y11437D3*
Y12437D3*
Y13437D3*
Y14437D3*
Y15437D3*
Y16437D3*
Y17437D3*
Y18437D3*
Y19437D3*
Y20437D3*
Y21437D3*
Y22437D3*
Y23437D3*
Y24437D3*
Y25437D3*
Y26437D3*
Y27437D3*
Y28437D3*
D20*
Y29437D3*
D19*
X23437D3*
Y28437D3*
Y27437D3*
Y26437D3*
Y25437D3*
Y24437D3*
Y23437D3*
Y22437D3*
Y21437D3*
Y20437D3*
Y19437D3*
Y18437D3*
Y17437D3*
Y16437D3*
Y15437D3*
Y14437D3*
Y13437D3*
Y12437D3*
Y11437D3*
Y10437D3*
D21*
X19437Y29437D3*
D22*
X15461D3*
D21*
X18687Y28437D3*
D22*
X14711D3*
D21*
X17937Y27437D3*
D22*
X13961D3*
D21*
X17187Y26437D3*
D22*
X13211D3*
D21*
X16437Y25437D3*
D22*
X12461D3*
D21*
X19437Y24437D3*
D22*
X15461D3*
D21*
X18687Y23437D3*
D22*
X14711D3*
D21*
X17937Y22437D3*
D22*
X13961D3*
D21*
X17187Y21437D3*
D22*
X13211D3*
D21*
X16437Y20437D3*
D22*
X12461D3*
D21*
X19437Y19437D3*
D22*
X15461D3*
D21*
X18687Y18437D3*
D22*
X14711D3*
D21*
X17937Y17437D3*
D22*
X13961D3*
D21*
X17187Y16437D3*
D22*
X13211D3*
D21*
X16437Y15437D3*
D22*
X12461D3*
D21*
X19437Y14437D3*
D22*
X15461D3*
D21*
X18687Y13437D3*
D22*
X14711D3*
D21*
X17937Y12437D3*
D22*
X13961D3*
D21*
X17187Y11437D3*
D22*
X13211D3*
D21*
X16437Y10437D3*
D22*
X12461D3*
M02*
