*
*
G04 PADS 9.2 Build Number: 406656 generated Gerber (RS-274-X) file*
G04 PC Version=2.1*
*
%IN "2.4GHzAmp.pcb"*%
*
%MOIN*%
*
%FSLAX35Y35*%
*
*
*
*
G04 PC Standard Apertures*
*
*
G04 Thermal Relief Aperture macro.*
%AMTER*
1,1,$1,0,0*
1,0,$1-$2,0,0*
21,0,$3,$4,0,0,45*
21,0,$3,$4,0,0,135*
%
*
*
G04 Annular Aperture macro.*
%AMANN*
1,1,$1,0,0*
1,0,$2,0,0*
%
*
*
G04 Odd Aperture macro.*
%AMODD*
1,1,$1,0,0*
1,0,$1-0.005,0,0*
%
*
*
G04 PC Custom Aperture Macros*
*
*
*
*
*
*
G04 PC Aperture Table*
*
%ADD010C,0.001*%
%ADD014C,0.06*%
%ADD015C,0.01*%
%ADD018C,0.095*%
%ADD019C,0.1*%
%ADD024C,0.05906*%
%ADD027C,0.15*%
%ADD032C,0.03*%
%ADD033C,0.02*%
%ADD043C,0.07087*%
%ADD047R,0.02165X0.02165*%
*
*
*
*
G04 PC Circuitry*
G04 Layer Name 2.4GHzAmp.pcb - circuitry*
%LPD*%
*
*
G04 PC Custom Flashes*
G04 Layer Name 2.4GHzAmp.pcb - flashes*
%LPD*%
*
*
G04 PC Circuitry*
G04 Layer Name 2.4GHzAmp.pcb - circuitry*
%LPD*%
*
G54D10*
G54D14*
G01X249500Y233500D03*
G54D15*
X310500Y153000D02*
Y184000D01*
X319500Y193000*
X255500Y201500D02*
X261000D01*
X270500Y211000*
X319500Y183000D02*
X327000Y190500D01*
Y216500*
X336000Y225500*
X297600Y189000D02*
Y124400D01*
X305000Y117000*
X169500Y218000D02*
Y251218D01*
X190882Y272600*
X191100*
Y275200*
X193000Y230200D02*
X206900Y216300D01*
X230300*
X230500Y216500*
X239200*
X242000Y213700*
X237300Y213800D02*
X244400Y206700D01*
Y153400*
X242000Y213700D02*
X249500Y206200D01*
Y201000*
X277500Y173000*
Y153400*
X298000Y235000D02*
Y241000D01*
X310000Y253000*
Y256500*
X238500Y281500D02*
X270500Y249500D01*
Y211000*
X163000Y310000D02*
X166500D01*
X186500Y330000*
X203391*
X209091Y324300*
X287000*
Y324500*
X227000Y307600D02*
X239731Y294869D01*
X242331*
X250000Y287200*
X226500Y297500D02*
Y288000D01*
X238500Y276000*
X227000Y311600D02*
X233400Y305200D01*
X233438Y305238*
X235362*
X237200Y303400*
X239500Y341500D02*
X254500Y356500D01*
X294100*
X346100Y153000D02*
G75*
G03X346100I-2600J0D01*
G01X350100Y221000D02*
G03X350100I-2600J0D01*
G01X353700Y244500D02*
G03X353700I-3700J0D01*
G01X356700Y276000D02*
G03X356700I-3700J0D01*
G01X336600Y241000D02*
G03X336600I-2600J0D01*
G01X329100Y245000D02*
G03X329100I-2600J0D01*
G01X329700Y276000D02*
G03X329700I-3700J0D01*
G01X321100Y217000D02*
G03X321100I-2600J0D01*
G01X318750Y293000D02*
G03X318750I-2750J0D01*
G01Y345500D02*
G03X318750I-2750J0D01*
G01Y397000D02*
G03X318750I-2750J0D01*
G01X307200Y185000D02*
G03X307200I-3700J0D01*
G01Y217000D02*
G03X307200I-2600J0D01*
G01X310600Y235000D02*
G03X310600I-2600J0D01*
G01X322950Y467346D02*
G03X322950I-6450J0D01*
G01X321900Y489000D02*
G03X321900I-5400J0D01*
G01X289600Y224400D02*
G03X289600I-2600J0D01*
G01X289800Y251400D02*
G03X289800I-2600J0D01*
G01X294200Y276000D02*
G03X294200I-3700J0D01*
G01X293600Y304000D02*
G03X293600I-2600J0D01*
G01X268700Y276000D02*
G03X268700I-3700J0D01*
G01X167200Y117000D02*
G03X167200I-6700J0D01*
G01X147200D02*
G03X147200I-6700J0D01*
G01X155600Y127000D02*
G03X155600I-5100J0D01*
G01X167200Y137000D02*
G03X167200I-6700J0D01*
G01X196600Y288000D02*
G03X196600I-2600J0D01*
G01Y293500D02*
G03X196600I-2600J0D01*
G01X293600Y408000D02*
G03X293600I-2600J0D01*
G01X284150Y372600D02*
G03X284150I-2750J0D01*
G01X283950Y424000D02*
G03X283950I-2750J0D01*
G01X267515Y428100D02*
G03X267515I-4015J0D01*
G01X216000Y432700D02*
G03X216000I-2600J0D01*
G01X207700Y468000D02*
G03X207700I-6700J0D01*
G01X187700D02*
G03X187700I-6700J0D01*
G01X196100Y478000D02*
G03X196100I-5100J0D01*
G01X207700Y488000D02*
G03X207700I-6700J0D01*
G01X187700D02*
G03X187700I-6700J0D01*
G01X171350Y432700D02*
G03X171350I-2750J0D01*
G01X147200Y137000D02*
G03X147200I-6700J0D01*
G01X134100Y217000D02*
G03X134100I-2600J0D01*
G01X232700Y117000D02*
G03X232700I-6700J0D01*
G01X212700D02*
G03X212700I-6700J0D01*
G01X221100Y127000D02*
G03X221100I-5100J0D01*
G01X232700Y137000D02*
G03X232700I-6700J0D01*
G01X212700D02*
G03X212700I-6700J0D01*
G01X254200Y233500D02*
G03X254200I-4700J0D01*
G01X241100Y265100D02*
G03X241100I-2600J0D01*
G01X373000Y104000D02*
Y501000D01*
X104000*
Y104000*
X373000*
X346100Y153000D02*
G03X346100I-2600J0D01*
G01X350100Y221000D02*
G03X350100I-2600J0D01*
G01X353700Y244500D02*
G03X353700I-3700J0D01*
G01X356700Y276000D02*
G03X356700I-3700J0D01*
G01X335935Y216574D02*
G03X337565Y219426I2565J426D01*
G01X332460Y219556D02*
G03X335935Y216574I2540J-556D01*
G01X332460Y219556D02*
X328700Y215796D01*
Y190500*
X328202Y189298D02*
G03X328700Y190500I-1202J1202D01*
G01X328202Y189298D02*
X322619Y183715D01*
X318041Y185848D02*
G03X322619Y183715I1459J-2848D01*
G01X316900Y187996D02*
G03X318041Y185848I2600J4D01*
G01X316900Y187996D02*
X312200Y183296D01*
Y155711*
X308800D02*
G03X312200I1700J-2711D01*
G01X308800D02*
Y184000D01*
X309298Y185202D02*
G03X308800Y184000I1202J-1202D01*
G01X309298Y185202D02*
X316381Y192285D01*
X320959Y190152D02*
G03X316381Y192285I-1459J2848D01*
G01X322100Y188004D02*
G03X320959Y190152I-2600J-4D01*
G01X322100Y188004D02*
X325300Y191204D01*
Y216500*
X325798Y217702D02*
G03X325300Y216500I1202J-1202D01*
G01X325798Y217702D02*
X332881Y224785D01*
X335285Y222381D02*
G03X332881Y224785I715J3119D01*
G01X335285Y222381D02*
X334444Y221540D01*
X337565Y219426D02*
G03X334444Y221540I-2565J-426D01*
G01X336600Y241000D02*
G03X336600I-2600J0D01*
G01X329100Y245000D02*
G03X329100I-2600J0D01*
G01X329700Y276000D02*
G03X329700I-3700J0D01*
G01X321100Y217000D02*
G03X321100I-2600J0D01*
G01X318750Y293000D02*
G03X318750I-2750J0D01*
G01Y345500D02*
G03X318750I-2750J0D01*
G01Y397000D02*
G03X318750I-2750J0D01*
G01X307200Y185000D02*
G03X307200I-3700J0D01*
G01Y217000D02*
G03X307200I-2600J0D01*
G01X310600Y235000D02*
G03X310600I-2600J0D01*
G01X311700Y253789D02*
G03X308300I-1700J2711D01*
G01X311700D02*
Y253000D01*
X311202Y251798D02*
G03X311700Y253000I-1202J1202D01*
G01X311202Y251798D02*
X299700Y240296D01*
Y237711*
X296300D02*
G03X299700I1700J-2711D01*
G01X296300D02*
Y241000D01*
X296798Y242202D02*
G03X296300Y241000I1202J-1202D01*
G01X296798Y242202D02*
X308300Y253704D01*
Y253789*
X322950Y467346D02*
G03X322950I-6450J0D01*
G01X321900Y489000D02*
G03X321900I-5400J0D01*
G01X289600Y224400D02*
G03X289600I-2600J0D01*
G01X289800Y251400D02*
G03X289800I-2600J0D01*
G01X294200Y276000D02*
G03X294200I-3700J0D01*
G01X293600Y304000D02*
G03X293600I-2600J0D01*
G01X273555Y116110D02*
G03Y117890I4567J890D01*
G01X266941Y116110D02*
G03X273555I3307J890D01*
G01X257807D02*
G03X266941I4567J890D01*
G01X257807Y117890D02*
G03Y116110I-3307J-890D01*
G01X266941Y117890D02*
G03X257807I-4567J-890D01*
G01X273555D02*
G03X266941I-3307J-890D01*
G01X275800Y156111D02*
G03X279200I1700J-2711D01*
G01X275800D02*
Y172296D01*
X248298Y199798*
X247800Y201000D02*
G03X248298Y199798I1700J0D01*
G01X247800Y201000D02*
Y205496D01*
X245987Y207308*
X246100Y206700D02*
G03X245987Y207308I-1700J0D01*
G01X246100Y206700D02*
Y156111D01*
X242700D02*
G03X246100I1700J-2711D01*
G01X242700D02*
Y205996D01*
X238015Y210681*
X234260Y214800D02*
G03X238015Y210681I3040J-1000D01*
G01X234260Y214800D02*
X231100D01*
X230300Y214600D02*
G03X231100Y214800I0J1700D01*
G01X230300Y214600D02*
X206900D01*
X205698Y215098D02*
G03X206900Y214600I1202J1202D01*
G01X205698Y215098D02*
X193715Y227081D01*
X196119Y229485D02*
G03X193715Y227081I-3119J715D01*
G01X196119Y229485D02*
X207604Y218000D01*
X229700*
X230500Y218200D02*
G03X229700Y218000I0J-1700D01*
G01X230500Y218200D02*
X239200D01*
X240402Y217702D02*
G03X239200Y218200I-1202J-1202D01*
G01X240402Y217702D02*
X241285Y216819D01*
X245119Y212985D02*
G03X241285Y216819I-3119J715D01*
G01X245119Y212985D02*
X250702Y207402D01*
X251200Y206200D02*
G03X250702Y207402I-1700J0D01*
G01X251200Y206200D02*
Y201704D01*
X252490Y200414*
X254795Y204622D02*
G03X252490Y200414I705J-3122D01*
G01X257937Y203575D02*
G03X254795Y204622I-937J2425D01*
G01X258211Y203200D02*
G03X257937Y203574I-2711J-1700D01*
G01X258211Y203200D02*
X260296D01*
X267381Y210285*
X268800Y213711D02*
G03X267381Y210285I1700J-2711D01*
G01X268800Y213711D02*
Y248796D01*
X241698Y275897*
X235381Y276715D02*
G03X241698Y275897I3119J-715D01*
G01X235381Y276715D02*
X225298Y286798D01*
X224800Y288000D02*
G03X225298Y286798I1700J0D01*
G01X224800Y288000D02*
Y294789D01*
X228200D02*
G03X224800I-1700J2711D01*
G01X228200D02*
Y288704D01*
X235302Y281603*
X241619Y280785D02*
G03X235302Y281603I-3119J715D01*
G01X241619Y280785D02*
X271702Y250702D01*
X272200Y249500D02*
G03X271702Y250702I-1700J0D01*
G01X272200Y249500D02*
Y213711D01*
X269785Y207881D02*
G03X272200Y213711I715J3119D01*
G01X269785Y207881D02*
X262202Y200298D01*
X261000Y199800D02*
G03X262202Y200298I0J1700D01*
G01X261000Y199800D02*
X258211D01*
X254414Y198490D02*
G03X258211Y199800I1086J3010D01*
G01X254414Y198490D02*
X278702Y174202D01*
X279200Y173000D02*
G03X278702Y174202I-1700J0D01*
G01X279200Y173000D02*
Y156111D01*
X268700Y276000D02*
G03X268700I-3700J0D01*
G01X246881Y287915D02*
G03X249285Y290319I3119J-715D01*
G01X246881Y287915D02*
X241627Y293169D01*
X239731*
X238529Y293667D02*
G03X239731Y293169I1202J1202D01*
G01X238529Y293667D02*
X227715Y304481D01*
X224502Y309600D02*
G03X227715Y304481I2498J-2000D01*
G01X230119Y310885D02*
G03X224502Y309600I-3119J715D01*
G01X230119Y310885D02*
X233262Y307742D01*
X238252Y306422D02*
G03X233262Y307742I-2252J1578D01*
G01X236776Y300228D02*
G03X238252Y306422I424J3172D01*
G01X236776Y300228D02*
X240435Y296569D01*
X242331*
X243533Y296071D02*
G03X242331Y296569I-1202J-1202D01*
G01X243533Y296071D02*
X249285Y290319D01*
X167200Y117000D02*
G03X167200I-6700J0D01*
G01X147200D02*
G03X147200I-6700J0D01*
G01X155600Y127000D02*
G03X155600I-5100J0D01*
G01X167200Y137000D02*
G03X167200I-6700J0D01*
G01X192796Y272487D02*
G03X188826Y272949I-1696J2713D01*
G01X191692Y271007D02*
G03X192796Y272487I-592J1593D01*
G01X191692Y271007D02*
X171200Y250514D01*
Y220711*
X167800D02*
G03X171200I1700J-2711D01*
G01X167800D02*
Y251218D01*
X168298Y252420D02*
G03X167800Y251218I1202J-1202D01*
G01X168298Y252420D02*
X188826Y272949D01*
X196600Y288000D02*
G03X196600I-2600J0D01*
G01Y293500D02*
G03X196600I-2600J0D01*
G01X195763Y300911D02*
G03X194237Y301589I237J2589D01*
X195763Y300911I-237J-2589*
G01X244546Y310023D02*
G03X245597Y315822I1754J2677D01*
G01X242991Y310791D02*
G03X244546Y310023I1909J1909D01*
G01X242991Y310791D02*
X236982Y316800D01*
X207500*
X205591Y317591D02*
G03X207500Y316800I1909J1909D01*
G01X205591Y317591D02*
X201382Y321800D01*
X200718*
Y327200D02*
G03Y321800I-1718J-2700D01*
G01Y327200D02*
X202500D01*
X204409Y326409D02*
G03X202500Y327200I-1909J-1909D01*
G01X204409Y326409D02*
X208618Y322200D01*
X238100*
X240009Y321409D02*
G03X238100Y322200I-1909J-1909D01*
G01X240009Y321409D02*
X245597Y315822D01*
X284425Y322600D02*
G03X284173Y326000I2575J1900D01*
G01X284425Y322600D02*
X209091D01*
X207889Y323098D02*
G03X209091Y322600I1202J1202D01*
G01X207889Y323098D02*
X202687Y328300D01*
X187204*
X167702Y308798*
X166500Y308300D02*
G03X167702Y308798I0J1700D01*
G01X166500Y308300D02*
X165711D01*
Y311700D02*
G03Y308300I-2711J-1700D01*
G01Y311700D02*
X165796D01*
X185298Y331202*
X186500Y331700D02*
G03X185298Y331202I0J-1700D01*
G01X186500Y331700D02*
X203391D01*
X204593Y331202D02*
G03X203391Y331700I-1202J-1202D01*
G01X204593Y331202D02*
X209795Y326000D01*
X259760*
X267240D02*
G03X259760I-3740J3675D01*
G01X267240D02*
X284173D01*
X291389Y354800D02*
G03Y358200I2711J1700D01*
G01Y354800D02*
X255204D01*
X242619Y342215*
X240215Y344619D02*
G03X242619Y342215I-715J-3119D01*
G01X240215Y344619D02*
X253298Y357702D01*
X254500Y358200D02*
G03X253298Y357702I0J-1700D01*
G01X254500Y358200D02*
X291389D01*
X293600Y408000D02*
G03X293600I-2600J0D01*
G01X284150Y372600D02*
G03X284150I-2750J0D01*
G01X283950Y424000D02*
G03X283950I-2750J0D01*
G01X267515Y428100D02*
G03X267515I-4015J0D01*
G01X216000Y432700D02*
G03X216000I-2600J0D01*
G01X207700Y468000D02*
G03X207700I-6700J0D01*
G01X187700D02*
G03X187700I-6700J0D01*
G01X196100Y478000D02*
G03X196100I-5100J0D01*
G01X207700Y488000D02*
G03X207700I-6700J0D01*
G01X187700D02*
G03X187700I-6700J0D01*
G01X171350Y432700D02*
G03X171350I-2750J0D01*
G01X147200Y137000D02*
G03X147200I-6700J0D01*
G01X134100Y217000D02*
G03X134100I-2600J0D01*
G01X232700Y117000D02*
G03X232700I-6700J0D01*
G01X212700D02*
G03X212700I-6700J0D01*
G01X221100Y127000D02*
G03X221100I-5100J0D01*
G01X232700Y137000D02*
G03X232700I-6700J0D01*
G01X212700D02*
G03X212700I-6700J0D01*
G01X254200Y233500D02*
G03X254200I-4700J0D01*
G01X241100Y265100D02*
G03X241100I-2600J0D01*
G01X308937Y114520D02*
G03Y119480I3937J2480D01*
G01X300735Y118860D02*
G03X308937Y114520I4265J-1860D01*
G01X300735Y118860D02*
X296398Y123198D01*
X295900Y124400D02*
G03X296398Y123198I1700J0D01*
G01X295900Y124400D02*
Y186289D01*
X299300D02*
G03X295900I-1700J2711D01*
G01X299300D02*
Y125104D01*
X303140Y121265*
X308937Y119480D02*
G03X303140Y121265I-3937J-2480D01*
G01X104000Y500899D02*
X373000D01*
X104000Y499999D02*
X373000D01*
X104000Y499099D02*
X373000D01*
X104000Y498199D02*
X373000D01*
X104000Y497299D02*
X373000D01*
X104000Y496399D02*
X373000D01*
X104000Y495499D02*
X373000D01*
X202161Y494599D02*
X373000D01*
X319161Y493699D02*
X373000D01*
X320338Y492799D02*
X373000D01*
X321056Y491899D02*
X373000D01*
X321517Y490999D02*
X373000D01*
X321787Y490099D02*
X373000D01*
X321896Y489199D02*
X373000D01*
X321854Y488299D02*
X373000D01*
X321657Y487399D02*
X373000D01*
X321286Y486499D02*
X373000D01*
X320694Y485599D02*
X373000D01*
X319765Y484699D02*
X373000D01*
X317951Y483799D02*
X373000D01*
X205344Y482899D02*
X373000D01*
X203979Y481999D02*
X373000D01*
X195051Y481099D02*
X373000D01*
X195602Y480199D02*
X373000D01*
X195932Y479299D02*
X373000D01*
X196084Y478399D02*
X373000D01*
X196075Y477499D02*
X373000D01*
X195904Y476599D02*
X373000D01*
X195551Y475699D02*
X373000D01*
X194970Y474799D02*
X373000D01*
X204177Y473899D02*
X373000D01*
X319607Y472999D02*
X373000D01*
X320861Y472099D02*
X373000D01*
X321673Y471199D02*
X373000D01*
X322235Y470299D02*
X373000D01*
X322615Y469399D02*
X373000D01*
X322846Y468499D02*
X373000D01*
X322945Y467599D02*
X373000D01*
X322917Y466699D02*
X373000D01*
X322762Y465799D02*
X373000D01*
X322468Y464899D02*
X373000D01*
X322013Y463999D02*
X373000D01*
X321354Y463099D02*
X373000D01*
X320386Y462199D02*
X373000D01*
X318742Y461299D02*
X373000D01*
X104000Y460399D02*
X373000D01*
X104000Y459499D02*
X373000D01*
X104000Y458599D02*
X373000D01*
X104000Y457699D02*
X373000D01*
X104000Y456799D02*
X373000D01*
X104000Y455899D02*
X373000D01*
X104000Y454999D02*
X373000D01*
X104000Y454099D02*
X373000D01*
X104000Y453199D02*
X373000D01*
X104000Y452299D02*
X373000D01*
X104000Y451399D02*
X373000D01*
X104000Y450499D02*
X373000D01*
X104000Y449599D02*
X373000D01*
X104000Y448699D02*
X373000D01*
X104000Y447799D02*
X373000D01*
X104000Y446899D02*
X373000D01*
X104000Y445999D02*
X373000D01*
X104000Y445099D02*
X373000D01*
X104000Y444199D02*
X373000D01*
X104000Y443299D02*
X373000D01*
X104000Y442399D02*
X373000D01*
X104000Y441499D02*
X373000D01*
X104000Y440599D02*
X373000D01*
X104000Y439699D02*
X373000D01*
X104000Y438799D02*
X373000D01*
X104000Y437899D02*
X373000D01*
X104000Y436999D02*
X373000D01*
X104000Y436099D02*
X373000D01*
X214119Y435199D02*
X373000D01*
X215450Y434299D02*
X373000D01*
X215904Y433399D02*
X373000D01*
X215992Y432499D02*
X373000D01*
X265470Y431599D02*
X373000D01*
X266561Y430699D02*
X373000D01*
X267138Y429799D02*
X373000D01*
X267435Y428899D02*
X373000D01*
X267514Y427999D02*
X373000D01*
X267389Y427099D02*
X373000D01*
X282852Y426199D02*
X373000D01*
X283624Y425299D02*
X373000D01*
X283921Y424399D02*
X373000D01*
X283904Y423499D02*
X373000D01*
X283566Y422599D02*
X373000D01*
X282706Y421699D02*
X373000D01*
X104000Y420799D02*
X373000D01*
X104000Y419899D02*
X373000D01*
X104000Y418999D02*
X373000D01*
X104000Y418099D02*
X373000D01*
X104000Y417199D02*
X373000D01*
X104000Y416299D02*
X373000D01*
X104000Y415399D02*
X373000D01*
X104000Y414499D02*
X373000D01*
X104000Y413599D02*
X373000D01*
X104000Y412699D02*
X373000D01*
X104000Y411799D02*
X373000D01*
X104000Y410899D02*
X373000D01*
X292663Y409999D02*
X373000D01*
X293356Y409099D02*
X373000D01*
X293592Y408199D02*
X373000D01*
X293504Y407299D02*
X373000D01*
X293048Y406399D02*
X373000D01*
X291710Y405499D02*
X373000D01*
X104000Y404599D02*
X373000D01*
X104000Y403699D02*
X373000D01*
X104000Y402799D02*
X373000D01*
X104000Y401899D02*
X373000D01*
X104000Y400999D02*
X373000D01*
X104000Y400099D02*
X373000D01*
X317652Y399199D02*
X373000D01*
X318424Y398299D02*
X373000D01*
X318721Y397399D02*
X373000D01*
X318704Y396499D02*
X373000D01*
X318366Y395599D02*
X373000D01*
X317506Y394699D02*
X373000D01*
X104000Y393799D02*
X373000D01*
X104000Y392899D02*
X373000D01*
X104000Y391999D02*
X373000D01*
X104000Y391099D02*
X373000D01*
X104000Y390199D02*
X373000D01*
X104000Y389299D02*
X373000D01*
X104000Y388399D02*
X373000D01*
X104000Y387499D02*
X373000D01*
X104000Y386599D02*
X373000D01*
X104000Y385699D02*
X373000D01*
X104000Y384799D02*
X373000D01*
X104000Y383899D02*
X373000D01*
X104000Y382999D02*
X373000D01*
X104000Y382099D02*
X373000D01*
X104000Y381199D02*
X373000D01*
X104000Y380299D02*
X373000D01*
X104000Y379399D02*
X373000D01*
X104000Y378499D02*
X373000D01*
X104000Y377599D02*
X373000D01*
X104000Y376699D02*
X373000D01*
X104000Y375799D02*
X373000D01*
X282910Y374899D02*
X373000D01*
X283768Y373999D02*
X373000D01*
X284104Y373099D02*
X373000D01*
X284121Y372199D02*
X373000D01*
X283823Y371299D02*
X373000D01*
X283048Y370399D02*
X373000D01*
X104000Y369499D02*
X373000D01*
X104000Y368599D02*
X373000D01*
X104000Y367699D02*
X373000D01*
X104000Y366799D02*
X373000D01*
X104000Y365899D02*
X373000D01*
X104000Y364999D02*
X373000D01*
X104000Y364099D02*
X373000D01*
X104000Y363199D02*
X373000D01*
X104000Y362299D02*
X373000D01*
X104000Y361399D02*
X373000D01*
X104000Y360499D02*
X373000D01*
X294899Y359599D02*
X373000D01*
X296425Y358699D02*
X373000D01*
X297025Y357799D02*
X373000D01*
X297275Y356899D02*
X373000D01*
X297261Y355999D02*
X373000D01*
X296977Y355099D02*
X373000D01*
X296324Y354199D02*
X373000D01*
X253703Y353299D02*
X373000D01*
X252803Y352399D02*
X373000D01*
X251903Y351499D02*
X373000D01*
X251003Y350599D02*
X373000D01*
X250103Y349699D02*
X373000D01*
X249203Y348799D02*
X373000D01*
X317345Y347899D02*
X373000D01*
X318306Y346999D02*
X373000D01*
X318684Y346099D02*
X373000D01*
X318733Y345199D02*
X373000D01*
X318474Y344299D02*
X373000D01*
X317774Y343399D02*
X373000D01*
X242903Y342499D02*
X373000D01*
X242698Y341599D02*
X373000D01*
X242598Y340699D02*
X373000D01*
X242210Y339799D02*
X373000D01*
X241364Y338899D02*
X373000D01*
X104000Y337999D02*
X373000D01*
X104000Y337099D02*
X373000D01*
X104000Y336199D02*
X373000D01*
X104000Y335299D02*
X373000D01*
X265775Y334399D02*
X373000D01*
X267088Y333499D02*
X373000D01*
X267852Y332599D02*
X373000D01*
X268337Y331699D02*
X373000D01*
X268621Y330799D02*
X373000D01*
X268739Y329899D02*
X373000D01*
X268700Y328999D02*
X373000D01*
X268501Y328099D02*
X373000D01*
X288720Y327199D02*
X373000D01*
X289647Y326299D02*
X373000D01*
X290071Y325399D02*
X373000D01*
X290200Y324499D02*
X373000D01*
X290070Y323599D02*
X373000D01*
X289645Y322699D02*
X373000D01*
X288716Y321799D02*
X373000D01*
X240520Y320899D02*
X373000D01*
X241420Y319999D02*
X373000D01*
X242320Y319099D02*
X373000D01*
X243220Y318199D02*
X373000D01*
X244120Y317299D02*
X373000D01*
X245020Y316399D02*
X373000D01*
X247852Y315499D02*
X373000D01*
X248876Y314599D02*
X373000D01*
X249340Y313699D02*
X373000D01*
X249498Y312799D02*
X373000D01*
X249398Y311899D02*
X373000D01*
X249010Y310999D02*
X373000D01*
X248164Y310099D02*
X373000D01*
X238475Y309199D02*
X373000D01*
X238734Y308299D02*
X373000D01*
X238683Y307399D02*
X373000D01*
X291719Y306499D02*
X373000D01*
X293050Y305599D02*
X373000D01*
X293504Y304699D02*
X373000D01*
X293592Y303799D02*
X373000D01*
X293355Y302899D02*
X373000D01*
X292660Y301999D02*
X373000D01*
X239424Y301099D02*
X373000D01*
X236806Y300199D02*
X373000D01*
X237706Y299299D02*
X373000D01*
X238606Y298399D02*
X373000D01*
X239506Y297499D02*
X373000D01*
X240406Y296599D02*
X373000D01*
X316529Y295699D02*
X373000D01*
X318080Y294799D02*
X373000D01*
X318599Y293899D02*
X373000D01*
X318750Y292999D02*
X373000D01*
X318598Y292099D02*
X373000D01*
X318078Y291199D02*
X373000D01*
X316515Y290299D02*
X373000D01*
X252325Y289399D02*
X373000D01*
X252925Y288499D02*
X373000D01*
X253175Y287599D02*
X373000D01*
X253161Y286699D02*
X373000D01*
X252877Y285799D02*
X373000D01*
X252224Y284899D02*
X373000D01*
X240499Y283999D02*
X373000D01*
X241272Y283099D02*
X373000D01*
X241623Y282199D02*
X373000D01*
X241694Y281299D02*
X373000D01*
X242006Y280399D02*
X373000D01*
X354204Y279499D02*
X373000D01*
X355634Y278599D02*
X373000D01*
X356287Y277699D02*
X373000D01*
X356613Y276799D02*
X373000D01*
X356699Y275899D02*
X373000D01*
X356562Y274999D02*
X373000D01*
X356174Y274099D02*
X373000D01*
X355417Y273199D02*
X373000D01*
X250106Y272299D02*
X373000D01*
X251006Y271399D02*
X373000D01*
X251906Y270499D02*
X373000D01*
X252806Y269599D02*
X373000D01*
X253706Y268699D02*
X373000D01*
X254606Y267799D02*
X373000D01*
X255506Y266899D02*
X373000D01*
X256406Y265999D02*
X373000D01*
X257306Y265099D02*
X373000D01*
X258206Y264199D02*
X373000D01*
X259106Y263299D02*
X373000D01*
X260006Y262399D02*
X373000D01*
X260906Y261499D02*
X373000D01*
X261806Y260599D02*
X373000D01*
X310092Y259699D02*
X373000D01*
X312226Y258799D02*
X373000D01*
X312878Y257899D02*
X373000D01*
X313161Y256999D02*
X373000D01*
X313175Y256099D02*
X373000D01*
X312923Y255199D02*
X373000D01*
X312323Y254299D02*
X373000D01*
X311700Y253399D02*
X373000D01*
X311624Y252499D02*
X373000D01*
X311003Y251599D02*
X373000D01*
X310103Y250699D02*
X373000D01*
X309203Y249799D02*
X373000D01*
X308303Y248899D02*
X373000D01*
X351204Y247999D02*
X373000D01*
X352634Y247099D02*
X373000D01*
X353287Y246199D02*
X373000D01*
X353613Y245299D02*
X373000D01*
X353699Y244399D02*
X373000D01*
X353562Y243499D02*
X373000D01*
X353174Y242599D02*
X373000D01*
X352417Y241699D02*
X373000D01*
X336592Y240799D02*
X373000D01*
X336355Y239899D02*
X373000D01*
X335660Y238999D02*
X373000D01*
X299700Y238099D02*
X373000D01*
X309388Y237199D02*
X373000D01*
X310252Y236299D02*
X373000D01*
X310569Y235399D02*
X373000D01*
X310551Y234499D02*
X373000D01*
X310190Y233599D02*
X373000D01*
X309210Y232699D02*
X373000D01*
X272200Y231799D02*
X373000D01*
X272200Y230899D02*
X373000D01*
X272200Y229999D02*
X373000D01*
X272200Y229099D02*
X373000D01*
X337720Y228199D02*
X373000D01*
X338647Y227299D02*
X373000D01*
X339071Y226399D02*
X373000D01*
X339200Y225499D02*
X373000D01*
X339070Y224599D02*
X373000D01*
X338645Y223699D02*
X373000D01*
X349377Y222799D02*
X373000D01*
X349940Y221899D02*
X373000D01*
X350100Y220999D02*
X373000D01*
X349939Y220099D02*
X373000D01*
X349375Y219199D02*
X373000D01*
X340752Y218299D02*
X373000D01*
X341069Y217399D02*
X373000D01*
X341051Y216499D02*
X373000D01*
X340690Y215599D02*
X373000D01*
X339710Y214699D02*
X373000D01*
X328700Y213799D02*
X373000D01*
X328700Y212899D02*
X373000D01*
X328700Y211999D02*
X373000D01*
X328700Y211099D02*
X373000D01*
X328700Y210199D02*
X373000D01*
X328700Y209299D02*
X373000D01*
X328700Y208399D02*
X373000D01*
X328700Y207499D02*
X373000D01*
X328700Y206599D02*
X373000D01*
X328700Y205699D02*
X373000D01*
X328700Y204799D02*
X373000D01*
X328700Y203899D02*
X373000D01*
X328700Y202999D02*
X373000D01*
X328700Y202099D02*
X373000D01*
X328700Y201199D02*
X373000D01*
X328700Y200299D02*
X373000D01*
X328700Y199399D02*
X373000D01*
X328700Y198499D02*
X373000D01*
X328700Y197599D02*
X373000D01*
X328700Y196699D02*
X373000D01*
X328700Y195799D02*
X373000D01*
X328700Y194899D02*
X373000D01*
X328700Y193999D02*
X373000D01*
X328700Y193099D02*
X373000D01*
X328700Y192199D02*
X373000D01*
X328700Y191299D02*
X373000D01*
X328697Y190399D02*
X373000D01*
X328374Y189499D02*
X373000D01*
X327503Y188599D02*
X373000D01*
X326603Y187699D02*
X373000D01*
X325703Y186799D02*
X373000D01*
X324803Y185899D02*
X373000D01*
X323903Y184999D02*
X373000D01*
X323003Y184099D02*
X373000D01*
X322694Y183199D02*
X373000D01*
X322622Y182299D02*
X373000D01*
X322271Y181399D02*
X373000D01*
X321496Y180499D02*
X373000D01*
X312200Y179599D02*
X373000D01*
X312200Y178699D02*
X373000D01*
X312200Y177799D02*
X373000D01*
X312200Y176899D02*
X373000D01*
X312200Y175999D02*
X373000D01*
X312200Y175099D02*
X373000D01*
X312200Y174199D02*
X373000D01*
X312200Y173299D02*
X373000D01*
X312200Y172399D02*
X373000D01*
X312200Y171499D02*
X373000D01*
X312200Y170599D02*
X373000D01*
X312200Y169699D02*
X373000D01*
X312200Y168799D02*
X373000D01*
X312200Y167899D02*
X373000D01*
X312200Y166999D02*
X373000D01*
X312200Y166099D02*
X373000D01*
X312200Y165199D02*
X373000D01*
X312200Y164299D02*
X373000D01*
X312200Y163399D02*
X373000D01*
X312200Y162499D02*
X373000D01*
X312200Y161599D02*
X373000D01*
X312200Y160699D02*
X373000D01*
X312200Y159799D02*
X373000D01*
X312200Y158899D02*
X373000D01*
X312200Y157999D02*
X373000D01*
X312200Y157099D02*
X373000D01*
X312200Y156199D02*
X373000D01*
X344715Y155299D02*
X373000D01*
X345692Y154399D02*
X373000D01*
X346052Y153499D02*
X373000D01*
X346069Y152599D02*
X373000D01*
X345751Y151699D02*
X373000D01*
X344884Y150799D02*
X373000D01*
X311289Y149899D02*
X373000D01*
X299300Y148999D02*
X373000D01*
X299300Y148099D02*
X373000D01*
X299300Y147199D02*
X373000D01*
X299300Y146299D02*
X373000D01*
X299300Y145399D02*
X373000D01*
X299300Y144499D02*
X373000D01*
X299300Y143599D02*
X373000D01*
X299300Y142699D02*
X373000D01*
X299300Y141799D02*
X373000D01*
X299300Y140899D02*
X373000D01*
X299300Y139999D02*
X373000D01*
X299300Y139099D02*
X373000D01*
X299300Y138199D02*
X373000D01*
X299300Y137299D02*
X373000D01*
X299300Y136399D02*
X373000D01*
X299300Y135499D02*
X373000D01*
X299300Y134599D02*
X373000D01*
X299300Y133699D02*
X373000D01*
X299300Y132799D02*
X373000D01*
X299300Y131899D02*
X373000D01*
X299300Y130999D02*
X373000D01*
X299300Y130099D02*
X373000D01*
X299300Y129199D02*
X373000D01*
X299300Y128299D02*
X373000D01*
X299300Y127399D02*
X373000D01*
X299300Y126499D02*
X373000D01*
X299300Y125599D02*
X373000D01*
X299706Y124699D02*
X373000D01*
X300606Y123799D02*
X373000D01*
X301506Y122899D02*
X373000D01*
X302406Y121999D02*
X373000D01*
X315076Y121099D02*
X373000D01*
X316253Y120199D02*
X373000D01*
X316919Y119299D02*
X373000D01*
X317312Y118399D02*
X373000D01*
X317500Y117499D02*
X373000D01*
X317509Y116599D02*
X373000D01*
X317341Y115699D02*
X373000D01*
X316973Y114799D02*
X373000D01*
X316342Y113899D02*
X373000D01*
X315248Y112999D02*
X373000D01*
X230568Y112099D02*
X373000D01*
X229352Y111199D02*
X373000D01*
X104000Y110299D02*
X373000D01*
X104000Y109399D02*
X373000D01*
X104000Y108499D02*
X373000D01*
X104000Y107599D02*
X373000D01*
X104000Y106699D02*
X373000D01*
X104000Y105799D02*
X373000D01*
X104000Y104899D02*
X373000D01*
X327204Y279499D02*
X351796D01*
X328417Y273199D02*
X350583D01*
X328634Y278599D02*
X350366D01*
X329174Y274099D02*
X349826D01*
X329287Y277699D02*
X349713D01*
X329562Y274999D02*
X349438D01*
X329613Y276799D02*
X349387D01*
X329699Y275899D02*
X349301D01*
X307403Y247999D02*
X348796D01*
X336504Y241699D02*
X347583D01*
X328035Y247099D02*
X347366D01*
X336050Y242599D02*
X346826D01*
X328807Y246199D02*
X346713D01*
X334719Y243499D02*
X346438D01*
X329083Y245299D02*
X346387D01*
X329030Y244399D02*
X346301D01*
X339888Y219199D02*
X345625D01*
X337716Y222799D02*
X345623D01*
X337356Y220099D02*
X345061D01*
X334803Y221899D02*
X345060D01*
X336663Y220999D02*
X344900D01*
X312726Y155299D02*
X342285D01*
X312823Y150799D02*
X342116D01*
X313378Y154399D02*
X341308D01*
X313423Y151699D02*
X341249D01*
X313661Y153499D02*
X340948D01*
X313675Y152599D02*
X340931D01*
X328700Y214699D02*
X337290D01*
X328700Y215599D02*
X336310D01*
X335710Y216499D02*
X335949D01*
X329403D02*
X334290D01*
X272200Y228199D02*
X334280D01*
X272200Y227299D02*
X333353D01*
X328623Y243499D02*
X333281D01*
X330303Y217399D02*
X332952D01*
X288663Y226399D02*
X332929D01*
X289356Y225499D02*
X332800D01*
X289592Y224599D02*
X332694D01*
X331203Y218299D02*
X332496D01*
X332103Y219199D02*
X332408D01*
X299700Y238999D02*
X332340D01*
X327497Y242599D02*
X331950D01*
X289504Y223699D02*
X331794D01*
X299700Y239899D02*
X331645D01*
X301103Y241699D02*
X331496D01*
X300203Y240799D02*
X331408D01*
X289048Y222799D02*
X330894D01*
X287710Y221899D02*
X329994D01*
X272200Y220999D02*
X329094D01*
X272200Y220099D02*
X328194D01*
X319888Y219199D02*
X327294D01*
X320752Y218299D02*
X326394D01*
X321069Y217399D02*
X325557D01*
X302003Y242599D02*
X325503D01*
X321051Y216499D02*
X325300D01*
X320690Y215599D02*
X325300D01*
X319710Y214699D02*
X325300D01*
X272200Y213799D02*
X325300D01*
X273076Y212899D02*
X325300D01*
X273540Y211999D02*
X325300D01*
X273698Y211099D02*
X325300D01*
X273598Y210199D02*
X325300D01*
X273210Y209299D02*
X325300D01*
X272364Y208399D02*
X325300D01*
X269403Y207499D02*
X325300D01*
X268503Y206599D02*
X325300D01*
X267603Y205699D02*
X325300D01*
X266703Y204799D02*
X325300D01*
X265803Y203899D02*
X325300D01*
X264903Y202999D02*
X325300D01*
X264003Y202099D02*
X325300D01*
X263103Y201199D02*
X325300D01*
X262203Y200299D02*
X325300D01*
X257913Y199399D02*
X325300D01*
X256610Y198499D02*
X325300D01*
X255306Y197599D02*
X325300D01*
X256206Y196699D02*
X325300D01*
X321052Y195799D02*
X325300D01*
X322076Y194899D02*
X325300D01*
X322540Y193999D02*
X325300D01*
X322698Y193099D02*
X325300D01*
X322598Y192199D02*
X325300D01*
X322210Y191299D02*
X325300D01*
X306503Y247099D02*
X324965D01*
X291704Y279499D02*
X324796D01*
X321364Y190399D02*
X324494D01*
X302903Y243499D02*
X324377D01*
X305603Y246199D02*
X324193D01*
X303803Y244399D02*
X323970D01*
X304703Y245299D02*
X323917D01*
X321625Y189499D02*
X323594D01*
X292917Y273199D02*
X323583D01*
X293134Y278599D02*
X323366D01*
X293674Y274099D02*
X322826D01*
X293787Y277699D02*
X322713D01*
X322030Y188599D02*
X322694D01*
X294062Y274999D02*
X322438D01*
X294113Y276799D02*
X322387D01*
X294199Y275899D02*
X322301D01*
X314803Y185899D02*
X317969D01*
X257106Y195799D02*
X317948D01*
X312200Y180499D02*
X317504D01*
X305810Y214699D02*
X317290D01*
X315703Y186799D02*
X317194D01*
X305988Y219199D02*
X317112D01*
X313903Y184999D02*
X317001D01*
X258006Y194899D02*
X316924D01*
X316603Y187699D02*
X316917D01*
X312200Y181399D02*
X316729D01*
X313003Y184099D02*
X316495D01*
X258906Y193999D02*
X316460D01*
X312200Y182299D02*
X316378D01*
X306790Y215599D02*
X316310D01*
X312200Y183199D02*
X316306D01*
X259806Y193099D02*
X316302D01*
X297692Y192199D02*
X316294D01*
X306852Y218299D02*
X316248D01*
X307151Y216499D02*
X315949D01*
X307169Y217399D02*
X315931D01*
X250799Y290299D02*
X315485D01*
X243906Y295699D02*
X315471D01*
X299826Y191299D02*
X315394D01*
X206219Y483799D02*
X315049D01*
X248303Y347899D02*
X314655D01*
X300478Y190399D02*
X314494D01*
X104000Y394699D02*
X314494D01*
X104000Y399199D02*
X314348D01*
X104000Y461299D02*
X314258D01*
X243803Y343399D02*
X314226D01*
X248406Y291199D02*
X313922D01*
X244806Y294799D02*
X313920D01*
X204524Y493699D02*
X313839D01*
X247403Y346999D02*
X313694D01*
X104000Y395599D02*
X313634D01*
X300761Y189499D02*
X313594D01*
X104000Y398299D02*
X313576D01*
X244703Y344299D02*
X313526D01*
X247506Y292099D02*
X313402D01*
X245706Y293899D02*
X313401D01*
X205461Y472999D02*
X313393D01*
X246503Y346099D02*
X313316D01*
X104000Y396499D02*
X313296D01*
X104000Y397399D02*
X313279D01*
X245603Y345199D02*
X313267D01*
X246606Y292999D02*
X313250D01*
X206830Y484699D02*
X313235D01*
X304360Y188599D02*
X312694D01*
X205676Y492799D02*
X312662D01*
X204352Y462199D02*
X312614D01*
X207255Y485599D02*
X312306D01*
X206300Y472099D02*
X312139D01*
X206449Y491899D02*
X311944D01*
X306031Y187699D02*
X311794D01*
X207530Y486499D02*
X311714D01*
X205568Y463099D02*
X311646D01*
X206992Y490999D02*
X311483D01*
X207673Y487399D02*
X311343D01*
X206887Y471199D02*
X311327D01*
X207363Y490099D02*
X311213D01*
X207693Y488299D02*
X311146D01*
X207592Y489199D02*
X311104D01*
X206374Y463999D02*
X310987D01*
X306733Y186799D02*
X310894D01*
X207293Y470299D02*
X310765D01*
X307202Y121099D02*
X310672D01*
X206939Y464899D02*
X310532D01*
X307374Y112999D02*
X310500D01*
X207552Y469399D02*
X310385D01*
X207328Y465799D02*
X310238D01*
X207681Y468499D02*
X310154D01*
X207572Y466699D02*
X310083D01*
X207688Y467599D02*
X310055D01*
X307089Y185899D02*
X309994D01*
X262706Y259699D02*
X309908D01*
X299300Y149899D02*
X309711D01*
X308379Y120199D02*
X309495D01*
X308468Y113899D02*
X309406D01*
X307200Y184999D02*
X309124D01*
X307089Y184099D02*
X308803D01*
X306732Y183199D02*
X308800D01*
X306028Y182299D02*
X308800D01*
X304349Y181399D02*
X308800D01*
X299300Y180499D02*
X308800D01*
X299300Y179599D02*
X308800D01*
X299300Y178699D02*
X308800D01*
X299300Y177799D02*
X308800D01*
X299300Y176899D02*
X308800D01*
X299300Y175999D02*
X308800D01*
X299300Y175099D02*
X308800D01*
X299300Y174199D02*
X308800D01*
X299300Y173299D02*
X308800D01*
X299300Y172399D02*
X308800D01*
X299300Y171499D02*
X308800D01*
X299300Y170599D02*
X308800D01*
X299300Y169699D02*
X308800D01*
X299300Y168799D02*
X308800D01*
X299300Y167899D02*
X308800D01*
X299300Y166999D02*
X308800D01*
X299300Y166099D02*
X308800D01*
X299300Y165199D02*
X308800D01*
X299300Y164299D02*
X308800D01*
X299300Y163399D02*
X308800D01*
X299300Y162499D02*
X308800D01*
X299300Y161599D02*
X308800D01*
X299300Y160699D02*
X308800D01*
X299300Y159799D02*
X308800D01*
X299300Y158899D02*
X308800D01*
X299300Y157999D02*
X308800D01*
X299300Y157099D02*
X308800D01*
X299300Y156199D02*
X308800D01*
X299300Y155299D02*
X308274D01*
X299300Y150799D02*
X308177D01*
X288863Y253399D02*
X307994D01*
X263606Y258799D02*
X307774D01*
X268106Y254299D02*
X307677D01*
X299300Y154399D02*
X307622D01*
X299300Y151699D02*
X307577D01*
X299300Y153499D02*
X307339D01*
X299300Y152599D02*
X307325D01*
X264506Y257899D02*
X307122D01*
X289556Y252499D02*
X307094D01*
X267206Y255199D02*
X307077D01*
X265406Y256999D02*
X306839D01*
X266306Y256099D02*
X306825D01*
X300224Y232699D02*
X306790D01*
X300325Y237199D02*
X306612D01*
X289792Y251599D02*
X306194D01*
X300877Y233599D02*
X305810D01*
X300925Y236299D02*
X305748D01*
X301161Y234499D02*
X305449D01*
X301175Y235399D02*
X305431D01*
X289704Y250699D02*
X305294D01*
X289248Y249799D02*
X304394D01*
X287910Y248899D02*
X303494D01*
X272200Y214699D02*
X303390D01*
X272200Y219199D02*
X303212D01*
X299300Y181399D02*
X302651D01*
X300775Y188599D02*
X302640D01*
X280496Y112999D02*
X302626D01*
X272200Y247999D02*
X302594D01*
X272200Y215599D02*
X302410D01*
X272200Y218299D02*
X302348D01*
X272200Y216499D02*
X302049D01*
X272200Y217399D02*
X302031D01*
X272200Y247099D02*
X301694D01*
X281591Y113899D02*
X301532D01*
X299300Y182299D02*
X300972D01*
X300523Y187699D02*
X300969D01*
X282221Y114799D02*
X300901D01*
X272200Y246199D02*
X300794D01*
X282560Y118399D02*
X300562D01*
X282589Y115699D02*
X300533D01*
X282748Y117499D02*
X300374D01*
X282757Y116599D02*
X300365D01*
X282167Y119299D02*
X300297D01*
X299300Y183199D02*
X300268D01*
X299923Y186799D02*
X300267D01*
X299300Y184099D02*
X299911D01*
X299300Y185899D02*
X299911D01*
X272200Y245299D02*
X299894D01*
X299300Y184999D02*
X299800D01*
X281501Y120199D02*
X299397D01*
X272200Y244399D02*
X298994D01*
X280324Y121099D02*
X298497D01*
X272200Y243499D02*
X298094D01*
X230461Y121999D02*
X297597D01*
X260706Y192199D02*
X297508D01*
X272200Y242599D02*
X297194D01*
X229177Y122899D02*
X296697D01*
X272200Y241699D02*
X296450D01*
X272200Y240799D02*
X296300D01*
X272200Y239899D02*
X296300D01*
X272200Y238999D02*
X296300D01*
X272200Y238099D02*
X296300D01*
X219970Y123799D02*
X296010D01*
X267006Y185899D02*
X295900D01*
X267906Y184999D02*
X295900D01*
X268806Y184099D02*
X295900D01*
X269706Y183199D02*
X295900D01*
X270606Y182299D02*
X295900D01*
X271506Y181399D02*
X295900D01*
X272406Y180499D02*
X295900D01*
X273306Y179599D02*
X295900D01*
X274206Y178699D02*
X295900D01*
X275106Y177799D02*
X295900D01*
X276006Y176899D02*
X295900D01*
X276906Y175999D02*
X295900D01*
X277806Y175099D02*
X295900D01*
X278705Y174199D02*
X295900D01*
X279174Y173299D02*
X295900D01*
X279200Y172399D02*
X295900D01*
X279200Y171499D02*
X295900D01*
X279200Y170599D02*
X295900D01*
X279200Y169699D02*
X295900D01*
X279200Y168799D02*
X295900D01*
X279200Y167899D02*
X295900D01*
X279200Y166999D02*
X295900D01*
X279200Y166099D02*
X295900D01*
X279200Y165199D02*
X295900D01*
X279200Y164299D02*
X295900D01*
X279200Y163399D02*
X295900D01*
X279200Y162499D02*
X295900D01*
X279200Y161599D02*
X295900D01*
X279200Y160699D02*
X295900D01*
X279200Y159799D02*
X295900D01*
X279200Y158899D02*
X295900D01*
X279200Y157999D02*
X295900D01*
X279200Y157099D02*
X295900D01*
X279200Y156199D02*
X295900D01*
X280076Y155299D02*
X295900D01*
X280540Y154399D02*
X295900D01*
X280698Y153499D02*
X295900D01*
X280598Y152599D02*
X295900D01*
X280210Y151699D02*
X295900D01*
X279364Y150799D02*
X295900D01*
X104000Y149899D02*
X295900D01*
X104000Y148999D02*
X295900D01*
X104000Y148099D02*
X295900D01*
X104000Y147199D02*
X295900D01*
X104000Y146299D02*
X295900D01*
X104000Y145399D02*
X295900D01*
X104000Y144499D02*
X295900D01*
X227161Y143599D02*
X295900D01*
X229524Y142699D02*
X295900D01*
X230676Y141799D02*
X295900D01*
X231449Y140899D02*
X295900D01*
X231992Y139999D02*
X295900D01*
X232363Y139099D02*
X295900D01*
X232592Y138199D02*
X295900D01*
X232693Y137299D02*
X295900D01*
X232673Y136399D02*
X295900D01*
X232530Y135499D02*
X295900D01*
X232255Y134599D02*
X295900D01*
X231830Y133699D02*
X295900D01*
X231219Y132799D02*
X295900D01*
X230344Y131899D02*
X295900D01*
X228979Y130999D02*
X295900D01*
X220051Y130099D02*
X295900D01*
X220602Y129199D02*
X295900D01*
X220932Y128299D02*
X295900D01*
X221084Y127399D02*
X295900D01*
X221075Y126499D02*
X295900D01*
X220904Y125599D02*
X295900D01*
X220551Y124699D02*
X295900D01*
X272200Y232699D02*
X295776D01*
X272200Y237199D02*
X295675D01*
X261606Y191299D02*
X295374D01*
X266106Y186799D02*
X295277D01*
X272200Y233599D02*
X295123D01*
X272200Y236299D02*
X295075D01*
X272200Y234499D02*
X294839D01*
X272200Y235399D02*
X294825D01*
X262506Y190399D02*
X294722D01*
X265206Y187699D02*
X294677D01*
X263406Y189499D02*
X294439D01*
X264306Y188599D02*
X294425D01*
X104000Y359599D02*
X293301D01*
X254603Y354199D02*
X291876D01*
X104000Y358699D02*
X291775D01*
X104000Y405499D02*
X290290D01*
X238304Y306499D02*
X290281D01*
X240077Y301999D02*
X289340D01*
X104000Y409999D02*
X289337D01*
X266204Y279499D02*
X289296D01*
X104000Y406399D02*
X288952D01*
X239525Y305599D02*
X288950D01*
X240361Y302899D02*
X288645D01*
X104000Y409099D02*
X288644D01*
X104000Y407299D02*
X288496D01*
X240125Y304699D02*
X288496D01*
X240375Y303799D02*
X288408D01*
X104000Y408199D02*
X288408D01*
X267417Y273199D02*
X288083D01*
X267634Y278599D02*
X287866D01*
X268174Y274099D02*
X287326D01*
X268287Y277699D02*
X287213D01*
X268562Y274999D02*
X286938D01*
X268613Y276799D02*
X286887D01*
X268699Y275899D02*
X286801D01*
X272200Y248899D02*
X286490D01*
X272200Y221899D02*
X286290D01*
X269006Y253399D02*
X285537D01*
X272200Y226399D02*
X285337D01*
X239516Y321799D02*
X285284D01*
X268122Y327199D02*
X285280D01*
X272174Y249799D02*
X285152D01*
X272200Y222799D02*
X284952D01*
X269906Y252499D02*
X284844D01*
X271705Y250699D02*
X284696D01*
X272200Y225499D02*
X284644D01*
X270806Y251599D02*
X284608D01*
X272200Y223699D02*
X284496D01*
X272200Y224599D02*
X284408D01*
X267512Y326299D02*
X284353D01*
X104000Y374899D02*
X279890D01*
X104000Y370399D02*
X279752D01*
X104000Y421699D02*
X279694D01*
X267037Y426199D02*
X279548D01*
X104000Y373999D02*
X279032D01*
X104000Y371299D02*
X278977D01*
X104000Y422599D02*
X278834D01*
X266377Y425299D02*
X278776D01*
X104000Y373099D02*
X278696D01*
X104000Y372199D02*
X278679D01*
X104000Y423499D02*
X278496D01*
X265057Y424399D02*
X278479D01*
X264576Y121099D02*
X275920D01*
X246100Y171499D02*
X275800D01*
X246100Y170599D02*
X275800D01*
X246100Y169699D02*
X275800D01*
X246100Y168799D02*
X275800D01*
X246100Y167899D02*
X275800D01*
X246100Y166999D02*
X275800D01*
X246100Y166099D02*
X275800D01*
X246100Y165199D02*
X275800D01*
X246100Y164299D02*
X275800D01*
X246100Y163399D02*
X275800D01*
X246100Y162499D02*
X275800D01*
X246100Y161599D02*
X275800D01*
X246100Y160699D02*
X275800D01*
X246100Y159799D02*
X275800D01*
X246100Y158899D02*
X275800D01*
X246100Y157999D02*
X275800D01*
X246100Y157099D02*
X275800D01*
X246100Y156199D02*
X275800D01*
X264748Y112999D02*
X275748D01*
X246100Y172399D02*
X275697D01*
X246264Y150799D02*
X275636D01*
X246976Y155299D02*
X274924D01*
X246100Y173299D02*
X274797D01*
X247110Y151699D02*
X274790D01*
X271472Y120199D02*
X274743D01*
X271701Y113899D02*
X274654D01*
X247440Y154399D02*
X274460D01*
X247498Y152599D02*
X274402D01*
X247598Y153499D02*
X274302D01*
X272787Y119299D02*
X274077D01*
X272872Y114799D02*
X274023D01*
X246100Y174199D02*
X273897D01*
X273374Y118399D02*
X273684D01*
X273416Y115699D02*
X273655D01*
X246100Y175099D02*
X272997D01*
X246100Y175999D02*
X272097D01*
X246100Y176899D02*
X271197D01*
X246100Y177799D02*
X270297D01*
X246100Y178699D02*
X269397D01*
X265753Y120199D02*
X269024D01*
X171200Y247999D02*
X268800D01*
X171200Y247099D02*
X268800D01*
X171200Y246199D02*
X268800D01*
X171200Y245299D02*
X268800D01*
X171200Y244399D02*
X268800D01*
X171200Y243499D02*
X268800D01*
X171200Y242599D02*
X268800D01*
X171200Y241699D02*
X268800D01*
X171200Y240799D02*
X268800D01*
X171200Y239899D02*
X268800D01*
X171200Y238999D02*
X268800D01*
X250471Y238099D02*
X268800D01*
X252400Y237199D02*
X268800D01*
X253276Y236299D02*
X268800D01*
X253799Y235399D02*
X268800D01*
X254093Y234499D02*
X268800D01*
X254199Y233599D02*
X268800D01*
X254131Y232699D02*
X268800D01*
X253881Y231799D02*
X268800D01*
X253415Y230899D02*
X268800D01*
X252635Y229999D02*
X268800D01*
X251149Y229099D02*
X268800D01*
X197406Y228199D02*
X268800D01*
X198306Y227299D02*
X268800D01*
X199206Y226399D02*
X268800D01*
X200106Y225499D02*
X268800D01*
X201006Y224599D02*
X268800D01*
X201906Y223699D02*
X268800D01*
X202806Y222799D02*
X268800D01*
X203706Y221899D02*
X268800D01*
X204606Y220999D02*
X268800D01*
X205506Y220099D02*
X268800D01*
X206406Y219199D02*
X268800D01*
X207306Y218299D02*
X268800D01*
X240706Y217399D02*
X268800D01*
X243552Y216499D02*
X268800D01*
X244576Y215599D02*
X268800D01*
X245040Y214699D02*
X268800D01*
X245198Y213799D02*
X268800D01*
X265842Y113899D02*
X268795D01*
X171200Y248899D02*
X268697D01*
X246100Y179599D02*
X268497D01*
X245206Y212899D02*
X267924D01*
X171200Y249799D02*
X267797D01*
X266419Y119299D02*
X267709D01*
X266473Y114799D02*
X267624D01*
X246100Y180499D02*
X267597D01*
X246106Y211999D02*
X267460D01*
X247006Y211099D02*
X267302D01*
X247906Y210199D02*
X267294D01*
X266812Y118399D02*
X267122D01*
X266841Y115699D02*
X267080D01*
X171385Y250699D02*
X266897D01*
X246100Y181399D02*
X266697D01*
X248806Y209299D02*
X266394D01*
X172285Y251599D02*
X265997D01*
X246100Y182299D02*
X265797D01*
X258003Y208399D02*
X265494D01*
X173185Y252499D02*
X265097D01*
X246100Y183199D02*
X264897D01*
X259125Y207499D02*
X264594D01*
X174085Y253399D02*
X264197D01*
X246100Y184099D02*
X263997D01*
X242906Y279499D02*
X263796D01*
X259530Y206599D02*
X263694D01*
X174985Y254299D02*
X263297D01*
X246100Y184999D02*
X263097D01*
X259583Y205699D02*
X262794D01*
X249206Y273199D02*
X262583D01*
X175885Y255199D02*
X262397D01*
X243806Y278599D02*
X262366D01*
X246100Y185899D02*
X262197D01*
X104000Y424399D02*
X261943D01*
X259306Y204799D02*
X261894D01*
X248306Y274099D02*
X261826D01*
X244706Y277699D02*
X261713D01*
X215755Y431599D02*
X261530D01*
X176785Y256099D02*
X261497D01*
X247406Y274999D02*
X261438D01*
X245606Y276799D02*
X261387D01*
X246506Y275899D02*
X261301D01*
X246100Y186799D02*
X261297D01*
X104000Y334399D02*
X261225D01*
X258531Y203899D02*
X260994D01*
X104000Y425299D02*
X260623D01*
X177685Y256999D02*
X260597D01*
X215060Y430699D02*
X260439D01*
X246100Y187699D02*
X260397D01*
X231300Y121099D02*
X260172D01*
X231374Y112999D02*
X260000D01*
X104000Y426199D02*
X259963D01*
X104000Y333499D02*
X259912D01*
X104000Y429799D02*
X259862D01*
X178585Y257899D02*
X259697D01*
X104000Y427099D02*
X259611D01*
X104000Y428899D02*
X259565D01*
X246100Y188599D02*
X259497D01*
X209496Y326299D02*
X259488D01*
X104000Y427999D02*
X259486D01*
X104000Y332599D02*
X259148D01*
X255724Y120199D02*
X258995D01*
X255953Y113899D02*
X258906D01*
X208596Y327199D02*
X258878D01*
X179485Y258799D02*
X258797D01*
X203458Y331699D02*
X258663D01*
X246100Y189499D02*
X258597D01*
X207696Y328099D02*
X258499D01*
X204996Y330799D02*
X258379D01*
X257039Y119299D02*
X258329D01*
X206796Y328999D02*
X258300D01*
X257124Y114799D02*
X258275D01*
X205896Y329899D02*
X258261D01*
X257626Y118399D02*
X257936D01*
X257668Y115699D02*
X257907D01*
X180385Y259699D02*
X257897D01*
X246100Y190399D02*
X257697D01*
X181285Y260599D02*
X256997D01*
X246100Y191299D02*
X256797D01*
X182185Y261499D02*
X256097D01*
X249706Y208399D02*
X255997D01*
X246100Y192199D02*
X255897D01*
X183085Y262399D02*
X255197D01*
X246100Y193099D02*
X254997D01*
X250606Y207499D02*
X254875D01*
X251200Y204799D02*
X254694D01*
X251153Y206599D02*
X254470D01*
X251200Y205699D02*
X254417D01*
X240375Y263299D02*
X254297D01*
X246100Y193999D02*
X254097D01*
X104000Y357799D02*
X253403D01*
X240939Y264199D02*
X253397D01*
X251200Y203899D02*
X253382D01*
X231887Y120199D02*
X253276D01*
X246100Y194899D02*
X253197D01*
X231939Y113899D02*
X253047D01*
X251200Y202999D02*
X252673D01*
X241100Y265099D02*
X252497D01*
X104000Y356899D02*
X252494D01*
X251200Y202099D02*
X252356D01*
X251706Y201199D02*
X252314D01*
X246100Y195799D02*
X252297D01*
X232293Y119299D02*
X251961D01*
X232328Y114799D02*
X251876D01*
X240940Y265999D02*
X251597D01*
X104000Y355999D02*
X251594D01*
X246100Y196699D02*
X251397D01*
X232552Y118399D02*
X251374D01*
X232572Y115699D02*
X251332D01*
X232681Y117499D02*
X251112D01*
X232688Y116599D02*
X251099D01*
X240377Y266899D02*
X250697D01*
X104000Y355099D02*
X250694D01*
X246100Y197599D02*
X250497D01*
X188485Y267799D02*
X249797D01*
X104000Y354199D02*
X249794D01*
X246100Y198499D02*
X249597D01*
X189385Y268699D02*
X248897D01*
X104000Y353299D02*
X248894D01*
X246100Y199399D02*
X248697D01*
X171200Y238099D02*
X248529D01*
X190285Y269599D02*
X247997D01*
X104000Y352399D02*
X247994D01*
X246100Y200299D02*
X247951D01*
X196506Y229099D02*
X247851D01*
X246100Y204799D02*
X247800D01*
X246100Y203899D02*
X247800D01*
X246100Y202999D02*
X247800D01*
X246100Y202099D02*
X247800D01*
X246100Y201199D02*
X247800D01*
X232006Y284899D02*
X247776D01*
X246100Y205699D02*
X247597D01*
X231106Y285799D02*
X247123D01*
X191185Y270499D02*
X247097D01*
X104000Y351499D02*
X247094D01*
X230206Y286699D02*
X246839D01*
X229306Y287599D02*
X246825D01*
X246100Y206599D02*
X246697D01*
X171200Y237199D02*
X246600D01*
X196194Y229999D02*
X246365D01*
X228406Y288499D02*
X246297D01*
X192303Y271399D02*
X246197D01*
X104000Y350599D02*
X246194D01*
X171200Y236299D02*
X245724D01*
X196123Y230899D02*
X245585D01*
X228200Y289399D02*
X245397D01*
X192773Y272299D02*
X245297D01*
X104000Y349699D02*
X245294D01*
X171200Y235399D02*
X245201D01*
X195772Y231799D02*
X245119D01*
X171200Y234499D02*
X244907D01*
X194999Y232699D02*
X244869D01*
X171200Y233599D02*
X244801D01*
X228200Y290299D02*
X244497D01*
X240047Y273199D02*
X244397D01*
X104000Y348799D02*
X244394D01*
X237777Y310099D02*
X244177D01*
X228200Y291199D02*
X243597D01*
X241074Y274099D02*
X243497D01*
X104000Y347899D02*
X243494D01*
X230143Y310999D02*
X242783D01*
X104000Y205699D02*
X242700D01*
X104000Y204799D02*
X242700D01*
X104000Y203899D02*
X242700D01*
X104000Y202999D02*
X242700D01*
X104000Y202099D02*
X242700D01*
X104000Y201199D02*
X242700D01*
X104000Y200299D02*
X242700D01*
X104000Y199399D02*
X242700D01*
X104000Y198499D02*
X242700D01*
X104000Y197599D02*
X242700D01*
X104000Y196699D02*
X242700D01*
X104000Y195799D02*
X242700D01*
X104000Y194899D02*
X242700D01*
X104000Y193999D02*
X242700D01*
X104000Y193099D02*
X242700D01*
X104000Y192199D02*
X242700D01*
X104000Y191299D02*
X242700D01*
X104000Y190399D02*
X242700D01*
X104000Y189499D02*
X242700D01*
X104000Y188599D02*
X242700D01*
X104000Y187699D02*
X242700D01*
X104000Y186799D02*
X242700D01*
X104000Y185899D02*
X242700D01*
X104000Y184999D02*
X242700D01*
X104000Y184099D02*
X242700D01*
X104000Y183199D02*
X242700D01*
X104000Y182299D02*
X242700D01*
X104000Y181399D02*
X242700D01*
X104000Y180499D02*
X242700D01*
X104000Y179599D02*
X242700D01*
X104000Y178699D02*
X242700D01*
X104000Y177799D02*
X242700D01*
X104000Y176899D02*
X242700D01*
X104000Y175999D02*
X242700D01*
X104000Y175099D02*
X242700D01*
X104000Y174199D02*
X242700D01*
X104000Y173299D02*
X242700D01*
X104000Y172399D02*
X242700D01*
X104000Y171499D02*
X242700D01*
X104000Y170599D02*
X242700D01*
X104000Y169699D02*
X242700D01*
X104000Y168799D02*
X242700D01*
X104000Y167899D02*
X242700D01*
X104000Y166999D02*
X242700D01*
X104000Y166099D02*
X242700D01*
X104000Y165199D02*
X242700D01*
X104000Y164299D02*
X242700D01*
X104000Y163399D02*
X242700D01*
X104000Y162499D02*
X242700D01*
X104000Y161599D02*
X242700D01*
X104000Y160699D02*
X242700D01*
X104000Y159799D02*
X242700D01*
X104000Y158899D02*
X242700D01*
X104000Y157999D02*
X242700D01*
X104000Y157099D02*
X242700D01*
X104000Y156199D02*
X242700D01*
X228200Y292099D02*
X242697D01*
X241539Y274999D02*
X242597D01*
X104000Y346999D02*
X242594D01*
X104000Y150799D02*
X242536D01*
X104000Y206599D02*
X242097D01*
X230186Y311899D02*
X241883D01*
X104000Y155299D02*
X241824D01*
X228200Y292999D02*
X241797D01*
X104000Y346099D02*
X241694D01*
X104000Y151699D02*
X241690D01*
X104000Y154399D02*
X241360D01*
X104000Y152599D02*
X241302D01*
X104000Y153499D02*
X241202D01*
X104000Y207499D02*
X241197D01*
X229967Y312799D02*
X240983D01*
X104000Y345199D02*
X240794D01*
X104000Y208399D02*
X240297D01*
X229416Y313699D02*
X240083D01*
X104000Y209299D02*
X239397D01*
X228117Y314599D02*
X239183D01*
X104000Y210199D02*
X238497D01*
X228200Y293899D02*
X238297D01*
X174403Y315499D02*
X238283D01*
X104000Y344299D02*
X237948D01*
X104000Y338899D02*
X237636D01*
X228216Y294799D02*
X237397D01*
X175303Y316399D02*
X237383D01*
X193597Y273199D02*
X236953D01*
X104000Y343399D02*
X236924D01*
X104000Y339799D02*
X236790D01*
X183985Y263299D02*
X236625D01*
X187585Y266899D02*
X236623D01*
X232906Y283999D02*
X236501D01*
X229145Y295699D02*
X236497D01*
X104000Y342499D02*
X236460D01*
X104000Y340699D02*
X236402D01*
X104000Y341599D02*
X236302D01*
X184885Y264199D02*
X236061D01*
X186685Y265999D02*
X236060D01*
X194105Y274099D02*
X235926D01*
X185785Y265099D02*
X235900D01*
X233806Y283099D02*
X235728D01*
X229570Y296599D02*
X235597D01*
X104000Y211099D02*
X235584D01*
X194294Y274999D02*
X235461D01*
X234706Y282199D02*
X235377D01*
X194223Y275899D02*
X235302D01*
X193872Y276799D02*
X235297D01*
X229700Y297499D02*
X234697D01*
X104000Y211999D02*
X234655D01*
X193099Y277699D02*
X234397D01*
X104000Y212899D02*
X234230D01*
X230871Y214699D02*
X234229D01*
X230906Y310099D02*
X234223D01*
X104000Y213799D02*
X234100D01*
X229571Y298399D02*
X233797D01*
X231806Y309199D02*
X233525D01*
X104000Y278599D02*
X233497D01*
X232706Y308299D02*
X233266D01*
X229147Y299299D02*
X232897D01*
X104000Y279499D02*
X232597D01*
X228220Y300199D02*
X231997D01*
X104000Y280399D02*
X231697D01*
X196997Y301099D02*
X231097D01*
X104000Y281299D02*
X230797D01*
X198123Y301999D02*
X230197D01*
X104000Y282199D02*
X229897D01*
X198530Y302899D02*
X229297D01*
X104000Y283099D02*
X228997D01*
X198583Y303799D02*
X228397D01*
X104000Y283999D02*
X228097D01*
X104000Y284899D02*
X227197D01*
X195384Y285799D02*
X226297D01*
X173503Y314599D02*
X225883D01*
X198307Y304699D02*
X225650D01*
X196251Y286699D02*
X225397D01*
X196569Y287599D02*
X224848D01*
X207161Y143599D02*
X224839D01*
X196569Y293899D02*
X224800D01*
X196551Y292999D02*
X224800D01*
X196190Y292099D02*
X224800D01*
X195210Y291199D02*
X224800D01*
X195215Y290299D02*
X224800D01*
X196192Y289399D02*
X224800D01*
X196552Y288499D02*
X224800D01*
X196252Y294799D02*
X224784D01*
X196307Y300199D02*
X224780D01*
X172603Y313699D02*
X224584D01*
X197535Y305599D02*
X224503D01*
X168103Y309199D02*
X224228D01*
X169003Y310099D02*
X224174D01*
X171703Y312799D02*
X224033D01*
X104000Y306499D02*
X223995D01*
X165710Y308299D02*
X223877D01*
X169903Y310999D02*
X223857D01*
X195388Y295699D02*
X223855D01*
X196583Y299299D02*
X223853D01*
X170803Y311899D02*
X223814D01*
X164864Y307399D02*
X223806D01*
X194997Y296599D02*
X223430D01*
X196530Y298399D02*
X223429D01*
X196123Y297499D02*
X223300D01*
X219166Y130999D02*
X223021D01*
X219031Y122899D02*
X222823D01*
X209352Y111199D02*
X222648D01*
X209524Y142699D02*
X222476D01*
X217419Y131899D02*
X221656D01*
X216999Y121999D02*
X221539D01*
X210568Y112099D02*
X221432D01*
X210676Y141799D02*
X221324D01*
X211219Y132799D02*
X220781D01*
X211300Y121099D02*
X220700D01*
X211374Y112999D02*
X220626D01*
X211449Y140899D02*
X220551D01*
X211830Y133699D02*
X220170D01*
X211887Y120199D02*
X220113D01*
X211939Y113899D02*
X220061D01*
X211992Y139999D02*
X220008D01*
X212255Y134599D02*
X219745D01*
X212293Y119299D02*
X219707D01*
X212328Y114799D02*
X219672D01*
X212363Y139099D02*
X219637D01*
X212530Y135499D02*
X219470D01*
X212552Y118399D02*
X219448D01*
X212572Y115699D02*
X219428D01*
X212592Y138199D02*
X219408D01*
X212673Y136399D02*
X219327D01*
X212681Y117499D02*
X219319D01*
X212688Y116599D02*
X219312D01*
X212693Y137299D02*
X219307D01*
X210461Y121999D02*
X215001D01*
X210344Y131899D02*
X214581D01*
X209177Y122899D02*
X212969D01*
X208979Y130999D02*
X212834D01*
X169749Y435199D02*
X212681D01*
X154470Y123799D02*
X212030D01*
X154551Y130099D02*
X211949D01*
X170486Y430699D02*
X211740D01*
X155051Y124699D02*
X211449D01*
X155102Y129199D02*
X211398D01*
X170838Y434299D02*
X211350D01*
X155404Y125599D02*
X211096D01*
X155432Y128299D02*
X211068D01*
X171120Y431599D02*
X211045D01*
X155575Y126499D02*
X210925D01*
X155584Y127399D02*
X210916D01*
X171260Y433399D02*
X210896D01*
X171343Y432499D02*
X210808D01*
X208120Y322699D02*
X208520D01*
X207220Y323599D02*
X207388D01*
X206320Y324499D02*
X206488D01*
X132710Y214699D02*
X206329D01*
X176203Y317299D02*
X205937D01*
X205420Y325399D02*
X205588D01*
X171615Y215599D02*
X205197D01*
X177103Y318199D02*
X204983D01*
X161661Y143599D02*
X204839D01*
X204520Y326299D02*
X204688D01*
X172326Y216499D02*
X204297D01*
X178003Y319099D02*
X204083D01*
X202585Y327199D02*
X203788D01*
X172643Y217399D02*
X203397D01*
X178903Y319999D02*
X203183D01*
X163479Y130999D02*
X203021D01*
X187003Y328099D02*
X202888D01*
X163677Y122899D02*
X202823D01*
X163852Y111199D02*
X202648D01*
X172686Y218299D02*
X202497D01*
X164024Y142699D02*
X202476D01*
X179803Y320899D02*
X202283D01*
X164844Y131899D02*
X201656D01*
X172467Y219199D02*
X201597D01*
X164961Y121999D02*
X201539D01*
X165068Y112099D02*
X201432D01*
X200716Y321799D02*
X201383D01*
X165176Y141799D02*
X201324D01*
X165719Y132799D02*
X200781D01*
X165800Y121099D02*
X200700D01*
X171916Y220099D02*
X200697D01*
X165874Y112999D02*
X200626D01*
X165949Y140899D02*
X200551D01*
X166330Y133699D02*
X200170D01*
X166387Y120199D02*
X200113D01*
X166439Y113899D02*
X200061D01*
X166492Y139999D02*
X200008D01*
X182161Y494599D02*
X199839D01*
X171200Y220999D02*
X199797D01*
X166755Y134599D02*
X199745D01*
X166793Y119299D02*
X199707D01*
X166828Y114799D02*
X199672D01*
X166863Y139099D02*
X199637D01*
X167030Y135499D02*
X199470D01*
X167052Y118399D02*
X199448D01*
X167072Y115699D02*
X199428D01*
X167092Y138199D02*
X199408D01*
X167173Y136399D02*
X199327D01*
X167181Y117499D02*
X199319D01*
X167188Y116599D02*
X199312D01*
X167193Y137299D02*
X199307D01*
X171200Y221899D02*
X198897D01*
X194166Y481999D02*
X198021D01*
X171200Y222799D02*
X197997D01*
X194031Y473899D02*
X197823D01*
X184352Y462199D02*
X197648D01*
X184524Y493699D02*
X197476D01*
X180703Y321799D02*
X197284D01*
X186103Y327199D02*
X197280D01*
X171200Y223699D02*
X197097D01*
X192419Y482899D02*
X196656D01*
X191999Y472999D02*
X196539D01*
X185568Y463099D02*
X196432D01*
X181603Y322699D02*
X196355D01*
X185203Y326299D02*
X196353D01*
X185676Y492799D02*
X196324D01*
X171200Y224599D02*
X196197D01*
X182503Y323599D02*
X195930D01*
X184303Y325399D02*
X195929D01*
X183403Y324499D02*
X195800D01*
X186219Y483799D02*
X195781D01*
X186300Y472099D02*
X195700D01*
X186374Y463999D02*
X195626D01*
X186449Y491899D02*
X195551D01*
X171200Y225499D02*
X195297D01*
X186830Y484699D02*
X195170D01*
X186887Y471199D02*
X195113D01*
X186939Y464899D02*
X195061D01*
X186992Y490999D02*
X195008D01*
X187255Y485599D02*
X194745D01*
X187293Y470299D02*
X194707D01*
X187328Y465799D02*
X194672D01*
X187363Y490099D02*
X194637D01*
X187530Y486499D02*
X194470D01*
X104000Y305599D02*
X194465D01*
X187552Y469399D02*
X194448D01*
X187572Y466699D02*
X194428D01*
X187592Y489199D02*
X194408D01*
X171200Y226399D02*
X194397D01*
X187673Y487399D02*
X194327D01*
X187681Y468499D02*
X194319D01*
X187688Y467599D02*
X194312D01*
X187693Y488299D02*
X194307D01*
X104000Y301999D02*
X193877D01*
X104000Y304699D02*
X193693D01*
X104000Y302899D02*
X193470D01*
X104000Y303799D02*
X193417D01*
X104000Y296599D02*
X193003D01*
X104000Y291199D02*
X192790D01*
X104000Y290299D02*
X192785D01*
X104000Y285799D02*
X192616D01*
X104000Y295699D02*
X192612D01*
X104000Y301099D02*
X192465D01*
X104000Y297499D02*
X191877D01*
X104000Y292099D02*
X191810D01*
X104000Y289399D02*
X191808D01*
X104000Y286699D02*
X191749D01*
X104000Y294799D02*
X191748D01*
X104000Y300199D02*
X191693D01*
X171200Y227299D02*
X191650D01*
X104000Y298399D02*
X191470D01*
X104000Y292999D02*
X191449D01*
X104000Y288499D02*
X191448D01*
X104000Y287599D02*
X191431D01*
X104000Y293899D02*
X191431D01*
X104000Y299299D02*
X191417D01*
X171200Y232699D02*
X191001D01*
X171200Y228199D02*
X190503D01*
X171200Y231799D02*
X190228D01*
X185461Y472999D02*
X190001D01*
X171200Y229099D02*
X189995D01*
X171200Y230899D02*
X189877D01*
X171200Y229999D02*
X189806D01*
X185344Y482899D02*
X189581D01*
X104000Y277699D02*
X189101D01*
X104000Y273199D02*
X188603D01*
X104000Y276799D02*
X188328D01*
X104000Y272299D02*
X188176D01*
X104000Y274099D02*
X188095D01*
X104000Y275899D02*
X187977D01*
X184177Y473899D02*
X187969D01*
X104000Y274999D02*
X187906D01*
X183979Y481999D02*
X187834D01*
X104000Y271399D02*
X187276D01*
X104000Y474799D02*
X187030D01*
X104000Y481099D02*
X186949D01*
X104000Y475699D02*
X186449D01*
X104000Y331699D02*
X186433D01*
X104000Y480199D02*
X186398D01*
X104000Y270499D02*
X186376D01*
X104000Y476599D02*
X186096D01*
X104000Y479299D02*
X186068D01*
X104000Y477499D02*
X185925D01*
X104000Y478399D02*
X185916D01*
X104000Y269599D02*
X185476D01*
X104000Y330799D02*
X184894D01*
X104000Y268699D02*
X184576D01*
X104000Y329899D02*
X183994D01*
X104000Y267799D02*
X183676D01*
X104000Y328999D02*
X183094D01*
X104000Y266899D02*
X182776D01*
X104000Y328099D02*
X182194D01*
X104000Y265999D02*
X181876D01*
X104000Y327199D02*
X181294D01*
X104000Y265099D02*
X180976D01*
X104000Y326299D02*
X180394D01*
X104000Y264199D02*
X180076D01*
X104000Y494599D02*
X179839D01*
X104000Y325399D02*
X179494D01*
X104000Y263299D02*
X179176D01*
X104000Y324499D02*
X178594D01*
X104000Y262399D02*
X178276D01*
X104000Y481999D02*
X178021D01*
X104000Y473899D02*
X177823D01*
X104000Y323599D02*
X177694D01*
X104000Y462199D02*
X177648D01*
X104000Y493699D02*
X177476D01*
X104000Y261499D02*
X177376D01*
X104000Y322699D02*
X176794D01*
X104000Y482899D02*
X176656D01*
X104000Y472999D02*
X176539D01*
X104000Y260599D02*
X176476D01*
X104000Y463099D02*
X176432D01*
X104000Y492799D02*
X176324D01*
X104000Y321799D02*
X175894D01*
X104000Y483799D02*
X175781D01*
X104000Y472099D02*
X175700D01*
X104000Y463999D02*
X175626D01*
X104000Y259699D02*
X175576D01*
X104000Y491899D02*
X175551D01*
X104000Y484699D02*
X175170D01*
X104000Y471199D02*
X175113D01*
X104000Y464899D02*
X175061D01*
X104000Y490999D02*
X175008D01*
X104000Y320899D02*
X174994D01*
X104000Y485599D02*
X174745D01*
X104000Y470299D02*
X174707D01*
X104000Y258799D02*
X174676D01*
X104000Y465799D02*
X174672D01*
X104000Y490099D02*
X174637D01*
X104000Y486499D02*
X174470D01*
X104000Y469399D02*
X174448D01*
X104000Y466699D02*
X174428D01*
X104000Y489199D02*
X174408D01*
X104000Y487399D02*
X174327D01*
X104000Y468499D02*
X174319D01*
X104000Y467599D02*
X174312D01*
X104000Y488299D02*
X174307D01*
X104000Y319999D02*
X174094D01*
X104000Y257899D02*
X173776D01*
X104000Y319099D02*
X173194D01*
X104000Y256999D02*
X172876D01*
X104000Y318199D02*
X172294D01*
X104000Y256099D02*
X171976D01*
X104000Y317299D02*
X171394D01*
X104000Y255199D02*
X171076D01*
X104000Y316399D02*
X170494D01*
X104000Y254299D02*
X170176D01*
X104000Y315499D02*
X169594D01*
X104000Y253399D02*
X169276D01*
X104000Y314599D02*
X168694D01*
X104000Y252499D02*
X168376D01*
X104000Y251599D02*
X167843D01*
X104000Y250699D02*
X167800D01*
X104000Y249799D02*
X167800D01*
X104000Y248899D02*
X167800D01*
X104000Y247999D02*
X167800D01*
X104000Y247099D02*
X167800D01*
X104000Y246199D02*
X167800D01*
X104000Y245299D02*
X167800D01*
X104000Y244399D02*
X167800D01*
X104000Y243499D02*
X167800D01*
X104000Y242599D02*
X167800D01*
X104000Y241699D02*
X167800D01*
X104000Y240799D02*
X167800D01*
X104000Y239899D02*
X167800D01*
X104000Y238999D02*
X167800D01*
X104000Y238099D02*
X167800D01*
X104000Y237199D02*
X167800D01*
X104000Y236299D02*
X167800D01*
X104000Y235399D02*
X167800D01*
X104000Y234499D02*
X167800D01*
X104000Y233599D02*
X167800D01*
X104000Y232699D02*
X167800D01*
X104000Y231799D02*
X167800D01*
X104000Y230899D02*
X167800D01*
X104000Y229999D02*
X167800D01*
X104000Y229099D02*
X167800D01*
X104000Y228199D02*
X167800D01*
X104000Y227299D02*
X167800D01*
X104000Y226399D02*
X167800D01*
X104000Y225499D02*
X167800D01*
X104000Y224599D02*
X167800D01*
X104000Y223699D02*
X167800D01*
X104000Y222799D02*
X167800D01*
X104000Y221899D02*
X167800D01*
X104000Y220999D02*
X167800D01*
X104000Y313699D02*
X167794D01*
X104000Y435199D02*
X167451D01*
X133690Y215599D02*
X167385D01*
X104000Y220099D02*
X167084D01*
X164552Y312799D02*
X166894D01*
X104000Y430699D02*
X166714D01*
X134051Y216499D02*
X166674D01*
X132888Y219199D02*
X166533D01*
X104000Y434299D02*
X166362D01*
X134069Y217399D02*
X166357D01*
X133752Y218299D02*
X166314D01*
X104000Y431599D02*
X166080D01*
X165576Y311899D02*
X165994D01*
X104000Y433399D02*
X165940D01*
X104000Y432499D02*
X165857D01*
X104000Y312799D02*
X161448D01*
X104000Y307399D02*
X161136D01*
X104000Y311899D02*
X160424D01*
X104000Y308299D02*
X160290D01*
X104000Y310999D02*
X159960D01*
X104000Y309199D02*
X159902D01*
X104000Y310099D02*
X159802D01*
X141661Y143599D02*
X159339D01*
X153666Y130999D02*
X157521D01*
X153531Y122899D02*
X157323D01*
X143852Y111199D02*
X157148D01*
X144024Y142699D02*
X156976D01*
X151919Y131899D02*
X156156D01*
X151499Y121999D02*
X156039D01*
X145068Y112099D02*
X155932D01*
X145176Y141799D02*
X155824D01*
X145719Y132799D02*
X155281D01*
X145800Y121099D02*
X155200D01*
X145874Y112999D02*
X155126D01*
X145949Y140899D02*
X155051D01*
X146330Y133699D02*
X154670D01*
X146387Y120199D02*
X154613D01*
X146439Y113899D02*
X154561D01*
X146492Y139999D02*
X154508D01*
X146755Y134599D02*
X154245D01*
X146793Y119299D02*
X154207D01*
X146828Y114799D02*
X154172D01*
X146863Y139099D02*
X154137D01*
X147030Y135499D02*
X153970D01*
X147052Y118399D02*
X153948D01*
X147072Y115699D02*
X153928D01*
X147092Y138199D02*
X153908D01*
X147173Y136399D02*
X153827D01*
X147181Y117499D02*
X153819D01*
X147188Y116599D02*
X153812D01*
X147193Y137299D02*
X153807D01*
X144961Y121999D02*
X149501D01*
X144844Y131899D02*
X149081D01*
X143677Y122899D02*
X147469D01*
X143479Y130999D02*
X147334D01*
X104000Y123799D02*
X146530D01*
X104000Y130099D02*
X146449D01*
X104000Y124699D02*
X145949D01*
X104000Y129199D02*
X145898D01*
X104000Y125599D02*
X145596D01*
X104000Y128299D02*
X145568D01*
X104000Y126499D02*
X145425D01*
X104000Y127399D02*
X145416D01*
X104000Y143599D02*
X139339D01*
X104000Y130999D02*
X137521D01*
X104000Y122899D02*
X137323D01*
X104000Y111199D02*
X137148D01*
X104000Y142699D02*
X136976D01*
X104000Y131899D02*
X136156D01*
X104000Y121999D02*
X136039D01*
X104000Y112099D02*
X135932D01*
X104000Y141799D02*
X135824D01*
X104000Y132799D02*
X135281D01*
X104000Y121099D02*
X135200D01*
X104000Y112999D02*
X135126D01*
X104000Y140899D02*
X135051D01*
X104000Y133699D02*
X134670D01*
X104000Y120199D02*
X134613D01*
X104000Y113899D02*
X134561D01*
X104000Y139999D02*
X134508D01*
X104000Y134599D02*
X134245D01*
X104000Y119299D02*
X134207D01*
X104000Y114799D02*
X134172D01*
X104000Y139099D02*
X134137D01*
X104000Y135499D02*
X133970D01*
X104000Y118399D02*
X133948D01*
X104000Y115699D02*
X133928D01*
X104000Y138199D02*
X133908D01*
X104000Y136399D02*
X133827D01*
X104000Y117499D02*
X133819D01*
X104000Y116599D02*
X133812D01*
X104000Y137299D02*
X133807D01*
X104000Y214699D02*
X130290D01*
X104000Y219199D02*
X130112D01*
X104000Y215599D02*
X129310D01*
X104000Y218299D02*
X129248D01*
X104000Y216499D02*
X128949D01*
X104000Y217399D02*
X128931D01*
G54D18*
X316500Y467346D03*
G54D19*
X160500Y117000D03*
X140500D03*
Y137000D03*
X160500D03*
X201000Y468000D03*
X181000D03*
Y488000D03*
X201000D03*
X206000Y137000D03*
X226000D03*
Y117000D03*
X206000D03*
G54D24*
X262374D03*
X278122D03*
X305000D03*
X312874D03*
G54D27*
X115000Y115000D03*
Y490000D03*
X362000D03*
Y115000D03*
X178500Y350000D03*
G54D32*
X199000Y324500D02*
X202500D01*
X207500Y319500*
X238100*
X244900Y312700*
X246300*
X109500Y105600D03*
X152300D03*
X130900D03*
X195100D03*
X184400Y116300D03*
X173700Y105600D03*
X237900D03*
X216500D03*
X280700D03*
X259300D03*
X248600Y116300D03*
X323500Y105600D03*
X302100D03*
X291400Y116300D03*
X366300Y105600D03*
X344900D03*
X334200Y116300D03*
X120200Y137700D03*
X109500Y148400D03*
Y127000D03*
X163000Y159100D03*
X130900Y148400D03*
Y127000D03*
X158000Y144500D03*
Y159500D03*
Y154500D03*
Y149500D03*
X143000Y159500D03*
Y154500D03*
Y149500D03*
Y144500D03*
X195100Y148400D03*
Y127000D03*
X184400Y159100D03*
Y137700D03*
X173700Y148400D03*
Y127000D03*
X223500Y144500D03*
X244400Y153400D03*
X237900Y148400D03*
Y127000D03*
X208500Y144500D03*
Y149500D03*
Y159500D03*
Y154500D03*
X223500Y159000D03*
Y154000D03*
Y149000D03*
X267000Y158000D03*
X277500Y153400D03*
X270000Y137700D03*
X248600D03*
X310500Y153000D03*
X323500Y127000D03*
X312800Y137700D03*
X302100Y148400D03*
X291400Y137700D03*
X366000Y158000D03*
X355600Y137700D03*
X344900Y127000D03*
X334200Y137700D03*
X120200Y180500D03*
X163000D03*
X130900Y191200D03*
Y169800D03*
X158000Y169500D03*
Y164500D03*
Y189500D03*
Y184500D03*
Y179500D03*
Y174500D03*
Y199500D03*
Y194500D03*
X143000Y174500D03*
Y169500D03*
Y164500D03*
Y199500D03*
Y194500D03*
Y189500D03*
Y184500D03*
Y179500D03*
X195100Y191200D03*
Y169800D03*
X184400Y180500D03*
X173700Y191200D03*
Y169800D03*
X237900D03*
X236800Y197800D03*
X208500Y174500D03*
Y169500D03*
Y164500D03*
Y199500D03*
Y194500D03*
Y189500D03*
Y184500D03*
Y179500D03*
X223500Y189000D03*
Y184000D03*
Y179000D03*
Y174000D03*
Y169000D03*
Y164000D03*
Y199000D03*
Y194000D03*
X280700Y191200D03*
Y169800D03*
X250000Y194000D03*
Y182000D03*
X254500D03*
X255500Y201500D03*
X319500Y193000D03*
Y183000D03*
X297600Y189000D03*
X324000Y197500D03*
X323500Y169800D03*
X302100D03*
X324000Y201500D03*
X342500Y199500D03*
X355600Y180500D03*
X344900Y169800D03*
X338500Y199500D03*
X120200Y201900D03*
X125500Y227500D03*
X120000Y222500D03*
X125500Y217500D03*
X140500Y237500D03*
X163000Y201900D03*
X130900Y234000D03*
Y212600D03*
X164500Y237500D03*
X159500D03*
X158000Y219500D03*
Y214500D03*
Y209500D03*
Y204500D03*
Y224500D03*
X143000Y204500D03*
Y224500D03*
Y219500D03*
Y214500D03*
Y209500D03*
X169500Y218000D03*
X193000Y230200D03*
X184400Y201900D03*
X189500Y237500D03*
X184500D03*
X179500D03*
X174500D03*
X175500Y217500D03*
X181000Y222500D03*
X175500Y227500D03*
X204500Y237500D03*
X199500D03*
X194500D03*
X237300Y213800D03*
X242000Y213700D03*
X237900Y234000D03*
X208500Y204500D03*
Y224500D03*
Y219500D03*
Y209500D03*
Y234500D03*
Y229500D03*
X223500Y204000D03*
Y234000D03*
Y229000D03*
Y224000D03*
Y219000D03*
Y209000D03*
Y239000D03*
X267000Y224000D03*
X248600Y223300D03*
X270500Y211000D03*
X298000Y235000D03*
X294000Y210000D03*
X298000Y206000D03*
X294000D03*
X324000Y205500D03*
X320000D03*
X298000Y210000D03*
X336000Y225500D03*
X339500Y222500D03*
X344900Y212600D03*
X120200Y266100D03*
Y244700D03*
X140500Y272500D03*
Y267500D03*
Y262500D03*
Y257500D03*
Y252500D03*
Y247500D03*
Y242500D03*
Y277500D03*
X130900Y276800D03*
Y255400D03*
X160500Y252500D03*
X155500D03*
X165500D03*
X155500Y279000D03*
Y274000D03*
Y269000D03*
Y264000D03*
Y259000D03*
X165000D03*
Y266500D03*
Y274500D03*
X191100Y275200D03*
X189000Y266500D03*
X181000Y274500D03*
X200500Y252500D03*
X195500D03*
X190500D03*
X185500D03*
X180500D03*
X175500D03*
X173000Y259000D03*
Y274500D03*
Y266500D03*
X197000Y259000D03*
X189000D03*
X205500Y262500D03*
Y267500D03*
Y272500D03*
Y277500D03*
X238500Y276000D03*
X227200Y266100D03*
X221000Y254500D03*
X223500Y244000D03*
X221000Y259500D03*
Y264500D03*
Y269500D03*
Y274500D03*
Y279500D03*
X238500Y281500D03*
X267000Y246000D03*
X280700Y276800D03*
X270000Y266100D03*
X259300Y276800D03*
X248600Y244700D03*
X310000Y256500D03*
X316500Y248500D03*
X320500D03*
X312800Y266100D03*
X302100Y276800D03*
Y255400D03*
X344900Y276800D03*
Y255400D03*
X120200Y308900D03*
Y287500D03*
X140500Y282500D03*
Y312500D03*
Y307500D03*
Y302500D03*
Y297500D03*
Y292500D03*
Y287500D03*
Y317500D03*
X163000Y310000D03*
Y293500D03*
Y299000D03*
X130900Y319600D03*
Y298200D03*
X155500Y294000D03*
Y289000D03*
Y284000D03*
Y319000D03*
Y314000D03*
Y309000D03*
Y304000D03*
Y299000D03*
X205118Y309252D03*
X178000Y315000D03*
X170500Y284500D03*
X178000Y310500D03*
Y284500D03*
X205118Y313386D03*
Y300591D03*
Y304921D03*
X196500Y308500D03*
Y312500D03*
Y316500D03*
X200500Y320500D03*
X205500Y287500D03*
Y282500D03*
X227000Y307600D03*
X226500Y297500D03*
X237200Y303400D03*
X227000Y311600D03*
X209252Y309252D03*
X213583D03*
X217717Y304921D03*
X209252Y300591D03*
X241500Y291000D03*
X246000Y295500D03*
X213583Y300591D03*
Y304921D03*
X217900Y300600D03*
X217717Y313386D03*
X209252D03*
X213583D03*
X217717Y309252D03*
X209252Y304921D03*
X221000Y284500D03*
X246300Y312700D03*
X250000Y287200D03*
X285500Y306500D03*
X280700Y319600D03*
Y298200D03*
X270000Y308900D03*
Y287500D03*
X259300Y319600D03*
X312800Y287500D03*
X120200Y351700D03*
Y330300D03*
X140500Y322500D03*
Y357500D03*
Y352500D03*
Y347500D03*
Y342500D03*
Y337500D03*
Y332500D03*
Y327500D03*
X130900Y341000D03*
X162500Y326000D03*
Y334000D03*
Y342000D03*
Y350000D03*
Y358000D03*
X155500Y324000D03*
Y359000D03*
Y354000D03*
Y349000D03*
Y344000D03*
Y339000D03*
Y334000D03*
Y329000D03*
X194500Y358000D03*
Y350000D03*
Y342000D03*
Y334000D03*
Y326000D03*
X186500Y358000D03*
Y342000D03*
Y334000D03*
Y326000D03*
X178500Y334000D03*
Y326000D03*
X170500Y358000D03*
Y342000D03*
X206000Y332000D03*
Y337000D03*
Y342000D03*
Y347000D03*
Y352000D03*
Y357000D03*
X170500Y326000D03*
Y334000D03*
X199000Y324500D03*
X243000Y328000D03*
X224500Y354500D03*
X227200Y330300D03*
X224500Y349500D03*
X221000Y347000D03*
Y327000D03*
Y332000D03*
Y337000D03*
Y357000D03*
Y342000D03*
X239500Y341500D03*
X280700Y341000D03*
X270000Y351700D03*
Y330300D03*
X259300Y341000D03*
X257000Y334500D03*
X287000Y324500D03*
X302100Y341000D03*
X294100Y356500D03*
X355600Y330300D03*
X334200D03*
X120200Y394500D03*
Y373100D03*
X140500Y362500D03*
X141600Y394500D03*
X130900Y383800D03*
Y362400D03*
X157700Y375400D03*
X161500Y401500D03*
X157500Y398500D03*
X153500Y395500D03*
X150500Y392000D03*
X162500Y366000D03*
X156000Y370500D03*
X142000Y374000D03*
X141000Y369000D03*
X160500Y379500D03*
X163500Y383500D03*
X148000Y388500D03*
X145500Y383900D03*
X143500Y379000D03*
X155500Y365500D03*
X194500Y382000D03*
Y374000D03*
Y366000D03*
X186500Y382000D03*
Y374000D03*
Y366000D03*
X178500Y382000D03*
Y374000D03*
Y366000D03*
X170500Y374000D03*
Y366000D03*
X206000Y362000D03*
Y373500D03*
X181500Y394000D03*
X198500Y392000D03*
X202500Y388000D03*
X186500Y394500D03*
X206000Y368500D03*
X171500Y390500D03*
X176500Y392500D03*
X194000Y394500D03*
X167500Y387500D03*
X206000Y378500D03*
X205000Y383500D03*
X234000Y394000D03*
Y362500D03*
Y373000D03*
Y383500D03*
X227200Y373100D03*
X221000Y366500D03*
Y380500D03*
Y375500D03*
X216000Y395000D03*
X221000Y362000D03*
X213000Y398500D03*
X221000Y371000D03*
X220000Y385500D03*
X218000Y390500D03*
X280700Y383800D03*
X270000Y394500D03*
Y373100D03*
X259300Y383800D03*
Y362400D03*
X323500Y383800D03*
X302100D03*
X344900D03*
X120200Y415900D03*
X163000D03*
X152300Y405200D03*
X141600Y415900D03*
X130900Y426600D03*
Y405200D03*
X166000Y404000D03*
X162500Y423500D03*
Y433500D03*
X157000Y428500D03*
X183500Y441000D03*
Y436000D03*
Y431000D03*
Y426000D03*
Y421000D03*
X198500Y436000D03*
Y431000D03*
Y426000D03*
Y421000D03*
Y441000D03*
X170500Y406500D03*
X181000Y409000D03*
X175500Y408000D03*
X204500Y405500D03*
X199500Y408000D03*
X237900Y426600D03*
X234000Y404500D03*
X219500Y423500D03*
Y433500D03*
X209000Y402500D03*
X225000Y428500D03*
X267000Y422000D03*
X280700Y405200D03*
X248600Y415900D03*
X300000Y433000D03*
X120200Y480100D03*
Y458700D03*
X109500Y469400D03*
Y448000D03*
X163000Y458700D03*
X152300Y448000D03*
X141600Y480100D03*
Y458700D03*
X130900Y469400D03*
Y448000D03*
X183500Y461000D03*
Y456000D03*
Y451000D03*
Y446000D03*
X198500Y456000D03*
Y451000D03*
Y446000D03*
Y461000D03*
X205800Y480100D03*
Y458700D03*
X173700Y448000D03*
X237900Y469400D03*
Y448000D03*
X227200Y480100D03*
Y458700D03*
X216500Y469400D03*
Y448000D03*
X278000Y477000D03*
X256000D03*
X280700Y448000D03*
X270000Y458700D03*
X259300Y448000D03*
X248600Y458700D03*
X300000Y477000D03*
Y455000D03*
X289000Y466000D03*
X323500Y448000D03*
X366300Y469400D03*
Y448000D03*
X355600Y480100D03*
Y458700D03*
X344900Y469400D03*
Y448000D03*
X334200Y480100D03*
Y458700D03*
X157000Y488000D03*
X146000Y499000D03*
X130900Y490800D03*
X190000Y499000D03*
X173700Y490800D03*
X237900D03*
X216500D03*
X278000Y499000D03*
X267000Y488000D03*
X256000Y499000D03*
X322000D03*
X300000D03*
X289000Y488000D03*
X344900Y490800D03*
G54D33*
X155762Y112262D02*
X156964Y113464D01*
X165238Y112262D02*
X164036Y113464D01*
X165238Y121738D02*
X164036Y120536D01*
X155762Y121738D02*
X156964Y120536D01*
X135762Y112262D02*
X136964Y113464D01*
X145238Y112262D02*
X144036Y113464D01*
X145238Y121738D02*
X144036Y120536D01*
X135762Y121738D02*
X136964Y120536D01*
X135762Y132262D02*
X136964Y133464D01*
X145238Y132262D02*
X144036Y133464D01*
X145238Y141738D02*
X144036Y140536D01*
X135762Y141738D02*
X136964Y140536D01*
X155762Y132262D02*
X156964Y133464D01*
X165238Y132262D02*
X164036Y133464D01*
X165238Y141738D02*
X164036Y140536D01*
X155762Y141738D02*
X156964Y140536D01*
X210738Y141738D02*
X209536Y140536D01*
X201262Y141738D02*
X202464Y140536D01*
X201262Y132262D02*
X202464Y133464D01*
X210738Y132262D02*
X209536Y133464D01*
X230738Y141738D02*
X229536Y140536D01*
X221262Y141738D02*
X222464Y140536D01*
X221262Y132262D02*
X222464Y133464D01*
X230738Y132262D02*
X229536Y133464D01*
X230738Y121738D02*
X229536Y120536D01*
X221262Y121738D02*
X222464Y120536D01*
X221262Y112262D02*
X222464Y113464D01*
X230738Y112262D02*
X229536Y113464D01*
X210738Y121738D02*
X209536Y120536D01*
X201262Y121738D02*
X202464Y120536D01*
X201262Y112262D02*
X202464Y113464D01*
X210738Y112262D02*
X209536Y113464D01*
X265664Y120290D02*
X264462Y119088D01*
X259084Y120290D02*
X260286Y119088D01*
X259084Y113710D02*
X260286Y114912D01*
X265664Y113710D02*
X264462Y114912D01*
X281412Y120290D02*
X280210Y119088D01*
X274832Y120290D02*
X276034Y119088D01*
X274832Y113710D02*
X276034Y114912D01*
X281412Y113710D02*
X280210Y114912D01*
X316164Y120290D02*
X314962Y119088D01*
X309584Y120290D02*
X310786Y119088D01*
X309584Y113710D02*
X310786Y114912D01*
X316164Y113710D02*
X314962Y114912D01*
X252823Y236823D02*
X251621Y235621D01*
X246177Y236823D02*
X247379Y235621D01*
X246177Y230177D02*
X247379Y231379D01*
X252823Y230177D02*
X251621Y231379D01*
X311939Y462786D02*
X313141Y463988D01*
X321061Y462786D02*
X319859Y463988D01*
X321061Y471907D02*
X319859Y470705D01*
X311939Y471907D02*
X313141Y470705D01*
X196262Y483262D02*
X197464Y484464D01*
X205738Y483262D02*
X204536Y484464D01*
X205738Y492738D02*
X204536Y491536D01*
X196262Y492738D02*
X197464Y491536D01*
X176262Y483262D02*
X177464Y484464D01*
X185738Y483262D02*
X184536Y484464D01*
X185738Y492738D02*
X184536Y491536D01*
X176262Y492738D02*
X177464Y491536D01*
X176262Y463262D02*
X177464Y464464D01*
X185738Y463262D02*
X184536Y464464D01*
X185738Y472738D02*
X184536Y471536D01*
X176262Y472738D02*
X177464Y471536D01*
X196262Y463262D02*
X197464Y464464D01*
X205738Y463262D02*
X204536Y464464D01*
X205738Y472738D02*
X204536Y471536D01*
X196262Y472738D02*
X197464Y471536D01*
X267208Y333382D02*
X266005Y332180D01*
X259792Y333382D02*
X260995Y332180D01*
G54D43*
X263500Y329675D03*
G54D47*
X200673Y316843D03*
Y312906D03*
Y308969D03*
G74*
X0Y0D02*
M02*
