G04 EAGLE Gerber RS-274X export*
G75*
%MOMM*%
%FSLAX34Y34*%
%LPD*%
%INBottom Copper*%
%IPPOS*%
%AMOC8*
5,1,8,0,0,1.08239X$1,22.5*%
G01*
G04 Define Apertures*
%ADD10C,1.879600*%
%ADD11R,1.108000X1.108000*%
%ADD12C,1.108000*%
%ADD13R,0.660400X1.270000*%
%ADD14R,0.635000X1.270000*%
%ADD15C,0.756400*%
%ADD16C,0.304800*%
%ADD17C,0.152400*%
G36*
X110149Y-154985D02*
X110000Y-155000D01*
X-100000Y-155000D01*
X-100149Y-154985D01*
X-105597Y-153902D01*
X-105872Y-153788D01*
X-110491Y-150701D01*
X-110701Y-150491D01*
X-113788Y-145872D01*
X-113902Y-145597D01*
X-114985Y-140149D01*
X-115000Y-140000D01*
X-115000Y140000D01*
X-114985Y140149D01*
X-113902Y145597D01*
X-113788Y145872D01*
X-110701Y150491D01*
X-110491Y150701D01*
X-105872Y153788D01*
X-105597Y153902D01*
X-100149Y154985D01*
X-100000Y155000D01*
X110000Y155000D01*
X110149Y154985D01*
X115597Y153902D01*
X115872Y153788D01*
X120491Y150701D01*
X120701Y150491D01*
X123788Y145872D01*
X123902Y145597D01*
X124985Y140149D01*
X125000Y140000D01*
X125000Y-140000D01*
X124985Y-140149D01*
X123902Y-145597D01*
X123788Y-145872D01*
X120701Y-150491D01*
X120491Y-150701D01*
X115872Y-153788D01*
X115597Y-153902D01*
X110149Y-154985D01*
G37*
%LPC*%
G36*
X91718Y118500D02*
X98282Y118500D01*
X104347Y121012D01*
X108988Y125654D01*
X111500Y131718D01*
X111500Y138282D01*
X108988Y144347D01*
X104347Y148988D01*
X98282Y151500D01*
X91718Y151500D01*
X85654Y148988D01*
X81012Y144347D01*
X78500Y138282D01*
X78500Y131718D01*
X81012Y125654D01*
X85654Y121012D01*
X91718Y118500D01*
G37*
G36*
X-98282Y118500D02*
X-91718Y118500D01*
X-85654Y121012D01*
X-81012Y125654D01*
X-78500Y131718D01*
X-78500Y138282D01*
X-81012Y144347D01*
X-85654Y148988D01*
X-91718Y151500D01*
X-98282Y151500D01*
X-104347Y148988D01*
X-108988Y144347D01*
X-111500Y138282D01*
X-111500Y131718D01*
X-108988Y125654D01*
X-104347Y121012D01*
X-98282Y118500D01*
G37*
G36*
X-16703Y-152572D02*
X41661Y-152572D01*
X99396Y-94837D01*
X99621Y-94682D01*
X99916Y-94614D01*
X100215Y-94667D01*
X100469Y-94833D01*
X100639Y-95084D01*
X100741Y-95331D01*
X103813Y-98404D01*
X107827Y-100066D01*
X112173Y-100066D01*
X116187Y-98404D01*
X119259Y-95331D01*
X120922Y-91317D01*
X120922Y-86972D01*
X119259Y-82958D01*
X116187Y-79885D01*
X112173Y-78222D01*
X107827Y-78222D01*
X103813Y-79885D01*
X100741Y-82958D01*
X99078Y-86972D01*
X99078Y-88373D01*
X99022Y-88659D01*
X98855Y-88912D01*
X39990Y-147777D01*
X39749Y-147940D01*
X39451Y-148000D01*
X4495Y-148000D01*
X4220Y-147949D01*
X3965Y-147785D01*
X3793Y-147535D01*
X3733Y-147238D01*
X3733Y-142816D01*
X3789Y-142530D01*
X3956Y-142277D01*
X12704Y-133529D01*
X12945Y-133366D01*
X13243Y-133306D01*
X17198Y-133306D01*
X19995Y-130509D01*
X20236Y-130346D01*
X20533Y-130286D01*
X37947Y-130286D01*
X49704Y-118529D01*
X49945Y-118366D01*
X50243Y-118306D01*
X54198Y-118306D01*
X57306Y-115198D01*
X57306Y-110802D01*
X54198Y-107694D01*
X49802Y-107694D01*
X46694Y-110802D01*
X46694Y-114757D01*
X46638Y-115043D01*
X46471Y-115296D01*
X36276Y-125491D01*
X36035Y-125654D01*
X35737Y-125714D01*
X20533Y-125714D01*
X20247Y-125658D01*
X19995Y-125491D01*
X17198Y-122694D01*
X12802Y-122694D01*
X9694Y-125802D01*
X9694Y-129757D01*
X9638Y-130043D01*
X9471Y-130296D01*
X4955Y-134813D01*
X4724Y-134971D01*
X4428Y-135036D01*
X4130Y-134980D01*
X3877Y-134813D01*
X2840Y-133776D01*
X-5026Y-133776D01*
X-5761Y-134511D01*
X-5992Y-134669D01*
X-6288Y-134734D01*
X-6586Y-134678D01*
X-6839Y-134511D01*
X-7574Y-133776D01*
X-12675Y-133776D01*
X-12961Y-133720D01*
X-13214Y-133553D01*
X-43593Y-103174D01*
X-43751Y-102944D01*
X-43816Y-102648D01*
X-43796Y-102539D01*
X-43796Y-97904D01*
X-46904Y-94796D01*
X-51300Y-94796D01*
X-54408Y-97904D01*
X-54408Y-102300D01*
X-51300Y-105408D01*
X-48141Y-105408D01*
X-47855Y-105463D01*
X-47602Y-105631D01*
X-16556Y-136677D01*
X-16393Y-136918D01*
X-16333Y-137216D01*
X-16333Y-144636D01*
X-16380Y-144900D01*
X-16539Y-145158D01*
X-16787Y-145333D01*
X-17083Y-145398D01*
X-17381Y-145343D01*
X-17634Y-145175D01*
X-58911Y-103898D01*
X-59074Y-103657D01*
X-59134Y-103359D01*
X-59134Y-75549D01*
X-59085Y-75280D01*
X-58924Y-75024D01*
X-58675Y-74850D01*
X-58378Y-74787D01*
X-58080Y-74845D01*
X-55201Y-76038D01*
X-54356Y-76038D01*
X-54356Y-67196D01*
X-52832Y-67196D01*
X-52832Y-76038D01*
X-51987Y-76038D01*
X-49234Y-74898D01*
X-48966Y-74840D01*
X-48667Y-74891D01*
X-48412Y-75054D01*
X-48240Y-75304D01*
X-48180Y-75602D01*
X-48180Y-85759D01*
X-45479Y-90437D01*
X-40801Y-93138D01*
X40547Y-93138D01*
X42827Y-91822D01*
X43171Y-91720D01*
X43471Y-91767D01*
X43729Y-91926D01*
X43905Y-92173D01*
X43970Y-92469D01*
X43914Y-92768D01*
X43747Y-93020D01*
X39276Y-97491D01*
X39035Y-97654D01*
X38737Y-97714D01*
X16053Y-97714D01*
X-5286Y-119053D01*
X-5286Y-121273D01*
X-5342Y-121559D01*
X-5509Y-121811D01*
X-8306Y-124608D01*
X-8306Y-129004D01*
X-5198Y-132112D01*
X-802Y-132112D01*
X2306Y-129004D01*
X2306Y-124608D01*
X-491Y-121811D01*
X-654Y-121570D01*
X-714Y-121273D01*
X-714Y-121263D01*
X-658Y-120977D01*
X-491Y-120724D01*
X17724Y-102509D01*
X17965Y-102346D01*
X18263Y-102286D01*
X40947Y-102286D01*
X46824Y-96409D01*
X47065Y-96246D01*
X47363Y-96186D01*
X57604Y-96186D01*
X57890Y-96242D01*
X57982Y-96302D01*
X62432Y-96302D01*
X65540Y-93194D01*
X65540Y-88798D01*
X62432Y-85690D01*
X58036Y-85690D01*
X54928Y-88798D01*
X54928Y-90852D01*
X54877Y-91127D01*
X54713Y-91382D01*
X54463Y-91554D01*
X54166Y-91614D01*
X45865Y-91614D01*
X45506Y-91524D01*
X45272Y-91330D01*
X45133Y-91061D01*
X45109Y-90759D01*
X45206Y-90471D01*
X47926Y-85759D01*
X47926Y-83264D01*
X47973Y-83000D01*
X48132Y-82742D01*
X48380Y-82567D01*
X48676Y-82502D01*
X48974Y-82557D01*
X49227Y-82725D01*
X49339Y-82837D01*
X51935Y-83912D01*
X54745Y-83912D01*
X57341Y-82837D01*
X59329Y-80849D01*
X60404Y-78253D01*
X60404Y-75733D01*
X60460Y-75447D01*
X60627Y-75194D01*
X94968Y-40854D01*
X95209Y-40691D01*
X95507Y-40630D01*
X98616Y-40630D01*
X98896Y-40684D01*
X99150Y-40849D01*
X99320Y-41101D01*
X100741Y-44531D01*
X103813Y-47604D01*
X107827Y-49266D01*
X112173Y-49266D01*
X116187Y-47604D01*
X119259Y-44531D01*
X120922Y-40517D01*
X120922Y-36172D01*
X119259Y-32158D01*
X116187Y-29085D01*
X112173Y-27422D01*
X107827Y-27422D01*
X103813Y-29085D01*
X100741Y-32158D01*
X99320Y-35588D01*
X99163Y-35827D01*
X98913Y-35998D01*
X98616Y-36058D01*
X93606Y-36058D01*
X93331Y-36007D01*
X93076Y-35844D01*
X92904Y-35594D01*
X92844Y-35296D01*
X92844Y-33774D01*
X92900Y-33488D01*
X93067Y-33235D01*
X103655Y-22647D01*
X103891Y-22487D01*
X104188Y-22424D01*
X104485Y-22482D01*
X107827Y-23866D01*
X112173Y-23866D01*
X116187Y-22204D01*
X119259Y-19131D01*
X120922Y-15117D01*
X120922Y-10772D01*
X119259Y-6758D01*
X116187Y-3685D01*
X112173Y-2022D01*
X109471Y-2022D01*
X109208Y-1975D01*
X108949Y-1816D01*
X108774Y-1569D01*
X108709Y-1273D01*
X108765Y-974D01*
X108932Y-722D01*
X110964Y1310D01*
X111206Y1473D01*
X111503Y1534D01*
X112173Y1534D01*
X116187Y3196D01*
X119259Y6269D01*
X120922Y10283D01*
X120922Y14628D01*
X119259Y18642D01*
X116187Y21715D01*
X112173Y23378D01*
X107827Y23378D01*
X103813Y21715D01*
X100741Y18642D01*
X99078Y14628D01*
X99078Y10283D01*
X100741Y6269D01*
X103813Y3196D01*
X104578Y2880D01*
X104807Y2732D01*
X104983Y2484D01*
X105048Y2188D01*
X104992Y1890D01*
X104825Y1637D01*
X96030Y-7158D01*
X96030Y-12809D01*
X95974Y-13095D01*
X95807Y-13348D01*
X77707Y-31448D01*
X77487Y-31601D01*
X77192Y-31671D01*
X76893Y-31620D01*
X76638Y-31457D01*
X76466Y-31207D01*
X76406Y-30909D01*
X76406Y-19025D01*
X76457Y-18750D01*
X76621Y-18495D01*
X76871Y-18323D01*
X77168Y-18263D01*
X80241Y-18263D01*
X83349Y-15155D01*
X83349Y-11200D01*
X83405Y-10914D01*
X83572Y-10661D01*
X94286Y53D01*
X94286Y43993D01*
X94342Y44279D01*
X94509Y44532D01*
X103567Y53589D01*
X103803Y53750D01*
X104099Y53813D01*
X104397Y53755D01*
X107827Y52334D01*
X112173Y52334D01*
X116187Y53996D01*
X119259Y57069D01*
X120922Y61083D01*
X120922Y65428D01*
X119259Y69442D01*
X116187Y72515D01*
X112173Y74178D01*
X107827Y74178D01*
X103813Y72515D01*
X100741Y69442D01*
X99078Y65428D01*
X99078Y61083D01*
X100499Y57653D01*
X100557Y57373D01*
X100501Y57075D01*
X100334Y56822D01*
X89714Y46203D01*
X89714Y2263D01*
X89658Y1977D01*
X89491Y1724D01*
X80339Y-7428D01*
X80098Y-7591D01*
X79800Y-7651D01*
X75845Y-7651D01*
X72737Y-10759D01*
X72737Y-14715D01*
X72681Y-15001D01*
X72514Y-15253D01*
X72214Y-15553D01*
X71973Y-15716D01*
X71675Y-15776D01*
X59773Y-15776D01*
X58880Y-16669D01*
X58880Y-17158D01*
X58833Y-17422D01*
X58674Y-17680D01*
X58426Y-17855D01*
X58130Y-17920D01*
X57832Y-17865D01*
X57579Y-17697D01*
X57341Y-17459D01*
X54745Y-16384D01*
X51935Y-16384D01*
X49339Y-17459D01*
X49227Y-17571D01*
X49007Y-17724D01*
X48712Y-17794D01*
X48413Y-17743D01*
X48158Y-17580D01*
X47986Y-17330D01*
X47926Y-17032D01*
X47926Y-12064D01*
X47973Y-11800D01*
X48132Y-11542D01*
X48380Y-11367D01*
X48676Y-11302D01*
X48974Y-11357D01*
X49227Y-11525D01*
X49339Y-11637D01*
X51935Y-12712D01*
X54745Y-12712D01*
X57341Y-11637D01*
X59329Y-9649D01*
X60404Y-7053D01*
X60404Y-4243D01*
X59329Y-1647D01*
X57341Y341D01*
X54745Y1416D01*
X51935Y1416D01*
X49339Y341D01*
X49227Y229D01*
X49007Y76D01*
X48712Y6D01*
X48413Y57D01*
X48158Y220D01*
X47986Y470D01*
X47926Y768D01*
X47926Y5736D01*
X47973Y6000D01*
X48132Y6258D01*
X48380Y6433D01*
X48676Y6498D01*
X48974Y6443D01*
X49227Y6275D01*
X49339Y6163D01*
X51935Y5088D01*
X54745Y5088D01*
X57341Y6163D01*
X59329Y8151D01*
X60404Y10747D01*
X60404Y13557D01*
X59329Y16153D01*
X57341Y18141D01*
X54745Y19216D01*
X51935Y19216D01*
X49339Y18141D01*
X49227Y18029D01*
X49007Y17876D01*
X48712Y17806D01*
X48413Y17857D01*
X48158Y18020D01*
X47986Y18270D01*
X47926Y18568D01*
X47926Y23536D01*
X47973Y23800D01*
X48132Y24058D01*
X48380Y24233D01*
X48676Y24298D01*
X48974Y24243D01*
X49227Y24075D01*
X49339Y23963D01*
X51935Y22888D01*
X54745Y22888D01*
X57341Y23963D01*
X59329Y25951D01*
X60404Y28547D01*
X60404Y31357D01*
X59329Y33953D01*
X57341Y35941D01*
X54745Y37016D01*
X51935Y37016D01*
X49339Y35941D01*
X49227Y35829D01*
X49007Y35676D01*
X48712Y35606D01*
X48413Y35657D01*
X48158Y35820D01*
X47986Y36070D01*
X47926Y36368D01*
X47926Y41336D01*
X47973Y41600D01*
X48132Y41858D01*
X48380Y42033D01*
X48676Y42098D01*
X48974Y42043D01*
X49227Y41875D01*
X49339Y41763D01*
X51935Y40688D01*
X54745Y40688D01*
X57341Y41763D01*
X59329Y43751D01*
X60404Y46347D01*
X60404Y49157D01*
X59329Y51753D01*
X57341Y53741D01*
X54745Y54816D01*
X51935Y54816D01*
X49339Y53741D01*
X49227Y53629D01*
X49007Y53476D01*
X48712Y53406D01*
X48413Y53457D01*
X48158Y53620D01*
X47986Y53870D01*
X47926Y54168D01*
X47926Y82203D01*
X45844Y85809D01*
X45742Y86166D01*
X45793Y86465D01*
X45957Y86720D01*
X46207Y86892D01*
X46504Y86952D01*
X48422Y86952D01*
X48708Y86896D01*
X48961Y86729D01*
X76729Y58961D01*
X76892Y58719D01*
X76952Y58422D01*
X76952Y54771D01*
X76896Y54485D01*
X76729Y54233D01*
X74694Y52198D01*
X74694Y47802D01*
X77802Y44694D01*
X82198Y44694D01*
X85306Y47802D01*
X85306Y52198D01*
X83271Y54233D01*
X83108Y54474D01*
X83048Y54771D01*
X83048Y61263D01*
X54087Y90223D01*
X53934Y90443D01*
X53865Y90738D01*
X53915Y91037D01*
X54079Y91292D01*
X54329Y91464D01*
X54626Y91524D01*
X98316Y91524D01*
X98591Y91473D01*
X98846Y91309D01*
X99018Y91059D01*
X99078Y90762D01*
X99078Y86483D01*
X100741Y82469D01*
X103813Y79396D01*
X107827Y77734D01*
X112173Y77734D01*
X116187Y79396D01*
X119259Y82469D01*
X120922Y86483D01*
X120922Y90828D01*
X119259Y94842D01*
X116187Y97915D01*
X112173Y99578D01*
X107827Y99578D01*
X103813Y97915D01*
X103742Y97843D01*
X103500Y97680D01*
X103203Y97620D01*
X-53156Y97620D01*
X-69802Y80974D01*
X-69802Y2994D01*
X-67793Y986D01*
X-58456Y-8352D01*
X-58298Y-8583D01*
X-58233Y-8879D01*
X-58288Y-9177D01*
X-58456Y-9430D01*
X-59583Y-10557D01*
X-60658Y-13153D01*
X-60658Y-15963D01*
X-59583Y-18559D01*
X-57595Y-20547D01*
X-54999Y-21622D01*
X-52189Y-21622D01*
X-49593Y-20547D01*
X-49481Y-20435D01*
X-49261Y-20282D01*
X-48966Y-20212D01*
X-48667Y-20263D01*
X-48412Y-20426D01*
X-48240Y-20676D01*
X-48180Y-20974D01*
X-48180Y-25942D01*
X-48227Y-26206D01*
X-48386Y-26464D01*
X-48634Y-26639D01*
X-48930Y-26704D01*
X-49228Y-26649D01*
X-49481Y-26481D01*
X-49593Y-26369D01*
X-52189Y-25294D01*
X-54999Y-25294D01*
X-57595Y-26369D01*
X-59583Y-28357D01*
X-60658Y-30953D01*
X-60658Y-33763D01*
X-59583Y-36359D01*
X-57595Y-38347D01*
X-54999Y-39422D01*
X-52189Y-39422D01*
X-49593Y-38347D01*
X-49481Y-38235D01*
X-49261Y-38082D01*
X-48966Y-38012D01*
X-48667Y-38063D01*
X-48412Y-38226D01*
X-48240Y-38476D01*
X-48180Y-38774D01*
X-48180Y-43742D01*
X-48227Y-44006D01*
X-48386Y-44264D01*
X-48634Y-44439D01*
X-48930Y-44504D01*
X-49228Y-44449D01*
X-49481Y-44281D01*
X-49593Y-44169D01*
X-52189Y-43094D01*
X-54999Y-43094D01*
X-57595Y-44169D01*
X-59583Y-46157D01*
X-60658Y-48753D01*
X-60658Y-51563D01*
X-59583Y-54159D01*
X-57595Y-56147D01*
X-57580Y-56153D01*
X-57350Y-56301D01*
X-57175Y-56549D01*
X-57109Y-56845D01*
X-57165Y-57143D01*
X-57333Y-57396D01*
X-63706Y-63769D01*
X-63706Y-105569D01*
X-16703Y-152572D01*
G37*
G36*
X107827Y26934D02*
X112173Y26934D01*
X116187Y28596D01*
X119259Y31669D01*
X120922Y35683D01*
X120922Y40028D01*
X119259Y44042D01*
X116187Y47115D01*
X112173Y48778D01*
X107827Y48778D01*
X103813Y47115D01*
X100741Y44042D01*
X99078Y40028D01*
X99078Y35683D01*
X100741Y31669D01*
X103813Y28596D01*
X107827Y26934D01*
G37*
G36*
X-103953Y-46721D02*
X-99558Y-46721D01*
X-96449Y-43612D01*
X-96449Y-41076D01*
X-96394Y-40790D01*
X-96226Y-40537D01*
X-71219Y-15529D01*
X-70977Y-15366D01*
X-70680Y-15306D01*
X-67802Y-15306D01*
X-64694Y-12198D01*
X-64694Y-7802D01*
X-67802Y-4694D01*
X-72198Y-4694D01*
X-75306Y-7802D01*
X-75306Y-10680D01*
X-75362Y-10966D01*
X-75529Y-11219D01*
X-100196Y-35885D01*
X-100438Y-36048D01*
X-100735Y-36109D01*
X-103953Y-36109D01*
X-107061Y-39217D01*
X-107061Y-43612D01*
X-103953Y-46721D01*
G37*
G36*
X110762Y-62982D02*
X121938Y-62982D01*
X121938Y-61370D01*
X120121Y-56982D01*
X116762Y-53624D01*
X112375Y-51806D01*
X110762Y-51806D01*
X110762Y-62982D01*
G37*
G36*
X98062Y-62982D02*
X109238Y-62982D01*
X109238Y-51806D01*
X107625Y-51806D01*
X103238Y-53624D01*
X99879Y-56982D01*
X98062Y-61370D01*
X98062Y-62982D01*
G37*
G36*
X110762Y-75682D02*
X112375Y-75682D01*
X116762Y-73865D01*
X120121Y-70507D01*
X121938Y-66119D01*
X121938Y-64506D01*
X110762Y-64506D01*
X110762Y-75682D01*
G37*
G36*
X107625Y-75682D02*
X109238Y-75682D01*
X109238Y-64506D01*
X98062Y-64506D01*
X98062Y-66119D01*
X99879Y-70507D01*
X103238Y-73865D01*
X107625Y-75682D01*
G37*
G36*
X-98282Y-151500D02*
X-91718Y-151500D01*
X-85654Y-148988D01*
X-81012Y-144347D01*
X-78500Y-138282D01*
X-78500Y-131718D01*
X-81012Y-125654D01*
X-85654Y-121012D01*
X-91718Y-118500D01*
X-98282Y-118500D01*
X-104347Y-121012D01*
X-108988Y-125654D01*
X-111500Y-131718D01*
X-111500Y-138282D01*
X-108988Y-144347D01*
X-104347Y-148988D01*
X-98282Y-151500D01*
G37*
G36*
X91718Y-151500D02*
X98282Y-151500D01*
X104347Y-148988D01*
X108988Y-144347D01*
X111500Y-138282D01*
X111500Y-131718D01*
X108988Y-125654D01*
X104347Y-121012D01*
X98282Y-118500D01*
X91718Y-118500D01*
X85654Y-121012D01*
X81012Y-125654D01*
X78500Y-131718D01*
X78500Y-138282D01*
X81012Y-144347D01*
X85654Y-148988D01*
X91718Y-151500D01*
G37*
%LPD*%
G36*
X49007Y-71124D02*
X48712Y-71194D01*
X48413Y-71143D01*
X48158Y-70980D01*
X47986Y-70730D01*
X47926Y-70432D01*
X47926Y-65464D01*
X47973Y-65200D01*
X48132Y-64942D01*
X48380Y-64767D01*
X48676Y-64702D01*
X48974Y-64757D01*
X49227Y-64925D01*
X49339Y-65037D01*
X51935Y-66112D01*
X54745Y-66112D01*
X57341Y-65037D01*
X59329Y-63049D01*
X60404Y-60453D01*
X60404Y-57643D01*
X59888Y-56398D01*
X59830Y-56118D01*
X59886Y-55820D01*
X60053Y-55567D01*
X80931Y-34690D01*
X81151Y-34537D01*
X81446Y-34467D01*
X81745Y-34518D01*
X82000Y-34681D01*
X82172Y-34931D01*
X82232Y-35228D01*
X82232Y-37667D01*
X85340Y-40775D01*
X86741Y-40775D01*
X87004Y-40822D01*
X87262Y-40981D01*
X87438Y-41228D01*
X87503Y-41525D01*
X87447Y-41823D01*
X87280Y-42076D01*
X58458Y-70898D01*
X58227Y-71056D01*
X57931Y-71121D01*
X57633Y-71065D01*
X57380Y-70898D01*
X57341Y-70859D01*
X54745Y-69784D01*
X51935Y-69784D01*
X49339Y-70859D01*
X49227Y-70971D01*
X49007Y-71124D01*
G37*
G36*
X-13349Y-140317D02*
X-5983Y-140317D01*
X-5983Y-142984D01*
X-13349Y-142984D01*
X-13349Y-140317D01*
G37*
G36*
X-13349Y-140317D02*
X-5983Y-140317D01*
X-5983Y-142984D01*
X-13349Y-142984D01*
X-13349Y-140317D01*
G37*
G36*
X-6618Y-140317D02*
X749Y-140317D01*
X749Y-142984D01*
X-6618Y-142984D01*
X-6618Y-140317D01*
G37*
G36*
X-6618Y-140317D02*
X749Y-140317D01*
X749Y-142984D01*
X-6618Y-142984D01*
X-6618Y-140317D01*
G37*
D10*
X110000Y88656D03*
X110000Y63256D03*
X110000Y37856D03*
X110000Y12456D03*
X110000Y-12944D03*
X110000Y-38344D03*
X110000Y-63744D03*
X110000Y-89144D03*
D11*
X-53594Y56642D03*
D12*
X-53594Y38842D03*
X-53594Y21042D03*
X-53594Y3242D03*
X-53594Y-14558D03*
X-53594Y-32358D03*
X-53594Y-50158D03*
X-53594Y-67958D03*
X53340Y47752D03*
X53340Y29952D03*
X53340Y12152D03*
X53340Y-5648D03*
X53340Y-23448D03*
X53340Y-41248D03*
X53340Y-59048D03*
X53340Y-76848D03*
D13*
X-1093Y-141650D03*
X-11507Y-141650D03*
D14*
X63579Y-23650D03*
X71707Y-23650D03*
D15*
X5000Y-99000D03*
D16*
X-49704Y-71848D02*
X-53594Y-67958D01*
X-49704Y-71848D02*
X-49704Y-90840D01*
D15*
X50000Y-100000D03*
D16*
X61825Y-99826D02*
X97907Y-63744D01*
X110000Y-63744D01*
X-47273Y-93272D02*
X-49704Y-90840D01*
X-728Y-93272D02*
X5000Y-99000D01*
X-728Y-93272D02*
X-47273Y-93272D01*
X50000Y-100000D02*
X50174Y-99826D01*
X61825Y-99826D01*
D15*
X71000Y-50000D03*
X74000Y-72000D03*
X114000Y-116000D03*
D16*
X-70000Y-10000D02*
X-100000Y-40000D01*
D15*
X-70000Y-10000D03*
X-101755Y-41415D03*
D16*
X-100341Y-40000D01*
X-100000Y-40000D01*
X-60000Y65627D02*
X-60000Y80000D01*
X-60000Y65627D02*
X-62182Y63445D01*
X-62182Y11830D02*
X-53594Y3242D01*
X-62182Y11830D02*
X-62182Y63445D01*
X-60000Y80000D02*
X-50000Y90000D01*
X50000Y90000D01*
X80000Y60000D01*
X80000Y50000D01*
D15*
X80000Y50000D03*
D16*
X104084Y94572D02*
X-51894Y94572D01*
X-66754Y79712D02*
X-66754Y4257D01*
X-66754Y79712D02*
X-51894Y94572D01*
X104084Y94572D02*
X110000Y88656D01*
X-53594Y-8903D02*
X-66754Y4257D01*
X-53594Y-8903D02*
X-53594Y-14558D01*
D17*
X-53594Y-50158D02*
X-53594Y-56890D01*
X-61420Y-64716D01*
X-61420Y-104622D01*
X101856Y-89144D02*
X110000Y-89144D01*
X-15756Y-150286D02*
X-61420Y-104622D01*
X40714Y-150286D02*
X101856Y-89144D01*
X40714Y-150286D02*
X-15756Y-150286D01*
X-11507Y-141650D02*
X-1093Y-141650D01*
X-11507Y-141650D02*
X-11507Y-138493D01*
D15*
X15000Y-128000D03*
D17*
X1350Y-141650D01*
X-1093Y-141650D01*
D15*
X52000Y-113000D03*
X-49102Y-100102D03*
D17*
X-49102Y-100898D02*
X-11507Y-138493D01*
X-49102Y-100898D02*
X-49102Y-100102D01*
X92000Y45256D02*
X110000Y63256D01*
X92000Y45256D02*
X92000Y1000D01*
D15*
X78043Y-12957D03*
D17*
X92000Y1000D01*
X52000Y-113000D02*
X37000Y-128000D01*
X15000Y-128000D01*
X71707Y-23650D02*
X71707Y-19293D01*
X78043Y-12957D01*
D15*
X-3000Y-126806D03*
D17*
X54378Y-42286D02*
X53340Y-41248D01*
X60115Y-90877D02*
X57093Y-93900D01*
X-3000Y-120000D02*
X-3000Y-126806D01*
D15*
X60234Y-90996D03*
D17*
X60115Y-90877D01*
X17000Y-100000D02*
X-3000Y-120000D01*
X17000Y-100000D02*
X40000Y-100000D01*
X46100Y-93900D01*
X57093Y-93900D01*
X110000Y3579D02*
X110000Y12456D01*
X110000Y3579D02*
X98316Y-8105D01*
X98316Y-14072D01*
X53340Y-59048D01*
X55740Y-76848D02*
X94244Y-38344D01*
X55740Y-76848D02*
X53340Y-76848D01*
X94244Y-38344D02*
X110000Y-38344D01*
X110000Y-13069D02*
X110000Y-12944D01*
D15*
X87538Y-35469D03*
D17*
X87601Y-35469D02*
X110000Y-13069D01*
X87601Y-35469D02*
X87538Y-35469D01*
X63377Y-23448D02*
X53340Y-23448D01*
X63377Y-23448D02*
X63579Y-23650D01*
M02*
