G04 EAGLE Gerber RS-274X export*
G75*
%MOMM*%
%FSLAX34Y34*%
%LPD*%
%INSilkscreen Top*%
%IPPOS*%
%AMOC8*
5,1,8,0,0,1.08239X$1,22.5*%
G01*
G04 Define Apertures*
%ADD10C,0.152400*%
%ADD11C,0.203200*%
%ADD12C,0.127000*%
%ADD13C,0.254000*%
G36*
X-71175Y121600D02*
X-72261Y121600D01*
X-70105Y124714D01*
X-72160Y127659D01*
X-71046Y127659D01*
X-69534Y125302D01*
X-68033Y127659D01*
X-66908Y127659D01*
X-68963Y124725D01*
X-66779Y121600D01*
X-67904Y121600D01*
X-69534Y124086D01*
X-71175Y121600D01*
G37*
G36*
X-42110Y133190D02*
X-42491Y133205D01*
X-42805Y133252D01*
X-42805Y134008D01*
X-42581Y133982D01*
X-42334Y133974D01*
X-42105Y133996D01*
X-41889Y134060D01*
X-41684Y134169D01*
X-41492Y134320D01*
X-41312Y134514D01*
X-41144Y134752D01*
X-40988Y135033D01*
X-40845Y135357D01*
X-40750Y135598D01*
X-43152Y141629D01*
X-42077Y141629D01*
X-40800Y138280D01*
X-40733Y138093D01*
X-40481Y137362D01*
X-40251Y136668D01*
X-39859Y137771D01*
X-38532Y141629D01*
X-37468Y141629D01*
X-39798Y135570D01*
X-39982Y135117D01*
X-40160Y134725D01*
X-40332Y134396D01*
X-40498Y134128D01*
X-40664Y133906D01*
X-40840Y133715D01*
X-41024Y133554D01*
X-41217Y133422D01*
X-41421Y133321D01*
X-41638Y133248D01*
X-41868Y133205D01*
X-42110Y133190D01*
G37*
G36*
X-72308Y99916D02*
X-72555Y99928D01*
X-72786Y99965D01*
X-73002Y100025D01*
X-73201Y100110D01*
X-73385Y100219D01*
X-73552Y100353D01*
X-73704Y100510D01*
X-73840Y100692D01*
X-73960Y100898D01*
X-74064Y101125D01*
X-74152Y101375D01*
X-74224Y101647D01*
X-74280Y101941D01*
X-74320Y102258D01*
X-74344Y102597D01*
X-74352Y102958D01*
X-74344Y103327D01*
X-74321Y103672D01*
X-74282Y103993D01*
X-74228Y104291D01*
X-74158Y104564D01*
X-74072Y104814D01*
X-73971Y105039D01*
X-73855Y105241D01*
X-73721Y105419D01*
X-73570Y105573D01*
X-73401Y105704D01*
X-73213Y105811D01*
X-73008Y105894D01*
X-72784Y105953D01*
X-72543Y105989D01*
X-72283Y106001D01*
X-72030Y105989D01*
X-71795Y105953D01*
X-71576Y105893D01*
X-71375Y105809D01*
X-71191Y105701D01*
X-71024Y105569D01*
X-70874Y105413D01*
X-70741Y105233D01*
X-70624Y105029D01*
X-70523Y104803D01*
X-70438Y104553D01*
X-70368Y104280D01*
X-70314Y103984D01*
X-70275Y103665D01*
X-70252Y103323D01*
X-70244Y102958D01*
X-70252Y102599D01*
X-70276Y102261D01*
X-70317Y101946D01*
X-70374Y101652D01*
X-70448Y101380D01*
X-70538Y101131D01*
X-70644Y100903D01*
X-70766Y100697D01*
X-70905Y100514D01*
X-71059Y100355D01*
X-71228Y100221D01*
X-71413Y100111D01*
X-71613Y100026D01*
X-71830Y99965D01*
X-72061Y99928D01*
X-72308Y99916D01*
G37*
%LPC*%
G36*
X-72300Y100533D02*
X-72139Y100542D01*
X-71989Y100570D01*
X-71850Y100617D01*
X-71722Y100682D01*
X-71605Y100766D01*
X-71500Y100868D01*
X-71405Y100989D01*
X-71322Y101129D01*
X-71249Y101288D01*
X-71186Y101467D01*
X-71089Y101884D01*
X-71031Y102381D01*
X-71012Y102958D01*
X-71030Y103554D01*
X-71086Y104062D01*
X-71178Y104482D01*
X-71238Y104658D01*
X-71308Y104813D01*
X-71387Y104948D01*
X-71479Y105065D01*
X-71583Y105163D01*
X-71699Y105244D01*
X-71827Y105307D01*
X-71967Y105352D01*
X-72119Y105379D01*
X-72283Y105388D01*
X-72451Y105379D01*
X-72607Y105352D01*
X-72750Y105308D01*
X-72882Y105246D01*
X-73001Y105167D01*
X-73107Y105069D01*
X-73202Y104954D01*
X-73284Y104821D01*
X-73355Y104668D01*
X-73417Y104493D01*
X-73469Y104294D01*
X-73512Y104072D01*
X-73569Y103561D01*
X-73588Y102958D01*
X-73569Y102371D01*
X-73511Y101868D01*
X-73468Y101649D01*
X-73415Y101450D01*
X-73352Y101273D01*
X-73280Y101116D01*
X-73197Y100979D01*
X-73103Y100861D01*
X-72997Y100761D01*
X-72881Y100679D01*
X-72752Y100615D01*
X-72613Y100569D01*
X-72462Y100542D01*
X-72300Y100533D01*
G37*
%LPD*%
G36*
X-46027Y99916D02*
X-46274Y99928D01*
X-46505Y99965D01*
X-46720Y100025D01*
X-46920Y100110D01*
X-47103Y100219D01*
X-47271Y100353D01*
X-47423Y100510D01*
X-47559Y100692D01*
X-47679Y100898D01*
X-47783Y101125D01*
X-47871Y101375D01*
X-47943Y101647D01*
X-47999Y101941D01*
X-48039Y102258D01*
X-48063Y102597D01*
X-48071Y102958D01*
X-48063Y103327D01*
X-48040Y103672D01*
X-48001Y103993D01*
X-47946Y104291D01*
X-47876Y104564D01*
X-47791Y104814D01*
X-47690Y105039D01*
X-47573Y105241D01*
X-47440Y105419D01*
X-47289Y105573D01*
X-47119Y105704D01*
X-46932Y105811D01*
X-46726Y105894D01*
X-46503Y105953D01*
X-46261Y105989D01*
X-46002Y106001D01*
X-45749Y105989D01*
X-45514Y105953D01*
X-45295Y105893D01*
X-45094Y105809D01*
X-44910Y105701D01*
X-44743Y105569D01*
X-44593Y105413D01*
X-44460Y105233D01*
X-44343Y105029D01*
X-44242Y104803D01*
X-44157Y104553D01*
X-44087Y104280D01*
X-44032Y103984D01*
X-43994Y103665D01*
X-43970Y103323D01*
X-43963Y102958D01*
X-43971Y102599D01*
X-43995Y102261D01*
X-44036Y101946D01*
X-44093Y101652D01*
X-44167Y101380D01*
X-44256Y101131D01*
X-44363Y100903D01*
X-44485Y100697D01*
X-44623Y100514D01*
X-44777Y100355D01*
X-44947Y100221D01*
X-45132Y100111D01*
X-45332Y100026D01*
X-45548Y99965D01*
X-45780Y99928D01*
X-46027Y99916D01*
G37*
%LPC*%
G36*
X-46019Y100533D02*
X-45857Y100542D01*
X-45707Y100570D01*
X-45568Y100617D01*
X-45441Y100682D01*
X-45324Y100766D01*
X-45219Y100868D01*
X-45124Y100989D01*
X-45041Y101129D01*
X-44968Y101288D01*
X-44905Y101467D01*
X-44808Y101884D01*
X-44750Y102381D01*
X-44730Y102958D01*
X-44749Y103554D01*
X-44804Y104062D01*
X-44897Y104482D01*
X-44957Y104658D01*
X-45026Y104813D01*
X-45106Y104948D01*
X-45198Y105065D01*
X-45302Y105163D01*
X-45418Y105244D01*
X-45546Y105307D01*
X-45686Y105352D01*
X-45838Y105379D01*
X-46002Y105388D01*
X-46170Y105379D01*
X-46326Y105352D01*
X-46469Y105308D01*
X-46600Y105246D01*
X-46719Y105167D01*
X-46826Y105069D01*
X-46920Y104954D01*
X-47003Y104821D01*
X-47074Y104668D01*
X-47136Y104493D01*
X-47188Y104294D01*
X-47231Y104072D01*
X-47288Y103561D01*
X-47307Y102958D01*
X-47288Y102371D01*
X-47230Y101868D01*
X-47186Y101649D01*
X-47133Y101450D01*
X-47071Y101273D01*
X-46998Y101116D01*
X-46916Y100979D01*
X-46822Y100861D01*
X-46716Y100761D01*
X-46599Y100679D01*
X-46471Y100615D01*
X-46332Y100569D01*
X-46181Y100542D01*
X-46019Y100533D01*
G37*
%LPD*%
G36*
X-65000Y99916D02*
X-65208Y99925D01*
X-65402Y99952D01*
X-65581Y99998D01*
X-65747Y100061D01*
X-65898Y100142D01*
X-66035Y100242D01*
X-66157Y100359D01*
X-66265Y100495D01*
X-66360Y100649D01*
X-66443Y100822D01*
X-66512Y101013D01*
X-66569Y101223D01*
X-66613Y101452D01*
X-66645Y101699D01*
X-66664Y101965D01*
X-66670Y102249D01*
X-66664Y102537D01*
X-66644Y102806D01*
X-66612Y103056D01*
X-66566Y103288D01*
X-66507Y103502D01*
X-66436Y103696D01*
X-66351Y103873D01*
X-66253Y104030D01*
X-66142Y104170D01*
X-66018Y104290D01*
X-65881Y104392D01*
X-65731Y104476D01*
X-65568Y104541D01*
X-65392Y104587D01*
X-65203Y104615D01*
X-65000Y104624D01*
X-64753Y104612D01*
X-64527Y104577D01*
X-64323Y104518D01*
X-64140Y104435D01*
X-63976Y104327D01*
X-63830Y104191D01*
X-63700Y104027D01*
X-63586Y103835D01*
X-63578Y103835D01*
X-63586Y104343D01*
X-63586Y106227D01*
X-62831Y106227D01*
X-62831Y100936D01*
X-62825Y100347D01*
X-62806Y100000D01*
X-63527Y100000D01*
X-63555Y100311D01*
X-63569Y100730D01*
X-63586Y100730D01*
X-63700Y100527D01*
X-63830Y100356D01*
X-63978Y100215D01*
X-64142Y100105D01*
X-64326Y100022D01*
X-64530Y99963D01*
X-64755Y99928D01*
X-65000Y99916D01*
G37*
%LPC*%
G36*
X-64807Y100499D02*
X-64652Y100506D01*
X-64508Y100527D01*
X-64375Y100562D01*
X-64253Y100611D01*
X-64142Y100673D01*
X-64043Y100750D01*
X-63954Y100840D01*
X-63885Y100932D01*
X-63876Y100944D01*
X-63749Y101197D01*
X-63659Y101512D01*
X-63604Y101887D01*
X-63586Y102325D01*
X-63604Y102746D01*
X-63659Y103106D01*
X-63749Y103407D01*
X-63876Y103646D01*
X-63954Y103745D01*
X-64042Y103830D01*
X-64141Y103902D01*
X-64251Y103961D01*
X-64372Y104007D01*
X-64504Y104040D01*
X-64646Y104060D01*
X-64799Y104066D01*
X-64937Y104059D01*
X-65064Y104040D01*
X-65182Y104007D01*
X-65290Y103961D01*
X-65389Y103901D01*
X-65477Y103829D01*
X-65623Y103644D01*
X-65735Y103401D01*
X-65814Y103091D01*
X-65861Y102716D01*
X-65877Y102274D01*
X-65862Y101832D01*
X-65814Y101457D01*
X-65736Y101150D01*
X-65626Y100911D01*
X-65480Y100731D01*
X-65295Y100602D01*
X-65188Y100557D01*
X-65071Y100525D01*
X-64944Y100506D01*
X-64807Y100499D01*
G37*
%LPD*%
G36*
X-108494Y100000D02*
X-109295Y100000D01*
X-109295Y105912D01*
X-106807Y105912D01*
X-106565Y105905D01*
X-106338Y105883D01*
X-106124Y105847D01*
X-105925Y105796D01*
X-105739Y105730D01*
X-105568Y105650D01*
X-105410Y105556D01*
X-105267Y105447D01*
X-105139Y105324D01*
X-105028Y105190D01*
X-104934Y105044D01*
X-104858Y104885D01*
X-104798Y104715D01*
X-104755Y104533D01*
X-104730Y104339D01*
X-104721Y104133D01*
X-104730Y103929D01*
X-104755Y103735D01*
X-104798Y103552D01*
X-104858Y103380D01*
X-104935Y103219D01*
X-105029Y103068D01*
X-105141Y102928D01*
X-105269Y102799D01*
X-105412Y102683D01*
X-105567Y102582D01*
X-105735Y102497D01*
X-105915Y102427D01*
X-106107Y102373D01*
X-106311Y102335D01*
X-106528Y102311D01*
X-106756Y102304D01*
X-108494Y102304D01*
X-108494Y100000D01*
G37*
%LPC*%
G36*
X-106870Y102937D02*
X-106555Y102956D01*
X-106282Y103012D01*
X-106051Y103104D01*
X-105863Y103234D01*
X-105716Y103401D01*
X-105611Y103605D01*
X-105548Y103847D01*
X-105527Y104125D01*
X-105548Y104393D01*
X-105613Y104626D01*
X-105720Y104823D01*
X-105871Y104984D01*
X-106065Y105109D01*
X-106301Y105199D01*
X-106581Y105252D01*
X-106903Y105270D01*
X-108494Y105270D01*
X-108494Y102937D01*
X-106870Y102937D01*
G37*
%LPD*%
G36*
X-94389Y100000D02*
X-95346Y100000D01*
X-97087Y105912D01*
X-96252Y105912D01*
X-95191Y102157D01*
X-95009Y101441D01*
X-94842Y100705D01*
X-94609Y101712D01*
X-94252Y103035D01*
X-93445Y105912D01*
X-92677Y105912D01*
X-91649Y102232D01*
X-91439Y101399D01*
X-91280Y100705D01*
X-91242Y100852D01*
X-91057Y101639D01*
X-89878Y105912D01*
X-89043Y105912D01*
X-90785Y100000D01*
X-91741Y100000D01*
X-92765Y103756D01*
X-92889Y104248D01*
X-93059Y105019D01*
X-93244Y104205D01*
X-94389Y100000D01*
G37*
G36*
X-76976Y99916D02*
X-77219Y99928D01*
X-77446Y99963D01*
X-77659Y100021D01*
X-77857Y100102D01*
X-78041Y100206D01*
X-78210Y100334D01*
X-78364Y100485D01*
X-78504Y100659D01*
X-78628Y100855D01*
X-78735Y101072D01*
X-78826Y101311D01*
X-78900Y101570D01*
X-78958Y101851D01*
X-78999Y102153D01*
X-79024Y102476D01*
X-79032Y102820D01*
X-79024Y103193D01*
X-78998Y103543D01*
X-78955Y103871D01*
X-78895Y104177D01*
X-78818Y104461D01*
X-78723Y104722D01*
X-78612Y104961D01*
X-78483Y105178D01*
X-78338Y105371D01*
X-78179Y105538D01*
X-78005Y105679D01*
X-77817Y105795D01*
X-77614Y105885D01*
X-77396Y105949D01*
X-77164Y105988D01*
X-76918Y106001D01*
X-76598Y105982D01*
X-76310Y105925D01*
X-76053Y105831D01*
X-75827Y105699D01*
X-75631Y105530D01*
X-75467Y105323D01*
X-75333Y105078D01*
X-75231Y104796D01*
X-75952Y104666D01*
X-76016Y104835D01*
X-76097Y104982D01*
X-76194Y105106D01*
X-76307Y105207D01*
X-76437Y105286D01*
X-76583Y105343D01*
X-76746Y105377D01*
X-76926Y105388D01*
X-77083Y105378D01*
X-77231Y105350D01*
X-77370Y105303D01*
X-77499Y105237D01*
X-77620Y105153D01*
X-77731Y105049D01*
X-77833Y104927D01*
X-77927Y104786D01*
X-78010Y104627D01*
X-78082Y104451D01*
X-78143Y104258D01*
X-78193Y104049D01*
X-78231Y103822D01*
X-78259Y103579D01*
X-78281Y103042D01*
X-78168Y103222D01*
X-78034Y103378D01*
X-77878Y103512D01*
X-77702Y103623D01*
X-77509Y103711D01*
X-77301Y103773D01*
X-77081Y103810D01*
X-76846Y103823D01*
X-76647Y103815D01*
X-76458Y103791D01*
X-76280Y103751D01*
X-76112Y103695D01*
X-75955Y103623D01*
X-75809Y103535D01*
X-75673Y103431D01*
X-75547Y103311D01*
X-75435Y103177D01*
X-75337Y103033D01*
X-75255Y102877D01*
X-75187Y102711D01*
X-75135Y102533D01*
X-75097Y102345D01*
X-75075Y102145D01*
X-75067Y101934D01*
X-75075Y101707D01*
X-75099Y101491D01*
X-75138Y101288D01*
X-75194Y101097D01*
X-75265Y100919D01*
X-75353Y100753D01*
X-75456Y100599D01*
X-75575Y100457D01*
X-75708Y100331D01*
X-75853Y100221D01*
X-76010Y100128D01*
X-76179Y100051D01*
X-76360Y99992D01*
X-76553Y99950D01*
X-76759Y99925D01*
X-76976Y99916D01*
G37*
%LPC*%
G36*
X-77001Y100525D02*
X-76743Y100547D01*
X-76515Y100616D01*
X-76315Y100731D01*
X-76145Y100892D01*
X-76010Y101092D01*
X-75913Y101328D01*
X-75854Y101597D01*
X-75835Y101901D01*
X-75855Y102204D01*
X-75914Y102469D01*
X-76012Y102699D01*
X-76150Y102891D01*
X-76322Y103044D01*
X-76526Y103152D01*
X-76761Y103218D01*
X-77027Y103239D01*
X-77278Y103220D01*
X-77504Y103162D01*
X-77705Y103066D01*
X-77881Y102931D01*
X-78023Y102762D01*
X-78124Y102564D01*
X-78185Y102337D01*
X-78206Y102081D01*
X-78185Y101755D01*
X-78121Y101459D01*
X-78016Y101195D01*
X-77868Y100961D01*
X-77687Y100770D01*
X-77482Y100634D01*
X-77254Y100552D01*
X-77131Y100531D01*
X-77001Y100525D01*
G37*
%LPD*%
G36*
X-102863Y100000D02*
X-103576Y100000D01*
X-103576Y105912D01*
X-102523Y105912D01*
X-100950Y101813D01*
X-100788Y101282D01*
X-100685Y100873D01*
X-100545Y101383D01*
X-100400Y101813D01*
X-98856Y105912D01*
X-97828Y105912D01*
X-97828Y100000D01*
X-98549Y100000D01*
X-98549Y103944D01*
X-98540Y104586D01*
X-98512Y105203D01*
X-98707Y104534D01*
X-98881Y104028D01*
X-100408Y100000D01*
X-100971Y100000D01*
X-102519Y104028D01*
X-102754Y104742D01*
X-102892Y105203D01*
X-102880Y104737D01*
X-102863Y103944D01*
X-102863Y100000D01*
G37*
G36*
X-59825Y99916D02*
X-60069Y99925D01*
X-60298Y99954D01*
X-60512Y100000D01*
X-60712Y100066D01*
X-60896Y100150D01*
X-61065Y100254D01*
X-61219Y100375D01*
X-61358Y100516D01*
X-61482Y100675D01*
X-61589Y100853D01*
X-61679Y101048D01*
X-61753Y101262D01*
X-61811Y101494D01*
X-61852Y101744D01*
X-61877Y102013D01*
X-61885Y102299D01*
X-61877Y102572D01*
X-61852Y102829D01*
X-61811Y103069D01*
X-61753Y103293D01*
X-61679Y103500D01*
X-61589Y103691D01*
X-61482Y103866D01*
X-61358Y104024D01*
X-61220Y104165D01*
X-61067Y104287D01*
X-60900Y104390D01*
X-60719Y104474D01*
X-60524Y104540D01*
X-60315Y104587D01*
X-60091Y104615D01*
X-59854Y104624D01*
X-59612Y104615D01*
X-59385Y104586D01*
X-59174Y104539D01*
X-58978Y104473D01*
X-58799Y104389D01*
X-58634Y104285D01*
X-58486Y104162D01*
X-58353Y104021D01*
X-58236Y103861D01*
X-58134Y103682D01*
X-58048Y103484D01*
X-57978Y103267D01*
X-57923Y103031D01*
X-57884Y102777D01*
X-57860Y102504D01*
X-57852Y102211D01*
X-57852Y102111D01*
X-61092Y102111D01*
X-61072Y101743D01*
X-61011Y101419D01*
X-60910Y101141D01*
X-60769Y100906D01*
X-60589Y100721D01*
X-60485Y100648D01*
X-60371Y100589D01*
X-60249Y100542D01*
X-60117Y100509D01*
X-59975Y100489D01*
X-59825Y100483D01*
X-59591Y100495D01*
X-59382Y100532D01*
X-59198Y100593D01*
X-59038Y100680D01*
X-58902Y100785D01*
X-58790Y100903D01*
X-58702Y101035D01*
X-58637Y101179D01*
X-57974Y100990D01*
X-58092Y100739D01*
X-58242Y100520D01*
X-58425Y100336D01*
X-58640Y100185D01*
X-58888Y100067D01*
X-59168Y99983D01*
X-59480Y99933D01*
X-59825Y99916D01*
G37*
%LPC*%
G36*
X-58633Y102690D02*
X-58679Y103024D01*
X-58756Y103310D01*
X-58862Y103548D01*
X-58998Y103737D01*
X-59166Y103881D01*
X-59366Y103984D01*
X-59600Y104045D01*
X-59867Y104066D01*
X-60127Y104043D01*
X-60359Y103974D01*
X-60563Y103860D01*
X-60737Y103699D01*
X-60879Y103498D01*
X-60984Y103263D01*
X-61052Y102994D01*
X-61083Y102690D01*
X-58633Y102690D01*
G37*
%LPD*%
G36*
X-86604Y99916D02*
X-86823Y99922D01*
X-87030Y99941D01*
X-87226Y99973D01*
X-87411Y100017D01*
X-87585Y100074D01*
X-87747Y100144D01*
X-87898Y100226D01*
X-88037Y100321D01*
X-88164Y100428D01*
X-88277Y100548D01*
X-88377Y100679D01*
X-88463Y100823D01*
X-88536Y100979D01*
X-88595Y101147D01*
X-88641Y101327D01*
X-88673Y101519D01*
X-87892Y101590D01*
X-87839Y101344D01*
X-87755Y101131D01*
X-87640Y100951D01*
X-87495Y100804D01*
X-87318Y100689D01*
X-87111Y100607D01*
X-86873Y100558D01*
X-86604Y100541D01*
X-86334Y100559D01*
X-86095Y100612D01*
X-85886Y100699D01*
X-85708Y100822D01*
X-85566Y100980D01*
X-85464Y101172D01*
X-85403Y101398D01*
X-85383Y101657D01*
X-85406Y101886D01*
X-85476Y102087D01*
X-85592Y102262D01*
X-85754Y102411D01*
X-85961Y102529D01*
X-86208Y102614D01*
X-86497Y102664D01*
X-86826Y102681D01*
X-87254Y102681D01*
X-87254Y103336D01*
X-86843Y103336D01*
X-86550Y103353D01*
X-86292Y103404D01*
X-86069Y103488D01*
X-85880Y103607D01*
X-85731Y103755D01*
X-85624Y103929D01*
X-85560Y104129D01*
X-85538Y104356D01*
X-85556Y104580D01*
X-85608Y104780D01*
X-85695Y104955D01*
X-85817Y105105D01*
X-85974Y105225D01*
X-86164Y105311D01*
X-86388Y105362D01*
X-86646Y105379D01*
X-86884Y105363D01*
X-87098Y105315D01*
X-87288Y105236D01*
X-87454Y105124D01*
X-87592Y104982D01*
X-87698Y104815D01*
X-87771Y104622D01*
X-87813Y104402D01*
X-88572Y104461D01*
X-88544Y104637D01*
X-88503Y104804D01*
X-88448Y104960D01*
X-88380Y105107D01*
X-88297Y105243D01*
X-88202Y105370D01*
X-88093Y105487D01*
X-87970Y105593D01*
X-87692Y105772D01*
X-87540Y105842D01*
X-87378Y105899D01*
X-87207Y105943D01*
X-87026Y105975D01*
X-86836Y105994D01*
X-86638Y106001D01*
X-86421Y105994D01*
X-86218Y105975D01*
X-86026Y105942D01*
X-85847Y105897D01*
X-85681Y105839D01*
X-85526Y105768D01*
X-85384Y105684D01*
X-85255Y105587D01*
X-85139Y105479D01*
X-85039Y105360D01*
X-84955Y105231D01*
X-84885Y105093D01*
X-84831Y104944D01*
X-84793Y104784D01*
X-84770Y104615D01*
X-84762Y104435D01*
X-84782Y104165D01*
X-84841Y103922D01*
X-84940Y103705D01*
X-85079Y103514D01*
X-85255Y103351D01*
X-85467Y103217D01*
X-85716Y103111D01*
X-86000Y103034D01*
X-86000Y103017D01*
X-85687Y102962D01*
X-85410Y102870D01*
X-85171Y102740D01*
X-84968Y102572D01*
X-84806Y102373D01*
X-84691Y102151D01*
X-84621Y101903D01*
X-84598Y101632D01*
X-84606Y101434D01*
X-84631Y101246D01*
X-84671Y101071D01*
X-84728Y100906D01*
X-84802Y100754D01*
X-84891Y100613D01*
X-84997Y100483D01*
X-85119Y100365D01*
X-85256Y100260D01*
X-85407Y100169D01*
X-85571Y100091D01*
X-85750Y100028D01*
X-85943Y99979D01*
X-86149Y99944D01*
X-86370Y99923D01*
X-86604Y99916D01*
G37*
G36*
X-81854Y99916D02*
X-82073Y99922D01*
X-82280Y99941D01*
X-82476Y99973D01*
X-82661Y100017D01*
X-82835Y100074D01*
X-82997Y100144D01*
X-83148Y100226D01*
X-83287Y100321D01*
X-83414Y100428D01*
X-83527Y100548D01*
X-83627Y100679D01*
X-83713Y100823D01*
X-83786Y100979D01*
X-83845Y101147D01*
X-83891Y101327D01*
X-83923Y101519D01*
X-83142Y101590D01*
X-83089Y101344D01*
X-83005Y101131D01*
X-82890Y100951D01*
X-82745Y100804D01*
X-82568Y100689D01*
X-82361Y100607D01*
X-82123Y100558D01*
X-81854Y100541D01*
X-81584Y100559D01*
X-81345Y100612D01*
X-81136Y100699D01*
X-80958Y100822D01*
X-80816Y100980D01*
X-80714Y101172D01*
X-80653Y101398D01*
X-80633Y101657D01*
X-80656Y101886D01*
X-80726Y102087D01*
X-80842Y102262D01*
X-81004Y102411D01*
X-81211Y102529D01*
X-81458Y102614D01*
X-81747Y102664D01*
X-82076Y102681D01*
X-82504Y102681D01*
X-82504Y103336D01*
X-82093Y103336D01*
X-81800Y103353D01*
X-81542Y103404D01*
X-81319Y103488D01*
X-81130Y103607D01*
X-80981Y103755D01*
X-80874Y103929D01*
X-80810Y104129D01*
X-80788Y104356D01*
X-80806Y104580D01*
X-80858Y104780D01*
X-80945Y104955D01*
X-81067Y105105D01*
X-81224Y105225D01*
X-81414Y105311D01*
X-81638Y105362D01*
X-81896Y105379D01*
X-82134Y105363D01*
X-82348Y105315D01*
X-82538Y105236D01*
X-82704Y105124D01*
X-82842Y104982D01*
X-82948Y104815D01*
X-83021Y104622D01*
X-83063Y104402D01*
X-83822Y104461D01*
X-83794Y104637D01*
X-83753Y104804D01*
X-83698Y104960D01*
X-83630Y105107D01*
X-83547Y105243D01*
X-83452Y105370D01*
X-83343Y105487D01*
X-83220Y105593D01*
X-82942Y105772D01*
X-82790Y105842D01*
X-82628Y105899D01*
X-82457Y105943D01*
X-82276Y105975D01*
X-82086Y105994D01*
X-81888Y106001D01*
X-81671Y105994D01*
X-81468Y105975D01*
X-81276Y105942D01*
X-81097Y105897D01*
X-80931Y105839D01*
X-80776Y105768D01*
X-80634Y105684D01*
X-80505Y105587D01*
X-80389Y105479D01*
X-80289Y105360D01*
X-80205Y105231D01*
X-80135Y105093D01*
X-80081Y104944D01*
X-80043Y104784D01*
X-80020Y104615D01*
X-80012Y104435D01*
X-80032Y104165D01*
X-80091Y103922D01*
X-80190Y103705D01*
X-80329Y103514D01*
X-80505Y103351D01*
X-80717Y103217D01*
X-80966Y103111D01*
X-81250Y103034D01*
X-81250Y103017D01*
X-80937Y102962D01*
X-80660Y102870D01*
X-80421Y102740D01*
X-80218Y102572D01*
X-80056Y102373D01*
X-79941Y102151D01*
X-79871Y101903D01*
X-79848Y101632D01*
X-79856Y101434D01*
X-79881Y101246D01*
X-79921Y101071D01*
X-79978Y100906D01*
X-80052Y100754D01*
X-80141Y100613D01*
X-80247Y100483D01*
X-80369Y100365D01*
X-80506Y100260D01*
X-80657Y100169D01*
X-80821Y100091D01*
X-81000Y100028D01*
X-81193Y99979D01*
X-81399Y99944D01*
X-81620Y99923D01*
X-81854Y99916D01*
G37*
G36*
X-39265Y100000D02*
X-42970Y100000D01*
X-42970Y100642D01*
X-41464Y100642D01*
X-41464Y105191D01*
X-42798Y104238D01*
X-42798Y104951D01*
X-41401Y105912D01*
X-40704Y105912D01*
X-40704Y100642D01*
X-39265Y100642D01*
X-39265Y100000D01*
G37*
G36*
X-54897Y100000D02*
X-55790Y100000D01*
X-57439Y104540D01*
X-56634Y104540D01*
X-55635Y101586D01*
X-55346Y100592D01*
X-55199Y101083D01*
X-55035Y101578D01*
X-54003Y104540D01*
X-53201Y104540D01*
X-54897Y100000D01*
G37*
G36*
X-48312Y98292D02*
X-53318Y98292D01*
X-53318Y98838D01*
X-48312Y98838D01*
X-48312Y98292D01*
G37*
G36*
X-67426Y101947D02*
X-69524Y101947D01*
X-69524Y102618D01*
X-67426Y102618D01*
X-67426Y101947D01*
G37*
G36*
X87198Y83888D02*
X86906Y83896D01*
X86629Y83922D01*
X86367Y83964D01*
X86120Y84023D01*
X85889Y84099D01*
X85672Y84192D01*
X85471Y84302D01*
X85285Y84428D01*
X85116Y84572D01*
X84964Y84731D01*
X84831Y84907D01*
X84716Y85098D01*
X84619Y85306D01*
X84540Y85530D01*
X84479Y85771D01*
X84437Y86027D01*
X85478Y86122D01*
X85549Y85794D01*
X85661Y85510D01*
X85815Y85269D01*
X86009Y85072D01*
X86244Y84919D01*
X86521Y84810D01*
X86839Y84744D01*
X87198Y84722D01*
X87558Y84746D01*
X87877Y84816D01*
X88156Y84933D01*
X88393Y85098D01*
X88495Y85197D01*
X88583Y85308D01*
X88658Y85430D01*
X88719Y85564D01*
X88766Y85709D01*
X88800Y85865D01*
X88820Y86033D01*
X88827Y86212D01*
X88819Y86369D01*
X88796Y86516D01*
X88757Y86655D01*
X88703Y86785D01*
X88634Y86907D01*
X88548Y87019D01*
X88448Y87122D01*
X88332Y87217D01*
X88201Y87302D01*
X88056Y87375D01*
X87898Y87437D01*
X87726Y87488D01*
X87341Y87556D01*
X86901Y87578D01*
X86330Y87578D01*
X86330Y88452D01*
X86878Y88452D01*
X87270Y88475D01*
X87614Y88542D01*
X87912Y88655D01*
X88164Y88813D01*
X88363Y89011D01*
X88442Y89123D01*
X88506Y89244D01*
X88556Y89373D01*
X88591Y89511D01*
X88613Y89658D01*
X88620Y89813D01*
X88597Y90113D01*
X88527Y90379D01*
X88411Y90612D01*
X88248Y90812D01*
X88039Y90973D01*
X87785Y91087D01*
X87486Y91156D01*
X87142Y91179D01*
X86824Y91158D01*
X86539Y91094D01*
X86285Y90987D01*
X86064Y90838D01*
X85879Y90649D01*
X85738Y90426D01*
X85640Y90168D01*
X85585Y89874D01*
X84571Y89953D01*
X84608Y90188D01*
X84663Y90411D01*
X84737Y90620D01*
X84828Y90815D01*
X84938Y90998D01*
X85065Y91167D01*
X85211Y91322D01*
X85375Y91465D01*
X85554Y91592D01*
X85745Y91702D01*
X85949Y91796D01*
X86165Y91872D01*
X86394Y91932D01*
X86634Y91974D01*
X86887Y91999D01*
X87153Y92008D01*
X87441Y91999D01*
X87713Y91973D01*
X87969Y91930D01*
X88208Y91870D01*
X88430Y91792D01*
X88636Y91698D01*
X88825Y91586D01*
X88998Y91456D01*
X89152Y91312D01*
X89286Y91153D01*
X89399Y90982D01*
X89491Y90796D01*
X89563Y90597D01*
X89615Y90385D01*
X89646Y90159D01*
X89656Y89919D01*
X89649Y89735D01*
X89630Y89559D01*
X89597Y89392D01*
X89550Y89234D01*
X89491Y89085D01*
X89418Y88944D01*
X89233Y88690D01*
X88998Y88472D01*
X88714Y88293D01*
X88383Y88152D01*
X88004Y88049D01*
X88004Y88026D01*
X88219Y87996D01*
X88422Y87954D01*
X88612Y87898D01*
X88791Y87830D01*
X88957Y87750D01*
X89111Y87657D01*
X89252Y87551D01*
X89382Y87433D01*
X89497Y87304D01*
X89597Y87167D01*
X89682Y87023D01*
X89751Y86870D01*
X89805Y86709D01*
X89844Y86540D01*
X89867Y86363D01*
X89874Y86178D01*
X89864Y85913D01*
X89831Y85663D01*
X89777Y85429D01*
X89701Y85210D01*
X89603Y85006D01*
X89484Y84818D01*
X89343Y84645D01*
X89180Y84487D01*
X88997Y84347D01*
X88796Y84225D01*
X88576Y84122D01*
X88337Y84038D01*
X88080Y83972D01*
X87804Y83925D01*
X87510Y83897D01*
X87198Y83888D01*
G37*
G36*
X93808Y84000D02*
X92615Y84000D01*
X90414Y90059D01*
X91489Y90059D01*
X92822Y86117D01*
X93209Y84790D01*
X93405Y85445D01*
X93623Y86106D01*
X95001Y90059D01*
X96070Y90059D01*
X93808Y84000D01*
G37*
G36*
X84893Y58000D02*
X83941Y58000D01*
X83941Y65890D01*
X85346Y65890D01*
X87446Y60419D01*
X87662Y59711D01*
X87799Y59165D01*
X87868Y59447D01*
X87987Y59845D01*
X88180Y60419D01*
X90241Y65890D01*
X91613Y65890D01*
X91613Y58000D01*
X90650Y58000D01*
X90650Y63264D01*
X90662Y64121D01*
X90700Y64944D01*
X90440Y64051D01*
X90207Y63376D01*
X88169Y58000D01*
X87418Y58000D01*
X85352Y63376D01*
X85038Y64328D01*
X84854Y64944D01*
X84870Y64322D01*
X84893Y63264D01*
X84893Y58000D01*
G37*
G36*
X94659Y58000D02*
X93590Y58000D01*
X93590Y65890D01*
X94659Y65890D01*
X94659Y58000D01*
G37*
G36*
X90983Y33888D02*
X90685Y33896D01*
X90396Y33919D01*
X90119Y33957D01*
X89851Y34011D01*
X89594Y34080D01*
X89348Y34165D01*
X89112Y34265D01*
X88886Y34381D01*
X88672Y34511D01*
X88471Y34655D01*
X88283Y34812D01*
X88108Y34983D01*
X87947Y35169D01*
X87798Y35367D01*
X87662Y35580D01*
X87539Y35806D01*
X87430Y36044D01*
X87336Y36292D01*
X87256Y36549D01*
X87191Y36816D01*
X87140Y37093D01*
X87103Y37379D01*
X87082Y37676D01*
X87074Y37982D01*
X87091Y38442D01*
X87139Y38876D01*
X87220Y39285D01*
X87333Y39668D01*
X87479Y40025D01*
X87657Y40356D01*
X87868Y40662D01*
X88110Y40941D01*
X88382Y41191D01*
X88679Y41408D01*
X89002Y41591D01*
X89349Y41741D01*
X89723Y41858D01*
X90121Y41941D01*
X90545Y41991D01*
X90994Y42008D01*
X91290Y42000D01*
X91576Y41978D01*
X91853Y41941D01*
X92119Y41888D01*
X92375Y41821D01*
X92621Y41739D01*
X92857Y41641D01*
X93083Y41529D01*
X93298Y41403D01*
X93500Y41263D01*
X93688Y41109D01*
X93864Y40942D01*
X94026Y40761D01*
X94176Y40567D01*
X94312Y40359D01*
X94436Y40138D01*
X94545Y39904D01*
X94640Y39661D01*
X94721Y39407D01*
X94786Y39142D01*
X94837Y38868D01*
X94874Y38583D01*
X94896Y38287D01*
X94903Y37982D01*
X94896Y37677D01*
X94874Y37382D01*
X94837Y37097D01*
X94785Y36821D01*
X94718Y36555D01*
X94637Y36298D01*
X94541Y36052D01*
X94430Y35814D01*
X94305Y35589D01*
X94168Y35377D01*
X94017Y35178D01*
X93854Y34993D01*
X93678Y34821D01*
X93489Y34663D01*
X93287Y34518D01*
X93072Y34386D01*
X92846Y34270D01*
X92610Y34168D01*
X92364Y34083D01*
X92107Y34013D01*
X91841Y33958D01*
X91565Y33919D01*
X91279Y33896D01*
X90983Y33888D01*
G37*
%LPC*%
G36*
X90983Y34756D02*
X91315Y34769D01*
X91627Y34809D01*
X91919Y34875D01*
X92191Y34967D01*
X92443Y35085D01*
X92675Y35230D01*
X92888Y35401D01*
X93080Y35599D01*
X93252Y35820D01*
X93400Y36064D01*
X93526Y36329D01*
X93629Y36616D01*
X93708Y36925D01*
X93766Y37255D01*
X93800Y37607D01*
X93811Y37982D01*
X93800Y38340D01*
X93765Y38678D01*
X93708Y38997D01*
X93627Y39296D01*
X93524Y39575D01*
X93397Y39835D01*
X93247Y40074D01*
X93075Y40294D01*
X92881Y40491D01*
X92669Y40662D01*
X92437Y40806D01*
X92187Y40924D01*
X91917Y41016D01*
X91628Y41082D01*
X91321Y41121D01*
X90994Y41134D01*
X90665Y41121D01*
X90355Y41083D01*
X90065Y41018D01*
X89793Y40927D01*
X89541Y40811D01*
X89308Y40668D01*
X89094Y40500D01*
X88900Y40306D01*
X88727Y40088D01*
X88577Y39850D01*
X88450Y39590D01*
X88346Y39310D01*
X88265Y39009D01*
X88207Y38688D01*
X88172Y38345D01*
X88161Y37982D01*
X88173Y37620D01*
X88208Y37278D01*
X88266Y36955D01*
X88348Y36651D01*
X88453Y36366D01*
X88581Y36101D01*
X88733Y35854D01*
X88908Y35627D01*
X89104Y35423D01*
X89318Y35246D01*
X89551Y35096D01*
X89801Y34974D01*
X90069Y34878D01*
X90356Y34810D01*
X90660Y34770D01*
X90983Y34756D01*
G37*
%LPD*%
G36*
X78893Y34000D02*
X77941Y34000D01*
X77941Y41890D01*
X79346Y41890D01*
X81446Y36419D01*
X81662Y35711D01*
X81799Y35165D01*
X81868Y35447D01*
X81987Y35845D01*
X82180Y36419D01*
X84241Y41890D01*
X85613Y41890D01*
X85613Y34000D01*
X84650Y34000D01*
X84650Y39264D01*
X84662Y40121D01*
X84700Y40944D01*
X84440Y40051D01*
X84207Y39376D01*
X82169Y34000D01*
X81418Y34000D01*
X79352Y39376D01*
X79038Y40328D01*
X78854Y40944D01*
X78870Y40322D01*
X78893Y39264D01*
X78893Y34000D01*
G37*
G36*
X92521Y521D02*
X86942Y6100D01*
X87698Y6857D01*
X90494Y4061D01*
X90387Y9545D01*
X91278Y10436D01*
X91325Y5637D01*
X97174Y5174D01*
X96235Y4235D01*
X91313Y4699D01*
X91139Y3416D01*
X93277Y1277D01*
X92521Y521D01*
G37*
G36*
X86434Y-4173D02*
X86191Y-4155D01*
X85948Y-4120D01*
X85705Y-4065D01*
X85461Y-3992D01*
X85219Y-3901D01*
X84980Y-3793D01*
X84743Y-3667D01*
X84508Y-3523D01*
X84276Y-3362D01*
X84047Y-3183D01*
X83820Y-2987D01*
X83596Y-2773D01*
X83283Y-2437D01*
X83010Y-2097D01*
X82778Y-1752D01*
X82587Y-1403D01*
X82436Y-1049D01*
X82325Y-691D01*
X82256Y-328D01*
X82226Y39D01*
X82238Y405D01*
X82290Y765D01*
X82384Y1118D01*
X82518Y1465D01*
X82694Y1806D01*
X82910Y2141D01*
X83167Y2469D01*
X83466Y2791D01*
X83689Y3003D01*
X83915Y3196D01*
X84142Y3369D01*
X84371Y3521D01*
X84601Y3654D01*
X84833Y3766D01*
X85067Y3859D01*
X85303Y3931D01*
X85540Y3983D01*
X85778Y4015D01*
X86016Y4026D01*
X86254Y4017D01*
X86494Y3988D01*
X86734Y3938D01*
X86974Y3867D01*
X87216Y3777D01*
X86737Y2822D01*
X86396Y2940D01*
X86054Y2999D01*
X85712Y3000D01*
X85368Y2943D01*
X85031Y2831D01*
X84706Y2666D01*
X84392Y2450D01*
X84091Y2181D01*
X83875Y1946D01*
X83691Y1706D01*
X83538Y1460D01*
X83417Y1208D01*
X83327Y951D01*
X83268Y687D01*
X83241Y418D01*
X83246Y144D01*
X83281Y-133D01*
X83346Y-407D01*
X83441Y-679D01*
X83566Y-949D01*
X83721Y-1216D01*
X83906Y-1481D01*
X84120Y-1744D01*
X84365Y-2005D01*
X84623Y-2246D01*
X84886Y-2459D01*
X85153Y-2642D01*
X85424Y-2796D01*
X85699Y-2920D01*
X85979Y-3015D01*
X86262Y-3081D01*
X86550Y-3117D01*
X86837Y-3123D01*
X87115Y-3098D01*
X87386Y-3042D01*
X87649Y-2954D01*
X87905Y-2835D01*
X88153Y-2684D01*
X88393Y-2503D01*
X88625Y-2290D01*
X88765Y-2141D01*
X88891Y-1988D01*
X89004Y-1830D01*
X89102Y-1668D01*
X89259Y-1329D01*
X89362Y-973D01*
X89410Y-599D01*
X89403Y-206D01*
X89343Y204D01*
X89227Y633D01*
X90154Y941D01*
X90238Y676D01*
X90303Y413D01*
X90348Y152D01*
X90374Y-107D01*
X90380Y-364D01*
X90367Y-620D01*
X90335Y-873D01*
X90283Y-1124D01*
X90212Y-1371D01*
X90123Y-1612D01*
X90016Y-1849D01*
X89891Y-2079D01*
X89748Y-2304D01*
X89587Y-2524D01*
X89408Y-2738D01*
X89211Y-2947D01*
X88999Y-3149D01*
X88782Y-3333D01*
X88562Y-3498D01*
X88337Y-3646D01*
X88109Y-3776D01*
X87877Y-3887D01*
X87641Y-3980D01*
X87402Y-4056D01*
X87160Y-4113D01*
X86918Y-4151D01*
X86676Y-4171D01*
X86434Y-4173D01*
G37*
G36*
X92145Y-17112D02*
X91794Y-17104D01*
X91462Y-17081D01*
X91149Y-17042D01*
X90855Y-16987D01*
X90580Y-16916D01*
X90323Y-16830D01*
X90086Y-16728D01*
X89867Y-16611D01*
X89668Y-16478D01*
X89487Y-16329D01*
X89326Y-16164D01*
X89183Y-15984D01*
X89059Y-15789D01*
X88955Y-15577D01*
X88869Y-15350D01*
X88802Y-15107D01*
X89838Y-14900D01*
X89889Y-15072D01*
X89953Y-15232D01*
X90029Y-15380D01*
X90118Y-15517D01*
X90220Y-15641D01*
X90334Y-15754D01*
X90460Y-15855D01*
X90600Y-15944D01*
X90917Y-16090D01*
X91287Y-16194D01*
X91709Y-16257D01*
X92184Y-16278D01*
X92673Y-16255D01*
X93102Y-16189D01*
X93295Y-16139D01*
X93472Y-16078D01*
X93635Y-16005D01*
X93783Y-15922D01*
X93915Y-15828D01*
X94029Y-15723D01*
X94126Y-15608D01*
X94205Y-15483D01*
X94267Y-15347D01*
X94311Y-15201D01*
X94337Y-15045D01*
X94346Y-14878D01*
X94335Y-14694D01*
X94302Y-14528D01*
X94247Y-14380D01*
X94170Y-14250D01*
X94072Y-14135D01*
X93958Y-14031D01*
X93825Y-13936D01*
X93674Y-13853D01*
X93324Y-13709D01*
X92912Y-13590D01*
X91932Y-13360D01*
X91110Y-13153D01*
X90783Y-13049D01*
X90513Y-12946D01*
X90283Y-12839D01*
X90080Y-12727D01*
X89901Y-12608D01*
X89748Y-12484D01*
X89617Y-12351D01*
X89501Y-12207D01*
X89402Y-12053D01*
X89320Y-11887D01*
X89255Y-11710D01*
X89209Y-11520D01*
X89181Y-11318D01*
X89172Y-11103D01*
X89184Y-10857D01*
X89220Y-10626D01*
X89281Y-10408D01*
X89366Y-10206D01*
X89475Y-10018D01*
X89608Y-9844D01*
X89765Y-9685D01*
X89947Y-9541D01*
X90152Y-9412D01*
X90377Y-9301D01*
X90623Y-9206D01*
X90890Y-9129D01*
X91178Y-9069D01*
X91487Y-9026D01*
X91817Y-9001D01*
X92168Y-8992D01*
X92494Y-8998D01*
X92800Y-9018D01*
X93087Y-9050D01*
X93353Y-9095D01*
X93600Y-9153D01*
X93828Y-9224D01*
X94035Y-9307D01*
X94223Y-9404D01*
X94394Y-9516D01*
X94552Y-9646D01*
X94696Y-9794D01*
X94828Y-9960D01*
X94946Y-10145D01*
X95050Y-10347D01*
X95142Y-10568D01*
X95220Y-10806D01*
X94167Y-10991D01*
X94060Y-10699D01*
X93915Y-10450D01*
X93730Y-10244D01*
X93506Y-10081D01*
X93239Y-9958D01*
X92925Y-9869D01*
X92564Y-9816D01*
X92156Y-9798D01*
X91711Y-9818D01*
X91322Y-9877D01*
X90989Y-9975D01*
X90712Y-10112D01*
X90595Y-10195D01*
X90494Y-10288D01*
X90408Y-10391D01*
X90338Y-10503D01*
X90283Y-10624D01*
X90244Y-10756D01*
X90221Y-10897D01*
X90213Y-11047D01*
X90225Y-11221D01*
X90262Y-11380D01*
X90322Y-11522D01*
X90406Y-11649D01*
X90514Y-11764D01*
X90642Y-11869D01*
X90792Y-11965D01*
X90964Y-12052D01*
X91191Y-12140D01*
X91508Y-12237D01*
X92414Y-12458D01*
X93139Y-12629D01*
X93493Y-12724D01*
X93831Y-12836D01*
X94151Y-12967D01*
X94450Y-13119D01*
X94719Y-13300D01*
X94951Y-13517D01*
X95141Y-13773D01*
X95284Y-14071D01*
X95337Y-14238D01*
X95374Y-14418D01*
X95397Y-14613D01*
X95404Y-14822D01*
X95391Y-15087D01*
X95351Y-15337D01*
X95284Y-15571D01*
X95191Y-15790D01*
X95071Y-15994D01*
X94924Y-16182D01*
X94751Y-16355D01*
X94550Y-16513D01*
X94326Y-16653D01*
X94080Y-16775D01*
X93812Y-16878D01*
X93522Y-16962D01*
X93211Y-17028D01*
X92877Y-17075D01*
X92522Y-17103D01*
X92145Y-17112D01*
G37*
G36*
X84430Y-17112D02*
X84136Y-17104D01*
X83853Y-17081D01*
X83580Y-17042D01*
X83317Y-16988D01*
X83064Y-16918D01*
X82822Y-16833D01*
X82589Y-16733D01*
X82366Y-16616D01*
X82155Y-16486D01*
X81956Y-16342D01*
X81771Y-16185D01*
X81599Y-16014D01*
X81439Y-15831D01*
X81293Y-15634D01*
X81159Y-15423D01*
X81039Y-15200D01*
X80932Y-14964D01*
X80839Y-14718D01*
X80761Y-14461D01*
X80696Y-14194D01*
X80647Y-13916D01*
X80611Y-13627D01*
X80590Y-13328D01*
X80582Y-13018D01*
X80598Y-12559D01*
X80646Y-12126D01*
X80726Y-11718D01*
X80837Y-11336D01*
X80981Y-10979D01*
X81156Y-10648D01*
X81363Y-10342D01*
X81602Y-10062D01*
X81869Y-9811D01*
X82160Y-9594D01*
X82476Y-9410D01*
X82817Y-9259D01*
X83182Y-9142D01*
X83571Y-9059D01*
X83985Y-9009D01*
X84424Y-8992D01*
X84733Y-9000D01*
X85028Y-9023D01*
X85311Y-9061D01*
X85580Y-9115D01*
X85837Y-9185D01*
X86081Y-9269D01*
X86312Y-9369D01*
X86530Y-9485D01*
X86734Y-9616D01*
X86924Y-9761D01*
X87101Y-9921D01*
X87263Y-10097D01*
X87412Y-10287D01*
X87546Y-10492D01*
X87666Y-10712D01*
X87773Y-10946D01*
X86759Y-11282D01*
X86601Y-10958D01*
X86401Y-10675D01*
X86160Y-10432D01*
X85877Y-10230D01*
X85559Y-10070D01*
X85213Y-9957D01*
X84838Y-9888D01*
X84435Y-9866D01*
X84117Y-9879D01*
X83816Y-9918D01*
X83534Y-9984D01*
X83270Y-10076D01*
X83025Y-10195D01*
X82797Y-10340D01*
X82588Y-10511D01*
X82397Y-10708D01*
X82226Y-10929D01*
X82078Y-11169D01*
X81953Y-11428D01*
X81851Y-11707D01*
X81771Y-12006D01*
X81714Y-12324D01*
X81680Y-12661D01*
X81669Y-13018D01*
X81681Y-13372D01*
X81716Y-13708D01*
X81775Y-14026D01*
X81858Y-14327D01*
X81965Y-14609D01*
X82096Y-14874D01*
X82250Y-15121D01*
X82428Y-15351D01*
X82626Y-15558D01*
X82840Y-15737D01*
X83072Y-15888D01*
X83320Y-16012D01*
X83585Y-16109D01*
X83867Y-16178D01*
X84165Y-16219D01*
X84480Y-16233D01*
X84684Y-16226D01*
X84882Y-16207D01*
X85073Y-16175D01*
X85257Y-16130D01*
X85607Y-16002D01*
X85932Y-15823D01*
X86230Y-15592D01*
X86503Y-15310D01*
X86751Y-14977D01*
X86972Y-14592D01*
X87846Y-15029D01*
X87718Y-15276D01*
X87577Y-15508D01*
X87425Y-15725D01*
X87260Y-15926D01*
X87082Y-16113D01*
X86893Y-16284D01*
X86691Y-16439D01*
X86476Y-16580D01*
X86251Y-16705D01*
X86018Y-16813D01*
X85775Y-16904D01*
X85524Y-16979D01*
X85263Y-17037D01*
X84994Y-17079D01*
X84716Y-17104D01*
X84430Y-17112D01*
G37*
G36*
X79893Y-44000D02*
X78941Y-44000D01*
X78941Y-36110D01*
X80346Y-36110D01*
X82446Y-41581D01*
X82662Y-42289D01*
X82799Y-42835D01*
X82868Y-42553D01*
X82987Y-42155D01*
X83180Y-41581D01*
X85241Y-36110D01*
X86613Y-36110D01*
X86613Y-44000D01*
X85650Y-44000D01*
X85650Y-38736D01*
X85662Y-37879D01*
X85700Y-37056D01*
X85440Y-37949D01*
X85207Y-38624D01*
X83169Y-44000D01*
X82418Y-44000D01*
X80352Y-38624D01*
X80038Y-37672D01*
X79854Y-37056D01*
X79870Y-37678D01*
X79893Y-38736D01*
X79893Y-44000D01*
G37*
G36*
X91563Y-44000D02*
X90499Y-44000D01*
X90499Y-36983D01*
X87789Y-36983D01*
X87789Y-36110D01*
X94274Y-36110D01*
X94274Y-36983D01*
X91563Y-36983D01*
X91563Y-44000D01*
G37*
G36*
X88553Y-68112D02*
X88249Y-68104D01*
X87955Y-68081D01*
X87673Y-68043D01*
X87401Y-67989D01*
X87139Y-67920D01*
X86889Y-67835D01*
X86649Y-67735D01*
X86419Y-67619D01*
X86202Y-67489D01*
X85998Y-67346D01*
X85807Y-67189D01*
X85629Y-67018D01*
X85464Y-66834D01*
X85313Y-66636D01*
X85175Y-66425D01*
X85050Y-66200D01*
X84939Y-65963D01*
X84843Y-65716D01*
X84762Y-65458D01*
X84695Y-65191D01*
X84643Y-64913D01*
X84606Y-64625D01*
X84584Y-64327D01*
X84577Y-64018D01*
X84593Y-63552D01*
X84641Y-63112D01*
X84722Y-62700D01*
X84834Y-62315D01*
X84979Y-61957D01*
X85156Y-61626D01*
X85366Y-61322D01*
X85607Y-61045D01*
X85878Y-60798D01*
X86175Y-60584D01*
X86497Y-60403D01*
X86846Y-60255D01*
X87221Y-60140D01*
X87622Y-60058D01*
X88049Y-60009D01*
X88502Y-59992D01*
X88822Y-59999D01*
X89127Y-60020D01*
X89416Y-60054D01*
X89690Y-60103D01*
X89948Y-60165D01*
X90191Y-60241D01*
X90418Y-60331D01*
X90630Y-60434D01*
X90829Y-60553D01*
X91016Y-60689D01*
X91191Y-60841D01*
X91354Y-61010D01*
X91506Y-61195D01*
X91646Y-61397D01*
X91774Y-61616D01*
X91890Y-61851D01*
X90871Y-62154D01*
X90687Y-61840D01*
X90471Y-61573D01*
X90224Y-61350D01*
X89944Y-61174D01*
X89631Y-61039D01*
X89281Y-60943D01*
X88896Y-60885D01*
X88474Y-60866D01*
X88143Y-60879D01*
X87831Y-60917D01*
X87540Y-60982D01*
X87269Y-61072D01*
X87018Y-61188D01*
X86787Y-61330D01*
X86576Y-61498D01*
X86386Y-61692D01*
X86216Y-61909D01*
X86070Y-62147D01*
X85945Y-62406D01*
X85844Y-62686D01*
X85765Y-62988D01*
X85708Y-63310D01*
X85674Y-63654D01*
X85663Y-64018D01*
X85675Y-64382D01*
X85711Y-64727D01*
X85771Y-65051D01*
X85855Y-65356D01*
X85963Y-65641D01*
X86095Y-65907D01*
X86251Y-66153D01*
X86430Y-66379D01*
X86631Y-66582D01*
X86851Y-66757D01*
X87088Y-66906D01*
X87345Y-67028D01*
X87619Y-67122D01*
X87912Y-67190D01*
X88223Y-67231D01*
X88553Y-67244D01*
X88933Y-67229D01*
X89300Y-67185D01*
X89654Y-67112D01*
X89995Y-67009D01*
X90313Y-66881D01*
X90600Y-66732D01*
X90855Y-66562D01*
X91078Y-66370D01*
X91078Y-64948D01*
X88721Y-64948D01*
X88721Y-64052D01*
X92064Y-64052D01*
X92064Y-66774D01*
X91733Y-67075D01*
X91366Y-67340D01*
X90964Y-67569D01*
X90527Y-67762D01*
X90062Y-67915D01*
X89578Y-68024D01*
X89075Y-68090D01*
X88553Y-68112D01*
G37*
G36*
X80010Y-94000D02*
X78941Y-94000D01*
X78941Y-86110D01*
X82654Y-86110D01*
X82977Y-86119D01*
X83282Y-86147D01*
X83568Y-86194D01*
X83834Y-86259D01*
X84082Y-86343D01*
X84311Y-86445D01*
X84521Y-86566D01*
X84712Y-86706D01*
X84882Y-86862D01*
X85029Y-87033D01*
X85153Y-87219D01*
X85255Y-87419D01*
X85335Y-87634D01*
X85391Y-87864D01*
X85425Y-88108D01*
X85437Y-88366D01*
X85429Y-88582D01*
X85405Y-88789D01*
X85365Y-88986D01*
X85309Y-89176D01*
X85237Y-89356D01*
X85149Y-89528D01*
X85044Y-89691D01*
X84924Y-89845D01*
X84790Y-89988D01*
X84644Y-90117D01*
X84485Y-90232D01*
X84414Y-90274D01*
X84315Y-90333D01*
X84132Y-90421D01*
X83937Y-90495D01*
X83730Y-90555D01*
X83510Y-90601D01*
X84464Y-92048D01*
X85750Y-94000D01*
X84518Y-94000D01*
X82469Y-90724D01*
X80010Y-90724D01*
X80010Y-94000D01*
G37*
%LPC*%
G36*
X82592Y-89878D02*
X82797Y-89872D01*
X82991Y-89854D01*
X83172Y-89823D01*
X83342Y-89780D01*
X83499Y-89724D01*
X83645Y-89656D01*
X83778Y-89576D01*
X83900Y-89484D01*
X84008Y-89380D01*
X84102Y-89266D01*
X84181Y-89143D01*
X84246Y-89010D01*
X84297Y-88867D01*
X84333Y-88713D01*
X84354Y-88551D01*
X84362Y-88378D01*
X84354Y-88211D01*
X84332Y-88054D01*
X84296Y-87907D01*
X84245Y-87771D01*
X84179Y-87645D01*
X84099Y-87529D01*
X84004Y-87423D01*
X83894Y-87328D01*
X83771Y-87243D01*
X83634Y-87170D01*
X83323Y-87057D01*
X82961Y-86989D01*
X82547Y-86966D01*
X80010Y-86966D01*
X80010Y-89878D01*
X82592Y-89878D01*
G37*
%LPD*%
G36*
X90145Y-94112D02*
X89794Y-94104D01*
X89462Y-94081D01*
X89149Y-94042D01*
X88855Y-93987D01*
X88580Y-93916D01*
X88323Y-93830D01*
X88086Y-93728D01*
X87867Y-93611D01*
X87668Y-93478D01*
X87487Y-93329D01*
X87326Y-93164D01*
X87183Y-92984D01*
X87059Y-92789D01*
X86955Y-92577D01*
X86869Y-92350D01*
X86802Y-92107D01*
X87838Y-91900D01*
X87889Y-92072D01*
X87953Y-92232D01*
X88029Y-92380D01*
X88118Y-92517D01*
X88220Y-92641D01*
X88334Y-92754D01*
X88460Y-92855D01*
X88600Y-92944D01*
X88917Y-93090D01*
X89287Y-93194D01*
X89709Y-93257D01*
X90184Y-93278D01*
X90673Y-93255D01*
X91102Y-93189D01*
X91295Y-93139D01*
X91472Y-93078D01*
X91635Y-93005D01*
X91783Y-92922D01*
X91915Y-92828D01*
X92029Y-92723D01*
X92126Y-92608D01*
X92205Y-92483D01*
X92267Y-92347D01*
X92311Y-92201D01*
X92337Y-92045D01*
X92346Y-91878D01*
X92335Y-91694D01*
X92302Y-91528D01*
X92247Y-91380D01*
X92170Y-91250D01*
X92072Y-91135D01*
X91958Y-91031D01*
X91825Y-90936D01*
X91674Y-90853D01*
X91324Y-90709D01*
X90912Y-90590D01*
X89932Y-90360D01*
X89110Y-90153D01*
X88783Y-90049D01*
X88513Y-89946D01*
X88283Y-89839D01*
X88080Y-89727D01*
X87901Y-89608D01*
X87748Y-89484D01*
X87617Y-89351D01*
X87501Y-89207D01*
X87402Y-89053D01*
X87320Y-88887D01*
X87255Y-88710D01*
X87209Y-88520D01*
X87181Y-88318D01*
X87172Y-88103D01*
X87184Y-87857D01*
X87220Y-87626D01*
X87281Y-87408D01*
X87366Y-87206D01*
X87475Y-87018D01*
X87608Y-86844D01*
X87765Y-86685D01*
X87947Y-86541D01*
X88152Y-86412D01*
X88377Y-86301D01*
X88623Y-86206D01*
X88890Y-86129D01*
X89178Y-86069D01*
X89487Y-86026D01*
X89817Y-86001D01*
X90168Y-85992D01*
X90494Y-85998D01*
X90800Y-86018D01*
X91087Y-86050D01*
X91353Y-86095D01*
X91600Y-86153D01*
X91828Y-86224D01*
X92035Y-86307D01*
X92223Y-86404D01*
X92394Y-86516D01*
X92552Y-86646D01*
X92696Y-86794D01*
X92828Y-86960D01*
X92946Y-87145D01*
X93050Y-87347D01*
X93142Y-87568D01*
X93220Y-87806D01*
X92167Y-87991D01*
X92060Y-87699D01*
X91915Y-87450D01*
X91730Y-87244D01*
X91506Y-87081D01*
X91239Y-86958D01*
X90925Y-86869D01*
X90564Y-86816D01*
X90156Y-86798D01*
X89711Y-86818D01*
X89322Y-86877D01*
X88989Y-86975D01*
X88712Y-87112D01*
X88595Y-87195D01*
X88494Y-87288D01*
X88408Y-87391D01*
X88338Y-87503D01*
X88283Y-87624D01*
X88244Y-87756D01*
X88221Y-87897D01*
X88213Y-88047D01*
X88225Y-88221D01*
X88262Y-88380D01*
X88322Y-88522D01*
X88406Y-88649D01*
X88514Y-88764D01*
X88642Y-88869D01*
X88792Y-88965D01*
X88964Y-89052D01*
X89191Y-89140D01*
X89508Y-89237D01*
X90414Y-89458D01*
X91139Y-89629D01*
X91493Y-89724D01*
X91831Y-89836D01*
X92151Y-89967D01*
X92450Y-90119D01*
X92719Y-90300D01*
X92951Y-90517D01*
X93141Y-90773D01*
X93284Y-91071D01*
X93337Y-91238D01*
X93374Y-91418D01*
X93397Y-91613D01*
X93404Y-91822D01*
X93391Y-92087D01*
X93351Y-92337D01*
X93284Y-92571D01*
X93191Y-92790D01*
X93071Y-92994D01*
X92924Y-93182D01*
X92751Y-93355D01*
X92550Y-93513D01*
X92326Y-93653D01*
X92080Y-93775D01*
X91812Y-93878D01*
X91522Y-93962D01*
X91211Y-94028D01*
X90877Y-94075D01*
X90522Y-94103D01*
X90145Y-94112D01*
G37*
G36*
X-26Y106159D02*
X-524Y106165D01*
X-1018Y106182D01*
X-1996Y106254D01*
X-2959Y106373D01*
X-3906Y106540D01*
X-4839Y106755D01*
X-5758Y107017D01*
X-6661Y107327D01*
X-7550Y107684D01*
X-8417Y108083D01*
X-8798Y108279D01*
X-9255Y108515D01*
X-10064Y108980D01*
X-10845Y109480D01*
X-11596Y110013D01*
X-12319Y110580D01*
X-13014Y111180D01*
X-13679Y111814D01*
X-14313Y112480D01*
X-14914Y113174D01*
X-15481Y113897D01*
X-16014Y114649D01*
X-16513Y115429D01*
X-16979Y116239D01*
X-17411Y117077D01*
X-17809Y117944D01*
X-18167Y118832D01*
X-18477Y119736D01*
X-18739Y120654D01*
X-18954Y121587D01*
X-19120Y122535D01*
X-19240Y123498D01*
X-19311Y124475D01*
X-19329Y124969D01*
X-19335Y125467D01*
X-19329Y125965D01*
X-19311Y126460D01*
X-19240Y127437D01*
X-19120Y128400D01*
X-18954Y129347D01*
X-18739Y130281D01*
X-18477Y131199D01*
X-18167Y132102D01*
X-17809Y132991D01*
X-17411Y133846D01*
X-16979Y134674D01*
X-16513Y135477D01*
X-16014Y136253D01*
X-15481Y137003D01*
X-14914Y137726D01*
X-14313Y138423D01*
X-13679Y139094D01*
X-13014Y139734D01*
X-12319Y140340D01*
X-11596Y140912D01*
X-10845Y141448D01*
X-10064Y141951D01*
X-9255Y142418D01*
X-8417Y142852D01*
X-7550Y143250D01*
X-6661Y143596D01*
X-5758Y143895D01*
X-4839Y144148D01*
X-3906Y144355D01*
X-2959Y144516D01*
X-1996Y144631D01*
X-1018Y144700D01*
X-26Y144723D01*
X485Y144717D01*
X991Y144699D01*
X1494Y144668D01*
X1993Y144625D01*
X2978Y144501D01*
X3946Y144329D01*
X4898Y144107D01*
X5833Y143836D01*
X6753Y143515D01*
X7655Y143145D01*
X5761Y140304D01*
X5072Y140552D01*
X4373Y140771D01*
X3665Y140960D01*
X2946Y141119D01*
X2218Y141246D01*
X1480Y141337D01*
X732Y141391D01*
X-26Y141409D01*
X-848Y141389D01*
X-1657Y141330D01*
X-2453Y141231D01*
X-3236Y141093D01*
X-4005Y140916D01*
X-4761Y140699D01*
X-5505Y140442D01*
X-6235Y140146D01*
X-6947Y139817D01*
X-7637Y139459D01*
X-8305Y139073D01*
X-8951Y138660D01*
X-9574Y138218D01*
X-10175Y137749D01*
X-10755Y137252D01*
X-11312Y136726D01*
X-11842Y136176D01*
X-12342Y135602D01*
X-12812Y135005D01*
X-13252Y134385D01*
X-13661Y133742D01*
X-14039Y133076D01*
X-14387Y132387D01*
X-14705Y131676D01*
X-15001Y130946D01*
X-15258Y130202D01*
X-15475Y129446D01*
X-15652Y128677D01*
X-15790Y127894D01*
X-15889Y127098D01*
X-15948Y126289D01*
X-15968Y125467D01*
X-15948Y124645D01*
X-15889Y123836D01*
X-15790Y123041D01*
X-15652Y122258D01*
X-15475Y121489D01*
X-15258Y120732D01*
X-15001Y119989D01*
X-14705Y119259D01*
X-14387Y118547D01*
X-14039Y117858D01*
X-13661Y117192D01*
X-13252Y116550D01*
X-12812Y115930D01*
X-12342Y115333D01*
X-11842Y114759D01*
X-11312Y114208D01*
X-10755Y113683D01*
X-10175Y113186D01*
X-9574Y112716D01*
X-8951Y112275D01*
X-8305Y111861D01*
X-7637Y111476D01*
X-7397Y111351D01*
X-6947Y111118D01*
X-6235Y110789D01*
X-5505Y110493D01*
X-4761Y110236D01*
X-4005Y110019D01*
X-3236Y109841D01*
X-2453Y109703D01*
X-1657Y109605D01*
X-848Y109546D01*
X-26Y109526D01*
X784Y109546D01*
X1582Y109605D01*
X2368Y109703D01*
X3144Y109841D01*
X3907Y110019D01*
X4660Y110236D01*
X5400Y110493D01*
X6129Y110789D01*
X6854Y111118D01*
X7553Y111476D01*
X8228Y111861D01*
X8878Y112275D01*
X9504Y112716D01*
X10105Y113186D01*
X10681Y113683D01*
X11233Y114208D01*
X11758Y114759D01*
X12255Y115333D01*
X12725Y115930D01*
X13166Y116550D01*
X13580Y117192D01*
X13965Y117858D01*
X14323Y118547D01*
X14653Y119259D01*
X14936Y119989D01*
X15182Y120732D01*
X15390Y121489D01*
X15560Y122258D01*
X15693Y123041D01*
X15787Y123836D01*
X15844Y124645D01*
X15863Y125467D01*
X15850Y126121D01*
X15813Y126768D01*
X15752Y127407D01*
X15665Y128039D01*
X15554Y128663D01*
X15419Y129280D01*
X15258Y129890D01*
X15074Y130492D01*
X14866Y131083D01*
X14636Y131661D01*
X14385Y132224D01*
X14113Y132774D01*
X13820Y133309D01*
X13505Y133831D01*
X13169Y134339D01*
X12811Y134832D01*
X14810Y137779D01*
X15310Y137138D01*
X15782Y136478D01*
X16227Y135799D01*
X16645Y135102D01*
X17036Y134386D01*
X17400Y133650D01*
X17737Y132896D01*
X18046Y132123D01*
X18324Y131334D01*
X18564Y130533D01*
X18767Y129719D01*
X18934Y128894D01*
X19063Y128056D01*
X19156Y127205D01*
X19211Y126342D01*
X19230Y125467D01*
X19224Y124969D01*
X19206Y124475D01*
X19135Y123498D01*
X19015Y122535D01*
X18848Y121587D01*
X18634Y120654D01*
X18372Y119736D01*
X18062Y118832D01*
X17704Y117944D01*
X17318Y117077D01*
X16895Y116239D01*
X16436Y115429D01*
X15942Y114649D01*
X15411Y113897D01*
X14843Y113174D01*
X14240Y112480D01*
X13600Y111814D01*
X12929Y111180D01*
X12229Y110580D01*
X11502Y110013D01*
X10746Y109480D01*
X9963Y108980D01*
X9151Y108515D01*
X8312Y108083D01*
X7445Y107684D01*
X6568Y107327D01*
X5676Y107017D01*
X4766Y106755D01*
X3841Y106540D01*
X2899Y106373D01*
X1940Y106254D01*
X965Y106182D01*
X472Y106165D01*
X-26Y106159D01*
G37*
G36*
X-26Y110683D02*
X-784Y110701D01*
X-1532Y110756D01*
X-2270Y110846D01*
X-2999Y110973D01*
X-3717Y111135D01*
X-4426Y111334D01*
X-5125Y111569D01*
X-5814Y111841D01*
X-6474Y112144D01*
X-6929Y112378D01*
X-7114Y112474D01*
X-7734Y112831D01*
X-8332Y113215D01*
X-8911Y113627D01*
X-9469Y114065D01*
X-10006Y114531D01*
X-10522Y115024D01*
X-11015Y115541D01*
X-11481Y116081D01*
X-11920Y116643D01*
X-12331Y117227D01*
X-12715Y117833D01*
X-13072Y118462D01*
X-13403Y119112D01*
X-13705Y119785D01*
X-13977Y120463D01*
X-14212Y121153D01*
X-14411Y121857D01*
X-14574Y122574D01*
X-14700Y123304D01*
X-14791Y124047D01*
X-14845Y124803D01*
X-14863Y125573D01*
X-14845Y126331D01*
X-14791Y127079D01*
X-14700Y127817D01*
X-14574Y128545D01*
X-14411Y129264D01*
X-14212Y129972D01*
X-13977Y130671D01*
X-13705Y131360D01*
X-13403Y132020D01*
X-13072Y132660D01*
X-12715Y133280D01*
X-12331Y133879D01*
X-11920Y134457D01*
X-11481Y135015D01*
X-11015Y135552D01*
X-10522Y136069D01*
X-10006Y136562D01*
X-9469Y137027D01*
X-8911Y137466D01*
X-8332Y137877D01*
X-7734Y138262D01*
X-7114Y138619D01*
X-6474Y138949D01*
X-5814Y139252D01*
X-5125Y139535D01*
X-4426Y139781D01*
X-3717Y139989D01*
X-2999Y140159D01*
X-2270Y140292D01*
X-1532Y140386D01*
X-784Y140443D01*
X-26Y140462D01*
X702Y140445D01*
X1414Y140396D01*
X2110Y140314D01*
X2789Y140199D01*
X3454Y140051D01*
X4110Y139870D01*
X4757Y139656D01*
X5393Y139410D01*
X2973Y135832D01*
X2626Y135931D01*
X2269Y136016D01*
X1902Y136088D01*
X1526Y136148D01*
X1143Y136194D01*
X756Y136227D01*
X367Y136246D01*
X-26Y136253D01*
X-575Y136240D01*
X-1115Y136200D01*
X-1647Y136134D01*
X-2170Y136042D01*
X-2686Y135924D01*
X-3193Y135779D01*
X-3692Y135608D01*
X-4183Y135411D01*
X-4661Y135191D01*
X-5125Y134952D01*
X-5572Y134695D01*
X-6004Y134418D01*
X-6421Y134122D01*
X-6821Y133808D01*
X-7207Y133475D01*
X-7576Y133122D01*
X-7928Y132753D01*
X-8262Y132368D01*
X-8576Y131967D01*
X-8872Y131551D01*
X-9148Y131119D01*
X-9406Y130671D01*
X-9645Y130208D01*
X-9865Y129729D01*
X-10062Y129238D01*
X-10233Y128739D01*
X-10378Y128232D01*
X-10496Y127717D01*
X-10588Y127193D01*
X-10654Y126661D01*
X-10693Y126121D01*
X-10707Y125573D01*
X-10693Y125024D01*
X-10654Y124484D01*
X-10588Y123952D01*
X-10496Y123429D01*
X-10378Y122913D01*
X-10233Y122406D01*
X-10062Y121907D01*
X-9865Y121416D01*
X-9645Y120937D01*
X-9406Y120472D01*
X-9148Y120023D01*
X-8872Y119588D01*
X-8576Y119168D01*
X-8262Y118763D01*
X-7928Y118372D01*
X-7576Y117996D01*
X-7207Y117638D01*
X-6821Y117299D01*
X-6421Y116980D01*
X-6004Y116681D01*
X-5572Y116402D01*
X-5195Y116183D01*
X-5125Y116142D01*
X-4661Y115902D01*
X-4183Y115681D01*
X-3692Y115484D01*
X-3193Y115313D01*
X-2686Y115168D01*
X-2170Y115050D01*
X-1647Y114958D01*
X-1115Y114892D01*
X-575Y114853D01*
X-26Y114840D01*
X534Y114853D01*
X1085Y114892D01*
X1626Y114958D01*
X2157Y115050D01*
X2678Y115168D01*
X3190Y115313D01*
X3691Y115484D01*
X4183Y115681D01*
X4662Y115902D01*
X5125Y116142D01*
X5572Y116402D01*
X6004Y116681D01*
X6421Y116980D01*
X6822Y117299D01*
X7207Y117638D01*
X7576Y117996D01*
X7929Y118372D01*
X8262Y118763D01*
X8576Y119168D01*
X8872Y119588D01*
X9148Y120023D01*
X9406Y120472D01*
X9645Y120937D01*
X9865Y121416D01*
X10062Y121907D01*
X10233Y122406D01*
X10378Y122913D01*
X10496Y123429D01*
X10588Y123952D01*
X10654Y124484D01*
X10694Y125024D01*
X10707Y125573D01*
X10687Y126227D01*
X10628Y126875D01*
X10529Y127516D01*
X10391Y128151D01*
X10217Y128772D01*
X10010Y129374D01*
X9770Y129956D01*
X9497Y130518D01*
X12022Y134306D01*
X12354Y133840D01*
X12666Y133361D01*
X12959Y132870D01*
X13232Y132366D01*
X13485Y131850D01*
X13719Y131322D01*
X13932Y130782D01*
X14126Y130229D01*
X14299Y129667D01*
X14449Y129099D01*
X14575Y128526D01*
X14679Y127947D01*
X14759Y127362D01*
X14817Y126771D01*
X14852Y126175D01*
X14863Y125573D01*
X14845Y124803D01*
X14791Y124047D01*
X14700Y123304D01*
X14574Y122574D01*
X14411Y121857D01*
X14212Y121153D01*
X13977Y120463D01*
X13706Y119785D01*
X13403Y119112D01*
X13073Y118462D01*
X12715Y117833D01*
X12331Y117227D01*
X11920Y116643D01*
X11481Y116081D01*
X11015Y115541D01*
X10523Y115024D01*
X10006Y114531D01*
X9469Y114065D01*
X8911Y113627D01*
X8333Y113215D01*
X7734Y112831D01*
X7114Y112474D01*
X6474Y112144D01*
X5814Y111841D01*
X5124Y111569D01*
X4423Y111334D01*
X3710Y111135D01*
X2986Y110973D01*
X2250Y110846D01*
X1503Y110756D01*
X744Y110701D01*
X-26Y110683D01*
G37*
G36*
X-3691Y116781D02*
X-3849Y116792D01*
X-4005Y116819D01*
X-4158Y116864D01*
X-4309Y116926D01*
X-4458Y117005D01*
X-4604Y117102D01*
X-4731Y117201D01*
X-4865Y117306D01*
X-4975Y117423D01*
X-5070Y117549D01*
X-5152Y117686D01*
X-5220Y117832D01*
X-5274Y117988D01*
X-5314Y118154D01*
X-5339Y118324D01*
X-5348Y118490D01*
X-5342Y118652D01*
X-5320Y118812D01*
X-5283Y118968D01*
X-5230Y119121D01*
X-5077Y119417D01*
X-950Y125496D01*
X13316Y146505D01*
X16178Y150721D01*
X16382Y150983D01*
X16499Y151092D01*
X16626Y151188D01*
X16762Y151270D01*
X16908Y151338D01*
X17065Y151392D01*
X17231Y151432D01*
X17400Y151456D01*
X17566Y151463D01*
X17729Y151452D01*
X17888Y151425D01*
X18044Y151380D01*
X18197Y151318D01*
X18347Y151239D01*
X18493Y151142D01*
X18755Y150938D01*
X18864Y150822D01*
X18960Y150695D01*
X19042Y150558D01*
X19110Y150412D01*
X19164Y150256D01*
X19204Y150090D01*
X19229Y149921D01*
X19238Y149754D01*
X19232Y149592D01*
X19210Y149432D01*
X19173Y149276D01*
X19120Y149123D01*
X18967Y148827D01*
X-2289Y117523D01*
X-2514Y117261D01*
X-2769Y117056D01*
X-3053Y116906D01*
X-3206Y116852D01*
X-3367Y116813D01*
X-3530Y116788D01*
X-3691Y116781D01*
G37*
G36*
X-16303Y97838D02*
X-16466Y97844D01*
X-16625Y97866D01*
X-16782Y97903D01*
X-16935Y97956D01*
X-17230Y98109D01*
X-17492Y98336D01*
X-17697Y98596D01*
X-17779Y98738D01*
X-17847Y98888D01*
X-17901Y99047D01*
X-17941Y99214D01*
X-17965Y99383D01*
X-17972Y99549D01*
X-17962Y99712D01*
X-17934Y99871D01*
X-17889Y100028D01*
X-17827Y100181D01*
X-17748Y100330D01*
X-17651Y100477D01*
X-12548Y107947D01*
X-9812Y106053D01*
X-14916Y98582D01*
X-15119Y98321D01*
X-15236Y98211D01*
X-15363Y98116D01*
X-15499Y98034D01*
X-15646Y97966D01*
X-15802Y97912D01*
X-15968Y97872D01*
X-16137Y97847D01*
X-16303Y97838D01*
G37*
G36*
X-109646Y33030D02*
X-110078Y33053D01*
X-110480Y33123D01*
X-110851Y33239D01*
X-111192Y33401D01*
X-111499Y33607D01*
X-111767Y33853D01*
X-111997Y34138D01*
X-112187Y34463D01*
X-112337Y34824D01*
X-112443Y35217D01*
X-112508Y35641D01*
X-112529Y36097D01*
X-112517Y36441D01*
X-112481Y36766D01*
X-112422Y37072D01*
X-112338Y37358D01*
X-112231Y37626D01*
X-112099Y37874D01*
X-111944Y38103D01*
X-111765Y38313D01*
X-111565Y38501D01*
X-111347Y38664D01*
X-111110Y38801D01*
X-110855Y38914D01*
X-110581Y39002D01*
X-110289Y39064D01*
X-109979Y39102D01*
X-109650Y39115D01*
X-109198Y39091D01*
X-108784Y39022D01*
X-108409Y38907D01*
X-108073Y38745D01*
X-107777Y38538D01*
X-107523Y38287D01*
X-107311Y37991D01*
X-107141Y37650D01*
X-107901Y37398D01*
X-108019Y37641D01*
X-108169Y37854D01*
X-108349Y38036D01*
X-108561Y38187D01*
X-108800Y38306D01*
X-109059Y38392D01*
X-109340Y38443D01*
X-109642Y38460D01*
X-109881Y38450D01*
X-110106Y38420D01*
X-110317Y38371D01*
X-110515Y38302D01*
X-110699Y38213D01*
X-110869Y38105D01*
X-111026Y37976D01*
X-111169Y37828D01*
X-111297Y37663D01*
X-111408Y37483D01*
X-111502Y37289D01*
X-111579Y37080D01*
X-111638Y36856D01*
X-111681Y36618D01*
X-111706Y36365D01*
X-111715Y36097D01*
X-111706Y35832D01*
X-111679Y35581D01*
X-111635Y35342D01*
X-111573Y35117D01*
X-111493Y34905D01*
X-111395Y34707D01*
X-111280Y34522D01*
X-111146Y34350D01*
X-110998Y34195D01*
X-110837Y34061D01*
X-110664Y33947D01*
X-110478Y33854D01*
X-110279Y33782D01*
X-110068Y33730D01*
X-109845Y33699D01*
X-109608Y33689D01*
X-109308Y33708D01*
X-109026Y33766D01*
X-108764Y33862D01*
X-108521Y33996D01*
X-108297Y34169D01*
X-108092Y34380D01*
X-107907Y34630D01*
X-107741Y34918D01*
X-107087Y34591D01*
X-107288Y34232D01*
X-107526Y33919D01*
X-107801Y33651D01*
X-108113Y33429D01*
X-108456Y33254D01*
X-108826Y33130D01*
X-109223Y33055D01*
X-109431Y33036D01*
X-109646Y33030D01*
G37*
G36*
X-102418Y33114D02*
X-106123Y33114D01*
X-106123Y33756D01*
X-104617Y33756D01*
X-104617Y38305D01*
X-105951Y37352D01*
X-105951Y38065D01*
X-104554Y39026D01*
X-103857Y39026D01*
X-103857Y33756D01*
X-102418Y33756D01*
X-102418Y33114D01*
G37*
G36*
X-109646Y16520D02*
X-110078Y16543D01*
X-110480Y16613D01*
X-110851Y16729D01*
X-111192Y16891D01*
X-111499Y17097D01*
X-111767Y17343D01*
X-111997Y17628D01*
X-112187Y17953D01*
X-112337Y18314D01*
X-112443Y18707D01*
X-112508Y19131D01*
X-112529Y19587D01*
X-112517Y19931D01*
X-112481Y20256D01*
X-112422Y20562D01*
X-112338Y20848D01*
X-112231Y21116D01*
X-112099Y21364D01*
X-111944Y21593D01*
X-111765Y21803D01*
X-111565Y21991D01*
X-111347Y22154D01*
X-111110Y22291D01*
X-110855Y22404D01*
X-110581Y22492D01*
X-110289Y22554D01*
X-109979Y22592D01*
X-109650Y22605D01*
X-109198Y22581D01*
X-108784Y22512D01*
X-108409Y22397D01*
X-108073Y22235D01*
X-107777Y22028D01*
X-107523Y21777D01*
X-107311Y21481D01*
X-107141Y21140D01*
X-107901Y20888D01*
X-108019Y21131D01*
X-108169Y21344D01*
X-108349Y21526D01*
X-108561Y21677D01*
X-108800Y21796D01*
X-109059Y21882D01*
X-109340Y21933D01*
X-109642Y21950D01*
X-109881Y21940D01*
X-110106Y21910D01*
X-110317Y21861D01*
X-110515Y21792D01*
X-110699Y21703D01*
X-110869Y21595D01*
X-111026Y21466D01*
X-111169Y21318D01*
X-111297Y21153D01*
X-111408Y20973D01*
X-111502Y20779D01*
X-111579Y20570D01*
X-111638Y20346D01*
X-111681Y20108D01*
X-111706Y19855D01*
X-111715Y19587D01*
X-111706Y19322D01*
X-111679Y19071D01*
X-111635Y18832D01*
X-111573Y18607D01*
X-111493Y18395D01*
X-111395Y18197D01*
X-111280Y18012D01*
X-111146Y17840D01*
X-110998Y17685D01*
X-110837Y17551D01*
X-110664Y17437D01*
X-110478Y17344D01*
X-110279Y17272D01*
X-110068Y17220D01*
X-109845Y17189D01*
X-109608Y17179D01*
X-109308Y17198D01*
X-109026Y17256D01*
X-108764Y17352D01*
X-108521Y17486D01*
X-108297Y17659D01*
X-108092Y17870D01*
X-107907Y18120D01*
X-107741Y18408D01*
X-107087Y18081D01*
X-107288Y17722D01*
X-107526Y17409D01*
X-107801Y17141D01*
X-108113Y16919D01*
X-108456Y16744D01*
X-108826Y16620D01*
X-109223Y16545D01*
X-109431Y16526D01*
X-109646Y16520D01*
G37*
G36*
X-102431Y16604D02*
X-106346Y16604D01*
X-106346Y17137D01*
X-106233Y17375D01*
X-106108Y17599D01*
X-105972Y17808D01*
X-105823Y18003D01*
X-105507Y18361D01*
X-105175Y18683D01*
X-104501Y19248D01*
X-104184Y19508D01*
X-103899Y19768D01*
X-103656Y20034D01*
X-103465Y20313D01*
X-103392Y20461D01*
X-103341Y20618D01*
X-103310Y20784D01*
X-103299Y20960D01*
X-103317Y21189D01*
X-103371Y21392D01*
X-103460Y21567D01*
X-103585Y21715D01*
X-103741Y21832D01*
X-103926Y21916D01*
X-104138Y21967D01*
X-104378Y21983D01*
X-104608Y21967D01*
X-104818Y21918D01*
X-105006Y21836D01*
X-105173Y21721D01*
X-105313Y21577D01*
X-105421Y21406D01*
X-105497Y21209D01*
X-105540Y20985D01*
X-106312Y21056D01*
X-106284Y21229D01*
X-106243Y21393D01*
X-106188Y21547D01*
X-106120Y21693D01*
X-106038Y21829D01*
X-105942Y21957D01*
X-105710Y22185D01*
X-105432Y22368D01*
X-105280Y22441D01*
X-105118Y22500D01*
X-104947Y22546D01*
X-104766Y22578D01*
X-104577Y22598D01*
X-104378Y22605D01*
X-104161Y22598D01*
X-103957Y22578D01*
X-103765Y22545D01*
X-103587Y22499D01*
X-103422Y22440D01*
X-103269Y22367D01*
X-103130Y22282D01*
X-103003Y22183D01*
X-102891Y22072D01*
X-102793Y21950D01*
X-102711Y21817D01*
X-102643Y21672D01*
X-102591Y21517D01*
X-102553Y21351D01*
X-102530Y21173D01*
X-102523Y20985D01*
X-102533Y20813D01*
X-102562Y20642D01*
X-102611Y20471D01*
X-102680Y20301D01*
X-102769Y20131D01*
X-102876Y19961D01*
X-103148Y19621D01*
X-103600Y19188D01*
X-104336Y18568D01*
X-104769Y18193D01*
X-105104Y17857D01*
X-105349Y17546D01*
X-105442Y17394D01*
X-105515Y17246D01*
X-102431Y17246D01*
X-102431Y16604D01*
G37*
G36*
X-109646Y-31740D02*
X-110078Y-31717D01*
X-110480Y-31647D01*
X-110851Y-31531D01*
X-111192Y-31369D01*
X-111499Y-31163D01*
X-111767Y-30918D01*
X-111997Y-30632D01*
X-112187Y-30307D01*
X-112337Y-29946D01*
X-112443Y-29553D01*
X-112508Y-29129D01*
X-112529Y-28673D01*
X-112517Y-28329D01*
X-112481Y-28004D01*
X-112422Y-27698D01*
X-112338Y-27412D01*
X-112231Y-27144D01*
X-112099Y-26896D01*
X-111944Y-26667D01*
X-111765Y-26457D01*
X-111565Y-26269D01*
X-111347Y-26106D01*
X-111110Y-25969D01*
X-110855Y-25856D01*
X-110581Y-25768D01*
X-110289Y-25706D01*
X-109979Y-25668D01*
X-109650Y-25656D01*
X-109198Y-25679D01*
X-108784Y-25748D01*
X-108409Y-25863D01*
X-108073Y-26025D01*
X-107777Y-26232D01*
X-107523Y-26483D01*
X-107311Y-26779D01*
X-107141Y-27120D01*
X-107901Y-27372D01*
X-108019Y-27129D01*
X-108169Y-26916D01*
X-108349Y-26734D01*
X-108561Y-26583D01*
X-108800Y-26464D01*
X-109059Y-26378D01*
X-109340Y-26327D01*
X-109642Y-26310D01*
X-109881Y-26320D01*
X-110106Y-26350D01*
X-110317Y-26399D01*
X-110515Y-26468D01*
X-110699Y-26557D01*
X-110869Y-26665D01*
X-111026Y-26794D01*
X-111169Y-26942D01*
X-111297Y-27107D01*
X-111408Y-27287D01*
X-111502Y-27481D01*
X-111579Y-27690D01*
X-111638Y-27914D01*
X-111681Y-28152D01*
X-111706Y-28405D01*
X-111715Y-28673D01*
X-111706Y-28938D01*
X-111679Y-29189D01*
X-111635Y-29428D01*
X-111573Y-29653D01*
X-111493Y-29865D01*
X-111395Y-30063D01*
X-111280Y-30248D01*
X-111146Y-30420D01*
X-110998Y-30575D01*
X-110837Y-30709D01*
X-110664Y-30823D01*
X-110478Y-30916D01*
X-110279Y-30988D01*
X-110068Y-31040D01*
X-109845Y-31071D01*
X-109608Y-31081D01*
X-109308Y-31062D01*
X-109026Y-31004D01*
X-108764Y-30908D01*
X-108521Y-30774D01*
X-108297Y-30601D01*
X-108092Y-30390D01*
X-107907Y-30140D01*
X-107741Y-29852D01*
X-107087Y-30179D01*
X-107288Y-30538D01*
X-107526Y-30851D01*
X-107801Y-31119D01*
X-108113Y-31341D01*
X-108456Y-31516D01*
X-108826Y-31640D01*
X-109223Y-31715D01*
X-109431Y-31734D01*
X-109646Y-31740D01*
G37*
G36*
X-104382Y-31740D02*
X-104601Y-31734D01*
X-104808Y-31715D01*
X-105004Y-31683D01*
X-105189Y-31639D01*
X-105363Y-31582D01*
X-105525Y-31512D01*
X-105675Y-31430D01*
X-105815Y-31335D01*
X-105942Y-31228D01*
X-106055Y-31108D01*
X-106155Y-30977D01*
X-106241Y-30833D01*
X-106314Y-30677D01*
X-106373Y-30509D01*
X-106419Y-30329D01*
X-106451Y-30137D01*
X-105670Y-30066D01*
X-105617Y-30312D01*
X-105533Y-30525D01*
X-105418Y-30705D01*
X-105273Y-30852D01*
X-105096Y-30967D01*
X-104889Y-31049D01*
X-104651Y-31098D01*
X-104382Y-31115D01*
X-104112Y-31097D01*
X-103873Y-31044D01*
X-103664Y-30957D01*
X-103486Y-30834D01*
X-103344Y-30676D01*
X-103242Y-30484D01*
X-103181Y-30258D01*
X-103161Y-29999D01*
X-103184Y-29771D01*
X-103254Y-29569D01*
X-103370Y-29394D01*
X-103532Y-29245D01*
X-103738Y-29127D01*
X-103986Y-29042D01*
X-104274Y-28992D01*
X-104604Y-28975D01*
X-105032Y-28975D01*
X-105032Y-28320D01*
X-104621Y-28320D01*
X-104328Y-28303D01*
X-104070Y-28252D01*
X-103846Y-28168D01*
X-103658Y-28049D01*
X-103508Y-27901D01*
X-103402Y-27727D01*
X-103337Y-27527D01*
X-103316Y-27300D01*
X-103333Y-27076D01*
X-103386Y-26876D01*
X-103473Y-26701D01*
X-103595Y-26551D01*
X-103752Y-26431D01*
X-103942Y-26345D01*
X-104166Y-26294D01*
X-104424Y-26277D01*
X-104662Y-26293D01*
X-104875Y-26341D01*
X-105065Y-26421D01*
X-105232Y-26533D01*
X-105370Y-26674D01*
X-105475Y-26841D01*
X-105549Y-27034D01*
X-105590Y-27254D01*
X-106350Y-27196D01*
X-106322Y-27019D01*
X-106281Y-26852D01*
X-106226Y-26696D01*
X-106157Y-26549D01*
X-106075Y-26413D01*
X-105980Y-26286D01*
X-105870Y-26169D01*
X-105748Y-26063D01*
X-105470Y-25884D01*
X-105317Y-25815D01*
X-105156Y-25757D01*
X-104984Y-25713D01*
X-104804Y-25681D01*
X-104614Y-25662D01*
X-104415Y-25656D01*
X-104199Y-25662D01*
X-103995Y-25681D01*
X-103804Y-25714D01*
X-103625Y-25759D01*
X-103458Y-25817D01*
X-103304Y-25888D01*
X-103162Y-25972D01*
X-103033Y-26069D01*
X-102917Y-26177D01*
X-102817Y-26296D01*
X-102732Y-26425D01*
X-102663Y-26563D01*
X-102609Y-26713D01*
X-102571Y-26872D01*
X-102547Y-27041D01*
X-102540Y-27221D01*
X-102560Y-27491D01*
X-102619Y-27734D01*
X-102718Y-27951D01*
X-102857Y-28142D01*
X-103033Y-28305D01*
X-103245Y-28439D01*
X-103493Y-28545D01*
X-103778Y-28622D01*
X-103778Y-28639D01*
X-103464Y-28694D01*
X-103188Y-28786D01*
X-102948Y-28916D01*
X-102745Y-29084D01*
X-102584Y-29283D01*
X-102468Y-29505D01*
X-102399Y-29753D01*
X-102376Y-30024D01*
X-102384Y-30223D01*
X-102409Y-30410D01*
X-102449Y-30585D01*
X-102506Y-30750D01*
X-102579Y-30902D01*
X-102669Y-31043D01*
X-102774Y-31173D01*
X-102896Y-31291D01*
X-103033Y-31396D01*
X-103184Y-31487D01*
X-103349Y-31565D01*
X-103528Y-31628D01*
X-103721Y-31677D01*
X-103927Y-31712D01*
X-104148Y-31733D01*
X-104382Y-31740D01*
G37*
G36*
X-103081Y-20226D02*
X-103794Y-20226D01*
X-103794Y-18887D01*
X-106581Y-18887D01*
X-106581Y-18300D01*
X-103874Y-14314D01*
X-103081Y-14314D01*
X-103081Y-18292D01*
X-102250Y-18292D01*
X-102250Y-18887D01*
X-103081Y-18887D01*
X-103081Y-20226D01*
G37*
%LPC*%
G36*
X-103794Y-18292D02*
X-103794Y-15165D01*
X-103912Y-15388D01*
X-104076Y-15665D01*
X-105590Y-17897D01*
X-105817Y-18208D01*
X-105884Y-18292D01*
X-103794Y-18292D01*
G37*
%LPD*%
G36*
X-109646Y-20310D02*
X-110078Y-20287D01*
X-110480Y-20217D01*
X-110851Y-20101D01*
X-111192Y-19939D01*
X-111499Y-19733D01*
X-111767Y-19488D01*
X-111997Y-19202D01*
X-112187Y-18877D01*
X-112337Y-18516D01*
X-112443Y-18123D01*
X-112508Y-17699D01*
X-112529Y-17243D01*
X-112517Y-16899D01*
X-112481Y-16574D01*
X-112422Y-16268D01*
X-112338Y-15982D01*
X-112231Y-15714D01*
X-112099Y-15466D01*
X-111944Y-15237D01*
X-111765Y-15027D01*
X-111565Y-14839D01*
X-111347Y-14676D01*
X-111110Y-14539D01*
X-110855Y-14426D01*
X-110581Y-14338D01*
X-110289Y-14276D01*
X-109979Y-14238D01*
X-109650Y-14226D01*
X-109198Y-14249D01*
X-108784Y-14318D01*
X-108409Y-14433D01*
X-108073Y-14595D01*
X-107777Y-14802D01*
X-107523Y-15053D01*
X-107311Y-15349D01*
X-107141Y-15690D01*
X-107901Y-15942D01*
X-108019Y-15699D01*
X-108169Y-15486D01*
X-108349Y-15304D01*
X-108561Y-15153D01*
X-108800Y-15034D01*
X-109059Y-14948D01*
X-109340Y-14897D01*
X-109642Y-14880D01*
X-109881Y-14890D01*
X-110106Y-14920D01*
X-110317Y-14969D01*
X-110515Y-15038D01*
X-110699Y-15127D01*
X-110869Y-15235D01*
X-111026Y-15364D01*
X-111169Y-15512D01*
X-111297Y-15677D01*
X-111408Y-15857D01*
X-111502Y-16051D01*
X-111579Y-16260D01*
X-111638Y-16484D01*
X-111681Y-16722D01*
X-111706Y-16975D01*
X-111715Y-17243D01*
X-111706Y-17508D01*
X-111679Y-17759D01*
X-111635Y-17998D01*
X-111573Y-18223D01*
X-111493Y-18435D01*
X-111395Y-18633D01*
X-111280Y-18818D01*
X-111146Y-18990D01*
X-110998Y-19145D01*
X-110837Y-19279D01*
X-110664Y-19393D01*
X-110478Y-19486D01*
X-110279Y-19558D01*
X-110068Y-19610D01*
X-109845Y-19641D01*
X-109608Y-19651D01*
X-109308Y-19632D01*
X-109026Y-19574D01*
X-108764Y-19478D01*
X-108521Y-19344D01*
X-108297Y-19171D01*
X-108092Y-18960D01*
X-107907Y-18710D01*
X-107741Y-18422D01*
X-107087Y-18749D01*
X-107288Y-19108D01*
X-107526Y-19421D01*
X-107801Y-19689D01*
X-108113Y-19911D01*
X-108456Y-20086D01*
X-108826Y-20210D01*
X-109223Y-20285D01*
X-109431Y-20304D01*
X-109646Y-20310D01*
G37*
G36*
X-63671Y-82812D02*
X-64103Y-82789D01*
X-64504Y-82719D01*
X-64876Y-82603D01*
X-65217Y-82441D01*
X-65524Y-82235D01*
X-65792Y-81990D01*
X-66021Y-81704D01*
X-66212Y-81379D01*
X-66361Y-81018D01*
X-66468Y-80625D01*
X-66532Y-80201D01*
X-66554Y-79745D01*
X-66542Y-79401D01*
X-66506Y-79076D01*
X-66446Y-78770D01*
X-66363Y-78484D01*
X-66255Y-78216D01*
X-66124Y-77968D01*
X-65969Y-77739D01*
X-65790Y-77529D01*
X-65590Y-77341D01*
X-65371Y-77178D01*
X-65135Y-77041D01*
X-64879Y-76928D01*
X-64606Y-76840D01*
X-64314Y-76778D01*
X-64004Y-76740D01*
X-63675Y-76728D01*
X-63222Y-76751D01*
X-62809Y-76820D01*
X-62434Y-76935D01*
X-62097Y-77097D01*
X-61801Y-77304D01*
X-61548Y-77555D01*
X-61336Y-77851D01*
X-61166Y-78192D01*
X-61925Y-78444D01*
X-62044Y-78201D01*
X-62193Y-77988D01*
X-62374Y-77806D01*
X-62586Y-77655D01*
X-62824Y-77536D01*
X-63084Y-77450D01*
X-63365Y-77399D01*
X-63667Y-77382D01*
X-63905Y-77392D01*
X-64130Y-77422D01*
X-64342Y-77471D01*
X-64539Y-77540D01*
X-64724Y-77629D01*
X-64894Y-77737D01*
X-65051Y-77866D01*
X-65194Y-78014D01*
X-65322Y-78179D01*
X-65433Y-78359D01*
X-65526Y-78553D01*
X-65603Y-78762D01*
X-65663Y-78986D01*
X-65705Y-79224D01*
X-65731Y-79477D01*
X-65740Y-79745D01*
X-65731Y-80010D01*
X-65704Y-80261D01*
X-65660Y-80500D01*
X-65597Y-80725D01*
X-65517Y-80937D01*
X-65420Y-81135D01*
X-65304Y-81320D01*
X-65171Y-81492D01*
X-65023Y-81647D01*
X-64862Y-81781D01*
X-64688Y-81895D01*
X-64502Y-81988D01*
X-64304Y-82060D01*
X-64093Y-82112D01*
X-63869Y-82143D01*
X-63633Y-82153D01*
X-63332Y-82134D01*
X-63051Y-82076D01*
X-62788Y-81980D01*
X-62545Y-81846D01*
X-62321Y-81673D01*
X-62117Y-81462D01*
X-61932Y-81212D01*
X-61766Y-80924D01*
X-61111Y-81251D01*
X-61312Y-81610D01*
X-61550Y-81923D01*
X-61825Y-82191D01*
X-62137Y-82413D01*
X-62481Y-82588D01*
X-62851Y-82712D01*
X-63248Y-82787D01*
X-63456Y-82806D01*
X-63671Y-82812D01*
G37*
G36*
X-58482Y-82812D02*
X-58875Y-82789D01*
X-59229Y-82722D01*
X-59543Y-82609D01*
X-59816Y-82451D01*
X-60047Y-82250D01*
X-60231Y-82009D01*
X-60368Y-81728D01*
X-60458Y-81406D01*
X-59695Y-81318D01*
X-59623Y-81524D01*
X-59528Y-81702D01*
X-59410Y-81853D01*
X-59268Y-81976D01*
X-59102Y-82072D01*
X-58913Y-82140D01*
X-58701Y-82181D01*
X-58465Y-82195D01*
X-58178Y-82172D01*
X-57923Y-82103D01*
X-57701Y-81989D01*
X-57513Y-81828D01*
X-57362Y-81627D01*
X-57255Y-81392D01*
X-57190Y-81123D01*
X-57169Y-80819D01*
X-57190Y-80553D01*
X-57255Y-80314D01*
X-57363Y-80102D01*
X-57515Y-79917D01*
X-57703Y-79766D01*
X-57921Y-79659D01*
X-58170Y-79594D01*
X-58448Y-79573D01*
X-58744Y-79597D01*
X-59019Y-79669D01*
X-59284Y-79799D01*
X-59548Y-79996D01*
X-60286Y-79996D01*
X-60089Y-76816D01*
X-56728Y-76816D01*
X-56728Y-77458D01*
X-59401Y-77458D01*
X-59514Y-79333D01*
X-59254Y-79168D01*
X-58964Y-79050D01*
X-58643Y-78979D01*
X-58293Y-78956D01*
X-58081Y-78964D01*
X-57879Y-78988D01*
X-57688Y-79028D01*
X-57509Y-79084D01*
X-57341Y-79156D01*
X-57183Y-79244D01*
X-57037Y-79348D01*
X-56902Y-79468D01*
X-56781Y-79600D01*
X-56675Y-79743D01*
X-56586Y-79895D01*
X-56514Y-80057D01*
X-56457Y-80229D01*
X-56416Y-80410D01*
X-56392Y-80601D01*
X-56384Y-80802D01*
X-56393Y-81030D01*
X-56419Y-81245D01*
X-56462Y-81448D01*
X-56523Y-81638D01*
X-56601Y-81816D01*
X-56697Y-81981D01*
X-56810Y-82134D01*
X-56940Y-82275D01*
X-57086Y-82401D01*
X-57245Y-82510D01*
X-57417Y-82602D01*
X-57603Y-82678D01*
X-57803Y-82736D01*
X-58016Y-82778D01*
X-58242Y-82804D01*
X-58482Y-82812D01*
G37*
G36*
X-95269Y-101348D02*
X-95512Y-101336D01*
X-95739Y-101302D01*
X-95952Y-101244D01*
X-96151Y-101162D01*
X-96334Y-101058D01*
X-96503Y-100930D01*
X-96657Y-100779D01*
X-96797Y-100605D01*
X-96921Y-100409D01*
X-97028Y-100192D01*
X-97119Y-99953D01*
X-97193Y-99694D01*
X-97251Y-99413D01*
X-97292Y-99111D01*
X-97317Y-98788D01*
X-97325Y-98444D01*
X-97317Y-98071D01*
X-97291Y-97721D01*
X-97248Y-97393D01*
X-97188Y-97087D01*
X-97111Y-96803D01*
X-97016Y-96542D01*
X-96905Y-96303D01*
X-96776Y-96086D01*
X-96631Y-95893D01*
X-96472Y-95726D01*
X-96298Y-95585D01*
X-96110Y-95469D01*
X-95907Y-95379D01*
X-95689Y-95315D01*
X-95457Y-95276D01*
X-95211Y-95264D01*
X-94891Y-95282D01*
X-94603Y-95339D01*
X-94346Y-95433D01*
X-94120Y-95565D01*
X-93924Y-95734D01*
X-93760Y-95941D01*
X-93626Y-96186D01*
X-93524Y-96468D01*
X-94245Y-96598D01*
X-94309Y-96429D01*
X-94390Y-96282D01*
X-94487Y-96158D01*
X-94600Y-96057D01*
X-94730Y-95978D01*
X-94876Y-95921D01*
X-95039Y-95887D01*
X-95219Y-95876D01*
X-95376Y-95886D01*
X-95524Y-95914D01*
X-95663Y-95961D01*
X-95792Y-96027D01*
X-95913Y-96111D01*
X-96024Y-96215D01*
X-96127Y-96337D01*
X-96220Y-96478D01*
X-96303Y-96637D01*
X-96375Y-96813D01*
X-96436Y-97006D01*
X-96486Y-97215D01*
X-96524Y-97442D01*
X-96552Y-97685D01*
X-96574Y-98222D01*
X-96461Y-98042D01*
X-96327Y-97886D01*
X-96172Y-97752D01*
X-95995Y-97641D01*
X-95802Y-97553D01*
X-95595Y-97491D01*
X-95374Y-97454D01*
X-95139Y-97441D01*
X-94940Y-97449D01*
X-94751Y-97473D01*
X-94573Y-97513D01*
X-94405Y-97569D01*
X-94248Y-97641D01*
X-94102Y-97729D01*
X-93966Y-97833D01*
X-93841Y-97953D01*
X-93728Y-98087D01*
X-93630Y-98231D01*
X-93548Y-98387D01*
X-93480Y-98553D01*
X-93428Y-98731D01*
X-93390Y-98919D01*
X-93368Y-99119D01*
X-93360Y-99330D01*
X-93368Y-99557D01*
X-93392Y-99773D01*
X-93431Y-99976D01*
X-93487Y-100167D01*
X-93558Y-100345D01*
X-93646Y-100511D01*
X-93749Y-100665D01*
X-93868Y-100807D01*
X-94001Y-100934D01*
X-94146Y-101043D01*
X-94303Y-101137D01*
X-94472Y-101213D01*
X-94653Y-101272D01*
X-94847Y-101314D01*
X-95052Y-101339D01*
X-95269Y-101348D01*
G37*
%LPC*%
G36*
X-95295Y-100740D02*
X-95036Y-100717D01*
X-94808Y-100648D01*
X-94608Y-100533D01*
X-94439Y-100372D01*
X-94303Y-100172D01*
X-94206Y-99936D01*
X-94147Y-99667D01*
X-94128Y-99363D01*
X-94148Y-99061D01*
X-94207Y-98795D01*
X-94305Y-98565D01*
X-94443Y-98373D01*
X-94616Y-98220D01*
X-94819Y-98112D01*
X-95054Y-98046D01*
X-95320Y-98025D01*
X-95571Y-98044D01*
X-95798Y-98102D01*
X-95998Y-98198D01*
X-96174Y-98333D01*
X-96316Y-98502D01*
X-96418Y-98700D01*
X-96479Y-98927D01*
X-96499Y-99183D01*
X-96478Y-99509D01*
X-96414Y-99805D01*
X-96309Y-100069D01*
X-96161Y-100303D01*
X-95980Y-100494D01*
X-95776Y-100630D01*
X-95547Y-100712D01*
X-95424Y-100733D01*
X-95295Y-100740D01*
G37*
%LPD*%
G36*
X-100630Y-101348D02*
X-101062Y-101325D01*
X-101464Y-101255D01*
X-101835Y-101139D01*
X-102176Y-100977D01*
X-102483Y-100771D01*
X-102751Y-100526D01*
X-102981Y-100240D01*
X-103171Y-99915D01*
X-103321Y-99554D01*
X-103427Y-99161D01*
X-103492Y-98737D01*
X-103513Y-98281D01*
X-103501Y-97937D01*
X-103465Y-97612D01*
X-103406Y-97306D01*
X-103322Y-97020D01*
X-103215Y-96752D01*
X-103083Y-96504D01*
X-102928Y-96275D01*
X-102749Y-96065D01*
X-102549Y-95877D01*
X-102331Y-95714D01*
X-102094Y-95577D01*
X-101839Y-95464D01*
X-101565Y-95376D01*
X-101273Y-95314D01*
X-100963Y-95276D01*
X-100634Y-95264D01*
X-100182Y-95287D01*
X-99768Y-95356D01*
X-99393Y-95471D01*
X-99057Y-95633D01*
X-98761Y-95840D01*
X-98507Y-96091D01*
X-98295Y-96387D01*
X-98125Y-96728D01*
X-98885Y-96980D01*
X-99003Y-96737D01*
X-99153Y-96524D01*
X-99333Y-96342D01*
X-99545Y-96191D01*
X-99784Y-96072D01*
X-100043Y-95986D01*
X-100324Y-95935D01*
X-100626Y-95918D01*
X-100865Y-95928D01*
X-101090Y-95958D01*
X-101301Y-96007D01*
X-101499Y-96076D01*
X-101683Y-96165D01*
X-101853Y-96273D01*
X-102010Y-96402D01*
X-102153Y-96550D01*
X-102281Y-96715D01*
X-102392Y-96895D01*
X-102486Y-97089D01*
X-102563Y-97298D01*
X-102622Y-97522D01*
X-102665Y-97760D01*
X-102690Y-98013D01*
X-102699Y-98281D01*
X-102690Y-98546D01*
X-102663Y-98797D01*
X-102619Y-99036D01*
X-102557Y-99261D01*
X-102477Y-99473D01*
X-102379Y-99671D01*
X-102264Y-99856D01*
X-102130Y-100028D01*
X-101982Y-100183D01*
X-101821Y-100317D01*
X-101648Y-100431D01*
X-101462Y-100524D01*
X-101263Y-100596D01*
X-101052Y-100648D01*
X-100829Y-100679D01*
X-100592Y-100689D01*
X-100292Y-100670D01*
X-100010Y-100612D01*
X-99748Y-100516D01*
X-99505Y-100382D01*
X-99281Y-100209D01*
X-99076Y-99998D01*
X-98891Y-99748D01*
X-98725Y-99460D01*
X-98071Y-99787D01*
X-98272Y-100146D01*
X-98510Y-100459D01*
X-98785Y-100727D01*
X-99097Y-100949D01*
X-99440Y-101124D01*
X-99810Y-101248D01*
X-100207Y-101323D01*
X-100415Y-101342D01*
X-100630Y-101348D01*
G37*
G36*
X-109646Y-7610D02*
X-110078Y-7587D01*
X-110480Y-7517D01*
X-110851Y-7401D01*
X-111192Y-7239D01*
X-111499Y-7033D01*
X-111767Y-6788D01*
X-111997Y-6502D01*
X-112187Y-6177D01*
X-112337Y-5816D01*
X-112443Y-5423D01*
X-112508Y-4999D01*
X-112529Y-4543D01*
X-112517Y-4199D01*
X-112481Y-3874D01*
X-112422Y-3568D01*
X-112338Y-3282D01*
X-112231Y-3014D01*
X-112099Y-2766D01*
X-111944Y-2537D01*
X-111765Y-2327D01*
X-111565Y-2139D01*
X-111347Y-1976D01*
X-111110Y-1839D01*
X-110855Y-1726D01*
X-110581Y-1638D01*
X-110289Y-1576D01*
X-109979Y-1538D01*
X-109650Y-1526D01*
X-109198Y-1549D01*
X-108784Y-1618D01*
X-108409Y-1733D01*
X-108073Y-1895D01*
X-107777Y-2102D01*
X-107523Y-2353D01*
X-107311Y-2649D01*
X-107141Y-2990D01*
X-107901Y-3242D01*
X-108019Y-2999D01*
X-108169Y-2786D01*
X-108349Y-2604D01*
X-108561Y-2453D01*
X-108800Y-2334D01*
X-109059Y-2248D01*
X-109340Y-2197D01*
X-109642Y-2180D01*
X-109881Y-2190D01*
X-110106Y-2220D01*
X-110317Y-2269D01*
X-110515Y-2338D01*
X-110699Y-2427D01*
X-110869Y-2535D01*
X-111026Y-2664D01*
X-111169Y-2812D01*
X-111297Y-2977D01*
X-111408Y-3157D01*
X-111502Y-3351D01*
X-111579Y-3560D01*
X-111638Y-3784D01*
X-111681Y-4022D01*
X-111706Y-4275D01*
X-111715Y-4543D01*
X-111706Y-4808D01*
X-111679Y-5059D01*
X-111635Y-5298D01*
X-111573Y-5523D01*
X-111493Y-5735D01*
X-111395Y-5933D01*
X-111280Y-6118D01*
X-111146Y-6290D01*
X-110998Y-6445D01*
X-110837Y-6579D01*
X-110664Y-6693D01*
X-110478Y-6786D01*
X-110279Y-6858D01*
X-110068Y-6910D01*
X-109845Y-6941D01*
X-109608Y-6951D01*
X-109308Y-6932D01*
X-109026Y-6874D01*
X-108764Y-6778D01*
X-108521Y-6644D01*
X-108297Y-6471D01*
X-108092Y-6260D01*
X-107907Y-6010D01*
X-107741Y-5722D01*
X-107087Y-6049D01*
X-107288Y-6408D01*
X-107526Y-6721D01*
X-107801Y-6989D01*
X-108113Y-7211D01*
X-108456Y-7386D01*
X-108826Y-7510D01*
X-109223Y-7585D01*
X-109431Y-7604D01*
X-109646Y-7610D01*
G37*
G36*
X-104457Y-7526D02*
X-105246Y-7526D01*
X-105239Y-7241D01*
X-105216Y-6952D01*
X-105179Y-6659D01*
X-105126Y-6363D01*
X-104976Y-5759D01*
X-104766Y-5141D01*
X-104485Y-4490D01*
X-104124Y-3793D01*
X-103683Y-3048D01*
X-103161Y-2256D01*
X-106337Y-2256D01*
X-106337Y-1614D01*
X-102431Y-1614D01*
X-102431Y-2226D01*
X-102851Y-2881D01*
X-103204Y-3461D01*
X-103490Y-3966D01*
X-103710Y-4396D01*
X-103886Y-4787D01*
X-104037Y-5175D01*
X-104166Y-5561D01*
X-104271Y-5944D01*
X-104352Y-6329D01*
X-104411Y-6721D01*
X-104446Y-7120D01*
X-104457Y-7526D01*
G37*
G36*
X-104386Y3820D02*
X-104617Y3827D01*
X-104834Y3848D01*
X-105039Y3883D01*
X-105231Y3932D01*
X-105410Y3995D01*
X-105576Y4073D01*
X-105729Y4164D01*
X-105869Y4269D01*
X-105995Y4387D01*
X-106103Y4517D01*
X-106195Y4659D01*
X-106271Y4812D01*
X-106329Y4978D01*
X-106371Y5155D01*
X-106396Y5344D01*
X-106404Y5545D01*
X-106384Y5823D01*
X-106322Y6078D01*
X-106218Y6309D01*
X-106073Y6518D01*
X-105896Y6696D01*
X-105695Y6835D01*
X-105472Y6935D01*
X-105225Y6997D01*
X-105225Y7013D01*
X-105454Y7087D01*
X-105657Y7193D01*
X-105835Y7332D01*
X-105987Y7504D01*
X-106109Y7701D01*
X-106196Y7914D01*
X-106249Y8144D01*
X-106266Y8390D01*
X-106258Y8555D01*
X-106234Y8711D01*
X-106195Y8860D01*
X-106140Y9001D01*
X-106068Y9134D01*
X-105982Y9259D01*
X-105879Y9376D01*
X-105760Y9485D01*
X-105628Y9583D01*
X-105486Y9668D01*
X-105332Y9741D01*
X-105168Y9800D01*
X-104993Y9846D01*
X-104807Y9878D01*
X-104610Y9898D01*
X-104403Y9905D01*
X-104190Y9898D01*
X-103989Y9879D01*
X-103800Y9847D01*
X-103622Y9802D01*
X-103455Y9744D01*
X-103300Y9673D01*
X-103157Y9590D01*
X-103024Y9493D01*
X-102906Y9386D01*
X-102803Y9270D01*
X-102716Y9144D01*
X-102645Y9010D01*
X-102590Y8866D01*
X-102550Y8714D01*
X-102527Y8552D01*
X-102519Y8381D01*
X-102536Y8136D01*
X-102589Y7906D01*
X-102677Y7693D01*
X-102800Y7496D01*
X-102953Y7325D01*
X-102962Y7318D01*
X-103132Y7189D01*
X-103337Y7088D01*
X-103568Y7022D01*
X-103568Y7005D01*
X-103300Y6940D01*
X-103064Y6839D01*
X-102860Y6700D01*
X-102702Y6540D01*
X-102687Y6525D01*
X-102549Y6318D01*
X-102451Y6088D01*
X-102392Y5833D01*
X-102372Y5553D01*
X-102380Y5354D01*
X-102404Y5167D01*
X-102445Y4990D01*
X-102502Y4825D01*
X-102575Y4671D01*
X-102665Y4529D01*
X-102770Y4397D01*
X-102892Y4277D01*
X-103029Y4170D01*
X-103181Y4077D01*
X-103346Y3999D01*
X-103526Y3934D01*
X-103720Y3884D01*
X-103928Y3849D01*
X-104150Y3827D01*
X-104386Y3820D01*
G37*
%LPC*%
G36*
X-104378Y4387D02*
X-104089Y4405D01*
X-103840Y4461D01*
X-103629Y4553D01*
X-103459Y4682D01*
X-103327Y4852D01*
X-103232Y5066D01*
X-103175Y5323D01*
X-103157Y5624D01*
X-103177Y5882D01*
X-103238Y6106D01*
X-103341Y6297D01*
X-103484Y6453D01*
X-103664Y6575D01*
X-103877Y6662D01*
X-104124Y6715D01*
X-104403Y6732D01*
X-104675Y6713D01*
X-104915Y6657D01*
X-105124Y6563D01*
X-105301Y6432D01*
X-105442Y6268D01*
X-105543Y6076D01*
X-105604Y5856D01*
X-105624Y5608D01*
X-105604Y5321D01*
X-105546Y5073D01*
X-105449Y4864D01*
X-105312Y4692D01*
X-105137Y4558D01*
X-104923Y4463D01*
X-104670Y4406D01*
X-104378Y4387D01*
G37*
G36*
X-104394Y7299D02*
X-104144Y7314D01*
X-103925Y7360D01*
X-103738Y7437D01*
X-103582Y7544D01*
X-103460Y7686D01*
X-103373Y7866D01*
X-103321Y8084D01*
X-103303Y8339D01*
X-103321Y8574D01*
X-103372Y8778D01*
X-103458Y8950D01*
X-103578Y9092D01*
X-103733Y9201D01*
X-103922Y9280D01*
X-104145Y9327D01*
X-104403Y9342D01*
X-104653Y9326D01*
X-104872Y9279D01*
X-105059Y9201D01*
X-105215Y9090D01*
X-105337Y8949D01*
X-105424Y8777D01*
X-105476Y8574D01*
X-105494Y8339D01*
X-105476Y8101D01*
X-105422Y7892D01*
X-105332Y7713D01*
X-105206Y7565D01*
X-105048Y7449D01*
X-104860Y7365D01*
X-104642Y7315D01*
X-104394Y7299D01*
G37*
%LPD*%
G36*
X-109646Y3820D02*
X-110078Y3843D01*
X-110480Y3913D01*
X-110851Y4029D01*
X-111192Y4191D01*
X-111499Y4397D01*
X-111767Y4643D01*
X-111997Y4928D01*
X-112187Y5253D01*
X-112337Y5614D01*
X-112443Y6007D01*
X-112508Y6431D01*
X-112529Y6887D01*
X-112517Y7231D01*
X-112481Y7556D01*
X-112422Y7862D01*
X-112338Y8148D01*
X-112231Y8416D01*
X-112099Y8664D01*
X-111944Y8893D01*
X-111765Y9103D01*
X-111565Y9291D01*
X-111347Y9454D01*
X-111110Y9591D01*
X-110855Y9704D01*
X-110581Y9792D01*
X-110289Y9854D01*
X-109979Y9892D01*
X-109650Y9905D01*
X-109198Y9881D01*
X-108784Y9812D01*
X-108409Y9697D01*
X-108073Y9535D01*
X-107777Y9328D01*
X-107523Y9077D01*
X-107311Y8781D01*
X-107141Y8440D01*
X-107901Y8188D01*
X-108019Y8431D01*
X-108169Y8644D01*
X-108349Y8826D01*
X-108561Y8977D01*
X-108800Y9096D01*
X-109059Y9182D01*
X-109340Y9233D01*
X-109642Y9250D01*
X-109881Y9240D01*
X-110106Y9210D01*
X-110317Y9161D01*
X-110515Y9092D01*
X-110699Y9003D01*
X-110869Y8895D01*
X-111026Y8766D01*
X-111169Y8618D01*
X-111297Y8453D01*
X-111408Y8273D01*
X-111502Y8079D01*
X-111579Y7870D01*
X-111638Y7646D01*
X-111681Y7408D01*
X-111706Y7155D01*
X-111715Y6887D01*
X-111706Y6622D01*
X-111679Y6371D01*
X-111635Y6132D01*
X-111573Y5907D01*
X-111493Y5695D01*
X-111395Y5497D01*
X-111280Y5312D01*
X-111146Y5140D01*
X-110998Y4985D01*
X-110837Y4851D01*
X-110664Y4737D01*
X-110478Y4644D01*
X-110279Y4572D01*
X-110068Y4520D01*
X-109845Y4489D01*
X-109608Y4479D01*
X-109308Y4498D01*
X-109026Y4556D01*
X-108764Y4652D01*
X-108521Y4786D01*
X-108297Y4959D01*
X-108092Y5170D01*
X-107907Y5420D01*
X-107741Y5708D01*
X-107087Y5381D01*
X-107288Y5022D01*
X-107526Y4709D01*
X-107801Y4441D01*
X-108113Y4219D01*
X-108456Y4044D01*
X-108826Y3920D01*
X-109223Y3845D01*
X-109431Y3826D01*
X-109646Y3820D01*
G37*
G36*
X-101080Y-45028D02*
X-101881Y-45028D01*
X-101881Y-39116D01*
X-99099Y-39116D01*
X-98856Y-39123D01*
X-98628Y-39144D01*
X-98414Y-39178D01*
X-98214Y-39227D01*
X-98029Y-39290D01*
X-97857Y-39367D01*
X-97700Y-39458D01*
X-97557Y-39563D01*
X-97430Y-39680D01*
X-97319Y-39808D01*
X-97226Y-39947D01*
X-97149Y-40097D01*
X-97090Y-40258D01*
X-97047Y-40430D01*
X-97022Y-40613D01*
X-97014Y-40807D01*
X-97038Y-41123D01*
X-97110Y-41413D01*
X-97229Y-41677D01*
X-97397Y-41914D01*
X-97608Y-42118D01*
X-97780Y-42231D01*
X-97854Y-42281D01*
X-98137Y-42401D01*
X-98457Y-42481D01*
X-97742Y-43565D01*
X-96779Y-45028D01*
X-97702Y-45028D01*
X-99237Y-42573D01*
X-101080Y-42573D01*
X-101080Y-45028D01*
G37*
%LPC*%
G36*
X-99145Y-41940D02*
X-98846Y-41921D01*
X-98583Y-41866D01*
X-98356Y-41773D01*
X-98165Y-41644D01*
X-98014Y-41481D01*
X-97906Y-41289D01*
X-97841Y-41067D01*
X-97819Y-40815D01*
X-97841Y-40572D01*
X-97907Y-40360D01*
X-98016Y-40179D01*
X-98170Y-40028D01*
X-98364Y-39910D01*
X-98597Y-39825D01*
X-98869Y-39775D01*
X-99179Y-39758D01*
X-101080Y-39758D01*
X-101080Y-41940D01*
X-99145Y-41940D01*
G37*
%LPD*%
G36*
X-92039Y-45028D02*
X-95744Y-45028D01*
X-95744Y-44386D01*
X-94238Y-44386D01*
X-94238Y-39837D01*
X-95572Y-40790D01*
X-95572Y-40077D01*
X-94175Y-39116D01*
X-93478Y-39116D01*
X-93478Y-44386D01*
X-92039Y-44386D01*
X-92039Y-45028D01*
G37*
G36*
X12292Y-107374D02*
X12045Y-107362D01*
X11814Y-107325D01*
X11598Y-107265D01*
X11399Y-107180D01*
X11215Y-107071D01*
X11048Y-106937D01*
X10896Y-106780D01*
X10760Y-106598D01*
X10640Y-106392D01*
X10536Y-106165D01*
X10448Y-105915D01*
X10376Y-105643D01*
X10320Y-105349D01*
X10280Y-105032D01*
X10256Y-104693D01*
X10248Y-104332D01*
X10256Y-103963D01*
X10279Y-103618D01*
X10318Y-103297D01*
X10373Y-102999D01*
X10442Y-102726D01*
X10528Y-102477D01*
X10629Y-102251D01*
X10745Y-102049D01*
X10879Y-101871D01*
X11030Y-101717D01*
X11200Y-101586D01*
X11387Y-101479D01*
X11592Y-101396D01*
X11816Y-101337D01*
X12057Y-101301D01*
X12317Y-101290D01*
X12570Y-101302D01*
X12805Y-101338D01*
X13024Y-101397D01*
X13225Y-101481D01*
X13409Y-101589D01*
X13576Y-101721D01*
X13726Y-101877D01*
X13859Y-102057D01*
X13976Y-102261D01*
X14077Y-102488D01*
X14162Y-102737D01*
X14232Y-103010D01*
X14286Y-103306D01*
X14325Y-103625D01*
X14348Y-103967D01*
X14356Y-104332D01*
X14348Y-104691D01*
X14324Y-105029D01*
X14283Y-105344D01*
X14226Y-105638D01*
X14152Y-105910D01*
X14062Y-106159D01*
X13956Y-106387D01*
X13834Y-106593D01*
X13695Y-106776D01*
X13542Y-106935D01*
X13372Y-107069D01*
X13187Y-107179D01*
X12987Y-107264D01*
X12770Y-107325D01*
X12539Y-107362D01*
X12292Y-107374D01*
G37*
%LPC*%
G36*
X12300Y-106757D02*
X12461Y-106748D01*
X12611Y-106720D01*
X12750Y-106673D01*
X12878Y-106608D01*
X12995Y-106524D01*
X13100Y-106422D01*
X13195Y-106301D01*
X13278Y-106161D01*
X13351Y-106002D01*
X13414Y-105823D01*
X13511Y-105406D01*
X13569Y-104909D01*
X13588Y-104332D01*
X13570Y-103736D01*
X13514Y-103228D01*
X13422Y-102809D01*
X13362Y-102632D01*
X13293Y-102477D01*
X13213Y-102342D01*
X13121Y-102226D01*
X13017Y-102127D01*
X12901Y-102046D01*
X12773Y-101983D01*
X12633Y-101938D01*
X12481Y-101911D01*
X12317Y-101902D01*
X12149Y-101911D01*
X11993Y-101938D01*
X11850Y-101982D01*
X11718Y-102044D01*
X11599Y-102123D01*
X11493Y-102221D01*
X11398Y-102336D01*
X11316Y-102469D01*
X11245Y-102622D01*
X11183Y-102798D01*
X11131Y-102996D01*
X11088Y-103218D01*
X11031Y-103729D01*
X11012Y-104332D01*
X11031Y-104919D01*
X11089Y-105422D01*
X11132Y-105641D01*
X11185Y-105840D01*
X11248Y-106017D01*
X11320Y-106174D01*
X11403Y-106311D01*
X11497Y-106429D01*
X11603Y-106529D01*
X11719Y-106611D01*
X11848Y-106675D01*
X11987Y-106721D01*
X12138Y-106748D01*
X12300Y-106757D01*
G37*
%LPD*%
G36*
X-23894Y-107290D02*
X-24695Y-107290D01*
X-24695Y-101378D01*
X-22207Y-101378D01*
X-21965Y-101385D01*
X-21738Y-101407D01*
X-21524Y-101443D01*
X-21325Y-101494D01*
X-21139Y-101560D01*
X-20968Y-101640D01*
X-20810Y-101734D01*
X-20667Y-101843D01*
X-20539Y-101966D01*
X-20428Y-102100D01*
X-20334Y-102246D01*
X-20258Y-102405D01*
X-20198Y-102575D01*
X-20155Y-102757D01*
X-20130Y-102951D01*
X-20121Y-103157D01*
X-20130Y-103361D01*
X-20155Y-103555D01*
X-20198Y-103738D01*
X-20258Y-103910D01*
X-20335Y-104071D01*
X-20429Y-104222D01*
X-20541Y-104362D01*
X-20669Y-104491D01*
X-20812Y-104607D01*
X-20967Y-104708D01*
X-21135Y-104793D01*
X-21315Y-104863D01*
X-21507Y-104917D01*
X-21711Y-104955D01*
X-21928Y-104979D01*
X-22156Y-104986D01*
X-23894Y-104986D01*
X-23894Y-107290D01*
G37*
%LPC*%
G36*
X-22270Y-104353D02*
X-21955Y-104334D01*
X-21682Y-104278D01*
X-21451Y-104186D01*
X-21263Y-104056D01*
X-21116Y-103889D01*
X-21011Y-103685D01*
X-20948Y-103444D01*
X-20927Y-103165D01*
X-20948Y-102897D01*
X-21013Y-102664D01*
X-21120Y-102467D01*
X-21271Y-102306D01*
X-21465Y-102181D01*
X-21701Y-102091D01*
X-21981Y-102038D01*
X-22303Y-102020D01*
X-23894Y-102020D01*
X-23894Y-104353D01*
X-22270Y-104353D01*
G37*
%LPD*%
G36*
X-9789Y-107290D02*
X-10746Y-107290D01*
X-12487Y-101378D01*
X-11652Y-101378D01*
X-10591Y-105133D01*
X-10409Y-105849D01*
X-10242Y-106585D01*
X-10009Y-105578D01*
X-9652Y-104255D01*
X-8845Y-101378D01*
X-8077Y-101378D01*
X-7049Y-105058D01*
X-6839Y-105891D01*
X-6680Y-106585D01*
X-6642Y-106438D01*
X-6457Y-105651D01*
X-5278Y-101378D01*
X-4443Y-101378D01*
X-6185Y-107290D01*
X-7141Y-107290D01*
X-8165Y-103534D01*
X-8289Y-103042D01*
X-8459Y-102271D01*
X-8644Y-103085D01*
X-9789Y-107290D01*
G37*
G36*
X7624Y-107374D02*
X7381Y-107362D01*
X7154Y-107328D01*
X6941Y-107270D01*
X6743Y-107188D01*
X6559Y-107084D01*
X6390Y-106956D01*
X6236Y-106805D01*
X6096Y-106631D01*
X5972Y-106435D01*
X5865Y-106218D01*
X5774Y-105979D01*
X5700Y-105720D01*
X5642Y-105439D01*
X5601Y-105137D01*
X5576Y-104814D01*
X5568Y-104470D01*
X5576Y-104097D01*
X5602Y-103747D01*
X5645Y-103419D01*
X5705Y-103113D01*
X5782Y-102829D01*
X5877Y-102568D01*
X5989Y-102329D01*
X6117Y-102112D01*
X6262Y-101919D01*
X6421Y-101752D01*
X6595Y-101611D01*
X6783Y-101495D01*
X6986Y-101405D01*
X7204Y-101341D01*
X7436Y-101302D01*
X7683Y-101290D01*
X8002Y-101308D01*
X8290Y-101365D01*
X8547Y-101459D01*
X8774Y-101591D01*
X8969Y-101760D01*
X9133Y-101967D01*
X9267Y-102212D01*
X9369Y-102494D01*
X8648Y-102624D01*
X8584Y-102455D01*
X8503Y-102308D01*
X8406Y-102184D01*
X8293Y-102083D01*
X8163Y-102004D01*
X8017Y-101947D01*
X7854Y-101913D01*
X7674Y-101902D01*
X7517Y-101912D01*
X7369Y-101940D01*
X7230Y-101987D01*
X7101Y-102053D01*
X6980Y-102137D01*
X6869Y-102241D01*
X6767Y-102363D01*
X6673Y-102504D01*
X6590Y-102663D01*
X6518Y-102839D01*
X6457Y-103032D01*
X6407Y-103241D01*
X6369Y-103468D01*
X6341Y-103711D01*
X6319Y-104248D01*
X6432Y-104068D01*
X6566Y-103912D01*
X6722Y-103778D01*
X6898Y-103667D01*
X7091Y-103579D01*
X7299Y-103517D01*
X7519Y-103480D01*
X7754Y-103467D01*
X7953Y-103475D01*
X8142Y-103499D01*
X8320Y-103539D01*
X8488Y-103595D01*
X8645Y-103667D01*
X8791Y-103755D01*
X8927Y-103859D01*
X9053Y-103979D01*
X9165Y-104113D01*
X9263Y-104257D01*
X9345Y-104413D01*
X9413Y-104579D01*
X9465Y-104757D01*
X9503Y-104945D01*
X9526Y-105145D01*
X9533Y-105356D01*
X9525Y-105583D01*
X9501Y-105799D01*
X9462Y-106002D01*
X9406Y-106193D01*
X9335Y-106371D01*
X9247Y-106537D01*
X9144Y-106691D01*
X9025Y-106833D01*
X8892Y-106960D01*
X8747Y-107069D01*
X8590Y-107163D01*
X8421Y-107239D01*
X8240Y-107298D01*
X8047Y-107340D01*
X7841Y-107365D01*
X7624Y-107374D01*
G37*
%LPC*%
G36*
X7599Y-106766D02*
X7857Y-106743D01*
X8085Y-106674D01*
X8285Y-106559D01*
X8455Y-106398D01*
X8590Y-106198D01*
X8688Y-105962D01*
X8746Y-105693D01*
X8765Y-105389D01*
X8745Y-105087D01*
X8686Y-104821D01*
X8588Y-104591D01*
X8450Y-104399D01*
X8278Y-104246D01*
X8074Y-104138D01*
X7839Y-104072D01*
X7573Y-104051D01*
X7322Y-104070D01*
X7096Y-104128D01*
X6895Y-104224D01*
X6719Y-104359D01*
X6577Y-104528D01*
X6476Y-104726D01*
X6415Y-104953D01*
X6394Y-105209D01*
X6415Y-105535D01*
X6479Y-105831D01*
X6584Y-106095D01*
X6732Y-106329D01*
X6913Y-106520D01*
X7118Y-106656D01*
X7346Y-106738D01*
X7469Y-106759D01*
X7599Y-106766D01*
G37*
%LPD*%
G36*
X-18263Y-107290D02*
X-18976Y-107290D01*
X-18976Y-101378D01*
X-17923Y-101378D01*
X-16350Y-105477D01*
X-16188Y-106008D01*
X-16085Y-106417D01*
X-15945Y-105907D01*
X-15800Y-105477D01*
X-14256Y-101378D01*
X-13228Y-101378D01*
X-13228Y-107290D01*
X-13949Y-107290D01*
X-13949Y-103346D01*
X-13940Y-102704D01*
X-13912Y-102087D01*
X-14107Y-102756D01*
X-14281Y-103262D01*
X-15808Y-107290D01*
X-16371Y-107290D01*
X-17919Y-103262D01*
X-18154Y-102548D01*
X-18292Y-102087D01*
X-18280Y-102553D01*
X-18263Y-103346D01*
X-18263Y-107290D01*
G37*
G36*
X-2004Y-107374D02*
X-2223Y-107368D01*
X-2430Y-107349D01*
X-2626Y-107317D01*
X-2811Y-107273D01*
X-2985Y-107216D01*
X-3147Y-107146D01*
X-3298Y-107064D01*
X-3437Y-106969D01*
X-3564Y-106862D01*
X-3677Y-106742D01*
X-3777Y-106611D01*
X-3863Y-106467D01*
X-3936Y-106311D01*
X-3995Y-106143D01*
X-4041Y-105963D01*
X-4073Y-105771D01*
X-3292Y-105700D01*
X-3239Y-105946D01*
X-3155Y-106159D01*
X-3040Y-106339D01*
X-2895Y-106486D01*
X-2718Y-106601D01*
X-2511Y-106683D01*
X-2273Y-106732D01*
X-2004Y-106749D01*
X-1734Y-106731D01*
X-1495Y-106678D01*
X-1286Y-106591D01*
X-1108Y-106468D01*
X-966Y-106310D01*
X-864Y-106118D01*
X-803Y-105892D01*
X-783Y-105633D01*
X-806Y-105405D01*
X-876Y-105203D01*
X-992Y-105028D01*
X-1154Y-104879D01*
X-1361Y-104761D01*
X-1608Y-104676D01*
X-1897Y-104626D01*
X-2226Y-104609D01*
X-2654Y-104609D01*
X-2654Y-103954D01*
X-2243Y-103954D01*
X-1950Y-103937D01*
X-1692Y-103886D01*
X-1469Y-103802D01*
X-1280Y-103683D01*
X-1131Y-103535D01*
X-1024Y-103361D01*
X-960Y-103161D01*
X-938Y-102934D01*
X-956Y-102710D01*
X-1008Y-102510D01*
X-1095Y-102335D01*
X-1217Y-102185D01*
X-1374Y-102065D01*
X-1564Y-101979D01*
X-1788Y-101928D01*
X-2046Y-101911D01*
X-2284Y-101927D01*
X-2498Y-101975D01*
X-2688Y-102055D01*
X-2854Y-102167D01*
X-2992Y-102308D01*
X-3098Y-102475D01*
X-3171Y-102668D01*
X-3213Y-102888D01*
X-3972Y-102830D01*
X-3944Y-102653D01*
X-3903Y-102486D01*
X-3848Y-102330D01*
X-3780Y-102183D01*
X-3697Y-102047D01*
X-3602Y-101920D01*
X-3493Y-101803D01*
X-3370Y-101697D01*
X-3092Y-101518D01*
X-2940Y-101449D01*
X-2778Y-101391D01*
X-2607Y-101347D01*
X-2426Y-101315D01*
X-2236Y-101296D01*
X-2038Y-101290D01*
X-1821Y-101296D01*
X-1618Y-101315D01*
X-1426Y-101348D01*
X-1247Y-101393D01*
X-1081Y-101451D01*
X-926Y-101522D01*
X-784Y-101606D01*
X-655Y-101703D01*
X-539Y-101811D01*
X-439Y-101930D01*
X-355Y-102059D01*
X-285Y-102197D01*
X-231Y-102347D01*
X-193Y-102506D01*
X-170Y-102675D01*
X-162Y-102855D01*
X-182Y-103125D01*
X-241Y-103368D01*
X-340Y-103585D01*
X-479Y-103776D01*
X-655Y-103939D01*
X-867Y-104073D01*
X-1116Y-104179D01*
X-1400Y-104256D01*
X-1400Y-104273D01*
X-1087Y-104328D01*
X-810Y-104420D01*
X-571Y-104550D01*
X-368Y-104718D01*
X-206Y-104917D01*
X-91Y-105139D01*
X-21Y-105387D01*
X2Y-105658D01*
X-6Y-105857D01*
X-31Y-106044D01*
X-71Y-106219D01*
X-128Y-106384D01*
X-202Y-106536D01*
X-291Y-106677D01*
X-397Y-106807D01*
X-519Y-106925D01*
X-656Y-107030D01*
X-807Y-107121D01*
X-971Y-107199D01*
X-1150Y-107262D01*
X-1343Y-107311D01*
X-1549Y-107346D01*
X-1770Y-107367D01*
X-2004Y-107374D01*
G37*
G36*
X2746Y-107374D02*
X2527Y-107368D01*
X2320Y-107349D01*
X2124Y-107317D01*
X1939Y-107273D01*
X1765Y-107216D01*
X1603Y-107146D01*
X1452Y-107064D01*
X1313Y-106969D01*
X1186Y-106862D01*
X1073Y-106742D01*
X973Y-106611D01*
X887Y-106467D01*
X814Y-106311D01*
X755Y-106143D01*
X709Y-105963D01*
X677Y-105771D01*
X1458Y-105700D01*
X1511Y-105946D01*
X1595Y-106159D01*
X1710Y-106339D01*
X1855Y-106486D01*
X2032Y-106601D01*
X2239Y-106683D01*
X2477Y-106732D01*
X2746Y-106749D01*
X3016Y-106731D01*
X3255Y-106678D01*
X3464Y-106591D01*
X3642Y-106468D01*
X3784Y-106310D01*
X3886Y-106118D01*
X3947Y-105892D01*
X3967Y-105633D01*
X3944Y-105405D01*
X3874Y-105203D01*
X3758Y-105028D01*
X3596Y-104879D01*
X3389Y-104761D01*
X3142Y-104676D01*
X2853Y-104626D01*
X2524Y-104609D01*
X2096Y-104609D01*
X2096Y-103954D01*
X2507Y-103954D01*
X2800Y-103937D01*
X3058Y-103886D01*
X3281Y-103802D01*
X3470Y-103683D01*
X3619Y-103535D01*
X3726Y-103361D01*
X3790Y-103161D01*
X3812Y-102934D01*
X3794Y-102710D01*
X3742Y-102510D01*
X3655Y-102335D01*
X3533Y-102185D01*
X3376Y-102065D01*
X3186Y-101979D01*
X2962Y-101928D01*
X2704Y-101911D01*
X2466Y-101927D01*
X2252Y-101975D01*
X2062Y-102055D01*
X1896Y-102167D01*
X1758Y-102308D01*
X1652Y-102475D01*
X1579Y-102668D01*
X1538Y-102888D01*
X778Y-102830D01*
X806Y-102653D01*
X847Y-102486D01*
X902Y-102330D01*
X971Y-102183D01*
X1053Y-102047D01*
X1148Y-101920D01*
X1257Y-101803D01*
X1380Y-101697D01*
X1658Y-101518D01*
X1810Y-101449D01*
X1972Y-101391D01*
X2144Y-101347D01*
X2324Y-101315D01*
X2514Y-101296D01*
X2712Y-101290D01*
X2929Y-101296D01*
X3132Y-101315D01*
X3324Y-101348D01*
X3503Y-101393D01*
X3670Y-101451D01*
X3824Y-101522D01*
X3966Y-101606D01*
X4095Y-101703D01*
X4211Y-101811D01*
X4311Y-101930D01*
X4396Y-102059D01*
X4465Y-102197D01*
X4519Y-102347D01*
X4557Y-102506D01*
X4580Y-102675D01*
X4588Y-102855D01*
X4568Y-103125D01*
X4509Y-103368D01*
X4410Y-103585D01*
X4271Y-103776D01*
X4095Y-103939D01*
X3883Y-104073D01*
X3634Y-104179D01*
X3350Y-104256D01*
X3350Y-104273D01*
X3663Y-104328D01*
X3940Y-104420D01*
X4180Y-104550D01*
X4383Y-104718D01*
X4544Y-104917D01*
X4659Y-105139D01*
X4729Y-105387D01*
X4752Y-105658D01*
X4744Y-105857D01*
X4719Y-106044D01*
X4679Y-106219D01*
X4622Y-106384D01*
X4549Y-106536D01*
X4459Y-106677D01*
X4353Y-106807D01*
X4231Y-106925D01*
X4094Y-107030D01*
X3943Y-107121D01*
X3779Y-107199D01*
X3600Y-107262D01*
X3407Y-107311D01*
X3201Y-107346D01*
X2980Y-107367D01*
X2746Y-107374D01*
G37*
G36*
X-69039Y-83304D02*
X-70352Y-81044D01*
X-71719Y-83287D01*
X-72761Y-82656D01*
X-71106Y-80484D01*
X-73558Y-79845D01*
X-73164Y-78671D01*
X-70825Y-79608D01*
X-70930Y-77007D01*
X-69739Y-77007D01*
X-69853Y-79591D01*
X-67541Y-78688D01*
X-67147Y-79845D01*
X-69617Y-80484D01*
X-67996Y-82674D01*
X-69039Y-83304D01*
G37*
G36*
X-68468Y-140668D02*
X-69650Y-140668D01*
X-66648Y-136569D01*
X-69420Y-132778D01*
X-68239Y-132778D01*
X-66043Y-135874D01*
X-63910Y-132778D01*
X-62728Y-132778D01*
X-65427Y-136530D01*
X-62499Y-140668D01*
X-63680Y-140668D01*
X-66049Y-137218D01*
X-68468Y-140668D01*
G37*
G36*
X-56464Y-140668D02*
X-61409Y-140668D01*
X-61409Y-139811D01*
X-59398Y-139811D01*
X-59398Y-133741D01*
X-61179Y-135012D01*
X-61179Y-134060D01*
X-59314Y-132778D01*
X-58385Y-132778D01*
X-58385Y-139811D01*
X-56464Y-139811D01*
X-56464Y-140668D01*
G37*
G36*
X60641Y35900D02*
X59840Y35900D01*
X59840Y41812D01*
X62622Y41812D01*
X62864Y41805D01*
X63093Y41784D01*
X63307Y41750D01*
X63507Y41701D01*
X63692Y41638D01*
X63864Y41561D01*
X64021Y41470D01*
X64164Y41366D01*
X64291Y41248D01*
X64402Y41120D01*
X64495Y40981D01*
X64571Y40831D01*
X64631Y40670D01*
X64673Y40498D01*
X64699Y40315D01*
X64707Y40121D01*
X64683Y39805D01*
X64611Y39515D01*
X64491Y39251D01*
X64323Y39014D01*
X64113Y38810D01*
X63941Y38697D01*
X63866Y38647D01*
X63583Y38527D01*
X63264Y38447D01*
X63978Y37363D01*
X64942Y35900D01*
X64019Y35900D01*
X62483Y38355D01*
X60641Y38355D01*
X60641Y35900D01*
G37*
%LPC*%
G36*
X62576Y38988D02*
X62874Y39007D01*
X63137Y39062D01*
X63364Y39155D01*
X63555Y39284D01*
X63707Y39447D01*
X63815Y39639D01*
X63880Y39861D01*
X63902Y40113D01*
X63880Y40356D01*
X63814Y40568D01*
X63704Y40749D01*
X63551Y40900D01*
X63357Y41018D01*
X63124Y41103D01*
X62852Y41153D01*
X62542Y41170D01*
X60641Y41170D01*
X60641Y38988D01*
X62576Y38988D01*
G37*
%LPD*%
G36*
X69669Y35900D02*
X65754Y35900D01*
X65754Y36433D01*
X65867Y36671D01*
X65992Y36895D01*
X66128Y37104D01*
X66277Y37299D01*
X66593Y37657D01*
X66925Y37979D01*
X67599Y38544D01*
X67916Y38804D01*
X68201Y39064D01*
X68444Y39330D01*
X68635Y39609D01*
X68708Y39757D01*
X68759Y39914D01*
X68790Y40080D01*
X68801Y40256D01*
X68783Y40485D01*
X68729Y40688D01*
X68640Y40863D01*
X68515Y41011D01*
X68359Y41128D01*
X68175Y41212D01*
X67962Y41263D01*
X67722Y41279D01*
X67492Y41263D01*
X67282Y41214D01*
X67094Y41132D01*
X66927Y41017D01*
X66787Y40873D01*
X66679Y40702D01*
X66603Y40505D01*
X66560Y40281D01*
X65788Y40352D01*
X65816Y40525D01*
X65857Y40689D01*
X65912Y40843D01*
X65980Y40989D01*
X66062Y41125D01*
X66158Y41253D01*
X66390Y41481D01*
X66668Y41664D01*
X66820Y41737D01*
X66982Y41796D01*
X67153Y41842D01*
X67334Y41874D01*
X67523Y41894D01*
X67722Y41901D01*
X67939Y41894D01*
X68143Y41874D01*
X68335Y41841D01*
X68513Y41795D01*
X68678Y41736D01*
X68831Y41663D01*
X68970Y41578D01*
X69097Y41479D01*
X69209Y41368D01*
X69307Y41246D01*
X69389Y41113D01*
X69457Y40968D01*
X69510Y40813D01*
X69547Y40647D01*
X69570Y40469D01*
X69577Y40281D01*
X69567Y40109D01*
X69538Y39938D01*
X69489Y39767D01*
X69420Y39597D01*
X69331Y39427D01*
X69224Y39257D01*
X68952Y38917D01*
X68500Y38484D01*
X67764Y37864D01*
X67331Y37489D01*
X66996Y37153D01*
X66751Y36842D01*
X66658Y36690D01*
X66585Y36542D01*
X69669Y36542D01*
X69669Y35900D01*
G37*
G36*
X-70633Y-114958D02*
X-71434Y-114958D01*
X-71434Y-109046D01*
X-68652Y-109046D01*
X-68410Y-109053D01*
X-68181Y-109074D01*
X-67967Y-109108D01*
X-67767Y-109157D01*
X-67582Y-109220D01*
X-67410Y-109297D01*
X-67253Y-109388D01*
X-67110Y-109493D01*
X-66983Y-109610D01*
X-66873Y-109738D01*
X-66779Y-109877D01*
X-66703Y-110027D01*
X-66643Y-110188D01*
X-66601Y-110360D01*
X-66575Y-110543D01*
X-66567Y-110737D01*
X-66591Y-111053D01*
X-66663Y-111343D01*
X-66783Y-111607D01*
X-66951Y-111844D01*
X-67161Y-112048D01*
X-67333Y-112161D01*
X-67408Y-112211D01*
X-67691Y-112331D01*
X-68010Y-112411D01*
X-67296Y-113495D01*
X-66332Y-114958D01*
X-67255Y-114958D01*
X-68791Y-112503D01*
X-70633Y-112503D01*
X-70633Y-114958D01*
G37*
%LPC*%
G36*
X-68699Y-111870D02*
X-68400Y-111851D01*
X-68137Y-111796D01*
X-67910Y-111703D01*
X-67719Y-111574D01*
X-67567Y-111411D01*
X-67459Y-111219D01*
X-67394Y-110997D01*
X-67373Y-110745D01*
X-67394Y-110502D01*
X-67460Y-110290D01*
X-67570Y-110109D01*
X-67723Y-109958D01*
X-67917Y-109840D01*
X-68150Y-109755D01*
X-68422Y-109705D01*
X-68732Y-109688D01*
X-70633Y-109688D01*
X-70633Y-111870D01*
X-68699Y-111870D01*
G37*
%LPD*%
G36*
X-63556Y-115042D02*
X-63775Y-115036D01*
X-63982Y-115017D01*
X-64178Y-114985D01*
X-64363Y-114941D01*
X-64537Y-114884D01*
X-64699Y-114814D01*
X-64849Y-114732D01*
X-64989Y-114637D01*
X-65116Y-114530D01*
X-65229Y-114410D01*
X-65329Y-114279D01*
X-65415Y-114135D01*
X-65488Y-113979D01*
X-65547Y-113811D01*
X-65593Y-113631D01*
X-65625Y-113439D01*
X-64844Y-113368D01*
X-64791Y-113614D01*
X-64707Y-113827D01*
X-64592Y-114007D01*
X-64447Y-114154D01*
X-64270Y-114269D01*
X-64063Y-114351D01*
X-63825Y-114400D01*
X-63556Y-114417D01*
X-63286Y-114399D01*
X-63047Y-114346D01*
X-62838Y-114259D01*
X-62660Y-114136D01*
X-62518Y-113978D01*
X-62416Y-113786D01*
X-62355Y-113560D01*
X-62335Y-113301D01*
X-62358Y-113073D01*
X-62428Y-112871D01*
X-62544Y-112696D01*
X-62706Y-112547D01*
X-62912Y-112429D01*
X-63160Y-112344D01*
X-63448Y-112294D01*
X-63778Y-112277D01*
X-64206Y-112277D01*
X-64206Y-111622D01*
X-63795Y-111622D01*
X-63502Y-111605D01*
X-63244Y-111554D01*
X-63020Y-111470D01*
X-62832Y-111351D01*
X-62682Y-111203D01*
X-62576Y-111029D01*
X-62511Y-110829D01*
X-62490Y-110602D01*
X-62507Y-110378D01*
X-62560Y-110178D01*
X-62647Y-110003D01*
X-62769Y-109853D01*
X-62926Y-109733D01*
X-63116Y-109647D01*
X-63340Y-109596D01*
X-63598Y-109579D01*
X-63836Y-109595D01*
X-64049Y-109643D01*
X-64239Y-109723D01*
X-64406Y-109835D01*
X-64544Y-109976D01*
X-64649Y-110143D01*
X-64723Y-110336D01*
X-64764Y-110556D01*
X-65524Y-110498D01*
X-65496Y-110321D01*
X-65455Y-110154D01*
X-65400Y-109998D01*
X-65331Y-109851D01*
X-65249Y-109715D01*
X-65154Y-109588D01*
X-65044Y-109471D01*
X-64922Y-109365D01*
X-64644Y-109186D01*
X-64491Y-109117D01*
X-64330Y-109059D01*
X-64158Y-109015D01*
X-63978Y-108983D01*
X-63788Y-108964D01*
X-63589Y-108958D01*
X-63373Y-108964D01*
X-63169Y-108983D01*
X-62978Y-109016D01*
X-62799Y-109061D01*
X-62632Y-109119D01*
X-62478Y-109190D01*
X-62336Y-109274D01*
X-62207Y-109371D01*
X-62091Y-109479D01*
X-61991Y-109598D01*
X-61906Y-109727D01*
X-61837Y-109865D01*
X-61783Y-110015D01*
X-61745Y-110174D01*
X-61721Y-110343D01*
X-61714Y-110523D01*
X-61734Y-110793D01*
X-61793Y-111036D01*
X-61892Y-111253D01*
X-62031Y-111444D01*
X-62207Y-111607D01*
X-62419Y-111741D01*
X-62667Y-111847D01*
X-62952Y-111924D01*
X-62952Y-111941D01*
X-62638Y-111996D01*
X-62362Y-112088D01*
X-62122Y-112218D01*
X-61919Y-112386D01*
X-61758Y-112585D01*
X-61642Y-112807D01*
X-61573Y-113055D01*
X-61550Y-113326D01*
X-61558Y-113525D01*
X-61583Y-113712D01*
X-61623Y-113887D01*
X-61680Y-114052D01*
X-61753Y-114204D01*
X-61843Y-114345D01*
X-61948Y-114475D01*
X-62070Y-114593D01*
X-62207Y-114698D01*
X-62358Y-114789D01*
X-62523Y-114867D01*
X-62702Y-114930D01*
X-62895Y-114979D01*
X-63101Y-115014D01*
X-63322Y-115035D01*
X-63556Y-115042D01*
G37*
G36*
X75555Y-3750D02*
X75226Y-3732D01*
X74931Y-3677D01*
X74671Y-3586D01*
X74445Y-3458D01*
X74251Y-3290D01*
X74086Y-3077D01*
X73952Y-2819D01*
X73847Y-2516D01*
X74568Y-2403D01*
X74634Y-2576D01*
X74716Y-2726D01*
X74815Y-2853D01*
X74931Y-2957D01*
X75065Y-3038D01*
X75215Y-3095D01*
X75383Y-3130D01*
X75567Y-3142D01*
X75725Y-3132D01*
X75874Y-3104D01*
X76014Y-3057D01*
X76144Y-2990D01*
X76265Y-2905D01*
X76377Y-2802D01*
X76480Y-2679D01*
X76574Y-2537D01*
X76658Y-2378D01*
X76731Y-2203D01*
X76794Y-2011D01*
X76846Y-1804D01*
X76918Y-1341D01*
X76948Y-813D01*
X76849Y-992D01*
X76720Y-1153D01*
X76561Y-1295D01*
X76373Y-1419D01*
X76164Y-1519D01*
X75946Y-1591D01*
X75717Y-1633D01*
X75479Y-1648D01*
X75285Y-1639D01*
X75100Y-1614D01*
X74926Y-1571D01*
X74761Y-1511D01*
X74607Y-1435D01*
X74462Y-1341D01*
X74328Y-1230D01*
X74203Y-1102D01*
X74091Y-960D01*
X73994Y-807D01*
X73912Y-643D01*
X73845Y-468D01*
X73792Y-281D01*
X73755Y-83D01*
X73732Y126D01*
X73725Y346D01*
X73733Y571D01*
X73758Y784D01*
X73798Y985D01*
X73855Y1174D01*
X73928Y1350D01*
X74018Y1514D01*
X74123Y1665D01*
X74245Y1804D01*
X74382Y1928D01*
X74531Y2036D01*
X74693Y2127D01*
X74867Y2202D01*
X75055Y2260D01*
X75255Y2301D01*
X75468Y2326D01*
X75693Y2335D01*
X75932Y2323D01*
X76156Y2289D01*
X76365Y2232D01*
X76559Y2152D01*
X76739Y2049D01*
X76903Y1924D01*
X77052Y1776D01*
X77187Y1604D01*
X77306Y1410D01*
X77409Y1193D01*
X77496Y954D01*
X77568Y691D01*
X77623Y405D01*
X77663Y96D01*
X77687Y-236D01*
X77695Y-590D01*
X77686Y-960D01*
X77660Y-1308D01*
X77616Y-1634D01*
X77556Y-1937D01*
X77477Y-2219D01*
X77382Y-2479D01*
X77269Y-2716D01*
X77139Y-2932D01*
X76992Y-3123D01*
X76831Y-3290D01*
X76655Y-3430D01*
X76465Y-3545D01*
X76259Y-3635D01*
X76039Y-3699D01*
X75804Y-3737D01*
X75555Y-3750D01*
G37*
%LPC*%
G36*
X75659Y-1052D02*
X75820Y-1043D01*
X75975Y-1015D01*
X76124Y-968D01*
X76268Y-903D01*
X76401Y-821D01*
X76519Y-723D01*
X76622Y-610D01*
X76711Y-481D01*
X76781Y-340D01*
X76832Y-190D01*
X76862Y-30D01*
X76872Y140D01*
X76852Y479D01*
X76790Y784D01*
X76688Y1053D01*
X76545Y1288D01*
X76367Y1478D01*
X76162Y1613D01*
X76049Y1661D01*
X75929Y1695D01*
X75802Y1715D01*
X75668Y1722D01*
X75409Y1699D01*
X75180Y1629D01*
X74979Y1513D01*
X74808Y1351D01*
X74670Y1148D01*
X74572Y914D01*
X74513Y646D01*
X74493Y346D01*
X74513Y39D01*
X74572Y-233D01*
X74670Y-472D01*
X74808Y-676D01*
X74979Y-841D01*
X75178Y-958D01*
X75405Y-1028D01*
X75659Y-1052D01*
G37*
%LPD*%
G36*
X70454Y-3750D02*
X70022Y-3727D01*
X69620Y-3657D01*
X69249Y-3541D01*
X68908Y-3379D01*
X68601Y-3173D01*
X68333Y-2928D01*
X68103Y-2642D01*
X67913Y-2317D01*
X67763Y-1956D01*
X67657Y-1563D01*
X67592Y-1139D01*
X67571Y-683D01*
X67583Y-339D01*
X67619Y-14D01*
X67678Y292D01*
X67762Y578D01*
X67869Y846D01*
X68001Y1094D01*
X68156Y1323D01*
X68335Y1533D01*
X68535Y1721D01*
X68753Y1884D01*
X68990Y2021D01*
X69245Y2134D01*
X69519Y2222D01*
X69811Y2284D01*
X70121Y2322D01*
X70450Y2335D01*
X70902Y2311D01*
X71316Y2242D01*
X71691Y2127D01*
X72027Y1965D01*
X72323Y1758D01*
X72577Y1507D01*
X72789Y1211D01*
X72959Y870D01*
X72199Y618D01*
X72081Y861D01*
X71931Y1074D01*
X71751Y1256D01*
X71539Y1407D01*
X71300Y1526D01*
X71041Y1612D01*
X70760Y1663D01*
X70458Y1680D01*
X70219Y1670D01*
X69994Y1640D01*
X69783Y1591D01*
X69585Y1522D01*
X69401Y1433D01*
X69231Y1325D01*
X69074Y1196D01*
X68931Y1048D01*
X68803Y883D01*
X68692Y703D01*
X68598Y509D01*
X68521Y300D01*
X68462Y76D01*
X68419Y-162D01*
X68394Y-415D01*
X68385Y-683D01*
X68394Y-948D01*
X68421Y-1199D01*
X68465Y-1438D01*
X68527Y-1663D01*
X68607Y-1875D01*
X68705Y-2073D01*
X68820Y-2258D01*
X68954Y-2430D01*
X69102Y-2585D01*
X69263Y-2719D01*
X69436Y-2833D01*
X69622Y-2926D01*
X69821Y-2998D01*
X70032Y-3050D01*
X70256Y-3081D01*
X70492Y-3091D01*
X70792Y-3072D01*
X71074Y-3014D01*
X71336Y-2918D01*
X71579Y-2784D01*
X71803Y-2611D01*
X72008Y-2400D01*
X72193Y-2150D01*
X72359Y-1862D01*
X73013Y-2189D01*
X72812Y-2548D01*
X72574Y-2861D01*
X72299Y-3129D01*
X71988Y-3351D01*
X71644Y-3526D01*
X71274Y-3650D01*
X70877Y-3725D01*
X70669Y-3744D01*
X70454Y-3750D01*
G37*
G36*
X63927Y18820D02*
X63680Y18832D01*
X63449Y18869D01*
X63234Y18929D01*
X63035Y19014D01*
X62851Y19123D01*
X62683Y19257D01*
X62532Y19414D01*
X62396Y19596D01*
X62276Y19802D01*
X62172Y20029D01*
X62084Y20279D01*
X62012Y20551D01*
X61956Y20845D01*
X61916Y21162D01*
X61892Y21501D01*
X61884Y21862D01*
X61892Y22231D01*
X61915Y22576D01*
X61954Y22897D01*
X62008Y23195D01*
X62078Y23468D01*
X62164Y23718D01*
X62265Y23943D01*
X62381Y24145D01*
X62514Y24323D01*
X62666Y24477D01*
X62835Y24608D01*
X63023Y24715D01*
X63228Y24798D01*
X63451Y24857D01*
X63693Y24893D01*
X63953Y24905D01*
X64205Y24893D01*
X64441Y24857D01*
X64659Y24797D01*
X64860Y24713D01*
X65045Y24605D01*
X65212Y24473D01*
X65362Y24317D01*
X65495Y24137D01*
X65611Y23933D01*
X65712Y23707D01*
X65798Y23457D01*
X65868Y23184D01*
X65922Y22888D01*
X65961Y22569D01*
X65984Y22227D01*
X65992Y21862D01*
X65984Y21503D01*
X65959Y21165D01*
X65918Y20850D01*
X65861Y20556D01*
X65788Y20284D01*
X65698Y20035D01*
X65592Y19807D01*
X65469Y19601D01*
X65331Y19418D01*
X65177Y19259D01*
X65008Y19125D01*
X64823Y19015D01*
X64622Y18930D01*
X64406Y18869D01*
X64174Y18832D01*
X63927Y18820D01*
G37*
%LPC*%
G36*
X63936Y19437D02*
X64097Y19446D01*
X64247Y19474D01*
X64386Y19521D01*
X64514Y19586D01*
X64630Y19670D01*
X64736Y19772D01*
X64830Y19893D01*
X64913Y20033D01*
X64986Y20192D01*
X65049Y20371D01*
X65146Y20788D01*
X65205Y21285D01*
X65224Y21862D01*
X65205Y22458D01*
X65150Y22966D01*
X65058Y23386D01*
X64997Y23562D01*
X64928Y23717D01*
X64848Y23852D01*
X64756Y23969D01*
X64652Y24067D01*
X64536Y24148D01*
X64408Y24211D01*
X64268Y24256D01*
X64116Y24283D01*
X63953Y24292D01*
X63785Y24283D01*
X63629Y24256D01*
X63485Y24212D01*
X63354Y24150D01*
X63235Y24071D01*
X63128Y23973D01*
X63034Y23858D01*
X62952Y23725D01*
X62880Y23572D01*
X62819Y23397D01*
X62766Y23198D01*
X62724Y22976D01*
X62667Y22465D01*
X62648Y21862D01*
X62667Y21275D01*
X62725Y20772D01*
X62768Y20553D01*
X62821Y20354D01*
X62884Y20177D01*
X62956Y20020D01*
X63039Y19883D01*
X63133Y19765D01*
X63238Y19665D01*
X63355Y19583D01*
X63483Y19519D01*
X63623Y19473D01*
X63774Y19446D01*
X63936Y19437D01*
G37*
%LPD*%
G36*
X53899Y18820D02*
X53467Y18843D01*
X53065Y18913D01*
X52694Y19029D01*
X52352Y19191D01*
X52045Y19397D01*
X51777Y19643D01*
X51548Y19928D01*
X51358Y20253D01*
X51208Y20614D01*
X51101Y21007D01*
X51037Y21431D01*
X51016Y21887D01*
X51028Y22231D01*
X51064Y22556D01*
X51123Y22862D01*
X51207Y23148D01*
X51314Y23416D01*
X51445Y23664D01*
X51600Y23893D01*
X51779Y24103D01*
X51980Y24291D01*
X52198Y24454D01*
X52435Y24591D01*
X52690Y24704D01*
X52964Y24792D01*
X53255Y24854D01*
X53566Y24892D01*
X53894Y24905D01*
X54347Y24881D01*
X54761Y24812D01*
X55136Y24697D01*
X55472Y24535D01*
X55768Y24328D01*
X56022Y24077D01*
X56234Y23781D01*
X56404Y23440D01*
X55644Y23188D01*
X55526Y23431D01*
X55376Y23644D01*
X55195Y23826D01*
X54983Y23977D01*
X54745Y24096D01*
X54485Y24182D01*
X54205Y24233D01*
X53903Y24250D01*
X53664Y24240D01*
X53439Y24210D01*
X53228Y24161D01*
X53030Y24092D01*
X52846Y24003D01*
X52675Y23895D01*
X52519Y23766D01*
X52375Y23618D01*
X52247Y23453D01*
X52137Y23273D01*
X52043Y23079D01*
X51966Y22870D01*
X51907Y22646D01*
X51864Y22408D01*
X51838Y22155D01*
X51830Y21887D01*
X51839Y21622D01*
X51865Y21371D01*
X51910Y21132D01*
X51972Y20907D01*
X52052Y20695D01*
X52150Y20497D01*
X52265Y20312D01*
X52398Y20140D01*
X52547Y19985D01*
X52708Y19851D01*
X52881Y19737D01*
X53067Y19644D01*
X53266Y19572D01*
X53477Y19520D01*
X53700Y19489D01*
X53936Y19479D01*
X54237Y19498D01*
X54519Y19556D01*
X54781Y19652D01*
X55024Y19786D01*
X55248Y19959D01*
X55452Y20170D01*
X55638Y20420D01*
X55804Y20708D01*
X56458Y20381D01*
X56257Y20022D01*
X56019Y19709D01*
X55744Y19441D01*
X55432Y19219D01*
X55089Y19044D01*
X54718Y18920D01*
X54322Y18845D01*
X54113Y18826D01*
X53899Y18820D01*
G37*
G36*
X61127Y18904D02*
X57421Y18904D01*
X57421Y19546D01*
X58928Y19546D01*
X58928Y24095D01*
X57594Y23142D01*
X57594Y23855D01*
X58991Y24816D01*
X59687Y24816D01*
X59687Y19546D01*
X61127Y19546D01*
X61127Y18904D01*
G37*
G36*
X64178Y-36827D02*
X63376Y-36827D01*
X63376Y-30915D01*
X66158Y-30915D01*
X66401Y-30922D01*
X66629Y-30943D01*
X66843Y-30978D01*
X67043Y-31027D01*
X67229Y-31089D01*
X67400Y-31166D01*
X67557Y-31257D01*
X67700Y-31362D01*
X67828Y-31479D01*
X67938Y-31607D01*
X68032Y-31746D01*
X68108Y-31896D01*
X68167Y-32057D01*
X68210Y-32229D01*
X68235Y-32412D01*
X68244Y-32606D01*
X68220Y-32922D01*
X68148Y-33212D01*
X68028Y-33476D01*
X67860Y-33714D01*
X67650Y-33917D01*
X67478Y-34031D01*
X67403Y-34080D01*
X67120Y-34201D01*
X66800Y-34280D01*
X67515Y-35364D01*
X68479Y-36827D01*
X67556Y-36827D01*
X66020Y-34372D01*
X64178Y-34372D01*
X64178Y-36827D01*
G37*
%LPC*%
G36*
X66112Y-33739D02*
X66411Y-33720D01*
X66674Y-33665D01*
X66901Y-33572D01*
X67092Y-33443D01*
X67243Y-33280D01*
X67352Y-33088D01*
X67417Y-32866D01*
X67438Y-32614D01*
X67416Y-32372D01*
X67351Y-32160D01*
X67241Y-31978D01*
X67088Y-31827D01*
X66893Y-31709D01*
X66660Y-31624D01*
X66389Y-31574D01*
X66079Y-31557D01*
X64178Y-31557D01*
X64178Y-33739D01*
X66112Y-33739D01*
G37*
%LPD*%
G36*
X72556Y-36827D02*
X71842Y-36827D01*
X71842Y-35489D01*
X69056Y-35489D01*
X69056Y-34901D01*
X71763Y-30915D01*
X72556Y-30915D01*
X72556Y-34893D01*
X73386Y-34893D01*
X73386Y-35489D01*
X72556Y-35489D01*
X72556Y-36827D01*
G37*
%LPC*%
G36*
X71842Y-34893D02*
X71842Y-31767D01*
X71725Y-31989D01*
X71561Y-32266D01*
X70046Y-34498D01*
X69820Y-34809D01*
X69753Y-34893D01*
X71842Y-34893D01*
G37*
%LPD*%
D10*
X-48260Y119060D02*
X-48260Y140650D01*
X-50800Y134300D01*
X-45720Y134300D02*
X-48260Y140650D01*
X-48260Y119060D02*
X-69850Y119060D01*
X-63500Y121600D01*
X-63500Y116520D02*
X-69850Y119060D01*
X-50800Y121600D02*
X-45720Y116520D01*
X-45720Y121600D02*
X-50800Y116520D01*
D11*
X122700Y-57394D02*
X122700Y-70094D01*
X116350Y-76444D01*
X103650Y-76444D02*
X97300Y-70094D01*
X122700Y-31994D02*
X116350Y-25644D01*
X122700Y-31994D02*
X122700Y-44694D01*
X116350Y-51044D01*
X103650Y-51044D02*
X97300Y-44694D01*
X97300Y-31994D01*
X103650Y-25644D01*
X116350Y-51044D02*
X122700Y-57394D01*
X103650Y-51044D02*
X97300Y-57394D01*
X97300Y-70094D01*
X122700Y6106D02*
X122700Y18806D01*
X122700Y6106D02*
X116350Y-244D01*
X103650Y-244D02*
X97300Y6106D01*
X116350Y-244D02*
X122700Y-6594D01*
X122700Y-19294D01*
X116350Y-25644D01*
X103650Y-25644D02*
X97300Y-19294D01*
X97300Y-6594D01*
X103650Y-244D01*
X122700Y44206D02*
X116350Y50556D01*
X122700Y44206D02*
X122700Y31506D01*
X116350Y25156D01*
X103650Y25156D02*
X97300Y31506D01*
X97300Y44206D01*
X103650Y50556D01*
X116350Y25156D02*
X122700Y18806D01*
X103650Y25156D02*
X97300Y18806D01*
X97300Y6106D01*
X122700Y82306D02*
X122700Y95006D01*
X122700Y82306D02*
X116350Y75956D01*
X103650Y75956D02*
X97300Y82306D01*
X116350Y75956D02*
X122700Y69606D01*
X122700Y56906D01*
X116350Y50556D01*
X103650Y50556D02*
X97300Y56906D01*
X97300Y69606D01*
X103650Y75956D01*
X103650Y101356D02*
X116350Y101356D01*
X122700Y95006D01*
X103650Y101356D02*
X97300Y95006D01*
X97300Y82306D01*
X122700Y-82794D02*
X122700Y-95494D01*
X116350Y-101844D01*
X103650Y-101844D01*
X97300Y-95494D01*
X116350Y-76444D02*
X122700Y-82794D01*
X103650Y-76444D02*
X97300Y-82794D01*
X97300Y-95494D01*
D12*
X124605Y95092D02*
X128359Y95092D01*
X128359Y95091D02*
X128424Y95089D01*
X128488Y95083D01*
X128552Y95073D01*
X128616Y95060D01*
X128678Y95042D01*
X128739Y95021D01*
X128799Y94997D01*
X128857Y94968D01*
X128914Y94936D01*
X128968Y94901D01*
X129020Y94863D01*
X129070Y94821D01*
X129117Y94777D01*
X129161Y94730D01*
X129203Y94680D01*
X129241Y94628D01*
X129276Y94574D01*
X129308Y94517D01*
X129337Y94459D01*
X129361Y94399D01*
X129382Y94338D01*
X129400Y94276D01*
X129413Y94212D01*
X129423Y94148D01*
X129429Y94084D01*
X129431Y94019D01*
X129431Y93483D01*
X125677Y98040D02*
X124605Y99380D01*
X129431Y99380D01*
X129431Y98040D02*
X129431Y100721D01*
D11*
X-69596Y56642D02*
X-69594Y56761D01*
X-69588Y56880D01*
X-69578Y56998D01*
X-69564Y57116D01*
X-69546Y57233D01*
X-69525Y57350D01*
X-69499Y57466D01*
X-69470Y57581D01*
X-69436Y57696D01*
X-69399Y57808D01*
X-69358Y57920D01*
X-69314Y58030D01*
X-69266Y58139D01*
X-69214Y58246D01*
X-69158Y58351D01*
X-69100Y58454D01*
X-69037Y58555D01*
X-68972Y58655D01*
X-68903Y58751D01*
X-68831Y58846D01*
X-68756Y58938D01*
X-68677Y59027D01*
X-68596Y59114D01*
X-68512Y59198D01*
X-68425Y59279D01*
X-68336Y59358D01*
X-68244Y59433D01*
X-68149Y59505D01*
X-68053Y59574D01*
X-67953Y59639D01*
X-67852Y59702D01*
X-67749Y59760D01*
X-67644Y59816D01*
X-67537Y59868D01*
X-67428Y59916D01*
X-67318Y59960D01*
X-67206Y60001D01*
X-67094Y60038D01*
X-66979Y60072D01*
X-66864Y60101D01*
X-66748Y60127D01*
X-66631Y60148D01*
X-66514Y60166D01*
X-66396Y60180D01*
X-66278Y60190D01*
X-66159Y60196D01*
X-66040Y60198D01*
X-65921Y60196D01*
X-65802Y60190D01*
X-65684Y60180D01*
X-65566Y60166D01*
X-65449Y60148D01*
X-65332Y60127D01*
X-65216Y60101D01*
X-65101Y60072D01*
X-64986Y60038D01*
X-64874Y60001D01*
X-64762Y59960D01*
X-64652Y59916D01*
X-64543Y59868D01*
X-64436Y59816D01*
X-64331Y59760D01*
X-64228Y59702D01*
X-64127Y59639D01*
X-64027Y59574D01*
X-63931Y59505D01*
X-63836Y59433D01*
X-63744Y59358D01*
X-63655Y59279D01*
X-63568Y59198D01*
X-63484Y59114D01*
X-63403Y59027D01*
X-63324Y58938D01*
X-63249Y58846D01*
X-63177Y58751D01*
X-63108Y58655D01*
X-63043Y58555D01*
X-62980Y58454D01*
X-62922Y58351D01*
X-62866Y58246D01*
X-62814Y58139D01*
X-62766Y58030D01*
X-62722Y57920D01*
X-62681Y57808D01*
X-62644Y57696D01*
X-62610Y57581D01*
X-62581Y57466D01*
X-62555Y57350D01*
X-62534Y57233D01*
X-62516Y57116D01*
X-62502Y56998D01*
X-62492Y56880D01*
X-62486Y56761D01*
X-62484Y56642D01*
X-62486Y56523D01*
X-62492Y56404D01*
X-62502Y56286D01*
X-62516Y56168D01*
X-62534Y56051D01*
X-62555Y55934D01*
X-62581Y55818D01*
X-62610Y55703D01*
X-62644Y55588D01*
X-62681Y55476D01*
X-62722Y55364D01*
X-62766Y55254D01*
X-62814Y55145D01*
X-62866Y55038D01*
X-62922Y54933D01*
X-62980Y54830D01*
X-63043Y54729D01*
X-63108Y54629D01*
X-63177Y54533D01*
X-63249Y54438D01*
X-63324Y54346D01*
X-63403Y54257D01*
X-63484Y54170D01*
X-63568Y54086D01*
X-63655Y54005D01*
X-63744Y53926D01*
X-63836Y53851D01*
X-63931Y53779D01*
X-64027Y53710D01*
X-64127Y53645D01*
X-64228Y53582D01*
X-64331Y53524D01*
X-64436Y53468D01*
X-64543Y53416D01*
X-64652Y53368D01*
X-64762Y53324D01*
X-64874Y53283D01*
X-64986Y53246D01*
X-65101Y53212D01*
X-65216Y53183D01*
X-65332Y53157D01*
X-65449Y53136D01*
X-65566Y53118D01*
X-65684Y53104D01*
X-65802Y53094D01*
X-65921Y53088D01*
X-66040Y53086D01*
X-66159Y53088D01*
X-66278Y53094D01*
X-66396Y53104D01*
X-66514Y53118D01*
X-66631Y53136D01*
X-66748Y53157D01*
X-66864Y53183D01*
X-66979Y53212D01*
X-67094Y53246D01*
X-67206Y53283D01*
X-67318Y53324D01*
X-67428Y53368D01*
X-67537Y53416D01*
X-67644Y53468D01*
X-67749Y53524D01*
X-67852Y53582D01*
X-67953Y53645D01*
X-68053Y53710D01*
X-68149Y53779D01*
X-68244Y53851D01*
X-68336Y53926D01*
X-68425Y54005D01*
X-68512Y54086D01*
X-68596Y54170D01*
X-68677Y54257D01*
X-68756Y54346D01*
X-68831Y54438D01*
X-68903Y54533D01*
X-68972Y54629D01*
X-69037Y54729D01*
X-69100Y54830D01*
X-69158Y54933D01*
X-69214Y55038D01*
X-69266Y55145D01*
X-69314Y55254D01*
X-69358Y55364D01*
X-69399Y55476D01*
X-69436Y55588D01*
X-69470Y55703D01*
X-69499Y55818D01*
X-69525Y55934D01*
X-69546Y56051D01*
X-69564Y56168D01*
X-69578Y56286D01*
X-69588Y56404D01*
X-69594Y56523D01*
X-69596Y56642D01*
D10*
X-12700Y85090D02*
X0Y90170D01*
X12700Y85090D01*
X-77900Y-47336D02*
X-97966Y-47336D01*
X-97966Y-59959D02*
X-97966Y-67733D01*
X-97966Y-80356D02*
X-77900Y-80356D01*
D13*
X48730Y-115730D02*
X48730Y-125000D01*
X48730Y-115730D02*
X45000Y-115730D01*
X-48730Y-115730D02*
X-48730Y-125000D01*
X-48730Y-115730D02*
X-45000Y-115730D01*
X-35000Y-144730D02*
X35000Y-144730D01*
M02*
