%FSLAX33Y33*%
%MOMM*%
%ADD10C,0.15*%
%ADD11C,0.5*%
%ADD12C,0.2*%
D10*
%LNtop silkscreen_traces*%
%LNtop silkscreen component 104f474019bc45ae*%
G01*
X-61835Y33730D02*
X-61835Y37120D01*
X-61835Y33730D02*
X-40665Y33730D01*
X-40665Y37120*
X-61835Y37120*
D11*
X-60140Y33405D03*
%LNtop silkscreen component 6423f2fbdbf0fd51*%
D12*
X-35270Y-18810D02*
X-35270Y-3570D01*
X-32730Y-3570*
X-32730Y-18810*
X-35270Y-18810*
%LNtop silkscreen component 725756eb9d5a0c3e*%
D10*
X-33639Y5234D02*
X-67061Y5234D01*
X-67061Y23416*
X-33639Y23416*
X-33639Y5234*
D11*
X-35110Y4734D03*
%LNtop silkscreen component e41e54bbfcc8de48*%
D10*
X-49145Y27954D02*
X-61505Y27954D01*
X-49145Y27954D02*
X-49145Y31395D01*
X-61505Y31395*
X-61505Y27954*
%LNtop silkscreen component bcffb8a9274f0d14*%
X-47625Y31445D02*
X-35265Y31445D01*
X-47625Y31445D02*
X-47625Y28005D01*
X-35265Y28005*
X-35265Y31445*
%LNtop silkscreen component 243e2b77924b8e62*%
G75*
G03*
X-37200Y36810D02*
X-39800Y36810I-1300J-1386D01*
G75*
X-39800Y34045D02*
X-37200Y34045I1300J1386D01*
%LNtext*%
G36*
G01*
X-41927Y26760D02*
X-42038Y26760D01*
X-42038Y27471D01*
X-42060Y27452D01*
X-42085Y27433D01*
X-42113Y27414D01*
X-42144Y27394D01*
X-42176Y27376D01*
X-42206Y27361D01*
X-42235Y27348D01*
X-42262Y27337D01*
X-42262Y27445D01*
X-42216Y27468D01*
X-42174Y27493D01*
X-42135Y27521D01*
X-42098Y27551D01*
X-42066Y27582D01*
X-42038Y27613D01*
X-42016Y27643D01*
X-41999Y27673D01*
X-41927Y27673D01*
X-41927Y26760D01*
X-41927Y26760D01*
X-41641Y26998D02*
X-41524Y27008D01*
X-41515Y26968D01*
X-41502Y26933D01*
X-41485Y26904D01*
X-41463Y26879D01*
X-41438Y26861D01*
X-41411Y26847D01*
X-41381Y26839D01*
X-41349Y26836D01*
X-41310Y26840D01*
X-41274Y26851D01*
X-41242Y26870D01*
X-41212Y26897D01*
X-41188Y26930D01*
X-41171Y26968D01*
X-41160Y27011D01*
X-41157Y27058D01*
X-41160Y27104D01*
X-41170Y27144D01*
X-41187Y27179D01*
X-41210Y27209D01*
X-41239Y27233D01*
X-41272Y27250D01*
X-41309Y27261D01*
X-41351Y27264D01*
X-41377Y27263D01*
X-41402Y27258D01*
X-41426Y27250D01*
X-41448Y27240D01*
X-41469Y27227D01*
X-41487Y27212D01*
X-41503Y27195D01*
X-41516Y27176D01*
X-41621Y27190D01*
X-41533Y27657D01*
X-41081Y27657D01*
X-41081Y27550D01*
X-41444Y27550D01*
X-41493Y27306D01*
X-41451Y27331D01*
X-41409Y27348D01*
X-41365Y27359D01*
X-41321Y27363D01*
X-41264Y27358D01*
X-41211Y27342D01*
X-41163Y27316D01*
X-41120Y27280D01*
X-41084Y27236D01*
X-41059Y27186D01*
X-41043Y27130D01*
X-41038Y27068D01*
X-41043Y27009D01*
X-41056Y26953D01*
X-41079Y26902D01*
X-41110Y26855D01*
X-41158Y26807D01*
X-41214Y26772D01*
X-41277Y26751D01*
X-41349Y26744D01*
X-41408Y26749D01*
X-41462Y26762D01*
X-41509Y26784D01*
X-41551Y26814D01*
X-41586Y26852D01*
X-41613Y26895D01*
X-41631Y26944D01*
X-41641Y26998D01*
X-41641Y26998D01*
X-40935Y27208D02*
X-40933Y27285D01*
X-40926Y27354D01*
X-40916Y27415D01*
X-40901Y27468D01*
X-40883Y27514D01*
X-40860Y27555D01*
X-40834Y27590D01*
X-40803Y27619D01*
X-40768Y27643D01*
X-40729Y27659D01*
X-40686Y27669D01*
X-40638Y27673D01*
X-40603Y27671D01*
X-40570Y27665D01*
X-40539Y27656D01*
X-40510Y27643D01*
X-40483Y27627D01*
X-40459Y27607D01*
X-40438Y27585D01*
X-40419Y27558D01*
X-40402Y27529D01*
X-40387Y27497D01*
X-40373Y27462D01*
X-40362Y27423D01*
X-40353Y27380D01*
X-40347Y27330D01*
X-40343Y27272D01*
X-40342Y27208D01*
X-40344Y27132D01*
X-40350Y27064D01*
X-40360Y27003D01*
X-40375Y26950D01*
X-40393Y26904D01*
X-40416Y26863D01*
X-40442Y26828D01*
X-40473Y26798D01*
X-40508Y26775D01*
X-40547Y26758D01*
X-40590Y26748D01*
X-40638Y26744D01*
X-40647Y26745D01*
X-40638Y26836D01*
X-40601Y26841D01*
X-40567Y26855D01*
X-40537Y26878D01*
X-40509Y26911D01*
X-40486Y26957D01*
X-40470Y27022D01*
X-40460Y27106D01*
X-40457Y27208D01*
X-40460Y27311D01*
X-40470Y27395D01*
X-40486Y27460D01*
X-40509Y27507D01*
X-40537Y27539D01*
X-40568Y27562D01*
X-40602Y27576D01*
X-40639Y27580D01*
X-40676Y27576D01*
X-40709Y27564D01*
X-40737Y27544D01*
X-40762Y27515D01*
X-40787Y27465D01*
X-40806Y27397D01*
X-40816Y27311D01*
X-40820Y27208D01*
X-40820Y27208D01*
X-40817Y27106D01*
X-40807Y27022D01*
X-40790Y26957D01*
X-40768Y26910D01*
X-40740Y26878D01*
X-40709Y26855D01*
X-40675Y26841D01*
X-40638Y26836D01*
X-40647Y26745D01*
X-40700Y26750D01*
X-40756Y26768D01*
X-40804Y26798D01*
X-40845Y26839D01*
X-40884Y26904D01*
X-40912Y26988D01*
X-40929Y27089D01*
X-40935Y27208D01*
X-40935Y27208D01*
X-39886Y27089D02*
X-39880Y27175D01*
X-39861Y27248D01*
X-39829Y27310D01*
X-39784Y27360D01*
X-39740Y27392D01*
X-39690Y27415D01*
X-39636Y27429D01*
X-39577Y27433D01*
X-39512Y27428D01*
X-39454Y27411D01*
X-39401Y27383D01*
X-39355Y27344D01*
X-39317Y27296D01*
X-39291Y27238D01*
X-39274Y27173D01*
X-39269Y27099D01*
X-39271Y27038D01*
X-39279Y26985D01*
X-39290Y26938D01*
X-39307Y26899D01*
X-39328Y26864D01*
X-39354Y26834D01*
X-39384Y26808D01*
X-39418Y26785D01*
X-39455Y26768D01*
X-39494Y26755D01*
X-39535Y26748D01*
X-39577Y26745D01*
X-39585Y26746D01*
X-39577Y26837D01*
X-39537Y26841D01*
X-39501Y26853D01*
X-39468Y26872D01*
X-39439Y26900D01*
X-39415Y26936D01*
X-39398Y26980D01*
X-39387Y27032D01*
X-39384Y27093D01*
X-39387Y27150D01*
X-39398Y27200D01*
X-39415Y27243D01*
X-39439Y27278D01*
X-39469Y27306D01*
X-39501Y27325D01*
X-39538Y27337D01*
X-39577Y27341D01*
X-39617Y27337D01*
X-39654Y27325D01*
X-39687Y27306D01*
X-39716Y27278D01*
X-39740Y27243D01*
X-39758Y27200D01*
X-39768Y27149D01*
X-39771Y27089D01*
X-39771Y27089D01*
X-39768Y27030D01*
X-39758Y26979D01*
X-39740Y26935D01*
X-39716Y26900D01*
X-39687Y26872D01*
X-39654Y26853D01*
X-39617Y26841D01*
X-39577Y26837D01*
X-39585Y26746D01*
X-39643Y26751D01*
X-39702Y26767D01*
X-39755Y26795D01*
X-39801Y26834D01*
X-39838Y26883D01*
X-39865Y26942D01*
X-39881Y27011D01*
X-39886Y27089D01*
X-39886Y27089D01*
X-39138Y26760D02*
X-39138Y27669D01*
X-39027Y27669D01*
X-39027Y27343D01*
X-38985Y27383D01*
X-38938Y27411D01*
X-38886Y27428D01*
X-38829Y27433D01*
X-38794Y27432D01*
X-38761Y27426D01*
X-38730Y27417D01*
X-38702Y27405D01*
X-38677Y27389D01*
X-38656Y27370D01*
X-38639Y27349D01*
X-38625Y27325D01*
X-38615Y27297D01*
X-38608Y27263D01*
X-38603Y27223D01*
X-38602Y27177D01*
X-38602Y26760D01*
X-38713Y26760D01*
X-38713Y27177D01*
X-38716Y27216D01*
X-38722Y27250D01*
X-38734Y27277D01*
X-38750Y27299D01*
X-38770Y27316D01*
X-38793Y27328D01*
X-38821Y27335D01*
X-38852Y27337D01*
X-38877Y27336D01*
X-38900Y27331D01*
X-38923Y27323D01*
X-38946Y27312D01*
X-38966Y27298D01*
X-38983Y27281D01*
X-38997Y27263D01*
X-39008Y27242D01*
X-39016Y27218D01*
X-39022Y27189D01*
X-39025Y27157D01*
X-39027Y27120D01*
X-39027Y26760D01*
X-39138Y26760D01*
X-39138Y26760D01*
X-38432Y26760D02*
X-38432Y27419D01*
X-38332Y27419D01*
X-38332Y27326D01*
X-38315Y27349D01*
X-38296Y27370D01*
X-38274Y27388D01*
X-38250Y27404D01*
X-38223Y27417D01*
X-38194Y27426D01*
X-38164Y27432D01*
X-38132Y27433D01*
X-38097Y27432D01*
X-38066Y27426D01*
X-38037Y27416D01*
X-38012Y27403D01*
X-37991Y27386D01*
X-37972Y27367D01*
X-37958Y27344D01*
X-37946Y27318D01*
X-37904Y27369D01*
X-37856Y27405D01*
X-37803Y27426D01*
X-37743Y27433D01*
X-37697Y27430D01*
X-37656Y27420D01*
X-37621Y27403D01*
X-37592Y27379D01*
X-37569Y27348D01*
X-37553Y27310D01*
X-37543Y27265D01*
X-37539Y27212D01*
X-37539Y26760D01*
X-37650Y26760D01*
X-37650Y27175D01*
X-37651Y27206D01*
X-37653Y27232D01*
X-37657Y27254D01*
X-37661Y27271D01*
X-37668Y27285D01*
X-37677Y27298D01*
X-37688Y27309D01*
X-37701Y27319D01*
X-37716Y27327D01*
X-37732Y27332D01*
X-37749Y27336D01*
X-37768Y27337D01*
X-37801Y27334D01*
X-37831Y27325D01*
X-37859Y27311D01*
X-37883Y27291D01*
X-37903Y27264D01*
X-37917Y27230D01*
X-37926Y27190D01*
X-37929Y27143D01*
X-37929Y26760D01*
X-38041Y26760D01*
X-38041Y27188D01*
X-38042Y27223D01*
X-38047Y27253D01*
X-38056Y27279D01*
X-38068Y27300D01*
X-38084Y27316D01*
X-38104Y27327D01*
X-38128Y27334D01*
X-38157Y27337D01*
X-38180Y27335D01*
X-38202Y27331D01*
X-38224Y27323D01*
X-38244Y27312D01*
X-38263Y27298D01*
X-38279Y27281D01*
X-38292Y27262D01*
X-38302Y27239D01*
X-38310Y27213D01*
X-38316Y27181D01*
X-38319Y27144D01*
X-38320Y27102D01*
X-38320Y26760D01*
X-38432Y26760D01*
X-38432Y26760D01*
X-64602Y28747D02*
X-64602Y28996D01*
X-64849Y28996D01*
X-64849Y29100D01*
X-64602Y29100D01*
X-64602Y29348D01*
X-64496Y29348D01*
X-64496Y29100D01*
X-64249Y29100D01*
X-64249Y28996D01*
X-64496Y28996D01*
X-64496Y28747D01*
X-64602Y28747D01*
X-64602Y28747D01*
X-35907Y36525D02*
X-35907Y37434D01*
X-35787Y37434D01*
X-35787Y36632D01*
X-35339Y36632D01*
X-35339Y36525D01*
X-35907Y36525D01*
X-35907Y36525D01*
X-35193Y36525D02*
X-35193Y37434D01*
X-34536Y37434D01*
X-34536Y37327D01*
X-35073Y37327D01*
X-35073Y37048D01*
X-34570Y37048D01*
X-34570Y36942D01*
X-35073Y36942D01*
X-35073Y36632D01*
X-34515Y36632D01*
X-34515Y36525D01*
X-35193Y36525D01*
X-35193Y36525D01*
X-34349Y36525D02*
X-34349Y37434D01*
X-34037Y37434D01*
X-34037Y37327D01*
X-34228Y37327D01*
X-34228Y36632D01*
X-34228Y36632D01*
X-34034Y36632D01*
X-33992Y36633D01*
X-33954Y36636D01*
X-33921Y36642D01*
X-33893Y36649D01*
X-33869Y36658D01*
X-33847Y36669D01*
X-33828Y36682D01*
X-33812Y36696D01*
X-33791Y36719D01*
X-33774Y36746D01*
X-33758Y36777D01*
X-33745Y36811D01*
X-33734Y36849D01*
X-33727Y36891D01*
X-33723Y36937D01*
X-33721Y36986D01*
X-33724Y37054D01*
X-33733Y37112D01*
X-33747Y37163D01*
X-33768Y37206D01*
X-33793Y37241D01*
X-33820Y37270D01*
X-33849Y37292D01*
X-33882Y37308D01*
X-33910Y37316D01*
X-33945Y37322D01*
X-33987Y37326D01*
X-34037Y37327D01*
X-34037Y37434D01*
X-34035Y37434D01*
X-33986Y37433D01*
X-33942Y37431D01*
X-33905Y37427D01*
X-33874Y37421D01*
X-33836Y37410D01*
X-33801Y37396D01*
X-33769Y37378D01*
X-33740Y37356D01*
X-33707Y37323D01*
X-33677Y37287D01*
X-33653Y37246D01*
X-33633Y37201D01*
X-33617Y37152D01*
X-33606Y37099D01*
X-33599Y37044D01*
X-33597Y36985D01*
X-33599Y36934D01*
X-33603Y36887D01*
X-33611Y36842D01*
X-33621Y36801D01*
X-33634Y36763D01*
X-33649Y36728D01*
X-33665Y36696D01*
X-33683Y36669D01*
X-33703Y36644D01*
X-33723Y36622D01*
X-33744Y36603D01*
X-33766Y36586D01*
X-33790Y36572D01*
X-33816Y36560D01*
X-33844Y36549D01*
X-33875Y36541D01*
X-33907Y36534D01*
X-33943Y36529D01*
X-33981Y36526D01*
X-34021Y36525D01*
X-34349Y36525D01*
X-34349Y36525D01*
X-65411Y25859D02*
X-65184Y25879D01*
X-65173Y25814D01*
X-65157Y25755D01*
X-65136Y25702D01*
X-65109Y25655D01*
X-65075Y25614D01*
X-65034Y25576D01*
X-64984Y25543D01*
X-64926Y25514D01*
X-64862Y25490D01*
X-64794Y25473D01*
X-64722Y25463D01*
X-64647Y25460D01*
X-64580Y25462D01*
X-64517Y25470D01*
X-64459Y25483D01*
X-64404Y25501D01*
X-64354Y25523D01*
X-64312Y25549D01*
X-64276Y25579D01*
X-64247Y25613D01*
X-64224Y25649D01*
X-64208Y25688D01*
X-64199Y25727D01*
X-64195Y25769D01*
X-64199Y25810D01*
X-64208Y25849D01*
X-64223Y25885D01*
X-64245Y25918D01*
X-64274Y25949D01*
X-64311Y25977D01*
X-64356Y26002D01*
X-64409Y26025D01*
X-64456Y26042D01*
X-64526Y26062D01*
X-64618Y26086D01*
X-64732Y26114D01*
X-64848Y26144D01*
X-64946Y26172D01*
X-65024Y26200D01*
X-65083Y26227D01*
X-65144Y26264D01*
X-65197Y26304D01*
X-65241Y26348D01*
X-65278Y26397D01*
X-65306Y26449D01*
X-65325Y26504D01*
X-65337Y26562D01*
X-65341Y26623D01*
X-65337Y26691D01*
X-65322Y26756D01*
X-65297Y26820D01*
X-65263Y26880D01*
X-65220Y26937D01*
X-65167Y26986D01*
X-65106Y27028D01*
X-65035Y27062D01*
X-64958Y27089D01*
X-64877Y27109D01*
X-64791Y27120D01*
X-64701Y27124D01*
X-64603Y27120D01*
X-64511Y27108D01*
X-64425Y27088D01*
X-64345Y27059D01*
X-64272Y27023D01*
X-64208Y26979D01*
X-64153Y26927D01*
X-64107Y26867D01*
X-64071Y26802D01*
X-64044Y26733D01*
X-64026Y26659D01*
X-64018Y26581D01*
X-64249Y26564D01*
X-64264Y26645D01*
X-64290Y26715D01*
X-64327Y26775D01*
X-64375Y26824D01*
X-64435Y26863D01*
X-64508Y26890D01*
X-64593Y26907D01*
X-64692Y26912D01*
X-64793Y26907D01*
X-64880Y26892D01*
X-64952Y26867D01*
X-65010Y26832D01*
X-65053Y26790D01*
X-65085Y26744D01*
X-65103Y26694D01*
X-65110Y26639D01*
X-65105Y26592D01*
X-65092Y26550D01*
X-65070Y26512D01*
X-65039Y26478D01*
X-64990Y26446D01*
X-64913Y26414D01*
X-64809Y26381D01*
X-64676Y26348D01*
X-64541Y26316D01*
X-64429Y26286D01*
X-64340Y26258D01*
X-64274Y26232D01*
X-64199Y26193D01*
X-64136Y26150D01*
X-64082Y26101D01*
X-64039Y26047D01*
X-64006Y25989D01*
X-63982Y25926D01*
X-63968Y25859D01*
X-63964Y25788D01*
X-63969Y25717D01*
X-63984Y25648D01*
X-64010Y25580D01*
X-64047Y25515D01*
X-64093Y25454D01*
X-64148Y25401D01*
X-64212Y25355D01*
X-64285Y25315D01*
X-64366Y25284D01*
X-64451Y25262D01*
X-64541Y25248D01*
X-64636Y25244D01*
X-64754Y25248D01*
X-64863Y25262D01*
X-64961Y25284D01*
X-65049Y25316D01*
X-65128Y25356D01*
X-65198Y25406D01*
X-65259Y25465D01*
X-65311Y25532D01*
X-65353Y25607D01*
X-65383Y25686D01*
X-65403Y25770D01*
X-65411Y25859D01*
X-65411Y25859D01*
X-63663Y24770D02*
X-63663Y26592D01*
X-63460Y26592D01*
X-63460Y26421D01*
X-63351Y26314D01*
X-63351Y26314D01*
X-63399Y26239D01*
X-63434Y26150D01*
X-63454Y26046D01*
X-63461Y25926D01*
X-63461Y25926D01*
X-63455Y25807D01*
X-63435Y25705D01*
X-63403Y25619D01*
X-63358Y25550D01*
X-63304Y25497D01*
X-63244Y25459D01*
X-63179Y25436D01*
X-63109Y25429D01*
X-63037Y25437D01*
X-62971Y25460D01*
X-62910Y25500D01*
X-62854Y25555D01*
X-62808Y25626D01*
X-62775Y25715D01*
X-62755Y25821D01*
X-62748Y25945D01*
X-62755Y26063D01*
X-62774Y26165D01*
X-62806Y26251D01*
X-62852Y26322D01*
X-62906Y26377D01*
X-62965Y26416D01*
X-63030Y26439D01*
X-63099Y26447D01*
X-63168Y26439D01*
X-63233Y26414D01*
X-63295Y26372D01*
X-63351Y26314D01*
X-63460Y26421D01*
X-63423Y26468D01*
X-63383Y26509D01*
X-63342Y26543D01*
X-63298Y26572D01*
X-63250Y26594D01*
X-63197Y26609D01*
X-63140Y26619D01*
X-63078Y26622D01*
X-62996Y26616D01*
X-62919Y26600D01*
X-62847Y26573D01*
X-62780Y26535D01*
X-62720Y26487D01*
X-62667Y26430D01*
X-62622Y26365D01*
X-62586Y26290D01*
X-62557Y26209D01*
X-62536Y26124D01*
X-62524Y26036D01*
X-62520Y25943D01*
X-62524Y25845D01*
X-62538Y25751D01*
X-62561Y25663D01*
X-62592Y25579D01*
X-62633Y25503D01*
X-62681Y25437D01*
X-62738Y25379D01*
X-62803Y25331D01*
X-62873Y25294D01*
X-62945Y25267D01*
X-63019Y25251D01*
X-63094Y25245D01*
X-63148Y25248D01*
X-63200Y25257D01*
X-63249Y25272D01*
X-63294Y25292D01*
X-63337Y25317D01*
X-63375Y25346D01*
X-63410Y25377D01*
X-63440Y25411D01*
X-63440Y24770D01*
X-63663Y24770D01*
X-63663Y24770D01*
X-62334Y25934D02*
X-62321Y26105D01*
X-62283Y26252D01*
X-62219Y26376D01*
X-62130Y26476D01*
X-62041Y26540D01*
X-61942Y26585D01*
X-61834Y26613D01*
X-61716Y26622D01*
X-61587Y26611D01*
X-61469Y26577D01*
X-61365Y26522D01*
X-61272Y26444D01*
X-61197Y26346D01*
X-61143Y26232D01*
X-61111Y26101D01*
X-61100Y25952D01*
X-61105Y25832D01*
X-61119Y25725D01*
X-61143Y25632D01*
X-61176Y25552D01*
X-61219Y25483D01*
X-61270Y25423D01*
X-61330Y25370D01*
X-61398Y25326D01*
X-61473Y25291D01*
X-61550Y25265D01*
X-61632Y25250D01*
X-61716Y25245D01*
X-61732Y25247D01*
X-61716Y25429D01*
X-61637Y25437D01*
X-61564Y25460D01*
X-61498Y25500D01*
X-61440Y25555D01*
X-61391Y25627D01*
X-61357Y25715D01*
X-61336Y25820D01*
X-61329Y25941D01*
X-61336Y26056D01*
X-61357Y26156D01*
X-61392Y26241D01*
X-61440Y26311D01*
X-61499Y26366D01*
X-61565Y26406D01*
X-61637Y26429D01*
X-61716Y26437D01*
X-61796Y26429D01*
X-61869Y26406D01*
X-61935Y26367D01*
X-61994Y26312D01*
X-62042Y26241D01*
X-62077Y26155D01*
X-62097Y26052D01*
X-62104Y25934D01*
X-62104Y25934D01*
X-62097Y25815D01*
X-62077Y25712D01*
X-62042Y25626D01*
X-61994Y25555D01*
X-61935Y25500D01*
X-61869Y25460D01*
X-61796Y25437D01*
X-61716Y25429D01*
X-61732Y25247D01*
X-61848Y25256D01*
X-61966Y25290D01*
X-62071Y25345D01*
X-62163Y25423D01*
X-62238Y25521D01*
X-62291Y25639D01*
X-62323Y25777D01*
X-62334Y25934D01*
X-62334Y25934D01*
X-60841Y25275D02*
X-60841Y26592D01*
X-60640Y26592D01*
X-60640Y26392D01*
X-60602Y26457D01*
X-60566Y26509D01*
X-60531Y26549D01*
X-60498Y26577D01*
X-60464Y26597D01*
X-60429Y26611D01*
X-60393Y26619D01*
X-60354Y26622D01*
X-60298Y26617D01*
X-60241Y26604D01*
X-60183Y26581D01*
X-60125Y26550D01*
X-60202Y26343D01*
X-60243Y26364D01*
X-60284Y26379D01*
X-60325Y26388D01*
X-60366Y26391D01*
X-60401Y26388D01*
X-60435Y26380D01*
X-60467Y26366D01*
X-60497Y26347D01*
X-60524Y26323D01*
X-60547Y26295D01*
X-60566Y26262D01*
X-60580Y26225D01*
X-60596Y26164D01*
X-60608Y26100D01*
X-60615Y26034D01*
X-60617Y25965D01*
X-60617Y25275D01*
X-60841Y25275D01*
X-60841Y25275D01*
X-59505Y25475D02*
X-59473Y25277D01*
X-59519Y25269D01*
X-59562Y25263D01*
X-59603Y25259D01*
X-59641Y25258D01*
X-59699Y25260D01*
X-59749Y25267D01*
X-59793Y25279D01*
X-59830Y25296D01*
X-59861Y25317D01*
X-59887Y25341D01*
X-59908Y25367D01*
X-59924Y25397D01*
X-59936Y25437D01*
X-59945Y25494D01*
X-59950Y25569D01*
X-59951Y25661D01*
X-59951Y26418D01*
X-60115Y26418D01*
X-60115Y26592D01*
X-59951Y26592D01*
X-59951Y26918D01*
X-59729Y27052D01*
X-59729Y26592D01*
X-59505Y26592D01*
X-59505Y26418D01*
X-59729Y26418D01*
X-59729Y25648D01*
X-59729Y25605D01*
X-59726Y25570D01*
X-59723Y25543D01*
X-59718Y25526D01*
X-59711Y25513D01*
X-59702Y25501D01*
X-59692Y25491D01*
X-59679Y25482D01*
X-59664Y25475D01*
X-59647Y25470D01*
X-59626Y25467D01*
X-59603Y25466D01*
X-59583Y25467D01*
X-59560Y25468D01*
X-59534Y25471D01*
X-59505Y25475D01*
X-59505Y25475D01*
X-59285Y25275D02*
X-59285Y26592D01*
X-59062Y26592D01*
X-59062Y25275D01*
X-59285Y25275D01*
X-59285Y25275D01*
X-59285Y26836D02*
X-59285Y27093D01*
X-59062Y27093D01*
X-59062Y26836D01*
X-59285Y26836D01*
X-59285Y26836D01*
X-57868Y25275D02*
X-57868Y25441D01*
X-57969Y25546D01*
X-57966Y25548D01*
X-57922Y25616D01*
X-57890Y25700D01*
X-57871Y25799D01*
X-57864Y25914D01*
X-57871Y26040D01*
X-57890Y26148D01*
X-57923Y26238D01*
X-57968Y26311D01*
X-58023Y26366D01*
X-58085Y26405D01*
X-58152Y26429D01*
X-58225Y26437D01*
X-58296Y26430D01*
X-58362Y26407D01*
X-58421Y26369D01*
X-58474Y26316D01*
X-58517Y26246D01*
X-58549Y26159D01*
X-58567Y26054D01*
X-58574Y25932D01*
X-58574Y25932D01*
X-58567Y25814D01*
X-58547Y25711D01*
X-58514Y25625D01*
X-58467Y25554D01*
X-58411Y25499D01*
X-58351Y25460D01*
X-58285Y25437D01*
X-58215Y25429D01*
X-58145Y25436D01*
X-58080Y25459D01*
X-58020Y25496D01*
X-57969Y25546D01*
X-57868Y25441D01*
X-57938Y25355D01*
X-58023Y25294D01*
X-58122Y25257D01*
X-58236Y25245D01*
X-58313Y25251D01*
X-58387Y25267D01*
X-58458Y25294D01*
X-58526Y25332D01*
X-58588Y25380D01*
X-58643Y25436D01*
X-58690Y25501D01*
X-58730Y25575D01*
X-58762Y25655D01*
X-58785Y25742D01*
X-58798Y25834D01*
X-58803Y25932D01*
X-58799Y26029D01*
X-58787Y26120D01*
X-58766Y26208D01*
X-58737Y26290D01*
X-58700Y26366D01*
X-58655Y26432D01*
X-58602Y26489D01*
X-58540Y26536D01*
X-58472Y26574D01*
X-58401Y26600D01*
X-58325Y26617D01*
X-58246Y26622D01*
X-58188Y26619D01*
X-58134Y26609D01*
X-58082Y26594D01*
X-58034Y26572D01*
X-57990Y26545D01*
X-57950Y26514D01*
X-57914Y26479D01*
X-57883Y26441D01*
X-57883Y27093D01*
X-57661Y27093D01*
X-57661Y25275D01*
X-57868Y25275D01*
X-57868Y25275D01*
X-56447Y25275D02*
X-56447Y25468D01*
X-56530Y25371D01*
X-56628Y25301D01*
X-56739Y25259D01*
X-56864Y25245D01*
X-56922Y25248D01*
X-56977Y25256D01*
X-57031Y25270D01*
X-57082Y25290D01*
X-57129Y25314D01*
X-57170Y25340D01*
X-57204Y25370D01*
X-57232Y25402D01*
X-57255Y25438D01*
X-57274Y25477D01*
X-57289Y25521D01*
X-57301Y25568D01*
X-57307Y25605D01*
X-57311Y25653D01*
X-57314Y25710D01*
X-57315Y25776D01*
X-57315Y26592D01*
X-57091Y26592D01*
X-57091Y25862D01*
X-57091Y25781D01*
X-57088Y25715D01*
X-57084Y25664D01*
X-57078Y25626D01*
X-57064Y25584D01*
X-57045Y25547D01*
X-57020Y25515D01*
X-56988Y25488D01*
X-56952Y25466D01*
X-56912Y25450D01*
X-56868Y25441D01*
X-56820Y25437D01*
X-56770Y25441D01*
X-56722Y25450D01*
X-56676Y25466D01*
X-56631Y25489D01*
X-56590Y25517D01*
X-56556Y25550D01*
X-56528Y25587D01*
X-56507Y25629D01*
X-56491Y25678D01*
X-56479Y25738D01*
X-56472Y25807D01*
X-56470Y25886D01*
X-56470Y26592D01*
X-56247Y26592D01*
X-56247Y25275D01*
X-56447Y25275D01*
X-56447Y25275D01*
X-55896Y25275D02*
X-55896Y26592D01*
X-55673Y26592D01*
X-55673Y25275D01*
X-55896Y25275D01*
X-55896Y25275D01*
X-55896Y26836D02*
X-55896Y27093D01*
X-55673Y27093D01*
X-55673Y26836D01*
X-55896Y26836D01*
X-55896Y26836D01*
X-55333Y25275D02*
X-55333Y26592D01*
X-55132Y26592D01*
X-55132Y26405D01*
X-55051Y26500D01*
X-54955Y26568D01*
X-54842Y26608D01*
X-54713Y26622D01*
X-54654Y26619D01*
X-54598Y26611D01*
X-54545Y26598D01*
X-54494Y26579D01*
X-54447Y26556D01*
X-54407Y26530D01*
X-54372Y26500D01*
X-54344Y26467D01*
X-54321Y26431D01*
X-54302Y26391D01*
X-54287Y26348D01*
X-54275Y26302D01*
X-54269Y26265D01*
X-54266Y26217D01*
X-54263Y26157D01*
X-54263Y26085D01*
X-54263Y25275D01*
X-54486Y25275D01*
X-54486Y26076D01*
X-54487Y26140D01*
X-54492Y26195D01*
X-54500Y26242D01*
X-54512Y26280D01*
X-54527Y26312D01*
X-54548Y26341D01*
X-54574Y26366D01*
X-54604Y26388D01*
X-54639Y26406D01*
X-54676Y26418D01*
X-54717Y26426D01*
X-54760Y26428D01*
X-54829Y26423D01*
X-54893Y26406D01*
X-54952Y26377D01*
X-55006Y26338D01*
X-55051Y26282D01*
X-55084Y26207D01*
X-55103Y26111D01*
X-55110Y25994D01*
X-55110Y25275D01*
X-55333Y25275D01*
X-55333Y25275D01*
X-54003Y25934D02*
X-53991Y26105D01*
X-53952Y26252D01*
X-53889Y26376D01*
X-53800Y26476D01*
X-53710Y26540D01*
X-53611Y26585D01*
X-53503Y26613D01*
X-53386Y26622D01*
X-53256Y26611D01*
X-53139Y26577D01*
X-53034Y26522D01*
X-52942Y26444D01*
X-52866Y26346D01*
X-52812Y26232D01*
X-52780Y26101D01*
X-52769Y25952D01*
X-52774Y25832D01*
X-52788Y25725D01*
X-52812Y25632D01*
X-52846Y25552D01*
X-52888Y25483D01*
X-52939Y25423D01*
X-52999Y25370D01*
X-53068Y25326D01*
X-53142Y25291D01*
X-53220Y25265D01*
X-53301Y25250D01*
X-53386Y25245D01*
X-53401Y25247D01*
X-53386Y25429D01*
X-53306Y25437D01*
X-53233Y25460D01*
X-53168Y25500D01*
X-53109Y25555D01*
X-53061Y25627D01*
X-53026Y25715D01*
X-53006Y25820D01*
X-52999Y25941D01*
X-53006Y26056D01*
X-53026Y26156D01*
X-53061Y26241D01*
X-53110Y26311D01*
X-53169Y26366D01*
X-53234Y26406D01*
X-53307Y26429D01*
X-53386Y26437D01*
X-53466Y26429D01*
X-53539Y26406D01*
X-53605Y26367D01*
X-53663Y26312D01*
X-53712Y26241D01*
X-53746Y26155D01*
X-53767Y26052D01*
X-53774Y25934D01*
X-53774Y25934D01*
X-53767Y25815D01*
X-53746Y25712D01*
X-53712Y25626D01*
X-53663Y25555D01*
X-53605Y25500D01*
X-53539Y25460D01*
X-53466Y25437D01*
X-53386Y25429D01*
X-53401Y25247D01*
X-53517Y25256D01*
X-53636Y25290D01*
X-53741Y25345D01*
X-53833Y25423D01*
X-53907Y25521D01*
X-53961Y25639D01*
X-53993Y25777D01*
X-54003Y25934D01*
X-54003Y25934D01*
X-68307Y31675D02*
X-68307Y32584D01*
X-67966Y32584D01*
X-67916Y32582D01*
X-67872Y32577D01*
X-67833Y32569D01*
X-67799Y32556D01*
X-67769Y32541D01*
X-67743Y32521D01*
X-67720Y32498D01*
X-67700Y32472D01*
X-67685Y32443D01*
X-67673Y32413D01*
X-67667Y32383D01*
X-67665Y32352D01*
X-67667Y32323D01*
X-67672Y32295D01*
X-67682Y32268D01*
X-67696Y32242D01*
X-67714Y32217D01*
X-67736Y32195D01*
X-67762Y32176D01*
X-67792Y32159D01*
X-67827Y32073D01*
X-67843Y32080D01*
X-67869Y32086D01*
X-67900Y32091D01*
X-67936Y32094D01*
X-67976Y32095D01*
X-68187Y32095D01*
X-68187Y31782D01*
X-68187Y31782D01*
X-67960Y31782D01*
X-67933Y31783D01*
X-67911Y31783D01*
X-67892Y31785D01*
X-67878Y31787D01*
X-67859Y31791D01*
X-67840Y31797D01*
X-67824Y31803D01*
X-67809Y31811D01*
X-67796Y31821D01*
X-67784Y31833D01*
X-67773Y31846D01*
X-67763Y31862D01*
X-67755Y31879D01*
X-67750Y31898D01*
X-67746Y31917D01*
X-67745Y31939D01*
X-67747Y31963D01*
X-67752Y31986D01*
X-67760Y32007D01*
X-67771Y32027D01*
X-67785Y32044D01*
X-67802Y32059D01*
X-67822Y32071D01*
X-67827Y32073D01*
X-67792Y32159D01*
X-67835Y32231D01*
X-67819Y32243D01*
X-67806Y32258D01*
X-67796Y32275D01*
X-67789Y32294D01*
X-67784Y32314D01*
X-67783Y32337D01*
X-67784Y32359D01*
X-67788Y32380D01*
X-67795Y32399D01*
X-67805Y32417D01*
X-67817Y32433D01*
X-67831Y32446D01*
X-67848Y32456D01*
X-67867Y32464D01*
X-67890Y32470D01*
X-67921Y32474D01*
X-67960Y32476D01*
X-68005Y32477D01*
X-68187Y32477D01*
X-68187Y32202D01*
X-68187Y32202D01*
X-67990Y32202D01*
X-67953Y32203D01*
X-67921Y32205D01*
X-67896Y32208D01*
X-67875Y32213D01*
X-67854Y32221D01*
X-67835Y32231D01*
X-67792Y32159D01*
X-67753Y32144D01*
X-67719Y32126D01*
X-67689Y32103D01*
X-67665Y32076D01*
X-67645Y32046D01*
X-67632Y32013D01*
X-67623Y31977D01*
X-67621Y31939D01*
X-67622Y31907D01*
X-67627Y31877D01*
X-67636Y31848D01*
X-67647Y31820D01*
X-67662Y31794D01*
X-67678Y31771D01*
X-67695Y31752D01*
X-67714Y31735D01*
X-67735Y31721D01*
X-67759Y31709D01*
X-67785Y31699D01*
X-67814Y31690D01*
X-67845Y31684D01*
X-67880Y31679D01*
X-67919Y31676D01*
X-67960Y31675D01*
X-68307Y31675D01*
X-68307Y31675D01*
X-67038Y31675D02*
X-67038Y31772D01*
X-67079Y31723D01*
X-67128Y31688D01*
X-67184Y31667D01*
X-67247Y31660D01*
X-67275Y31662D01*
X-67303Y31666D01*
X-67330Y31673D01*
X-67355Y31682D01*
X-67379Y31694D01*
X-67399Y31708D01*
X-67417Y31722D01*
X-67430Y31739D01*
X-67442Y31756D01*
X-67451Y31776D01*
X-67459Y31798D01*
X-67465Y31821D01*
X-67468Y31840D01*
X-67470Y31864D01*
X-67471Y31892D01*
X-67472Y31926D01*
X-67472Y32334D01*
X-67360Y32334D01*
X-67360Y31968D01*
X-67360Y31928D01*
X-67358Y31895D01*
X-67356Y31869D01*
X-67353Y31850D01*
X-67346Y31830D01*
X-67337Y31811D01*
X-67324Y31795D01*
X-67309Y31781D01*
X-67291Y31770D01*
X-67270Y31763D01*
X-67248Y31758D01*
X-67224Y31756D01*
X-67200Y31758D01*
X-67176Y31763D01*
X-67152Y31771D01*
X-67130Y31782D01*
X-67110Y31796D01*
X-67092Y31812D01*
X-67078Y31831D01*
X-67068Y31852D01*
X-67060Y31877D01*
X-67054Y31906D01*
X-67051Y31941D01*
X-67049Y31981D01*
X-67049Y32334D01*
X-66938Y32334D01*
X-66938Y31675D01*
X-67038Y31675D01*
X-67038Y31675D01*
X-66822Y31675D02*
X-66822Y31766D01*
X-66403Y32247D01*
X-66437Y32245D01*
X-66470Y32244D01*
X-66500Y32243D01*
X-66528Y32243D01*
X-66797Y32243D01*
X-66797Y32334D01*
X-66259Y32334D01*
X-66259Y32260D01*
X-66615Y31842D01*
X-66684Y31766D01*
X-66647Y31768D01*
X-66611Y31770D01*
X-66577Y31771D01*
X-66543Y31771D01*
X-66239Y31771D01*
X-66239Y31675D01*
X-66822Y31675D01*
X-66822Y31675D01*
X-66187Y31675D02*
X-66187Y31766D01*
X-65768Y32247D01*
X-65802Y32245D01*
X-65835Y32244D01*
X-65865Y32243D01*
X-65893Y32243D01*
X-66162Y32243D01*
X-66162Y32334D01*
X-65624Y32334D01*
X-65624Y32260D01*
X-65980Y31842D01*
X-66049Y31766D01*
X-66012Y31768D01*
X-65976Y31770D01*
X-65942Y31771D01*
X-65908Y31771D01*
X-65604Y31771D01*
X-65604Y31675D01*
X-66187Y31675D01*
X-66187Y31675D01*
X-65042Y31887D02*
X-64927Y31873D01*
X-64943Y31825D01*
X-64966Y31783D01*
X-64994Y31747D01*
X-65028Y31716D01*
X-65067Y31692D01*
X-65112Y31674D01*
X-65161Y31664D01*
X-65216Y31660D01*
X-65285Y31666D01*
X-65346Y31682D01*
X-65399Y31710D01*
X-65445Y31749D01*
X-65482Y31798D01*
X-65509Y31856D01*
X-65525Y31923D01*
X-65530Y31999D01*
X-65525Y32077D01*
X-65509Y32146D01*
X-65482Y32206D01*
X-65444Y32257D01*
X-65398Y32297D01*
X-65346Y32326D01*
X-65287Y32343D01*
X-65222Y32348D01*
X-65213Y32348D01*
X-65221Y32257D01*
X-65258Y32253D01*
X-65292Y32244D01*
X-65323Y32228D01*
X-65350Y32205D01*
X-65374Y32177D01*
X-65391Y32145D01*
X-65403Y32108D01*
X-65408Y32068D01*
X-65408Y32068D01*
X-65041Y32068D01*
X-65046Y32106D01*
X-65055Y32140D01*
X-65067Y32169D01*
X-65083Y32192D01*
X-65112Y32220D01*
X-65144Y32241D01*
X-65181Y32253D01*
X-65221Y32257D01*
X-65213Y32348D01*
X-65159Y32343D01*
X-65102Y32326D01*
X-65051Y32298D01*
X-65007Y32259D01*
X-64970Y32209D01*
X-64944Y32150D01*
X-64928Y32082D01*
X-64923Y32006D01*
X-64923Y32000D01*
X-64923Y31993D01*
X-64923Y31985D01*
X-64924Y31976D01*
X-65415Y31976D01*
X-65408Y31925D01*
X-65396Y31880D01*
X-65378Y31842D01*
X-65353Y31810D01*
X-65324Y31784D01*
X-65291Y31766D01*
X-65255Y31755D01*
X-65216Y31752D01*
X-65186Y31754D01*
X-65159Y31760D01*
X-65134Y31770D01*
X-65111Y31784D01*
X-65090Y31803D01*
X-65072Y31826D01*
X-65056Y31854D01*
X-65042Y31887D01*
X-65042Y31887D01*
X-64788Y31675D02*
X-64788Y32334D01*
X-64687Y32334D01*
X-64687Y32234D01*
X-64668Y32266D01*
X-64650Y32292D01*
X-64633Y32312D01*
X-64616Y32326D01*
X-64600Y32336D01*
X-64582Y32343D01*
X-64564Y32347D01*
X-64545Y32348D01*
X-64516Y32346D01*
X-64488Y32339D01*
X-64459Y32328D01*
X-64430Y32312D01*
X-64468Y32209D01*
X-64489Y32220D01*
X-64509Y32227D01*
X-64530Y32232D01*
X-64550Y32233D01*
X-64568Y32232D01*
X-64585Y32228D01*
X-64601Y32221D01*
X-64616Y32211D01*
X-64629Y32199D01*
X-64641Y32185D01*
X-64650Y32168D01*
X-64657Y32150D01*
X-64666Y32120D01*
X-64671Y32088D01*
X-64675Y32054D01*
X-64676Y32020D01*
X-64676Y31675D01*
X-64788Y31675D01*
X-64788Y31675D01*
X-39957Y32972D02*
X-39957Y33221D01*
X-40204Y33221D01*
X-40204Y33325D01*
X-39957Y33325D01*
X-39957Y33573D01*
X-39851Y33573D01*
X-39851Y33325D01*
X-39604Y33325D01*
X-39604Y33221D01*
X-39851Y33221D01*
X-39851Y32972D01*
X-39957Y32972D01*
X-39957Y32972D01*
G37*
M02*