%FSLAX33Y33*%
%MOMM*%
%AMRect-W1650000-H1650000-RO1.500*
21,1,1.65,1.65,0.,0.,90*%
%AMRect-W1405236-H517986-RO1.000*
21,1,1.405236,0.517986,0.,0.,180*%
%AMRR-H517986-W1405236-R258993-RO1.000*
21,1,0.88725,0.517986,0.,0.,180*
1,1,0.517986,0.443625,-0.*
1,1,0.517986,-0.443625,-0.*
1,1,0.517986,-0.443625,0.*
1,1,0.517986,0.443625,0.*%
%AMRect-W1650000-H1650000-RO0.500*
21,1,1.65,1.65,0.,0.,270*%
%AMRect-W2000000-H2000000-RO1.500*
21,1,2.,2.,0.,0.,90*%
%AMRect-W1000000-H1250000-RO0.500*
21,1,1.,1.25,0.,0.,270*%
%AMRect-W1400000-H1400000-RO1.000*
21,1,1.4,1.4,0.,0.,180*%
%AMRR-H2000000-W1000000-R500000-RO0.500*
21,1,1.,1.,0.,0.,270*
1,1,1.,0.5,0.*
1,1,1.,0.5,-0.*
1,1,1.,-0.5,-0.*
1,1,1.,-0.5,0.*%
%AMRR-H1000000-W2000000-R500000-RO0.500*
21,1,1.,1.,0.,0.,270*
1,1,1.,0.,0.5*
1,1,1.,0.,-0.5*
1,1,1.,-0.,-0.5*
1,1,1.,-0.,0.5*%
%AMRect-W2000000-H1000000-RO0.500*
21,1,2.,1.,0.,0.,270*%
%ADD10C,0.3*%
%ADD11C,1.0668*%
%ADD12C,1.65*%
%ADD13Rect-W1650000-H1650000-RO1.500*%
%ADD14C,1.65*%
%ADD15Rect-W1405236-H517986-RO1.000*%
%ADD16RR-H517986-W1405236-R258993-RO1.000*%
%ADD17C,1.65*%
%ADD18Rect-W1650000-H1650000-RO0.500*%
%ADD19C,2.*%
%ADD20C,2.*%
%ADD21C,1.6*%
%ADD22C,2.029999*%
%ADD23C,2.029999*%
%ADD24Rect-W2000000-H2000000-RO1.500*%
%ADD25C,1.35*%
%ADD26C,1.35*%
%ADD27Rect-W1000000-H1250000-RO0.500*%
%ADD28C,1.4*%
%ADD29Rect-W1400000-H1400000-RO1.000*%
%ADD30RR-H2000000-W1000000-R500000-RO0.500*%
%ADD31RR-H1000000-W2000000-R500000-RO0.500*%
%ADD32Rect-W2000000-H1000000-RO0.500*%
D10*
%LNbottom copper_traces*%
G01*
X-49350Y16975D02*
X-46700Y16975D01*
X-34325Y20400D02*
X-33575Y21150D01*
X-58075Y-3650D02*
X-57225Y-2800D01*
X-55625Y18375D02*
X-53725Y16475D01*
X-49850Y16475D02*
X-49350Y16975D01*
X-36950Y-16550D02*
X-36000Y-17500D01*
X-61490Y14475D02*
X-53850Y14475D01*
X-46600Y13170D02*
X-44880Y13170D01*
X-39450Y16980D02*
X-38255Y16980D01*
X-66545Y3050D02*
X-68875Y5380D01*
X-42225Y-3550D02*
X-42225Y-1300D01*
X-39600Y15710D02*
X-40590Y15710D01*
X-49135Y13510D02*
X-47650Y12025D01*
X-36947Y20400D02*
X-34325Y20400D01*
X-44250Y20405D02*
X-42710Y21945D01*
X-40590Y18050D02*
X-39297Y18050D01*
X-63850Y-2150D02*
X-63850Y2650D01*
X-41950Y18600D02*
X-40400Y20150D01*
X-33575Y21150D02*
X-33575Y22600D01*
X-65450Y13275D02*
X-62300Y16425D01*
X-44250Y15258D02*
X-44250Y20405D01*
X-39297Y18050D02*
X-36947Y20400D01*
X-62350Y-3650D02*
X-63850Y-2150D01*
X-68875Y5380D02*
X-68875Y10500D01*
X-62300Y16475D02*
X-49850Y16475D01*
X-57600Y35425D02*
X-56125Y33950D01*
X-41650Y14440D02*
X-39450Y14440D01*
X-41950Y16100D02*
X-41950Y18600D01*
X-64150Y-5850D02*
X-66545Y-3455D01*
X-37525Y21425D02*
X-37525Y21945D01*
X-69000Y-14425D02*
X-66250Y-17175D01*
X-46600Y14440D02*
X-45068Y14440D01*
X-38385Y24075D02*
X-40210Y22250D01*
X-37775Y33950D02*
X-33975Y30150D01*
X-57225Y-2800D02*
X-57225Y-1150D01*
X-40590Y15710D02*
X-41005Y16125D01*
X-40400Y20150D02*
X-38800Y20150D01*
X-41005Y13170D02*
X-39600Y13170D01*
X-69000Y-14425D02*
X-69000Y2815D01*
X-55625Y21945D02*
X-55625Y18375D01*
X-33975Y30150D02*
X-33975Y29725D01*
X-49135Y15710D02*
X-49135Y13510D01*
X-37175Y-0300D02*
X-37150Y-0300D01*
X-37975Y0500D02*
X-36950Y-0525D01*
X-36950Y-16550D02*
X-36950Y-0525D01*
X-44065Y12025D02*
X-41650Y14440D01*
X-39025Y0500D02*
X-37975Y0500D01*
X-41005Y13170D02*
X-43225Y10950D01*
X-44880Y13170D02*
X-41950Y16100D01*
X-41005Y17635D02*
X-40590Y18050D01*
X-36000Y-17500D02*
X-34350Y-17500D01*
X-53850Y11775D02*
X-53850Y14375D01*
X-62825Y22300D02*
X-63100Y22025D01*
X-38800Y20150D02*
X-37525Y21425D01*
X-37650Y16375D02*
X-37650Y6745D01*
X-38255Y16980D02*
X-37650Y16375D01*
X-40825Y-1300D02*
X-39025Y0500D01*
X-45068Y14440D02*
X-44250Y15258D01*
X-56125Y33950D02*
X-37775Y33950D01*
X-53025Y10950D02*
X-43225Y10950D01*
X-53025Y10950D02*
X-53850Y11775D01*
X-49135Y15710D02*
X-46700Y15710D01*
X-66545Y-3455D02*
X-66545Y2900D01*
X-64150Y-5850D02*
X-44525Y-5850D01*
X-38385Y24075D02*
X-35050Y24075D01*
X-66525Y12850D02*
X-65590Y12850D01*
X-58840Y-1300D02*
X-58840Y2435D01*
X-68875Y10500D02*
X-66525Y12850D01*
X-58875Y-16200D02*
X-59850Y-17175D01*
X-58875Y-14075D02*
X-58875Y-16200D01*
X-47650Y12025D02*
X-44065Y12025D01*
X-62350Y-3650D02*
X-58075Y-3650D01*
X-44525Y-5850D02*
X-42225Y-3550D01*
X-65450Y10515D02*
X-61490Y14475D01*
X-59850Y-17175D02*
X-66250Y-17175D01*
X-35050Y24075D02*
X-33575Y22600D01*
X-41005Y16125D02*
X-41005Y17635D01*
X-49900Y16475D02*
X-49135Y15710D01*
D11*
X-33975Y29575D03*
%LNbottom copper component 104f474019bc45ae*%
D12*
X-57600Y35425D03*
X-55060Y35425D03*
X-52520Y35425D03*
X-49980Y35425D03*
X-47440Y35425D03*
X-44900Y35425D03*
X-42360Y35425D03*
D13*
X-60140Y35425D03*
%LNbottom copper component 6423f2fbdbf0fd51*%
D14*
X-34000Y-4840D03*
X-34000Y-7380D03*
X-34000Y-9920D03*
X-34000Y-12460D03*
X-34000Y-15000D03*
X-34000Y-17540D03*
%LNbottom copper component 6ec8fa02dcc931b8*%
D15*
X-39600Y16980D03*
D16*
X-39600Y15710D03*
X-39600Y14440D03*
X-39600Y13170D03*
X-46600Y13170D03*
X-46600Y14440D03*
X-46600Y15710D03*
X-46600Y16980D03*
%LNbottom copper component 2e760206f6eb6219*%
D17*
X-58840Y2815D03*
X-61380Y2815D03*
X-63920Y2815D03*
X-66460Y2815D03*
X-69000Y2815D03*
D18*
X-56300Y2815D03*
%LNbottom copper component 725756eb9d5a0c3e*%
D19*
X-35110Y10420D03*
X-35110Y12960D03*
D20*
X-35110Y21945D03*
X-37610Y21945D03*
X-40210Y21945D03*
X-42710Y21945D03*
D21*
X-45310Y21945D03*
X-47810Y21945D03*
X-50410Y21945D03*
X-52910Y21945D03*
D20*
X-55510Y21945D03*
X-58010Y21945D03*
X-60510Y21945D03*
X-63010Y21945D03*
X-37610Y6705D03*
X-40210Y6705D03*
X-42710Y6705D03*
X-45210Y6705D03*
X-47810Y6705D03*
X-50410Y6705D03*
X-52910Y6705D03*
X-60510Y6705D03*
X-58010Y6705D03*
X-63050Y6705D03*
X-55410Y6705D03*
D22*
X-35110Y18300D03*
X-35110Y15635D03*
D23*
X-65590Y7975D03*
X-65590Y10515D03*
X-65590Y13055D03*
X-65590Y15595D03*
X-65590Y18135D03*
X-65590Y20675D03*
D24*
X-35110Y6705D03*
%LNbottom copper component e41e54bbfcc8de48*%
D25*
X-50245Y29675D03*
X-60405Y29675D03*
%LNbottom copper component bcffb8a9274f0d14*%
D26*
X-46525Y29725D03*
X-36365Y29725D03*
%LNbottom copper component 78a424b639101169*%
D27*
X-53725Y16475D03*
X-53725Y14475D03*
%LNbottom copper component 51561cf638072ae7*%
D21*
X-66525Y30525D03*
X-66525Y34525D03*
%LNbottom copper component 243e2b77924b8e62*%
D28*
X-39770Y35425D03*
D29*
X-37230Y35425D03*
%LNbottom copper component eb69e66ac07ddab8*%
D30*
X-38975Y-13050D03*
D31*
X-54225Y-1300D03*
X-51225Y-14300D03*
D30*
X-38975Y-4050D03*
D31*
X-43725Y-1300D03*
X-52725Y-14300D03*
D30*
X-38975Y-7050D03*
D31*
X-43725Y-14300D03*
X-58725Y-14300D03*
X-55725Y-14300D03*
D32*
X-58725Y-1300D03*
D31*
X-55725Y-1300D03*
X-48225Y-1300D03*
X-40725Y-14300D03*
X-45225Y-1300D03*
X-42225Y-14300D03*
X-51225Y-1300D03*
D30*
X-38975Y-11550D03*
D31*
X-57225Y-1300D03*
X-57225Y-14300D03*
X-42225Y-1300D03*
X-46725Y-14300D03*
X-46725Y-1300D03*
X-40725Y-1300D03*
X-52725Y-1300D03*
X-49725Y-1300D03*
D30*
X-38975Y-8550D03*
X-38975Y-10050D03*
D31*
X-45225Y-14300D03*
D30*
X-38975Y-5550D03*
D31*
X-49725Y-14300D03*
D30*
X-38975Y-2550D03*
D31*
X-48225Y-14300D03*
X-54225Y-14300D03*
M02*