%FSLAX33Y33*%
%MOMM*%
%AMRect-W1650000-H1650000-RO1.500*
21,1,1.65,1.65,0.,0.,90*%
%AMRect-W1650000-H1650000-RO0.500*
21,1,1.65,1.65,0.,0.,270*%
%AMRect-W2000000-H2000000-RO1.500*
21,1,2.,2.,0.,0.,90*%
%AMRect-W1400000-H1400000-RO1.000*
21,1,1.4,1.4,0.,0.,180*%
%ADD10C,0.3*%
%ADD11C,1.0668*%
%ADD12C,1.65*%
%ADD13Rect-W1650000-H1650000-RO1.500*%
%ADD14C,1.65*%
%ADD15C,1.65*%
%ADD16Rect-W1650000-H1650000-RO0.500*%
%ADD17C,2.*%
%ADD18C,2.*%
%ADD19C,1.6*%
%ADD20C,2.029999*%
%ADD21C,2.029999*%
%ADD22Rect-W2000000-H2000000-RO1.500*%
%ADD23C,1.35*%
%ADD24C,1.35*%
%ADD25C,1.4*%
%ADD26Rect-W1400000-H1400000-RO1.000*%
D10*
%LNtop copper_traces*%
G01*
X-37610Y21945D02*
X-37610Y25935D01*
X-65750Y13275D02*
X-67775Y15300D01*
X-46850Y35175D02*
X-37610Y25935D01*
X-39550Y35150D02*
X-36375Y31975D01*
X-65700Y10675D02*
X-69025Y14000D01*
X-51250Y36350D02*
X-50875Y36725D01*
X-37975Y18200D02*
X-36225Y19950D01*
X-33110Y4765D02*
X-33725Y4150D01*
X-67775Y15300D02*
X-67775Y31475D01*
X-32425Y4425D02*
X-32425Y12060D01*
X-50875Y36725D02*
X-46075Y36725D01*
X-63120Y4545D02*
X-63120Y6475D01*
X-42975Y-8550D02*
X-42975Y2450D01*
X-49075Y28625D02*
X-50125Y29675D01*
X-55150Y6225D02*
X-55150Y6825D01*
X-42800Y22035D02*
X-42800Y28273D01*
X-60405Y29675D02*
X-65675Y29675D01*
X-46852Y33777D02*
X-48600Y33777D01*
X-34975Y6975D02*
X-37975Y9975D01*
X-41275Y4150D02*
X-42975Y2450D01*
X-33025Y20850D02*
X-33025Y28750D01*
X-46525Y29450D02*
X-46800Y29725D01*
X-32425Y12060D02*
X-33325Y12960D01*
X-66300Y34800D02*
X-63650Y37450D01*
X-63725Y35525D02*
X-60150Y35525D01*
X-34355Y-9920D02*
X-33700Y-9920D01*
X-45210Y-10065D02*
X-45210Y6800D01*
X-66923Y34525D02*
X-66600Y34525D01*
X-65450Y10515D02*
X-59440Y10515D01*
X-47650Y19400D02*
X-46525Y20525D01*
X-50398Y32925D02*
X-51250Y33777D01*
X-45210Y-10065D02*
X-40225Y-15050D01*
X-38975Y-12550D02*
X-34175Y-12550D01*
X-47452Y32925D02*
X-42800Y28273D01*
X-41275Y4150D02*
X-33725Y4150D01*
X-50325Y19050D02*
X-49075Y20300D01*
X-35110Y21945D02*
X-35110Y25685D01*
X-45725Y-17500D02*
X-33915Y-17500D01*
X-59440Y10515D02*
X-55450Y6525D01*
X-42975Y-8550D02*
X-38975Y-12550D01*
X-61625Y3050D02*
X-63120Y4545D01*
X-33925Y19950D02*
X-33025Y20850D01*
X-49075Y20300D02*
X-49075Y28625D01*
X-55150Y35425D02*
X-55150Y37400D01*
X-35110Y25685D02*
X-42360Y32935D01*
X-69025Y14000D02*
X-69025Y32423D01*
X-42360Y32935D02*
X-42360Y35425D01*
X-60510Y6625D02*
X-56700Y2815D01*
X-36375Y29725D02*
X-36375Y31975D01*
X-33025Y28750D02*
X-33975Y29700D01*
X-67775Y31475D02*
X-63725Y35525D01*
X-46852Y33777D02*
X-40075Y27000D01*
X-33110Y4765D02*
X-33110Y8960D01*
X-39175Y37450D02*
X-37400Y35675D01*
X-69025Y32423D02*
X-66923Y34525D01*
X-33110Y8960D02*
X-34450Y10300D01*
X-47400Y34925D02*
X-47400Y35675D01*
X-55450Y6705D02*
X-53450Y4705D01*
X-40225Y-15050D02*
X-34225Y-15050D01*
X-46525Y20525D02*
X-46525Y29450D01*
X-46075Y36725D02*
X-44900Y35550D01*
X-48600Y33777D02*
X-49777Y34955D01*
X-50325Y7000D02*
X-50325Y19050D01*
X-65675Y29675D02*
X-66525Y30525D01*
X-50398Y32925D02*
X-47452Y32925D01*
X-66300Y34175D02*
X-66300Y34800D01*
X-33325Y12960D02*
X-35110Y12960D01*
X-38525Y-1675D02*
X-32425Y4425D01*
X-63650Y37450D02*
X-39175Y37450D01*
X-40075Y21945D02*
X-40075Y27000D01*
X-53450Y-9775D02*
X-45725Y-17500D01*
X-47650Y7125D02*
X-47650Y19400D01*
X-38525Y-5395D02*
X-38525Y-1675D01*
X-34445Y-7380D02*
X-33800Y-7380D01*
X-36225Y19950D02*
X-33925Y19950D01*
X-53450Y-9775D02*
X-53450Y4705D01*
X-51250Y33777D02*
X-51250Y36350D01*
X-37975Y9975D02*
X-37975Y18200D01*
X-38525Y-5395D02*
X-34000Y-9920D01*
D11*
X-33975Y29575D03*
%LNtop copper component 104f474019bc45ae*%
D12*
X-57600Y35425D03*
X-55060Y35425D03*
X-52520Y35425D03*
X-49980Y35425D03*
X-47440Y35425D03*
X-44900Y35425D03*
X-42360Y35425D03*
D13*
X-60140Y35425D03*
%LNtop copper component 6423f2fbdbf0fd51*%
D14*
X-34000Y-4840D03*
X-34000Y-7380D03*
X-34000Y-9920D03*
X-34000Y-12460D03*
X-34000Y-15000D03*
X-34000Y-17540D03*
%LNtop copper component 2e760206f6eb6219*%
D15*
X-58840Y2815D03*
X-61380Y2815D03*
X-63920Y2815D03*
X-66460Y2815D03*
X-69000Y2815D03*
D16*
X-56300Y2815D03*
%LNtop copper component 725756eb9d5a0c3e*%
D17*
X-35110Y10420D03*
X-35110Y12960D03*
D18*
X-35110Y21945D03*
X-37610Y21945D03*
X-40210Y21945D03*
X-42710Y21945D03*
D19*
X-45310Y21945D03*
X-47810Y21945D03*
X-50410Y21945D03*
X-52910Y21945D03*
D18*
X-55510Y21945D03*
X-58010Y21945D03*
X-60510Y21945D03*
X-63010Y21945D03*
X-37610Y6705D03*
X-40210Y6705D03*
X-42710Y6705D03*
X-45210Y6705D03*
X-47810Y6705D03*
X-50410Y6705D03*
X-52910Y6705D03*
X-60510Y6705D03*
X-58010Y6705D03*
X-63050Y6705D03*
X-55410Y6705D03*
D20*
X-35110Y18300D03*
X-35110Y15635D03*
D21*
X-65590Y7975D03*
X-65590Y10515D03*
X-65590Y13055D03*
X-65590Y15595D03*
X-65590Y18135D03*
X-65590Y20675D03*
D22*
X-35110Y6705D03*
%LNtop copper component e41e54bbfcc8de48*%
D23*
X-50245Y29675D03*
X-60405Y29675D03*
%LNtop copper component bcffb8a9274f0d14*%
D24*
X-46525Y29725D03*
X-36365Y29725D03*
%LNtop copper component 51561cf638072ae7*%
D19*
X-66525Y30525D03*
X-66525Y34525D03*
%LNtop copper component 243e2b77924b8e62*%
D25*
X-39770Y35425D03*
D26*
X-37230Y35425D03*
M02*