%FSLAX33Y33*%
%MOMM*%
%AMRect-W1405236-H517986-RO1.000*
21,1,1.405236,0.517986,0.,0.,180*%
%AMRR-H517986-W1405236-R258993-RO1.000*
21,1,0.88725,0.517986,0.,0.,180*
1,1,0.517986,0.443625,-0.*
1,1,0.517986,-0.443625,-0.*
1,1,0.517986,-0.443625,0.*
1,1,0.517986,0.443625,0.*%
%AMRect-W1000000-H1250000-RO0.500*
21,1,1.,1.25,0.,0.,270*%
%AMRR-H2000000-W1000000-R500000-RO0.500*
21,1,1.,1.,0.,0.,270*
1,1,1.,0.5,0.*
1,1,1.,0.5,-0.*
1,1,1.,-0.5,-0.*
1,1,1.,-0.5,0.*%
%AMRR-H1000000-W2000000-R500000-RO0.500*
21,1,1.,1.,0.,0.,270*
1,1,1.,0.,0.5*
1,1,1.,0.,-0.5*
1,1,1.,-0.,-0.5*
1,1,1.,-0.,0.5*%
%AMRect-W2000000-H1000000-RO0.500*
21,1,2.,1.,0.,0.,270*%
%ADD10Rect-W1405236-H517986-RO1.000*%
%ADD11RR-H517986-W1405236-R258993-RO1.000*%
%ADD12Rect-W1000000-H1250000-RO0.500*%
%ADD13RR-H2000000-W1000000-R500000-RO0.500*%
%ADD14RR-H1000000-W2000000-R500000-RO0.500*%
%ADD15Rect-W2000000-H1000000-RO0.500*%
D10*
%LNbottom paste_traces*%
%LNbottom paste component 6ec8fa02dcc931b8*%
G01*
X-39600Y16980D03*
D11*
X-39600Y15710D03*
X-39600Y14440D03*
X-39600Y13170D03*
X-46600Y13170D03*
X-46600Y14440D03*
X-46600Y15710D03*
X-46600Y16980D03*
%LNbottom paste component 78a424b639101169*%
D12*
X-53725Y16475D03*
X-53725Y14475D03*
%LNbottom paste component eb69e66ac07ddab8*%
D13*
X-38975Y-13050D03*
D14*
X-54225Y-1300D03*
X-51225Y-14300D03*
D13*
X-38975Y-4050D03*
D14*
X-43725Y-1300D03*
X-52725Y-14300D03*
D13*
X-38975Y-7050D03*
D14*
X-43725Y-14300D03*
X-58725Y-14300D03*
X-55725Y-14300D03*
D15*
X-58725Y-1300D03*
D14*
X-55725Y-1300D03*
X-48225Y-1300D03*
X-40725Y-14300D03*
X-45225Y-1300D03*
X-42225Y-14300D03*
X-51225Y-1300D03*
D13*
X-38975Y-11550D03*
D14*
X-57225Y-1300D03*
X-57225Y-14300D03*
X-42225Y-1300D03*
X-46725Y-14300D03*
X-46725Y-1300D03*
X-40725Y-1300D03*
X-52725Y-1300D03*
X-49725Y-1300D03*
D13*
X-38975Y-8550D03*
X-38975Y-10050D03*
D14*
X-45225Y-14300D03*
D13*
X-38975Y-5550D03*
D14*
X-49725Y-14300D03*
D13*
X-38975Y-2550D03*
D14*
X-48225Y-14300D03*
X-54225Y-14300D03*
M02*