%TF.GenerationSoftware,KiCad,Pcbnew,5.99.0-unknown-9424d66d22~106~ubuntu18.04.1*%
%TF.CreationDate,2021-01-09T19:56:30+08:00*%
%TF.ProjectId,Flashpads,466c6173-6870-4616-9473-2e6b69636164,rev?*%
%TF.SameCoordinates,Original*%
%TF.FileFunction,Soldermask,Top*%
%TF.FilePolarity,Negative*%
%FSLAX46Y46*%
G04 Gerber Fmt 4.6, Leading zero omitted, Abs format (unit mm)*
G04 Created by KiCad (PCBNEW 5.99.0-unknown-9424d66d22~106~ubuntu18.04.1) date 2021-01-09 19:56:30*
%MOMM*%
%LPD*%
G01*
G04 APERTURE LIST*
G04 Aperture macros list*
%AMRoundRect*
0 Rectangle with rounded corners*
0 $1 Rounding radius*
0 $2 $3 $4 $5 $6 $7 $8 $9 X,Y pos of 4 corners*
0 Add a 4 corners polygon primitive as box body*
4,1,4,$2,$3,$4,$5,$6,$7,$8,$9,$2,$3,0*
0 Add four circle primitives for the rounded corners*
1,1,$1+$1,$2,$3,0*
1,1,$1+$1,$4,$5,0*
1,1,$1+$1,$6,$7,0*
1,1,$1+$1,$8,$9,0*
0 Add four rect primitives between the rounded corners*
20,1,$1+$1,$2,$3,$4,$5,0*
20,1,$1+$1,$4,$5,$6,$7,0*
20,1,$1+$1,$6,$7,$8,$9,0*
20,1,$1+$1,$8,$9,$2,$3,0*%
%AMHorizOval*
0 Thick line with rounded ends*
0 $1 width*
0 $2 $3 position (X,Y) of the first rounded end (center of the circle)*
0 $4 $5 position (X,Y) of the second rounded end (center of the circle)*
0 Add line between two ends*
20,1,$1,$2,$3,$4,$5,0*
0 Add two circle primitives to create the rounded ends*
1,1,$1,$2,$3,0*
1,1,$1,$4,$5,0*%
%AMRotRect*
0 Rectangle, with rotation*
0 The origin of the aperture is its center*
0 $1 length*
0 $2 width*
0 $3 Rotation angle, in degrees counterclockwise*
0 Add horizontal line*
21,1,$1,$2,0,0,$3*%
%AMOutline4P*
0 Free polygon, 4 corners , with rotation*
0 The origin of the aperture is its center*
0 number of corners: always 4*
0 $1 to $8 corner X, Y*
0 $9 Rotation angle, in degrees counterclockwise*
0 create outline with 4 corners*
4,1,4,$1,$2,$3,$4,$5,$6,$7,$8,$1,$2,$9*%
%AMOutline5P*
0 Free polygon, 5 corners , with rotation*
0 The origin of the aperture is its center*
0 number of corners: always 8*
0 $1 to $10 corner X, Y*
0 $11 Rotation angle, in degrees counterclockwise*
0 create outline with 8 corners*
4,1,5,$1,$2,$3,$4,$5,$6,$7,$8,$9,$10,$1,$2,$11*%
%AMOutline6P*
0 Free polygon, 6 corners , with rotation*
0 The origin of the aperture is its center*
0 number of corners: always 6*
0 $1 to $12 corner X, Y*
0 $13 Rotation angle, in degrees counterclockwise*
0 create outline with 6 corners*
4,1,6,$1,$2,$3,$4,$5,$6,$7,$8,$9,$10,$11,$12,$1,$2,$13*%
%AMOutline7P*
0 Free polygon, 7 corners , with rotation*
0 The origin of the aperture is its center*
0 number of corners: always 7*
0 $1 to $14 corner X, Y*
0 $15 Rotation angle, in degrees counterclockwise*
0 create outline with 7 corners*
4,1,7,$1,$2,$3,$4,$5,$6,$7,$8,$9,$10,$11,$12,$13,$14,$1,$2,$15*%
%AMOutline8P*
0 Free polygon, 8 corners , with rotation*
0 The origin of the aperture is its center*
0 number of corners: always 8*
0 $1 to $16 corner X, Y*
0 $17 Rotation angle, in degrees counterclockwise*
0 create outline with 8 corners*
4,1,8,$1,$2,$3,$4,$5,$6,$7,$8,$9,$10,$11,$12,$13,$14,$15,$16,$1,$2,$17*%
G04 Aperture macros list end*
%ADD10R,1.430000X2.500000*%
%ADD11O,1.350000X1.700000*%
%ADD12O,1.100000X1.500000*%
%ADD13R,0.400000X1.650000*%
%ADD14R,2.000000X1.500000*%
%ADD15R,1.825000X0.700000*%
%ADD16R,1.350000X2.000000*%
%ADD17R,0.300000X0.700000*%
%ADD18C,0.650000*%
%ADD19C,0.950000*%
%ADD20C,1.400000*%
%ADD21O,1.100000X2.400000*%
%ADD22C,1.100000*%
%ADD23R,1.100000X1.100000*%
%ADD24O,1.200000X2.100000*%
%ADD25O,1.200000X2.400000*%
%ADD26C,1.200000*%
%ADD27RoundRect,0.125000X-0.353553X-0.530330X0.530330X0.353553X0.353553X0.530330X-0.530330X-0.353553X0*%
%ADD28RoundRect,0.125000X0.353553X-0.530330X0.530330X-0.353553X-0.353553X0.530330X-0.530330X0.353553X0*%
%ADD29RoundRect,0.125000X-0.529589X-0.354662X0.625260X0.123692X0.529589X0.354662X-0.625260X-0.123692X0*%
%ADD30RoundRect,0.125000X0.123692X-0.625260X0.354662X-0.529589X-0.123692X0.625260X-0.354662X0.529589X0*%
%ADD31RoundRect,0.125000X-0.125000X-0.625000X0.125000X-0.625000X0.125000X0.625000X-0.125000X0.625000X0*%
%ADD32RoundRect,0.125000X-0.625000X-0.125000X0.625000X-0.125000X0.625000X0.125000X-0.625000X0.125000X0*%
%ADD33R,0.600000X1.450000*%
%ADD34R,0.300000X1.450000*%
%ADD35O,1.000000X2.100000*%
%ADD36O,1.000000X1.600000*%
%ADD37R,1.200000X1.900000*%
%ADD38O,1.200000X1.900000*%
%ADD39R,1.500000X1.900000*%
%ADD40C,1.450000*%
%ADD41R,0.400000X1.350000*%
%ADD42RoundRect,0.250000X0.159099X-0.512652X0.512652X-0.159099X-0.159099X0.512652X-0.512652X0.159099X0*%
%ADD43RoundRect,0.250000X-0.250000X-0.475000X0.250000X-0.475000X0.250000X0.475000X-0.250000X0.475000X0*%
%ADD44RoundRect,0.250000X0.475000X-0.250000X0.475000X0.250000X-0.475000X0.250000X-0.475000X-0.250000X0*%
%ADD45C,2.000000*%
%ADD46HorizOval,2.000000X0.000000X0.000000X0.000000X0.000000X0*%
%ADD47HorizOval,1.500000X0.265165X0.265165X-0.265165X-0.265165X0*%
%ADD48RotRect,1.800000X1.800000X45.000000*%
%ADD49Outline4P,-0.950000X-0.800000X0.950000X-0.800000X0.650000X0.800000X-0.650000X0.800000X45.000000*%
%ADD50RoundRect,0.540000X0.000000X-0.509117X0.509117X0.000000X0.000000X0.509117X-0.509117X0.000000X0*%
%ADD51Outline6P,0.180000X-0.900000X-0.900000X-0.900000X-0.900000X0.180000X-0.180000X0.900000X0.900000X0.900000X0.900000X-0.180000X45.000000*%
%AMFp52*
4,1,19,0.180000,-0.899999,-0.360000,-0.899999,-0.472272,-0.888199,-0.610180,-0.838549,-0.729655,-0.753643,-0.821896,-0.639735,-0.880107,-0.505217,-0.899999,-0.360000,-0.899999,0.180000,-0.180000,0.899999,0.360000,0.899999,0.472272,0.888199,0.610180,0.838549,0.729655,0.753643,0.821896,0.639735,0.880107,0.505217,0.899999,0.360000,0.899999,-0.180000,0.180000,-0.899999,0.180000,-0.899999,$1*%
%ADD52Fp52,45.000000*%
%AMFp53*
4,1,19,0.179999,-0.900000,-0.360000,-0.900000,-0.472272,-0.888200,-0.610180,-0.838550,-0.729655,-0.753643,-0.821897,-0.639735,-0.880108,-0.505216,-0.900000,-0.359999,-0.900000,0.180000,-0.179999,0.900000,0.360000,0.900000,0.472272,0.888200,0.610180,0.838550,0.729655,0.753643,0.821897,0.639735,0.880108,0.505216,0.900000,0.359999,0.900000,-0.180000,0.179999,-0.900000,0.179999,-0.900000,$1*%
%ADD53Fp53,90.000000*%
%ADD54Outline6P,0.180000X-0.900000X-0.900000X-0.900000X-0.900000X0.180000X-0.180000X0.900000X0.900000X0.900000X0.900000X-0.180000X90.000000*%
%ADD55RoundRect,0.540000X0.360000X-0.360000X0.360000X0.360000X-0.360000X0.360000X-0.360000X-0.360000X0*%
%ADD56Outline4P,-0.950000X-0.800000X0.950000X-0.800000X0.650000X0.800000X-0.650000X0.800000X90.000000*%
%ADD57R,1.800000X1.800000*%
%ADD58O,1.500000X2.250000*%
%ADD59O,2.000000X2.000000*%
%AMFp60*
4,1,19,0.180000,-0.900000,-0.360000,-0.900000,-0.472272,-0.888200,-0.610180,-0.838550,-0.729655,-0.753643,-0.821897,-0.639735,-0.880108,-0.505217,-0.900000,-0.360000,-0.900000,0.180000,-0.180000,0.900000,0.360000,0.900000,0.472272,0.888200,0.610180,0.838550,0.729655,0.753643,0.821897,0.639735,0.880108,0.505217,0.900000,0.360000,0.900000,-0.180000,0.180000,-0.900000,0.180000,-0.900000,$1*%
%ADD60Fp60,0.000000*%
%ADD61Outline6P,0.180000X-0.900000X-0.900000X-0.900000X-0.900000X0.180000X-0.180000X0.900000X0.900000X0.900000X0.900000X-0.180000X0.000000*%
%ADD62RoundRect,0.540000X-0.360000X-0.360000X0.360000X-0.360000X0.360000X0.360000X-0.360000X0.360000X0*%
%ADD63Outline4P,-0.950000X-0.800000X0.950000X-0.800000X0.650000X0.800000X-0.650000X0.800000X0.000000*%
%ADD64O,2.250000X1.500000*%
G04 APERTURE END LIST*
D10*
%TO.C,REF\u002A\u002A*%
X63419000Y-66917000D03*
X61499000Y-66917000D03*
D11*
X65189000Y-66647000D03*
X59729000Y-66647000D03*
D12*
X64879000Y-63647000D03*
X60039000Y-63647000D03*
D13*
X63759000Y-63767000D03*
X63109000Y-63767000D03*
X62459000Y-63767000D03*
X61809000Y-63767000D03*
X61159000Y-63767000D03*
D14*
X65359000Y-63647000D03*
X59609000Y-63667000D03*
D15*
X65459000Y-64967000D03*
X59509000Y-64967000D03*
D16*
X59729000Y-65717000D03*
X65209000Y-65717000D03*
%TD*%
D17*
%TO.C,REF\u002A\u002A*%
X23670000Y-60053000D03*
X24170000Y-60053000D03*
X24670000Y-60053000D03*
X25170000Y-60053000D03*
X25670000Y-60053000D03*
X26170000Y-60053000D03*
X26670000Y-60053000D03*
X27170000Y-60053000D03*
X27670000Y-60053000D03*
X28170000Y-60053000D03*
X28670000Y-60053000D03*
D18*
X23070000Y-59013000D03*
D19*
X30270000Y-59013000D03*
D20*
X22180000Y-66213000D03*
X31160000Y-66213000D03*
X30800000Y-60263000D03*
D17*
X29170000Y-60053000D03*
X28920000Y-58353000D03*
X27420000Y-58353000D03*
X27920000Y-58353000D03*
X28420000Y-58353000D03*
X29420000Y-58353000D03*
X26920000Y-58353000D03*
X26420000Y-58353000D03*
X25920000Y-58353000D03*
X25420000Y-58353000D03*
X24920000Y-58353000D03*
X24420000Y-58353000D03*
X23920000Y-58353000D03*
D20*
X22540000Y-60263000D03*
%TD*%
D21*
%TO.C,REF\u002A\u002A*%
X78364000Y-66661000D03*
X71064000Y-66661000D03*
D22*
X76314000Y-67536000D03*
X75514000Y-65786000D03*
X74714000Y-67536000D03*
X73914000Y-65786000D03*
D23*
X73114000Y-67536000D03*
%TD*%
D24*
%TO.C,REF\u002A\u002A*%
X83968000Y-64392000D03*
X96768000Y-64392000D03*
D25*
X83968000Y-55892000D03*
X96768000Y-55892000D03*
D26*
X86368000Y-55142000D03*
X88368000Y-55142000D03*
X90368000Y-55142000D03*
X92368000Y-55142000D03*
X94368000Y-55142000D03*
X93868000Y-56642000D03*
X91368000Y-56642000D03*
X89368000Y-56642000D03*
X86868000Y-56642000D03*
%TD*%
D27*
%TO.C,IC3*%
X56154930Y-53423272D03*
X56720616Y-53988957D03*
X57286301Y-54554643D03*
X57851986Y-55120328D03*
X58417672Y-55686014D03*
X58983357Y-56251699D03*
X59549043Y-56817384D03*
X60114728Y-57383070D03*
D28*
X62059272Y-57383070D03*
X62624957Y-56817384D03*
X63190643Y-56251699D03*
X63756328Y-55686014D03*
X64322014Y-55120328D03*
X64887699Y-54554643D03*
X65453384Y-53988957D03*
X66019070Y-53423272D03*
D27*
X66019070Y-51478728D03*
X65453384Y-50913043D03*
X64887699Y-50347357D03*
X64322014Y-49781672D03*
X63756328Y-49215986D03*
X63190643Y-48650301D03*
X62624957Y-48084616D03*
X62059272Y-47518930D03*
D28*
X60114728Y-47518930D03*
X59549043Y-48084616D03*
X58983357Y-48650301D03*
X58417672Y-49215986D03*
X57851986Y-49781672D03*
X57286301Y-50347357D03*
X56720616Y-50913043D03*
X56154930Y-51478728D03*
%TD*%
D29*
%TO.C,IC2*%
X70255289Y-41936841D03*
X70561436Y-42675944D03*
X70867583Y-43415048D03*
X71173730Y-44154152D03*
X71479876Y-44893255D03*
X71786023Y-45632359D03*
X72092170Y-46371462D03*
X72398317Y-47110566D03*
D30*
X74194841Y-47854711D03*
X74933944Y-47548564D03*
X75673048Y-47242417D03*
X76412152Y-46936270D03*
X77151255Y-46630124D03*
X77890359Y-46323977D03*
X78629462Y-46017830D03*
X79368566Y-45711683D03*
D29*
X80112711Y-43915159D03*
X79806564Y-43176056D03*
X79500417Y-42436952D03*
X79194270Y-41697848D03*
X78888124Y-40958745D03*
X78581977Y-40219641D03*
X78275830Y-39480538D03*
X77969683Y-38741434D03*
D30*
X76173159Y-37997289D03*
X75434056Y-38303436D03*
X74694952Y-38609583D03*
X73955848Y-38915730D03*
X73216745Y-39221876D03*
X72477641Y-39528023D03*
X71738538Y-39834170D03*
X70999434Y-40140317D03*
%TD*%
D31*
%TO.C,IC1*%
X58287000Y-28972000D03*
X59087000Y-28972000D03*
X59887000Y-28972000D03*
X60687000Y-28972000D03*
X61487000Y-28972000D03*
X62287000Y-28972000D03*
X63087000Y-28972000D03*
X63887000Y-28972000D03*
D32*
X65262000Y-30347000D03*
X65262000Y-31147000D03*
X65262000Y-31947000D03*
X65262000Y-32747000D03*
X65262000Y-33547000D03*
X65262000Y-34347000D03*
X65262000Y-35147000D03*
X65262000Y-35947000D03*
D31*
X63887000Y-37322000D03*
X63087000Y-37322000D03*
X62287000Y-37322000D03*
X61487000Y-37322000D03*
X60687000Y-37322000D03*
X59887000Y-37322000D03*
X59087000Y-37322000D03*
X58287000Y-37322000D03*
D32*
X56912000Y-35947000D03*
X56912000Y-35147000D03*
X56912000Y-34347000D03*
X56912000Y-33547000D03*
X56912000Y-32747000D03*
X56912000Y-31947000D03*
X56912000Y-31147000D03*
X56912000Y-30347000D03*
%TD*%
D33*
%TO.C,REF\u002A\u002A*%
X42239000Y-60979000D03*
X41439000Y-60979000D03*
X36539000Y-60979000D03*
X35739000Y-60979000D03*
X35739000Y-60979000D03*
X36539000Y-60979000D03*
X41439000Y-60979000D03*
X42239000Y-60979000D03*
D34*
X37239000Y-60979000D03*
X37739000Y-60979000D03*
X38239000Y-60979000D03*
X39239000Y-60979000D03*
X39739000Y-60979000D03*
X40239000Y-60979000D03*
X40739000Y-60979000D03*
X38739000Y-60979000D03*
D35*
X43309000Y-61894000D03*
X34669000Y-61894000D03*
D18*
X36099000Y-62424000D03*
D36*
X34669000Y-66074000D03*
D18*
X41879000Y-62424000D03*
D36*
X43309000Y-66074000D03*
%TD*%
D37*
%TO.C,REF\u002A\u002A*%
X48154000Y-66769500D03*
X53954000Y-66769500D03*
D38*
X54554000Y-66769500D03*
X47554000Y-66769500D03*
D39*
X50054000Y-66769500D03*
D40*
X53554000Y-64069500D03*
D41*
X51054000Y-64069500D03*
X51704000Y-64069500D03*
X52354000Y-64069500D03*
X49754000Y-64069500D03*
X50404000Y-64069500D03*
D40*
X48554000Y-64069500D03*
D39*
X52054000Y-66769500D03*
%TD*%
D42*
%TO.C,C3*%
X62447249Y-24420751D03*
X63790751Y-23077249D03*
%TD*%
D43*
%TO.C,C2*%
X57343000Y-23749000D03*
X59243000Y-23749000D03*
%TD*%
D44*
%TO.C,C1*%
X54483000Y-22799000D03*
X54483000Y-24699000D03*
%TD*%
D45*
%TO.C,U2*%
X72390000Y-28956000D03*
D46*
X74186051Y-30752051D03*
D47*
X75982102Y-32548102D03*
D48*
X77778154Y-34344154D03*
D49*
X79574205Y-36140205D03*
D50*
X81370256Y-37936256D03*
D51*
X83166307Y-39732307D03*
D52*
X84962359Y-41528359D03*
G36*
X86375441Y-42340647D02*
G01*
X87141378Y-42340646D01*
X87141379Y-42340647D01*
X87183805Y-42358220D01*
X87724671Y-42899086D01*
X87737097Y-42929086D01*
X87742245Y-42941513D01*
X87742244Y-43707308D01*
X87724671Y-43749734D01*
X87183734Y-44290671D01*
X87183730Y-44290672D01*
X87183729Y-44290674D01*
X87165271Y-44298318D01*
X87141308Y-44308244D01*
X87141306Y-44308243D01*
X87141301Y-44308245D01*
X86375436Y-44308173D01*
X86357076Y-44300566D01*
X86333015Y-44290600D01*
X85792221Y-43749804D01*
X85792220Y-43749804D01*
X85774647Y-43707379D01*
X85774646Y-42941442D01*
X85781926Y-42923868D01*
X85792220Y-42899015D01*
X86333015Y-42358220D01*
X86375441Y-42340647D01*
G37*
G36*
X91416312Y-37173968D02*
G01*
X92123946Y-36880856D01*
X92123947Y-36880856D01*
X92169867Y-36880856D01*
X92876543Y-37173570D01*
X92899504Y-37196532D01*
X92909015Y-37206043D01*
X93202072Y-37913546D01*
X93202072Y-37959467D01*
X92909320Y-38666235D01*
X92909316Y-38666238D01*
X92909316Y-38666240D01*
X92895188Y-38680366D01*
X92876848Y-38698706D01*
X92876845Y-38698706D01*
X92876842Y-38698709D01*
X92169246Y-38991728D01*
X92149373Y-38991726D01*
X92123331Y-38991726D01*
X91416748Y-38699049D01*
X91416747Y-38699049D01*
X91384276Y-38666578D01*
X91091164Y-37958944D01*
X91091164Y-37939922D01*
X91091164Y-37913023D01*
X91383840Y-37206439D01*
X91416312Y-37173968D01*
G37*
D53*
X90350512Y-36140205D03*
D54*
X88554461Y-34344154D03*
D55*
X86758410Y-32548102D03*
D56*
X84962359Y-30752051D03*
D57*
X83166307Y-28956000D03*
D58*
X81370256Y-27159949D03*
D59*
X79574205Y-25363898D03*
D45*
X77778154Y-23567846D03*
G36*
X93178939Y-46916512D02*
G01*
X91764725Y-46916512D01*
X90350512Y-48330725D01*
X88936299Y-46916512D01*
X91057618Y-44795192D01*
X93178939Y-46916512D01*
G37*
G36*
X97738666Y-39528360D02*
G01*
X96738666Y-40528360D01*
X96738665Y-42528359D01*
X94738666Y-42528358D01*
X94738667Y-39528359D01*
X97738666Y-39528360D01*
G37*
%TD*%
%TO.C,U1*%
G36*
X50707427Y-51689000D02*
G01*
X49293213Y-51689000D01*
X47879000Y-53103213D01*
X46464787Y-51689000D01*
X48586106Y-49567680D01*
X50707427Y-51689000D01*
G37*
G36*
X42259000Y-53689000D02*
G01*
X41259000Y-52689000D01*
X39259000Y-52689000D01*
X39259000Y-50689000D01*
X42259000Y-50689000D01*
X42259000Y-53689000D01*
G37*
X47879000Y-26289000D03*
D46*
X47879000Y-28829000D03*
D47*
X47879000Y-31369000D03*
D48*
X47879000Y-33909000D03*
D49*
X47879000Y-36449000D03*
D50*
X47879000Y-38989000D03*
D51*
X47879000Y-41529000D03*
D52*
X47879000Y-44069000D03*
G36*
X47901652Y-45553615D02*
G01*
X48609286Y-45846726D01*
X48609287Y-45846727D01*
X48641759Y-45879198D01*
X48934473Y-46585874D01*
X48934473Y-46618345D01*
X48934473Y-46631796D01*
X48641415Y-47339299D01*
X48608944Y-47371771D01*
X47902176Y-47664523D01*
X47902172Y-47664523D01*
X47902170Y-47664525D01*
X47882192Y-47664523D01*
X47856255Y-47664523D01*
X47856254Y-47664521D01*
X47856249Y-47664521D01*
X47148708Y-47371371D01*
X47134657Y-47357317D01*
X47116241Y-47338902D01*
X46823566Y-46632318D01*
X46823565Y-46632317D01*
X46823565Y-46586398D01*
X47116676Y-45878764D01*
X47130127Y-45865313D01*
X47149148Y-45846291D01*
X47855732Y-45553615D01*
X47901652Y-45553615D01*
G37*
G36*
X40683826Y-45642574D02*
G01*
X41225426Y-46184173D01*
X41225426Y-46184174D01*
X41243000Y-46226600D01*
X41243000Y-46991500D01*
X41230573Y-47021500D01*
X41225426Y-47033927D01*
X40683926Y-47575426D01*
X40641500Y-47593000D01*
X39876500Y-47593000D01*
X39876496Y-47592998D01*
X39876494Y-47592999D01*
X39858037Y-47585352D01*
X39834074Y-47575426D01*
X39834073Y-47575424D01*
X39834069Y-47575422D01*
X39292570Y-47033822D01*
X39284967Y-47015461D01*
X39275000Y-46991400D01*
X39275001Y-46226600D01*
X39275001Y-46226599D01*
X39292574Y-46184174D01*
X39834173Y-45642574D01*
X39851747Y-45635295D01*
X39876600Y-45625000D01*
X40641400Y-45625000D01*
X40683826Y-45642574D01*
G37*
D60*
X40259000Y-44069000D03*
D61*
X40259000Y-41529000D03*
D62*
X40259000Y-38989000D03*
D63*
X40259000Y-36449000D03*
D57*
X40259000Y-33909000D03*
D64*
X40259000Y-31369000D03*
D59*
X40259000Y-28829000D03*
D45*
X40259000Y-26289000D03*
%TD*%
M02*
