%
M48
METRIC,000.000
T01C3.20
T100C0.76
T101C0.89
T102C0.80
T103C0.97
T104C0.90
T105C0.50
%
T01
X019018Y003481
X024017Y063481
X009018Y063481
X004017Y063481
X014017Y003481
X024017Y003481
X019018Y063481
X009018Y003481
X029018Y003481
X004017Y003481
X014017Y063481
X029018Y063481
X052018Y003481
X057017Y063481
X042018Y063481
X037017Y063481
X047017Y003481
X057017Y003481
X052018Y063481
X042018Y003481
X062018Y003481
X037017Y003481
X047017Y063481
X062018Y063481
X085018Y003481
X090017Y063481
X075018Y063481
X070017Y063481
X080017Y003481
X090017Y003481
X085018Y063481
X075018Y003481
X095018Y003481
X070017Y003481
X080017Y063481
X095018Y063481
X063518Y086018
X003518Y091017
X003518Y076018
X003518Y071017
X063518Y081017
X063518Y091017
X003518Y086018
X063518Y076018
X063518Y096018
X063518Y071017
X003518Y081017
X003518Y096018
T100
X003857Y038561
X003857Y036016
X008937Y025866
X008937Y023321
X036857Y038561
X036857Y036016
X041937Y025866
X041937Y023321
X069857Y038561
X069857Y036016
X074937Y025866
X074937Y023321
X028438Y070857
X030983Y070857
X041133Y075937
X043678Y075937
T101
X029257Y032211
X019097Y018241
X011477Y013161
X011477Y033481
X012747Y058881
X005762Y044911
X019097Y036021
X019097Y020781
X003222Y052531
X011477Y020781
X020367Y058881
X029257Y041251
X006397Y018241
X011477Y023321
X019097Y013161
X019097Y008080
X019097Y015701
X011477Y038561
X011477Y025861
X011477Y041101
X019097Y041101
X003222Y044911
X011477Y010621
X024177Y024591
X006397Y015701
X024759Y034751
X006397Y028401
X029257Y034751
X011477Y018241
X005762Y052531
X006397Y020781
X011477Y008080
X019097Y025861
X011477Y015701
X019097Y030941
X011477Y036021
X019097Y038561
X019097Y028401
X019097Y023321
X011477Y028401
X026717Y024591
X008302Y044911
X019097Y010621
X019097Y033481
X006397Y036021
X017827Y058881
X024759Y041251
X008302Y052531
X015287Y058881
X024177Y032211
X026717Y032211
X011477Y030941
X029257Y024591
X062257Y032211
X052097Y018241
X044477Y013161
X044477Y033481
X045747Y058881
X038762Y044911
X052097Y036021
X052097Y020781
X036222Y052531
X044477Y020781
X053367Y058881
X062257Y041251
X039397Y018241
X044477Y023321
X052097Y013161
X052097Y008080
X052097Y015701
X044477Y038561
X044477Y025861
X044477Y041101
X052097Y041101
X036222Y044911
X044477Y010621
X057177Y024591
X039397Y015701
X057759Y034751
X039397Y028401
X062257Y034751
X044477Y018241
X038762Y052531
X039397Y020781
X044477Y008080
X052097Y025861
X044477Y015701
X052097Y030941
X044477Y036021
X052097Y038561
X052097Y028401
X052097Y023321
X044477Y028401
X059717Y024591
X041302Y044911
X052097Y010621
X052097Y033481
X039397Y036021
X050827Y058881
X057759Y041251
X041302Y052531
X048287Y058881
X057177Y032211
X059717Y032211
X044477Y030941
X062257Y024591
X095257Y032211
X085097Y018241
X077477Y013161
X077477Y033481
X078747Y058881
X071762Y044911
X085097Y036021
X085097Y020781
X069222Y052531
X077477Y020781
X086367Y058881
X095257Y041251
X072397Y018241
X077477Y023321
X085097Y013161
X085097Y008080
X085097Y015701
X077477Y038561
X077477Y025861
X077477Y041101
X085097Y041101
X069222Y044911
X077477Y010621
X090177Y024591
X072397Y015701
X090759Y034751
X072397Y028401
X095257Y034751
X077477Y018241
X071762Y052531
X072397Y020781
X077477Y008080
X085097Y025861
X077477Y015701
X085097Y030941
X077477Y036021
X085097Y038561
X085097Y028401
X085097Y023321
X077477Y028401
X092717Y024591
X074302Y044911
X085097Y010621
X085097Y033481
X072397Y036021
X083827Y058881
X090759Y041251
X074302Y052531
X081287Y058881
X090177Y032211
X092717Y032211
X077477Y030941
X095257Y024591
X034788Y096257
X048758Y086097
X053838Y078477
X033518Y078477
X008118Y079747
X022088Y072762
X030978Y086097
X046218Y086097
X014468Y070222
X046218Y078477
X008118Y087367
X025748Y096257
X048758Y073397
X043678Y078477
X053838Y086097
X058918Y086097
X051298Y086097
X028438Y078477
X041138Y078477
X025898Y078477
X025898Y086097
X022088Y070222
X056378Y078477
X042408Y091177
X051298Y073397
X032247Y091759
X038598Y073397
X032247Y096257
X048758Y078477
X014468Y072762
X046218Y073397
X058918Y078477
X041138Y086097
X051298Y078477
X036058Y086097
X030978Y078477
X028438Y086097
X038598Y086097
X043678Y086097
X038598Y078477
X042408Y093717
X022088Y075302
X056378Y086097
X033518Y086097
X030978Y073397
X008118Y084827
X025748Y091759
X014468Y075302
X008118Y082287
X034788Y091177
X034788Y093717
X036058Y078477
X042408Y096257
T102
X024218Y020781
X024218Y010621
X026717Y015701
X026717Y020781
X026717Y010621
X024218Y015701
X057218Y020781
X057218Y010621
X059717Y015701
X059717Y020781
X059717Y010621
X057218Y015701
X090218Y020781
X090218Y010621
X092717Y015701
X092717Y020781
X092717Y010621
X090218Y015701
X046218Y091218
X056378Y091218
X051298Y093717
X046218Y093717
X056378Y093717
X051298Y091218
T103
X003857Y025861
X003857Y020781
X005762Y057611
X003857Y028401
X016557Y044911
X003222Y057611
X008302Y057611
X003857Y033481
X011477Y044911
X019097Y044911
X003857Y030941
X003857Y023321
X014017Y044911
X036857Y025861
X036857Y020781
X038762Y057611
X036857Y028401
X049557Y044911
X036222Y057611
X041302Y057611
X036857Y033481
X044477Y044911
X052097Y044911
X036857Y030941
X036857Y023321
X047017Y044911
X069857Y025861
X069857Y020781
X071762Y057611
X069857Y028401
X082557Y044911
X069222Y057611
X074302Y057611
X069857Y033481
X077477Y044911
X085097Y044911
X069857Y030941
X069857Y023321
X080017Y044911
X041138Y070857
X046218Y070857
X009388Y072762
X038598Y070857
X022088Y083557
X009388Y070222
X009388Y075302
X033518Y070857
X022088Y078477
X022088Y086097
X036058Y070857
X043678Y070857
X022088Y081017
T104
X021637Y025861
X003857Y015701
X006397Y010621
X021637Y028401
X006397Y013161
X021637Y010621
X021637Y030941
X008937Y033481
X008937Y028401
X021637Y023321
X021637Y008080
X008937Y008080
X008937Y010621
X021637Y038561
X008937Y030941
X054637Y025861
X036857Y015701
X039397Y010621
X054637Y028401
X039397Y013161
X054637Y010621
X054637Y030941
X041937Y033481
X041937Y028401
X054637Y023321
X054637Y008080
X041937Y008080
X041937Y010621
X054637Y038561
X041937Y030941
X087637Y025861
X069857Y015701
X072397Y010621
X087637Y028401
X072397Y013161
X087637Y010621
X087637Y030941
X074937Y033481
X074937Y028401
X087637Y023321
X087637Y008080
X074937Y008080
X074937Y010621
X087637Y038561
X074937Y030941
X041138Y088637
X051298Y070857
X056378Y073397
X038598Y088637
X053838Y073397
X056378Y088637
X036058Y088637
X033518Y075937
X038598Y075937
X043678Y088637
X058918Y088637
X058918Y075937
X056378Y075937
X028438Y088637
X036058Y075937
T105
X017961Y066248
X016961Y066248
X015961Y066248
X014961Y066248
X013961Y066248
X013858Y067750
X014858Y067750
X015858Y067750
X016858Y067750
X017858Y067750
X018858Y067750
X032212Y048180
X032212Y049180
X032212Y050180
X032212Y051180
X032212Y052180
X032212Y053180
X033750Y053141
X033750Y052141
X033750Y051141
X033750Y050141
X033750Y049141
X033750Y048141
X065212Y048180
X065212Y049180
X065212Y050180
X065212Y051180
X065212Y052180
X065212Y053180
X066750Y053141
X066750Y052141
X066750Y051141
X066750Y050141
X066750Y049141
X066750Y048141
X051961Y066248
X050961Y066248
X049961Y066248
X048961Y066248
X047961Y066248
X047858Y067750
X048858Y067750
X049858Y067750
X050858Y067750
X051858Y067750
X052858Y067750
X032212Y012180
X032212Y013180
X032212Y014180
X032212Y015180
X032212Y016180
X032212Y017180
X033750Y017141
X033750Y016140
X033750Y015141
X033750Y014141
X033750Y013141
X033750Y012141
X065212Y012180
X065212Y013180
X065212Y014180
X065212Y015180
X065212Y016180
X065212Y017180
X066750Y017141
X066750Y016140
X066750Y015141
X066750Y014141
X066750Y013141
X066750Y012141
M30