G04 file manually fixed for GerberTools #86 / #143*
%MOIN*%
%OFA0B0*%
%FSLAX23Y23*%
%IPPOS*%
%LPD*%
%ADD10C,0.008*%
%ADD21C,0.008*%
%ADD22C,0.008*%
%ADD23C,0.008*%
G90*
G54D10*
X00144Y02598D02*
X00145Y02598D01*
X00146Y02598D01*
X00147Y02598D01*
X00148Y02598D01*
X00149Y02598D01*
X00150Y02598D01*
X00151Y02598D01*
X00152Y02598D01*
X00153Y02598D01*
X00154Y02598D01*
X00155Y02598D01*
X00156Y02598D01*
X00157Y02598D01*
X00157Y02598D01*
X00159Y02598D01*
X00160Y02598D01*
X00160Y02598D01*
X00162Y02598D01*
X00163Y02598D01*
X00163Y02598D01*
X00165Y02598D01*
X00166Y02598D01*
X00166Y02598D01*
X00168Y02598D01*
X00169Y02598D01*
X00170Y02598D01*
X00171Y02598D01*
X00172Y02598D01*
X00173Y02598D01*
X00173Y02598D01*
X00175Y02598D01*
X00176Y02598D01*
X00176Y02598D01*
X00178Y02598D01*
X00179Y02598D01*
X00179Y02598D01*
X00181Y02598D01*
X00182Y02598D01*
X00182Y02598D01*
X00184Y02598D01*
X00185Y02598D01*
X00185Y02598D01*
X00187Y02598D01*
X00188Y02598D01*
X00189Y02598D01*
X00190Y02598D01*
X00191Y02598D01*
X00192Y02598D01*
X00193Y02598D01*
X00194Y02598D01*
X00195Y02598D01*
X00196Y02598D01*
X00197Y02598D01*
X00198Y02598D01*
X00199Y02598D01*
X00200Y02598D01*
X00201Y02598D01*
X00202Y02598D01*
X00203Y02598D01*
X00204Y02598D01*
X00204Y02598D01*
X00206Y02598D01*
X00207Y02598D01*
X00208Y02598D01*
X00209Y02598D01*
X00210Y02598D01*
X00211Y02598D01*
X00212Y02598D01*
X00213Y02598D01*
X00214Y02598D01*
X00215Y02598D01*
X00216Y02598D01*
X00217Y02598D01*
X00218Y02598D01*
X00219Y02598D01*
X00220Y02598D01*
X00221Y02598D01*
X00222Y02598D01*
X00223Y02598D01*
X00224Y02598D01*
X00225Y02598D01*
X00226Y02598D01*
X00227Y02598D01*
X00228Y02598D01*
X00229Y02598D01*
X00230Y02598D01*
X00231Y02598D01*
X00232Y02598D01*
X00233Y02598D01*
X00234Y02598D01*
X00235Y02598D01*
X00236Y02598D01*
X00237Y02598D01*
X00238Y02598D01*
X00239Y02598D01*
X00240Y02598D01*
X00241Y02598D01*
X00242Y02598D01*
X00243Y02598D01*
X00244Y02598D01*
X00245Y02598D01*
X00246Y02598D01*
X00247Y02598D01*
X00248Y02598D01*
X00249Y02598D01*
X00250Y02598D01*
X00251Y02598D01*
X00252Y02598D01*
X00253Y02598D01*
X00254Y02598D01*
X00255Y02598D01*
X00256Y02598D01*
X00257Y02598D01*
X00258Y02598D01*
X00259Y02598D01*
X00260Y02598D01*
X00261Y02598D01*
X00262Y02598D01*
X00263Y02598D01*
X00264Y02598D01*
X00265Y02598D01*
X00266Y02598D01*
X00267Y02598D01*
X00268Y02598D01*
X00269Y02598D01*
X00270Y02598D01*
X00271Y02598D01*
X00272Y02598D01*
X00273Y02598D01*
X00274Y02598D01*
X00275Y02598D01*
X00276Y02598D01*
X00277Y02598D01*
X00278Y02598D01*
X00279Y02598D01*
X00280Y02598D01*
X00281Y02598D01*
X00282Y02598D01*
X00283Y02598D01*
X00284Y02598D01*
X00285Y02598D01*
X00286Y02598D01*
X00287Y02598D01*
X00288Y02598D01*
X00289Y02598D01*
X00290Y02598D01*
X00291Y02598D01*
X00292Y02598D01*
X00293Y02598D01*
X00294Y02598D01*
X00295Y02598D01*
X00296Y02598D01*
X00297Y02598D01*
X00298Y02598D01*
X00299Y02598D01*
X00300Y02598D01*
X00301Y02598D01*
X00302Y02598D01*
X00303Y02598D01*
X00304Y02598D01*
X00305Y02598D01*
X00306Y02598D01*
X00307Y02598D01*
X00308Y02598D01*
X00309Y02598D01*
X00310Y02598D01*
X00311Y02598D01*
X00312Y02598D01*
X00313Y02598D01*
X00314Y02598D01*
X00315Y02598D01*
X00315Y02598D01*
X00317Y02598D01*
X00318Y02598D01*
X00318Y02598D01*
X00320Y02598D01*
X00321Y02598D01*
X00321Y02598D01*
X00323Y02598D01*
X00324Y02598D01*
X00324Y02598D01*
X00326Y02598D01*
X00327Y02598D01*
X00327Y02598D01*
X00329Y02598D01*
X00330Y02598D01*
X00330Y02598D01*
X00332Y02598D01*
X00333Y02598D01*
X00333Y02598D01*
X00335Y02598D01*
X00336Y02598D01*
X00336Y02598D01*
X00338Y02598D01*
X00339Y02598D01*
X00340Y02598D01*
X00341Y02598D01*
X00342Y02598D01*
X00343Y02598D01*
X00344Y02598D01*
X00344Y02598D01*
X00346Y02598D01*
X00347Y02598D01*
X00347Y02598D01*
X00349Y02598D01*
X00350Y02598D01*
X00350Y02598D01*
X00352Y02598D01*
X00353Y02598D01*
X00353Y02598D01*
X00355Y02598D01*
X00356Y02598D01*
X00356Y02598D01*
X00358Y02598D01*
X00359Y02598D01*
X00359Y02598D01*
X00361Y02598D01*
X00362Y02598D01*
X00362Y02598D01*
X00364Y02598D01*
X00365Y02598D01*
X00365Y02598D01*
X00367Y02598D01*
X00368Y02598D01*
X00368Y02598D01*
X00370Y02598D01*
X00371Y02598D01*
X00371Y02598D01*
X00373Y02598D01*
X00374Y02598D01*
X00374Y02598D01*
X00376Y02598D01*
X00377Y02598D01*
X00378Y02598D01*
X00379Y02598D01*
X00380Y02598D01*
X00381Y02598D01*
X00382Y02598D01*
X00383Y02598D01*
X00384Y02598D01*
X00385Y02598D01*
X00386Y02598D01*
X00387Y02598D01*
X00388Y02598D01*
X00389Y02598D01*
X00390Y02598D01*
X00391Y02598D01*
X00392Y02598D01*
X00393Y02598D01*
X00394Y02598D01*
X00395Y02598D01*
X00396Y02598D01*
X00397Y02598D01*
X00398Y02598D01*
X00399Y02598D01*
X00400Y02598D01*
X00401Y02598D01*
X00402Y02598D01*
X00403Y02598D01*
X00404Y02598D01*
X00405Y02598D01*
X00406Y02598D01*
X00406Y02598D01*
X00408Y02598D01*
X00409Y02598D01*
X00409Y02598D01*
X00411Y02598D01*
X00412Y02598D01*
X00413Y02598D01*
X00414Y02598D01*
X00415Y02598D01*
X00416Y02598D01*
X00417Y02598D01*
X00418Y02598D01*
X00419Y02598D01*
X00420Y02598D01*
X00421Y02598D01*
X00422Y02598D01*
X00423Y02598D01*
X00424Y02598D01*
X00425Y02598D01*
X00426Y02598D01*
X00427Y02598D01*
X00428Y02598D01*
X00429Y02598D01*
X00430Y02598D01*
X00431Y02598D01*
X00432Y02598D01*
X00433Y02598D01*
X00434Y02598D01*
X00435Y02598D01*
X00436Y02598D01*
X00437Y02598D01*
X00438Y02598D01*
X00439Y02598D01*
X00440Y02598D01*
X00441Y02598D01*
X00442Y02598D01*
X00443Y02598D01*
X00444Y02598D01*
X00445Y02598D01*
X00446Y02598D01*
X00447Y02598D01*
X00448Y02598D01*
X00449Y02598D01*
X00450Y02598D01*
X00451Y02598D01*
X00452Y02598D01*
X00453Y02598D01*
X00454Y02598D01*
X00455Y02598D01*
X00456Y02598D01*
X00457Y02598D01*
X00458Y02598D01*
X00459Y02598D01*
X00460Y02598D01*
X00461Y02598D01*
X00462Y02598D01*
X00463Y02598D01*
X00464Y02598D01*
X00465Y02598D01*
X00466Y02598D01*
X00467Y02598D01*
X00468Y02598D01*
X00469Y02598D01*
X00470Y02598D01*
X00471Y02598D01*
X00472Y02598D01*
X00473Y02598D01*
X00474Y02598D01*
X00475Y02598D01*
X00476Y02598D01*
X00477Y02598D01*
X00478Y02598D01*
X00479Y02598D01*
X00480Y02598D01*
X00481Y02598D01*
X00482Y02598D01*
X00483Y02598D01*
X00484Y02598D01*
X00485Y02598D01*
X00486Y02598D01*
X00487Y02598D01*
X00488Y02598D01*
X00489Y02598D01*
X00490Y02598D01*
X00491Y02598D01*
X00492Y02598D01*
X00493Y02598D01*
X00494Y02598D01*
X00495Y02598D01*
X00496Y02598D01*
X00497Y02598D01*
X00498Y02598D01*
X00499Y02598D01*
X00500Y02598D01*
X00501Y02598D01*
X00502Y02598D01*
X00503Y02598D01*
X00504Y02598D01*
X00505Y02598D01*
X00506Y02598D01*
X00507Y02598D01*
X00508Y02598D01*
X00509Y02598D01*
X00510Y02598D01*
X00511Y02598D01*
X00512Y02598D01*
X00513Y02598D01*
X00514Y02598D01*
X00515Y02598D01*
X00516Y02598D01*
X00517Y02598D01*
X00518Y02598D01*
X00519Y02598D01*
X00520Y02598D01*
X00521Y02598D01*
X00522Y02598D01*
X00523Y02598D01*
X00524Y02598D01*
X00525Y02598D01*
X00526Y02598D01*
X00527Y02598D01*
X00528Y02598D01*
X00529Y02598D01*
X00530Y02598D01*
X00531Y02598D01*
X00532Y02598D01*
X00533Y02598D01*
X00534Y02598D01*
X00535Y02598D01*
X00536Y02598D01*
X00537Y02598D01*
X00538Y02598D01*
X00539Y02598D01*
X00540Y02598D01*
X00541Y02598D01*
X00542Y02598D01*
X00543Y02598D01*
X00544Y02598D01*
X00545Y02598D01*
X00546Y02598D01*
X00547Y02598D01*
X00548Y02598D01*
X00549Y02598D01*
X00550Y02598D01*
X00551Y02598D01*
X00552Y02598D01*
X00553Y02598D01*
X00554Y02598D01*
X00555Y02598D01*
X00556Y02598D01*
X00557Y02598D01*
X00558Y02598D01*
X00559Y02598D01*
X00560Y02598D01*
X00561Y02598D01*
X00562Y02598D01*
X00563Y02598D01*
X00564Y02598D01*
X00565Y02598D01*
X00566Y02598D01*
X00567Y02598D01*
X00568Y02598D01*
X00569Y02598D01*
X00570Y02598D01*
X00571Y02598D01*
X00572Y02598D01*
X00573Y02598D01*
X00574Y02598D01*
X00575Y02598D01*
X00576Y02598D01*
X00577Y02598D01*
X00578Y02598D01*
X00579Y02598D01*
X00580Y02598D01*
X00581Y02598D01*
X00582Y02598D01*
X00583Y02598D01*
X00584Y02598D01*
X00585Y02598D01*
X00586Y02598D01*
X00587Y02598D01*
X00588Y02598D01*
X00589Y02598D01*
X00590Y02598D01*
X00591Y02598D01*
X00592Y02598D01*
X00593Y02598D01*
X00594Y02598D01*
X00595Y02598D01*
X00596Y02598D01*
X00597Y02598D01*
X00598Y02598D01*
X00599Y02598D01*
X00600Y02598D01*
X00601Y02598D01*
X00602Y02598D01*
X00603Y02598D01*
X00604Y02598D01*
X00605Y02598D01*
X00606Y02598D01*
X00607Y02598D01*
X00608Y02598D01*
X00609Y02598D01*
X00610Y02598D01*
X00611Y02598D01*
X00612Y02598D01*
X00613Y02598D01*
X00614Y02598D01*
X00615Y02598D01*
X00616Y02598D01*
X00617Y02598D01*
X00618Y02598D01*
X00619Y02598D01*
X00620Y02598D01*
X00621Y02598D01*
X00622Y02598D01*
X00623Y02598D01*
X00624Y02598D01*
X00625Y02598D01*
X00626Y02598D01*
X00627Y02598D01*
X00628Y02598D01*
X00629Y02598D01*
X00630Y02598D01*
X00631Y02598D01*
X00631Y02598D01*
X00633Y02598D01*
X00634Y02598D01*
X00634Y02598D01*
X00636Y02598D01*
X00637Y02598D01*
X00637Y02598D01*
X00639Y02598D01*
X00640Y02598D01*
X00640Y02598D01*
X00642Y02598D01*
X00643Y02598D01*
X00643Y02598D01*
X00645Y02598D01*
X00646Y02598D01*
X00646Y02598D01*
X00648Y02598D01*
X00649Y02598D01*
X00649Y02598D01*
X00651Y02598D01*
X00652Y02598D01*
X00652Y02598D01*
X00654Y02598D01*
X00655Y02598D01*
X00655Y02598D01*
X00657Y02598D01*
X00658Y02598D01*
X00658Y02598D01*
X00660Y02598D01*
X00661Y02598D01*
X00661Y02598D01*
X00663Y02598D01*
X00664Y02598D01*
X00664Y02598D01*
X00666Y02598D01*
X00667Y02598D01*
X00667Y02598D01*
X00669Y02598D01*
X00670Y02598D01*
X00670Y02598D01*
X00672Y02598D01*
X00673Y02598D01*
X00673Y02598D01*
X00675Y02598D01*
X00676Y02598D01*
X00677Y02598D01*
X00678Y02598D01*
X00679Y02598D01*
X00680Y02598D01*
X00681Y02598D01*
X00682Y02598D01*
X00683Y02598D01*
X00684Y02598D01*
X00685Y02598D01*
X00686Y02598D01*
X00687Y02598D01*
X00688Y02598D01*
X00689Y02598D01*
X00689Y02598D01*
X00691Y02598D01*
X00692Y02598D01*
X00692Y02598D01*
X00694Y02598D01*
X00695Y02598D01*
X00695Y02598D01*
X00697Y02598D01*
X00698Y02598D01*
X00698Y02598D01*
X00700Y02598D01*
X00701Y02598D01*
X00701Y02598D01*
X00703Y02598D01*
X00704Y02598D01*
X00704Y02598D01*
X00706Y02598D01*
X00707Y02598D01*
X00707Y02598D01*
X00709Y02598D01*
X00710Y02598D01*
X00710Y02598D01*
X00712Y02598D01*
X00713Y02598D01*
X00713Y02598D01*
X00715Y02598D01*
X00716Y02598D01*
X00716Y02598D01*
X00718Y02598D01*
X00719Y02598D01*
X00719Y02598D01*
X00721Y02598D01*
X00722Y02598D01*
X00722Y02598D01*
X00724Y02598D01*
X00725Y02598D01*
X00725Y02598D01*
X00727Y02598D01*
X00728Y02598D01*
X00728Y02598D01*
X00730Y02598D01*
X00731Y02598D01*
X00731Y02598D01*
X00733Y02598D01*
X00734Y02598D01*
X00734Y02598D01*
X00736Y02598D01*
X00737Y02598D01*
X00737Y02598D01*
X00739Y02598D01*
X00740Y02598D01*
X00740Y02598D01*
X00742Y02598D01*
X00743Y02598D01*
X00743Y02598D01*
X00745Y02598D01*
X00746Y02598D01*
X00746Y02598D01*
X00748Y02598D01*
X00749Y02598D01*
X00749Y02598D01*
X00751Y02598D01*
X00752Y02598D01*
X00753Y02598D01*
X00754Y02598D01*
X00755Y02598D01*
X00756Y02598D01*
X00757Y02598D01*
X00758Y02598D01*
X00759Y02598D01*
X00760Y02598D01*
X00761Y02598D01*
X00762Y02598D01*
X00763Y02598D01*
X00764Y02598D01*
X00765Y02598D01*
X00766Y02598D01*
X00767Y02598D01*
X00768Y02598D01*
X00769Y02598D01*
X00770Y02598D01*
X00771Y02598D01*
X00772Y02598D01*
X00773Y02598D01*
X00774Y02598D01*
X00775Y02598D01*
X00776Y02598D01*
X00777Y02598D01*
X00778Y02598D01*
X00779Y02598D01*
X00780Y02598D01*
X00781Y02598D01*
X00782Y02598D01*
X00783Y02598D01*
X00784Y02598D01*
X00785Y02598D01*
X00786Y02598D01*
X00787Y02598D01*
X00788Y02598D01*
X00789Y02598D01*
X00790Y02598D01*
X00791Y02598D01*
X00792Y02598D01*
X00793Y02598D01*
X00794Y02598D01*
X00795Y02598D01*
X00796Y02598D01*
X00797Y02598D01*
X00798Y02598D01*
X00799Y02598D01*
X00800Y02598D01*
X00801Y02598D01*
X00802Y02598D01*
X00803Y02598D01*
X00804Y02598D01*
X00805Y02598D01*
X00806Y02598D01*
X00807Y02598D01*
X00808Y02598D01*
X00809Y02598D01*
X00810Y02598D01*
X00811Y02598D01*
X00812Y02598D01*
X00813Y02598D01*
X00813Y02598D01*
X00815Y02598D01*
X00816Y02598D01*
X00816Y02598D01*
X00818Y02598D01*
X00819Y02598D01*
X00819Y02598D01*
X00821Y02598D01*
X00822Y02598D01*
X00822Y02598D01*
X00824Y02598D01*
X00825Y02598D01*
X00826Y02598D01*
X00827Y02598D01*
X00828Y02598D01*
X00829Y02598D01*
X00830Y02598D01*
X00831Y02598D01*
X00832Y02598D01*
X00833Y02598D01*
X00834Y02598D01*
X00835Y02598D01*
X00836Y02598D01*
X00837Y02598D01*
X00838Y02598D01*
X00839Y02598D01*
X00840Y02598D01*
X00841Y02598D01*
X00842Y02598D01*
X00843Y02598D01*
X00844Y02598D01*
X00845Y02598D01*
X00846Y02598D01*
X00847Y02598D01*
X00848Y02598D01*
X00849Y02598D01*
X00850Y02598D01*
X00851Y02598D01*
X00852Y02598D01*
X00853Y02598D01*
X00854Y02598D01*
X00855Y02598D01*
X00856Y02598D01*
X00857Y02598D01*
X00858Y02598D01*
X00859Y02598D01*
X00860Y02598D01*
X00861Y02598D01*
X00862Y02598D01*
X00863Y02598D01*
X00864Y02598D01*
X00865Y02598D01*
X00866Y02598D01*
X00867Y02598D01*
X00868Y02598D01*
X00869Y02598D01*
X00870Y02598D01*
X00871Y02598D01*
X00872Y02598D01*
X00873Y02598D01*
X00874Y02598D01*
X00875Y02598D01*
X00876Y02598D01*
X00877Y02598D01*
X00878Y02598D01*
X00879Y02598D01*
X00880Y02598D01*
X00881Y02598D01*
X00882Y02598D01*
X00883Y02598D01*
X00884Y02598D01*
X00885Y02598D01*
X00886Y02598D01*
X00887Y02598D01*
X00888Y02598D01*
X00889Y02598D01*
X00890Y02598D01*
X00891Y02598D01*
X00892Y02598D01*
X00893Y02598D01*
X00894Y02598D01*
X00895Y02598D01*
X00896Y02598D01*
X00897Y02598D01*
X00898Y02598D01*
X00899Y02598D01*
X00900Y02598D01*
X00901Y02598D01*
X00902Y02598D01*
X00903Y02598D01*
X00904Y02598D01*
X00905Y02598D01*
X00906Y02598D01*
X00907Y02598D01*
X00908Y02598D01*
X00909Y02598D01*
X00910Y02598D01*
X00911Y02598D01*
X00912Y02598D01*
X00913Y02598D01*
X00914Y02598D01*
X00915Y02598D01*
X00916Y02598D01*
X00917Y02598D01*
X00918Y02598D01*
X00919Y02598D01*
X00920Y02598D01*
X00921Y02598D01*
X00922Y02598D01*
X00923Y02598D01*
X00924Y02598D01*
X00925Y02598D01*
X00926Y02598D01*
X00927Y02598D01*
X00928Y02598D01*
X00929Y02598D01*
X00930Y02598D01*
X00931Y02598D01*
X00932Y02598D01*
X00933Y02598D01*
X00934Y02598D01*
X00935Y02598D01*
X00936Y02598D01*
X00937Y02598D01*
X00938Y02598D01*
X00939Y02598D01*
X00940Y02598D01*
X00941Y02598D01*
X00942Y02598D01*
X00943Y02598D01*
X00944Y02598D01*
X00945Y02598D01*
X00946Y02598D01*
X00947Y02598D01*
X00948Y02598D01*
X00949Y02598D01*
X00950Y02598D01*
X00951Y02598D01*
X00952Y02598D01*
X00953Y02598D01*
X00954Y02598D01*
X00955Y02598D01*
X00956Y02598D01*
X00957Y02598D01*
X00958Y02598D01*
X00959Y02598D01*
X00960Y02598D01*
X00961Y02598D01*
X00962Y02598D01*
X00963Y02598D01*
X00964Y02598D01*
X00965Y02598D01*
X00966Y02598D01*
X00967Y02598D01*
X00968Y02598D01*
X00969Y02598D01*
X00970Y02598D01*
X00971Y02598D01*
X00972Y02598D01*
X00973Y02598D01*
X00974Y02598D01*
X00975Y02598D01*
X00976Y02598D01*
X00977Y02598D01*
X00978Y02598D01*
X00979Y02598D01*
X00980Y02598D01*
X00981Y02598D01*
X00982Y02598D01*
X00983Y02598D01*
X00984Y02598D01*
X00985Y02598D01*
X00986Y02598D01*
X00987Y02598D01*
X00988Y02598D01*
X00989Y02598D01*
X00990Y02598D01*
X00991Y02598D01*
X00992Y02598D01*
X00993Y02598D01*
X00994Y02598D01*
X00995Y02598D01*
X00996Y02598D01*
X00997Y02598D01*
X00998Y02598D01*
X00999Y02598D01*
X01000Y02598D01*
X01000Y02598D01*
X01002Y02598D01*
X01002Y02598D01*
X01004Y02598D01*
X01004Y02598D01*
X01006Y02598D01*
X01006Y02598D01*
X01008Y02598D01*
X01008Y02598D01*
X01010Y02598D01*
X01010Y02598D01*
X01012Y02598D01*
X01012Y02598D01*
X01014Y02598D01*
X01014Y02598D01*
X01016Y02598D01*
X01016Y02598D01*
X01018Y02598D01*
X01018Y02598D01*
X01020Y02598D01*
X01020Y02598D01*
X01022Y02598D01*
X01022Y02598D01*
X01024Y02598D01*
X01025Y02598D01*
X01026Y02598D01*
X01027Y02598D01*
X01028Y02598D01*
X01029Y02598D01*
X01030Y02598D01*
X01031Y02598D01*
X01032Y02598D01*
X01033Y02598D01*
X01034Y02598D01*
X01035Y02598D01*
X01036Y02598D01*
X01037Y02598D01*
X01038Y02598D01*
X01039Y02598D01*
X01040Y02598D01*
X01041Y02598D01*
X01042Y02598D01*
X01043Y02598D01*
X01044Y02598D01*
X01045Y02598D01*
X01046Y02598D01*
X01047Y02598D01*
X01048Y02598D01*
X01049Y02598D01*
X01050Y02598D01*
X01051Y02598D01*
X01052Y02598D01*
X01053Y02598D01*
X01054Y02598D01*
X01055Y02598D01*
X01056Y02598D01*
X01057Y02598D01*
X01058Y02598D01*
X01059Y02598D01*
X01060Y02598D01*
X01061Y02598D01*
X01062Y02598D01*
X01063Y02598D01*
X01064Y02598D01*
X01065Y02598D01*
X01066Y02598D01*
X01067Y02598D01*
X01068Y02598D01*
X01069Y02598D01*
X01070Y02598D01*
X01071Y02598D01*
X01072Y02598D01*
X01073Y02598D01*
X01074Y02598D01*
X01075Y02598D01*
X01076Y02598D01*
X01077Y02598D01*
X01078Y02598D01*
X01079Y02598D01*
X01080Y02598D01*
X01081Y02598D01*
X01082Y02598D01*
X01083Y02598D01*
X01084Y02598D01*
X01085Y02598D01*
X01086Y02598D01*
X01087Y02598D01*
X01088Y02598D01*
X01089Y02598D01*
X01090Y02598D01*
X01091Y02598D01*
X01092Y02598D01*
X01093Y02598D01*
X01094Y02598D01*
X01095Y02598D01*
X01096Y02598D01*
X01097Y02598D01*
X01098Y02598D01*
X01099Y02598D01*
X01100Y02598D01*
X01101Y02598D01*
X01102Y02598D01*
X01103Y02598D01*
X01104Y02598D01*
X01105Y02598D01*
X01106Y02598D01*
X01107Y02598D01*
X01108Y02598D01*
X01109Y02598D01*
X01110Y02598D01*
X01111Y02598D01*
X01112Y02598D01*
X01113Y02598D01*
X01114Y02598D01*
X01115Y02598D01*
X01116Y02598D01*
X01117Y02598D01*
X01118Y02598D01*
X01119Y02598D01*
X01120Y02598D01*
X01121Y02598D01*
X01122Y02598D01*
X01123Y02598D01*
X01124Y02598D01*
X01125Y02598D01*
X01126Y02598D01*
X01127Y02598D01*
X01128Y02598D01*
X01129Y02598D01*
X01130Y02598D01*
X01131Y02598D01*
X01132Y02598D01*
X01133Y02598D01*
X01134Y02598D01*
X01135Y02598D01*
X01136Y02598D01*
X01137Y02598D01*
X01138Y02598D01*
X01139Y02598D01*
X01140Y02598D01*
X01141Y02598D01*
X01142Y02598D01*
X01143Y02598D01*
X01144Y02598D01*
X01145Y02598D01*
X01146Y02598D01*
X01147Y02598D01*
X01148Y02598D01*
X01149Y02598D01*
X01150Y02598D01*
X01151Y02598D01*
X01152Y02598D01*
X01153Y02598D01*
X01154Y02597D01*
X01155Y02597D01*
X01156Y02597D01*
X01157Y02597D01*
X01158Y02597D01*
X01159Y02597D01*
X01160Y02597D01*
X01161Y02597D01*
X01162Y02596D01*
X01163Y02596D01*
X01164Y02596D01*
X01165Y02596D01*
X01166Y02596D01*
X01167Y02595D01*
X01168Y02595D01*
X01169Y02595D01*
X01170Y02595D01*
X01171Y02595D01*
X01172Y02594D01*
X01173Y02594D01*
X01174Y02594D01*
X01175Y02593D01*
X01176Y02593D01*
X01177Y02593D01*
X01178Y02593D01*
X01179Y02592D01*
X01180Y02592D01*
X01181Y02592D01*
X01182Y02591D01*
X01183Y02591D01*
X01184Y02590D01*
X01185Y02590D01*
X01186Y02590D01*
X01187Y02589D01*
X01188Y02589D01*
X01189Y02587D01*
X01190Y02587D01*
X01191Y02587D01*
X01192Y02587D01*
X01193Y02587D01*
X01194Y02586D01*
X01195Y02586D01*
X01196Y02585D01*
X01197Y02585D01*
X01198Y02584D01*
X01199Y02583D01*
X01200Y02583D01*
X01201Y02582D01*
X01202Y02582D01*
X01203Y02581D01*
X01204Y02581D01*
X01205Y02580D01*
X01206Y02579D01*
X01207Y02579D01*
X01208Y02578D01*
X01209Y02577D01*
X01210Y02575D01*
X01211Y02575D01*
X01212Y02575D01*
X01213Y02574D01*
X01214Y02574D01*
X01215Y02573D01*
X01216Y02572D01*
X01217Y02571D01*
X01218Y02570D01*
X01219Y02569D01*
X01220Y02568D01*
X01221Y02567D01*
X01222Y02567D01*
X01223Y02566D01*
X01224Y02565D01*
X01225Y02563D01*
X01226Y02563D01*
X01227Y02562D01*
X01227Y02561D01*
X01228Y02560D01*
X01229Y02559D01*
X01230Y02558D01*
X01231Y02557D01*
X01232Y02556D01*
X01233Y02555D01*
X01234Y02554D01*
X01234Y02553D01*
X01235Y02551D01*
X01236Y02551D01*
X01237Y02550D01*
X01237Y02549D01*
X01238Y02548D01*
X01239Y02547D01*
X01239Y02546D01*
X01240Y02545D01*
X01241Y02544D01*
X01241Y02543D01*
X01242Y02542D01*
X01242Y02541D01*
X01243Y02539D01*
X01244Y02539D01*
X01244Y02538D01*
X01245Y02537D01*
X01245Y02536D01*
X01246Y02535D01*
X01246Y02534D01*
X01247Y02533D01*
X01247Y02532D01*
X01248Y02531D01*
X01248Y02530D01*
X01249Y02529D01*
X01249Y02527D01*
X01250Y02526D01*
X01250Y02525D01*
X01251Y02524D01*
X01251Y02522D01*
X01252Y02521D01*
X01252Y02519D01*
X01253Y02518D01*
X01253Y02516D01*
X01254Y02515D01*
X01254Y02512D01*
X01255Y02511D01*
X01255Y02508D01*
X01256Y02507D01*
X01256Y02502D01*
X01257Y02501D01*
X01257Y02494D01*
X01258Y02493D01*
X01258Y00145D01*
X01257Y00144D01*
X01257Y00137D01*
X01256Y00136D01*
X01256Y00131D01*
X01255Y00130D01*
X01255Y00127D01*
X01254Y00126D01*
X01254Y00123D01*
X01253Y00122D01*
X01253Y00120D01*
X01252Y00119D01*
X01252Y00117D01*
X01251Y00116D01*
X01251Y00114D01*
X01250Y00113D01*
X01250Y00112D01*
X01249Y00111D01*
X01249Y00109D01*
X01248Y00108D01*
X01248Y00107D01*
X01247Y00106D01*
X01247Y00105D01*
X01246Y00104D01*
X01246Y00103D01*
X01245Y00102D01*
X01245Y00101D01*
X01244Y00100D01*
X01244Y00099D01*
X01243Y00098D01*
X01242Y00097D01*
X01242Y00096D01*
X01241Y00095D01*
X01241Y00094D01*
X01240Y00092D01*
X01239Y00092D01*
X01239Y00091D01*
X01238Y00089D01*
X01237Y00089D01*
X01237Y00088D01*
X01236Y00086D01*
X01235Y00086D01*
X01234Y00085D01*
X01234Y00084D01*
X01233Y00083D01*
X01232Y00081D01*
X01231Y00081D01*
X01230Y00080D01*
X01229Y00078D01*
X01228Y00078D01*
X01227Y00077D01*
X01227Y00076D01*
X01226Y00075D01*
X01225Y00074D01*
X01224Y00073D01*
X01223Y00072D01*
X01222Y00071D01*
X01221Y00071D01*
X01220Y00070D01*
X01219Y00069D01*
X01218Y00068D01*
X01217Y00067D01*
X01216Y00066D01*
X01215Y00065D01*
X01214Y00064D01*
X01213Y00064D01*
X01212Y00063D01*
X01211Y00062D01*
X01210Y00062D01*
X01209Y00061D01*
X01208Y00060D01*
X01207Y00059D01*
X01206Y00059D01*
X01205Y00058D01*
X01204Y00057D01*
X01203Y00057D01*
X01202Y00056D01*
X01201Y00056D01*
X01200Y00055D01*
X01199Y00055D01*
X01198Y00054D01*
X01197Y00053D01*
X01196Y00053D01*
X01195Y00052D01*
X01194Y00052D01*
X01193Y00051D01*
X01192Y00051D01*
X01191Y00051D01*
X01190Y00050D01*
X01189Y00050D01*
X01188Y00049D01*
X01187Y00049D01*
X01186Y00048D01*
X01185Y00048D01*
X01184Y00048D01*
X01183Y00047D01*
X01182Y00047D01*
X01181Y00046D01*
X01180Y00046D01*
X01179Y00046D01*
X01178Y00044D01*
X01177Y00044D01*
X01176Y00044D01*
X01175Y00044D01*
X01174Y00044D01*
X01173Y00044D01*
X01172Y00044D01*
X01171Y00043D01*
X01170Y00043D01*
X01169Y00043D01*
X01168Y00043D01*
X01167Y00043D01*
X01166Y00042D01*
X01165Y00042D01*
X01164Y00042D01*
X01163Y00042D01*
X01162Y00042D01*
X01161Y00040D01*
X01160Y00040D01*
X01159Y00040D01*
X01158Y00040D01*
X01157Y00040D01*
X01156Y00040D01*
X01155Y00040D01*
X01154Y00040D01*
X01153Y00040D01*
X01152Y00040D01*
X01151Y00040D01*
X01150Y00040D01*
X01149Y00040D01*
X01148Y00040D01*
X01147Y00040D01*
X01146Y00040D01*
X01145Y00040D01*
X01144Y00040D01*
X01143Y00040D01*
X01142Y00040D01*
X01141Y00040D01*
X01140Y00040D01*
X01139Y00040D01*
X01138Y00040D01*
X01137Y00040D01*
X01136Y00040D01*
X01135Y00040D01*
X01134Y00040D01*
X01133Y00040D01*
X01132Y00040D01*
X01131Y00040D01*
X01130Y00040D01*
X01129Y00040D01*
X01128Y00040D01*
X01127Y00040D01*
X01126Y00040D01*
X01125Y00040D01*
X01124Y00040D01*
X01123Y00040D01*
X01122Y00040D01*
X01121Y00040D01*
X01120Y00040D01*
X01119Y00040D01*
X01118Y00040D01*
X01117Y00040D01*
X01116Y00040D01*
X01115Y00040D01*
X01114Y00040D01*
X01113Y00040D01*
X01112Y00040D01*
X01111Y00040D01*
X01110Y00040D01*
X01109Y00040D01*
X01108Y00040D01*
X01107Y00040D01*
X01106Y00040D01*
X01105Y00040D01*
X01104Y00040D01*
X01103Y00040D01*
X01102Y00040D01*
X01101Y00040D01*
X01100Y00040D01*
X01099Y00040D01*
X01098Y00040D01*
X01097Y00040D01*
X01096Y00040D01*
X01095Y00040D01*
X01094Y00040D01*
X01093Y00040D01*
X01092Y00040D01*
X01091Y00040D01*
X01090Y00040D01*
X01089Y00040D01*
X01088Y00040D01*
X01087Y00040D01*
X01086Y00040D01*
X01085Y00040D01*
X01084Y00040D01*
X01083Y00040D01*
X01082Y00040D01*
X01081Y00040D01*
X01080Y00040D01*
X01079Y00040D01*
X01078Y00040D01*
X01077Y00040D01*
X01076Y00040D01*
X01075Y00040D01*
X01074Y00040D01*
X01073Y00040D01*
X01072Y00040D01*
X01071Y00040D01*
X01070Y00040D01*
X01069Y00040D01*
X01068Y00040D01*
X01067Y00040D01*
X01066Y00040D01*
X01065Y00040D01*
X01064Y00040D01*
X01063Y00040D01*
X01062Y00040D01*
X01061Y00040D01*
X01060Y00040D01*
X01059Y00040D01*
X01058Y00040D01*
X01057Y00040D01*
X01056Y00040D01*
X01055Y00040D01*
X01054Y00040D01*
X01053Y00040D01*
X01052Y00040D01*
X01051Y00040D01*
X01050Y00040D01*
X01049Y00040D01*
X01048Y00040D01*
X01047Y00040D01*
X01046Y00040D01*
X01045Y00040D01*
X01044Y00040D01*
X01043Y00040D01*
X01042Y00040D01*
X01041Y00040D01*
X01040Y00040D01*
X01039Y00040D01*
X01038Y00040D01*
X01037Y00040D01*
X01036Y00040D01*
X01035Y00040D01*
X01034Y00040D01*
X01033Y00040D01*
X01032Y00040D01*
X01031Y00040D01*
X01030Y00040D01*
X01029Y00040D01*
X01028Y00040D01*
X01027Y00040D01*
X01026Y00040D01*
X01025Y00040D01*
X01024Y00040D01*
X01022Y00040D01*
X01022Y00040D01*
X01020Y00040D01*
X01020Y00040D01*
X01018Y00040D01*
X01018Y00040D01*
X01016Y00040D01*
X01016Y00040D01*
X01014Y00040D01*
X01014Y00040D01*
X01012Y00040D01*
X01012Y00040D01*
X01010Y00040D01*
X01010Y00040D01*
X01008Y00040D01*
X01008Y00040D01*
X01006Y00040D01*
X01006Y00040D01*
X01004Y00040D01*
X01004Y00040D01*
X01002Y00040D01*
X01002Y00040D01*
X01000Y00040D01*
X01000Y00040D01*
X00999Y00040D01*
X00998Y00040D01*
X00997Y00040D01*
X00996Y00040D01*
X00995Y00040D01*
X00994Y00040D01*
X00993Y00040D01*
X00992Y00040D01*
X00991Y00040D01*
X00990Y00040D01*
X00989Y00040D01*
X00988Y00040D01*
X00987Y00040D01*
X00986Y00040D01*
X00985Y00040D01*
X00984Y00040D01*
X00983Y00040D01*
X00982Y00040D01*
X00981Y00040D01*
X00980Y00040D01*
X00979Y00040D01*
X00978Y00040D01*
X00977Y00040D01*
X00976Y00040D01*
X00975Y00040D01*
X00974Y00040D01*
X00973Y00040D01*
X00972Y00040D01*
X00971Y00040D01*
X00970Y00040D01*
X00969Y00040D01*
X00968Y00040D01*
X00967Y00040D01*
X00966Y00040D01*
X00965Y00040D01*
X00964Y00040D01*
X00963Y00040D01*
X00962Y00040D01*
X00961Y00040D01*
X00960Y00040D01*
X00959Y00040D01*
X00958Y00040D01*
X00957Y00040D01*
X00956Y00040D01*
X00955Y00040D01*
X00954Y00040D01*
X00953Y00040D01*
X00952Y00040D01*
X00951Y00040D01*
X00950Y00040D01*
X00949Y00040D01*
X00948Y00040D01*
X00947Y00040D01*
X00946Y00040D01*
X00945Y00040D01*
X00944Y00040D01*
X00943Y00040D01*
X00942Y00040D01*
X00941Y00040D01*
X00940Y00040D01*
X00939Y00040D01*
X00938Y00040D01*
X00937Y00040D01*
X00936Y00040D01*
X00935Y00040D01*
X00934Y00040D01*
X00933Y00040D01*
X00932Y00040D01*
X00931Y00040D01*
X00930Y00040D01*
X00929Y00040D01*
X00928Y00040D01*
X00927Y00040D01*
X00926Y00040D01*
X00925Y00040D01*
X00924Y00040D01*
X00923Y00040D01*
X00922Y00040D01*
X00921Y00040D01*
X00920Y00040D01*
X00919Y00040D01*
X00918Y00040D01*
X00917Y00040D01*
X00916Y00040D01*
X00915Y00040D01*
X00914Y00040D01*
X00913Y00040D01*
X00912Y00040D01*
X00911Y00040D01*
X00910Y00040D01*
X00909Y00040D01*
X00908Y00040D01*
X00907Y00040D01*
X00906Y00040D01*
X00905Y00040D01*
X00904Y00040D01*
X00903Y00040D01*
X00902Y00040D01*
X00901Y00040D01*
X00900Y00040D01*
X00899Y00040D01*
X00898Y00040D01*
X00897Y00040D01*
X00896Y00040D01*
X00895Y00040D01*
X00894Y00040D01*
X00893Y00040D01*
X00892Y00040D01*
X00891Y00040D01*
X00890Y00040D01*
X00889Y00040D01*
X00888Y00040D01*
X00887Y00040D01*
X00886Y00040D01*
X00885Y00040D01*
X00884Y00040D01*
X00883Y00040D01*
X00882Y00040D01*
X00881Y00040D01*
X00880Y00040D01*
X00879Y00040D01*
X00878Y00040D01*
X00877Y00040D01*
X00876Y00040D01*
X00875Y00040D01*
X00874Y00040D01*
X00873Y00040D01*
X00872Y00040D01*
X00871Y00040D01*
X00870Y00040D01*
X00869Y00040D01*
X00868Y00040D01*
X00867Y00040D01*
X00866Y00040D01*
X00865Y00040D01*
X00864Y00040D01*
X00863Y00040D01*
X00862Y00040D01*
X00861Y00040D01*
X00860Y00040D01*
X00859Y00040D01*
X00858Y00040D01*
X00857Y00040D01*
X00856Y00040D01*
X00855Y00040D01*
X00854Y00040D01*
X00853Y00040D01*
X00852Y00040D01*
X00851Y00040D01*
X00850Y00040D01*
X00849Y00040D01*
X00848Y00040D01*
X00847Y00040D01*
X00846Y00040D01*
X00845Y00040D01*
X00844Y00040D01*
X00843Y00040D01*
X00842Y00040D01*
X00841Y00040D01*
X00840Y00040D01*
X00839Y00040D01*
X00838Y00040D01*
X00837Y00040D01*
X00836Y00040D01*
X00835Y00040D01*
X00834Y00040D01*
X00833Y00040D01*
X00832Y00040D01*
X00831Y00040D01*
X00830Y00040D01*
X00829Y00040D01*
X00828Y00040D01*
X00827Y00040D01*
X00826Y00040D01*
X00825Y00040D01*
X00824Y00040D01*
X00822Y00040D01*
X00822Y00040D01*
X00821Y00040D01*
X00819Y00040D01*
X00819Y00040D01*
X00818Y00040D01*
X00816Y00040D01*
X00816Y00040D01*
X00815Y00040D01*
X00813Y00040D01*
X00813Y00040D01*
X00812Y00040D01*
X00811Y00040D01*
X00810Y00040D01*
X00809Y00040D01*
X00808Y00040D01*
X00807Y00040D01*
X00806Y00040D01*
X00805Y00040D01*
X00804Y00040D01*
X00803Y00040D01*
X00802Y00040D01*
X00801Y00040D01*
X00800Y00040D01*
X00799Y00040D01*
X00798Y00040D01*
X00797Y00040D01*
X00796Y00040D01*
X00795Y00040D01*
X00794Y00040D01*
X00793Y00040D01*
X00792Y00040D01*
X00791Y00040D01*
X00790Y00040D01*
X00789Y00040D01*
X00788Y00040D01*
X00787Y00040D01*
X00786Y00040D01*
X00785Y00040D01*
X00784Y00040D01*
X00783Y00040D01*
X00782Y00040D01*
X00781Y00040D01*
X00780Y00040D01*
X00779Y00040D01*
X00778Y00040D01*
X00777Y00040D01*
X00776Y00040D01*
X00775Y00040D01*
X00774Y00040D01*
X00773Y00040D01*
X00772Y00040D01*
X00771Y00040D01*
X00770Y00040D01*
X00769Y00040D01*
X00768Y00040D01*
X00767Y00040D01*
X00766Y00040D01*
X00765Y00040D01*
X00764Y00040D01*
X00763Y00040D01*
X00762Y00040D01*
X00761Y00040D01*
X00760Y00040D01*
X00759Y00040D01*
X00758Y00040D01*
X00757Y00040D01*
X00756Y00040D01*
X00755Y00040D01*
X00754Y00040D01*
X00753Y00040D01*
X00752Y00040D01*
X00751Y00040D01*
X00749Y00040D01*
X00749Y00040D01*
X00748Y00040D01*
X00746Y00040D01*
X00746Y00040D01*
X00745Y00040D01*
X00743Y00040D01*
X00743Y00040D01*
X00742Y00040D01*
X00740Y00040D01*
X00740Y00040D01*
X00739Y00040D01*
X00737Y00040D01*
X00737Y00040D01*
X00736Y00040D01*
X00734Y00040D01*
X00734Y00040D01*
X00733Y00040D01*
X00731Y00040D01*
X00731Y00040D01*
X00730Y00040D01*
X00728Y00040D01*
X00728Y00040D01*
X00727Y00040D01*
X00725Y00040D01*
X00725Y00040D01*
X00724Y00040D01*
X00722Y00040D01*
X00722Y00040D01*
X00721Y00040D01*
X00719Y00040D01*
X00719Y00040D01*
X00718Y00040D01*
X00716Y00040D01*
X00716Y00040D01*
X00715Y00040D01*
X00713Y00040D01*
X00713Y00040D01*
X00712Y00040D01*
X00710Y00040D01*
X00710Y00040D01*
X00709Y00040D01*
X00707Y00040D01*
X00707Y00040D01*
X00706Y00040D01*
X00704Y00040D01*
X00704Y00040D01*
X00703Y00040D01*
X00701Y00040D01*
X00701Y00040D01*
X00700Y00040D01*
X00698Y00040D01*
X00698Y00040D01*
X00697Y00040D01*
X00695Y00040D01*
X00695Y00040D01*
X00694Y00040D01*
X00692Y00040D01*
X00692Y00040D01*
X00691Y00040D01*
X00689Y00040D01*
X00689Y00040D01*
X00688Y00040D01*
X00687Y00040D01*
X00686Y00040D01*
X00685Y00040D01*
X00684Y00040D01*
X00683Y00040D01*
X00682Y00040D01*
X00681Y00040D01*
X00680Y00040D01*
X00679Y00040D01*
X00678Y00040D01*
X00677Y00040D01*
X00676Y00040D01*
X00675Y00040D01*
X00673Y00040D01*
X00673Y00040D01*
X00672Y00040D01*
X00670Y00040D01*
X00670Y00040D01*
X00669Y00040D01*
X00667Y00040D01*
X00667Y00040D01*
X00666Y00040D01*
X00664Y00040D01*
X00664Y00040D01*
X00663Y00040D01*
X00661Y00040D01*
X00661Y00040D01*
X00660Y00040D01*
X00658Y00040D01*
X00658Y00040D01*
X00657Y00040D01*
X00655Y00040D01*
X00655Y00040D01*
X00654Y00040D01*
X00652Y00040D01*
X00652Y00040D01*
X00651Y00040D01*
X00649Y00040D01*
X00649Y00040D01*
X00648Y00040D01*
X00646Y00040D01*
X00646Y00040D01*
X00645Y00040D01*
X00643Y00040D01*
X00643Y00040D01*
X00642Y00040D01*
X00640Y00040D01*
X00640Y00040D01*
X00639Y00040D01*
X00637Y00040D01*
X00637Y00040D01*
X00636Y00040D01*
X00634Y00040D01*
X00634Y00040D01*
X00633Y00040D01*
X00631Y00040D01*
X00631Y00040D01*
X00630Y00040D01*
X00629Y00040D01*
X00628Y00040D01*
X00627Y00040D01*
X00626Y00040D01*
X00625Y00040D01*
X00624Y00040D01*
X00623Y00040D01*
X00622Y00040D01*
X00621Y00040D01*
X00620Y00040D01*
X00619Y00040D01*
X00618Y00040D01*
X00617Y00040D01*
X00616Y00040D01*
X00615Y00040D01*
X00614Y00040D01*
X00613Y00040D01*
X00612Y00040D01*
X00611Y00040D01*
X00610Y00040D01*
X00609Y00040D01*
X00608Y00040D01*
X00607Y00040D01*
X00606Y00040D01*
X00605Y00040D01*
X00604Y00040D01*
X00603Y00040D01*
X00602Y00040D01*
X00601Y00040D01*
X00600Y00040D01*
X00599Y00040D01*
X00598Y00040D01*
X00597Y00040D01*
X00596Y00040D01*
X00595Y00040D01*
X00594Y00040D01*
X00593Y00040D01*
X00592Y00040D01*
X00591Y00040D01*
X00590Y00040D01*
X00589Y00040D01*
X00588Y00040D01*
X00587Y00040D01*
X00586Y00040D01*
X00585Y00040D01*
X00584Y00040D01*
X00583Y00040D01*
X00582Y00040D01*
X00581Y00040D01*
X00580Y00040D01*
X00579Y00040D01*
X00578Y00040D01*
X00577Y00040D01*
X00576Y00040D01*
X00575Y00040D01*
X00574Y00040D01*
X00573Y00040D01*
X00572Y00040D01*
X00571Y00040D01*
X00570Y00040D01*
X00569Y00040D01*
X00568Y00040D01*
X00567Y00040D01*
X00566Y00040D01*
X00565Y00040D01*
X00564Y00040D01*
X00563Y00040D01*
X00562Y00040D01*
X00561Y00040D01*
X00560Y00040D01*
X00559Y00040D01*
X00558Y00040D01*
X00557Y00040D01*
X00556Y00040D01*
X00555Y00040D01*
X00554Y00040D01*
X00553Y00040D01*
X00552Y00040D01*
X00551Y00040D01*
X00550Y00040D01*
X00549Y00040D01*
X00548Y00040D01*
X00547Y00040D01*
X00546Y00040D01*
X00545Y00040D01*
X00544Y00040D01*
X00543Y00040D01*
X00542Y00040D01*
X00541Y00040D01*
X00540Y00040D01*
X00539Y00040D01*
X00538Y00040D01*
X00537Y00040D01*
X00536Y00040D01*
X00535Y00040D01*
X00534Y00040D01*
X00533Y00040D01*
X00532Y00040D01*
X00531Y00040D01*
X00530Y00040D01*
X00529Y00040D01*
X00528Y00040D01*
X00527Y00040D01*
X00526Y00040D01*
X00525Y00040D01*
X00524Y00040D01*
X00523Y00040D01*
X00522Y00040D01*
X00521Y00040D01*
X00520Y00040D01*
X00519Y00040D01*
X00518Y00040D01*
X00517Y00040D01*
X00516Y00040D01*
X00515Y00040D01*
X00514Y00040D01*
X00513Y00040D01*
X00512Y00040D01*
X00511Y00040D01*
X00510Y00040D01*
X00509Y00040D01*
X00508Y00040D01*
X00507Y00040D01*
X00506Y00040D01*
X00505Y00040D01*
X00504Y00040D01*
X00503Y00040D01*
X00502Y00040D01*
X00501Y00040D01*
X00500Y00040D01*
X00499Y00040D01*
X00498Y00040D01*
X00497Y00040D01*
X00496Y00040D01*
X00495Y00040D01*
X00494Y00040D01*
X00493Y00040D01*
X00492Y00040D01*
X00491Y00040D01*
X00490Y00040D01*
X00489Y00040D01*
X00488Y00040D01*
X00487Y00040D01*
X00486Y00040D01*
X00485Y00040D01*
X00484Y00040D01*
X00483Y00040D01*
X00482Y00040D01*
X00481Y00040D01*
X00480Y00040D01*
X00479Y00040D01*
X00478Y00040D01*
X00477Y00040D01*
X00476Y00040D01*
X00475Y00040D01*
X00474Y00040D01*
X00473Y00040D01*
X00472Y00040D01*
X00471Y00040D01*
X00470Y00040D01*
X00469Y00040D01*
X00468Y00040D01*
X00467Y00040D01*
X00466Y00040D01*
X00465Y00040D01*
X00464Y00040D01*
X00463Y00040D01*
X00462Y00040D01*
X00461Y00040D01*
X00460Y00040D01*
X00459Y00040D01*
X00458Y00040D01*
X00457Y00040D01*
X00456Y00040D01*
X00455Y00040D01*
X00454Y00040D01*
X00453Y00040D01*
X00452Y00040D01*
X00451Y00040D01*
X00450Y00040D01*
X00449Y00040D01*
X00448Y00040D01*
X00447Y00040D01*
X00446Y00040D01*
X00445Y00040D01*
X00444Y00040D01*
X00443Y00040D01*
X00442Y00040D01*
X00441Y00040D01*
X00440Y00040D01*
X00439Y00040D01*
X00438Y00040D01*
X00437Y00040D01*
X00436Y00040D01*
X00435Y00040D01*
X00434Y00040D01*
X00433Y00040D01*
X00432Y00040D01*
X00431Y00040D01*
X00430Y00040D01*
X00429Y00040D01*
X00428Y00040D01*
X00427Y00040D01*
X00426Y00040D01*
X00425Y00040D01*
X00424Y00040D01*
X00423Y00040D01*
X00422Y00040D01*
X00421Y00040D01*
X00420Y00040D01*
X00419Y00040D01*
X00418Y00040D01*
X00417Y00040D01*
X00416Y00040D01*
X00415Y00040D01*
X00414Y00040D01*
X00413Y00040D01*
X00412Y00040D01*
X00411Y00040D01*
X00409Y00040D01*
X00409Y00040D01*
X00408Y00040D01*
X00406Y00040D01*
X00406Y00040D01*
X00405Y00040D01*
X00404Y00040D01*
X00403Y00040D01*
X00402Y00040D01*
X00401Y00040D01*
X00400Y00040D01*
X00399Y00040D01*
X00398Y00040D01*
X00397Y00040D01*
X00396Y00040D01*
X00395Y00040D01*
X00394Y00040D01*
X00393Y00040D01*
X00392Y00040D01*
X00391Y00040D01*
X00390Y00040D01*
X00389Y00040D01*
X00388Y00040D01*
X00387Y00040D01*
X00386Y00040D01*
X00385Y00040D01*
X00384Y00040D01*
X00383Y00040D01*
X00382Y00040D01*
X00381Y00040D01*
X00380Y00040D01*
X00379Y00040D01*
X00378Y00040D01*
X00377Y00040D01*
X00376Y00040D01*
X00374Y00040D01*
X00374Y00040D01*
X00373Y00040D01*
X00371Y00040D01*
X00371Y00040D01*
X00370Y00040D01*
X00368Y00040D01*
X00368Y00040D01*
X00367Y00040D01*
X00365Y00040D01*
X00365Y00040D01*
X00364Y00040D01*
X00362Y00040D01*
X00362Y00040D01*
X00361Y00040D01*
X00359Y00040D01*
X00359Y00040D01*
X00358Y00040D01*
X00356Y00040D01*
X00356Y00040D01*
X00355Y00040D01*
X00353Y00040D01*
X00353Y00040D01*
X00352Y00040D01*
X00350Y00040D01*
X00350Y00040D01*
X00349Y00040D01*
X00347Y00040D01*
X00347Y00040D01*
X00346Y00040D01*
X00344Y00040D01*
X00344Y00040D01*
X00343Y00040D01*
X00342Y00040D01*
X00341Y00040D01*
X00340Y00040D01*
X00339Y00040D01*
X00338Y00040D01*
X00336Y00040D01*
X00336Y00040D01*
X00335Y00040D01*
X00333Y00040D01*
X00333Y00040D01*
X00332Y00040D01*
X00330Y00040D01*
X00330Y00040D01*
X00329Y00040D01*
X00327Y00040D01*
X00327Y00040D01*
X00326Y00040D01*
X00324Y00040D01*
X00324Y00040D01*
X00323Y00040D01*
X00321Y00040D01*
X00321Y00040D01*
X00320Y00040D01*
X00318Y00040D01*
X00318Y00040D01*
X00317Y00040D01*
X00315Y00040D01*
X00315Y00040D01*
X00314Y00040D01*
X00313Y00040D01*
X00312Y00040D01*
X00311Y00040D01*
X00310Y00040D01*
X00309Y00040D01*
X00308Y00040D01*
X00307Y00040D01*
X00306Y00040D01*
X00305Y00040D01*
X00304Y00040D01*
X00303Y00040D01*
X00302Y00040D01*
X00301Y00040D01*
X00300Y00040D01*
X00299Y00040D01*
X00298Y00040D01*
X00297Y00040D01*
X00296Y00040D01*
X00295Y00040D01*
X00294Y00040D01*
X00293Y00040D01*
X00292Y00040D01*
X00291Y00040D01*
X00290Y00040D01*
X00289Y00040D01*
X00288Y00040D01*
X00287Y00040D01*
X00286Y00040D01*
X00285Y00040D01*
X00284Y00040D01*
X00283Y00040D01*
X00282Y00040D01*
X00281Y00040D01*
X00280Y00040D01*
X00279Y00040D01*
X00278Y00040D01*
X00277Y00040D01*
X00276Y00040D01*
X00275Y00040D01*
X00274Y00040D01*
X00273Y00040D01*
X00272Y00040D01*
X00271Y00040D01*
X00270Y00040D01*
X00269Y00040D01*
X00268Y00040D01*
X00267Y00040D01*
X00266Y00040D01*
X00265Y00040D01*
X00264Y00040D01*
X00263Y00040D01*
X00262Y00040D01*
X00261Y00040D01*
X00260Y00040D01*
X00259Y00040D01*
X00258Y00040D01*
X00257Y00040D01*
X00256Y00040D01*
X00255Y00040D01*
X00254Y00040D01*
X00253Y00040D01*
X00252Y00040D01*
X00251Y00040D01*
X00250Y00040D01*
X00249Y00040D01*
X00248Y00040D01*
X00247Y00040D01*
X00246Y00040D01*
X00245Y00040D01*
X00244Y00040D01*
X00243Y00040D01*
X00242Y00040D01*
X00241Y00040D01*
X00240Y00040D01*
X00239Y00040D01*
X00238Y00040D01*
X00237Y00040D01*
X00236Y00040D01*
X00235Y00040D01*
X00234Y00040D01*
X00233Y00040D01*
X00232Y00040D01*
X00231Y00040D01*
X00230Y00040D01*
X00229Y00040D01*
X00228Y00040D01*
X00227Y00040D01*
X00226Y00040D01*
X00225Y00040D01*
X00224Y00040D01*
X00223Y00040D01*
X00222Y00040D01*
X00221Y00040D01*
X00220Y00040D01*
X00219Y00040D01*
X00218Y00040D01*
X00217Y00040D01*
X00216Y00040D01*
X00215Y00040D01*
X00214Y00040D01*
X00213Y00040D01*
X00212Y00040D01*
X00211Y00040D01*
X00210Y00040D01*
X00209Y00040D01*
X00208Y00040D01*
X00207Y00040D01*
X00206Y00040D01*
X00204Y00040D01*
X00204Y00040D01*
X00203Y00040D01*
X00202Y00040D01*
X00201Y00040D01*
X00200Y00040D01*
X00199Y00040D01*
X00198Y00040D01*
X00197Y00040D01*
X00196Y00040D01*
X00195Y00040D01*
X00194Y00040D01*
X00193Y00040D01*
X00192Y00040D01*
X00191Y00040D01*
X00190Y00040D01*
X00189Y00040D01*
X00188Y00040D01*
X00187Y00040D01*
X00185Y00040D01*
X00185Y00040D01*
X00184Y00040D01*
X00182Y00040D01*
X00182Y00040D01*
X00181Y00040D01*
X00179Y00040D01*
X00179Y00040D01*
X00178Y00040D01*
X00176Y00040D01*
X00176Y00040D01*
X00175Y00040D01*
X00173Y00040D01*
X00173Y00040D01*
X00172Y00040D01*
X00171Y00040D01*
X00170Y00040D01*
X00169Y00040D01*
X00168Y00040D01*
X00166Y00040D01*
X00166Y00040D01*
X00165Y00040D01*
X00163Y00040D01*
X00163Y00040D01*
X00162Y00040D01*
X00160Y00040D01*
X00160Y00040D01*
X00159Y00040D01*
X00157Y00040D01*
X00157Y00040D01*
X00156Y00040D01*
X00155Y00040D01*
X00154Y00040D01*
X00153Y00040D01*
X00152Y00040D01*
X00151Y00040D01*
X00150Y00040D01*
X00149Y00040D01*
X00148Y00040D01*
X00147Y00040D01*
X00146Y00040D01*
X00145Y00040D01*
X00144Y00040D01*
X00143Y00040D01*
X00142Y00040D01*
X00141Y00040D01*
X00140Y00040D01*
X00139Y00040D01*
X00138Y00040D01*
X00137Y00040D01*
X00136Y00040D01*
X00135Y00042D01*
X00134Y00042D01*
X00133Y00042D01*
X00132Y00042D01*
X00131Y00042D01*
X00130Y00043D01*
X00129Y00043D01*
X00128Y00043D01*
X00127Y00043D01*
X00126Y00043D01*
X00125Y00044D01*
X00124Y00044D01*
X00123Y00044D01*
X00122Y00044D01*
X00121Y00044D01*
X00120Y00044D01*
X00119Y00044D01*
X00118Y00046D01*
X00117Y00046D01*
X00116Y00046D01*
X00115Y00047D01*
X00114Y00047D01*
X00113Y00048D01*
X00112Y00048D01*
X00111Y00048D01*
X00110Y00049D01*
X00109Y00049D01*
X00108Y00050D01*
X00107Y00050D01*
X00106Y00051D01*
X00105Y00051D01*
X00104Y00051D01*
X00103Y00052D01*
X00102Y00052D01*
X00101Y00053D01*
X00100Y00053D01*
X00099Y00054D01*
X00098Y00055D01*
X00097Y00055D01*
X00096Y00056D01*
X00095Y00056D01*
X00094Y00057D01*
X00092Y00057D01*
X00092Y00058D01*
X00091Y00059D01*
X00089Y00059D01*
X00089Y00060D01*
X00088Y00061D01*
X00086Y00062D01*
X00086Y00062D01*
X00085Y00063D01*
X00084Y00064D01*
X00083Y00064D01*
X00081Y00065D01*
X00081Y00066D01*
X00080Y00067D01*
X00078Y00068D01*
X00078Y00069D01*
X00077Y00070D01*
X00076Y00071D01*
X00075Y00071D01*
X00074Y00072D01*
X00073Y00073D01*
X00072Y00074D01*
X00071Y00075D01*
X00070Y00076D01*
X00069Y00077D01*
X00069Y00078D01*
X00068Y00078D01*
X00067Y00080D01*
X00066Y00081D01*
X00065Y00081D01*
X00064Y00083D01*
X00063Y00084D01*
X00063Y00085D01*
X00062Y00086D01*
X00061Y00086D01*
X00060Y00088D01*
X00060Y00089D01*
X00059Y00089D01*
X00058Y00091D01*
X00058Y00092D01*
X00057Y00092D01*
X00056Y00094D01*
X00056Y00095D01*
X00055Y00096D01*
X00055Y00097D01*
X00054Y00098D01*
X00053Y00099D01*
X00053Y00100D01*
X00052Y00101D01*
X00052Y00102D01*
X00051Y00103D01*
X00051Y00104D01*
X00050Y00105D01*
X00050Y00106D01*
X00049Y00107D01*
X00049Y00108D01*
X00048Y00109D01*
X00048Y00111D01*
X00047Y00112D01*
X00047Y00113D01*
X00046Y00114D01*
X00046Y00116D01*
X00044Y00117D01*
X00044Y00119D01*
X00044Y00120D01*
X00044Y00122D01*
X00043Y00123D01*
X00043Y00126D01*
X00042Y00127D01*
X00042Y00130D01*
X00040Y00131D01*
X00040Y00136D01*
X00040Y00137D01*
X00040Y00144D01*
X00039Y00145D01*
X00039Y02493D01*
X00040Y02494D01*
X00040Y02501D01*
X00040Y02502D01*
X00040Y02507D01*
X00042Y02508D01*
X00042Y02511D01*
X00043Y02512D01*
X00043Y02515D01*
X00044Y02516D01*
X00044Y02518D01*
X00044Y02519D01*
X00044Y02521D01*
X00046Y02522D01*
X00046Y02524D01*
X00047Y02525D01*
X00047Y02526D01*
X00048Y02527D01*
X00048Y02529D01*
X00049Y02530D01*
X00049Y02531D01*
X00050Y02532D01*
X00050Y02533D01*
X00051Y02534D01*
X00051Y02535D01*
X00052Y02536D01*
X00052Y02537D01*
X00053Y02538D01*
X00053Y02539D01*
X00054Y02539D01*
X00055Y02541D01*
X00055Y02542D01*
X00056Y02543D01*
X00056Y02544D01*
X00057Y02545D01*
X00058Y02546D01*
X00058Y02547D01*
X00059Y02548D01*
X00060Y02549D01*
X00060Y02550D01*
X00061Y02551D01*
X00062Y02551D01*
X00063Y02553D01*
X00063Y02554D01*
X00064Y02555D01*
X00065Y02556D01*
X00066Y02557D01*
X00067Y02558D01*
X00068Y02559D01*
X00069Y02560D01*
X00069Y02561D01*
X00070Y02562D01*
X00071Y02563D01*
X00072Y02563D01*
X00073Y02565D01*
X00074Y02566D01*
X00075Y02567D01*
X00076Y02567D01*
X00077Y02568D01*
X00078Y02569D01*
X00078Y02570D01*
X00080Y02571D01*
X00081Y02572D01*
X00081Y02573D01*
X00083Y02574D01*
X00084Y02574D01*
X00085Y02575D01*
X00086Y02575D01*
X00086Y02577D01*
X00088Y02577D01*
X00089Y02578D01*
X00089Y02579D01*
X00091Y02579D01*
X00092Y02580D01*
X00092Y02581D01*
X00094Y02581D01*
X00095Y02582D01*
X00096Y02582D01*
X00097Y02583D01*
X00098Y02583D01*
X00099Y02584D01*
X00100Y02585D01*
X00101Y02585D01*
X00102Y02586D01*
X00103Y02586D01*
X00104Y02587D01*
X00105Y02587D01*
X00106Y02587D01*
X00107Y02587D01*
X00108Y02587D01*
X00109Y02589D01*
X00110Y02589D01*
X00111Y02590D01*
X00112Y02590D01*
X00113Y02590D01*
X00114Y02591D01*
X00115Y02591D01*
X00116Y02592D01*
X00117Y02592D01*
X00118Y02592D01*
X00119Y02593D01*
X00120Y02593D01*
X00121Y02593D01*
X00122Y02593D01*
X00123Y02594D01*
X00124Y02594D01*
X00125Y02594D01*
X00126Y02595D01*
X00127Y02595D01*
X00128Y02595D01*
X00129Y02595D01*
X00130Y02595D01*
X00131Y02596D01*
X00132Y02596D01*
X00133Y02596D01*
X00134Y02596D01*
X00135Y02596D01*
X00136Y02597D01*
X00137Y02597D01*
X00138Y02597D01*
X00139Y02597D01*
X00140Y02597D01*
X00141Y02597D01*
X00142Y02597D01*
X00143Y02597D01*
X00144Y02598D01*
D02*
G04 next file*
G04 MADE WITH FRITZING*
G04 WWW.FRITZING.ORG*
G04 DOUBLE SIDED*
G04 HOLES PLATED*
G04 CONTOUR ON CENTER OF CONTOUR VECTOR*
G90*
G04 skipping 70*
D21*
X01443Y02598D02*
X01444Y02598D01*
X01445Y02598D01*
X01445Y02598D01*
X01447Y02598D01*
X01448Y02598D01*
X01449Y02598D01*
X01450Y02598D01*
X01451Y02598D01*
X01451Y02598D01*
X01453Y02598D01*
X01454Y02598D01*
X01455Y02598D01*
X01456Y02598D01*
X01457Y02598D01*
X01457Y02598D01*
X01459Y02598D01*
X01460Y02598D01*
X01461Y02598D01*
X01462Y02598D01*
X01463Y02598D01*
X01463Y02598D01*
X01465Y02598D01*
X01466Y02598D01*
X01467Y02598D01*
X01468Y02598D01*
X01469Y02598D01*
X01469Y02598D01*
X01471Y02598D01*
X01472Y02598D01*
X01473Y02598D01*
X01474Y02598D01*
X01475Y02598D01*
X01475Y02598D01*
X01477Y02598D01*
X01478Y02598D01*
X01479Y02598D01*
X01480Y02598D01*
X01481Y02598D01*
X01481Y02598D01*
X01483Y02598D01*
X01484Y02598D01*
X01485Y02598D01*
X01486Y02598D01*
X01487Y02598D01*
X01487Y02598D01*
X01489Y02598D01*
X01490Y02598D01*
X01491Y02598D01*
X01492Y02598D01*
X01493Y02598D01*
X01493Y02598D01*
X01495Y02598D01*
X01496Y02598D01*
X01497Y02598D01*
X01498Y02598D01*
X01499Y02598D01*
X01499Y02598D01*
X01500Y02598D01*
X01502Y02598D01*
X01503Y02598D01*
X01504Y02598D01*
X01505Y02598D01*
X01506Y02598D01*
X01506Y02598D01*
X01508Y02598D01*
X01509Y02598D01*
X01510Y02598D01*
X01511Y02598D01*
X01512Y02598D01*
X01512Y02598D01*
X01514Y02598D01*
X01515Y02598D01*
X01516Y02598D01*
X01517Y02598D01*
X01518Y02598D01*
X01518Y02598D01*
X01520Y02598D01*
X01521Y02598D01*
X01522Y02598D01*
X01523Y02598D01*
X01524Y02598D01*
X01524Y02598D01*
X01526Y02598D01*
X01527Y02598D01*
X01528Y02598D01*
X01529Y02598D01*
X01530Y02598D01*
X01530Y02598D01*
X01532Y02598D01*
X01533Y02598D01*
X01534Y02598D01*
X01535Y02598D01*
X01536Y02598D01*
X01536Y02598D01*
X01538Y02598D01*
X01539Y02598D01*
X01540Y02598D01*
X01541Y02598D01*
X01542Y02598D01*
X01542Y02598D01*
X01544Y02598D01*
X01545Y02598D01*
X01546Y02598D01*
X01547Y02598D01*
X01548Y02598D01*
X01548Y02598D01*
X01550Y02598D01*
X01551Y02598D01*
X01552Y02598D01*
X01553Y02598D01*
X01554Y02598D01*
X01554Y02598D01*
X01556Y02598D01*
X01557Y02598D01*
X01558Y02598D01*
X01559Y02598D01*
X01560Y02598D01*
X01560Y02598D01*
X01562Y02598D01*
X01563Y02598D01*
X01564Y02598D01*
X01565Y02598D01*
X01566Y02598D01*
X01566Y02598D01*
X01568Y02598D01*
X01569Y02598D01*
X01570Y02598D01*
X01571Y02598D01*
X01572Y02598D01*
X01572Y02598D01*
X01574Y02598D01*
X01575Y02598D01*
X01576Y02598D01*
X01577Y02598D01*
X01578Y02598D01*
X01579Y02598D01*
X01580Y02598D01*
X01581Y02598D01*
X01582Y02598D01*
X01583Y02598D01*
X01584Y02598D01*
X01585Y02598D01*
X01586Y02598D01*
X01587Y02598D01*
X01588Y02598D01*
X01589Y02598D01*
X01590Y02598D01*
X01591Y02598D01*
X01592Y02598D01*
X01593Y02598D01*
X01594Y02598D01*
X01595Y02598D01*
X01596Y02598D01*
X01597Y02598D01*
X01598Y02598D01*
X01599Y02598D01*
X01600Y02598D01*
X01601Y02598D01*
X01602Y02598D01*
X01603Y02598D01*
X01604Y02598D01*
X01605Y02598D01*
X01606Y02598D01*
X01607Y02598D01*
X01608Y02598D01*
X01609Y02598D01*
X01610Y02598D01*
X01611Y02598D01*
X01612Y02598D01*
X01613Y02598D01*
X01614Y02598D01*
X01615Y02598D01*
X01616Y02598D01*
X01617Y02598D01*
X01618Y02598D01*
X01619Y02598D01*
X01620Y02598D01*
X01621Y02598D01*
X01622Y02598D01*
X01623Y02598D01*
X01624Y02598D01*
X01625Y02598D01*
X01626Y02598D01*
X01627Y02598D01*
X01627Y02598D01*
X01629Y02598D01*
X01630Y02598D01*
X01631Y02598D01*
X01632Y02598D01*
X01633Y02598D01*
X01633Y02598D01*
X01635Y02598D01*
X01636Y02598D01*
X01637Y02598D01*
X01638Y02598D01*
X01639Y02598D01*
X01639Y02598D01*
X01641Y02598D01*
X01642Y02598D01*
X01643Y02598D01*
X01644Y02598D01*
X01645Y02598D01*
X01645Y02598D01*
X01647Y02598D01*
X01648Y02598D01*
X01649Y02598D01*
X01650Y02598D01*
X01651Y02598D01*
X01652Y02598D01*
X01653Y02598D01*
X01654Y02598D01*
X01655Y02598D01*
X01656Y02598D01*
X01657Y02598D01*
X01658Y02598D01*
X01659Y02598D01*
X01660Y02598D01*
X01661Y02598D01*
X01662Y02598D01*
X01663Y02598D01*
X01664Y02598D01*
X01665Y02598D01*
X01666Y02598D01*
X01667Y02598D01*
X01668Y02598D01*
X01669Y02598D01*
X01670Y02598D01*
X01671Y02598D01*
X01672Y02598D01*
X01673Y02598D01*
X01674Y02598D01*
X01675Y02598D01*
X01676Y02598D01*
X01677Y02598D01*
X01678Y02598D01*
X01679Y02598D01*
X01680Y02598D01*
X01681Y02598D01*
X01682Y02598D01*
X01683Y02598D01*
X01684Y02598D01*
X01685Y02598D01*
X01686Y02598D01*
X01687Y02598D01*
X01688Y02598D01*
X01689Y02598D01*
X01690Y02598D01*
X01691Y02598D01*
X01692Y02598D01*
X01693Y02598D01*
X01694Y02598D01*
X01695Y02598D01*
X01696Y02598D01*
X01697Y02598D01*
X01698Y02598D01*
X01699Y02598D01*
X01700Y02598D01*
X01701Y02598D01*
X01702Y02598D01*
X01703Y02598D01*
X01704Y02598D01*
X01705Y02598D01*
X01706Y02598D01*
X01707Y02598D01*
X01708Y02598D01*
X01709Y02598D01*
X01710Y02598D01*
X01711Y02598D01*
X01712Y02598D01*
X01713Y02598D01*
X01714Y02598D01*
X01715Y02598D01*
X01716Y02598D01*
X01717Y02598D01*
X01718Y02598D01*
X01719Y02598D01*
X01720Y02598D01*
X01721Y02598D01*
X01722Y02598D01*
X01723Y02598D01*
X01724Y02598D01*
X01725Y02598D01*
X01726Y02598D01*
X01727Y02598D01*
X01728Y02598D01*
X01729Y02598D01*
X01730Y02598D01*
X01731Y02598D01*
X01732Y02598D01*
X01733Y02598D01*
X01734Y02598D01*
X01735Y02598D01*
X01736Y02598D01*
X01737Y02598D01*
X01738Y02598D01*
X01739Y02598D01*
X01740Y02598D01*
X01741Y02598D01*
X01742Y02598D01*
X01743Y02598D01*
X01744Y02598D01*
X01745Y02598D01*
X01746Y02598D01*
X01747Y02598D01*
X01748Y02598D01*
X01749Y02598D01*
X01750Y02598D01*
X01751Y02598D01*
X01752Y02598D01*
X01753Y02598D01*
X01754Y02598D01*
X01755Y02598D01*
X01756Y02598D01*
X01757Y02598D01*
X01758Y02598D01*
X01759Y02598D01*
X01760Y02598D01*
X01761Y02598D01*
X01762Y02598D01*
X01763Y02598D01*
X01764Y02598D01*
X01765Y02598D01*
X01766Y02598D01*
X01767Y02598D01*
X01768Y02598D01*
X01769Y02598D01*
X01770Y02598D01*
X01771Y02598D01*
X01772Y02598D01*
X01773Y02598D01*
X01774Y02598D01*
X01775Y02598D01*
X01776Y02598D01*
X01777Y02598D01*
X01778Y02598D01*
X01779Y02598D01*
X01780Y02598D01*
X01781Y02598D01*
X01782Y02598D01*
X01783Y02598D01*
X01784Y02598D01*
X01785Y02598D01*
X01786Y02598D01*
X01787Y02598D01*
X01788Y02598D01*
X01789Y02598D01*
X01790Y02598D01*
X01791Y02598D01*
X01792Y02598D01*
X01793Y02598D01*
X01794Y02598D01*
X01795Y02598D01*
X01796Y02598D01*
X01797Y02598D01*
X01798Y02598D01*
X01799Y02598D01*
X01800Y02598D01*
X01801Y02598D01*
X01802Y02598D01*
X01803Y02598D01*
X01804Y02598D01*
X01805Y02598D01*
X01806Y02598D01*
X01807Y02598D01*
X01808Y02598D01*
X01809Y02598D01*
X01810Y02598D01*
X01811Y02598D01*
X01812Y02598D01*
X01813Y02598D01*
X01814Y02598D01*
X01815Y02598D01*
X01816Y02598D01*
X01817Y02598D01*
X01818Y02598D01*
X01819Y02598D01*
X01820Y02598D01*
X01821Y02598D01*
X01822Y02598D01*
X01823Y02598D01*
X01824Y02598D01*
X01825Y02598D01*
X01826Y02598D01*
X01827Y02598D01*
X01828Y02598D01*
X01829Y02598D01*
X01830Y02598D01*
X01831Y02598D01*
X01832Y02598D01*
X01833Y02598D01*
X01834Y02598D01*
X01835Y02598D01*
X01836Y02598D01*
X01837Y02598D01*
X01838Y02598D01*
X01839Y02598D01*
X01840Y02598D01*
X01841Y02598D01*
X01842Y02598D01*
X01843Y02598D01*
X01844Y02598D01*
X01845Y02598D01*
X01846Y02598D01*
X01847Y02598D01*
X01848Y02598D01*
X01849Y02598D01*
X01850Y02598D01*
X01851Y02598D01*
X01852Y02598D01*
X01853Y02598D01*
X01854Y02598D01*
X01855Y02598D01*
X01856Y02598D01*
X01857Y02598D01*
X01858Y02598D01*
X01859Y02598D01*
X01860Y02598D01*
X01861Y02598D01*
X01862Y02598D01*
X01863Y02598D01*
X01864Y02598D01*
X01865Y02598D01*
X01866Y02598D01*
X01867Y02598D01*
X01868Y02598D01*
X01869Y02598D01*
X01870Y02598D01*
X01871Y02598D01*
X01872Y02598D01*
X01873Y02598D01*
X01874Y02598D01*
X01875Y02598D01*
X01876Y02598D01*
X01877Y02598D01*
X01878Y02598D01*
X01879Y02598D01*
X01880Y02598D01*
X01881Y02598D01*
X01882Y02598D01*
X01883Y02598D01*
X01884Y02598D01*
X01885Y02598D01*
X01886Y02598D01*
X01887Y02598D01*
X01888Y02598D01*
X01889Y02598D01*
X01890Y02598D01*
X01891Y02598D01*
X01892Y02598D01*
X01893Y02598D01*
X01894Y02598D01*
X01895Y02598D01*
X01896Y02598D01*
X01897Y02598D01*
X01898Y02598D01*
X01899Y02598D01*
X01900Y02598D01*
X01901Y02598D01*
X01902Y02598D01*
X01903Y02598D01*
X01904Y02598D01*
X01905Y02598D01*
X01906Y02598D01*
X01907Y02598D01*
X01908Y02598D01*
X01909Y02598D01*
X01910Y02598D01*
X01911Y02598D01*
X01912Y02598D01*
X01913Y02598D01*
X01914Y02598D01*
X01915Y02598D01*
X01916Y02598D01*
X01917Y02598D01*
X01918Y02598D01*
X01919Y02598D01*
X01920Y02598D01*
X01921Y02598D01*
X01922Y02598D01*
X01923Y02598D01*
X01924Y02598D01*
X01925Y02598D01*
X01926Y02598D01*
X01927Y02598D01*
X01928Y02598D01*
X01929Y02598D01*
X01930Y02598D01*
X01931Y02598D01*
X01932Y02598D01*
X01933Y02598D01*
X01934Y02598D01*
X01935Y02598D01*
X01936Y02598D01*
X01937Y02598D01*
X01938Y02598D01*
X01939Y02598D01*
X01940Y02598D01*
X01941Y02598D01*
X01942Y02598D01*
X01943Y02598D01*
X01944Y02598D01*
X01945Y02598D01*
X01946Y02598D01*
X01947Y02598D01*
X01948Y02598D01*
X01949Y02598D01*
X01950Y02598D01*
X01951Y02598D01*
X01952Y02598D01*
X01953Y02598D01*
X01954Y02598D01*
X01955Y02598D01*
X01956Y02598D01*
X01957Y02598D01*
X01958Y02598D01*
X01959Y02598D01*
X01960Y02598D01*
X01961Y02598D01*
X01962Y02598D01*
X01963Y02598D01*
X01964Y02598D01*
X01965Y02598D01*
X01966Y02598D01*
X01967Y02598D01*
X01968Y02598D01*
X01969Y02598D01*
X01970Y02598D01*
X01971Y02598D01*
X01972Y02598D01*
X01973Y02598D01*
X01974Y02598D01*
X01975Y02598D01*
X01976Y02598D01*
X01977Y02598D01*
X01978Y02598D01*
X01979Y02598D01*
X01980Y02598D01*
X01981Y02598D01*
X01982Y02598D01*
X01983Y02598D01*
X01984Y02598D01*
X01985Y02598D01*
X01986Y02598D01*
X01987Y02598D01*
X01988Y02598D01*
X01989Y02598D01*
X01990Y02598D01*
X01991Y02598D01*
X01992Y02598D01*
X01993Y02598D01*
X01994Y02598D01*
X01995Y02598D01*
X01996Y02598D01*
X01997Y02598D01*
X01998Y02598D01*
X01999Y02598D01*
X02000Y02598D01*
X02001Y02598D01*
X02001Y02598D01*
X02003Y02598D01*
X02004Y02598D01*
X02005Y02598D01*
X02005Y02598D01*
X02007Y02598D01*
X02008Y02598D01*
X02009Y02598D01*
X02009Y02598D01*
X02011Y02598D01*
X02012Y02598D01*
X02013Y02598D01*
X02013Y02598D01*
X02015Y02598D01*
X02016Y02598D01*
X02017Y02598D01*
X02017Y02598D01*
X02019Y02598D01*
X02020Y02598D01*
X02021Y02598D01*
X02021Y02598D01*
X02023Y02598D01*
X02024Y02598D01*
X02025Y02598D01*
X02025Y02598D01*
X02027Y02598D01*
X02028Y02598D01*
X02029Y02598D01*
X02029Y02598D01*
X02031Y02598D01*
X02032Y02598D01*
X02033Y02598D01*
X02033Y02598D01*
X02035Y02598D01*
X02036Y02598D01*
X02037Y02598D01*
X02037Y02598D01*
X02039Y02598D01*
X02040Y02598D01*
X02041Y02598D01*
X02041Y02598D01*
X02043Y02598D01*
X02044Y02598D01*
X02045Y02598D01*
X02045Y02598D01*
X02047Y02598D01*
X02048Y02598D01*
X02049Y02598D01*
X02050Y02598D01*
X02051Y02598D01*
X02052Y02598D01*
X02053Y02598D01*
X02054Y02598D01*
X02055Y02598D01*
X02056Y02598D01*
X02057Y02598D01*
X02058Y02598D01*
X02059Y02598D01*
X02060Y02598D01*
X02061Y02598D01*
X02062Y02598D01*
X02063Y02598D01*
X02064Y02598D01*
X02065Y02598D01*
X02066Y02598D01*
X02067Y02598D01*
X02068Y02598D01*
X02069Y02598D01*
X02070Y02598D01*
X02071Y02598D01*
X02072Y02598D01*
X02073Y02598D01*
X02074Y02598D01*
X02075Y02598D01*
X02076Y02598D01*
X02077Y02598D01*
X02078Y02598D01*
X02079Y02598D01*
X02080Y02598D01*
X02081Y02598D01*
X02082Y02598D01*
X02083Y02598D01*
X02084Y02598D01*
X02085Y02598D01*
X02086Y02598D01*
X02087Y02598D01*
X02088Y02598D01*
X02089Y02598D01*
X02090Y02598D01*
X02091Y02598D01*
X02092Y02598D01*
X02093Y02598D01*
X02094Y02598D01*
X02095Y02598D01*
X02096Y02598D01*
X02097Y02598D01*
X02098Y02598D01*
X02099Y02598D01*
X02100Y02598D01*
X02101Y02598D01*
X02102Y02598D01*
X02103Y02598D01*
X02104Y02598D01*
X02105Y02598D01*
X02106Y02598D01*
X02107Y02598D01*
X02108Y02598D01*
X02109Y02598D01*
X02110Y02598D01*
X02111Y02598D01*
X02112Y02598D01*
X02113Y02598D01*
X02114Y02598D01*
X02115Y02598D01*
X02116Y02598D01*
X02117Y02598D01*
X02118Y02598D01*
X02119Y02598D01*
X02120Y02598D01*
X02121Y02598D01*
X02122Y02598D01*
X02123Y02598D01*
X02124Y02598D01*
X02125Y02598D01*
X02126Y02598D01*
X02127Y02598D01*
X02128Y02598D01*
X02129Y02598D01*
X02130Y02598D01*
X02131Y02598D01*
X02132Y02598D01*
X02133Y02598D01*
X02134Y02598D01*
X02135Y02598D01*
X02136Y02598D01*
X02137Y02598D01*
X02138Y02598D01*
X02139Y02598D01*
X02140Y02598D01*
X02141Y02598D01*
X02142Y02598D01*
X02143Y02598D01*
X02144Y02598D01*
X02145Y02598D01*
X02146Y02598D01*
X02147Y02598D01*
X02148Y02598D01*
X02149Y02598D01*
X02150Y02598D01*
X02151Y02598D01*
X02152Y02598D01*
X02153Y02598D01*
X02154Y02598D01*
X02155Y02598D01*
X02156Y02598D01*
X02157Y02598D01*
X02158Y02598D01*
X02159Y02598D01*
X02160Y02598D01*
X02161Y02598D01*
X02162Y02598D01*
X02163Y02598D01*
X02164Y02598D01*
X02165Y02598D01*
X02166Y02598D01*
X02167Y02598D01*
X02168Y02598D01*
X02169Y02598D01*
X02170Y02598D01*
X02171Y02598D01*
X02172Y02598D01*
X02173Y02598D01*
X02174Y02598D01*
X02175Y02598D01*
X02176Y02598D01*
X02177Y02598D01*
X02178Y02598D01*
X02179Y02598D01*
X02180Y02598D01*
X02181Y02598D01*
X02182Y02598D01*
X02183Y02598D01*
X02184Y02598D01*
X02185Y02598D01*
X02186Y02598D01*
X02187Y02598D01*
X02188Y02598D01*
X02189Y02598D01*
X02190Y02598D01*
X02191Y02598D01*
X02192Y02598D01*
X02193Y02598D01*
X02194Y02598D01*
X02195Y02598D01*
X02196Y02598D01*
X02197Y02598D01*
X02198Y02598D01*
X02199Y02598D01*
X02200Y02598D01*
X02201Y02598D01*
X02202Y02598D01*
X02203Y02598D01*
X02204Y02598D01*
X02205Y02598D01*
X02206Y02598D01*
X02207Y02598D01*
X02208Y02598D01*
X02209Y02598D01*
X02210Y02598D01*
X02211Y02598D01*
X02212Y02598D01*
X02213Y02598D01*
X02214Y02598D01*
X02215Y02598D01*
X02216Y02598D01*
X02217Y02598D01*
X02218Y02598D01*
X02219Y02598D01*
X02220Y02598D01*
X02221Y02598D01*
X02222Y02598D01*
X02223Y02598D01*
X02224Y02598D01*
X02225Y02598D01*
X02226Y02598D01*
X02227Y02598D01*
X02228Y02598D01*
X02229Y02598D01*
X02230Y02598D01*
X02231Y02598D01*
X02232Y02598D01*
X02233Y02598D01*
X02234Y02598D01*
X02235Y02598D01*
X02236Y02598D01*
X02237Y02598D01*
X02238Y02598D01*
X02239Y02598D01*
X02240Y02598D01*
X02241Y02598D01*
X02242Y02598D01*
X02243Y02598D01*
X02244Y02598D01*
X02245Y02598D01*
X02246Y02598D01*
X02247Y02598D01*
X02248Y02598D01*
X02249Y02598D01*
X02250Y02598D01*
X02251Y02598D01*
X02252Y02598D01*
X02253Y02598D01*
X02254Y02598D01*
X02255Y02598D01*
X02256Y02598D01*
X02257Y02598D01*
X02258Y02598D01*
X02259Y02598D01*
X02260Y02598D01*
X02261Y02598D01*
X02262Y02598D01*
X02263Y02598D01*
X02264Y02598D01*
X02265Y02598D01*
X02266Y02598D01*
X02267Y02598D01*
X02268Y02598D01*
X02269Y02598D01*
X02270Y02598D01*
X02271Y02598D01*
X02272Y02598D01*
X02273Y02598D01*
X02274Y02598D01*
X02275Y02598D01*
X02276Y02598D01*
X02277Y02598D01*
X02278Y02598D01*
X02279Y02598D01*
X02280Y02598D01*
X02281Y02598D01*
X02282Y02598D01*
X02283Y02598D01*
X02284Y02598D01*
X02285Y02598D01*
X02286Y02598D01*
X02287Y02598D01*
X02288Y02598D01*
X02289Y02598D01*
X02290Y02598D01*
X02291Y02598D01*
X02292Y02598D01*
X02293Y02598D01*
X02294Y02598D01*
X02295Y02598D01*
X02296Y02598D01*
X02297Y02598D01*
X02298Y02598D01*
X02299Y02598D01*
X02300Y02598D01*
X02301Y02598D01*
X02302Y02598D01*
X02303Y02598D01*
X02304Y02598D01*
X02305Y02598D01*
X02306Y02598D01*
X02307Y02598D01*
X02308Y02598D01*
X02309Y02598D01*
X02310Y02598D01*
X02311Y02598D01*
X02312Y02598D01*
X02313Y02598D01*
X02314Y02598D01*
X02315Y02598D01*
X02316Y02598D01*
X02317Y02598D01*
X02318Y02598D01*
X02319Y02598D01*
X02320Y02598D01*
X02321Y02598D01*
X02322Y02598D01*
X02323Y02598D01*
X02324Y02598D01*
X02325Y02598D01*
X02326Y02598D01*
X02327Y02598D01*
X02328Y02598D01*
X02329Y02598D01*
X02330Y02598D01*
X02331Y02598D01*
X02332Y02598D01*
X02333Y02598D01*
X02334Y02598D01*
X02335Y02598D01*
X02336Y02598D01*
X02337Y02598D01*
X02338Y02598D01*
X02339Y02598D01*
X02340Y02598D01*
X02341Y02598D01*
X02342Y02598D01*
X02343Y02598D01*
X02344Y02598D01*
X02345Y02598D01*
X02346Y02598D01*
X02347Y02598D01*
X02348Y02598D01*
X02349Y02598D01*
X02350Y02598D01*
X02351Y02598D01*
X02352Y02598D01*
X02353Y02598D01*
X02354Y02598D01*
X02355Y02598D01*
X02356Y02598D01*
X02357Y02598D01*
X02358Y02598D01*
X02359Y02598D01*
X02360Y02598D01*
X02361Y02598D01*
X02362Y02598D01*
X02363Y02598D01*
X02364Y02598D01*
X02365Y02598D01*
X02366Y02598D01*
X02367Y02598D01*
X02368Y02598D01*
X02369Y02598D01*
X02370Y02598D01*
X02371Y02598D01*
X02372Y02598D01*
X02373Y02598D01*
X02374Y02598D01*
X02375Y02598D01*
X02376Y02598D01*
X02377Y02598D01*
X02378Y02598D01*
X02379Y02598D01*
X02380Y02598D01*
X02381Y02598D01*
X02382Y02598D01*
X02383Y02598D01*
X02384Y02598D01*
X02385Y02598D01*
X02386Y02598D01*
X02387Y02598D01*
X02388Y02598D01*
X02389Y02598D01*
X02390Y02598D01*
X02391Y02598D01*
X02392Y02598D01*
X02393Y02598D01*
X02394Y02598D01*
X02395Y02598D01*
X02396Y02598D01*
X02397Y02598D01*
X02398Y02598D01*
X02399Y02598D01*
X02400Y02598D01*
X02401Y02598D01*
X02402Y02598D01*
X02403Y02598D01*
X02404Y02598D01*
X02405Y02598D01*
X02406Y02598D01*
X02407Y02598D01*
X02408Y02598D01*
X02409Y02598D01*
X02410Y02598D01*
X02411Y02598D01*
X02412Y02598D01*
X02413Y02598D01*
X02414Y02598D01*
X02415Y02598D01*
X02416Y02598D01*
X02417Y02598D01*
X02418Y02598D01*
X02419Y02598D01*
X02420Y02598D01*
X02421Y02598D01*
X02422Y02598D01*
X02423Y02598D01*
X02424Y02598D01*
X02425Y02598D01*
X02426Y02598D01*
X02427Y02598D01*
X02428Y02598D01*
X02429Y02598D01*
X02430Y02598D01*
X02431Y02598D01*
X02432Y02598D01*
X02433Y02598D01*
X02434Y02598D01*
X02435Y02598D01*
X02436Y02598D01*
X02437Y02598D01*
X02438Y02598D01*
X02439Y02598D01*
X02440Y02598D01*
X02441Y02598D01*
X02442Y02598D01*
X02443Y02598D01*
X02444Y02598D01*
X02445Y02598D01*
X02446Y02598D01*
X02447Y02598D01*
X02448Y02598D01*
X02449Y02598D01*
X02450Y02598D01*
X02451Y02598D01*
X02452Y02598D01*
X02453Y02597D01*
X02454Y02597D01*
X02455Y02597D01*
X02456Y02597D01*
X02457Y02597D01*
X02458Y02597D01*
X02459Y02597D01*
X02460Y02597D01*
X02461Y02596D01*
X02462Y02596D01*
X02463Y02596D01*
X02464Y02596D01*
X02465Y02596D01*
X02466Y02595D01*
X02467Y02595D01*
X02468Y02595D01*
X02469Y02595D01*
X02470Y02595D01*
X02471Y02594D01*
X02472Y02594D01*
X02473Y02594D01*
X02474Y02593D01*
X02475Y02593D01*
X02476Y02593D01*
X02477Y02593D01*
X02478Y02592D01*
X02479Y02592D01*
X02480Y02592D01*
X02481Y02591D01*
X02482Y02591D01*
X02483Y02590D01*
X02484Y02590D01*
X02485Y02590D01*
X02486Y02589D01*
X02487Y02589D01*
X02488Y02587D01*
X02489Y02587D01*
X02490Y02587D01*
X02491Y02587D01*
X02492Y02587D01*
X02493Y02586D01*
X02494Y02586D01*
X02495Y02585D01*
X02496Y02585D01*
X02497Y02584D01*
X02498Y02583D01*
X02499Y02583D01*
X02500Y02582D01*
X02501Y02582D01*
X02502Y02581D01*
X02503Y02581D01*
X02504Y02580D01*
X02505Y02579D01*
X02506Y02579D01*
X02507Y02578D01*
X02508Y02577D01*
X02509Y02575D01*
X02510Y02575D01*
X02511Y02575D01*
X02512Y02574D01*
X02513Y02574D01*
X02514Y02573D01*
X02515Y02572D01*
X02516Y02571D01*
X02517Y02570D01*
X02518Y02569D01*
X02519Y02568D01*
X02520Y02567D01*
X02521Y02567D01*
X02522Y02566D01*
X02523Y02565D01*
X02524Y02563D01*
X02525Y02563D01*
X02526Y02562D01*
X02526Y02561D01*
X02527Y02560D01*
X02527Y02559D01*
X02529Y02558D01*
X02530Y02557D01*
X02531Y02556D01*
X02532Y02555D01*
X02533Y02554D01*
X02533Y02553D01*
X02534Y02551D01*
X02535Y02551D01*
X02536Y02550D01*
X02536Y02549D01*
X02537Y02548D01*
X02538Y02547D01*
X02538Y02546D01*
X02539Y02545D01*
X02539Y02544D01*
X02539Y02543D01*
X02541Y02542D01*
X02541Y02541D01*
X02542Y02539D01*
X02543Y02539D01*
X02543Y02538D01*
X02544Y02537D01*
X02544Y02536D01*
X02545Y02535D01*
X02545Y02534D01*
X02546Y02533D01*
X02546Y02532D01*
X02547Y02531D01*
X02547Y02530D01*
X02548Y02529D01*
X02548Y02527D01*
X02549Y02526D01*
X02549Y02525D01*
X02550Y02524D01*
X02550Y02522D01*
X02551Y02521D01*
X02551Y02519D01*
X02551Y02518D01*
X02551Y02516D01*
X02553Y02515D01*
X02553Y02512D01*
X02554Y02511D01*
X02554Y02508D01*
X02555Y02507D01*
X02555Y02502D01*
X02556Y02501D01*
X02556Y02494D01*
X02557Y02493D01*
X02557Y00145D01*
X02556Y00144D01*
X02556Y00137D01*
X02555Y00136D01*
X02555Y00131D01*
X02554Y00130D01*
X02554Y00127D01*
X02553Y00126D01*
X02553Y00123D01*
X02551Y00122D01*
X02551Y00120D01*
X02551Y00119D01*
X02551Y00117D01*
X02550Y00116D01*
X02550Y00114D01*
X02549Y00113D01*
X02549Y00112D01*
X02548Y00111D01*
X02548Y00109D01*
X02547Y00108D01*
X02547Y00107D01*
X02546Y00106D01*
X02546Y00105D01*
X02545Y00104D01*
X02545Y00103D01*
X02544Y00102D01*
X02544Y00101D01*
X02543Y00100D01*
X02543Y00099D01*
X02542Y00098D01*
X02541Y00097D01*
X02541Y00096D01*
X02539Y00095D01*
X02539Y00094D01*
X02539Y00092D01*
X02538Y00092D01*
X02538Y00091D01*
X02537Y00089D01*
X02536Y00089D01*
X02536Y00088D01*
X02535Y00086D01*
X02534Y00086D01*
X02533Y00085D01*
X02533Y00084D01*
X02532Y00083D01*
X02531Y00081D01*
X02530Y00081D01*
X02529Y00080D01*
X02527Y00078D01*
X02527Y00078D01*
X02526Y00077D01*
X02526Y00076D01*
X02525Y00075D01*
X02524Y00074D01*
X02523Y00073D01*
X02522Y00072D01*
X02521Y00071D01*
X02520Y00071D01*
X02519Y00070D01*
X02518Y00069D01*
X02517Y00068D01*
X02516Y00067D01*
X02515Y00066D01*
X02514Y00065D01*
X02513Y00064D01*
X02512Y00064D01*
X02511Y00063D01*
X02510Y00062D01*
X02509Y00062D01*
X02508Y00061D01*
X02507Y00060D01*
X02506Y00059D01*
X02505Y00059D01*
X02504Y00058D01*
X02503Y00057D01*
X02502Y00057D01*
X02501Y00056D01*
X02500Y00056D01*
X02499Y00055D01*
X02498Y00055D01*
X02497Y00054D01*
X02496Y00053D01*
X02495Y00053D01*
X02494Y00052D01*
X02493Y00052D01*
X02492Y00051D01*
X02491Y00051D01*
X02490Y00051D01*
X02489Y00050D01*
X02488Y00050D01*
X02487Y00049D01*
X02486Y00049D01*
X02485Y00048D01*
X02484Y00048D01*
X02483Y00048D01*
X02482Y00047D01*
X02481Y00047D01*
X02480Y00046D01*
X02479Y00046D01*
X02478Y00046D01*
X02477Y00044D01*
X02476Y00044D01*
X02475Y00044D01*
X02474Y00044D01*
X02473Y00044D01*
X02472Y00044D01*
X02471Y00044D01*
X02470Y00043D01*
X02469Y00043D01*
X02468Y00043D01*
X02467Y00043D01*
X02466Y00043D01*
X02465Y00042D01*
X02464Y00042D01*
X02463Y00042D01*
X02462Y00042D01*
X02461Y00042D01*
X02460Y00040D01*
X02459Y00040D01*
X02458Y00040D01*
X02457Y00040D01*
X02456Y00040D01*
X02455Y00040D01*
X02454Y00040D01*
X02453Y00040D01*
X02452Y00040D01*
X02451Y00040D01*
X02450Y00040D01*
X02449Y00040D01*
X02448Y00040D01*
X02447Y00040D01*
X02446Y00040D01*
X02445Y00040D01*
X02444Y00040D01*
X02443Y00040D01*
X02442Y00040D01*
X02441Y00040D01*
X02440Y00040D01*
X02439Y00040D01*
X02438Y00040D01*
X02437Y00040D01*
X02436Y00040D01*
X02435Y00040D01*
X02434Y00040D01*
X02433Y00040D01*
X02432Y00040D01*
X02431Y00040D01*
X02430Y00040D01*
X02429Y00040D01*
X02428Y00040D01*
X02427Y00040D01*
X02426Y00040D01*
X02425Y00040D01*
X02424Y00040D01*
X02423Y00040D01*
X02422Y00040D01*
X02421Y00040D01*
X02420Y00040D01*
X02419Y00040D01*
X02418Y00040D01*
X02417Y00040D01*
X02416Y00040D01*
X02415Y00040D01*
X02414Y00040D01*
X02413Y00040D01*
X02412Y00040D01*
X02411Y00040D01*
X02410Y00040D01*
X02409Y00040D01*
X02408Y00040D01*
X02407Y00040D01*
X02406Y00040D01*
X02405Y00040D01*
X02404Y00040D01*
X02403Y00040D01*
X02402Y00040D01*
X02401Y00040D01*
X02400Y00040D01*
X02399Y00040D01*
X02398Y00040D01*
X02397Y00040D01*
X02396Y00040D01*
X02395Y00040D01*
X02394Y00040D01*
X02393Y00040D01*
X02392Y00040D01*
X02391Y00040D01*
X02390Y00040D01*
X02389Y00040D01*
X02388Y00040D01*
X02387Y00040D01*
X02386Y00040D01*
X02385Y00040D01*
X02384Y00040D01*
X02383Y00040D01*
X02382Y00040D01*
X02381Y00040D01*
X02380Y00040D01*
X02379Y00040D01*
X02378Y00040D01*
X02377Y00040D01*
X02376Y00040D01*
X02375Y00040D01*
X02374Y00040D01*
X02373Y00040D01*
X02372Y00040D01*
X02371Y00040D01*
X02370Y00040D01*
X02369Y00040D01*
X02368Y00040D01*
X02367Y00040D01*
X02366Y00040D01*
X02365Y00040D01*
X02364Y00040D01*
X02363Y00040D01*
X02362Y00040D01*
X02361Y00040D01*
X02360Y00040D01*
X02359Y00040D01*
X02358Y00040D01*
X02357Y00040D01*
X02356Y00040D01*
X02355Y00040D01*
X02354Y00040D01*
X02353Y00040D01*
X02352Y00040D01*
X02351Y00040D01*
X02350Y00040D01*
X02349Y00040D01*
X02348Y00040D01*
X02347Y00040D01*
X02346Y00040D01*
X02345Y00040D01*
X02344Y00040D01*
X02343Y00040D01*
X02342Y00040D01*
X02341Y00040D01*
X02340Y00040D01*
X02339Y00040D01*
X02338Y00040D01*
X02337Y00040D01*
X02336Y00040D01*
X02335Y00040D01*
X02334Y00040D01*
X02333Y00040D01*
X02332Y00040D01*
X02331Y00040D01*
X02330Y00040D01*
X02329Y00040D01*
X02328Y00040D01*
X02327Y00040D01*
X02326Y00040D01*
X02325Y00040D01*
X02324Y00040D01*
X02323Y00040D01*
X02322Y00040D01*
X02321Y00040D01*
X02320Y00040D01*
X02319Y00040D01*
X02318Y00040D01*
X02317Y00040D01*
X02316Y00040D01*
X02315Y00040D01*
X02314Y00040D01*
X02313Y00040D01*
X02312Y00040D01*
X02311Y00040D01*
X02310Y00040D01*
X02309Y00040D01*
X02308Y00040D01*
X02307Y00040D01*
X02306Y00040D01*
X02305Y00040D01*
X02304Y00040D01*
X02303Y00040D01*
X02302Y00040D01*
X02301Y00040D01*
X02300Y00040D01*
X02299Y00040D01*
X02298Y00040D01*
X02297Y00040D01*
X02296Y00040D01*
X02295Y00040D01*
X02294Y00040D01*
X02293Y00040D01*
X02292Y00040D01*
X02291Y00040D01*
X02290Y00040D01*
X02289Y00040D01*
X02288Y00040D01*
X02287Y00040D01*
X02286Y00040D01*
X02285Y00040D01*
X02284Y00040D01*
X02283Y00040D01*
X02282Y00040D01*
X02281Y00040D01*
X02280Y00040D01*
X02279Y00040D01*
X02278Y00040D01*
X02277Y00040D01*
X02276Y00040D01*
X02275Y00040D01*
X02274Y00040D01*
X02273Y00040D01*
X02272Y00040D01*
X02271Y00040D01*
X02270Y00040D01*
X02269Y00040D01*
X02268Y00040D01*
X02267Y00040D01*
X02266Y00040D01*
X02265Y00040D01*
X02264Y00040D01*
X02263Y00040D01*
X02262Y00040D01*
X02261Y00040D01*
X02260Y00040D01*
X02259Y00040D01*
X02258Y00040D01*
X02257Y00040D01*
X02256Y00040D01*
X02255Y00040D01*
X02254Y00040D01*
X02253Y00040D01*
X02252Y00040D01*
X02251Y00040D01*
X02250Y00040D01*
X02249Y00040D01*
X02248Y00040D01*
X02247Y00040D01*
X02246Y00040D01*
X02245Y00040D01*
X02244Y00040D01*
X02243Y00040D01*
X02242Y00040D01*
X02241Y00040D01*
X02240Y00040D01*
X02239Y00040D01*
X02238Y00040D01*
X02237Y00040D01*
X02236Y00040D01*
X02235Y00040D01*
X02234Y00040D01*
X02233Y00040D01*
X02232Y00040D01*
X02231Y00040D01*
X02230Y00040D01*
X02229Y00040D01*
X02228Y00040D01*
X02227Y00040D01*
X02226Y00040D01*
X02225Y00040D01*
X02224Y00040D01*
X02223Y00040D01*
X02222Y00040D01*
X02221Y00040D01*
X02220Y00040D01*
X02219Y00040D01*
X02218Y00040D01*
X02217Y00040D01*
X02216Y00040D01*
X02215Y00040D01*
X02214Y00040D01*
X02213Y00040D01*
X02212Y00040D01*
X02211Y00040D01*
X02210Y00040D01*
X02209Y00040D01*
X02208Y00040D01*
X02207Y00040D01*
X02206Y00040D01*
X02205Y00040D01*
X02204Y00040D01*
X02203Y00040D01*
X02202Y00040D01*
X02201Y00040D01*
X02200Y00040D01*
X02199Y00040D01*
X02198Y00040D01*
X02197Y00040D01*
X02196Y00040D01*
X02195Y00040D01*
X02194Y00040D01*
X02193Y00040D01*
X02192Y00040D01*
X02191Y00040D01*
X02190Y00040D01*
X02189Y00040D01*
X02188Y00040D01*
X02187Y00040D01*
X02186Y00040D01*
X02185Y00040D01*
X02184Y00040D01*
X02183Y00040D01*
X02182Y00040D01*
X02181Y00040D01*
X02180Y00040D01*
X02179Y00040D01*
X02178Y00040D01*
X02177Y00040D01*
X02176Y00040D01*
X02175Y00040D01*
X02174Y00040D01*
X02173Y00040D01*
X02172Y00040D01*
X02171Y00040D01*
X02170Y00040D01*
X02169Y00040D01*
X02168Y00040D01*
X02167Y00040D01*
X02166Y00040D01*
X02165Y00040D01*
X02164Y00040D01*
X02163Y00040D01*
X02162Y00040D01*
X02161Y00040D01*
X02160Y00040D01*
X02159Y00040D01*
X02158Y00040D01*
X02157Y00040D01*
X02156Y00040D01*
X02155Y00040D01*
X02154Y00040D01*
X02153Y00040D01*
X02152Y00040D01*
X02151Y00040D01*
X02150Y00040D01*
X02149Y00040D01*
X02148Y00040D01*
X02147Y00040D01*
X02146Y00040D01*
X02145Y00040D01*
X02144Y00040D01*
X02143Y00040D01*
X02142Y00040D01*
X02141Y00040D01*
X02140Y00040D01*
X02139Y00040D01*
X02138Y00040D01*
X02137Y00040D01*
X02136Y00040D01*
X02135Y00040D01*
X02134Y00040D01*
X02133Y00040D01*
X02132Y00040D01*
X02131Y00040D01*
X02130Y00040D01*
X02129Y00040D01*
X02128Y00040D01*
X02127Y00040D01*
X02126Y00040D01*
X02125Y00040D01*
X02124Y00040D01*
X02123Y00040D01*
X02122Y00040D01*
X02121Y00040D01*
X02120Y00040D01*
X02119Y00040D01*
X02118Y00040D01*
X02117Y00040D01*
X02116Y00040D01*
X02115Y00040D01*
X02114Y00040D01*
X02113Y00040D01*
X02112Y00040D01*
X02111Y00040D01*
X02110Y00040D01*
X02109Y00040D01*
X02108Y00040D01*
X02107Y00040D01*
X02106Y00040D01*
X02105Y00040D01*
X02104Y00040D01*
X02103Y00040D01*
X02102Y00040D01*
X02101Y00040D01*
X02100Y00040D01*
X02099Y00040D01*
X02098Y00040D01*
X02097Y00040D01*
X02096Y00040D01*
X02095Y00040D01*
X02094Y00040D01*
X02093Y00040D01*
X02092Y00040D01*
X02091Y00040D01*
X02090Y00040D01*
X02089Y00040D01*
X02088Y00040D01*
X02087Y00040D01*
X02086Y00040D01*
X02085Y00040D01*
X02084Y00040D01*
X02083Y00040D01*
X02082Y00040D01*
X02081Y00040D01*
X02080Y00040D01*
X02079Y00040D01*
X02078Y00040D01*
X02077Y00040D01*
X02076Y00040D01*
X02075Y00040D01*
X02074Y00040D01*
X02073Y00040D01*
X02072Y00040D01*
X02071Y00040D01*
X02070Y00040D01*
X02069Y00040D01*
X02068Y00040D01*
X02067Y00040D01*
X02066Y00040D01*
X02065Y00040D01*
X02064Y00040D01*
X02063Y00040D01*
X02062Y00040D01*
X02061Y00040D01*
X02060Y00040D01*
X02059Y00040D01*
X02058Y00040D01*
X02057Y00040D01*
X02056Y00040D01*
X02055Y00040D01*
X02054Y00040D01*
X02053Y00040D01*
X02052Y00040D01*
X02051Y00040D01*
X02050Y00040D01*
X02049Y00040D01*
X02048Y00040D01*
X02047Y00040D01*
X02045Y00040D01*
X02045Y00040D01*
X02044Y00040D01*
X02043Y00040D01*
X02041Y00040D01*
X02041Y00040D01*
X02040Y00040D01*
X02039Y00040D01*
X02037Y00040D01*
X02037Y00040D01*
X02036Y00040D01*
X02035Y00040D01*
X02033Y00040D01*
X02033Y00040D01*
X02032Y00040D01*
X02031Y00040D01*
X02029Y00040D01*
X02029Y00040D01*
X02028Y00040D01*
X02027Y00040D01*
X02025Y00040D01*
X02025Y00040D01*
X02024Y00040D01*
X02023Y00040D01*
X02021Y00040D01*
X02021Y00040D01*
X02020Y00040D01*
X02019Y00040D01*
X02017Y00040D01*
X02017Y00040D01*
X02016Y00040D01*
X02015Y00040D01*
X02013Y00040D01*
X02013Y00040D01*
X02012Y00040D01*
X02011Y00040D01*
X02009Y00040D01*
X02009Y00040D01*
X02008Y00040D01*
X02007Y00040D01*
X02005Y00040D01*
X02005Y00040D01*
X02004Y00040D01*
X02003Y00040D01*
X02001Y00040D01*
X02001Y00040D01*
X02000Y00040D01*
X01999Y00040D01*
X01998Y00040D01*
X01997Y00040D01*
X01996Y00040D01*
X01995Y00040D01*
X01994Y00040D01*
X01993Y00040D01*
X01992Y00040D01*
X01991Y00040D01*
X01990Y00040D01*
X01989Y00040D01*
X01988Y00040D01*
X01987Y00040D01*
X01986Y00040D01*
X01985Y00040D01*
X01984Y00040D01*
X01983Y00040D01*
X01982Y00040D01*
X01981Y00040D01*
X01980Y00040D01*
X01979Y00040D01*
X01978Y00040D01*
X01977Y00040D01*
X01976Y00040D01*
X01975Y00040D01*
X01974Y00040D01*
X01973Y00040D01*
X01972Y00040D01*
X01971Y00040D01*
X01970Y00040D01*
X01969Y00040D01*
X01968Y00040D01*
X01967Y00040D01*
X01966Y00040D01*
X01965Y00040D01*
X01964Y00040D01*
X01963Y00040D01*
X01962Y00040D01*
X01961Y00040D01*
X01960Y00040D01*
X01959Y00040D01*
X01958Y00040D01*
X01957Y00040D01*
X01956Y00040D01*
X01955Y00040D01*
X01954Y00040D01*
X01953Y00040D01*
X01952Y00040D01*
X01951Y00040D01*
X01950Y00040D01*
X01949Y00040D01*
X01948Y00040D01*
X01947Y00040D01*
X01946Y00040D01*
X01945Y00040D01*
X01944Y00040D01*
X01943Y00040D01*
X01942Y00040D01*
X01941Y00040D01*
X01940Y00040D01*
X01939Y00040D01*
X01938Y00040D01*
X01937Y00040D01*
X01936Y00040D01*
X01935Y00040D01*
X01934Y00040D01*
X01933Y00040D01*
X01932Y00040D01*
X01931Y00040D01*
X01930Y00040D01*
X01929Y00040D01*
X01928Y00040D01*
X01927Y00040D01*
X01926Y00040D01*
X01925Y00040D01*
X01924Y00040D01*
X01923Y00040D01*
X01922Y00040D01*
X01921Y00040D01*
X01920Y00040D01*
X01919Y00040D01*
X01918Y00040D01*
X01917Y00040D01*
X01916Y00040D01*
X01915Y00040D01*
X01914Y00040D01*
X01913Y00040D01*
X01912Y00040D01*
X01911Y00040D01*
X01910Y00040D01*
X01909Y00040D01*
X01908Y00040D01*
X01907Y00040D01*
X01906Y00040D01*
X01905Y00040D01*
X01904Y00040D01*
X01903Y00040D01*
X01902Y00040D01*
X01901Y00040D01*
X01900Y00040D01*
X01899Y00040D01*
X01898Y00040D01*
X01897Y00040D01*
X01896Y00040D01*
X01895Y00040D01*
X01894Y00040D01*
X01893Y00040D01*
X01892Y00040D01*
X01891Y00040D01*
X01890Y00040D01*
X01889Y00040D01*
X01888Y00040D01*
X01887Y00040D01*
X01886Y00040D01*
X01885Y00040D01*
X01884Y00040D01*
X01883Y00040D01*
X01882Y00040D01*
X01881Y00040D01*
X01880Y00040D01*
X01879Y00040D01*
X01878Y00040D01*
X01877Y00040D01*
X01876Y00040D01*
X01875Y00040D01*
X01874Y00040D01*
X01873Y00040D01*
X01872Y00040D01*
X01871Y00040D01*
X01870Y00040D01*
X01869Y00040D01*
X01868Y00040D01*
X01867Y00040D01*
X01866Y00040D01*
X01865Y00040D01*
X01864Y00040D01*
X01863Y00040D01*
X01862Y00040D01*
X01861Y00040D01*
X01860Y00040D01*
X01859Y00040D01*
X01858Y00040D01*
X01857Y00040D01*
X01856Y00040D01*
X01855Y00040D01*
X01854Y00040D01*
X01853Y00040D01*
X01852Y00040D01*
X01851Y00040D01*
X01850Y00040D01*
X01849Y00040D01*
X01848Y00040D01*
X01847Y00040D01*
X01846Y00040D01*
X01845Y00040D01*
X01844Y00040D01*
X01843Y00040D01*
X01842Y00040D01*
X01841Y00040D01*
X01840Y00040D01*
X01839Y00040D01*
X01838Y00040D01*
X01837Y00040D01*
X01836Y00040D01*
X01835Y00040D01*
X01834Y00040D01*
X01833Y00040D01*
X01832Y00040D01*
X01831Y00040D01*
X01830Y00040D01*
X01829Y00040D01*
X01828Y00040D01*
X01827Y00040D01*
X01826Y00040D01*
X01825Y00040D01*
X01824Y00040D01*
X01823Y00040D01*
X01822Y00040D01*
X01821Y00040D01*
X01820Y00040D01*
X01819Y00040D01*
X01818Y00040D01*
X01817Y00040D01*
X01816Y00040D01*
X01815Y00040D01*
X01814Y00040D01*
X01813Y00040D01*
X01812Y00040D01*
X01811Y00040D01*
X01810Y00040D01*
X01809Y00040D01*
X01808Y00040D01*
X01807Y00040D01*
X01806Y00040D01*
X01805Y00040D01*
X01804Y00040D01*
X01803Y00040D01*
X01802Y00040D01*
X01801Y00040D01*
X01800Y00040D01*
X01799Y00040D01*
X01798Y00040D01*
X01797Y00040D01*
X01796Y00040D01*
X01795Y00040D01*
X01794Y00040D01*
X01793Y00040D01*
X01792Y00040D01*
X01791Y00040D01*
X01790Y00040D01*
X01789Y00040D01*
X01788Y00040D01*
X01787Y00040D01*
X01786Y00040D01*
X01785Y00040D01*
X01784Y00040D01*
X01783Y00040D01*
X01782Y00040D01*
X01781Y00040D01*
X01780Y00040D01*
X01779Y00040D01*
X01778Y00040D01*
X01777Y00040D01*
X01776Y00040D01*
X01775Y00040D01*
X01774Y00040D01*
X01773Y00040D01*
X01772Y00040D01*
X01771Y00040D01*
X01770Y00040D01*
X01769Y00040D01*
X01768Y00040D01*
X01767Y00040D01*
X01766Y00040D01*
X01765Y00040D01*
X01764Y00040D01*
X01763Y00040D01*
X01762Y00040D01*
X01761Y00040D01*
X01760Y00040D01*
X01759Y00040D01*
X01758Y00040D01*
X01757Y00040D01*
X01756Y00040D01*
X01755Y00040D01*
X01754Y00040D01*
X01753Y00040D01*
X01752Y00040D01*
X01751Y00040D01*
X01750Y00040D01*
X01749Y00040D01*
X01748Y00040D01*
X01747Y00040D01*
X01746Y00040D01*
X01745Y00040D01*
X01744Y00040D01*
X01743Y00040D01*
X01742Y00040D01*
X01741Y00040D01*
X01740Y00040D01*
X01739Y00040D01*
X01738Y00040D01*
X01737Y00040D01*
X01736Y00040D01*
X01735Y00040D01*
X01734Y00040D01*
X01733Y00040D01*
X01732Y00040D01*
X01731Y00040D01*
X01730Y00040D01*
X01729Y00040D01*
X01728Y00040D01*
X01727Y00040D01*
X01726Y00040D01*
X01725Y00040D01*
X01724Y00040D01*
X01723Y00040D01*
X01722Y00040D01*
X01721Y00040D01*
X01720Y00040D01*
X01719Y00040D01*
X01718Y00040D01*
X01717Y00040D01*
X01716Y00040D01*
X01715Y00040D01*
X01714Y00040D01*
X01713Y00040D01*
X01712Y00040D01*
X01711Y00040D01*
X01710Y00040D01*
X01709Y00040D01*
X01708Y00040D01*
X01707Y00040D01*
X01706Y00040D01*
X01705Y00040D01*
X01704Y00040D01*
X01703Y00040D01*
X01702Y00040D01*
X01701Y00040D01*
X01700Y00040D01*
X01699Y00040D01*
X01698Y00040D01*
X01697Y00040D01*
X01696Y00040D01*
X01695Y00040D01*
X01694Y00040D01*
X01693Y00040D01*
X01692Y00040D01*
X01691Y00040D01*
X01690Y00040D01*
X01689Y00040D01*
X01688Y00040D01*
X01687Y00040D01*
X01686Y00040D01*
X01685Y00040D01*
X01684Y00040D01*
X01683Y00040D01*
X01682Y00040D01*
X01681Y00040D01*
X01680Y00040D01*
X01679Y00040D01*
X01678Y00040D01*
X01677Y00040D01*
X01676Y00040D01*
X01675Y00040D01*
X01674Y00040D01*
X01673Y00040D01*
X01672Y00040D01*
X01671Y00040D01*
X01670Y00040D01*
X01669Y00040D01*
X01668Y00040D01*
X01667Y00040D01*
X01666Y00040D01*
X01665Y00040D01*
X01664Y00040D01*
X01663Y00040D01*
X01662Y00040D01*
X01661Y00040D01*
X01660Y00040D01*
X01659Y00040D01*
X01658Y00040D01*
X01657Y00040D01*
X01656Y00040D01*
X01655Y00040D01*
X01654Y00040D01*
X01653Y00040D01*
X01652Y00040D01*
X01651Y00040D01*
X01650Y00040D01*
X01649Y00040D01*
X01648Y00040D01*
X01647Y00040D01*
X01645Y00040D01*
X01645Y00040D01*
X01644Y00040D01*
X01643Y00040D01*
X01642Y00040D01*
X01641Y00040D01*
X01639Y00040D01*
X01639Y00040D01*
X01638Y00040D01*
X01637Y00040D01*
X01636Y00040D01*
X01635Y00040D01*
X01633Y00040D01*
X01633Y00040D01*
X01632Y00040D01*
X01631Y00040D01*
X01630Y00040D01*
X01629Y00040D01*
X01627Y00040D01*
X01627Y00040D01*
X01626Y00040D01*
X01625Y00040D01*
X01624Y00040D01*
X01623Y00040D01*
X01622Y00040D01*
X01621Y00040D01*
X01620Y00040D01*
X01619Y00040D01*
X01618Y00040D01*
X01617Y00040D01*
X01616Y00040D01*
X01615Y00040D01*
X01614Y00040D01*
X01613Y00040D01*
X01612Y00040D01*
X01611Y00040D01*
X01610Y00040D01*
X01609Y00040D01*
X01608Y00040D01*
X01607Y00040D01*
X01606Y00040D01*
X01605Y00040D01*
X01604Y00040D01*
X01603Y00040D01*
X01602Y00040D01*
X01601Y00040D01*
X01600Y00040D01*
X01599Y00040D01*
X01598Y00040D01*
X01597Y00040D01*
X01596Y00040D01*
X01595Y00040D01*
X01594Y00040D01*
X01593Y00040D01*
X01592Y00040D01*
X01591Y00040D01*
X01590Y00040D01*
X01589Y00040D01*
X01588Y00040D01*
X01587Y00040D01*
X01586Y00040D01*
X01585Y00040D01*
X01584Y00040D01*
X01583Y00040D01*
X01582Y00040D01*
X01581Y00040D01*
X01580Y00040D01*
X01579Y00040D01*
X01578Y00040D01*
X01577Y00040D01*
X01576Y00040D01*
X01575Y00040D01*
X01574Y00040D01*
X01572Y00040D01*
X01572Y00040D01*
X01571Y00040D01*
X01570Y00040D01*
X01569Y00040D01*
X01568Y00040D01*
X01566Y00040D01*
X01566Y00040D01*
X01565Y00040D01*
X01564Y00040D01*
X01563Y00040D01*
X01562Y00040D01*
X01560Y00040D01*
X01560Y00040D01*
X01559Y00040D01*
X01558Y00040D01*
X01557Y00040D01*
X01556Y00040D01*
X01554Y00040D01*
X01554Y00040D01*
X01553Y00040D01*
X01552Y00040D01*
X01551Y00040D01*
X01550Y00040D01*
X01548Y00040D01*
X01548Y00040D01*
X01547Y00040D01*
X01546Y00040D01*
X01545Y00040D01*
X01544Y00040D01*
X01542Y00040D01*
X01542Y00040D01*
X01541Y00040D01*
X01540Y00040D01*
X01539Y00040D01*
X01538Y00040D01*
X01536Y00040D01*
X01536Y00040D01*
X01535Y00040D01*
X01534Y00040D01*
X01533Y00040D01*
X01532Y00040D01*
X01530Y00040D01*
X01530Y00040D01*
X01529Y00040D01*
X01528Y00040D01*
X01527Y00040D01*
X01526Y00040D01*
X01524Y00040D01*
X01524Y00040D01*
X01523Y00040D01*
X01522Y00040D01*
X01521Y00040D01*
X01520Y00040D01*
X01518Y00040D01*
X01518Y00040D01*
X01517Y00040D01*
X01516Y00040D01*
X01515Y00040D01*
X01514Y00040D01*
X01512Y00040D01*
X01512Y00040D01*
X01511Y00040D01*
X01510Y00040D01*
X01509Y00040D01*
X01508Y00040D01*
X01506Y00040D01*
X01506Y00040D01*
X01505Y00040D01*
X01504Y00040D01*
X01503Y00040D01*
X01502Y00040D01*
X01500Y00040D01*
X01499Y00040D01*
X01499Y00040D01*
X01498Y00040D01*
X01497Y00040D01*
X01496Y00040D01*
X01495Y00040D01*
X01493Y00040D01*
X01493Y00040D01*
X01492Y00040D01*
X01491Y00040D01*
X01490Y00040D01*
X01489Y00040D01*
X01487Y00040D01*
X01487Y00040D01*
X01486Y00040D01*
X01485Y00040D01*
X01484Y00040D01*
X01483Y00040D01*
X01481Y00040D01*
X01481Y00040D01*
X01480Y00040D01*
X01479Y00040D01*
X01478Y00040D01*
X01477Y00040D01*
X01475Y00040D01*
X01475Y00040D01*
X01474Y00040D01*
X01473Y00040D01*
X01472Y00040D01*
X01471Y00040D01*
X01469Y00040D01*
X01469Y00040D01*
X01468Y00040D01*
X01467Y00040D01*
X01466Y00040D01*
X01465Y00040D01*
X01463Y00040D01*
X01463Y00040D01*
X01462Y00040D01*
X01461Y00040D01*
X01460Y00040D01*
X01459Y00040D01*
X01457Y00040D01*
X01457Y00040D01*
X01456Y00040D01*
X01455Y00040D01*
X01454Y00040D01*
X01453Y00040D01*
X01451Y00040D01*
X01451Y00040D01*
X01450Y00040D01*
X01449Y00040D01*
X01448Y00040D01*
X01447Y00040D01*
X01445Y00040D01*
X01445Y00040D01*
X01444Y00040D01*
X01443Y00040D01*
X01442Y00040D01*
X01441Y00040D01*
X01439Y00040D01*
X01439Y00040D01*
X01438Y00040D01*
X01437Y00040D01*
X01436Y00040D01*
X01435Y00040D01*
X01433Y00042D01*
X01433Y00042D01*
X01432Y00042D01*
X01431Y00042D01*
X01430Y00042D01*
X01429Y00043D01*
X01427Y00043D01*
X01427Y00043D01*
X01426Y00043D01*
X01425Y00043D01*
X01424Y00044D01*
X01423Y00044D01*
X01421Y00044D01*
X01420Y00044D01*
X01420Y00044D01*
X01419Y00044D01*
X01418Y00044D01*
X01417Y00046D01*
X01415Y00046D01*
X01414Y00046D01*
X01414Y00047D01*
X01413Y00047D01*
X01412Y00048D01*
X01411Y00048D01*
X01409Y00048D01*
X01408Y00049D01*
X01408Y00049D01*
X01407Y00050D01*
X01406Y00050D01*
X01405Y00051D01*
X01403Y00051D01*
X01402Y00051D01*
X01402Y00052D01*
X01401Y00052D01*
X01400Y00053D01*
X01399Y00053D01*
X01397Y00054D01*
X01396Y00055D01*
X01396Y00055D01*
X01395Y00056D01*
X01394Y00056D01*
X01393Y00057D01*
X01391Y00057D01*
X01390Y00058D01*
X01390Y00059D01*
X01389Y00059D01*
X01388Y00060D01*
X01387Y00061D01*
X01385Y00062D01*
X01384Y00062D01*
X01384Y00063D01*
X01383Y00064D01*
X01382Y00064D01*
X01381Y00065D01*
X01379Y00066D01*
X01378Y00067D01*
X01378Y00068D01*
X01377Y00069D01*
X01376Y00070D01*
X01375Y00071D01*
X01374Y00071D01*
X01372Y00072D01*
X01372Y00073D01*
X01371Y00074D01*
X01370Y00075D01*
X01369Y00076D01*
X01368Y00077D01*
X01368Y00078D01*
X01366Y00078D01*
X01366Y00080D01*
X01365Y00081D01*
X01364Y00081D01*
X01363Y00083D01*
X01362Y00084D01*
X01362Y00085D01*
X01360Y00086D01*
X01360Y00086D01*
X01359Y00088D01*
X01359Y00089D01*
X01358Y00089D01*
X01357Y00091D01*
X01357Y00092D01*
X01356Y00092D01*
X01354Y00094D01*
X01354Y00095D01*
X01354Y00096D01*
X01354Y00097D01*
X01353Y00098D01*
X01352Y00099D01*
X01352Y00100D01*
X01351Y00101D01*
X01351Y00102D01*
X01350Y00103D01*
X01350Y00104D01*
X01348Y00105D01*
X01348Y00106D01*
X01347Y00107D01*
X01347Y00108D01*
X01347Y00109D01*
X01347Y00111D01*
X01346Y00112D01*
X01346Y00113D01*
X01345Y00114D01*
X01345Y00116D01*
X01344Y00117D01*
X01344Y00119D01*
X01342Y00120D01*
X01342Y00122D01*
X01341Y00123D01*
X01341Y00126D01*
X01341Y00127D01*
X01341Y00130D01*
X01340Y00131D01*
X01340Y00136D01*
X01339Y00137D01*
X01339Y00144D01*
X01338Y00145D01*
X01338Y02493D01*
X01339Y02494D01*
X01339Y02501D01*
X01340Y02502D01*
X01340Y02507D01*
X01341Y02508D01*
X01341Y02511D01*
X01341Y02512D01*
X01341Y02515D01*
X01342Y02516D01*
X01342Y02518D01*
X01344Y02519D01*
X01344Y02521D01*
X01345Y02522D01*
X01345Y02524D01*
X01346Y02525D01*
X01346Y02526D01*
X01347Y02527D01*
X01347Y02529D01*
X01347Y02530D01*
X01347Y02531D01*
X01348Y02532D01*
X01348Y02533D01*
X01350Y02534D01*
X01350Y02535D01*
X01351Y02536D01*
X01351Y02537D01*
X01352Y02538D01*
X01352Y02539D01*
X01353Y02539D01*
X01354Y02541D01*
X01354Y02542D01*
X01354Y02543D01*
X01354Y02544D01*
X01356Y02545D01*
X01357Y02546D01*
X01357Y02547D01*
X01358Y02548D01*
X01359Y02549D01*
X01359Y02550D01*
X01360Y02551D01*
X01360Y02551D01*
X01362Y02553D01*
X01362Y02554D01*
X01363Y02555D01*
X01364Y02556D01*
X01365Y02557D01*
X01366Y02558D01*
X01366Y02559D01*
X01368Y02560D01*
X01368Y02561D01*
X01369Y02562D01*
X01370Y02563D01*
X01371Y02563D01*
X01372Y02565D01*
X01372Y02566D01*
X01374Y02567D01*
X01375Y02567D01*
X01376Y02568D01*
X01377Y02569D01*
X01378Y02570D01*
X01378Y02571D01*
X01379Y02572D01*
X01381Y02573D01*
X01382Y02574D01*
X01383Y02574D01*
X01384Y02575D01*
X01384Y02575D01*
X01385Y02577D01*
X01387Y02577D01*
X01388Y02578D01*
X01389Y02579D01*
X01390Y02579D01*
X01390Y02580D01*
X01391Y02581D01*
X01393Y02581D01*
X01394Y02582D01*
X01395Y02582D01*
X01396Y02583D01*
X01396Y02583D01*
X01397Y02584D01*
X01399Y02585D01*
X01400Y02585D01*
X01401Y02586D01*
X01402Y02586D01*
X01402Y02587D01*
X01403Y02587D01*
X01405Y02587D01*
X01406Y02587D01*
X01407Y02587D01*
X01408Y02589D01*
X01408Y02589D01*
X01409Y02590D01*
X01411Y02590D01*
X01412Y02590D01*
X01413Y02591D01*
X01414Y02591D01*
X01414Y02592D01*
X01415Y02592D01*
X01417Y02592D01*
X01418Y02593D01*
X01419Y02593D01*
X01420Y02593D01*
X01420Y02593D01*
X01421Y02594D01*
X01423Y02594D01*
X01424Y02594D01*
X01425Y02595D01*
X01426Y02595D01*
X01427Y02595D01*
X01427Y02595D01*
X01429Y02595D01*
X01430Y02596D01*
X01431Y02596D01*
X01432Y02596D01*
X01433Y02596D01*
X01433Y02596D01*
X01435Y02597D01*
X01436Y02597D01*
X01437Y02597D01*
X01438Y02597D01*
X01439Y02597D01*
X01439Y02597D01*
X01441Y02597D01*
X01442Y02597D01*
X01443Y02598D01*
D02*
G04 End of contour*
G04 next file*
G04 MADE WITH FRITZING*
G04 WWW.FRITZING.ORG*
G04 DOUBLE SIDED*
G04 HOLES PLATED*
G04 CONTOUR ON CENTER OF CONTOUR VECTOR*
G90*
G04 skipping 70*
D22*
X02742Y02598D02*
X02743Y02598D01*
X02744Y02598D01*
X02745Y02598D01*
X02745Y02598D01*
X02747Y02598D01*
X02748Y02598D01*
X02749Y02598D01*
X02750Y02598D01*
X02751Y02598D01*
X02752Y02598D01*
X02753Y02598D01*
X02754Y02598D01*
X02755Y02598D01*
X02756Y02598D01*
X02757Y02598D01*
X02757Y02598D01*
X02759Y02598D01*
X02759Y02598D01*
X02761Y02598D01*
X02762Y02598D01*
X02763Y02598D01*
X02764Y02598D01*
X02765Y02598D01*
X02766Y02598D01*
X02767Y02598D01*
X02768Y02598D01*
X02769Y02598D01*
X02769Y02598D01*
X02771Y02598D01*
X02771Y02598D01*
X02773Y02598D01*
X02774Y02598D01*
X02775Y02598D01*
X02776Y02598D01*
X02777Y02598D01*
X02778Y02598D01*
X02779Y02598D01*
X02780Y02598D01*
X02781Y02598D01*
X02781Y02598D01*
X02783Y02598D01*
X02783Y02598D01*
X02785Y02598D01*
X02786Y02598D01*
X02787Y02598D01*
X02788Y02598D01*
X02789Y02598D01*
X02790Y02598D01*
X02791Y02598D01*
X02792Y02598D01*
X02793Y02598D01*
X02793Y02598D01*
X02795Y02598D01*
X02795Y02598D01*
X02797Y02598D01*
X02798Y02598D01*
X02799Y02598D01*
X02800Y02598D01*
X02801Y02598D01*
X02802Y02598D01*
X02803Y02598D01*
X02804Y02598D01*
X02805Y02598D01*
X02805Y02598D01*
X02807Y02598D01*
X02807Y02598D01*
X02809Y02598D01*
X02810Y02598D01*
X02811Y02598D01*
X02812Y02598D01*
X02813Y02598D01*
X02814Y02598D01*
X02815Y02598D01*
X02816Y02598D01*
X02817Y02598D01*
X02817Y02598D01*
X02819Y02598D01*
X02819Y02598D01*
X02821Y02598D01*
X02822Y02598D01*
X02823Y02598D01*
X02824Y02598D01*
X02825Y02598D01*
X02826Y02598D01*
X02827Y02598D01*
X02828Y02598D01*
X02829Y02598D01*
X02829Y02598D01*
X02831Y02598D01*
X02831Y02598D01*
X02833Y02598D01*
X02834Y02598D01*
X02835Y02598D01*
X02836Y02598D01*
X02837Y02598D01*
X02838Y02598D01*
X02839Y02598D01*
X02840Y02598D01*
X02841Y02598D01*
X02841Y02598D01*
X02843Y02598D01*
X02843Y02598D01*
X02845Y02598D01*
X02846Y02598D01*
X02847Y02598D01*
X02848Y02598D01*
X02849Y02598D01*
X02850Y02598D01*
X02851Y02598D01*
X02852Y02598D01*
X02853Y02598D01*
X02854Y02598D01*
X02855Y02598D01*
X02855Y02598D01*
X02857Y02598D01*
X02858Y02598D01*
X02859Y02598D01*
X02860Y02598D01*
X02861Y02598D01*
X02862Y02598D01*
X02863Y02598D01*
X02864Y02598D01*
X02865Y02598D01*
X02866Y02598D01*
X02867Y02598D01*
X02867Y02598D01*
X02869Y02598D01*
X02870Y02598D01*
X02871Y02598D01*
X02872Y02598D01*
X02873Y02598D01*
X02874Y02598D01*
X02875Y02598D01*
X02876Y02598D01*
X02877Y02598D01*
X02878Y02598D01*
X02879Y02598D01*
X02879Y02598D01*
X02881Y02598D01*
X02882Y02598D01*
X02883Y02598D01*
X02884Y02598D01*
X02885Y02598D01*
X02886Y02598D01*
X02887Y02598D01*
X02888Y02598D01*
X02889Y02598D01*
X02890Y02598D01*
X02891Y02598D01*
X02891Y02598D01*
X02893Y02598D01*
X02894Y02598D01*
X02895Y02598D01*
X02896Y02598D01*
X02897Y02598D01*
X02898Y02598D01*
X02899Y02598D01*
X02900Y02598D01*
X02901Y02598D01*
X02902Y02598D01*
X02903Y02598D01*
X02903Y02598D01*
X02905Y02598D01*
X02906Y02598D01*
X02907Y02598D01*
X02908Y02598D01*
X02909Y02598D01*
X02910Y02598D01*
X02911Y02598D01*
X02912Y02598D01*
X02913Y02598D01*
X02914Y02598D01*
X02915Y02598D01*
X02915Y02598D01*
X02917Y02598D01*
X02918Y02598D01*
X02919Y02598D01*
X02920Y02598D01*
X02921Y02598D01*
X02922Y02598D01*
X02923Y02598D01*
X02924Y02598D01*
X02925Y02598D01*
X02926Y02598D01*
X02927Y02598D01*
X02927Y02598D01*
X02929Y02598D01*
X02930Y02598D01*
X02931Y02598D01*
X02932Y02598D01*
X02933Y02598D01*
X02934Y02598D01*
X02935Y02598D01*
X02936Y02598D01*
X02937Y02598D01*
X02938Y02598D01*
X02939Y02598D01*
X02939Y02598D01*
X02941Y02598D01*
X02942Y02598D01*
X02943Y02598D01*
X02944Y02598D01*
X02945Y02598D01*
X02946Y02598D01*
X02947Y02598D01*
X02948Y02598D01*
X02949Y02598D01*
X02950Y02598D01*
X02951Y02598D01*
X02951Y02598D01*
X02953Y02598D01*
X02954Y02598D01*
X02955Y02598D01*
X02956Y02598D01*
X02957Y02598D01*
X02958Y02598D01*
X02959Y02598D01*
X02960Y02598D01*
X02961Y02598D01*
X02962Y02598D01*
X02963Y02598D01*
X02963Y02598D01*
X02965Y02598D01*
X02966Y02598D01*
X02967Y02598D01*
X02968Y02598D01*
X02969Y02598D01*
X02970Y02598D01*
X02971Y02598D01*
X02972Y02598D01*
X02973Y02598D01*
X02974Y02598D01*
X02975Y02598D01*
X02975Y02598D01*
X02977Y02598D01*
X02978Y02598D01*
X02979Y02598D01*
X02980Y02598D01*
X02981Y02598D01*
X02982Y02598D01*
X02983Y02598D01*
X02984Y02598D01*
X02985Y02598D01*
X02986Y02598D01*
X02987Y02598D01*
X02987Y02598D01*
X02989Y02598D01*
X02990Y02598D01*
X02991Y02598D01*
X02992Y02598D01*
X02993Y02598D01*
X02994Y02598D01*
X02995Y02598D01*
X02996Y02598D01*
X02997Y02598D01*
X02998Y02598D01*
X02999Y02598D01*
X02999Y02598D01*
X03001Y02598D01*
X03001Y02598D01*
X03003Y02598D01*
X03004Y02598D01*
X03005Y02598D01*
X03006Y02598D01*
X03007Y02598D01*
X03008Y02598D01*
X03009Y02598D01*
X03010Y02598D01*
X03011Y02598D01*
X03012Y02598D01*
X03013Y02598D01*
X03013Y02598D01*
X03015Y02598D01*
X03016Y02598D01*
X03017Y02598D01*
X03018Y02598D01*
X03019Y02598D01*
X03020Y02598D01*
X03021Y02598D01*
X03022Y02598D01*
X03023Y02598D01*
X03024Y02598D01*
X03025Y02598D01*
X03025Y02598D01*
X03027Y02598D01*
X03028Y02598D01*
X03029Y02598D01*
X03030Y02598D01*
X03031Y02598D01*
X03032Y02598D01*
X03033Y02598D01*
X03034Y02598D01*
X03035Y02598D01*
X03036Y02598D01*
X03037Y02598D01*
X03037Y02598D01*
X03039Y02598D01*
X03040Y02598D01*
X03041Y02598D01*
X03042Y02598D01*
X03043Y02598D01*
X03044Y02598D01*
X03045Y02598D01*
X03046Y02598D01*
X03047Y02598D01*
X03048Y02598D01*
X03049Y02598D01*
X03049Y02598D01*
X03051Y02598D01*
X03052Y02598D01*
X03053Y02598D01*
X03054Y02598D01*
X03055Y02598D01*
X03056Y02598D01*
X03057Y02598D01*
X03058Y02598D01*
X03059Y02598D01*
X03060Y02598D01*
X03061Y02598D01*
X03061Y02598D01*
X03063Y02598D01*
X03064Y02598D01*
X03065Y02598D01*
X03066Y02598D01*
X03067Y02598D01*
X03068Y02598D01*
X03069Y02598D01*
X03070Y02598D01*
X03071Y02598D01*
X03072Y02598D01*
X03073Y02598D01*
X03073Y02598D01*
X03075Y02598D01*
X03076Y02598D01*
X03077Y02598D01*
X03078Y02598D01*
X03078Y02598D01*
X03080Y02598D01*
X03081Y02598D01*
X03082Y02598D01*
X03083Y02598D01*
X03084Y02598D01*
X03085Y02598D01*
X03085Y02598D01*
X03087Y02598D01*
X03088Y02598D01*
X03089Y02598D01*
X03090Y02598D01*
X03090Y02598D01*
X03092Y02598D01*
X03093Y02598D01*
X03094Y02598D01*
X03095Y02598D01*
X03096Y02598D01*
X03097Y02598D01*
X03097Y02598D01*
X03099Y02598D01*
X03100Y02598D01*
X03101Y02598D01*
X03102Y02598D01*
X03102Y02598D01*
X03104Y02598D01*
X03105Y02598D01*
X03106Y02598D01*
X03107Y02598D01*
X03108Y02598D01*
X03109Y02598D01*
X03109Y02598D01*
X03111Y02598D01*
X03112Y02598D01*
X03113Y02598D01*
X03114Y02598D01*
X03114Y02598D01*
X03116Y02598D01*
X03117Y02598D01*
X03118Y02598D01*
X03119Y02598D01*
X03120Y02598D01*
X03121Y02598D01*
X03121Y02598D01*
X03123Y02598D01*
X03124Y02598D01*
X03125Y02598D01*
X03126Y02598D01*
X03127Y02598D01*
X03128Y02598D01*
X03129Y02598D01*
X03130Y02598D01*
X03131Y02598D01*
X03132Y02598D01*
X03133Y02598D01*
X03133Y02598D01*
X03135Y02598D01*
X03136Y02598D01*
X03137Y02598D01*
X03138Y02598D01*
X03139Y02598D01*
X03140Y02598D01*
X03141Y02598D01*
X03142Y02598D01*
X03143Y02598D01*
X03144Y02598D01*
X03145Y02598D01*
X03145Y02598D01*
X03147Y02598D01*
X03148Y02598D01*
X03149Y02598D01*
X03150Y02598D01*
X03151Y02598D01*
X03152Y02598D01*
X03153Y02598D01*
X03154Y02598D01*
X03155Y02598D01*
X03156Y02598D01*
X03157Y02598D01*
X03158Y02598D01*
X03159Y02598D01*
X03160Y02598D01*
X03161Y02598D01*
X03162Y02598D01*
X03163Y02598D01*
X03164Y02598D01*
X03165Y02598D01*
X03166Y02598D01*
X03167Y02598D01*
X03168Y02598D01*
X03169Y02598D01*
X03170Y02598D01*
X03171Y02598D01*
X03172Y02598D01*
X03173Y02598D01*
X03174Y02598D01*
X03175Y02598D01*
X03176Y02598D01*
X03177Y02598D01*
X03178Y02598D01*
X03179Y02598D01*
X03180Y02598D01*
X03181Y02598D01*
X03182Y02598D01*
X03183Y02598D01*
X03184Y02598D01*
X03185Y02598D01*
X03186Y02598D01*
X03187Y02598D01*
X03188Y02598D01*
X03189Y02598D01*
X03190Y02598D01*
X03191Y02598D01*
X03192Y02598D01*
X03193Y02598D01*
X03194Y02598D01*
X03195Y02598D01*
X03196Y02598D01*
X03197Y02598D01*
X03198Y02598D01*
X03199Y02598D01*
X03200Y02598D01*
X03201Y02598D01*
X03202Y02598D01*
X03203Y02598D01*
X03204Y02598D01*
X03205Y02598D01*
X03206Y02598D01*
X03207Y02598D01*
X03208Y02598D01*
X03209Y02598D01*
X03210Y02598D01*
X03211Y02598D01*
X03212Y02598D01*
X03213Y02598D01*
X03214Y02598D01*
X03215Y02598D01*
X03216Y02598D01*
X03217Y02598D01*
X03218Y02598D01*
X03219Y02598D01*
X03220Y02598D01*
X03221Y02598D01*
X03222Y02598D01*
X03223Y02598D01*
X03224Y02598D01*
X03225Y02598D01*
X03226Y02598D01*
X03227Y02598D01*
X03228Y02598D01*
X03229Y02598D01*
X03230Y02598D01*
X03231Y02598D01*
X03232Y02598D01*
X03233Y02598D01*
X03234Y02598D01*
X03235Y02598D01*
X03236Y02598D01*
X03236Y02598D01*
X03238Y02598D01*
X03239Y02598D01*
X03240Y02598D01*
X03241Y02598D01*
X03242Y02598D01*
X03243Y02598D01*
X03244Y02598D01*
X03245Y02598D01*
X03246Y02598D01*
X03247Y02598D01*
X03248Y02598D01*
X03248Y02598D01*
X03250Y02598D01*
X03251Y02598D01*
X03252Y02598D01*
X03253Y02598D01*
X03254Y02598D01*
X03255Y02598D01*
X03255Y02598D01*
X03257Y02598D01*
X03258Y02598D01*
X03259Y02598D01*
X03260Y02598D01*
X03260Y02598D01*
X03262Y02598D01*
X03263Y02598D01*
X03264Y02598D01*
X03265Y02598D01*
X03266Y02598D01*
X03267Y02598D01*
X03267Y02598D01*
X03269Y02598D01*
X03270Y02598D01*
X03271Y02598D01*
X03272Y02598D01*
X03272Y02598D01*
X03274Y02598D01*
X03275Y02598D01*
X03276Y02598D01*
X03277Y02598D01*
X03278Y02598D01*
X03279Y02598D01*
X03279Y02598D01*
X03281Y02598D01*
X03282Y02598D01*
X03283Y02598D01*
X03284Y02598D01*
X03284Y02598D01*
X03286Y02598D01*
X03287Y02598D01*
X03288Y02598D01*
X03289Y02598D01*
X03290Y02598D01*
X03291Y02598D01*
X03291Y02598D01*
X03293Y02598D01*
X03294Y02598D01*
X03295Y02598D01*
X03296Y02598D01*
X03296Y02598D01*
X03298Y02598D01*
X03299Y02598D01*
X03300Y02598D01*
X03301Y02598D01*
X03302Y02598D01*
X03303Y02598D01*
X03304Y02598D01*
X03305Y02598D01*
X03306Y02598D01*
X03307Y02598D01*
X03308Y02598D01*
X03308Y02598D01*
X03310Y02598D01*
X03311Y02598D01*
X03312Y02598D01*
X03313Y02598D01*
X03314Y02598D01*
X03315Y02598D01*
X03316Y02598D01*
X03317Y02598D01*
X03318Y02598D01*
X03319Y02598D01*
X03320Y02598D01*
X03320Y02598D01*
X03322Y02598D01*
X03323Y02598D01*
X03324Y02598D01*
X03325Y02598D01*
X03326Y02598D01*
X03327Y02598D01*
X03328Y02598D01*
X03329Y02598D01*
X03330Y02598D01*
X03331Y02598D01*
X03332Y02598D01*
X03332Y02598D01*
X03334Y02598D01*
X03335Y02598D01*
X03336Y02598D01*
X03337Y02598D01*
X03338Y02598D01*
X03339Y02598D01*
X03340Y02598D01*
X03341Y02598D01*
X03342Y02598D01*
X03343Y02598D01*
X03344Y02598D01*
X03344Y02598D01*
X03346Y02598D01*
X03347Y02598D01*
X03348Y02598D01*
X03349Y02598D01*
X03350Y02598D01*
X03351Y02598D01*
X03352Y02598D01*
X03353Y02598D01*
X03354Y02598D01*
X03355Y02598D01*
X03356Y02598D01*
X03356Y02598D01*
X03358Y02598D01*
X03359Y02598D01*
X03360Y02598D01*
X03361Y02598D01*
X03362Y02598D01*
X03363Y02598D01*
X03364Y02598D01*
X03365Y02598D01*
X03366Y02598D01*
X03367Y02598D01*
X03368Y02598D01*
X03369Y02598D01*
X03370Y02598D01*
X03371Y02598D01*
X03372Y02598D01*
X03373Y02598D01*
X03374Y02598D01*
X03375Y02598D01*
X03376Y02598D01*
X03377Y02598D01*
X03378Y02598D01*
X03379Y02598D01*
X03380Y02598D01*
X03381Y02598D01*
X03382Y02598D01*
X03382Y02598D01*
X03384Y02598D01*
X03385Y02598D01*
X03386Y02598D01*
X03387Y02598D01*
X03388Y02598D01*
X03389Y02598D01*
X03390Y02598D01*
X03391Y02598D01*
X03392Y02598D01*
X03393Y02598D01*
X03394Y02598D01*
X03394Y02598D01*
X03396Y02598D01*
X03397Y02598D01*
X03398Y02598D01*
X03399Y02598D01*
X03400Y02598D01*
X03401Y02598D01*
X03402Y02598D01*
X03403Y02598D01*
X03404Y02598D01*
X03405Y02598D01*
X03406Y02598D01*
X03406Y02598D01*
X03408Y02598D01*
X03409Y02598D01*
X03410Y02598D01*
X03411Y02598D01*
X03412Y02598D01*
X03413Y02598D01*
X03414Y02598D01*
X03415Y02598D01*
X03416Y02598D01*
X03417Y02598D01*
X03418Y02598D01*
X03418Y02598D01*
X03420Y02598D01*
X03421Y02598D01*
X03422Y02598D01*
X03423Y02598D01*
X03424Y02598D01*
X03425Y02598D01*
X03426Y02598D01*
X03427Y02598D01*
X03428Y02598D01*
X03429Y02598D01*
X03430Y02598D01*
X03430Y02598D01*
X03432Y02598D01*
X03433Y02598D01*
X03434Y02598D01*
X03435Y02598D01*
X03436Y02598D01*
X03437Y02598D01*
X03438Y02598D01*
X03439Y02598D01*
X03440Y02598D01*
X03441Y02598D01*
X03442Y02598D01*
X03442Y02598D01*
X03444Y02598D01*
X03445Y02598D01*
X03446Y02598D01*
X03447Y02598D01*
X03448Y02598D01*
X03449Y02598D01*
X03450Y02598D01*
X03451Y02598D01*
X03452Y02598D01*
X03453Y02598D01*
X03454Y02598D01*
X03454Y02598D01*
X03456Y02598D01*
X03457Y02598D01*
X03458Y02598D01*
X03459Y02598D01*
X03460Y02598D01*
X03461Y02598D01*
X03462Y02598D01*
X03463Y02598D01*
X03464Y02598D01*
X03465Y02598D01*
X03466Y02598D01*
X03466Y02598D01*
X03468Y02598D01*
X03469Y02598D01*
X03470Y02598D01*
X03471Y02598D01*
X03472Y02598D01*
X03473Y02598D01*
X03474Y02598D01*
X03475Y02598D01*
X03476Y02598D01*
X03477Y02598D01*
X03478Y02598D01*
X03478Y02598D01*
X03480Y02598D01*
X03481Y02598D01*
X03482Y02598D01*
X03483Y02598D01*
X03484Y02598D01*
X03485Y02598D01*
X03486Y02598D01*
X03487Y02598D01*
X03488Y02598D01*
X03489Y02598D01*
X03490Y02598D01*
X03490Y02598D01*
X03492Y02598D01*
X03493Y02598D01*
X03494Y02598D01*
X03495Y02598D01*
X03496Y02598D01*
X03497Y02598D01*
X03498Y02598D01*
X03499Y02598D01*
X03500Y02598D01*
X03501Y02598D01*
X03502Y02598D01*
X03502Y02598D01*
X03504Y02598D01*
X03505Y02598D01*
X03506Y02598D01*
X03507Y02598D01*
X03508Y02598D01*
X03509Y02598D01*
X03510Y02598D01*
X03511Y02598D01*
X03512Y02598D01*
X03513Y02598D01*
X03514Y02598D01*
X03514Y02598D01*
X03516Y02598D01*
X03517Y02598D01*
X03518Y02598D01*
X03519Y02598D01*
X03520Y02598D01*
X03521Y02598D01*
X03522Y02598D01*
X03523Y02598D01*
X03524Y02598D01*
X03525Y02598D01*
X03526Y02598D01*
X03526Y02598D01*
X03528Y02598D01*
X03528Y02598D01*
X03530Y02598D01*
X03531Y02598D01*
X03532Y02598D01*
X03533Y02598D01*
X03534Y02598D01*
X03535Y02598D01*
X03536Y02598D01*
X03537Y02598D01*
X03538Y02598D01*
X03538Y02598D01*
X03540Y02598D01*
X03540Y02598D01*
X03542Y02598D01*
X03543Y02598D01*
X03544Y02598D01*
X03545Y02598D01*
X03546Y02598D01*
X03547Y02598D01*
X03548Y02598D01*
X03549Y02598D01*
X03550Y02598D01*
X03550Y02598D01*
X03552Y02598D01*
X03552Y02598D01*
X03554Y02598D01*
X03555Y02598D01*
X03556Y02598D01*
X03557Y02598D01*
X03558Y02598D01*
X03559Y02598D01*
X03560Y02598D01*
X03561Y02598D01*
X03562Y02598D01*
X03562Y02598D01*
X03564Y02598D01*
X03564Y02598D01*
X03566Y02598D01*
X03567Y02598D01*
X03568Y02598D01*
X03569Y02598D01*
X03570Y02598D01*
X03571Y02598D01*
X03572Y02598D01*
X03573Y02598D01*
X03574Y02598D01*
X03574Y02598D01*
X03576Y02598D01*
X03576Y02598D01*
X03578Y02598D01*
X03579Y02598D01*
X03580Y02598D01*
X03581Y02598D01*
X03582Y02598D01*
X03583Y02598D01*
X03584Y02598D01*
X03585Y02598D01*
X03586Y02598D01*
X03586Y02598D01*
X03588Y02598D01*
X03588Y02598D01*
X03590Y02598D01*
X03591Y02598D01*
X03592Y02598D01*
X03593Y02598D01*
X03594Y02598D01*
X03595Y02598D01*
X03596Y02598D01*
X03597Y02598D01*
X03598Y02598D01*
X03598Y02598D01*
X03600Y02598D01*
X03600Y02598D01*
X03602Y02598D01*
X03603Y02598D01*
X03604Y02598D01*
X03605Y02598D01*
X03606Y02598D01*
X03607Y02598D01*
X03608Y02598D01*
X03609Y02598D01*
X03610Y02598D01*
X03610Y02598D01*
X03612Y02598D01*
X03612Y02598D01*
X03614Y02598D01*
X03615Y02598D01*
X03616Y02598D01*
X03617Y02598D01*
X03618Y02598D01*
X03619Y02598D01*
X03620Y02598D01*
X03621Y02598D01*
X03622Y02598D01*
X03623Y02598D01*
X03624Y02598D01*
X03624Y02598D01*
X03626Y02598D01*
X03627Y02598D01*
X03628Y02598D01*
X03629Y02598D01*
X03630Y02598D01*
X03631Y02598D01*
X03632Y02598D01*
X03633Y02598D01*
X03634Y02598D01*
X03635Y02598D01*
X03636Y02598D01*
X03636Y02598D01*
X03638Y02598D01*
X03639Y02598D01*
X03640Y02598D01*
X03641Y02598D01*
X03642Y02598D01*
X03643Y02598D01*
X03644Y02598D01*
X03645Y02598D01*
X03646Y02598D01*
X03647Y02598D01*
X03648Y02598D01*
X03648Y02598D01*
X03650Y02598D01*
X03651Y02598D01*
X03652Y02598D01*
X03653Y02598D01*
X03654Y02598D01*
X03655Y02598D01*
X03656Y02598D01*
X03657Y02598D01*
X03658Y02598D01*
X03659Y02598D01*
X03660Y02598D01*
X03660Y02598D01*
X03662Y02598D01*
X03663Y02598D01*
X03664Y02598D01*
X03665Y02598D01*
X03666Y02598D01*
X03667Y02598D01*
X03668Y02598D01*
X03669Y02598D01*
X03670Y02598D01*
X03671Y02598D01*
X03672Y02598D01*
X03672Y02598D01*
X03674Y02598D01*
X03675Y02598D01*
X03676Y02598D01*
X03677Y02598D01*
X03678Y02598D01*
X03679Y02598D01*
X03680Y02598D01*
X03681Y02598D01*
X03682Y02598D01*
X03683Y02598D01*
X03684Y02598D01*
X03684Y02598D01*
X03686Y02598D01*
X03686Y02598D01*
X03688Y02598D01*
X03689Y02598D01*
X03690Y02598D01*
X03691Y02598D01*
X03692Y02598D01*
X03693Y02598D01*
X03694Y02598D01*
X03695Y02598D01*
X03696Y02598D01*
X03696Y02598D01*
X03698Y02598D01*
X03698Y02598D01*
X03700Y02598D01*
X03701Y02598D01*
X03702Y02598D01*
X03703Y02598D01*
X03704Y02598D01*
X03705Y02598D01*
X03706Y02598D01*
X03707Y02598D01*
X03708Y02598D01*
X03708Y02598D01*
X03710Y02598D01*
X03710Y02598D01*
X03712Y02598D01*
X03713Y02598D01*
X03714Y02598D01*
X03715Y02598D01*
X03716Y02598D01*
X03717Y02598D01*
X03718Y02598D01*
X03719Y02598D01*
X03720Y02598D01*
X03720Y02598D01*
X03722Y02598D01*
X03722Y02598D01*
X03724Y02598D01*
X03725Y02598D01*
X03726Y02598D01*
X03727Y02598D01*
X03728Y02598D01*
X03729Y02598D01*
X03730Y02598D01*
X03731Y02598D01*
X03732Y02598D01*
X03732Y02598D01*
X03734Y02598D01*
X03734Y02598D01*
X03736Y02598D01*
X03737Y02598D01*
X03738Y02598D01*
X03739Y02598D01*
X03740Y02598D01*
X03741Y02598D01*
X03742Y02598D01*
X03743Y02598D01*
X03744Y02598D01*
X03744Y02598D01*
X03746Y02598D01*
X03746Y02598D01*
X03748Y02598D01*
X03749Y02598D01*
X03750Y02598D01*
X03751Y02598D01*
X03752Y02597D01*
X03753Y02597D01*
X03754Y02597D01*
X03755Y02597D01*
X03756Y02597D01*
X03756Y02597D01*
X03758Y02597D01*
X03758Y02597D01*
X03760Y02596D01*
X03761Y02596D01*
X03762Y02596D01*
X03763Y02596D01*
X03764Y02596D01*
X03765Y02595D01*
X03766Y02595D01*
X03767Y02595D01*
X03768Y02595D01*
X03768Y02595D01*
X03770Y02594D01*
X03770Y02594D01*
X03772Y02594D01*
X03773Y02593D01*
X03774Y02593D01*
X03775Y02593D01*
X03776Y02593D01*
X03777Y02592D01*
X03778Y02592D01*
X03779Y02592D01*
X03780Y02591D01*
X03781Y02591D01*
X03782Y02590D01*
X03782Y02590D01*
X03784Y02590D01*
X03785Y02589D01*
X03786Y02589D01*
X03787Y02587D01*
X03788Y02587D01*
X03789Y02587D01*
X03790Y02587D01*
X03791Y02587D01*
X03792Y02586D01*
X03793Y02586D01*
X03794Y02585D01*
X03794Y02585D01*
X03796Y02584D01*
X03797Y02583D01*
X03798Y02583D01*
X03799Y02582D01*
X03800Y02582D01*
X03801Y02581D01*
X03802Y02581D01*
X03803Y02580D01*
X03804Y02579D01*
X03805Y02579D01*
X03806Y02578D01*
X03806Y02577D01*
X03808Y02575D01*
X03809Y02575D01*
X03810Y02575D01*
X03811Y02574D01*
X03812Y02574D01*
X03813Y02573D01*
X03814Y02572D01*
X03815Y02571D01*
X03816Y02570D01*
X03817Y02569D01*
X03818Y02568D01*
X03818Y02567D01*
X03820Y02567D01*
X03821Y02566D01*
X03822Y02565D01*
X03823Y02563D01*
X03824Y02563D01*
X03825Y02562D01*
X03825Y02561D01*
X03826Y02560D01*
X03827Y02559D01*
X03828Y02558D01*
X03829Y02557D01*
X03830Y02556D01*
X03830Y02555D01*
X03832Y02554D01*
X03832Y02553D01*
X03833Y02551D01*
X03834Y02551D01*
X03835Y02550D01*
X03835Y02549D01*
X03836Y02548D01*
X03837Y02547D01*
X03837Y02546D01*
X03838Y02545D01*
X03839Y02544D01*
X03839Y02543D01*
X03840Y02542D01*
X03840Y02541D01*
X03841Y02539D01*
X03842Y02539D01*
X03842Y02538D01*
X03842Y02537D01*
X03842Y02536D01*
X03844Y02535D01*
X03844Y02534D01*
X03845Y02533D01*
X03845Y02532D01*
X03846Y02531D01*
X03846Y02530D01*
X03847Y02529D01*
X03847Y02527D01*
X03848Y02526D01*
X03848Y02525D01*
X03849Y02524D01*
X03849Y02522D01*
X03850Y02521D01*
X03850Y02519D01*
X03851Y02518D01*
X03851Y02516D01*
X03852Y02515D01*
X03852Y02512D01*
X03853Y02511D01*
X03853Y02508D01*
X03854Y02507D01*
X03854Y02502D01*
X03854Y02501D01*
X03854Y02494D01*
X03856Y02493D01*
X03856Y00145D01*
X03854Y00144D01*
X03854Y00137D01*
X03854Y00136D01*
X03854Y00131D01*
X03853Y00130D01*
X03853Y00127D01*
X03852Y00126D01*
X03852Y00123D01*
X03851Y00122D01*
X03851Y00120D01*
X03850Y00119D01*
X03850Y00117D01*
X03849Y00116D01*
X03849Y00114D01*
X03848Y00113D01*
X03848Y00112D01*
X03847Y00111D01*
X03847Y00109D01*
X03846Y00108D01*
X03846Y00107D01*
X03845Y00106D01*
X03845Y00105D01*
X03844Y00104D01*
X03844Y00103D01*
X03842Y00102D01*
X03842Y00101D01*
X03842Y00100D01*
X03842Y00099D01*
X03841Y00098D01*
X03840Y00097D01*
X03840Y00096D01*
X03839Y00095D01*
X03839Y00094D01*
X03838Y00092D01*
X03837Y00092D01*
X03837Y00091D01*
X03836Y00089D01*
X03835Y00089D01*
X03835Y00088D01*
X03834Y00086D01*
X03833Y00086D01*
X03832Y00085D01*
X03832Y00084D01*
X03830Y00083D01*
X03830Y00081D01*
X03829Y00081D01*
X03828Y00080D01*
X03827Y00078D01*
X03826Y00078D01*
X03825Y00077D01*
X03825Y00076D01*
X03824Y00075D01*
X03823Y00074D01*
X03822Y00073D01*
X03821Y00072D01*
X03820Y00071D01*
X03818Y00071D01*
X03818Y00070D01*
X03817Y00069D01*
X03816Y00068D01*
X03815Y00067D01*
X03814Y00066D01*
X03813Y00065D01*
X03812Y00064D01*
X03811Y00064D01*
X03810Y00063D01*
X03809Y00062D01*
X03808Y00062D01*
X03806Y00061D01*
X03806Y00060D01*
X03805Y00059D01*
X03804Y00059D01*
X03803Y00058D01*
X03802Y00057D01*
X03801Y00057D01*
X03800Y00056D01*
X03799Y00056D01*
X03798Y00055D01*
X03797Y00055D01*
X03796Y00054D01*
X03794Y00053D01*
X03794Y00053D01*
X03793Y00052D01*
X03792Y00052D01*
X03791Y00051D01*
X03790Y00051D01*
X03789Y00051D01*
X03788Y00050D01*
X03787Y00050D01*
X03786Y00049D01*
X03785Y00049D01*
X03784Y00048D01*
X03782Y00048D01*
X03782Y00048D01*
X03781Y00047D01*
X03780Y00047D01*
X03779Y00046D01*
X03778Y00046D01*
X03777Y00046D01*
X03776Y00044D01*
X03775Y00044D01*
X03774Y00044D01*
X03773Y00044D01*
X03772Y00044D01*
X03770Y00044D01*
X03770Y00044D01*
X03768Y00043D01*
X03768Y00043D01*
X03767Y00043D01*
X03766Y00043D01*
X03765Y00043D01*
X03764Y00042D01*
X03763Y00042D01*
X03762Y00042D01*
X03761Y00042D01*
X03760Y00042D01*
X03758Y00040D01*
X03758Y00040D01*
X03756Y00040D01*
X03756Y00040D01*
X03755Y00040D01*
X03754Y00040D01*
X03753Y00040D01*
X03752Y00040D01*
X03751Y00040D01*
X03750Y00040D01*
X03749Y00040D01*
X03748Y00040D01*
X03746Y00040D01*
X03746Y00040D01*
X03744Y00040D01*
X03744Y00040D01*
X03743Y00040D01*
X03742Y00040D01*
X03741Y00040D01*
X03740Y00040D01*
X03739Y00040D01*
X03738Y00040D01*
X03737Y00040D01*
X03736Y00040D01*
X03734Y00040D01*
X03734Y00040D01*
X03732Y00040D01*
X03732Y00040D01*
X03731Y00040D01*
X03730Y00040D01*
X03729Y00040D01*
X03728Y00040D01*
X03727Y00040D01*
X03726Y00040D01*
X03725Y00040D01*
X03724Y00040D01*
X03722Y00040D01*
X03722Y00040D01*
X03720Y00040D01*
X03720Y00040D01*
X03719Y00040D01*
X03718Y00040D01*
X03717Y00040D01*
X03716Y00040D01*
X03715Y00040D01*
X03714Y00040D01*
X03713Y00040D01*
X03712Y00040D01*
X03710Y00040D01*
X03710Y00040D01*
X03708Y00040D01*
X03708Y00040D01*
X03707Y00040D01*
X03706Y00040D01*
X03705Y00040D01*
X03704Y00040D01*
X03703Y00040D01*
X03702Y00040D01*
X03701Y00040D01*
X03700Y00040D01*
X03698Y00040D01*
X03698Y00040D01*
X03696Y00040D01*
X03696Y00040D01*
X03695Y00040D01*
X03694Y00040D01*
X03693Y00040D01*
X03692Y00040D01*
X03691Y00040D01*
X03690Y00040D01*
X03689Y00040D01*
X03688Y00040D01*
X03686Y00040D01*
X03686Y00040D01*
X03684Y00040D01*
X03684Y00040D01*
X03683Y00040D01*
X03682Y00040D01*
X03681Y00040D01*
X03680Y00040D01*
X03679Y00040D01*
X03678Y00040D01*
X03677Y00040D01*
X03676Y00040D01*
X03675Y00040D01*
X03674Y00040D01*
X03672Y00040D01*
X03672Y00040D01*
X03671Y00040D01*
X03670Y00040D01*
X03669Y00040D01*
X03668Y00040D01*
X03667Y00040D01*
X03666Y00040D01*
X03665Y00040D01*
X03664Y00040D01*
X03663Y00040D01*
X03662Y00040D01*
X03660Y00040D01*
X03660Y00040D01*
X03659Y00040D01*
X03658Y00040D01*
X03657Y00040D01*
X03656Y00040D01*
X03655Y00040D01*
X03654Y00040D01*
X03653Y00040D01*
X03652Y00040D01*
X03651Y00040D01*
X03650Y00040D01*
X03648Y00040D01*
X03648Y00040D01*
X03647Y00040D01*
X03646Y00040D01*
X03645Y00040D01*
X03644Y00040D01*
X03643Y00040D01*
X03642Y00040D01*
X03641Y00040D01*
X03640Y00040D01*
X03639Y00040D01*
X03638Y00040D01*
X03636Y00040D01*
X03636Y00040D01*
X03635Y00040D01*
X03634Y00040D01*
X03633Y00040D01*
X03632Y00040D01*
X03631Y00040D01*
X03630Y00040D01*
X03629Y00040D01*
X03628Y00040D01*
X03627Y00040D01*
X03626Y00040D01*
X03624Y00040D01*
X03624Y00040D01*
X03623Y00040D01*
X03622Y00040D01*
X03621Y00040D01*
X03620Y00040D01*
X03619Y00040D01*
X03618Y00040D01*
X03617Y00040D01*
X03616Y00040D01*
X03615Y00040D01*
X03614Y00040D01*
X03612Y00040D01*
X03612Y00040D01*
X03610Y00040D01*
X03610Y00040D01*
X03609Y00040D01*
X03608Y00040D01*
X03607Y00040D01*
X03606Y00040D01*
X03605Y00040D01*
X03604Y00040D01*
X03603Y00040D01*
X03602Y00040D01*
X03600Y00040D01*
X03600Y00040D01*
X03598Y00040D01*
X03598Y00040D01*
X03597Y00040D01*
X03596Y00040D01*
X03595Y00040D01*
X03594Y00040D01*
X03593Y00040D01*
X03592Y00040D01*
X03591Y00040D01*
X03590Y00040D01*
X03588Y00040D01*
X03588Y00040D01*
X03586Y00040D01*
X03586Y00040D01*
X03585Y00040D01*
X03584Y00040D01*
X03583Y00040D01*
X03582Y00040D01*
X03581Y00040D01*
X03580Y00040D01*
X03579Y00040D01*
X03578Y00040D01*
X03576Y00040D01*
X03576Y00040D01*
X03574Y00040D01*
X03574Y00040D01*
X03573Y00040D01*
X03572Y00040D01*
X03571Y00040D01*
X03570Y00040D01*
X03569Y00040D01*
X03568Y00040D01*
X03567Y00040D01*
X03566Y00040D01*
X03564Y00040D01*
X03564Y00040D01*
X03562Y00040D01*
X03562Y00040D01*
X03561Y00040D01*
X03560Y00040D01*
X03559Y00040D01*
X03558Y00040D01*
X03557Y00040D01*
X03556Y00040D01*
X03555Y00040D01*
X03554Y00040D01*
X03552Y00040D01*
X03552Y00040D01*
X03550Y00040D01*
X03550Y00040D01*
X03549Y00040D01*
X03548Y00040D01*
X03547Y00040D01*
X03546Y00040D01*
X03545Y00040D01*
X03544Y00040D01*
X03543Y00040D01*
X03542Y00040D01*
X03540Y00040D01*
X03540Y00040D01*
X03538Y00040D01*
X03538Y00040D01*
X03537Y00040D01*
X03536Y00040D01*
X03535Y00040D01*
X03534Y00040D01*
X03533Y00040D01*
X03532Y00040D01*
X03531Y00040D01*
X03530Y00040D01*
X03528Y00040D01*
X03528Y00040D01*
X03526Y00040D01*
X03526Y00040D01*
X03525Y00040D01*
X03524Y00040D01*
X03523Y00040D01*
X03522Y00040D01*
X03521Y00040D01*
X03520Y00040D01*
X03519Y00040D01*
X03518Y00040D01*
X03517Y00040D01*
X03516Y00040D01*
X03514Y00040D01*
X03514Y00040D01*
X03513Y00040D01*
X03512Y00040D01*
X03511Y00040D01*
X03510Y00040D01*
X03509Y00040D01*
X03508Y00040D01*
X03507Y00040D01*
X03506Y00040D01*
X03505Y00040D01*
X03504Y00040D01*
X03502Y00040D01*
X03502Y00040D01*
X03501Y00040D01*
X03500Y00040D01*
X03499Y00040D01*
X03498Y00040D01*
X03497Y00040D01*
X03496Y00040D01*
X03495Y00040D01*
X03494Y00040D01*
X03493Y00040D01*
X03492Y00040D01*
X03490Y00040D01*
X03490Y00040D01*
X03489Y00040D01*
X03488Y00040D01*
X03487Y00040D01*
X03486Y00040D01*
X03485Y00040D01*
X03484Y00040D01*
X03483Y00040D01*
X03482Y00040D01*
X03481Y00040D01*
X03480Y00040D01*
X03478Y00040D01*
X03478Y00040D01*
X03477Y00040D01*
X03476Y00040D01*
X03475Y00040D01*
X03474Y00040D01*
X03473Y00040D01*
X03472Y00040D01*
X03471Y00040D01*
X03470Y00040D01*
X03469Y00040D01*
X03468Y00040D01*
X03466Y00040D01*
X03466Y00040D01*
X03465Y00040D01*
X03464Y00040D01*
X03463Y00040D01*
X03462Y00040D01*
X03461Y00040D01*
X03460Y00040D01*
X03459Y00040D01*
X03458Y00040D01*
X03457Y00040D01*
X03456Y00040D01*
X03454Y00040D01*
X03454Y00040D01*
X03453Y00040D01*
X03452Y00040D01*
X03451Y00040D01*
X03450Y00040D01*
X03449Y00040D01*
X03448Y00040D01*
X03447Y00040D01*
X03446Y00040D01*
X03445Y00040D01*
X03444Y00040D01*
X03442Y00040D01*
X03442Y00040D01*
X03441Y00040D01*
X03440Y00040D01*
X03439Y00040D01*
X03438Y00040D01*
X03437Y00040D01*
X03436Y00040D01*
X03435Y00040D01*
X03434Y00040D01*
X03433Y00040D01*
X03432Y00040D01*
X03430Y00040D01*
X03430Y00040D01*
X03429Y00040D01*
X03428Y00040D01*
X03427Y00040D01*
X03426Y00040D01*
X03425Y00040D01*
X03424Y00040D01*
X03423Y00040D01*
X03422Y00040D01*
X03421Y00040D01*
X03420Y00040D01*
X03418Y00040D01*
X03418Y00040D01*
X03417Y00040D01*
X03416Y00040D01*
X03415Y00040D01*
X03414Y00040D01*
X03413Y00040D01*
X03412Y00040D01*
X03411Y00040D01*
X03410Y00040D01*
X03409Y00040D01*
X03408Y00040D01*
X03406Y00040D01*
X03406Y00040D01*
X03405Y00040D01*
X03404Y00040D01*
X03403Y00040D01*
X03402Y00040D01*
X03401Y00040D01*
X03400Y00040D01*
X03399Y00040D01*
X03398Y00040D01*
X03397Y00040D01*
X03396Y00040D01*
X03394Y00040D01*
X03394Y00040D01*
X03393Y00040D01*
X03392Y00040D01*
X03391Y00040D01*
X03390Y00040D01*
X03389Y00040D01*
X03388Y00040D01*
X03387Y00040D01*
X03386Y00040D01*
X03385Y00040D01*
X03384Y00040D01*
X03382Y00040D01*
X03382Y00040D01*
X03381Y00040D01*
X03380Y00040D01*
X03379Y00040D01*
X03378Y00040D01*
X03377Y00040D01*
X03376Y00040D01*
X03375Y00040D01*
X03374Y00040D01*
X03373Y00040D01*
X03372Y00040D01*
X03371Y00040D01*
X03370Y00040D01*
X03369Y00040D01*
X03368Y00040D01*
X03367Y00040D01*
X03366Y00040D01*
X03365Y00040D01*
X03364Y00040D01*
X03363Y00040D01*
X03362Y00040D01*
X03361Y00040D01*
X03360Y00040D01*
X03359Y00040D01*
X03358Y00040D01*
X03356Y00040D01*
X03356Y00040D01*
X03355Y00040D01*
X03354Y00040D01*
X03353Y00040D01*
X03352Y00040D01*
X03351Y00040D01*
X03350Y00040D01*
X03349Y00040D01*
X03348Y00040D01*
X03347Y00040D01*
X03346Y00040D01*
X03344Y00040D01*
X03344Y00040D01*
X03343Y00040D01*
X03342Y00040D01*
X03341Y00040D01*
X03340Y00040D01*
X03339Y00040D01*
X03338Y00040D01*
X03337Y00040D01*
X03336Y00040D01*
X03335Y00040D01*
X03334Y00040D01*
X03332Y00040D01*
X03332Y00040D01*
X03331Y00040D01*
X03330Y00040D01*
X03329Y00040D01*
X03328Y00040D01*
X03327Y00040D01*
X03326Y00040D01*
X03325Y00040D01*
X03324Y00040D01*
X03323Y00040D01*
X03322Y00040D01*
X03320Y00040D01*
X03320Y00040D01*
X03319Y00040D01*
X03318Y00040D01*
X03317Y00040D01*
X03316Y00040D01*
X03315Y00040D01*
X03314Y00040D01*
X03313Y00040D01*
X03312Y00040D01*
X03311Y00040D01*
X03310Y00040D01*
X03308Y00040D01*
X03308Y00040D01*
X03307Y00040D01*
X03306Y00040D01*
X03305Y00040D01*
X03304Y00040D01*
X03303Y00040D01*
X03302Y00040D01*
X03301Y00040D01*
X03300Y00040D01*
X03299Y00040D01*
X03298Y00040D01*
X03296Y00040D01*
X03296Y00040D01*
X03295Y00040D01*
X03294Y00040D01*
X03293Y00040D01*
X03291Y00040D01*
X03291Y00040D01*
X03290Y00040D01*
X03289Y00040D01*
X03288Y00040D01*
X03287Y00040D01*
X03286Y00040D01*
X03284Y00040D01*
X03284Y00040D01*
X03283Y00040D01*
X03282Y00040D01*
X03281Y00040D01*
X03279Y00040D01*
X03279Y00040D01*
X03278Y00040D01*
X03277Y00040D01*
X03276Y00040D01*
X03275Y00040D01*
X03274Y00040D01*
X03272Y00040D01*
X03272Y00040D01*
X03271Y00040D01*
X03270Y00040D01*
X03269Y00040D01*
X03267Y00040D01*
X03267Y00040D01*
X03266Y00040D01*
X03265Y00040D01*
X03264Y00040D01*
X03263Y00040D01*
X03262Y00040D01*
X03260Y00040D01*
X03260Y00040D01*
X03259Y00040D01*
X03258Y00040D01*
X03257Y00040D01*
X03255Y00040D01*
X03255Y00040D01*
X03254Y00040D01*
X03253Y00040D01*
X03252Y00040D01*
X03251Y00040D01*
X03250Y00040D01*
X03248Y00040D01*
X03248Y00040D01*
X03247Y00040D01*
X03246Y00040D01*
X03245Y00040D01*
X03244Y00040D01*
X03243Y00040D01*
X03242Y00040D01*
X03241Y00040D01*
X03240Y00040D01*
X03239Y00040D01*
X03238Y00040D01*
X03236Y00040D01*
X03236Y00040D01*
X03235Y00040D01*
X03234Y00040D01*
X03233Y00040D01*
X03232Y00040D01*
X03231Y00040D01*
X03230Y00040D01*
X03229Y00040D01*
X03228Y00040D01*
X03227Y00040D01*
X03226Y00040D01*
X03225Y00040D01*
X03224Y00040D01*
X03223Y00040D01*
X03222Y00040D01*
X03221Y00040D01*
X03220Y00040D01*
X03219Y00040D01*
X03218Y00040D01*
X03217Y00040D01*
X03216Y00040D01*
X03215Y00040D01*
X03214Y00040D01*
X03213Y00040D01*
X03212Y00040D01*
X03211Y00040D01*
X03210Y00040D01*
X03209Y00040D01*
X03208Y00040D01*
X03207Y00040D01*
X03206Y00040D01*
X03205Y00040D01*
X03204Y00040D01*
X03203Y00040D01*
X03202Y00040D01*
X03201Y00040D01*
X03200Y00040D01*
X03199Y00040D01*
X03198Y00040D01*
X03197Y00040D01*
X03196Y00040D01*
X03195Y00040D01*
X03194Y00040D01*
X03193Y00040D01*
X03192Y00040D01*
X03191Y00040D01*
X03190Y00040D01*
X03189Y00040D01*
X03188Y00040D01*
X03187Y00040D01*
X03186Y00040D01*
X03185Y00040D01*
X03184Y00040D01*
X03183Y00040D01*
X03182Y00040D01*
X03181Y00040D01*
X03180Y00040D01*
X03179Y00040D01*
X03178Y00040D01*
X03177Y00040D01*
X03176Y00040D01*
X03175Y00040D01*
X03174Y00040D01*
X03173Y00040D01*
X03172Y00040D01*
X03171Y00040D01*
X03170Y00040D01*
X03169Y00040D01*
X03168Y00040D01*
X03167Y00040D01*
X03166Y00040D01*
X03165Y00040D01*
X03164Y00040D01*
X03163Y00040D01*
X03162Y00040D01*
X03161Y00040D01*
X03160Y00040D01*
X03159Y00040D01*
X03158Y00040D01*
X03157Y00040D01*
X03156Y00040D01*
X03155Y00040D01*
X03154Y00040D01*
X03153Y00040D01*
X03152Y00040D01*
X03151Y00040D01*
X03150Y00040D01*
X03149Y00040D01*
X03148Y00040D01*
X03147Y00040D01*
X03145Y00040D01*
X03145Y00040D01*
X03144Y00040D01*
X03143Y00040D01*
X03142Y00040D01*
X03141Y00040D01*
X03140Y00040D01*
X03139Y00040D01*
X03138Y00040D01*
X03137Y00040D01*
X03136Y00040D01*
X03135Y00040D01*
X03133Y00040D01*
X03133Y00040D01*
X03132Y00040D01*
X03131Y00040D01*
X03130Y00040D01*
X03129Y00040D01*
X03128Y00040D01*
X03127Y00040D01*
X03126Y00040D01*
X03125Y00040D01*
X03124Y00040D01*
X03123Y00040D01*
X03121Y00040D01*
X03121Y00040D01*
X03120Y00040D01*
X03119Y00040D01*
X03118Y00040D01*
X03117Y00040D01*
X03116Y00040D01*
X03114Y00040D01*
X03114Y00040D01*
X03113Y00040D01*
X03112Y00040D01*
X03111Y00040D01*
X03109Y00040D01*
X03109Y00040D01*
X03108Y00040D01*
X03107Y00040D01*
X03106Y00040D01*
X03105Y00040D01*
X03104Y00040D01*
X03102Y00040D01*
X03102Y00040D01*
X03101Y00040D01*
X03100Y00040D01*
X03099Y00040D01*
X03097Y00040D01*
X03097Y00040D01*
X03096Y00040D01*
X03095Y00040D01*
X03094Y00040D01*
X03093Y00040D01*
X03092Y00040D01*
X03090Y00040D01*
X03090Y00040D01*
X03089Y00040D01*
X03088Y00040D01*
X03087Y00040D01*
X03085Y00040D01*
X03085Y00040D01*
X03084Y00040D01*
X03083Y00040D01*
X03082Y00040D01*
X03081Y00040D01*
X03080Y00040D01*
X03078Y00040D01*
X03078Y00040D01*
X03077Y00040D01*
X03076Y00040D01*
X03075Y00040D01*
X03073Y00040D01*
X03073Y00040D01*
X03072Y00040D01*
X03071Y00040D01*
X03070Y00040D01*
X03069Y00040D01*
X03068Y00040D01*
X03067Y00040D01*
X03066Y00040D01*
X03065Y00040D01*
X03064Y00040D01*
X03063Y00040D01*
X03061Y00040D01*
X03061Y00040D01*
X03060Y00040D01*
X03059Y00040D01*
X03058Y00040D01*
X03057Y00040D01*
X03056Y00040D01*
X03055Y00040D01*
X03054Y00040D01*
X03053Y00040D01*
X03052Y00040D01*
X03051Y00040D01*
X03049Y00040D01*
X03049Y00040D01*
X03048Y00040D01*
X03047Y00040D01*
X03046Y00040D01*
X03045Y00040D01*
X03044Y00040D01*
X03043Y00040D01*
X03042Y00040D01*
X03041Y00040D01*
X03040Y00040D01*
X03039Y00040D01*
X03037Y00040D01*
X03037Y00040D01*
X03036Y00040D01*
X03035Y00040D01*
X03034Y00040D01*
X03033Y00040D01*
X03032Y00040D01*
X03031Y00040D01*
X03030Y00040D01*
X03029Y00040D01*
X03028Y00040D01*
X03027Y00040D01*
X03025Y00040D01*
X03025Y00040D01*
X03024Y00040D01*
X03023Y00040D01*
X03022Y00040D01*
X03021Y00040D01*
X03020Y00040D01*
X03019Y00040D01*
X03018Y00040D01*
X03017Y00040D01*
X03016Y00040D01*
X03015Y00040D01*
X03013Y00040D01*
X03013Y00040D01*
X03012Y00040D01*
X03011Y00040D01*
X03010Y00040D01*
X03009Y00040D01*
X03008Y00040D01*
X03007Y00040D01*
X03006Y00040D01*
X03005Y00040D01*
X03004Y00040D01*
X03003Y00040D01*
X03001Y00040D01*
X03001Y00040D01*
X02999Y00040D01*
X02999Y00040D01*
X02998Y00040D01*
X02997Y00040D01*
X02996Y00040D01*
X02995Y00040D01*
X02994Y00040D01*
X02993Y00040D01*
X02992Y00040D01*
X02991Y00040D01*
X02990Y00040D01*
X02989Y00040D01*
X02987Y00040D01*
X02987Y00040D01*
X02986Y00040D01*
X02985Y00040D01*
X02984Y00040D01*
X02983Y00040D01*
X02982Y00040D01*
X02981Y00040D01*
X02980Y00040D01*
X02979Y00040D01*
X02978Y00040D01*
X02977Y00040D01*
X02975Y00040D01*
X02975Y00040D01*
X02974Y00040D01*
X02973Y00040D01*
X02972Y00040D01*
X02971Y00040D01*
X02970Y00040D01*
X02969Y00040D01*
X02968Y00040D01*
X02967Y00040D01*
X02966Y00040D01*
X02965Y00040D01*
X02963Y00040D01*
X02963Y00040D01*
X02962Y00040D01*
X02961Y00040D01*
X02960Y00040D01*
X02959Y00040D01*
X02958Y00040D01*
X02957Y00040D01*
X02956Y00040D01*
X02955Y00040D01*
X02954Y00040D01*
X02953Y00040D01*
X02951Y00040D01*
X02951Y00040D01*
X02950Y00040D01*
X02949Y00040D01*
X02948Y00040D01*
X02947Y00040D01*
X02946Y00040D01*
X02945Y00040D01*
X02944Y00040D01*
X02943Y00040D01*
X02942Y00040D01*
X02941Y00040D01*
X02939Y00040D01*
X02939Y00040D01*
X02938Y00040D01*
X02937Y00040D01*
X02936Y00040D01*
X02935Y00040D01*
X02934Y00040D01*
X02933Y00040D01*
X02932Y00040D01*
X02931Y00040D01*
X02930Y00040D01*
X02929Y00040D01*
X02927Y00040D01*
X02927Y00040D01*
X02926Y00040D01*
X02925Y00040D01*
X02924Y00040D01*
X02923Y00040D01*
X02922Y00040D01*
X02921Y00040D01*
X02920Y00040D01*
X02919Y00040D01*
X02918Y00040D01*
X02917Y00040D01*
X02915Y00040D01*
X02915Y00040D01*
X02914Y00040D01*
X02913Y00040D01*
X02912Y00040D01*
X02911Y00040D01*
X02910Y00040D01*
X02909Y00040D01*
X02908Y00040D01*
X02907Y00040D01*
X02906Y00040D01*
X02905Y00040D01*
X02903Y00040D01*
X02903Y00040D01*
X02902Y00040D01*
X02901Y00040D01*
X02900Y00040D01*
X02899Y00040D01*
X02898Y00040D01*
X02897Y00040D01*
X02896Y00040D01*
X02895Y00040D01*
X02894Y00040D01*
X02893Y00040D01*
X02891Y00040D01*
X02891Y00040D01*
X02890Y00040D01*
X02889Y00040D01*
X02888Y00040D01*
X02887Y00040D01*
X02886Y00040D01*
X02885Y00040D01*
X02884Y00040D01*
X02883Y00040D01*
X02882Y00040D01*
X02881Y00040D01*
X02879Y00040D01*
X02879Y00040D01*
X02878Y00040D01*
X02877Y00040D01*
X02876Y00040D01*
X02875Y00040D01*
X02874Y00040D01*
X02873Y00040D01*
X02872Y00040D01*
X02871Y00040D01*
X02870Y00040D01*
X02869Y00040D01*
X02867Y00040D01*
X02867Y00040D01*
X02866Y00040D01*
X02865Y00040D01*
X02864Y00040D01*
X02863Y00040D01*
X02862Y00040D01*
X02861Y00040D01*
X02860Y00040D01*
X02859Y00040D01*
X02858Y00040D01*
X02857Y00040D01*
X02855Y00040D01*
X02855Y00040D01*
X02854Y00040D01*
X02853Y00040D01*
X02852Y00040D01*
X02851Y00040D01*
X02850Y00040D01*
X02849Y00040D01*
X02848Y00040D01*
X02847Y00040D01*
X02846Y00040D01*
X02845Y00040D01*
X02843Y00040D01*
X02843Y00040D01*
X02841Y00040D01*
X02841Y00040D01*
X02840Y00040D01*
X02839Y00040D01*
X02838Y00040D01*
X02837Y00040D01*
X02836Y00040D01*
X02835Y00040D01*
X02834Y00040D01*
X02833Y00040D01*
X02831Y00040D01*
X02831Y00040D01*
X02829Y00040D01*
X02829Y00040D01*
X02828Y00040D01*
X02827Y00040D01*
X02826Y00040D01*
X02825Y00040D01*
X02824Y00040D01*
X02823Y00040D01*
X02822Y00040D01*
X02821Y00040D01*
X02819Y00040D01*
X02819Y00040D01*
X02817Y00040D01*
X02817Y00040D01*
X02816Y00040D01*
X02815Y00040D01*
X02814Y00040D01*
X02813Y00040D01*
X02812Y00040D01*
X02811Y00040D01*
X02810Y00040D01*
X02809Y00040D01*
X02807Y00040D01*
X02807Y00040D01*
X02805Y00040D01*
X02805Y00040D01*
X02804Y00040D01*
X02803Y00040D01*
X02802Y00040D01*
X02801Y00040D01*
X02800Y00040D01*
X02799Y00040D01*
X02798Y00040D01*
X02797Y00040D01*
X02795Y00040D01*
X02795Y00040D01*
X02793Y00040D01*
X02793Y00040D01*
X02792Y00040D01*
X02791Y00040D01*
X02790Y00040D01*
X02789Y00040D01*
X02788Y00040D01*
X02787Y00040D01*
X02786Y00040D01*
X02785Y00040D01*
X02783Y00040D01*
X02783Y00040D01*
X02781Y00040D01*
X02781Y00040D01*
X02780Y00040D01*
X02779Y00040D01*
X02778Y00040D01*
X02777Y00040D01*
X02776Y00040D01*
X02775Y00040D01*
X02774Y00040D01*
X02773Y00040D01*
X02771Y00040D01*
X02771Y00040D01*
X02769Y00040D01*
X02769Y00040D01*
X02768Y00040D01*
X02767Y00040D01*
X02766Y00040D01*
X02765Y00040D01*
X02764Y00040D01*
X02763Y00040D01*
X02762Y00040D01*
X02761Y00040D01*
X02759Y00040D01*
X02759Y00040D01*
X02757Y00040D01*
X02757Y00040D01*
X02756Y00040D01*
X02755Y00040D01*
X02754Y00040D01*
X02753Y00040D01*
X02752Y00040D01*
X02751Y00040D01*
X02750Y00040D01*
X02749Y00040D01*
X02748Y00040D01*
X02747Y00040D01*
X02745Y00040D01*
X02745Y00040D01*
X02744Y00040D01*
X02743Y00040D01*
X02742Y00040D01*
X02741Y00040D01*
X02740Y00040D01*
X02739Y00040D01*
X02738Y00040D01*
X02737Y00040D01*
X02736Y00040D01*
X02735Y00040D01*
X02733Y00040D01*
X02733Y00042D01*
X02732Y00042D01*
X02731Y00042D01*
X02730Y00042D01*
X02729Y00042D01*
X02728Y00043D01*
X02727Y00043D01*
X02726Y00043D01*
X02725Y00043D01*
X02724Y00043D01*
X02723Y00044D01*
X02721Y00044D01*
X02721Y00044D01*
X02720Y00044D01*
X02719Y00044D01*
X02718Y00044D01*
X02717Y00044D01*
X02716Y00046D01*
X02715Y00046D01*
X02714Y00046D01*
X02713Y00047D01*
X02712Y00047D01*
X02711Y00048D01*
X02709Y00048D01*
X02709Y00048D01*
X02708Y00049D01*
X02707Y00049D01*
X02706Y00050D01*
X02705Y00050D01*
X02704Y00051D01*
X02703Y00051D01*
X02702Y00051D01*
X02701Y00052D01*
X02700Y00052D01*
X02699Y00053D01*
X02697Y00053D01*
X02697Y00054D01*
X02695Y00055D01*
X02695Y00055D01*
X02694Y00056D01*
X02693Y00056D01*
X02692Y00057D01*
X02691Y00057D01*
X02690Y00058D01*
X02689Y00059D01*
X02688Y00059D01*
X02687Y00060D01*
X02685Y00061D01*
X02685Y00062D01*
X02683Y00062D01*
X02683Y00063D01*
X02682Y00064D01*
X02681Y00064D01*
X02680Y00065D01*
X02679Y00066D01*
X02678Y00067D01*
X02677Y00068D01*
X02676Y00069D01*
X02675Y00070D01*
X02673Y00071D01*
X02673Y00071D01*
X02671Y00072D01*
X02671Y00073D01*
X02670Y00074D01*
X02669Y00075D01*
X02668Y00076D01*
X02667Y00077D01*
X02667Y00078D01*
X02666Y00078D01*
X02665Y00080D01*
X02664Y00081D01*
X02663Y00081D01*
X02661Y00083D01*
X02661Y00084D01*
X02661Y00085D01*
X02659Y00086D01*
X02659Y00086D01*
X02658Y00088D01*
X02658Y00089D01*
X02657Y00089D01*
X02656Y00091D01*
X02656Y00092D01*
X02655Y00092D01*
X02654Y00094D01*
X02654Y00095D01*
X02653Y00096D01*
X02653Y00097D01*
X02652Y00098D01*
X02651Y00099D01*
X02651Y00100D01*
X02649Y00101D01*
X02649Y00102D01*
X02649Y00103D01*
X02649Y00104D01*
X02647Y00105D01*
X02647Y00106D01*
X02647Y00107D01*
X02647Y00108D01*
X02646Y00109D01*
X02646Y00111D01*
X02645Y00112D01*
X02645Y00113D01*
X02644Y00114D01*
X02644Y00116D01*
X02643Y00117D01*
X02643Y00119D01*
X02642Y00120D01*
X02642Y00122D01*
X02641Y00123D01*
X02641Y00126D01*
X02640Y00127D01*
X02640Y00130D01*
X02639Y00131D01*
X02639Y00136D01*
X02637Y00137D01*
X02637Y00144D01*
X02637Y00145D01*
X02637Y02493D01*
X02637Y02494D01*
X02637Y02501D01*
X02639Y02502D01*
X02639Y02507D01*
X02640Y02508D01*
X02640Y02511D01*
X02641Y02512D01*
X02641Y02515D01*
X02642Y02516D01*
X02642Y02518D01*
X02643Y02519D01*
X02643Y02521D01*
X02644Y02522D01*
X02644Y02524D01*
X02645Y02525D01*
X02645Y02526D01*
X02646Y02527D01*
X02646Y02529D01*
X02647Y02530D01*
X02647Y02531D01*
X02647Y02532D01*
X02647Y02533D01*
X02649Y02534D01*
X02649Y02535D01*
X02649Y02536D01*
X02649Y02537D01*
X02651Y02538D01*
X02651Y02539D01*
X02652Y02539D01*
X02653Y02541D01*
X02653Y02542D01*
X02654Y02543D01*
X02654Y02544D01*
X02655Y02545D01*
X02656Y02546D01*
X02656Y02547D01*
X02657Y02548D01*
X02658Y02549D01*
X02658Y02550D01*
X02659Y02551D01*
X02659Y02551D01*
X02661Y02553D01*
X02661Y02554D01*
X02661Y02555D01*
X02663Y02556D01*
X02664Y02557D01*
X02665Y02558D01*
X02666Y02559D01*
X02667Y02560D01*
X02667Y02561D01*
X02668Y02562D01*
X02669Y02563D01*
X02670Y02563D01*
X02671Y02565D01*
X02671Y02566D01*
X02673Y02567D01*
X02673Y02567D01*
X02675Y02568D01*
X02676Y02569D01*
X02677Y02570D01*
X02678Y02571D01*
X02679Y02572D01*
X02680Y02573D01*
X02681Y02574D01*
X02682Y02574D01*
X02683Y02575D01*
X02683Y02575D01*
X02685Y02577D01*
X02685Y02577D01*
X02687Y02578D01*
X02688Y02579D01*
X02689Y02579D01*
X02690Y02580D01*
X02691Y02581D01*
X02692Y02581D01*
X02693Y02582D01*
X02694Y02582D01*
X02695Y02583D01*
X02695Y02583D01*
X02697Y02584D01*
X02697Y02585D01*
X02699Y02585D01*
X02700Y02586D01*
X02701Y02586D01*
X02702Y02587D01*
X02703Y02587D01*
X02704Y02587D01*
X02705Y02587D01*
X02706Y02587D01*
X02707Y02589D01*
X02708Y02589D01*
X02709Y02590D01*
X02709Y02590D01*
X02711Y02590D01*
X02712Y02591D01*
X02713Y02591D01*
X02714Y02592D01*
X02715Y02592D01*
X02716Y02592D01*
X02717Y02593D01*
X02718Y02593D01*
X02719Y02593D01*
X02720Y02593D01*
X02721Y02594D01*
X02721Y02594D01*
X02723Y02594D01*
X02724Y02595D01*
X02725Y02595D01*
X02726Y02595D01*
X02727Y02595D01*
X02728Y02595D01*
X02729Y02596D01*
X02730Y02596D01*
X02731Y02596D01*
X02732Y02596D01*
X02733Y02596D01*
X02733Y02597D01*
X02735Y02597D01*
X02736Y02597D01*
X02737Y02597D01*
X02738Y02597D01*
X02739Y02597D01*
X02740Y02597D01*
X02741Y02597D01*
X02742Y02598D01*
D02*
G04 End of contour*
G04 next file*
G04 MADE WITH FRITZING*
G04 WWW.FRITZING.ORG*
G04 DOUBLE SIDED*
G04 HOLES PLATED*
G04 CONTOUR ON CENTER OF CONTOUR VECTOR*
G90*
G04 skipping 70*
D23*
X00039Y02781D02*
X00039Y02783D01*
X00039Y02783D01*
X00039Y02785D01*
X00039Y02786D01*
X00039Y02787D01*
X00039Y02788D01*
X00039Y02789D01*
X00039Y02790D01*
X00039Y02791D01*
X00039Y02792D01*
X00039Y02793D01*
X00039Y02793D01*
X00039Y02795D01*
X00039Y02795D01*
X00039Y02797D01*
X00039Y02798D01*
X00039Y02799D01*
X00039Y02800D01*
X00039Y02801D01*
X00039Y02802D01*
X00039Y02803D01*
X00039Y02804D01*
X00039Y02805D01*
X00039Y02805D01*
X00039Y02807D01*
X00039Y02807D01*
X00039Y02809D01*
X00039Y02810D01*
X00039Y02811D01*
X00039Y02812D01*
X00039Y02813D01*
X00039Y02814D01*
X00039Y02815D01*
X00039Y02816D01*
X00039Y02817D01*
X00039Y02817D01*
X00039Y02819D01*
X00039Y02819D01*
X00039Y02821D01*
X00039Y02822D01*
X00039Y02823D01*
X00039Y02824D01*
X00039Y02825D01*
X00039Y02826D01*
X00039Y02827D01*
X00039Y02828D01*
X00039Y02829D01*
X00039Y02829D01*
X00039Y02831D01*
X00039Y02831D01*
X00039Y02833D01*
X00039Y02834D01*
X00039Y02835D01*
X00039Y02836D01*
X00039Y02837D01*
X00039Y02838D01*
X00039Y02839D01*
X00039Y02840D01*
X00039Y02841D01*
X00039Y02841D01*
X00039Y02843D01*
X00039Y02843D01*
X00039Y02845D01*
X00039Y02846D01*
X00039Y02847D01*
X00039Y02848D01*
X00039Y02849D01*
X00039Y02850D01*
X00039Y02851D01*
X00039Y02852D01*
X00039Y02853D01*
X00039Y02854D01*
X00039Y02855D01*
X00039Y02855D01*
X00039Y02857D01*
X00039Y02858D01*
X00039Y02859D01*
X00039Y02860D01*
X00039Y02861D01*
X00039Y02862D01*
X00039Y02863D01*
X00039Y02864D01*
X00039Y02865D01*
X00039Y02866D01*
X00039Y02867D01*
X00039Y02867D01*
X00039Y02869D01*
X00039Y02870D01*
X00039Y02871D01*
X00039Y02872D01*
X00039Y02873D01*
X00039Y02874D01*
X00039Y02875D01*
X00039Y02876D01*
X00039Y02877D01*
X00039Y02878D01*
X00039Y02879D01*
X00039Y02879D01*
X00039Y02881D01*
X00039Y02882D01*
X00039Y02883D01*
X00039Y02884D01*
X00039Y02885D01*
X00039Y02886D01*
X00039Y02887D01*
X00039Y02888D01*
X00039Y02889D01*
X00039Y02890D01*
X00039Y02891D01*
X00039Y02891D01*
X00039Y02893D01*
X00039Y02894D01*
X00039Y02895D01*
X00039Y02896D01*
X00039Y02897D01*
X00039Y02898D01*
X00039Y02899D01*
X00039Y02900D01*
X00039Y02901D01*
X00039Y02902D01*
X00039Y02903D01*
X00039Y02903D01*
X00039Y02905D01*
X00039Y02906D01*
X00039Y02907D01*
X00039Y02908D01*
X00039Y02909D01*
X00039Y02910D01*
X00039Y02911D01*
X00039Y02912D01*
X00039Y02913D01*
X00039Y02914D01*
X00039Y02915D01*
X00039Y02915D01*
X00039Y02917D01*
X00039Y02918D01*
X00039Y02919D01*
X00039Y02920D01*
X00039Y02921D01*
X00039Y02922D01*
X00039Y02923D01*
X00039Y02924D01*
X00039Y02925D01*
X00039Y02926D01*
X00039Y02927D01*
X00039Y02927D01*
X00039Y02929D01*
X00039Y02930D01*
X00039Y02931D01*
X00039Y02932D01*
X00039Y02933D01*
X00039Y02934D01*
X00039Y02935D01*
X00039Y02936D01*
X00039Y02937D01*
X00039Y02938D01*
X00039Y02939D01*
X00039Y02939D01*
X00039Y02941D01*
X00039Y02942D01*
X00039Y02943D01*
X00039Y02944D01*
X00039Y02945D01*
X00039Y02946D01*
X00039Y02947D01*
X00039Y02948D01*
X00039Y02949D01*
X00039Y02950D01*
X00039Y02951D01*
X00039Y02951D01*
X00039Y02953D01*
X00039Y02954D01*
X00039Y02955D01*
X00039Y02956D01*
X00039Y02957D01*
X00039Y02958D01*
X00039Y02959D01*
X00039Y02960D01*
X00039Y02961D01*
X00039Y02962D01*
X00039Y02963D01*
X00039Y02963D01*
X00039Y02965D01*
X00039Y02966D01*
X00039Y02967D01*
X00039Y02968D01*
X00039Y02969D01*
X00039Y02970D01*
X00039Y02971D01*
X00039Y02972D01*
X00039Y02973D01*
X00039Y02974D01*
X00039Y02975D01*
X00039Y02975D01*
X00039Y02977D01*
X00039Y02978D01*
X00039Y02979D01*
X00039Y02980D01*
X00039Y02981D01*
X00039Y02982D01*
X00039Y02983D01*
X00039Y02984D01*
X00039Y02985D01*
X00039Y02986D01*
X00039Y02987D01*
X00039Y02987D01*
X00039Y02989D01*
X00039Y02990D01*
X00039Y02991D01*
X00039Y02992D01*
X00039Y02993D01*
X00039Y02994D01*
X00039Y02995D01*
X00039Y02996D01*
X00039Y02997D01*
X00039Y02998D01*
X00039Y02999D01*
X00039Y02999D01*
X00039Y03001D01*
X00039Y03001D01*
X00039Y03003D01*
X00039Y03004D01*
X00039Y03005D01*
X00039Y03006D01*
X00039Y03007D01*
X00039Y03008D01*
X00039Y03009D01*
X00039Y03010D01*
X00039Y03011D01*
X00039Y03012D01*
X00039Y03013D01*
X00039Y03013D01*
X00039Y03015D01*
X00039Y03016D01*
X00039Y03017D01*
X00039Y03018D01*
X00039Y03019D01*
X00039Y03020D01*
X00039Y03021D01*
X00039Y03022D01*
X00039Y03023D01*
X00039Y03024D01*
X00039Y03025D01*
X00039Y03025D01*
X00039Y03027D01*
X00039Y03028D01*
X00039Y03029D01*
X00039Y03030D01*
X00039Y03031D01*
X00039Y03032D01*
X00039Y03033D01*
X00039Y03034D01*
X00039Y03035D01*
X00039Y03036D01*
X00039Y03037D01*
X00039Y03037D01*
X00039Y03039D01*
X00039Y03040D01*
X00039Y03041D01*
X00039Y03042D01*
X00039Y03043D01*
X00039Y03044D01*
X00039Y03045D01*
X00039Y03046D01*
X00039Y03047D01*
X00039Y03048D01*
X00039Y03049D01*
X00039Y03049D01*
X00039Y03051D01*
X00039Y03052D01*
X00039Y03053D01*
X00039Y03054D01*
X00039Y03055D01*
X00039Y03056D01*
X00039Y03057D01*
X00039Y03058D01*
X00039Y03059D01*
X00039Y03060D01*
X00039Y03061D01*
X00039Y03061D01*
X00039Y03063D01*
X00039Y03064D01*
X00039Y03065D01*
X00039Y03066D01*
X00039Y03067D01*
X00039Y03068D01*
X00039Y03069D01*
X00039Y03070D01*
X00039Y03071D01*
X00039Y03072D01*
X00039Y03073D01*
X00039Y03073D01*
X00039Y03075D01*
X00039Y03076D01*
X00039Y03077D01*
X00039Y03078D01*
X00039Y03078D01*
X00039Y03080D01*
X00039Y03081D01*
X00039Y03082D01*
X00039Y03083D01*
X00039Y03084D01*
X00039Y03085D01*
X00039Y03085D01*
X00039Y03087D01*
X00039Y03088D01*
X00039Y03089D01*
X00039Y03090D01*
X00039Y03090D01*
X00039Y03092D01*
X00039Y03093D01*
X00039Y03094D01*
X00039Y03095D01*
X00039Y03096D01*
X00039Y03097D01*
X00039Y03097D01*
X00039Y03099D01*
X00039Y03100D01*
X00039Y03101D01*
X00039Y03102D01*
X00039Y03102D01*
X00039Y03104D01*
X00039Y03105D01*
X00039Y03106D01*
X00039Y03107D01*
X00039Y03108D01*
X00039Y03109D01*
X00039Y03109D01*
X00039Y03111D01*
X00039Y03112D01*
X00039Y03113D01*
X00039Y03114D01*
X00039Y03114D01*
X00039Y03116D01*
X00039Y03117D01*
X00039Y03118D01*
X00039Y03119D01*
X00039Y03120D01*
X00039Y03121D01*
X00039Y03121D01*
X00039Y03123D01*
X00039Y03124D01*
X00039Y03125D01*
X00039Y03126D01*
X00039Y03127D01*
X00039Y03128D01*
X00039Y03129D01*
X00039Y03130D01*
X00039Y03131D01*
X00039Y03132D01*
X00039Y03133D01*
X00039Y03133D01*
X00039Y03135D01*
X00039Y03136D01*
X00039Y03137D01*
X00039Y03138D01*
X00039Y03139D01*
X00039Y03140D01*
X00039Y03141D01*
X00039Y03142D01*
X00039Y03143D01*
X00039Y03144D01*
X00039Y03145D01*
X00039Y03145D01*
X00039Y03147D01*
X00039Y03148D01*
X00039Y03149D01*
X00039Y03150D01*
X00039Y03151D01*
X00039Y03152D01*
X00039Y03153D01*
X00039Y03154D01*
X00039Y03155D01*
X00039Y03156D01*
X00039Y03157D01*
X00039Y03158D01*
X00039Y03159D01*
X00039Y03160D01*
X00039Y03161D01*
X00039Y03162D01*
X00039Y03163D01*
X00039Y03164D01*
X00039Y03165D01*
X00039Y03166D01*
X00039Y03167D01*
X00039Y03168D01*
X00039Y03169D01*
X00039Y03170D01*
X00039Y03171D01*
X00039Y03172D01*
X00039Y03173D01*
X00039Y03174D01*
X00039Y03175D01*
X00039Y03176D01*
X00039Y03177D01*
X00039Y03178D01*
X00039Y03179D01*
X00039Y03180D01*
X00039Y03181D01*
X00039Y03182D01*
X00039Y03183D01*
X00039Y03184D01*
X00039Y03185D01*
X00039Y03186D01*
X00039Y03187D01*
X00039Y03188D01*
X00039Y03189D01*
X00039Y03190D01*
X00039Y03191D01*
X00039Y03192D01*
X00039Y03193D01*
X00039Y03194D01*
X00039Y03195D01*
X00039Y03196D01*
X00039Y03197D01*
X00039Y03198D01*
X00039Y03199D01*
X00039Y03200D01*
X00039Y03201D01*
X00039Y03202D01*
X00039Y03203D01*
X00039Y03204D01*
X00039Y03205D01*
X00039Y03206D01*
X00039Y03207D01*
X00039Y03208D01*
X00039Y03209D01*
X00039Y03210D01*
X00039Y03211D01*
X00039Y03212D01*
X00039Y03213D01*
X00039Y03214D01*
X00039Y03215D01*
X00039Y03216D01*
X00039Y03217D01*
X00039Y03218D01*
X00039Y03219D01*
X00039Y03220D01*
X00039Y03221D01*
X00039Y03222D01*
X00039Y03223D01*
X00039Y03224D01*
X00039Y03225D01*
X00039Y03226D01*
X00039Y03227D01*
X00039Y03228D01*
X00039Y03229D01*
X00039Y03230D01*
X00039Y03231D01*
X00039Y03232D01*
X00039Y03233D01*
X00039Y03234D01*
X00039Y03235D01*
X00039Y03236D01*
X00039Y03236D01*
X00039Y03238D01*
X00039Y03239D01*
X00039Y03240D01*
X00039Y03241D01*
X00039Y03242D01*
X00039Y03243D01*
X00039Y03244D01*
X00039Y03245D01*
X00039Y03246D01*
X00039Y03247D01*
X00039Y03248D01*
X00039Y03248D01*
X00039Y03250D01*
X00039Y03251D01*
X00039Y03252D01*
X00039Y03253D01*
X00039Y03254D01*
X00039Y03255D01*
X00039Y03255D01*
X00039Y03257D01*
X00039Y03258D01*
X00039Y03259D01*
X00039Y03260D01*
X00039Y03260D01*
X00039Y03262D01*
X00039Y03263D01*
X00039Y03264D01*
X00039Y03265D01*
X00039Y03266D01*
X00039Y03267D01*
X00039Y03267D01*
X00039Y03269D01*
X00039Y03270D01*
X00039Y03271D01*
X00039Y03272D01*
X00039Y03272D01*
X00039Y03274D01*
X00039Y03275D01*
X00039Y03276D01*
X00039Y03277D01*
X00039Y03278D01*
X00039Y03279D01*
X00039Y03279D01*
X00039Y03281D01*
X00039Y03282D01*
X00039Y03283D01*
X00039Y03284D01*
X00039Y03284D01*
X00039Y03286D01*
X00039Y03287D01*
X00039Y03288D01*
X00039Y03289D01*
X00039Y03290D01*
X00039Y03291D01*
X00039Y03291D01*
X00039Y03293D01*
X00039Y03294D01*
X00039Y03295D01*
X00039Y03296D01*
X00039Y03296D01*
X00039Y03298D01*
X00039Y03299D01*
X00039Y03300D01*
X00039Y03301D01*
X00039Y03302D01*
X00039Y03303D01*
X00039Y03304D01*
X00039Y03305D01*
X00039Y03306D01*
X00039Y03307D01*
X00039Y03308D01*
X00039Y03308D01*
X00039Y03310D01*
X00039Y03311D01*
X00039Y03312D01*
X00039Y03313D01*
X00039Y03314D01*
X00039Y03315D01*
X00039Y03316D01*
X00039Y03317D01*
X00039Y03318D01*
X00039Y03319D01*
X00039Y03320D01*
X00039Y03320D01*
X00039Y03322D01*
X00039Y03323D01*
X00039Y03324D01*
X00039Y03325D01*
X00039Y03326D01*
X00039Y03327D01*
X00039Y03328D01*
X00039Y03329D01*
X00039Y03330D01*
X00039Y03331D01*
X00039Y03332D01*
X00039Y03332D01*
X00039Y03334D01*
X00039Y03335D01*
X00039Y03336D01*
X00039Y03337D01*
X00039Y03338D01*
X00039Y03339D01*
X00039Y03340D01*
X00039Y03341D01*
X00039Y03342D01*
X00039Y03343D01*
X00039Y03344D01*
X00039Y03344D01*
X00039Y03346D01*
X00039Y03347D01*
X00039Y03348D01*
X00039Y03349D01*
X00039Y03350D01*
X00039Y03351D01*
X00039Y03352D01*
X00039Y03353D01*
X00039Y03354D01*
X00039Y03355D01*
X00039Y03356D01*
X00039Y03356D01*
X00039Y03358D01*
X00039Y03359D01*
X00039Y03360D01*
X00039Y03361D01*
X00039Y03362D01*
X00039Y03363D01*
X00039Y03364D01*
X00039Y03365D01*
X00039Y03366D01*
X00039Y03367D01*
X00039Y03368D01*
X00039Y03369D01*
X00039Y03370D01*
X00039Y03371D01*
X00039Y03372D01*
X00039Y03373D01*
X00039Y03374D01*
X00039Y03375D01*
X00039Y03376D01*
X00039Y03377D01*
X00039Y03378D01*
X00039Y03379D01*
X00039Y03380D01*
X00039Y03381D01*
X00039Y03382D01*
X00039Y03382D01*
X00039Y03384D01*
X00039Y03385D01*
X00039Y03386D01*
X00039Y03387D01*
X00039Y03388D01*
X00039Y03389D01*
X00039Y03390D01*
X00039Y03391D01*
X00039Y03392D01*
X00039Y03393D01*
X00039Y03394D01*
X00039Y03394D01*
X00039Y03396D01*
X00039Y03397D01*
X00039Y03398D01*
X00039Y03399D01*
X00039Y03400D01*
X00039Y03401D01*
X00039Y03402D01*
X00039Y03403D01*
X00039Y03404D01*
X00039Y03405D01*
X00039Y03406D01*
X00039Y03406D01*
X00039Y03408D01*
X00039Y03409D01*
X00039Y03410D01*
X00039Y03411D01*
X00039Y03412D01*
X00039Y03413D01*
X00039Y03414D01*
X00039Y03415D01*
X00039Y03416D01*
X00039Y03417D01*
X00039Y03418D01*
X00039Y03418D01*
X00039Y03420D01*
X00039Y03421D01*
X00039Y03422D01*
X00039Y03423D01*
X00039Y03424D01*
X00039Y03425D01*
X00039Y03426D01*
X00039Y03427D01*
X00039Y03428D01*
X00039Y03429D01*
X00039Y03430D01*
X00039Y03430D01*
X00039Y03432D01*
X00039Y03433D01*
X00039Y03434D01*
X00039Y03435D01*
X00039Y03436D01*
X00039Y03437D01*
X00039Y03438D01*
X00039Y03439D01*
X00039Y03440D01*
X00039Y03441D01*
X00039Y03442D01*
X00039Y03442D01*
X00039Y03444D01*
X00039Y03445D01*
X00039Y03446D01*
X00039Y03447D01*
X00039Y03448D01*
X00039Y03449D01*
X00039Y03450D01*
X00039Y03451D01*
X00039Y03452D01*
X00039Y03453D01*
X00039Y03454D01*
X00039Y03454D01*
X00039Y03456D01*
X00039Y03457D01*
X00039Y03458D01*
X00039Y03459D01*
X00039Y03460D01*
X00039Y03461D01*
X00039Y03462D01*
X00039Y03463D01*
X00039Y03464D01*
X00039Y03465D01*
X00039Y03466D01*
X00039Y03466D01*
X00039Y03468D01*
X00039Y03469D01*
X00039Y03470D01*
X00039Y03471D01*
X00039Y03472D01*
X00039Y03473D01*
X00039Y03474D01*
X00039Y03475D01*
X00039Y03476D01*
X00039Y03477D01*
X00039Y03478D01*
X00039Y03478D01*
X00039Y03480D01*
X00039Y03481D01*
X00039Y03482D01*
X00039Y03483D01*
X00039Y03484D01*
X00039Y03485D01*
X00039Y03486D01*
X00039Y03487D01*
X00039Y03488D01*
X00039Y03489D01*
X00039Y03490D01*
X00039Y03490D01*
X00039Y03492D01*
X00039Y03493D01*
X00039Y03494D01*
X00039Y03495D01*
X00039Y03496D01*
X00039Y03497D01*
X00039Y03498D01*
X00039Y03499D01*
X00039Y03500D01*
X00039Y03501D01*
X00039Y03502D01*
X00039Y03502D01*
X00039Y03504D01*
X00039Y03505D01*
X00039Y03506D01*
X00039Y03507D01*
X00039Y03508D01*
X00039Y03509D01*
X00039Y03510D01*
X00039Y03511D01*
X00039Y03512D01*
X00039Y03513D01*
X00039Y03514D01*
X00039Y03514D01*
X00039Y03516D01*
X00039Y03517D01*
X00039Y03518D01*
X00039Y03519D01*
X00039Y03520D01*
X00039Y03521D01*
X00039Y03522D01*
X00039Y03523D01*
X00039Y03524D01*
X00039Y03525D01*
X00039Y03526D01*
X00039Y03526D01*
X00039Y03528D01*
X00039Y03528D01*
X00039Y03530D01*
X00039Y03531D01*
X00039Y03532D01*
X00039Y03533D01*
X00039Y03534D01*
X00039Y03535D01*
X00039Y03536D01*
X00039Y03537D01*
X00039Y03538D01*
X00039Y03538D01*
X00039Y03540D01*
X00039Y03540D01*
X00039Y03542D01*
X00039Y03543D01*
X00039Y03544D01*
X00039Y03545D01*
X00039Y03546D01*
X00039Y03547D01*
X00039Y03548D01*
X00039Y03549D01*
X00039Y03550D01*
X00039Y03550D01*
X00039Y03552D01*
X00039Y03552D01*
X00039Y03554D01*
X00039Y03555D01*
X00039Y03556D01*
X00039Y03557D01*
X00039Y03558D01*
X00039Y03559D01*
X00039Y03560D01*
X00039Y03561D01*
X00039Y03562D01*
X00039Y03562D01*
X00039Y03564D01*
X00039Y03564D01*
X00039Y03566D01*
X00039Y03567D01*
X00039Y03568D01*
X00039Y03569D01*
X00039Y03570D01*
X00039Y03571D01*
X00039Y03572D01*
X00039Y03573D01*
X00039Y03574D01*
X00039Y03574D01*
X00039Y03576D01*
X00039Y03576D01*
X00039Y03578D01*
X00039Y03579D01*
X00039Y03580D01*
X00039Y03581D01*
X00039Y03582D01*
X00039Y03583D01*
X00039Y03584D01*
X00039Y03585D01*
X00039Y03586D01*
X00039Y03586D01*
X00039Y03588D01*
X00039Y03588D01*
X00039Y03590D01*
X00039Y03591D01*
X00039Y03592D01*
X00039Y03593D01*
X00039Y03594D01*
X00039Y03595D01*
X00039Y03596D01*
X00039Y03597D01*
X00039Y03598D01*
X00039Y03598D01*
X00039Y03600D01*
X00039Y03600D01*
X00039Y03602D01*
X00039Y03603D01*
X00039Y03604D01*
X00039Y03605D01*
X00039Y03606D01*
X00039Y03607D01*
X00039Y03608D01*
X00039Y03609D01*
X00039Y03610D01*
X00039Y03610D01*
X00039Y03612D01*
X00039Y03612D01*
X00039Y03614D01*
X00039Y03615D01*
X00039Y03616D01*
X00039Y03617D01*
X00039Y03618D01*
X00039Y03619D01*
X00039Y03620D01*
X00039Y03621D01*
X00039Y03622D01*
X00039Y03623D01*
X00039Y03624D01*
X00039Y03624D01*
X00039Y03626D01*
X00039Y03627D01*
X00039Y03628D01*
X00039Y03629D01*
X00039Y03630D01*
X00039Y03631D01*
X00039Y03632D01*
X00039Y03633D01*
X00039Y03634D01*
X00039Y03635D01*
X00039Y03636D01*
X00039Y03636D01*
X00039Y03638D01*
X00039Y03639D01*
X00039Y03640D01*
X00039Y03641D01*
X00039Y03642D01*
X00039Y03643D01*
X00039Y03644D01*
X00039Y03645D01*
X00039Y03646D01*
X00039Y03647D01*
X00039Y03648D01*
X00039Y03648D01*
X00039Y03650D01*
X00039Y03651D01*
X00039Y03652D01*
X00039Y03653D01*
X00039Y03654D01*
X00039Y03655D01*
X00039Y03656D01*
X00039Y03657D01*
X00039Y03658D01*
X00039Y03659D01*
X00039Y03660D01*
X00039Y03660D01*
X00039Y03662D01*
X00039Y03663D01*
X00039Y03664D01*
X00039Y03665D01*
X00039Y03666D01*
X00039Y03667D01*
X00039Y03668D01*
X00039Y03669D01*
X00039Y03670D01*
X00039Y03671D01*
X00039Y03672D01*
X00039Y03672D01*
X00039Y03674D01*
X00039Y03675D01*
X00039Y03676D01*
X00039Y03677D01*
X00039Y03678D01*
X00039Y03679D01*
X00039Y03680D01*
X00039Y03681D01*
X00039Y03682D01*
X00039Y03683D01*
X00039Y03684D01*
X00039Y03684D01*
X00039Y03686D01*
X00039Y03686D01*
X00039Y03688D01*
X00039Y03689D01*
X00039Y03690D01*
X00039Y03691D01*
X00039Y03692D01*
X00039Y03693D01*
X00039Y03694D01*
X00039Y03695D01*
X00039Y03696D01*
X00039Y03696D01*
X00039Y03698D01*
X00039Y03698D01*
X00039Y03700D01*
X00039Y03701D01*
X00039Y03702D01*
X00039Y03703D01*
X00039Y03704D01*
X00039Y03705D01*
X00039Y03706D01*
X00039Y03707D01*
X00039Y03708D01*
X00039Y03708D01*
X00039Y03710D01*
X00039Y03710D01*
X00039Y03712D01*
X00039Y03713D01*
X00039Y03714D01*
X00039Y03715D01*
X00039Y03716D01*
X00039Y03717D01*
X00039Y03718D01*
X00039Y03719D01*
X00039Y03720D01*
X00039Y03720D01*
X00039Y03722D01*
X00039Y03722D01*
X00039Y03724D01*
X00039Y03725D01*
X00039Y03726D01*
X00039Y03727D01*
X00039Y03728D01*
X00039Y03729D01*
X00039Y03730D01*
X00039Y03731D01*
X00039Y03732D01*
X00039Y03732D01*
X00039Y03734D01*
X00039Y03734D01*
X00039Y03736D01*
X00039Y03737D01*
X00039Y03738D01*
X00039Y03739D01*
X00039Y03740D01*
X00039Y03741D01*
X00039Y03742D01*
X00039Y03743D01*
X00039Y03744D01*
X00039Y03744D01*
X00039Y03746D01*
X00039Y03746D01*
X00039Y03748D01*
X00039Y03749D01*
X00039Y03750D01*
X00039Y03751D01*
X00039Y03752D01*
X00039Y03753D01*
X00039Y03754D01*
X00039Y03755D01*
X00039Y03756D01*
X00039Y03756D01*
X00039Y03758D01*
X00039Y03758D01*
X00039Y03760D01*
X00039Y03761D01*
X00039Y03762D01*
X00039Y03763D01*
X00039Y03764D01*
X00039Y03765D01*
X00039Y03766D01*
X00039Y03767D01*
X00039Y03768D01*
X00039Y03768D01*
X00039Y03770D01*
X00039Y03770D01*
X00039Y03772D01*
X00039Y03773D01*
X00039Y03774D01*
X00039Y03775D01*
X00039Y03776D01*
X00039Y03777D01*
X00039Y03778D01*
X00039Y03779D01*
X00039Y03780D01*
X00039Y03781D01*
X00039Y03782D01*
X00039Y03782D01*
X00039Y03784D01*
X00039Y03785D01*
X00039Y03786D01*
X00039Y03787D01*
X00039Y03788D01*
X00039Y03789D01*
X00039Y03790D01*
X00039Y03791D01*
X00040Y03792D01*
X00040Y03793D01*
X00040Y03794D01*
X00040Y03794D01*
X00040Y03796D01*
X00040Y03797D01*
X00040Y03798D01*
X00040Y03799D01*
X00040Y03800D01*
X00040Y03801D01*
X00040Y03802D01*
X00040Y03803D01*
X00040Y03804D01*
X00042Y03805D01*
X00042Y03806D01*
X00042Y03806D01*
X00042Y03808D01*
X00042Y03809D01*
X00043Y03810D01*
X00043Y03811D01*
X00043Y03812D01*
X00044Y03813D01*
X00044Y03814D01*
X00044Y03815D01*
X00044Y03816D01*
X00044Y03817D01*
X00044Y03818D01*
X00044Y03818D01*
X00046Y03820D01*
X00046Y03821D01*
X00047Y03822D01*
X00047Y03823D01*
X00047Y03824D01*
X00048Y03825D01*
X00048Y03826D01*
X00049Y03827D01*
X00049Y03828D01*
X00050Y03829D01*
X00050Y03830D01*
X00050Y03830D01*
X00051Y03832D01*
X00051Y03833D01*
X00052Y03834D01*
X00052Y03835D01*
X00053Y03836D01*
X00054Y03837D01*
X00054Y03838D01*
X00055Y03839D01*
X00055Y03840D01*
X00056Y03841D01*
X00056Y03842D01*
X00057Y03842D01*
X00058Y03844D01*
X00058Y03845D01*
X00059Y03846D01*
X00060Y03847D01*
X00061Y03848D01*
X00061Y03849D01*
X00062Y03850D01*
X00063Y03851D01*
X00063Y03852D01*
X00064Y03853D01*
X00065Y03854D01*
X00066Y03854D01*
X00067Y03856D01*
X00068Y03857D01*
X00069Y03858D01*
X00070Y03859D01*
X00070Y03860D01*
X00071Y03861D01*
X00072Y03862D01*
X00073Y03863D01*
X00074Y03864D01*
X00075Y03865D01*
X00076Y03865D01*
X00077Y03866D01*
X00078Y03866D01*
X00078Y03868D01*
X00080Y03869D01*
X00081Y03870D01*
X00081Y03871D01*
X00083Y03872D01*
X00084Y03872D01*
X00085Y03873D01*
X00086Y03874D01*
X00086Y03875D01*
X00088Y03875D01*
X00089Y03876D01*
X00089Y03877D01*
X00091Y03877D01*
X00092Y03878D01*
X00092Y03878D01*
X00094Y03878D01*
X00095Y03880D01*
X00096Y03880D01*
X00097Y03880D01*
X00098Y03882D01*
X00099Y03882D01*
X00100Y03883D01*
X00101Y03883D01*
X00102Y03884D01*
X00103Y03884D01*
X00104Y03885D01*
X00105Y03885D01*
X00106Y03886D01*
X00107Y03886D01*
X00108Y03887D01*
X00110Y03887D01*
X00111Y03888D01*
X00112Y03888D01*
X00113Y03889D01*
X00115Y03889D01*
X00116Y03890D01*
X00118Y03890D01*
X00119Y03890D01*
X00121Y03890D01*
X00122Y03892D01*
X00125Y03892D01*
X00126Y03892D01*
X00129Y03892D01*
X00130Y03894D01*
X00135Y03894D01*
X00136Y03895D01*
X00143Y03895D01*
X00144Y03896D01*
X02492Y03896D01*
X02493Y03895D01*
X02500Y03895D01*
X02501Y03894D01*
X02506Y03894D01*
X02507Y03892D01*
X02510Y03892D01*
X02511Y03892D01*
X02514Y03892D01*
X02515Y03890D01*
X02517Y03890D01*
X02518Y03890D01*
X02520Y03890D01*
X02521Y03889D01*
X02523Y03889D01*
X02524Y03888D01*
X02525Y03888D01*
X02526Y03887D01*
X02527Y03887D01*
X02529Y03886D01*
X02530Y03886D01*
X02531Y03885D01*
X02532Y03885D01*
X02533Y03884D01*
X02534Y03884D01*
X02535Y03883D01*
X02536Y03883D01*
X02537Y03882D01*
X02538Y03882D01*
X02539Y03880D01*
X02539Y03880D01*
X02541Y03880D01*
X02542Y03878D01*
X02543Y03878D01*
X02544Y03878D01*
X02545Y03877D01*
X02546Y03877D01*
X02547Y03876D01*
X02548Y03875D01*
X02549Y03875D01*
X02550Y03874D01*
X02551Y03873D01*
X02551Y03872D01*
X02553Y03872D01*
X02554Y03871D01*
X02555Y03870D01*
X02556Y03869D01*
X02557Y03868D01*
X02558Y03866D01*
X02559Y03866D01*
X02560Y03865D01*
X02561Y03865D01*
X02562Y03864D01*
X02563Y03863D01*
X02563Y03862D01*
X02565Y03861D01*
X02566Y03860D01*
X02566Y03859D01*
X02567Y03858D01*
X02568Y03857D01*
X02569Y03856D01*
X02570Y03854D01*
X02571Y03854D01*
X02572Y03853D01*
X02573Y03852D01*
X02573Y03851D01*
X02574Y03850D01*
X02575Y03849D01*
X02575Y03848D01*
X02575Y03847D01*
X02577Y03846D01*
X02578Y03845D01*
X02578Y03844D01*
X02579Y03842D01*
X02580Y03842D01*
X02580Y03841D01*
X02581Y03840D01*
X02581Y03839D01*
X02582Y03838D01*
X02582Y03837D01*
X02583Y03836D01*
X02584Y03835D01*
X02584Y03834D01*
X02585Y03833D01*
X02585Y03832D01*
X02586Y03830D01*
X02586Y03830D01*
X02586Y03829D01*
X02587Y03828D01*
X02587Y03827D01*
X02587Y03826D01*
X02587Y03825D01*
X02589Y03824D01*
X02589Y03823D01*
X02589Y03822D01*
X02590Y03821D01*
X02590Y03820D01*
X02591Y03818D01*
X02591Y03818D01*
X02591Y03817D01*
X02592Y03816D01*
X02592Y03815D01*
X02592Y03814D01*
X02592Y03813D01*
X02593Y03812D01*
X02593Y03811D01*
X02593Y03810D01*
X02594Y03809D01*
X02594Y03808D01*
X02594Y03806D01*
X02594Y03806D01*
X02594Y03805D01*
X02595Y03804D01*
X02595Y03803D01*
X02595Y03802D01*
X02595Y03801D01*
X02595Y03800D01*
X02596Y03799D01*
X02596Y03798D01*
X02596Y03797D01*
X02596Y03796D01*
X02596Y03794D01*
X02596Y03794D01*
X02596Y03793D01*
X02596Y03792D01*
X02597Y03791D01*
X02597Y03790D01*
X02597Y03789D01*
X02597Y03788D01*
X02597Y03787D01*
X02597Y03786D01*
X02597Y03785D01*
X02597Y03784D01*
X02597Y03782D01*
X02597Y03782D01*
X02597Y03781D01*
X02597Y03780D01*
X02597Y03779D01*
X02597Y03778D01*
X02597Y03777D01*
X02597Y03776D01*
X02597Y03775D01*
X02597Y03774D01*
X02597Y03773D01*
X02597Y03772D01*
X02597Y03770D01*
X02597Y03770D01*
X02597Y03768D01*
X02597Y03768D01*
X02597Y03767D01*
X02597Y03766D01*
X02597Y03765D01*
X02597Y03764D01*
X02597Y03763D01*
X02597Y03762D01*
X02597Y03761D01*
X02597Y03760D01*
X02597Y03758D01*
X02597Y03758D01*
X02597Y03756D01*
X02597Y03756D01*
X02597Y03755D01*
X02597Y03754D01*
X02597Y03753D01*
X02597Y03752D01*
X02597Y03751D01*
X02597Y03750D01*
X02597Y03749D01*
X02597Y03748D01*
X02597Y03746D01*
X02597Y03746D01*
X02597Y03744D01*
X02597Y03744D01*
X02597Y03743D01*
X02597Y03742D01*
X02597Y03741D01*
X02597Y03740D01*
X02597Y03739D01*
X02597Y03738D01*
X02597Y03737D01*
X02597Y03736D01*
X02597Y03734D01*
X02597Y03734D01*
X02597Y03732D01*
X02597Y03732D01*
X02597Y03731D01*
X02597Y03730D01*
X02597Y03729D01*
X02597Y03728D01*
X02597Y03727D01*
X02597Y03726D01*
X02597Y03725D01*
X02597Y03724D01*
X02597Y03722D01*
X02597Y03722D01*
X02597Y03720D01*
X02597Y03720D01*
X02597Y03719D01*
X02597Y03718D01*
X02597Y03717D01*
X02597Y03716D01*
X02597Y03715D01*
X02597Y03714D01*
X02597Y03713D01*
X02597Y03712D01*
X02597Y03710D01*
X02597Y03710D01*
X02597Y03708D01*
X02597Y03708D01*
X02597Y03707D01*
X02597Y03706D01*
X02597Y03705D01*
X02597Y03704D01*
X02597Y03703D01*
X02597Y03702D01*
X02597Y03701D01*
X02597Y03700D01*
X02597Y03698D01*
X02597Y03698D01*
X02597Y03696D01*
X02597Y03696D01*
X02597Y03695D01*
X02597Y03694D01*
X02597Y03693D01*
X02597Y03692D01*
X02597Y03691D01*
X02597Y03690D01*
X02597Y03689D01*
X02597Y03688D01*
X02597Y03686D01*
X02597Y03686D01*
X02597Y03684D01*
X02597Y03684D01*
X02597Y03683D01*
X02597Y03682D01*
X02597Y03681D01*
X02597Y03680D01*
X02597Y03679D01*
X02597Y03678D01*
X02597Y03677D01*
X02597Y03676D01*
X02597Y03675D01*
X02597Y03674D01*
X02597Y03672D01*
X02597Y03672D01*
X02597Y03671D01*
X02597Y03670D01*
X02597Y03669D01*
X02597Y03668D01*
X02597Y03667D01*
X02597Y03666D01*
X02597Y03665D01*
X02597Y03664D01*
X02597Y03663D01*
X02597Y03662D01*
X02597Y03660D01*
X02597Y03660D01*
X02597Y03659D01*
X02597Y03658D01*
X02597Y03657D01*
X02597Y03656D01*
X02597Y03655D01*
X02597Y03654D01*
X02597Y03653D01*
X02597Y03652D01*
X02597Y03651D01*
X02597Y03650D01*
X02597Y03648D01*
X02597Y03648D01*
X02597Y03647D01*
X02597Y03646D01*
X02597Y03645D01*
X02597Y03644D01*
X02597Y03643D01*
X02597Y03642D01*
X02597Y03641D01*
X02597Y03640D01*
X02597Y03639D01*
X02597Y03638D01*
X02597Y03636D01*
X02597Y03636D01*
X02597Y03635D01*
X02597Y03634D01*
X02597Y03633D01*
X02597Y03632D01*
X02597Y03631D01*
X02597Y03630D01*
X02597Y03629D01*
X02597Y03628D01*
X02597Y03627D01*
X02597Y03626D01*
X02597Y03624D01*
X02597Y03624D01*
X02597Y03623D01*
X02597Y03622D01*
X02597Y03621D01*
X02597Y03620D01*
X02597Y03619D01*
X02597Y03618D01*
X02597Y03617D01*
X02597Y03616D01*
X02597Y03615D01*
X02597Y03614D01*
X02597Y03612D01*
X02597Y03612D01*
X02597Y03610D01*
X02597Y03610D01*
X02597Y03609D01*
X02597Y03608D01*
X02597Y03607D01*
X02597Y03606D01*
X02597Y03605D01*
X02597Y03604D01*
X02597Y03603D01*
X02597Y03602D01*
X02597Y03600D01*
X02597Y03600D01*
X02597Y03598D01*
X02597Y03598D01*
X02597Y03597D01*
X02597Y03596D01*
X02597Y03595D01*
X02597Y03594D01*
X02597Y03593D01*
X02597Y03592D01*
X02597Y03591D01*
X02597Y03590D01*
X02597Y03588D01*
X02597Y03588D01*
X02597Y03586D01*
X02597Y03586D01*
X02597Y03585D01*
X02597Y03584D01*
X02597Y03583D01*
X02597Y03582D01*
X02597Y03581D01*
X02597Y03580D01*
X02597Y03579D01*
X02597Y03578D01*
X02597Y03576D01*
X02597Y03576D01*
X02597Y03574D01*
X02597Y03574D01*
X02597Y03573D01*
X02597Y03572D01*
X02597Y03571D01*
X02597Y03570D01*
X02597Y03569D01*
X02597Y03568D01*
X02597Y03567D01*
X02597Y03566D01*
X02597Y03564D01*
X02597Y03564D01*
X02597Y03562D01*
X02597Y03562D01*
X02597Y03561D01*
X02597Y03560D01*
X02597Y03559D01*
X02597Y03558D01*
X02597Y03557D01*
X02597Y03556D01*
X02597Y03555D01*
X02597Y03554D01*
X02597Y03552D01*
X02597Y03552D01*
X02597Y03550D01*
X02597Y03550D01*
X02597Y03549D01*
X02597Y03548D01*
X02597Y03547D01*
X02597Y03546D01*
X02597Y03545D01*
X02597Y03544D01*
X02597Y03543D01*
X02597Y03542D01*
X02597Y03540D01*
X02597Y03540D01*
X02597Y03538D01*
X02597Y03538D01*
X02597Y03537D01*
X02597Y03536D01*
X02597Y03535D01*
X02597Y03534D01*
X02597Y03533D01*
X02597Y03532D01*
X02597Y03531D01*
X02597Y03530D01*
X02597Y03528D01*
X02597Y03528D01*
X02597Y03526D01*
X02597Y03526D01*
X02597Y03525D01*
X02597Y03524D01*
X02597Y03523D01*
X02597Y03522D01*
X02597Y03521D01*
X02597Y03520D01*
X02597Y03519D01*
X02597Y03518D01*
X02597Y03517D01*
X02597Y03516D01*
X02597Y03514D01*
X02597Y03514D01*
X02597Y03513D01*
X02597Y03512D01*
X02597Y03511D01*
X02597Y03510D01*
X02597Y03509D01*
X02597Y03508D01*
X02597Y03507D01*
X02597Y03506D01*
X02597Y03505D01*
X02597Y03504D01*
X02597Y03502D01*
X02597Y03502D01*
X02597Y03501D01*
X02597Y03500D01*
X02597Y03499D01*
X02597Y03498D01*
X02597Y03497D01*
X02597Y03496D01*
X02597Y03495D01*
X02597Y03494D01*
X02597Y03493D01*
X02597Y03492D01*
X02597Y03490D01*
X02597Y03490D01*
X02597Y03489D01*
X02597Y03488D01*
X02597Y03487D01*
X02597Y03486D01*
X02597Y03485D01*
X02597Y03484D01*
X02597Y03483D01*
X02597Y03482D01*
X02597Y03481D01*
X02597Y03480D01*
X02597Y03478D01*
X02597Y03478D01*
X02597Y03477D01*
X02597Y03476D01*
X02597Y03475D01*
X02597Y03474D01*
X02597Y03473D01*
X02597Y03472D01*
X02597Y03471D01*
X02597Y03470D01*
X02597Y03469D01*
X02597Y03468D01*
X02597Y03466D01*
X02597Y03466D01*
X02597Y03465D01*
X02597Y03464D01*
X02597Y03463D01*
X02597Y03462D01*
X02597Y03461D01*
X02597Y03460D01*
X02597Y03459D01*
X02597Y03458D01*
X02597Y03457D01*
X02597Y03456D01*
X02597Y03454D01*
X02597Y03454D01*
X02597Y03453D01*
X02597Y03452D01*
X02597Y03451D01*
X02597Y03450D01*
X02597Y03449D01*
X02597Y03448D01*
X02597Y03447D01*
X02597Y03446D01*
X02597Y03445D01*
X02597Y03444D01*
X02597Y03442D01*
X02597Y03442D01*
X02597Y03441D01*
X02597Y03440D01*
X02597Y03439D01*
X02597Y03438D01*
X02597Y03437D01*
X02597Y03436D01*
X02597Y03435D01*
X02597Y03434D01*
X02597Y03433D01*
X02597Y03432D01*
X02597Y03430D01*
X02597Y03430D01*
X02597Y03429D01*
X02597Y03428D01*
X02597Y03427D01*
X02597Y03426D01*
X02597Y03425D01*
X02597Y03424D01*
X02597Y03423D01*
X02597Y03422D01*
X02597Y03421D01*
X02597Y03420D01*
X02597Y03418D01*
X02597Y03418D01*
X02597Y03417D01*
X02597Y03416D01*
X02597Y03415D01*
X02597Y03414D01*
X02597Y03413D01*
X02597Y03412D01*
X02597Y03411D01*
X02597Y03410D01*
X02597Y03409D01*
X02597Y03408D01*
X02597Y03406D01*
X02597Y03406D01*
X02597Y03405D01*
X02597Y03404D01*
X02597Y03403D01*
X02597Y03402D01*
X02597Y03401D01*
X02597Y03400D01*
X02597Y03399D01*
X02597Y03398D01*
X02597Y03397D01*
X02597Y03396D01*
X02597Y03394D01*
X02597Y03394D01*
X02597Y03393D01*
X02597Y03392D01*
X02597Y03391D01*
X02597Y03390D01*
X02597Y03389D01*
X02597Y03388D01*
X02597Y03387D01*
X02597Y03386D01*
X02597Y03385D01*
X02597Y03384D01*
X02597Y03382D01*
X02597Y03382D01*
X02597Y03381D01*
X02597Y03380D01*
X02597Y03379D01*
X02597Y03378D01*
X02597Y03377D01*
X02597Y03376D01*
X02597Y03375D01*
X02597Y03374D01*
X02597Y03373D01*
X02597Y03372D01*
X02597Y03371D01*
X02597Y03370D01*
X02597Y03369D01*
X02597Y03368D01*
X02597Y03367D01*
X02597Y03366D01*
X02597Y03365D01*
X02597Y03364D01*
X02597Y03363D01*
X02597Y03362D01*
X02597Y03361D01*
X02597Y03360D01*
X02597Y03359D01*
X02597Y03358D01*
X02597Y03356D01*
X02597Y03356D01*
X02597Y03355D01*
X02597Y03354D01*
X02597Y03353D01*
X02597Y03352D01*
X02597Y03351D01*
X02597Y03350D01*
X02597Y03349D01*
X02597Y03348D01*
X02597Y03347D01*
X02597Y03346D01*
X02597Y03344D01*
X02597Y03344D01*
X02597Y03343D01*
X02597Y03342D01*
X02597Y03341D01*
X02597Y03340D01*
X02597Y03339D01*
X02597Y03338D01*
X02597Y03337D01*
X02597Y03336D01*
X02597Y03335D01*
X02597Y03334D01*
X02597Y03332D01*
X02597Y03332D01*
X02597Y03331D01*
X02597Y03330D01*
X02597Y03329D01*
X02597Y03328D01*
X02597Y03327D01*
X02597Y03326D01*
X02597Y03325D01*
X02597Y03324D01*
X02597Y03323D01*
X02597Y03322D01*
X02597Y03320D01*
X02597Y03320D01*
X02597Y03319D01*
X02597Y03318D01*
X02597Y03317D01*
X02597Y03316D01*
X02597Y03315D01*
X02597Y03314D01*
X02597Y03313D01*
X02597Y03312D01*
X02597Y03311D01*
X02597Y03310D01*
X02597Y03308D01*
X02597Y03308D01*
X02597Y03307D01*
X02597Y03306D01*
X02597Y03305D01*
X02597Y03304D01*
X02597Y03303D01*
X02597Y03302D01*
X02597Y03301D01*
X02597Y03300D01*
X02597Y03299D01*
X02597Y03298D01*
X02597Y03296D01*
X02597Y03296D01*
X02597Y03295D01*
X02597Y03294D01*
X02597Y03293D01*
X02597Y03291D01*
X02597Y03291D01*
X02597Y03290D01*
X02597Y03289D01*
X02597Y03288D01*
X02597Y03287D01*
X02597Y03286D01*
X02597Y03284D01*
X02597Y03284D01*
X02597Y03283D01*
X02597Y03282D01*
X02597Y03281D01*
X02597Y03279D01*
X02597Y03279D01*
X02597Y03278D01*
X02597Y03277D01*
X02597Y03276D01*
X02597Y03275D01*
X02597Y03274D01*
X02597Y03272D01*
X02597Y03272D01*
X02597Y03271D01*
X02597Y03270D01*
X02597Y03269D01*
X02597Y03267D01*
X02597Y03267D01*
X02597Y03266D01*
X02597Y03265D01*
X02597Y03264D01*
X02597Y03263D01*
X02597Y03262D01*
X02597Y03260D01*
X02597Y03260D01*
X02597Y03259D01*
X02597Y03258D01*
X02597Y03257D01*
X02597Y03255D01*
X02597Y03255D01*
X02597Y03254D01*
X02597Y03253D01*
X02597Y03252D01*
X02597Y03251D01*
X02597Y03250D01*
X02597Y03248D01*
X02597Y03248D01*
X02597Y03247D01*
X02597Y03246D01*
X02597Y03245D01*
X02597Y03244D01*
X02597Y03243D01*
X02597Y03242D01*
X02597Y03241D01*
X02597Y03240D01*
X02597Y03239D01*
X02597Y03238D01*
X02597Y03236D01*
X02597Y03236D01*
X02597Y03235D01*
X02597Y03234D01*
X02597Y03233D01*
X02597Y03232D01*
X02597Y03231D01*
X02597Y03230D01*
X02597Y03229D01*
X02597Y03228D01*
X02597Y03227D01*
X02597Y03226D01*
X02597Y03225D01*
X02597Y03224D01*
X02597Y03223D01*
X02597Y03222D01*
X02597Y03221D01*
X02597Y03220D01*
X02597Y03219D01*
X02597Y03218D01*
X02597Y03217D01*
X02597Y03216D01*
X02597Y03215D01*
X02597Y03214D01*
X02597Y03213D01*
X02597Y03212D01*
X02597Y03211D01*
X02597Y03210D01*
X02597Y03209D01*
X02597Y03208D01*
X02597Y03207D01*
X02597Y03206D01*
X02597Y03205D01*
X02597Y03204D01*
X02597Y03203D01*
X02597Y03202D01*
X02597Y03201D01*
X02597Y03200D01*
X02597Y03199D01*
X02597Y03198D01*
X02597Y03197D01*
X02597Y03196D01*
X02597Y03195D01*
X02597Y03194D01*
X02597Y03193D01*
X02597Y03192D01*
X02597Y03191D01*
X02597Y03190D01*
X02597Y03189D01*
X02597Y03188D01*
X02597Y03187D01*
X02597Y03186D01*
X02597Y03185D01*
X02597Y03184D01*
X02597Y03183D01*
X02597Y03182D01*
X02597Y03181D01*
X02597Y03180D01*
X02597Y03179D01*
X02597Y03178D01*
X02597Y03177D01*
X02597Y03176D01*
X02597Y03175D01*
X02597Y03174D01*
X02597Y03173D01*
X02597Y03172D01*
X02597Y03171D01*
X02597Y03170D01*
X02597Y03169D01*
X02597Y03168D01*
X02597Y03167D01*
X02597Y03166D01*
X02597Y03165D01*
X02597Y03164D01*
X02597Y03163D01*
X02597Y03162D01*
X02597Y03161D01*
X02597Y03160D01*
X02597Y03159D01*
X02597Y03158D01*
X02597Y03157D01*
X02597Y03156D01*
X02597Y03155D01*
X02597Y03154D01*
X02597Y03153D01*
X02597Y03152D01*
X02597Y03151D01*
X02597Y03150D01*
X02597Y03149D01*
X02597Y03148D01*
X02597Y03147D01*
X02597Y03145D01*
X02597Y03145D01*
X02597Y03144D01*
X02597Y03143D01*
X02597Y03142D01*
X02597Y03141D01*
X02597Y03140D01*
X02597Y03139D01*
X02597Y03138D01*
X02597Y03137D01*
X02597Y03136D01*
X02597Y03135D01*
X02597Y03133D01*
X02597Y03133D01*
X02597Y03132D01*
X02597Y03131D01*
X02597Y03130D01*
X02597Y03129D01*
X02597Y03128D01*
X02597Y03127D01*
X02597Y03126D01*
X02597Y03125D01*
X02597Y03124D01*
X02597Y03123D01*
X02597Y03121D01*
X02597Y03121D01*
X02597Y03120D01*
X02597Y03119D01*
X02597Y03118D01*
X02597Y03117D01*
X02597Y03116D01*
X02597Y03114D01*
X02597Y03114D01*
X02597Y03113D01*
X02597Y03112D01*
X02597Y03111D01*
X02597Y03109D01*
X02597Y03109D01*
X02597Y03108D01*
X02597Y03107D01*
X02597Y03106D01*
X02597Y03105D01*
X02597Y03104D01*
X02597Y03102D01*
X02597Y03102D01*
X02597Y03101D01*
X02597Y03100D01*
X02597Y03099D01*
X02597Y03097D01*
X02597Y03097D01*
X02597Y03096D01*
X02597Y03095D01*
X02597Y03094D01*
X02597Y03093D01*
X02597Y03092D01*
X02597Y03090D01*
X02597Y03090D01*
X02597Y03089D01*
X02597Y03088D01*
X02597Y03087D01*
X02597Y03085D01*
X02597Y03085D01*
X02597Y03084D01*
X02597Y03083D01*
X02597Y03082D01*
X02597Y03081D01*
X02597Y03080D01*
X02597Y03078D01*
X02597Y03078D01*
X02597Y03077D01*
X02597Y03076D01*
X02597Y03075D01*
X02597Y03073D01*
X02597Y03073D01*
X02597Y03072D01*
X02597Y03071D01*
X02597Y03070D01*
X02597Y03069D01*
X02597Y03068D01*
X02597Y03067D01*
X02597Y03066D01*
X02597Y03065D01*
X02597Y03064D01*
X02597Y03063D01*
X02597Y03061D01*
X02597Y03061D01*
X02597Y03060D01*
X02597Y03059D01*
X02597Y03058D01*
X02597Y03057D01*
X02597Y03056D01*
X02597Y03055D01*
X02597Y03054D01*
X02597Y03053D01*
X02597Y03052D01*
X02597Y03051D01*
X02597Y03049D01*
X02597Y03049D01*
X02597Y03048D01*
X02597Y03047D01*
X02597Y03046D01*
X02597Y03045D01*
X02597Y03044D01*
X02597Y03043D01*
X02597Y03042D01*
X02597Y03041D01*
X02597Y03040D01*
X02597Y03039D01*
X02597Y03037D01*
X02597Y03037D01*
X02597Y03036D01*
X02597Y03035D01*
X02597Y03034D01*
X02597Y03033D01*
X02597Y03032D01*
X02597Y03031D01*
X02597Y03030D01*
X02597Y03029D01*
X02597Y03028D01*
X02597Y03027D01*
X02597Y03025D01*
X02597Y03025D01*
X02597Y03024D01*
X02597Y03023D01*
X02597Y03022D01*
X02597Y03021D01*
X02597Y03020D01*
X02597Y03019D01*
X02597Y03018D01*
X02597Y03017D01*
X02597Y03016D01*
X02597Y03015D01*
X02597Y03013D01*
X02597Y03013D01*
X02597Y03012D01*
X02597Y03011D01*
X02597Y03010D01*
X02597Y03009D01*
X02597Y03008D01*
X02597Y03007D01*
X02597Y03006D01*
X02597Y03005D01*
X02597Y03004D01*
X02597Y03003D01*
X02597Y03001D01*
X02597Y03001D01*
X02597Y02999D01*
X02597Y02999D01*
X02597Y02998D01*
X02597Y02997D01*
X02597Y02996D01*
X02597Y02995D01*
X02597Y02994D01*
X02597Y02993D01*
X02597Y02992D01*
X02597Y02991D01*
X02597Y02990D01*
X02597Y02989D01*
X02597Y02987D01*
X02597Y02987D01*
X02597Y02986D01*
X02597Y02985D01*
X02597Y02984D01*
X02597Y02983D01*
X02597Y02982D01*
X02597Y02981D01*
X02597Y02980D01*
X02597Y02979D01*
X02597Y02978D01*
X02597Y02977D01*
X02597Y02975D01*
X02597Y02975D01*
X02597Y02974D01*
X02597Y02973D01*
X02597Y02972D01*
X02597Y02971D01*
X02597Y02970D01*
X02597Y02969D01*
X02597Y02968D01*
X02597Y02967D01*
X02597Y02966D01*
X02597Y02965D01*
X02597Y02963D01*
X02597Y02963D01*
X02597Y02962D01*
X02597Y02961D01*
X02597Y02960D01*
X02597Y02959D01*
X02597Y02958D01*
X02597Y02957D01*
X02597Y02956D01*
X02597Y02955D01*
X02597Y02954D01*
X02597Y02953D01*
X02597Y02951D01*
X02597Y02951D01*
X02597Y02950D01*
X02597Y02949D01*
X02597Y02948D01*
X02597Y02947D01*
X02597Y02946D01*
X02597Y02945D01*
X02597Y02944D01*
X02597Y02943D01*
X02597Y02942D01*
X02597Y02941D01*
X02597Y02939D01*
X02597Y02939D01*
X02597Y02938D01*
X02597Y02937D01*
X02597Y02936D01*
X02597Y02935D01*
X02597Y02934D01*
X02597Y02933D01*
X02597Y02932D01*
X02597Y02931D01*
X02597Y02930D01*
X02597Y02929D01*
X02597Y02927D01*
X02597Y02927D01*
X02597Y02926D01*
X02597Y02925D01*
X02597Y02924D01*
X02597Y02923D01*
X02597Y02922D01*
X02597Y02921D01*
X02597Y02920D01*
X02597Y02919D01*
X02597Y02918D01*
X02597Y02917D01*
X02597Y02915D01*
X02597Y02915D01*
X02597Y02914D01*
X02597Y02913D01*
X02597Y02912D01*
X02597Y02911D01*
X02597Y02910D01*
X02597Y02909D01*
X02597Y02908D01*
X02597Y02907D01*
X02597Y02906D01*
X02597Y02905D01*
X02597Y02903D01*
X02597Y02903D01*
X02597Y02902D01*
X02597Y02901D01*
X02597Y02900D01*
X02597Y02899D01*
X02597Y02898D01*
X02597Y02897D01*
X02597Y02896D01*
X02597Y02895D01*
X02597Y02894D01*
X02597Y02893D01*
X02597Y02891D01*
X02597Y02891D01*
X02597Y02890D01*
X02597Y02889D01*
X02597Y02888D01*
X02597Y02887D01*
X02597Y02886D01*
X02597Y02885D01*
X02597Y02884D01*
X02597Y02883D01*
X02597Y02882D01*
X02597Y02881D01*
X02597Y02879D01*
X02597Y02879D01*
X02597Y02878D01*
X02597Y02877D01*
X02597Y02876D01*
X02597Y02875D01*
X02597Y02874D01*
X02597Y02873D01*
X02597Y02872D01*
X02597Y02871D01*
X02597Y02870D01*
X02597Y02869D01*
X02597Y02867D01*
X02597Y02867D01*
X02597Y02866D01*
X02597Y02865D01*
X02597Y02864D01*
X02597Y02863D01*
X02597Y02862D01*
X02597Y02861D01*
X02597Y02860D01*
X02597Y02859D01*
X02597Y02858D01*
X02597Y02857D01*
X02597Y02855D01*
X02597Y02855D01*
X02597Y02854D01*
X02597Y02853D01*
X02597Y02852D01*
X02597Y02851D01*
X02597Y02850D01*
X02597Y02849D01*
X02597Y02848D01*
X02597Y02847D01*
X02597Y02846D01*
X02597Y02845D01*
X02597Y02843D01*
X02597Y02843D01*
X02597Y02841D01*
X02597Y02841D01*
X02597Y02840D01*
X02597Y02839D01*
X02597Y02838D01*
X02597Y02837D01*
X02597Y02836D01*
X02597Y02835D01*
X02597Y02834D01*
X02597Y02833D01*
X02597Y02831D01*
X02597Y02831D01*
X02597Y02829D01*
X02597Y02829D01*
X02597Y02828D01*
X02597Y02827D01*
X02597Y02826D01*
X02597Y02825D01*
X02597Y02824D01*
X02597Y02823D01*
X02597Y02822D01*
X02597Y02821D01*
X02597Y02819D01*
X02597Y02819D01*
X02597Y02817D01*
X02597Y02817D01*
X02597Y02816D01*
X02597Y02815D01*
X02597Y02814D01*
X02597Y02813D01*
X02597Y02812D01*
X02597Y02811D01*
X02597Y02810D01*
X02597Y02809D01*
X02597Y02807D01*
X02597Y02807D01*
X02597Y02805D01*
X02597Y02805D01*
X02597Y02804D01*
X02597Y02803D01*
X02597Y02802D01*
X02597Y02801D01*
X02597Y02800D01*
X02597Y02799D01*
X02597Y02798D01*
X02597Y02797D01*
X02597Y02795D01*
X02597Y02795D01*
X02597Y02793D01*
X02597Y02793D01*
X02597Y02792D01*
X02597Y02791D01*
X02597Y02790D01*
X02597Y02789D01*
X02597Y02788D01*
X02597Y02787D01*
X02597Y02786D01*
X02597Y02785D01*
X02597Y02783D01*
X02597Y02783D01*
X02597Y02781D01*
X02596Y02781D01*
X02596Y02780D01*
X02596Y02779D01*
X02596Y02778D01*
X02596Y02777D01*
X02596Y02776D01*
X02596Y02775D01*
X02596Y02774D01*
X02595Y02773D01*
X02595Y02771D01*
X02595Y02771D01*
X02595Y02769D01*
X02595Y02769D01*
X02594Y02768D01*
X02594Y02767D01*
X02594Y02766D01*
X02594Y02765D01*
X02594Y02764D01*
X02593Y02763D01*
X02593Y02762D01*
X02593Y02761D01*
X02592Y02759D01*
X02592Y02759D01*
X02592Y02757D01*
X02592Y02757D01*
X02591Y02756D01*
X02591Y02755D01*
X02591Y02754D01*
X02590Y02753D01*
X02590Y02752D01*
X02589Y02751D01*
X02589Y02750D01*
X02589Y02749D01*
X02587Y02748D01*
X02587Y02747D01*
X02587Y02745D01*
X02587Y02745D01*
X02586Y02744D01*
X02586Y02743D01*
X02586Y02742D01*
X02585Y02741D01*
X02585Y02740D01*
X02584Y02739D01*
X02584Y02738D01*
X02583Y02737D01*
X02582Y02736D01*
X02582Y02735D01*
X02581Y02733D01*
X02581Y02733D01*
X02580Y02732D01*
X02580Y02731D01*
X02579Y02730D01*
X02578Y02729D01*
X02578Y02728D01*
X02577Y02727D01*
X02575Y02726D01*
X02575Y02725D01*
X02575Y02724D01*
X02574Y02723D01*
X02573Y02721D01*
X02573Y02721D01*
X02572Y02720D01*
X02571Y02719D01*
X02570Y02718D01*
X02569Y02717D01*
X02568Y02716D01*
X02567Y02715D01*
X02566Y02714D01*
X02566Y02713D01*
X02565Y02712D01*
X02563Y02711D01*
X02563Y02709D01*
X02562Y02709D01*
X02561Y02708D01*
X02560Y02707D01*
X02559Y02707D01*
X02558Y02706D01*
X02557Y02705D01*
X02556Y02704D01*
X02555Y02703D01*
X02554Y02702D01*
X02553Y02701D01*
X02551Y02701D01*
X02551Y02700D01*
X02550Y02699D01*
X02549Y02697D01*
X02548Y02697D01*
X02547Y02697D01*
X02546Y02695D01*
X02545Y02695D01*
X02544Y02695D01*
X02543Y02694D01*
X02542Y02694D01*
X02541Y02693D01*
X02539Y02693D01*
X02539Y02692D01*
X02538Y02691D01*
X02537Y02691D01*
X02536Y02690D01*
X02535Y02690D01*
X02534Y02689D01*
X02533Y02689D01*
X02532Y02688D01*
X02531Y02688D01*
X02530Y02687D01*
X02529Y02687D01*
X02527Y02685D01*
X02526Y02685D01*
X02525Y02685D01*
X02524Y02685D01*
X02523Y02683D01*
X02521Y02683D01*
X02520Y02683D01*
X02518Y02683D01*
X02517Y02682D01*
X02515Y02682D01*
X02514Y02681D01*
X02511Y02681D01*
X02510Y02680D01*
X02507Y02680D01*
X02506Y02679D01*
X02501Y02679D01*
X02500Y02678D01*
X02493Y02678D01*
X02492Y02677D01*
X00144Y02677D01*
X00143Y02678D01*
X00136Y02678D01*
X00135Y02679D01*
X00130Y02679D01*
X00129Y02680D01*
X00126Y02680D01*
X00125Y02681D01*
X00122Y02681D01*
X00121Y02682D01*
X00119Y02682D01*
X00118Y02683D01*
X00116Y02683D01*
X00115Y02683D01*
X00113Y02683D01*
X00112Y02685D01*
X00111Y02685D01*
X00110Y02685D01*
X00108Y02685D01*
X00107Y02687D01*
X00106Y02687D01*
X00105Y02688D01*
X00104Y02688D01*
X00103Y02689D01*
X00102Y02689D01*
X00101Y02690D01*
X00100Y02690D01*
X00099Y02691D01*
X00098Y02691D01*
X00097Y02692D01*
X00096Y02693D01*
X00095Y02693D01*
X00094Y02694D01*
X00092Y02694D01*
X00092Y02695D01*
X00091Y02695D01*
X00089Y02695D01*
X00089Y02697D01*
X00088Y02697D01*
X00086Y02697D01*
X00086Y02699D01*
X00085Y02700D01*
X00084Y02701D01*
X00083Y02701D01*
X00081Y02702D01*
X00081Y02703D01*
X00080Y02704D01*
X00078Y02705D01*
X00078Y02706D01*
X00077Y02707D01*
X00076Y02707D01*
X00075Y02708D01*
X00074Y02709D01*
X00073Y02709D01*
X00072Y02711D01*
X00071Y02712D01*
X00070Y02713D01*
X00070Y02714D01*
X00069Y02715D01*
X00068Y02716D01*
X00067Y02717D01*
X00066Y02718D01*
X00065Y02719D01*
X00064Y02720D01*
X00063Y02721D01*
X00063Y02721D01*
X00062Y02723D01*
X00061Y02724D01*
X00060Y02725D01*
X00060Y02726D01*
X00059Y02727D01*
X00058Y02728D01*
X00058Y02729D01*
X00057Y02730D01*
X00056Y02731D01*
X00056Y02732D01*
X00055Y02733D01*
X00055Y02733D01*
X00054Y02735D01*
X00054Y02736D01*
X00053Y02737D01*
X00052Y02738D01*
X00052Y02739D01*
X00051Y02740D01*
X00051Y02741D01*
X00050Y02742D01*
X00050Y02743D01*
X00050Y02744D01*
X00049Y02745D01*
X00049Y02745D01*
X00048Y02747D01*
X00048Y02748D01*
X00047Y02749D01*
X00047Y02750D01*
X00047Y02751D01*
X00046Y02752D01*
X00046Y02753D01*
X00044Y02754D01*
X00044Y02755D01*
X00044Y02756D01*
X00044Y02757D01*
X00044Y02757D01*
X00044Y02759D01*
X00044Y02759D01*
X00043Y02761D01*
X00043Y02762D01*
X00043Y02763D01*
X00042Y02764D01*
X00042Y02765D01*
X00042Y02766D01*
X00042Y02767D01*
X00042Y02768D01*
X00040Y02769D01*
X00040Y02769D01*
X00040Y02771D01*
X00040Y02771D01*
X00040Y02773D01*
X00040Y02774D01*
X00040Y02775D01*
X00040Y02776D01*
X00040Y02777D01*
X00040Y02778D01*
X00040Y02779D01*
X00040Y02780D01*
X00040Y02781D01*
X00039Y02781D01*
D02*
G04 End of contour*
M02*
