G04 start of page 9 for group -4079 idx -4079 *
G04 Title: controller, topsilk *
G04 Creator: pcb 20140316 *
G04 CreationDate: Sat 06 Feb 2016 05:28:38 PM GMT UTC *
G04 For: rxdtxd *
G04 Format: Gerber/RS-274X *
G04 PCB-Dimensions (mil): 6700.00 3100.00 *
G04 PCB-Coordinate-Origin: lower left *
%MOIN*%
%FSLAX25Y25*%
%LNTOPSILK*%
%ADD64C,0.0300*%
%ADD63C,0.0150*%
%ADD62C,0.0200*%
%ADD61C,0.0100*%
G54D61*X285000Y175000D02*X365000D01*
Y215000D02*Y175000D01*
X285000Y215000D02*X365000D01*
X285000Y190000D02*Y175000D01*
Y215000D02*Y200000D01*
Y190000D02*G75*G03X285000Y200000I0J5000D01*G01*
X290000Y220000D02*X295000D01*
X305000D02*X310000D01*
X295000Y221600D02*X305000D01*
Y218400D01*
X295000D02*X305000D01*
X295000Y221600D02*Y218400D01*
G54D62*X270000Y165000D02*X360000D01*
X270000Y155000D02*X360000D01*
G54D61*X355000Y165000D02*Y155000D01*
G54D62*X360000D02*G75*G03X360000Y165000I0J5000D01*G01*
X270000D02*G75*G03X270000Y155000I0J-5000D01*G01*
X335000Y140000D02*Y130000D01*
X345000Y140000D02*Y130000D01*
G54D61*X335000Y135000D02*X345000D01*
G54D62*Y140000D02*G75*G03X335000Y140000I-5000J0D01*G01*
Y130000D02*G75*G03X345000Y130000I5000J0D01*G01*
X325000Y140000D02*Y130000D01*
X335000Y140000D02*Y130000D01*
G54D61*X325000Y135000D02*X335000D01*
G54D62*Y140000D02*G75*G03X325000Y140000I-5000J0D01*G01*
Y130000D02*G75*G03X335000Y130000I5000J0D01*G01*
X305000Y140000D02*Y130000D01*
X315000Y140000D02*Y130000D01*
G54D61*X305000Y135000D02*X315000D01*
G54D62*Y140000D02*G75*G03X305000Y140000I-5000J0D01*G01*
Y130000D02*G75*G03X315000Y130000I5000J0D01*G01*
X295000Y140000D02*Y130000D01*
X305000Y140000D02*Y130000D01*
G54D61*X295000Y135000D02*X305000D01*
G54D62*Y140000D02*G75*G03X295000Y140000I-5000J0D01*G01*
Y130000D02*G75*G03X305000Y130000I5000J0D01*G01*
X315000Y140000D02*Y130000D01*
X325000Y140000D02*Y130000D01*
G54D61*X315000Y135000D02*X325000D01*
G54D62*Y140000D02*G75*G03X315000Y140000I-5000J0D01*G01*
Y130000D02*G75*G03X325000Y130000I5000J0D01*G01*
G54D61*X282500Y307000D02*X382500D01*
X282500Y316000D02*Y245000D01*
X382500D01*
Y316000D02*Y245000D01*
X282500Y316000D02*X382500D01*
X422500Y307000D02*X522500D01*
X422500Y316000D02*Y245000D01*
X522500D01*
Y316000D02*Y245000D01*
X422500Y316000D02*X522500D01*
X562500Y307000D02*X662500D01*
X562500Y316000D02*Y245000D01*
X662500D01*
Y316000D02*Y245000D01*
X562500Y316000D02*X662500D01*
X530000Y60000D02*X540000D01*
X560000D02*X570000D01*
X540000Y63300D02*X560000D01*
Y56700D01*
X540000D02*X560000D01*
X540000Y63300D02*Y56700D01*
X250000Y40000D02*X255000D01*
X265000D02*X270000D01*
X255000Y41600D02*X265000D01*
Y38400D01*
X255000D02*X265000D01*
X255000Y41600D02*Y38400D01*
X390000Y40000D02*X395000D01*
X405000D02*X410000D01*
X395000Y41600D02*X405000D01*
Y38400D01*
X395000D02*X405000D01*
X395000Y41600D02*Y38400D01*
X320000Y40000D02*X325000D01*
X335000D02*X340000D01*
X325000Y41600D02*X335000D01*
Y38400D01*
X325000D02*X335000D01*
X325000Y41600D02*Y38400D01*
X460000Y40000D02*X465000D01*
X475000D02*X480000D01*
X465000Y41600D02*X475000D01*
Y38400D01*
X465000D02*X475000D01*
X465000Y41600D02*Y38400D01*
X425000Y60000D02*X430000D01*
X410000D02*X415000D01*
Y58400D02*X425000D01*
X415000Y61600D02*Y58400D01*
Y61600D02*X425000D01*
Y58400D01*
X287500Y12500D02*X352500D01*
Y-60000D01*
X287500D02*X352500D01*
X287500Y12500D02*Y-60000D01*
X320000Y-30000D02*G75*G03X327500Y-22500I0J7500D01*G01*
X312500D02*G75*G03X320000Y-30000I7500J0D01*G01*
Y-15000D02*G75*G03X312500Y-22500I0J-7500D01*G01*
X327500D02*G75*G03X320000Y-15000I-7500J0D01*G01*
X357500Y12500D02*X422500D01*
Y-60000D01*
X357500D02*X422500D01*
X357500Y12500D02*Y-60000D01*
X390000Y-30000D02*G75*G03X397500Y-22500I0J7500D01*G01*
X382500D02*G75*G03X390000Y-30000I7500J0D01*G01*
Y-15000D02*G75*G03X382500Y-22500I0J-7500D01*G01*
X397500D02*G75*G03X390000Y-15000I-7500J0D01*G01*
X427500Y12500D02*X492500D01*
Y-60000D01*
X427500D02*X492500D01*
X427500Y12500D02*Y-60000D01*
X460000Y-30000D02*G75*G03X467500Y-22500I0J7500D01*G01*
X452500D02*G75*G03X460000Y-30000I7500J0D01*G01*
Y-15000D02*G75*G03X452500Y-22500I0J-7500D01*G01*
X467500D02*G75*G03X460000Y-15000I-7500J0D01*G01*
X425000Y170000D02*X430000D01*
X410000D02*X415000D01*
Y168400D02*X425000D01*
X415000Y171600D02*Y168400D01*
Y171600D02*X425000D01*
Y168400D01*
X395000Y175000D02*X475000D01*
Y215000D02*Y175000D01*
X395000Y215000D02*X475000D01*
X395000Y190000D02*Y175000D01*
Y215000D02*Y200000D01*
Y190000D02*G75*G03X395000Y200000I0J5000D01*G01*
X535000Y170000D02*X540000D01*
X520000D02*X525000D01*
Y168400D02*X535000D01*
X525000Y171600D02*Y168400D01*
Y171600D02*X535000D01*
Y168400D01*
X505000Y175000D02*X585000D01*
Y215000D02*Y175000D01*
X505000Y215000D02*X585000D01*
X505000Y190000D02*Y175000D01*
Y215000D02*Y200000D01*
Y190000D02*G75*G03X505000Y200000I0J5000D01*G01*
G54D63*X545000Y105000D02*X565000D01*
X545000Y115000D02*X565000D01*
X555000Y125000D02*Y95000D01*
X545000D02*X565000D01*
X545000Y125000D02*Y95000D01*
Y125000D02*X565000D01*
X395000Y75000D02*X565000D01*
X395000Y145000D02*X565000D01*
Y75000D01*
X395000Y145000D02*Y75000D01*
X405000Y85000D02*X555000D01*
X405000Y135000D02*X555000D01*
X405000Y145000D02*Y135000D01*
Y85000D02*Y75000D01*
X555000Y85000D02*Y75000D01*
Y145000D02*Y135000D01*
G54D61*X385000Y95000D02*X425000D01*
Y125000D02*Y95000D01*
X385000Y125000D02*X425000D01*
X385000D02*Y95000D01*
G54D63*X565000Y80000D02*G75*G03X565000Y80000I-5000J0D01*G01*
Y140000D02*G75*G03X565000Y140000I-5000J0D01*G01*
X405000Y80000D02*G75*G03X405000Y80000I-5000J0D01*G01*
Y140000D02*G75*G03X405000Y140000I-5000J0D01*G01*
G54D61*X490000Y60000D02*X500000D01*
X510000D02*X520000D01*
X500000D02*X510000Y65000D01*
Y55000D01*
X500000Y60000D01*
Y65000D02*Y55000D01*
X217500Y12500D02*X282500D01*
Y-60000D01*
X217500D02*X282500D01*
X217500Y12500D02*Y-60000D01*
X250000Y-30000D02*G75*G03X257500Y-22500I0J7500D01*G01*
X242500D02*G75*G03X250000Y-30000I7500J0D01*G01*
Y-15000D02*G75*G03X242500Y-22500I0J-7500D01*G01*
X257500D02*G75*G03X250000Y-15000I-7500J0D01*G01*
X70000Y135000D02*Y130000D01*
Y150000D02*Y145000D01*
X68400D02*Y135000D01*
Y145000D02*X71600D01*
Y135000D01*
X68400D02*X71600D01*
X180000Y40000D02*X185000D01*
X195000D02*X200000D01*
X185000Y41600D02*X195000D01*
Y38400D01*
X185000D02*X195000D01*
X185000Y41600D02*Y38400D01*
X80000Y36000D02*Y4000D01*
Y36000D02*X120000D01*
Y4000D01*
X80000D02*X120000D01*
X74000Y80000D02*X78000D01*
X76000Y82000D02*Y78000D01*
X122000Y80000D02*X126000D01*
X80000D02*G75*G03X80000Y80000I20000J0D01*G01*
X89000Y130000D02*X93000D01*
X91000Y132000D02*Y128000D01*
X117000Y130000D02*X121000D01*
X95000D02*G75*G03X95000Y130000I10000J0D01*G01*
G54D62*X-2000Y100000D02*Y60000D01*
Y100000D02*X16000D01*
Y60000D01*
X-2000D02*X16000D01*
X-2000Y100000D02*Y60000D01*
Y100000D02*X4000D01*
Y60000D01*
X-2000D02*X4000D01*
G54D61*X-2000Y73000D02*X4000D01*
X-2000Y87000D02*X4000D01*
G54D64*X16000Y80000D02*X20000D01*
G54D61*X147500Y12500D02*X212500D01*
Y-60000D01*
X147500D02*X212500D01*
X147500Y12500D02*Y-60000D01*
X180000Y-30000D02*G75*G03X187500Y-22500I0J7500D01*G01*
X172500D02*G75*G03X180000Y-30000I7500J0D01*G01*
Y-15000D02*G75*G03X172500Y-22500I0J-7500D01*G01*
X187500D02*G75*G03X180000Y-15000I-7500J0D01*G01*
X175000Y175000D02*X255000D01*
Y215000D02*Y175000D01*
X175000Y215000D02*X255000D01*
X175000Y190000D02*Y175000D01*
Y215000D02*Y200000D01*
Y190000D02*G75*G03X175000Y200000I0J5000D01*G01*
X180000Y220000D02*X185000D01*
X195000D02*X200000D01*
X185000Y221600D02*X195000D01*
Y218400D01*
X185000D02*X195000D01*
X185000Y221600D02*Y218400D01*
X95000Y170000D02*X100000D01*
X80000D02*X85000D01*
Y168400D02*X95000D01*
X85000Y171600D02*Y168400D01*
Y171600D02*X95000D01*
Y168400D01*
G54D62*X225000Y140000D02*Y130000D01*
X235000Y140000D02*Y130000D01*
G54D61*X225000Y135000D02*X235000D01*
G54D62*Y140000D02*G75*G03X225000Y140000I-5000J0D01*G01*
Y130000D02*G75*G03X235000Y130000I5000J0D01*G01*
X215000Y140000D02*Y130000D01*
X225000Y140000D02*Y130000D01*
G54D61*X215000Y135000D02*X225000D01*
G54D62*Y140000D02*G75*G03X215000Y140000I-5000J0D01*G01*
Y130000D02*G75*G03X225000Y130000I5000J0D01*G01*
X205000Y140000D02*Y130000D01*
X215000Y140000D02*Y130000D01*
G54D61*X205000Y135000D02*X215000D01*
G54D62*Y140000D02*G75*G03X205000Y140000I-5000J0D01*G01*
Y130000D02*G75*G03X215000Y130000I5000J0D01*G01*
X185000Y140000D02*Y130000D01*
X195000Y140000D02*Y130000D01*
G54D61*X185000Y135000D02*X195000D01*
G54D62*Y140000D02*G75*G03X185000Y140000I-5000J0D01*G01*
Y130000D02*G75*G03X195000Y130000I5000J0D01*G01*
Y140000D02*Y130000D01*
X205000Y140000D02*Y130000D01*
G54D61*X195000Y135000D02*X205000D01*
G54D62*Y140000D02*G75*G03X195000Y140000I-5000J0D01*G01*
Y130000D02*G75*G03X205000Y130000I5000J0D01*G01*
X160000Y165000D02*X250000D01*
X160000Y155000D02*X250000D01*
G54D61*X245000Y165000D02*Y155000D01*
G54D62*X250000D02*G75*G03X250000Y165000I0J5000D01*G01*
X160000D02*G75*G03X160000Y155000I0J-5000D01*G01*
G54D61*X65000Y175000D02*X145000D01*
Y215000D02*Y175000D01*
X65000Y215000D02*X145000D01*
X65000Y190000D02*Y175000D01*
Y215000D02*Y200000D01*
Y190000D02*G75*G03X65000Y200000I0J5000D01*G01*
X142500Y307000D02*X242500D01*
X142500Y316000D02*Y245000D01*
X242500D01*
Y316000D02*Y245000D01*
X142500Y316000D02*X242500D01*
X2500Y307000D02*X102500D01*
X2500Y316000D02*Y245000D01*
X102500D01*
Y316000D02*Y245000D01*
X2500Y316000D02*X102500D01*
X66400Y139000D02*Y137700D01*
X65700Y137000D02*X66400Y137700D01*
X63100Y137000D02*X65700D01*
X63100D02*X62400Y137700D01*
Y139000D02*Y137700D01*
X64900Y140200D02*X62400Y142200D01*
X64900Y142700D02*Y140200D01*
X62400Y142200D02*X66400D01*
X80700Y95000D02*X82000D01*
X80000Y95700D02*X80700Y95000D01*
X80000Y98300D02*Y95700D01*
Y98300D02*X80700Y99000D01*
X82000D01*
X83200Y98500D02*X83700Y99000D01*
X85200D01*
X85700Y98500D01*
Y97500D01*
X83200Y95000D02*X85700Y97500D01*
X83200Y95000D02*X85700D01*
X19000Y62000D02*X22500D01*
X23000Y62500D01*
Y63500D02*Y62500D01*
Y63500D02*X22500Y64000D01*
X19000D02*X22500D01*
X19500Y65200D02*X19000Y65700D01*
Y67200D02*Y65700D01*
Y67200D02*X19500Y67700D01*
X20500D01*
X23000Y65200D02*X20500Y67700D01*
X23000D02*Y65200D01*
X95700Y135000D02*X97000D01*
X95000Y135700D02*X95700Y135000D01*
X95000Y138300D02*Y135700D01*
Y138300D02*X95700Y139000D01*
X97000D01*
X98200Y138500D02*X98700Y139000D01*
X99700D01*
X100200Y138500D01*
X99700Y135000D02*X100200Y135500D01*
X98700Y135000D02*X99700D01*
X98200Y135500D02*X98700Y135000D01*
Y137200D02*X99700D01*
X100200Y138500D02*Y137700D01*
Y136700D02*Y135500D01*
Y136700D02*X99700Y137200D01*
X100200Y137700D02*X99700Y137200D01*
X92000Y166400D02*X93300D01*
X94000Y165700D02*X93300Y166400D01*
X94000Y165700D02*Y163100D01*
X93300Y162400D01*
X92000D02*X93300D01*
X90800Y163200D02*X90000Y162400D01*
Y166400D02*Y162400D01*
X89300Y166400D02*X90800D01*
X88100Y163200D02*X87300Y162400D01*
Y166400D02*Y162400D01*
X86600Y166400D02*X88100D01*
X65000Y174000D02*Y170500D01*
X65500Y170000D01*
X66500D01*
X67000Y170500D01*
Y174000D02*Y170500D01*
X68200Y173200D02*X69000Y174000D01*
Y170000D01*
X68200D02*X69700D01*
X70900Y173200D02*X71700Y174000D01*
Y170000D01*
X70900D02*X72400D01*
X97000Y261800D02*Y260500D01*
X97700Y262500D02*X97000Y261800D01*
X97700Y262500D02*X100300D01*
X101000Y261800D01*
Y260500D01*
X97500Y259300D02*X100500D01*
X101000Y258800D01*
Y257800D01*
X100500Y257300D01*
X97500D02*X100500D01*
X97000Y257800D02*X97500Y257300D01*
X97000Y258800D02*Y257800D01*
X97500Y259300D02*X97000Y258800D01*
Y256100D02*X101000D01*
X97000Y253600D01*
X101000D01*
X97000Y252400D02*X101000D01*
X97000Y249900D01*
X101000D01*
X97500Y248700D02*X97000Y248200D01*
X97500Y248700D02*X100500D01*
X101000Y248200D01*
Y247200D01*
X100500Y246700D01*
X97500D02*X100500D01*
X97000Y247200D02*X97500Y246700D01*
X97000Y248200D02*Y247200D01*
X98000Y248700D02*X100000Y246700D01*
X187700Y32600D02*X189000D01*
X187000Y33300D02*X187700Y32600D01*
X187000Y35900D02*Y33300D01*
Y35900D02*X187700Y36600D01*
X189000D01*
X190700Y32600D02*X192200Y34600D01*
Y36100D02*Y34600D01*
X191700Y36600D02*X192200Y36100D01*
X190700Y36600D02*X191700D01*
X190200Y36100D02*X190700Y36600D01*
X190200Y36100D02*Y35100D01*
X190700Y34600D01*
X192200D01*
X83700Y38000D02*X85000D01*
X83000Y38700D02*X83700Y38000D01*
X83000Y41300D02*Y38700D01*
Y41300D02*X83700Y42000D01*
X85000D01*
X86200Y41500D02*Y38500D01*
Y41500D02*X86700Y42000D01*
X87700D01*
X88200Y41500D01*
Y38500D01*
X87700Y38000D02*X88200Y38500D01*
X86700Y38000D02*X87700D01*
X86200Y38500D02*X86700Y38000D01*
X89400Y42000D02*Y38000D01*
Y42000D02*X91900Y38000D01*
Y42000D02*Y38000D01*
X93100Y42000D02*Y38000D01*
Y42000D02*X95600Y38000D01*
Y42000D02*Y38000D01*
X96800D02*X98800D01*
X100500Y42000D02*Y38000D01*
X100000Y42000D02*X102000D01*
X102500Y41500D01*
Y40500D01*
X102000Y40000D02*X102500Y40500D01*
X100500Y40000D02*X102000D01*
X103700Y41500D02*Y38500D01*
Y41500D02*X104200Y42000D01*
X105200D01*
X105700Y41500D01*
Y38500D01*
X105200Y38000D02*X105700Y38500D01*
X104200Y38000D02*X105200D01*
X103700Y38500D02*X104200Y38000D01*
X106900Y42000D02*Y40000D01*
X107400Y38000D01*
X108400Y40000D01*
X109400Y38000D01*
X109900Y40000D01*
Y42000D02*Y40000D01*
X111100Y40200D02*X112600D01*
X111100Y38000D02*X113100D01*
X111100Y42000D02*Y38000D01*
Y42000D02*X113100D01*
X114300D02*X116300D01*
X116800Y41500D01*
Y40500D01*
X116300Y40000D02*X116800Y40500D01*
X114800Y40000D02*X116300D01*
X114800Y42000D02*Y38000D01*
X115600Y40000D02*X116800Y38000D01*
X192000Y120000D02*X191500Y119500D01*
X192000Y121500D02*Y120000D01*
X191500Y122000D02*X192000Y121500D01*
X190500Y122000D02*X191500D01*
X190500D02*X190000Y121500D01*
Y120000D01*
X189500Y119500D01*
X188500D02*X189500D01*
X188000Y120000D02*X188500Y119500D01*
X188000Y121500D02*Y120000D01*
X188500Y122000D02*X188000Y121500D01*
X191200Y118300D02*X192000Y117500D01*
X188000D02*X192000D01*
X188000Y118300D02*Y116800D01*
X188500Y115600D02*X188000Y115100D01*
X188500Y115600D02*X191500D01*
X192000Y115100D01*
Y114100D01*
X191500Y113600D01*
X188500D02*X191500D01*
X188000Y114100D02*X188500Y113600D01*
X188000Y115100D02*Y114100D01*
X189000Y115600D02*X191000Y113600D01*
X548000Y55300D02*X550000D01*
X550500Y54800D01*
Y53800D01*
X550000Y53300D02*X550500Y53800D01*
X548500Y53300D02*X550000D01*
X548500Y55300D02*Y51300D01*
X549300Y53300D02*X550500Y51300D01*
X551700Y54500D02*X552500Y55300D01*
Y51300D01*
X551700D02*X553200D01*
X257700Y32600D02*X259000D01*
X257000Y33300D02*X257700Y32600D01*
X257000Y35900D02*Y33300D01*
Y35900D02*X257700Y36600D01*
X259000D01*
X260200Y33100D02*X260700Y32600D01*
X260200Y33900D02*Y33100D01*
Y33900D02*X260900Y34600D01*
X261500D01*
X262200Y33900D01*
Y33100D01*
X261700Y32600D02*X262200Y33100D01*
X260700Y32600D02*X261700D01*
X260200Y35300D02*X260900Y34600D01*
X260200Y36100D02*Y35300D01*
Y36100D02*X260700Y36600D01*
X261700D01*
X262200Y36100D01*
Y35300D01*
X261500Y34600D02*X262200Y35300D01*
X397700Y32600D02*X399000D01*
X397000Y33300D02*X397700Y32600D01*
X397000Y35900D02*Y33300D01*
Y35900D02*X397700Y36600D01*
X399000D01*
X401700D02*X402200Y36100D01*
X400700Y36600D02*X401700D01*
X400200Y36100D02*X400700Y36600D01*
X400200Y36100D02*Y33100D01*
X400700Y32600D01*
X401700Y34800D02*X402200Y34300D01*
X400200Y34800D02*X401700D01*
X400700Y32600D02*X401700D01*
X402200Y33100D01*
Y34300D02*Y33100D01*
X327700Y32600D02*X329000D01*
X327000Y33300D02*X327700Y32600D01*
X327000Y35900D02*Y33300D01*
Y35900D02*X327700Y36600D01*
X329000D01*
X330700Y32600D02*X332700Y36600D01*
X330200D02*X332700D01*
X467700Y32600D02*X469000D01*
X467000Y33300D02*X467700Y32600D01*
X467000Y35900D02*Y33300D01*
Y35900D02*X467700Y36600D01*
X469000D01*
X470200D02*X472200D01*
X470200D02*Y34600D01*
X470700Y35100D01*
X471700D01*
X472200Y34600D01*
Y33100D01*
X471700Y32600D02*X472200Y33100D01*
X470700Y32600D02*X471700D01*
X470200Y33100D02*X470700Y32600D01*
X422000Y166400D02*X423300D01*
X424000Y165700D02*X423300Y166400D01*
X424000Y165700D02*Y163100D01*
X423300Y162400D01*
X422000D02*X423300D01*
X420800Y163200D02*X420000Y162400D01*
Y166400D02*Y162400D01*
X419300Y166400D02*X420800D01*
X418100Y162900D02*X417600Y162400D01*
X416100D02*X417600D01*
X416100D02*X415600Y162900D01*
Y163900D02*Y162900D01*
X418100Y166400D02*X415600Y163900D01*
Y166400D02*X418100D01*
X395000Y174000D02*Y170500D01*
X395500Y170000D01*
X396500D01*
X397000Y170500D01*
Y174000D02*Y170500D01*
X398200Y173200D02*X399000Y174000D01*
Y170000D01*
X398200D02*X399700D01*
X400900Y173500D02*X401400Y174000D01*
X402900D01*
X403400Y173500D01*
Y172500D01*
X400900Y170000D02*X403400Y172500D01*
X400900Y170000D02*X403400D01*
X420000Y67400D02*X421300D01*
X422000Y66700D02*X421300Y67400D01*
X422000Y66700D02*Y64100D01*
X421300Y63400D01*
X420000D02*X421300D01*
X418800Y64200D02*X418000Y63400D01*
Y67400D02*Y63400D01*
X417300Y67400D02*X418800D01*
X480000Y119500D02*Y116000D01*
Y119500D02*X479500Y120000D01*
X478500D02*X479500D01*
X478500D02*X478000Y119500D01*
Y116000D01*
X476800Y116800D02*X476000Y116000D01*
Y120000D02*Y116000D01*
X475300Y120000D02*X476800D01*
X490500Y74000D02*Y70000D01*
X491800Y74000D02*X492500Y73300D01*
Y70700D01*
X491800Y70000D02*X492500Y70700D01*
X490000Y70000D02*X491800D01*
X490000Y74000D02*X491800D01*
X493700Y73200D02*X494500Y74000D01*
Y70000D01*
X493700D02*X495200D01*
X342000Y120000D02*X341500Y119500D01*
X342000Y121500D02*Y120000D01*
X341500Y122000D02*X342000Y121500D01*
X340500Y122000D02*X341500D01*
X340500D02*X340000Y121500D01*
Y120000D01*
X339500Y119500D01*
X338500D02*X339500D01*
X338000Y120000D02*X338500Y119500D01*
X338000Y121500D02*Y120000D01*
X338500Y122000D02*X338000Y121500D01*
X341500Y118300D02*X342000Y117800D01*
Y116300D01*
X341500Y115800D01*
X340500D02*X341500D01*
X338000Y118300D02*X340500Y115800D01*
X338000Y118300D02*Y115800D01*
X339500Y114600D02*X342000Y112600D01*
X339500Y114600D02*Y112100D01*
X338000Y112600D02*X342000D01*
X376000Y158000D02*X378000D01*
X376000D02*X375500Y158500D01*
Y159500D02*Y158500D01*
X376000Y160000D02*X375500Y159500D01*
X376000Y160000D02*X377500D01*
Y162000D02*Y158000D01*
X376700Y160000D02*X375500Y162000D01*
X374300Y158500D02*X373800Y158000D01*
X372300D02*X373800D01*
X372300D02*X371800Y158500D01*
Y159500D02*Y158500D01*
X374300Y162000D02*X371800Y159500D01*
Y162000D02*X374300D01*
X370600Y158500D02*X370100Y158000D01*
X368600D02*X370100D01*
X368600D02*X368100Y158500D01*
Y159500D02*Y158500D01*
X370600Y162000D02*X368100Y159500D01*
Y162000D02*X370600D01*
X322000Y120000D02*X321500Y119500D01*
X322000Y121500D02*Y120000D01*
X321500Y122000D02*X322000Y121500D01*
X320500Y122000D02*X321500D01*
X320500D02*X320000Y121500D01*
Y120000D01*
X319500Y119500D01*
X318500D02*X319500D01*
X318000Y120000D02*X318500Y119500D01*
X318000Y121500D02*Y120000D01*
X318500Y122000D02*X318000Y121500D01*
X321500Y118300D02*X322000Y117800D01*
Y116300D01*
X321500Y115800D01*
X320500D02*X321500D01*
X318000Y118300D02*X320500Y115800D01*
X318000Y118300D02*Y115800D01*
X321500Y114600D02*X322000Y114100D01*
Y112600D01*
X321500Y112100D01*
X320500D02*X321500D01*
X318000Y114600D02*X320500Y112100D01*
X318000Y114600D02*Y112100D01*
X332000Y120000D02*X331500Y119500D01*
X332000Y121500D02*Y120000D01*
X331500Y122000D02*X332000Y121500D01*
X330500Y122000D02*X331500D01*
X330500D02*X330000Y121500D01*
Y120000D01*
X329500Y119500D01*
X328500D02*X329500D01*
X328000Y120000D02*X328500Y119500D01*
X328000Y121500D02*Y120000D01*
X328500Y122000D02*X328000Y121500D01*
X331500Y118300D02*X332000Y117800D01*
Y116300D01*
X331500Y115800D01*
X330500D02*X331500D01*
X328000Y118300D02*X330500Y115800D01*
X328000Y118300D02*Y115800D01*
X331500Y114600D02*X332000Y114100D01*
Y113100D01*
X331500Y112600D01*
X328000Y113100D02*X328500Y112600D01*
X328000Y114100D02*Y113100D01*
X328500Y114600D02*X328000Y114100D01*
X330200D02*Y113100D01*
X330700Y112600D02*X331500D01*
X328500D02*X329700D01*
X330200Y113100D01*
X330700Y112600D02*X330200Y113100D01*
X295700Y223600D02*X297000D01*
X295000Y224300D02*X295700Y223600D01*
X295000Y226900D02*Y224300D01*
Y226900D02*X295700Y227600D01*
X297000D01*
X298200Y227100D02*X298700Y227600D01*
X300200D01*
X300700Y227100D01*
Y226100D01*
X298200Y223600D02*X300700Y226100D01*
X298200Y223600D02*X300700D01*
X301900Y227100D02*X302400Y227600D01*
X303900D01*
X304400Y227100D01*
Y226100D01*
X301900Y223600D02*X304400Y226100D01*
X301900Y223600D02*X304400D01*
X312000Y120000D02*X311500Y119500D01*
X312000Y121500D02*Y120000D01*
X311500Y122000D02*X312000Y121500D01*
X310500Y122000D02*X311500D01*
X310500D02*X310000Y121500D01*
Y120000D01*
X309500Y119500D01*
X308500D02*X309500D01*
X308000Y120000D02*X308500Y119500D01*
X308000Y121500D02*Y120000D01*
X308500Y122000D02*X308000Y121500D01*
X311500Y118300D02*X312000Y117800D01*
Y116300D01*
X311500Y115800D01*
X310500D02*X311500D01*
X308000Y118300D02*X310500Y115800D01*
X308000Y118300D02*Y115800D01*
X311200Y114600D02*X312000Y113800D01*
X308000D02*X312000D01*
X308000Y114600D02*Y113100D01*
X302000Y120000D02*X301500Y119500D01*
X302000Y121500D02*Y120000D01*
X301500Y122000D02*X302000Y121500D01*
X300500Y122000D02*X301500D01*
X300500D02*X300000Y121500D01*
Y120000D01*
X299500Y119500D01*
X298500D02*X299500D01*
X298000Y120000D02*X298500Y119500D01*
X298000Y121500D02*Y120000D01*
X298500Y122000D02*X298000Y121500D01*
X301500Y118300D02*X302000Y117800D01*
Y116300D01*
X301500Y115800D01*
X300500D02*X301500D01*
X298000Y118300D02*X300500Y115800D01*
X298000Y118300D02*Y115800D01*
X298500Y114600D02*X298000Y114100D01*
X298500Y114600D02*X301500D01*
X302000Y114100D01*
Y113100D01*
X301500Y112600D01*
X298500D02*X301500D01*
X298000Y113100D02*X298500Y112600D01*
X298000Y114100D02*Y113100D01*
X299000Y114600D02*X301000Y112600D01*
X175000Y174000D02*Y170500D01*
X175500Y170000D01*
X176500D01*
X177000Y170500D01*
Y174000D02*Y170500D01*
X178200Y173500D02*X178700Y174000D01*
X180200D01*
X180700Y173500D01*
Y172500D01*
X178200Y170000D02*X180700Y172500D01*
X178200Y170000D02*X180700D01*
X181900Y173200D02*X182700Y174000D01*
Y170000D01*
X181900D02*X183400D01*
X285000Y174000D02*Y170500D01*
X285500Y170000D01*
X286500D01*
X287000Y170500D01*
Y174000D02*Y170500D01*
X288200Y173500D02*X288700Y174000D01*
X290200D01*
X290700Y173500D01*
Y172500D01*
X288200Y170000D02*X290700Y172500D01*
X288200Y170000D02*X290700D01*
X291900Y173500D02*X292400Y174000D01*
X293900D01*
X294400Y173500D01*
Y172500D01*
X291900Y170000D02*X294400Y172500D01*
X291900Y170000D02*X294400D01*
X186700Y223600D02*X188000D01*
X186000Y224300D02*X186700Y223600D01*
X186000Y226900D02*Y224300D01*
Y226900D02*X186700Y227600D01*
X188000D01*
X189200Y227100D02*X189700Y227600D01*
X191200D01*
X191700Y227100D01*
Y226100D01*
X189200Y223600D02*X191700Y226100D01*
X189200Y223600D02*X191700D01*
X192900Y226800D02*X193700Y227600D01*
Y223600D01*
X192900D02*X194400D01*
X253000Y166000D02*X255000D01*
X253000D02*X252500Y166500D01*
Y167500D02*Y166500D01*
X253000Y168000D02*X252500Y167500D01*
X253000Y168000D02*X254500D01*
Y170000D02*Y166000D01*
X253700Y168000D02*X252500Y170000D01*
X251300Y166500D02*X250800Y166000D01*
X249300D02*X250800D01*
X249300D02*X248800Y166500D01*
Y167500D02*Y166500D01*
X251300Y170000D02*X248800Y167500D01*
Y170000D02*X251300D01*
X247600Y166800D02*X246800Y166000D01*
Y170000D02*Y166000D01*
X246100Y170000D02*X247600D01*
X237000Y260800D02*Y259500D01*
X237700Y261500D02*X237000Y260800D01*
X237700Y261500D02*X240300D01*
X241000Y260800D01*
Y259500D01*
X237500Y258300D02*X240500D01*
X241000Y257800D01*
Y256800D01*
X240500Y256300D01*
X237500D02*X240500D01*
X237000Y256800D02*X237500Y256300D01*
X237000Y257800D02*Y256800D01*
X237500Y258300D02*X237000Y257800D01*
Y255100D02*X241000D01*
X237000Y252600D01*
X241000D01*
X237000Y251400D02*X241000D01*
X237000Y248900D01*
X241000D01*
X240200Y247700D02*X241000Y246900D01*
X237000D02*X241000D01*
X237000Y247700D02*Y246200D01*
X377000Y261800D02*Y260500D01*
X377700Y262500D02*X377000Y261800D01*
X377700Y262500D02*X380300D01*
X381000Y261800D01*
Y260500D01*
X377500Y259300D02*X380500D01*
X381000Y258800D01*
Y257800D01*
X380500Y257300D01*
X377500D02*X380500D01*
X377000Y257800D02*X377500Y257300D01*
X377000Y258800D02*Y257800D01*
X377500Y259300D02*X377000Y258800D01*
Y256100D02*X381000D01*
X377000Y253600D01*
X381000D01*
X377000Y252400D02*X381000D01*
X377000Y249900D01*
X381000D01*
X380500Y248700D02*X381000Y248200D01*
Y246700D01*
X380500Y246200D01*
X379500D02*X380500D01*
X377000Y248700D02*X379500Y246200D01*
X377000Y248700D02*Y246200D01*
X232000Y120000D02*X231500Y119500D01*
X232000Y121500D02*Y120000D01*
X231500Y122000D02*X232000Y121500D01*
X230500Y122000D02*X231500D01*
X230500D02*X230000Y121500D01*
Y120000D01*
X229500Y119500D01*
X228500D02*X229500D01*
X228000Y120000D02*X228500Y119500D01*
X228000Y121500D02*Y120000D01*
X228500Y122000D02*X228000Y121500D01*
X231200Y118300D02*X232000Y117500D01*
X228000D02*X232000D01*
X228000Y118300D02*Y116800D01*
X229500Y115600D02*X232000Y113600D01*
X229500Y115600D02*Y113100D01*
X228000Y113600D02*X232000D01*
X222000Y120000D02*X221500Y119500D01*
X222000Y121500D02*Y120000D01*
X221500Y122000D02*X222000Y121500D01*
X220500Y122000D02*X221500D01*
X220500D02*X220000Y121500D01*
Y120000D01*
X219500Y119500D01*
X218500D02*X219500D01*
X218000Y120000D02*X218500Y119500D01*
X218000Y121500D02*Y120000D01*
X218500Y122000D02*X218000Y121500D01*
X221200Y118300D02*X222000Y117500D01*
X218000D02*X222000D01*
X218000Y118300D02*Y116800D01*
X221500Y115600D02*X222000Y115100D01*
Y114100D01*
X221500Y113600D01*
X218000Y114100D02*X218500Y113600D01*
X218000Y115100D02*Y114100D01*
X218500Y115600D02*X218000Y115100D01*
X220200D02*Y114100D01*
X220700Y113600D02*X221500D01*
X218500D02*X219700D01*
X220200Y114100D01*
X220700Y113600D02*X220200Y114100D01*
X212000Y120000D02*X211500Y119500D01*
X212000Y121500D02*Y120000D01*
X211500Y122000D02*X212000Y121500D01*
X210500Y122000D02*X211500D01*
X210500D02*X210000Y121500D01*
Y120000D01*
X209500Y119500D01*
X208500D02*X209500D01*
X208000Y120000D02*X208500Y119500D01*
X208000Y121500D02*Y120000D01*
X208500Y122000D02*X208000Y121500D01*
X211200Y118300D02*X212000Y117500D01*
X208000D02*X212000D01*
X208000Y118300D02*Y116800D01*
X211500Y115600D02*X212000Y115100D01*
Y113600D01*
X211500Y113100D01*
X210500D02*X211500D01*
X208000Y115600D02*X210500Y113100D01*
X208000Y115600D02*Y113100D01*
X202000Y120000D02*X201500Y119500D01*
X202000Y121500D02*Y120000D01*
X201500Y122000D02*X202000Y121500D01*
X200500Y122000D02*X201500D01*
X200500D02*X200000Y121500D01*
Y120000D01*
X199500Y119500D01*
X198500D02*X199500D01*
X198000Y120000D02*X198500Y119500D01*
X198000Y121500D02*Y120000D01*
X198500Y122000D02*X198000Y121500D01*
X201200Y118300D02*X202000Y117500D01*
X198000D02*X202000D01*
X198000Y118300D02*Y116800D01*
X201200Y115600D02*X202000Y114800D01*
X198000D02*X202000D01*
X198000Y115600D02*Y114100D01*
X532000Y166400D02*X533300D01*
X534000Y165700D02*X533300Y166400D01*
X534000Y165700D02*Y163100D01*
X533300Y162400D01*
X532000D02*X533300D01*
X530800Y163200D02*X530000Y162400D01*
Y166400D02*Y162400D01*
X529300Y166400D02*X530800D01*
X528100Y162900D02*X527600Y162400D01*
X526600D02*X527600D01*
X526600D02*X526100Y162900D01*
X526600Y166400D02*X526100Y165900D01*
X526600Y166400D02*X527600D01*
X528100Y165900D02*X527600Y166400D01*
X526600Y164200D02*X527600D01*
X526100Y163700D02*Y162900D01*
Y165900D02*Y164700D01*
X526600Y164200D01*
X526100Y163700D02*X526600Y164200D01*
X505000Y174000D02*Y170500D01*
X505500Y170000D01*
X506500D01*
X507000Y170500D01*
Y174000D02*Y170500D01*
X508200Y173200D02*X509000Y174000D01*
Y170000D01*
X508200D02*X509700D01*
X510900Y173500D02*X511400Y174000D01*
X512400D01*
X512900Y173500D01*
X512400Y170000D02*X512900Y170500D01*
X511400Y170000D02*X512400D01*
X510900Y170500D02*X511400Y170000D01*
Y172200D02*X512400D01*
X512900Y173500D02*Y172700D01*
Y171700D02*Y170500D01*
Y171700D02*X512400Y172200D01*
X512900Y172700D02*X512400Y172200D01*
X517000Y261800D02*Y260500D01*
X517700Y262500D02*X517000Y261800D01*
X517700Y262500D02*X520300D01*
X521000Y261800D01*
Y260500D01*
X517500Y259300D02*X520500D01*
X521000Y258800D01*
Y257800D01*
X520500Y257300D01*
X517500D02*X520500D01*
X517000Y257800D02*X517500Y257300D01*
X517000Y258800D02*Y257800D01*
X517500Y259300D02*X517000Y258800D01*
Y256100D02*X521000D01*
X517000Y253600D01*
X521000D01*
X517000Y252400D02*X521000D01*
X517000Y249900D01*
X521000D01*
X520500Y248700D02*X521000Y248200D01*
Y247200D01*
X520500Y246700D01*
X517000Y247200D02*X517500Y246700D01*
X517000Y248200D02*Y247200D01*
X517500Y248700D02*X517000Y248200D01*
X519200D02*Y247200D01*
X519700Y246700D02*X520500D01*
X517500D02*X518700D01*
X519200Y247200D01*
X519700Y246700D02*X519200Y247200D01*
X657000Y261800D02*Y260500D01*
X657700Y262500D02*X657000Y261800D01*
X657700Y262500D02*X660300D01*
X661000Y261800D01*
Y260500D01*
X657500Y259300D02*X660500D01*
X661000Y258800D01*
Y257800D01*
X660500Y257300D01*
X657500D02*X660500D01*
X657000Y257800D02*X657500Y257300D01*
X657000Y258800D02*Y257800D01*
X657500Y259300D02*X657000Y258800D01*
Y256100D02*X661000D01*
X657000Y253600D01*
X661000D01*
X657000Y252400D02*X661000D01*
X657000Y249900D01*
X661000D01*
X658500Y248700D02*X661000Y246700D01*
X658500Y248700D02*Y246200D01*
X657000Y246700D02*X661000D01*
M02*
