M48
INCH
T47C0.118
T46C0.030
T45C0.039
T44C0.031
%
T46
X011000Y013000
T44
X003500Y025000
X004000Y026000
X004500Y025000
X004500Y023750
X005000Y026000
X005500Y025000
X005750Y013000
X006000Y026000
X006500Y025000
X007000Y026000
X007000Y021000
X007000Y018000
X007000Y015000
X007000Y013000
X007500Y023750
X008000Y021000
X008000Y018000
X008000Y017000
X009000Y021000
X009000Y018000
X009000Y008000
X010000Y021000
X010000Y018000
X010000Y017000
X010000Y013000
X011000Y021000
X011000Y018000
X011000Y008000
X012000Y021000
X012000Y018000
X013000Y021000
X013000Y018000
X014000Y021000
X014000Y018000
X016000Y016000
X016000Y002000
X016500Y011250
X017000Y016000
X017500Y025000
X018000Y026000
X018000Y022000
X018000Y021000
X018000Y019500
X018000Y018000
X018000Y016000
X018000Y004000
X018000Y002000
X018500Y025000
X019000Y026000
X019000Y021000
X019000Y018000
X019000Y016000
X019000Y014000
X019000Y013000
X019500Y025000
X020000Y026000
X020000Y022000
X020000Y021000
X020000Y018000
X020000Y016000
X020000Y014000
X020000Y013000
X020000Y004000
X020000Y002000
X020500Y025000
X021000Y026000
X021000Y021000
X021000Y018000
X021000Y016000
X021000Y014000
X021000Y013000
X022000Y021000
X022000Y018000
X022000Y016000
X022000Y014000
X022000Y013000
X023000Y021000
X023000Y018000
X023000Y016000
X023000Y014000
X023000Y013000
X023000Y002000
X024000Y021000
X024000Y018000
X024000Y016000
X024500Y009500
X025000Y021000
X025000Y018000
X025000Y016000
X025000Y004000
X025000Y002000
X026000Y022000
X026250Y010500
X026500Y019500
X027000Y016000
X027000Y004000
X027000Y002000
X028000Y016000
X029000Y022000
X029000Y021000
X029000Y018000
X029000Y016000
X030000Y021000
X030000Y018000
X030000Y016000
X030000Y014000
X030000Y013000
X030000Y002000
X031000Y022000
X031000Y021000
X031000Y018000
X031000Y016000
X031000Y014000
X031000Y013000
X031500Y025000
X032000Y026000
X032000Y021000
X032000Y018000
X032000Y016000
X032000Y014000
X032000Y013000
X032000Y004000
X032000Y002000
X032500Y025000
X033000Y026000
X033000Y021000
X033000Y018000
X033000Y016000
X033000Y014000
X033000Y013000
X033500Y025000
X034000Y026000
X034000Y021000
X034000Y019500
X034000Y018000
X034000Y016000
X034000Y014000
X034000Y013000
X034000Y004000
X034000Y002000
X034500Y025000
X035000Y026000
X035000Y021000
X035000Y018000
X035000Y016000
X036000Y021000
X036000Y019500
X036000Y018000
X036000Y016000
X036750Y014000
X036750Y008000
X037000Y002000
X038250Y018750
X039000Y004000
X039000Y002000
X040000Y021000
X040000Y018000
X040000Y016000
X041000Y022500
X041000Y021000
X041000Y018000
X041000Y017000
X041000Y014000
X041000Y008000
X041000Y006000
X041000Y004000
X041000Y002000
X042000Y021000
X042000Y018000
X042000Y014000
X042000Y008000
X043000Y021000
X043000Y018000
X043000Y017000
X043000Y014000
X043000Y008000
X043000Y006000
X044000Y022500
X044000Y021000
X044000Y018000
X044000Y014000
X044000Y008000
X044000Y002000
X045000Y021000
X045000Y018000
X045000Y014000
X045000Y008000
X045500Y025000
X046000Y026000
X046000Y021000
X046000Y018000
X046000Y014000
X046000Y008000
X046000Y004000
X046000Y002000
X046500Y025000
X047000Y026000
X047000Y021000
X047000Y018000
X047000Y014000
X047000Y008000
X047500Y025000
X048000Y026000
X048000Y014000
X048000Y008000
X048000Y004000
X048000Y002000
X048500Y025000
X049000Y026000
X049000Y018250
X049000Y015250
X049000Y014000
X049000Y008000
X049000Y006000
X050000Y014000
X050000Y011000
X050000Y008000
X051000Y021000
X051000Y018000
X051000Y014000
X051000Y008000
X052000Y021000
X052000Y018000
X052000Y017000
X052000Y014000
X052000Y008000
X052000Y006000
X053000Y021000
X053000Y018000
X053000Y014000
X053000Y008000
X053000Y006000
X054000Y021000
X054000Y018000
X054000Y017000
X054000Y014000
X054000Y008000
X055000Y021000
X055000Y018000
X055000Y014000
X055000Y008000
X056000Y021000
X056000Y018000
X057000Y021000
X057000Y018000
X057000Y006000
X057750Y011000
X058000Y021000
X058000Y018000
X059500Y025000
X060000Y026000
X060500Y025000
X061000Y026000
X061500Y025000
X062000Y026000
X062500Y025000
X063000Y026000
T45
X001000Y009000
X001000Y007000
X002000Y008000
X009000Y002000
X011000Y002000
T47
X002000Y020000
X002000Y002000
X065000Y020000
X065000Y002000
M30
